<svg width="48" height="48" viewBox="0 0 48 48" fill="none" xmlns="http://www.w3.org/2000/svg">
<path d="M40.7745 28.7269C40.7745 36.4871 33.2584 42.778 23.9869 42.778C14.7153 42.778 7.19922 36.4871 7.19922 28.7269C7.19922 20.9667 14.7153 14.6758 23.9869 14.6758C33.2584 14.6758 40.7745 20.9667 40.7745 28.7269Z" fill="#F55A57"/>
<path d="M20.9268 23.6395C20.9268 24.8276 20.3827 25.7908 19.7115 25.7908C19.0402 25.7908 18.4961 24.8276 18.4961 23.6395C18.4961 22.4514 19.0402 21.4883 19.7115 21.4883C20.3827 21.4883 20.9268 22.4514 20.9268 23.6395Z" fill="black"/>
<path d="M29.5011 23.6395C29.5011 24.8276 28.9569 25.7908 28.2857 25.7908C27.6145 25.7908 27.0703 24.8276 27.0703 23.6395C27.0703 22.4514 27.6145 21.4883 28.2857 21.4883C28.9569 21.4883 29.5011 22.4514 29.5011 23.6395Z" fill="black"/>
<path d="M19.0429 30.6406C19.0789 32.5683 21.312 34.0898 24.0306 34.0389C26.7491 33.988 28.9237 32.3841 28.8876 30.4564C28.8516 28.5287 26.6704 29.7786 23.9518 29.8295C21.2333 29.8804 19.0068 28.7129 19.0429 30.6406Z" fill="black"/>
<path d="M16.7962 8.9035C19.6769 6.64515 26.0997 9.19148 26.1001 13.0219C26.1006 17.542 14.0864 19.6232 11.801 19.9782C11.5516 20.0169 11.3034 20.044 11.0536 20.039C9.42528 20.0062 3.61475 19.2375 16.7962 8.9035Z" fill="#6E5232"/>
<path d="M16.7962 8.9035C19.6769 6.64515 26.0997 9.19148 26.1001 13.0219C26.1006 17.542 14.0864 19.6232 11.801 19.9782C11.5516 20.0169 11.3034 20.044 11.0536 20.039C9.42528 20.0062 3.61475 19.2375 16.7962 8.9035Z" fill="url(#paint0_radial_952_3623)" fill-opacity="0.15"/>
<path d="M31.1999 8.76288C28.3192 6.50453 21.8964 9.05085 21.896 12.8813C21.8955 17.4014 33.9097 19.4825 36.1951 19.8375C36.4445 19.8763 36.6926 19.9034 36.9425 19.8984C38.5708 19.8656 44.3813 19.0968 31.1999 8.76288Z" fill="#6E5232"/>
<path d="M31.1999 8.76288C28.3192 6.50453 21.8964 9.05085 21.896 12.8813C21.8955 17.4014 33.9097 19.4825 36.1951 19.8375C36.4445 19.8763 36.6926 19.9034 36.9425 19.8984C38.5708 19.8656 44.3813 19.0968 31.1999 8.76288Z" fill="url(#paint1_radial_952_3623)" fill-opacity="0.15"/>
<defs>
<radialGradient id="paint0_radial_952_3623" cx="0" cy="0" r="1" gradientUnits="userSpaceOnUse" gradientTransform="translate(-153.441 4.83531) rotate(65.4889) scale(3.32531 8.21233)">
<stop offset="0.33" stop-opacity="0"/>
<stop offset="0.655" stop-opacity="0.6"/>
<stop offset="1"/>
</radialGradient>
<radialGradient id="paint1_radial_952_3623" cx="0" cy="0" r="1" gradientUnits="userSpaceOnUse" gradientTransform="translate(201.296 3.85723) rotate(114.511) scale(3.32531 8.21233)">
<stop offset="0.33" stop-opacity="0"/>
<stop offset="0.655" stop-opacity="0.6"/>
<stop offset="1"/>
</radialGradient>
</defs>
</svg>
