<svg width="48" height="48" viewBox="0 0 48 48" fill="none" xmlns="http://www.w3.org/2000/svg">
<path fill-rule="evenodd" clip-rule="evenodd" d="M22.6158 16.8089C21.5126 15.8435 20.3913 13.7656 19.7329 11.2528C18.773 7.59002 19.16 4.39037 20.5973 4.1062C21.8994 3.84873 23.6168 6.07271 24.642 9.21702C25.7577 7.00589 27.0575 5.59606 27.9316 5.8216C29.1108 6.12589 29.0685 9.29172 27.837 12.8927C26.6056 16.4936 24.6513 19.1661 23.472 18.8618C22.9211 18.7197 22.6368 17.9529 22.6158 16.8089Z" fill="#1CB76B"/>
<path fill-rule="evenodd" clip-rule="evenodd" d="M22.6158 16.8089C21.5126 15.8435 20.3913 13.7656 19.7329 11.2528C18.773 7.59002 19.16 4.39037 20.5973 4.1062C21.8994 3.84873 23.6168 6.07271 24.642 9.21702C25.7577 7.00589 27.0575 5.59606 27.9316 5.8216C29.1108 6.12589 29.0685 9.29172 27.837 12.8927C26.6056 16.4936 24.6513 19.1661 23.472 18.8618C22.9211 18.7197 22.6368 17.9529 22.6158 16.8089Z" fill="url(#paint0_radial_952_3613)" fill-opacity="0.2"/>
<path d="M7.22974 28.5835C7.22974 36.5212 14.737 42.956 23.9977 42.956C33.2584 42.956 40.7656 36.5212 40.7656 28.5835C40.7656 20.6457 33.2584 14.2109 23.9977 14.2109C14.737 14.2109 7.22974 20.6457 7.22974 28.5835Z" fill="#1CB76B"/>
<path fill-rule="evenodd" clip-rule="evenodd" d="M19.1809 31.2442C19.0875 30.7023 18.5737 30.3372 18.0307 30.4279C17.486 30.5189 17.1181 31.0342 17.2091 31.579L18.1955 31.4142C17.2091 31.579 17.2092 31.5795 17.2093 31.5801L17.2095 31.5813L17.21 31.5841L17.2112 31.591L17.2146 31.6096C17.2173 31.6241 17.2209 31.643 17.2256 31.6658C17.235 31.7114 17.2486 31.7732 17.2674 31.8487C17.305 31.9996 17.3639 32.2072 17.452 32.4526C17.6273 32.9409 17.9239 33.5943 18.4125 34.252C19.4159 35.6026 21.1805 36.8972 24.1072 36.8972C27.0384 36.8972 28.7543 35.5971 29.7001 34.2225C30.1579 33.5571 30.4211 32.8971 30.5706 32.4057C30.6457 32.1585 30.6935 31.9496 30.723 31.7977C30.7378 31.7217 30.7481 31.6595 30.755 31.6135C30.7585 31.5905 30.7611 31.5715 30.7631 31.5567L30.7654 31.5379L30.7663 31.531L30.7666 31.5281L30.7667 31.5269C30.7668 31.5263 30.7669 31.5257 29.7731 31.4142L30.7669 31.5257C30.8284 30.9769 30.4334 30.482 29.8846 30.4205C29.3376 30.3591 28.8442 30.7512 28.78 31.2972L28.7773 31.3157C28.7744 31.3353 28.7688 31.3695 28.7598 31.416C28.7416 31.5092 28.7098 31.6506 28.6571 31.8237C28.5509 32.1728 28.3657 32.6336 28.0524 33.0889C27.4559 33.9558 26.339 34.8972 24.1072 34.8972C21.871 34.8972 20.6798 33.9502 20.018 33.0594C19.674 32.5963 19.4608 32.129 19.3343 31.7768C19.2716 31.6019 19.2315 31.4592 19.208 31.3649C19.1963 31.3179 19.1888 31.2834 19.1847 31.2633L19.1809 31.2442ZM19.1809 31.2442C19.1809 31.2442 19.1809 31.2442 19.1809 31.2442V31.2442ZM28.7796 31.3007L28.78 31.2972L28.7796 31.3007Z" fill="black"/>
<path fill-rule="evenodd" clip-rule="evenodd" d="M16.3563 22.627C16.5711 22.1182 17.1577 21.8798 17.6665 22.0946L21.5202 23.7213C21.8747 23.8709 22.1119 24.2106 22.1302 24.5949C22.1486 24.9792 21.9448 25.3399 21.6062 25.5226L17.7525 27.6021C17.2664 27.8644 16.6598 27.683 16.3975 27.1969C16.1353 26.7109 16.3167 26.1043 16.8027 25.842L18.8212 24.7529L16.8887 23.9372C16.3799 23.7224 16.1415 23.1358 16.3563 22.627Z" fill="black"/>
<path fill-rule="evenodd" clip-rule="evenodd" d="M30.6945 22.627C30.4797 22.1182 29.8931 21.8798 29.3843 22.0946L25.5305 23.7213C25.1761 23.8709 24.9389 24.2106 24.9206 24.5949C24.9022 24.9792 25.106 25.3399 25.4445 25.5226L29.2983 27.6021C29.7843 27.8644 30.391 27.683 30.6532 27.1969C30.9155 26.7109 30.7341 26.1043 30.2481 25.842L28.2296 24.7529L30.1621 23.9372C30.6709 23.7224 30.9092 23.1358 30.6945 22.627Z" fill="black"/>
<defs>
<radialGradient id="paint0_radial_952_3613" cx="0" cy="0" r="1" gradientUnits="userSpaceOnUse" gradientTransform="translate(23.9973 11.4857) rotate(90) scale(7.39975 4.79175)">
<stop offset="0.16" stop-opacity="0"/>
<stop offset="1" stop-color="#1CB76B"/>
</radialGradient>
</defs>
</svg>
