<svg width="48" height="48" viewBox="0 0 48 48" fill="none" xmlns="http://www.w3.org/2000/svg">
<path d="M23.967 9.28036L42.7256 42.9582L5.33844 43.0303L23.967 9.28036Z" fill="#228CDA"/>
<path fill-rule="evenodd" clip-rule="evenodd" d="M18.375 36.4648C18.375 35.9126 18.8227 35.4648 19.375 35.4648H28.7415C29.2938 35.4648 29.7415 35.9126 29.7415 36.4648C29.7415 37.0171 29.2938 37.4648 28.7415 37.4648H19.375C18.8227 37.4648 18.375 37.0171 18.375 36.4648Z" fill="black"/>
<path fill-rule="evenodd" clip-rule="evenodd" d="M17.4667 23.0555C15.4853 23.0593 13.8274 24.731 13.8315 26.8579C13.8356 28.9847 15.4999 30.65 17.4813 30.6462C19.4628 30.6424 21.1206 28.9707 21.1165 26.8438C21.1124 24.717 19.4481 23.0517 17.4667 23.0555ZM11.8315 26.8617C11.8254 23.6918 14.3163 21.0616 17.4628 21.0555C20.6094 21.0495 23.1104 23.6701 23.1165 26.84C23.1226 30.0099 20.6317 32.6401 17.4852 32.6462C14.3386 32.6522 11.8376 30.0316 11.8315 26.8617Z" fill="#FA8F21"/>
<path fill-rule="evenodd" clip-rule="evenodd" d="M30.6659 23.0126C28.6845 23.0164 27.0266 24.688 27.0307 26.8149C27.0348 28.9418 28.6991 30.607 30.6805 30.6032C32.662 30.5994 34.3199 28.9277 34.3158 26.8009C34.3117 24.674 32.6473 23.0087 30.6659 23.0126ZM25.0307 26.8188C25.0246 23.6489 27.5155 21.0186 30.6621 21.0126C33.8086 21.0065 36.3096 23.6271 36.3158 26.797C36.3219 29.9669 33.831 32.5971 30.6844 32.6032C27.5378 32.6093 25.0368 29.9887 25.0307 26.8188Z" fill="#FA8F21"/>
<path fill-rule="evenodd" clip-rule="evenodd" d="M24.9688 27.2117C24.5074 27.1046 24.0179 27.0228 23.6814 27.0309C23.3809 27.0381 22.9458 27.1233 22.537 27.2272C22.343 27.2765 22.1725 27.3254 22.0509 27.3619C21.9903 27.3801 21.9424 27.395 21.9105 27.4051L21.8751 27.4164L21.8672 27.419L21.8662 27.4193C21.8663 27.4193 21.8663 27.4193 21.5527 26.4697C21.239 25.5202 21.2391 25.5202 21.2392 25.5201L21.2413 25.5194L21.2455 25.5181L21.2591 25.5136L21.307 25.4983C21.3476 25.4855 21.4052 25.4676 21.4764 25.4462C21.6184 25.4036 21.8168 25.3467 22.0443 25.2889C22.4781 25.1786 23.0954 25.0445 23.6331 25.0315C24.2362 25.0169 24.932 25.15 25.4211 25.2635C25.6775 25.3231 25.9014 25.3831 26.0617 25.4284C26.142 25.4512 26.207 25.4704 26.2528 25.4841L26.3068 25.5006L26.3222 25.5054L26.3269 25.5068L26.3284 25.5073C26.3285 25.5074 26.3295 25.5077 26.0279 26.4611C25.7263 27.4145 25.7264 27.4146 25.7265 27.4146L25.7253 27.4142L25.7163 27.4114L25.6763 27.3992C25.6401 27.3884 25.586 27.3724 25.5175 27.353C25.3801 27.3141 25.1876 27.2625 24.9688 27.2117Z" fill="#FA8F21"/>
<path d="M19.3709 26.8481C19.373 27.9311 18.5248 28.8106 17.4763 28.8127C16.4278 28.8147 15.5762 27.9384 15.5741 26.8554C15.572 25.7725 16.4203 24.8929 17.4687 24.8909C18.5172 24.8888 19.3688 25.7651 19.3709 26.8481Z" fill="black"/>
<path d="M32.5701 26.8208C32.5722 27.9037 31.724 28.7833 30.6755 28.7853C29.627 28.7873 28.7754 27.9111 28.7733 26.8281C28.7712 25.7451 29.6195 24.8655 30.6679 24.8635C31.7164 24.8615 32.568 25.7378 32.5701 26.8208Z" fill="black"/>
</svg>
