<svg width="465" height="290" viewBox="0 0 465 290" fill="none" xmlns="http://www.w3.org/2000/svg">
<path d="M67.6644 0.484375H424.076C436.978 0.484375 447.438 10.944 447.438 23.8466C447.438 36.7493 436.978 47.2089 424.076 47.2089H400.163C392.865 47.2089 386.948 53.1255 386.948 60.4239C386.948 67.7224 392.865 73.639 400.163 73.639H438.16C452.583 73.639 464.275 85.3312 464.275 99.7544C464.275 114.178 452.583 125.87 438.16 125.87H427.243C418.598 125.87 411.59 132.878 411.59 141.523C411.59 150.168 404.582 157.177 395.936 157.177H388.803C376.218 157.177 366.016 167.379 366.016 179.964V181.562C366.016 195.029 376.933 205.947 390.401 205.947H406.201C413.891 205.947 420.124 212.18 420.124 219.87C420.124 227.559 426.358 233.792 434.047 233.792H442.2C454.392 233.792 464.275 243.676 464.275 255.868V261.638C464.275 277.017 451.808 289.484 436.429 289.484H45.1213C29.7424 289.484 17.2754 277.017 17.2754 261.638C17.2754 246.26 29.7424 233.792 45.1213 233.792H74.9423C82.6317 233.792 88.8652 227.559 88.8652 219.87C88.8652 212.18 82.6317 205.947 74.9422 205.947H69.5335C58.8568 205.947 50.2017 197.291 50.2017 186.615V181.562C50.2017 168.094 61.1192 157.177 74.5866 157.177H84.3119C92.9571 157.177 99.9654 150.168 99.9654 141.523C99.9654 132.878 92.9571 125.87 84.3119 125.87H43.3908C28.9677 125.87 17.2754 114.178 17.2754 99.7544C17.2754 85.3312 28.9677 73.639 43.3908 73.639H69.7506C80.3073 73.639 88.8652 65.0811 88.8652 54.5244C88.8652 43.9677 80.3073 35.4098 69.7506 35.4098H67.6644C58.02 35.4098 50.2017 27.5915 50.2017 17.9471C50.2017 8.3027 58.02 0.484375 67.6644 0.484375Z" fill="white"/>
<path d="M50.1759 13.4844H412.165C424.478 13.4844 434.46 23.466 434.46 35.7789C434.46 48.0918 424.478 58.0734 412.165 58.0734H386.016C379.051 58.0734 373.405 63.7195 373.405 70.6844C373.405 77.6493 379.051 83.2954 386.016 83.2954H426.533C440.297 83.2954 451.454 94.4533 451.454 108.217C451.454 121.981 440.297 133.139 426.533 133.139H413.215C404.965 133.139 398.277 139.827 398.277 148.077C398.277 156.327 391.589 163.015 383.339 163.015H375.277C362.574 163.015 352.277 173.447 352.277 186.15C352.277 199.001 362.695 209.556 375.547 209.556H393.604C400.942 209.556 406.891 215.504 406.891 222.842C406.891 230.18 412.839 236.129 420.177 236.129H429.173C441.478 236.129 451.454 246.105 451.454 258.411V262.702C451.454 277.378 439.557 289.276 424.881 289.276H26.8506C12.1746 289.276 0.277344 277.378 0.277344 262.702C0.277344 248.026 12.1746 236.129 26.8506 236.129H59.2495C66.5876 236.129 72.5362 230.18 72.5362 222.842C72.5362 215.504 66.5875 209.556 59.2495 209.556H53.0237C42.2473 209.556 33.5114 200.82 33.5114 190.043V186.285C33.5114 173.434 43.9298 163.015 56.7817 163.015H68.802C77.0521 163.015 83.7401 156.327 83.7401 148.077C83.7401 139.827 77.0521 133.139 68.802 133.139H25.1991C11.4352 133.139 0.277344 121.981 0.277344 108.217C0.277344 94.4533 11.4352 83.2954 25.1992 83.2954H54.2952C64.3694 83.2954 72.5362 75.1287 72.5362 65.0545C72.5362 54.9803 64.3694 46.8135 54.2952 46.8135H50.1759C40.9724 46.8135 33.5114 39.3525 33.5114 30.1489C33.5114 20.9454 40.9723 13.4844 50.1759 13.4844Z" fill="#2382C9"/>
<path fill-rule="evenodd" clip-rule="evenodd" d="M297.109 47.122C291.524 47.1328 286.801 51.853 286.813 57.9221C286.824 63.9912 291.566 68.6931 297.15 68.6823C302.735 68.6715 307.458 63.9514 307.446 57.8823C307.435 51.8132 302.693 47.1113 297.109 47.122ZM279.313 57.9365C279.293 47.956 287.141 39.6411 297.094 39.6219C307.048 39.6027 314.927 47.8873 314.946 57.8678C314.966 67.8483 307.118 76.1633 297.165 76.1825C287.211 76.2016 279.332 67.9171 279.313 57.9365Z" fill="#FA8F21"/>
<path fill-rule="evenodd" clip-rule="evenodd" d="M337.097 46.997C331.513 47.0078 326.789 51.728 326.801 57.7971C326.813 63.8662 331.554 68.5681 337.139 68.5573C342.723 68.5465 347.446 63.8264 347.435 57.7573C347.423 51.6882 342.681 46.9863 337.097 46.997ZM319.301 57.8115C319.282 47.831 327.129 39.5161 337.083 39.4969C347.036 39.4777 354.916 47.7623 354.935 57.7428C354.954 67.7233 347.107 76.0383 337.153 76.0575C327.199 76.0766 319.32 67.7921 319.301 57.8115Z" fill="#FA8F21"/>
<path fill-rule="evenodd" clip-rule="evenodd" d="M319.68 59.6997C318.292 59.3774 316.882 59.1478 315.959 59.1701C315.133 59.1901 313.881 59.4305 312.651 59.7431C312.075 59.8894 311.569 60.0347 311.207 60.1431C311.028 60.197 310.886 60.2411 310.792 60.2708C310.746 60.2856 310.711 60.2967 310.69 60.3036L310.667 60.3111C310.667 60.311 310.667 60.3109 309.491 56.7501C308.315 53.1892 308.315 53.1891 308.315 53.189L308.323 53.1866L308.336 53.1822L308.38 53.168C308.416 53.1563 308.466 53.1402 308.529 53.1202C308.655 53.0803 308.833 53.0249 309.053 52.959C309.491 52.8278 310.102 52.6524 310.803 52.4741C312.127 52.1377 314.063 51.7136 315.777 51.6722C317.701 51.6257 319.884 52.0474 321.376 52.3938C322.166 52.5773 322.856 52.7625 323.35 52.9021C323.598 52.9721 323.798 53.0314 323.941 53.0742C324.012 53.0957 324.069 53.113 324.109 53.1256L324.158 53.1409L324.174 53.1456L324.182 53.1482C324.182 53.1483 324.182 53.1484 323.052 56.7239C321.921 60.2994 321.921 60.2995 321.921 60.2996L321.895 60.2914C321.871 60.284 321.832 60.2719 321.779 60.256C321.673 60.2241 321.513 60.1768 321.309 60.1193C320.901 60.0039 320.329 59.8504 319.68 59.6997Z" fill="#FA8F21"/>
<path d="M302.884 57.8925C302.89 61.1741 300.32 63.8394 297.143 63.8455C293.966 63.8517 291.385 61.1963 291.379 57.9146C291.372 54.633 293.943 51.9677 297.12 51.9616C300.297 51.9554 302.877 54.6108 302.884 57.8925Z" fill="black"/>
<path d="M342.872 57.8143C342.878 61.096 340.308 63.7613 337.131 63.7674C333.954 63.7735 331.373 61.1182 331.367 57.8365C331.361 54.5548 333.931 51.8896 337.108 51.8834C340.285 51.8773 342.866 54.5327 342.872 57.8143Z" fill="black"/>
<path fill-rule="evenodd" clip-rule="evenodd" d="M308.769 81.7032C308.765 79.6321 310.441 77.9499 312.512 77.9459L322.323 77.927C324.394 77.923 326.076 79.5987 326.08 81.6698C326.084 83.7409 324.409 85.4231 322.338 85.4271L312.526 85.446C310.455 85.45 308.773 83.7743 308.769 81.7032Z" fill="black"/>
</svg>
