<svg width="178" height="253" viewBox="0 0 178 253" fill="none" xmlns="http://www.w3.org/2000/svg">
<g filter="url(#filter0_d_936_9569)">
<path d="M35.6795 240.416C39.4154 242.818 42.0973 242.938 46.033 240.879C57.8401 234.703 48.4597 186.694 48.4597 186.694L38.1062 186.231C38.1062 186.231 24.4719 233.209 35.6795 240.416Z" fill="#2382C9"/>
</g>
<g filter="url(#filter1_d_936_9569)">
<path d="M115.14 239.984C119.001 242.179 121.686 242.152 125.503 239.882C136.955 233.07 124.968 185.645 124.968 185.645L114.604 185.747C114.604 185.747 103.555 233.4 115.14 239.984Z" fill="#2382C9"/>
</g>
<path d="M85.4503 27.3476L2.00065 205.272L168.213 205.593L85.4503 27.3476Z" fill="#228CDA"/>
<path d="M85.4503 27.3476L2.00065 205.272L168.213 205.593L85.4503 27.3476Z" fill="url(#paint0_linear_936_9569)"/>
<path fill-rule="evenodd" clip-rule="evenodd" d="M110.406 76.6419C117.227 76.6551 123.018 82.4237 123.004 89.8694C122.99 97.3152 117.176 103.061 110.355 103.048C103.535 103.035 97.7434 97.2665 97.7578 89.8208C97.7721 82.375 103.586 76.6288 110.406 76.6419ZM133.004 89.8887C133.029 77.2278 123.071 66.6663 110.426 66.6419C97.7799 66.6175 87.7822 77.1406 87.7578 89.8015C87.7334 102.462 97.6904 113.024 110.336 113.048C122.982 113.073 132.98 102.55 133.004 89.8887Z" fill="#FA8F21"/>
<path fill-rule="evenodd" clip-rule="evenodd" d="M60.3068 76.4857C67.127 76.4988 72.9189 82.2674 72.9045 89.7132C72.8901 97.159 67.0761 102.905 60.2559 102.892C53.4357 102.879 47.6438 97.1103 47.6582 89.6645C47.6725 82.2187 53.4866 76.4725 60.3068 76.4857ZM82.9045 89.7325C82.9289 77.0716 72.9719 66.5101 60.3261 66.4857C47.6803 66.4613 37.6826 76.9843 37.6582 89.6452C37.6338 102.306 47.5908 112.868 60.2366 112.892C72.8824 112.916 82.8801 102.393 82.9045 89.7325Z" fill="#FA8F21"/>
<path fill-rule="evenodd" clip-rule="evenodd" d="M82.1993 92.3903C83.934 91.9876 85.6683 91.7076 86.7854 91.7346C87.7835 91.7588 89.3254 92.0526 90.8625 92.4433C91.5786 92.6253 92.2091 92.8061 92.6586 92.9409C92.8822 93.008 93.0582 93.0628 93.1743 93.0995C93.2322 93.1179 93.275 93.1316 93.3011 93.1401L93.3275 93.1487C93.3271 93.1485 93.3275 93.1487 94.8958 88.401C96.464 83.6533 96.4636 83.6531 96.4631 83.653L96.4537 83.6499L96.4363 83.6442L96.3809 83.6261C96.335 83.6113 96.2714 83.5909 96.1917 83.5656C96.0324 83.5152 95.808 83.4454 95.5312 83.3624C94.9799 83.197 94.2096 82.9761 93.3261 82.7515C91.664 82.329 89.2111 81.7903 87.0271 81.7376C84.5768 81.6783 81.8113 82.2144 79.9379 82.6493C78.9418 82.8806 78.0728 83.1138 77.4508 83.2897C77.1385 83.3779 76.8852 83.4527 76.7055 83.5068C76.6156 83.5339 76.5439 83.5558 76.4922 83.5718L76.4298 83.5912L76.4102 83.5973L76.3996 83.6007C76.3991 83.6008 76.3986 83.601 77.9065 88.3682C79.4144 93.1354 79.4139 93.1356 79.4135 93.1357L79.4146 93.1354L79.4446 93.126C79.4742 93.1169 79.5226 93.102 79.5882 93.0823C79.7196 93.0427 79.9186 92.9839 80.1713 92.9125C80.6794 92.7688 81.3914 92.5778 82.1993 92.3903Z" fill="#FA8F21"/>
<path d="M103.173 89.8305C103.165 93.9418 106.386 97.2809 110.366 97.2886C114.346 97.2963 117.579 93.9696 117.587 89.8583C117.595 85.7469 114.375 82.4078 110.395 82.4002C106.414 82.3925 103.181 85.7192 103.173 89.8305Z" fill="black"/>
<path d="M53.0716 89.7348C53.0637 93.8461 56.284 97.1852 60.2643 97.1929C64.2446 97.2005 67.4777 93.8739 67.4856 89.7626C67.4936 85.6512 64.2733 82.3121 60.293 82.3045C56.3127 82.2968 53.0796 85.6235 53.0716 89.7348Z" fill="black"/>
<path fill-rule="evenodd" clip-rule="evenodd" d="M96.1017 119.639C96.107 116.877 93.8728 114.634 91.1113 114.629L78.8202 114.605C76.0587 114.6 73.8159 116.834 73.8105 119.596C73.8052 122.357 76.0395 124.6 78.8009 124.605L91.0921 124.629C93.8535 124.634 96.0964 122.4 96.1017 119.639Z" fill="black"/>
<g filter="url(#filter2_d_936_9569)">
<path d="M17.3943 89.8056C13.6254 89.8018 11.6404 90.9364 9.73102 94.1859C4.00299 103.934 32.3175 133.701 32.3175 133.701L39.9807 129.321C39.9807 129.321 28.7009 89.817 17.3943 89.8056Z" fill="#228CDA"/>
</g>
<g filter="url(#filter3_d_936_9569)">
<path d="M89.1085 92.798C85.488 93.8451 83.898 95.4882 82.9703 99.1411C80.1873 110.1 115.678 130.792 115.678 130.792L121.816 124.449C121.816 124.449 99.97 89.6567 89.1085 92.798Z" fill="#2583C8"/>
</g>
<path d="M155.585 46.0334C156.551 43.4214 160.246 43.4214 161.212 46.0334L164.298 54.373C164.602 55.1942 165.249 55.8417 166.07 56.1456L174.41 59.2315C177.022 60.1979 177.022 63.8922 174.41 64.8587L166.071 67.9446C165.249 68.2485 164.602 68.8959 164.298 69.7171L161.212 78.0572C160.246 80.6691 156.551 80.6691 155.585 78.0572L152.499 69.7171C152.195 68.8959 151.548 68.2485 150.726 67.9446L142.386 64.8586C139.774 63.8922 139.775 60.1979 142.386 59.2315L150.727 56.1454C151.548 55.8416 152.195 55.1941 152.499 54.3729L155.585 46.0334Z" fill="#FFFA72"/>
<path d="M125.338 5.36168C126.949 1.00839 133.106 1.00838 134.717 5.36166L138.709 16.1509C139.215 17.5196 140.294 18.5988 141.663 19.1052L152.453 23.0977C156.806 24.7084 156.806 30.8655 152.453 32.4763L141.663 36.4687C140.295 36.9752 139.216 38.0542 138.709 39.4229L134.717 50.213C133.106 54.5661 126.949 54.5661 125.338 50.213L121.346 39.4229C120.839 38.0542 119.76 36.9752 118.391 36.4687L107.601 32.4762C103.248 30.8655 103.248 24.7084 107.601 23.0977L118.392 19.105C119.761 18.5986 120.84 17.5195 121.346 16.1508L125.338 5.36168Z" fill="#FFFA72"/>
<defs>
<filter id="filter0_d_936_9569" x="23.2578" y="184.23" width="32.7344" height="68.0977" filterUnits="userSpaceOnUse" color-interpolation-filters="sRGB">
<feFlood flood-opacity="0" result="BackgroundImageFix"/>
<feColorMatrix in="SourceAlpha" type="matrix" values="0 0 0 0 0 0 0 0 0 0 0 0 0 0 0 0 0 0 127 0" result="hardAlpha"/>
<feOffset dx="-2" dy="4"/>
<feGaussianBlur stdDeviation="3"/>
<feComposite in2="hardAlpha" operator="out"/>
<feColorMatrix type="matrix" values="0 0 0 0 0 0 0 0 0 0 0 0 0 0 0 0 0 0 0.25 0"/>
<feBlend mode="normal" in2="BackgroundImageFix" result="effect1_dropShadow_936_9569"/>
<feBlend mode="normal" in="SourceGraphic" in2="effect1_dropShadow_936_9569" result="shape"/>
</filter>
<filter id="filter1_d_936_9569" x="101.848" y="183.645" width="32.6094" height="67.9629" filterUnits="userSpaceOnUse" color-interpolation-filters="sRGB">
<feFlood flood-opacity="0" result="BackgroundImageFix"/>
<feColorMatrix in="SourceAlpha" type="matrix" values="0 0 0 0 0 0 0 0 0 0 0 0 0 0 0 0 0 0 127 0" result="hardAlpha"/>
<feOffset dx="-2" dy="4"/>
<feGaussianBlur stdDeviation="3"/>
<feComposite in2="hardAlpha" operator="out"/>
<feColorMatrix type="matrix" values="0 0 0 0 0 0 0 0 0 0 0 0 0 0 0 0 0 0 0.25 0"/>
<feBlend mode="normal" in2="BackgroundImageFix" result="effect1_dropShadow_936_9569"/>
<feBlend mode="normal" in="SourceGraphic" in2="effect1_dropShadow_936_9569" result="shape"/>
</filter>
<filter id="filter2_d_936_9569" x="0.966797" y="87.8047" width="43.0137" height="55.8965" filterUnits="userSpaceOnUse" color-interpolation-filters="sRGB">
<feFlood flood-opacity="0" result="BackgroundImageFix"/>
<feColorMatrix in="SourceAlpha" type="matrix" values="0 0 0 0 0 0 0 0 0 0 0 0 0 0 0 0 0 0 127 0" result="hardAlpha"/>
<feOffset dx="-2" dy="4"/>
<feGaussianBlur stdDeviation="3"/>
<feComposite in2="hardAlpha" operator="out"/>
<feColorMatrix type="matrix" values="0 0 0 0 0 0 0 0 0 0 0 0 0 0 0 0 0 0 0.25 0"/>
<feBlend mode="normal" in2="BackgroundImageFix" result="effect1_dropShadow_936_9569"/>
<feBlend mode="normal" in="SourceGraphic" in2="effect1_dropShadow_936_9569" result="shape"/>
</filter>
<filter id="filter3_d_936_9569" x="74.8145" y="90.5977" width="51.002" height="50.1953" filterUnits="userSpaceOnUse" color-interpolation-filters="sRGB">
<feFlood flood-opacity="0" result="BackgroundImageFix"/>
<feColorMatrix in="SourceAlpha" type="matrix" values="0 0 0 0 0 0 0 0 0 0 0 0 0 0 0 0 0 0 127 0" result="hardAlpha"/>
<feOffset dx="-2" dy="4"/>
<feGaussianBlur stdDeviation="3"/>
<feComposite in2="hardAlpha" operator="out"/>
<feColorMatrix type="matrix" values="0 0 0 0 0 0 0 0 0 0 0 0 0 0 0 0 0 0 0.25 0"/>
<feBlend mode="normal" in2="BackgroundImageFix" result="effect1_dropShadow_936_9569"/>
<feBlend mode="normal" in="SourceGraphic" in2="effect1_dropShadow_936_9569" result="shape"/>
</filter>
<linearGradient id="paint0_linear_936_9569" x1="85.4503" y1="27.3476" x2="85.107" y2="205.433" gradientUnits="userSpaceOnUse">
<stop stop-color="#2189D6" stop-opacity="0"/>
<stop offset="1" stop-color="#266798" stop-opacity="0.7"/>
</linearGradient>
</defs>
</svg>
