<svg width="296" height="289" viewBox="0 0 296 289" fill="none" xmlns="http://www.w3.org/2000/svg">
<g filter="url(#filter0_d_936_9496)">
<path d="M236.819 242.526C243.086 241.174 245.978 238.571 247.981 232.48C253.989 214.207 196.179 174.924 196.179 174.924L185.017 184.97C185.017 184.97 218.016 246.584 236.819 242.526Z" fill="#1CB76B"/>
</g>
<g filter="url(#filter1_d_936_9496)">
<path d="M64.7892 44.4069C58.548 42.9364 54.8194 44.0446 50.3945 48.6851C37.1198 62.6065 72.4546 122.91 72.4546 122.91L86.8493 118.632C86.8493 118.632 83.5125 48.8183 64.7892 44.4069Z" fill="#1CB76B"/>
</g>
<g filter="url(#filter2_d_936_9496)">
<path d="M116.268 254.679C122.345 256.729 126.161 255.974 131 251.766C145.517 239.141 115.97 175.754 115.97 175.754L101.238 178.667C101.238 178.667 98.0384 248.53 116.268 254.679Z" fill="#1CB76B"/>
</g>
<g filter="url(#filter3_d_936_9496)">
<path d="M179.721 260.309C186.067 261.228 189.684 259.798 193.686 254.789C205.693 239.76 165.219 182.777 165.219 182.777L151.254 188.298C151.254 188.298 160.684 257.552 179.721 260.309Z" fill="#1CB76B"/>
</g>
<g filter="url(#filter4_d_936_9496)">
<path fill-rule="evenodd" clip-rule="evenodd" d="M163.029 68.5547C162.909 66.4024 162.882 64.1701 162.956 61.8867C163.487 45.5809 169.012 32.8409 175.297 33.4311C180.991 33.9659 185.355 45.2603 185.73 59.5061C193.052 51.7425 200.151 47.5146 203.484 49.5189C207.981 52.2229 203.921 65.2462 194.416 78.6073C194.106 79.0423 193.795 79.4723 193.482 79.8971C228.266 99.5288 247.016 137.226 236.585 172.328C224.17 214.11 175.112 236.394 127.011 222.1C78.9107 207.807 49.9826 162.349 62.3983 120.567C74.0447 81.3742 117.933 59.3377 163.029 68.5547Z" fill="#1CB76B"/>
</g>
<path d="M161.815 134.513C158.982 144.049 165.584 154.423 176.561 157.685C187.539 160.947 198.735 155.862 201.569 146.326C204.402 136.791 197.8 126.416 186.823 123.154C175.845 119.892 164.649 124.978 161.815 134.513Z" fill="white"/>
<path d="M105.936 117.908C103.103 127.443 109.705 137.818 120.683 141.08C131.66 144.342 142.856 139.256 145.69 129.721C148.523 120.185 141.921 109.811 130.944 106.549C119.966 103.287 108.77 108.372 105.936 117.908Z" fill="white"/>
<path d="M164.424 130.918C162.649 136.892 166.785 143.391 173.662 145.435C180.54 147.478 187.554 144.292 189.329 138.318C191.104 132.345 186.968 125.845 180.091 123.802C173.213 121.758 166.199 124.944 164.424 130.918Z" fill="black"/>
<path d="M109.401 113.467C107.626 119.441 111.762 125.94 118.639 127.984C125.516 130.027 132.53 126.841 134.305 120.867C136.08 114.894 131.944 108.394 125.067 106.351C118.19 104.307 111.176 107.493 109.401 113.467Z" fill="black"/>
<path fill-rule="evenodd" clip-rule="evenodd" d="M157.926 167.888C159.801 169.057 160.374 171.524 159.205 173.399C155.447 179.428 147.111 183.483 138.957 182.674C134.741 182.256 130.508 180.54 126.943 177.11C123.396 173.697 120.711 168.784 119.202 162.272C118.704 160.12 120.044 157.971 122.196 157.472C124.348 156.974 126.497 158.314 126.996 160.466C128.235 165.814 130.29 169.228 132.49 171.345C134.672 173.445 137.192 174.46 139.746 174.713C145.13 175.247 150.402 172.398 152.416 169.167C153.584 167.293 156.051 166.72 157.926 167.888Z" fill="black"/>
<path fill-rule="evenodd" clip-rule="evenodd" d="M260.668 199.432C260.668 199.432 260.668 199.432 262 197.316C263.333 195.201 263.333 195.201 263.333 195.201L263.345 195.209L263.376 195.228L263.492 195.302C263.593 195.366 263.74 195.461 263.929 195.583C264.307 195.827 264.853 196.183 265.531 196.634C266.885 197.536 268.768 198.82 270.891 200.353C275.109 203.399 280.38 207.503 284.303 211.584C287.695 215.113 290.48 218.277 292.419 220.562C293.389 221.705 294.148 222.629 294.667 223.27C294.926 223.591 295.126 223.841 295.262 224.012C295.329 224.098 295.381 224.164 295.417 224.209L295.458 224.261L295.469 224.275L295.473 224.281C295.474 224.281 295.474 224.282 293.5 225.816C291.527 227.351 291.527 227.351 291.527 227.351L291.518 227.339L291.484 227.296C291.453 227.257 291.406 227.197 291.343 227.118C291.218 226.96 291.029 226.723 290.781 226.416C290.284 225.802 289.549 224.908 288.607 223.797C286.72 221.575 284.005 218.489 280.698 215.049C277.093 211.299 272.114 207.403 267.964 204.407C265.903 202.918 264.073 201.671 262.759 200.796C262.103 200.359 261.576 200.015 261.216 199.783C261.036 199.666 260.897 199.577 260.804 199.518L260.7 199.452L260.675 199.436L260.668 199.432Z" fill="black"/>
<path fill-rule="evenodd" clip-rule="evenodd" d="M263.444 224.293C263.445 224.293 263.445 224.293 264.975 222.316C266.506 220.339 266.506 220.34 266.506 220.34L266.517 220.348L266.546 220.371L266.654 220.455C266.749 220.529 266.886 220.637 267.063 220.777C267.415 221.057 267.924 221.464 268.555 221.979C269.815 223.007 271.566 224.467 273.53 226.198C277.434 229.637 282.284 234.233 285.793 238.673C288.871 242.567 291.223 246.183 292.808 248.829C293.602 250.154 294.205 251.239 294.613 251.998C294.817 252.378 294.972 252.677 295.078 252.884C295.131 252.988 295.171 253.069 295.2 253.125L295.232 253.191L295.242 253.211L295.245 253.217L295.246 253.219C295.246 253.219 295.247 253.22 293 254.316C290.752 255.412 290.753 255.412 290.753 255.412L290.748 255.403L290.725 255.357C290.704 255.315 290.671 255.248 290.625 255.159C290.534 254.981 290.395 254.712 290.207 254.363C289.833 253.666 289.268 252.649 288.519 251.399C287.019 248.895 284.787 245.464 281.871 241.774C278.645 237.692 274.066 233.334 270.225 229.95C268.318 228.269 266.617 226.85 265.394 225.853C264.783 225.354 264.292 224.962 263.956 224.695C263.788 224.562 263.658 224.46 263.571 224.392L263.474 224.316L263.451 224.298L263.444 224.293Z" fill="black"/>
<defs>
<filter id="filter0_d_936_9496" x="177.018" y="172.924" width="75.4004" height="79.7949" filterUnits="userSpaceOnUse" color-interpolation-filters="sRGB">
<feFlood flood-opacity="0" result="BackgroundImageFix"/>
<feColorMatrix in="SourceAlpha" type="matrix" values="0 0 0 0 0 0 0 0 0 0 0 0 0 0 0 0 0 0 127 0" result="hardAlpha"/>
<feOffset dx="-2" dy="4"/>
<feGaussianBlur stdDeviation="3"/>
<feComposite in2="hardAlpha" operator="out"/>
<feColorMatrix type="matrix" values="0 0 0 0 0 0 0 0 0 0 0 0 0 0 0 0 0 0 0.25 0"/>
<feBlend mode="normal" in2="BackgroundImageFix" result="effect1_dropShadow_936_9496"/>
<feBlend mode="normal" in="SourceGraphic" in2="effect1_dropShadow_936_9496" result="shape"/>
</filter>
<filter id="filter1_d_936_9496" x="39.4121" y="41.7988" width="51.4375" height="91.1113" filterUnits="userSpaceOnUse" color-interpolation-filters="sRGB">
<feFlood flood-opacity="0" result="BackgroundImageFix"/>
<feColorMatrix in="SourceAlpha" type="matrix" values="0 0 0 0 0 0 0 0 0 0 0 0 0 0 0 0 0 0 127 0" result="hardAlpha"/>
<feOffset dx="-2" dy="4"/>
<feGaussianBlur stdDeviation="3"/>
<feComposite in2="hardAlpha" operator="out"/>
<feColorMatrix type="matrix" values="0 0 0 0 0 0 0 0 0 0 0 0 0 0 0 0 0 0 0.25 0"/>
<feBlend mode="normal" in2="BackgroundImageFix" result="effect1_dropShadow_936_9496"/>
<feBlend mode="normal" in="SourceGraphic" in2="effect1_dropShadow_936_9496" result="shape"/>
</filter>
<filter id="filter2_d_936_9496" x="93.0215" y="173.754" width="45.9902" height="92.0195" filterUnits="userSpaceOnUse" color-interpolation-filters="sRGB">
<feFlood flood-opacity="0" result="BackgroundImageFix"/>
<feColorMatrix in="SourceAlpha" type="matrix" values="0 0 0 0 0 0 0 0 0 0 0 0 0 0 0 0 0 0 127 0" result="hardAlpha"/>
<feOffset dx="-2" dy="4"/>
<feGaussianBlur stdDeviation="3"/>
<feComposite in2="hardAlpha" operator="out"/>
<feColorMatrix type="matrix" values="0 0 0 0 0 0 0 0 0 0 0 0 0 0 0 0 0 0 0.25 0"/>
<feBlend mode="normal" in2="BackgroundImageFix" result="effect1_dropShadow_936_9496"/>
<feBlend mode="normal" in="SourceGraphic" in2="effect1_dropShadow_936_9496" result="shape"/>
</filter>
<filter id="filter3_d_936_9496" x="143.254" y="180.777" width="56.6582" height="89.793" filterUnits="userSpaceOnUse" color-interpolation-filters="sRGB">
<feFlood flood-opacity="0" result="BackgroundImageFix"/>
<feColorMatrix in="SourceAlpha" type="matrix" values="0 0 0 0 0 0 0 0 0 0 0 0 0 0 0 0 0 0 127 0" result="hardAlpha"/>
<feOffset dx="-2" dy="4"/>
<feGaussianBlur stdDeviation="3"/>
<feComposite in2="hardAlpha" operator="out"/>
<feColorMatrix type="matrix" values="0 0 0 0 0 0 0 0 0 0 0 0 0 0 0 0 0 0 0.25 0"/>
<feBlend mode="normal" in2="BackgroundImageFix" result="effect1_dropShadow_936_9496"/>
<feBlend mode="normal" in="SourceGraphic" in2="effect1_dropShadow_936_9496" result="shape"/>
</filter>
<filter id="filter4_d_936_9496" x="43.9215" y="30.8121" width="197.139" height="210.214" filterUnits="userSpaceOnUse" color-interpolation-filters="sRGB">
<feFlood flood-opacity="0" result="BackgroundImageFix"/>
<feColorMatrix in="SourceAlpha" type="matrix" values="0 0 0 0 0 0 0 0 0 0 0 0 0 0 0 0 0 0 127 0" result="hardAlpha"/>
<feOffset dx="-7" dy="6"/>
<feGaussianBlur stdDeviation="4.3"/>
<feComposite in2="hardAlpha" operator="out"/>
<feColorMatrix type="matrix" values="0 0 0 0 0 0 0 0 0 0 0 0 0 0 0 0 0 0 0.25 0"/>
<feBlend mode="normal" in2="BackgroundImageFix" result="effect1_dropShadow_936_9496"/>
<feBlend mode="normal" in="SourceGraphic" in2="effect1_dropShadow_936_9496" result="shape"/>
</filter>
</defs>
</svg>
