<svg width="319" height="283" viewBox="0 0 319 283" fill="none" xmlns="http://www.w3.org/2000/svg">
<g filter="url(#filter0_d_936_9525)">
<path d="M307.777 173.387C313.247 177.999 314.736 182.076 313.524 189.127C309.89 210.281 232.364 218.764 232.364 218.764L226.616 203.025C226.616 203.025 291.366 159.553 307.777 173.387Z" fill="#1CB76B"/>
</g>
<g filter="url(#filter1_d_936_9525)">
<path d="M187.847 266.794C183.237 272.266 179.16 273.755 172.108 272.545C150.954 268.915 142.455 191.39 142.455 191.39L158.194 185.639C158.194 185.639 201.678 250.38 187.847 266.794Z" fill="#1CB76B"/>
</g>
<g filter="url(#filter2_d_936_9525)">
<path d="M78.454 246.051C71.5775 244.075 68.5537 240.961 66.7806 234.03C61.4611 213.236 128.766 173.837 128.766 173.837L140.44 185.858C140.44 185.858 99.0833 251.978 78.454 246.051Z" fill="#1CB76B"/>
</g>
<g filter="url(#filter3_d_936_9525)">
<path d="M13.4219 168.492C8.73984 163.082 7.9068 158.822 10.206 152.047C17.1035 131.721 95.0026 135.464 95.0026 135.464L98.2185 151.909C98.2185 151.909 27.4683 184.721 13.4219 168.492Z" fill="#1CB76B"/>
</g>
<g filter="url(#filter4_d_936_9525)">
<path fill-rule="evenodd" clip-rule="evenodd" d="M195.737 72.7027C197.181 70.7797 198.59 68.7253 199.936 66.5604C209.548 51.1007 212.316 35.855 206.118 32.5081C200.503 29.4757 189.455 37.2517 180.279 50.2385C178.296 38.4967 174.328 30.1739 169.993 29.9681C164.144 29.6905 159.842 44.2913 160.382 62.5799C160.4 63.1754 160.422 63.7675 160.45 64.3557C116.006 61.0164 75.2465 84.3767 63.1728 123.413C48.8016 169.878 80.5145 220.956 134.006 237.501C187.497 254.045 242.51 229.79 256.881 183.326C270.362 139.741 243.293 92.096 195.737 72.7027Z" fill="#1CB76B"/>
</g>
<path d="M155.989 134.661C152.709 145.265 140.154 150.801 127.946 147.025C115.738 143.249 108.5 131.592 111.78 120.988C115.06 110.384 127.615 104.848 139.823 108.624C152.031 112.4 159.268 124.057 155.989 134.661Z" fill="white"/>
<path d="M218.129 153.882C214.849 164.486 202.294 170.022 190.086 166.246C177.879 162.47 170.641 150.813 173.921 140.208C177.201 129.604 189.756 124.069 201.964 127.845C214.171 131.62 221.409 143.278 218.129 153.882Z" fill="white"/>
<path d="M155.989 134.661C153.934 141.305 146.069 144.772 138.421 142.407C130.773 140.041 126.239 132.738 128.293 126.095C130.348 119.452 138.214 115.984 145.861 118.349C153.509 120.715 158.044 128.018 155.989 134.661Z" fill="black"/>
<path d="M218.446 152.859C216.391 159.502 208.526 162.97 200.878 160.604C193.23 158.239 188.696 150.936 190.75 144.292C192.805 137.649 200.671 134.181 208.319 136.547C215.966 138.912 220.501 146.215 218.446 152.859Z" fill="black"/>
<path d="M139.043 165.106C137.764 164.55 136.348 165.434 136.367 166.829C136.448 172.612 137.422 185.47 144.277 189.696C152.264 194.62 165.597 186.2 171.186 182.167C172.397 181.293 172.155 179.491 170.785 178.896L139.043 165.106Z" fill="#FF0909"/>
<path fill-rule="evenodd" clip-rule="evenodd" d="M139.417 168.54C139.532 171.241 139.858 174.766 140.693 178.123C141.759 182.41 143.471 185.675 145.852 187.143C148.549 188.806 152.648 188.436 157.526 186.502C161.375 184.977 165.094 182.718 167.806 180.873L139.417 168.54ZM133.368 166.872C133.316 163.152 137.098 160.991 140.239 162.355L171.981 176.146C175.345 177.607 176.16 182.278 172.942 184.6C170.07 186.673 165.106 189.952 159.736 192.08C154.554 194.134 147.993 195.512 142.703 192.251C138.229 189.492 136.026 184.215 134.871 179.571C133.68 174.784 133.41 169.864 133.368 166.872Z" fill="black"/>
<defs>
<filter id="filter0_d_936_9525" x="218.615" y="168.67" width="99.3027" height="60.0938" filterUnits="userSpaceOnUse" color-interpolation-filters="sRGB">
<feFlood flood-opacity="0" result="BackgroundImageFix"/>
<feColorMatrix in="SourceAlpha" type="matrix" values="0 0 0 0 0 0 0 0 0 0 0 0 0 0 0 0 0 0 127 0" result="hardAlpha"/>
<feOffset dx="-2" dy="4"/>
<feGaussianBlur stdDeviation="3"/>
<feComposite in2="hardAlpha" operator="out"/>
<feColorMatrix type="matrix" values="0 0 0 0 0 0 0 0 0 0 0 0 0 0 0 0 0 0 0.25 0"/>
<feBlend mode="normal" in2="BackgroundImageFix" result="effect1_dropShadow_936_9525"/>
<feBlend mode="normal" in="SourceGraphic" in2="effect1_dropShadow_936_9525" result="shape"/>
</filter>
<filter id="filter1_d_936_9525" x="134.455" y="183.639" width="60.1074" height="99.2988" filterUnits="userSpaceOnUse" color-interpolation-filters="sRGB">
<feFlood flood-opacity="0" result="BackgroundImageFix"/>
<feColorMatrix in="SourceAlpha" type="matrix" values="0 0 0 0 0 0 0 0 0 0 0 0 0 0 0 0 0 0 127 0" result="hardAlpha"/>
<feOffset dx="-2" dy="4"/>
<feGaussianBlur stdDeviation="3"/>
<feComposite in2="hardAlpha" operator="out"/>
<feColorMatrix type="matrix" values="0 0 0 0 0 0 0 0 0 0 0 0 0 0 0 0 0 0 0.25 0"/>
<feBlend mode="normal" in2="BackgroundImageFix" result="effect1_dropShadow_936_9525"/>
<feBlend mode="normal" in="SourceGraphic" in2="effect1_dropShadow_936_9525" result="shape"/>
</filter>
<filter id="filter2_d_936_9525" x="58.4805" y="171.838" width="85.959" height="84.5898" filterUnits="userSpaceOnUse" color-interpolation-filters="sRGB">
<feFlood flood-opacity="0" result="BackgroundImageFix"/>
<feColorMatrix in="SourceAlpha" type="matrix" values="0 0 0 0 0 0 0 0 0 0 0 0 0 0 0 0 0 0 127 0" result="hardAlpha"/>
<feOffset dx="-2" dy="4"/>
<feGaussianBlur stdDeviation="3"/>
<feComposite in2="hardAlpha" operator="out"/>
<feColorMatrix type="matrix" values="0 0 0 0 0 0 0 0 0 0 0 0 0 0 0 0 0 0 0.25 0"/>
<feBlend mode="normal" in2="BackgroundImageFix" result="effect1_dropShadow_936_9525"/>
<feBlend mode="normal" in="SourceGraphic" in2="effect1_dropShadow_936_9525" result="shape"/>
</filter>
<filter id="filter3_d_936_9525" x="0.972656" y="133.193" width="101.246" height="49.8066" filterUnits="userSpaceOnUse" color-interpolation-filters="sRGB">
<feFlood flood-opacity="0" result="BackgroundImageFix"/>
<feColorMatrix in="SourceAlpha" type="matrix" values="0 0 0 0 0 0 0 0 0 0 0 0 0 0 0 0 0 0 127 0" result="hardAlpha"/>
<feOffset dx="-2" dy="4"/>
<feGaussianBlur stdDeviation="3"/>
<feComposite in2="hardAlpha" operator="out"/>
<feColorMatrix type="matrix" values="0 0 0 0 0 0 0 0 0 0 0 0 0 0 0 0 0 0 0.25 0"/>
<feBlend mode="normal" in2="BackgroundImageFix" result="effect1_dropShadow_936_9525"/>
<feBlend mode="normal" in="SourceGraphic" in2="effect1_dropShadow_936_9525" result="shape"/>
</filter>
<filter id="filter4_d_936_9525" x="44.1129" y="27.3648" width="217.827" height="229.934" filterUnits="userSpaceOnUse" color-interpolation-filters="sRGB">
<feFlood flood-opacity="0" result="BackgroundImageFix"/>
<feColorMatrix in="SourceAlpha" type="matrix" values="0 0 0 0 0 0 0 0 0 0 0 0 0 0 0 0 0 0 127 0" result="hardAlpha"/>
<feOffset dx="-7" dy="6"/>
<feGaussianBlur stdDeviation="4.3"/>
<feComposite in2="hardAlpha" operator="out"/>
<feColorMatrix type="matrix" values="0 0 0 0 0 0 0 0 0 0 0 0 0 0 0 0 0 0 0.25 0"/>
<feBlend mode="normal" in2="BackgroundImageFix" result="effect1_dropShadow_936_9525"/>
<feBlend mode="normal" in="SourceGraphic" in2="effect1_dropShadow_936_9525" result="shape"/>
</filter>
</defs>
</svg>
