<svg width="165" height="143" viewBox="0 0 165 143" fill="none" xmlns="http://www.w3.org/2000/svg">
<g filter="url(#filter0_d_1135_3402)">
<path d="M160.103 104.611C159.195 108.446 157.56 110.191 153.792 111.346C142.489 114.813 119.064 78.804 119.064 78.804L125.375 72.0691C125.375 72.0691 162.829 93.107 160.103 104.611Z" fill="#1CB76B"/>
</g>
<g filter="url(#filter1_d_1135_3402)">
<path d="M118.315 128.755C116.783 132.386 114.881 133.835 110.974 134.35C99.2526 135.893 82.1266 96.4967 82.1266 96.4967L89.4675 90.9022C89.4675 90.9022 122.912 117.862 118.315 128.755Z" fill="#1CB76B"/>
</g>
<g filter="url(#filter2_d_1135_3402)">
<path d="M57.3802 135.703C53.4401 135.786 51.3411 134.642 49.2768 131.285C43.0839 121.214 72.0601 89.5002 72.0601 89.5002L80.1635 93.9186C80.1635 93.9186 69.2003 135.454 57.3802 135.703Z" fill="#1CB76B"/>
</g>
<g filter="url(#filter3_d_1135_3402)">
<path d="M10.5069 105.516C7.16064 103.434 6.02704 101.329 6.1306 97.3895C6.44128 85.5708 48.0329 74.8235 48.0329 74.8235L52.4092 82.9497C52.4092 82.9497 20.5456 111.761 10.5069 105.516Z" fill="#1CB76B"/>
</g>
<g filter="url(#filter4_d_1135_3402)">
<path fill-rule="evenodd" clip-rule="evenodd" d="M90.783 25.3617C91.2291 24.1142 91.6349 22.8035 91.9896 21.4449C94.5225 11.743 93.4899 3.2708 89.6833 2.52175C86.2343 1.84307 81.6914 7.73722 78.9842 16.0669C76.0242 10.2137 72.5785 6.48314 70.2643 7.08255C67.1422 7.89122 67.262 16.2747 70.5318 25.8076C70.6383 26.118 70.7468 26.4258 70.8572 26.7308C46.9317 32.229 29.3024 51.1719 29.323 73.6788C29.3475 100.469 54.3689 122.163 85.2099 122.135C116.051 122.106 141.032 100.366 141.008 73.5765C140.985 48.447 118.967 27.8007 90.783 25.3617Z" fill="#1CB76B"/>
</g>
<path d="M79.9835 64.4455C79.9891 70.5594 74.2877 75.521 67.2491 75.5275C60.2105 75.5339 54.5001 70.5828 54.4945 64.4688C54.4889 58.3548 60.1903 53.3932 67.2288 53.3868C74.2674 53.3803 79.9779 58.3315 79.9835 64.4455Z" fill="white"/>
<path d="M115.812 64.4142C115.817 70.5282 110.116 75.4898 103.077 75.4962C96.0387 75.5027 90.3282 70.5515 90.3226 64.4375C90.317 58.3236 96.0184 53.362 103.057 53.3555C110.096 53.3491 115.806 58.3002 115.812 64.4142Z" fill="white"/>
<path d="M76.3145 65.2215C76.318 69.0518 72.7462 72.1601 68.3367 72.1641C63.9272 72.1682 60.3497 69.0664 60.3462 65.2361C60.3427 61.4058 63.9145 58.2975 68.324 58.2935C72.7335 58.2894 76.3109 61.3912 76.3145 65.2215Z" fill="black"/>
<path d="M109.65 65.2606C109.654 69.0908 106.082 72.1992 101.673 72.2032C97.2631 72.2072 93.6856 69.1055 93.6821 65.2752C93.6786 61.4449 97.2504 58.3366 101.66 58.3325C106.069 58.3285 109.647 61.4303 109.65 65.2606Z" fill="black"/>
<path fill-rule="evenodd" clip-rule="evenodd" d="M98.4742 84.4119C99.7982 84.9677 100.421 86.4916 99.8652 87.8156C98.0776 92.0738 93.1476 95.538 87.8311 95.863C85.0827 96.031 82.1888 95.3673 79.5464 93.5351C76.9171 91.712 74.6854 88.8372 73.0435 84.8144C72.5009 83.4849 73.1388 81.9673 74.4682 81.4247C75.7977 80.8821 77.3153 81.5199 77.8579 82.8494C79.2063 86.153 80.8787 88.1312 82.5094 89.2619C84.1269 90.3834 85.8487 90.7745 87.5138 90.6727C91.0245 90.4581 94.1127 88.0844 95.0705 85.8028C95.6263 84.4788 97.1502 83.8561 98.4742 84.4119Z" fill="black"/>
<defs>
<filter id="filter0_d_1135_3402" x="113.862" y="70.7703" width="48.9836" height="47.3117" filterUnits="userSpaceOnUse" color-interpolation-filters="sRGB">
<feFlood flood-opacity="0" result="BackgroundImageFix"/>
<feColorMatrix in="SourceAlpha" type="matrix" values="0 0 0 0 0 0 0 0 0 0 0 0 0 0 0 0 0 0 127 0" result="hardAlpha"/>
<feOffset dx="-1.3" dy="2.6"/>
<feGaussianBlur stdDeviation="1.95"/>
<feComposite in2="hardAlpha" operator="out"/>
<feColorMatrix type="matrix" values="0 0 0 0 0 0 0 0 0 0 0 0 0 0 0 0 0 0 0.25 0"/>
<feBlend mode="normal" in2="BackgroundImageFix" result="effect1_dropShadow_1135_3402"/>
<feBlend mode="normal" in="SourceGraphic" in2="effect1_dropShadow_1135_3402" result="shape"/>
</filter>
<filter id="filter1_d_1135_3402" x="76.925" y="89.6023" width="44.425" height="51.2922" filterUnits="userSpaceOnUse" color-interpolation-filters="sRGB">
<feFlood flood-opacity="0" result="BackgroundImageFix"/>
<feColorMatrix in="SourceAlpha" type="matrix" values="0 0 0 0 0 0 0 0 0 0 0 0 0 0 0 0 0 0 127 0" result="hardAlpha"/>
<feOffset dx="-1.3" dy="2.6"/>
<feGaussianBlur stdDeviation="1.95"/>
<feComposite in2="hardAlpha" operator="out"/>
<feColorMatrix type="matrix" values="0 0 0 0 0 0 0 0 0 0 0 0 0 0 0 0 0 0 0.25 0"/>
<feBlend mode="normal" in2="BackgroundImageFix" result="effect1_dropShadow_1135_3402"/>
<feBlend mode="normal" in="SourceGraphic" in2="effect1_dropShadow_1135_3402" result="shape"/>
</filter>
<filter id="filter2_d_1135_3402" x="43.2102" y="88.2" width="39.5539" height="54.007" filterUnits="userSpaceOnUse" color-interpolation-filters="sRGB">
<feFlood flood-opacity="0" result="BackgroundImageFix"/>
<feColorMatrix in="SourceAlpha" type="matrix" values="0 0 0 0 0 0 0 0 0 0 0 0 0 0 0 0 0 0 127 0" result="hardAlpha"/>
<feOffset dx="-1.3" dy="2.6"/>
<feGaussianBlur stdDeviation="1.95"/>
<feComposite in2="hardAlpha" operator="out"/>
<feColorMatrix type="matrix" values="0 0 0 0 0 0 0 0 0 0 0 0 0 0 0 0 0 0 0.25 0"/>
<feBlend mode="normal" in2="BackgroundImageFix" result="effect1_dropShadow_1135_3402"/>
<feBlend mode="normal" in="SourceGraphic" in2="effect1_dropShadow_1135_3402" result="shape"/>
</filter>
<filter id="filter3_d_1135_3402" x="0.925" y="73.5242" width="54.0852" height="39.3781" filterUnits="userSpaceOnUse" color-interpolation-filters="sRGB">
<feFlood flood-opacity="0" result="BackgroundImageFix"/>
<feColorMatrix in="SourceAlpha" type="matrix" values="0 0 0 0 0 0 0 0 0 0 0 0 0 0 0 0 0 0 127 0" result="hardAlpha"/>
<feOffset dx="-1.3" dy="2.6"/>
<feGaussianBlur stdDeviation="1.95"/>
<feComposite in2="hardAlpha" operator="out"/>
<feColorMatrix type="matrix" values="0 0 0 0 0 0 0 0 0 0 0 0 0 0 0 0 0 0 0.25 0"/>
<feBlend mode="normal" in2="BackgroundImageFix" result="effect1_dropShadow_1135_3402"/>
<feBlend mode="normal" in="SourceGraphic" in2="effect1_dropShadow_1135_3402" result="shape"/>
</filter>
<filter id="filter4_d_1135_3402" x="19.1842" y="0.778749" width="122.864" height="130.844" filterUnits="userSpaceOnUse" color-interpolation-filters="sRGB">
<feFlood flood-opacity="0" result="BackgroundImageFix"/>
<feColorMatrix in="SourceAlpha" type="matrix" values="0 0 0 0 0 0 0 0 0 0 0 0 0 0 0 0 0 0 127 0" result="hardAlpha"/>
<feOffset dx="-4.55" dy="3.9"/>
<feGaussianBlur stdDeviation="2.795"/>
<feComposite in2="hardAlpha" operator="out"/>
<feColorMatrix type="matrix" values="0 0 0 0 0 0 0 0 0 0 0 0 0 0 0 0 0 0 0.25 0"/>
<feBlend mode="normal" in2="BackgroundImageFix" result="effect1_dropShadow_1135_3402"/>
<feBlend mode="normal" in="SourceGraphic" in2="effect1_dropShadow_1135_3402" result="shape"/>
</filter>
</defs>
</svg>
