<svg width="48" height="48" viewBox="0 0 48 48" fill="none" xmlns="http://www.w3.org/2000/svg">
<path fill-rule="evenodd" clip-rule="evenodd" d="M4 11.8173C4 7.49991 7.49991 4 11.8173 4H36.1827C40.5001 4 44 7.49991 44 11.8173V36.1827C44 40.5001 40.5001 44 36.1827 44H11.8173C7.49991 44 4 40.5001 4 36.1827V11.8173ZM11.8173 7.45178C9.40627 7.45178 7.45178 9.40627 7.45178 11.8173V36.1827C7.45178 38.5937 9.40627 40.5482 11.8173 40.5482H19.9391V27.0457H15.8782C14.7568 27.0457 13.8477 26.1366 13.8477 25.0152C13.8477 23.8938 14.7568 22.9848 15.8782 22.9848H19.9391V21.1995C19.9391 19.6791 20.4708 17.4806 22.1988 15.8465C24.0232 14.1212 26.7918 13.3829 30.5041 14.1535C31.602 14.3814 32.3074 15.4563 32.0794 16.5543C31.8515 17.6522 30.7767 18.3576 29.6787 18.1296C26.8935 17.5515 25.6011 18.2182 24.989 18.797C24.2805 19.467 24 20.4719 24 21.1995V22.9848H30.0914C31.2128 22.9848 32.1218 23.8938 32.1218 25.0152C32.1218 26.1366 31.2128 27.0457 30.0914 27.0457H24V40.5482H36.1827C38.5937 40.5482 40.5482 38.5937 40.5482 36.1827V11.8173C40.5482 9.40627 38.5937 7.45178 36.1827 7.45178H11.8173Z" fill="#314AAC"/>
</svg>
