<svg width="40" height="40" viewBox="0 0 40 40" fill="none" xmlns="http://www.w3.org/2000/svg">
<g clip-path="url(#clip0_2549_5139)">
<path d="M34 0H6C2.68629 0 0 2.68629 0 6V34C0 37.3137 2.68629 40 6 40H34C37.3137 40 40 37.3137 40 34V6C40 2.68629 37.3137 0 34 0Z" fill="white"/>
<path d="M30.1563 31.25C33.6719 27.9688 35.2344 22.5 34.2969 17.2656H20.3125V23.0469H28.2813C27.9688 24.9219 26.875 26.4844 25.3125 27.5L30.1563 31.25Z" fill="#4285F4"/>
<path d="M7.03125 26.6406C8.05898 28.6651 9.53289 30.4299 11.3419 31.802C13.1508 33.1741 15.2477 34.1176 17.4743 34.5614C19.701 35.0052 21.9993 34.9378 24.1961 34.3642C26.3929 33.7906 28.4308 32.7258 30.1562 31.25L25.3125 27.5C21.1719 30.2344 14.2969 29.2188 11.9531 22.8125L7.03125 26.6406Z" fill="#34A853"/>
<path d="M11.954 22.8125C11.329 20.8594 11.329 19.0625 11.954 17.1094L7.0321 13.2812C5.23523 16.875 4.68835 21.9531 7.0321 26.6406L11.954 22.8125Z" fill="#FBBC02"/>
<path d="M11.9531 17.1077C13.6719 11.7171 21.0156 8.59209 25.9375 13.2015L30.2344 8.98271C24.1406 3.12334 12.2656 3.35771 7.03125 13.2796L11.9531 17.1077Z" fill="#EA4335"/>
</g>
<defs>
<clipPath id="clip0_2549_5139">
<rect width="40" height="40" fill="white"/>
</clipPath>
</defs>
</svg>
