<svg width="40" height="40" viewBox="0 0 40 40" fill="none" xmlns="http://www.w3.org/2000/svg">
<g clip-path="url(#clip0_2558_4898)">
<path d="M35.0218 0H4.97818C2.01967 0 0 2.01967 0 4.97818V35.0218C0 37.9803 2.01967 40 4.97818 40H35.0218C37.9803 40 40 37.9803 40 35.0218V4.97818C40 2.01967 37.9803 0 35.0218 0Z" fill="url(#paint0_linear_2558_4898)"/>
<path d="M13.8543 6.92578H26.3239C26.601 7.06433 27.0167 7.06433 27.2938 7.20289C28.5098 7.39995 29.6467 7.93225 30.5768 8.73995C31.5069 9.54765 32.1932 10.5987 32.5588 11.7751C32.7634 12.453 32.9026 13.1489 32.9744 13.8534V26.046C32.7764 27.5912 32.2058 29.0652 31.3118 30.3411C30.5449 31.2297 29.5834 31.9294 28.5021 32.386C27.4207 32.8426 26.2487 33.0436 25.077 32.9736H14.6856C12.8311 33.0636 11.0078 32.4722 9.55914 31.311C8.67823 30.5498 7.98305 29.5973 7.52678 28.5263C7.07051 27.4553 6.86523 26.2941 6.92665 25.1315V15.4329C6.90376 14.7372 6.95017 14.041 7.0652 13.3546C7.20511 11.9341 7.78915 10.5939 8.73432 9.52438C9.6795 8.45484 10.9377 7.71041 12.3302 7.39686L13.8543 6.92578ZM9.55914 20.0882V25.4918C9.50006 26.1799 9.59212 26.8726 9.82885 27.5214C10.0656 28.1701 10.4413 28.7593 10.9296 29.2477C11.418 29.736 12.0072 30.1117 12.656 30.3485C13.3048 30.5852 13.9975 30.6773 14.6856 30.6182C18.2879 30.7567 21.8903 30.7567 25.4926 30.6182C28.6793 30.6182 30.4805 28.6785 30.6191 25.4918C30.7576 21.8894 30.7576 18.2871 30.6191 14.6847C30.655 14.002 30.5469 13.3194 30.302 12.6812C30.0571 12.043 29.6807 11.4634 29.1973 10.98C28.714 10.4966 28.1343 10.1202 27.4961 9.87531C26.8579 9.63039 26.1753 9.52237 25.4926 9.55827C21.8903 9.41972 18.2879 9.41972 14.6856 9.55827C13.9975 9.4992 13.3048 9.59125 12.656 9.82799C12.0072 10.0647 11.418 10.4404 10.9296 10.9288C10.4413 11.4171 10.0656 12.0063 9.82885 12.6551C9.59212 13.3039 9.50006 13.9966 9.55914 14.6847V20.0882Z" fill="white"/>
<path d="M13.3555 20.1445C13.3591 18.3451 14.0756 16.6204 15.348 15.348C16.6204 14.0756 18.3451 13.3591 20.1445 13.3555C21.934 13.3909 23.6403 14.1176 24.9059 15.3832C26.1715 16.6488 26.8981 18.3551 26.9336 20.1445C26.9299 21.944 26.2135 23.6687 24.9411 24.9411C23.6687 26.2135 21.944 26.9299 20.1445 26.9336C18.3551 26.8981 16.6488 26.1715 15.3832 24.9059C14.1176 23.6403 13.3909 21.934 13.3555 20.1445ZM20.1445 15.8494C19.303 15.8357 18.4765 16.0736 17.7711 16.5327C17.0656 16.9917 16.5133 17.6509 16.1849 18.4258C15.8565 19.2008 15.767 20.0561 15.9278 20.8823C16.0887 21.7084 16.4926 22.4677 17.0877 23.0628C17.6828 23.6579 18.4421 24.0618 19.2682 24.2226C20.0944 24.3835 20.9497 24.294 21.7247 23.9656C22.4996 23.6372 23.1588 23.0849 23.6178 22.3794C24.0769 21.674 24.3148 20.8475 24.3011 20.006C24.3011 18.9036 23.8632 17.8463 23.0837 17.0668C22.3041 16.2873 21.2469 15.8494 20.1445 15.8494Z" fill="white"/>
<path d="M25.4092 13.0777C25.4015 12.8573 25.4392 12.6376 25.52 12.4324C25.6008 12.2272 25.723 12.0408 25.8789 11.8848C26.0349 11.7288 26.2213 11.6067 26.4265 11.5258C26.6317 11.445 26.8514 11.4073 27.0718 11.4151C27.5032 11.4442 27.9093 11.6288 28.215 11.9345C28.5207 12.2402 28.7053 12.6463 28.7344 13.0777C28.7344 13.5186 28.5593 13.9415 28.2475 14.2533C27.9357 14.5651 27.5128 14.7403 27.0718 14.7403C26.6309 14.7403 26.208 14.5651 25.8962 14.2533C25.5844 13.9415 25.4092 13.5186 25.4092 13.0777Z" fill="white"/>
</g>
<defs>
<linearGradient id="paint0_linear_2558_4898" x1="-2.54936" y1="42.2168" x2="44.5584" y2="-4.19813" gradientUnits="userSpaceOnUse">
<stop stop-color="#FED576"/>
<stop offset="0.26" stop-color="#F47133"/>
<stop offset="0.61" stop-color="#BC3081"/>
<stop offset="1" stop-color="#4C63D2"/>
</linearGradient>
<clipPath id="clip0_2558_4898">
<rect width="40" height="40" fill="white"/>
</clipPath>
</defs>
</svg>
