<svg width="40" height="40" viewBox="0 0 40 40" fill="none" xmlns="http://www.w3.org/2000/svg">
<g clip-path="url(#clip0_2558_4694)">
<path d="M10.1431 39.8584C8.59597 39.8412 7.06334 39.5574 5.61255 39.0196C4.55312 38.628 3.59459 38.0046 2.80706 37.1949C1.9952 36.4089 1.37086 35.4502 0.980392 34.3898C0.44304 32.9391 0.159679 31.4066 0.142745 29.8596C0.0239216 27.2878 0 26.5165 0 20C0 13.4835 0.0262745 12.7149 0.141569 10.1412C0.160558 8.59481 0.444267 7.06313 0.980392 5.61255C1.37276 4.55294 1.99622 3.59403 2.80549 2.80549C3.59205 1.99436 4.55102 1.3706 5.61137 0.980392C7.06217 0.442595 8.59479 0.158835 10.142 0.141569C12.7145 0.0239216 13.4871 0 20 0C26.5129 0 27.2851 0.0262745 29.8588 0.141569C31.4056 0.160424 32.9377 0.444135 34.3886 0.980392C35.4485 1.37111 36.4072 1.99466 37.1941 2.8051C38.0048 3.59225 38.6286 4.55121 39.0196 5.61137C39.5575 7.06214 39.8414 8.59477 39.8588 10.142C39.9765 12.7157 40.0004 13.4863 40.0004 20.0008C40.0004 26.5153 39.9765 27.2859 39.8588 29.8596C39.8401 31.4065 39.5563 32.9388 39.0196 34.3898C38.6136 35.442 37.9919 36.3976 37.1943 37.195C36.3967 37.9924 35.441 38.6139 34.3886 39.0196C32.9379 39.5575 31.4052 39.8414 29.858 39.8588C27.2867 39.9765 26.5137 40.0004 19.9992 40.0004C13.4847 40.0004 12.7141 39.9776 10.1427 39.8588" fill="url(#paint0_radial_2558_4694)"/>
<path d="M10.1431 39.8584C8.59597 39.8412 7.06334 39.5574 5.61255 39.0196C4.55312 38.628 3.59459 38.0046 2.80706 37.1949C1.9952 36.4089 1.37086 35.4502 0.980392 34.3898C0.44304 32.9391 0.159679 31.4066 0.142745 29.8596C0.0239216 27.2878 0 26.5165 0 20C0 13.4835 0.0262745 12.7149 0.141569 10.1412C0.160558 8.59481 0.444267 7.06313 0.980392 5.61255C1.37276 4.55294 1.99622 3.59403 2.80549 2.80549C3.59205 1.99436 4.55102 1.3706 5.61137 0.980392C7.06217 0.442595 8.59479 0.158835 10.142 0.141569C12.7145 0.0239216 13.4871 0 20 0C26.5129 0 27.2851 0.0262745 29.8588 0.141569C31.4056 0.160424 32.9377 0.444135 34.3886 0.980392C35.4485 1.37111 36.4072 1.99466 37.1941 2.8051C38.0048 3.59225 38.6286 4.55121 39.0196 5.61137C39.5575 7.06214 39.8414 8.59477 39.8588 10.142C39.9765 12.7157 40.0004 13.4863 40.0004 20.0008C40.0004 26.5153 39.9765 27.2859 39.8588 29.8596C39.8401 31.4065 39.5563 32.9388 39.0196 34.3898C38.6136 35.442 37.9919 36.3976 37.1943 37.195C36.3967 37.9924 35.441 38.6139 34.3886 39.0196C32.9379 39.5575 31.4052 39.8414 29.858 39.8588C27.2867 39.9765 26.5137 40.0004 19.9992 40.0004C13.4847 40.0004 12.7141 39.9776 10.1427 39.8588" fill="url(#paint1_radial_2558_4694)"/>
<path d="M15.0891 20.0858C15.0892 19.1061 15.3798 18.1484 15.9241 17.3339C16.4685 16.5193 17.2422 15.8845 18.1473 15.5097C19.0525 15.1349 20.0485 15.0369 21.0093 15.2281C21.9701 15.4194 22.8527 15.8912 23.5454 16.584C24.238 17.2769 24.7097 18.1596 24.9007 19.1205C25.0917 20.0813 24.9935 21.0773 24.6184 21.9824C24.2434 22.8874 23.6084 23.661 22.7937 24.2051C21.9791 24.7493 21.0213 25.0397 20.0416 25.0395C18.728 25.0393 17.4682 24.5173 16.5395 23.5883C15.6107 22.6593 15.089 21.3994 15.0891 20.0858ZM12.4111 20.0858C12.4111 21.595 12.8586 23.0703 13.697 24.3251C14.5355 25.58 15.7272 26.558 17.1215 27.1355C18.5158 27.7131 20.0501 27.8642 21.5303 27.5698C23.0105 27.2753 24.3701 26.5486 25.4373 25.4814C26.5044 24.4143 27.2312 23.0546 27.5256 21.5744C27.82 20.0942 27.6689 18.56 27.0914 17.1657C26.5138 15.7714 25.5358 14.5796 24.281 13.7412C23.0261 12.9027 21.5508 12.4552 20.0416 12.4552C19.0396 12.4551 18.0473 12.6525 17.1215 13.0359C16.1957 13.4194 15.3545 13.9814 14.6459 14.69C13.9373 15.3986 13.3752 16.2398 12.9918 17.1656C12.6083 18.0914 12.411 19.0837 12.4111 20.0858ZM26.1911 12.1528C26.1909 12.5055 26.2953 12.8503 26.4911 13.1436C26.6869 13.4369 26.9653 13.6656 27.2911 13.8007C27.6169 13.9358 27.9754 13.9713 28.3213 13.9027C28.6672 13.834 28.985 13.6643 29.2345 13.415C29.484 13.1658 29.654 12.8481 29.7229 12.5023C29.7919 12.1564 29.7567 11.7979 29.6219 11.472C29.4871 11.1461 29.2586 10.8675 28.9655 10.6714C28.6723 10.4754 28.3276 10.3706 27.975 10.3705C27.5022 10.3707 27.0489 10.5585 26.7146 10.8927C26.3803 11.2269 26.1922 11.6801 26.1918 12.1528M14.0389 32.1819C13.0966 32.1715 12.1631 31.9991 11.2793 31.6721C10.6383 31.425 10.0562 31.0465 9.57039 30.5609C9.08457 30.0752 8.70581 29.4933 8.4585 28.8524C8.13135 27.9687 7.9589 27.0352 7.9487 26.0928C7.87654 24.5266 7.86242 24.056 7.86242 20.0877C7.86242 16.1195 7.87811 15.6501 7.9487 14.0822C7.96013 13.14 8.13254 12.2067 8.4585 11.3226C8.70553 10.6815 9.08417 10.0992 9.57002 9.61337C10.0559 9.12753 10.6381 8.74888 11.2793 8.50185C12.163 8.17471 13.0966 8.00226 14.0389 7.99205C15.6052 7.9199 16.0758 7.90578 20.0424 7.90578C24.0091 7.90578 24.4801 7.92108 26.0479 7.99245C26.9901 8.00388 27.9234 8.17629 28.8075 8.50225C29.4487 8.7493 30.0309 9.12795 30.5168 9.61379C31.0026 10.0996 31.3813 10.6819 31.6283 11.323C31.9554 12.2068 32.1279 13.1403 32.1381 14.0826C32.2103 15.6513 32.2244 16.1195 32.2244 20.0881C32.2244 24.0568 32.2099 24.5258 32.1381 26.0936C32.1271 27.0359 31.9547 27.9692 31.6283 28.8532C31.381 29.4941 31.0022 30.076 30.5164 30.5617C30.0306 31.0473 29.4485 31.4258 28.8075 31.6728C27.9238 32 26.9902 32.1724 26.0479 32.1826C24.4816 32.2548 24.011 32.2689 20.0424 32.2689C16.0738 32.2689 15.6048 32.2544 14.0389 32.1826M13.9158 5.31637C12.6828 5.34061 11.4628 5.57398 10.3079 6.00656C9.32066 6.38827 8.42406 6.97207 7.67561 7.72053C6.92715 8.46899 6.34335 9.36558 5.96163 10.3528C5.52912 11.5077 5.29575 12.7277 5.27145 13.9607C5.19811 15.545 5.18164 16.0517 5.18164 20.0873C5.18164 24.123 5.1985 24.6293 5.27145 26.214C5.29574 27.447 5.52911 28.6669 5.96163 29.8219C6.34337 30.8091 6.92718 31.7057 7.67563 32.4541C8.42409 33.2026 9.32067 33.7864 10.3079 34.1681C11.4629 34.6005 12.6828 34.8339 13.9158 34.8583C15.5009 34.9305 16.0067 34.9481 20.0424 34.9481C24.0781 34.9481 24.5844 34.9313 26.1691 34.8583C27.4021 34.834 28.622 34.6006 29.7769 34.1681C30.7642 33.7864 31.6608 33.2026 32.4092 32.4541C33.1577 31.7057 33.7415 30.8091 34.1232 29.8219C34.5563 28.6671 34.7897 27.4471 34.8134 26.214C34.8856 24.6285 34.902 24.123 34.902 20.0873C34.902 16.0517 34.8852 15.5454 34.8134 13.9607C34.7892 12.7277 34.5558 11.5077 34.1232 10.3528C33.7415 9.36577 33.1578 8.46931 32.4096 7.72088C31.6614 6.97244 30.7651 6.38853 29.7781 6.00656C28.6233 5.5737 27.4033 5.34032 26.1703 5.31637C24.5856 5.24382 24.0793 5.22656 20.0444 5.22656C16.0095 5.22656 15.502 5.24343 13.9165 5.31637" fill="white"/>
</g>
<defs>
<radialGradient id="paint0_radial_2558_4694" cx="0" cy="0" r="1" gradientUnits="userSpaceOnUse" gradientTransform="translate(2.58863 39.1239) scale(50.7851)">
<stop offset="0.09" stop-color="#FA8F21"/>
<stop offset="0.78" stop-color="#D82D7E"/>
</radialGradient>
<radialGradient id="paint1_radial_2558_4694" cx="0" cy="0" r="1" gradientUnits="userSpaceOnUse" gradientTransform="translate(27.7067 37.8392) scale(44.6914)">
<stop offset="0.64" stop-color="#8C3AAA" stop-opacity="0"/>
<stop offset="1" stop-color="#8C3AAA"/>
</radialGradient>
<clipPath id="clip0_2558_4694">
<rect width="40" height="40" fill="white"/>
</clipPath>
</defs>
</svg>
