<svg width="40" height="40" viewBox="0 0 40 40" fill="none" xmlns="http://www.w3.org/2000/svg">
<g clip-path="url(#clip0_2549_5136)">
<path d="M31 0H9C4 0 0 4 0 9V31C0 36 4 40 9 40H31C36 40 40 36 40 31V9C40 4 36 0 31 0Z" fill="#1976D2"/>
<path fill-rule="evenodd" clip-rule="evenodd" d="M33 20.3077H26V14.3846C26 13.0258 28.0752 13.1538 29.4 13.1538H31.8V8H27C25.0904 8 23.2591 8.77802 21.9088 10.1629C20.5586 11.5478 19.8 13.4261 19.8 15.3846V20.3077H15V25.4615H19.8V40H26V33.2308V25.4615H30.6L33 20.3077Z" fill="#FAFAFA"/>
</g>
<defs>
<clipPath id="clip0_2549_5136">
<rect width="40" height="40" fill="white"/>
</clipPath>
</defs>
</svg>
