<svg width="40" height="40" viewBox="0 0 40 40" fill="none" xmlns="http://www.w3.org/2000/svg">
<path d="M30.5945 21.2155C30.6489 27.0905 35.7489 29.0458 35.8052 29.0708C35.762 29.2083 34.9905 31.857 33.1186 34.5923C31.5005 36.9573 29.8208 39.3136 27.1755 39.363C24.5761 39.4105 23.7402 37.8211 20.768 37.8211C17.7967 37.8211 16.8683 39.3136 14.4073 39.4105C11.8536 39.5073 9.90891 36.8527 8.27735 34.4967C4.9436 29.6767 2.39579 20.8764 5.81672 14.9361C7.5161 11.9861 10.5536 10.1183 13.8502 10.0702C16.3577 10.0223 18.7245 11.757 20.2573 11.757C21.7892 11.757 24.6655 9.67078 27.6892 9.97703C28.9552 10.0298 32.5083 10.4883 34.7898 13.8283C34.6064 13.9423 30.5505 16.3036 30.5945 21.2155ZM25.7092 6.78859C27.0648 5.14766 27.9773 2.86266 27.7286 0.589844C25.7742 0.668281 23.4111 1.89203 22.0095 3.53234C20.7533 4.98453 19.6533 7.30953 19.9498 9.53734C22.1283 9.70609 24.3533 8.43047 25.7092 6.78859Z" fill="black"/>
</svg>
