<svg width="40" height="40" viewBox="0 0 40 40" fill="none" xmlns="http://www.w3.org/2000/svg">
<g clip-path="url(#clip0_2549_5136)">
<path d="M35 0H5C2.2425 0 0 2.2425 0 5V35C0 37.7575 2.2425 40 5 40H35C37.7575 40 40 37.7575 40 35V5C40 2.2425 37.7575 0 35 0Z" fill="#1976D2"/>
<path fill-rule="evenodd" clip-rule="evenodd" d="M33 20.3077H27V15.3846C27 14.0258 28.0752 14.1538 29.4 14.1538H31.8V8H27C25.0904 8 23.2591 8.77802 21.9088 10.1629C20.5586 11.5478 19.8 13.4261 19.8 15.3846V20.3077H15V26.4615H19.8V40H27V26.4615H30.6L33 20.3077Z" fill="#FAFAFA"/>
</g>
<defs>
<clipPath id="clip0_2549_5136">
<rect width="40" height="40" fill="white"/>
</clipPath>
</defs>
</svg>
