<svg width="48" height="48" viewBox="0 0 48 48" fill="none" xmlns="http://www.w3.org/2000/svg">
<path d="M7.12109 6.36719H30.7138L40.879 42.9593H17.4935L7.12109 6.36719Z" fill="#F397C0"/>
<path d="M14.8977 13.7641C14.8895 12.2095 16.1431 10.9426 17.6977 10.9343C19.2524 10.9261 20.5193 12.1797 20.5275 13.7344L20.5422 16.511C20.5504 18.0657 19.2968 19.3326 17.7422 19.3408C16.1875 19.3491 14.9206 18.0954 14.9124 16.5408L14.8977 13.7641Z" fill="white"/>
<path d="M23.7727 13.8227C23.7645 12.2681 25.0181 11.0011 26.5727 10.9929C28.1274 10.9847 29.3943 12.2383 29.4025 13.793L29.4172 16.5696C29.4254 18.1243 28.1718 19.3912 26.6172 19.3994C25.0625 19.4077 23.7956 18.154 23.7874 16.5994L23.7727 13.8227Z" fill="white"/>
<path d="M15.815 14.7354C15.8213 15.9194 16.8908 16.8736 18.2038 16.8667C19.5168 16.8597 20.5762 15.8943 20.5699 14.7103C20.5637 13.5262 19.4942 12.572 18.1811 12.579C16.8681 12.5859 15.8087 13.5514 15.815 14.7354Z" fill="black"/>
<path d="M23.7447 14.7081C23.7509 15.8921 24.8204 16.8463 26.1335 16.8393C27.4465 16.8324 28.5059 15.8669 28.4996 14.6829C28.4934 13.4989 27.4239 12.5447 26.1108 12.5516C24.7978 12.5586 23.7384 13.524 23.7447 14.7081Z" fill="black"/>
<path d="M29.6341 26.2123C29.6595 28.6592 27.6631 30.6646 25.1751 30.6914C22.6871 30.7182 20.6495 28.7563 20.6241 26.3094C20.5987 23.8625 22.5951 21.8572 25.0831 21.8304C27.5711 21.8036 29.6087 23.7654 29.6341 26.2123Z" fill="black"/>
</svg>
