<svg width="48" height="48" viewBox="0 0 48 48" fill="none" xmlns="http://www.w3.org/2000/svg">
<path fill-rule="evenodd" clip-rule="evenodd" d="M22.6158 16.8089C21.5126 15.8435 20.3913 13.7656 19.7329 11.2528C18.773 7.59002 19.16 4.39037 20.5973 4.1062C21.8994 3.84873 23.6168 6.07271 24.642 9.21702C25.7577 7.00589 27.0575 5.59606 27.9316 5.8216C29.1108 6.12589 29.0685 9.29172 27.837 12.8927C26.6056 16.4936 24.6513 19.1661 23.472 18.8618C22.9211 18.7197 22.6368 17.9529 22.6158 16.8089Z" fill="#1CB76B"/>
<path d="M7.22974 28.5835C7.22974 36.5212 14.737 42.956 23.9977 42.956C33.2584 42.956 40.7656 36.5212 40.7656 28.5835C40.7656 20.6457 33.2584 14.2109 23.9977 14.2109C14.737 14.2109 7.22974 20.6457 7.22974 28.5835Z" fill="#1CB76B"/>
<path d="M23.7807 35.8958C19.7864 35.8958 19.207 32.0156 19.207 32.0156H28.1641C28.1641 32.0156 27.7749 35.8958 23.7807 35.8958Z" fill="black"/>
<path fill-rule="evenodd" clip-rule="evenodd" d="M18.4495 31.3628C18.6395 31.1424 18.916 31.0156 19.207 31.0156H28.1641C28.4466 31.0156 28.716 31.1352 28.9056 31.3447C29.0952 31.5543 29.1873 31.8342 29.1591 32.1154L28.1641 32.0156C29.1591 32.1154 29.159 32.1159 29.159 32.1164L29.1586 32.1201L29.1579 32.1263L29.1561 32.1429C29.1546 32.1558 29.1525 32.1725 29.1498 32.1926C29.1444 32.2329 29.1363 32.2872 29.1248 32.3536C29.1017 32.4861 29.0645 32.6684 29.0058 32.8842C28.8895 33.3122 28.6835 33.8918 28.322 34.4796C27.5738 35.6962 26.1793 36.8958 23.7807 36.8958C21.3887 36.8958 19.9566 35.7042 19.1629 34.5089C18.7769 33.9276 18.5444 33.3532 18.4078 32.9274C18.339 32.713 18.293 32.5317 18.2637 32.3999C18.249 32.3338 18.2383 32.2798 18.231 32.2398C18.2273 32.2198 18.2244 32.2033 18.2223 32.1904L18.2196 32.174L18.2187 32.1679L18.2183 32.1654L18.2182 32.1643C18.2181 32.1638 18.218 32.1633 19.207 32.0156L18.218 32.1633C18.175 31.8755 18.2596 31.5832 18.4495 31.3628ZM20.602 33.0156C20.6678 33.1429 20.7431 33.2731 20.8291 33.4025C21.3236 34.1473 22.1783 34.8958 23.7807 34.8958C25.3763 34.8958 26.1735 34.1553 26.6184 33.4319C26.7041 33.2926 26.7772 33.1523 26.8395 33.0156H20.602Z" fill="black"/>
<path fill-rule="evenodd" clip-rule="evenodd" d="M16.3563 22.627C16.5711 22.1182 17.1577 21.8798 17.6665 22.0946L21.5202 23.7213C21.8747 23.8709 22.1119 24.2106 22.1302 24.5949C22.1486 24.9792 21.9448 25.3399 21.6062 25.5226L17.7525 27.6021C17.2664 27.8644 16.6598 27.683 16.3975 27.1969C16.1353 26.7109 16.3167 26.1043 16.8027 25.842L18.8212 24.7529L16.8887 23.9372C16.3799 23.7224 16.1415 23.1358 16.3563 22.627Z" fill="black"/>
<path fill-rule="evenodd" clip-rule="evenodd" d="M30.6945 22.627C30.4797 22.1182 29.8931 21.8798 29.3843 22.0946L25.5305 23.7213C25.1761 23.8709 24.9389 24.2106 24.9206 24.5949C24.9022 24.9792 25.106 25.3399 25.4445 25.5226L29.2983 27.6021C29.7843 27.8644 30.391 27.683 30.6532 27.1969C30.9155 26.7109 30.7341 26.1043 30.2481 25.842L28.2296 24.7529L30.1621 23.9372C30.6709 23.7224 30.9092 23.1358 30.6945 22.627Z" fill="black"/>
</svg>
