<svg width="48" height="48" viewBox="0 0 48 48" fill="none" xmlns="http://www.w3.org/2000/svg">
<path d="M4 12C4 7.58172 7.58172 4 12 4H36C40.4183 4 44 7.58172 44 12V36C44 40.4183 40.4183 44 36 44H12C7.58172 44 4 40.4183 4 36V12Z" fill="black"/>
<path d="M35.1738 28.0949C34.3702 27.7737 33.6856 27.2385 33.2056 26.5559C32.7255 25.8734 32.4714 25.0738 32.4749 24.2571C32.4853 23.5281 32.6942 22.8136 33.0821 22.181C33.4699 21.5483 34.0238 21.0184 34.6915 20.6412C34.8426 20.5539 34.9732 20.439 35.0753 20.3033C35.1775 20.1675 35.2492 20.0139 35.286 19.8515C35.3228 19.6892 35.324 19.5216 35.2895 19.3588C35.255 19.196 35.1856 19.0415 35.0853 18.9045C34.4851 18.0889 33.7025 17.4048 32.7917 16.8993C31.8809 16.3937 30.8636 16.0789 29.8099 15.9765C30.7906 14.5223 31.2357 12.8085 31.0773 11.096C31.0464 10.7851 30.8877 10.4974 30.6347 10.2934C30.3816 10.0894 30.0539 9.98486 29.7201 10.0018C27.4647 10.1896 25.3738 11.1835 23.8835 12.7764C22.9387 13.7992 22.2721 15.0199 21.9401 16.3348C21.2541 16.118 20.536 16.0031 19.8119 15.9945C18.4714 16.03 17.1635 16.3885 16.0149 17.0352C14.8663 17.682 13.9161 18.5951 13.2563 19.6859C10.7767 23.7082 12.2936 29.7357 14.9797 33.3636C16.0572 34.8175 17.6742 37 20.1134 37C20.1615 37 20.2102 37 20.259 36.9975C21.0762 36.9542 21.8763 36.7608 22.6135 36.4282C23.2023 36.1494 23.8519 36.0009 24.512 35.9944C25.1328 36.0014 25.7432 36.1434 26.2951 36.4091C27.1014 36.7655 27.9802 36.9564 28.8722 36.9688C31.3851 36.9244 32.8694 34.8989 33.9533 33.4187C34.8085 32.243 35.4778 30.9581 35.9403 29.6038C36.0389 29.3083 36.0147 28.989 35.8727 28.7094C35.7307 28.4298 35.4812 28.2104 35.1738 28.0949ZM25.8724 14.3789C26.5623 13.6578 27.4268 13.1014 28.3937 12.756C28.1822 13.7284 27.7141 14.6359 27.032 15.3964C26.5691 15.9154 26.0058 16.3484 25.3715 16.6729L25.3677 16.6741C25.3305 16.6885 25.2933 16.7017 25.256 16.7161C25.011 16.806 24.7082 16.9174 24.4748 16.9893C24.7002 16.0238 25.1807 15.1264 25.8724 14.3789ZM31.7854 32.0333C30.7296 33.474 29.8991 34.4963 28.8241 34.5143C28.3044 34.5128 27.7935 34.3895 27.338 34.1559C26.4574 33.755 25.4916 33.5445 24.512 33.5398C23.4985 33.5446 22.4986 33.7595 21.5847 34.169C21.1404 34.381 20.6556 34.5089 20.1583 34.5454H20.1192C19.0512 34.5454 17.9025 32.9957 17.1399 31.9661C15.2318 29.3893 13.4718 24.2547 15.5332 20.9108C15.9655 20.1872 16.5906 19.5803 17.348 19.149C18.1053 18.7176 18.9691 18.4765 19.8555 18.4491L19.8998 18.4479C20.6476 18.5072 21.3778 18.692 22.0555 18.9932C22.2281 19.0567 22.398 19.1202 22.5667 19.179C22.6097 19.1958 22.6539 19.2113 22.6988 19.2245C23.1663 19.4002 23.6628 19.4987 24.1663 19.5158C24.8792 19.4628 25.5757 19.2877 26.2207 18.9992C27.1301 18.5868 28.1296 18.378 29.1403 18.3891C30.2214 18.4287 31.2592 18.7964 32.0965 19.4367C31.381 20.0526 30.8113 20.8016 30.424 21.6355C30.0367 22.4694 29.8405 23.3698 29.8478 24.2788C29.8404 25.3792 30.1318 26.4646 30.6949 27.4311C31.258 28.3977 32.0744 29.2149 33.0676 29.8064C32.7217 30.5873 32.2921 31.3334 31.7854 32.0333Z" fill="white"/>
</svg>
