<svg width="200" height="90" viewBox="0 0 200 90" fill="none" xmlns="http://www.w3.org/2000/svg">
<g clip-path="url(#clip0_1716_1726)">
<rect width="200" height="90" fill="#FEB79D"/>
<path fill-rule="evenodd" clip-rule="evenodd" d="M-6.18027 85.5257C-5.5206 81.3514 -9.94765 77.2571 -7.65473 73.2393C-4.94813 68.4966 -1.65241 61.9915 7.77154 61.0783C17.9972 60.0873 23.5998 68.8258 33.9785 69.2048C45.8176 69.6371 56.5881 60.196 66.8872 63.2371C76.2425 65.9996 70.121 74.0119 68.9752 79.5387C68.1676 83.4341 61.5364 86.4306 61.2669 90.3457C60.8502 96.3973 75.7689 103.853 67.0229 107.895C58.3557 111.9 45.7383 103.802 34.2527 102.83C27.3162 102.243 20.5655 103.925 13.6182 103.373C4.65786 102.66 -7.2514 103.227 -11.7526 99.1698C-16.3208 95.0519 -6.92748 90.2539 -6.18027 85.5257Z" fill="#FE585B"/>
<path fill-rule="evenodd" clip-rule="evenodd" d="M28.4743 10.5302C32.6486 10.8717 36.7429 8.58004 40.7607 9.76696C45.5034 11.168 52.0085 12.874 52.9217 17.7523C53.9127 23.0456 45.1742 25.9458 44.7952 31.3183C44.3629 37.4467 53.804 43.0221 50.7629 48.3534C48.0004 53.1961 39.9881 50.0274 34.4613 49.4342C30.5659 49.0162 27.5694 45.5836 23.6543 45.444C17.6027 45.2284 10.1469 52.9509 6.10508 48.4236C2.09968 43.9371 10.1975 37.4057 11.1701 31.4602C11.7575 27.8695 10.0747 24.3751 10.6274 20.7788C11.3402 16.1405 10.7727 9.97575 14.8302 7.64571C18.9481 5.281 23.7461 10.1434 28.4743 10.5302Z" fill="#FC7443"/>
<path fill-rule="evenodd" clip-rule="evenodd" d="M173.474 4.53021C177.649 4.87169 181.743 2.58004 185.761 3.76696C190.503 5.16803 197.008 6.87405 197.922 11.7523C198.913 17.0456 190.174 19.9458 189.795 25.3183C189.363 31.4467 198.804 37.0221 195.763 42.3534C193 47.1961 184.988 44.0274 179.461 43.4342C175.566 43.0162 172.569 39.5836 168.654 39.444C162.603 39.2284 155.147 46.9509 151.105 42.4236C147.1 37.9371 155.198 31.4057 156.17 25.4602C156.757 21.8695 155.075 18.3751 155.627 14.7788C156.34 10.1405 155.773 3.97575 159.83 1.64571C163.948 -0.719004 168.746 4.14342 173.474 4.53021Z" fill="#FF8787"/>
<path fill-rule="evenodd" clip-rule="evenodd" d="M117.063 7.20494C131.49 7.9797 144.155 11.9054 154.996 17.5775C166.733 23.7188 176.896 30.8598 179.688 39.9711C183.097 51.0949 184.354 63.7453 171.749 72.2549C158.691 81.0707 136.857 81.4742 117.063 82.2497C95.2362 83.1048 71.8992 84.7511 54.6033 76.8446C35.6156 68.1646 20.8565 53.9771 24.5773 39.9711C28.0889 26.7526 52.1053 19.9805 71.5388 13.0955C85.3864 8.18958 100.98 6.34119 117.063 7.20494Z" fill="#FFAB7A"/>
<ellipse cx="177.987" cy="70.7269" rx="16.7876" ry="14.0511" fill="#F55A57"/>
<ellipse cx="173.711" cy="65.6395" rx="1.21537" ry="2.15126" fill="black"/>
<ellipse cx="182.286" cy="65.6395" rx="1.21537" ry="2.15126" fill="black"/>
<path d="M173.043 72.6445C173.079 74.5722 175.312 76.0937 178.031 76.0428C180.749 75.9919 182.924 74.388 182.888 72.4603C182.852 70.5326 180.67 71.7825 177.952 71.8334C175.233 71.8843 173.007 70.7168 173.043 72.6445Z" fill="black"/>
<path d="M170.796 50.9035C173.677 48.6452 180.1 51.1915 180.1 55.0219C180.101 59.542 168.086 61.6232 165.801 61.9782C165.552 62.0169 165.303 62.044 165.054 62.039C163.425 62.0062 157.615 61.2375 170.796 50.9035Z" fill="#6E5232"/>
<path d="M170.796 50.9035C173.677 48.6452 180.1 51.1915 180.1 55.0219C180.101 59.542 168.086 61.6232 165.801 61.9782C165.552 62.0169 165.303 62.044 165.054 62.039C163.425 62.0062 157.615 61.2375 170.796 50.9035Z" fill="url(#paint0_radial_1716_1726)" fill-opacity="0.15"/>
<path d="M185.2 50.7629C182.319 48.5045 175.896 51.0509 175.896 54.8813C175.896 59.4014 187.91 61.4825 190.195 61.8375C190.445 61.8763 190.693 61.9034 190.942 61.8984C192.571 61.8656 198.381 61.0968 185.2 50.7629Z" fill="#6E5232"/>
<path d="M185.2 50.7629C182.319 48.5045 175.896 51.0509 175.896 54.8813C175.896 59.4014 187.91 61.4825 190.195 61.8375C190.445 61.8763 190.693 61.9034 190.942 61.8984C192.571 61.8656 198.381 61.0968 185.2 50.7629Z" fill="url(#paint1_radial_1716_1726)" fill-opacity="0.15"/>
<path d="M71.1385 36.2074C70.7718 36.2087 70.5878 36.0261 70.5865 35.6594L70.5646 29.7595C70.5632 29.3928 70.7459 29.2088 71.1126 29.2074L71.1626 29.2072C71.5292 29.2059 71.7132 29.3885 71.7146 29.7552L71.7229 31.9852L74.9028 31.9734L74.8946 29.7434C74.8932 29.3767 75.0792 29.1927 75.4525 29.1913L75.5125 29.1911C75.8792 29.1898 76.0632 29.3724 76.0646 29.7391L76.0864 35.639C76.0878 36.0057 75.9051 36.1897 75.5385 36.1911L75.4785 36.1913C75.1051 36.1927 74.9178 36.01 74.9164 35.6434L74.9068 33.0434L71.7268 33.0552L71.7365 35.6552C71.7378 36.0218 71.5552 36.2058 71.1885 36.2072L71.1385 36.2074ZM79.7725 36.1754C79.3792 36.1768 79.1818 35.9809 79.1803 35.5876L79.1605 30.2476L77.6405 30.2532C77.2472 30.2547 77.0499 30.0788 77.0486 29.7254C77.0472 29.3654 77.2432 29.1847 77.6366 29.1832L81.8265 29.1677C82.2265 29.1662 82.4272 29.3455 82.4285 29.7055C82.4298 30.0588 82.2305 30.2362 81.8305 30.2377L80.3305 30.2433L80.3503 35.5832C80.3518 35.9766 80.1592 36.1739 79.7725 36.1754ZM84.0102 36.1597C83.6235 36.1611 83.4295 35.9652 83.428 35.5718L83.4065 29.7519C83.4056 29.5252 83.4617 29.3717 83.5747 29.2912C83.6944 29.2041 83.8676 29.1601 84.0943 29.1593C84.4009 29.1582 84.6347 29.2906 84.7957 29.5567L86.5767 32.5101L88.3158 29.5537C88.4085 29.3867 88.5147 29.2763 88.6345 29.2225C88.761 29.1687 88.9242 29.1414 89.1242 29.1407C89.5176 29.1392 89.7149 29.3351 89.7164 29.7285L89.738 35.5484C89.7394 35.9418 89.5435 36.1392 89.1502 36.1406C88.7568 36.1421 88.5594 35.9461 88.558 35.5528L88.5417 31.1528L87.1407 33.598C87.0017 33.8719 86.8123 34.0093 86.5723 34.0102C86.3323 34.011 86.1418 33.8751 86.0007 33.6023L84.5717 31.1676L84.588 35.5675C84.5895 35.9609 84.3969 36.1582 84.0102 36.1597ZM91.7448 36.131C91.3514 36.1325 91.154 35.9365 91.1526 35.5432L91.131 29.7232C91.1295 29.3299 91.3188 29.1325 91.6988 29.1311C92.0855 29.1297 92.2795 29.3256 92.281 29.719L92.3008 35.0589L95.3608 35.0476C95.7541 35.0461 95.9514 35.2221 95.9527 35.5754C95.9541 35.9354 95.7581 36.1161 95.3647 36.1176L91.7448 36.131ZM97.8905 36.8182C97.7505 36.8187 97.6303 36.7692 97.5299 36.6696C97.4362 36.5699 97.3891 36.4501 97.3886 36.3101C97.3881 36.1767 97.4343 36.0599 97.5273 35.9596C97.6269 35.8592 97.7467 35.8088 97.8867 35.8082L100.527 35.7984L100.524 35.1585L99.2744 35.1631C99.141 35.1636 99.0275 35.1173 98.9338 35.0243C98.8401 34.9247 98.793 34.8115 98.7926 34.6849C98.7921 34.5515 98.8383 34.438 98.9313 34.3444C99.0243 34.2507 99.1375 34.2036 99.2708 34.2031L100.521 34.1985L100.518 33.4585C100.518 33.4318 100.518 33.4051 100.518 33.3785C100.524 33.3451 100.531 33.3151 100.537 33.2884L99.8774 33.2908C99.6783 33.5316 99.4359 33.7858 99.1502 34.0535C98.8712 34.3146 98.5821 34.5656 98.283 34.8068C97.9839 35.0412 97.7013 35.2456 97.4353 35.4199C97.2889 35.5071 97.1291 35.5477 96.9557 35.5417C96.7824 35.5357 96.6454 35.4595 96.5449 35.3132C96.4443 35.1669 96.4105 35.017 96.4432 34.8636C96.476 34.7035 96.5722 34.5798 96.7318 34.4925C96.9647 34.3583 97.2374 34.1806 97.5499 33.9595C97.8624 33.7383 98.1549 33.5172 98.4274 33.2962L97.0274 33.3014C96.8941 33.3019 96.7806 33.2556 96.6869 33.1627C96.5932 33.0697 96.5462 32.9598 96.5457 32.8332C96.5452 32.6998 96.5914 32.5863 96.6844 32.4927C96.7774 32.399 96.8906 32.3519 97.0239 32.3514L98.7339 32.3451L98.7232 29.4451L97.4132 29.4499C97.2865 29.4504 97.1763 29.4042 97.0826 29.3112C96.989 29.2182 96.9419 29.1084 96.9414 28.9817C96.9409 28.8484 96.9872 28.7382 97.0802 28.6512C97.1732 28.5642 97.283 28.5204 97.4097 28.5199L98.7197 28.5151L98.7182 28.1151C98.7176 27.9351 98.7737 27.7916 98.8866 27.6845C98.9996 27.5774 99.1394 27.5235 99.306 27.5229C99.4727 27.5223 99.6129 27.5751 99.7266 27.6814C99.8404 27.7876 99.8975 27.9307 99.8982 28.1107L99.8997 28.5107L102.34 28.5017L102.338 28.1017C102.338 27.9217 102.394 27.7781 102.507 27.6711C102.626 27.5639 102.766 27.5101 102.926 27.5095C103.093 27.5089 103.233 27.5617 103.347 27.6679C103.467 27.7742 103.528 27.9173 103.528 28.0973L103.53 28.4973L104.83 28.4924C104.963 28.492 105.073 28.5349 105.16 28.6212C105.254 28.7075 105.301 28.8174 105.301 28.9507C105.302 29.0774 105.256 29.1875 105.163 29.2812C105.076 29.3749 104.966 29.4219 104.833 29.4224L103.533 29.4273L103.544 32.3272L105.284 32.3208C105.417 32.3203 105.531 32.3665 105.624 32.4595C105.718 32.5525 105.765 32.6657 105.766 32.799C105.766 32.9257 105.72 33.0358 105.627 33.1295C105.534 33.2232 105.421 33.2703 105.287 33.2708L103.877 33.276C104.165 33.4949 104.462 33.7038 104.77 33.9027C105.077 34.0949 105.361 34.2572 105.622 34.3896C105.775 34.469 105.872 34.592 105.913 34.7585C105.954 34.925 105.927 35.0784 105.835 35.2188C105.735 35.3725 105.595 35.4563 105.416 35.4703C105.242 35.4776 105.079 35.4382 104.925 35.3521C104.665 35.1931 104.38 35.0008 104.073 34.7753C103.772 34.5497 103.478 34.3075 103.19 34.0486C102.903 33.783 102.648 33.5272 102.427 33.2814L101.707 33.2841C101.714 33.3107 101.718 33.3407 101.718 33.374C101.725 33.4007 101.728 33.4273 101.728 33.454L101.731 34.194L103.071 34.189C103.204 34.1885 103.318 34.2348 103.411 34.3277C103.505 34.4207 103.552 34.5339 103.553 34.6672C103.553 34.7939 103.507 34.9074 103.414 35.0077C103.321 35.1014 103.208 35.1485 103.074 35.149L101.734 35.154L101.737 35.794L104.507 35.7837C104.64 35.7832 104.757 35.8328 104.857 35.9324C104.958 36.032 105.008 36.1485 105.009 36.2818C105.009 36.4218 104.96 36.542 104.86 36.6424C104.76 36.7428 104.644 36.7932 104.51 36.7937L97.8905 36.8182ZM99.9139 32.3407L102.354 32.3317L102.352 31.8617L99.9122 31.8707L99.9139 32.3407ZM99.9093 31.1107L102.349 31.1017L102.348 30.6417L99.9076 30.6507L99.9093 31.1107ZM99.9048 29.8907L102.345 29.8817L102.343 29.4317L99.9031 29.4407L99.9048 29.8907ZM108.666 35.5583C108.193 35.56 107.859 35.4746 107.665 35.302C107.478 35.1227 107.383 34.7964 107.381 34.323L107.378 33.383C107.345 33.4432 107.308 33.5033 107.268 33.5634C107.235 33.6169 107.202 33.6704 107.169 33.7238C107.096 33.8441 106.986 33.9178 106.84 33.945C106.693 33.9722 106.557 33.9428 106.43 33.8566C106.316 33.777 106.249 33.6706 106.228 33.5373C106.215 33.404 106.244 33.2806 106.317 33.167C106.675 32.599 106.969 31.9845 107.2 31.3237C107.431 30.6628 107.589 30.0122 107.673 29.3719L106.923 29.3747C106.796 29.3752 106.683 29.3289 106.582 29.236C106.489 29.1363 106.442 29.0198 106.441 28.8865C106.441 28.7531 106.487 28.6396 106.58 28.546C106.68 28.4523 106.793 28.4052 106.919 28.4047L109.489 28.3952C109.603 28.3948 109.703 28.4277 109.79 28.4941C109.877 28.5537 109.934 28.6335 109.961 28.7334C109.994 28.7066 110.03 28.6865 110.07 28.673C110.117 28.6529 110.164 28.6427 110.21 28.6425L110.89 28.64L110.888 28.11C110.888 27.9767 110.931 27.8732 111.017 27.7995C111.104 27.7192 111.21 27.6788 111.337 27.6783C111.457 27.6779 111.56 27.7175 111.647 27.7972C111.734 27.8769 111.778 27.9867 111.778 28.1267L111.78 28.6367L112.2 28.6351C112.287 28.6348 112.364 28.6579 112.431 28.7043C112.497 28.7507 112.548 28.8105 112.581 28.8837C112.661 28.7301 112.787 28.653 112.96 28.6523L113.53 28.6502L113.528 28.1202C113.528 27.9802 113.571 27.87 113.657 27.7897C113.743 27.7094 113.847 27.669 113.967 27.6686C114.093 27.6681 114.2 27.7077 114.287 27.7874C114.374 27.8671 114.418 27.9769 114.418 28.1169L114.42 28.6469L115.34 28.6435C115.46 28.643 115.56 28.686 115.641 28.7724C115.728 28.8521 115.771 28.9486 115.772 29.0619C115.772 29.1752 115.729 29.2754 115.643 29.3624C115.563 29.4427 115.463 29.483 115.343 29.4835L114.513 29.4866C114.627 29.6128 114.758 29.7523 114.905 29.9051C115.059 30.0512 115.209 30.194 115.357 30.3334C115.51 30.4662 115.644 30.579 115.758 30.672C115.858 30.7516 115.915 30.8547 115.929 30.9813C115.949 31.1079 115.913 31.2247 115.82 31.3317C115.734 31.4387 115.621 31.4958 115.481 31.503C115.341 31.5035 115.221 31.4573 115.12 31.3643C115.02 31.2714 114.91 31.1584 114.789 31.0255C114.669 30.886 114.548 30.7431 114.428 30.5969L114.431 31.5869C114.432 31.7202 114.389 31.827 114.302 31.9074C114.216 31.9877 114.11 32.0281 113.983 32.0285C113.863 32.029 113.759 31.9894 113.672 31.9097C113.585 31.83 113.542 31.7235 113.541 31.5902L113.538 30.7302C113.339 31.0043 113.157 31.2349 112.991 31.4222C112.898 31.5226 112.785 31.583 112.651 31.6035C112.518 31.6173 112.398 31.5778 112.291 31.4848C112.19 31.3919 112.143 31.2854 112.15 31.1653C112.156 31.0453 112.202 30.9418 112.288 30.8548L112.348 30.7846C112.188 30.8519 112.048 30.8324 111.928 30.7262C111.908 30.7062 111.885 30.6863 111.858 30.6664C111.838 30.6465 111.814 30.6232 111.788 30.5967L111.791 31.5967C111.792 31.73 111.749 31.8368 111.662 31.9171C111.576 31.9975 111.473 32.0378 111.353 32.0383C111.226 32.0388 111.119 31.9992 111.032 31.9195C110.945 31.8398 110.902 31.73 110.901 31.59L110.898 30.73C110.699 30.9974 110.51 31.2247 110.331 31.4121C110.238 31.5124 110.121 31.5662 109.981 31.5734C109.848 31.5805 109.734 31.5376 109.641 31.4446C109.554 31.3583 109.51 31.2585 109.51 31.1451C109.509 31.0251 109.552 30.9216 109.638 30.8346C109.811 30.654 110.004 30.4399 110.216 30.1925C110.435 29.9383 110.618 29.7077 110.763 29.5005L110.213 29.5025C110.127 29.5028 110.047 29.4798 109.973 29.4334C109.906 29.3803 109.856 29.3172 109.822 29.2439C109.736 29.3243 109.626 29.3647 109.493 29.3652L108.703 29.3681C108.657 29.6949 108.595 30.0252 108.517 30.3588C108.444 30.6857 108.359 31.0094 108.26 31.3298C108.314 31.3229 108.374 31.3193 108.44 31.3191C108.507 31.3122 108.577 31.3086 108.65 31.3083C109.123 31.3066 109.454 31.3953 109.641 31.5746C109.835 31.7473 109.933 32.0702 109.935 32.5436L109.941 34.3135C109.943 34.7869 109.848 35.1139 109.655 35.2946C109.469 35.4686 109.139 35.5565 108.666 35.5583ZM114.59 36.7763C113.784 36.7793 113.113 36.6751 112.579 36.4638C112.045 36.2524 111.594 35.8941 111.225 35.3888C110.934 35.8765 110.572 36.3079 110.14 36.6828C110.027 36.7766 109.897 36.8271 109.751 36.8343C109.604 36.8481 109.474 36.802 109.36 36.6957C109.253 36.5828 109.203 36.453 109.209 36.3063C109.215 36.1662 109.271 36.0527 109.377 35.9656C109.743 35.671 110.055 35.3198 110.313 34.9122C110.572 34.4979 110.764 34.0772 110.889 33.65C110.928 33.4965 111.015 33.3929 111.148 33.3391C111.281 33.2852 111.417 33.2847 111.558 33.3375C111.698 33.3837 111.788 33.4634 111.829 33.5765C111.876 33.683 111.879 33.803 111.84 33.9365C111.794 34.1233 111.735 34.3036 111.662 34.4772C111.863 34.7764 112.077 35.019 112.305 35.2048L112.297 33.1548L110.597 33.1611C110.47 33.1616 110.357 33.1153 110.256 33.0224C110.163 32.9227 110.116 32.8062 110.115 32.6729C110.115 32.5396 110.161 32.426 110.254 32.3324C110.354 32.2387 110.467 32.1916 110.593 32.1911L114.233 32.1776C114.8 32.1755 115.161 32.3142 115.315 32.5936C115.476 32.873 115.434 33.2732 115.189 33.7941C115.156 33.8742 115.1 33.9411 115.02 33.9947C115.22 34.0606 115.321 34.2036 115.322 34.4236C115.322 34.5503 115.279 34.6571 115.193 34.7441C115.107 34.8311 115 34.8748 114.873 34.8753L113.333 34.881L113.336 35.681C113.51 35.7203 113.697 35.7496 113.897 35.7689C114.097 35.7815 114.31 35.7874 114.537 35.7865C114.657 35.7861 114.77 35.7857 114.877 35.7853C114.99 35.7848 115.1 35.7811 115.207 35.774C115.387 35.76 115.537 35.8028 115.657 35.9024C115.778 35.9953 115.831 36.1184 115.819 36.2718C115.813 36.4518 115.75 36.5787 115.63 36.6525C115.517 36.7329 115.364 36.7735 115.17 36.7742L114.59 36.7763ZM108.642 34.5784C108.769 34.5779 108.855 34.5542 108.902 34.5074C108.948 34.4606 108.971 34.3738 108.971 34.2471L108.965 32.6171C108.965 32.4905 108.941 32.4039 108.894 32.3574C108.847 32.3109 108.76 32.2879 108.634 32.2884C108.514 32.2888 108.431 32.3125 108.384 32.3593C108.338 32.4061 108.315 32.4929 108.315 32.6196L108.321 34.2495C108.321 34.3762 108.345 34.4628 108.392 34.5093C108.439 34.5558 108.522 34.5788 108.642 34.5784ZM112.607 30.5036C112.74 30.3498 112.876 30.1826 113.015 30.0021C113.161 29.8149 113.287 29.6444 113.393 29.4907L112.963 29.4923C112.79 29.4929 112.663 29.4168 112.583 29.2637C112.51 29.4173 112.383 29.4945 112.203 29.4951L111.783 29.4967L111.784 29.5167C111.85 29.5698 111.927 29.6361 112.014 29.7158C112.108 29.7888 112.198 29.8618 112.285 29.9348C112.372 30.0012 112.435 30.0509 112.476 30.0841C112.616 30.1969 112.66 30.3368 112.607 30.5036ZM113.33 33.971L114.35 33.9672C114.196 33.8278 114.159 33.6612 114.238 33.4676C114.298 33.3341 114.314 33.2473 114.287 33.2074C114.26 33.1675 114.17 33.1479 114.017 33.1484L113.327 33.151L113.33 33.971ZM123.567 35.833C123.114 35.8347 122.75 35.7794 122.476 35.6671C122.203 35.5481 122.005 35.3555 121.884 35.0893C121.763 34.8231 121.702 34.4666 121.7 34.02L121.688 30.75C121.686 30.3033 121.745 29.9464 121.864 29.6793C121.983 29.4122 122.179 29.2215 122.452 29.1071C122.725 28.9861 123.088 28.9248 123.541 28.9231C124.001 28.9214 124.365 28.98 124.632 29.0991C124.906 29.2114 125.103 29.4006 125.224 29.6669C125.345 29.9331 125.406 30.2895 125.408 30.7362L125.42 34.0162C125.422 34.4628 125.363 34.8197 125.244 35.0868C125.125 35.3473 124.929 35.538 124.656 35.659C124.39 35.7733 124.027 35.8313 123.567 35.833ZM117.46 36.6457C117.314 36.7329 117.154 36.7668 116.98 36.7475C116.807 36.7281 116.673 36.6419 116.579 36.489C116.492 36.3493 116.465 36.206 116.498 36.0593C116.531 35.9125 116.62 35.7988 116.767 35.7183C117.319 35.4095 117.757 35.0279 118.082 34.5734C118.407 34.1188 118.602 33.5414 118.666 32.8412L117.296 32.8463C117.129 32.8469 116.992 32.7941 116.885 32.6878C116.785 32.5748 116.734 32.4417 116.734 32.2883C116.733 32.135 116.783 32.0048 116.882 31.8978C116.989 31.7841 117.125 31.7269 117.292 31.7263L118.682 31.7211L118.676 30.2211L118.136 30.2231C118.05 30.3768 117.961 30.5271 117.868 30.6741C117.775 30.8145 117.686 30.9448 117.599 31.0651C117.506 31.1921 117.38 31.2759 117.22 31.3165C117.06 31.3571 116.907 31.331 116.76 31.2382C116.64 31.1654 116.559 31.059 116.519 30.9191C116.478 30.7726 116.501 30.6425 116.587 30.5289C116.853 30.1679 117.104 29.767 117.343 29.3261C117.588 28.8785 117.773 28.4545 117.898 28.054C117.951 27.9005 118.047 27.7901 118.187 27.7229C118.327 27.6491 118.477 27.6385 118.637 27.6913C118.79 27.7374 118.901 27.8336 118.968 27.98C119.035 28.1198 119.042 28.2664 118.989 28.42C118.943 28.5335 118.894 28.6503 118.841 28.7705C118.795 28.8907 118.745 29.0075 118.692 29.1211L120.672 29.1137C120.839 29.1131 120.972 29.166 121.073 29.2722C121.173 29.3785 121.224 29.5084 121.224 29.6617C121.225 29.815 121.175 29.9452 121.076 30.0522C120.976 30.1593 120.843 30.2131 120.676 30.2137L119.816 30.2169L119.822 31.7169L120.952 31.7127C121.125 31.7121 121.262 31.7682 121.362 31.8812C121.463 31.9875 121.513 32.1173 121.514 32.2706C121.514 32.424 121.465 32.5575 121.365 32.6712C121.266 32.7782 121.129 32.8321 120.956 32.8327L119.806 32.837C119.806 32.8636 119.803 32.8936 119.796 32.927C119.796 32.9537 119.793 32.9803 119.787 33.007C119.921 33.2199 120.082 33.4559 120.269 33.7153C120.463 33.9679 120.661 34.2171 120.862 34.4631C121.063 34.7023 121.24 34.905 121.394 35.0711C121.515 35.1973 121.565 35.3405 121.546 35.5005C121.533 35.6539 121.463 35.7875 121.337 35.9013C121.204 36.0218 121.051 36.0757 120.878 36.063C120.704 36.057 120.561 35.9875 120.447 35.8546C120.3 35.6818 120.136 35.4691 119.955 35.2164C119.774 34.9638 119.596 34.7044 119.422 34.4384C119.224 34.8991 118.958 35.3135 118.626 35.6814C118.294 36.0493 117.906 36.3707 117.46 36.6457ZM123.563 34.7131C123.843 34.712 124.026 34.6613 124.112 34.561C124.205 34.454 124.251 34.2572 124.25 33.9705L124.238 30.7805C124.237 30.4872 124.19 30.2907 124.096 30.191C124.009 30.0914 123.826 30.042 123.546 30.0431C123.259 30.0441 123.072 30.0948 122.986 30.1952C122.9 30.2955 122.857 30.4923 122.858 30.7856L122.87 33.9656C122.871 34.2523 122.915 34.4488 123.002 34.5551C123.089 34.6615 123.276 34.7141 123.563 34.7131ZM132.4 36.6803C132.28 36.7541 132.154 36.7779 132.02 36.7517C131.887 36.7322 131.78 36.6626 131.7 36.5429C131.633 36.4298 131.609 36.3132 131.628 36.1932C131.655 36.0731 131.724 35.9761 131.837 35.9024C131.891 35.8689 131.944 35.8353 131.997 35.8018C132.05 35.7683 132.1 35.7348 132.147 35.7012C131.96 35.7419 131.727 35.7628 131.447 35.7638C131.08 35.7652 130.793 35.7296 130.586 35.657C130.379 35.5778 130.232 35.445 130.145 35.2587C130.064 35.0723 130.023 34.8124 130.022 34.4791L130.02 33.8091C130.018 33.4691 130.057 33.2056 130.137 33.0187C130.223 32.8317 130.369 32.7011 130.575 32.627C130.782 32.5529 131.068 32.5152 131.435 32.5139C131.801 32.5125 132.085 32.5481 132.285 32.6207C132.492 32.6933 132.636 32.8227 132.717 33.0091C132.804 33.1955 132.848 33.4586 132.85 33.7986L132.852 34.4686C132.853 34.782 132.821 35.0287 132.755 35.209C132.894 35.0751 133.027 34.9413 133.153 34.8075C133.279 34.6737 133.402 34.5332 133.522 34.3861C133.447 34.0531 133.382 33.7 133.328 33.3269C133.273 32.9471 133.228 32.5405 133.193 32.1073L129.933 32.1194C129.793 32.1199 129.68 32.077 129.593 31.9907C129.512 31.8976 129.472 31.7878 129.472 31.6611C129.471 31.5345 129.511 31.4277 129.59 31.3407C129.677 31.247 129.79 31.1999 129.93 31.1994L130.48 31.1974C130.393 31.151 130.329 31.0746 130.289 30.9681C130.262 30.9015 130.222 30.795 130.168 30.6485C130.114 30.5021 130.07 30.3956 130.037 30.329C129.99 30.2159 129.992 30.1092 130.045 30.009C130.098 29.9021 130.181 29.8285 130.295 29.7881C130.408 29.741 130.521 29.7406 130.635 29.7868C130.748 29.8331 130.828 29.9128 130.876 30.0259C130.902 30.0925 130.939 30.1957 130.987 30.3355C131.041 30.4753 131.081 30.5818 131.108 30.6551C131.155 30.7816 131.155 30.8916 131.109 30.9851C131.069 31.0785 130.996 31.1488 130.89 31.1959L131.35 31.1942C131.39 31.1007 131.439 30.9772 131.498 30.8236C131.558 30.6701 131.614 30.5165 131.667 30.363C131.726 30.2094 131.769 30.0959 131.796 30.0225C131.842 29.889 131.918 29.7987 132.025 29.7517C132.138 29.7046 132.258 29.6975 132.384 29.7303C132.505 29.7632 132.595 29.8362 132.655 29.9493C132.716 30.0558 132.719 30.1758 132.667 30.3093C132.634 30.3961 132.581 30.5263 132.508 30.6999C132.435 30.8735 132.366 31.0371 132.3 31.1906L133.13 31.1876C133.108 30.721 133.093 30.2277 133.084 29.7077C133.076 29.1811 133.07 28.6244 133.068 28.0378C133.068 27.8844 133.114 27.7676 133.207 27.6873C133.307 27.6069 133.426 27.5664 133.566 27.5659C133.7 27.5654 133.81 27.6084 133.897 27.6947C133.991 27.781 134.038 27.8975 134.038 28.0442C134.04 28.6308 134.042 29.1875 134.044 29.7142C134.053 30.2341 134.068 30.7241 134.09 31.184L135.36 31.1793C135.506 31.1788 135.62 31.225 135.7 31.318C135.781 31.4044 135.821 31.5109 135.822 31.6376C135.822 31.7643 135.782 31.8744 135.703 31.968C135.623 32.055 135.51 32.0988 135.363 32.0993L134.153 32.1038C134.188 32.537 134.23 32.9302 134.278 33.2833C134.331 33.1898 134.384 33.0963 134.437 33.0027C134.49 32.9025 134.539 32.8024 134.585 32.7022C134.652 32.5686 134.745 32.4849 134.865 32.4511C134.991 32.4107 135.114 32.4202 135.235 32.4798C135.355 32.5393 135.435 32.629 135.476 32.7489C135.523 32.8687 135.513 32.9954 135.447 33.129C135.321 33.3761 135.182 33.6233 135.03 33.8705C134.884 34.1111 134.725 34.3483 134.552 34.5823C134.6 34.7221 134.647 34.8553 134.694 34.9818C134.741 35.1083 134.795 35.2314 134.855 35.3512C134.889 35.4177 134.922 35.451 134.956 35.4508C134.996 35.444 135.029 35.4039 135.055 35.3305C135.068 35.2971 135.092 35.227 135.124 35.1202C135.164 35.0134 135.187 34.9466 135.194 34.9199C135.227 34.8065 135.296 34.7296 135.403 34.6892C135.509 34.6421 135.626 34.6417 135.753 34.6879C135.866 34.7208 135.95 34.7838 136.004 34.8769C136.064 34.9701 136.078 35.0833 136.045 35.2168C136.019 35.3502 135.966 35.5238 135.887 35.7374C135.814 35.951 135.742 36.1379 135.669 36.2982C135.53 36.6254 135.331 36.7961 135.071 36.8104C134.811 36.8314 134.574 36.6889 134.359 36.383C134.265 36.2367 134.175 36.0871 134.087 35.9341C134.007 35.7744 133.93 35.608 133.856 35.4349C133.63 35.6824 133.394 35.91 133.148 36.1175C132.902 36.3251 132.653 36.5127 132.4 36.6803ZM128.17 36.626C127.83 36.6273 127.56 36.5849 127.359 36.499C127.166 36.4197 127.029 36.2702 126.948 36.0505C126.867 35.8308 126.826 35.5243 126.824 35.131C126.823 34.7243 126.862 34.4142 126.941 34.2005C127.02 33.9869 127.156 33.8397 127.349 33.759C127.549 33.6716 127.819 33.6273 128.159 33.626C128.506 33.6247 128.772 33.6671 128.959 33.753C129.153 33.8323 129.29 33.9785 129.371 34.1915C129.452 34.4046 129.493 34.7144 129.494 35.1211C129.496 35.5144 129.457 35.8212 129.378 36.0415C129.299 36.2618 129.163 36.4123 128.969 36.493C128.783 36.5804 128.517 36.6247 128.17 36.626ZM126.787 30.3411C126.647 30.3416 126.537 30.2987 126.456 30.2123C126.376 30.1193 126.335 30.0127 126.335 29.8927C126.335 29.7661 126.374 29.6593 126.454 29.5723C126.533 29.4787 126.643 29.4316 126.783 29.4311L129.383 29.4214C129.437 29.4212 129.483 29.4277 129.523 29.4409C129.563 29.4541 129.6 29.4706 129.634 29.4905C129.613 29.4573 129.597 29.4207 129.583 29.3807C129.57 29.3341 129.563 29.2874 129.563 29.2408C129.562 29.1208 129.602 29.0173 129.681 28.9303C129.761 28.8434 129.871 28.7996 130.011 28.7991L130.801 28.7962L130.799 28.1362C130.798 27.9829 130.844 27.8627 130.937 27.7757C131.03 27.682 131.153 27.6349 131.307 27.6343C131.46 27.6337 131.58 27.68 131.667 27.773C131.761 27.8593 131.808 27.9791 131.809 28.1324L131.811 28.7924L132.521 28.7898C132.661 28.7893 132.771 28.8322 132.851 28.9186C132.932 29.005 132.972 29.1081 132.973 29.2281C132.973 29.3548 132.933 29.4616 132.854 29.5486C132.774 29.6355 132.664 29.6793 132.524 29.6798L130.014 29.6891C129.901 29.6895 129.818 29.6665 129.764 29.62C129.811 29.6999 129.835 29.7864 129.835 29.8798C129.835 29.9998 129.796 30.1066 129.716 30.2002C129.636 30.2872 129.527 30.3309 129.387 30.3314L126.787 30.3411ZM127.212 28.9595C127.072 28.96 126.958 28.9171 126.871 28.8308C126.791 28.7377 126.75 28.6279 126.75 28.5012C126.749 28.3679 126.789 28.2577 126.869 28.1708C126.955 28.0771 127.068 28.03 127.208 28.0295L129.018 28.0228C129.165 28.0222 129.278 28.0685 129.359 28.1615C129.439 28.2479 129.479 28.3577 129.48 28.4911C129.48 28.6177 129.441 28.7279 129.361 28.8215C129.281 28.9085 129.168 28.9522 129.022 28.9528L127.212 28.9595ZM127.202 31.7295C127.062 31.7301 126.952 31.6871 126.871 31.6008C126.791 31.5077 126.751 31.3979 126.75 31.2712C126.75 31.1446 126.789 31.0377 126.869 30.9508C126.949 30.8571 127.058 30.8101 127.198 30.8096L129.038 30.8027C129.178 30.8022 129.289 30.8485 129.369 30.9415C129.449 31.0279 129.49 31.1344 129.49 31.2611C129.491 31.3877 129.451 31.4979 129.371 31.5915C129.292 31.6785 129.182 31.7222 129.042 31.7227L127.202 31.7295ZM127.207 33.1095C127.067 33.1101 126.957 33.0671 126.876 32.9808C126.796 32.8877 126.756 32.7812 126.755 32.6612C126.755 32.5345 126.794 32.4277 126.874 32.3408C126.954 32.2471 127.064 32.2001 127.204 32.1995L129.044 32.1927C129.184 32.1922 129.294 32.2385 129.374 32.3315C129.454 32.4179 129.495 32.5244 129.495 32.6511C129.496 32.7711 129.456 32.8779 129.376 32.9715C129.297 33.0585 129.187 33.1022 129.047 33.1027L127.207 33.1095ZM135.328 30.5594C135.208 30.6199 135.084 30.6337 134.958 30.6008C134.838 30.5679 134.747 30.4882 134.687 30.3618C134.66 30.3019 134.616 30.2187 134.556 30.1123C134.495 30.0058 134.432 29.8961 134.365 29.783C134.304 29.6699 134.247 29.5734 134.194 29.4936C134.133 29.3805 134.119 29.2639 134.152 29.1438C134.192 29.017 134.268 28.9233 134.381 28.8629C134.501 28.8091 134.621 28.7987 134.741 28.8316C134.868 28.8578 134.965 28.9274 135.032 29.0405C135.106 29.1602 135.193 29.3132 135.294 29.4995C135.401 29.6791 135.481 29.8222 135.535 29.9286C135.609 30.0617 135.619 30.185 135.567 30.2985C135.52 30.412 135.441 30.499 135.328 30.5594ZM128.167 35.696C128.333 35.6954 128.44 35.6617 128.486 35.5948C128.539 35.5213 128.565 35.3645 128.564 35.1245C128.564 34.8912 128.536 34.738 128.483 34.6648C128.436 34.5917 128.329 34.5554 128.162 34.556C127.996 34.5566 127.886 34.5937 127.833 34.6672C127.786 34.7407 127.764 34.8942 127.764 35.1275C127.765 35.3675 127.789 35.5241 127.836 35.5972C127.89 35.6637 128 35.6966 128.167 35.696ZM131.444 34.9738C131.617 34.9732 131.734 34.9494 131.794 34.9025C131.853 34.8557 131.883 34.7189 131.882 34.4922L130.992 34.4955C130.993 34.7222 131.023 34.8587 131.084 34.9052C131.15 34.9516 131.271 34.9745 131.444 34.9738ZM130.989 33.7655L131.879 33.7622C131.879 33.5489 131.848 33.419 131.788 33.3726C131.728 33.3261 131.611 33.3032 131.438 33.3039C131.264 33.3045 131.148 33.3283 131.088 33.3752C131.028 33.422 130.995 33.5522 130.989 33.7655Z" fill="#FE585B"/>
<path d="M58.1478 58.7935C56.8892 58.7982 55.8222 58.7061 54.9468 58.5174C54.0714 58.3286 53.3396 58.0326 52.7515 57.6295C52.1633 57.2157 51.6547 56.6949 51.2257 56.0671C50.6422 56.9333 50.0264 57.7089 49.3783 58.394C49.1764 58.5974 48.9368 58.7156 48.6596 58.7487C48.3824 58.7817 48.1261 58.6973 47.8906 58.4955C47.6766 58.315 47.5691 58.0914 47.5682 57.8247C47.5779 57.5687 47.6731 57.3496 47.8537 57.1676C48.5445 56.4824 49.1445 55.7495 49.6536 54.969C50.1734 54.1884 50.5863 53.3708 50.8925 52.5163C51.0088 52.2279 51.1894 52.0299 51.4343 51.9223C51.6792 51.8148 51.9352 51.8085 52.2022 51.9035C52.4693 52.0092 52.6566 52.1791 52.7641 52.4134C52.8716 52.637 52.8725 52.8823 52.7669 53.1494C52.6823 53.3524 52.5924 53.5661 52.4972 53.7904C52.402 54.0041 52.2962 54.2178 52.1796 54.4316C52.6307 55.2726 53.2624 55.8943 54.0745 56.2966L54.0544 50.8726L51.0625 50.8837C50.8065 50.8847 50.5981 50.8001 50.4375 50.63C50.2875 50.4599 50.2121 50.2575 50.2113 50.0229C50.2104 49.7882 50.2843 49.5906 50.4331 49.43C50.5924 49.2588 50.8001 49.1727 51.0561 49.1717L58.9281 49.1425C59.1841 49.1416 59.387 49.2262 59.537 49.3963C59.6976 49.5557 59.7783 49.7527 59.7792 49.9874C59.7801 50.2221 59.7008 50.425 59.5415 50.5963C59.3928 50.7675 59.1904 50.8536 58.9344 50.8545L56.0544 50.8652L56.0612 52.7052L59.6772 52.6918C59.9439 52.6908 60.1522 52.7754 60.3022 52.9455C60.4628 53.1049 60.5435 53.3072 60.5444 53.5526C60.5453 53.7872 60.4661 53.9955 60.3067 54.1775C60.158 54.3487 59.9503 54.4348 59.6837 54.4358L56.0677 54.4492L56.0767 56.8652C56.3862 56.9067 56.7116 56.9375 57.053 56.9575C57.3944 56.9776 57.7571 56.9869 58.1411 56.9855C58.6638 56.9836 59.1918 56.9763 59.7251 56.9636C60.269 56.951 60.8022 56.9223 61.3247 56.8777C61.634 56.8552 61.9009 56.9236 62.1255 57.0827C62.3501 57.2312 62.4629 57.4655 62.4641 57.7855C62.4653 58.1055 62.3649 58.3459 62.1628 58.5066C61.9608 58.678 61.6997 58.7643 61.3797 58.7655C61.0597 58.7667 60.6971 58.768 60.2918 58.7695C59.8971 58.7817 59.5078 58.7885 59.1238 58.7899C58.7505 58.7913 58.4252 58.7925 58.1478 58.7935ZM48.9162 50.2677C48.6495 50.2686 48.4199 50.1895 48.2273 50.0302C48.0453 49.8602 47.9538 49.6312 47.9527 49.3432L47.9504 48.7032C47.9472 47.8499 48.1529 47.2411 48.5676 46.8769C48.9822 46.5021 49.6908 46.3128 50.6935 46.309L53.8935 46.2972L53.8891 45.1132C53.8879 44.8039 53.9884 44.5635 54.1904 44.3921C54.3924 44.21 54.6374 44.1184 54.9254 44.1173C55.2241 44.1162 55.4751 44.206 55.6784 44.3865C55.8817 44.5565 55.9839 44.7961 55.9851 45.1054L55.9895 46.2894L59.2694 46.2773C60.2721 46.2735 60.9768 46.4576 61.3835 46.8294C61.8008 47.1905 62.0111 47.7978 62.0143 48.6511L62.0166 49.2911C62.0177 49.5791 61.9279 49.8088 61.7472 49.9801C61.5664 50.1408 61.3427 50.2216 61.0761 50.2226C60.8094 50.2236 60.5798 50.1498 60.3873 50.0011C60.2053 49.8418 60.1138 49.6181 60.1128 49.3301L60.1105 48.7222C60.1094 48.4128 60.0286 48.1945 59.8681 48.067C59.7183 47.9396 59.4407 47.8766 59.0354 47.8781L50.9234 47.9082C50.5288 47.9097 50.2517 47.9747 50.0921 48.1033C49.9433 48.2318 49.8694 48.4508 49.8706 48.7601L49.8728 49.3681C49.8739 49.6561 49.7787 49.8805 49.5873 50.0412C49.4065 50.1912 49.1828 50.2667 48.9162 50.2677ZM66.5654 59.2103C66.3201 59.2112 66.1118 59.1426 65.9407 59.0046C65.7695 58.8772 65.6728 58.6803 65.6505 58.4137C65.6282 58.1684 65.6968 57.9548 65.8561 57.7729C66.0155 57.6017 66.2285 57.5102 66.4951 57.4985C66.8363 57.4759 67.0548 57.4218 67.1505 57.3361C67.2462 57.2504 67.2936 57.0956 67.2928 56.8716L67.292 56.6636C66.8335 56.7186 66.3804 56.7736 65.9326 56.8286C65.4848 56.873 65.0796 56.9171 64.7171 56.9611C64.1626 57.0165 63.8577 56.7777 63.8024 56.2445C63.791 56.0419 63.849 55.8657 63.9765 55.7159C64.1039 55.5661 64.3009 55.48 64.5675 55.4577C64.9301 55.435 65.3513 55.4014 65.8311 55.357C66.311 55.3125 66.7962 55.2681 67.2867 55.2236L67.2839 54.4876L64.3879 54.4983C64.1853 54.4991 64.0144 54.4304 63.8752 54.2922C63.736 54.1541 63.666 53.9837 63.6653 53.781C63.6645 53.5783 63.7332 53.4074 63.8714 53.2682C64.0095 53.1291 64.1799 53.0591 64.3826 53.0583L67.2786 53.0476L67.2769 52.5836C66.925 52.6169 66.5678 52.6449 66.2052 52.6676C65.8426 52.6903 65.48 52.7076 65.1174 52.7196C64.8934 52.7205 64.7065 52.6785 64.5569 52.5937C64.4179 52.5089 64.3373 52.3492 64.3151 52.1146C64.3038 51.9333 64.3565 51.7784 64.4734 51.65C64.5902 51.5216 64.766 51.4516 65.0006 51.44C65.8005 51.4157 66.6377 51.3646 67.5121 51.2867C68.3864 51.2088 69.1594 51.1046 69.8309 50.9741C70.0334 50.9307 70.2094 50.9354 70.359 50.9882C70.5192 51.0409 70.6316 51.1578 70.6963 51.3389C70.7717 51.5413 70.7617 51.7227 70.6663 51.883C70.5816 52.0434 70.4326 52.1452 70.2194 52.1887C70.0382 52.2214 69.8463 52.2541 69.6438 52.2868C69.4519 52.3196 69.2547 52.3523 69.0521 52.385L69.0546 53.041L71.7266 53.0311C71.672 52.7007 71.6281 52.3648 71.5948 52.0236C71.5615 51.6717 71.5442 51.3091 71.5428 50.9358L64.3108 50.9626C64.1188 50.9633 63.9533 50.8946 63.8141 50.7564C63.6856 50.6182 63.6209 50.4532 63.6202 50.2612C63.6195 50.0692 63.6829 49.9089 63.8105 49.7804C63.9486 49.6413 64.1137 49.5713 64.3057 49.5706L70.0016 49.5495L69.9994 48.9415L66.2074 48.9556C66.0261 48.9562 65.8658 48.8928 65.7267 48.7653C65.5982 48.6271 65.5336 48.4674 65.5329 48.286C65.5323 48.1047 65.5957 47.9498 65.7232 47.8213C65.8614 47.6822 66.0211 47.6122 66.2024 47.6116L69.9944 47.5975L69.9922 47.0055L64.7122 47.0251C64.5203 47.0258 64.3547 46.9624 64.2155 46.8349C64.087 46.6967 64.0224 46.537 64.0218 46.3556C64.0211 46.1636 64.0845 46.0034 64.212 45.8749C64.3501 45.7357 64.5152 45.6658 64.7072 45.6651L67.6192 45.6543C67.5655 45.5478 67.5064 45.452 67.4421 45.367C67.3884 45.2712 67.3455 45.202 67.3134 45.1594C67.1953 44.9785 67.1519 44.776 67.1831 44.5519C67.2143 44.3278 67.3416 44.1513 67.5651 44.0225C67.778 43.9044 68.0019 43.8609 68.2367 43.892C68.4714 43.9231 68.6586 44.0451 68.798 44.2579C68.8516 44.3324 68.9268 44.4601 69.0234 44.6411C69.1307 44.8114 69.2381 44.9923 69.3455 45.1839C69.4635 45.3648 69.56 45.5191 69.6352 45.6468L72.1472 45.6375C72.2213 45.5092 72.3114 45.3542 72.4174 45.1725C72.5234 44.9801 72.6241 44.7984 72.7194 44.6274C72.8148 44.4564 72.8837 44.3334 72.9261 44.2586C73.0639 44.0341 73.2554 43.9054 73.5006 43.8725C73.7458 43.8396 73.97 43.8814 74.1731 43.998C74.4082 44.1251 74.5529 44.3006 74.607 44.5244C74.6612 44.7482 74.6299 44.9456 74.5132 45.1167C74.4708 45.1809 74.4178 45.2611 74.3541 45.3573C74.3011 45.4429 74.2428 45.5337 74.1791 45.63L77.2671 45.6185C77.4485 45.6179 77.6034 45.6866 77.7319 45.8248C77.871 45.9523 77.941 46.112 77.9417 46.304C77.9423 46.4854 77.8736 46.6456 77.7354 46.7848C77.6079 46.9133 77.4535 46.9779 77.2722 46.9785L71.9602 46.9982L71.9624 47.5902L75.7064 47.5763C75.8877 47.5757 76.0426 47.6444 76.1711 47.7826C76.2996 47.9101 76.3642 48.0646 76.3649 48.2459C76.3655 48.4272 76.3021 48.5875 76.1746 48.7266C76.0471 48.8551 75.8927 48.9197 75.7114 48.9203L71.9674 48.9342L71.9696 49.5422L77.6496 49.5211C77.8416 49.5204 78.0018 49.5892 78.1304 49.7274C78.2695 49.8549 78.3394 50.0146 78.3401 50.2066C78.3408 50.3986 78.2721 50.5642 78.134 50.7034C78.0065 50.8425 77.8467 50.9124 77.6548 50.9131L75.1268 50.9225C75.1908 50.9329 75.2603 50.97 75.3352 51.0337C75.4849 51.1505 75.6615 51.2939 75.8648 51.4638C76.0681 51.6337 76.2339 51.7771 76.3624 51.8939C76.5122 52.032 76.5929 52.2024 76.6043 52.405C76.6157 52.6077 76.547 52.7839 76.3982 52.9338L76.3185 53.0141L77.6305 53.0092C77.8332 53.0085 78.0041 53.0772 78.1433 53.2153C78.2825 53.3535 78.3524 53.5239 78.3532 53.7266C78.3539 53.9292 78.2852 54.1002 78.1471 54.2393C78.0089 54.3785 77.8385 54.4485 77.6359 54.4492L76.0519 54.4551C76.1373 54.4868 76.2175 54.5452 76.2925 54.6302C76.4425 54.8003 76.5125 54.9921 76.5027 55.2054C76.4928 55.4188 76.4081 55.6005 76.2487 55.7504C75.919 56.0289 75.5734 56.2969 75.2116 56.5542C75.2973 56.6499 75.3883 56.7402 75.4846 56.8252C75.5916 56.8995 75.6985 56.9738 75.8055 57.048C76.0193 57.1859 76.1795 57.2386 76.2861 57.2063C76.4033 57.1738 76.5148 57.0561 76.6208 56.853C76.7055 56.7034 76.7797 56.5644 76.8432 56.4362C76.9174 56.3079 76.981 56.1903 77.0339 56.0835C77.1504 55.8484 77.3205 55.7037 77.5443 55.6496C77.7788 55.5954 78.0029 55.6265 78.2167 55.7431C78.4197 55.849 78.5483 56.0139 78.6025 56.2377C78.6567 56.4615 78.6255 56.6802 78.5089 56.894C78.456 57.0115 78.3819 57.1665 78.2866 57.3588C78.1913 57.5405 78.0906 57.7169 77.9846 57.888C77.5818 58.5828 77.1299 58.9685 76.6289 59.045C76.1279 59.1322 75.5512 58.9583 74.8989 58.5234C74.4712 58.237 74.0753 57.8918 73.7111 57.4878C72.7956 57.9819 71.853 58.3747 70.8834 58.6663C70.2547 58.8393 69.8489 58.6968 69.6658 58.2388C69.5796 58.0045 69.5842 57.7858 69.6794 57.5827C69.7746 57.3691 69.9554 57.2244 70.2218 57.1487C71.1063 56.9108 71.9531 56.5823 72.7622 56.1633C72.6226 55.9078 72.4936 55.6416 72.3752 55.3647C72.2568 55.0772 72.149 54.7789 72.0519 54.4699L69.0599 54.481L69.062 55.041C69.3499 55.0079 69.6217 54.9749 69.8776 54.942C70.1335 54.909 70.3574 54.8815 70.5493 54.8595C70.7306 54.8375 70.8908 54.8849 71.0299 55.0017C71.1796 55.1078 71.2655 55.2515 71.2875 55.4328C71.3095 55.6354 71.2622 55.8062 71.1454 55.9453C71.0392 56.0844 70.8795 56.1703 70.6663 56.2031C70.4424 56.2359 70.1919 56.2742 69.9147 56.3179C69.6482 56.3509 69.3657 56.3892 69.0672 56.433L69.0696 57.089C69.0725 57.889 68.8719 58.4391 68.4677 58.7392C68.0635 59.0501 67.4294 59.2071 66.5654 59.2103ZM73.4225 53.0248L75.4065 53.0175C75.3958 52.9962 75.3797 52.9803 75.3584 52.9697C75.3477 52.959 75.3316 52.9484 75.3102 52.9378L74.347 52.0774C74.2079 51.9606 74.1327 51.8062 74.1213 51.6142C74.1099 51.4223 74.168 51.2567 74.2955 51.1176C74.3805 51.0213 74.4656 50.957 74.5508 50.9246L73.2228 50.9296C73.2256 51.6869 73.2922 52.3853 73.4225 53.0248ZM74.215 55.2939C74.3746 55.1867 74.5288 55.0794 74.6778 54.9722C74.8267 54.8543 74.9702 54.7364 75.1085 54.6186C75.2042 54.5436 75.2947 54.4899 75.3799 54.4576L73.8279 54.4633C73.8817 54.6018 73.9409 54.7456 74.0055 54.8947C74.07 55.0331 74.1398 55.1662 74.215 55.2939ZM81.1081 58.8364C80.7139 58.9552 80.3992 58.951 80.1641 58.8239C79.929 58.7074 79.7576 58.5107 79.6499 58.2338C79.5636 57.9781 79.584 57.722 79.7111 57.4656C79.8381 57.2091 80.0615 57.0429 80.3812 56.9671C81.5108 56.6642 82.5121 56.2925 83.3851 55.8519C84.2581 55.4114 85.0296 54.9125 85.6996 54.3553C85.0353 53.5791 84.4615 52.7226 83.978 51.7857C83.5052 50.8381 83.112 49.8102 82.7986 48.7021L80.4626 48.7107C80.2279 48.7116 80.025 48.627 79.8537 48.457C79.6824 48.2869 79.5963 48.0846 79.5954 47.8499C79.5945 47.6153 79.6791 47.4176 79.8492 47.257C80.0192 47.0857 80.2216 46.9996 80.4563 46.9987L85.9442 46.9784L85.9371 45.0584C85.936 44.7491 86.0364 44.498 86.2383 44.3053C86.4403 44.1125 86.6852 44.0156 86.9732 44.0146C87.2612 44.0135 87.5069 44.1086 87.7103 44.2998C87.9137 44.4911 88.0159 44.7414 88.0171 45.0507L88.0242 46.9707L93.4802 46.9505C93.7148 46.9496 93.9125 47.0342 94.0731 47.2043C94.2444 47.3636 94.3304 47.5606 94.3313 47.7953C94.3322 48.03 94.2476 48.233 94.0776 48.4042C93.9182 48.5755 93.7212 48.6616 93.4865 48.6624L91.2785 48.6706C90.984 49.7811 90.5984 50.8065 90.1219 51.7469C89.6561 52.6873 89.0939 53.5481 88.4355 54.3292C89.1202 54.892 89.9061 55.3904 90.793 55.8245C91.68 56.2585 92.684 56.6228 93.8051 56.9173C94.1254 56.9908 94.3447 57.1553 94.4629 57.4109C94.5812 57.6664 94.5928 57.9224 94.4978 58.1788C94.4028 58.4564 94.2329 58.6544 93.988 58.7727C93.7538 58.8909 93.4445 58.8973 93.0601 58.7921C90.6361 58.0864 88.643 57.0645 87.0807 55.7262C86.3044 56.3904 85.4213 56.9804 84.4312 57.4961C83.4518 58.0117 82.3441 58.4585 81.1081 58.8364ZM87.0703 52.9423C87.5481 52.3431 87.9564 51.6856 88.295 50.9697C88.6337 50.2538 88.9189 49.49 89.1505 48.6785L84.9106 48.6942C85.1589 49.504 85.4551 50.2656 85.799 50.979C86.1537 51.6923 86.5775 52.3467 87.0703 52.9423ZM95.6893 47.2623L100.681 47.2438L100.688 49.0198L95.6959 49.0383L95.6893 47.2623ZM97.5331 43.9434L99.261 43.937L99.3167 58.9609L97.5887 58.9673L97.5331 43.9434ZM97.5338 48.4714L98.5912 48.8355C98.1686 51.3651 97.3001 54.4883 96.2022 56.1244C96.0243 55.6131 95.6056 54.8786 95.3319 54.4156C96.3187 53.02 97.1894 50.5047 97.5338 48.4714ZM99.1865 49.7133C99.524 50.1441 100.812 52.2033 101.085 52.6503L100.146 53.9978C99.8069 53.071 98.856 51.2026 98.4532 50.452L99.1865 49.7133ZM102.534 54.901L108.726 54.878L108.731 56.19L102.539 56.2129L102.534 54.901ZM102.398 57.0455L108.958 57.0212L108.963 58.4131L102.403 58.4375L102.398 57.0455ZM104.621 43.9171L106.445 43.9104L106.457 47.2544L104.633 47.2611L104.621 43.9171ZM104.737 53.5168L106.369 53.5107L106.384 57.7667L104.752 57.7727L104.737 53.5168ZM100.902 46.4109L110.31 46.3761L110.321 49.208L108.545 49.2146L108.54 47.8546L102.604 47.8766L102.609 49.2366L100.913 49.2429L100.902 46.4109ZM101.278 52.6976L109.965 52.6654L109.989 58.9053L108.149 58.9122L108.131 54.0642L103.027 54.0831L103.045 58.9471L101.301 58.9535L101.278 52.6976ZM104.035 49.9034L104.039 50.8153L107.207 50.8036L107.203 49.8916L104.035 49.9034ZM102.382 48.6295L108.958 48.6051L108.971 52.0931L102.395 52.1174L102.382 48.6295ZM101.424 44.601L102.958 44.0673C103.36 44.6578 103.795 45.4722 103.957 46.0316L102.327 46.6137C102.181 46.0702 101.794 45.2236 101.424 44.601ZM108.045 44.0004L109.823 44.5219C109.378 45.2915 108.949 46.0611 108.599 46.5584L107.141 46.0838C107.459 45.5066 107.84 44.6252 108.045 44.0004ZM124.468 58.6277C124.083 58.4904 123.65 58.3054 123.17 58.0725C122.689 57.8396 122.213 57.58 121.743 57.2938C121.272 57.0075 120.855 56.7264 120.492 56.4504C120.299 56.3018 120.186 56.1155 120.153 55.8916C120.131 55.6571 120.189 55.4488 120.327 55.267C120.444 55.1279 120.572 55.0368 120.71 54.9936L117.382 55.0059C117.446 55.0377 117.51 55.0748 117.575 55.1172C117.639 55.1596 117.692 55.2128 117.735 55.2766C117.885 55.4787 117.934 55.6919 117.882 55.9161C117.84 56.1296 117.734 56.306 117.564 56.4453C117.244 56.7024 116.856 56.9705 116.399 57.2496C115.941 57.5286 115.467 57.7864 114.977 58.0228C114.498 58.2593 114.056 58.4583 113.652 58.6198C113.343 58.7382 113.065 58.7659 112.82 58.7029C112.574 58.6504 112.392 58.4911 112.274 58.2249C112.167 57.9799 112.16 57.7453 112.255 57.5209C112.351 57.2966 112.537 57.1359 112.814 57.0389C113.218 56.888 113.644 56.7104 114.092 56.5061C114.55 56.2911 114.986 56.0708 115.401 55.8453C115.816 55.6091 116.173 55.3837 116.471 55.1693C116.513 55.1371 116.556 55.1103 116.598 55.0888C116.652 55.0566 116.7 55.0298 116.742 55.0083L112.374 55.0245C112.15 55.0253 111.958 54.9514 111.797 54.8026C111.647 54.6432 111.572 54.4568 111.571 54.2434C111.57 54.0194 111.644 53.8325 111.793 53.6826C111.953 53.522 112.144 53.4413 112.368 53.4405L112.976 53.4382L112.825 47.2148C112.813 46.7348 112.849 46.3507 112.933 46.0623C113.028 45.7633 113.203 45.528 113.458 45.3564C113.714 45.1741 114.081 45.0234 114.561 44.9043C114.742 44.8503 114.923 44.8016 115.104 44.7583C115.296 44.7042 115.482 44.6502 115.664 44.5962C115.866 44.5421 116.058 44.5521 116.24 44.6261C116.421 44.6894 116.544 44.8276 116.609 45.0407C116.685 45.2751 116.675 45.4778 116.58 45.6488C116.495 45.8091 116.346 45.9164 116.133 45.9705C115.994 46.0137 115.845 46.0622 115.685 46.1161C115.525 46.1594 115.387 46.1919 115.27 46.2137C114.939 46.3002 114.732 46.4023 114.647 46.52C114.562 46.627 114.525 46.8458 114.537 47.1764L114.539 47.6724L115.787 47.6678C116 47.667 116.177 47.7357 116.316 47.8738C116.466 48.0119 116.541 48.1877 116.542 48.401C116.542 48.6036 116.468 48.7799 116.32 48.9298C116.182 49.069 116.006 49.139 115.792 49.1398L114.576 49.1443L114.614 50.5201L115.798 50.5158C116.011 50.515 116.187 50.5836 116.326 50.7218C116.476 50.8599 116.551 51.0356 116.552 51.249C116.553 51.4516 116.479 51.6279 116.33 51.7778C116.192 51.917 116.016 51.987 115.803 51.9877L114.651 51.992L114.688 53.4319L117.072 53.4231L117.062 50.6711C117.061 50.4471 117.135 50.2708 117.284 50.1422C117.433 50.003 117.609 49.933 117.811 49.9323C118.025 49.9315 118.201 50.0002 118.34 50.1383C118.49 50.2658 118.565 50.4415 118.566 50.6655L118.576 53.4175L119.456 53.4142L119.445 50.2302C119.443 49.9209 119.4 49.7237 119.314 49.6387C119.239 49.543 119.031 49.4958 118.69 49.497C118.082 49.4993 117.655 49.3889 117.409 49.1658C117.173 48.932 117.054 48.5004 117.052 47.8711L117.041 44.9431C117.04 44.6978 117.119 44.5001 117.279 44.3502C117.438 44.2003 117.63 44.1249 117.854 44.1241C118.078 44.1233 118.27 44.1972 118.431 44.346C118.602 44.4947 118.688 44.6917 118.689 44.937L118.691 45.641L120.355 45.6348C120.547 45.6341 120.713 45.7028 120.852 45.841C120.991 45.9685 121.061 46.1282 121.062 46.3202C121.063 46.5122 120.994 46.6778 120.856 46.817C120.718 46.9562 120.553 47.0261 120.361 47.0268L118.697 47.033L118.698 47.513C118.699 47.801 118.754 47.9874 118.861 48.0724C118.967 48.1467 119.176 48.1832 119.485 48.1821C119.986 48.1802 120.355 48.3069 120.59 48.562C120.837 48.8064 120.961 49.2326 120.963 49.8406L120.976 53.4086L123.296 53.4L123.323 51.9759L122.123 51.9803C121.92 51.9811 121.744 51.9071 121.594 51.7583C121.455 51.6095 121.385 51.4337 121.384 51.2311C121.383 51.0284 121.452 50.8575 121.59 50.7183C121.739 50.5684 121.915 50.4931 122.117 50.4923L123.349 50.4878L123.36 49.1117L122.112 49.1163C121.91 49.1171 121.733 49.0484 121.584 48.9103C121.444 48.7615 121.374 48.5857 121.374 48.3831C121.373 48.1697 121.442 47.9935 121.58 47.8543C121.729 47.7151 121.904 47.6451 122.107 47.6444L123.387 47.6396L123.401 47.1436C123.41 46.8022 123.356 46.5784 123.239 46.4721C123.121 46.3553 122.891 46.2974 122.55 46.2987L121.798 46.3015C121.595 46.3022 121.419 46.2282 121.269 46.0794C121.119 45.9307 121.044 45.7549 121.043 45.5523C121.042 45.3389 121.116 45.1573 121.265 45.0075C121.414 44.8576 121.59 44.7822 121.792 44.7815L122.656 44.7783C123.307 44.7759 123.809 44.8487 124.161 44.9967C124.524 45.134 124.776 45.3731 124.916 45.7139C125.056 46.0547 125.116 46.5239 125.097 47.1213L124.992 53.3937L125.632 53.3913C125.856 53.3905 126.043 53.4698 126.193 53.6292C126.354 53.778 126.434 53.9644 126.435 54.1884C126.436 54.4017 126.357 54.5886 126.197 54.7492C126.049 54.8991 125.862 54.9745 125.638 54.9753L121.238 54.9916C121.292 55.0021 121.345 55.0232 121.398 55.055C121.463 55.0868 121.516 55.1186 121.559 55.1504C121.88 55.3732 122.259 55.6065 122.697 55.8502C123.136 56.0833 123.584 56.3056 124.044 56.5172C124.514 56.7182 124.931 56.8819 125.294 57.0086C125.539 57.0824 125.705 57.2257 125.791 57.4388C125.888 57.6624 125.894 57.8917 125.81 58.1267C125.704 58.4258 125.518 58.6024 125.252 58.6568C124.996 58.7217 124.735 58.712 124.468 58.6277ZM135.527 50.7786C134.631 50.782 134.017 50.6296 133.685 50.3215C133.353 50.0133 133.186 49.4806 133.183 48.7233C133.18 47.9553 133.344 47.4214 133.673 47.1215C134.003 46.8109 134.615 46.654 135.511 46.6507L135.623 46.6502L135.62 45.8503L133.332 45.8587C133.14 45.8594 132.975 45.7961 132.836 45.6686C132.707 45.5304 132.643 45.3653 132.642 45.1733C132.641 44.9813 132.705 44.8211 132.832 44.6926C132.97 44.5534 133.135 44.4835 133.327 44.4827L141.807 44.4513C141.999 44.4506 142.165 44.5193 142.304 44.6575C142.443 44.785 142.513 44.9447 142.514 45.1367C142.514 45.3287 142.446 45.4943 142.308 45.6335C142.169 45.762 142.004 45.8266 141.812 45.8273L139.46 45.836L139.463 46.636L139.639 46.6354C140.535 46.632 141.149 46.7844 141.481 47.0925C141.813 47.39 141.98 47.9227 141.983 48.6907C141.986 49.448 141.822 49.982 141.493 50.2925C141.163 50.6031 140.551 50.76 139.655 50.7633L135.527 50.7786ZM130.533 58.8612C130.298 58.8621 130.1 58.7881 129.94 58.6394C129.79 58.4906 129.714 58.2936 129.714 58.0482L129.693 52.6243C129.535 52.9555 129.381 53.2708 129.233 53.57C129.085 53.8585 128.942 54.1097 128.804 54.3236C128.687 54.5267 128.512 54.6553 128.277 54.7095C128.043 54.7531 127.829 54.7112 127.637 54.5839C127.444 54.4673 127.332 54.3077 127.299 54.1052C127.277 53.8919 127.319 53.6891 127.425 53.4967C127.605 53.208 127.801 52.8606 128.013 52.4545C128.235 52.0483 128.452 51.6262 128.664 51.1881C128.876 50.7393 129.072 50.3066 129.251 49.8899C129.431 49.4732 129.574 49.1047 129.679 48.7843L129.679 48.5923L128.143 48.598C127.94 48.5987 127.758 48.5247 127.598 48.376C127.448 48.2166 127.372 48.0355 127.372 47.8328C127.371 47.6195 127.445 47.4379 127.594 47.288C127.753 47.1381 127.934 47.0627 128.137 47.062L129.673 47.0563L129.664 44.7043C129.663 44.459 129.737 44.2614 129.886 44.1115C130.045 43.9616 130.242 43.8862 130.477 43.8853C130.701 43.8845 130.893 43.9584 131.054 44.1072C131.214 44.2559 131.295 44.4529 131.296 44.6983L131.305 47.0503L132.361 47.0463C132.574 47.0456 132.756 47.1195 132.906 47.2683C133.056 47.4171 133.131 47.5982 133.132 47.8115C133.132 48.0142 133.058 48.1958 132.91 48.3563C132.761 48.5062 132.58 48.5815 132.366 48.5823L131.31 48.5862L131.314 49.4182C131.41 49.5459 131.544 49.7214 131.716 49.9448C131.887 50.1575 132.064 50.3861 132.246 50.6308C132.439 50.8647 132.621 51.0881 132.793 51.3008C132.964 51.5028 133.103 51.6623 133.21 51.7792C133.36 51.9387 133.42 52.1251 133.388 52.3386C133.357 52.5414 133.262 52.7177 133.102 52.8676C132.932 53.0176 132.735 53.0823 132.511 53.0618C132.298 53.0413 132.121 52.9459 131.982 52.7758C131.907 52.6587 131.81 52.5204 131.692 52.3609C131.575 52.2013 131.451 52.0311 131.323 51.8502L131.346 58.0422C131.346 58.2875 131.267 58.4851 131.108 58.6351C130.948 58.785 130.757 58.8604 130.533 58.8612ZM136.26 58.728C136.015 58.7289 135.812 58.6603 135.651 58.5222C135.502 58.3948 135.421 58.2084 135.409 57.9631C135.398 57.7498 135.461 57.5629 135.599 57.4024C135.737 57.2419 135.918 57.1506 136.142 57.1284C136.398 57.1061 136.563 57.0628 136.638 56.9986C136.723 56.9236 136.765 56.7688 136.764 56.5341L136.757 54.6941L133.397 54.7066C133.216 54.7072 133.056 54.6385 132.916 54.5003C132.788 54.3621 132.723 54.2024 132.723 54.021C132.722 53.829 132.785 53.6688 132.913 53.5403C133.051 53.4012 133.211 53.3312 133.392 53.3306L141.792 53.2994C141.973 53.2988 142.128 53.3675 142.257 53.5057C142.396 53.6332 142.466 53.7929 142.467 53.9849C142.467 54.1663 142.399 54.3265 142.26 54.4657C142.133 54.6048 141.978 54.6747 141.797 54.6754L138.437 54.6879L138.445 56.7679C138.448 57.4825 138.279 57.9845 137.938 58.2737C137.609 58.5736 137.049 58.725 136.26 58.728ZM134.19 52.7196C134.009 52.7203 133.848 52.6515 133.709 52.5134C133.581 52.3752 133.516 52.2154 133.515 52.0341C133.515 51.8528 133.578 51.6979 133.706 51.5694C133.844 51.4302 134.003 51.3603 134.185 51.3596L140.905 51.3347C141.086 51.334 141.241 51.4028 141.37 51.541C141.509 51.6685 141.579 51.8229 141.579 52.0042C141.58 52.1855 141.511 52.3458 141.373 52.485C141.246 52.6241 141.091 52.694 140.91 52.6947L134.19 52.7196ZM141.153 57.8778C140.982 57.7611 140.773 57.6072 140.527 57.4161C140.292 57.2357 140.051 57.0392 139.805 56.8268C139.57 56.6144 139.361 56.4231 139.179 56.2531C139.029 56.1044 138.948 55.9233 138.937 55.71C138.936 55.486 139.01 55.2991 139.159 55.1492C139.308 54.9886 139.483 54.8973 139.686 54.8752C139.899 54.8531 140.091 54.9164 140.263 55.0651C140.412 55.1819 140.605 55.3358 140.84 55.527C141.076 55.7181 141.311 55.9039 141.546 56.0844C141.792 56.2648 141.996 56.408 142.156 56.5141C142.338 56.6308 142.44 56.8011 142.462 57.025C142.495 57.2382 142.453 57.4357 142.336 57.6174C142.209 57.8206 142.033 57.9439 141.809 57.9874C141.586 58.0416 141.367 58.005 141.153 57.8778ZM133.841 57.8729C133.639 58.0123 133.42 58.0612 133.185 58.0194C132.951 57.9882 132.758 57.8716 132.608 57.6695C132.49 57.4886 132.447 57.2914 132.478 57.078C132.52 56.8538 132.631 56.6827 132.812 56.5647C132.972 56.4575 133.168 56.3181 133.403 56.1465C133.637 55.9643 133.87 55.7768 134.104 55.5839C134.338 55.3911 134.53 55.225 134.679 55.0858C134.838 54.9359 135.03 54.8712 135.254 54.8917C135.478 54.9122 135.66 55.0022 135.799 55.1617C135.949 55.3318 136.024 55.5235 136.025 55.7368C136.026 55.9395 135.946 56.1158 135.787 56.2657C135.649 56.4049 135.463 56.5762 135.229 56.7798C134.995 56.9726 134.75 57.1709 134.495 57.3745C134.25 57.5674 134.032 57.7336 133.841 57.8729ZM137.106 49.4608L138.002 49.4574L137.996 47.9535L137.1 47.9568L137.106 49.4608ZM139.474 49.452L139.634 49.4514C139.964 49.4502 140.183 49.396 140.289 49.289C140.395 49.1819 140.448 48.9844 140.447 48.6964C140.446 48.3977 140.392 48.2006 140.285 48.105C140.178 47.9987 139.959 47.9462 139.628 47.9474L139.468 47.948L139.474 49.452ZM135.554 49.4665L135.634 49.4662L135.628 47.9622L135.548 47.9625C135.218 47.9638 134.994 48.0179 134.877 48.125C134.77 48.2214 134.718 48.4189 134.719 48.7176C134.72 49.0056 134.774 49.2027 134.881 49.309C134.999 49.4152 135.223 49.4677 135.554 49.4665ZM137.095 46.6448L137.991 46.6415L137.988 45.8415L137.092 45.8448L137.095 46.6448ZM152.676 58.6191C152.474 58.7585 152.25 58.834 152.005 58.8456C151.759 58.8679 151.546 58.7726 151.364 58.56C151.267 58.443 151.208 58.3152 151.186 58.1766C151.164 58.0381 151.175 57.9047 151.217 57.7765C150.726 57.8423 150.183 57.9084 149.585 57.9746C148.999 58.0407 148.402 58.1016 147.794 58.1572C147.186 58.2235 146.6 58.2843 146.035 58.3397C145.48 58.3951 144.984 58.445 144.547 58.4893C144.334 58.5007 144.147 58.4481 143.987 58.3313C143.826 58.2146 143.735 58.0389 143.713 57.8043C143.701 57.5804 143.765 57.3988 143.903 57.2596C144.041 57.1098 144.211 57.0292 144.414 57.0177C144.67 56.9955 144.947 56.9731 145.246 56.9507C145.555 56.9282 145.875 56.9057 146.205 56.8831L146.203 56.1471L144.395 56.1538C144.256 56.1543 144.138 56.1067 144.042 56.0111C143.946 55.9048 143.897 55.7823 143.897 55.6436C143.896 55.505 143.944 55.3875 144.039 55.2911C144.135 55.1948 144.252 55.1463 144.391 55.1458L146.199 55.1391L146.197 54.6591L144.389 54.6658C144.25 54.6663 144.133 54.6188 144.037 54.5231C143.94 54.4275 143.892 54.3103 143.891 54.1717C143.891 54.0223 143.938 53.8995 144.034 53.8031C144.13 53.7068 144.247 53.6583 144.385 53.6578L146.193 53.6511L146.192 53.1711L144.384 53.1778C144.245 53.1783 144.127 53.1308 144.031 53.0351C143.935 52.9395 143.886 52.8223 143.886 52.6837C143.885 52.5343 143.933 52.4115 144.028 52.3151C144.124 52.2188 144.241 52.1703 144.38 52.1698L146.188 52.1631L146.186 51.6991L144.202 51.7065C144.031 51.7071 143.882 51.6437 143.753 51.5161C143.625 51.3886 143.56 51.2395 143.56 51.0689C143.559 50.8875 143.623 50.7326 143.75 50.6042C143.878 50.4757 144.027 50.4111 144.197 50.4105L144.757 50.4084C144.618 50.3023 144.538 50.1532 144.516 49.9613C144.494 49.7694 144.541 49.6039 144.658 49.4648C144.817 49.2829 144.987 49.0689 145.167 48.8229C145.348 48.5662 145.518 48.3096 145.677 48.053C145.846 47.7857 145.984 47.5505 146.09 47.3475C146.185 47.1658 146.329 47.0532 146.521 47.0099C146.713 46.9558 146.894 46.9711 147.065 47.0558C147.247 47.1405 147.37 47.2734 147.434 47.4545C147.499 47.6356 147.484 47.817 147.388 47.9986C147.367 48.0414 147.341 48.0895 147.309 48.1429C147.288 48.1964 147.261 48.2498 147.23 48.3032C147.369 48.3881 147.524 48.4888 147.695 48.6055C147.866 48.7115 147.994 48.7911 148.08 48.8441C148.304 48.9926 148.401 49.2002 148.37 49.467C148.603 49.1675 148.832 48.8306 149.054 48.4565C149.277 48.0716 149.462 47.7296 149.61 47.4304C149.695 47.2488 149.833 47.1309 150.025 47.0769C150.217 47.0228 150.404 47.0381 150.585 47.1228C150.531 46.9097 150.568 46.7122 150.695 46.5304C150.95 46.1774 151.194 45.7712 151.426 45.3117C151.67 44.8414 151.877 44.4247 152.046 44.0614C152.141 43.8477 152.29 43.7084 152.492 43.6437C152.705 43.5789 152.908 43.5888 153.1 43.6734C153.314 43.758 153.453 43.8908 153.518 44.0719C153.593 44.253 153.589 44.4396 153.504 44.632C153.483 44.6854 153.456 44.7441 153.425 44.8083C153.404 44.8617 153.382 44.9204 153.361 44.9845L157.553 44.9689C157.745 44.9682 157.906 45.037 158.034 45.1752C158.173 45.3027 158.243 45.4624 158.244 45.6544C158.245 45.8464 158.176 46.012 158.038 46.1512C157.91 46.2796 157.75 46.3442 157.558 46.3449L155.286 46.3534C155.308 46.3959 155.329 46.4439 155.351 46.4971C155.372 46.5397 155.389 46.577 155.399 46.6089C155.485 46.8113 155.481 47.0086 155.386 47.201C155.29 47.3827 155.136 47.5166 154.923 47.6027C154.71 47.6782 154.502 47.6843 154.299 47.621C154.107 47.5471 153.973 47.4089 153.898 47.2065C153.854 47.0893 153.801 46.9509 153.736 46.7911C153.682 46.6206 153.628 46.4768 153.574 46.3597L152.646 46.3631C152.562 46.5235 152.472 46.6785 152.376 46.8282C152.291 46.9671 152.206 47.1061 152.122 47.2451C152.005 47.4269 151.84 47.5608 151.627 47.6469C151.414 47.7224 151.201 47.7072 150.987 47.6013C151.019 47.7399 151.004 47.8839 150.941 48.0335L150.861 48.1938C151.032 48.2998 151.23 48.4271 151.455 48.5756C151.679 48.7241 151.84 48.8248 151.936 48.8778C152.096 48.9732 152.193 49.1168 152.225 49.3087C152.258 49.4899 152.216 49.6608 152.099 49.8212C151.983 49.9923 151.823 50.0889 151.62 50.111C151.428 50.1224 151.247 50.075 151.076 49.969C150.969 49.9054 150.835 49.8152 150.675 49.6985C150.514 49.5817 150.359 49.4703 150.21 49.3642C150.008 49.6956 149.801 50.0004 149.589 50.2785C149.557 50.3213 149.52 50.3588 149.477 50.3909L152.725 50.3789C152.692 50.027 152.664 49.6591 152.641 49.2752C152.629 48.8912 152.617 48.4913 152.605 48.0753C152.604 47.8193 152.678 47.6164 152.826 47.4665C152.986 47.3166 153.183 47.2412 153.418 47.2403C153.642 47.2395 153.834 47.3134 153.994 47.4622C154.166 47.6109 154.252 47.8079 154.253 48.0532C154.265 48.4798 154.277 48.8905 154.289 49.2851C154.312 49.669 154.34 50.0316 154.373 50.3728L157.797 50.3601C157.968 50.3594 158.112 50.4229 158.23 50.5505C158.358 50.678 158.423 50.8324 158.424 51.0138C158.424 51.1844 158.361 51.334 158.233 51.4625C158.116 51.5909 157.973 51.6554 157.802 51.6561L156.858 51.6596C157.253 51.8501 157.372 52.159 157.213 52.5863C157.013 53.099 156.785 53.6012 156.531 54.0928C156.277 54.5844 155.996 55.0601 155.688 55.5199C155.796 55.6902 155.903 55.8605 156.01 56.0307C156.128 56.201 156.257 56.3658 156.396 56.5253C156.525 56.6848 156.632 56.7538 156.717 56.7321C156.802 56.7105 156.882 56.5982 156.956 56.3952C156.998 56.2884 157.035 56.1869 157.066 56.0908C157.098 55.984 157.135 55.8826 157.177 55.7864C157.262 55.5621 157.4 55.4123 157.592 55.3369C157.794 55.2508 158.018 55.2606 158.264 55.3664C158.467 55.451 158.601 55.5945 158.665 55.7969C158.73 55.9887 158.72 56.1914 158.636 56.405C158.583 56.5439 158.514 56.7255 158.43 56.9498C158.345 57.1634 158.255 57.3718 158.16 57.5748C157.8 58.3228 157.359 58.7244 156.836 58.7797C156.325 58.8456 155.833 58.6181 155.362 58.0972C155.212 57.9271 155.067 57.7463 154.928 57.5548C154.789 57.3739 154.655 57.1824 154.526 56.9803C153.973 57.5796 153.357 58.1259 152.676 58.6191ZM148.571 47.7063C148.358 47.7817 148.15 47.7878 147.947 47.7246C147.755 47.6613 147.621 47.5231 147.546 47.3101C147.514 47.2142 147.46 47.0704 147.384 46.8787C147.309 46.6869 147.244 46.5218 147.19 46.3834L146.086 46.3875C145.98 46.5692 145.874 46.7509 145.768 46.9326C145.662 47.1037 145.556 47.2641 145.45 47.4138C145.312 47.6063 145.121 47.7351 144.876 47.8C144.641 47.8648 144.412 47.8283 144.187 47.6905C144.016 47.5738 143.914 47.4089 143.881 47.1956C143.849 46.9824 143.896 46.7956 144.023 46.6351C144.31 46.2607 144.591 45.8277 144.867 45.336C145.153 44.8336 145.386 44.3954 145.566 44.0214C145.661 43.8077 145.81 43.6738 146.012 43.6197C146.225 43.5549 146.428 43.5648 146.62 43.6495C146.823 43.734 146.957 43.8669 147.022 44.048C147.086 44.2291 147.076 44.4211 146.992 44.6241C146.971 44.6775 146.944 44.7363 146.913 44.8004C146.881 44.8645 146.849 44.934 146.817 45.0087L150.337 44.9957C150.529 44.995 150.69 45.0637 150.818 45.2019C150.957 45.3294 151.027 45.4891 151.028 45.6811C151.029 45.8731 150.96 46.0387 150.822 46.1779C150.694 46.3064 150.534 46.371 150.342 46.3717L148.902 46.377C148.978 46.5367 149.021 46.6433 149.032 46.6965C149.118 46.9096 149.113 47.1122 149.018 47.3046C148.933 47.4863 148.784 47.6201 148.571 47.7063ZM152.445 56.716C152.679 56.5231 152.902 56.3196 153.115 56.1055C153.338 55.8807 153.55 55.6505 153.752 55.4151C153.353 54.3819 153.056 53.135 152.858 51.6744L150.138 51.6845L150.14 52.1165L151.964 52.1097C152.113 52.1092 152.236 52.1567 152.332 52.2524C152.429 52.348 152.477 52.4651 152.478 52.6038C152.478 52.7425 152.431 52.8653 152.335 52.9723C152.239 53.0687 152.117 53.1172 151.967 53.1177L150.143 53.1245L150.145 53.5245L151.969 53.5177C152.118 53.5172 152.241 53.5647 152.337 53.6603C152.434 53.756 152.482 53.8785 152.483 54.0278C152.483 54.1665 152.436 54.284 152.34 54.3803C152.244 54.4767 152.122 54.5251 151.973 54.5257L150.149 54.5325L150.15 54.9485L151.974 54.9417C152.124 54.9411 152.246 54.9887 152.343 55.0843C152.439 55.18 152.488 55.2971 152.488 55.4358C152.489 55.5745 152.441 55.6973 152.345 55.8043C152.25 55.9007 152.127 55.9491 151.978 55.9497L150.154 55.9565L150.156 56.5324C150.465 56.51 150.753 56.4822 151.02 56.4492C151.286 56.4163 151.537 56.3887 151.771 56.3665C152.102 56.3439 152.326 56.4604 152.445 56.716ZM147.821 56.7491L148.541 56.6824L148.522 51.6905L147.802 51.6931L147.821 56.7491ZM156.916 49.9473C156.756 50.0759 156.575 50.1353 156.372 50.1254C156.17 50.1048 155.999 50.0147 155.859 49.8553C155.763 49.7383 155.624 49.5788 155.442 49.3768C155.259 49.1641 155.12 49.0047 155.024 48.8984C154.895 48.7602 154.836 48.595 154.846 48.403C154.867 48.2109 154.951 48.0559 155.1 47.9381C155.26 47.7881 155.435 47.7182 155.627 47.7281C155.82 47.7381 155.99 47.8174 156.14 47.9662C156.237 48.0619 156.381 48.2106 156.574 48.4126C156.767 48.6039 156.917 48.7633 157.024 48.8909C157.174 49.0504 157.238 49.2315 157.218 49.4342C157.197 49.637 157.097 49.808 156.916 49.9473ZM154.93 53.7307C155.237 53.1963 155.502 52.6459 155.724 52.0798C155.808 51.8768 155.92 51.7377 156.058 51.6625L154.506 51.6683C154.561 52.0521 154.621 52.4145 154.686 52.7556C154.762 53.0967 154.843 53.4217 154.93 53.7307ZM145.733 50.4048L148.373 50.395C148.223 50.2462 148.159 50.0758 148.179 49.8837C148.052 50.0122 147.898 50.0874 147.716 50.1094C147.546 50.1207 147.385 50.0733 147.236 49.9672C147.161 49.9142 147.054 49.8399 146.915 49.7444C146.787 49.6382 146.658 49.5374 146.53 49.4418C146.424 49.5809 146.317 49.7253 146.211 49.875C146.116 50.014 146.015 50.1424 145.909 50.2601C145.866 50.3243 145.808 50.3725 145.733 50.4048Z" fill="black" fill-opacity="0.85"/>
</g>
<defs>
<radialGradient id="paint0_radial_1716_1726" cx="0" cy="0" r="1" gradientUnits="userSpaceOnUse" gradientTransform="translate(0.558656 46.8353) rotate(65.4889) scale(3.32531 8.21233)">
<stop offset="0.33" stop-opacity="0"/>
<stop offset="0.655" stop-opacity="0.6"/>
<stop offset="1"/>
</radialGradient>
<radialGradient id="paint1_radial_1716_1726" cx="0" cy="0" r="1" gradientUnits="userSpaceOnUse" gradientTransform="translate(355.296 45.8572) rotate(114.511) scale(3.32531 8.21233)">
<stop offset="0.33" stop-opacity="0"/>
<stop offset="0.655" stop-opacity="0.6"/>
<stop offset="1"/>
</radialGradient>
<clipPath id="clip0_1716_1726">
<rect width="200" height="90" fill="white"/>
</clipPath>
</defs>
</svg>
