<svg width="200" height="90" viewBox="0 0 200 90" fill="none" xmlns="http://www.w3.org/2000/svg">
<g clip-path="url(#clip0_1716_1814)">
<rect width="200" height="90" fill="#FEB79D"/>
<path fill-rule="evenodd" clip-rule="evenodd" d="M-6.18027 85.5257C-5.5206 81.3514 -9.94765 77.2571 -7.65473 73.2393C-4.94813 68.4966 -1.65241 61.9915 7.77154 61.0783C17.9972 60.0873 23.5998 68.8258 33.9785 69.2048C45.8176 69.6371 56.5881 60.196 66.8872 63.2371C76.2425 65.9996 70.121 74.0119 68.9752 79.5387C68.1676 83.4341 61.5364 86.4306 61.2669 90.3457C60.8502 96.3973 75.7689 103.853 67.0229 107.895C58.3557 111.9 45.7383 103.802 34.2527 102.83C27.3162 102.243 20.5655 103.925 13.6182 103.373C4.65786 102.66 -7.2514 103.227 -11.7526 99.1698C-16.3208 95.0519 -6.92748 90.2539 -6.18027 85.5257Z" fill="#FE585B"/>
<path fill-rule="evenodd" clip-rule="evenodd" d="M28.4743 10.5302C32.6486 10.8717 36.7429 8.58004 40.7607 9.76696C45.5034 11.168 52.0085 12.874 52.9217 17.7523C53.9127 23.0456 45.1742 25.9458 44.7952 31.3183C44.3629 37.4467 53.804 43.0221 50.7629 48.3534C48.0004 53.1961 39.9881 50.0274 34.4613 49.4342C30.5659 49.0162 27.5694 45.5836 23.6543 45.444C17.6027 45.2284 10.1469 52.9509 6.10508 48.4236C2.09968 43.9371 10.1975 37.4057 11.1701 31.4602C11.7575 27.8695 10.0747 24.3751 10.6274 20.7788C11.3402 16.1405 10.7727 9.97575 14.8302 7.64571C18.9481 5.281 23.7461 10.1434 28.4743 10.5302Z" fill="#FC7443"/>
<path fill-rule="evenodd" clip-rule="evenodd" d="M173.474 4.53021C177.649 4.87169 181.743 2.58004 185.761 3.76696C190.503 5.16803 197.008 6.87405 197.922 11.7523C198.913 17.0456 190.174 19.9458 189.795 25.3183C189.363 31.4467 198.804 37.0221 195.763 42.3534C193 47.1961 184.988 44.0274 179.461 43.4342C175.566 43.0162 172.569 39.5836 168.654 39.444C162.603 39.2284 155.147 46.9509 151.105 42.4236C147.1 37.9371 155.198 31.4057 156.17 25.4602C156.757 21.8695 155.075 18.3751 155.627 14.7788C156.34 10.1405 155.773 3.97575 159.83 1.64571C163.948 -0.719004 168.746 4.14342 173.474 4.53021Z" fill="#FF8787"/>
<path fill-rule="evenodd" clip-rule="evenodd" d="M117.063 7.20494C131.49 7.9797 144.155 11.9054 154.996 17.5775C166.733 23.7188 176.896 30.8598 179.688 39.9711C183.097 51.0949 184.354 63.7453 171.749 72.2549C158.691 81.0707 136.857 81.4742 117.063 82.2497C95.2362 83.1048 71.8992 84.7511 54.6033 76.8446C35.6156 68.1646 20.8565 53.9771 24.5773 39.9711C28.0889 26.7526 52.1053 19.9805 71.5388 13.0955C85.3864 8.18958 100.98 6.34119 117.063 7.20494Z" fill="#FFAB7A"/>
<ellipse cx="177.987" cy="70.7269" rx="16.7876" ry="14.0511" fill="#F55A57"/>
<ellipse cx="173.711" cy="65.6395" rx="1.21537" ry="2.15126" fill="black"/>
<ellipse cx="182.286" cy="65.6395" rx="1.21537" ry="2.15126" fill="black"/>
<path d="M173.043 72.6445C173.079 74.5722 175.312 76.0937 178.031 76.0428C180.749 75.9919 182.924 74.388 182.888 72.4603C182.852 70.5326 180.67 71.7825 177.952 71.8334C175.233 71.8843 173.007 70.7168 173.043 72.6445Z" fill="black"/>
<path d="M170.796 50.9035C173.677 48.6452 180.1 51.1915 180.1 55.0219C180.101 59.542 168.086 61.6232 165.801 61.9782C165.552 62.0169 165.303 62.044 165.054 62.039C163.425 62.0062 157.615 61.2375 170.796 50.9035Z" fill="#6E5232"/>
<path d="M170.796 50.9035C173.677 48.6452 180.1 51.1915 180.1 55.0219C180.101 59.542 168.086 61.6232 165.801 61.9782C165.552 62.0169 165.303 62.044 165.054 62.039C163.425 62.0062 157.615 61.2375 170.796 50.9035Z" fill="url(#paint0_radial_1716_1814)" fill-opacity="0.15"/>
<path d="M185.2 50.7629C182.319 48.5045 175.896 51.0509 175.896 54.8813C175.896 59.4014 187.91 61.4825 190.195 61.8375C190.445 61.8763 190.693 61.9034 190.942 61.8984C192.571 61.8656 198.381 61.0968 185.2 50.7629Z" fill="#6E5232"/>
<path d="M185.2 50.7629C182.319 48.5045 175.896 51.0509 175.896 54.8813C175.896 59.4014 187.91 61.4825 190.195 61.8375C190.445 61.8763 190.693 61.9034 190.942 61.8984C192.571 61.8656 198.381 61.0968 185.2 50.7629Z" fill="url(#paint1_radial_1716_1814)" fill-opacity="0.15"/>
<path d="M71.1374 36.1183C70.7708 36.1196 70.5868 35.937 70.5854 35.5703L70.5635 29.6703C70.5622 29.3037 70.7448 29.1197 71.1115 29.1183L71.1615 29.1181C71.5282 29.1168 71.7122 29.2994 71.7135 29.6661L71.7218 31.8961L74.9018 31.8843L74.8935 29.6543C74.8921 29.2876 75.0781 29.1036 75.4515 29.1022L75.5115 29.102C75.8781 29.1006 76.0621 29.2833 76.0635 29.65L76.0854 35.5499C76.0867 35.9166 75.9041 36.1006 75.5374 36.102L75.4774 36.1022C75.1041 36.1036 74.9167 35.9209 74.9154 35.5543L74.9057 32.9543L71.7258 32.9661L71.7354 35.566C71.7368 35.9327 71.5541 36.1167 71.1874 36.1181L71.1374 36.1183ZM79.7714 36.0863C79.3781 36.0877 79.1807 35.8918 79.1793 35.4985L79.1595 30.1585L77.6395 30.1641C77.2461 30.1656 77.0488 29.9896 77.0475 29.6363C77.0462 29.2763 77.2422 29.0956 77.6355 29.0941L81.8255 29.0786C82.2255 29.0771 82.4261 29.2564 82.4275 29.6164C82.4288 29.9697 82.2294 30.1471 81.8294 30.1486L80.3295 30.1542L80.3493 35.4941C80.3507 35.8874 80.1581 36.0848 79.7714 36.0863ZM84.0091 36.0706C83.6225 36.072 83.4284 35.876 83.427 35.4827L83.4054 29.6627C83.4046 29.4361 83.4607 29.2825 83.5737 29.2021C83.6934 29.115 83.8665 29.071 84.0932 29.0702C84.3999 29.0691 84.6337 29.2015 84.7947 29.4676L86.5756 32.421L88.3147 29.4646C88.4074 29.2975 88.5137 29.1871 88.6335 29.1334C88.7599 29.0796 88.9232 29.0523 89.1232 29.0516C89.5165 29.0501 89.7139 29.246 89.7154 29.6394L89.7369 35.4593C89.7384 35.8527 89.5424 36.05 89.1491 36.0515C88.7558 36.053 88.5584 35.857 88.5569 35.4637L88.5406 31.0637L87.1397 33.5089C87.0007 33.7828 86.8112 33.9202 86.5712 33.921C86.3312 33.9219 86.1407 33.786 85.9997 33.5132L84.5706 31.0784L84.587 35.4784C84.5884 35.8717 84.3958 36.0691 84.0091 36.0706ZM91.7437 36.0419C91.3504 36.0433 91.153 35.8474 91.1515 35.4541L91.1299 29.6341C91.1285 29.2408 91.3178 29.0434 91.6978 29.042C92.0844 29.0406 92.2785 29.2365 92.2799 29.6299L92.2997 34.9698L95.3597 34.9585C95.753 34.957 95.9504 35.133 95.9517 35.4863C95.953 35.8463 95.757 36.027 95.3637 36.0285L91.7437 36.0419ZM97.8894 36.7291C97.7494 36.7296 97.6292 36.6801 97.5289 36.5804C97.4352 36.4808 97.3881 36.361 97.3875 36.221C97.387 36.0876 97.4333 35.9708 97.5262 35.8705C97.6259 35.7701 97.7457 35.7196 97.8857 35.7191L100.526 35.7093L100.523 35.0693L99.2733 35.074C99.14 35.0745 99.0265 35.0282 98.9328 34.9352C98.8391 34.8356 98.792 34.7224 98.7915 34.5958C98.791 34.4624 98.8373 34.3489 98.9303 34.2552C99.0232 34.1616 99.1364 34.1145 99.2697 34.114L100.52 34.1093L100.517 33.3693C100.517 33.3427 100.517 33.316 100.517 33.2894C100.523 33.256 100.53 33.226 100.536 33.1993L99.8764 33.2017C99.6772 33.4425 99.4349 33.6967 99.1492 33.9644C98.8701 34.2255 98.5811 34.4765 98.282 34.7176C97.9828 34.9521 97.7003 35.1565 97.4342 35.3308C97.2879 35.418 97.128 35.4586 96.9547 35.4526C96.7813 35.4465 96.6444 35.3704 96.5438 35.2241C96.4433 35.0778 96.4094 34.9279 96.4422 34.7745C96.4749 34.6143 96.5711 34.4906 96.7308 34.4034C96.9636 34.2692 97.2363 34.0915 97.5488 33.8704C97.8613 33.6492 98.1539 33.4281 98.4264 33.2071L97.0264 33.2123C96.893 33.2128 96.7795 33.1665 96.6859 33.0735C96.5922 32.9806 96.5451 32.8707 96.5446 32.7441C96.5441 32.6107 96.5904 32.4972 96.6834 32.4036C96.7764 32.3099 96.8895 32.2628 97.0229 32.2623L98.7328 32.256L98.7221 29.356L97.4121 29.3608C97.2854 29.3613 97.1753 29.315 97.0816 29.2221C96.9879 29.1291 96.9408 29.0192 96.9404 28.8926C96.9399 28.7592 96.9861 28.6491 97.0791 28.5621C97.1722 28.475 97.282 28.4313 97.4087 28.4308L98.7186 28.426L98.7172 28.026C98.7165 27.846 98.7726 27.7024 98.8856 27.5954C98.9985 27.4883 99.1383 27.4344 99.305 27.4338C99.4716 27.4332 99.6118 27.486 99.7256 27.5922C99.8393 27.6985 99.8965 27.8416 99.8972 28.0216L99.8986 28.4216L102.339 28.4126L102.337 28.0126C102.336 27.8326 102.393 27.689 102.506 27.5819C102.625 27.4748 102.765 27.421 102.925 27.4204C103.092 27.4198 103.232 27.4726 103.346 27.5788C103.466 27.685 103.526 27.8282 103.527 28.0082L103.529 28.4082L104.829 28.4033C104.962 28.4028 105.072 28.4458 105.159 28.5321C105.253 28.6184 105.3 28.7283 105.3 28.8616C105.301 28.9883 105.255 29.0984 105.162 29.1921C105.075 29.2858 104.965 29.3328 104.832 29.3333L103.532 29.3381L103.543 32.2381L105.283 32.2317C105.416 32.2312 105.53 32.2774 105.623 32.3704C105.717 32.4634 105.764 32.5766 105.765 32.7099C105.765 32.8366 105.719 32.9467 105.626 33.0404C105.533 33.1341 105.42 33.1812 105.286 33.1817L103.876 33.1869C104.164 33.4058 104.461 33.6147 104.769 33.8136C105.076 34.0058 105.36 34.1681 105.62 34.3004C105.774 34.3799 105.871 34.5028 105.912 34.6694C105.952 34.8359 105.926 34.9893 105.834 35.1297C105.734 35.2834 105.594 35.3672 105.414 35.3812C105.241 35.3885 105.078 35.3491 104.924 35.263C104.663 35.104 104.379 34.9117 104.072 34.6862C103.771 34.4606 103.477 34.2184 103.189 33.9594C102.902 33.6938 102.647 33.4381 102.426 33.1923L101.706 33.1949C101.713 33.2216 101.717 33.2516 101.717 33.2849C101.723 33.3115 101.727 33.3382 101.727 33.3649L101.73 34.1049L103.07 34.0999C103.203 34.0994 103.317 34.1456 103.41 34.2386C103.504 34.3316 103.551 34.4448 103.551 34.5781C103.552 34.7048 103.506 34.8183 103.413 34.9186C103.32 35.0123 103.207 35.0594 103.073 35.0599L101.733 35.0649L101.736 35.7048L104.506 35.6946C104.639 35.6941 104.756 35.7437 104.856 35.8433C104.957 35.9429 105.007 36.0594 105.007 36.1927C105.008 36.3327 104.958 36.4529 104.859 36.5533C104.759 36.6536 104.643 36.7041 104.509 36.7046L97.8894 36.7291ZM99.9128 32.2516L102.353 32.2425L102.351 31.7725L99.9111 31.7816L99.9128 32.2516ZM99.9083 31.0216L102.348 31.0125L102.347 30.5525L99.9066 30.5616L99.9083 31.0216ZM99.9038 29.8016L102.344 29.7926L102.342 29.3426L99.9021 29.3516L99.9038 29.8016ZM108.665 35.4692C108.191 35.4709 107.858 35.3855 107.664 35.2129C107.477 35.0336 107.382 34.7072 107.38 34.2339L107.377 33.2939C107.344 33.354 107.307 33.4142 107.267 33.4743C107.234 33.5278 107.201 33.5812 107.168 33.6347C107.095 33.755 106.985 33.8287 106.839 33.8559C106.692 33.8831 106.555 33.8536 106.429 33.7674C106.315 33.6879 106.248 33.5814 106.227 33.4482C106.213 33.3149 106.243 33.1915 106.316 33.0779C106.674 32.5099 106.968 31.8954 107.199 31.2346C107.43 30.5737 107.588 29.9231 107.672 29.2828L106.922 29.2856C106.795 29.2861 106.682 29.2398 106.581 29.1468C106.488 29.0472 106.441 28.9307 106.44 28.7974C106.44 28.664 106.486 28.5505 106.579 28.4568C106.678 28.3631 106.792 28.3161 106.918 28.3156L109.488 28.3061C109.602 28.3056 109.702 28.3386 109.789 28.4049C109.876 28.4646 109.932 28.5444 109.96 28.6443C109.993 28.6175 110.029 28.5974 110.069 28.5839C110.116 28.5637 110.163 28.5536 110.209 28.5534L110.889 28.5509L110.887 28.0209C110.887 27.8875 110.93 27.784 111.016 27.7104C111.102 27.6301 111.209 27.5897 111.336 27.5892C111.456 27.5888 111.559 27.6284 111.646 27.7081C111.733 27.7877 111.777 27.8976 111.777 28.0376L111.779 28.5476L112.199 28.546C112.286 28.5457 112.363 28.5687 112.429 28.6152C112.496 28.6616 112.547 28.7214 112.58 28.7946C112.66 28.641 112.786 28.5638 112.959 28.5632L113.529 28.5611L113.527 28.0311C113.527 27.8911 113.57 27.7809 113.656 27.7006C113.742 27.6203 113.846 27.5799 113.966 27.5795C114.092 27.579 114.199 27.6186 114.286 27.6983C114.373 27.778 114.417 27.8878 114.417 28.0278L114.419 28.5578L115.339 28.5544C115.459 28.5539 115.559 28.5969 115.64 28.6833C115.727 28.7629 115.77 28.8594 115.771 28.9728C115.771 29.0861 115.728 29.1863 115.642 29.2733C115.562 29.3536 115.462 29.3939 115.342 29.3944L114.512 29.3974C114.626 29.5237 114.757 29.6632 114.904 29.816C115.058 29.9621 115.208 30.1049 115.356 30.2443C115.509 30.3771 115.643 30.4899 115.757 30.5828C115.857 30.6625 115.914 30.7656 115.928 30.8922C115.948 31.0188 115.912 31.1356 115.819 31.2426C115.733 31.3496 115.62 31.4067 115.48 31.4139C115.34 31.4144 115.22 31.3682 115.119 31.2752C115.019 31.1822 114.909 31.0693 114.788 30.9364C114.668 30.7969 114.547 30.654 114.426 30.5078L114.43 31.4978C114.431 31.6311 114.388 31.7379 114.301 31.8182C114.215 31.8986 114.108 31.939 113.982 31.9394C113.862 31.9399 113.758 31.9003 113.671 31.8206C113.584 31.7409 113.541 31.6344 113.54 31.5011L113.537 30.6411C113.338 30.9151 113.155 31.1458 112.99 31.3331C112.897 31.4335 112.783 31.4939 112.65 31.5144C112.517 31.5282 112.397 31.4886 112.29 31.3957C112.189 31.3027 112.142 31.1962 112.149 31.0762C112.155 30.9562 112.201 30.8527 112.287 30.7657L112.347 30.6955C112.187 30.7627 112.047 30.7433 111.927 30.637C111.907 30.6171 111.883 30.5972 111.857 30.5773C111.837 30.5574 111.813 30.5341 111.786 30.5076L111.79 31.5076C111.791 31.6409 111.748 31.7477 111.661 31.828C111.575 31.9084 111.472 31.9487 111.352 31.9492C111.225 31.9496 111.118 31.91 111.031 31.8304C110.944 31.7507 110.901 31.6409 110.9 31.5009L110.897 30.6409C110.698 30.9083 110.509 31.1356 110.329 31.323C110.237 31.4233 110.12 31.4771 109.98 31.4843C109.847 31.4914 109.733 31.4485 109.64 31.3555C109.553 31.2692 109.509 31.1693 109.508 31.056C109.508 30.936 109.551 30.8325 109.637 30.7455C109.81 30.5649 110.003 30.3508 110.215 30.1034C110.434 29.8492 110.616 29.6186 110.762 29.4113L110.212 29.4134C110.126 29.4137 110.046 29.3907 109.972 29.3443C109.905 29.2912 109.855 29.228 109.821 29.1548C109.735 29.2352 109.625 29.2756 109.492 29.2761L108.702 29.279C108.656 29.6058 108.594 29.9361 108.516 30.2697C108.443 30.5966 108.358 30.9203 108.259 31.2406C108.312 31.2338 108.372 31.2302 108.439 31.23C108.506 31.2231 108.576 31.2195 108.649 31.2192C109.122 31.2174 109.453 31.3062 109.64 31.4855C109.834 31.6581 109.932 31.9811 109.934 32.4544L109.94 34.2244C109.942 34.6978 109.847 35.0248 109.654 35.2055C109.468 35.3795 109.138 35.4674 108.665 35.4692ZM114.589 36.6872C113.783 36.6902 113.112 36.586 112.578 36.3747C112.044 36.1633 111.593 35.805 111.224 35.2997C110.933 35.7874 110.571 36.2188 110.139 36.5937C110.026 36.6875 109.896 36.7379 109.75 36.7452C109.603 36.759 109.473 36.7128 109.359 36.6066C109.252 36.4937 109.201 36.3638 109.208 36.2172C109.214 36.0771 109.27 35.9636 109.376 35.8765C109.742 35.5818 110.054 35.2307 110.312 34.8231C110.571 34.4088 110.763 33.988 110.888 33.5609C110.927 33.4074 111.013 33.3038 111.147 33.2499C111.28 33.1961 111.416 33.1956 111.557 33.2484C111.697 33.2946 111.787 33.3742 111.827 33.4874C111.875 33.5939 111.878 33.7139 111.839 33.8474C111.793 34.0342 111.734 34.2144 111.661 34.3881C111.862 34.6873 112.076 34.9298 112.304 35.1157L112.296 33.0657L110.596 33.072C110.469 33.0725 110.356 33.0262 110.255 32.9333C110.162 32.8336 110.115 32.7171 110.114 32.5838C110.114 32.4504 110.16 32.3369 110.253 32.2433C110.353 32.1496 110.466 32.1025 110.592 32.102L114.232 32.0885C114.799 32.0864 115.16 32.2251 115.314 32.5045C115.475 32.7839 115.433 33.1841 115.188 33.705C115.155 33.7851 115.099 33.852 115.019 33.9056C115.219 33.9715 115.32 34.1145 115.321 34.3345C115.321 34.4612 115.278 34.568 115.192 34.655C115.106 34.742 114.999 34.7857 114.872 34.7862L113.332 34.7919L113.335 35.5919C113.509 35.6312 113.696 35.6605 113.896 35.6798C114.096 35.6924 114.309 35.6982 114.536 35.6974C114.656 35.697 114.769 35.6965 114.876 35.6961C114.989 35.6957 115.099 35.692 115.206 35.6849C115.386 35.6709 115.536 35.7137 115.656 35.8133C115.776 35.9061 115.83 36.0293 115.818 36.1827C115.812 36.3627 115.749 36.4896 115.629 36.5634C115.516 36.6438 115.363 36.6843 115.169 36.6851L114.589 36.6872ZM108.641 34.4892C108.768 34.4888 108.854 34.4651 108.901 34.4183C108.947 34.3714 108.97 34.2847 108.97 34.158L108.964 32.528C108.963 32.4014 108.94 32.3148 108.893 32.2683C108.846 32.2218 108.759 32.1988 108.633 32.1993C108.513 32.1997 108.429 32.2233 108.383 32.2702C108.336 32.317 108.313 32.4038 108.314 32.5304L108.32 34.1604C108.32 34.2871 108.344 34.3737 108.391 34.4202C108.438 34.4667 108.521 34.4897 108.641 34.4892ZM112.606 30.4145C112.739 30.2607 112.875 30.0935 113.014 29.913C113.16 29.7258 113.286 29.5553 113.392 29.4016L112.962 29.4032C112.789 29.4038 112.662 29.3276 112.582 29.1746C112.509 29.3282 112.382 29.4053 112.202 29.406L111.782 29.4076L111.782 29.4276C111.849 29.4807 111.926 29.547 112.013 29.6267C112.107 29.6997 112.197 29.7727 112.284 29.8457C112.371 29.9121 112.434 29.9618 112.475 29.995C112.615 30.1078 112.659 30.2477 112.606 30.4145ZM113.329 33.8819L114.349 33.8781C114.195 33.7387 114.158 33.5721 114.237 33.3785C114.297 33.2449 114.313 33.1582 114.286 33.1183C114.259 33.0784 114.169 33.0587 114.016 33.0593L113.326 33.0619L113.329 33.8819ZM123.566 35.7439C123.113 35.7456 122.749 35.6903 122.475 35.578C122.202 35.459 122.004 35.2664 121.883 35.0002C121.762 34.7339 121.701 34.3775 121.699 33.9308L121.687 30.6609C121.685 30.2142 121.744 29.8573 121.863 29.5902C121.982 29.3231 122.178 29.1324 122.451 29.018C122.724 28.897 123.087 28.8357 123.54 28.834C124 28.8323 124.364 28.8909 124.631 29.0099C124.905 29.1223 125.102 29.3115 125.223 29.5777C125.344 29.844 125.405 30.2004 125.407 30.6471L125.419 33.9271C125.421 34.3737 125.362 34.7306 125.243 34.9977C125.124 35.2582 124.928 35.4489 124.655 35.5699C124.389 35.6842 124.026 35.7422 123.566 35.7439ZM117.459 36.5566C117.313 36.6438 117.153 36.6777 116.979 36.6584C116.806 36.639 116.672 36.5528 116.578 36.3998C116.491 36.2602 116.464 36.1169 116.497 35.9701C116.53 35.8233 116.619 35.7097 116.765 35.6291C117.318 35.3204 117.756 34.9388 118.081 34.4843C118.406 34.0297 118.601 33.4523 118.665 32.7521L117.295 32.7572C117.128 32.7578 116.991 32.7049 116.884 32.5987C116.784 32.4857 116.733 32.3526 116.733 32.1992C116.732 32.0459 116.782 31.9157 116.881 31.8087C116.988 31.695 117.124 31.6378 117.291 31.6372L118.681 31.632L118.675 30.132L118.135 30.134C118.049 30.2877 117.96 30.438 117.867 30.585C117.774 30.7254 117.684 30.8557 117.598 30.976C117.505 31.103 117.379 31.1868 117.219 31.2274C117.059 31.268 116.906 31.2419 116.759 31.1491C116.639 31.0762 116.558 30.9699 116.518 30.83C116.477 30.6835 116.5 30.5534 116.586 30.4398C116.852 30.0788 117.103 29.6778 117.342 29.237C117.587 28.7894 117.772 28.3654 117.897 27.9649C117.95 27.8114 118.046 27.701 118.186 27.6338C118.326 27.56 118.476 27.5494 118.636 27.6022C118.789 27.6482 118.9 27.7445 118.967 27.8909C119.034 28.0307 119.041 28.1773 118.988 28.3308C118.942 28.4444 118.893 28.5612 118.84 28.6814C118.794 28.8016 118.744 28.9184 118.691 29.032L120.671 29.0246C120.838 29.024 120.971 29.0768 121.072 29.1831C121.172 29.2894 121.222 29.4192 121.223 29.5726C121.224 29.7259 121.174 29.8561 121.075 29.9631C120.975 30.0702 120.842 30.124 120.675 30.1246L119.815 30.1278L119.821 31.6278L120.951 31.6236C121.124 31.623 121.261 31.6791 121.361 31.7921C121.462 31.8984 121.512 32.0282 121.513 32.1815C121.513 32.3349 121.464 32.4684 121.364 32.5821C121.265 32.6891 121.128 32.7429 120.955 32.7436L119.805 32.7479C119.805 32.7745 119.802 32.8045 119.795 32.8379C119.795 32.8646 119.792 32.8912 119.785 32.9179C119.92 33.1308 120.08 33.3668 120.268 33.6261C120.462 33.8788 120.66 34.128 120.861 34.374C121.062 34.6132 121.239 34.8159 121.393 34.982C121.514 35.1082 121.564 35.2514 121.545 35.4114C121.532 35.5648 121.462 35.6984 121.336 35.8122C121.203 35.9327 121.05 35.9866 120.877 35.9739C120.703 35.9679 120.56 35.8984 120.446 35.7655C120.299 35.5927 120.135 35.38 119.954 35.1273C119.773 34.8747 119.595 34.6153 119.421 34.3493C119.222 34.81 118.957 35.2243 118.625 35.5922C118.293 35.9601 117.905 36.2816 117.459 36.5566ZM123.562 34.6239C123.842 34.6229 124.025 34.5722 124.111 34.4719C124.204 34.3649 124.25 34.1681 124.249 33.8814L124.237 30.6914C124.236 30.3981 124.189 30.2016 124.095 30.1019C124.008 30.0023 123.824 29.9529 123.544 29.954C123.258 29.955 123.071 30.0057 122.985 30.106C122.899 30.2064 122.856 30.4032 122.857 30.6965L122.869 33.8765C122.87 34.1632 122.914 34.3597 123.001 34.466C123.088 34.5724 123.275 34.625 123.562 34.6239ZM132.399 36.5912C132.279 36.665 132.153 36.6888 132.019 36.6626C131.886 36.6431 131.779 36.5735 131.699 36.4538C131.632 36.3407 131.608 36.2241 131.627 36.1041C131.654 35.984 131.723 35.887 131.836 35.8133C131.889 35.7797 131.943 35.7462 131.996 35.7127C132.049 35.6792 132.099 35.6456 132.146 35.6121C131.959 35.6528 131.726 35.6737 131.446 35.6747C131.079 35.6761 130.792 35.6405 130.585 35.5679C130.378 35.4887 130.231 35.3559 130.144 35.1695C130.063 34.9832 130.022 34.7233 130.021 34.39L130.018 33.72C130.017 33.38 130.056 33.1165 130.136 32.9296C130.222 32.7426 130.368 32.612 130.574 32.5379C130.781 32.4638 131.067 32.4261 131.434 32.4247C131.8 32.4234 132.084 32.459 132.284 32.5316C132.491 32.6042 132.635 32.7336 132.716 32.92C132.803 33.1063 132.847 33.3695 132.848 33.7095L132.851 34.3795C132.852 34.6928 132.82 34.9396 132.754 35.1199C132.893 34.986 133.026 34.8522 133.152 34.7184C133.278 34.5846 133.401 34.4441 133.521 34.297C133.446 33.964 133.381 33.6109 133.327 33.2377C133.272 32.8579 133.227 32.4514 133.192 32.0182L129.932 32.0303C129.792 32.0308 129.679 31.9879 129.592 31.9016C129.511 31.8085 129.471 31.6987 129.471 31.572C129.47 31.4454 129.51 31.3385 129.589 31.2516C129.676 31.1579 129.789 31.1108 129.929 31.1103L130.479 31.1083C130.392 31.0619 130.328 30.9855 130.288 30.879C130.261 30.8124 130.221 30.7059 130.167 30.5594C130.113 30.413 130.069 30.3065 130.036 30.2399C129.989 30.1268 129.991 30.0201 130.044 29.9199C130.097 29.813 130.18 29.7394 130.294 29.699C130.407 29.6519 130.52 29.6514 130.634 29.6977C130.747 29.7439 130.827 29.8236 130.874 29.9368C130.901 30.0034 130.938 30.1066 130.986 30.2464C131.039 30.3862 131.08 30.4927 131.107 30.5659C131.154 30.6924 131.154 30.8024 131.108 30.8959C131.068 30.9894 130.995 31.0597 130.889 31.1068L131.349 31.1051C131.388 31.0116 131.438 30.8881 131.497 30.7345C131.557 30.5809 131.613 30.4274 131.666 30.2739C131.725 30.1203 131.768 30.0068 131.794 29.9334C131.841 29.7999 131.917 29.7096 132.023 29.6625C132.137 29.6155 132.257 29.6083 132.383 29.6412C132.504 29.6741 132.594 29.7471 132.654 29.8602C132.715 29.9667 132.718 30.0866 132.666 30.2202C132.633 30.307 132.58 30.4372 132.507 30.6108C132.434 30.7844 132.365 30.948 132.299 31.1015L133.129 31.0985C133.107 30.6319 133.092 30.1386 133.083 29.6186C133.075 29.092 133.069 28.5353 133.067 27.9487C133.067 27.7953 133.113 27.6785 133.206 27.5981C133.306 27.5178 133.425 27.4773 133.565 27.4768C133.699 27.4763 133.809 27.5192 133.896 27.6056C133.99 27.6919 134.037 27.8084 134.037 27.9551C134.039 28.5417 134.041 29.0984 134.043 29.6251C134.052 30.145 134.067 30.635 134.089 31.0949L135.359 31.0902C135.505 31.0896 135.619 31.1359 135.699 31.2289C135.78 31.3153 135.82 31.4218 135.82 31.5485C135.821 31.6751 135.781 31.7853 135.702 31.8789C135.622 31.9659 135.509 32.0096 135.362 32.0102L134.152 32.0147C134.187 32.4479 134.229 32.8411 134.277 33.1942C134.33 33.1007 134.383 33.0072 134.436 32.9136C134.488 32.8134 134.538 32.7132 134.584 32.6131C134.651 32.4795 134.744 32.3958 134.863 32.362C134.99 32.3216 135.113 32.3311 135.234 32.3907C135.354 32.4502 135.434 32.5399 135.475 32.6598C135.522 32.7796 135.512 32.9063 135.446 33.0399C135.32 33.287 135.181 33.5342 135.029 33.7814C134.883 34.022 134.724 34.2592 134.551 34.4932C134.599 34.633 134.646 34.7662 134.693 34.8927C134.74 35.0192 134.794 35.1423 134.854 35.2621C134.888 35.3286 134.921 35.3618 134.955 35.3617C134.995 35.3549 135.028 35.3148 135.054 35.2413C135.067 35.208 135.09 35.1379 135.123 35.0311C135.163 34.9243 135.186 34.8575 135.193 34.8308C135.226 34.7174 135.295 34.6405 135.402 34.6001C135.508 34.553 135.625 34.5526 135.752 34.5988C135.865 34.6317 135.949 34.6947 136.002 34.7878C136.063 34.8809 136.077 34.9942 136.044 35.1277C136.018 35.2611 135.965 35.4346 135.886 35.6483C135.813 35.8619 135.74 36.0488 135.668 36.2091C135.529 36.5363 135.33 36.707 135.07 36.7213C134.81 36.7423 134.573 36.5998 134.358 36.2939C134.264 36.1476 134.174 35.998 134.086 35.8449C134.006 35.6852 133.929 35.5189 133.855 35.3458C133.629 35.5933 133.393 35.8208 133.147 36.0284C132.901 36.236 132.652 36.4236 132.399 36.5912ZM128.169 36.5369C127.829 36.5381 127.559 36.4958 127.358 36.4099C127.165 36.3306 127.028 36.1811 126.947 35.9614C126.866 35.7417 126.825 35.4352 126.823 35.0419C126.822 34.6352 126.861 34.325 126.94 34.1114C127.019 33.8978 127.155 33.7506 127.348 33.6699C127.548 33.5825 127.818 33.5382 128.158 33.5369C128.504 33.5356 128.771 33.578 128.958 33.6639C129.152 33.7432 129.289 33.8894 129.37 34.1024C129.451 34.3154 129.492 34.6253 129.493 35.032C129.495 35.4253 129.456 35.7321 129.377 35.9524C129.298 36.1727 129.161 36.3232 128.968 36.4039C128.782 36.4913 128.516 36.5356 128.169 36.5369ZM126.786 30.252C126.646 30.2525 126.535 30.2096 126.455 30.1232C126.375 30.0301 126.334 29.9236 126.334 29.8036C126.333 29.677 126.373 29.5702 126.453 29.4832C126.532 29.3896 126.642 29.3425 126.782 29.342L129.382 29.3323C129.436 29.3321 129.482 29.3386 129.522 29.3518C129.562 29.365 129.599 29.3815 129.632 29.4014C129.612 29.3681 129.596 29.3315 129.582 29.2916C129.569 29.245 129.562 29.1983 129.562 29.1517C129.561 29.0317 129.601 28.9282 129.68 28.8412C129.76 28.7543 129.87 28.7105 130.01 28.71L130.8 28.7071L130.797 28.0471C130.797 27.8937 130.843 27.7736 130.936 27.6866C131.029 27.5929 131.152 27.5458 131.306 27.5452C131.459 27.5446 131.579 27.5908 131.666 27.6839C131.76 27.7702 131.807 27.89 131.807 28.0433L131.81 28.7033L132.52 28.7007C132.66 28.7002 132.77 28.7431 132.85 28.8295C132.931 28.9158 132.971 29.019 132.972 29.139C132.972 29.2657 132.932 29.3725 132.853 29.4595C132.773 29.5464 132.663 29.5902 132.523 29.5907L130.013 29.6C129.9 29.6004 129.816 29.5774 129.763 29.5309C129.81 29.6107 129.834 29.6973 129.834 29.7907C129.834 29.9107 129.795 30.0175 129.715 30.1111C129.635 30.1981 129.526 30.2418 129.386 30.2423L126.786 30.252ZM127.21 28.8704C127.07 28.8709 126.957 28.828 126.87 28.7416C126.79 28.6486 126.749 28.5388 126.749 28.4121C126.748 28.2788 126.788 28.1686 126.868 28.0816C126.954 27.988 127.067 27.9409 127.207 27.9404L129.017 27.9337C129.164 27.9331 129.277 27.9794 129.358 28.0724C129.438 28.1588 129.478 28.2686 129.479 28.402C129.479 28.5286 129.44 28.6388 129.36 28.7324C129.28 28.8194 129.167 28.8631 129.02 28.8637L127.21 28.8704ZM127.201 31.6404C127.061 31.641 126.951 31.598 126.87 31.5117C126.79 31.4186 126.75 31.3088 126.749 31.1821C126.749 31.0554 126.788 30.9486 126.868 30.8617C126.948 30.768 127.057 30.721 127.197 30.7204L129.037 30.7136C129.177 30.7131 129.288 30.7594 129.368 30.8524C129.448 30.9388 129.489 31.0453 129.489 31.1719C129.49 31.2986 129.45 31.4088 129.37 31.5024C129.291 31.5894 129.181 31.6331 129.041 31.6336L127.201 31.6404ZM127.206 33.0204C127.066 33.0209 126.956 32.978 126.875 32.8916C126.795 32.7986 126.755 32.6921 126.754 32.5721C126.754 32.4454 126.793 32.3386 126.873 32.2517C126.953 32.158 127.063 32.1109 127.203 32.1104L129.042 32.1036C129.182 32.1031 129.293 32.1493 129.373 32.2424C129.453 32.3288 129.494 32.4353 129.494 32.5619C129.495 32.6819 129.455 32.7888 129.375 32.8824C129.296 32.9693 129.186 33.0131 129.046 33.0136L127.206 33.0204ZM135.326 30.4703C135.207 30.5308 135.083 30.5445 134.957 30.5117C134.837 30.4788 134.746 30.3991 134.686 30.2727C134.659 30.2128 134.615 30.1296 134.555 30.0232C134.494 29.9167 134.431 29.807 134.364 29.6939C134.303 29.5808 134.246 29.4843 134.193 29.4045C134.132 29.2914 134.118 29.1748 134.151 29.0547C134.191 28.9278 134.267 28.8342 134.38 28.7738C134.5 28.72 134.62 28.7096 134.74 28.7425C134.867 28.7687 134.964 28.8383 135.031 28.9514C135.105 29.0711 135.192 29.2241 135.293 29.4104C135.4 29.59 135.48 29.7331 135.534 29.8395C135.608 29.9726 135.618 30.0959 135.566 30.2094C135.519 30.3229 135.44 30.4099 135.326 30.4703ZM128.165 35.6069C128.332 35.6063 128.439 35.5725 128.485 35.5057C128.538 35.4322 128.564 35.2754 128.563 35.0354C128.562 34.8021 128.535 34.6488 128.482 34.5757C128.435 34.5025 128.328 34.4663 128.161 34.4669C127.995 34.4675 127.885 34.5046 127.832 34.5781C127.785 34.6516 127.762 34.805 127.763 35.0384C127.764 35.2784 127.788 35.4349 127.835 35.5081C127.889 35.5746 127.999 35.6075 128.165 35.6069ZM131.443 34.8847C131.616 34.8841 131.733 34.8603 131.793 34.8134C131.852 34.7665 131.882 34.6298 131.881 34.4031L130.991 34.4064C130.992 34.6331 131.022 34.7696 131.083 34.8161C131.149 34.8625 131.269 34.8854 131.443 34.8847ZM130.988 33.6764L131.878 33.6731C131.878 33.4598 131.847 33.3299 131.787 33.2834C131.727 33.237 131.61 33.2141 131.437 33.2147C131.263 33.2154 131.147 33.2392 131.087 33.286C131.027 33.3329 130.994 33.4631 130.988 33.6764Z" fill="#FE585B"/>
<path d="M34.1478 58.9693C32.8892 58.9739 31.8222 58.8819 30.9468 58.6931C30.0714 58.5044 29.3396 58.2084 28.7515 57.8053C28.1633 57.3914 27.6547 56.8707 27.2257 56.2429C26.6422 57.1091 26.0264 57.8847 25.3783 58.5698C25.1764 58.7732 24.9368 58.8914 24.6596 58.9244C24.3824 58.9575 24.1261 58.8731 23.8906 58.6713C23.6766 58.4908 23.5691 58.2671 23.5682 58.0005C23.5779 57.7444 23.6731 57.5254 23.8537 57.3434C24.5445 56.6582 25.1445 55.9253 25.6536 55.1447C26.1734 54.3641 26.5863 53.5466 26.8925 52.6921C27.0088 52.4037 27.1894 52.2057 27.4343 52.0981C27.6792 51.9905 27.9352 51.9843 28.2022 52.0793C28.4693 52.1849 28.6566 52.3549 28.7641 52.5892C28.8716 52.8128 28.8725 53.0581 28.7669 53.3252C28.6823 53.5282 28.5924 53.7418 28.4972 53.9662C28.402 54.1799 28.2962 54.3936 28.1796 54.6074C28.6307 55.4484 29.2624 56.07 30.0745 56.4724L30.0544 51.0484L27.0625 51.0595C26.8065 51.0604 26.5981 50.9759 26.4375 50.8058C26.2875 50.6357 26.2121 50.4333 26.2113 50.1986C26.2104 49.964 26.2843 49.7664 26.4331 49.6058C26.5924 49.4345 26.8001 49.3484 27.0561 49.3475L34.9281 49.3183C35.1841 49.3174 35.387 49.402 35.537 49.5721C35.6976 49.7315 35.7783 49.9285 35.7792 50.1632C35.7801 50.3978 35.7008 50.6008 35.5415 50.7721C35.3928 50.9433 35.1904 51.0294 34.9344 51.0303L32.0544 51.041L32.0612 52.881L35.6772 52.8676C35.9439 52.8666 36.1522 52.9511 36.3022 53.1213C36.4628 53.2807 36.5435 53.483 36.5444 53.7284C36.5453 53.963 36.4661 54.1713 36.3067 54.3532C36.158 54.5245 35.9503 54.6106 35.6837 54.6116L32.0677 54.625L32.0767 57.0409C32.3862 57.0825 32.7116 57.1133 33.053 57.1333C33.3944 57.1534 33.7571 57.1627 34.1411 57.1613C34.6638 57.1594 35.1918 57.1521 35.7251 57.1394C36.269 57.1267 36.8022 57.0981 37.3247 57.0535C37.634 57.031 37.9009 57.0994 38.1255 57.2585C38.3501 57.407 38.4629 57.6413 38.4641 57.9613C38.4653 58.2813 38.3649 58.5216 38.1628 58.6824C37.9608 58.8538 37.6997 58.9401 37.3797 58.9413C37.0597 58.9425 36.6971 58.9438 36.2918 58.9453C35.8971 58.9575 35.5078 58.9642 35.1238 58.9657C34.7505 58.967 34.4252 58.9682 34.1478 58.9693ZM24.9162 50.4434C24.6495 50.4444 24.4199 50.3653 24.2273 50.206C24.0453 50.036 23.9538 49.807 23.9527 49.519L23.9504 48.879C23.9472 48.0257 24.1529 47.4169 24.5676 47.0527C24.9822 46.6778 25.6908 46.4885 26.6935 46.4848L29.8935 46.473L29.8891 45.289C29.8879 44.9796 29.9884 44.7393 30.1904 44.5678C30.3924 44.3858 30.6374 44.2942 30.9254 44.2931C31.2241 44.292 31.4751 44.3817 31.6784 44.5623C31.8817 44.7322 31.9839 44.9719 31.9851 45.2812L31.9895 46.4652L35.2694 46.453C36.2721 46.4493 36.9768 46.6334 37.3835 47.0052C37.8008 47.3663 38.0111 47.9735 38.0143 48.8269L38.0166 49.4669C38.0177 49.7549 37.9279 49.9845 37.7472 50.1559C37.5664 50.3165 37.3427 50.3974 37.0761 50.3984C36.8094 50.3994 36.5798 50.3255 36.3873 50.1769C36.2053 50.0176 36.1138 49.7939 36.1128 49.5059L36.1105 48.8979C36.1094 48.5886 36.0286 48.3702 35.8681 48.2428C35.7183 48.1154 35.4407 48.0524 35.0354 48.0539L26.9234 48.084C26.5288 48.0854 26.2517 48.1505 26.0921 48.2791C25.9433 48.4076 25.8694 48.6266 25.8706 48.9359L25.8728 49.5439C25.8739 49.8319 25.7787 50.0562 25.5873 50.2169C25.4065 50.367 25.1828 50.4424 24.9162 50.4434ZM42.5654 59.3861C42.3201 59.387 42.1118 59.3184 41.9407 59.1804C41.7695 59.053 41.6728 58.8561 41.6505 58.5895C41.6282 58.3442 41.6968 58.1306 41.8561 57.9487C42.0155 57.7774 42.2285 57.686 42.4951 57.6743C42.8363 57.6517 43.0548 57.5976 43.1505 57.5119C43.2462 57.4262 43.2936 57.2714 43.2928 57.0474L43.292 56.8394C42.8335 56.8944 42.3804 56.9494 41.9326 57.0044C41.4848 57.0487 41.0796 57.0929 40.7171 57.1369C40.1626 57.1923 39.8577 56.9534 39.8024 56.4203C39.791 56.2177 39.849 56.0415 39.9765 55.8917C40.1039 55.7418 40.3009 55.6558 40.5675 55.6335C40.9301 55.6108 41.3513 55.5772 41.8311 55.5328C42.311 55.4883 42.7962 55.4439 43.2867 55.3994L43.2839 54.6634L40.3879 54.6741C40.1853 54.6749 40.0144 54.6062 39.8752 54.468C39.736 54.3299 39.666 54.1595 39.6653 53.9568C39.6645 53.7541 39.7332 53.5832 39.8714 53.444C40.0095 53.3048 40.1799 53.2349 40.3826 53.2341L43.2786 53.2234L43.2769 52.7594C42.925 52.7927 42.5678 52.8207 42.2052 52.8434C41.8426 52.866 41.48 52.8834 41.1174 52.8954C40.8934 52.8962 40.7065 52.8543 40.5569 52.7695C40.4179 52.6847 40.3373 52.525 40.3151 52.2904C40.3038 52.1091 40.3565 51.9542 40.4734 51.8258C40.5902 51.6973 40.766 51.6274 41.0006 51.6158C41.8005 51.5915 42.6377 51.5404 43.5121 51.4625C44.3864 51.3846 45.1594 51.2804 45.8309 51.1499C46.0334 51.1065 46.2094 51.1112 46.359 51.164C46.5192 51.2167 46.6316 51.3336 46.6963 51.5147C46.7717 51.7171 46.7617 51.8985 46.6663 52.0588C46.5816 52.2191 46.4326 52.321 46.2194 52.3645C46.0382 52.3972 45.8463 52.4299 45.6438 52.4626C45.4519 52.4953 45.2547 52.5281 45.0521 52.5608L45.0546 53.2168L47.7266 53.2069C47.672 52.8764 47.6281 52.5406 47.5948 52.1994C47.5615 51.8475 47.5442 51.4849 47.5428 51.1116L40.3108 51.1384C40.1188 51.1391 39.9533 51.0704 39.8141 50.9322C39.6856 50.794 39.6209 50.6289 39.6202 50.4369C39.6195 50.2449 39.6829 50.0847 39.8105 49.9562C39.9486 49.817 40.1137 49.7471 40.3057 49.7464L46.0016 49.7253L45.9994 49.1173L42.2074 49.1313C42.0261 49.132 41.8658 49.0686 41.7267 48.9411C41.5982 48.8029 41.5336 48.6432 41.5329 48.4618C41.5323 48.2805 41.5957 48.1256 41.7232 47.9971C41.8614 47.8579 42.0211 47.788 42.2024 47.7873L45.9944 47.7733L45.9922 47.1813L40.7122 47.2009C40.5203 47.2016 40.3547 47.1382 40.2155 47.0107C40.087 46.8725 40.0224 46.7128 40.0218 46.5314C40.0211 46.3394 40.0845 46.1792 40.212 46.0507C40.3501 45.9115 40.5152 45.8416 40.7072 45.8409L43.6192 45.8301C43.5655 45.7236 43.5064 45.6278 43.4421 45.5427C43.3884 45.4469 43.3455 45.3778 43.3134 45.3352C43.1953 45.1543 43.1519 44.9518 43.1831 44.7277C43.2143 44.5036 43.3416 44.3271 43.5651 44.1983C43.778 44.0801 44.0019 44.0366 44.2367 44.0678C44.4714 44.0989 44.6586 44.2209 44.798 44.4337C44.8516 44.5082 44.9268 44.6359 45.0234 44.8169C45.1307 44.9871 45.2381 45.1681 45.3455 45.3597C45.4635 45.5406 45.56 45.6949 45.6352 45.8226L48.1472 45.8133C48.2213 45.685 48.3114 45.53 48.4174 45.3483C48.5234 45.1559 48.6241 44.9742 48.7194 44.8032C48.8148 44.6321 48.8837 44.5092 48.9261 44.4344C49.0639 44.2099 49.2554 44.0812 49.5006 44.0483C49.7458 44.0154 49.97 44.0572 50.1731 44.1738C50.4082 44.3009 50.5529 44.4764 50.607 44.7002C50.6612 44.924 50.6299 45.1214 50.5132 45.2925C50.4708 45.3567 50.4178 45.4369 50.3541 45.5331C50.3011 45.6186 50.2428 45.7095 50.1791 45.8058L53.2671 45.7943C53.4485 45.7936 53.6034 45.8624 53.7319 46.0006C53.871 46.1281 53.941 46.2878 53.9417 46.4798C53.9423 46.6612 53.8736 46.8214 53.7354 46.9606C53.6079 47.0891 53.4535 47.1536 53.2722 47.1543L47.9602 47.174L47.9624 47.766L51.7064 47.7521C51.8877 47.7514 52.0426 47.8202 52.1711 47.9584C52.2996 48.0859 52.3642 48.2403 52.3649 48.4217C52.3655 48.603 52.3021 48.7633 52.1746 48.9024C52.0471 49.0309 51.8927 49.0954 51.7114 49.0961L47.9674 49.11L47.9696 49.718L53.6496 49.6969C53.8416 49.6962 54.0018 49.765 54.1304 49.9031C54.2695 50.0306 54.3394 50.1904 54.3401 50.3824C54.3408 50.5744 54.2721 50.74 54.134 50.8791C54.0065 51.0183 53.8467 51.0882 53.6548 51.0889L51.1268 51.0983C51.1908 51.1087 51.2603 51.1458 51.3352 51.2095C51.4849 51.3263 51.6615 51.4696 51.8648 51.6396C52.0681 51.8095 52.2339 51.9529 52.3624 52.0697C52.5122 52.2078 52.5929 52.3782 52.6043 52.5808C52.6157 52.7834 52.547 52.9597 52.3982 53.1096L52.3185 53.1899L53.6305 53.185C53.8332 53.1843 54.0041 53.253 54.1433 53.3911C54.2825 53.5293 54.3524 53.6997 54.3532 53.9023C54.3539 54.105 54.2852 54.2759 54.1471 54.4151C54.0089 54.5543 53.8385 54.6243 53.6359 54.625L52.0519 54.6309C52.1373 54.6626 52.2175 54.7209 52.2925 54.806C52.4425 54.9761 52.5125 55.1678 52.5027 55.3812C52.4928 55.5946 52.4081 55.7762 52.2487 55.9262C51.919 56.2047 51.5734 56.4727 51.2116 56.73C51.2973 56.8257 51.3883 56.916 51.4846 57.001C51.5916 57.0753 51.6985 57.1495 51.8055 57.2238C52.0193 57.3617 52.1795 57.4144 52.2861 57.382C52.4033 57.3496 52.5148 57.2319 52.6208 57.0288C52.7055 56.8791 52.7797 56.7402 52.8432 56.612C52.9174 56.4837 52.981 56.3661 53.0339 56.2593C53.1504 56.0242 53.3205 55.8795 53.5443 55.8254C53.7788 55.7712 54.0029 55.8023 54.2167 55.9189C54.4197 56.0248 54.5483 56.1896 54.6025 56.4134C54.6567 56.6372 54.6255 56.856 54.5089 57.0698C54.456 57.1873 54.3819 57.3423 54.2866 57.5346C54.1913 57.7163 54.0906 57.8927 53.9846 58.0637C53.5818 58.7586 53.1299 59.1443 52.6289 59.2208C52.1279 59.308 51.5512 59.1341 50.8989 58.6992C50.4712 58.4128 50.0753 58.0676 49.7111 57.6636C48.7956 58.1576 47.853 58.5505 46.8834 58.8421C46.2547 59.0151 45.8489 58.8726 45.6658 58.4146C45.5796 58.1802 45.5842 57.9615 45.6794 57.7585C45.7746 57.5448 45.9554 57.4002 46.2218 57.3245C47.1063 57.0866 47.9531 56.7581 48.7622 56.3391C48.6226 56.0836 48.4936 55.8174 48.3752 55.5405C48.2568 55.253 48.149 54.9547 48.0519 54.6457L45.0599 54.6568L45.062 55.2168C45.3499 55.1837 45.6217 55.1507 45.8776 55.1178C46.1335 55.0848 46.3574 55.0573 46.5493 55.0353C46.7306 55.0133 46.8908 55.0607 47.0299 55.1775C47.1796 55.2836 47.2655 55.4273 47.2875 55.6086C47.3095 55.8111 47.2622 55.982 47.1454 56.1211C47.0392 56.2601 46.8795 56.3461 46.6663 56.3789C46.4424 56.4117 46.1919 56.45 45.9147 56.4936C45.6482 56.5266 45.3657 56.565 45.0672 56.6088L45.0696 57.2648C45.0725 58.0648 44.8719 58.6149 44.4677 58.915C44.0635 59.2259 43.4294 59.3829 42.5654 59.3861ZM49.4225 53.2006L51.4065 53.1933C51.3958 53.172 51.3797 53.156 51.3584 53.1454C51.3477 53.1348 51.3316 53.1242 51.3102 53.1136L50.347 52.2532C50.2079 52.1364 50.1327 51.982 50.1213 51.79C50.1099 51.5981 50.168 51.4325 50.2955 51.2934C50.3805 51.1971 50.4656 51.1327 50.5508 51.1004L49.2228 51.1053C49.2256 51.8627 49.2922 52.5611 49.4225 53.2006ZM50.215 55.4697C50.3746 55.3624 50.5288 55.2552 50.6778 55.148C50.8267 55.0301 50.9702 54.9122 51.1085 54.7944C51.2042 54.7194 51.2947 54.6657 51.3799 54.6334L49.8279 54.6391C49.8817 54.7776 49.9409 54.9214 50.0055 55.0705C50.07 55.2089 50.1398 55.342 50.215 55.4697ZM63.527 51.1323C62.631 51.1356 62.0171 50.9833 61.6853 50.6752C61.3535 50.367 61.1862 49.8343 61.1833 49.077C61.1805 48.309 61.3439 47.7751 61.6734 47.4752C62.0029 47.1646 62.6157 47.0077 63.5117 47.0044L63.6237 47.0039L63.6207 46.2039L61.3327 46.2124C61.1407 46.2131 60.9752 46.1498 60.836 46.0223C60.7075 45.8841 60.6429 45.719 60.6422 45.527C60.6415 45.335 60.7049 45.1747 60.8324 45.0463C60.9706 44.9071 61.1356 44.8371 61.3276 44.8364L69.8076 44.805C69.9996 44.8043 70.1652 44.873 70.3043 45.0112C70.4435 45.1386 70.5134 45.2984 70.5141 45.4904C70.5148 45.6824 70.4461 45.848 70.308 45.9872C70.1698 46.1157 70.0047 46.1803 69.8127 46.181L67.4607 46.1897L67.4637 46.9897L67.6396 46.9891C68.5356 46.9857 69.1495 47.1381 69.4814 47.4462C69.8131 47.7437 69.9804 48.2764 69.9833 49.0444C69.9861 49.8017 69.8227 50.3357 69.4932 50.6462C69.1637 50.9568 68.5509 51.1137 67.655 51.117L63.527 51.1323ZM58.5329 59.2149C58.2982 59.2158 58.1006 59.1418 57.9401 58.9931C57.7902 58.8443 57.7148 58.6473 57.7139 58.4019L57.6938 52.978C57.535 53.3092 57.3815 53.6245 57.2333 53.9237C57.085 54.2122 56.9419 54.4634 56.8041 54.6773C56.6875 54.8804 56.512 55.009 56.2775 55.0632C56.043 55.1068 55.8295 55.0649 55.637 54.9376C55.4446 54.821 55.332 54.6614 55.2993 54.4588C55.2771 54.2456 55.319 54.0428 55.425 53.8504C55.6053 53.5617 55.8013 53.2143 56.0131 52.8082C56.2356 52.402 56.4527 51.9799 56.6644 51.5418C56.8761 51.093 57.0719 50.6603 57.2516 50.2436C57.4314 49.8269 57.5741 49.4584 57.6795 49.138L57.6788 48.946L56.1428 48.9517C55.9402 48.9524 55.7586 48.8784 55.598 48.7297C55.4481 48.5703 55.3728 48.3892 55.372 48.1865C55.3712 47.9732 55.4452 47.7916 55.594 47.6417C55.7534 47.4918 55.9345 47.4164 56.1372 47.4157L57.6731 47.41L57.6644 45.058C57.6635 44.8127 57.7374 44.6151 57.8862 44.4652C58.0457 44.3153 58.2427 44.2399 58.4774 44.239C58.7014 44.2382 58.8937 44.3121 59.0542 44.4609C59.2148 44.6096 59.2955 44.8066 59.2964 45.052L59.3051 47.404L60.3611 47.4C60.5745 47.3992 60.7561 47.4732 60.9059 47.622C61.0558 47.7708 61.1312 47.9519 61.132 48.1652C61.1327 48.3678 61.0587 48.5495 60.91 48.71C60.7612 48.8599 60.5801 48.9352 60.3668 48.936L59.3108 48.9399L59.3139 49.7719C59.4104 49.8996 59.5444 50.0751 59.7159 50.2984C59.8873 50.5111 60.0642 50.7398 60.2464 50.9845C60.4393 51.2184 60.6214 51.4418 60.7929 51.6545C60.9643 51.8565 61.1036 52.016 61.2107 52.1329C61.3606 52.2924 61.42 52.4788 61.3887 52.6923C61.3575 52.895 61.2622 53.0714 61.1027 53.2213C60.9326 53.3713 60.7355 53.436 60.5114 53.4155C60.298 53.395 60.1217 53.2996 59.9824 53.1295C59.9073 53.0124 59.8107 52.8741 59.6928 52.7145C59.5749 52.555 59.4516 52.3848 59.3229 52.2039L59.3459 58.3959C59.3468 58.6412 59.2675 58.8388 59.1081 58.9888C58.9486 59.1387 58.7569 59.2141 58.5329 59.2149ZM64.2604 59.0817C64.0151 59.0826 63.8122 59.014 63.6517 58.8759C63.5019 58.7485 63.4212 58.5621 63.4096 58.3168C63.3982 58.1035 63.4615 57.9166 63.5995 57.7561C63.7376 57.5956 63.9186 57.5043 64.1425 57.4821C64.3984 57.4598 64.5636 57.4165 64.638 57.3523C64.7231 57.2773 64.7652 57.1224 64.7643 56.8878L64.7575 55.0478L61.3975 55.0602C61.2162 55.0609 61.0559 54.9922 60.9168 54.854C60.7882 54.7158 60.7236 54.5561 60.723 54.3747C60.7223 54.1827 60.7857 54.0225 60.9132 53.894C61.0513 53.7549 61.2111 53.6849 61.3924 53.6843L69.7924 53.6531C69.9737 53.6525 70.1286 53.7212 70.2571 53.8594C70.3963 53.9869 70.4662 54.1466 70.4669 54.3386C70.4676 54.52 70.3988 54.6802 70.2607 54.8194C70.1332 54.9585 69.9788 55.0284 69.7975 55.0291L66.4375 55.0416L66.4452 57.1216C66.4478 57.8362 66.279 58.3382 65.9388 58.6274C65.6092 58.9273 65.0498 59.0787 64.2604 59.0817ZM62.1902 53.0733C62.0088 53.074 61.8486 53.0052 61.7094 52.8671C61.5809 52.7289 61.5163 52.5691 61.5156 52.3878C61.5149 52.2065 61.5784 52.0516 61.7059 51.9231C61.844 51.7839 62.0038 51.714 62.1851 51.7133L68.9051 51.6884C69.0864 51.6877 69.2413 51.7565 69.3698 51.8947C69.509 52.0222 69.5789 52.1766 69.5796 52.3579C69.5802 52.5392 69.5115 52.6995 69.3733 52.8387C69.2459 52.9778 69.0915 53.0477 68.9101 53.0484L62.1902 53.0733ZM69.1533 58.2315C68.9822 58.1148 68.7737 57.9609 68.5276 57.7698C68.2923 57.5894 68.0515 57.3929 67.8054 57.1805C67.57 56.968 67.3613 56.7768 67.1793 56.6068C67.0294 56.458 66.9487 56.277 66.9373 56.0637C66.9365 55.8397 67.0104 55.6528 67.1592 55.5029C67.3079 55.3423 67.4836 55.251 67.6862 55.2289C67.8994 55.2068 68.0917 55.2701 68.2629 55.4188C68.4127 55.5356 68.6052 55.6895 68.8406 55.8807C69.076 56.0718 69.3113 56.2576 69.5467 56.4381C69.7927 56.6185 69.9959 56.7617 70.1563 56.8678C70.3381 56.9845 70.44 57.1547 70.4622 57.3787C70.495 57.5919 70.453 57.7894 70.3364 57.9711C70.2091 58.1743 70.0336 58.2976 69.8097 58.3411C69.5859 58.3953 69.3671 58.3587 69.1533 58.2315ZM61.8413 58.2266C61.6391 58.366 61.4206 58.4149 61.1858 58.3731C60.951 58.3419 60.7586 58.2253 60.6085 58.0232C60.4905 57.8423 60.4471 57.6451 60.4783 57.4317C60.5201 57.2075 60.6315 57.0364 60.8124 56.9184C60.972 56.8112 61.1688 56.6718 61.4029 56.5002C61.6369 56.318 61.8708 56.1305 62.1048 55.9376C62.3387 55.7448 62.5301 55.5787 62.6789 55.4395C62.8384 55.2896 63.0301 55.2249 63.2542 55.2454C63.4783 55.2659 63.66 55.3559 63.7992 55.5153C63.9492 55.6855 64.0246 55.8772 64.0254 56.0905C64.0261 56.2932 63.9468 56.4695 63.7873 56.6194C63.6492 56.7586 63.4631 56.9299 63.2292 57.1335C62.9953 57.3263 62.7507 57.5246 62.4954 57.7282C62.2508 57.9211 62.0327 58.0872 61.8413 58.2266ZM65.1061 49.8145L66.0021 49.8111L65.9965 48.3072L65.1005 48.3105L65.1061 49.8145ZM67.4741 49.8057L67.6341 49.8051C67.9648 49.8039 68.1832 49.7497 68.2895 49.6427C68.3958 49.5356 68.4484 49.3381 68.4473 49.0501C68.4462 48.7514 68.3921 48.5543 68.2851 48.4587C68.178 48.3524 67.9592 48.2999 67.6285 48.3011L67.4685 48.3017L67.4741 49.8057ZM63.5541 49.8202L63.6341 49.8199L63.6285 48.3159L63.5485 48.3162C63.2179 48.3175 62.9941 48.3716 62.8771 48.4787C62.7708 48.5751 62.7182 48.7726 62.7193 49.0713C62.7204 49.3593 62.7745 49.5564 62.8815 49.6627C62.9993 49.7689 63.2235 49.8214 63.5541 49.8202ZM65.0957 46.9985L65.9917 46.9952L65.9887 46.1952L65.0927 46.1985L65.0957 46.9985ZM80.252 56.7824C80.0499 56.9218 79.8155 56.9867 79.5488 56.977C79.282 56.9673 79.0736 56.8561 78.9235 56.6433C78.8055 56.4517 78.762 56.2492 78.7933 56.0358C78.8351 55.8116 78.9571 55.6405 79.1594 55.5224C79.2871 55.4473 79.4467 55.3453 79.6382 55.2166C79.8404 55.0879 80.0373 54.9538 80.2287 54.8144C80.4309 54.675 80.5905 54.5624 80.7075 54.4767C80.8883 54.3373 81.0854 54.2779 81.2988 54.2985C80.5839 54.2158 80.0978 54.0096 79.8405 53.6799C79.5833 53.3395 79.4533 52.812 79.4507 52.0973L79.4403 49.3133C79.4377 48.5987 79.5638 48.0755 79.8185 47.7439C80.0733 47.4016 80.5578 47.1918 81.2722 47.1145C81.3143 46.965 81.3564 46.8102 81.3985 46.6501C81.4512 46.4792 81.4986 46.3297 81.5408 46.2015L79.3168 46.2098C79.1142 46.2105 78.9433 46.1418 78.8041 46.0037C78.6649 45.8655 78.5949 45.6951 78.5942 45.4924C78.5934 45.2898 78.6621 45.1189 78.8003 44.9797C78.9384 44.8405 79.1088 44.7705 79.3115 44.7698L85.5835 44.7465C85.7861 44.7458 85.957 44.8145 86.0962 44.9526C86.2354 45.0908 86.3054 45.2612 86.3061 45.4639C86.3069 45.6665 86.2382 45.8374 86.1 45.9766C85.9619 46.1158 85.7915 46.1858 85.5888 46.1865L83.3488 46.1948C83.3066 46.3123 83.2591 46.4565 83.2064 46.6274C83.1537 46.7876 83.1009 46.9317 83.048 47.0599C83.7307 47.0681 84.2537 47.1461 84.6169 47.2941C84.9801 47.4421 85.2317 47.6759 85.3715 47.9953C85.522 48.3148 85.5983 48.7465 85.6003 49.2905L85.6106 52.0745C85.6132 52.7678 85.4978 53.2856 85.2644 53.6278C85.031 53.97 84.5731 54.185 83.8908 54.2729C84.0402 54.2936 84.1684 54.3465 84.2754 54.4314C84.4037 54.5163 84.5641 54.6224 84.7565 54.7497C84.949 54.877 85.1415 55.0042 85.334 55.1315C85.5371 55.2588 85.7028 55.3648 85.8311 55.4497C86.0235 55.5556 86.1415 55.7205 86.185 55.9444C86.2285 56.1682 86.1919 56.3764 86.0753 56.5688C85.9374 56.7933 85.7352 56.9114 85.4686 56.923C85.2126 56.9347 84.9777 56.8715 84.7639 56.7337C84.6356 56.6488 84.4752 56.5427 84.2827 56.4154C84.0902 56.2881 83.8977 56.1555 83.7052 56.0176C83.5127 55.8796 83.3576 55.7629 83.2399 55.6673C83.0687 55.5186 82.972 55.3323 82.9499 55.1084C82.9384 54.8844 83.0016 54.6922 83.1397 54.5317C83.2354 54.4353 83.3471 54.3602 83.4749 54.3064C83.3896 54.3174 83.2936 54.3231 83.1869 54.3235C83.0909 54.3238 82.9896 54.3242 82.8829 54.3246L82.2109 54.3271C82.051 54.3277 81.8963 54.3283 81.747 54.3288C81.6082 54.3187 81.4802 54.3085 81.3628 54.2982C81.555 54.3295 81.7153 54.4249 81.8439 54.5845C81.9832 54.7546 82.0479 54.9464 82.038 55.1597C82.0282 55.3731 81.9382 55.5548 81.7681 55.7047C81.6511 55.8012 81.4968 55.9191 81.3054 56.0585C81.1245 56.1871 80.9383 56.3212 80.7468 56.4605C80.5553 56.5892 80.3904 56.6965 80.252 56.7824ZM80.9153 58.7319C79.8059 58.736 78.819 58.6597 77.9544 58.5029C77.0898 58.3568 76.3156 58.1143 75.6317 57.7755C74.9478 57.4367 74.3221 56.9964 73.7548 56.4545C73.5333 57.1379 73.285 57.7629 73.0097 58.3292C72.9038 58.543 72.7337 58.6876 72.4993 58.7631C72.2756 58.8493 72.0516 58.8448 71.8273 58.7496C71.6136 58.6544 71.4743 58.5003 71.4096 58.2872C71.3448 58.0847 71.3654 57.882 71.4713 57.6789C71.6725 57.2835 71.8575 56.8402 72.0264 56.3489C72.2059 55.8575 72.364 55.3609 72.5009 54.8591C72.6376 54.3466 72.7372 53.8769 72.7996 53.45C72.8307 53.2045 72.9367 53.0281 73.1177 52.9208C73.3093 52.8134 73.5118 52.77 73.7252 52.7905C73.96 52.8217 74.1417 52.917 74.2703 53.0765C74.3989 53.236 74.4476 53.4279 74.4164 53.652C74.3958 53.8441 74.3645 54.0362 74.3225 54.2283C74.2912 54.4205 74.2546 54.6179 74.2127 54.8207C74.3306 54.959 74.4537 55.0919 74.5822 55.2194C74.7213 55.3362 74.8604 55.453 74.9995 55.5698L74.9875 52.3219L72.3955 52.3315C72.1928 52.3322 72.0165 52.2582 71.8667 52.1094C71.7168 51.9606 71.6414 51.7796 71.6406 51.5663C71.6399 51.3529 71.7139 51.1766 71.8627 51.0374C72.0115 50.8875 72.1872 50.8122 72.3899 50.8115L78.3098 50.7895C78.5231 50.7887 78.7048 50.8627 78.8546 51.0115C79.0045 51.1496 79.0798 51.3253 79.0806 51.5387C79.0814 51.752 79.0074 51.9336 78.8586 52.0835C78.7098 52.2334 78.5288 52.3087 78.3154 52.3095L76.6355 52.3157L76.6397 53.4517L78.1117 53.4463C78.3143 53.4455 78.4853 53.5196 78.6245 53.6684C78.7743 53.8065 78.8496 53.9769 78.8504 54.1796C78.8511 54.3822 78.7771 54.5585 78.6283 54.7084C78.4902 54.8582 78.3198 54.9335 78.1172 54.9343L76.6452 54.9397L76.651 56.5077C77.7085 56.9091 79.1279 57.1065 80.9092 57.0999C81.2185 57.0988 81.5865 57.0974 82.0132 57.0958C82.4505 57.0942 82.8932 57.0926 83.3412 57.0909C83.7998 57.0786 84.2158 57.0664 84.5891 57.0543C84.973 57.0422 85.261 57.0305 85.453 57.0191C85.7302 57.0074 85.9598 57.0706 86.1417 57.2085C86.3235 57.3465 86.4043 57.5649 86.3841 57.8637C86.3542 58.4291 85.9979 58.7131 85.3152 58.7156L80.9153 58.7319ZM75.3314 50.1446C74.6381 50.1471 74.0885 50.0798 73.6826 49.9427C73.2874 49.7948 73.0039 49.5559 72.832 49.2258C72.6708 48.8958 72.5891 48.4587 72.5871 47.9147L72.5832 46.8587C72.5811 46.3041 72.6595 45.8664 72.8183 45.5458C72.9878 45.2146 73.2696 44.9788 73.6637 44.8387C74.0685 44.6879 74.6176 44.6112 75.3109 44.6086L75.5669 44.6077C76.2602 44.6051 76.8045 44.6777 77.1997 44.8256C77.6055 44.9628 77.8891 45.1964 78.0503 45.5265C78.2222 45.8458 78.3091 46.2828 78.3112 46.8375L78.3151 47.8935C78.3171 48.4375 78.2334 48.8751 78.0639 49.2064C77.9052 49.5377 77.6234 49.7787 77.2186 49.9296C76.8245 50.0697 76.2807 50.141 75.5874 50.1436L75.3314 50.1446ZM81.1269 51.0831L83.9269 51.0727L83.9241 50.3047L81.1241 50.3151L81.1269 51.0831ZM82.206 52.9831L82.878 52.9806C83.3046 52.979 83.5818 52.9353 83.7095 52.8495C83.8478 52.753 83.9217 52.5394 83.9311 52.2087L81.1311 52.2191C81.143 52.5497 81.2185 52.7628 81.3575 52.8582C81.4965 52.9431 81.7793 52.9847 82.206 52.9831ZM81.1198 49.1631L83.9198 49.1527C83.908 48.8434 83.8326 48.641 83.6935 48.5456C83.5652 48.45 83.2877 48.4031 82.861 48.4046L82.189 48.4071C81.7623 48.4087 81.4799 48.4578 81.3415 48.5543C81.2139 48.6508 81.14 48.8537 81.1198 49.1631ZM75.3265 48.8166L75.5825 48.8156C76.0198 48.814 76.3023 48.7596 76.4299 48.6525C76.5681 48.5453 76.6366 48.3157 76.6353 47.9637L74.2673 47.9725C74.2793 48.3245 74.3495 48.5535 74.4779 48.6597C74.6063 48.7659 74.8891 48.8182 75.3265 48.8166ZM74.263 46.7885L76.6309 46.7797C76.6296 46.4277 76.5595 46.204 76.4204 46.1085C76.2921 46.0023 76.0092 45.95 75.5719 45.9516L75.3159 45.9526C74.8785 45.9542 74.5961 46.0086 74.4685 46.1157C74.3408 46.2122 74.2723 46.4365 74.263 46.7885ZM91.9696 58.275C91.7676 58.4464 91.5332 58.5166 91.2664 58.4856C90.9997 58.4652 90.7753 58.354 90.5932 58.1521C90.4325 57.9606 90.2183 57.7268 89.9506 57.4504C89.6828 57.1634 89.4045 56.8818 89.1154 56.6055C88.837 56.3186 88.5908 56.0848 88.3768 55.9043C88.2056 55.7449 88.1035 55.5426 88.0706 55.2974C88.0483 55.0415 88.1222 54.8225 88.2922 54.6406C88.4728 54.4586 88.6804 54.3565 88.915 54.3342C89.1603 54.312 89.3845 54.3752 89.5877 54.5238C89.8231 54.7042 90.0959 54.9379 90.4063 55.2247C90.7274 55.5115 91.0378 55.8091 91.3376 56.1173C91.6481 56.4148 91.8944 56.6752 92.0765 56.8985C92.2586 57.1005 92.3395 57.3349 92.3192 57.6017C92.2988 57.8684 92.1823 58.0928 91.9696 58.275ZM105.076 58.8824C104.756 58.8836 104.51 58.7991 104.339 58.6291C104.168 58.4591 104.066 58.2355 104.033 57.9582C104.01 57.6917 104.073 57.4621 104.222 57.2695C104.381 57.0769 104.6 56.9588 104.877 56.9151C105.164 56.8607 105.346 56.7907 105.42 56.7051C105.505 56.6194 105.547 56.4433 105.546 56.1766L105.536 53.5846C105.387 53.6385 105.249 53.6924 105.121 53.7462C104.993 53.7893 104.871 53.8324 104.753 53.8755C104.455 53.9833 104.178 53.9843 103.921 53.8786C103.676 53.7729 103.51 53.5868 103.423 53.3205C103.348 53.0434 103.368 52.7927 103.485 52.5682C103.601 52.3438 103.809 52.1884 104.107 52.1019C104.32 52.0371 104.544 51.967 104.778 51.8914C105.023 51.8052 105.273 51.7243 105.529 51.6486L105.519 48.7687L104.287 48.7732C104.02 48.7742 103.806 48.6897 103.646 48.5196C103.485 48.3389 103.404 48.1312 103.403 47.8965C103.402 47.6512 103.482 47.4429 103.641 47.2716C103.8 47.1004 104.013 47.0142 104.28 47.0132L105.512 47.0087L105.504 44.9447C105.503 44.6674 105.588 44.4484 105.758 44.2877C105.928 44.1165 106.141 44.0303 106.397 44.0294C106.642 44.0285 106.851 44.113 107.022 44.2831C107.193 44.4424 107.279 44.6608 107.28 44.9381L107.288 47.0021L108.088 46.9991C108.173 46.9988 108.253 47.0092 108.328 47.0302C108.403 47.0513 108.472 47.0777 108.536 47.1095C108.536 46.8855 108.604 46.6985 108.742 46.5487C108.891 46.3882 109.088 46.3074 109.333 46.3065L110.853 46.3009L110.849 45.0049C110.848 44.7382 110.932 44.5246 111.102 44.3639C111.272 44.2033 111.475 44.1226 111.709 44.1217C111.955 44.1208 112.163 44.2 112.334 44.3594C112.505 44.5187 112.592 44.7318 112.593 44.9984L112.597 46.2944L114.181 46.2885L114.177 44.9926C114.176 44.7259 114.26 44.5122 114.43 44.3516C114.611 44.1909 114.819 44.1102 115.053 44.1093C115.299 44.1084 115.507 44.1876 115.678 44.347C115.849 44.5063 115.936 44.7194 115.937 44.986L115.941 46.282L117.589 46.2759C117.835 46.275 118.032 46.3543 118.182 46.5137C118.332 46.6625 118.407 46.8489 118.408 47.0729C118.409 47.2969 118.335 47.4892 118.186 47.6497C118.038 47.7996 117.841 47.875 117.595 47.8759L115.947 47.882L115.951 48.906C115.952 49.1727 115.868 49.3863 115.697 49.5469C115.527 49.7076 115.32 49.7883 115.074 49.7893C114.84 49.7901 114.631 49.7109 114.449 49.5516C114.278 49.3922 114.192 49.1792 114.191 48.9125L114.187 47.8885L112.603 47.8944L112.607 48.9184C112.608 49.1851 112.524 49.3987 112.353 49.5593C112.183 49.72 111.976 49.8007 111.73 49.8017C111.496 49.8025 111.293 49.7233 111.121 49.5639C110.95 49.4045 110.864 49.1915 110.863 48.9249L110.859 47.9009L109.339 47.9065C109.222 47.9069 109.099 47.8807 108.971 47.8279L108.971 47.8759C108.972 48.1105 108.893 48.3188 108.734 48.5007C108.585 48.672 108.372 48.7581 108.094 48.7591L107.294 48.7621L107.303 51.0181C107.42 50.9643 107.532 50.9212 107.638 50.8888C107.745 50.8458 107.846 50.8081 107.942 50.7757C108.176 50.6895 108.39 50.6834 108.582 50.7573C108.785 50.8312 108.929 50.9907 109.016 51.2357C109.091 51.4381 109.092 51.6461 109.018 51.8597C108.944 52.0627 108.785 52.2233 108.54 52.3415C108.38 52.4168 108.194 52.5028 107.981 52.5996C107.778 52.6857 107.555 52.7771 107.31 52.8741L107.324 56.602C107.326 57.3807 107.147 57.952 106.786 58.316C106.435 58.6907 105.865 58.8795 105.076 58.8824ZM112.339 58.5195C111.229 58.5236 110.439 58.3078 109.968 57.8722C109.497 57.4366 109.26 56.6909 109.256 55.6349L109.246 53.0589C109.242 51.9922 109.474 51.2394 109.942 50.8003C110.41 50.3612 111.198 50.1396 112.308 50.1355L114.58 50.1271C115.689 50.123 116.479 50.3387 116.95 50.7743C117.432 51.2099 117.674 51.961 117.678 53.0276L117.688 55.6036C117.692 56.6596 117.455 57.4072 116.976 57.8463C116.509 58.2853 115.72 58.5069 114.611 58.511L112.339 58.5195ZM114.288 53.5042L115.888 53.4983L115.886 53.0343C115.885 52.6929 115.847 52.4371 115.772 52.2667C115.696 52.0963 115.557 51.9795 115.354 51.9162C115.151 51.853 114.858 51.8221 114.474 51.8235L114.282 51.8242L114.288 53.5042ZM114.3 56.8162L114.492 56.8155C114.876 56.814 115.17 56.781 115.372 56.7162C115.574 56.6514 115.713 56.5336 115.787 56.3627C115.861 56.1811 115.897 55.9249 115.896 55.5943L115.894 55.1303L114.294 55.1362L114.3 56.8162ZM111.04 53.5162L112.624 53.5104L112.618 51.8304L112.442 51.831C112.058 51.8325 111.765 51.8655 111.562 51.9303C111.36 51.995 111.222 52.1129 111.148 52.2838C111.074 52.4548 111.037 52.7109 111.038 53.0522L111.04 53.5162ZM112.46 56.823L112.636 56.8223L112.63 55.1424L111.046 55.1482L111.048 55.6122C111.049 55.9429 111.087 56.1987 111.163 56.3798C111.238 56.5502 111.377 56.667 111.58 56.7303C111.783 56.7935 112.076 56.8244 112.46 56.823ZM128.787 58.5385C127.272 58.5441 126.029 58.442 125.058 58.2323C124.086 58.0332 123.312 57.6788 122.734 57.1689C122.585 57.2655 122.404 57.3888 122.191 57.5389C121.978 57.6891 121.776 57.8285 121.585 57.9572C121.393 58.0966 121.25 58.1984 121.154 58.2628C120.952 58.4022 120.712 58.4458 120.434 58.3934C120.167 58.3518 119.97 58.2138 119.841 57.9796C119.712 57.7561 119.679 57.5216 119.742 57.276C119.805 57.0304 119.954 56.8539 120.188 56.7463C120.348 56.6604 120.571 56.5476 120.859 56.4079C121.146 56.2575 121.407 56.1178 121.641 55.989L121.628 52.373C121.627 52.117 121.584 51.9411 121.498 51.8455C121.412 51.7498 121.241 51.7024 120.985 51.7034L120.409 51.7055C120.153 51.7064 119.951 51.6272 119.801 51.4677C119.651 51.3083 119.575 51.1112 119.574 50.8766C119.574 50.6526 119.648 50.4603 119.796 50.2998C119.945 50.1392 120.147 50.0585 120.403 50.0575L121.683 50.0528C122.793 50.0486 123.349 50.6013 123.354 51.7106L123.368 55.6786C123.657 55.9655 124.016 56.1988 124.443 56.3786C124.881 56.5476 125.447 56.6735 126.14 56.7563C126.834 56.8284 127.714 56.8625 128.781 56.8585C129.666 56.8552 130.509 56.8414 131.309 56.8171C132.108 56.7822 132.796 56.7423 133.372 56.6975C133.681 56.675 133.938 56.7434 134.141 56.9026C134.344 57.0619 134.446 57.2802 134.447 57.5575C134.448 57.8348 134.364 58.0591 134.194 58.2304C134.034 58.4124 133.779 58.504 133.427 58.5053C132.968 58.507 132.445 58.5089 131.859 58.5111C131.283 58.5132 130.717 58.5153 130.163 58.5174C129.608 58.5301 129.15 58.5371 128.787 58.5385ZM128.779 56.3465C128.523 56.3475 128.309 56.2682 128.138 56.1089C127.967 55.9495 127.88 55.7312 127.879 55.4538L127.856 49.0059L124.608 49.0179C124.362 49.0188 124.165 48.9396 124.015 48.7801C123.865 48.6207 123.789 48.4289 123.789 48.2049C123.788 47.9809 123.862 47.7887 124.01 47.6281C124.159 47.4569 124.356 47.3708 124.601 47.3699L127.849 47.3579L127.841 45.1179C127.84 44.8406 127.925 44.6216 128.095 44.461C128.265 44.3003 128.478 44.2195 128.734 44.2186C128.99 44.2176 129.203 44.2968 129.375 44.4562C129.546 44.6156 129.632 44.8339 129.633 45.1113L129.641 47.3512L133.033 47.3387C133.279 47.3378 133.476 47.4224 133.626 47.5925C133.776 47.7519 133.852 47.9436 133.852 48.1676C133.853 48.3916 133.779 48.5839 133.631 48.7445C133.482 48.905 133.285 48.9858 133.04 48.9867L129.648 48.9992L129.671 55.4472C129.672 55.7245 129.588 55.9435 129.418 56.1041C129.248 56.2648 129.035 56.3456 128.779 56.3465ZM133.094 55.1785C132.86 55.286 132.626 55.3029 132.391 55.2291C132.156 55.1553 131.979 54.9906 131.861 54.7351C131.689 54.3837 131.506 53.979 131.312 53.5211C131.129 53.0524 130.957 52.5731 130.795 52.083C130.633 51.5929 130.504 51.1507 130.406 50.7564C130.341 50.49 130.372 50.2606 130.499 50.0681C130.627 49.8649 130.808 49.7363 131.042 49.6821C131.287 49.6278 131.506 49.6537 131.698 49.7596C131.901 49.8549 132.035 50.0304 132.1 50.2862C132.198 50.6485 132.327 51.0586 132.489 51.5167C132.651 51.9748 132.823 52.4222 133.006 52.8588C133.189 53.2848 133.361 53.6575 133.522 53.9769C133.651 54.2111 133.668 54.4457 133.573 54.6807C133.477 54.9051 133.318 55.071 133.094 55.1785ZM124.486 55.1784C124.283 55.0725 124.139 54.9077 124.053 54.684C123.966 54.4603 123.976 54.247 124.082 54.0439C124.262 53.6912 124.442 53.2906 124.622 52.8419C124.801 52.3826 124.965 51.9286 125.113 51.4801C125.26 51.0315 125.371 50.6471 125.444 50.3268C125.497 50.06 125.624 49.8675 125.826 49.7494C126.029 49.6313 126.247 49.6038 126.482 49.667C126.749 49.73 126.941 49.8573 127.059 50.0488C127.188 50.2404 127.216 50.4696 127.142 50.7365C127.026 51.1956 126.889 51.6708 126.731 52.1621C126.584 52.6533 126.42 53.1232 126.24 53.5719C126.071 54.0205 125.897 54.4158 125.717 54.7578C125.6 54.9823 125.425 55.1376 125.191 55.2238C124.956 55.2993 124.721 55.2842 124.486 55.1784ZM123.387 47.7104C123.206 47.8818 122.993 47.9679 122.748 47.9688C122.502 47.9697 122.299 47.8745 122.139 47.6831C122.01 47.5235 121.844 47.3428 121.641 47.1409C121.437 46.9283 121.228 46.7211 121.014 46.5192C120.811 46.3173 120.629 46.1473 120.468 46.0092C120.297 45.8605 120.216 45.6742 120.226 45.4501C120.236 45.2154 120.321 45.0178 120.48 44.8572C120.639 44.6859 120.831 44.5892 121.055 44.5671C121.29 44.5448 121.503 44.6134 121.696 44.7727C121.878 44.9213 122.076 45.1019 122.29 45.3145C122.515 45.5163 122.729 45.7182 122.932 45.9201C123.146 46.1113 123.317 46.276 123.446 46.4142C123.628 46.6055 123.709 46.8239 123.688 47.0693C123.679 47.3147 123.578 47.5284 123.387 47.7104ZM132.792 46.9236C132.611 47.0736 132.403 47.1437 132.169 47.1339C131.945 47.124 131.758 47.0341 131.608 46.864C131.543 46.7789 131.442 46.6672 131.302 46.5291C131.163 46.3909 131.024 46.2528 130.885 46.1146C130.756 45.9658 130.655 45.8541 130.58 45.7798C130.44 45.6309 130.381 45.4552 130.402 45.2524C130.422 45.039 130.507 44.8574 130.656 44.7075C130.804 44.5576 130.985 44.4769 131.199 44.4655C131.423 44.454 131.62 44.5279 131.792 44.6873C131.866 44.751 131.968 44.8519 132.097 44.9901C132.236 45.1176 132.375 45.2504 132.514 45.3886C132.664 45.5267 132.782 45.6383 132.867 45.7233C133.049 45.8826 133.13 46.085 133.11 46.3304C133.1 46.5651 132.994 46.7628 132.792 46.9236ZM148.467 58.6255C148.083 58.4883 147.65 58.3032 147.169 58.0704C146.688 57.8375 146.213 57.5779 145.742 57.2916C145.272 57.0054 144.855 56.7243 144.491 56.4483C144.299 56.2996 144.186 56.1134 144.153 55.8895C144.131 55.6549 144.189 55.4467 144.327 55.2649C144.444 55.1258 144.571 55.0346 144.71 54.9914L141.382 55.0038C141.446 55.0355 141.51 55.0726 141.574 55.1151C141.638 55.1575 141.692 55.2106 141.735 55.2745C141.885 55.4766 141.934 55.6897 141.881 55.9139C141.839 56.1274 141.733 56.3038 141.563 56.4431C141.244 56.7003 140.856 56.9684 140.398 57.2474C139.941 57.5265 139.467 57.7842 138.977 58.0207C138.498 58.2572 138.056 58.4561 137.651 58.6176C137.342 58.7361 137.065 58.7638 136.82 58.7007C136.574 58.6483 136.392 58.489 136.274 58.2227C136.166 57.9778 136.16 57.7432 136.255 57.5188C136.35 57.2944 136.536 57.1338 136.813 57.0367C137.218 56.8859 137.644 56.7083 138.091 56.504C138.549 56.289 138.986 56.0687 139.401 55.8431C139.816 55.6069 140.173 55.3816 140.47 55.1672C140.513 55.135 140.556 55.1082 140.598 55.0867C140.651 55.0545 140.699 55.0276 140.742 55.0062L136.374 55.0223C136.15 55.0232 135.958 54.9492 135.797 54.8005C135.647 54.641 135.572 54.4546 135.571 54.2413C135.57 54.0173 135.644 53.8304 135.793 53.6805C135.952 53.5199 136.144 53.4392 136.368 53.4384L136.976 53.4361L136.825 47.2126C136.813 46.7327 136.848 46.3485 136.933 46.0602C137.028 45.7612 137.203 45.5259 137.458 45.3543C137.713 45.172 138.081 45.0213 138.56 44.9022C138.742 44.8482 138.923 44.7995 139.104 44.7562C139.296 44.7021 139.482 44.6481 139.663 44.5941C139.866 44.54 140.058 44.55 140.239 44.6239C140.421 44.6873 140.544 44.8255 140.609 45.0386C140.684 45.273 140.675 45.4757 140.579 45.6467C140.494 45.807 140.345 45.9142 140.132 45.9684C139.994 46.0115 139.845 46.0601 139.685 46.114C139.525 46.1573 139.387 46.1898 139.269 46.2116C138.939 46.2981 138.731 46.4002 138.646 46.5179C138.561 46.6248 138.525 46.8436 138.537 47.1743L138.539 47.6703L139.787 47.6656C140 47.6649 140.176 47.7335 140.315 47.8717C140.465 48.0098 140.541 48.1855 140.541 48.3989C140.542 48.6015 140.468 48.7778 140.319 48.9277C140.181 49.0669 140.005 49.1368 139.792 49.1376L138.576 49.1421L138.613 50.518L139.797 50.5136C140.011 50.5128 140.187 50.5815 140.326 50.7197C140.476 50.8578 140.551 51.0335 140.552 51.2468C140.553 51.4495 140.479 51.6258 140.33 51.7757C140.192 51.9148 140.016 51.9848 139.803 51.9856L138.651 51.9899L138.688 53.4298L141.072 53.4209L141.062 50.6689C141.061 50.4449 141.135 50.2687 141.284 50.1401C141.433 50.0009 141.608 49.9309 141.811 49.9302C142.024 49.9294 142.201 49.998 142.34 50.1362C142.49 50.2636 142.565 50.4394 142.566 50.6634L142.576 53.4153L143.456 53.4121L143.444 50.2281C143.443 49.9188 143.4 49.7216 143.314 49.6366C143.239 49.5409 143.031 49.4936 142.689 49.4949C142.081 49.4972 141.654 49.3867 141.408 49.1636C141.173 48.9298 141.054 48.4983 141.051 47.869L141.041 44.941C141.04 44.6956 141.119 44.498 141.278 44.3481C141.438 44.1982 141.63 44.1228 141.854 44.122C142.078 44.1211 142.27 44.1951 142.43 44.3438C142.602 44.4925 142.688 44.6895 142.689 44.9349L142.691 45.6389L144.355 45.6327C144.547 45.632 144.713 45.7007 144.852 45.8389C144.991 45.9663 145.061 46.1261 145.062 46.3181C145.062 46.5101 144.994 46.6757 144.856 46.8148C144.717 46.954 144.552 47.024 144.36 47.0247L142.696 47.0309L142.698 47.5109C142.699 47.7988 142.753 47.9853 142.86 48.0703C142.967 48.1445 143.175 48.1811 143.485 48.1799C143.986 48.1781 144.354 48.3047 144.59 48.5598C144.836 48.8043 144.96 49.2305 144.963 49.8385L144.976 53.4064L147.296 53.3979L147.323 51.9737L146.123 51.9782C145.92 51.9789 145.744 51.9049 145.594 51.7561C145.455 51.6073 145.385 51.4316 145.384 51.2289C145.383 51.0263 145.452 50.8553 145.59 50.7162C145.739 50.5663 145.915 50.491 146.117 50.4902L147.349 50.4856L147.36 49.1096L146.112 49.1142C145.909 49.115 145.733 49.0463 145.583 48.9082C145.444 48.7593 145.374 48.5836 145.373 48.3809C145.373 48.1676 145.441 47.9914 145.579 47.8522C145.728 47.713 145.904 47.643 146.107 47.6422L147.387 47.6375L147.401 47.1414C147.41 46.8 147.356 46.5762 147.238 46.47C147.121 46.3531 146.891 46.2953 146.55 46.2966L145.798 46.2994C145.595 46.3001 145.419 46.2261 145.269 46.0773C145.119 45.9285 145.044 45.7528 145.043 45.5501C145.042 45.3368 145.116 45.1552 145.265 45.0053C145.414 44.8554 145.589 44.7801 145.792 44.7794L146.656 44.7762C147.307 44.7738 147.808 44.8466 148.161 44.9946C148.524 45.1319 148.776 45.371 148.915 45.7118C149.055 46.0526 149.116 46.5217 149.097 47.1191L148.992 53.3916L149.632 53.3892C149.856 53.3884 150.043 53.4677 150.193 53.6271C150.353 53.7759 150.434 53.9622 150.435 54.1862C150.436 54.3996 150.356 54.5865 150.197 54.7471C150.048 54.897 149.862 54.9724 149.638 54.9732L145.238 54.9895C145.291 55 145.345 55.0211 145.398 55.0529C145.462 55.0847 145.516 55.1165 145.558 55.1483C145.879 55.3711 146.259 55.6044 146.697 55.8481C147.135 56.0811 147.584 56.3035 148.044 56.5151C148.514 56.716 148.93 56.8798 149.293 57.0065C149.539 57.0802 149.705 57.2236 149.791 57.4366C149.888 57.6603 149.894 57.8896 149.809 58.1246C149.704 58.4236 149.518 58.6003 149.251 58.6546C148.996 58.7196 148.734 58.7099 148.467 58.6255ZM153.668 58.7503C153.38 58.8367 153.129 58.8323 152.916 58.7371C152.702 58.6525 152.552 58.4931 152.466 58.2587C152.391 58.035 152.4 57.8216 152.496 57.6186C152.602 57.4155 152.788 57.2762 153.054 57.2005C153.491 57.0816 153.981 56.9251 154.524 56.7311C155.078 56.537 155.568 56.3379 155.994 56.1336C155.258 56.0404 154.745 55.8076 154.456 55.4353C154.166 55.0524 154.02 54.4716 154.017 53.6929L154.011 52.125C154.008 51.261 154.176 50.6417 154.516 50.2671C154.867 49.8924 155.496 49.6768 156.402 49.6201C156.391 49.5988 156.381 49.5775 156.37 49.5562C156.359 49.5349 156.348 49.5136 156.338 49.4923C156.251 49.2793 156.245 49.0713 156.319 48.8684C156.404 48.6654 156.558 48.5262 156.782 48.4507C158.135 48.0296 159.017 47.2904 159.429 46.2328L158.277 46.2371C158.012 46.6327 157.768 46.9697 157.545 47.2478C157.386 47.4191 157.184 47.5318 156.938 47.5861C156.693 47.6296 156.469 47.5878 156.266 47.4606C156.095 47.3439 155.982 47.1843 155.928 46.9818C155.874 46.7793 155.916 46.5925 156.054 46.4213C156.203 46.2395 156.362 46.0202 156.532 45.7636C156.712 45.5069 156.882 45.2396 157.041 44.9617C157.2 44.6731 157.327 44.4113 157.422 44.1763C157.517 43.9626 157.676 43.8073 157.9 43.7105C158.134 43.6136 158.374 43.6181 158.62 43.7238C158.844 43.8083 158.989 43.9624 159.054 44.1862C159.129 44.4099 159.12 44.634 159.024 44.8583L158.993 44.9384L163.921 44.9202C164.337 44.9186 164.662 45.0188 164.898 45.2206C165.144 45.4116 165.278 45.6618 165.301 45.9711C165.323 46.2696 165.212 46.5847 164.968 46.9163C164.862 47.0554 164.766 47.1837 164.681 47.3014C164.597 47.4083 164.496 47.5207 164.379 47.6385C164.071 48.0236 163.714 48.1796 163.308 48.1065C163.661 48.2972 164.04 48.4611 164.446 48.5982C164.852 48.7247 165.284 48.8351 165.744 48.9294C165.989 48.9819 166.166 49.1039 166.273 49.2955C166.391 49.4764 166.424 49.6843 166.371 49.9191C166.319 50.154 166.175 50.3359 165.941 50.4647C165.718 50.5829 165.467 50.6051 165.189 50.5315C164.25 50.2897 163.369 49.9409 162.546 49.4853C161.733 49.0296 161.032 48.4562 160.443 47.7651C160.178 48.1287 159.859 48.4712 159.487 48.7926C159.115 49.1033 158.694 49.3716 158.226 49.5973L160.914 49.5873C161.714 49.5844 162.338 49.6567 162.787 49.8044C163.235 49.9521 163.551 50.2069 163.734 50.5689C163.927 50.9309 164.025 51.4372 164.027 52.0878L164.033 53.6558C164.036 54.4451 163.894 55.027 163.607 55.4014C163.332 55.7758 162.826 56.0123 162.09 56.111C162.528 56.3121 163.02 56.5076 163.564 56.6976C164.12 56.8875 164.6 57.0351 165.006 57.1402C165.284 57.2139 165.471 57.3572 165.568 57.5702C165.664 57.7831 165.676 57.9964 165.602 58.21C165.528 58.445 165.379 58.6055 165.156 58.6917C164.943 58.7885 164.692 58.7947 164.404 58.7105C164.051 58.6051 163.656 58.4732 163.218 58.3149C162.791 58.1564 162.374 57.982 161.968 57.7915C161.562 57.6117 161.204 57.4423 160.894 57.2835C160.67 57.1563 160.536 56.9968 160.493 56.805C160.449 56.6131 160.481 56.421 160.587 56.2286C160.586 56.2179 160.586 56.2126 160.586 56.2126C160.597 56.2019 160.602 56.1912 160.602 56.1805L157.434 56.1923C157.434 56.2136 157.445 56.2349 157.467 56.2562C157.563 56.4478 157.591 56.6397 157.549 56.8319C157.517 57.024 157.385 57.1791 157.15 57.2974C156.863 57.4584 156.517 57.6304 156.112 57.8132C155.708 57.996 155.292 58.1682 154.866 58.3298C154.44 58.5021 154.041 58.6422 153.668 58.7503ZM152.756 50.1616C152.522 50.2478 152.292 50.2486 152.068 50.1641C151.844 50.0796 151.688 49.9202 151.602 49.6859C151.537 49.4728 151.547 49.2701 151.632 49.0777C151.717 48.8748 151.881 48.7355 152.126 48.6599C152.414 48.5735 152.755 48.4656 153.149 48.3361C153.543 48.2067 153.932 48.0719 154.316 47.9318C154.699 47.7917 155.019 47.6679 155.274 47.5602C155.477 47.4742 155.674 47.4628 155.866 47.526C156.058 47.5893 156.192 47.7222 156.268 47.9246C156.343 48.1269 156.339 48.3243 156.254 48.5166C156.169 48.6983 156.02 48.8375 155.807 48.9343C155.541 49.0526 155.222 49.1924 154.849 49.3538C154.487 49.5045 154.119 49.6499 153.747 49.7899C153.374 49.93 153.044 50.0539 152.756 50.1616ZM154.599 46.5547C154.428 46.4914 154.198 46.4176 153.91 46.3333C153.632 46.2383 153.349 46.1487 153.061 46.0644C152.783 45.9695 152.559 45.8956 152.388 45.8429C152.185 45.7903 152.041 45.6629 151.955 45.4605C151.868 45.2582 151.857 45.0609 151.92 44.8687C151.994 44.655 152.127 44.5052 152.319 44.4192C152.51 44.3225 152.713 44.3057 152.927 44.3689C153.108 44.4216 153.343 44.4954 153.631 44.5903C153.93 44.6852 154.224 44.7801 154.512 44.875C154.811 44.9699 155.046 45.0491 155.217 45.1124C155.431 45.1863 155.575 45.3191 155.651 45.5108C155.726 45.7025 155.727 45.9052 155.653 46.1188C155.579 46.3111 155.436 46.4503 155.223 46.5364C155.02 46.6225 154.812 46.6286 154.599 46.5547ZM155.935 53.2058L162.127 53.1829L162.125 52.5269L155.933 52.5498L155.935 53.2058ZM157.142 54.9294L160.934 54.9153C161.339 54.9138 161.627 54.8701 161.797 54.7841C161.968 54.6981 162.074 54.5218 162.115 54.2549L155.955 54.2778C155.999 54.5443 156.106 54.7199 156.277 54.8046C156.448 54.8893 156.736 54.9309 157.142 54.9294ZM155.961 51.4777L162.089 51.455C162.045 51.2098 161.938 51.0502 161.767 50.9762C161.596 50.8915 161.313 50.8499 160.919 50.8513L157.127 50.8654C156.732 50.8669 156.449 50.9106 156.279 50.9965C156.109 51.0718 156.003 51.2322 155.961 51.4777ZM162.795 47.8044C162.699 47.6767 162.65 47.5276 162.65 47.3569C162.649 47.1862 162.697 47.0474 162.792 46.9404C162.845 46.8868 162.888 46.8387 162.92 46.7959C162.962 46.7424 163.01 46.6836 163.063 46.6194C163.148 46.5017 163.169 46.4056 163.126 46.3311C163.094 46.2566 163.003 46.2196 162.853 46.2201L161.221 46.2262L161.206 46.2902C161.442 46.5987 161.688 46.8805 161.945 47.1355C162.212 47.3799 162.496 47.6028 162.795 47.8044ZM176.532 58.6495C176.265 58.6505 176.046 58.582 175.875 58.444C175.704 58.3059 175.602 58.0983 175.569 57.8211C175.546 57.5865 175.61 57.3729 175.758 57.1804C175.917 56.9878 176.13 56.8803 176.397 56.858C176.632 56.8358 176.786 56.7926 176.861 56.7283C176.935 56.6533 176.972 56.4932 176.971 56.2479L176.959 53.1599C176.319 53.1409 175.812 53.0575 175.438 52.9095C175.064 52.7509 174.797 52.5012 174.636 52.1605C174.474 51.8091 174.393 51.3401 174.39 50.7534L174.386 49.6334C174.383 48.8228 174.53 48.2355 174.828 47.8718C175.136 47.508 175.674 47.2926 176.441 47.2258C176.494 47.0336 176.552 46.8254 176.615 46.6011C176.678 46.3662 176.731 46.1634 176.773 45.9925L175.285 45.9981C174.645 46.0004 174.202 46.1087 173.958 46.323C173.724 46.5265 173.608 46.9376 173.61 47.5563L173.619 49.8123C173.623 51.0496 173.574 52.1431 173.471 53.0928C173.368 54.0426 173.195 54.9019 172.953 55.6708C172.721 56.4396 172.403 57.1715 172.001 57.8663C171.874 58.0908 171.682 58.2302 171.426 58.2844C171.181 58.3494 170.952 58.3289 170.738 58.223C170.524 58.1065 170.385 57.9256 170.32 57.6805C170.266 57.4354 170.297 57.2113 170.413 57.0082C170.785 56.3988 171.076 55.7631 171.286 55.1009C171.497 54.4282 171.649 53.6649 171.742 52.8112C171.835 51.9576 171.879 50.96 171.875 49.8187L171.866 47.5627C171.864 46.7947 171.968 46.181 172.18 45.7216C172.391 45.2514 172.747 44.9141 173.248 44.7096C173.748 44.4944 174.425 44.3852 175.279 44.3821L181.503 44.359C181.769 44.358 181.978 44.4319 182.128 44.5807C182.277 44.7295 182.353 44.9212 182.354 45.1558C182.355 45.3905 182.281 45.5881 182.132 45.7487C181.983 45.8986 181.775 45.974 181.509 45.975L178.709 45.9854C178.656 46.1669 178.593 46.3645 178.519 46.5781C178.456 46.7916 178.392 46.9945 178.329 47.1868L178.505 47.1861C179.198 47.1836 179.748 47.2562 180.154 47.404C180.56 47.5518 180.849 47.8014 181.021 48.1528C181.203 48.5041 181.296 48.9891 181.298 49.6078L181.302 50.7278C181.306 51.6238 181.116 52.2485 180.733 52.6019C180.351 52.9447 179.679 53.1285 178.719 53.1534L178.732 56.5774C178.735 57.292 178.555 57.8153 178.194 58.1474C177.832 58.4794 177.278 58.6468 176.532 58.6495ZM168.129 58.0247C167.884 57.9402 167.718 57.7809 167.631 57.5465C167.545 57.3122 167.555 57.0828 167.661 56.8584C167.841 56.4951 168.026 56.073 168.216 55.5923C168.417 55.1116 168.607 54.6255 168.787 54.1342C168.977 53.6322 169.135 53.1782 169.262 52.7724C169.336 52.5268 169.468 52.3397 169.66 52.2109C169.851 52.0822 170.08 52.0601 170.347 52.1444C170.871 52.3025 171.059 52.6644 170.911 53.2303C170.806 53.6574 170.659 54.1326 170.469 54.656C170.289 55.1686 170.099 55.676 169.898 56.1781C169.698 56.6695 169.518 57.1022 169.359 57.4761C169.253 57.7112 169.089 57.8878 168.865 58.0059C168.652 58.1241 168.407 58.1303 168.129 58.0247ZM182.335 57.412C182.154 57.5833 181.931 57.6642 181.664 57.6545C181.408 57.6554 181.194 57.5602 181.023 57.3689C180.702 57.0074 180.364 56.582 180.01 56.0926C179.667 55.5925 179.383 55.1296 179.157 54.7038C179.05 54.5122 179.022 54.3149 179.075 54.1121C179.138 53.9092 179.271 53.754 179.473 53.6466C179.675 53.5285 179.878 53.5011 180.081 53.5643C180.284 53.6169 180.455 53.7443 180.594 53.9464C180.723 54.1486 180.889 54.3827 181.093 54.6486C181.296 54.9145 181.511 55.1857 181.736 55.4622C181.961 55.728 182.17 55.9673 182.363 56.1799C182.523 56.35 182.609 56.5523 182.621 56.7869C182.632 57.0216 182.537 57.2299 182.335 57.412ZM173.183 57.5259C173.012 57.3772 172.921 57.1856 172.909 56.9509C172.908 56.7163 172.993 56.5186 173.163 56.358C173.386 56.1545 173.609 55.919 173.832 55.6515C174.066 55.3733 174.289 55.0898 174.501 54.801C174.714 54.5122 174.889 54.2556 175.026 54.0311C175.154 53.8173 175.324 53.6886 175.537 53.6452C175.761 53.6017 175.974 53.6436 176.178 53.7708C176.359 53.8875 176.472 54.0524 176.515 54.2656C176.559 54.4681 176.522 54.6762 176.406 54.89C176.183 55.2961 175.891 55.7399 175.531 56.2212C175.17 56.7026 174.819 57.1145 174.479 57.4571C174.309 57.6391 174.096 57.7412 173.84 57.7635C173.595 57.7964 173.376 57.7172 173.183 57.5259ZM169.494 50.6436C169.301 50.4949 169.05 50.3199 168.74 50.1183C168.441 49.9168 168.184 49.7577 167.97 49.6412C167.767 49.5246 167.638 49.3491 167.584 49.1146C167.53 48.8695 167.561 48.6454 167.678 48.4423C167.805 48.2285 167.991 48.0944 168.236 48.0402C168.492 47.9859 168.727 48.0224 168.941 48.1496C169.069 48.2238 169.229 48.3192 169.422 48.4358C169.625 48.5524 169.823 48.6743 170.015 48.8016C170.218 48.9182 170.384 49.0242 170.512 49.1198C170.737 49.2683 170.871 49.4704 170.915 49.7263C170.958 49.9821 170.906 50.217 170.757 50.4309C170.619 50.634 170.428 50.7574 170.182 50.801C169.937 50.8446 169.708 50.7921 169.494 50.6436ZM169.977 47.0577C169.784 46.9091 169.538 46.734 169.239 46.5325C168.939 46.3202 168.683 46.1559 168.469 46.0393C168.266 45.9121 168.137 45.7312 168.083 45.4967C168.039 45.2622 168.081 45.0434 168.208 44.8403C168.336 44.6265 168.522 44.4978 168.767 44.4542C169.012 44.4 169.242 44.4364 169.455 44.5637C169.594 44.6378 169.76 44.7385 169.952 44.8658C170.145 44.9824 170.337 45.1044 170.53 45.2317C170.733 45.3483 170.899 45.4543 171.027 45.5498C171.252 45.709 171.38 45.9165 171.413 46.1724C171.446 46.4283 171.388 46.6632 171.24 46.8771C171.102 47.0802 170.905 47.1983 170.649 47.2312C170.404 47.2642 170.18 47.2063 169.977 47.0577ZM177.29 51.7027L178.426 51.6985C178.863 51.6968 179.156 51.6477 179.305 51.5512C179.465 51.4439 179.549 51.209 179.559 50.8462L176.135 50.8589C176.157 51.2215 176.244 51.4559 176.393 51.562C176.554 51.6574 176.853 51.7043 177.29 51.7027ZM176.13 49.4829L179.554 49.4703C179.542 49.1183 179.455 48.8946 179.295 48.7992C179.145 48.7038 178.852 48.6569 178.415 48.6585L177.279 48.6627C176.841 48.6643 176.543 48.7134 176.383 48.81C176.234 48.9066 176.15 49.1309 176.13 49.4829Z" fill="black" fill-opacity="0.85"/>
</g>
<defs>
<radialGradient id="paint0_radial_1716_1814" cx="0" cy="0" r="1" gradientUnits="userSpaceOnUse" gradientTransform="translate(0.558656 46.8353) rotate(65.4889) scale(3.32531 8.21233)">
<stop offset="0.33" stop-opacity="0"/>
<stop offset="0.655" stop-opacity="0.6"/>
<stop offset="1"/>
</radialGradient>
<radialGradient id="paint1_radial_1716_1814" cx="0" cy="0" r="1" gradientUnits="userSpaceOnUse" gradientTransform="translate(355.296 45.8572) rotate(114.511) scale(3.32531 8.21233)">
<stop offset="0.33" stop-opacity="0"/>
<stop offset="0.655" stop-opacity="0.6"/>
<stop offset="1"/>
</radialGradient>
<clipPath id="clip0_1716_1814">
<rect width="200" height="90" fill="white"/>
</clipPath>
</defs>
</svg>
