<svg width="359" height="195" viewBox="0 0 359 195" fill="none" xmlns="http://www.w3.org/2000/svg">
<path d="M0 0H358.071V194.248H0V0Z" fill="#2B7551"/>
<path fill-rule="evenodd" clip-rule="evenodd" d="M353.071 5H5V189.248H353.071V5ZM0 0V194.248H358.071V0H0Z" fill="#C3825A"/>
<path d="M265.559 129.502C264.263 129.502 263.615 128.794 263.615 127.378V109.198L261.023 110.89C259.823 111.706 258.887 111.562 258.215 110.458C257.519 109.354 257.771 108.43 258.971 107.686L263.291 104.986C263.723 104.722 264.143 104.542 264.551 104.446C264.959 104.326 265.427 104.266 265.955 104.266C266.963 104.266 267.467 104.974 267.467 106.39V127.378C267.467 128.794 266.831 129.502 265.559 129.502Z" fill="white"/>
<path d="M244.049 122.515C243.521 122.515 243.065 122.335 242.681 121.975C242.321 121.591 242.141 121.135 242.141 120.607C242.141 120.079 242.321 119.635 242.681 119.275C243.065 118.891 243.521 118.699 244.049 118.699H252.833C253.361 118.699 253.805 118.891 254.165 119.275C254.549 119.635 254.741 120.079 254.741 120.607C254.741 121.135 254.549 121.591 254.165 121.975C253.805 122.335 253.361 122.515 252.833 122.515H244.049Z" fill="white"/>
<path d="M219.414 129.79C217.902 127.99 216.51 125.518 215.238 122.374C213.966 119.23 213.018 115.27 212.394 110.494H197.274C196.674 110.494 196.182 110.302 195.798 109.918C195.438 109.51 195.258 109.018 195.258 108.442C195.258 107.89 195.438 107.422 195.798 107.038C196.182 106.63 196.674 106.426 197.274 106.426H211.962C211.914 105.61 211.866 104.77 211.818 103.906C211.794 103.042 211.758 102.166 211.71 101.278C211.71 100.606 211.914 100.078 212.322 99.694C212.754 99.286 213.27 99.082 213.87 99.082C214.47 99.082 214.974 99.274 215.382 99.658C215.814 100.018 216.03 100.546 216.03 101.242C216.006 102.13 216.006 103.006 216.03 103.87C216.078 104.734 216.126 105.586 216.174 106.426H226.146C226.77 106.426 227.262 106.63 227.622 107.038C227.982 107.422 228.162 107.89 228.162 108.442C228.162 109.018 227.982 109.51 227.622 109.918C227.262 110.302 226.77 110.494 226.146 110.494H216.606C217.134 114.334 217.926 117.646 218.982 120.43C220.062 123.19 221.262 125.254 222.582 126.622C222.942 127.006 223.242 127.174 223.482 127.126C223.746 127.054 223.986 126.802 224.202 126.37C224.322 126.106 224.466 125.806 224.634 125.47C224.802 125.11 224.934 124.81 225.03 124.57C225.27 124.018 225.642 123.658 226.146 123.49C226.674 123.298 227.202 123.31 227.73 123.526C228.282 123.766 228.654 124.138 228.846 124.642C229.062 125.122 229.086 125.614 228.918 126.118C228.75 126.622 228.558 127.102 228.342 127.558C228.15 128.014 227.922 128.518 227.658 129.07C227.01 130.414 226.218 131.314 225.282 131.77C224.346 132.25 223.362 132.31 222.33 131.95C221.322 131.614 220.35 130.894 219.414 129.79ZM197.994 131.158C197.322 131.254 196.77 131.134 196.338 130.798C195.906 130.486 195.63 130.018 195.51 129.394C195.414 128.77 195.534 128.266 195.87 127.882C196.23 127.474 196.734 127.222 197.382 127.126C197.55 127.102 198.09 127.018 199.002 126.874C199.914 126.73 200.994 126.562 202.242 126.37V118.594H197.922C197.322 118.594 196.842 118.402 196.482 118.018C196.146 117.634 195.978 117.178 195.978 116.65C195.978 116.098 196.146 115.642 196.482 115.282C196.842 114.898 197.322 114.706 197.922 114.706H210.45C211.05 114.706 211.518 114.898 211.854 115.282C212.19 115.642 212.358 116.098 212.358 116.65C212.358 117.178 212.19 117.634 211.854 118.018C211.518 118.402 211.05 118.594 210.45 118.594H206.706V125.65C207.978 125.458 209.094 125.278 210.054 125.11C211.038 124.942 211.65 124.846 211.89 124.822C212.514 124.702 213.018 124.774 213.402 125.038C213.81 125.302 214.062 125.722 214.158 126.298C214.278 126.874 214.194 127.366 213.906 127.774C213.642 128.158 213.234 128.41 212.682 128.53C212.466 128.578 211.986 128.674 211.242 128.818C210.498 128.938 209.598 129.094 208.542 129.286C207.486 129.478 206.382 129.67 205.23 129.862C204.078 130.078 202.974 130.282 201.918 130.474C200.886 130.666 200.01 130.822 199.29 130.942C198.594 131.062 198.162 131.134 197.994 131.158ZM223.914 105.922C223.482 106.282 222.978 106.438 222.402 106.39C221.85 106.342 221.37 106.114 220.962 105.706C220.794 105.514 220.554 105.274 220.242 104.986C219.93 104.674 219.618 104.374 219.306 104.086C218.994 103.798 218.742 103.57 218.55 103.402C218.166 103.066 217.974 102.634 217.974 102.106C217.998 101.578 218.202 101.122 218.586 100.738C218.97 100.33 219.414 100.102 219.918 100.054C220.446 100.006 220.926 100.174 221.358 100.558C221.574 100.726 221.862 100.978 222.222 101.314C222.582 101.626 222.93 101.938 223.266 102.25C223.626 102.562 223.89 102.814 224.058 103.006C224.466 103.414 224.646 103.906 224.598 104.482C224.574 105.034 224.346 105.514 223.914 105.922Z" fill="white"/>
<path d="M178.158 132.598C177.582 132.598 177.138 132.442 176.826 132.13C176.514 131.818 176.346 131.422 176.322 130.942C176.298 130.462 176.442 130.042 176.754 129.682C177.066 129.346 177.51 129.166 178.086 129.142C178.71 129.094 179.106 129.01 179.274 128.89C179.442 128.746 179.526 128.434 179.526 127.954V122.302C179.526 121.63 179.418 121.21 179.202 121.042C178.986 120.85 178.542 120.754 177.87 120.754H173.838C173.454 120.754 173.118 120.598 172.83 120.286C172.542 119.974 172.398 119.626 172.398 119.242C172.398 118.834 172.542 118.474 172.83 118.162C173.118 117.85 173.454 117.694 173.838 117.694H178.158C178.542 117.694 178.89 117.706 179.202 117.73C179.514 117.754 179.802 117.79 180.066 117.838C179.538 117.598 178.998 117.382 178.446 117.19C177.894 116.974 177.39 116.782 176.934 116.614C176.55 116.494 176.274 116.29 176.106 116.002C175.938 115.714 175.89 115.402 175.962 115.066H171.246C170.838 115.066 170.478 114.922 170.166 114.634C169.878 114.322 169.734 113.95 169.734 113.518C169.734 113.11 169.878 112.762 170.166 112.474C170.478 112.162 170.838 112.006 171.246 112.006H178.914V110.602H173.478C173.07 110.602 172.722 110.458 172.434 110.17C172.146 109.882 172.002 109.534 172.002 109.126C172.002 108.718 172.146 108.37 172.434 108.082C172.722 107.77 173.07 107.614 173.478 107.614H178.914V106.282H171.858C171.45 106.282 171.102 106.138 170.814 105.85C170.526 105.562 170.382 105.214 170.382 104.806C170.382 104.398 170.526 104.062 170.814 103.798C171.102 103.51 171.45 103.366 171.858 103.366H175.998L175.962 103.33C175.794 103.018 175.59 102.67 175.35 102.286C175.11 101.878 174.918 101.566 174.774 101.35C174.582 101.014 174.546 100.63 174.666 100.198C174.81 99.7656 175.098 99.4416 175.53 99.2256C175.938 99.0336 176.358 98.9856 176.79 99.0816C177.222 99.1776 177.57 99.4296 177.834 99.8376C178.002 100.102 178.194 100.426 178.41 100.81C178.65 101.194 178.83 101.506 178.95 101.746C179.262 102.322 179.238 102.862 178.878 103.366H181.578C181.722 103.054 181.902 102.658 182.118 102.178C182.334 101.698 182.538 101.254 182.73 100.846C182.922 100.414 183.042 100.15 183.09 100.054C183.282 99.5736 183.618 99.2616 184.098 99.1176C184.578 98.9496 185.046 98.9616 185.502 99.1536C185.958 99.3216 186.27 99.6216 186.438 100.054C186.606 100.486 186.582 100.918 186.366 101.35C186.318 101.47 186.174 101.734 185.934 102.142C185.718 102.55 185.502 102.958 185.286 103.366H190.326C190.734 103.366 191.082 103.51 191.37 103.798C191.658 104.062 191.802 104.398 191.802 104.806C191.802 105.214 191.658 105.562 191.37 105.85C191.082 106.138 190.734 106.282 190.326 106.282H182.658V107.614H188.382C188.79 107.614 189.138 107.77 189.426 108.082C189.714 108.37 189.858 108.718 189.858 109.126C189.858 109.534 189.714 109.882 189.426 110.17C189.138 110.458 188.79 110.602 188.382 110.602H182.658V112.006H190.974C191.406 112.006 191.766 112.162 192.054 112.474C192.366 112.762 192.522 113.11 192.522 113.518C192.522 113.95 192.366 114.322 192.054 114.634C191.766 114.922 191.406 115.066 190.974 115.066H180.858C181.218 115.186 181.566 115.318 181.902 115.462C182.262 115.606 182.562 115.738 182.802 115.858C183.162 116.026 183.39 116.29 183.486 116.65C183.606 117.01 183.57 117.382 183.378 117.766C183.258 118.054 183.054 118.27 182.766 118.414C182.502 118.534 182.226 118.582 181.938 118.558C182.394 118.942 182.706 119.446 182.874 120.07C183.114 120.382 183.354 120.718 183.594 121.078C183.858 121.414 184.146 121.75 184.458 122.086C184.818 121.822 185.25 121.498 185.754 121.114C186.258 120.706 186.75 120.31 187.23 119.926C187.71 119.542 188.07 119.242 188.31 119.026C188.694 118.69 189.126 118.558 189.606 118.63C190.11 118.702 190.506 118.93 190.794 119.314C191.082 119.698 191.202 120.13 191.154 120.61C191.106 121.066 190.89 121.438 190.506 121.726C190.098 122.014 189.51 122.434 188.742 122.986C187.974 123.514 187.278 123.982 186.654 124.39C188.31 125.926 189.978 127.21 191.658 128.242C192.09 128.482 192.342 128.866 192.414 129.394C192.51 129.898 192.402 130.354 192.09 130.762C191.754 131.218 191.31 131.47 190.758 131.518C190.23 131.566 189.738 131.434 189.282 131.122C188.202 130.33 187.122 129.43 186.042 128.422C184.986 127.39 184.002 126.298 183.09 125.146V128.35C183.09 129.886 182.718 130.978 181.974 131.626C181.23 132.274 179.958 132.598 178.158 132.598ZM165.306 132.706C164.826 132.706 164.406 132.538 164.046 132.202C163.71 131.89 163.542 131.47 163.542 130.942V118.486C163.23 119.158 162.918 119.806 162.606 120.43C162.294 121.054 162.006 121.618 161.742 122.122C161.502 122.554 161.142 122.842 160.662 122.986C160.206 123.106 159.75 123.046 159.294 122.806C158.886 122.59 158.622 122.266 158.502 121.834C158.406 121.378 158.478 120.958 158.718 120.574C159.126 119.926 159.558 119.158 160.014 118.27C160.47 117.382 160.926 116.446 161.382 115.462C161.838 114.454 162.246 113.482 162.606 112.546C162.99 111.586 163.302 110.746 163.542 110.026H160.554C160.002 110.026 159.558 109.858 159.222 109.522C158.91 109.186 158.754 108.766 158.754 108.262C158.754 107.758 158.91 107.338 159.222 107.002C159.558 106.666 160.002 106.498 160.554 106.498H163.542V100.954C163.542 100.402 163.71 99.9696 164.046 99.6576C164.406 99.3456 164.826 99.1896 165.306 99.1896C165.786 99.1896 166.194 99.3456 166.53 99.6576C166.89 99.9696 167.07 100.402 167.07 100.954V106.498H168.798C169.35 106.498 169.782 106.666 170.094 107.002C170.43 107.338 170.598 107.758 170.598 108.262C170.598 108.766 170.43 109.186 170.094 109.522C169.782 109.858 169.35 110.026 168.798 110.026H167.07V111.574C167.382 111.982 167.754 112.474 168.186 113.05C168.642 113.602 169.11 114.154 169.59 114.706C170.07 115.234 170.478 115.69 170.814 116.074C171.15 116.41 171.306 116.806 171.282 117.262C171.282 117.718 171.102 118.102 170.742 118.414C170.382 118.726 169.974 118.882 169.518 118.882C169.062 118.858 168.69 118.654 168.402 118.27C168.234 118.03 168.03 117.766 167.79 117.478C167.574 117.166 167.334 116.842 167.07 116.506V130.942C167.07 131.47 166.89 131.89 166.53 132.202C166.194 132.538 165.786 132.706 165.306 132.706ZM171.21 131.734C170.778 131.974 170.31 132.034 169.806 131.914C169.302 131.794 168.918 131.506 168.654 131.05C168.414 130.594 168.366 130.15 168.51 129.718C168.678 129.286 168.99 128.962 169.446 128.746C169.926 128.506 170.454 128.206 171.03 127.846C171.606 127.486 172.17 127.102 172.722 126.694C173.298 126.286 173.778 125.914 174.162 125.578C174.45 125.314 174.546 125.098 174.45 124.93C174.378 124.738 174.114 124.642 173.658 124.642H170.958C170.574 124.642 170.238 124.498 169.95 124.21C169.686 123.922 169.554 123.586 169.554 123.202C169.554 122.818 169.686 122.482 169.95 122.194C170.238 121.906 170.574 121.762 170.958 121.762H175.17C176.226 121.762 177.042 121.99 177.618 122.446C178.218 122.902 178.53 123.49 178.554 124.21C178.602 124.906 178.326 125.626 177.726 126.37C176.91 127.426 175.95 128.398 174.846 129.286C173.742 130.15 172.53 130.966 171.21 131.734Z" fill="white"/>
<path d="M135.61 133.029C134.986 133.029 134.446 132.825 133.99 132.417C133.558 132.009 133.341 131.481 133.341 130.833C133.341 130.281 133.558 129.801 133.99 129.393C134.422 128.985 134.974 128.769 135.646 128.745C137.229 128.697 138.358 128.385 139.03 127.809C139.726 127.209 140.074 126.189 140.074 124.749C140.074 123.933 139.966 123.189 139.75 122.517H124.846C124.27 122.517 123.801 122.337 123.441 121.977C123.105 121.593 122.938 121.137 122.938 120.609C122.938 120.081 123.105 119.637 123.441 119.277C123.801 118.917 124.27 118.737 124.846 118.737H136.834C136.498 118.401 136.282 117.981 136.186 117.477C136.114 116.973 136.27 116.505 136.654 116.073C137.038 115.617 137.506 115.341 138.058 115.245C138.61 115.149 139.174 115.281 139.75 115.641C139.846 115.689 139.93 115.749 140.002 115.821C140.098 115.869 140.194 115.929 140.29 116.001L142.306 114.741C142.714 114.501 142.882 114.261 142.81 114.021C142.762 113.781 142.509 113.661 142.053 113.661H132.046C131.446 113.661 130.965 113.481 130.605 113.121C130.269 112.737 130.102 112.281 130.102 111.753C130.102 111.225 130.269 110.781 130.605 110.421C130.965 110.037 131.446 109.845 132.046 109.845H144.646C145.677 109.845 146.506 110.061 147.13 110.493C147.778 110.925 148.198 111.465 148.39 112.113C148.582 112.761 148.534 113.445 148.246 114.165C147.982 114.861 147.453 115.485 146.661 116.037C146.229 116.349 145.654 116.733 144.934 117.189C144.238 117.645 143.542 118.101 142.846 118.557L142.953 118.737H154.546C155.122 118.737 155.578 118.917 155.914 119.277C156.274 119.637 156.453 120.081 156.453 120.609C156.453 121.137 156.274 121.593 155.914 121.977C155.578 122.337 155.122 122.517 154.546 122.517H144.43C144.574 123.309 144.646 124.137 144.646 125.001C144.646 127.761 143.902 129.789 142.414 131.085C140.95 132.381 138.682 133.029 135.61 133.029ZM126.465 112.941C125.866 112.941 125.338 112.749 124.882 112.365C124.45 111.981 124.233 111.453 124.233 110.781V108.945C124.233 106.953 124.737 105.549 125.745 104.733C126.777 103.917 128.494 103.509 130.894 103.509H137.194V101.097C137.194 100.377 137.422 99.813 137.878 99.405C138.358 98.997 138.933 98.793 139.605 98.793C140.277 98.793 140.842 98.997 141.298 99.405C141.778 99.813 142.018 100.377 142.018 101.097V103.509H148.57C150.994 103.509 152.71 103.917 153.718 104.733C154.726 105.549 155.229 106.953 155.229 108.945V110.781C155.229 111.453 155.014 111.981 154.582 112.365C154.174 112.749 153.657 112.941 153.034 112.941C152.433 112.941 151.906 112.761 151.45 112.401C151.018 112.041 150.801 111.525 150.801 110.853V109.053C150.801 108.357 150.622 107.865 150.262 107.577C149.926 107.265 149.29 107.109 148.354 107.109H131.11C130.198 107.109 129.561 107.265 129.201 107.577C128.841 107.865 128.661 108.357 128.661 109.053V110.853C128.661 111.525 128.446 112.041 128.014 112.401C127.606 112.761 127.09 112.941 126.465 112.941Z" fill="white"/>
<path d="M90.3912 132.308C89.5032 132.572 88.7952 132.56 88.2672 132.272C87.7392 132.008 87.3552 131.564 87.1152 130.94C86.9232 130.364 86.9712 129.788 87.2592 129.212C87.5472 128.636 88.0512 128.264 88.7712 128.096C91.3152 127.424 93.5712 126.596 95.5392 125.612C97.5072 124.628 99.2472 123.512 100.759 122.264C99.2712 120.512 97.9872 118.58 96.9072 116.468C95.8512 114.332 94.9752 112.016 94.2792 109.52H89.0232C88.4952 109.52 88.0392 109.328 87.6552 108.944C87.2712 108.56 87.0792 108.104 87.0792 107.576C87.0792 107.048 87.2712 106.604 87.6552 106.244C88.0392 105.86 88.4952 105.668 89.0232 105.668H101.371V101.348C101.371 100.652 101.599 100.088 102.055 99.6558C102.511 99.2238 103.063 99.0078 103.711 99.0078C104.359 99.0078 104.911 99.2238 105.367 99.6558C105.823 100.088 106.051 100.652 106.051 101.348V105.668H118.327C118.855 105.668 119.299 105.86 119.659 106.244C120.043 106.604 120.235 107.048 120.235 107.576C120.235 108.104 120.043 108.56 119.659 108.944C119.299 109.328 118.855 109.52 118.327 109.52H113.359C112.687 112.016 111.811 114.32 110.731 116.432C109.675 118.544 108.403 120.476 106.915 122.228C108.451 123.5 110.215 124.628 112.207 125.612C114.199 126.596 116.455 127.424 118.975 128.096C119.695 128.264 120.187 128.636 120.451 129.212C120.715 129.788 120.739 130.364 120.523 130.94C120.307 131.564 119.923 132.008 119.371 132.272C118.843 132.536 118.147 132.548 117.283 132.308C111.835 130.7 107.359 128.384 103.855 125.36C102.103 126.848 100.111 128.168 97.8792 129.32C95.6712 130.472 93.1752 131.468 90.3912 132.308ZM103.855 119.096C104.935 117.752 105.859 116.276 106.627 114.668C107.395 113.06 108.043 111.344 108.571 109.52H99.0312C99.5832 111.344 100.243 113.06 101.011 114.668C101.803 116.276 102.751 117.752 103.855 119.096Z" fill="white"/>
<path d="M210.202 77.5008C208.786 77.5008 208.078 76.7928 208.078 75.3768V54.4248C208.078 53.0088 208.762 52.3008 210.13 52.3008C211.522 52.3008 212.218 53.0088 212.218 54.4248V73.6488H223.234C224.65 73.6488 225.358 74.2848 225.358 75.5568C225.358 76.8528 224.65 77.5008 223.234 77.5008H210.202Z" fill="white"/>
<path d="M182.361 77.5008C180.969 77.5008 180.273 76.7928 180.273 75.3768V54.4248C180.273 53.6088 180.477 53.0568 180.885 52.7688C181.317 52.4568 181.941 52.3008 182.757 52.3008C183.861 52.3008 184.701 52.7808 185.277 53.7408L191.649 64.3968L197.949 53.7768C198.285 53.1768 198.669 52.7808 199.101 52.5888C199.557 52.3968 200.145 52.3008 200.865 52.3008C202.281 52.3008 202.989 53.0088 202.989 54.4248V75.3768C202.989 76.7928 202.281 77.5008 200.865 77.5008C199.449 77.5008 198.741 76.7928 198.741 75.3768V59.5368L193.665 68.3208C193.161 69.3048 192.477 69.7968 191.613 69.7968C190.749 69.7968 190.065 69.3048 189.561 68.3208L184.449 59.5368V75.3768C184.449 76.7928 183.753 77.5008 182.361 77.5008Z" fill="white"/>
<path d="M167.103 77.5008C165.687 77.5008 164.979 76.7928 164.979 75.3768V56.1528H159.507C158.091 56.1528 157.383 55.5168 157.383 54.2448C157.383 52.9488 158.091 52.3008 159.507 52.3008H174.591C176.031 52.3008 176.751 52.9488 176.751 54.2448C176.751 55.5168 176.031 56.1528 174.591 56.1528H169.191V75.3768C169.191 76.7928 168.495 77.5008 167.103 77.5008Z" fill="white"/>
<path d="M136.019 77.5008C134.699 77.5008 134.039 76.8408 134.039 75.5208V54.2808C134.039 52.9608 134.699 52.3008 136.019 52.3008H136.199C137.519 52.3008 138.179 52.9608 138.179 54.2808V62.3088H149.627V54.2808C149.627 52.9608 150.299 52.3008 151.643 52.3008H151.859C153.179 52.3008 153.839 52.9608 153.839 54.2808V75.5208C153.839 76.8408 153.179 77.5008 151.859 77.5008H151.643C150.299 77.5008 149.627 76.8408 149.627 75.5208V66.1608H138.179V75.5208C138.179 76.8408 137.519 77.5008 136.199 77.5008H136.019Z" fill="white"/>
</svg>
