<svg width="200" height="90" viewBox="0 0 200 90" fill="none" xmlns="http://www.w3.org/2000/svg">
<g clip-path="url(#clip0_2308_7138)">
<rect width="200" height="90" fill="#FEB79D"/>
<path fill-rule="evenodd" clip-rule="evenodd" d="M-6.18027 85.5257C-5.5206 81.3514 -9.94765 77.2571 -7.65473 73.2393C-4.94813 68.4966 -1.65241 61.9915 7.77154 61.0783C17.9972 60.0873 23.5998 68.8258 33.9785 69.2048C45.8176 69.6371 56.5881 60.196 66.8872 63.2371C76.2425 65.9996 70.121 74.0119 68.9752 79.5387C68.1676 83.4341 61.5364 86.4306 61.2669 90.3457C60.8502 96.3973 75.7689 103.853 67.0229 107.895C58.3557 111.9 45.7383 103.802 34.2527 102.83C27.3162 102.243 20.5655 103.925 13.6182 103.373C4.65786 102.66 -7.2514 103.227 -11.7526 99.1698C-16.3208 95.0519 -6.92748 90.2539 -6.18027 85.5257Z" fill="#FE585B"/>
<path fill-rule="evenodd" clip-rule="evenodd" d="M28.4743 10.5302C32.6486 10.8717 36.7429 8.58004 40.7607 9.76696C45.5034 11.168 52.0085 12.874 52.9217 17.7523C53.9127 23.0456 45.1742 25.9458 44.7952 31.3183C44.3629 37.4467 53.804 43.0221 50.7629 48.3534C48.0004 53.1961 39.9881 50.0274 34.4613 49.4342C30.5659 49.0162 27.5694 45.5836 23.6543 45.444C17.6027 45.2284 10.1469 52.9509 6.10508 48.4236C2.09968 43.9371 10.1975 37.4057 11.1701 31.4602C11.7575 27.8695 10.0747 24.3751 10.6274 20.7788C11.3402 16.1405 10.7727 9.97575 14.8302 7.64571C18.9481 5.281 23.7461 10.1434 28.4743 10.5302Z" fill="#FC7443"/>
<path fill-rule="evenodd" clip-rule="evenodd" d="M173.474 4.53021C177.649 4.87169 181.743 2.58004 185.761 3.76696C190.503 5.16803 197.008 6.87405 197.922 11.7523C198.913 17.0456 190.174 19.9458 189.795 25.3183C189.363 31.4467 198.804 37.0221 195.763 42.3534C193 47.1961 184.988 44.0274 179.461 43.4342C175.566 43.0162 172.569 39.5836 168.654 39.444C162.603 39.2284 155.147 46.9509 151.105 42.4236C147.1 37.9371 155.198 31.4057 156.17 25.4602C156.757 21.8695 155.075 18.3751 155.627 14.7788C156.34 10.1405 155.773 3.97575 159.83 1.64571C163.948 -0.719004 168.746 4.14342 173.474 4.53021Z" fill="#FF8787"/>
<path fill-rule="evenodd" clip-rule="evenodd" d="M117.063 7.20494C131.49 7.9797 144.155 11.9054 154.996 17.5775C166.733 23.7188 176.896 30.8598 179.688 39.9711C183.097 51.0949 184.354 63.7453 171.749 72.2549C158.691 81.0707 136.857 81.4742 117.063 82.2497C95.2362 83.1048 71.8992 84.7511 54.6033 76.8446C35.6156 68.1646 20.8565 53.9771 24.5773 39.9711C28.0889 26.7526 52.1053 19.9805 71.5388 13.0955C85.3864 8.18958 100.98 6.34119 117.063 7.20494Z" fill="#FFAB7A"/>
<ellipse cx="177.989" cy="70.7269" rx="16.7876" ry="14.0511" fill="#F55A57"/>
<ellipse cx="173.713" cy="65.6395" rx="1.21537" ry="2.15126" fill="black"/>
<ellipse cx="182.288" cy="65.6395" rx="1.21537" ry="2.15126" fill="black"/>
<path d="M173.043 72.6426C173.079 74.5703 175.312 76.0917 178.031 76.0408C180.749 75.99 182.924 74.386 182.888 72.4584C182.852 70.5307 180.67 71.7806 177.952 71.8314C175.233 71.8823 173.007 70.7149 173.043 72.6426Z" fill="black"/>
<path d="M170.798 50.9035C173.679 48.6452 180.102 51.1915 180.102 55.0219C180.103 59.542 168.088 61.6232 165.803 61.9782C165.554 62.0169 165.305 62.044 165.056 62.039C163.427 62.0062 157.617 61.2375 170.798 50.9035Z" fill="#6E5232"/>
<path d="M170.798 50.9035C173.679 48.6452 180.102 51.1915 180.102 55.0219C180.103 59.542 168.088 61.6232 165.803 61.9782C165.554 62.0169 165.305 62.044 165.056 62.039C163.427 62.0062 157.617 61.2375 170.798 50.9035Z" fill="url(#paint0_radial_2308_7138)" fill-opacity="0.15"/>
<path d="M185.204 50.7629C182.323 48.5045 175.9 51.0509 175.9 54.8813C175.899 59.4014 187.914 61.4825 190.199 61.8375C190.448 61.8763 190.697 61.9034 190.946 61.8984C192.575 61.8656 198.385 61.0968 185.204 50.7629Z" fill="#6E5232"/>
<path d="M185.204 50.7629C182.323 48.5045 175.9 51.0509 175.9 54.8813C175.899 59.4014 187.914 61.4825 190.199 61.8375C190.448 61.8763 190.697 61.9034 190.946 61.8984C192.575 61.8656 198.385 61.0968 185.204 50.7629Z" fill="url(#paint1_radial_2308_7138)" fill-opacity="0.15"/>
<path d="M83.404 34.2434L83.4067 34.9734L86.5567 34.9617L86.554 34.2317L83.404 34.2434ZM86.5418 30.9517L83.3918 30.9634L83.3941 31.5834L86.5441 31.5717L86.5418 30.9517ZM83.3978 32.5734L83.4003 33.2434L86.5503 33.2317L86.5478 32.5617L83.3978 32.5734ZM89.4787 35.5009C89.48 35.8609 89.344 36.0414 89.0707 36.0424L83.5507 36.0629L84.0321 36.4411C84.3464 36.6866 84.3205 36.91 83.9546 37.1114C83.3825 37.4535 82.6004 37.7731 81.6082 38.0701C81.3285 38.1645 81.0581 38.0655 80.797 37.7731C80.5426 37.4807 80.5386 37.3007 80.785 37.2331C81.0514 37.1588 81.4742 37.0006 82.0533 36.7584C82.6391 36.5163 83.1082 36.2845 83.4607 36.0632L80.9507 36.0725C80.6774 36.0735 80.5401 35.894 80.5387 35.534C80.5374 35.1674 80.6734 34.9835 80.9467 34.9825L82.2267 34.9778L82.2118 30.9678L81.2318 30.9714C80.9585 30.9724 80.8212 30.793 80.8198 30.433C80.8185 30.0663 80.9545 29.8824 81.2278 29.8814L82.2078 29.8778L82.2057 29.3178C82.2047 29.0445 82.4009 28.9071 82.7942 28.9056C83.1875 28.9042 83.3847 29.0401 83.3857 29.3134L83.3878 29.8734L86.5378 29.8618L86.5357 29.3018C86.5347 29.0284 86.7342 28.891 87.1342 28.8895C87.5408 28.888 87.7447 29.0239 87.7457 29.2973L87.7478 29.8573L88.7977 29.8534C89.0711 29.8524 89.2084 30.0352 89.2098 30.4019C89.2111 30.7619 89.0751 30.9424 88.8018 30.9434L87.7518 30.9473L87.7667 34.9572L89.0666 34.9524C89.34 34.9514 89.4773 35.1342 89.4787 35.5009ZM85.9843 37.0339C85.6706 36.915 85.6532 36.7351 85.9323 36.494C86.2181 36.2463 86.5245 36.1818 86.8516 36.3006C87.7928 36.6105 88.5806 36.9309 89.2152 37.2619C89.4289 37.3611 89.3462 37.5347 88.9671 37.7828C88.5881 38.0375 88.2916 38.102 88.0778 37.9761C87.4966 37.6383 86.7988 37.3242 85.9843 37.0339ZM92.2756 29.2605C92.3746 29.0001 92.611 28.9292 92.9848 29.0479C93.3586 29.1665 93.4959 29.3493 93.3968 29.5963C93.2384 30.0303 92.9606 30.618 92.5634 31.3594L92.587 37.7494C92.5881 38.0227 92.3986 38.1601 92.0186 38.1615C91.6386 38.1629 91.4481 38.0269 91.447 37.7536L91.4299 33.1236C91.2574 33.3443 91.1479 33.478 91.1014 33.5249C90.9089 33.7456 90.7018 33.6497 90.4803 33.2372C90.2654 32.8246 90.2443 32.528 90.417 32.3474C90.7027 32.073 91.0476 31.6051 91.4518 30.9435C91.856 30.2754 92.1306 29.7144 92.2756 29.2605ZM95.8143 37.0074L97.9043 36.9997C98.1976 36.9986 98.3906 36.9112 98.4833 36.7375C98.576 36.5638 98.622 36.377 98.6213 36.177C98.6532 35.8102 98.8428 35.6995 99.19 35.8449C99.5439 35.9903 99.6948 36.243 99.6428 36.6032C99.6243 37.0033 99.4956 37.3438 99.2566 37.6247C99.0244 37.9122 98.6049 38.0571 97.9982 38.0593L95.7282 38.0677C95.0282 38.0703 94.5545 37.9521 94.3069 37.713C94.0594 37.4806 93.9343 37.0177 93.9318 36.3244L93.9214 33.5244L93.5419 33.6758C93.289 33.7768 93.0852 33.6542 92.9306 33.3081C92.7826 32.9553 92.8351 32.7318 93.0881 32.6375L93.9169 32.3044L93.9096 30.3544C93.9086 30.0811 94.0948 29.9437 94.4681 29.9424C94.8414 29.941 95.0286 30.077 95.0296 30.3503L95.0352 31.8503L96.0337 31.4566L96.0257 29.2766C96.0246 29.0033 96.2008 28.8659 96.5541 28.8646C96.9141 28.8633 97.0946 28.9993 97.0956 29.2726L97.1022 31.0326L98.54 30.4373L98.9905 30.5756C99.2841 30.6612 99.4015 30.8574 99.3427 31.1643L99.3132 31.3044C99.3059 32.9378 99.2206 34.2148 99.0574 35.1354C99.0248 35.3422 98.845 35.3995 98.518 35.3074C98.191 35.2153 98.0372 35.0758 98.0565 34.8891C98.1344 34.3355 98.1877 33.4286 98.2164 32.1685C98.2288 31.9151 98.1551 31.8187 97.9953 31.8793L97.1067 32.2526L97.1183 35.3826C97.1193 35.6559 96.9398 35.7932 96.5798 35.7946C96.2265 35.7959 96.0493 35.6599 96.0483 35.3865L96.0382 32.6666L95.0397 33.0803L95.0518 36.3202C95.0528 36.6136 95.0969 36.8034 95.1839 36.8898C95.2775 36.9694 95.4876 37.0086 95.8143 37.0074ZM105.813 31.2803C106.18 31.279 106.364 31.4149 106.365 31.6883L106.367 32.2983C106.368 32.5716 106.185 32.709 105.818 32.7103C105.458 32.7116 105.278 32.5756 105.277 32.3023L105.275 31.6923C105.274 31.419 105.453 31.2817 105.813 31.2803ZM107.049 35.4758C107.322 35.4748 107.459 35.6842 107.461 36.1042C107.463 36.5242 107.353 36.7346 107.133 36.7355C107.395 37.1012 107.599 37.2837 107.745 37.2832C107.852 37.2828 107.929 37.2459 107.975 37.1723C108.088 37.0253 108.159 36.5117 108.189 35.6315C108.208 35.3381 108.131 35.1918 107.958 35.1924L105.738 35.2006L105.739 35.4806L107.049 35.4758ZM105.744 37.0306L106.384 36.9982C106.291 36.8786 106.31 36.7918 106.443 36.738L105.743 36.7406L105.744 37.0306ZM106.302 36.2685C106.475 36.2679 106.561 36.1609 106.56 35.9476L105.74 35.9506L105.742 36.2706L106.302 36.2685ZM103.9 35.9574C103.901 36.1708 103.988 36.2771 104.162 36.2765L104.742 36.2743L104.74 35.9543L103.9 35.9574ZM104.738 35.2043L103.928 35.2073L103.619 35.4885L104.739 35.4843L104.738 35.2043ZM102.313 31.1533L102.316 32.1333C102.321 33.3666 102.252 34.4535 102.108 35.3941C102.7 35.0652 103.176 34.6835 103.534 34.2488L103.194 34.25C102.874 34.2512 102.714 34.0918 102.712 33.7718L102.711 33.3318C102.71 33.0118 102.776 32.8516 102.909 32.8511L102.869 32.7412C102.781 32.4216 102.883 32.2412 103.177 32.2001C103.336 32.1728 103.726 32.0981 104.346 31.9758C103.839 31.8376 103.495 31.7622 103.315 31.7496C103.061 31.7105 102.961 31.6076 103.014 31.4407C103.073 31.2671 103.236 31.2032 103.503 31.2489L104.214 31.3862C104.607 31.4581 104.748 31.6409 104.636 31.9347C104.889 31.8871 105.019 31.9599 105.026 32.1532C105.034 32.3465 104.904 32.4704 104.638 32.5247L103.179 32.8501L107.959 32.8324C108.232 32.8314 108.149 32.7883 107.708 32.7033C107.268 32.6116 106.941 32.4561 106.727 32.2369C106.786 32.0634 106.886 31.983 107.026 31.9958C106.871 31.6764 106.984 31.4593 107.363 31.3446L108.083 31.1319L102.313 31.1533ZM107.949 30.1124C107.948 29.9724 107.861 29.9027 107.688 29.9034L102.568 29.9223C102.395 29.923 102.308 30.01 102.309 30.1833L102.31 30.3933L107.69 30.3734C107.863 30.3727 107.949 30.2857 107.949 30.1124ZM107.672 33.7534C107.846 33.7528 107.932 33.6658 107.931 33.4925L107.931 33.3125L107.081 33.3156L107.082 33.7556L107.672 33.7534ZM106.182 33.759L106.181 33.319L105.351 33.322L105.352 33.762L106.182 33.759ZM104.452 33.7654L104.451 33.3254L103.641 33.3284L103.642 33.7684L104.452 33.7654ZM104.535 34.5451L108.825 34.5292C109.145 34.528 109.303 34.7107 109.297 35.0774C109.306 35.5507 109.271 36.0809 109.193 36.6678C109.115 37.2481 109.02 37.6051 108.907 37.7389C108.774 37.9127 108.581 38.0168 108.328 38.051C108.162 38.085 108.018 38.0955 107.898 38.0826C107.585 38.0838 107.405 37.9578 107.357 37.7046L107.167 37.7853C107.008 37.8526 106.891 37.8064 106.817 37.6466C105.59 37.7379 104.317 37.8259 102.998 37.9108C102.691 37.9319 102.524 37.8126 102.496 37.5527C102.475 37.2994 102.522 37.1726 102.635 37.1721C102.755 37.165 103.458 37.1291 104.745 37.0643L104.743 36.7443L103.533 36.7488C103.213 36.75 103.053 36.5906 103.052 36.2706L103.05 35.9106C102.784 36.0849 102.548 36.0625 102.34 35.8432L102.079 35.6242C101.896 36.6715 101.689 37.399 101.457 37.8065C101.365 38.0135 101.145 38.021 100.797 37.829C100.457 37.6369 100.329 37.454 100.415 37.2804C100.925 36.3385 101.176 34.6275 101.166 32.1475L101.157 29.6576C101.156 29.3376 101.315 29.177 101.635 29.1758L108.635 29.1498C108.949 29.1487 109.106 29.3081 109.107 29.6281L109.111 30.6481C109.112 30.9681 108.953 31.1287 108.633 31.1299L108.423 31.1306C108.597 31.4367 108.554 31.6368 108.295 31.7311C108.175 31.7916 107.762 31.8831 107.056 32.0057C107.689 32.0767 108.096 32.1452 108.277 32.2112C108.57 32.2834 108.654 32.4898 108.529 32.8303C108.782 32.8293 108.91 33.0622 108.912 33.5289C108.913 33.9955 108.777 34.2294 108.504 34.2304L104.754 34.2443L104.535 34.5451ZM117.273 36.6379L119.223 36.6307C119.496 36.6296 119.634 36.8191 119.635 37.1991C119.637 37.5725 119.501 37.7596 119.227 37.7606L113.817 37.7807C113.551 37.7817 113.417 37.5955 113.415 37.2222C113.414 36.8422 113.546 36.6517 113.813 36.6507L116.083 36.6423L116.076 34.6423L114.556 34.6479C114.282 34.649 114.145 34.4661 114.144 34.0995C114.142 33.7261 114.278 33.539 114.552 33.5379L116.072 33.5323L116.065 31.8923L114.965 31.8964C114.821 32.4103 114.692 32.7541 114.579 32.9278C114.467 33.1616 114.234 33.1891 113.88 33.0104C113.526 32.8317 113.408 32.6222 113.527 32.3817L113.646 32.1613L113.527 32.2217C113.227 32.3562 113.027 32.2669 112.926 31.954L112.693 31.2748L112.717 37.6948C112.718 37.9681 112.518 38.1055 112.118 38.107C111.725 38.1085 111.528 37.9725 111.527 37.6992L111.502 30.9592C111.426 32.0395 111.309 32.8166 111.151 33.2906C111.091 33.5041 110.915 33.5581 110.621 33.4525C110.328 33.3469 110.214 33.1907 110.279 32.9838C110.445 32.5498 110.549 32.0028 110.593 31.3426C110.638 30.9091 110.824 30.7151 111.151 30.7605L111.501 30.8092L111.495 29.1792C111.494 28.9059 111.691 28.7685 112.084 28.7671C112.484 28.7656 112.684 28.9015 112.685 29.1748L112.691 30.6548L112.841 30.5943C113.127 30.4732 113.341 30.5591 113.482 30.8519C113.562 30.9849 113.676 31.2578 113.825 31.6706C114.069 30.9497 114.223 30.2858 114.287 29.6789C114.326 29.3788 114.539 29.2546 114.926 29.3065C115.313 29.3584 115.483 29.5178 115.438 29.7846L115.261 30.7753L116.061 30.7723L116.056 29.2223C116.055 28.949 116.251 28.8116 116.644 28.8102C117.044 28.8087 117.245 28.9446 117.246 29.2179L117.251 30.7679L118.881 30.7619C119.155 30.7609 119.292 30.947 119.293 31.3204C119.295 31.6937 119.159 31.8809 118.885 31.8819L117.255 31.8879L117.262 33.5279L118.682 33.5226C118.955 33.5216 119.092 33.7078 119.094 34.0811C119.095 34.4478 118.959 34.6316 118.686 34.6326L117.266 34.6379L117.273 36.6379Z" fill="#FE585B"/>
<path d="M80.553 50.0725C80.552 49.7951 80.4128 49.657 80.1355 49.658L77.5115 49.6677C78.1158 51.5428 79.1341 52.8724 80.5663 53.6564L80.553 50.0725ZM71.9436 49.6884C71.6662 49.6894 71.5281 49.8286 71.5291 50.1059L71.543 53.8659C73.0652 53.0176 74.0947 51.6217 74.6315 49.6784L71.9436 49.6884ZM81.7286 47.7961C82.2406 47.7942 82.4976 48.0492 82.4995 48.5612L82.5306 56.9612C82.5326 57.4945 82.4701 57.9001 82.3431 58.1779C82.2162 58.4664 81.9504 58.702 81.5457 58.8848C81.1411 59.0783 80.4641 59.1715 79.5147 59.1644C78.8855 59.1774 78.463 58.8643 78.2473 58.2251C78.0422 57.5858 78.121 57.2709 78.4838 57.2802C78.7078 57.29 79.2785 57.2932 80.1958 57.2898C80.4518 57.2889 80.5794 57.1711 80.5785 56.9364L80.5679 54.0724C80.1217 54.5648 79.8987 54.8322 79.8988 54.8749C79.6336 55.2706 79.2872 55.3305 78.8595 55.0548C77.7051 54.4084 76.7669 53.1052 76.045 51.1452C75.3273 53.1958 74.3296 54.5489 73.052 55.2043C72.6263 55.4619 72.2634 55.3939 71.9633 55.0003L71.5452 54.4579L71.5605 58.5698C71.5621 59.0072 71.2376 59.227 70.5869 59.2295C69.9469 59.2318 69.6261 59.0144 69.6245 58.577L69.5876 48.6091C69.5857 48.0971 69.8407 47.8401 70.3527 47.8383L75.2487 47.8201L75.1656 47.0044C75.1433 46.7272 74.9934 46.589 74.7161 46.5901L73.0841 46.5961C72.6468 46.5977 72.4271 46.3212 72.425 45.7666C72.423 45.2119 72.6406 44.9337 73.0779 44.9321L76.0219 44.9212C76.5233 44.9194 76.7962 45.169 76.8407 45.6702L77.0567 47.8134L81.7286 47.7961ZM87.2789 47.3275C87.0016 47.3285 86.8634 47.4677 86.8645 47.745L86.867 48.433C86.8686 48.8704 86.5495 49.0902 85.9095 49.0926C85.2801 49.0949 84.9647 48.8774 84.963 48.4401L84.9552 46.3281C84.9533 45.8161 85.2084 45.5592 85.7203 45.5573L91.0163 45.5376L90.8066 45.0744C90.6238 44.6804 90.8788 44.4075 91.5716 44.2556C92.2643 44.1037 92.7021 44.2247 92.8849 44.6187L93.3043 45.5292L98.2483 45.5108C98.7603 45.5089 99.0172 45.764 99.0191 46.276L99.0269 48.388C99.0286 48.8253 98.6934 49.0452 98.0214 49.0477C97.3494 49.0502 97.0126 48.8328 97.0109 48.3954L97.0084 47.7074C97.0074 47.4301 96.8682 47.292 96.5909 47.293L87.2789 47.3275ZM93.5256 49.1284C93.1728 48.895 93.2143 48.5909 93.6503 48.2159C94.0969 47.8409 94.4966 47.7648 94.8494 47.9875C95.2449 48.1993 95.8383 48.5865 96.6297 49.1489C97.4318 49.7112 97.9079 50.0828 98.0579 50.2636C98.3361 50.5079 98.236 50.8389 97.7576 51.2567C97.2791 51.6745 96.9061 51.7612 96.6385 51.5168C96.4992 51.336 96.0391 50.9484 95.2582 50.354C94.488 49.7595 93.9105 49.3509 93.5256 49.1284ZM88.5939 48.1226C88.8594 47.8017 89.3018 47.7467 89.9213 47.9577C90.5407 48.1581 90.723 48.4294 90.4683 48.7717C90.2031 49.1567 89.6877 49.6813 88.9221 50.3454C88.1672 51.0096 87.5769 51.4544 87.1511 51.68C86.7998 51.884 86.3993 51.7361 85.9494 51.2365C85.5102 50.7368 85.4823 50.3955 85.8656 50.2128C86.2064 50.0728 86.7119 49.7456 87.382 49.2311C88.0521 48.7273 88.4561 48.3578 88.5939 48.1226ZM89.4955 53.9593L94.8395 53.9395C93.7808 53.2288 92.9463 52.5545 92.336 51.9168C92.1539 51.7255 91.9726 51.7315 91.792 51.9348C91.261 52.5555 90.4955 53.2303 89.4955 53.9593ZM89.1869 57.0325C89.1879 57.3098 89.3271 57.448 89.6044 57.447L94.4044 57.4292C94.6817 57.4281 94.8199 57.289 94.8189 57.0116L94.8139 55.6676L89.1819 55.6885L89.1869 57.0325ZM91.2877 49.6967C91.5211 49.3331 91.9208 49.273 92.4871 49.5162C93.0533 49.7595 93.2516 50.0147 93.0819 50.282C94.6453 51.9082 96.6179 53.1543 98.9998 54.0201C99.4804 54.189 99.5191 54.5462 99.1158 55.0917C98.7125 55.6372 98.3132 55.8253 97.9179 55.6561C97.7576 55.5821 97.3942 55.3967 96.8278 55.1002L96.8399 58.3641C96.8418 58.8761 96.5867 59.1331 96.0747 59.135L88.0428 59.1648C87.5308 59.1667 87.2739 58.9116 87.272 58.3996L87.2606 55.3436C86.6857 55.6338 86.3024 55.8165 86.1107 55.8919C85.706 56.0641 85.2946 55.8896 84.8767 55.3685C84.4694 54.8366 84.4788 54.4953 84.9049 54.3444C86.0768 53.9453 87.3063 53.2848 88.5936 52.3627C89.9022 51.4405 90.8002 50.5518 91.2877 49.6967ZM109.298 48.1259C109.885 48.1237 110.179 48.3413 110.18 48.7786L110.184 49.7546C110.186 50.192 109.893 50.4117 109.307 50.4139C108.731 50.416 108.442 50.1984 108.44 49.7611L108.436 48.7851C108.435 48.3478 108.722 48.128 109.298 48.1259ZM111.275 54.8386C111.712 54.837 111.932 55.1722 111.935 55.8442C111.937 56.5162 111.762 56.8528 111.41 56.8541C111.829 57.4393 112.155 57.7314 112.39 57.7305C112.56 57.7299 112.683 57.6708 112.757 57.5531C112.937 57.3178 113.052 56.496 113.1 55.0879C113.13 54.6184 113.007 54.3842 112.729 54.3852L109.177 54.3984L109.179 54.8464L111.275 54.8386ZM109.188 57.3264L110.212 57.2746C110.062 57.0831 110.093 56.9443 110.306 56.8582L109.186 56.8624L109.188 57.3264ZM110.08 56.1071C110.357 56.106 110.495 55.9349 110.494 55.5935L109.182 55.5984L109.184 56.1104L110.08 56.1071ZM106.238 55.6093C106.239 55.9506 106.378 56.1208 106.656 56.1197L107.584 56.1163L107.582 55.6043L106.238 55.6093ZM107.577 54.4043L106.281 54.4091L105.787 54.859L107.579 54.8523L107.577 54.4043ZM103.697 47.9227L103.703 49.4906C103.71 51.464 103.599 53.2031 103.37 54.7079C104.318 54.1817 105.078 53.5709 105.652 52.8754L105.108 52.8775C104.596 52.8794 104.339 52.6243 104.337 52.1123L104.334 51.4083C104.332 50.8963 104.438 50.6399 104.651 50.6391L104.587 50.4634C104.446 49.9519 104.61 49.6633 105.079 49.5975C105.335 49.5539 105.959 49.4343 106.95 49.2386C106.139 49.0176 105.589 48.897 105.301 48.8767C104.895 48.8142 104.735 48.6495 104.819 48.3825C104.914 48.1048 105.175 48.0025 105.602 48.0756L106.739 48.2954C107.368 48.4104 107.593 48.7029 107.414 49.1729C107.819 49.0967 108.027 49.2133 108.039 49.5226C108.051 49.8319 107.844 50.03 107.417 50.1169L105.083 50.6375L112.731 50.6092C113.169 50.6076 113.035 50.5387 112.33 50.4027C111.626 50.256 111.102 50.0072 110.76 49.6565C110.855 49.3788 111.014 49.2502 111.238 49.2707C110.991 48.7596 111.171 48.4123 111.778 48.2287L112.929 47.8884L103.697 47.9227ZM112.715 46.2572C112.714 46.0332 112.575 45.9217 112.298 45.9228L104.106 45.9531C103.829 45.9542 103.69 46.0933 103.691 46.3707L103.693 46.7067L112.301 46.6748C112.578 46.6737 112.716 46.5346 112.715 46.2572ZM112.273 52.0829C112.55 52.0819 112.688 51.9427 112.687 51.6654L112.686 51.3774L111.326 51.3824L111.329 52.0864L112.273 52.0829ZM109.889 52.0917L109.886 51.3877L108.558 51.3927L108.561 52.0967L109.889 52.0917ZM107.121 52.102L107.118 51.398L105.822 51.4028L105.825 52.1068L107.121 52.102ZM107.253 53.3495L114.117 53.3241C114.629 53.3222 114.881 53.6146 114.873 54.2013C114.886 54.9586 114.831 55.8068 114.706 56.7459C114.581 57.6744 114.429 58.2456 114.248 58.4596C114.036 58.7377 113.727 58.9042 113.322 58.9591C113.056 59.0134 112.826 59.0302 112.634 59.0096C112.133 59.0115 111.844 58.8099 111.768 58.4048L111.465 58.5339C111.209 58.6416 111.022 58.5676 110.904 58.312C108.942 58.458 106.905 58.5988 104.793 58.7347C104.303 58.7685 104.035 58.5775 103.991 58.1616C103.958 57.7564 104.032 57.5535 104.213 57.5528C104.405 57.5414 105.53 57.4839 107.588 57.3803L107.586 56.8683L105.65 56.8755C105.138 56.8774 104.881 56.6223 104.88 56.1103L104.877 55.5343C104.452 55.8132 104.073 55.7773 103.741 55.4265L103.324 55.0761C103.031 56.7519 102.7 57.9158 102.329 58.5678C102.181 58.899 101.829 58.911 101.273 58.6037C100.728 58.2964 100.524 58.0038 100.662 57.726C101.477 56.2189 101.878 53.4814 101.863 49.5135L101.848 45.5295C101.846 45.0175 102.102 44.7606 102.614 44.7587L113.813 44.7171C114.315 44.7153 114.566 44.9704 114.568 45.4823L114.574 47.1143C114.576 47.6263 114.321 47.8833 113.809 47.8852L113.473 47.8864C113.752 48.3761 113.684 48.6963 113.269 48.8472C113.077 48.9439 112.416 49.0903 111.286 49.2865C112.3 49.4001 112.951 49.5097 113.24 49.6153C113.709 49.7309 113.844 50.0611 113.643 50.6058C114.049 50.6043 114.253 50.9769 114.255 51.7235C114.258 52.4702 114.041 52.8444 113.604 52.846L107.604 52.8682L107.253 53.3495ZM127.634 56.698L130.754 56.6864C131.191 56.6848 131.411 56.988 131.413 57.596C131.416 58.1933 131.198 58.4928 130.761 58.4944L122.105 58.5265C121.678 58.5281 121.464 58.2302 121.461 57.6329C121.459 57.0249 121.671 56.7201 122.098 56.7185L125.73 56.7051L125.718 53.5051L123.286 53.5141C122.849 53.5157 122.629 53.2232 122.627 52.6365C122.625 52.0392 122.842 51.7397 123.28 51.7381L125.712 51.7291L125.702 49.1051L123.942 49.1116C123.71 49.9338 123.504 50.4839 123.324 50.7619C123.144 51.1359 122.771 51.18 122.204 50.8941C121.638 50.6082 121.45 50.2729 121.641 49.8882L121.831 49.5355L121.64 49.6322C121.16 49.8473 120.84 49.7045 120.678 49.2037L120.306 48.1171L120.344 58.389C120.346 58.8264 120.027 59.0462 119.387 59.0486C118.757 59.0509 118.442 58.8334 118.44 58.3961L118.4 47.6122C118.279 49.3406 118.091 50.584 117.838 51.3423C117.743 51.684 117.461 51.7703 116.991 51.6014C116.521 51.4325 116.339 51.1825 116.444 50.8514C116.708 50.1571 116.876 49.2818 116.946 48.2256C117.019 47.5319 117.316 47.2215 117.839 47.2942L118.399 47.3722L118.39 44.7642C118.388 44.3268 118.702 44.107 119.331 44.1047C119.971 44.1023 120.292 44.3198 120.294 44.7571L120.302 47.1251L120.542 47.0282C121 46.8345 121.342 46.9719 121.568 47.4404C121.696 47.6533 121.879 48.0899 122.116 48.7504C122.507 47.5969 122.754 46.5347 122.857 45.5636C122.919 45.0834 123.259 44.8848 123.878 44.9678C124.497 45.0509 124.77 45.3059 124.697 45.7328L124.415 47.3179L125.695 47.3131L125.686 44.8331C125.684 44.3958 125.998 44.176 126.628 44.1736C127.267 44.1713 127.588 44.3887 127.59 44.8261L127.599 47.3061L130.207 47.2964C130.644 47.2948 130.864 47.5926 130.866 48.19C130.869 48.7873 130.651 49.0868 130.214 49.0884L127.606 49.098L127.615 51.722L129.887 51.7136C130.325 51.712 130.545 52.0098 130.547 52.6072C130.549 53.1938 130.331 53.488 129.894 53.4896L127.622 53.498L127.634 56.698Z" fill="black" fill-opacity="0.85"/>
</g>
<defs>
<radialGradient id="paint0_radial_2308_7138" cx="0" cy="0" r="1" gradientUnits="userSpaceOnUse" gradientTransform="translate(0.560609 46.8353) rotate(65.4889) scale(3.32531 8.21233)">
<stop offset="0.33" stop-opacity="0"/>
<stop offset="0.655" stop-opacity="0.6"/>
<stop offset="1"/>
</radialGradient>
<radialGradient id="paint1_radial_2308_7138" cx="0" cy="0" r="1" gradientUnits="userSpaceOnUse" gradientTransform="translate(355.3 45.8572) rotate(114.511) scale(3.32531 8.21233)">
<stop offset="0.33" stop-opacity="0"/>
<stop offset="0.655" stop-opacity="0.6"/>
<stop offset="1"/>
</radialGradient>
<clipPath id="clip0_2308_7138">
<rect width="200" height="90" fill="white"/>
</clipPath>
</defs>
</svg>
