<svg width="200" height="90" viewBox="0 0 200 90" fill="none" xmlns="http://www.w3.org/2000/svg">
<g clip-path="url(#clip0_1720_1946)">
<rect width="200" height="90" fill="#FEB79D"/>
<path fill-rule="evenodd" clip-rule="evenodd" d="M-6.18027 85.5257C-5.5206 81.3514 -9.94765 77.2571 -7.65473 73.2393C-4.94813 68.4966 -1.65241 61.9915 7.77154 61.0783C17.9972 60.0873 23.5998 68.8258 33.9785 69.2048C45.8176 69.6371 56.5881 60.196 66.8872 63.2371C76.2425 65.9996 70.121 74.0119 68.9752 79.5387C68.1676 83.4341 61.5364 86.4306 61.2669 90.3457C60.8502 96.3973 75.7689 103.853 67.0229 107.895C58.3557 111.9 45.7383 103.802 34.2527 102.83C27.3162 102.243 20.5655 103.925 13.6182 103.373C4.65786 102.66 -7.2514 103.227 -11.7526 99.1698C-16.3208 95.0519 -6.92748 90.2539 -6.18027 85.5257Z" fill="#FE585B"/>
<path fill-rule="evenodd" clip-rule="evenodd" d="M28.4743 10.5302C32.6486 10.8717 36.7429 8.58004 40.7607 9.76696C45.5034 11.168 52.0085 12.874 52.9217 17.7523C53.9127 23.0456 45.1742 25.9458 44.7952 31.3183C44.3629 37.4467 53.804 43.0221 50.7629 48.3534C48.0004 53.1961 39.9881 50.0274 34.4613 49.4342C30.5659 49.0162 27.5694 45.5836 23.6543 45.444C17.6027 45.2284 10.1469 52.9509 6.10508 48.4236C2.09968 43.9371 10.1975 37.4057 11.1701 31.4602C11.7575 27.8695 10.0747 24.3751 10.6274 20.7788C11.3402 16.1405 10.7727 9.97575 14.8302 7.64571C18.9481 5.281 23.7461 10.1434 28.4743 10.5302Z" fill="#FC7443"/>
<path fill-rule="evenodd" clip-rule="evenodd" d="M173.474 4.53021C177.649 4.87169 181.743 2.58004 185.761 3.76696C190.503 5.16803 197.008 6.87405 197.922 11.7523C198.913 17.0456 190.174 19.9458 189.795 25.3183C189.363 31.4467 198.804 37.0221 195.763 42.3534C193 47.1961 184.988 44.0274 179.461 43.4342C175.566 43.0162 172.569 39.5836 168.654 39.444C162.603 39.2284 155.147 46.9509 151.105 42.4236C147.1 37.9371 155.198 31.4057 156.17 25.4602C156.757 21.8695 155.075 18.3751 155.627 14.7788C156.34 10.1405 155.773 3.97575 159.83 1.64571C163.948 -0.719004 168.746 4.14342 173.474 4.53021Z" fill="#FF8787"/>
<path fill-rule="evenodd" clip-rule="evenodd" d="M117.063 7.20494C131.49 7.9797 144.155 11.9054 154.996 17.5775C166.733 23.7188 176.896 30.8598 179.688 39.9711C183.097 51.0949 184.354 63.7453 171.749 72.2549C158.691 81.0707 136.857 81.4742 117.063 82.2497C95.2362 83.1048 71.8992 84.7511 54.6033 76.8446C35.6156 68.1646 20.8565 53.9771 24.5773 39.9711C28.0889 26.7526 52.1053 19.9805 71.5388 13.0955C85.3864 8.18958 100.98 6.34119 117.063 7.20494Z" fill="#FFAB7A"/>
<ellipse cx="177.987" cy="70.7269" rx="16.7876" ry="14.0511" fill="#F55A57"/>
<ellipse cx="173.711" cy="65.6395" rx="1.21537" ry="2.15126" fill="black"/>
<ellipse cx="182.286" cy="65.6395" rx="1.21537" ry="2.15126" fill="black"/>
<path d="M173.043 72.6445C173.079 74.5722 175.312 76.0937 178.031 76.0428C180.749 75.9919 182.924 74.388 182.888 72.4603C182.852 70.5326 180.67 71.7825 177.952 71.8334C175.233 71.8843 173.007 70.7168 173.043 72.6445Z" fill="black"/>
<path d="M170.796 50.9035C173.677 48.6452 180.1 51.1915 180.1 55.0219C180.101 59.542 168.086 61.6232 165.801 61.9782C165.552 62.0169 165.303 62.044 165.054 62.039C163.425 62.0062 157.615 61.2375 170.796 50.9035Z" fill="#6E5232"/>
<path d="M170.796 50.9035C173.677 48.6452 180.1 51.1915 180.1 55.0219C180.101 59.542 168.086 61.6232 165.801 61.9782C165.552 62.0169 165.303 62.044 165.054 62.039C163.425 62.0062 157.615 61.2375 170.796 50.9035Z" fill="url(#paint0_radial_1720_1946)" fill-opacity="0.15"/>
<path d="M185.2 50.7629C182.319 48.5045 175.896 51.0509 175.896 54.8813C175.896 59.4014 187.91 61.4825 190.195 61.8375C190.445 61.8763 190.693 61.9034 190.942 61.8984C192.571 61.8656 198.381 61.0968 185.2 50.7629Z" fill="#6E5232"/>
<path d="M185.2 50.7629C182.319 48.5045 175.896 51.0509 175.896 54.8813C175.896 59.4014 187.91 61.4825 190.195 61.8375C190.445 61.8763 190.693 61.9034 190.942 61.8984C192.571 61.8656 198.381 61.0968 185.2 50.7629Z" fill="url(#paint1_radial_1720_1946)" fill-opacity="0.15"/>
<path d="M79.6265 37.0971C79.4466 37.1244 79.2898 37.095 79.1562 37.0088C79.0225 36.9293 78.9387 36.803 78.9048 36.6298C78.8775 36.4565 78.9136 36.3131 79.0132 36.1993C79.1128 36.0856 79.2458 36.0152 79.4124 35.9879C79.5923 35.9539 79.7955 35.9131 80.0219 35.8656C80.2551 35.8181 80.5016 35.7705 80.7614 35.7229L80.7571 34.5629C80.4976 34.7038 80.2348 34.8348 79.9686 34.9558C79.709 35.0701 79.4527 35.1744 79.1997 35.2687C79.0066 35.336 78.84 35.3433 78.6998 35.2905C78.5596 35.2377 78.4559 35.1314 78.3886 34.9717C78.3348 34.8319 78.3376 34.6952 78.3971 34.5616C78.4566 34.4214 78.5829 34.3176 78.7759 34.2502C79.3685 34.048 79.921 33.8093 80.4333 33.5341C80.9523 33.2521 81.4045 32.9471 81.7899 32.619L78.7999 32.6301C78.6666 32.6306 78.5531 32.5844 78.4594 32.4914C78.3657 32.3984 78.3187 32.2852 78.3182 32.1519C78.3177 32.0186 78.3639 31.9051 78.4569 31.8114C78.5499 31.7177 78.6631 31.6706 78.7964 31.6701L82.3864 31.6568L82.3844 31.1168L79.9344 31.1259C79.8077 31.1264 79.6975 31.0801 79.6039 30.9871C79.5102 30.8941 79.4631 30.7843 79.4626 30.6576C79.4622 30.531 79.5084 30.4241 79.6014 30.3371C79.6944 30.2434 79.8043 30.1964 79.9309 30.1959L82.3809 30.1868L82.379 29.6668L79.139 29.6788C79.0123 29.6793 78.9022 29.633 78.8085 29.5401C78.7148 29.4471 78.6677 29.3372 78.6673 29.2106C78.6668 29.0772 78.713 28.9671 78.806 28.8801C78.899 28.7864 79.0089 28.7393 79.1355 28.7388L82.3755 28.7268L82.3742 28.3768C82.3735 28.1902 82.433 28.0433 82.5526 27.9362C82.6721 27.8224 82.8153 27.7652 82.9819 27.7646C83.1553 27.7639 83.2988 27.8201 83.4126 27.933C83.533 28.0392 83.5935 28.1856 83.5942 28.3723L83.5955 28.7223L86.8055 28.7104C86.9388 28.7099 87.049 28.7562 87.136 28.8492C87.2296 28.9355 87.2767 29.0453 87.2772 29.1787C87.2777 29.3053 87.2314 29.4155 87.1384 29.5092C87.0521 29.6028 86.9423 29.6499 86.809 29.6504L83.599 29.6623L83.6009 30.1823L86.0509 30.1732C86.1842 30.1727 86.2944 30.219 86.3814 30.312C86.4684 30.3983 86.5121 30.5048 86.5126 30.6315C86.5131 30.7582 86.4701 30.8683 86.3838 30.962C86.2975 31.0556 86.1877 31.1027 86.0543 31.1032L83.6044 31.1123L83.6064 31.6523L87.1463 31.6392C87.2797 31.6387 87.3932 31.6849 87.4868 31.7779C87.5805 31.8709 87.6276 31.9841 87.6281 32.1174C87.6286 32.2507 87.5824 32.3642 87.4894 32.4579C87.3964 32.5516 87.2832 32.5987 87.1499 32.5992L83.7899 32.6116C83.9174 32.8378 84.0516 33.0573 84.1924 33.2701C84.3398 33.4763 84.4905 33.6724 84.6445 33.8585C84.8042 33.7579 84.9771 33.6439 85.1633 33.5165C85.3561 33.3892 85.5357 33.2652 85.7019 33.1445C85.8748 33.0239 86.0078 32.9267 86.1008 32.8531C86.2204 32.7526 86.3603 32.7054 86.5203 32.7115C86.687 32.7109 86.8172 32.7771 86.911 32.9101C87.0048 33.0364 87.0453 33.1729 87.0326 33.3196C87.0198 33.4663 86.9535 33.5866 86.8339 33.6803C86.6743 33.8009 86.4549 33.9517 86.1756 34.1328C85.9029 34.3071 85.6401 34.4681 85.3873 34.6157C85.6616 34.8614 85.9524 35.087 86.2599 35.2925C86.5739 35.4913 86.9013 35.6768 87.2419 35.8488C87.3755 35.915 87.4693 36.0247 87.5232 36.1778C87.577 36.3243 87.5643 36.4743 87.4848 36.628C87.3988 36.7949 87.2658 36.8954 87.0859 36.9294C86.9061 36.9634 86.7326 36.9374 86.5656 36.8514C85.7641 36.4277 85.0387 35.8903 84.3897 35.2394C83.7405 34.5818 83.2278 33.8504 82.8515 33.0451C82.5725 33.3128 82.2635 33.5739 81.9244 33.8285L81.9305 35.4785C82.2103 35.4242 82.4735 35.3699 82.7199 35.3156C82.973 35.2547 83.1895 35.2005 83.3693 35.1532C83.5358 35.1126 83.6825 35.122 83.8094 35.1816C83.9363 35.2411 84.0167 35.3475 84.0506 35.5007C84.098 35.6805 84.0785 35.8272 83.9923 35.9409C83.906 36.0479 83.7863 36.1217 83.6331 36.1622C83.3867 36.2298 83.0969 36.3042 82.7639 36.3854C82.4309 36.4733 82.0779 36.5613 81.7049 36.6494C81.3385 36.7374 80.9755 36.8187 80.6158 36.8934C80.256 36.9681 79.9263 37.036 79.6265 37.0971ZM92.3153 34.04C92.1622 34.1139 92.0056 34.1378 91.8455 34.1118C91.6921 34.079 91.5751 33.9861 91.4945 33.8331C91.4273 33.7 91.4135 33.5634 91.453 33.4232C91.4991 33.2764 91.592 33.1694 91.7318 33.1022C92.1178 32.9141 92.5036 32.6927 92.8893 32.4379C93.2817 32.1764 93.644 31.8984 93.9762 31.6039C93.849 31.4577 93.7285 31.3114 93.6146 31.1652C93.5007 31.0123 93.3901 30.8527 93.2828 30.6864C93.0972 30.9538 92.9081 31.1945 92.7155 31.4085C92.6093 31.5223 92.4762 31.5927 92.3163 31.62C92.163 31.6406 92.0296 31.6044 91.9159 31.5115C91.8089 31.4186 91.7484 31.2954 91.7345 31.1422C91.7206 30.9889 91.7668 30.8587 91.8731 30.7516C92.0923 30.5375 92.3047 30.28 92.5102 29.9793C92.7224 29.6718 92.9179 29.3544 93.0967 29.0271C93.2821 28.6931 93.4376 28.3825 93.5632 28.0954C93.6294 27.9484 93.7323 27.8447 93.8721 27.7842C94.0119 27.7237 94.1552 27.7232 94.3021 27.7826C94.449 27.8421 94.546 27.9451 94.5932 28.0915C94.6471 28.238 94.641 28.378 94.5748 28.5116C94.5483 28.565 94.5185 28.6252 94.4855 28.6919C94.459 28.752 94.4292 28.8122 94.3961 28.8723L95.5961 28.8678C95.9028 28.8667 96.143 28.9391 96.3169 29.0852C96.4908 29.2245 96.5914 29.4041 96.6189 29.624C96.6464 29.8373 96.5905 30.0608 96.4514 30.2947C96.3256 30.5218 96.1864 30.739 96.0338 30.9462C95.8879 31.1534 95.732 31.354 95.566 31.548C95.8736 31.7735 96.1943 31.9823 96.5284 32.1744C96.8624 32.3665 97.2031 32.5386 97.5503 32.6906C97.6905 32.7568 97.7876 32.8697 97.8416 33.0295C97.8955 33.1827 97.886 33.336 97.8133 33.4896C97.7272 33.6566 97.5943 33.7605 97.4144 33.8011C97.2412 33.8351 97.0678 33.8091 96.8941 33.7231C96.5268 33.5377 96.1627 33.3324 95.8018 33.1071C95.441 32.8818 95.0967 32.6364 94.7691 32.3709C94.4169 32.6922 94.0347 32.9936 93.6224 33.2752C93.2101 33.55 92.7744 33.805 92.3153 34.04ZM90.3864 37.0472C90.2331 37.0478 90.1029 36.9982 89.9958 36.8986C89.8955 36.799 89.845 36.6659 89.8444 36.4992L89.8316 33.0592C89.7257 33.2663 89.6231 33.46 89.5238 33.6404C89.4244 33.8207 89.3317 33.9778 89.2455 34.1114C89.1593 34.2451 89.0397 34.3322 88.8865 34.3727C88.74 34.4133 88.5999 34.3905 88.4662 34.3043C88.3393 34.2314 88.2589 34.1217 88.225 33.9752C88.1911 33.8286 88.2173 33.6952 88.3035 33.5749C88.4295 33.3944 88.5654 33.1773 88.7111 32.9234C88.8568 32.6695 89.0025 32.4056 89.1482 32.1318C89.2938 31.8512 89.4261 31.5807 89.5452 31.3203C89.6642 31.0532 89.7566 30.8195 89.8226 30.6192L88.8126 30.623C88.6526 30.6236 88.5257 30.5741 88.432 30.4744C88.3383 30.3681 88.2912 30.2449 88.2906 30.1049C88.2901 29.9583 88.3363 29.8347 88.4293 29.7344C88.5222 29.6341 88.6487 29.5836 88.8087 29.583L89.8187 29.5793L89.814 28.2993C89.8133 28.1259 89.8628 27.9924 89.9625 27.8987C90.0688 27.7983 90.1986 27.7478 90.3519 27.7473C90.5053 27.7467 90.6354 27.7962 90.7425 27.8958C90.8495 27.9888 90.9033 28.1219 90.904 28.2952L90.9087 29.5752L91.7087 29.5722C91.8687 29.5717 91.9955 29.6212 92.0893 29.7208C92.183 29.8205 92.2301 29.9436 92.2306 30.0903C92.2311 30.2303 92.1849 30.3538 92.092 30.4608C91.999 30.5612 91.8726 30.6116 91.7126 30.6122L90.9126 30.6152L90.9133 30.8052C91.007 30.9182 91.1209 31.0578 91.2548 31.2239C91.3887 31.3834 91.5227 31.5429 91.6566 31.7025C91.7972 31.8553 91.911 31.9782 91.998 32.0712C92.1117 32.1774 92.1655 32.3106 92.1594 32.4706C92.16 32.6239 92.1038 32.7541 91.9909 32.8612C91.878 32.9683 91.7448 33.0155 91.5914 33.0027C91.438 32.9899 91.3111 32.9271 91.2107 32.8141C91.1705 32.7676 91.1237 32.7144 91.0701 32.6546C91.0232 32.5881 90.973 32.5217 90.9194 32.4552L90.9344 36.4952C90.935 36.6618 90.8821 36.7954 90.7758 36.8958C90.6695 36.9961 90.5397 37.0466 90.3864 37.0472ZM94.6756 36.8313C94.1356 36.8333 93.7088 36.7815 93.395 36.676C93.0813 36.5772 92.8574 36.4047 92.7231 36.1585C92.5955 35.9057 92.5309 35.5559 92.5292 35.1092C92.5276 34.6626 92.5896 34.3157 92.7154 34.0685C92.8478 33.8147 93.0704 33.6372 93.3834 33.5361C93.6963 33.4282 94.1228 33.3733 94.6628 33.3713C95.2028 33.3693 95.6263 33.4211 95.9334 33.5266C96.2471 33.6255 96.4677 33.8013 96.5953 34.0542C96.7296 34.3003 96.7975 34.6468 96.7992 35.0934C96.8009 35.5401 96.7355 35.8903 96.6031 36.1442C96.4773 36.3913 96.258 36.5654 95.945 36.6666C95.6388 36.7744 95.2156 36.8293 94.6756 36.8313ZM94.6719 35.8213C94.9519 35.8203 95.1618 35.8028 95.3017 35.769C95.4482 35.7284 95.5446 35.6547 95.5909 35.5479C95.6438 35.441 95.6699 35.2876 95.6692 35.0876C95.6685 34.8943 95.6412 34.7477 95.5875 34.6479C95.5405 34.5481 95.4436 34.4784 95.2968 34.439C95.1566 34.3995 94.9465 34.3803 94.6665 34.3813C94.3865 34.3824 94.1733 34.4031 94.0268 34.4437C93.8869 34.4842 93.7905 34.5579 93.7376 34.6648C93.6846 34.765 93.6585 34.9051 93.6591 35.0851C93.6599 35.2851 93.6871 35.4383 93.7408 35.5448C93.7946 35.6512 93.8915 35.7242 94.0317 35.7637C94.1785 35.8031 94.3919 35.8223 94.6719 35.8213ZM94.7433 30.821C94.9226 30.607 95.0751 30.3998 95.201 30.1993C95.3667 29.932 95.2896 29.799 94.9696 29.8002L93.9496 29.8039C94.1776 30.1698 94.4422 30.5088 94.7433 30.821ZM106.416 36.8878C106.176 36.802 105.905 36.6863 105.605 36.5408C105.304 36.3952 105.007 36.233 104.713 36.0541C104.419 35.8752 104.158 35.6995 103.931 35.527C103.811 35.4341 103.74 35.3177 103.72 35.1778C103.706 35.0311 103.742 34.901 103.828 34.7874C103.901 34.7004 103.981 34.6435 104.067 34.6165L101.987 34.6242C102.028 34.644 102.068 34.6672 102.108 34.6937C102.148 34.7203 102.181 34.7535 102.208 34.7934C102.302 34.9197 102.332 35.0529 102.3 35.193C102.273 35.3265 102.207 35.4367 102.101 35.5238C101.901 35.6845 101.659 35.8521 101.373 36.0265C101.087 36.2009 100.791 36.362 100.484 36.5098C100.185 36.6575 99.9088 36.7819 99.6558 36.8828C99.4628 36.9569 99.2895 36.9742 99.136 36.9348C98.9826 36.902 98.8689 36.8024 98.7949 36.636C98.7277 36.4829 98.7238 36.3363 98.7833 36.1961C98.8428 36.0558 98.9591 35.9554 99.1322 35.8948C99.3852 35.8005 99.6514 35.6895 99.931 35.5618C100.217 35.4274 100.49 35.2897 100.749 35.1488C101.009 35.0011 101.232 34.8603 101.418 34.7263C101.444 34.7062 101.471 34.6894 101.498 34.676C101.531 34.6559 101.561 34.6391 101.587 34.6257L98.8575 34.6358C98.7175 34.6363 98.5973 34.5901 98.497 34.4971C98.4033 34.3975 98.3562 34.281 98.3557 34.1476C98.3552 34.0076 98.4014 33.8908 98.4944 33.7971C98.594 33.6968 98.7138 33.6463 98.8538 33.6458L99.2338 33.6444L99.1394 29.7547C99.1316 29.4547 99.1541 29.2146 99.2068 29.0345C99.2661 28.8476 99.3755 28.7005 99.5351 28.5932C99.6947 28.4793 99.9244 28.3851 100.224 28.3107C100.337 28.2769 100.451 28.2465 100.564 28.2194C100.684 28.1856 100.8 28.1519 100.913 28.1181C101.04 28.0843 101.16 28.0905 101.273 28.1368C101.387 28.1764 101.464 28.2627 101.504 28.3959C101.552 28.5424 101.545 28.6691 101.486 28.776C101.433 28.8762 101.34 28.9432 101.207 28.977C101.12 29.004 101.027 29.0344 100.927 29.0681C100.827 29.0951 100.74 29.1154 100.667 29.129C100.461 29.1831 100.331 29.247 100.278 29.3205C100.225 29.3873 100.202 29.5241 100.209 29.7307L100.21 30.0407L100.99 30.0378C101.124 30.0374 101.234 30.0803 101.321 30.1666C101.415 30.2529 101.462 30.3628 101.462 30.4961C101.463 30.6228 101.416 30.7329 101.323 30.8266C101.237 30.9136 101.127 30.9573 100.994 30.9578L100.234 30.9607L100.257 31.8206L100.997 31.8178C101.13 31.8173 101.241 31.8603 101.328 31.9466C101.421 32.0329 101.468 32.1428 101.469 32.2761C101.469 32.4028 101.423 32.5129 101.33 32.6066C101.244 32.6936 101.134 32.7373 101 32.7378L100.28 32.7405L100.304 33.6404L101.794 33.6349L101.787 31.9149C101.787 31.7749 101.833 31.6647 101.926 31.5844C102.019 31.4974 102.129 31.4536 102.256 31.4532C102.389 31.4527 102.499 31.4956 102.586 31.5819C102.68 31.6616 102.727 31.7714 102.727 31.9114L102.734 33.6314L103.284 33.6294L103.276 31.6394C103.276 31.4461 103.249 31.3228 103.195 31.2697C103.148 31.2099 103.018 31.1803 102.805 31.1811C102.425 31.1825 102.158 31.1135 102.004 30.9741C101.857 30.828 101.782 30.5582 101.781 30.1649L101.774 28.3349C101.774 28.1816 101.823 28.0581 101.923 27.9644C102.022 27.8707 102.142 27.8236 102.282 27.823C102.422 27.8225 102.542 27.8687 102.643 27.9617C102.75 28.0546 102.804 28.1778 102.804 28.3311L102.806 28.7711L103.846 28.7673C103.966 28.7668 104.069 28.8098 104.156 28.8961C104.243 28.9758 104.287 29.0756 104.287 29.1956C104.288 29.3156 104.245 29.4191 104.159 29.5061C104.072 29.5931 103.969 29.6368 103.849 29.6372L102.809 29.6411L102.81 29.9411C102.811 30.1211 102.845 30.2376 102.911 30.2907C102.978 30.3371 103.108 30.36 103.302 30.3593C103.615 30.3581 103.845 30.4373 103.993 30.5967C104.146 30.7495 104.224 31.0159 104.226 31.3959L104.234 33.6258L105.684 33.6205L105.701 32.7304L104.951 32.7332C104.824 32.7337 104.714 32.6874 104.62 32.5944C104.533 32.5014 104.489 32.3916 104.489 32.2649C104.488 32.1382 104.531 32.0314 104.618 31.9444C104.711 31.8507 104.82 31.8037 104.947 31.8032L105.717 31.8003L105.724 30.9403L104.944 30.9432C104.817 30.9437 104.707 30.9007 104.613 30.8144C104.526 30.7214 104.483 30.6116 104.482 30.4849C104.482 30.3516 104.525 30.2414 104.611 30.1544C104.704 30.0674 104.814 30.0237 104.94 30.0232L105.74 30.0202L105.749 29.7102C105.755 29.4968 105.721 29.357 105.648 29.2906C105.574 29.2175 105.431 29.1814 105.217 29.1822L104.747 29.1839C104.621 29.1844 104.511 29.1381 104.417 29.0451C104.323 28.9522 104.276 28.8423 104.276 28.7157C104.275 28.5823 104.321 28.4688 104.414 28.3751C104.507 28.2815 104.617 28.2344 104.744 28.2339L105.284 28.2319C105.69 28.2304 106.004 28.2759 106.224 28.3684C106.451 28.4543 106.609 28.6037 106.696 28.8167C106.783 29.0297 106.821 29.3229 106.809 29.6963L106.744 33.6165L107.144 33.6151C107.284 33.6145 107.401 33.6641 107.494 33.7638C107.595 33.8567 107.645 33.9732 107.646 34.1132C107.646 34.2465 107.597 34.3634 107.497 34.4638C107.404 34.5574 107.287 34.6045 107.147 34.6051L104.397 34.6152C104.431 34.6218 104.464 34.635 104.498 34.6549C104.538 34.6747 104.571 34.6946 104.598 34.7145C104.798 34.8538 105.036 34.9996 105.309 35.1519C105.583 35.2975 105.864 35.4365 106.151 35.5688C106.445 35.6943 106.705 35.7967 106.932 35.8759C107.086 35.922 107.189 36.0116 107.243 36.1447C107.304 36.2845 107.308 36.4278 107.255 36.5747C107.189 36.7616 107.073 36.872 106.906 36.906C106.746 36.9466 106.583 36.9405 106.416 36.8878ZM109.626 36.9859C109.446 37.0132 109.29 36.9838 109.156 36.8976C109.022 36.8181 108.939 36.6918 108.905 36.5186C108.877 36.3453 108.913 36.2019 109.013 36.0882C109.113 35.9744 109.246 35.904 109.412 35.8767C109.592 35.8427 109.795 35.8019 110.022 35.7544C110.255 35.7069 110.501 35.6593 110.761 35.6117L110.757 34.4517C110.497 34.5926 110.235 34.7236 109.968 34.8446C109.709 34.9589 109.453 35.0632 109.2 35.1575C109.006 35.2248 108.84 35.2321 108.7 35.1793C108.559 35.1265 108.456 35.0202 108.388 34.8605C108.335 34.7207 108.337 34.584 108.397 34.4504C108.456 34.3102 108.583 34.2064 108.776 34.139C109.368 33.9368 109.921 33.6981 110.433 33.4229C110.952 33.1409 111.404 32.8359 111.79 32.5078L108.8 32.5189C108.666 32.5194 108.553 32.4732 108.459 32.3802C108.366 32.2872 108.318 32.174 108.318 32.0407C108.317 31.9074 108.364 31.7939 108.457 31.7002C108.55 31.6065 108.663 31.5594 108.796 31.5589L112.386 31.5456L112.384 31.0056L109.934 31.0147C109.808 31.0152 109.697 30.9689 109.604 30.8759C109.51 30.7829 109.463 30.6731 109.462 30.5464C109.462 30.4198 109.508 30.3129 109.601 30.2259C109.694 30.1323 109.804 30.0852 109.931 30.0847L112.381 30.0756L112.379 29.5556L109.139 29.5676C109.012 29.5681 108.902 29.5219 108.808 29.4289C108.715 29.3359 108.668 29.2261 108.667 29.0994C108.667 28.9661 108.713 28.8559 108.806 28.7689C108.899 28.6752 109.009 28.6281 109.135 28.6276L112.375 28.6156L112.374 28.2656C112.373 28.079 112.433 27.9321 112.552 27.825C112.672 27.7112 112.815 27.654 112.982 27.6534C113.155 27.6527 113.299 27.7089 113.412 27.8218C113.533 27.928 113.593 28.0745 113.594 28.2611L113.595 28.6111L116.805 28.5992C116.939 28.5987 117.049 28.645 117.136 28.738C117.229 28.8243 117.277 28.9341 117.277 29.0675C117.277 29.1941 117.231 29.3043 117.138 29.398C117.052 29.4916 116.942 29.5387 116.809 29.5392L113.599 29.5511L113.601 30.0711L116.051 30.062C116.184 30.0615 116.294 30.1078 116.381 30.2008C116.468 30.2871 116.512 30.3937 116.512 30.5203C116.513 30.647 116.47 30.7571 116.384 30.8508C116.297 30.9444 116.187 30.9915 116.054 30.992L113.604 31.0011L113.606 31.5411L117.146 31.528C117.279 31.5275 117.393 31.5737 117.487 31.6667C117.58 31.7597 117.627 31.8729 117.628 32.0062C117.628 32.1395 117.582 32.253 117.489 32.3467C117.396 32.4404 117.283 32.4875 117.15 32.488L113.79 32.5004C113.917 32.7266 114.051 32.9461 114.192 33.1589C114.34 33.3651 114.49 33.5612 114.644 33.7473C114.804 33.6467 114.977 33.5327 115.163 33.4053C115.356 33.278 115.535 33.154 115.702 33.0333C115.875 32.9127 116.008 32.8155 116.101 32.7419C116.22 32.6414 116.36 32.5942 116.52 32.6003C116.687 32.5997 116.817 32.6659 116.911 32.7989C117.005 32.9252 117.045 33.0617 117.032 33.2084C117.02 33.3551 116.953 33.4754 116.834 33.5691C116.674 33.6897 116.455 33.8406 116.175 34.0216C115.903 34.1959 115.64 34.3569 115.387 34.5045C115.661 34.7502 115.952 34.9758 116.26 35.1813C116.574 35.3801 116.901 35.5656 117.242 35.7376C117.375 35.8038 117.469 35.9135 117.523 36.0666C117.577 36.2131 117.564 36.3631 117.485 36.5168C117.399 36.6837 117.266 36.7842 117.086 36.8182C116.906 36.8522 116.732 36.8262 116.565 36.7402C115.764 36.3165 115.039 35.7791 114.389 35.1282C113.74 34.4706 113.228 33.7392 112.851 32.9339C112.572 33.2016 112.263 33.4628 111.924 33.7173L111.93 35.3673C112.21 35.313 112.473 35.2587 112.72 35.2044C112.973 35.1435 113.189 35.0893 113.369 35.042C113.536 35.0014 113.682 35.0108 113.809 35.0704C113.936 35.1299 114.017 35.2363 114.05 35.3895C114.098 35.5693 114.078 35.716 113.992 35.8297C113.906 35.9367 113.786 36.0105 113.633 36.051C113.386 36.1186 113.097 36.193 112.764 36.2743C112.431 36.3622 112.078 36.4501 111.705 36.5382C111.338 36.6262 110.975 36.7075 110.616 36.7822C110.256 36.8569 109.926 36.9248 109.626 36.9859ZM123.017 37.0763C122.857 37.0768 122.717 37.024 122.596 36.9178C122.482 36.8116 122.425 36.6684 122.425 36.4884L122.421 35.5485L118.801 35.5619C118.654 35.5624 118.541 35.5195 118.461 35.4331C118.38 35.3401 118.34 35.2302 118.339 35.1036C118.339 34.9702 118.378 34.8601 118.458 34.7731C118.538 34.6862 118.651 34.6424 118.798 34.6419L122.418 34.6285L122.416 34.0885L121.706 34.0911C121.292 34.0926 120.956 34.0705 120.695 34.0248C120.435 33.9791 120.232 33.8932 120.084 33.7671C119.944 33.641 119.847 33.4613 119.792 33.2282C119.738 32.995 119.71 32.6951 119.709 32.3285C119.708 31.9618 119.733 31.6651 119.786 31.4382C119.838 31.2047 119.934 31.0243 120.074 30.8971C120.22 30.7699 120.423 30.6825 120.683 30.6349C120.943 30.5872 121.279 30.5626 121.693 30.5611L124.273 30.5516C124.686 30.55 125.023 30.5721 125.283 30.6178C125.543 30.6635 125.743 30.7494 125.884 30.8756C126.031 31.0017 126.132 31.1813 126.186 31.4145C126.24 31.6409 126.268 31.9375 126.269 32.3042C126.27 32.6708 126.245 32.9709 126.192 33.2045C126.14 33.438 126.041 33.6184 125.894 33.7456C125.755 33.8727 125.555 33.9602 125.295 34.0078C125.036 34.0554 124.699 34.08 124.286 34.0815L123.586 34.0841L123.588 34.6241L127.218 34.6107C127.364 34.6101 127.478 34.653 127.558 34.7394C127.638 34.8258 127.679 34.9356 127.679 35.069C127.68 35.1956 127.64 35.3058 127.561 35.3994C127.481 35.4864 127.368 35.5301 127.221 35.5307L123.591 35.5441L123.595 36.4841C123.595 36.6641 123.539 36.8076 123.426 36.9147C123.313 37.0218 123.177 37.0757 123.017 37.0763ZM125.031 30.1987C124.538 30.2006 124.164 30.1686 123.911 30.1029C123.657 30.0372 123.487 29.9178 123.4 29.7448C123.319 29.5717 123.278 29.3252 123.277 29.0052C123.276 28.6852 123.315 28.4384 123.394 28.2648C123.48 28.0911 123.65 27.9738 123.903 27.9129C124.156 27.8453 124.529 27.8106 125.022 27.8088C125.516 27.8069 125.886 27.8389 126.133 27.9046C126.386 27.9637 126.553 28.0797 126.634 28.2528C126.721 28.4258 126.766 28.6723 126.767 28.9923C126.768 29.3123 126.726 29.5591 126.64 29.7328C126.56 29.9064 126.394 30.027 126.141 30.0946C125.894 30.1622 125.525 30.1969 125.031 30.1987ZM120.931 30.2139C120.438 30.2158 120.064 30.1838 119.811 30.1181C119.564 30.0523 119.397 29.933 119.31 29.7599C119.229 29.5869 119.188 29.3404 119.187 29.0204C119.186 28.7004 119.225 28.4536 119.304 28.28C119.39 28.1063 119.556 27.989 119.803 27.9281C120.056 27.8605 120.429 27.8258 120.922 27.824C121.416 27.8221 121.786 27.8541 122.033 27.9198C122.28 27.9789 122.443 28.095 122.524 28.268C122.611 28.441 122.656 28.6875 122.657 29.0075C122.658 29.3275 122.616 29.5744 122.53 29.748C122.45 29.9216 122.287 30.0422 122.041 30.1098C121.794 30.1774 121.425 30.2121 120.931 30.2139ZM125.028 29.3887C125.315 29.3877 125.495 29.3637 125.568 29.3167C125.648 29.2698 125.687 29.163 125.687 28.9963C125.686 28.823 125.642 28.7165 125.556 28.6768C125.475 28.6371 125.299 28.6177 125.025 28.6187C124.739 28.6198 124.555 28.6438 124.476 28.6908C124.402 28.7377 124.366 28.8479 124.367 29.0212C124.367 29.1879 124.405 29.2911 124.478 29.3308C124.558 29.3705 124.742 29.3898 125.028 29.3887ZM120.928 29.4039C121.215 29.4029 121.395 29.3789 121.468 29.3319C121.541 29.285 121.577 29.1782 121.577 29.0115C121.576 28.8382 121.536 28.7317 121.456 28.692C121.375 28.6523 121.199 28.6329 120.925 28.6339C120.639 28.635 120.456 28.659 120.376 28.706C120.303 28.7529 120.266 28.8631 120.267 29.0364C120.268 29.2031 120.305 29.3063 120.378 29.346C120.458 29.3857 120.642 29.405 120.928 29.4039ZM121.743 33.2409L122.412 33.2385L122.411 32.7085L120.891 32.7141C120.905 32.9474 120.969 33.0938 121.082 33.1534C121.196 33.213 121.416 33.2422 121.743 33.2409ZM123.582 33.2341L124.252 33.2316C124.579 33.2304 124.796 33.1996 124.902 33.1392C125.015 33.0788 125.081 32.9319 125.101 32.6985L123.581 32.7041L123.582 33.2341ZM120.888 31.9241L122.408 31.9185L122.406 31.4085L121.736 31.411C121.409 31.4122 121.189 31.443 121.076 31.5034C120.97 31.5571 120.907 31.6974 120.888 31.9241ZM123.578 31.9141L125.088 31.9085C125.067 31.682 125 31.5422 124.886 31.4893C124.779 31.4297 124.566 31.4005 124.246 31.4017L123.576 31.4041L123.578 31.9141Z" fill="#FE585B"/>
<path d="M66.4876 58.9547C66.1998 58.9985 65.949 58.9514 65.7351 58.8135C65.5213 58.6863 65.3872 58.4842 65.3329 58.207C65.2892 57.9298 65.347 57.7003 65.5063 57.5184C65.6656 57.3364 65.8786 57.2237 66.1451 57.18C66.4329 57.1256 66.758 57.0604 67.1203 56.9844C67.4934 56.9083 67.8878 56.8322 68.3035 56.756L68.2966 54.9C67.8815 55.1256 67.4609 55.3351 67.0349 55.5287C66.6196 55.7116 66.2096 55.8784 65.8048 56.0293C65.4959 56.1371 65.2292 56.1487 65.0049 56.0642C64.7806 55.9797 64.6146 55.8097 64.507 55.5541C64.4209 55.3304 64.4254 55.1117 64.5206 54.898C64.6158 54.6737 64.8178 54.5076 65.1267 54.3998C66.0749 54.0762 66.9588 53.6943 67.7785 53.2539C68.6089 52.8028 69.3324 52.3148 69.9491 51.7899L65.1651 51.8076C64.9518 51.8084 64.7702 51.7344 64.6203 51.5856C64.4704 51.4368 64.3951 51.2558 64.3943 51.0424C64.3935 50.8291 64.4675 50.6475 64.6163 50.4976C64.7651 50.3477 64.9461 50.2724 65.1594 50.2716L70.9034 50.2503L70.9002 49.3863L66.9802 49.4009C66.7776 49.4016 66.6013 49.3276 66.4514 49.1788C66.3015 49.03 66.2262 48.8543 66.2255 48.6516C66.2247 48.449 66.2987 48.278 66.4476 48.1388C66.5963 47.9889 66.7721 47.9136 66.9747 47.9129L70.8947 47.8983L70.8916 47.0663L65.7076 47.0856C65.505 47.0863 65.3287 47.0123 65.1788 46.8635C65.0289 46.7147 64.9536 46.539 64.9529 46.3363C64.9521 46.123 65.0261 45.9467 65.1749 45.8075C65.3237 45.6576 65.4994 45.5823 65.7021 45.5816L70.886 45.5623L70.884 45.0024C70.8828 44.7037 70.978 44.4687 71.1693 44.2973C71.3607 44.1152 71.5897 44.0237 71.8563 44.0227C72.1337 44.0217 72.3633 44.1115 72.5453 44.2922C72.738 44.4621 72.8348 44.6965 72.8359 44.9951L72.838 45.5551L77.974 45.5361C78.1873 45.5353 78.3636 45.6093 78.5028 45.7581C78.6527 45.8962 78.728 46.072 78.7288 46.2853C78.7295 46.4879 78.6555 46.6642 78.5067 46.8141C78.3686 46.964 78.1929 47.0393 77.9796 47.0401L72.8436 47.0591L72.8467 47.8911L76.7667 47.8766C76.98 47.8758 77.1563 47.9498 77.2955 48.0986C77.4347 48.2368 77.5046 48.4072 77.5054 48.6098C77.5061 48.8125 77.4374 48.9888 77.2993 49.1386C77.1612 49.2884 76.9855 49.3638 76.7722 49.3646L72.8522 49.3791L72.8554 50.2431L78.5194 50.2221C78.7327 50.2213 78.9143 50.2953 79.0642 50.4441C79.2141 50.5928 79.2894 50.7739 79.2902 50.9872C79.291 51.2006 79.217 51.3822 79.0682 51.5321C78.9194 51.6819 78.7384 51.7573 78.525 51.7581L73.1491 51.778C73.3531 52.1399 73.5677 52.4911 73.793 52.8316C74.0289 53.1614 74.2701 53.4752 74.5165 53.7729C74.7719 53.612 75.0486 53.4296 75.3465 53.2259C75.655 53.0221 75.9423 52.8237 76.2083 52.6307C76.4849 52.4376 76.6976 52.2822 76.8465 52.1643C77.038 52.0036 77.2617 51.9281 77.5177 51.9378C77.7844 51.9368 77.9928 52.0427 78.1429 52.2555C78.293 52.4576 78.3578 52.676 78.3373 52.9108C78.3169 53.1455 78.2109 53.3379 78.0195 53.488C77.7642 53.6809 77.4131 53.9222 76.9661 54.2119C76.5298 54.4908 76.1095 54.7484 75.705 54.9846C76.1438 55.3776 76.6091 55.7385 77.101 56.0674C77.6035 56.3855 78.1273 56.6823 78.6723 56.9576C78.8861 57.0634 79.036 57.2389 79.1223 57.4839C79.2085 57.7183 79.188 57.9583 79.0609 58.2041C78.9233 58.4713 78.7105 58.6321 78.4227 58.6865C78.1349 58.7409 77.8574 58.6993 77.5903 58.5616C76.3077 57.8837 75.1472 57.024 74.1087 55.9825C73.0701 54.9303 72.2498 53.76 71.6476 52.4716C71.2012 52.8999 70.7068 53.3177 70.1643 53.7251L70.1741 56.3651C70.6217 56.2781 71.0428 56.1912 71.4371 56.1044C71.8421 56.0069 72.1884 55.9203 72.4762 55.8445C72.7426 55.7795 72.9773 55.7947 73.1803 55.8899C73.3833 55.9852 73.512 56.1554 73.5662 56.4005C73.642 56.6882 73.6108 56.923 73.4728 57.1048C73.3348 57.276 73.1432 57.3941 72.8981 57.459C72.5039 57.5671 72.0403 57.6862 71.5075 57.8161C70.9746 57.9568 70.4098 58.0975 69.813 58.2384C69.2269 58.3793 68.646 58.5094 68.0704 58.6289C67.4949 58.7483 66.9673 58.857 66.4876 58.9547ZM87.9123 59.0993C87.6563 59.1003 87.432 59.0158 87.2394 58.8458C87.0574 58.6758 86.9659 58.4468 86.9648 58.1588L86.9593 56.6548L81.1673 56.6763C80.9326 56.6772 80.751 56.6085 80.6225 56.4703C80.494 56.3215 80.4293 56.1457 80.4286 55.9431C80.4278 55.7297 80.4911 55.5535 80.6186 55.4143C80.7461 55.2752 80.9272 55.2052 81.1618 55.2043L86.9538 55.1829L86.9506 54.3189L85.8146 54.3231C85.1533 54.3255 84.6145 54.2902 84.1982 54.2171C83.7819 54.1439 83.4561 54.0065 83.2207 53.8047C82.9959 53.6029 82.8402 53.3154 82.7535 52.9424C82.6668 52.5694 82.6223 52.0896 82.6201 51.5029C82.618 50.9162 82.6589 50.4414 82.7429 50.0784C82.8268 49.7048 82.9804 49.4162 83.2036 49.2127C83.4376 49.0092 83.7624 48.8693 84.1781 48.7931C84.5938 48.7169 85.1323 48.6776 85.7937 48.6751L89.9216 48.6598C90.583 48.6574 91.1218 48.6927 91.538 48.7658C91.9543 48.8389 92.2748 48.9764 92.4996 49.1783C92.735 49.3801 92.8961 49.6675 92.9828 50.0405C93.0695 50.4028 93.1139 50.8773 93.1161 51.464C93.1182 52.0507 93.0773 52.5308 92.9934 52.9045C92.9095 53.2781 92.7505 53.5667 92.5166 53.7702C92.2934 53.9737 91.9739 54.1136 91.5582 54.1898C91.1424 54.266 90.6039 54.3053 89.9426 54.3078L88.8226 54.3119L88.8258 55.1759L94.6338 55.1544C94.8684 55.1535 95.05 55.2222 95.1785 55.3604C95.307 55.4986 95.3717 55.6743 95.3725 55.8877C95.3732 56.0903 95.3099 56.2666 95.1824 56.4164C95.0549 56.5555 94.8739 56.6255 94.6392 56.6264L88.8312 56.6479L88.8368 58.1519C88.8379 58.4399 88.7481 58.6696 88.5674 58.8409C88.3867 59.0122 88.1683 59.0984 87.9123 59.0993ZM91.1356 48.0953C90.3462 48.0982 89.7487 48.0471 89.343 47.942C88.9373 47.8368 88.6645 47.6458 88.5249 47.369C88.3958 47.0921 88.3304 46.6977 88.3285 46.1857C88.3266 45.6737 88.3891 45.2788 88.5161 45.001C88.6537 44.7232 88.925 44.5355 89.33 44.438C89.7349 44.3298 90.3321 44.2743 91.1214 44.2713C91.9107 44.2684 92.5029 44.3195 92.898 44.4248C93.3037 44.5192 93.571 44.7049 93.7 44.9818C93.8397 45.2586 93.9105 45.653 93.9124 46.165C93.9143 46.677 93.8465 47.0719 93.7088 47.3498C93.5818 47.6276 93.3159 47.8206 92.911 47.9287C92.5167 48.0369 91.9249 48.0924 91.1356 48.0953ZM84.5756 48.1196C83.7863 48.1226 83.1888 48.0714 82.783 47.9663C82.388 47.8611 82.1206 47.6701 81.9809 47.3932C81.8519 47.1164 81.7864 46.722 81.7845 46.21C81.7826 45.698 81.8451 45.3031 81.9721 45.0253C82.1098 44.7474 82.3757 44.5598 82.77 44.4623C83.175 44.3541 83.7721 44.2986 84.5614 44.2957C85.3508 44.2927 85.943 44.3439 86.338 44.4491C86.733 44.5436 86.9951 44.7293 87.1241 45.0062C87.2638 45.283 87.3346 45.6774 87.3365 46.1894C87.3384 46.7014 87.2705 47.0963 87.1329 47.3741C87.0059 47.6519 86.7453 47.8449 86.351 47.953C85.9567 48.0612 85.3649 48.1167 84.5756 48.1196ZM91.1308 46.7993C91.5894 46.7976 91.8773 46.7592 91.9943 46.6841C92.1221 46.609 92.1854 46.4381 92.1844 46.1714C92.1834 45.8941 92.1134 45.7237 91.9745 45.6602C91.8463 45.5967 91.5635 45.5657 91.1262 45.5673C90.6675 45.569 90.3743 45.6074 90.2466 45.6826C90.1296 45.7577 90.0715 45.9339 90.0726 46.2112C90.0736 46.4779 90.1328 46.643 90.2504 46.7066C90.3786 46.7701 90.6721 46.801 91.1308 46.7993ZM84.5708 46.8236C85.0295 46.8219 85.3173 46.7835 85.4344 46.7084C85.5514 46.6333 85.6095 46.4624 85.6085 46.1958C85.6075 45.9185 85.5428 45.748 85.4146 45.6845C85.2863 45.621 85.0036 45.59 84.5662 45.5916C84.1076 45.5933 83.8144 45.6318 83.6867 45.7069C83.5696 45.782 83.5116 45.9582 83.5126 46.2356C83.5136 46.5022 83.5729 46.6673 83.6905 46.7309C83.8187 46.7944 84.1121 46.8253 84.5708 46.8236ZM85.8736 52.9628L86.9456 52.9589L86.9424 52.1109L84.5104 52.1199C84.5331 52.4931 84.6354 52.7274 84.817 52.8228C84.9987 52.9181 85.3509 52.9648 85.8736 52.9628ZM88.8175 52.9519L89.8895 52.948C90.4122 52.946 90.7587 52.8967 90.929 52.8001C91.11 52.7034 91.2158 52.4684 91.2464 52.0949L88.8144 52.1039L88.8175 52.9519ZM84.5057 50.8559L86.9377 50.8469L86.9347 50.0309L85.8627 50.0349C85.3401 50.0368 84.9882 50.0861 84.8073 50.1828C84.6369 50.2687 84.5364 50.4931 84.5057 50.8559ZM88.8097 50.84L91.2257 50.831C91.1924 50.4684 91.0849 50.2448 90.9032 50.1602C90.7322 50.0648 90.3907 50.0181 89.8787 50.02L88.8067 50.024L88.8097 50.84ZM98.1822 58.5013C97.8306 58.6092 97.5372 58.605 97.3021 58.4885C97.0671 58.3827 96.9011 58.202 96.8041 57.9464C96.7179 57.7014 96.7223 57.4667 96.8175 57.2423C96.9127 57.018 97.1147 56.8519 97.4237 56.7441C98.6807 56.3021 99.6008 55.6213 100.184 54.7018C100.767 53.7716 101.061 52.5279 101.066 50.9705L97.6903 50.983C97.4343 50.984 97.2153 50.8995 97.0334 50.7295C96.862 50.5488 96.7759 50.3358 96.775 50.0904C96.774 49.8344 96.8586 49.6208 97.0286 49.4495C97.2093 49.2675 97.4276 49.176 97.6836 49.175L110.052 49.1292C110.308 49.1283 110.521 49.2181 110.693 49.3988C110.864 49.5689 110.95 49.7819 110.951 50.0379C110.952 50.2832 110.867 50.4969 110.697 50.6788C110.527 50.8501 110.314 50.9362 110.058 50.9372L106.49 50.9504L106.507 55.4944C106.509 55.8891 106.6 56.1554 106.782 56.2934C106.964 56.4207 107.348 56.4833 107.935 56.4811C108.297 56.4798 108.569 56.4467 108.75 56.3821C108.942 56.3067 109.086 56.1888 109.181 56.0285C109.287 55.8681 109.393 55.6437 109.499 55.3553C109.583 55.1203 109.742 54.9544 109.977 54.8575C110.211 54.75 110.467 54.7544 110.745 54.8707C111.023 54.9763 111.204 55.1356 111.291 55.3487C111.387 55.5616 111.404 55.8016 111.341 56.0685C111.204 56.581 111.009 57.0084 110.754 57.3507C110.499 57.6929 110.143 57.9449 109.685 58.1066C109.237 58.279 108.64 58.3665 107.894 58.3693C107.062 58.3724 106.405 58.3001 105.925 58.1526C105.455 58.0156 105.118 57.7662 104.914 57.4043C104.721 57.0317 104.623 56.5147 104.62 55.8534L104.602 50.9574L102.986 50.9634C102.983 52.9261 102.573 54.549 101.756 55.832C100.94 57.1044 99.7483 57.9941 98.1822 58.5013ZM99.1622 46.6255C98.9275 46.6264 98.7192 46.5419 98.5372 46.3719C98.3659 46.1912 98.2798 45.9835 98.2789 45.7488C98.278 45.5035 98.3626 45.2952 98.5326 45.1239C98.7133 44.9525 98.921 44.8664 99.1556 44.8656L108.548 44.8307C108.793 44.8298 109.001 44.9144 109.173 45.0844C109.344 45.2545 109.43 45.4621 109.431 45.7075C109.432 45.9421 109.347 46.1505 109.177 46.3324C109.007 46.5037 108.799 46.5898 108.554 46.5907L99.1622 46.6255ZM119.88 58.8368C119.613 58.8378 119.383 58.748 119.191 58.5674C119.009 58.3974 118.917 58.1684 118.916 57.8804L118.905 55.0324C117.924 55.0681 116.98 55.1036 116.074 55.1389C115.178 55.1636 114.431 55.1877 113.834 55.2112C113.247 55.2134 112.942 54.9532 112.919 54.4306C112.908 54.2067 112.982 54.0197 113.141 53.8698C113.301 53.7199 113.524 53.639 113.812 53.6273C114.228 53.6258 114.74 53.6239 115.348 53.6216C115.956 53.6193 116.607 53.6116 117.3 53.5984C116.969 53.3543 116.626 53.1209 116.274 52.8982C115.931 52.6648 115.643 52.4738 115.407 52.3254C115.226 52.2087 115.113 52.0438 115.07 51.8306C115.037 51.6174 115.084 51.4252 115.211 51.2541C115.349 51.0722 115.525 50.9543 115.738 50.9001C115.951 50.846 116.159 50.8772 116.362 50.9938C116.48 51.0681 116.619 51.1582 116.779 51.2643C116.951 51.3703 117.122 51.487 117.293 51.6144C117.378 51.4967 117.479 51.3577 117.595 51.1973C117.723 51.0368 117.845 50.871 117.961 50.6999L113.193 50.7176C112.991 50.7183 112.82 50.6496 112.681 50.5115C112.541 50.3733 112.472 50.2029 112.471 50.0002C112.47 49.7976 112.539 49.6267 112.677 49.4875C112.815 49.3483 112.985 49.2783 113.188 49.2776L118.884 49.2565L118.881 48.5525L114.865 48.5674C114.673 48.5681 114.508 48.5047 114.369 48.3772C114.24 48.239 114.176 48.0739 114.175 47.8819C114.174 47.7006 114.238 47.5457 114.365 47.4172C114.503 47.278 114.668 47.2081 114.86 47.2074L118.876 47.1925L118.874 46.4885L113.93 46.5068C113.738 46.5075 113.572 46.4388 113.433 46.3007C113.294 46.1625 113.224 45.9974 113.223 45.8054C113.223 45.6134 113.291 45.4478 113.429 45.3087C113.568 45.1695 113.733 45.0995 113.925 45.0988L118.869 45.0805L118.867 44.6485C118.866 44.3605 118.956 44.1308 119.136 43.9595C119.328 43.7775 119.557 43.6859 119.823 43.6849C120.101 43.6839 120.33 43.7737 120.512 43.9544C120.705 44.1243 120.802 44.3533 120.803 44.6413L120.805 45.0733L125.797 45.0548C125.989 45.0541 126.154 45.1228 126.293 45.261C126.432 45.3991 126.502 45.5642 126.503 45.7562C126.504 45.9482 126.435 46.1138 126.297 46.253C126.159 46.3921 125.994 46.4621 125.802 46.4628L120.81 46.4813L120.812 47.1853L124.924 47.1701C125.106 47.1694 125.266 47.2381 125.405 47.3763C125.544 47.5038 125.614 47.6582 125.615 47.8395C125.616 48.0315 125.547 48.1971 125.409 48.3363C125.27 48.4648 125.111 48.5294 124.929 48.5301L120.817 48.5453L120.82 49.2493L126.596 49.2279C126.788 49.2272 126.954 49.2959 127.093 49.434C127.232 49.5722 127.302 49.7426 127.303 49.9453C127.303 50.1479 127.235 50.3189 127.097 50.458C126.958 50.5972 126.793 50.6672 126.601 50.6679L123.193 50.6805C123.258 50.8296 123.275 50.9895 123.243 51.1603C123.222 51.3311 123.154 51.4753 123.037 51.5931C122.771 51.8714 122.452 52.1873 122.08 52.5406C121.708 52.894 121.341 53.2314 120.98 53.5527C121.449 53.551 121.903 53.5493 122.34 53.5477C122.788 53.5354 123.199 53.5232 123.572 53.5111C123.529 53.4579 123.481 53.4101 123.427 53.3677C123.385 53.3251 123.336 53.2827 123.283 53.2402C123.133 53.0914 123.063 52.9103 123.073 52.697C123.093 52.4729 123.189 52.2912 123.359 52.1519C123.529 51.9913 123.721 51.9106 123.934 51.9098C124.158 51.8983 124.355 51.9669 124.527 52.1156C124.741 52.2961 124.982 52.5192 125.249 52.7849C125.527 53.0505 125.795 53.3162 126.052 53.5819C126.309 53.8476 126.518 54.0709 126.679 54.2516C126.85 54.4323 126.925 54.64 126.905 54.8748C126.884 55.1095 126.773 55.3126 126.571 55.484C126.39 55.6447 126.177 55.7148 125.932 55.6944C125.687 55.674 125.489 55.5734 125.339 55.3926C125.264 55.3075 125.184 55.2172 125.098 55.1215C125.012 55.0151 124.916 54.9088 124.809 54.8025C124.307 54.8257 123.71 54.8546 123.017 54.8892C122.324 54.9131 121.598 54.9371 120.841 54.9613L120.852 57.8732C120.853 58.1612 120.758 58.3909 120.567 58.5623C120.386 58.7443 120.157 58.8358 119.88 58.8368ZM114.838 58.2955C114.593 58.4031 114.342 58.4307 114.086 58.3783C113.83 58.3259 113.642 58.1666 113.524 57.9004C113.406 57.6555 113.389 57.4209 113.473 57.1966C113.569 56.9616 113.749 56.7902 114.016 56.6826C114.271 56.5856 114.569 56.4618 114.91 56.3112C115.251 56.15 115.581 55.9834 115.9 55.8116C116.23 55.6397 116.507 55.4893 116.731 55.3605C116.933 55.2424 117.157 55.1989 117.402 55.23C117.648 55.2611 117.824 55.3778 117.931 55.58C118.071 55.8142 118.115 56.038 118.062 56.2516C118.009 56.4651 117.877 56.6416 117.664 56.781C117.43 56.9312 117.148 57.103 116.818 57.2962C116.499 57.4787 116.163 57.6559 115.812 57.8279C115.471 58.0105 115.146 58.1664 114.838 58.2955ZM124.949 58.226C124.554 58.0568 124.089 57.8346 123.555 57.5592C123.021 57.2945 122.55 57.0296 122.144 56.7644C121.941 56.6265 121.812 56.4457 121.758 56.2219C121.704 55.9981 121.746 55.7846 121.884 55.5814C122 55.4103 122.181 55.303 122.426 55.2594C122.671 55.2051 122.896 55.2363 123.099 55.3529C123.291 55.4695 123.542 55.6072 123.852 55.7661C124.173 55.9249 124.504 56.0837 124.846 56.2424C125.188 56.3905 125.498 56.5173 125.775 56.623C126.032 56.7287 126.208 56.8987 126.305 57.133C126.402 57.3673 126.387 57.6127 126.26 57.8692C126.144 58.1043 125.957 58.249 125.702 58.3033C125.446 58.3575 125.195 58.3318 124.949 58.226ZM119.266 53.0151C119.489 52.8116 119.734 52.5707 119.999 52.2924C120.276 52.014 120.552 51.7356 120.828 51.4573C121.104 51.1683 121.349 50.9113 121.561 50.6866L120.009 50.6923C119.893 50.8421 119.744 51.0293 119.563 51.254C119.383 51.468 119.197 51.6873 119.006 51.912C118.825 52.1367 118.666 52.324 118.528 52.4738C118.667 52.5693 118.795 52.6648 118.913 52.7604C119.041 52.8452 119.159 52.9301 119.266 53.0151ZM129.783 54.2401C129.548 54.241 129.345 54.1617 129.174 54.0024C129.013 53.8323 128.932 53.6299 128.931 53.3953C128.931 53.1606 129.01 52.963 129.169 52.8024C129.339 52.6311 129.542 52.545 129.776 52.5441L133.68 52.5296C133.915 52.5288 134.113 52.6134 134.273 52.7835C134.444 52.9428 134.531 53.1398 134.531 53.3745C134.532 53.6092 134.448 53.8121 134.278 53.9834C134.118 54.144 133.921 54.2248 133.687 54.2256L129.783 54.2401ZM139.354 57.3087C138.778 57.3108 138.488 56.9972 138.486 56.3679L138.456 48.2879L137.307 49.0442C136.775 49.4088 136.359 49.3464 136.058 48.8568C135.747 48.3673 135.858 47.9562 136.39 47.6236L138.305 46.4165C138.497 46.2984 138.683 46.2177 138.864 46.1744C139.045 46.1204 139.253 46.0929 139.488 46.0921C139.936 46.0904 140.161 46.4042 140.163 47.0336L140.198 56.3615C140.2 56.9908 139.919 57.3066 139.354 57.3087Z" fill="black" fill-opacity="0.85"/>
</g>
<defs>
<radialGradient id="paint0_radial_1720_1946" cx="0" cy="0" r="1" gradientUnits="userSpaceOnUse" gradientTransform="translate(0.558656 46.8353) rotate(65.4889) scale(3.32531 8.21233)">
<stop offset="0.33" stop-opacity="0"/>
<stop offset="0.655" stop-opacity="0.6"/>
<stop offset="1"/>
</radialGradient>
<radialGradient id="paint1_radial_1720_1946" cx="0" cy="0" r="1" gradientUnits="userSpaceOnUse" gradientTransform="translate(355.296 45.8572) rotate(114.511) scale(3.32531 8.21233)">
<stop offset="0.33" stop-opacity="0"/>
<stop offset="0.655" stop-opacity="0.6"/>
<stop offset="1"/>
</radialGradient>
<clipPath id="clip0_1720_1946">
<rect width="200" height="90" fill="white"/>
</clipPath>
</defs>
</svg>
