<svg width="200" height="90" viewBox="0 0 200 90" fill="none" xmlns="http://www.w3.org/2000/svg">
<g clip-path="url(#clip0_2307_6558)">
<rect width="200" height="90" fill="#FEB79D"/>
<path fill-rule="evenodd" clip-rule="evenodd" d="M-6.18027 85.5257C-5.5206 81.3514 -9.94765 77.2571 -7.65473 73.2393C-4.94813 68.4966 -1.65241 61.9915 7.77154 61.0783C17.9972 60.0873 23.5998 68.8258 33.9785 69.2048C45.8176 69.6371 56.5881 60.196 66.8872 63.2371C76.2425 65.9996 70.121 74.0119 68.9752 79.5387C68.1676 83.4341 61.5364 86.4306 61.2669 90.3457C60.8502 96.3973 75.7689 103.853 67.0229 107.895C58.3557 111.9 45.7383 103.802 34.2527 102.83C27.3162 102.243 20.5655 103.925 13.6182 103.373C4.65786 102.66 -7.2514 103.227 -11.7526 99.1698C-16.3208 95.0519 -6.92748 90.2539 -6.18027 85.5257Z" fill="#FE585B"/>
<path fill-rule="evenodd" clip-rule="evenodd" d="M28.4743 10.5302C32.6486 10.8717 36.7429 8.58004 40.7607 9.76696C45.5034 11.168 52.0085 12.874 52.9217 17.7523C53.9127 23.0456 45.1742 25.9458 44.7952 31.3183C44.3629 37.4467 53.804 43.0221 50.7629 48.3534C48.0004 53.1961 39.9881 50.0274 34.4613 49.4342C30.5659 49.0162 27.5694 45.5836 23.6543 45.444C17.6027 45.2284 10.1469 52.9509 6.10508 48.4236C2.09968 43.9371 10.1975 37.4057 11.1701 31.4602C11.7575 27.8695 10.0747 24.3751 10.6274 20.7788C11.3402 16.1405 10.7727 9.97575 14.8302 7.64571C18.9481 5.281 23.7461 10.1434 28.4743 10.5302Z" fill="#FC7443"/>
<path fill-rule="evenodd" clip-rule="evenodd" d="M173.474 4.53021C177.649 4.87169 181.743 2.58004 185.761 3.76696C190.503 5.16803 197.008 6.87405 197.922 11.7523C198.913 17.0456 190.174 19.9458 189.795 25.3183C189.363 31.4467 198.804 37.0221 195.763 42.3534C193 47.1961 184.988 44.0274 179.461 43.4342C175.566 43.0162 172.569 39.5836 168.654 39.444C162.603 39.2284 155.147 46.9509 151.105 42.4236C147.1 37.9371 155.198 31.4057 156.17 25.4602C156.757 21.8695 155.075 18.3751 155.627 14.7788C156.34 10.1405 155.773 3.97575 159.83 1.64571C163.948 -0.719004 168.746 4.14342 173.474 4.53021Z" fill="#FF8787"/>
<path fill-rule="evenodd" clip-rule="evenodd" d="M117.063 7.20494C131.49 7.9797 144.155 11.9054 154.996 17.5775C166.733 23.7188 176.896 30.8598 179.688 39.9711C183.097 51.0949 184.354 63.7453 171.749 72.2549C158.691 81.0707 136.857 81.4742 117.063 82.2497C95.2362 83.1048 71.8992 84.7511 54.6033 76.8446C35.6156 68.1646 20.8565 53.9771 24.5773 39.9711C28.0889 26.7526 52.1053 19.9805 71.5388 13.0955C85.3864 8.18958 100.98 6.34119 117.063 7.20494Z" fill="#FFAB7A"/>
<ellipse cx="177.989" cy="70.7269" rx="16.7876" ry="14.0511" fill="#F55A57"/>
<ellipse cx="173.713" cy="65.6395" rx="1.21537" ry="2.15126" fill="black"/>
<ellipse cx="182.288" cy="65.6395" rx="1.21537" ry="2.15126" fill="black"/>
<path d="M173.043 72.6426C173.079 74.5703 175.312 76.0917 178.031 76.0408C180.749 75.99 182.924 74.386 182.888 72.4584C182.852 70.5307 180.67 71.7806 177.952 71.8314C175.233 71.8823 173.007 70.7149 173.043 72.6426Z" fill="black"/>
<path d="M170.798 50.9035C173.679 48.6452 180.102 51.1915 180.102 55.0219C180.103 59.542 168.088 61.6232 165.803 61.9782C165.554 62.0169 165.305 62.044 165.056 62.039C163.427 62.0062 157.617 61.2375 170.798 50.9035Z" fill="#6E5232"/>
<path d="M170.798 50.9035C173.679 48.6452 180.102 51.1915 180.102 55.0219C180.103 59.542 168.088 61.6232 165.803 61.9782C165.554 62.0169 165.305 62.044 165.056 62.039C163.427 62.0062 157.617 61.2375 170.798 50.9035Z" fill="url(#paint0_radial_2307_6558)" fill-opacity="0.15"/>
<path d="M185.204 50.7629C182.323 48.5045 175.9 51.0509 175.9 54.8813C175.899 59.4014 187.914 61.4825 190.199 61.8375C190.448 61.8763 190.697 61.9034 190.946 61.8984C192.575 61.8656 198.385 61.0968 185.204 50.7629Z" fill="#6E5232"/>
<path d="M185.204 50.7629C182.323 48.5045 175.9 51.0509 175.9 54.8813C175.899 59.4014 187.914 61.4825 190.199 61.8375C190.448 61.8763 190.697 61.9034 190.946 61.8984C192.575 61.8656 198.385 61.0968 185.204 50.7629Z" fill="url(#paint1_radial_2307_6558)" fill-opacity="0.15"/>
<path d="M70.1219 30.8334C69.9486 30.834 69.8623 30.921 69.8629 31.0943L69.8648 31.5943C69.8658 31.8677 69.6696 32.005 69.2763 32.0065C68.8896 32.0079 68.6958 31.872 68.6948 31.5987L68.6895 30.1887C68.6884 29.8753 68.8478 29.7181 69.1678 29.7169L72.4278 29.7048L72.2466 29.3955C72.1058 29.1627 72.2318 28.9855 72.6247 28.8641C73.0242 28.7426 73.3078 28.7982 73.4753 29.0309C73.5757 29.1306 73.6965 29.3534 73.8378 29.6996L76.7977 29.6886C77.1177 29.6874 77.2783 29.8435 77.2795 30.1568L77.2847 31.5668C77.2857 31.8402 77.0796 31.9776 76.6662 31.9791C76.2596 31.9806 76.0557 31.8447 76.0547 31.5714L76.0529 31.0714C76.0522 30.898 75.9652 30.8117 75.7919 30.8123L70.1219 30.8334ZM76.954 34.0781C77.2273 34.077 77.3647 34.2665 77.3661 34.6465C77.3675 35.0199 77.2315 35.207 76.9582 35.2081L73.6382 35.2204L73.6438 36.7304C73.645 37.057 73.5993 37.3072 73.5066 37.4809C73.4139 37.6545 73.2477 37.7852 73.0081 37.8727C72.6685 38.0073 72.2088 38.0723 71.6288 38.0678C71.2555 38.0759 70.9814 37.8769 70.8065 37.4709C70.6317 37.0715 70.6577 36.8748 70.8844 36.8806C71.0711 36.8866 71.4811 36.8884 72.1144 36.886C72.2144 36.8856 72.281 36.8721 72.3142 36.8453C72.3541 36.8185 72.374 36.7717 72.3737 36.7051L72.3682 35.2251L69.0683 35.2373C68.7949 35.2383 68.6576 35.0522 68.6562 34.6788C68.6548 34.2988 68.7907 34.1083 69.0641 34.1073L72.364 34.0951C72.3627 33.7417 72.4785 33.4846 72.7112 33.3238L73.579 32.7406L70.7691 32.751C70.4957 32.752 70.3584 32.5692 70.357 32.2025C70.3556 31.8292 70.4916 31.642 70.7649 31.641L74.6347 31.5666C74.908 31.5656 75.1751 31.668 75.4358 31.8737C75.7033 32.0794 75.7407 32.2825 75.5481 32.4833C75.0965 32.9649 74.4583 33.444 73.6334 33.9204L73.634 34.0904L76.954 34.0781ZM86.4746 28.8127C86.8546 28.8113 87.0451 28.9473 87.0461 29.2206L87.0604 33.0806C87.0615 33.3673 87.0289 33.5874 86.9628 33.741C86.8967 33.8879 86.7705 34.0017 86.5841 34.0824C86.2979 34.2101 85.9548 34.2714 85.5548 34.2662C85.1948 34.2742 84.9542 34.1051 84.8329 33.7589C84.7182 33.4059 84.8743 33.2354 85.301 33.2471C85.6344 33.2659 85.831 33.2485 85.8908 33.1949C85.9174 33.1682 85.9305 33.1248 85.9303 33.0648L85.9161 29.2248C85.9151 28.9515 86.1012 28.8141 86.4746 28.8127ZM84.6363 29.2796C85.0029 29.2782 85.1868 29.4142 85.1878 29.6875L85.1973 32.2475C85.1983 32.5208 85.0155 32.6582 84.6488 32.6595C84.2888 32.6609 84.1083 32.5249 84.1073 32.2515L84.0978 29.6916C84.0968 29.4182 84.2763 29.2809 84.6363 29.2796ZM80.7932 31.1638L81.6332 31.1607L81.6293 30.1107L80.7893 30.1138L80.7932 31.1638ZM83.6235 36.6334L87.0935 36.6205C87.3668 36.6195 87.5042 36.8023 87.5055 37.169C87.5069 37.5356 87.3709 37.7195 87.0976 37.7205L78.9076 37.7508C78.6343 37.7519 78.497 37.569 78.4956 37.2024C78.4942 36.8357 78.6302 36.6519 78.9036 36.6509L82.4035 36.6379L82.4006 35.8379L79.9106 35.8471C79.6373 35.8481 79.4999 35.6686 79.4986 35.3086C79.4973 34.9486 79.6333 34.7681 79.9066 34.7671L82.3966 34.7579L82.3952 34.3879C82.3946 34.2146 82.3076 34.1282 82.1342 34.1289C81.8076 34.1301 81.6436 33.9707 81.6425 33.6507L81.6371 32.2107L80.7171 32.2141C80.5275 33.2015 80.1265 33.8563 79.5144 34.1786C79.275 34.3328 79.0248 34.2737 78.7637 34.0014C78.5027 33.7223 78.5019 33.5023 78.7613 33.3414C79.1407 33.1733 79.416 32.7989 79.5871 32.2183L78.9871 32.2205C78.7138 32.2215 78.5765 32.0487 78.5752 31.702C78.5739 31.3487 78.7099 31.1715 78.9833 31.1705L79.7032 31.1679L79.6994 30.1179L79.3194 30.1193C79.046 30.1203 78.9087 29.9475 78.9074 29.6008C78.9061 29.2541 79.0422 29.0803 79.3155 29.0793L83.0355 29.0655C83.3088 29.0645 83.4461 29.2373 83.4474 29.584C83.4487 29.9306 83.3127 30.1045 83.0393 30.1055L82.7393 30.1066L82.7432 31.1566L83.2732 31.1546C83.5466 31.1536 83.6839 31.3298 83.6852 31.6831C83.6865 32.0298 83.5504 32.2036 83.2771 32.2046L82.7471 32.2066L82.7536 33.9566L83.1336 33.9552C83.4536 33.954 83.6142 34.1134 83.6154 34.4334L83.6166 34.7534L86.0965 34.7442C86.3699 34.7432 86.5072 34.9227 86.5085 35.2827C86.5099 35.6427 86.3739 35.8232 86.1006 35.8242L83.6206 35.8334L83.6235 36.6334ZM93.3128 33.7074L93.3077 32.3474C93.3071 32.1741 93.2201 32.0878 93.0468 32.0884L92.2768 32.0913C91.9568 32.0924 91.7962 31.933 91.795 31.613L91.786 29.1831C91.785 28.9097 91.9511 28.7724 92.2845 28.7712C92.6244 28.7699 92.795 28.906 92.796 29.1793L92.797 29.4493L93.957 29.445C94.2303 29.444 94.3676 29.6068 94.3688 29.9335C94.37 30.2601 94.2339 30.424 93.9606 30.425L92.8006 30.4293L92.8023 30.8993C92.803 31.0726 92.89 31.159 93.0633 31.1583L93.8133 31.1656C94.1333 31.1644 94.2939 31.3238 94.2951 31.6438L94.3027 33.7038C94.3035 33.9104 94.2774 34.0639 94.2245 34.164C94.1782 34.2642 94.0785 34.3513 93.9254 34.4252C93.7724 34.4991 93.5891 34.5331 93.3758 34.5272C93.0025 34.5352 92.7721 34.4194 92.6845 34.1798C92.5969 33.9334 92.6898 33.8097 92.9631 33.8087L93.1431 33.8081C93.2565 33.8143 93.313 33.7808 93.3128 33.7074ZM91.8491 32.7228C91.9148 32.4626 92.0944 32.3586 92.3879 32.4108C92.6814 32.4564 92.8022 32.6693 92.7503 33.0495C92.7251 33.4296 92.6361 33.7199 92.4835 33.9205C92.3843 34.1142 92.2077 34.1349 91.9538 33.9825C91.6998 33.8234 91.6057 33.6138 91.6714 33.3535L91.8491 32.7228ZM95.6161 34.6189L95.6631 33.8087L95.0631 33.8109C94.7898 33.812 94.6525 33.6491 94.6513 33.3225C94.6501 32.9958 94.7862 32.832 95.0595 32.8309L95.6995 32.8286L95.6963 31.9686L95.1263 31.9707C94.853 31.9717 94.7157 31.8089 94.7145 31.4822C94.7133 31.1556 94.8494 30.9917 95.1227 30.9907L95.7527 30.9884L95.7505 30.3884C95.7498 30.215 95.6628 30.1287 95.4895 30.1293L95.0195 30.1311C94.7462 30.1321 94.6089 29.9626 94.6076 29.6226C94.6064 29.2826 94.7424 29.1121 95.0157 29.1111L96.3657 29.1061C96.6857 29.1049 96.8431 29.2843 96.8377 29.6443C96.8506 31.331 96.8168 32.9878 96.7361 34.6147L97.1961 34.613C97.4695 34.612 97.6068 34.7949 97.6082 35.1615C97.6095 35.5282 97.4735 35.712 97.2002 35.713L94.7902 35.722C95.8587 36.218 96.6135 36.6052 97.0546 36.8836C97.2483 36.9962 97.2124 37.203 96.9469 37.504C96.688 37.8116 96.4516 37.8958 96.2378 37.7566C95.6697 37.3654 95.0784 37.0276 94.464 36.7432C94.0365 36.5248 93.9422 36.2584 94.1811 35.9442L94.3502 35.7236L91.3803 35.7346L91.7614 36.0432C92.069 36.2954 92.0466 36.5355 91.6941 36.7634C91.1754 37.1187 90.4634 37.478 89.5581 37.8414C89.2852 37.9624 89.0348 37.8733 88.8071 37.5742C88.586 37.2816 88.6185 37.0782 88.9048 36.9638C89.7103 36.6608 90.4655 36.2513 91.1703 35.7354L88.8503 35.744C88.5769 35.745 88.4396 35.5622 88.4382 35.1955C88.4369 34.8288 88.5729 34.645 88.8462 34.644L89.3362 34.6422L89.1587 29.9328C89.151 29.6328 89.2835 29.429 89.5565 29.3213L90.6748 28.8772C90.9278 28.7829 91.1382 28.8988 91.3061 29.2248C91.4806 29.5442 91.438 29.741 91.1783 29.8153L90.4691 30.0279C90.3093 30.0752 90.2297 30.1822 90.2303 30.3488L90.2627 30.9987L90.9927 30.996C91.266 30.995 91.4033 31.1578 91.4045 31.4845C91.4057 31.8045 91.2696 31.965 90.9963 31.966L90.2963 31.9686L90.3295 32.8285L91.0295 32.8259C91.3028 32.8249 91.4401 32.9877 91.4413 33.3144C91.4425 33.6344 91.3064 33.7949 91.0331 33.7959L90.3631 33.7984L90.3962 34.6382L95.6161 34.6189ZM104.695 31.4752L101.265 31.4879C101.702 32.5463 102.305 33.4674 103.075 34.2512C103.779 33.4686 104.319 32.5433 104.695 31.4752ZM107.15 30.3061C107.424 30.3051 107.561 30.4979 107.562 30.8846C107.564 31.2713 107.428 31.4651 107.155 31.4661L106.035 31.4703C105.54 32.8854 104.858 34.0813 103.988 35.0579C105.024 35.8607 106.139 36.3999 107.334 36.6755C107.627 36.7411 107.642 36.9577 107.376 37.3253C107.111 37.6996 106.835 37.844 106.548 37.7584C105.293 37.4364 104.201 36.8904 103.272 36.1205C103.131 36.001 102.991 35.9982 102.852 36.1121C101.915 36.8889 100.78 37.4631 99.4481 37.8347C99.1618 37.9291 98.8979 37.7901 98.6565 37.4176C98.4152 37.0519 98.441 36.8284 98.7341 36.7474C100.026 36.4226 101.174 35.8683 102.178 35.0846C101.308 34.1345 100.593 32.9371 100.035 31.4925L98.8746 31.4968C98.6013 31.4978 98.4639 31.305 98.4625 30.9183C98.461 30.5317 98.597 30.3378 98.8703 30.3368L102.68 30.3227L102.266 29.2942C102.166 29.0412 102.325 28.854 102.744 28.7324C103.171 28.6042 103.437 28.6632 103.545 28.9095L103.868 29.5983C104.002 29.8978 103.913 30.0981 103.6 30.1993L103.21 30.3207L107.15 30.3061ZM110.122 30.6851C109.948 30.6857 109.862 30.7727 109.863 30.9461L109.864 31.4461C109.865 31.7194 109.669 31.8568 109.276 31.8582C108.889 31.8597 108.696 31.7237 108.694 31.4504L108.689 30.0404C108.688 29.7271 108.848 29.5698 109.168 29.5686L112.428 29.5565L112.246 29.2472C112.105 29.0144 112.231 28.8373 112.624 28.7158C113.024 28.5943 113.307 28.6499 113.475 28.8827C113.575 28.9823 113.696 29.2052 113.837 29.5513L116.797 29.5403C117.117 29.5392 117.278 29.6952 117.279 30.0086L117.284 31.4186C117.285 31.6919 117.079 31.8293 116.666 31.8309C116.259 31.8324 116.055 31.6964 116.054 31.4231L116.053 30.9231C116.052 30.7498 115.965 30.6634 115.792 30.6641L110.122 30.6851ZM116.954 33.9298C117.227 33.9288 117.364 34.1183 117.366 34.4983C117.367 34.8716 117.231 35.0588 116.958 35.0598L113.638 35.0721L113.644 36.5821C113.645 36.9088 113.599 37.1589 113.506 37.3326C113.414 37.5063 113.247 37.6369 113.008 37.7245C112.668 37.859 112.209 37.9241 111.628 37.9196C111.255 37.9276 110.981 37.7286 110.806 37.3226C110.631 36.9233 110.657 36.7265 110.884 36.7323C111.071 36.7383 111.481 36.7401 112.114 36.7378C112.214 36.7374 112.281 36.7238 112.314 36.697C112.354 36.6702 112.374 36.6235 112.373 36.5568L112.368 35.0768L109.068 35.089C108.795 35.0901 108.657 34.9039 108.656 34.5306C108.655 34.1506 108.79 33.9601 109.064 33.959L112.364 33.9468C112.362 33.5935 112.478 33.3364 112.711 33.1755L113.579 32.5923L110.769 32.6027C110.495 32.6037 110.358 32.4209 110.357 32.0542C110.355 31.6809 110.491 31.4937 110.765 31.4927L114.634 31.4184C114.908 31.4174 115.175 31.5197 115.436 31.7254C115.703 31.9311 115.74 32.1343 115.548 32.335C115.096 32.8167 114.458 33.2957 113.633 33.7721L113.634 33.9421L116.954 33.9298ZM121.712 33.5722C121.86 33.7983 121.831 34.0551 121.625 34.3425C121.426 34.6232 121.27 34.6405 121.155 34.3942L120.773 33.5956L120.787 37.4956C120.788 37.7689 120.609 37.9063 120.249 37.9076C119.889 37.909 119.708 37.773 119.707 37.4996L119.695 34.1696C119.418 35.004 119.176 35.5649 118.971 35.8523C118.852 36.0461 118.705 35.97 118.53 35.624C118.355 35.2713 118.331 34.998 118.457 34.8042C118.603 34.617 118.798 34.213 119.043 33.5921C119.287 32.9645 119.471 32.3471 119.596 31.74L118.896 31.7426C118.622 31.7436 118.485 31.5608 118.484 31.1941C118.482 30.8274 118.618 30.6436 118.892 30.6426L119.682 30.6397L119.675 28.9897C119.674 28.7163 119.854 28.579 120.214 28.5777C120.574 28.5763 120.754 28.7123 120.755 28.9857L120.762 30.6357L121.352 30.6335C121.625 30.6325 121.762 30.8153 121.764 31.182C121.765 31.5486 121.629 31.7325 121.356 31.7335L120.766 31.7357L120.767 32.1757L121.712 33.5722ZM122.987 34.9074C123.261 34.9064 123.504 34.9489 123.718 35.0347C123.938 35.1206 123.996 35.327 123.89 35.6541C123.653 36.5217 123.139 37.1469 122.347 37.5298C122.108 37.6774 121.884 37.6249 121.677 37.3723C121.476 37.1197 121.495 36.9297 121.734 36.8021C122.081 36.6608 122.423 36.3062 122.76 35.7383L122.08 35.7408C121.807 35.7418 121.67 35.609 121.669 35.3423C121.668 35.0757 121.804 34.9418 122.078 34.9408L122.987 34.9074ZM126.445 34.2946C126.644 34.1139 126.888 34.133 127.175 34.3519C127.469 34.5642 127.49 34.7641 127.238 34.9517C126.925 35.1795 126.563 35.4242 126.15 35.6857C126.632 36.1773 127.06 36.4857 127.434 36.611C127.687 36.71 127.698 36.9067 127.466 37.2009C127.234 37.4951 127.001 37.5759 126.767 37.4435C126.293 37.2319 125.794 36.7637 125.272 36.039L125.187 37.4093C125.127 37.5495 124.998 37.6667 124.798 37.7608C124.598 37.8615 124.342 37.9058 124.028 37.8936C123.655 37.9083 123.418 37.7525 123.317 37.4262C123.216 37.1066 123.302 36.9463 123.575 36.9453L123.985 36.9438C124.105 36.9433 124.165 36.8964 124.164 36.8031L124.157 34.8531C124.157 34.6798 124.07 34.5934 123.896 34.5941L122.926 34.5977C122.653 34.5987 122.516 34.4659 122.515 34.1992C122.514 33.9259 122.65 33.7887 122.923 33.7877L124.913 33.7803L124.062 33.4735C123.688 33.3415 123.598 33.1685 123.79 32.9545L122.16 32.9605C121.887 32.9615 121.75 32.8187 121.749 32.532C121.748 32.2387 121.884 32.0915 122.157 32.0905L124.127 32.0832L124.126 31.6932L122.796 31.6981C122.522 31.6991 122.385 31.5663 122.384 31.2997C122.383 31.0263 122.519 30.8892 122.793 30.8881L124.122 30.8832L124.121 30.5132L122.431 30.5195C122.158 30.5205 122.021 30.381 122.02 30.101C122.019 29.821 122.155 29.6805 122.428 29.6795L123.078 29.6771L122.816 29.238C122.682 29.0052 122.762 28.8349 123.054 28.7272C123.347 28.6194 123.564 28.6819 123.705 28.9147L123.967 29.3338C124.061 29.4868 124.021 29.6002 123.848 29.6742L125.458 29.6682C125.324 29.6221 125.344 29.4253 125.516 29.078C125.688 28.7307 125.904 28.5933 126.164 28.6656C126.605 28.7907 126.706 29.0136 126.467 29.3345L126.228 29.6654L127.048 29.6624C127.321 29.6613 127.459 29.8008 127.46 30.0808C127.461 30.3608 127.324 30.5013 127.051 30.5024L125.261 30.509L125.262 30.879L126.812 30.8732C127.086 30.8722 127.223 31.0084 127.224 31.2817C127.225 31.5484 127.089 31.6822 126.815 31.6832L125.265 31.689L125.267 32.079L127.227 32.0717C127.5 32.0707 127.637 32.2169 127.639 32.5102C127.64 32.7969 127.503 32.9407 127.23 32.9417L125.56 32.9479C125.287 32.9489 125.297 33.0122 125.591 33.1378C125.885 33.2634 126.082 33.4526 126.183 33.7056L126.083 33.846C125.878 34.0801 125.655 34.1376 125.414 34.0184L125.264 33.939L125.266 34.439L125.628 35.0577L126.445 34.2946ZM133.522 36.0584C133.556 36.4116 133.5 36.6052 133.354 36.639C132.861 36.7475 131.575 37.0223 129.497 37.4633C129.091 37.5582 128.83 37.4058 128.715 37.0062C128.607 36.6066 128.686 36.3863 128.953 36.3453L130.442 36.0998L130.433 33.6898L129.333 33.6939C129.06 33.6949 128.922 33.5054 128.921 33.1254C128.919 32.7388 129.055 32.5449 129.329 32.5439L132.799 32.5311C133.072 32.53 133.209 32.7229 133.211 33.1095C133.212 33.4895 133.076 33.68 132.803 33.6811L131.613 33.6855L131.621 35.8854L133.08 35.6C133.347 35.5524 133.494 35.7052 133.522 36.0584ZM137.06 30.2152C137.333 30.2142 137.471 30.4071 137.472 30.7937C137.474 31.1804 137.338 31.3742 137.064 31.3752L134.764 31.3838C134.877 32.8834 135.078 34.1293 135.368 35.1216C135.659 36.1138 135.98 36.6093 136.334 36.608C136.54 36.6072 136.649 36.2468 136.66 35.5268C136.691 35.0467 136.881 34.9226 137.228 35.1547C137.576 35.3867 137.727 35.6895 137.682 36.063C137.644 36.6098 137.512 37.0436 137.287 37.3645C137.068 37.6919 136.732 37.8565 136.278 37.8582C135.832 37.8599 135.444 37.6913 135.117 37.3525C134.795 37.0204 134.527 36.548 134.311 35.9355C133.9 34.737 133.631 33.2213 133.504 31.3884L128.944 31.4053C128.671 31.4064 128.534 31.2135 128.532 30.8269C128.531 30.4402 128.667 30.2464 128.94 30.2453L133.44 30.2287L133.406 28.9888C133.405 28.7155 133.617 28.578 134.044 28.5764C134.471 28.5748 134.685 28.7107 134.686 28.984L134.7 30.224L136.28 30.2181L135.407 29.4414C135.207 29.2621 135.236 29.0653 135.495 28.851C135.761 28.6301 135.997 28.6058 136.205 28.7784L136.827 29.2961C137.081 29.5152 137.082 29.7352 136.829 29.9561L136.53 30.2172L137.06 30.2152Z" fill="#FE585B"/>
<path d="M74.3925 47.3486C74.1152 47.3496 73.977 47.4888 73.978 47.7661L73.981 48.5661C73.9826 49.0035 73.6688 49.2233 73.0394 49.2256C72.4208 49.2279 72.1106 49.0104 72.109 48.5731L72.1007 46.3171C72.0988 45.8158 72.3539 45.5641 72.8659 45.5622L78.0818 45.5429L77.792 45.048C77.5666 44.6755 77.7682 44.3921 78.3968 44.1977C79.0361 44.0034 79.4898 44.0923 79.7578 44.4647C79.9184 44.6241 80.1118 44.9807 80.3378 45.5345L85.0738 45.517C85.5858 45.5151 85.8427 45.7648 85.8446 46.2661L85.8529 48.5221C85.8545 48.9595 85.5247 49.1793 84.8634 49.1818C84.2127 49.1842 83.8866 48.9667 83.8849 48.5294L83.882 47.7294C83.8809 47.4521 83.7418 47.3139 83.4644 47.315L74.3925 47.3486ZM85.3238 52.5401C85.7611 52.5385 85.9809 52.8417 85.9832 53.4497C85.9854 54.047 85.7678 54.3465 85.3305 54.3481L80.0185 54.3678L80.0275 56.7838C80.0294 57.3064 79.9563 57.7067 79.808 57.9846C79.6596 58.2625 79.3938 58.4715 79.0103 58.6116C78.4671 58.8269 77.7314 58.931 76.8034 58.9237C76.2061 58.9366 75.7676 58.6182 75.4879 57.9686C75.2082 57.3296 75.2497 57.0148 75.6124 57.0241C75.9111 57.0337 76.5671 57.0366 77.5804 57.0328C77.7404 57.0323 77.847 57.0105 77.9002 56.9677C77.964 56.9248 77.9957 56.85 77.9953 56.7433L77.9866 54.3753L72.7066 54.3949C72.2693 54.3965 72.0495 54.0987 72.0473 53.5013C72.045 52.8933 72.2626 52.5885 72.6999 52.5869L77.9799 52.5673C77.9778 52.002 78.1629 51.5906 78.5353 51.3333L79.9238 50.4001L75.4279 50.4168C74.9905 50.4184 74.7708 50.1259 74.7686 49.5392C74.7664 48.9419 74.984 48.6424 75.4213 48.6408L81.6129 48.5218C82.0502 48.5202 82.4775 48.684 82.8947 49.0131C83.3226 49.3422 83.3825 49.6673 83.0743 49.9884C82.3519 50.7591 81.3307 51.5256 80.0108 52.2878L80.0118 52.5598L85.3238 52.5401ZM100.557 44.1156C101.165 44.1133 101.469 44.3309 101.471 44.7682L101.494 50.9442C101.496 51.4028 101.444 51.755 101.338 52.0008C101.232 52.2358 101.03 52.4179 100.732 52.547C100.274 52.7514 99.7251 52.8494 99.085 52.8411C98.5091 52.8539 98.1241 52.5833 97.93 52.0294C97.7466 51.4647 97.9962 51.1918 98.679 51.2106C99.2124 51.2406 99.527 51.2128 99.6227 51.1271C99.6652 51.0843 99.6863 51.0149 99.6859 50.9189L99.6631 44.7749C99.6615 44.3376 99.9594 44.1178 100.557 44.1156ZM97.6154 44.8625C98.2021 44.8603 98.4962 45.0779 98.4979 45.5152L98.513 49.6112C98.5147 50.0485 98.2221 50.2683 97.6355 50.2705C97.0595 50.2726 96.7707 50.055 96.7691 49.6177L96.7539 45.5217C96.7523 45.0844 97.0394 44.8646 97.6154 44.8625ZM91.4666 47.8773L92.8106 47.8723L92.8043 46.1923L91.4603 46.1973L91.4666 47.8773ZM95.995 56.6286L101.547 56.608C101.984 56.6064 102.204 56.8989 102.206 57.4856C102.208 58.0722 101.991 58.3664 101.554 58.368L88.4496 58.4166C88.0123 58.4182 87.7925 58.1257 87.7904 57.539C87.7882 56.9523 88.0058 56.6582 88.4431 56.6566L94.0431 56.6358L94.0383 55.3558L90.0543 55.3706C89.617 55.3722 89.3973 55.085 89.3951 54.509C89.393 53.933 89.6106 53.6442 90.0479 53.6426L94.0319 53.6278L94.0297 53.0358C94.0287 52.7585 93.8895 52.6204 93.6122 52.6214C93.0895 52.6233 92.8272 52.3683 92.8253 51.8563L92.8168 49.5523L91.3448 49.5578C91.0413 51.1376 90.3999 52.1853 89.4204 52.7009C89.0373 52.9477 88.637 52.8532 88.2194 52.4174C87.8017 51.9709 87.8004 51.6189 88.2155 51.3614C88.8225 51.0925 89.2629 50.4935 89.5368 49.5645L88.5768 49.568C88.1395 49.5697 87.9198 49.2931 87.9177 48.7385C87.9156 48.1731 88.1333 47.8897 88.5706 47.888L89.7226 47.8838L89.7164 46.2038L89.1084 46.206C88.671 46.2077 88.4513 45.9311 88.4493 45.3765C88.4472 44.8218 88.6649 44.5437 89.1022 44.5421L95.0542 44.52C95.4915 44.5184 95.7112 44.7949 95.7132 45.3496C95.7153 45.9042 95.4976 46.1824 95.0603 46.184L94.5803 46.1858L94.5865 47.8657L95.4345 47.8626C95.8719 47.861 96.0916 48.1428 96.0937 48.7082C96.0957 49.2628 95.8781 49.541 95.4408 49.5426L94.5928 49.5457L94.6032 52.3457L95.2112 52.3435C95.7231 52.3416 95.9801 52.5966 95.982 53.1086L95.9839 53.6206L99.9519 53.6059C100.389 53.6043 100.609 53.8915 100.611 54.4675C100.613 55.0435 100.396 55.3323 99.9583 55.3339L95.9903 55.3486L95.995 56.6286ZM108.83 48.773C109.086 48.772 109.214 48.8995 109.215 49.1555C109.918 48.7583 110.386 48.3139 110.618 47.8223C110.851 47.3308 110.967 46.765 110.964 46.125L110.961 45.181C110.959 44.669 111.214 44.4121 111.726 44.4102L115.582 44.3959C116.094 44.394 116.351 44.6491 116.353 45.1611L116.363 47.881C116.364 48.3184 116.44 48.5368 116.589 48.5362L117.357 48.4694C117.794 48.4357 118.035 48.6802 118.08 49.2027C118.124 49.7252 117.928 50.0032 117.491 50.0369L116.419 50.1208C115.694 50.1235 115.213 49.96 114.977 49.6302C114.741 49.2897 114.622 48.7035 114.619 47.8715L114.614 46.5755C114.613 46.2982 114.474 46.16 114.196 46.161L112.692 46.1666C112.7 48.2679 112.113 49.6088 110.931 50.1892C110.484 50.4788 110.127 50.4482 109.859 50.0972L109.489 49.6345C109.307 49.4859 109.18 49.577 109.106 49.9079C109.182 50.1103 108.963 50.2125 108.451 50.2144L104.979 50.2272C104.542 50.2289 104.322 49.9897 104.321 49.5097C104.319 49.0297 104.537 48.7889 104.974 48.7873L108.83 48.773ZM109.222 46.5475C109.659 46.5459 109.879 46.7957 109.881 47.2971C109.882 47.7984 109.665 48.0499 109.227 48.0515L104.283 48.0698C103.846 48.0714 103.626 47.8216 103.625 47.3202C103.623 46.8189 103.84 46.5674 104.278 46.5658L106.278 46.5584L105.52 45.1212C105.327 44.7379 105.475 44.4334 105.965 44.2075C106.466 43.971 106.818 44.0444 107.022 44.4276L107.521 45.3058C107.768 45.7529 107.663 46.0999 107.205 46.347L106.838 46.5563L109.222 46.5475ZM108.614 50.9178C109.041 50.9162 109.255 51.1554 109.257 51.6354C109.258 52.1154 109.046 52.3562 108.619 52.3578L104.987 52.3712C104.55 52.3728 104.33 52.1337 104.329 51.6537C104.327 51.1737 104.545 50.9329 104.982 50.9312L108.614 50.9178ZM115.198 52.9574C115.335 52.7009 115.265 52.5731 114.988 52.5742L111.804 52.586C112.255 53.427 112.887 54.182 113.701 54.8509C114.413 54.1976 114.912 53.5664 115.198 52.9574ZM107.61 56.4415L107.605 55.0655C107.604 54.7882 107.465 54.6501 107.188 54.6511L106.388 54.6541C106.11 54.6551 105.972 54.7943 105.973 55.0716L105.977 56.0316C105.978 56.3089 106.117 56.4471 106.394 56.446L107.61 56.4415ZM116.613 50.7121L117.126 50.9342C117.585 51.1245 117.736 51.4813 117.578 52.0046C117.242 53.3711 116.473 54.6647 115.272 55.8851C116.298 56.4147 117.18 56.7474 117.916 56.8833C118.364 56.9777 118.392 57.3082 118 57.875C117.618 58.4525 117.197 58.678 116.738 58.5517C115.799 58.3525 114.928 57.9824 114.126 57.4414C113.859 57.2717 113.608 57.262 113.374 57.4122C112.501 57.9807 111.65 58.3679 110.818 58.5737C110.275 58.7357 109.896 58.5877 109.681 58.1299C109.702 58.0978 109.562 57.853 109.262 57.3954L109.264 57.9714L105.136 57.9867C104.624 57.9886 104.367 57.7336 104.365 57.2216L104.353 53.9096C104.351 53.3976 104.606 53.1406 105.118 53.1387L108.478 53.1263C108.99 53.1244 109.247 53.3794 109.249 53.8914L109.259 56.6594C109.26 56.9368 109.405 57.0429 109.692 56.9778C110.524 56.7721 111.36 56.4223 112.201 55.9285C111.387 55.1209 110.813 54.3816 110.48 53.7109C110.212 53.2105 110.328 52.8741 110.829 52.7016L111.116 52.5885L110.3 52.5915C109.863 52.5932 109.643 52.3006 109.641 51.714C109.639 51.1166 109.856 50.8172 110.294 50.8155L116.613 50.7121ZM122.441 47.3465C122.163 47.3475 122.025 47.4867 122.026 47.764L122.031 48.9C122.032 49.3374 121.718 49.5572 121.089 49.5595C120.47 49.5618 120.16 49.3443 120.159 48.907L120.149 46.331C120.147 45.819 120.402 45.562 120.914 45.5601L126.082 45.541L125.759 44.8062C125.598 44.4121 125.837 44.1286 126.476 43.9555C127.116 43.7718 127.521 43.877 127.693 44.271L128.274 45.5329L133.058 45.5151C133.57 45.5132 133.827 45.7683 133.829 46.2803L133.838 48.8563C133.84 49.2936 133.51 49.5135 132.849 49.5159C132.198 49.5183 131.872 49.3009 131.871 48.8636L131.866 47.7276C131.865 47.4502 131.726 47.3121 131.449 47.3131L122.441 47.3465ZM128.002 54.2379L128.011 56.5419C128.566 56.6145 129.601 56.648 131.115 56.6424C132.63 56.6368 133.59 56.6279 133.995 56.6157C134.315 56.6039 134.359 56.9184 134.127 57.5593C133.905 58.2107 133.576 58.5373 133.138 58.5389L129.81 58.5513C128.168 58.5574 126.818 58.365 125.76 57.9743C124.713 57.5835 123.847 56.8454 123.16 55.7599C122.621 57.0526 122.059 57.9347 121.474 58.4062C121.176 58.6953 120.765 58.6275 120.241 58.2027C119.728 57.7886 119.609 57.4637 119.885 57.228C121.162 56.2846 121.913 54.6178 122.139 52.2277C122.222 51.63 122.584 51.362 123.224 51.4236C123.875 51.4745 124.169 51.6921 124.106 52.0764C124.107 52.215 124.029 52.6687 123.871 53.4372C124.313 54.6303 124.908 55.4121 125.656 55.7826C125.902 55.9204 126.024 55.8506 126.023 55.5733L126.005 50.5653L123.253 50.5755C122.815 50.5771 122.596 50.2739 122.593 49.6659C122.591 49.058 122.809 48.7531 123.246 48.7515L130.734 48.7238C131.171 48.7221 131.391 49.0253 131.393 49.6333C131.396 50.2413 131.178 50.5461 130.741 50.5478L127.989 50.558L127.996 52.4459L131.724 52.4321C132.161 52.4305 132.381 52.7284 132.383 53.3257C132.385 53.923 132.168 54.2225 131.73 54.2241L128.002 54.2379Z" fill="black" fill-opacity="0.85"/>
</g>
<defs>
<radialGradient id="paint0_radial_2307_6558" cx="0" cy="0" r="1" gradientUnits="userSpaceOnUse" gradientTransform="translate(0.560609 46.8353) rotate(65.4889) scale(3.32531 8.21233)">
<stop offset="0.33" stop-opacity="0"/>
<stop offset="0.655" stop-opacity="0.6"/>
<stop offset="1"/>
</radialGradient>
<radialGradient id="paint1_radial_2307_6558" cx="0" cy="0" r="1" gradientUnits="userSpaceOnUse" gradientTransform="translate(355.3 45.8572) rotate(114.511) scale(3.32531 8.21233)">
<stop offset="0.33" stop-opacity="0"/>
<stop offset="0.655" stop-opacity="0.6"/>
<stop offset="1"/>
</radialGradient>
<clipPath id="clip0_2307_6558">
<rect width="200" height="90" fill="white"/>
</clipPath>
</defs>
</svg>
