<svg width="200" height="90" viewBox="0 0 200 90" fill="none" xmlns="http://www.w3.org/2000/svg">
<g clip-path="url(#clip0_1260_3918)">
<rect width="200" height="90" fill="#FEB79D"/>
<path fill-rule="evenodd" clip-rule="evenodd" d="M-6.18027 85.5257C-5.5206 81.3514 -9.94765 77.2571 -7.65473 73.2393C-4.94813 68.4966 -1.65241 61.9915 7.77154 61.0783C17.9972 60.0873 23.5998 68.8258 33.9785 69.2048C45.8176 69.6371 56.5881 60.196 66.8872 63.2371C76.2425 65.9996 70.121 74.0119 68.9752 79.5387C68.1676 83.4341 61.5364 86.4306 61.2669 90.3457C60.8502 96.3973 75.7689 103.853 67.0229 107.895C58.3557 111.9 45.7383 103.802 34.2527 102.83C27.3162 102.243 20.5655 103.925 13.6182 103.373C4.65786 102.66 -7.2514 103.227 -11.7526 99.1698C-16.3208 95.0519 -6.92748 90.2539 -6.18027 85.5257Z" fill="#FE585B"/>
<path fill-rule="evenodd" clip-rule="evenodd" d="M28.4743 10.5302C32.6486 10.8717 36.7429 8.58004 40.7607 9.76696C45.5034 11.168 52.0085 12.874 52.9217 17.7523C53.9127 23.0456 45.1742 25.9458 44.7952 31.3183C44.3629 37.4467 53.804 43.0221 50.7629 48.3534C48.0004 53.1961 39.9881 50.0274 34.4613 49.4342C30.5659 49.0162 27.5694 45.5836 23.6543 45.444C17.6027 45.2284 10.1469 52.9509 6.10508 48.4236C2.09968 43.9371 10.1975 37.4057 11.1701 31.4602C11.7575 27.8695 10.0747 24.3751 10.6274 20.7788C11.3402 16.1405 10.7727 9.97575 14.8302 7.64571C18.9481 5.281 23.7461 10.1434 28.4743 10.5302Z" fill="#FC7443"/>
<path fill-rule="evenodd" clip-rule="evenodd" d="M173.474 4.53021C177.649 4.87169 181.743 2.58004 185.761 3.76696C190.503 5.16803 197.008 6.87405 197.922 11.7523C198.913 17.0456 190.174 19.9458 189.795 25.3183C189.363 31.4467 198.804 37.0221 195.763 42.3534C193 47.1961 184.988 44.0274 179.461 43.4342C175.566 43.0162 172.569 39.5836 168.654 39.444C162.603 39.2284 155.147 46.9509 151.105 42.4236C147.1 37.9371 155.198 31.4057 156.17 25.4602C156.757 21.8695 155.075 18.3751 155.627 14.7788C156.34 10.1405 155.773 3.97575 159.83 1.64571C163.948 -0.719004 168.746 4.14342 173.474 4.53021Z" fill="#FF8787"/>
<path fill-rule="evenodd" clip-rule="evenodd" d="M117.063 7.20494C131.49 7.9797 144.155 11.9054 154.996 17.5775C166.733 23.7188 176.896 30.8598 179.688 39.9711C183.097 51.0949 184.354 63.7453 171.749 72.2549C158.691 81.0707 136.857 81.4742 117.063 82.2497C95.2362 83.1048 71.8992 84.7511 54.6033 76.8446C35.6156 68.1646 20.8565 53.9771 24.5773 39.9711C28.0889 26.7526 52.1053 19.9805 71.5388 13.0955C85.3864 8.18958 100.98 6.34119 117.063 7.20494Z" fill="#FFAB7A"/>
<ellipse cx="177.987" cy="70.7269" rx="16.7876" ry="14.0511" fill="#F55A57"/>
<ellipse cx="173.711" cy="65.6395" rx="1.21537" ry="2.15126" fill="black"/>
<ellipse cx="182.286" cy="65.6395" rx="1.21537" ry="2.15126" fill="black"/>
<path d="M173.043 72.6445C173.079 74.5722 175.312 76.0937 178.031 76.0428C180.749 75.9919 182.924 74.388 182.888 72.4603C182.852 70.5326 180.67 71.7825 177.952 71.8334C175.233 71.8843 173.007 70.7168 173.043 72.6445Z" fill="black"/>
<path d="M170.796 50.9035C173.677 48.6452 180.1 51.1915 180.1 55.0219C180.101 59.542 168.086 61.6232 165.801 61.9782C165.552 62.0169 165.303 62.044 165.054 62.039C163.425 62.0062 157.615 61.2375 170.796 50.9035Z" fill="#6E5232"/>
<path d="M170.796 50.9035C173.677 48.6452 180.1 51.1915 180.1 55.0219C180.101 59.542 168.086 61.6232 165.801 61.9782C165.552 62.0169 165.303 62.044 165.054 62.039C163.425 62.0062 157.615 61.2375 170.796 50.9035Z" fill="url(#paint0_radial_1260_3918)" fill-opacity="0.15"/>
<path d="M185.2 50.7629C182.319 48.5045 175.896 51.0509 175.896 54.8813C175.896 59.4014 187.91 61.4825 190.195 61.8375C190.445 61.8763 190.693 61.9034 190.942 61.8984C192.571 61.8656 198.381 61.0968 185.2 50.7629Z" fill="#6E5232"/>
<path d="M185.2 50.7629C182.319 48.5045 175.896 51.0509 175.896 54.8813C175.896 59.4014 187.91 61.4825 190.195 61.8375C190.445 61.8763 190.693 61.9034 190.942 61.8984C192.571 61.8656 198.381 61.0968 185.2 50.7629Z" fill="url(#paint1_radial_1260_3918)" fill-opacity="0.15"/>
<path d="M84.3161 36.9608C84.0697 37.035 83.873 37.0324 83.7261 36.953C83.5791 36.8802 83.472 36.7572 83.4047 36.5842C83.3508 36.4244 83.3635 36.2643 83.4429 36.104C83.5223 35.9437 83.6619 35.8399 83.8618 35.7925C84.5677 35.6032 85.1936 35.3708 85.7392 35.0955C86.2849 34.8201 86.767 34.5083 87.1857 34.1601C86.7706 33.675 86.412 33.1397 86.1098 32.5541C85.8143 31.9619 85.5685 31.3194 85.3726 30.6268L83.9126 30.6322C83.766 30.6328 83.6391 30.5799 83.5321 30.4736C83.425 30.3674 83.3712 30.2409 83.3706 30.0942C83.3701 29.9476 83.423 29.824 83.5293 29.7236C83.6355 29.6166 83.762 29.5628 83.9087 29.5622L87.3387 29.5495L87.3342 28.3495C87.3335 28.1562 87.3962 27.9993 87.5225 27.8788C87.6487 27.7584 87.8018 27.6978 87.9818 27.6971C88.1618 27.6965 88.3153 27.7559 88.4425 27.8754C88.5696 27.995 88.6335 28.1514 88.6342 28.3447L88.6386 29.5447L92.0486 29.5321C92.1953 29.5315 92.3188 29.5844 92.4192 29.6907C92.5263 29.7903 92.58 29.9134 92.5806 30.0601C92.5811 30.2068 92.5283 30.3336 92.422 30.4407C92.3224 30.5477 92.1993 30.6015 92.0526 30.6021L90.6726 30.6072C90.4885 31.3012 90.2475 31.9421 89.9497 32.5299C89.6586 33.1176 89.3072 33.6556 88.8957 34.1438C89.3237 34.4955 89.8148 34.807 90.3692 35.0783C90.9235 35.3496 91.551 35.5773 92.2517 35.7614C92.4519 35.8073 92.5889 35.9101 92.6629 36.0698C92.7368 36.2296 92.744 36.3895 92.6846 36.5498C92.6253 36.7233 92.5191 36.847 92.366 36.9209C92.2196 36.9948 92.0263 36.9989 91.7861 36.9331C90.2711 36.492 89.0254 35.8533 88.0489 35.0169C87.5638 35.4321 87.0118 35.8008 86.393 36.1231C85.7809 36.4453 85.0886 36.7246 84.3161 36.9608ZM88.0425 33.2769C88.3411 32.9025 88.5962 32.4916 88.8079 32.0441C89.0196 31.5966 89.1978 31.1193 89.3426 30.6121L86.6926 30.6219C86.8478 31.128 87.0329 31.604 87.2479 32.0499C87.4696 32.4957 87.7344 32.9047 88.0425 33.2769ZM98.0163 36.99C97.8496 36.9906 97.7094 36.9378 97.5957 36.8316C97.482 36.7253 97.4248 36.5822 97.4241 36.4022L97.4198 35.2322L96.2098 35.2367C96.0631 35.2372 95.9329 35.1844 95.8192 35.0781C95.7121 34.9652 95.6583 34.8354 95.6578 34.6887C95.6572 34.5354 95.71 34.4052 95.8163 34.2981C95.9293 34.191 96.0591 34.1372 96.2057 34.1367L97.4157 34.1322L97.4068 31.7322C97.135 32.1399 96.8298 32.551 96.4914 32.9656C96.1529 33.3802 95.7944 33.7749 95.4158 34.1496C95.0438 34.5243 94.6717 34.8624 94.2995 35.1638C94.1666 35.2709 94.0101 35.3282 93.8301 35.3355C93.6501 35.3362 93.5032 35.2667 93.3894 35.1271C93.2822 34.9942 93.2417 34.8477 93.2677 34.6876C93.3005 34.5275 93.3867 34.3971 93.5263 34.2966C93.9252 33.9951 94.3305 33.6436 94.7424 33.2421C95.1609 32.8339 95.556 32.4091 95.9277 31.9677C96.2994 31.5197 96.6144 31.0952 96.873 30.6942L93.963 30.705C93.8163 30.7055 93.6895 30.6527 93.5824 30.5464C93.4753 30.4401 93.4215 30.3137 93.421 30.167C93.4204 30.0137 93.4733 29.8868 93.5796 29.7864C93.6858 29.6793 93.8123 29.6255 93.959 29.625L97.399 29.6122L97.3939 28.2422C97.3932 28.0689 97.4494 27.9287 97.5623 27.8216C97.6752 27.7079 97.815 27.6507 97.9817 27.6501C98.1417 27.6495 98.2786 27.7056 98.3923 27.8185C98.506 27.9248 98.5632 28.0646 98.5639 28.2379L98.5689 29.6079L102.009 29.5951C102.162 29.5946 102.289 29.6474 102.39 29.7537C102.497 29.8533 102.55 29.9798 102.551 30.1331C102.551 30.2798 102.499 30.4067 102.392 30.5137C102.293 30.6208 102.166 30.6746 102.013 30.6751L99.1329 30.6858C99.4011 31.0982 99.7261 31.5236 100.108 31.9622C100.489 32.3941 100.894 32.8093 101.322 33.2077C101.75 33.6061 102.168 33.9613 102.576 34.2731C102.703 34.3659 102.767 34.4924 102.768 34.6524C102.775 34.8123 102.732 34.9492 102.639 35.0629C102.533 35.1899 102.397 35.2671 102.23 35.2944C102.063 35.3217 101.91 35.2789 101.77 35.1661C101.408 34.8674 101.037 34.5321 100.656 34.1602C100.274 33.7883 99.9063 33.393 99.5514 32.9743C99.1965 32.5489 98.8716 32.1168 98.5766 31.6779L98.5857 34.1279L99.8357 34.1232C99.989 34.1227 100.119 34.1755 100.226 34.2818C100.333 34.3881 100.387 34.5179 100.388 34.6712C100.388 34.8179 100.335 34.9481 100.229 35.0618C100.123 35.1688 99.9931 35.2227 99.8398 35.2232L98.5898 35.2279L98.5941 36.3979C98.5948 36.5779 98.5386 36.7214 98.4257 36.8285C98.3128 36.9356 98.1763 36.9894 98.0163 36.99ZM103.96 29.8479L111.47 29.8201L111.474 31.0001L105.184 31.0234L105.206 37.0133L103.986 37.0179L103.96 29.8479ZM110.85 29.8224L112.07 29.8179L112.091 35.5878C112.094 36.2278 111.975 36.5783 111.546 36.7699C111.116 36.9614 110.486 36.9838 109.616 36.987C109.575 36.6372 109.383 36.0979 109.212 35.7685C109.762 35.7965 110.442 35.7939 110.632 35.7832C110.812 35.7826 110.872 35.7223 110.871 35.5723L110.85 29.8224ZM105.753 28.0213L107.993 28.013L107.997 29.063L105.757 29.0713L105.753 28.0213ZM107.213 28.0158L108.493 28.0111C108.593 30.5808 109.17 32.6886 111.044 33.5917C110.785 33.8327 110.377 34.3242 110.188 34.6449C108.213 33.4822 107.545 31.1946 107.405 28.5551L107.215 28.5558L107.213 28.0158ZM107.311 30.1155L108.412 30.3014C108.079 32.4027 107.315 33.8855 105.748 34.7313C105.587 34.4519 105.195 33.9634 104.954 33.7643C106.322 33.1092 107.067 31.8364 107.311 30.1155ZM117.396 36.8982C116.896 36.9 116.496 36.8482 116.196 36.7426C115.895 36.6437 115.678 36.4679 115.544 36.215C115.409 35.9622 115.341 35.6124 115.34 35.1658C115.338 34.7191 115.403 34.3689 115.536 34.115C115.668 33.8612 115.884 33.6837 116.184 33.5826C116.483 33.4749 116.883 33.42 117.383 33.4182L118.663 33.4134C119.163 33.4116 119.563 33.4634 119.864 33.569C120.164 33.6679 120.381 33.8437 120.516 34.0966C120.65 34.3494 120.718 34.6992 120.72 35.1458C120.721 35.5925 120.656 35.9427 120.524 36.1966C120.391 36.4504 120.175 36.6279 119.875 36.729C119.576 36.8368 119.176 36.8916 118.676 36.8934L117.396 36.8982ZM114.184 30.95C114.024 30.9506 113.887 30.9011 113.773 30.8016C113.666 30.7019 113.613 30.5655 113.612 30.3921L113.611 30.0721C113.609 29.5522 113.731 29.185 113.977 28.9708C114.229 28.7498 114.659 28.6383 115.265 28.636L117.335 28.6283L117.333 28.0383C117.333 27.845 117.392 27.6981 117.512 27.5977C117.638 27.4972 117.784 27.4467 117.951 27.446C118.124 27.4454 118.271 27.4949 118.392 27.5944C118.519 27.6939 118.583 27.8404 118.583 28.0337L118.585 28.6237L120.725 28.6158C121.332 28.6135 121.759 28.7219 122.007 28.941C122.261 29.1534 122.389 29.5196 122.391 30.0396L122.392 30.3596C122.393 30.5329 122.336 30.6698 122.223 30.7702C122.11 30.8707 121.974 30.9212 121.814 30.9217C121.654 30.9223 121.517 30.8762 121.403 30.7833C121.29 30.6904 121.233 30.5572 121.232 30.3839L121.231 30.1139C121.23 29.9272 121.183 29.7941 121.089 29.7144C121.003 29.6347 120.836 29.5954 120.589 29.5963L115.409 29.6155C115.162 29.6164 114.993 29.657 114.9 29.7374C114.807 29.8177 114.76 29.9512 114.761 30.1379L114.762 30.4079C114.763 30.5812 114.706 30.7148 114.594 30.8085C114.481 30.9023 114.344 30.9494 114.184 30.95ZM114.188 34.71C114.022 34.804 113.858 34.8346 113.698 34.8019C113.538 34.7691 113.411 34.6763 113.317 34.5233C113.23 34.3703 113.213 34.2237 113.266 34.0835C113.318 33.9433 113.428 33.8295 113.594 33.7422C113.974 33.5475 114.363 33.3227 114.762 33.0679C115.161 32.8064 115.55 32.535 115.929 32.2536C116.314 31.9655 116.663 31.6842 116.976 31.4097C117.295 31.1218 117.614 30.9773 117.934 30.9761C118.261 30.9749 118.588 31.1037 118.916 31.3625C119.223 31.6014 119.567 31.8501 119.948 32.1087C120.336 32.3672 120.74 32.6157 121.161 32.8542C121.582 33.0926 121.993 33.3078 122.394 33.4996C122.547 33.5724 122.658 33.6853 122.725 33.8384C122.792 33.9848 122.783 34.1382 122.697 34.2985C122.61 34.4655 122.478 34.576 122.298 34.63C122.125 34.6773 121.948 34.6546 121.767 34.5619C121.393 34.3567 121.003 34.1281 120.595 33.8763C120.187 33.6245 119.793 33.3659 119.412 33.1007C119.038 32.8287 118.7 32.5666 118.399 32.3144C118.245 32.1817 118.105 32.1188 117.978 32.126C117.858 32.1264 117.722 32.1936 117.569 32.3275C117.27 32.5819 116.931 32.8532 116.552 33.1413C116.18 33.4227 115.791 33.7008 115.385 33.9756C114.98 34.2438 114.58 34.4886 114.188 34.71ZM117.392 35.8382L118.672 35.8334C119.032 35.8321 119.265 35.7846 119.372 35.6908C119.485 35.5971 119.541 35.4169 119.54 35.1502C119.539 34.8769 119.481 34.6971 119.368 34.6108C119.261 34.5179 119.027 34.4721 118.667 34.4734L117.387 34.4782C117.02 34.4795 116.781 34.5271 116.668 34.6209C116.561 34.7079 116.509 34.8881 116.51 35.1614C116.511 35.4281 116.565 35.6079 116.672 35.7008C116.785 35.7938 117.026 35.8395 117.392 35.8382ZM115.248 32.0361C115.102 32.13 114.945 32.1739 114.779 32.1678C114.619 32.1618 114.482 32.0823 114.368 31.9294C114.287 31.8163 114.257 31.6864 114.276 31.5397C114.302 31.3863 114.382 31.266 114.515 31.1788C114.788 31.0045 115.067 30.8034 115.353 30.5757C115.645 30.3479 115.894 30.1337 116.1 29.9329C116.213 29.8125 116.346 29.752 116.5 29.7514C116.66 29.7508 116.796 29.807 116.91 29.9199C117.024 30.0262 117.078 30.1526 117.072 30.2993C117.065 30.4393 117.009 30.5662 116.903 30.68C116.657 30.9342 116.395 31.1752 116.116 31.4029C115.843 31.6306 115.554 31.8416 115.248 32.0361ZM120.678 31.906C120.511 31.7999 120.32 31.6773 120.106 31.5381C119.892 31.3989 119.682 31.2563 119.475 31.1104C119.274 30.9578 119.1 30.8218 118.953 30.7024C118.833 30.6028 118.766 30.4797 118.752 30.3331C118.745 30.1865 118.791 30.0596 118.89 29.9526C118.983 29.8389 119.103 29.7785 119.25 29.7712C119.403 29.7573 119.536 29.7969 119.65 29.8898C119.804 30.0092 119.981 30.1385 120.182 30.2778C120.382 30.4104 120.583 30.5396 120.783 30.6656C120.99 30.7848 121.181 30.8874 121.354 30.9735C121.488 31.0396 121.568 31.146 121.595 31.2926C121.629 31.4391 121.61 31.5792 121.537 31.7128C121.451 31.8664 121.324 31.9602 121.158 31.9942C120.991 32.0215 120.831 31.9921 120.678 31.906Z" fill="#FE585B"/>
<path d="M93.3021 58.7186C92.5341 58.7214 92.1329 58.3922 92.0984 57.731C92.0867 57.4324 92.1764 57.1814 92.3677 56.978C92.5589 56.764 92.8518 56.6509 93.2464 56.6388C93.8543 56.6152 94.3235 56.5654 94.6539 56.4895C94.9842 56.4136 95.2291 56.2794 95.3884 56.0868C95.5583 55.8835 95.6798 55.5791 95.753 55.1735C95.7738 55.024 95.7998 54.8639 95.8312 54.6932C95.8625 54.5117 95.8885 54.3303 95.9092 54.1489C95.9609 53.7113 95.9172 53.4235 95.778 53.2853C95.6495 53.1472 95.3239 53.079 94.8012 53.081L93.4092 53.0861C92.6626 53.0889 92.0863 53.0217 91.6805 52.8845C91.2746 52.7367 91.0069 52.471 90.8775 52.0875C90.7587 51.6933 90.746 51.1386 90.8393 50.4236C90.9329 49.7726 91.0698 49.2761 91.2498 48.9341C91.4406 48.5921 91.7384 48.3563 92.1432 48.2268C92.5481 48.0973 93.1132 48.0312 93.8385 48.0285L95.0545 48.024C95.4491 48.0225 95.7103 47.9736 95.8379 47.8771C95.9655 47.7699 96.0287 47.535 96.0273 47.1724C96.026 46.8097 95.9611 46.5806 95.8328 46.4851C95.7044 46.3789 95.4429 46.3265 95.0482 46.328L91.4482 46.3413C91.2136 46.3422 91.0106 46.263 90.8393 46.1036C90.6787 45.9335 90.598 45.7312 90.5971 45.4965C90.5962 45.2618 90.6755 45.0642 90.8349 44.9036C91.0049 44.7323 91.2073 44.6462 91.4419 44.6454L95.0419 44.632C95.8419 44.629 96.4555 44.7014 96.8827 44.8492C97.3206 44.9969 97.6202 45.2518 97.7816 45.6139C97.9536 45.9759 98.0408 46.4876 98.0433 47.1489C98.0457 47.7996 97.9622 48.3119 97.793 48.6858C97.6343 49.0491 97.3366 49.3062 96.8998 49.4572C96.4737 49.6081 95.8606 49.685 95.0606 49.688L93.8127 49.6926C93.418 49.6941 93.1515 49.7484 93.0133 49.8556C92.8856 49.952 92.7958 50.171 92.7437 50.5126C92.7021 50.8114 92.7349 51.0246 92.8421 51.1522C92.9598 51.2691 93.216 51.3268 93.6107 51.3254L95.2427 51.3193C96.0107 51.3165 96.603 51.3943 97.0196 51.5527C97.4468 51.7111 97.7358 51.9821 97.8866 52.3655C98.0373 52.7383 98.0766 53.2608 98.0044 53.9331C97.984 54.1892 97.9477 54.4666 97.8955 54.7655C97.8539 55.0643 97.8175 55.3151 97.7863 55.5179C97.6295 56.3932 97.3867 57.0607 97.0577 57.5206C96.7287 57.9805 96.2659 58.2916 95.6691 58.4538C95.0724 58.6267 94.2834 58.7149 93.3021 58.7186ZM102.295 58.8292C102.017 58.8303 101.777 58.7351 101.574 58.5439C101.37 58.3633 101.268 58.1184 101.267 57.809L101.22 45.0731C101.218 44.7638 101.319 44.5181 101.521 44.336C101.723 44.1432 101.962 44.0464 102.24 44.0453C102.528 44.0443 102.768 44.1394 102.961 44.3307C103.164 44.5112 103.266 44.7562 103.268 45.0655L103.315 57.8014C103.316 58.1108 103.216 58.3565 103.014 58.5386C102.822 58.7313 102.583 58.8282 102.295 58.8292ZM116.822 58.6474C116.545 58.6484 116.31 58.5586 116.117 58.378C115.924 58.208 115.817 57.9684 115.794 57.6592C115.783 57.3819 115.862 57.1416 116.032 56.9383C116.212 56.735 116.452 56.6221 116.75 56.5996C117.092 56.577 117.315 56.5175 117.422 56.4211C117.539 56.3247 117.597 56.1218 117.596 55.8125L117.587 53.4445L114.419 53.4563L114.433 57.4242C114.435 57.7229 114.339 57.9579 114.148 58.1293C113.967 58.3006 113.738 58.3868 113.461 58.3878C113.194 58.3888 112.965 58.3043 112.772 58.1344C112.59 57.9644 112.499 57.7301 112.497 57.4314L112.483 53.4634L109.331 53.4751C109.238 54.3821 109.076 55.2094 108.844 55.9569C108.612 56.7045 108.295 57.4416 107.892 58.1685C107.754 58.4143 107.552 58.5804 107.286 58.6667C107.03 58.7637 106.769 58.754 106.502 58.6376C106.235 58.5213 106.058 58.3353 105.972 58.0796C105.896 57.8239 105.927 57.5784 106.065 57.3432C106.531 56.5202 106.885 55.5855 107.127 54.5393C107.368 53.4931 107.486 52.2873 107.481 50.9219L107.47 47.834C107.467 47.0446 107.582 46.4149 107.815 45.9447C108.058 45.4638 108.452 45.1156 108.995 44.9003C109.538 44.6849 110.268 44.5756 111.186 44.5722L115.778 44.5552C116.695 44.5518 117.426 44.6557 117.971 44.867C118.516 45.0783 118.906 45.4236 119.143 45.9027C119.39 46.3711 119.515 47 119.518 47.7893L119.548 56.0293C119.551 56.6799 119.462 57.1923 119.282 57.5663C119.113 57.9509 118.826 58.224 118.421 58.3855C118.027 58.5469 117.494 58.6342 116.822 58.6474ZM114.412 51.7443L117.58 51.7325L117.573 49.8605L114.405 49.8723L114.412 51.7443ZM109.436 51.7627L112.476 51.7514L112.469 49.8795L109.445 49.8907L109.449 50.9147C109.45 51.064 109.45 51.208 109.451 51.3467C109.451 51.4853 109.447 51.624 109.436 51.7627ZM114.399 48.1443L117.567 48.1325L117.566 47.7965C117.564 47.1992 117.429 46.7997 117.161 46.598C116.905 46.3857 116.446 46.2807 115.784 46.2831L114.392 46.2883L114.399 48.1443ZM109.439 48.1627L112.463 48.1515L112.456 46.2955L111.192 46.3002C110.531 46.3026 110.073 46.411 109.817 46.6253C109.562 46.8289 109.436 47.2293 109.438 47.8267L109.439 48.1627Z" fill="black" fill-opacity="0.85"/>
</g>
<defs>
<radialGradient id="paint0_radial_1260_3918" cx="0" cy="0" r="1" gradientUnits="userSpaceOnUse" gradientTransform="translate(0.558656 46.8353) rotate(65.4889) scale(3.32531 8.21233)">
<stop offset="0.33" stop-opacity="0"/>
<stop offset="0.655" stop-opacity="0.6"/>
<stop offset="1"/>
</radialGradient>
<radialGradient id="paint1_radial_1260_3918" cx="0" cy="0" r="1" gradientUnits="userSpaceOnUse" gradientTransform="translate(355.296 45.8572) rotate(114.511) scale(3.32531 8.21233)">
<stop offset="0.33" stop-opacity="0"/>
<stop offset="0.655" stop-opacity="0.6"/>
<stop offset="1"/>
</radialGradient>
<clipPath id="clip0_1260_3918">
<rect width="200" height="90" fill="white"/>
</clipPath>
</defs>
</svg>
