<svg width="200" height="90" viewBox="0 0 200 90" fill="none" xmlns="http://www.w3.org/2000/svg">
<g clip-path="url(#clip0_2306_6251)">
<rect width="200" height="90" fill="#BDE3FF"/>
<path fill-rule="evenodd" clip-rule="evenodd" d="M-6.18027 85.5257C-5.5206 81.3514 -9.94765 77.2571 -7.65473 73.2393C-4.94813 68.4966 -1.65241 61.9915 7.77154 61.0783C17.9972 60.0873 23.5998 68.8258 33.9785 69.2048C45.8176 69.6371 56.5881 60.196 66.8872 63.2371C76.2425 65.9996 70.121 74.0119 68.9752 79.5387C68.1676 83.4341 61.5364 86.4306 61.2669 90.3457C60.8502 96.3973 75.7689 103.853 67.0229 107.895C58.3557 111.9 45.7383 103.802 34.2527 102.83C27.3162 102.243 20.5655 103.925 13.6182 103.373C4.65786 102.66 -7.2514 103.227 -11.7526 99.1698C-16.3208 95.0519 -6.92748 90.2539 -6.18027 85.5257Z" fill="#005EA5"/>
<path fill-rule="evenodd" clip-rule="evenodd" d="M28.4743 10.5302C32.6486 10.8717 36.7429 8.58004 40.7607 9.76696C45.5034 11.168 52.0085 12.874 52.9217 17.7523C53.9127 23.0456 45.1742 25.9458 44.7952 31.3183C44.3629 37.4467 53.804 43.0221 50.7629 48.3534C48.0004 53.1961 39.9881 50.0274 34.4613 49.4342C30.5659 49.0162 27.5694 45.5836 23.6543 45.444C17.6027 45.2284 10.1469 52.9509 6.10508 48.4236C2.09968 43.9371 10.1975 37.4057 11.1701 31.4602C11.7575 27.8695 10.0747 24.3751 10.6274 20.7788C11.3402 16.1405 10.7727 9.97575 14.8302 7.64571C18.9481 5.281 23.7461 10.1434 28.4743 10.5302Z" fill="#2382C9"/>
<path fill-rule="evenodd" clip-rule="evenodd" d="M173.474 4.53021C177.649 4.87169 181.743 2.58004 185.761 3.76696C190.503 5.16803 197.008 6.87405 197.922 11.7523C198.913 17.0456 190.174 19.9458 189.795 25.3183C189.363 31.4467 198.804 37.0221 195.763 42.3534C193 47.1961 184.988 44.0274 179.461 43.4342C175.566 43.0162 172.569 39.5836 168.654 39.444C162.603 39.2284 155.147 46.9509 151.105 42.4236C147.1 37.9371 155.198 31.4057 156.17 25.4602C156.757 21.8695 155.075 18.3751 155.627 14.7788C156.34 10.1405 155.773 3.97575 159.83 1.64571C163.948 -0.719004 168.746 4.14342 173.474 4.53021Z" fill="#69BAF5"/>
<path fill-rule="evenodd" clip-rule="evenodd" d="M117.063 7.20494C131.49 7.9797 144.155 11.9054 154.996 17.5775C166.733 23.7188 176.896 30.8598 179.688 39.9711C183.097 51.0949 184.354 63.7453 171.749 72.2549C158.691 81.0707 136.857 81.4742 117.063 82.2497C95.2362 83.1048 71.8992 84.7511 54.6033 76.8446C35.6156 68.1646 20.8565 53.9771 24.5773 39.9711C28.0889 26.7526 52.1053 19.9805 71.5388 13.0955C85.3864 8.18958 100.98 6.34119 117.063 7.20494Z" fill="#C9F4FF"/>
<path d="M177.967 51.2804L196.726 84.9582L159.338 85.0303L177.967 51.2804Z" fill="#228CDA"/>
<path d="M173.373 78.4648H182.74" stroke="black" stroke-width="2" stroke-linecap="round"/>
<ellipse cx="171.472" cy="68.8528" rx="4.64254" ry="4.79533" transform="rotate(-0.110477 171.472 68.8528)" stroke="#FA8F21" stroke-width="2"/>
<ellipse cx="184.669" cy="68.8118" rx="4.64254" ry="4.79533" transform="rotate(-0.110477 184.669 68.8118)" stroke="#FA8F21" stroke-width="2"/>
<path d="M175.55 68.4723C175.55 68.4723 176.816 68.054 177.654 68.0337C178.594 68.011 180.025 68.4637 180.025 68.4637" stroke="#FA8F21" stroke-width="2"/>
<ellipse cx="171.471" cy="68.8518" rx="1.89842" ry="1.9609" transform="rotate(-0.110477 171.471 68.8518)" fill="black"/>
<ellipse cx="184.67" cy="68.8264" rx="1.89842" ry="1.9609" transform="rotate(-0.110477 184.67 68.8264)" fill="black"/>
<path d="M83.5135 35.0059C83.6995 34.8318 83.9563 34.8675 84.2839 35.113C84.6181 35.3518 84.6921 35.5382 84.5059 35.6722C84.2467 35.8731 83.8443 36.138 83.2989 36.4667C83.0993 36.5874 83.0765 36.7142 83.2303 36.8469C83.7252 37.2718 84.2663 37.5631 84.8535 37.7209C85.1272 37.7999 85.1346 38.0132 84.8759 38.3608C84.6172 38.7151 84.351 38.8394 84.0773 38.7338C83.3431 38.4965 82.6447 38.0291 81.9821 37.3316C81.3261 36.6273 80.8028 35.7426 80.4122 34.6774C80.047 35.0587 79.6183 35.427 79.1263 35.7821L79.1317 37.2321C79.1323 37.4054 79.2159 37.4718 79.3824 37.4312L80.9008 36.9956C81.1606 36.9279 81.3244 37.0707 81.3924 37.4237C81.4604 37.7768 81.2979 38.0141 80.905 38.1355C79.8329 38.4529 79.097 38.6756 78.6975 38.8037L78.2682 38.9853C78.0152 39.0863 77.8047 38.9604 77.6368 38.6077C77.4755 38.2616 77.5078 37.9981 77.7338 37.8173C77.8406 37.8302 77.8933 37.6567 77.8919 37.2967L77.8892 36.5567C77.4035 36.8252 77.0641 36.9898 76.871 37.0505C76.638 37.138 76.3909 37.0223 76.1297 36.7032C75.8752 36.3842 75.8811 36.1808 76.1474 36.0932C77.0731 35.8164 78.0012 35.3096 78.9318 34.5728L76.5018 34.5818C76.2285 34.5829 76.0912 34.4167 76.09 34.0834C76.0887 33.7434 76.2248 33.5729 76.4981 33.5719L79.8781 33.5593L79.876 32.9993L77.416 33.0084C77.1427 33.0095 77.0054 32.8533 77.0043 32.54C77.0031 32.22 77.1392 32.0595 77.4125 32.0585L79.8725 32.0493L79.8706 31.5293L76.9206 31.5403C76.6472 31.5413 76.51 31.3751 76.5087 31.0418C76.5075 30.7018 76.6435 30.5313 76.9168 30.5303L79.8668 30.5193L79.8657 30.2093C79.8646 29.936 80.0641 29.7986 80.4641 29.7971C80.8641 29.7956 81.0646 29.9316 81.0657 30.2049L81.0668 30.5149L84.1368 30.5035C84.4101 30.5025 84.5474 30.672 84.5487 31.012C84.5499 31.3453 84.4139 31.5125 84.1405 31.5135L81.0705 31.5249L81.0725 32.0449L83.7525 32.035C84.0258 32.0339 84.163 32.1934 84.1642 32.5134C84.1654 32.8268 84.0293 32.9839 83.756 32.9849L81.076 32.9949L81.0781 33.5549L84.488 33.5422C84.7614 33.5412 84.8987 33.7107 84.8999 34.0507C84.9012 34.384 84.7651 34.5512 84.4918 34.5522L81.5418 34.5632C81.7168 35.0225 81.9752 35.4749 82.3168 35.9203C82.8954 35.5248 83.2943 35.22 83.5135 35.0059ZM91.1249 35.3676L93.4748 35.3589C93.054 35.1338 92.653 34.862 92.2718 34.5434C91.9196 34.8514 91.5373 35.1261 91.1249 35.3676ZM91.1926 37.4674C91.1933 37.6407 91.2803 37.7271 91.4536 37.7264L93.0236 37.7206C93.1969 37.72 93.2833 37.633 93.2826 37.4597L93.2785 36.3597L91.1886 36.3674L91.1926 37.4674ZM89.3106 34.2144C89.5048 34.447 89.5157 34.6869 89.3432 34.9342L89.2636 35.0345C90.1024 34.7181 90.8375 34.2954 91.4689 33.7664L90.7153 32.7891C90.4764 33.0834 90.327 33.2506 90.2672 33.2908C90.0745 33.4715 89.8912 33.4789 89.7172 33.3129C89.7172 33.2929 89.5633 33.1601 89.2558 32.9146L88.4058 32.9177L88.4066 33.1577L89.3106 34.2144ZM92.9325 32.0209C93.0253 31.8806 92.985 31.8107 92.8117 31.8114L91.4317 31.8165L91.3621 31.9167L92.2262 33.0336L92.9325 32.0209ZM93.4078 30.7592C93.6811 30.7581 93.9413 30.8172 94.1885 30.9363C94.4422 31.0487 94.5196 31.2384 94.4206 31.5054C94.1966 32.2462 93.7428 33.0013 93.059 33.7705C93.7275 34.2747 94.3454 34.6024 94.9126 34.7536C95.1862 34.8326 95.2037 35.0392 94.9649 35.3734C94.7261 35.701 94.5466 35.8416 94.4265 35.7954L94.4356 38.2654C94.4368 38.5787 94.2774 38.736 93.9574 38.7372L90.5674 38.7497C90.2474 38.7509 90.0868 38.5915 90.0856 38.2715L90.0768 35.9015C89.7374 36.0428 89.4871 35.9871 89.3262 35.7343L89.0547 35.3253C88.995 35.4122 88.9417 35.4124 88.8947 35.3259L88.4116 34.4877L88.4271 38.6877C88.4282 38.961 88.242 39.0984 87.8687 39.0997C87.4953 39.1011 87.3082 38.9652 87.3072 38.6918L87.2946 35.3118C86.9846 36.1997 86.7134 36.794 86.4812 37.0949C86.3619 37.2753 86.2082 37.1859 86.0202 36.8266C85.8389 36.4672 85.8179 36.1907 85.9572 35.9968C86.1164 35.8029 86.3249 35.3954 86.5826 34.7745C86.847 34.1535 87.0514 33.5361 87.1958 32.9222L86.3858 32.9252C86.1124 32.9262 85.9751 32.7434 85.9737 32.3767C85.9724 32.0101 86.1084 31.8262 86.3817 31.8252L87.2817 31.8219L87.2756 30.1819C87.2746 29.9085 87.4608 29.7712 87.8341 29.7698C88.2074 29.7684 88.3946 29.9044 88.3956 30.1777L88.4017 31.8177L89.0417 31.8153C89.3617 31.8142 89.5223 31.9936 89.5237 32.3536C90.2676 31.6241 90.7716 30.8889 91.0355 30.1479C91.1479 29.8809 91.3909 29.8 91.7646 29.9052C92.145 30.0038 92.2823 30.1767 92.1765 30.4237L92.0079 30.8043L93.4078 30.7592ZM100.813 34.7517L100.808 33.3917C100.807 33.2184 100.72 33.1321 100.547 33.1327L99.7766 33.1356C99.4566 33.1368 99.2961 32.9773 99.2949 32.6573L99.2859 30.2274C99.2848 29.954 99.451 29.8167 99.7843 29.8155C100.124 29.8143 100.295 29.9503 100.296 30.2236L100.297 30.4936L101.457 30.4893C101.73 30.4883 101.867 30.6511 101.869 30.9778C101.87 31.3045 101.734 31.4683 101.46 31.4693L100.3 31.4736L100.302 31.9436C100.303 32.1169 100.39 32.2033 100.563 32.2026L101.313 32.2099C101.633 32.2087 101.794 32.3681 101.795 32.6881L101.803 34.7481C101.803 34.9547 101.777 35.1082 101.724 35.2084C101.678 35.3085 101.578 35.3956 101.425 35.4695C101.272 35.5434 101.089 35.5774 100.876 35.5715C100.502 35.5796 100.272 35.4637 100.184 35.2241C100.097 34.9777 100.19 34.854 100.463 34.853L100.643 34.8524C100.756 34.8586 100.813 34.8251 100.813 34.7517ZM99.349 33.7672C99.4147 33.5069 99.5943 33.4029 99.8878 33.4552C100.181 33.5007 100.302 33.7136 100.25 34.0938C100.225 34.4739 100.136 34.7642 99.9834 34.9648C99.8841 35.1585 99.7076 35.1792 99.4537 35.0268C99.1997 34.8677 99.1056 34.6581 99.1713 34.3978L99.349 33.7672ZM103.116 35.6632L103.163 34.853L102.563 34.8552C102.29 34.8563 102.152 34.6934 102.151 34.3668C102.15 34.0401 102.286 33.8763 102.559 33.8753L103.199 33.8729L103.196 33.0129L102.626 33.015C102.353 33.016 102.216 32.8532 102.214 32.5265C102.213 32.1999 102.349 32.036 102.623 32.035L103.253 32.0327L103.25 31.4327C103.25 31.2593 103.163 31.173 102.989 31.1736L102.519 31.1754C102.246 31.1764 102.109 31.0069 102.108 30.6669C102.106 30.3269 102.242 30.1564 102.516 30.1554L103.866 30.1504C104.186 30.1492 104.343 30.3286 104.338 30.6886C104.351 32.3753 104.317 34.0321 104.236 35.6591L104.696 35.6573C104.969 35.6563 105.107 35.8392 105.108 36.2058C105.109 36.5725 104.973 36.7563 104.7 36.7573L102.29 36.7663C103.359 37.2623 104.113 37.6495 104.554 37.9279C104.748 38.0405 104.712 38.2473 104.447 38.5483C104.188 38.8559 103.952 38.9401 103.738 38.8009C103.17 38.4097 102.578 38.0719 101.964 37.7875C101.536 37.5691 101.442 37.3028 101.681 36.9885L101.85 36.7679L98.8801 36.7789L99.2613 37.0875C99.5689 37.3397 99.5464 37.5798 99.194 37.8078C98.6753 38.163 97.9633 38.5223 97.0579 38.8857C96.7851 39.0067 96.5347 38.9176 96.3069 38.6185C96.0859 38.3259 96.1184 38.1225 96.4047 38.0081C97.2102 37.7051 97.9654 37.2956 98.6701 36.7797L96.3502 36.7883C96.0768 36.7893 95.9395 36.6065 95.9381 36.2398C95.9368 35.8732 96.0728 35.6893 96.3461 35.6883L96.8361 35.6865L96.6586 30.9771C96.6508 30.6771 96.7834 30.4733 97.0564 30.3656L98.1747 29.9215C98.4277 29.8272 98.6381 29.9431 98.806 30.2691C98.9805 30.5885 98.9379 30.7853 98.6782 30.8596L97.969 31.0723C97.8092 31.1195 97.7296 31.2265 97.7302 31.3931L97.7626 32.043L98.4926 32.0403C98.7659 32.0393 98.9032 32.2021 98.9044 32.5288C98.9056 32.8488 98.7695 33.0093 98.4962 33.0103L97.7962 33.0129L97.8294 33.8728L98.5294 33.8702C98.8027 33.8692 98.94 34.032 98.9412 34.3587C98.9424 34.6787 98.8063 34.8392 98.533 34.8402L97.863 34.8427L97.8961 35.6826L103.116 35.6632ZM113.513 34.8947C113.699 34.7206 113.956 34.7564 114.284 35.0018C114.618 35.2406 114.692 35.427 114.506 35.561C114.246 35.762 113.844 36.0268 113.299 36.3555C113.099 36.4762 113.076 36.603 113.23 36.7357C113.725 37.1606 114.266 37.4519 114.853 37.6097C115.127 37.6887 115.134 37.902 114.876 38.2496C114.617 38.6039 114.351 38.7283 114.077 38.6226C113.343 38.3853 112.644 37.9179 111.982 37.2204C111.326 36.5161 110.803 35.6314 110.412 34.5662C110.047 34.9475 109.618 35.3158 109.126 35.6709L109.131 37.1209C109.132 37.2943 109.216 37.3606 109.382 37.32L110.901 36.8844C111.16 36.8167 111.324 36.9595 111.392 37.3125C111.46 37.6656 111.298 37.9029 110.905 38.0244C109.833 38.3417 109.097 38.5644 108.697 38.6925L108.268 38.8741C108.015 38.9751 107.805 38.8492 107.637 38.4965C107.475 38.1504 107.508 37.8869 107.734 37.7061C107.84 37.719 107.893 37.5455 107.892 37.1855L107.889 36.4455C107.403 36.714 107.064 36.8786 106.871 36.9393C106.638 37.0268 106.391 36.9111 106.129 36.592C105.875 36.273 105.881 36.0696 106.147 35.982C107.073 35.7052 108.001 35.1984 108.932 34.4616L106.502 34.4706C106.228 34.4717 106.091 34.3055 106.09 33.9722C106.089 33.6322 106.225 33.4617 106.498 33.4607L109.878 33.4481L109.876 32.8881L107.416 32.8972C107.142 32.8983 107.005 32.7421 107.004 32.4288C107.003 32.1088 107.139 31.9483 107.412 31.9473L109.872 31.9381L109.87 31.4181L106.92 31.4291C106.647 31.4301 106.51 31.2639 106.509 30.9306C106.507 30.5906 106.643 30.4201 106.917 30.4191L109.867 30.4081L109.865 30.0981C109.864 29.8248 110.064 29.6874 110.464 29.6859C110.864 29.6844 111.064 29.8204 111.065 30.0937L111.067 30.4037L114.137 30.3923C114.41 30.3913 114.547 30.5608 114.548 30.9008C114.55 31.2341 114.414 31.4013 114.14 31.4023L111.07 31.4137L111.072 31.9337L113.752 31.9238C114.026 31.9227 114.163 32.0822 114.164 32.4022C114.165 32.7156 114.029 32.8727 113.756 32.8737L111.076 32.8837L111.078 33.4437L114.488 33.431C114.761 33.43 114.898 33.5995 114.9 33.9395C114.901 34.2728 114.765 34.44 114.492 34.441L111.542 34.452C111.717 34.9113 111.975 35.3637 112.317 35.8091C112.895 35.4136 113.294 35.1088 113.513 34.8947ZM123.03 31.3194C123.203 31.3187 123.29 31.2317 123.289 31.0584C123.288 30.8451 123.201 30.7387 123.028 30.7394L122.118 30.7427C121.945 30.7434 121.858 30.8304 121.859 31.0037C121.86 31.217 121.947 31.3234 122.12 31.3227L123.03 31.3194ZM123.915 30.0261C124.235 30.0249 124.396 30.1843 124.397 30.5043L124.401 31.5443C124.402 31.8643 124.243 32.0249 123.923 32.0261L121.293 32.0358C120.973 32.037 120.812 31.8776 120.811 31.5576L120.807 30.5176C120.806 30.1976 120.965 30.037 121.285 30.0358L123.915 30.0261ZM118.83 31.3349C119.003 31.3343 119.09 31.2473 119.089 31.074C119.088 30.8606 119.001 30.7543 118.828 30.7549L117.948 30.7582C117.775 30.7588 117.688 30.8458 117.689 31.0192C117.69 31.2325 117.777 31.3388 117.95 31.3382L118.83 31.3349ZM119.725 30.0416C120.039 30.0404 120.196 30.1999 120.197 30.5199L120.201 31.5599C120.202 31.8798 120.046 32.0404 119.733 32.0416L117.113 32.0513C116.793 32.0525 116.632 31.8931 116.631 31.5731L116.627 30.5331C116.626 30.2131 116.785 30.0525 117.105 30.0513L119.725 30.0416ZM118.164 35.0174C118.164 35.1908 118.251 35.2771 118.425 35.2765L119.855 35.2712L119.853 34.7312L118.163 34.7374L118.164 35.0174ZM118.418 33.3565C118.244 33.3571 118.158 33.4441 118.159 33.6174L118.16 33.8874L119.85 33.8812L119.848 33.3512L118.418 33.3565ZM122.87 33.87L122.869 33.6C122.868 33.4266 122.784 33.3403 122.618 33.3409L121.068 33.3467L121.07 33.8766L122.87 33.87ZM122.625 35.2609C122.791 35.2603 122.874 35.1733 122.874 35L122.873 34.72L121.073 34.7266L121.075 35.2666L122.625 35.2609ZM124.56 36.6837C124.833 36.6827 124.971 36.8522 124.972 37.1922C124.973 37.5322 124.837 37.7027 124.564 37.7037L121.084 37.7166L121.087 38.5766C121.088 38.8499 120.885 38.9874 120.478 38.9889C120.072 38.9904 119.868 38.8545 119.867 38.5811L119.864 37.7211L116.474 37.7337C116.2 37.7347 116.063 37.5652 116.062 37.2252C116.061 36.8852 116.197 36.7147 116.47 36.7137L119.86 36.7012L119.858 36.1812L117.488 36.1899C117.168 36.1911 117.007 36.0317 117.006 35.7117L116.996 32.9217C116.995 32.6017 117.154 32.4412 117.474 32.44L123.604 32.4172C123.924 32.4161 124.085 32.5755 124.086 32.8955L124.096 35.6854C124.097 36.0054 123.938 36.166 123.618 36.1672L121.078 36.1766L121.08 36.6966L124.56 36.6837Z" fill="#2382C9"/>
<path d="M81.32 53.5802C81.6177 53.3018 82.0285 53.3589 82.5527 53.7516C83.0874 54.1336 83.2059 54.4319 82.908 54.6463C82.4932 54.9679 81.8494 55.3916 80.9767 55.9175C80.6574 56.1107 80.6208 56.3135 80.8669 56.5259C81.6588 57.2056 82.5245 57.6718 83.4641 57.9243C83.902 58.0506 83.9139 58.3919 83.4999 58.9481C83.086 59.515 82.6601 59.7139 82.2221 59.5449C81.0474 59.1652 79.93 58.4174 78.8698 57.3013C77.8203 56.1745 76.983 54.7589 76.358 53.0546C75.7736 53.6647 75.0878 54.254 74.3006 54.8222L74.3092 57.1422C74.3102 57.4195 74.4439 57.5257 74.7104 57.4607L77.1398 56.7637C77.5554 56.6555 77.8176 56.8839 77.9263 57.4488C78.0351 58.0137 77.7752 58.3934 77.1466 58.5877C75.4311 59.0954 74.2537 59.4518 73.6145 59.6568L72.9276 59.9473C72.5228 60.1088 72.1861 59.9074 71.9173 59.3431C71.6593 58.7894 71.711 58.3678 72.0726 58.0785C72.2434 58.0992 72.3277 57.8215 72.3256 57.2456L72.3212 56.0616C71.5441 56.4911 71.0011 56.7545 70.6921 56.8516C70.3193 56.9917 69.9239 56.8065 69.506 56.296C69.0988 55.7855 69.1082 55.4601 69.5344 55.3199C71.0154 54.8771 72.5004 54.0662 73.9894 52.8874L70.1014 52.9018C69.6641 52.9034 69.4445 52.6375 69.4425 52.1042C69.4405 51.5602 69.6581 51.2874 70.0954 51.2858L75.5034 51.2657L75.5001 50.3697L71.5641 50.3843C71.1268 50.3859 70.9072 50.1361 70.9053 49.6348C70.9034 49.1228 71.1212 48.866 71.5585 48.8643L75.4945 48.8497L75.4914 48.0178L70.7714 48.0352C70.3341 48.0369 70.1144 47.771 70.1124 47.2377C70.1104 46.6937 70.3281 46.4209 70.7654 46.4193L75.4854 46.4018L75.4835 45.9058C75.4819 45.4684 75.8011 45.2486 76.4411 45.2462C77.0811 45.2438 77.4019 45.4613 77.4035 45.8987L77.4054 46.3946L82.3173 46.3764C82.7547 46.3748 82.9743 46.646 82.9764 47.19C82.9783 47.7233 82.7607 47.9908 82.3233 47.9924L77.4114 48.0106L77.4144 48.8426L81.7024 48.8267C82.1397 48.8251 82.3594 49.0803 82.3613 49.5923C82.3631 50.0936 82.1454 50.3451 81.708 50.3467L77.4201 50.3626L77.4234 51.2586L82.8794 51.2384C83.3167 51.2368 83.5364 51.508 83.5384 52.052C83.5404 52.5853 83.3227 52.8528 82.8854 52.8544L78.1654 52.8719C78.4454 53.6068 78.8588 54.3306 79.4054 55.0433C80.3311 54.4105 80.9693 53.9228 81.32 53.5802ZM93.4983 54.1591L97.2582 54.1451C96.5849 53.7849 95.9433 53.35 95.3334 52.8402C94.7699 53.333 94.1582 53.7726 93.4983 54.1591ZM93.6067 57.5187C93.6077 57.796 93.7469 57.9342 94.0243 57.9331L96.5362 57.9238C96.8136 57.9228 96.9517 57.7836 96.9507 57.5063L96.9442 55.7463L93.6002 55.7587L93.6067 57.5187ZM90.5954 52.3138C90.9061 52.686 90.9235 53.0699 90.6477 53.4656L90.5203 53.6261C91.8624 53.1198 93.0386 52.4434 94.0488 51.597L92.843 50.0335C92.4607 50.5042 92.2217 50.7718 92.1259 50.8361C91.8177 51.1253 91.5244 51.137 91.2461 50.8714C91.2459 50.8394 90.9998 50.627 90.5077 50.2341L89.1477 50.2392L89.1491 50.6231L90.5954 52.3138ZM96.3904 48.8043C96.5389 48.5797 96.4745 48.468 96.1972 48.469L93.9892 48.4772L93.8778 48.6376L95.2604 50.4245L96.3904 48.8043ZM97.151 46.7855C97.5883 46.7838 98.0046 46.8783 98.4 47.0688C98.806 47.2487 98.9298 47.5522 98.7714 47.9795C98.4131 49.1648 97.6869 50.3728 96.5928 51.6036C97.6625 52.4103 98.6511 52.9346 99.5587 53.1766C99.9965 53.303 100.024 53.6335 99.6423 54.1683C99.2603 54.6924 98.9731 54.9174 98.7808 54.8435L98.7955 58.7955C98.7973 59.2968 98.5423 59.5484 98.0303 59.5503L92.6063 59.5704C92.0943 59.5723 91.8374 59.3172 91.8355 58.8052L91.8214 55.0133C91.2782 55.2393 90.8779 55.1501 90.6204 54.7457L90.186 54.0913C90.0905 54.2304 90.0052 54.2307 89.93 54.0923L89.157 52.7511L89.1819 59.4711C89.1835 59.9084 88.8857 60.1282 88.2884 60.1304C87.691 60.1326 87.3916 59.9151 87.3899 59.4777L87.3699 54.0698C86.8738 55.4903 86.44 56.4412 86.0685 56.9226C85.8775 57.2113 85.6317 57.0682 85.3309 56.4933C85.0407 55.9184 85.0071 55.4759 85.2299 55.1657C85.4848 54.8554 85.8184 54.2035 86.2307 53.21C86.6537 52.2164 86.9807 51.2285 87.2117 50.2463L85.9157 50.2511C85.4784 50.2528 85.2586 49.9602 85.2565 49.3736C85.2543 48.7869 85.4719 48.4928 85.9092 48.4911L87.3492 48.4858L87.3395 45.8618C87.3378 45.4245 87.6357 45.2047 88.233 45.2025C88.8304 45.2003 89.1298 45.4179 89.1315 45.8552L89.1412 48.4792L90.1652 48.4754C90.6772 48.4735 90.9342 48.7605 90.9364 49.3365C92.1267 48.1694 92.933 46.9931 93.3553 45.8075C93.5351 45.3802 93.9239 45.2507 94.5219 45.4192C95.1305 45.5769 95.3502 45.8535 95.181 46.2488L94.9112 46.8578L97.151 46.7855ZM114.748 46.0162C115.186 46.0146 115.405 46.3178 115.408 46.9258C115.41 47.5231 115.192 47.8226 114.755 47.8242L108.291 47.8482C107.854 47.8498 107.634 47.5519 107.632 46.9546C107.629 46.3466 107.847 46.0418 108.284 46.0402L114.748 46.0162ZM104.203 45.6233C104.436 45.3025 104.857 45.2689 105.466 45.5226C106.086 45.7657 106.263 46.053 105.998 46.3847C105.69 46.8018 105.137 47.3959 104.34 48.1668C103.543 48.9271 102.926 49.4574 102.49 49.7577C102.171 49.9935 101.834 49.8561 101.48 49.3454C101.127 48.8241 101.114 48.4508 101.444 48.2256C101.774 48.0217 102.279 47.5985 102.96 46.9559C103.64 46.3134 104.054 45.8692 104.203 45.6233ZM104.856 49.1409C105.068 48.7775 105.478 48.7119 106.087 48.9444C106.696 49.1768 106.878 49.4694 106.634 49.8223L105.297 51.7473L105.326 59.4433C105.328 59.8806 105.008 60.1004 104.368 60.1028C103.739 60.1051 103.424 59.8876 103.422 59.4503L103.401 53.8503C102.891 54.3429 102.599 54.616 102.524 54.6696C102.237 54.916 101.874 54.768 101.435 54.2256C101.006 53.6726 100.956 53.2781 101.286 53.0422C101.786 52.7097 102.435 52.1099 103.232 51.243C104.028 50.376 104.57 49.6753 104.856 49.1409ZM109.356 59.0443C109.162 58.405 109.358 58.1003 109.945 58.1301C110.489 58.1494 110.948 58.1424 111.321 58.109C111.47 58.1085 111.572 58.0868 111.625 58.0439C111.689 58.001 111.72 57.9209 111.72 57.8035L111.699 52.2356L107.635 52.2506C107.198 52.2523 106.978 51.9544 106.976 51.3571C106.974 50.7491 107.191 50.4443 107.629 50.4427L115.165 50.4147C115.602 50.4131 115.822 50.7163 115.824 51.3243C115.826 51.9216 115.609 52.2211 115.171 52.2227L113.635 52.2284L113.656 57.8444C113.658 58.3777 113.596 58.7833 113.469 59.0611C113.342 59.3389 113.108 59.5477 112.767 59.6877C112.266 59.9029 111.531 60.0069 110.56 59.9999C109.952 60.0128 109.551 59.6943 109.356 59.0443ZM122.833 51.4903C122.906 51.202 122.804 51.0584 122.527 51.0594L120.575 51.0667L119.987 52.2849C121.046 52.9316 121.768 53.3929 122.153 53.6688C122.48 52.8676 122.707 52.1414 122.833 51.4903ZM118.05 47.572C117.613 47.5736 117.393 47.2811 117.391 46.6944C117.389 46.0971 117.606 45.7976 118.043 45.796L124.635 45.7716C125.073 45.77 125.292 46.0678 125.295 46.6651C125.297 47.2518 125.079 47.546 124.642 47.5476L121.81 47.5581L121.257 49.3201L123.192 49.265C123.63 49.2633 124.046 49.3258 124.441 49.4523C124.847 49.5788 125.008 49.8876 124.924 50.3785C124.623 52.4703 123.969 54.3928 122.962 56.1459C121.966 57.8882 120.893 59.0815 119.743 59.7258C119.392 59.9618 118.976 59.846 118.494 59.3784C118.023 58.9215 117.974 58.5857 118.346 58.371C119.421 57.8123 120.41 56.8007 121.311 55.336C120.819 54.9111 120.075 54.3752 119.081 53.7282C118.773 54.1667 118.598 54.3914 118.555 54.4022C118.268 54.7019 117.895 54.65 117.435 54.2463C116.985 53.832 116.899 53.4803 117.175 53.1913C117.611 52.795 118.088 52.0572 118.607 50.978C119.136 49.8987 119.548 48.7611 119.842 47.5654L118.05 47.572ZM126.655 46.8361C127.285 46.8338 127.6 47.0513 127.602 47.4886L127.629 54.9606C127.631 55.3979 127.317 55.6177 126.688 55.62C126.069 55.6223 125.759 55.4048 125.757 54.9675L125.73 47.4955C125.728 47.0582 126.037 46.8384 126.655 46.8361ZM129.452 46.0097C129.451 45.5724 129.765 45.3526 130.394 45.3502C131.023 45.3479 131.339 45.5654 131.34 46.0027L131.384 57.7307C131.386 58.2747 131.323 58.6856 131.196 58.9634C131.069 59.2518 130.846 59.466 130.527 59.6058C129.994 59.8745 129.264 59.9945 128.336 59.966C127.739 59.9788 127.332 59.6657 127.117 59.0265C126.912 58.3979 127.001 58.0882 127.385 58.0975C127.641 58.1072 128.201 58.1105 129.065 58.1073C129.353 58.0955 129.497 57.967 129.496 57.7217L129.452 46.0097Z" fill="black" fill-opacity="0.85"/>
</g>
<defs>
<clipPath id="clip0_2306_6251">
<rect width="200" height="90" fill="white"/>
</clipPath>
</defs>
</svg>
