<svg width="200" height="90" viewBox="0 0 200 90" fill="none" xmlns="http://www.w3.org/2000/svg">
<g clip-path="url(#clip0_2308_7100)">
<rect width="200" height="90" fill="#FEB79D"/>
<path fill-rule="evenodd" clip-rule="evenodd" d="M-6.18027 85.5257C-5.5206 81.3514 -9.94765 77.2571 -7.65473 73.2393C-4.94813 68.4966 -1.65241 61.9915 7.77154 61.0783C17.9972 60.0873 23.5998 68.8258 33.9785 69.2048C45.8176 69.6371 56.5881 60.196 66.8872 63.2371C76.2425 65.9996 70.121 74.0119 68.9752 79.5387C68.1676 83.4341 61.5364 86.4306 61.2669 90.3457C60.8502 96.3973 75.7689 103.853 67.0229 107.895C58.3557 111.9 45.7383 103.802 34.2527 102.83C27.3162 102.243 20.5655 103.925 13.6182 103.373C4.65786 102.66 -7.2514 103.227 -11.7526 99.1698C-16.3208 95.0519 -6.92748 90.2539 -6.18027 85.5257Z" fill="#FE585B"/>
<path fill-rule="evenodd" clip-rule="evenodd" d="M28.4743 10.5302C32.6486 10.8717 36.7429 8.58004 40.7607 9.76696C45.5034 11.168 52.0085 12.874 52.9217 17.7523C53.9127 23.0456 45.1742 25.9458 44.7952 31.3183C44.3629 37.4467 53.804 43.0221 50.7629 48.3534C48.0004 53.1961 39.9881 50.0274 34.4613 49.4342C30.5659 49.0162 27.5694 45.5836 23.6543 45.444C17.6027 45.2284 10.1469 52.9509 6.10508 48.4236C2.09968 43.9371 10.1975 37.4057 11.1701 31.4602C11.7575 27.8695 10.0747 24.3751 10.6274 20.7788C11.3402 16.1405 10.7727 9.97575 14.8302 7.64571C18.9481 5.281 23.7461 10.1434 28.4743 10.5302Z" fill="#FC7443"/>
<path fill-rule="evenodd" clip-rule="evenodd" d="M173.474 4.53021C177.649 4.87169 181.743 2.58004 185.761 3.76696C190.503 5.16803 197.008 6.87405 197.922 11.7523C198.913 17.0456 190.174 19.9458 189.795 25.3183C189.363 31.4467 198.804 37.0221 195.763 42.3534C193 47.1961 184.988 44.0274 179.461 43.4342C175.566 43.0162 172.569 39.5836 168.654 39.444C162.603 39.2284 155.147 46.9509 151.105 42.4236C147.1 37.9371 155.198 31.4057 156.17 25.4602C156.757 21.8695 155.075 18.3751 155.627 14.7788C156.34 10.1405 155.773 3.97575 159.83 1.64571C163.948 -0.719004 168.746 4.14342 173.474 4.53021Z" fill="#FF8787"/>
<path fill-rule="evenodd" clip-rule="evenodd" d="M117.063 7.20494C131.49 7.9797 144.155 11.9054 154.996 17.5775C166.733 23.7188 176.896 30.8598 179.688 39.9711C183.097 51.0949 184.354 63.7453 171.749 72.2549C158.691 81.0707 136.857 81.4742 117.063 82.2497C95.2362 83.1048 71.8992 84.7511 54.6033 76.8446C35.6156 68.1646 20.8565 53.9771 24.5773 39.9711C28.0889 26.7526 52.1053 19.9805 71.5388 13.0955C85.3864 8.18958 100.98 6.34119 117.063 7.20494Z" fill="#FFAB7A"/>
<ellipse cx="177.989" cy="70.7269" rx="16.7876" ry="14.0511" fill="#F55A57"/>
<ellipse cx="173.713" cy="65.6395" rx="1.21537" ry="2.15126" fill="black"/>
<ellipse cx="182.288" cy="65.6395" rx="1.21537" ry="2.15126" fill="black"/>
<path d="M173.043 72.6426C173.079 74.5703 175.312 76.0917 178.031 76.0408C180.749 75.99 182.924 74.386 182.888 72.4584C182.852 70.5307 180.67 71.7806 177.952 71.8314C175.233 71.8823 173.007 70.7149 173.043 72.6426Z" fill="black"/>
<path d="M170.798 50.9035C173.679 48.6452 180.102 51.1915 180.102 55.0219C180.103 59.542 168.088 61.6232 165.803 61.9782C165.554 62.0169 165.305 62.044 165.056 62.039C163.427 62.0062 157.617 61.2375 170.798 50.9035Z" fill="#6E5232"/>
<path d="M170.798 50.9035C173.679 48.6452 180.102 51.1915 180.102 55.0219C180.103 59.542 168.088 61.6232 165.803 61.9782C165.554 62.0169 165.305 62.044 165.056 62.039C163.427 62.0062 157.617 61.2375 170.798 50.9035Z" fill="url(#paint0_radial_2308_7100)" fill-opacity="0.15"/>
<path d="M185.204 50.7629C182.323 48.5045 175.9 51.0509 175.9 54.8813C175.899 59.4014 187.914 61.4825 190.199 61.8375C190.448 61.8763 190.697 61.9034 190.946 61.8984C192.575 61.8656 198.385 61.0968 185.204 50.7629Z" fill="#6E5232"/>
<path d="M185.204 50.7629C182.323 48.5045 175.9 51.0509 175.9 54.8813C175.899 59.4014 187.914 61.4825 190.199 61.8375C190.448 61.8763 190.697 61.9034 190.946 61.8984C192.575 61.8656 198.385 61.0968 185.204 50.7629Z" fill="url(#paint1_radial_2308_7100)" fill-opacity="0.15"/>
<path d="M83.404 34.2434L83.4067 34.9734L86.5567 34.9617L86.554 34.2317L83.404 34.2434ZM86.5418 30.9517L83.3918 30.9634L83.3941 31.5834L86.5441 31.5717L86.5418 30.9517ZM83.3978 32.5734L83.4003 33.2434L86.5503 33.2317L86.5478 32.5617L83.3978 32.5734ZM89.4787 35.5009C89.48 35.8609 89.344 36.0414 89.0707 36.0424L83.5507 36.0629L84.0321 36.4411C84.3464 36.6866 84.3205 36.91 83.9546 37.1114C83.3825 37.4535 82.6004 37.7731 81.6082 38.0701C81.3285 38.1645 81.0581 38.0655 80.797 37.7731C80.5426 37.4807 80.5386 37.3007 80.785 37.2331C81.0514 37.1588 81.4742 37.0006 82.0533 36.7584C82.6391 36.5163 83.1082 36.2845 83.4607 36.0632L80.9507 36.0725C80.6774 36.0735 80.5401 35.894 80.5387 35.534C80.5374 35.1674 80.6734 34.9835 80.9467 34.9825L82.2267 34.9778L82.2118 30.9678L81.2318 30.9714C80.9585 30.9724 80.8212 30.793 80.8198 30.433C80.8185 30.0663 80.9545 29.8824 81.2278 29.8814L82.2078 29.8778L82.2057 29.3178C82.2047 29.0445 82.4009 28.9071 82.7942 28.9056C83.1875 28.9042 83.3847 29.0401 83.3857 29.3134L83.3878 29.8734L86.5378 29.8618L86.5357 29.3018C86.5347 29.0284 86.7342 28.891 87.1342 28.8895C87.5408 28.888 87.7447 29.0239 87.7457 29.2973L87.7478 29.8573L88.7977 29.8534C89.0711 29.8524 89.2084 30.0352 89.2098 30.4019C89.2111 30.7619 89.0751 30.9424 88.8018 30.9434L87.7518 30.9473L87.7667 34.9572L89.0666 34.9524C89.34 34.9514 89.4773 35.1342 89.4787 35.5009ZM85.9843 37.0339C85.6706 36.915 85.6532 36.7351 85.9323 36.494C86.2181 36.2463 86.5245 36.1818 86.8516 36.3006C87.7928 36.6105 88.5806 36.9309 89.2152 37.2619C89.4289 37.3611 89.3462 37.5347 88.9671 37.7828C88.5881 38.0375 88.2916 38.102 88.0778 37.9761C87.4966 37.6383 86.7988 37.3242 85.9843 37.0339ZM92.2756 29.2605C92.3746 29.0001 92.611 28.9292 92.9848 29.0479C93.3586 29.1665 93.4959 29.3493 93.3968 29.5963C93.2384 30.0303 92.9606 30.618 92.5634 31.3594L92.587 37.7494C92.5881 38.0227 92.3986 38.1601 92.0186 38.1615C91.6386 38.1629 91.4481 38.0269 91.447 37.7536L91.4299 33.1236C91.2574 33.3443 91.1479 33.478 91.1014 33.5249C90.9089 33.7456 90.7018 33.6497 90.4803 33.2372C90.2654 32.8246 90.2443 32.528 90.417 32.3474C90.7027 32.073 91.0476 31.6051 91.4518 30.9435C91.856 30.2754 92.1306 29.7144 92.2756 29.2605ZM95.8143 37.0074L97.9043 36.9997C98.1976 36.9986 98.3906 36.9112 98.4833 36.7375C98.576 36.5638 98.622 36.377 98.6213 36.177C98.6532 35.8102 98.8428 35.6995 99.19 35.8449C99.5439 35.9903 99.6948 36.243 99.6428 36.6032C99.6243 37.0033 99.4956 37.3438 99.2566 37.6247C99.0244 37.9122 98.6049 38.0571 97.9982 38.0593L95.7282 38.0677C95.0282 38.0703 94.5545 37.9521 94.3069 37.713C94.0594 37.4806 93.9343 37.0177 93.9318 36.3244L93.9214 33.5244L93.5419 33.6758C93.289 33.7768 93.0852 33.6542 92.9306 33.3081C92.7826 32.9553 92.8351 32.7318 93.0881 32.6375L93.9169 32.3044L93.9096 30.3544C93.9086 30.0811 94.0948 29.9437 94.4681 29.9424C94.8414 29.941 95.0286 30.077 95.0296 30.3503L95.0352 31.8503L96.0337 31.4566L96.0257 29.2766C96.0246 29.0033 96.2008 28.8659 96.5541 28.8646C96.9141 28.8633 97.0946 28.9993 97.0956 29.2726L97.1022 31.0326L98.54 30.4373L98.9905 30.5756C99.2841 30.6612 99.4015 30.8574 99.3427 31.1643L99.3132 31.3044C99.3059 32.9378 99.2206 34.2148 99.0574 35.1354C99.0248 35.3422 98.845 35.3995 98.518 35.3074C98.191 35.2153 98.0372 35.0758 98.0565 34.8891C98.1344 34.3355 98.1877 33.4286 98.2164 32.1685C98.2288 31.9151 98.1551 31.8187 97.9953 31.8793L97.1067 32.2526L97.1183 35.3826C97.1193 35.6559 96.9398 35.7932 96.5798 35.7946C96.2265 35.7959 96.0493 35.6599 96.0483 35.3865L96.0382 32.6666L95.0397 33.0803L95.0518 36.3202C95.0528 36.6136 95.0969 36.8034 95.1839 36.8898C95.2775 36.9694 95.4876 37.0086 95.8143 37.0074ZM105.813 31.2803C106.18 31.279 106.364 31.4149 106.365 31.6883L106.367 32.2983C106.368 32.5716 106.185 32.709 105.818 32.7103C105.458 32.7116 105.278 32.5756 105.277 32.3023L105.275 31.6923C105.274 31.419 105.453 31.2817 105.813 31.2803ZM107.049 35.4758C107.322 35.4748 107.459 35.6842 107.461 36.1042C107.463 36.5242 107.353 36.7346 107.133 36.7355C107.395 37.1012 107.599 37.2837 107.745 37.2832C107.852 37.2828 107.929 37.2459 107.975 37.1723C108.088 37.0253 108.159 36.5117 108.189 35.6315C108.208 35.3381 108.131 35.1918 107.958 35.1924L105.738 35.2006L105.739 35.4806L107.049 35.4758ZM105.744 37.0306L106.384 36.9982C106.291 36.8786 106.31 36.7918 106.443 36.738L105.743 36.7406L105.744 37.0306ZM106.302 36.2685C106.475 36.2679 106.561 36.1609 106.56 35.9476L105.74 35.9506L105.742 36.2706L106.302 36.2685ZM103.9 35.9574C103.901 36.1708 103.988 36.2771 104.162 36.2765L104.742 36.2743L104.74 35.9543L103.9 35.9574ZM104.738 35.2043L103.928 35.2073L103.619 35.4885L104.739 35.4843L104.738 35.2043ZM102.313 31.1533L102.316 32.1333C102.321 33.3666 102.252 34.4535 102.108 35.3941C102.7 35.0652 103.176 34.6835 103.534 34.2488L103.194 34.25C102.874 34.2512 102.714 34.0918 102.712 33.7718L102.711 33.3318C102.71 33.0118 102.776 32.8516 102.909 32.8511L102.869 32.7412C102.781 32.4216 102.883 32.2412 103.177 32.2001C103.336 32.1728 103.726 32.0981 104.346 31.9758C103.839 31.8376 103.495 31.7622 103.315 31.7496C103.061 31.7105 102.961 31.6076 103.014 31.4407C103.073 31.2671 103.236 31.2032 103.503 31.2489L104.214 31.3862C104.607 31.4581 104.748 31.6409 104.636 31.9347C104.889 31.8871 105.019 31.9599 105.026 32.1532C105.034 32.3465 104.904 32.4704 104.638 32.5247L103.179 32.8501L107.959 32.8324C108.232 32.8314 108.149 32.7883 107.708 32.7033C107.268 32.6116 106.941 32.4561 106.727 32.2369C106.786 32.0634 106.886 31.983 107.026 31.9958C106.871 31.6764 106.984 31.4593 107.363 31.3446L108.083 31.1319L102.313 31.1533ZM107.949 30.1124C107.948 29.9724 107.861 29.9027 107.688 29.9034L102.568 29.9223C102.395 29.923 102.308 30.01 102.309 30.1833L102.31 30.3933L107.69 30.3734C107.863 30.3727 107.949 30.2857 107.949 30.1124ZM107.672 33.7534C107.846 33.7528 107.932 33.6658 107.931 33.4925L107.931 33.3125L107.081 33.3156L107.082 33.7556L107.672 33.7534ZM106.182 33.759L106.181 33.319L105.351 33.322L105.352 33.762L106.182 33.759ZM104.452 33.7654L104.451 33.3254L103.641 33.3284L103.642 33.7684L104.452 33.7654ZM104.535 34.5451L108.825 34.5292C109.145 34.528 109.303 34.7107 109.297 35.0774C109.306 35.5507 109.271 36.0809 109.193 36.6678C109.115 37.2481 109.02 37.6051 108.907 37.7389C108.774 37.9127 108.581 38.0168 108.328 38.051C108.162 38.085 108.018 38.0955 107.898 38.0826C107.585 38.0838 107.405 37.9578 107.357 37.7046L107.167 37.7853C107.008 37.8526 106.891 37.8064 106.817 37.6466C105.59 37.7379 104.317 37.8259 102.998 37.9108C102.691 37.9319 102.524 37.8126 102.496 37.5527C102.475 37.2994 102.522 37.1726 102.635 37.1721C102.755 37.165 103.458 37.1291 104.745 37.0643L104.743 36.7443L103.533 36.7488C103.213 36.75 103.053 36.5906 103.052 36.2706L103.05 35.9106C102.784 36.0849 102.548 36.0625 102.34 35.8432L102.079 35.6242C101.896 36.6715 101.689 37.399 101.457 37.8065C101.365 38.0135 101.145 38.021 100.797 37.829C100.457 37.6369 100.329 37.454 100.415 37.2804C100.925 36.3385 101.176 34.6275 101.166 32.1475L101.157 29.6576C101.156 29.3376 101.315 29.177 101.635 29.1758L108.635 29.1498C108.949 29.1487 109.106 29.3081 109.107 29.6281L109.111 30.6481C109.112 30.9681 108.953 31.1287 108.633 31.1299L108.423 31.1306C108.597 31.4367 108.554 31.6368 108.295 31.7311C108.175 31.7916 107.762 31.8831 107.056 32.0057C107.689 32.0767 108.096 32.1452 108.277 32.2112C108.57 32.2834 108.654 32.4898 108.529 32.8303C108.782 32.8293 108.91 33.0622 108.912 33.5289C108.913 33.9955 108.777 34.2294 108.504 34.2304L104.754 34.2443L104.535 34.5451ZM117.273 36.6379L119.223 36.6307C119.496 36.6296 119.634 36.8191 119.635 37.1991C119.637 37.5725 119.501 37.7596 119.227 37.7606L113.817 37.7807C113.551 37.7817 113.417 37.5955 113.415 37.2222C113.414 36.8422 113.546 36.6517 113.813 36.6507L116.083 36.6423L116.076 34.6423L114.556 34.6479C114.282 34.649 114.145 34.4661 114.144 34.0995C114.142 33.7261 114.278 33.539 114.552 33.5379L116.072 33.5323L116.065 31.8923L114.965 31.8964C114.821 32.4103 114.692 32.7541 114.579 32.9278C114.467 33.1616 114.234 33.1891 113.88 33.0104C113.526 32.8317 113.408 32.6222 113.527 32.3817L113.646 32.1613L113.527 32.2217C113.227 32.3562 113.027 32.2669 112.926 31.954L112.693 31.2748L112.717 37.6948C112.718 37.9681 112.518 38.1055 112.118 38.107C111.725 38.1085 111.528 37.9725 111.527 37.6992L111.502 30.9592C111.426 32.0395 111.309 32.8166 111.151 33.2906C111.091 33.5041 110.915 33.5581 110.621 33.4525C110.328 33.3469 110.214 33.1907 110.279 32.9838C110.445 32.5498 110.549 32.0028 110.593 31.3426C110.638 30.9091 110.824 30.7151 111.151 30.7605L111.501 30.8092L111.495 29.1792C111.494 28.9059 111.691 28.7685 112.084 28.7671C112.484 28.7656 112.684 28.9015 112.685 29.1748L112.691 30.6548L112.841 30.5943C113.127 30.4732 113.341 30.5591 113.482 30.8519C113.562 30.9849 113.676 31.2578 113.825 31.6706C114.069 30.9497 114.223 30.2858 114.287 29.6789C114.326 29.3788 114.539 29.2546 114.926 29.3065C115.313 29.3584 115.483 29.5178 115.438 29.7846L115.261 30.7753L116.061 30.7723L116.056 29.2223C116.055 28.949 116.251 28.8116 116.644 28.8102C117.044 28.8087 117.245 28.9446 117.246 29.2179L117.251 30.7679L118.881 30.7619C119.155 30.7609 119.292 30.947 119.293 31.3204C119.295 31.6937 119.159 31.8809 118.885 31.8819L117.255 31.8879L117.262 33.5279L118.682 33.5226C118.955 33.5216 119.092 33.7078 119.094 34.0811C119.095 34.4478 118.959 34.6316 118.686 34.6326L117.266 34.6379L117.273 36.6379Z" fill="#FE585B"/>
<path d="M86.374 53.5549C86.5322 53.0743 86.8679 52.9931 87.3811 53.3112C87.8942 53.6186 88.077 54.0073 87.9294 54.4771C87.5715 55.7478 87.1443 57.0401 86.6478 58.3539C86.5 58.7705 86.1322 58.8252 85.5444 58.518C84.9672 58.2108 84.7633 57.8649 84.9325 57.4803C85.4932 56.2089 85.9736 54.9004 86.374 53.5549ZM87.5437 49.6945C87.9284 49.8958 87.9298 50.2531 87.5477 50.7665C87.1762 51.2799 86.8088 51.4253 86.4453 51.2026L85.0341 50.3439C84.6706 50.1212 84.664 49.7852 85.0144 49.3359C85.3753 48.8759 85.7482 48.7465 86.1329 48.9478L87.5437 49.6945ZM97.6322 51.9772L97.6355 52.8732L98.8515 52.8687C99.2889 52.867 99.5086 53.1489 99.5107 53.7142C99.5128 54.2795 99.2952 54.563 98.8578 54.5646L97.6418 54.5691L97.5114 58.2337C97.4163 58.4793 97.225 58.6721 96.9376 58.8118C96.5436 59.0159 96.064 59.1084 95.4986 59.0891C94.8587 59.1128 94.4738 58.8956 94.3442 58.4374C94.1389 57.7342 94.3563 57.3867 94.9963 57.395L95.2363 57.4101C95.599 57.4087 95.7963 57.392 95.8282 57.3599C95.8707 57.3277 95.8918 57.2637 95.8915 57.1677L95.8818 54.5757L94.5059 54.5808C94.0685 54.5824 93.8488 54.3005 93.8467 53.7352C93.8446 53.1699 94.0622 52.8864 94.4996 52.8848L95.8756 52.8797L95.8704 51.4877L96.3646 51.0059C96.5666 50.8238 96.5289 50.7332 96.2516 50.7343L95.2596 50.738C94.7476 50.7398 94.4906 50.4741 94.4887 49.9408C94.0502 49.6331 93.7883 49.4741 93.7029 49.4637C93.2113 49.2095 93.1298 48.8205 93.4586 48.2966L91.0426 48.3056L90.9851 50.0658L92.8731 50.0588C93.3957 50.0569 93.6424 50.4186 93.6131 51.1441C93.5678 53.2989 93.4886 54.9579 93.3756 56.121C93.2625 57.2734 93.0998 57.9887 92.8875 58.2668C92.6436 58.641 92.3244 58.8609 91.9299 58.9264C91.5355 58.9918 91.2476 59.0142 91.0662 58.9936C90.5649 58.9954 90.2331 58.7086 90.071 58.1332C89.9196 57.5685 90.0466 57.3067 90.4521 57.3478L90.9481 57.346C91.1401 57.3453 91.2944 57.2647 91.4112 57.1043C91.6445 56.7514 91.7936 55.2255 91.8582 52.5266C91.8777 52.0358 91.7488 51.791 91.4715 51.792L90.8795 51.7942C90.5932 55.1233 89.8977 57.4245 88.7931 58.698C88.5808 58.9868 88.2552 58.924 87.8164 58.5096C87.3882 58.1058 87.2856 57.7596 87.5085 57.4707C88.3265 56.561 88.8538 54.9377 89.0905 52.6008C89.214 51.3844 89.2833 49.9548 89.2986 48.312L88.8026 48.3139C88.3653 48.3155 88.1455 48.0176 88.1433 47.4203C88.1411 46.823 88.3586 46.5235 88.7959 46.5219L90.4759 46.5157L89.7834 45.3022C89.5687 44.9297 89.7543 44.6356 90.3402 44.4201C90.926 44.194 91.3316 44.2671 91.557 44.6396L91.9755 45.3101C92.2652 45.7677 92.1598 46.1041 91.6592 46.3193L91.2279 46.5129L93.0039 46.5063C93.5159 46.5044 93.7729 46.7594 93.7748 47.2714L93.7761 47.6234C94.1672 46.662 94.4145 45.765 94.5181 44.9327C94.6016 44.4523 94.9476 44.2644 95.556 44.3688C96.1644 44.4626 96.4267 44.7229 96.3429 45.1499L96.1384 46.0787L98.7783 46.0689C99.2157 46.0673 99.4354 46.3651 99.4377 46.9624C99.4399 47.5598 99.2223 47.8592 98.785 47.8609L95.601 47.8727L95.2521 48.706C95.157 48.9623 95.2482 49.09 95.5255 49.089L97.7652 49.0007C98.2025 48.9884 98.6083 49.1149 98.9826 49.3801C99.3569 49.6454 99.4007 49.9386 99.1139 50.2597L97.6322 51.9772ZM88.0723 45.5326C88.4464 45.7445 88.4424 46.1072 88.0603 46.6206C87.6889 47.134 87.3214 47.2687 86.9578 47.0247L85.5784 46.1018C85.2148 45.8685 85.2136 45.5272 85.5746 45.0778C85.9355 44.6178 86.3031 44.4938 86.6772 44.7057L88.0723 45.5326ZM110.974 46.9517L110.971 46.2317L110.123 46.2348L110.126 46.9548L110.974 46.9517ZM113.252 48.7032C113.251 48.4259 113.112 48.2878 112.835 48.2888L112.339 48.2906L112.343 49.4906L112.839 49.4888C113.116 49.4878 113.255 49.3486 113.254 49.0712L113.252 48.7032ZM110.131 48.2988L110.135 49.4988L110.983 49.4957L110.979 48.2957L110.131 48.2988ZM108.339 48.3055C108.061 48.3065 107.923 48.4457 107.924 48.723L107.926 49.091C107.927 49.3683 108.066 49.5065 108.343 49.5054L108.791 49.5038L108.787 48.3038L108.339 48.3055ZM108.782 46.9598L108.779 46.2398L106.731 46.2474C106.294 46.249 106.074 45.9992 106.072 45.4978C106.07 44.9965 106.283 44.7451 106.709 44.7435L114.517 44.7145C114.955 44.7129 115.174 44.9628 115.176 45.4641C115.178 45.9654 114.96 46.2169 114.523 46.2185L112.331 46.2266L112.334 46.9466L114.126 46.94C114.638 46.9381 114.895 47.1931 114.897 47.7051L114.905 50.0571C114.907 50.5691 114.652 50.8261 114.14 50.828L107.164 50.8538C106.652 50.8557 106.395 50.6007 106.393 50.0887L106.385 47.7367C106.383 47.2247 106.638 46.9678 107.15 46.9659L108.782 46.9598ZM113.598 51.39C114.035 51.3884 114.255 51.6276 114.257 52.1075C114.259 52.5875 114.041 52.8284 113.603 52.83L107.732 52.8517C107.294 52.8534 107.075 52.6142 107.073 52.1342C107.071 51.6542 107.289 51.4134 107.726 51.4117L113.598 51.39ZM106.129 52.0577C106.3 52.3237 106.2 52.6761 105.829 53.1148C105.467 53.5428 105.201 53.5598 105.029 53.1658L104.496 51.9677L104.52 58.4317C104.522 58.869 104.235 59.0887 103.659 59.0909C103.083 59.093 102.794 58.8754 102.792 58.4381L102.77 52.4221C102.296 54.0452 101.879 55.1294 101.518 55.6748C101.348 55.9634 101.113 55.7883 100.812 55.1494C100.522 54.4998 100.477 54.02 100.679 53.7099C100.902 53.4317 101.209 52.8012 101.6 51.8185C101.991 50.825 102.296 49.8532 102.517 48.903L101.413 48.9071C100.976 48.9088 100.756 48.6162 100.754 48.0296C100.751 47.4429 100.969 47.1488 101.406 47.1471L102.75 47.1422L102.742 44.8222C102.74 44.3848 103.027 44.1651 103.603 44.163C104.179 44.1608 104.468 44.3784 104.47 44.8158L104.478 47.1358L105.374 47.1324C105.812 47.1308 106.031 47.4233 106.034 48.01C106.036 48.5967 105.818 48.8908 105.381 48.8924L104.485 48.8957L104.487 49.5997C104.68 49.8444 105.002 50.3178 105.453 51.0202C105.914 51.7118 106.139 52.0576 106.129 52.0577ZM107.087 56.0221C107.342 55.5519 107.741 55.3957 108.286 55.5537C108.841 55.701 108.997 56.0044 108.753 56.464C108.446 57.1478 107.979 57.7629 107.352 58.3092C107.044 58.6303 106.649 58.6211 106.168 58.2816C105.697 57.9526 105.632 57.6436 105.972 57.3543C106.504 56.9683 106.876 56.5243 107.087 56.0221ZM115.241 54.2159C115.242 54.7066 115.025 54.9527 114.587 54.9543L111.451 54.966L111.464 58.4059C111.466 58.8433 111.184 59.063 110.619 59.0651C110.053 59.0672 109.77 58.8496 109.768 58.4122L109.755 54.9723L106.779 54.9833C106.342 54.9849 106.123 54.7404 106.121 54.2497C106.119 53.7484 106.337 53.4969 106.774 53.4953L114.582 53.4664C115.019 53.4647 115.239 53.7146 115.241 54.2159ZM112.546 56.6099C112.213 56.2165 112.276 55.9016 112.734 55.6652C113.192 55.4289 113.555 55.4755 113.823 55.8052L115.028 57.2887C115.296 57.6184 115.185 57.9281 114.695 58.218C114.206 58.5078 113.854 58.4558 113.639 58.0619C113.478 57.6891 113.113 57.2052 112.546 56.6099Z" fill="black" fill-opacity="0.85"/>
</g>
<defs>
<radialGradient id="paint0_radial_2308_7100" cx="0" cy="0" r="1" gradientUnits="userSpaceOnUse" gradientTransform="translate(0.560609 46.8353) rotate(65.4889) scale(3.32531 8.21233)">
<stop offset="0.33" stop-opacity="0"/>
<stop offset="0.655" stop-opacity="0.6"/>
<stop offset="1"/>
</radialGradient>
<radialGradient id="paint1_radial_2308_7100" cx="0" cy="0" r="1" gradientUnits="userSpaceOnUse" gradientTransform="translate(355.3 45.8572) rotate(114.511) scale(3.32531 8.21233)">
<stop offset="0.33" stop-opacity="0"/>
<stop offset="0.655" stop-opacity="0.6"/>
<stop offset="1"/>
</radialGradient>
<clipPath id="clip0_2308_7100">
<rect width="200" height="90" fill="white"/>
</clipPath>
</defs>
</svg>
