<svg width="200" height="90" viewBox="0 0 200 90" fill="none" xmlns="http://www.w3.org/2000/svg">
<g clip-path="url(#clip0_1716_1871)">
<rect width="200" height="90" fill="#FEB79D"/>
<path fill-rule="evenodd" clip-rule="evenodd" d="M-6.18027 85.5257C-5.5206 81.3514 -9.94765 77.2571 -7.65473 73.2393C-4.94813 68.4966 -1.65241 61.9915 7.77154 61.0783C17.9972 60.0873 23.5998 68.8258 33.9785 69.2048C45.8176 69.6371 56.5881 60.196 66.8872 63.2371C76.2425 65.9996 70.121 74.0119 68.9752 79.5387C68.1676 83.4341 61.5364 86.4306 61.2669 90.3457C60.8502 96.3973 75.7689 103.853 67.0229 107.895C58.3557 111.9 45.7383 103.802 34.2527 102.83C27.3162 102.243 20.5655 103.925 13.6182 103.373C4.65786 102.66 -7.2514 103.227 -11.7526 99.1698C-16.3208 95.0519 -6.92748 90.2539 -6.18027 85.5257Z" fill="#FE585B"/>
<path fill-rule="evenodd" clip-rule="evenodd" d="M28.4743 10.5302C32.6486 10.8717 36.7429 8.58004 40.7607 9.76696C45.5034 11.168 52.0085 12.874 52.9217 17.7523C53.9127 23.0456 45.1742 25.9458 44.7952 31.3183C44.3629 37.4467 53.804 43.0221 50.7629 48.3534C48.0004 53.1961 39.9881 50.0274 34.4613 49.4342C30.5659 49.0162 27.5694 45.5836 23.6543 45.444C17.6027 45.2284 10.1469 52.9509 6.10508 48.4236C2.09968 43.9371 10.1975 37.4057 11.1701 31.4602C11.7575 27.8695 10.0747 24.3751 10.6274 20.7788C11.3402 16.1405 10.7727 9.97575 14.8302 7.64571C18.9481 5.281 23.7461 10.1434 28.4743 10.5302Z" fill="#FC7443"/>
<path fill-rule="evenodd" clip-rule="evenodd" d="M173.474 4.53021C177.649 4.87169 181.743 2.58004 185.761 3.76696C190.503 5.16803 197.008 6.87405 197.922 11.7523C198.913 17.0456 190.174 19.9458 189.795 25.3183C189.363 31.4467 198.804 37.0221 195.763 42.3534C193 47.1961 184.988 44.0274 179.461 43.4342C175.566 43.0162 172.569 39.5836 168.654 39.444C162.603 39.2284 155.147 46.9509 151.105 42.4236C147.1 37.9371 155.198 31.4057 156.17 25.4602C156.757 21.8695 155.075 18.3751 155.627 14.7788C156.34 10.1405 155.773 3.97575 159.83 1.64571C163.948 -0.719004 168.746 4.14342 173.474 4.53021Z" fill="#FF8787"/>
<path fill-rule="evenodd" clip-rule="evenodd" d="M117.063 7.20494C131.49 7.9797 144.155 11.9054 154.996 17.5775C166.733 23.7188 176.896 30.8598 179.688 39.9711C183.097 51.0949 184.354 63.7453 171.749 72.2549C158.691 81.0707 136.857 81.4742 117.063 82.2497C95.2362 83.1048 71.8992 84.7511 54.6033 76.8446C35.6156 68.1646 20.8565 53.9771 24.5773 39.9711C28.0889 26.7526 52.1053 19.9805 71.5388 13.0955C85.3864 8.18958 100.98 6.34119 117.063 7.20494Z" fill="#FFAB7A"/>
<ellipse cx="177.987" cy="70.7269" rx="16.7876" ry="14.0511" fill="#F55A57"/>
<ellipse cx="173.711" cy="65.6395" rx="1.21537" ry="2.15126" fill="black"/>
<ellipse cx="182.286" cy="65.6395" rx="1.21537" ry="2.15126" fill="black"/>
<path d="M173.043 72.6445C173.079 74.5722 175.312 76.0937 178.031 76.0428C180.749 75.9919 182.924 74.388 182.888 72.4603C182.852 70.5326 180.67 71.7825 177.952 71.8334C175.233 71.8843 173.007 70.7168 173.043 72.6445Z" fill="black"/>
<path d="M170.796 50.9035C173.677 48.6452 180.1 51.1915 180.1 55.0219C180.101 59.542 168.086 61.6232 165.801 61.9782C165.552 62.0169 165.303 62.044 165.054 62.039C163.425 62.0062 157.615 61.2375 170.796 50.9035Z" fill="#6E5232"/>
<path d="M170.796 50.9035C173.677 48.6452 180.1 51.1915 180.1 55.0219C180.101 59.542 168.086 61.6232 165.801 61.9782C165.552 62.0169 165.303 62.044 165.054 62.039C163.425 62.0062 157.615 61.2375 170.796 50.9035Z" fill="url(#paint0_radial_1716_1871)" fill-opacity="0.15"/>
<path d="M185.2 50.7629C182.319 48.5045 175.896 51.0509 175.896 54.8813C175.896 59.4014 187.91 61.4825 190.195 61.8375C190.445 61.8763 190.693 61.9034 190.942 61.8984C192.571 61.8656 198.381 61.0968 185.2 50.7629Z" fill="#6E5232"/>
<path d="M185.2 50.7629C182.319 48.5045 175.896 51.0509 175.896 54.8813C175.896 59.4014 187.91 61.4825 190.195 61.8375C190.445 61.8763 190.693 61.9034 190.942 61.8984C192.571 61.8656 198.381 61.0968 185.2 50.7629Z" fill="url(#paint1_radial_1716_1871)" fill-opacity="0.15"/>
<path d="M71.1375 36.1479C70.7709 36.1493 70.5869 35.9666 70.5855 35.6L70.5636 29.7C70.5623 29.3333 70.7449 29.1493 71.1116 29.148L71.1616 29.1478C71.5283 29.1464 71.7123 29.3291 71.7136 29.6957L71.7219 31.9257L74.9019 31.9139L74.8936 29.684C74.8923 29.3173 75.0782 29.1333 75.4516 29.1319L75.5116 29.1317C75.8782 29.1303 76.0622 29.3129 76.0636 29.6796L76.0855 35.5796C76.0868 35.9462 75.9042 36.1302 75.5375 36.1316L75.4775 36.1318C75.1042 36.1332 74.9168 35.9506 74.9155 35.5839L74.9058 32.9839L71.7259 32.9957L71.7355 35.5957C71.7369 35.9624 71.5542 36.1464 71.1875 36.1477L71.1375 36.1479ZM79.7716 36.1159C79.3782 36.1174 79.1808 35.9214 79.1794 35.5281L79.1596 30.1881L77.6396 30.1938C77.2463 30.1952 77.0489 30.0193 77.0476 29.666C77.0463 29.306 77.2423 29.1252 77.6356 29.1238L81.8256 29.1083C82.2256 29.1068 82.4263 29.286 82.4276 29.646C82.4289 29.9994 82.2296 30.1768 81.8296 30.1782L80.3296 30.1838L80.3494 35.5238C80.3508 35.9171 80.1582 36.1145 79.7716 36.1159ZM84.0093 36.1002C83.6226 36.1016 83.4285 35.9057 83.4271 35.5124L83.4055 29.6924C83.4047 29.4657 83.4608 29.3122 83.5738 29.2318C83.6935 29.1447 83.8666 29.1007 84.0933 29.0998C84.4 29.0987 84.6338 29.2312 84.7948 29.4973L86.5757 32.4507L88.3148 29.4942C88.4075 29.3272 88.5138 29.2168 88.6336 29.163C88.76 29.1092 88.9233 29.0819 89.1233 29.0812C89.5166 29.0797 89.714 29.2757 89.7155 29.669L89.737 35.489C89.7385 35.8823 89.5426 36.0797 89.1492 36.0812C88.7559 36.0826 88.5585 35.8867 88.557 35.4933L88.5407 31.0934L87.1398 33.5386C87.0008 33.8124 86.8113 33.9498 86.5713 33.9507C86.3313 33.9516 86.1408 33.8156 85.9998 33.5428L84.5708 31.1081L84.5871 35.5081C84.5885 35.9014 84.3959 36.0988 84.0093 36.1002ZM91.7438 36.0715C91.3505 36.073 91.1531 35.8771 91.1516 35.4837L91.1301 29.6638C91.1286 29.2704 91.3179 29.0731 91.6979 29.0717C92.0845 29.0702 92.2786 29.2662 92.2801 29.6595L92.2998 34.9995L95.3598 34.9881C95.7532 34.9867 95.9505 35.1626 95.9518 35.5159C95.9531 35.8759 95.7571 36.0567 95.3638 36.0581L91.7438 36.0715ZM97.8895 36.7588C97.7495 36.7593 97.6293 36.7097 97.529 36.6101C97.4353 36.5104 97.3882 36.3906 97.3876 36.2506C97.3871 36.1173 97.4334 36.0004 97.5263 35.9001C97.626 35.7997 97.7458 35.7493 97.8858 35.7488L100.526 35.739L100.523 35.099L99.2734 35.1036C99.1401 35.1041 99.0266 35.0579 98.9329 34.9649C98.8392 34.8652 98.7921 34.7521 98.7916 34.6254C98.7911 34.4921 98.8374 34.3786 98.9304 34.2849C99.0234 34.1912 99.1365 34.1441 99.2698 34.1436L100.52 34.139L100.517 33.399C100.517 33.3723 100.517 33.3457 100.517 33.319C100.523 33.2856 100.53 33.2556 100.536 33.2289L99.8765 33.2314C99.6774 33.4721 99.435 33.7263 99.1493 33.9941C98.8703 34.2551 98.5812 34.5062 98.2821 34.7473C97.9829 34.9817 97.7004 35.1861 97.4343 35.3604C97.288 35.4477 97.1281 35.4882 96.9548 35.4822C96.7814 35.4762 96.6445 35.4 96.5439 35.2537C96.4434 35.1074 96.4095 34.9576 96.4423 34.8041C96.475 34.644 96.5712 34.5203 96.7309 34.433C96.9637 34.2988 97.2364 34.1212 97.5489 33.9C97.8614 33.6788 98.154 33.4578 98.4265 33.2367L97.0265 33.2419C96.8932 33.2424 96.7796 33.1962 96.686 33.1032C96.5923 33.0102 96.5452 32.9004 96.5447 32.7737C96.5443 32.6404 96.5905 32.5269 96.6835 32.4332C96.7765 32.3395 96.8896 32.2924 97.023 32.2919L98.733 32.2856L98.7222 29.3856L97.4122 29.3905C97.2855 29.391 97.1754 29.3447 97.0817 29.2517C96.988 29.1587 96.9409 29.0489 96.9405 28.9222C96.94 28.7889 96.9862 28.6787 97.0793 28.5917C97.1723 28.5047 97.2821 28.461 97.4088 28.4605L98.7188 28.4556L98.7173 28.0556C98.7166 27.8756 98.7727 27.7321 98.8857 27.625C98.9986 27.5179 99.1384 27.4641 99.3051 27.4635C99.4717 27.4628 99.6119 27.5156 99.7257 27.6219C99.8394 27.7281 99.8966 27.8713 99.8973 28.0513L99.8987 28.4513L102.339 28.4422L102.337 28.0422C102.337 27.8622 102.393 27.7187 102.506 27.6116C102.625 27.5045 102.765 27.4506 102.925 27.45C103.092 27.4494 103.232 27.5022 103.346 27.6085C103.466 27.7147 103.527 27.8578 103.527 28.0378L103.529 28.4378L104.829 28.433C104.962 28.4325 105.072 28.4754 105.159 28.5618C105.253 28.6481 105.3 28.7579 105.3 28.8912C105.301 29.0179 105.255 29.1281 105.162 29.2218C105.075 29.3154 104.965 29.3625 104.832 29.363L103.532 29.3678L103.543 32.2678L105.283 32.2613C105.416 32.2608 105.53 32.3071 105.623 32.4001C105.717 32.4931 105.764 32.6062 105.765 32.7395C105.765 32.8662 105.719 32.9764 105.626 33.0701C105.533 33.1637 105.42 33.2108 105.286 33.2113L103.876 33.2165C104.164 33.4355 104.461 33.6444 104.769 33.8432C105.076 34.0354 105.36 34.1977 105.621 34.3301C105.774 34.4095 105.871 34.5325 105.912 34.699C105.953 34.8655 105.926 35.019 105.834 35.1593C105.734 35.313 105.595 35.3969 105.415 35.4109C105.241 35.4182 105.078 35.3788 104.924 35.2927C104.664 35.1336 104.38 34.9414 104.072 34.7158C103.771 34.4903 103.477 34.248 103.189 33.9891C102.902 33.7235 102.647 33.4678 102.426 33.2219L101.706 33.2246C101.713 33.2512 101.717 33.2812 101.717 33.3146C101.724 33.3412 101.727 33.3679 101.727 33.3945L101.73 34.1345L103.07 34.1295C103.203 34.1291 103.317 34.1753 103.41 34.2683C103.504 34.3613 103.551 34.4744 103.552 34.6078C103.552 34.7344 103.506 34.8479 103.413 34.9483C103.32 35.042 103.207 35.089 103.073 35.0895L101.733 35.0945L101.736 35.7345L104.506 35.7242C104.639 35.7237 104.756 35.7733 104.856 35.8729C104.957 35.9726 105.007 36.089 105.008 36.2224C105.008 36.3624 104.959 36.4826 104.859 36.5829C104.759 36.6833 104.643 36.7337 104.509 36.7342L97.8895 36.7588ZM99.9129 32.2812L102.353 32.2722L102.351 31.8022L99.9112 31.8112L99.9129 32.2812ZM99.9084 31.0512L102.348 31.0422L102.347 30.5822L99.9067 30.5912L99.9084 31.0512ZM99.9039 29.8312L102.344 29.8222L102.342 29.3722L99.9022 29.3813L99.9039 29.8312ZM108.665 35.4988C108.192 35.5006 107.858 35.4151 107.664 35.2425C107.477 35.0632 107.382 34.7369 107.38 34.2636L107.377 33.3236C107.344 33.3837 107.307 33.4438 107.268 33.504C107.234 33.5574 107.201 33.6109 107.168 33.6644C107.095 33.7846 106.986 33.8584 106.839 33.8856C106.692 33.9128 106.556 33.8833 106.429 33.7971C106.315 33.7175 106.248 33.6111 106.227 33.4778C106.214 33.3446 106.243 33.2211 106.316 33.1075C106.674 32.5395 106.968 31.9251 107.199 31.2642C107.43 30.6034 107.588 29.9528 107.672 29.3125L106.922 29.3152C106.795 29.3157 106.682 29.2695 106.581 29.1765C106.488 29.0768 106.441 28.9603 106.44 28.827C106.44 28.6937 106.486 28.5802 106.579 28.4865C106.679 28.3928 106.792 28.3457 106.918 28.3452L109.488 28.3357C109.602 28.3353 109.702 28.3683 109.789 28.4346C109.876 28.4943 109.933 28.5741 109.96 28.674C109.993 28.6472 110.029 28.627 110.069 28.6136C110.116 28.5934 110.163 28.5832 110.209 28.583L110.889 28.5805L110.887 28.0505C110.887 27.9172 110.93 27.8137 111.016 27.74C111.103 27.6597 111.209 27.6193 111.336 27.6189C111.456 27.6184 111.559 27.658 111.646 27.7377C111.733 27.8174 111.777 27.9272 111.777 28.0672L111.779 28.5772L112.199 28.5757C112.286 28.5753 112.363 28.5984 112.43 28.6448C112.496 28.6912 112.547 28.751 112.58 28.8243C112.66 28.6706 112.786 28.5935 112.959 28.5929L113.529 28.5907L113.527 28.0607C113.527 27.9207 113.57 27.8106 113.656 27.7303C113.743 27.6499 113.846 27.6096 113.966 27.6091C114.092 27.6086 114.199 27.6482 114.286 27.7279C114.373 27.8076 114.417 27.9174 114.417 28.0574L114.419 28.5874L115.339 28.584C115.459 28.5836 115.56 28.6265 115.64 28.7129C115.727 28.7926 115.77 28.8891 115.771 29.0024C115.771 29.1158 115.728 29.2159 115.642 29.3029C115.562 29.3832 115.462 29.4236 115.342 29.424L114.512 29.4271C114.626 29.5533 114.757 29.6929 114.904 29.8457C115.058 29.9917 115.208 30.1345 115.356 30.274C115.509 30.4067 115.643 30.5196 115.757 30.6125C115.857 30.6921 115.914 30.7952 115.928 30.9219C115.948 31.0485 115.912 31.1653 115.819 31.2723C115.733 31.3793 115.62 31.4363 115.48 31.4435C115.34 31.444 115.22 31.3978 115.119 31.3049C115.019 31.2119 114.909 31.099 114.788 30.9661C114.668 30.8265 114.547 30.6836 114.427 30.5374L114.43 31.5274C114.431 31.6608 114.388 31.7676 114.301 31.8479C114.215 31.9282 114.109 31.9686 113.982 31.9691C113.862 31.9695 113.758 31.9299 113.671 31.8502C113.584 31.7706 113.541 31.6641 113.54 31.5307L113.537 30.6707C113.338 30.9448 113.156 31.1755 112.99 31.3628C112.897 31.4631 112.784 31.5235 112.65 31.544C112.517 31.5578 112.397 31.5183 112.29 31.4254C112.19 31.3324 112.142 31.2259 112.149 31.1059C112.155 30.9858 112.201 30.8823 112.288 30.7954L112.347 30.7251C112.188 30.7924 112.047 30.7729 111.927 30.6667C111.907 30.6468 111.884 30.6269 111.857 30.607C111.837 30.587 111.813 30.5638 111.787 30.5372L111.79 31.5372C111.791 31.6705 111.748 31.7774 111.661 31.8577C111.575 31.938 111.472 31.9784 111.352 31.9788C111.225 31.9793 111.118 31.9397 111.031 31.86C110.944 31.7803 110.901 31.6705 110.9 31.5305L110.897 30.6705C110.698 30.9379 110.509 31.1653 110.33 31.3526C110.237 31.453 110.12 31.5067 109.98 31.5139C109.847 31.5211 109.733 31.4782 109.64 31.3852C109.553 31.2988 109.509 31.199 109.509 31.0857C109.508 30.9657 109.551 30.8622 109.637 30.7752C109.81 30.5945 110.003 30.3805 110.215 30.133C110.434 29.8789 110.617 29.6482 110.762 29.441L110.212 29.443C110.126 29.4434 110.046 29.4203 109.972 29.3739C109.905 29.3208 109.855 29.2577 109.822 29.1845C109.735 29.2648 109.625 29.3052 109.492 29.3057L108.702 29.3086C108.657 29.6355 108.594 29.9657 108.516 30.2993C108.444 30.6263 108.358 30.9499 108.259 31.2703C108.313 31.2634 108.373 31.2599 108.439 31.2596C108.506 31.2527 108.576 31.2491 108.649 31.2488C109.123 31.2471 109.453 31.3359 109.64 31.5152C109.834 31.6878 109.932 32.0108 109.934 32.4841L109.94 34.2541C109.942 34.7274 109.847 35.0544 109.654 35.2351C109.468 35.4092 109.138 35.4971 108.665 35.4988ZM114.589 36.7169C113.783 36.7199 113.112 36.6157 112.578 36.4043C112.044 36.193 111.593 35.8346 111.224 35.3293C110.933 35.8171 110.571 36.2484 110.139 36.6234C110.026 36.7171 109.896 36.7676 109.75 36.7748C109.603 36.7887 109.473 36.7425 109.359 36.6363C109.252 36.5233 109.202 36.3935 109.208 36.2468C109.214 36.1068 109.27 35.9932 109.376 35.9062C109.742 35.6115 110.054 35.2603 110.313 34.8527C110.571 34.4384 110.763 34.0177 110.888 33.5906C110.927 33.4371 111.014 33.3334 111.147 33.2796C111.28 33.2258 111.417 33.2253 111.557 33.2781C111.697 33.3242 111.787 33.4039 111.828 33.5171C111.875 33.6236 111.878 33.7436 111.839 33.877C111.793 34.0639 111.734 34.2441 111.661 34.4177C111.862 34.717 112.076 34.9595 112.304 35.1453L112.296 33.0953L110.596 33.1016C110.469 33.1021 110.356 33.0559 110.256 32.9629C110.162 32.8632 110.115 32.7468 110.114 32.6134C110.114 32.4801 110.16 32.3666 110.253 32.2729C110.353 32.1792 110.466 32.1321 110.592 32.1316L114.232 32.1182C114.799 32.1161 115.16 32.2547 115.314 32.5342C115.475 32.8136 115.433 33.2137 115.188 33.7346C115.155 33.8147 115.099 33.8816 115.019 33.9353C115.219 34.0012 115.32 34.1441 115.321 34.3641C115.321 34.4908 115.278 34.5976 115.192 34.6846C115.106 34.7716 114.999 34.8153 114.872 34.8158L113.332 34.8215L113.335 35.6215C113.509 35.6609 113.696 35.6902 113.896 35.7094C114.096 35.722 114.309 35.7279 114.536 35.7271C114.656 35.7266 114.769 35.7262 114.876 35.7258C114.989 35.7254 115.099 35.7216 115.206 35.7146C115.386 35.7006 115.536 35.7434 115.656 35.8429C115.777 35.9358 115.83 36.0589 115.818 36.2123C115.812 36.3923 115.749 36.5192 115.629 36.593C115.516 36.6734 115.363 36.714 115.169 36.7147L114.589 36.7169ZM108.641 34.5189C108.768 34.5184 108.855 34.4948 108.901 34.4479C108.948 34.4011 108.971 34.3143 108.97 34.1877L108.964 32.5577C108.964 32.431 108.94 32.3444 108.893 32.2979C108.846 32.2515 108.759 32.2284 108.633 32.2289C108.513 32.2294 108.43 32.253 108.383 32.2998C108.337 32.3467 108.314 32.4334 108.314 32.5601L108.32 34.1901C108.321 34.3168 108.344 34.4033 108.391 34.4498C108.438 34.4963 108.521 34.5193 108.641 34.5189ZM112.606 30.4442C112.739 30.2903 112.875 30.1232 113.014 29.9427C113.16 29.7554 113.286 29.585 113.392 29.4313L112.962 29.4328C112.789 29.4335 112.662 29.3573 112.582 29.2043C112.509 29.3579 112.382 29.435 112.202 29.4357L111.782 29.4372L111.783 29.4572C111.849 29.5103 111.926 29.5767 112.013 29.6564C112.107 29.7294 112.197 29.8024 112.284 29.8754C112.371 29.9417 112.435 29.9915 112.475 30.0247C112.615 30.1375 112.659 30.2773 112.606 30.4442ZM113.329 33.9115L114.349 33.9077C114.195 33.7683 114.158 33.6018 114.237 33.4081C114.297 33.2746 114.313 33.1879 114.286 33.148C114.259 33.1081 114.169 33.0884 114.016 33.089L113.326 33.0915L113.329 33.9115ZM123.566 35.7736C123.113 35.7753 122.749 35.7199 122.475 35.6076C122.202 35.4886 122.004 35.296 121.883 35.0298C121.762 34.7636 121.701 34.4072 121.699 33.9605L121.687 30.6905C121.686 30.2439 121.744 29.887 121.863 29.6199C121.982 29.3527 122.178 29.162 122.451 29.0477C122.724 28.9267 123.087 28.8653 123.54 28.8636C124 28.8619 124.364 28.9206 124.631 29.0396C124.905 29.1519 125.102 29.3412 125.223 29.6074C125.344 29.8736 125.406 30.2301 125.407 30.6767L125.419 33.9567C125.421 34.4034 125.362 34.7603 125.243 35.0274C125.124 35.2878 124.928 35.4785 124.655 35.5995C124.389 35.7139 124.026 35.7719 123.566 35.7736ZM117.459 36.5862C117.313 36.6734 117.153 36.7074 116.979 36.688C116.806 36.6686 116.672 36.5825 116.578 36.4295C116.491 36.2898 116.464 36.1466 116.497 35.9998C116.53 35.853 116.619 35.7393 116.766 35.6588C117.318 35.3501 117.756 34.9684 118.081 34.5139C118.406 34.0594 118.601 33.482 118.665 32.7817L117.295 32.7868C117.128 32.7874 116.991 32.7346 116.884 32.6283C116.784 32.5154 116.733 32.3822 116.733 32.2289C116.732 32.0756 116.782 31.9454 116.881 31.8383C116.988 31.7246 117.124 31.6674 117.291 31.6668L118.681 31.6617L118.675 30.1617L118.135 30.1637C118.049 30.3173 117.96 30.4677 117.867 30.6147C117.774 30.755 117.685 30.8854 117.598 31.0057C117.505 31.1327 117.379 31.2165 117.219 31.2571C117.059 31.2977 116.906 31.2716 116.759 31.1788C116.639 31.1059 116.558 30.9995 116.518 30.8597C116.477 30.7132 116.5 30.5831 116.586 30.4694C116.852 30.1084 117.104 29.7075 117.342 29.2666C117.587 28.819 117.772 28.395 117.897 27.9945C117.95 27.841 118.046 27.7307 118.186 27.6635C118.326 27.5896 118.476 27.5791 118.636 27.6318C118.789 27.6779 118.9 27.7742 118.967 27.9206C119.034 28.0603 119.041 28.207 118.989 28.3605C118.942 28.474 118.893 28.5909 118.84 28.7111C118.794 28.8312 118.744 28.9481 118.691 29.0616L120.671 29.0543C120.838 29.0537 120.971 29.1065 121.072 29.2128C121.172 29.3191 121.223 29.4489 121.223 29.6022C121.224 29.7556 121.174 29.8857 121.075 29.9928C120.975 30.0998 120.842 30.1536 120.675 30.1543L119.815 30.1574L119.821 31.6574L120.951 31.6533C121.124 31.6526 121.261 31.7088 121.361 31.8217C121.462 31.928 121.512 32.0578 121.513 32.2112C121.513 32.3645 121.464 32.498 121.364 32.6117C121.265 32.7188 121.128 32.7726 120.955 32.7732L119.805 32.7775C119.805 32.8042 119.802 32.8342 119.795 32.8675C119.795 32.8942 119.792 32.9209 119.786 32.9476C119.92 33.1604 120.081 33.3965 120.268 33.6558C120.462 33.9084 120.66 34.1577 120.861 34.4036C121.062 34.6429 121.239 34.8455 121.393 35.0116C121.514 35.1379 121.564 35.281 121.545 35.4411C121.532 35.5945 121.463 35.728 121.336 35.8419C121.203 35.9623 121.05 36.0162 120.877 36.0036C120.704 35.9975 120.56 35.9281 120.446 35.7952C120.299 35.6224 120.135 35.4096 119.954 35.157C119.773 34.9043 119.595 34.645 119.421 34.3789C119.223 34.8397 118.957 35.254 118.625 35.6219C118.293 35.9898 117.905 36.3112 117.459 36.5862ZM123.562 34.6536C123.842 34.6526 124.025 34.6019 124.111 34.5016C124.204 34.3945 124.25 34.1977 124.249 33.911L124.237 30.7211C124.236 30.4277 124.189 30.2312 124.095 30.1316C124.008 30.0319 123.825 29.9826 123.545 29.9836C123.258 29.9847 123.071 30.0354 122.985 30.1357C122.899 30.236 122.856 30.4328 122.857 30.7262L122.869 33.9062C122.87 34.1928 122.914 34.3893 123.001 34.4957C123.088 34.602 123.275 34.6547 123.562 34.6536ZM132.399 36.6209C132.28 36.6946 132.153 36.7184 132.02 36.6923C131.886 36.6728 131.779 36.6031 131.699 36.4834C131.632 36.3704 131.608 36.2538 131.627 36.1337C131.654 36.0136 131.723 35.9167 131.836 35.8429C131.89 35.8094 131.943 35.7759 131.996 35.7423C132.049 35.7088 132.099 35.6753 132.146 35.6418C131.959 35.6825 131.726 35.7033 131.446 35.7044C131.079 35.7057 130.792 35.6701 130.585 35.5976C130.378 35.5183 130.231 35.3855 130.144 35.1992C130.063 35.0128 130.022 34.753 130.021 34.4197L130.019 33.7497C130.017 33.4097 130.056 33.1462 130.136 32.9592C130.222 32.7722 130.368 32.6417 130.574 32.5676C130.781 32.4935 131.067 32.4558 131.434 32.4544C131.8 32.453 132.084 32.4887 132.284 32.5612C132.491 32.6338 132.635 32.7633 132.716 32.9497C132.803 33.136 132.847 33.3992 132.849 33.7392L132.851 34.4092C132.852 34.7225 132.82 34.9693 132.754 35.1495C132.893 35.0157 133.026 34.8818 133.152 34.748C133.278 34.6142 133.401 34.4738 133.521 34.3267C133.446 33.9936 133.382 33.6405 133.327 33.2674C133.272 32.8876 133.227 32.4811 133.192 32.0479L129.932 32.06C129.792 32.0605 129.679 32.0176 129.592 31.9312C129.512 31.8382 129.471 31.7283 129.471 31.6017C129.47 31.475 129.51 31.3682 129.589 31.2812C129.676 31.1876 129.789 31.1405 129.929 31.14L130.479 31.1379C130.392 31.0916 130.328 31.0152 130.288 30.9086C130.261 30.8421 130.221 30.7356 130.167 30.5891C130.113 30.4426 130.069 30.3361 130.036 30.2696C129.989 30.1564 129.992 30.0497 130.045 29.9495C130.097 29.8427 130.181 29.769 130.294 29.7286C130.407 29.6815 130.52 29.6811 130.634 29.7273C130.747 29.7736 130.827 29.8533 130.875 29.9665C130.901 30.033 130.939 30.1362 130.986 30.276C131.04 30.4158 131.08 30.5224 131.107 30.5956C131.154 30.7221 131.154 30.8321 131.108 30.9256C131.068 31.0191 130.995 31.0893 130.889 31.1364L131.349 31.1347C131.389 31.0412 131.438 30.9177 131.498 30.7642C131.557 30.6106 131.613 30.4571 131.666 30.3035C131.725 30.15 131.768 30.0365 131.795 29.963C131.841 29.8295 131.917 29.7393 132.024 29.6922C132.137 29.6451 132.257 29.638 132.383 29.6709C132.504 29.7038 132.594 29.7767 132.654 29.8899C132.715 29.9963 132.718 30.1163 132.666 30.2498C132.633 30.3366 132.58 30.4668 132.507 30.6404C132.434 30.814 132.365 30.9776 132.299 31.1312L133.129 31.1281C133.107 30.6615 133.092 30.1682 133.083 29.6483C133.075 29.1216 133.069 28.565 133.067 27.9783C133.067 27.825 133.113 27.7081 133.206 27.6278C133.306 27.5474 133.425 27.507 133.565 27.5065C133.699 27.506 133.809 27.5489 133.896 27.6352C133.99 27.7216 134.037 27.8381 134.037 27.9847C134.039 28.5714 134.041 29.128 134.043 29.6547C134.052 30.1747 134.067 30.6646 134.089 31.1246L135.359 31.1198C135.506 31.1193 135.619 31.1655 135.699 31.2586C135.78 31.345 135.82 31.4515 135.821 31.5781C135.821 31.7048 135.781 31.8149 135.702 31.9086C135.622 31.9955 135.509 32.0393 135.362 32.0398L134.152 32.0443C134.187 32.4775 134.229 32.8707 134.277 33.2239C134.33 33.1303 134.383 33.0368 134.436 32.9433C134.489 32.8431 134.538 32.7429 134.585 32.6427C134.651 32.5091 134.744 32.4255 134.864 32.3917C134.99 32.3512 135.113 32.3608 135.234 32.4203C135.354 32.4799 135.434 32.5696 135.475 32.6894C135.522 32.8093 135.512 32.936 135.446 33.0695C135.32 33.3167 135.181 33.5639 135.029 33.8111C134.883 34.0516 134.724 34.2889 134.551 34.5229C134.599 34.6627 134.646 34.7958 134.693 34.9223C134.74 35.0488 134.794 35.172 134.854 35.2917C134.888 35.3583 134.921 35.3915 134.955 35.3914C134.995 35.3846 135.028 35.3444 135.054 35.271C135.067 35.2376 135.091 35.1675 135.123 35.0607C135.163 34.9539 135.186 34.8872 135.193 34.8605C135.226 34.747 135.295 34.6701 135.402 34.6297C135.508 34.5826 135.625 34.5822 135.752 34.6284C135.865 34.6613 135.949 34.7243 136.003 34.8175C136.063 34.9106 136.077 35.0239 136.044 35.1573C136.018 35.2908 135.965 35.4643 135.886 35.6779C135.813 35.8915 135.741 36.0785 135.668 36.2387C135.529 36.5659 135.33 36.7367 135.07 36.751C134.81 36.7719 134.573 36.6295 134.358 36.3236C134.264 36.1773 134.174 36.0276 134.086 35.8746C134.006 35.7149 133.929 35.5485 133.855 35.3754C133.629 35.623 133.393 35.8505 133.147 36.0581C132.901 36.2657 132.652 36.4532 132.399 36.6209ZM128.169 36.5665C127.829 36.5678 127.559 36.5255 127.359 36.4395C127.165 36.3603 127.028 36.2108 126.947 35.9911C126.866 35.7714 126.825 35.4648 126.823 35.0715C126.822 34.6648 126.861 34.3547 126.94 34.1411C127.019 33.9274 127.155 33.7803 127.348 33.6996C127.548 33.6121 127.818 33.5678 128.158 33.5666C128.505 33.5653 128.771 33.6076 128.958 33.6936C129.152 33.7729 129.289 33.919 129.37 34.1321C129.451 34.3451 129.492 34.6549 129.493 35.0616C129.495 35.4549 129.456 35.7618 129.377 35.982C129.298 36.2023 129.162 36.3529 128.969 36.4336C128.782 36.5209 128.516 36.5652 128.169 36.5665ZM126.786 30.2816C126.646 30.2821 126.536 30.2392 126.455 30.1528C126.375 30.0598 126.334 29.9533 126.334 29.8333C126.334 29.7066 126.373 29.5998 126.453 29.5128C126.533 29.4192 126.642 29.3721 126.782 29.3716L129.382 29.362C129.436 29.3618 129.482 29.3683 129.522 29.3815C129.562 29.3946 129.599 29.4112 129.633 29.4311C129.612 29.3978 129.596 29.3612 129.582 29.3212C129.569 29.2746 129.562 29.228 129.562 29.1813C129.561 29.0613 129.601 28.9578 129.681 28.8709C129.76 28.7839 129.87 28.7402 130.01 28.7397L130.8 28.7367L130.798 28.0767C130.797 27.9234 130.843 27.8032 130.936 27.7162C131.029 27.6225 131.152 27.5754 131.306 27.5748C131.459 27.5743 131.579 27.6205 131.666 27.7135C131.76 27.7998 131.807 27.9197 131.808 28.073L131.81 28.733L132.52 28.7303C132.66 28.7298 132.77 28.7728 132.85 28.8591C132.931 28.9455 132.971 29.0487 132.972 29.1687C132.972 29.2953 132.933 29.4022 132.853 29.4891C132.773 29.5761 132.663 29.6198 132.523 29.6203L130.013 29.6296C129.9 29.6301 129.817 29.607 129.763 29.5606C129.81 29.6404 129.834 29.727 129.834 29.8203C129.834 29.9403 129.795 30.0471 129.715 30.1408C129.636 30.2277 129.526 30.2715 129.386 30.272L126.786 30.2816ZM127.211 28.9C127.071 28.9005 126.957 28.8576 126.87 28.7713C126.79 28.6783 126.749 28.5684 126.749 28.4417C126.748 28.3084 126.788 28.1983 126.868 28.1113C126.954 28.0176 127.067 27.9706 127.207 27.97L129.017 27.9633C129.164 27.9628 129.277 28.009 129.358 28.1021C129.438 28.1884 129.478 28.2983 129.479 28.4316C129.479 28.5583 129.44 28.6684 129.36 28.7621C129.28 28.849 129.167 28.8928 129.021 28.8933L127.211 28.9ZM127.201 31.6701C127.061 31.6706 126.951 31.6277 126.87 31.5413C126.79 31.4483 126.75 31.3384 126.749 31.2118C126.749 31.0851 126.788 30.9783 126.868 30.8913C126.948 30.7977 127.057 30.7506 127.197 30.7501L129.037 30.7433C129.177 30.7428 129.288 30.789 129.368 30.882C129.448 30.9684 129.489 31.0749 129.489 31.2016C129.49 31.3283 129.45 31.4384 129.37 31.532C129.291 31.619 129.181 31.6627 129.041 31.6633L127.201 31.6701ZM127.206 33.0501C127.066 33.0506 126.956 33.0077 126.876 32.9213C126.795 32.8283 126.755 32.7217 126.754 32.6017C126.754 32.4751 126.793 32.3683 126.873 32.2813C126.953 32.1877 127.063 32.1406 127.203 32.1401L129.043 32.1333C129.183 32.1327 129.293 32.179 129.373 32.272C129.453 32.3584 129.494 32.4649 129.494 32.5916C129.495 32.7116 129.455 32.8184 129.375 32.912C129.296 32.999 129.186 33.0427 129.046 33.0433L127.206 33.0501ZM135.327 30.5C135.207 30.5604 135.084 30.5742 134.957 30.5413C134.837 30.5084 134.746 30.4288 134.686 30.3023C134.659 30.2424 134.615 30.1593 134.555 30.0528C134.495 29.9464 134.431 29.8366 134.364 29.7235C134.303 29.6104 134.246 29.514 134.193 29.4342C134.132 29.321 134.118 29.2044 134.151 29.0843C134.191 28.9575 134.267 28.8639 134.38 28.8035C134.5 28.7497 134.62 28.7392 134.74 28.7721C134.867 28.7983 134.964 28.868 135.031 28.981C135.105 29.1008 135.192 29.2538 135.293 29.4401C135.4 29.6197 135.481 29.7627 135.534 29.8692C135.608 30.0022 135.619 30.1255 135.566 30.2391C135.519 30.3526 135.44 30.4395 135.327 30.5ZM128.166 35.6365C128.332 35.6359 128.439 35.6022 128.485 35.5354C128.538 35.4618 128.564 35.3051 128.563 35.0651C128.563 34.8317 128.535 34.6785 128.482 34.6054C128.435 34.5322 128.328 34.4959 128.161 34.4965C127.995 34.4972 127.885 34.5342 127.832 34.6078C127.785 34.6813 127.763 34.8347 127.763 35.068C127.764 35.308 127.788 35.4646 127.835 35.5378C127.889 35.6042 127.999 35.6372 128.166 35.6365ZM131.443 34.9144C131.616 34.9137 131.733 34.89 131.793 34.8431C131.852 34.7962 131.882 34.6594 131.881 34.4328L130.991 34.4361C130.992 34.6627 131.022 34.7993 131.083 34.8457C131.15 34.8921 131.27 34.915 131.443 34.9144ZM130.988 33.7061L131.878 33.7028C131.878 33.4894 131.847 33.3595 131.787 33.3131C131.727 33.2667 131.61 33.2438 131.437 33.2444C131.263 33.245 131.147 33.2688 131.087 33.3157C131.027 33.3626 130.994 33.4927 130.988 33.7061Z" fill="#FE585B"/>
<path d="M35.0602 59.013C34.2922 59.0159 33.891 58.6867 33.8565 58.0255C33.8447 57.7269 33.9345 57.4759 34.1257 57.2725C34.3169 57.0585 34.6098 56.9454 35.0045 56.9332C35.6124 56.9097 36.0815 56.8599 36.4119 56.784C36.7423 56.7081 36.9871 56.5739 37.1464 56.3813C37.3163 56.178 37.4379 55.8735 37.511 55.4679C37.5318 55.3185 37.5579 55.1584 37.5893 54.9876C37.6206 54.8062 37.6466 54.6248 37.6672 54.4434C37.719 54.0058 37.6752 53.718 37.536 53.5798C37.4075 53.4416 37.0819 53.3735 36.5593 53.3755L35.1673 53.3806C34.4206 53.3834 33.8444 53.3162 33.4385 53.179C33.0327 53.0312 32.765 52.7655 32.6356 52.382C32.5168 51.9878 32.5041 51.4331 32.5974 50.7181C32.691 50.0671 32.8278 49.5706 33.0079 49.2286C33.1986 48.8865 33.4964 48.6508 33.9013 48.5213C34.3061 48.3918 34.8712 48.3257 35.5966 48.323L36.8125 48.3185C37.2072 48.317 37.4684 48.268 37.596 48.1716C37.7236 48.0644 37.7867 47.8295 37.7854 47.4669C37.784 47.1042 37.7192 46.8751 37.5908 46.7796C37.4624 46.6734 37.2009 46.621 36.8063 46.6225L33.2063 46.6358C32.9716 46.6367 32.7687 46.5575 32.5974 46.3981C32.4368 46.228 32.356 46.0256 32.3551 45.791C32.3543 45.5563 32.4335 45.3587 32.5929 45.1981C32.763 45.0268 32.9653 44.9407 33.2 44.9398L36.8 44.9265C37.6 44.9235 38.2136 44.9959 38.6408 45.1437C39.0787 45.2914 39.3783 45.5463 39.5396 45.9084C39.7116 46.2704 39.7989 46.7821 39.8013 47.4434C39.8037 48.0941 39.7203 48.6064 39.551 48.9803C39.3924 49.3436 39.0946 49.6007 38.6579 49.7516C38.2318 49.9026 37.6187 49.9795 36.8187 49.9825L35.5707 49.9871C35.1761 49.9886 34.9096 50.0429 34.7713 50.1501C34.6437 50.2465 34.5538 50.4655 34.5017 50.8071C34.4602 51.1059 34.493 51.3191 34.6001 51.4467C34.7179 51.5636 34.9741 51.6213 35.3688 51.6199L37.0008 51.6138C37.7688 51.611 38.361 51.6888 38.7776 51.8472C39.2049 52.0056 39.4939 52.2766 39.6447 52.66C39.7954 53.0328 39.8346 53.5553 39.7625 54.2276C39.7421 54.4837 39.7058 54.7611 39.6535 55.06C39.612 55.3588 39.5756 55.6096 39.5443 55.8124C39.3876 56.6877 39.1447 57.3552 38.8158 57.8151C38.4868 58.275 38.0239 58.5861 37.4272 58.7483C36.8305 58.9212 36.0415 59.0094 35.0602 59.013ZM44.0526 59.1237C43.7753 59.1247 43.535 59.0296 43.3316 58.8384C43.1282 58.6578 43.026 58.4129 43.0249 58.1035L42.9776 45.3676C42.9765 45.0583 43.0769 44.8126 43.2789 44.6305C43.4809 44.4377 43.7205 44.3408 43.9978 44.3398C44.2858 44.3388 44.5262 44.4339 44.7189 44.6251C44.9222 44.8057 45.0245 45.0507 45.0256 45.36L45.0728 58.0959C45.074 58.4053 44.9736 58.651 44.7716 58.8331C44.5803 59.0258 44.3406 59.1227 44.0526 59.1237ZM58.5801 58.9419C58.3027 58.9429 58.0677 58.8531 57.8751 58.6725C57.6824 58.5025 57.5749 58.2629 57.5524 57.9537C57.5407 57.6764 57.6198 57.4361 57.7897 57.2328C57.9703 57.0295 58.2099 56.9166 58.5085 56.8941C58.8497 56.8715 59.0735 56.812 59.1798 56.7156C59.2968 56.6192 59.3547 56.4163 59.3536 56.107L59.3448 53.739L56.1768 53.7507L56.1915 57.7187C56.1926 58.0174 56.0975 58.2524 55.9061 58.4238C55.7254 58.5951 55.4964 58.6813 55.2191 58.6823C54.9524 58.6833 54.7228 58.5988 54.5301 58.4289C54.3482 58.2589 54.2566 58.0246 54.2555 57.7259L54.2408 53.7579L51.0888 53.7696C50.9962 54.6766 50.8339 55.5039 50.602 56.2514C50.3701 56.999 50.0529 57.7361 49.6502 58.463C49.5125 58.7088 49.3104 58.8749 49.0441 58.9612C48.7884 59.0582 48.5271 59.0485 48.26 58.9321C47.9929 58.8158 47.8162 58.6298 47.7299 58.3741C47.6543 58.1184 47.6854 57.8729 47.8232 57.6377C48.2894 56.8147 48.6433 55.88 48.8848 54.8338C49.1262 53.7875 49.2444 52.5818 49.2394 51.2164L49.2279 48.1285C49.225 47.3391 49.34 46.7094 49.5729 46.2392C49.8165 45.7583 50.2099 45.4101 50.7531 45.1948C51.2963 44.9794 52.0265 44.8701 52.9439 44.8667L57.5358 44.8496C58.4532 44.8462 59.1842 44.9502 59.729 45.1615C60.2738 45.3728 60.6644 45.7181 60.9008 46.1972C61.1479 46.6656 61.2729 47.2945 61.2758 48.0838L61.3064 56.3237C61.3088 56.9744 61.22 57.4867 61.0401 57.8607C60.8708 58.2454 60.5838 58.5184 60.1791 58.6799C59.785 58.8414 59.252 58.9287 58.5801 58.9419ZM56.1705 52.0388L59.3384 52.027L59.3315 50.155L56.1635 50.1668L56.1705 52.0388ZM51.1945 52.0572L54.2345 52.0459L54.2275 50.1739L51.2036 50.1852L51.2074 51.2091C51.2079 51.3585 51.2084 51.5025 51.209 51.6411C51.2095 51.7798 51.2047 51.9185 51.1945 52.0572ZM56.1571 48.4388L59.3251 48.427L59.3239 48.091C59.3216 47.4937 59.1868 47.0942 58.9194 46.8925C58.6626 46.6801 58.2036 46.5752 57.5422 46.5776L56.1502 46.5828L56.1571 48.4388ZM51.1972 48.4572L54.2211 48.446L54.2143 46.59L52.9503 46.5947C52.2889 46.5971 51.8307 46.7055 51.5755 46.9197C51.3202 47.1234 51.1937 47.5238 51.1959 48.1212L51.1972 48.4572ZM74.1807 59.076C73.914 59.077 73.679 58.9872 73.4757 58.8067C73.283 58.626 73.1861 58.3864 73.185 58.0877L73.1621 51.8958C72.7982 51.5878 72.4504 51.2744 72.1186 50.9556C71.7974 50.6368 71.4975 50.3126 71.2189 49.983C71.2082 49.9723 71.1975 49.9617 71.1868 49.9511C71.1868 49.9404 71.1814 49.9298 71.1707 49.9191C70.708 51.7022 69.9887 53.3262 69.0128 54.7912C68.0368 56.2561 66.9109 57.519 65.6348 58.5797C65.4008 58.7726 65.1346 58.8856 64.836 58.9187C64.5481 58.9517 64.2918 58.862 64.067 58.6495C63.8636 58.4476 63.772 58.192 63.7922 57.8825C63.8124 57.5731 63.9342 57.338 64.1576 57.1772C65.5829 56.1052 66.7622 54.8155 67.6952 53.308C67.5028 53.1914 67.2837 53.0589 67.0378 52.9105C66.8026 52.762 66.6475 52.6666 66.5727 52.6242C66.3375 52.4757 66.1821 52.2683 66.1064 52.0019C66.0307 51.7355 66.0618 51.4688 66.1994 51.2016C66.3478 50.9344 66.5658 50.7682 66.8536 50.7031C67.1413 50.6381 67.4082 50.6798 67.6541 50.8282C67.7182 50.8599 67.8572 50.9448 68.071 51.0826C68.2955 51.2098 68.4933 51.3317 68.6644 51.4484C68.8125 51.1279 68.9393 50.8021 69.0447 50.471C69.1608 50.1399 69.2556 49.8089 69.3291 49.478C69.4131 49.1256 69.4069 48.891 69.3105 48.774C69.214 48.6571 68.9791 48.5993 68.6058 48.6006L67.2458 48.6057C66.9711 49.3214 66.6644 50.0105 66.3255 50.6731C65.9973 51.3357 65.6635 51.9289 65.3241 52.4528C65.1756 52.6774 64.9627 52.8168 64.6856 52.8712C64.4084 52.9149 64.1522 52.8572 63.917 52.698C63.7137 52.5495 63.5903 52.3526 63.5468 52.1074C63.5032 51.8516 63.5503 51.6221 63.6882 51.4189C63.964 51.0125 64.2396 50.5422 64.515 50.0078C64.7903 49.4735 65.0496 48.9178 65.2928 48.3409C65.536 47.7533 65.7525 47.1765 65.9424 46.6105C66.1323 46.0445 66.2797 45.5266 66.3847 45.0568C66.4475 44.7473 66.5961 44.5334 66.8303 44.4152C67.0752 44.2969 67.3311 44.2747 67.598 44.3483C67.8543 44.4114 68.0468 44.544 68.1755 44.7462C68.3149 44.9484 68.3425 45.2043 68.2584 45.5139C68.2058 45.7274 68.148 45.9516 68.0849 46.1866C68.0217 46.4108 67.9479 46.6457 67.8635 46.8914L68.8875 46.8876C69.7301 46.8845 70.3493 47.0155 70.7449 47.2807C71.1512 47.5459 71.3608 47.9718 71.3737 48.5584C71.5652 48.4403 71.773 48.3862 71.9971 48.3961C72.2211 48.3952 72.4081 48.4852 72.5581 48.666C72.6545 48.7723 72.7509 48.8786 72.8473 48.9849C72.9436 49.0806 73.0453 49.1815 73.1524 49.2878L73.1372 45.1918C73.136 44.8718 73.2311 44.6261 73.4225 44.4548C73.6245 44.2727 73.8588 44.1811 74.1255 44.1801C74.4028 44.1791 74.6378 44.2689 74.8305 44.4495C75.0231 44.6195 75.12 44.8645 75.1212 45.1845L75.1425 50.9444C76.1266 51.6661 77.1261 52.2491 78.141 52.6933C78.4081 52.799 78.5902 52.9957 78.6872 53.2833C78.7949 53.5602 78.7746 53.8323 78.6263 54.0995C78.4674 54.3988 78.2387 54.5756 77.9402 54.6301C77.6417 54.6739 77.3535 54.6269 77.0757 54.4893C76.7765 54.3411 76.4612 54.1716 76.1298 53.9808C75.8091 53.7793 75.4829 53.5725 75.1515 53.3604L75.169 58.0804C75.1701 58.379 75.075 58.6194 74.8837 58.8014C74.6923 58.9835 74.458 59.075 74.1807 59.076ZM89.1885 58.9884C88.9325 58.9894 88.7135 58.9048 88.5315 58.7349C88.3495 58.5649 88.258 58.3412 88.257 58.0639L88.2159 46.9599C88.2137 46.3733 88.292 45.9197 88.4508 45.5991C88.6096 45.2678 88.9074 45.0374 89.3443 44.9077C89.7917 44.7674 90.4262 44.6957 91.2475 44.6927C92.5488 44.6879 93.371 44.9195 93.7141 45.3876C94.0571 45.8449 94.0329 46.5064 93.6414 47.3718C93.4934 47.7137 93.3559 48.0289 93.2289 48.3174C93.102 48.6058 92.975 48.8783 92.848 49.1348C92.7209 49.4019 92.6417 49.6102 92.6103 49.7597C92.5788 49.9091 92.6007 50.0477 92.6758 50.1754C92.7616 50.3031 92.9063 50.4786 93.1098 50.7018C93.5275 51.1589 93.8493 51.6431 94.0752 52.1543C94.3117 52.6654 94.4312 53.2516 94.4337 53.9129C94.4375 54.9583 94.1684 55.7379 93.6263 56.252C93.0949 56.7659 92.3705 57.0246 91.4532 57.028C91.1652 57.0291 90.9249 56.9553 90.7324 56.8067C90.5505 56.658 90.4483 56.4291 90.4258 56.1198C90.4035 55.8426 90.4666 55.613 90.6153 55.4311C90.7746 55.2385 91.0195 55.1256 91.35 55.0924C91.7978 55.0374 92.1068 54.9296 92.2768 54.7689C92.4575 54.5976 92.547 54.2773 92.5453 53.8079C92.5435 53.3386 92.4566 52.9069 92.2845 52.5129C92.1123 52.1082 91.8869 51.725 91.6082 51.3634C91.3724 51.0549 91.1901 50.7996 91.0614 50.5974C90.9433 50.3952 90.8679 50.2035 90.8352 50.0223C90.8132 49.8303 90.8284 49.6223 90.8809 49.3981C90.9441 49.1738 91.039 48.8908 91.1658 48.549C91.2714 48.282 91.3666 48.0416 91.4511 47.828C91.5356 47.6143 91.6308 47.374 91.7364 47.1069C91.8527 46.8291 91.8626 46.6264 91.7662 46.4988C91.6697 46.3711 91.4188 46.3081 91.0135 46.3096C90.6188 46.311 90.363 46.3653 90.2461 46.4724C90.1291 46.5688 90.0712 46.7877 90.0725 47.1291L90.113 58.057C90.114 58.3343 90.0242 58.5587 89.8435 58.73C89.6628 58.9013 89.4444 58.9875 89.1885 58.9884ZM80.1552 52.2059C79.9419 52.2066 79.755 52.1327 79.5944 51.9839C79.4338 51.8245 79.3531 51.6382 79.3523 51.4248C79.3516 51.2115 79.4309 51.0299 79.5903 50.8799C79.7497 50.7193 79.9361 50.6387 80.1494 50.6379L81.7174 50.6321C81.6853 50.6002 81.6532 50.5683 81.6211 50.5364C81.5996 50.4938 81.5781 50.4512 81.5566 50.4086C81.4705 50.1956 81.3522 49.9347 81.2017 49.626C81.0619 49.3171 80.9437 49.0776 80.847 48.9073C80.7396 48.705 80.7228 48.4917 80.7967 48.2674C80.8812 48.0431 81.0246 47.8826 81.2269 47.7859C81.2695 47.7644 81.3067 47.7482 81.3387 47.7374C81.3813 47.7266 81.4239 47.7158 81.4666 47.705L80.5866 47.7082C80.3732 47.709 80.1863 47.635 80.0258 47.4863C79.8759 47.3375 79.8005 47.1565 79.7997 46.9431C79.7989 46.7298 79.8729 46.5482 80.0217 46.3983C80.1812 46.2484 80.3676 46.173 80.5809 46.1722L82.7729 46.1641L82.7691 45.1401C82.768 44.8415 82.8631 44.6064 83.0545 44.4351C83.2565 44.253 83.4908 44.1614 83.7575 44.1604C84.0348 44.1594 84.2645 44.2492 84.4465 44.4299C84.6391 44.5998 84.736 44.8342 84.7371 45.1328L84.7409 46.1568L86.9168 46.1488C87.1302 46.148 87.3118 46.222 87.4617 46.3707C87.6116 46.5195 87.6869 46.7006 87.6877 46.9139C87.6885 47.1272 87.6145 47.3088 87.4657 47.4587C87.3169 47.6086 87.1359 47.6839 86.9225 47.6847L86.1545 47.6876L86.2187 47.7193C86.4429 47.7932 86.6035 47.9366 86.7003 48.1496C86.8077 48.3625 86.8139 48.5811 86.7187 48.8055C86.6448 49.0084 86.5285 49.2809 86.3697 49.6228C86.2217 49.9647 86.0735 50.2959 85.9254 50.6165L87.2054 50.6117C87.4294 50.6109 87.6163 50.6902 87.7663 50.8496C87.9268 50.9984 88.0075 51.1794 88.0083 51.3927C88.0091 51.6061 87.9298 51.793 87.7704 51.9536C87.6216 52.1035 87.4352 52.1789 87.2112 52.1797L80.1552 52.2059ZM83.7628 58.5445C82.9628 58.5475 82.3385 58.4645 81.8898 58.2955C81.4519 58.1371 81.1415 57.8556 80.9587 57.4509C80.7865 57.0462 80.6991 56.4919 80.6965 55.7879C80.6939 55.0839 80.7772 54.5342 80.9464 54.1389C81.1262 53.7329 81.4345 53.4438 81.8712 53.2715C82.3186 53.0992 82.9423 53.0115 83.7422 53.0086C84.5529 53.0056 85.1772 53.0886 85.6152 53.2576C86.0638 53.4266 86.3742 53.7135 86.5464 54.1182C86.7292 54.5122 86.8219 55.0612 86.8245 55.7652C86.8271 56.4692 86.7385 57.0242 86.5587 57.4302C86.3895 57.8361 86.0812 58.1199 85.6338 58.2816C85.1971 58.4539 84.5734 58.5415 83.7628 58.5445ZM83.0454 50.6271L84.0854 50.6233C84.1805 50.3883 84.2915 50.1158 84.4184 49.806C84.5452 49.4856 84.6667 49.1811 84.783 48.8927C84.8992 48.5936 84.9837 48.3693 85.0365 48.2197C85.1315 47.9527 85.3175 47.776 85.5945 47.6897L81.8986 47.7034C82.1121 47.7666 82.2833 47.8993 82.4121 48.1015C82.4872 48.2185 82.5731 48.3782 82.6698 48.5805C82.7772 48.7828 82.874 48.9851 82.9601 49.1874C83.0568 49.3791 83.1267 49.5282 83.1697 49.6347C83.3419 50.0394 83.3005 50.3702 83.0454 50.6271ZM83.7568 56.9285C84.0874 56.9273 84.338 56.8997 84.5085 56.8458C84.6896 56.7917 84.8119 56.6846 84.8753 56.5244C84.9387 56.3535 84.9697 56.1027 84.9685 55.772C84.9673 55.4414 84.9344 55.1962 84.8698 55.0364C84.8052 54.8766 84.6821 54.7704 84.5006 54.7178C84.3297 54.6651 84.079 54.6393 83.7483 54.6406C83.4283 54.6417 83.1777 54.6693 82.9966 54.7233C82.8261 54.7773 82.7092 54.8844 82.6458 55.0446C82.5824 55.2049 82.5513 55.4503 82.5525 55.781C82.5537 56.1117 82.5867 56.3622 82.6513 56.5326C82.7159 56.6924 82.8336 56.7986 83.0045 56.8513C83.186 56.904 83.4368 56.9297 83.7568 56.9285ZM97.6683 58.925C97.3806 59.0114 97.1299 59.007 96.9162 58.9118C96.7026 58.8272 96.5526 58.6678 96.4664 58.4334C96.3909 58.2097 96.4008 57.9963 96.4961 57.7933C96.602 57.5903 96.7881 57.4509 97.0545 57.3753C97.4914 57.2563 97.9815 57.0998 98.5248 56.9058C99.0787 56.7117 99.5687 56.5126 99.9946 56.3083C99.2582 56.2151 98.7454 55.9823 98.456 55.61C98.1666 55.2271 98.0204 54.6463 98.0175 53.8677L98.0117 52.2997C98.0085 51.4357 98.1769 50.8164 98.5168 50.4418C98.8675 50.0671 99.496 49.8515 100.402 49.7948C100.392 49.7735 100.381 49.7522 100.37 49.7309C100.359 49.7096 100.349 49.6883 100.338 49.667C100.252 49.454 100.246 49.246 100.32 49.0431C100.404 48.8401 100.558 48.7009 100.782 48.6254C102.135 48.2044 103.018 47.4651 103.43 46.4075L102.278 46.4118C102.013 46.8075 101.769 47.1444 101.546 47.4225C101.386 47.5938 101.184 47.7065 100.939 47.7608C100.694 47.8044 100.47 47.7625 100.266 47.6353C100.095 47.5186 99.9828 47.359 99.9287 47.1565C99.8746 46.9541 99.9166 46.7672 100.055 46.5961C100.203 46.4142 100.362 46.1949 100.532 45.9383C100.713 45.6816 100.882 45.4143 101.041 45.1364C101.2 44.8478 101.327 44.586 101.422 44.351C101.517 44.1373 101.677 43.982 101.901 43.8852C102.135 43.7883 102.375 43.7928 102.621 43.8985C102.845 43.983 102.989 44.1372 103.054 44.3609C103.13 44.5846 103.12 44.8087 103.025 45.033L102.993 45.1132L107.921 45.0949C108.337 45.0933 108.663 45.1935 108.898 45.3953C109.144 45.5864 109.279 45.8365 109.301 46.1458C109.323 46.4444 109.213 46.7594 108.968 47.091C108.862 47.2301 108.767 47.3584 108.682 47.4761C108.597 47.5831 108.496 47.6954 108.379 47.8132C108.071 48.1984 107.714 48.3543 107.309 48.2812C107.662 48.4719 108.041 48.6358 108.447 48.773C108.853 48.8995 109.285 49.0099 109.744 49.1042C109.989 49.1566 110.166 49.2786 110.273 49.4702C110.391 49.6511 110.424 49.859 110.372 50.0938C110.319 50.3287 110.176 50.5106 109.942 50.6394C109.718 50.7576 109.467 50.7799 109.19 50.7062C108.25 50.4644 107.369 50.1156 106.546 49.66C105.734 49.2044 105.033 48.631 104.444 47.9398C104.178 48.3035 103.86 48.646 103.487 48.9674C103.115 49.2781 102.695 49.5463 102.226 49.772L104.914 49.7621C105.714 49.7591 106.339 49.8315 106.787 49.9791C107.236 50.1268 107.551 50.3816 107.734 50.7436C107.927 51.1056 108.025 51.6119 108.028 52.2625L108.033 53.8305C108.036 54.6199 107.895 55.2017 107.608 55.5761C107.332 55.9505 106.826 56.187 106.091 56.2858C106.529 56.4868 107.02 56.6823 107.565 56.8723C108.12 57.0622 108.601 57.2098 109.006 57.315C109.284 57.3886 109.471 57.5319 109.568 57.7449C109.665 57.9578 109.676 58.1711 109.602 58.3848C109.529 58.6197 109.38 58.7802 109.156 58.8664C108.943 58.9632 108.693 58.9695 108.404 58.8852C108.052 58.7798 107.657 58.648 107.219 58.4896C106.791 58.3312 106.375 58.1567 105.969 57.9662C105.563 57.7864 105.205 57.617 104.895 57.4582C104.67 57.331 104.536 57.1715 104.493 56.9797C104.45 56.7878 104.481 56.5957 104.587 56.4033C104.587 56.3927 104.587 56.3873 104.587 56.3873C104.598 56.3766 104.603 56.3659 104.603 56.3553L101.435 56.367C101.435 56.3883 101.446 56.4096 101.467 56.4309C101.564 56.6225 101.591 56.8144 101.549 57.0066C101.518 57.1987 101.385 57.3539 101.151 57.4721C100.864 57.6331 100.517 57.8051 100.113 57.9879C99.7082 58.1708 99.2928 58.343 98.8667 58.5045C98.4407 58.6768 98.0412 58.8169 97.6683 58.925ZM96.7564 50.3363C96.5221 50.4225 96.2928 50.4234 96.0684 50.3389C95.8441 50.2544 95.6889 50.0949 95.6027 49.8606C95.5379 49.6475 95.5478 49.4448 95.6324 49.2525C95.717 49.0495 95.8818 48.9102 96.1269 48.8346C96.4145 48.7482 96.7555 48.6403 97.1497 48.5108C97.5439 48.3814 97.9327 48.2466 98.3162 48.1065C98.6997 47.9664 99.0192 47.8426 99.2748 47.735C99.4772 47.6489 99.6745 47.6375 99.8667 47.7008C100.059 47.7641 100.193 47.8969 100.268 48.0993C100.344 48.3017 100.339 48.499 100.254 48.6913C100.17 48.873 100.021 49.0122 99.8079 49.109C99.5417 49.2273 99.2222 49.3672 98.8495 49.5285C98.4873 49.6792 98.1199 49.8246 97.7471 49.9646C97.3742 50.1047 97.044 50.2286 96.7564 50.3363ZM98.5991 46.7295C98.4282 46.6661 98.1986 46.5923 97.9103 46.508C97.6326 46.413 97.3496 46.3234 97.0612 46.2392C96.7836 46.1442 96.5593 46.0703 96.3884 46.0176C96.1856 45.9651 96.0411 45.8376 95.955 45.6352C95.8689 45.4329 95.8575 45.2356 95.9208 45.0434C95.9947 44.8298 96.1275 44.6799 96.3191 44.5939C96.5108 44.4972 96.7134 44.4804 96.927 44.5436C97.1085 44.5963 97.3434 44.6701 97.6318 44.765C97.9308 44.8599 98.2245 44.9548 98.5129 45.0498C98.8119 45.1447 99.0468 45.2238 99.2177 45.2872C99.4313 45.361 99.5758 45.4938 99.6512 45.6855C99.7266 45.8773 99.7273 46.0799 99.6535 46.2935C99.5795 46.4858 99.436 46.625 99.223 46.7111C99.0207 46.7972 98.8127 46.8033 98.5991 46.7295ZM99.9357 53.3805L106.128 53.3576L106.125 52.7016L99.9333 52.7246L99.9357 53.3805ZM101.142 55.1041L104.934 55.09C105.339 55.0885 105.627 55.0448 105.798 54.9588C105.968 54.8729 106.074 54.6965 106.116 54.4296L99.9557 54.4525C99.9994 54.719 100.107 54.8946 100.278 54.9793C100.449 55.064 100.737 55.1056 101.142 55.1041ZM99.9613 51.6524L106.089 51.6297C106.046 51.3846 105.938 51.2249 105.768 51.1509C105.597 51.0662 105.314 51.0246 104.919 51.0261L101.127 51.0401C100.732 51.0416 100.45 51.0853 100.28 51.1713C100.109 51.2466 100.003 51.4069 99.9613 51.6524ZM106.796 47.9791C106.699 47.8514 106.651 47.7023 106.65 47.5316C106.649 47.361 106.697 47.2221 106.793 47.1151C106.846 47.0616 106.888 47.0134 106.92 46.9706C106.962 46.9171 107.01 46.8583 107.063 46.7941C107.148 46.6764 107.169 46.5804 107.126 46.5058C107.094 46.4313 107.003 46.3943 106.854 46.3949L105.222 46.4009L105.206 46.465C105.442 46.7734 105.688 47.0552 105.945 47.3102C106.213 47.5546 106.496 47.7775 106.796 47.9791ZM120.532 58.8242C120.265 58.8252 120.046 58.7567 119.875 58.6187C119.704 58.4806 119.602 58.273 119.569 57.9958C119.547 57.7612 119.61 57.5477 119.759 57.3551C119.918 57.1625 120.131 57.0551 120.397 57.0327C120.632 57.0105 120.787 56.9673 120.861 56.903C120.935 56.8281 120.972 56.6679 120.971 56.4226L120.96 53.3346C120.32 53.3157 119.813 53.2322 119.439 53.0843C119.065 52.9256 118.797 52.676 118.636 52.3352C118.475 51.9838 118.393 51.5148 118.391 50.9281L118.387 49.8081C118.384 48.9975 118.531 48.4103 118.828 48.0465C119.136 47.6827 119.674 47.4673 120.442 47.4005C120.494 47.2083 120.552 47.0001 120.615 46.7758C120.679 46.5409 120.731 46.3381 120.773 46.1673L119.285 46.1728C118.645 46.1751 118.203 46.2835 117.958 46.4977C117.724 46.7012 117.609 47.1123 117.611 47.731L117.619 49.987C117.624 51.2243 117.575 52.3178 117.471 53.2675C117.368 54.2173 117.195 55.0766 116.953 55.8455C116.721 56.6144 116.404 57.3462 116.001 58.041C115.874 58.2655 115.682 58.4049 115.427 58.4592C115.182 58.5241 114.952 58.5036 114.738 58.3977C114.525 58.2812 114.385 58.1004 114.32 57.8553C114.266 57.6101 114.297 57.386 114.414 57.1829C114.785 56.5735 115.076 55.9378 115.287 55.2757C115.498 54.6029 115.65 53.8396 115.742 52.986C115.835 52.1323 115.88 51.1348 115.875 49.9934L115.867 47.7375C115.864 46.9695 115.968 46.3557 116.18 45.8963C116.392 45.4262 116.748 45.0888 117.248 44.8843C117.749 44.6691 118.426 44.56 119.279 44.5568L125.503 44.5337C125.77 44.5327 125.978 44.6066 126.128 44.7554C126.278 44.9042 126.353 45.0959 126.354 45.3306C126.355 45.5652 126.281 45.7628 126.132 45.9234C125.984 46.0733 125.776 46.1487 125.509 46.1497L122.709 46.1601C122.656 46.3416 122.593 46.5392 122.519 46.7528C122.456 46.9664 122.393 47.1693 122.33 47.3615L122.506 47.3608C123.199 47.3583 123.749 47.4309 124.154 47.5787C124.56 47.7266 124.849 47.9762 125.021 48.3275C125.204 48.6789 125.296 49.1638 125.299 49.7825L125.303 50.9025C125.306 51.7985 125.116 52.4232 124.734 52.7766C124.351 53.1194 123.68 53.3032 122.72 53.3281L122.732 56.7521C122.735 57.4667 122.556 57.9901 122.194 58.3221C121.833 58.6541 121.279 58.8215 120.532 58.8242ZM112.13 58.1994C111.884 58.115 111.718 57.9556 111.632 57.7212C111.546 57.4869 111.556 57.2575 111.661 57.0331C111.841 56.6698 112.026 56.2478 112.217 55.767C112.418 55.2863 112.608 54.8003 112.787 54.3089C112.977 53.8069 113.136 53.353 113.262 52.9471C113.336 52.7015 113.469 52.5144 113.66 52.3857C113.852 52.257 114.081 52.2348 114.348 52.3191C114.871 52.4772 115.059 52.8392 114.912 53.405C114.807 53.8321 114.659 54.3073 114.469 54.8307C114.29 55.3434 114.1 55.8507 113.899 56.3528C113.698 56.8442 113.518 57.2769 113.36 57.6508C113.254 57.8859 113.089 58.0625 112.866 58.1807C112.653 58.2988 112.407 58.305 112.13 58.1994ZM126.336 57.5867C126.155 57.7581 125.931 57.8389 125.664 57.8292C125.408 57.8302 125.195 57.735 125.023 57.5436C124.702 57.1821 124.364 56.7567 124.011 56.2673C123.667 55.7673 123.383 55.3043 123.157 54.8785C123.05 54.6869 123.023 54.4896 123.075 54.2868C123.139 54.0839 123.271 53.9287 123.474 53.8213C123.676 53.7032 123.878 53.6758 124.081 53.7391C124.284 53.7916 124.455 53.919 124.595 54.1212C124.723 54.3233 124.89 54.5574 125.093 54.8233C125.297 55.0892 125.511 55.3604 125.736 55.6369C125.961 55.9028 126.17 56.142 126.363 56.3546C126.524 56.5247 126.61 56.727 126.621 56.9617C126.633 57.1963 126.538 57.4046 126.336 57.5867ZM117.184 57.7006C117.013 57.5519 116.921 57.3603 116.91 57.1257C116.909 56.891 116.993 56.6933 117.164 56.5327C117.387 56.3292 117.61 56.0937 117.833 55.8262C118.067 55.548 118.29 55.2645 118.502 54.9757C118.714 54.687 118.889 54.4303 119.027 54.2058C119.154 53.992 119.324 53.8634 119.538 53.8199C119.761 53.7764 119.975 53.8183 120.178 53.9455C120.36 54.0622 120.472 54.2271 120.516 54.4403C120.559 54.6428 120.523 54.8509 120.406 55.0647C120.184 55.4708 119.892 55.9146 119.531 56.3959C119.17 56.8773 118.82 57.2892 118.48 57.6318C118.31 57.8138 118.097 57.9159 117.841 57.9382C117.596 57.9711 117.377 57.8919 117.184 57.7006ZM113.494 50.8183C113.302 50.6697 113.05 50.4946 112.74 50.2931C112.441 50.0915 112.184 49.9325 111.971 49.8159C111.768 49.6993 111.639 49.5238 111.585 49.2893C111.53 49.0442 111.562 48.8201 111.678 48.617C111.805 48.4032 111.992 48.2692 112.237 48.2149C112.492 48.1606 112.727 48.1971 112.941 48.3243C113.069 48.3985 113.23 48.4939 113.422 48.6105C113.625 48.7271 113.823 48.849 114.016 48.9763C114.219 49.0929 114.384 49.199 114.513 49.2945C114.737 49.443 114.871 49.6452 114.915 49.901C114.959 50.1568 114.906 50.3917 114.758 50.6056C114.62 50.8088 114.428 50.9321 114.183 50.9757C113.938 51.0193 113.708 50.9668 113.494 50.8183ZM113.977 47.2325C113.784 47.0838 113.539 46.9087 113.239 46.7072C112.94 46.495 112.683 46.3306 112.469 46.214C112.266 46.0868 112.137 45.9059 112.083 45.6715C112.04 45.437 112.082 45.2181 112.209 45.015C112.336 44.8012 112.522 44.6725 112.767 44.6289C113.013 44.5747 113.242 44.6112 113.456 44.7384C113.595 44.8125 113.76 44.9132 113.953 45.0405C114.145 45.1572 114.338 45.2791 114.53 45.4064C114.733 45.523 114.899 45.629 115.027 45.7246C115.252 45.8837 115.381 46.0912 115.414 46.3471C115.447 46.603 115.389 46.8379 115.24 47.0518C115.102 47.255 114.906 47.373 114.65 47.406C114.404 47.4389 114.18 47.381 113.977 47.2325ZM121.29 51.8774L122.426 51.8732C122.864 51.8716 123.157 51.8225 123.306 51.7259C123.465 51.6187 123.55 51.3837 123.559 51.021L120.135 51.0337C120.158 51.3962 120.244 51.6306 120.394 51.7367C120.554 51.8321 120.853 51.879 121.29 51.8774ZM120.13 49.6577L123.554 49.645C123.542 49.293 123.456 49.0693 123.296 48.9739C123.146 48.8785 122.852 48.8316 122.415 48.8332L121.279 48.8374C120.842 48.839 120.543 48.8881 120.384 48.9847C120.235 49.0813 120.15 49.3056 120.13 49.6577ZM140.467 58.6223C140.083 58.4851 139.65 58.3 139.169 58.0672C138.689 57.8343 138.213 57.5747 137.742 57.2884C137.272 57.0022 136.855 56.7211 136.491 56.4451C136.299 56.2965 136.186 56.1102 136.153 55.8863C136.131 55.6517 136.189 55.4435 136.327 55.2617C136.444 55.1226 136.571 55.0314 136.71 54.9883L133.382 55.0006C133.446 55.0323 133.51 55.0694 133.574 55.1119C133.639 55.1543 133.692 55.2074 133.735 55.2713C133.885 55.4734 133.934 55.6865 133.881 55.9107C133.839 56.1242 133.733 56.3006 133.563 56.4399C133.244 56.6971 132.856 56.9652 132.398 57.2442C131.941 57.5233 131.467 57.781 130.977 58.0175C130.498 58.254 130.056 58.4529 129.651 58.6144C129.342 58.7329 129.065 58.7606 128.82 58.6975C128.574 58.6451 128.392 58.4858 128.274 58.2195C128.166 57.9746 128.16 57.74 128.255 57.5156C128.35 57.2913 128.537 57.1306 128.813 57.0335C129.218 56.8827 129.644 56.7051 130.092 56.5008C130.549 56.2858 130.986 56.0655 131.401 55.8399C131.816 55.6037 132.173 55.3784 132.471 55.164C132.513 55.1318 132.556 55.105 132.598 55.0835C132.651 55.0513 132.699 55.0245 132.742 55.003L128.374 55.0191C128.15 55.02 127.958 54.946 127.797 54.7973C127.647 54.6378 127.572 54.4515 127.571 54.2381C127.57 54.0141 127.644 53.8272 127.793 53.6773C127.952 53.5167 128.144 53.436 128.368 53.4352L128.976 53.4329L128.825 47.2094C128.813 46.7295 128.849 46.3453 128.933 46.057C129.028 45.758 129.203 45.5227 129.458 45.3511C129.714 45.1688 130.081 45.0181 130.561 44.899C130.742 44.845 130.923 44.7963 131.104 44.753C131.296 44.6989 131.482 44.6449 131.663 44.5909C131.866 44.5368 132.058 44.5468 132.239 44.6207C132.421 44.6841 132.544 44.8223 132.609 45.0354C132.685 45.2698 132.675 45.4725 132.579 45.6435C132.495 45.8038 132.346 45.911 132.132 45.9652C131.994 46.0083 131.845 46.0569 131.685 46.1108C131.525 46.1541 131.387 46.1866 131.269 46.2084C130.939 46.2949 130.731 46.397 130.647 46.5147C130.562 46.6216 130.525 46.8405 130.537 47.1711L130.539 47.6671L131.787 47.6624C132 47.6617 132.176 47.7303 132.316 47.8685C132.465 48.0066 132.541 48.1823 132.541 48.3957C132.542 48.5983 132.468 48.7746 132.319 48.9245C132.181 49.0637 132.006 49.1336 131.792 49.1344L130.576 49.1389L130.613 50.5148L131.797 50.5104C132.011 50.5096 132.187 50.5783 132.326 50.7165C132.476 50.8546 132.551 51.0303 132.552 51.2436C132.553 51.4463 132.479 51.6226 132.33 51.7725C132.192 51.9116 132.016 51.9816 131.803 51.9824L130.651 51.9867L130.688 53.4266L133.072 53.4177L133.062 50.6657C133.061 50.4417 133.135 50.2655 133.284 50.1369C133.433 49.9977 133.609 49.9277 133.811 49.927C134.025 49.9262 134.201 49.9949 134.34 50.133C134.49 50.2604 134.565 50.4362 134.566 50.6602L134.576 53.4121L135.456 53.4089L135.444 50.2249C135.443 49.9156 135.4 49.7184 135.314 49.6334C135.239 49.5377 135.031 49.4904 134.69 49.4917C134.082 49.494 133.654 49.3835 133.408 49.1604C133.173 48.9267 133.054 48.4951 133.052 47.8658L133.041 44.9378C133.04 44.6924 133.119 44.4948 133.278 44.3449C133.438 44.195 133.63 44.1196 133.854 44.1188C134.078 44.1179 134.27 44.1919 134.43 44.3406C134.602 44.4893 134.688 44.6863 134.689 44.9317L134.691 45.6357L136.355 45.6295C136.547 45.6288 136.713 45.6975 136.852 45.8357C136.991 45.9631 137.061 46.1229 137.062 46.3149C137.063 46.5069 136.994 46.6725 136.856 46.8117C136.717 46.9508 136.552 47.0208 136.36 47.0215L134.696 47.0277L134.698 47.5077C134.699 47.7957 134.753 47.9821 134.86 48.0671C134.967 48.1413 135.175 48.1779 135.485 48.1767C135.986 48.1749 136.354 48.3015 136.59 48.5567C136.836 48.8011 136.961 49.2273 136.963 49.8353L136.976 53.4033L139.296 53.3947L139.323 51.9705L138.123 51.975C137.92 51.9757 137.744 51.9017 137.594 51.753C137.455 51.6041 137.385 51.4284 137.384 51.2257C137.383 51.0231 137.452 50.8521 137.59 50.713C137.739 50.5631 137.915 50.4878 138.117 50.487L139.349 50.4824L139.36 49.1064L138.112 49.111C137.91 49.1118 137.733 49.0431 137.583 48.905C137.444 48.7562 137.374 48.5804 137.373 48.3777C137.373 48.1644 137.441 47.9882 137.579 47.849C137.728 47.7098 137.904 47.6398 138.107 47.639L139.387 47.6343L139.401 47.1382C139.41 46.7969 139.356 46.5731 139.238 46.4668C139.121 46.3499 138.891 46.2921 138.55 46.2934L137.798 46.2962C137.595 46.2969 137.419 46.2229 137.269 46.0741C137.119 45.9253 137.044 45.7496 137.043 45.547C137.042 45.3336 137.116 45.152 137.265 45.0021C137.414 44.8522 137.589 44.7769 137.792 44.7762L138.656 44.773C139.307 44.7706 139.808 44.8434 140.161 44.9914C140.524 45.1287 140.776 45.3678 140.916 45.7086C141.056 46.0494 141.116 46.5185 141.097 47.1159L140.992 53.3884L141.632 53.386C141.856 53.3852 142.043 53.4645 142.193 53.6239C142.353 53.7727 142.434 53.959 142.435 54.183C142.436 54.3964 142.356 54.5833 142.197 54.7439C142.048 54.8938 141.862 54.9692 141.638 54.97L137.238 54.9863C137.291 54.9968 137.345 55.0179 137.398 55.0497C137.462 55.0815 137.516 55.1133 137.559 55.1451C137.879 55.3679 138.259 55.6012 138.697 55.8449C139.135 56.0779 139.584 56.3003 140.044 56.5119C140.514 56.7128 140.93 56.8766 141.293 57.0033C141.539 57.077 141.705 57.2204 141.791 57.4334C141.888 57.6571 141.894 57.8864 141.81 58.1214C141.704 58.4204 141.518 58.5971 141.252 58.6514C140.996 58.7164 140.734 58.7067 140.467 58.6223ZM152.643 58.4172C151.139 58.4228 149.922 58.3206 148.994 58.1107C148.065 57.9009 147.322 57.5196 146.765 56.967C146.616 57.0742 146.436 57.2082 146.223 57.369C146.01 57.5298 145.808 57.6799 145.617 57.8193C145.425 57.9586 145.281 58.0658 145.186 58.1409C144.973 58.291 144.728 58.3452 144.45 58.3036C144.184 58.2726 143.98 58.14 143.841 57.9058C143.701 57.6824 143.658 57.4478 143.71 57.2023C143.763 56.9461 143.906 56.7536 144.14 56.6247C144.31 56.5388 144.545 56.4099 144.843 56.2381C145.151 56.0663 145.423 55.9106 145.657 55.7711L145.644 52.2671C145.643 52.0111 145.6 51.8353 145.514 51.7396C145.439 51.6439 145.273 51.5965 145.017 51.5974L144.361 51.5999C144.105 51.6008 143.902 51.5216 143.753 51.3621C143.603 51.192 143.527 50.995 143.526 50.771C143.525 50.5363 143.599 50.3387 143.748 50.1781C143.897 50.0176 144.099 49.9368 144.355 49.9359L145.715 49.9308C146.302 49.9287 146.729 50.0604 146.997 50.3261C147.264 50.5811 147.399 51.0019 147.401 51.5886L147.416 55.4606C147.705 55.7795 148.053 56.0395 148.459 56.2407C148.865 56.4312 149.399 56.5679 150.06 56.6508C150.733 56.7336 151.591 56.7731 152.637 56.7692L152.909 56.7682C152.674 56.7478 152.471 56.6578 152.3 56.4985C152.139 56.3391 152.058 56.126 152.057 55.8594L152.055 55.1554L148.487 55.1686C148.263 55.1694 148.081 55.0954 147.942 54.9466C147.813 54.7978 147.749 54.622 147.748 54.4193C147.747 54.2167 147.811 54.0458 147.938 53.9066C148.076 53.7568 148.257 53.6814 148.481 53.6806L152.049 53.6674L152.046 52.8674L151.71 52.8686C150.889 52.8717 150.254 52.7994 149.805 52.6517C149.367 52.504 149.068 52.2331 148.906 51.839C148.745 51.445 148.663 50.8746 148.66 50.1279C148.657 49.3813 148.735 48.8103 148.894 48.415C149.052 48.0198 149.35 47.752 149.787 47.6117C150.234 47.4607 150.869 47.3837 151.69 47.3807L152.026 47.3794L152.023 46.6274L148.567 46.6402C148.343 46.6411 148.167 46.5724 148.038 46.4342C147.91 46.2853 147.845 46.1096 147.844 45.9069C147.844 45.7043 147.907 45.5333 148.034 45.3942C148.162 45.2551 148.338 45.1851 148.562 45.1843L152.018 45.1714L152.016 44.7234C152.015 44.4461 152.1 44.2271 152.27 44.0665C152.45 43.8952 152.663 43.809 152.909 43.8081C153.165 43.8072 153.378 43.8917 153.55 44.0618C153.731 44.2211 153.823 44.4394 153.824 44.7167L153.826 45.1647L157.458 45.1513C157.682 45.1505 157.858 45.2191 157.986 45.3573C158.115 45.4955 158.18 45.6659 158.18 45.8686C158.181 46.0713 158.118 46.2475 157.99 46.3973C157.863 46.5365 157.687 46.6064 157.463 46.6073L153.831 46.6207L153.834 47.3727L154.202 47.3714C155.034 47.3683 155.669 47.4406 156.107 47.5883C156.555 47.7253 156.86 47.9908 157.022 48.3849C157.194 48.779 157.281 49.3493 157.284 50.096C157.287 50.8426 157.209 51.4136 157.05 51.8088C156.892 52.2041 156.589 52.4772 156.141 52.6282C155.705 52.7792 155.07 52.8562 154.238 52.8593L153.854 52.8607L153.857 53.6607L157.665 53.6466C157.9 53.6457 158.081 53.7197 158.21 53.8686C158.338 54.0067 158.403 54.1772 158.404 54.3798C158.405 54.5825 158.341 54.7587 158.214 54.9085C158.086 55.0584 157.905 55.1337 157.671 55.1346L153.863 55.1487L153.865 55.8527C153.866 56.1193 153.787 56.333 153.628 56.4936C153.468 56.6541 153.271 56.7455 153.037 56.7677C153.965 56.7536 154.775 56.7346 155.468 56.7107C156.172 56.6868 156.796 56.6525 157.34 56.6078C157.649 56.5853 157.906 56.6537 158.109 56.8129C158.323 56.9615 158.43 57.1744 158.431 57.4518C158.432 57.7291 158.348 57.9534 158.178 58.1247C158.008 58.296 157.747 58.3823 157.395 58.3836C157.043 58.3849 156.648 58.3864 156.211 58.388C155.784 58.4002 155.347 58.4072 154.899 58.4089C154.461 58.4105 154.045 58.412 153.651 58.4135C153.256 58.4149 152.92 58.4162 152.643 58.4172ZM147.323 47.5889C147.131 47.7602 146.908 47.8411 146.651 47.8314C146.406 47.8216 146.203 47.721 146.042 47.5296C145.914 47.3808 145.742 47.2054 145.528 47.0035C145.325 46.7909 145.116 46.5784 144.902 46.3658C144.699 46.1532 144.527 45.9832 144.388 45.8557C144.217 45.707 144.136 45.5207 144.146 45.2966C144.156 45.0619 144.24 44.8643 144.4 44.7037C144.549 44.5431 144.74 44.4464 144.975 44.4135C145.22 44.3806 145.439 44.4438 145.632 44.6031C145.792 44.7412 145.979 44.9165 146.193 45.129C146.418 45.3415 146.632 45.5487 146.836 45.7507C147.05 45.9525 147.227 46.1279 147.366 46.2767C147.548 46.468 147.634 46.6917 147.624 46.9477C147.615 47.2038 147.514 47.4175 147.323 47.5889ZM153.849 51.5487L154.185 51.5475C154.655 51.5457 154.98 51.5018 155.161 51.4158C155.352 51.3191 155.469 51.0894 155.51 50.7265L153.846 50.7327L153.849 51.5487ZM153.842 49.4687L155.506 49.4625C155.462 49.1107 155.343 48.8925 155.151 48.8079C154.97 48.7232 154.644 48.6817 154.175 48.6835L153.839 48.6847L153.842 49.4687ZM151.753 51.5565L152.041 51.5554L152.038 50.7394L150.438 50.7453C150.482 51.1078 150.595 51.3368 150.777 51.4321C150.959 51.5167 151.284 51.5582 151.753 51.5565ZM150.434 49.4813L152.034 49.4754L152.031 48.6914L151.743 48.6925C151.284 48.6942 150.959 48.7381 150.767 48.8241C150.586 48.9101 150.475 49.1292 150.434 49.4813ZM163.124 58.6984C162.889 58.6992 162.686 58.6253 162.515 58.4766C162.355 58.3279 162.274 58.1255 162.273 57.8695L162.251 51.9976C161.921 52.0415 161.601 52.0853 161.292 52.1291C160.982 52.1623 160.705 52.19 160.46 52.2122C160.204 52.2452 159.985 52.198 159.803 52.0706C159.632 51.9326 159.535 51.7356 159.513 51.4797C159.491 51.2345 159.554 51.0369 159.703 50.887C159.852 50.7264 160.054 50.6404 160.31 50.6287C160.363 50.6285 160.422 50.6283 160.486 50.6281C160.561 50.6172 160.63 50.6116 160.694 50.6113C160.874 50.3973 161.066 50.1513 161.267 49.8732C161.479 49.5951 161.702 49.2956 161.936 48.9747C161.754 48.8367 161.54 48.6828 161.294 48.5131C161.048 48.3327 160.807 48.1629 160.572 48.0038C160.348 47.8339 160.166 47.7066 160.027 47.6218C159.845 47.4944 159.732 47.3242 159.689 47.111C159.645 46.8979 159.682 46.7004 159.799 46.5186C159.915 46.3262 160.086 46.2082 160.309 46.1647C160.533 46.1106 160.741 46.1471 160.934 46.2744L161.062 46.3539C161.168 46.1722 161.29 45.9531 161.428 45.6966C161.576 45.4294 161.719 45.1728 161.857 44.927C161.995 44.6811 162.095 44.4888 162.159 44.3499C162.254 44.1468 162.403 44.0129 162.605 43.9482C162.808 43.8728 163.01 43.8827 163.213 43.9779C163.427 44.0625 163.561 44.206 163.615 44.4085C163.669 44.6109 163.648 44.8083 163.553 45.0007C163.447 45.1931 163.315 45.4229 163.156 45.6902C162.997 45.9574 162.832 46.2247 162.663 46.492C162.504 46.7593 162.36 46.9891 162.233 47.1816C162.351 47.2665 162.463 47.3514 162.57 47.4363C162.688 47.5106 162.789 47.5795 162.875 47.6432C163.108 47.301 163.32 46.9802 163.511 46.6809C163.713 46.3708 163.877 46.1142 164.004 45.911C164.121 45.7079 164.291 45.574 164.515 45.5091C164.739 45.4443 164.947 45.4702 165.139 45.5868C165.342 45.7141 165.46 45.8896 165.493 46.1135C165.537 46.3373 165.5 46.5401 165.384 46.7219C165.171 47.0427 164.911 47.417 164.604 47.8448C164.296 48.2726 163.972 48.7165 163.633 49.1764C163.304 49.6256 162.98 50.0535 162.661 50.46C162.971 50.4376 163.269 50.4098 163.557 50.3767C163.856 50.3436 164.133 50.3159 164.389 50.2936L164.195 49.8783C164.109 49.6973 164.103 49.516 164.177 49.3344C164.251 49.1528 164.373 49.0243 164.544 48.949C164.735 48.863 164.927 48.857 165.12 48.9309C165.312 48.9942 165.456 49.1163 165.553 49.2973C165.639 49.4677 165.747 49.6913 165.876 49.9681C166.015 50.2343 166.15 50.5058 166.279 50.7826C166.408 51.0595 166.51 51.2884 166.585 51.4695C166.671 51.6718 166.672 51.8638 166.587 52.0455C166.513 52.2271 166.37 52.361 166.157 52.4471C165.954 52.5225 165.752 52.5233 165.549 52.4493C165.356 52.3754 165.228 52.2425 165.163 52.0508C165.142 51.9868 165.115 51.9176 165.082 51.8431C165.05 51.7579 165.018 51.678 164.986 51.6034C164.836 51.6253 164.671 51.6526 164.49 51.6853C164.309 51.7073 164.122 51.7346 163.93 51.7673L163.953 57.8633C163.954 58.1193 163.869 58.3223 163.699 58.4722C163.54 58.6222 163.348 58.6975 163.124 58.6984ZM170.338 58.2076C169.506 58.2107 168.85 58.1225 168.369 57.9429C167.888 57.7634 167.546 57.4553 167.342 57.0187C167.148 56.5821 167.05 55.9905 167.047 55.2438C167.044 54.4865 167.138 53.8941 167.329 53.4668C167.53 53.0287 167.87 52.7181 168.349 52.535C168.828 52.3519 169.484 52.2588 170.316 52.2557C171.159 52.2525 171.815 52.3408 172.285 52.5204C172.766 52.6999 173.103 53.008 173.296 53.4446C173.501 53.8705 173.604 54.4622 173.607 55.2195C173.61 55.9662 173.511 56.5585 173.31 56.9966C173.119 57.4346 172.784 57.7452 172.305 57.9283C171.836 58.1114 171.181 58.2045 170.338 58.2076ZM167.304 51.1628C167.059 51.1637 166.861 51.0898 166.711 50.941C166.561 50.7816 166.486 50.5899 166.485 50.3659C166.484 50.1419 166.558 49.9549 166.707 49.805C166.856 49.6445 167.053 49.5637 167.298 49.5628L169.362 49.5552L169.356 47.8752L166.764 47.8848C166.518 47.8857 166.321 47.8064 166.171 47.647C166.021 47.4876 165.946 47.2958 165.945 47.0718C165.944 46.8478 166.018 46.6556 166.167 46.495C166.315 46.3345 166.512 46.2537 166.758 46.2528L169.35 46.2432L169.345 44.8352C169.344 44.5579 169.433 44.3336 169.614 44.1622C169.795 43.9909 170.013 43.9047 170.269 43.9038C170.525 43.9028 170.744 43.9874 170.926 44.1574C171.108 44.3273 171.2 44.551 171.201 44.8283L171.206 46.2363L173.75 46.2269C174.006 46.226 174.209 46.3052 174.359 46.4646C174.509 46.6241 174.584 46.8158 174.585 47.0398C174.586 47.2638 174.512 47.4561 174.363 47.6166C174.214 47.7772 174.012 47.8579 173.756 47.8589L171.212 47.8683L171.218 49.5483L173.346 49.5404C173.591 49.5395 173.789 49.6188 173.939 49.7782C174.089 49.927 174.164 50.1134 174.165 50.3374C174.166 50.5614 174.092 50.7537 173.943 50.9142C173.794 51.0641 173.597 51.1395 173.352 51.1404L167.304 51.1628ZM170.332 56.5436C170.727 56.5422 171.025 56.5091 171.228 56.4443C171.441 56.3795 171.584 56.251 171.658 56.0587C171.732 55.8664 171.768 55.589 171.767 55.2263C171.766 54.8636 171.727 54.5918 171.652 54.4107C171.577 54.219 171.432 54.0915 171.219 54.0283C171.016 53.9544 170.717 53.9182 170.322 53.9197C169.736 53.9218 169.347 54.0139 169.155 54.196C168.975 54.3673 168.885 54.709 168.887 55.221C168.888 55.5837 168.927 55.8608 169.002 56.0526C169.088 56.2442 169.233 56.377 169.436 56.451C169.649 56.5142 169.948 56.5451 170.332 56.5436ZM160.125 56.8855C159.922 56.8116 159.772 56.6894 159.676 56.5191C159.59 56.3381 159.589 56.1408 159.674 55.9271C159.769 55.7028 159.869 55.4357 159.975 55.126C160.08 54.8163 160.18 54.5013 160.275 54.1809C160.37 53.8499 160.443 53.5616 160.496 53.3161C160.548 53.1025 160.655 52.9422 160.814 52.8349C160.984 52.7169 161.171 52.6789 161.374 52.7208C161.566 52.7628 161.721 52.8635 161.839 53.0231C161.957 53.1827 161.989 53.3799 161.937 53.6147C161.885 53.8816 161.806 54.1859 161.7 54.5276C161.606 54.8693 161.506 55.2057 161.4 55.5367C161.295 55.8678 161.2 56.1508 161.115 56.3858C161.041 56.5887 160.909 56.7386 160.717 56.8353C160.536 56.932 160.339 56.9487 160.125 56.8855ZM166.091 56.2714C165.878 56.3468 165.675 56.3369 165.483 56.2416C165.29 56.1463 165.162 55.9975 165.097 55.795C165.043 55.6032 164.968 55.3742 164.871 55.1079C164.784 54.8309 164.698 54.5538 164.612 54.2768C164.525 53.9998 164.455 53.7707 164.401 53.5896C164.336 53.3658 164.357 53.1684 164.463 52.9974C164.569 52.8156 164.723 52.7031 164.926 52.6597C165.128 52.6056 165.315 52.6315 165.486 52.7376C165.657 52.8329 165.775 52.9872 165.84 53.2003C165.894 53.3921 165.964 53.6211 166.05 53.8875C166.147 54.1431 166.239 54.3988 166.325 54.6545C166.422 54.8995 166.503 55.1072 166.567 55.2776C166.653 55.4799 166.649 55.6773 166.553 55.8696C166.458 56.062 166.304 56.1959 166.091 56.2714Z" fill="black" fill-opacity="0.85"/>
</g>
<defs>
<radialGradient id="paint0_radial_1716_1871" cx="0" cy="0" r="1" gradientUnits="userSpaceOnUse" gradientTransform="translate(0.558656 46.8353) rotate(65.4889) scale(3.32531 8.21233)">
<stop offset="0.33" stop-opacity="0"/>
<stop offset="0.655" stop-opacity="0.6"/>
<stop offset="1"/>
</radialGradient>
<radialGradient id="paint1_radial_1716_1871" cx="0" cy="0" r="1" gradientUnits="userSpaceOnUse" gradientTransform="translate(355.296 45.8572) rotate(114.511) scale(3.32531 8.21233)">
<stop offset="0.33" stop-opacity="0"/>
<stop offset="0.655" stop-opacity="0.6"/>
<stop offset="1"/>
</radialGradient>
<clipPath id="clip0_1716_1871">
<rect width="200" height="90" fill="white"/>
</clipPath>
</defs>
</svg>
