<svg width="200" height="90" viewBox="0 0 200 90" fill="none" xmlns="http://www.w3.org/2000/svg">
<g clip-path="url(#clip0_2306_6361)">
<rect width="200" height="90" fill="#BDE3FF"/>
<path fill-rule="evenodd" clip-rule="evenodd" d="M-6.18027 85.5257C-5.5206 81.3514 -9.94765 77.2571 -7.65473 73.2393C-4.94813 68.4966 -1.65241 61.9915 7.77154 61.0783C17.9972 60.0873 23.5998 68.8258 33.9785 69.2048C45.8176 69.6371 56.5881 60.196 66.8872 63.2371C76.2425 65.9996 70.121 74.0119 68.9752 79.5387C68.1676 83.4341 61.5364 86.4306 61.2669 90.3457C60.8502 96.3973 75.7689 103.853 67.0229 107.895C58.3557 111.9 45.7383 103.802 34.2527 102.83C27.3162 102.243 20.5655 103.925 13.6182 103.373C4.65786 102.66 -7.2514 103.227 -11.7526 99.1698C-16.3208 95.0519 -6.92748 90.2539 -6.18027 85.5257Z" fill="#005EA5"/>
<path fill-rule="evenodd" clip-rule="evenodd" d="M28.4743 10.5302C32.6486 10.8717 36.7429 8.58004 40.7607 9.76696C45.5034 11.168 52.0085 12.874 52.9217 17.7523C53.9127 23.0456 45.1742 25.9458 44.7952 31.3183C44.3629 37.4467 53.804 43.0221 50.7629 48.3534C48.0004 53.1961 39.9881 50.0274 34.4613 49.4342C30.5659 49.0162 27.5694 45.5836 23.6543 45.444C17.6027 45.2284 10.1469 52.9509 6.10508 48.4236C2.09968 43.9371 10.1975 37.4057 11.1701 31.4602C11.7575 27.8695 10.0747 24.3751 10.6274 20.7788C11.3402 16.1405 10.7727 9.97575 14.8302 7.64571C18.9481 5.281 23.7461 10.1434 28.4743 10.5302Z" fill="#2382C9"/>
<path fill-rule="evenodd" clip-rule="evenodd" d="M173.474 4.53021C177.649 4.87169 181.743 2.58004 185.761 3.76696C190.503 5.16803 197.008 6.87405 197.922 11.7523C198.913 17.0456 190.174 19.9458 189.795 25.3183C189.363 31.4467 198.804 37.0221 195.763 42.3534C193 47.1961 184.988 44.0274 179.461 43.4342C175.566 43.0162 172.569 39.5836 168.654 39.444C162.603 39.2284 155.147 46.9509 151.105 42.4236C147.1 37.9371 155.198 31.4057 156.17 25.4602C156.757 21.8695 155.075 18.3751 155.627 14.7788C156.34 10.1405 155.773 3.97575 159.83 1.64571C163.948 -0.719004 168.746 4.14342 173.474 4.53021Z" fill="#69BAF5"/>
<path fill-rule="evenodd" clip-rule="evenodd" d="M117.063 7.20494C131.49 7.9797 144.155 11.9054 154.996 17.5775C166.733 23.7188 176.896 30.8598 179.688 39.9711C183.097 51.0949 184.354 63.7453 171.749 72.2549C158.691 81.0707 136.857 81.4742 117.063 82.2497C95.2362 83.1048 71.8992 84.7511 54.6033 76.8446C35.6156 68.1646 20.8565 53.9771 24.5773 39.9711C28.0889 26.7526 52.1053 19.9805 71.5388 13.0955C85.3864 8.18958 100.98 6.34119 117.063 7.20494Z" fill="#C9F4FF"/>
<path d="M177.967 51.2804L196.726 84.9582L159.338 85.0303L177.967 51.2804Z" fill="#228CDA"/>
<path d="M173.373 78.4648H182.74" stroke="black" stroke-width="2" stroke-linecap="round"/>
<ellipse cx="171.472" cy="68.8528" rx="4.64254" ry="4.79533" transform="rotate(-0.110477 171.472 68.8528)" stroke="#FA8F21" stroke-width="2"/>
<ellipse cx="184.669" cy="68.8118" rx="4.64254" ry="4.79533" transform="rotate(-0.110477 184.669 68.8118)" stroke="#FA8F21" stroke-width="2"/>
<path d="M175.55 68.4723C175.55 68.4723 176.816 68.054 177.654 68.0337C178.594 68.011 180.025 68.4637 180.025 68.4637" stroke="#FA8F21" stroke-width="2"/>
<ellipse cx="171.471" cy="68.8518" rx="1.89842" ry="1.9609" transform="rotate(-0.110477 171.471 68.8518)" fill="black"/>
<ellipse cx="184.67" cy="68.8264" rx="1.89842" ry="1.9609" transform="rotate(-0.110477 184.67 68.8264)" fill="black"/>
<path d="M79.459 33.8109C79.505 33.6307 79.4413 33.5409 79.268 33.5416L78.048 33.5461L77.6808 34.3075C78.3423 34.7117 78.7934 35 79.0341 35.1725C79.2389 34.6717 79.3805 34.2178 79.459 33.8109ZM76.4699 31.3619C76.1966 31.363 76.0592 31.1801 76.0579 30.8135C76.0565 30.4401 76.1925 30.253 76.4658 30.2519L80.5858 30.2367C80.8591 30.2357 80.9965 30.4218 80.9978 30.7952C80.9992 31.1618 80.8632 31.3457 80.5899 31.3467L78.8199 31.3532L78.474 32.4545L79.6839 32.42C79.9572 32.419 80.2173 32.4581 80.4643 32.5371C80.7179 32.6162 80.8186 32.8092 80.7664 33.116C80.578 34.4234 80.1691 35.6249 79.5398 36.7206C78.9172 37.8096 78.2466 38.5554 77.5281 38.9581C77.3086 39.1056 77.0483 39.0332 76.7473 38.741C76.4529 38.4554 76.4221 38.2455 76.6549 38.1113C77.327 37.7621 77.9446 37.1298 78.5079 36.2144C78.2003 35.9489 77.7357 35.6139 77.1142 35.2096C76.9219 35.4836 76.8124 35.624 76.7857 35.6308C76.6064 35.8181 76.373 35.7857 76.0854 35.5334C75.8044 35.2744 75.7503 35.0546 75.9229 34.874C76.1953 34.6263 76.4936 34.1652 76.8178 33.4907C77.1486 32.8161 77.406 32.1051 77.5899 31.3578L76.4699 31.3619ZM81.8482 30.902C82.2416 30.9005 82.4387 31.0365 82.4398 31.3098L82.4571 35.9798C82.4581 36.2531 82.2619 36.3905 81.8686 36.392C81.4819 36.3934 81.2881 36.2574 81.2871 35.9841L81.2698 31.3141C81.2688 31.0408 81.4616 30.9034 81.8482 30.902ZM83.5963 30.3855C83.5953 30.1122 83.7915 29.9748 84.1848 29.9733C84.5781 29.9719 84.7753 30.1078 84.7763 30.3811L84.8035 37.7111C84.8048 38.0511 84.7657 38.3079 84.6864 38.4815C84.607 38.6618 84.4675 38.7957 84.2678 38.8831C83.9351 39.051 83.4787 39.126 82.8987 39.1082C82.5254 39.1162 82.2713 38.9205 82.1365 38.521C82.0084 38.1281 82.0643 37.9346 82.3043 37.9404C82.4644 37.9464 82.8144 37.9485 83.3544 37.9465C83.5343 37.9391 83.624 37.8588 83.6235 37.7055L83.5963 30.3855ZM93.5134 34.9688C93.6994 34.7948 93.9562 34.8305 94.2838 35.0759C94.618 35.3147 94.692 35.5011 94.5059 35.6351C94.2466 35.8361 93.8443 36.1009 93.2988 36.4296C93.0993 36.5503 93.0764 36.6771 93.2302 36.8099C93.7251 37.2347 94.2662 37.526 94.8535 37.6838C95.1271 37.7628 95.1346 37.9761 94.8758 38.3238C94.6172 38.6781 94.3509 38.8024 94.0772 38.6967C93.343 38.4594 92.6446 37.992 91.982 37.2945C91.3261 36.5902 90.8028 35.7055 90.4122 34.6403C90.0469 35.0216 89.6183 35.3899 89.1262 35.7451L89.1316 37.195C89.1323 37.3684 89.2158 37.4347 89.3824 37.3941L90.9008 36.9585C91.1605 36.8909 91.3244 37.0336 91.3923 37.3867C91.4603 37.7398 91.2979 37.977 90.905 38.0985C89.8328 38.4158 89.097 38.6385 88.6974 38.7667L88.2681 38.9483C88.0151 39.0492 87.8047 38.9233 87.6367 38.5706C87.4754 38.2245 87.5078 37.9611 87.7338 37.7802C87.8405 37.7932 87.8932 37.6196 87.8918 37.2596L87.8891 36.5197C87.4034 36.7881 87.064 36.9527 86.8709 37.0134C86.6379 37.101 86.3908 36.9852 86.1296 36.6662C85.8751 36.3471 85.881 36.1438 86.1474 36.0561C87.073 35.7793 88.0011 35.2726 88.9318 34.5358L86.5018 34.5448C86.2284 34.5458 86.0912 34.3796 86.0899 34.0463C86.0887 33.7063 86.2247 33.5358 86.498 33.5348L89.878 33.5223L89.8759 32.9623L87.4159 32.9714C87.1426 32.9724 87.0054 32.8162 87.0042 32.5029C87.003 32.1829 87.1391 32.0224 87.4124 32.0214L89.8724 32.0123L89.8705 31.4923L86.9205 31.5032C86.6472 31.5042 86.5099 31.3381 86.5087 31.0047C86.5074 30.6647 86.6434 30.4942 86.9168 30.4932L89.8667 30.4823L89.8656 30.1723C89.8646 29.8989 90.0641 29.7615 90.4641 29.7601C90.8641 29.7586 91.0646 29.8945 91.0656 30.1678L91.0667 30.4778L94.1367 30.4665C94.41 30.4654 94.5473 30.6349 94.5486 30.9749C94.5498 31.3083 94.4138 31.4754 94.1405 31.4764L91.0705 31.4878L91.0724 32.0078L93.7524 31.9979C94.0257 31.9969 94.163 32.1564 94.1642 32.4764C94.1653 32.7897 94.0292 32.9469 93.7559 32.9479L91.0759 32.9578L91.078 33.5178L94.488 33.5052C94.7613 33.5042 94.8986 33.6736 94.8999 34.0136C94.9011 34.347 94.7651 34.5142 94.4917 34.5152L91.5417 34.5261C91.7168 34.9855 91.9751 35.4378 92.3168 35.8832C92.8953 35.4878 93.2942 35.1829 93.5134 34.9688ZM100.813 34.7517L100.808 33.3917C100.807 33.2184 100.72 33.1321 100.547 33.1327L99.7766 33.1356C99.4566 33.1368 99.2961 32.9773 99.2949 32.6573L99.2859 30.2274C99.2848 29.954 99.451 29.8167 99.7843 29.8155C100.124 29.8143 100.295 29.9503 100.296 30.2236L100.297 30.4936L101.457 30.4893C101.73 30.4883 101.867 30.6511 101.869 30.9778C101.87 31.3045 101.734 31.4683 101.46 31.4693L100.3 31.4736L100.302 31.9436C100.303 32.1169 100.39 32.2033 100.563 32.2026L101.313 32.2099C101.633 32.2087 101.794 32.3681 101.795 32.6881L101.803 34.7481C101.803 34.9547 101.777 35.1082 101.724 35.2084C101.678 35.3085 101.578 35.3956 101.425 35.4695C101.272 35.5434 101.089 35.5774 100.876 35.5715C100.502 35.5796 100.272 35.4637 100.184 35.2241C100.097 34.9777 100.19 34.854 100.463 34.853L100.643 34.8524C100.756 34.8586 100.813 34.8251 100.813 34.7517ZM99.349 33.7672C99.4147 33.5069 99.5943 33.4029 99.8878 33.4552C100.181 33.5007 100.302 33.7136 100.25 34.0938C100.225 34.4739 100.136 34.7642 99.9834 34.9648C99.8841 35.1585 99.7076 35.1792 99.4537 35.0268C99.1997 34.8677 99.1056 34.6581 99.1713 34.3978L99.349 33.7672ZM103.116 35.6632L103.163 34.853L102.563 34.8552C102.29 34.8563 102.152 34.6934 102.151 34.3668C102.15 34.0401 102.286 33.8763 102.559 33.8753L103.199 33.8729L103.196 33.0129L102.626 33.015C102.353 33.016 102.216 32.8532 102.214 32.5265C102.213 32.1999 102.349 32.036 102.623 32.035L103.253 32.0327L103.25 31.4327C103.25 31.2593 103.163 31.173 102.989 31.1736L102.519 31.1754C102.246 31.1764 102.109 31.0069 102.108 30.6669C102.106 30.3269 102.242 30.1564 102.516 30.1554L103.866 30.1504C104.186 30.1492 104.343 30.3286 104.338 30.6886C104.351 32.3753 104.317 34.0321 104.236 35.6591L104.696 35.6573C104.969 35.6563 105.107 35.8392 105.108 36.2058C105.109 36.5725 104.973 36.7563 104.7 36.7573L102.29 36.7663C103.359 37.2623 104.113 37.6495 104.554 37.9279C104.748 38.0405 104.712 38.2473 104.447 38.5483C104.188 38.8559 103.952 38.9401 103.738 38.8009C103.17 38.4097 102.578 38.0719 101.964 37.7875C101.536 37.5691 101.442 37.3028 101.681 36.9885L101.85 36.7679L98.8801 36.7789L99.2613 37.0875C99.5689 37.3397 99.5464 37.5798 99.194 37.8078C98.6753 38.163 97.9633 38.5223 97.0579 38.8857C96.7851 39.0067 96.5347 38.9176 96.3069 38.6185C96.0859 38.3259 96.1184 38.1225 96.4047 38.0081C97.2102 37.7051 97.9654 37.2956 98.6701 36.7797L96.3502 36.7883C96.0768 36.7893 95.9395 36.6065 95.9381 36.2398C95.9368 35.8732 96.0728 35.6893 96.3461 35.6883L96.8361 35.6865L96.6586 30.9771C96.6508 30.6771 96.7834 30.4733 97.0564 30.3656L98.1747 29.9215C98.4277 29.8272 98.6381 29.9431 98.806 30.2691C98.9805 30.5885 98.9379 30.7853 98.6782 30.8596L97.969 31.0723C97.8092 31.1195 97.7296 31.2265 97.7302 31.3931L97.7626 32.043L98.4926 32.0403C98.7659 32.0393 98.9032 32.2021 98.9044 32.5288C98.9056 32.8488 98.7695 33.0093 98.4962 33.0103L97.7962 33.0129L97.8294 33.8728L98.5294 33.8702C98.8027 33.8692 98.94 34.032 98.9412 34.3587C98.9424 34.6787 98.8063 34.8392 98.533 34.8402L97.863 34.8427L97.8961 35.6826L103.116 35.6632ZM108.396 35.5536L108.397 35.8436C108.397 36.017 108.484 36.1033 108.658 36.1027L112.388 36.0888C112.561 36.0882 112.647 36.0012 112.647 35.8279L112.646 35.5379L108.396 35.5536ZM108.39 34.1436L108.392 34.6936L112.642 34.6779L112.64 34.1279L108.39 34.1436ZM108.645 32.7427C108.472 32.7433 108.386 32.8303 108.386 33.0037L108.387 33.2937L112.637 33.2779L112.636 32.9879C112.636 32.8146 112.549 32.7282 112.375 32.7289L108.645 32.7427ZM113.959 36.513C113.96 36.833 113.801 36.9936 113.481 36.9948L112.031 37.0002C113.219 37.4091 114.127 37.7657 114.755 38.0701C114.975 38.1693 114.889 38.3496 114.497 38.611C114.105 38.8792 113.802 38.9536 113.588 38.8344C113 38.4966 112.366 38.2123 111.685 37.9815C111.231 37.8098 111.153 37.5934 111.452 37.3323L111.821 37.0009L109.161 37.0108L109.562 37.3293C109.877 37.5748 109.854 37.7949 109.495 37.9896C108.943 38.3116 108.174 38.6111 107.188 38.8881C106.902 38.9825 106.621 38.8769 106.347 38.5713C106.072 38.2656 106.075 38.0756 106.355 38.0012C107.161 37.7982 107.976 37.4685 108.801 37.0121L107.641 37.0164C107.321 37.0176 107.16 36.8582 107.159 36.5382L107.144 32.3183C107.142 31.9983 107.302 31.8377 107.622 31.8365L109.682 31.8288L109.79 31.2284L106.69 31.2399C106.416 31.2409 106.279 31.0614 106.278 30.7015C106.276 30.3415 106.412 30.1609 106.686 30.1599L114.226 30.132C114.499 30.131 114.636 30.3105 114.638 30.6705C114.639 31.0305 114.503 31.211 114.23 31.212L111.17 31.2233L110.972 31.8241L113.462 31.8148C113.782 31.8136 113.942 31.9731 113.944 32.293L113.959 36.513ZM123.284 37.8285C123.458 37.8278 123.544 37.7408 123.543 37.5675L123.529 33.7875C123.529 33.6142 123.442 33.5279 123.268 33.5285L122.378 33.5318L122.394 37.8318L123.284 37.8285ZM117.658 33.5493C117.485 33.5499 117.399 33.6369 117.399 33.8103L117.413 37.5902C117.414 37.7636 117.501 37.8499 117.674 37.8493L118.514 37.8461L118.498 33.5462L117.658 33.5493ZM121.251 34.266L121.248 33.536L119.618 33.542L119.621 34.272L121.251 34.266ZM119.631 37.052L119.634 37.842L121.264 37.836L121.261 37.046L119.631 37.052ZM121.258 36.056L121.255 35.256L119.625 35.262L119.628 36.062L121.258 36.056ZM125.288 30.801C125.29 31.1943 125.154 31.3915 124.88 31.3925L121.06 31.4067L120.774 32.3677L124.324 32.3546C124.644 32.3534 124.805 32.5128 124.806 32.8328L124.827 38.4928C124.828 38.8061 124.668 38.9633 124.348 38.9645L116.678 38.993C116.358 38.9941 116.198 38.8347 116.197 38.5147L116.176 32.8548C116.175 32.5414 116.334 32.3842 116.654 32.383L119.444 32.3727L119.61 31.412L116.15 31.4249C115.877 31.4259 115.74 31.2297 115.738 30.8364C115.737 30.4364 115.873 30.2359 116.146 30.2349L124.876 30.2025C125.149 30.2015 125.287 30.401 125.288 30.801Z" fill="#2382C9"/>
<path d="M74.8329 51.6682C74.9065 51.3799 74.8046 51.2363 74.5273 51.2374L72.5753 51.2446L71.9878 52.4628C73.0462 53.1095 73.7679 53.5708 74.153 53.8468C74.4807 53.0455 74.7073 52.3194 74.8329 51.6682ZM70.0503 47.7499C69.613 47.7515 69.3933 47.459 69.3911 46.8724C69.3889 46.275 69.6064 45.9756 70.0438 45.9739L76.6357 45.9495C77.073 45.9479 77.2928 46.2457 77.295 46.8431C77.2972 47.4297 77.0796 47.7239 76.6423 47.7255L73.8103 47.736L73.2568 49.498L75.1927 49.4429C75.63 49.4413 76.0462 49.5037 76.4414 49.6302C76.8472 49.7567 77.0083 50.0655 76.9248 50.5565C76.6232 52.6483 75.969 54.5707 74.9622 56.3238C73.9659 58.0661 72.893 59.2595 71.7434 59.9037C71.3923 60.1397 70.9758 60.0239 70.4941 59.5564C70.0231 59.0994 69.9738 58.7636 70.3464 58.5489C71.4216 57.9902 72.4099 56.9786 73.3111 55.5139C72.8189 55.089 72.0756 54.5531 71.0812 53.9061C70.7735 54.3446 70.5983 54.5693 70.5557 54.5801C70.2688 54.8798 69.8952 54.8279 69.4351 54.4242C68.9855 54.0099 68.8989 53.6582 69.1752 53.3692C69.611 52.9729 70.0883 52.2351 70.607 51.1559C71.1363 50.0766 71.5481 48.939 71.8423 47.7433L70.0503 47.7499ZM78.6557 47.014C79.285 47.0117 79.6005 47.2292 79.6021 47.6665L79.6298 55.1385C79.6314 55.5758 79.3176 55.7956 78.6882 55.798C78.0696 55.8003 77.7594 55.5827 77.7578 55.1454L77.7301 47.6735C77.7285 47.2361 78.037 47.0163 78.6557 47.014ZM81.4526 46.1876C81.451 45.7503 81.7649 45.5305 82.3942 45.5282C83.0235 45.5258 83.339 45.7433 83.3406 46.1806L83.3841 57.9086C83.3861 58.4526 83.3236 58.8635 83.1967 59.1413C83.0697 59.4297 82.8465 59.6439 82.527 59.7838C81.9947 60.0524 81.2645 60.1724 80.3364 60.1439C79.7391 60.1568 79.3326 59.8436 79.1169 59.2044C78.9119 58.5758 79.0014 58.2661 79.3854 58.2754C79.6415 58.2851 80.2015 58.2884 81.0655 58.2852C81.3534 58.2734 81.497 58.1449 81.496 57.8996L81.4526 46.1876ZM97.3199 53.5209C97.6176 53.2424 98.0284 53.2996 98.5526 53.6923C99.0873 54.0743 99.2058 54.3726 98.9079 54.587C98.4931 54.9085 97.8493 55.3323 96.9766 55.8582C96.6573 56.0514 96.6207 56.2542 96.8668 56.4666C97.6587 57.1463 98.5244 57.6124 99.464 57.865C99.9018 57.9913 99.9138 58.3326 99.4998 58.8888C99.0859 59.4557 98.66 59.6546 98.222 59.4856C97.0473 59.1059 95.9298 58.3581 94.8697 57.242C93.8202 56.1152 92.9829 54.6996 92.3579 52.9953C91.7735 53.6054 91.0877 54.1947 90.3005 54.7629L90.3091 57.0829C90.3101 57.3602 90.4438 57.4664 90.7103 57.4014L93.1397 56.7044C93.5553 56.5962 93.8175 56.8246 93.9262 57.3895C94.035 57.9544 93.7751 58.3341 93.1465 58.5284C91.431 59.0361 90.2536 59.3924 89.6144 59.5975L88.9275 59.888C88.5227 60.0495 88.186 59.8481 87.9172 59.2838C87.6592 58.7301 87.7109 58.3085 88.0725 58.0192C88.2433 58.0399 88.3276 57.7622 88.3254 57.1862L88.3211 56.0023C87.544 56.4318 87.0009 56.6952 86.692 56.7923C86.3192 56.9323 85.9238 56.7471 85.5059 56.2367C85.0987 55.7262 85.1081 55.4008 85.5343 55.2606C87.0153 54.8178 88.5003 54.0069 89.9893 52.8281L86.1013 52.8425C85.664 52.8441 85.4443 52.5782 85.4424 52.0449C85.4404 51.5009 85.658 51.2281 86.0953 51.2265L91.5033 51.2064L91.5 50.3104L87.564 50.325C87.1267 50.3266 86.9071 50.0768 86.9052 49.5755C86.9033 49.0635 87.121 48.8067 87.5584 48.805L91.4943 48.7904L91.4913 47.9584L86.7713 47.9759C86.334 47.9776 86.1143 47.7117 86.1123 47.1784C86.1103 46.6344 86.328 46.3616 86.7653 46.36L91.4853 46.3425L91.4834 45.8465C91.4818 45.4091 91.801 45.1893 92.441 45.1869C93.081 45.1845 93.4018 45.402 93.4034 45.8393L93.4053 46.3353L98.3172 46.3171C98.7546 46.3155 98.9742 46.5867 98.9762 47.1307C98.9782 47.664 98.7605 47.9315 98.3232 47.9331L93.4112 47.9513L93.4143 48.7833L97.7023 48.7674C98.1396 48.7658 98.3592 49.021 98.3611 49.533C98.363 50.0343 98.1453 50.2858 97.7079 50.2874L93.42 50.3033L93.4233 51.1993L98.8793 51.1791C99.3166 51.1775 99.5363 51.4487 99.5383 51.9927C99.5402 52.526 99.3226 52.7935 98.8852 52.7951L94.1653 52.8126C94.4453 53.5475 94.8587 54.2713 95.4053 54.984C96.331 54.3512 96.9692 53.8635 97.3199 53.5209ZM111.475 47.9324L111.473 47.2124L110.625 47.2155L110.627 47.9355L111.475 47.9324ZM113.754 49.6839C113.753 49.4066 113.614 49.2685 113.336 49.2695L112.84 49.2713L112.845 50.4713L113.341 50.4695C113.618 50.4685 113.756 50.3293 113.755 50.0519L113.754 49.6839ZM110.632 49.2795L110.637 50.4795L111.485 50.4764L111.48 49.2764L110.632 49.2795ZM108.84 49.2862C108.563 49.2872 108.425 49.4264 108.426 49.7037L108.427 50.0717C108.428 50.349 108.567 50.4872 108.845 50.4861L109.293 50.4845L109.288 49.2845L108.84 49.2862ZM109.283 47.9405L109.281 47.2205L107.233 47.2281C106.795 47.2297 106.576 46.9799 106.574 46.4785C106.572 45.9772 106.784 45.7257 107.211 45.7242L115.019 45.6952C115.456 45.6936 115.676 45.9435 115.678 46.4448C115.68 46.9461 115.462 47.1976 115.025 47.1992L112.833 47.2073L112.835 47.9273L114.627 47.9207C115.139 47.9188 115.396 48.1738 115.398 48.6858L115.407 51.0378C115.409 51.5498 115.154 51.8068 114.642 51.8087L107.666 51.8345C107.154 51.8364 106.897 51.5814 106.895 51.0694L106.886 48.7174C106.884 48.2054 107.139 47.9484 107.651 47.9466L109.283 47.9405ZM114.1 52.3707C114.537 52.3691 114.757 52.6082 114.758 53.0882C114.76 53.5682 114.542 53.8091 114.105 53.8107L108.233 53.8324C107.796 53.8341 107.576 53.5949 107.574 53.1149C107.573 52.6349 107.79 52.3941 108.228 52.3924L114.1 52.3707ZM106.63 53.0384C106.802 53.3044 106.702 53.6568 106.33 54.0955C105.969 54.5235 105.702 54.5405 105.53 54.1465L104.998 52.9484L105.022 59.4124C105.023 59.8497 104.736 60.0694 104.16 60.0716C103.584 60.0737 103.295 59.8561 103.294 59.4188L103.272 53.4028C102.798 55.0259 102.38 56.1101 102.02 56.6555C101.85 56.9441 101.615 56.769 101.314 56.1301C101.023 55.4805 100.979 55.0007 101.18 54.6906C101.403 54.4124 101.71 53.7819 102.101 52.7992C102.492 51.8057 102.798 50.8339 103.018 49.8837L101.914 49.8878C101.477 49.8895 101.257 49.5969 101.255 49.0103C101.253 48.4236 101.471 48.1295 101.908 48.1278L103.252 48.1229L103.243 45.8029C103.242 45.3655 103.529 45.1458 104.105 45.1437C104.681 45.1415 104.97 45.3591 104.971 45.7965L104.98 48.1165L105.876 48.1131C106.313 48.1115 106.533 48.404 106.535 48.9907C106.537 49.5774 106.32 49.8715 105.882 49.8731L104.986 49.8764L104.989 50.5804C105.182 50.8251 105.504 51.2985 105.954 52.0009C106.416 52.6925 106.641 53.0383 106.63 53.0384ZM107.589 57.0028C107.843 56.5326 108.243 56.3764 108.787 56.5344C109.342 56.6817 109.498 56.9851 109.255 57.4447C108.948 58.1285 108.481 58.7436 107.853 59.2899C107.545 59.611 107.151 59.6018 106.669 59.2623C106.199 58.9333 106.134 58.6243 106.474 58.335C107.006 57.949 107.377 57.505 107.589 57.0028ZM115.742 55.1966C115.744 55.6873 115.526 55.9334 115.089 55.935L111.953 55.9467L111.966 59.3866C111.967 59.824 111.686 60.0437 111.12 60.0458C110.555 60.0479 110.271 59.8303 110.27 59.3929L110.257 55.9529L107.281 55.964C106.844 55.9656 106.624 55.7211 106.622 55.2304C106.62 54.7291 106.838 54.4776 107.276 54.476L115.083 54.447C115.521 54.4454 115.74 54.6953 115.742 55.1966ZM113.047 57.5906C112.715 57.1972 112.778 56.8823 113.236 56.6459C113.693 56.4095 114.056 56.4562 114.324 56.7859L115.53 58.2694C115.798 58.5991 115.687 58.9088 115.197 59.1987C114.707 59.4885 114.355 59.4364 114.141 59.0426C113.979 58.6698 113.615 58.1859 113.047 57.5906ZM128.561 47.181L126.737 47.1878C126.365 47.7545 126.073 48.1183 125.861 48.2791C125.553 48.5895 125.163 48.559 124.692 48.1874C124.222 47.8158 124.151 47.4854 124.481 47.1962C125.066 46.7673 125.459 46.2539 125.659 45.6558C125.87 45.1643 126.265 44.9922 126.841 45.1394C127.428 45.2866 127.637 45.5578 127.468 45.9531L127.42 46.0333L131.18 46.0193C131.618 46.0177 131.837 46.2089 131.838 46.5929C131.84 46.9769 131.622 47.1697 131.185 47.1713L129.153 47.1789C129.57 47.5293 129.747 47.694 129.682 47.6729C129.929 47.9706 129.791 48.2378 129.269 48.4744C128.748 48.711 128.342 48.6699 128.053 48.3509C127.657 47.8937 127.751 47.536 128.337 47.2779L128.561 47.181ZM128.89 49.7878C128.644 49.4368 128.739 49.1484 129.175 48.9228C129.622 48.6865 129.98 48.7385 130.248 49.0788L130.826 49.8287C131.094 50.169 130.994 50.468 130.526 50.7258C130.057 50.9835 129.7 50.9368 129.453 50.5858L128.89 49.7878ZM121.393 47.2236L119.889 47.2292C119.39 47.8497 119.018 48.2564 118.773 48.4493C118.454 48.7278 118.081 48.6546 117.652 48.2295C117.235 47.7937 117.207 47.4365 117.568 47.1578C118.228 46.7073 118.696 46.1936 118.971 45.6166C119.236 45.1676 119.646 45.0274 120.201 45.196C120.767 45.3646 120.944 45.6413 120.732 46.0261L120.716 46.0421L123.628 46.0313C124.066 46.0297 124.285 46.2262 124.287 46.6209C124.288 47.0155 124.07 47.2137 123.633 47.2153L122.273 47.2204L122.851 47.7462C123.161 48.0437 123.066 48.3214 122.566 48.5793C122.065 48.8371 121.665 48.8119 121.365 48.5037L121.189 48.3284C120.739 47.882 120.807 47.5138 121.393 47.2236ZM124.968 57.8184C125.491 57.7952 125.753 57.9489 125.754 58.2795C126.392 57.8505 126.897 57.4379 127.269 57.0419C126.859 55.8381 126.571 54.3725 126.405 52.6451L123.797 52.6547L123.799 53.2947L125.079 53.29C125.517 53.2884 125.736 53.4529 125.737 53.7836C125.738 54.1142 125.52 54.2804 125.083 54.282L123.803 54.2867L123.805 54.8467L124.989 54.8423C125.426 54.8407 125.646 54.9999 125.647 55.3199C125.648 55.6292 125.43 55.7847 124.993 55.7863L123.809 55.7907L123.811 56.3507L125.251 56.3454C125.688 56.3438 125.907 56.5136 125.908 56.8549C125.91 57.1856 125.692 57.3517 125.254 57.3534L123.814 57.3587L123.816 57.9027L124.968 57.8184ZM121.349 52.6638L121.369 58.0558L122.313 58.0043L122.293 52.6603L121.349 52.6638ZM118.912 51.3608L120.912 51.3534C120.676 51.013 120.403 50.6993 120.093 50.4125C119.753 50.7657 119.359 51.0818 118.912 51.3608ZM122.319 50.9642C122.104 50.7517 121.891 50.7258 121.678 50.8866L121.088 51.3528L122.688 51.3468L122.319 50.9642ZM123.152 51.3451L124.752 51.3392C124.538 51.0733 124.297 50.8075 124.029 50.5419C123.795 50.8201 123.503 51.0878 123.152 51.3451ZM129.624 53.4491C129.761 53.0433 130.075 52.9088 130.566 53.0457C131.068 53.1718 131.24 53.4538 131.082 53.8917C130.744 55.0023 130.114 56.13 129.19 57.2748C129.502 57.871 129.823 58.1684 130.153 58.1672C130.292 58.1667 130.393 58.0597 130.456 57.8461L130.518 57.3819C130.57 56.9443 130.821 56.8634 131.27 57.1391C131.719 57.4147 131.891 57.8301 131.786 58.3852C131.777 58.7265 131.634 59.0577 131.358 59.3788C131.082 59.6998 130.64 59.8614 130.032 59.8637C129.242 59.8666 128.558 59.4318 127.979 58.5593C127.266 59.1699 126.75 59.5505 126.431 59.701C126.037 59.9478 125.685 59.8851 125.374 59.5129L124.989 59.0664C122.067 59.3225 119.742 59.5018 118.015 59.6042C117.652 59.6376 117.438 59.425 117.372 58.9666C117.307 58.5082 117.492 58.2675 117.93 58.2445L119.865 58.1414L119.863 57.4534L118.327 57.459C117.889 57.4607 117.67 57.2961 117.669 56.9655C117.668 56.6242 117.886 56.4527 118.323 56.4511L119.859 56.4454L119.857 55.8374L118.689 55.8417C118.251 55.8433 118.032 55.6895 118.031 55.3801C118.03 55.0601 118.248 54.8993 118.685 54.8977L119.853 54.8934L119.851 54.3174L118.539 54.3222C118.102 54.3239 117.882 54.1647 117.881 53.8447C117.88 53.514 118.098 53.3479 118.535 53.3462L119.847 53.3414L119.845 52.6694L117.845 52.6768C117.408 52.6784 117.188 52.4606 117.187 52.0232C117.185 51.5859 117.403 51.3664 117.84 51.3648L118.56 51.3621L118.351 51.1549C117.902 50.6979 118.039 50.2707 118.763 49.8734C119.114 49.8187 119.327 49.5246 119.399 48.991C119.558 48.5744 119.872 48.3973 120.341 48.4595C120.822 48.5217 120.983 48.7878 120.824 49.2577L122.029 50.4213C122.838 49.9809 123.263 49.5367 123.304 49.0885C123.451 48.6507 123.76 48.4628 124.23 48.5251C124.699 48.5767 124.876 48.8107 124.76 49.2271L124.713 49.3393C125.28 49.7959 125.569 50.0668 125.58 50.1521C125.88 50.503 125.827 50.8285 125.423 51.1287L125.152 51.3377L126.288 51.3335L126.201 49.4138C126.189 48.9765 126.476 48.7568 127.062 48.7546C127.66 48.7524 127.965 48.9699 127.977 49.4072L128.032 51.327L131.152 51.3155C131.589 51.3138 131.809 51.5317 131.81 51.969C131.812 52.4064 131.594 52.6258 131.157 52.6275L128.133 52.6387C128.254 53.7582 128.407 54.6963 128.591 55.453C129.153 54.5976 129.498 53.9296 129.624 53.4491Z" fill="black" fill-opacity="0.85"/>
</g>
<defs>
<clipPath id="clip0_2306_6361">
<rect width="200" height="90" fill="white"/>
</clipPath>
</defs>
</svg>
