<svg width="978" height="620" viewBox="0 0 978 620" fill="none" xmlns="http://www.w3.org/2000/svg">
<g clip-path="url(#clip0_1420_1060)">
<path d="M844.625 421.314C836.269 381.466 809.76 343.874 767.559 313.685C715.827 276.679 642.603 252.713 560.124 252.713C477.645 252.713 404.42 276.679 352.689 313.685C318.268 338.308 294.288 367.856 282.081 399.536L245 398.1C277.251 294.869 406.092 217.715 560.124 217.715C726.177 217.715 862.954 307.382 881 422.723L844.625 421.314Z" fill="#FE3040"/>
<path d="M844.625 455.812C836.269 415.965 809.76 378.372 767.559 348.183C715.827 311.177 642.603 287.211 560.124 287.211C477.645 287.211 404.42 311.177 352.689 348.183C318.268 372.806 294.288 402.354 282.081 434.034L245 432.598C277.251 329.367 406.092 252.213 560.124 252.213C726.177 252.213 862.954 341.88 881 457.221L844.625 455.812Z" fill="#FF6B1A"/>
<path d="M844.625 490.81C836.269 450.963 809.76 413.37 767.559 383.181C715.827 346.175 642.603 322.209 560.124 322.209C477.645 322.209 404.42 346.175 352.689 383.181C318.268 407.804 294.288 437.352 282.081 469.032L245 467.596C277.251 364.365 406.092 287.211 560.124 287.211C726.177 287.211 862.954 376.878 881 492.219L844.625 490.81Z" fill="#A2AA2E"/>
<path d="M844.625 524.309C836.269 484.461 809.76 446.869 767.559 416.679C715.827 379.673 642.603 355.707 560.124 355.707C477.645 355.707 404.42 379.673 352.689 416.679C318.268 441.302 294.288 470.85 282.081 502.53L245 501.094C277.251 397.863 406.092 320.709 560.124 320.709C726.177 320.709 862.954 410.376 881 525.717L844.625 524.309Z" fill="#548FD1"/>
<path d="M844.625 558.307C836.269 518.459 809.76 480.867 767.559 450.677C715.827 413.671 642.603 389.705 560.124 389.705C477.645 389.705 404.42 413.671 352.689 450.677C318.268 475.301 294.288 504.848 282.081 536.528L245 535.093C277.251 431.861 406.092 354.707 560.124 354.707C726.177 354.707 862.954 444.374 881 559.715L844.625 558.307Z" fill="#A349C1"/>
<path fill-rule="evenodd" clip-rule="evenodd" d="M163.79 54.0956C161.199 49.5863 158.129 46.3913 155.037 45.4019C152.36 44.5455 149.752 44.5418 145.877 44.9199C145.263 44.9798 144.6 45.0525 143.893 45.1301C140.415 45.5117 135.88 46.0093 130.975 45.6584C128.521 45.4829 126.242 45.4063 123.927 45.3284L123.837 45.3254C121.549 45.2485 119.144 45.1673 116.773 44.9643C111.877 44.545 106.815 43.5876 101.361 40.9105C93.4548 37.0303 88.5327 29.376 85.79 24.03C84.3272 21.1788 83.2643 18.543 82.5649 16.6204C82.2129 15.6528 81.9471 14.8496 81.7642 14.2699C81.6726 13.9796 81.6013 13.7441 81.5501 13.5708C81.5245 13.484 81.5038 13.4128 81.4881 13.3578L81.4681 13.2877L81.4609 13.262L81.4567 13.2469C81.4561 13.2447 81.4555 13.2426 89.6458 10.969L81.4555 13.2426C80.1998 8.71925 82.8488 4.0344 87.3722 2.7787C91.889 1.52481 96.5669 4.16434 97.8306 8.67579C97.832 8.68055 97.8333 8.68531 97.8346 8.69008L97.834 8.688L97.8324 8.68219L97.8313 8.67826C97.8342 8.68813 97.8414 8.71319 97.853 8.75261C97.8763 8.83152 97.9173 8.96741 97.976 9.1535C98.0937 9.5265 98.2814 10.0961 98.5407 10.8089C99.0638 12.2469 99.8543 14.2015 100.916 16.2699C103.221 20.7631 106.029 24.2644 108.851 25.6495C111.828 27.1107 114.661 27.7212 118.224 28.0263C120.083 28.1855 122.048 28.2556 124.408 28.335L124.597 28.3413C126.854 28.4172 129.409 28.503 132.188 28.7018C135.424 28.9333 138.173 28.6391 141.563 28.2764C142.405 28.1862 143.287 28.0918 144.226 28.0003C148.7 27.5637 154.144 27.2675 160.217 29.2103C169.513 32.1844 175.331 40.0583 178.53 45.627C180.233 48.5911 181.464 51.377 182.27 53.4157C182.677 54.4427 182.983 55.3001 183.194 55.921C183.3 56.232 183.382 56.4851 183.441 56.6722C183.471 56.7657 183.495 56.8429 183.513 56.9027L183.536 56.9792L183.545 57.0074L183.55 57.0242C183.55 57.0266 183.551 57.0289 175.401 59.4439L183.551 57.0289C184.885 61.5299 182.317 66.2599 177.816 67.5936C173.323 68.9251 168.601 66.3684 167.258 61.8815C167.259 61.8848 167.259 61.8853 167.258 61.8815C167.256 61.874 167.254 61.8664 167.252 61.8588L175.368 59.4537C167.252 61.8588 167.252 61.861 167.253 61.8631L167.254 61.867L167.258 61.8806C167.255 61.8713 167.247 61.846 167.235 61.8054C167.209 61.7243 167.163 61.5831 167.097 61.3894C166.965 61.0009 166.754 60.4075 166.462 59.6687C165.872 58.1759 164.982 56.1705 163.79 54.0956ZM97.835 8.69147C97.835 8.69146 97.835 8.69149 97.835 8.69147Z" fill="#E2984F"/>
<path fill-rule="evenodd" clip-rule="evenodd" d="M146.461 297.608C144.17 295.505 141.318 294.003 137.613 294.375C134.123 294.726 130.733 295.933 126.308 297.819C125.578 298.13 124.813 298.463 124.014 298.811C120.231 300.459 115.699 302.432 110.68 303.902C107.923 304.708 105.372 305.531 102.852 306.344L102.731 306.383C100.213 307.195 97.6691 308.014 95.1697 308.718C90.1181 310.141 84.8306 311.22 78.9053 311.047C69.7979 310.782 63.2977 305.869 59.4485 301.802C57.4851 299.727 56.0305 297.691 55.0615 296.173C54.5722 295.406 54.194 294.752 53.9254 294.263C53.7908 294.018 53.6828 293.813 53.6013 293.654C53.5606 293.575 53.5264 293.507 53.4987 293.451L53.4621 293.377L53.4474 293.347L53.441 293.334L53.438 293.327C53.4366 293.324 53.4352 293.322 61.0916 289.63L53.4352 293.322C51.3962 289.093 53.1712 284.012 57.3997 281.973C61.6098 279.943 66.6648 281.694 68.7212 285.883C68.7276 285.896 68.734 285.909 68.7404 285.922L68.738 285.917L68.73 285.901L68.72 285.881C68.7166 285.874 68.717 285.875 68.7212 285.883C68.7219 285.884 68.7228 285.886 68.7239 285.888C68.737 285.914 68.771 285.979 68.8256 286.078C68.9354 286.278 69.1245 286.609 69.391 287.026C69.9336 287.876 70.7444 289.005 71.7964 290.117C73.9781 292.423 76.5085 293.97 79.4006 294.055C82.9061 294.157 86.3295 293.547 90.5603 292.355C92.7022 291.752 94.9425 291.032 97.5132 290.203L97.7033 290.142C100.182 289.343 102.923 288.459 105.904 287.586C109.8 286.445 113.17 284.983 116.903 283.362C117.792 282.977 118.701 282.582 119.642 282.181C124.3 280.196 129.694 278.086 135.913 277.46C145.955 276.451 153.394 280.895 157.957 285.084C160.232 287.172 161.911 289.291 163.027 290.885C163.59 291.69 164.025 292.384 164.334 292.905C164.49 293.167 164.614 293.387 164.708 293.558C164.755 293.643 164.795 293.717 164.827 293.777C164.843 293.807 164.858 293.834 164.87 293.858L164.887 293.891L164.895 293.906L164.898 293.913C164.9 293.916 164.902 293.919 157.358 297.804L164.902 293.919C167.051 298.093 165.41 303.218 161.236 305.367C157.084 307.505 151.99 305.892 149.822 301.766C149.821 301.766 149.821 301.766 149.821 301.766C149.808 301.743 149.773 301.679 149.714 301.58C149.596 301.381 149.39 301.048 149.097 300.631C148.502 299.779 147.613 298.665 146.461 297.608ZM68.7436 285.929C68.7426 285.927 68.7415 285.924 68.7404 285.922L68.7427 285.927L68.7436 285.929ZM68.7436 285.929C68.7442 285.93 68.7447 285.931 68.7453 285.932C68.7453 285.932 68.7453 285.932 68.7453 285.932L68.7436 285.929Z" fill="#CCA7D0"/>
<path d="M192 236.215C192 245.051 184.837 252.215 176 252.215C167.163 252.215 160 245.051 160 236.215C160 227.378 167.163 220.215 176 220.215C184.837 220.215 192 227.378 192 236.215Z" fill="#AED2E7"/>
<path d="M128.56 370C94.3057 370 66.1314 396.054 62.7417 429.441C34.1447 436.749 13 462.704 13 493.601C13 530.17 42.621 559.815 79.1604 559.815C95.1695 559.815 109.851 554.125 121.294 544.654C132.387 553.062 146.211 558.05 161.199 558.05C180.603 558.05 198.056 549.69 210.158 536.372C222.26 549.69 239.713 558.05 259.117 558.05C295.656 558.05 325.277 528.404 325.277 491.835C325.277 461.523 304.925 435.968 277.151 428.11C273.158 395.364 245.279 370 211.481 370C195.784 370 181.364 375.471 170.021 384.611C158.677 375.471 144.257 370 128.56 370Z" fill="white"/>
<path d="M224.544 501.999C221.728 501.999 220.32 500.591 220.32 497.775V461.423C220.32 458.607 221.707 457.199 224.48 457.199C227.254 457.199 228.64 458.607 228.64 461.423V494.319H247.392C250.208 494.319 251.616 495.599 251.616 498.159C251.616 500.719 250.208 501.999 247.392 501.999H224.544Z" fill="black"/>
<path d="M175.107 501.999C172.291 501.999 170.883 500.591 170.883 497.775V461.423C170.883 459.802 171.309 458.693 172.163 458.095C173.016 457.498 174.253 457.199 175.875 457.199C178.093 457.199 179.757 458.159 180.867 460.079L191.363 478.319L201.731 460.143C202.413 458.949 203.181 458.159 204.035 457.775C204.931 457.391 206.104 457.199 207.555 457.199C210.371 457.199 211.779 458.607 211.779 461.423V497.775C211.779 500.591 210.371 501.999 207.555 501.999C204.739 501.999 203.331 500.591 203.331 497.775V471.599L195.395 486.063C194.371 488.026 193.005 489.007 191.299 489.007C189.592 489.007 188.227 488.026 187.203 486.063L179.267 471.599V497.775C179.267 500.591 177.88 501.999 175.107 501.999Z" fill="black"/>
<path d="M147.728 501.999C144.912 501.999 143.504 500.591 143.504 497.775V464.879H134.544C131.728 464.879 130.32 463.599 130.32 461.039C130.32 458.479 131.728 457.199 134.544 457.199H160.784C163.6 457.199 165.008 458.479 165.008 461.039C165.008 463.599 163.6 464.879 160.784 464.879H151.888V497.775C151.888 500.591 150.502 501.999 147.728 501.999Z" fill="black"/>
<path d="M92.6008 501.999C89.9555 501.999 88.6328 500.677 88.6328 498.031V461.167C88.6328 458.522 89.9555 457.199 92.6008 457.199H92.9848C95.6301 457.199 96.9528 458.522 96.9528 461.167V474.543H116.089V461.167C116.089 458.522 117.411 457.199 120.057 457.199H120.505C123.15 457.199 124.473 458.522 124.473 461.167V498.031C124.473 500.677 123.15 501.999 120.505 501.999H120.057C117.411 501.999 116.089 500.677 116.089 498.031V482.223H96.9528V498.031C96.9528 500.677 95.6301 501.999 92.9848 501.999H92.6008Z" fill="black"/>
<path d="M843.265 497.145C819.977 497.145 800.824 513.966 798.519 535.523C779.078 540.242 764.703 557 764.703 576.949C764.703 600.56 784.84 619.701 809.681 619.701C820.565 619.701 830.545 616.027 838.325 609.912C845.867 615.34 855.264 618.561 865.454 618.561C878.645 618.561 890.51 613.163 898.737 604.565C906.965 613.163 918.83 618.561 932.021 618.561C956.862 618.561 976.999 599.42 976.999 575.809C976.999 556.237 963.163 539.737 944.281 534.664C941.567 513.521 922.614 497.145 899.637 497.145C888.966 497.145 879.163 500.677 871.451 506.579C863.739 500.677 853.936 497.145 843.265 497.145Z" fill="#EEEEEE"/>
<path d="M832.562 491.215C809.274 491.215 790.12 508.037 787.816 529.594C768.375 534.312 754 551.07 754 571.019C754 594.631 774.137 613.771 798.978 613.771C809.862 613.771 819.842 610.097 827.622 603.982C835.163 609.411 844.561 612.631 854.751 612.631C867.942 612.631 879.807 607.234 888.034 598.635C896.262 607.234 908.127 612.631 921.318 612.631C946.159 612.631 966.296 593.49 966.296 569.879C966.296 550.308 952.46 533.808 933.578 528.734C930.864 507.591 911.911 491.215 888.934 491.215C878.263 491.215 868.459 494.747 860.748 500.649C853.036 494.747 843.233 491.215 832.562 491.215Z" fill="white"/>
</g>
<defs>
<clipPath id="clip0_1420_1060">
<rect width="978" height="620" fill="white"/>
</clipPath>
</defs>
</svg>
