<svg width="200" height="90" viewBox="0 0 200 90" fill="none" xmlns="http://www.w3.org/2000/svg">
<g clip-path="url(#clip0_2308_7004)">
<rect width="200" height="90" fill="#FEB79D"/>
<path fill-rule="evenodd" clip-rule="evenodd" d="M-6.18027 85.5257C-5.5206 81.3514 -9.94765 77.2571 -7.65473 73.2393C-4.94813 68.4966 -1.65241 61.9915 7.77154 61.0783C17.9972 60.0873 23.5998 68.8258 33.9785 69.2048C45.8176 69.6371 56.5881 60.196 66.8872 63.2371C76.2425 65.9996 70.121 74.0119 68.9752 79.5387C68.1676 83.4341 61.5364 86.4306 61.2669 90.3457C60.8502 96.3973 75.7689 103.853 67.0229 107.895C58.3557 111.9 45.7383 103.802 34.2527 102.83C27.3162 102.243 20.5655 103.925 13.6182 103.373C4.65786 102.66 -7.2514 103.227 -11.7526 99.1698C-16.3208 95.0519 -6.92748 90.2539 -6.18027 85.5257Z" fill="#FE585B"/>
<path fill-rule="evenodd" clip-rule="evenodd" d="M28.4743 10.5302C32.6486 10.8717 36.7429 8.58004 40.7607 9.76696C45.5034 11.168 52.0085 12.874 52.9217 17.7523C53.9127 23.0456 45.1742 25.9458 44.7952 31.3183C44.3629 37.4467 53.804 43.0221 50.7629 48.3534C48.0004 53.1961 39.9881 50.0274 34.4613 49.4342C30.5659 49.0162 27.5694 45.5836 23.6543 45.444C17.6027 45.2284 10.1469 52.9509 6.10508 48.4236C2.09968 43.9371 10.1975 37.4057 11.1701 31.4602C11.7575 27.8695 10.0747 24.3751 10.6274 20.7788C11.3402 16.1405 10.7727 9.97575 14.8302 7.64571C18.9481 5.281 23.7461 10.1434 28.4743 10.5302Z" fill="#FC7443"/>
<path fill-rule="evenodd" clip-rule="evenodd" d="M173.474 4.53021C177.649 4.87169 181.743 2.58004 185.761 3.76696C190.503 5.16803 197.008 6.87405 197.922 11.7523C198.913 17.0456 190.174 19.9458 189.795 25.3183C189.363 31.4467 198.804 37.0221 195.763 42.3534C193 47.1961 184.988 44.0274 179.461 43.4342C175.566 43.0162 172.569 39.5836 168.654 39.444C162.603 39.2284 155.147 46.9509 151.105 42.4236C147.1 37.9371 155.198 31.4057 156.17 25.4602C156.757 21.8695 155.075 18.3751 155.627 14.7788C156.34 10.1405 155.773 3.97575 159.83 1.64571C163.948 -0.719004 168.746 4.14342 173.474 4.53021Z" fill="#FF8787"/>
<path fill-rule="evenodd" clip-rule="evenodd" d="M117.063 7.20494C131.49 7.9797 144.155 11.9054 154.996 17.5775C166.733 23.7188 176.896 30.8598 179.688 39.9711C183.097 51.0949 184.354 63.7453 171.749 72.2549C158.691 81.0707 136.857 81.4742 117.063 82.2497C95.2362 83.1048 71.8992 84.7511 54.6033 76.8446C35.6156 68.1646 20.8565 53.9771 24.5773 39.9711C28.0889 26.7526 52.1053 19.9805 71.5388 13.0955C85.3864 8.18958 100.98 6.34119 117.063 7.20494Z" fill="#FFAB7A"/>
<ellipse cx="177.989" cy="70.7269" rx="16.7876" ry="14.0511" fill="#F55A57"/>
<ellipse cx="173.713" cy="65.6395" rx="1.21537" ry="2.15126" fill="black"/>
<ellipse cx="182.288" cy="65.6395" rx="1.21537" ry="2.15126" fill="black"/>
<path d="M173.043 72.6426C173.079 74.5703 175.312 76.0917 178.031 76.0408C180.749 75.99 182.924 74.386 182.888 72.4584C182.852 70.5307 180.67 71.7806 177.952 71.8314C175.233 71.8823 173.007 70.7149 173.043 72.6426Z" fill="black"/>
<path d="M170.798 50.9035C173.679 48.6452 180.102 51.1915 180.102 55.0219C180.103 59.542 168.088 61.6232 165.803 61.9782C165.554 62.0169 165.305 62.044 165.056 62.039C163.427 62.0062 157.617 61.2375 170.798 50.9035Z" fill="#6E5232"/>
<path d="M170.798 50.9035C173.679 48.6452 180.102 51.1915 180.102 55.0219C180.103 59.542 168.088 61.6232 165.803 61.9782C165.554 62.0169 165.305 62.044 165.056 62.039C163.427 62.0062 157.617 61.2375 170.798 50.9035Z" fill="url(#paint0_radial_2308_7004)" fill-opacity="0.15"/>
<path d="M185.204 50.7629C182.323 48.5045 175.9 51.0509 175.9 54.8813C175.899 59.4014 187.914 61.4825 190.199 61.8375C190.448 61.8763 190.697 61.9034 190.946 61.8984C192.575 61.8656 198.385 61.0968 185.204 50.7629Z" fill="#6E5232"/>
<path d="M185.204 50.7629C182.323 48.5045 175.9 51.0509 175.9 54.8813C175.899 59.4014 187.914 61.4825 190.199 61.8375C190.448 61.8763 190.697 61.9034 190.946 61.8984C192.575 61.8656 198.385 61.0968 185.204 50.7629Z" fill="url(#paint1_radial_2308_7004)" fill-opacity="0.15"/>
<path d="M80.4184 30.0544C80.2451 30.0551 80.1588 30.1421 80.1594 30.3154L80.1665 32.2354L80.7465 32.2332L80.7425 31.1432C80.7413 30.8232 80.9007 30.6627 81.2207 30.6615L82.3707 30.6572L82.3694 30.3072C82.3687 30.1339 82.2818 30.0475 82.1084 30.0482L80.4184 30.0544ZM82.3765 32.2272L82.3734 31.3972L81.8634 31.3991C81.6901 31.3997 81.6037 31.4867 81.6044 31.6601L81.6065 32.23L82.3765 32.2272ZM81.4868 35.0005C81.6534 34.9999 81.7364 34.9129 81.7358 34.7396L81.7351 34.5596C81.7345 34.3863 81.6475 34.2999 81.4742 34.3006L81.0842 34.302C80.9175 34.3026 80.8345 34.3896 80.8351 34.5629L80.8368 35.0029L81.4868 35.0005ZM79.7199 33.137C79.5465 33.1377 79.4602 33.2247 79.4608 33.398L79.4711 36.178C79.4721 36.4513 79.2993 36.5886 78.9526 36.5899C78.6126 36.5912 78.4421 36.4551 78.4411 36.1818L78.4283 32.7218C78.4271 32.4018 78.5865 32.2412 78.9065 32.2401L79.1365 32.2392L79.127 29.6592C79.1258 29.3392 79.2852 29.1786 79.6052 29.1774L82.9652 29.165C83.2785 29.1638 83.4357 29.3232 83.4369 29.6432L83.4465 32.2232L83.7165 32.2222C84.0432 32.221 84.2038 32.3838 84.1983 32.7104L84.141 36.1307C84.0881 36.2575 83.9719 36.368 83.7922 36.462C83.6192 36.556 83.4327 36.5966 83.2327 36.5841C82.8127 36.5989 82.5655 36.4632 82.4911 36.1768C82.4501 35.9036 82.3963 35.7605 82.3295 35.7474L80.8396 35.7529C80.8403 35.9529 80.6973 36.0534 80.4107 36.0545C80.1307 36.0555 79.9902 35.9194 79.9892 35.6461L79.9832 34.0261C79.982 33.7061 80.1414 33.5455 80.4614 33.5443L82.1114 33.5382C82.4314 33.537 82.5919 33.6964 82.5931 34.0164L82.5993 35.6864C82.5993 35.6864 82.7327 35.6859 82.9993 35.6849C83.0927 35.6846 83.1392 35.6411 83.1388 35.5544L83.1308 33.3844C83.1302 33.2111 83.0432 33.1247 82.8698 33.1254L79.7199 33.137ZM77.5586 30.095C77.7327 30.3011 77.6634 30.5113 77.3509 30.7258C77.045 30.9336 76.8117 30.9311 76.6509 30.7184L75.9273 29.7611C75.7665 29.5417 75.8324 29.3448 76.1251 29.1703C76.4245 28.9892 76.6612 29.0017 76.8353 29.2077L77.5586 30.095ZM77.2116 33.6163C77.4849 33.6087 77.7017 33.6412 77.862 33.7139C78.0289 33.78 78.0896 33.9631 78.044 34.2633C77.9924 34.7368 77.8611 35.274 77.65 35.8747C77.9184 36.3471 78.3096 36.659 78.8235 36.8104C79.3373 36.9552 80.0576 37.0292 80.9843 37.0324C82.3776 37.0272 83.5308 36.9796 84.4438 36.8896C84.697 36.862 84.761 37.0317 84.6357 37.3989C84.5104 37.766 84.3144 37.9567 84.0478 37.971C83.2746 38.0206 82.3181 38.0475 81.1781 38.0517C80.0448 38.0559 79.1911 37.9757 78.6172 37.8112C78.0432 37.6533 77.5754 37.3317 77.2136 36.8464C76.9091 37.4342 76.6172 37.8219 76.3379 38.0096C76.1319 38.1837 75.8984 38.1379 75.6374 37.8722C75.3831 37.6132 75.3523 37.4066 75.5451 37.2526C76.1968 36.8168 76.6406 36.0318 76.8764 34.8976C76.9289 34.6707 76.8684 34.5576 76.6951 34.5583L76.2551 34.5599L75.9852 34.5809C75.7588 34.6684 75.5817 34.5524 75.4539 34.2329C75.326 33.9133 75.3786 33.6931 75.6114 33.5723L75.7908 33.4116C75.9635 33.231 76.2024 32.9201 76.5074 32.479C76.6533 32.2717 76.6396 32.1685 76.4662 32.1691L75.8562 32.1714C75.5829 32.1724 75.4457 32.0162 75.4445 31.7029C75.4433 31.3829 75.5794 31.2224 75.8527 31.2214L77.4627 31.2154L77.5326 31.1951C77.8058 31.1541 78.0026 31.1934 78.1231 31.313C78.2435 31.4325 78.1777 31.6728 77.9258 32.0337C77.3223 32.9026 76.9675 33.4073 76.8614 33.5476C76.8149 33.6078 76.8783 33.6343 77.0517 33.6269L77.2116 33.6163ZM87.807 29.647C88.0276 29.8129 88.0218 30.0596 87.7897 30.3871C87.5576 30.7146 87.3479 30.8021 87.1607 30.6495C87.1806 30.636 87.0269 30.5333 86.6995 30.3412C86.3788 30.1423 86.1817 30.0331 86.1083 30.0133C85.8746 29.9009 85.8671 29.6976 86.0861 29.4034C86.3049 29.1026 86.5646 29.0183 86.8651 29.1505C87.3324 29.3221 87.6464 29.4876 87.807 29.647ZM87.4066 32.2486C87.6406 32.4144 87.6415 32.6644 87.4094 32.9985C87.184 33.3327 86.9676 33.4169 86.7603 33.251C86.6131 33.0915 86.2824 32.9061 85.7683 32.6946C85.461 32.5491 85.4136 32.3259 85.6258 32.0252C85.838 31.7244 86.0943 31.6301 86.3947 31.7423C86.8753 31.8939 87.2126 32.0626 87.4066 32.2486ZM86.7154 34.6311C86.8343 34.324 87.0542 34.2832 87.375 34.5087C87.7025 34.7341 87.8134 34.9904 87.7078 35.2775C87.4174 36.0652 87.0738 36.8732 86.6768 37.7013C86.5644 37.9617 86.3245 37.9793 85.957 37.754C85.5962 37.5286 85.4753 37.3057 85.5945 37.0853C86.0052 36.3571 86.3788 35.5391 86.7154 34.6311ZM92.5773 32.4294L91.2873 32.4342L91.2885 32.7442C91.2891 32.9175 91.3761 33.0038 91.5494 33.0032L92.3194 33.0003C92.4928 32.9997 92.5791 32.9127 92.5785 32.7394L92.5773 32.4294ZM90.2373 32.4381L89.4373 32.441C89.4469 35.021 89.1203 36.8289 88.4574 37.8647C88.3581 38.0451 88.1414 38.0425 87.8074 37.8571C87.4734 37.6717 87.356 37.4921 87.4554 37.3184C88.0387 36.4096 88.326 34.7785 88.3173 32.4252L88.309 30.1952C88.3078 29.8752 88.4672 29.7146 88.7872 29.7134L91.0072 29.7052L90.8961 29.4056C90.8085 29.1526 90.9512 28.9854 91.3242 28.904C91.6973 28.816 91.9309 28.8984 92.0252 29.1514L92.2472 29.7006L94.1572 29.6935C94.4305 29.6925 94.5678 29.8587 94.569 30.192C94.5703 30.5187 94.4342 30.6825 94.1609 30.6835L89.6909 30.7001C89.5176 30.7007 89.4312 30.7877 89.4319 30.961L89.4339 31.511L90.2339 31.5081L90.2331 31.2881C90.2321 31.0147 90.4049 30.8774 90.7515 30.8761C91.1049 30.8748 91.2821 31.0108 91.2831 31.2842L91.2839 31.5042L92.5739 31.4994L92.5731 31.2794C92.572 31.0061 92.7549 30.8687 93.1215 30.8674C93.4882 30.866 93.672 31.002 93.673 31.2753L93.6739 31.4953L94.1339 31.4936C94.4072 31.4926 94.5444 31.6488 94.5456 31.9621C94.5467 32.2688 94.4106 32.4226 94.1373 32.4236L93.6773 32.4253L93.681 33.4253C93.6822 33.7386 93.5228 33.8959 93.2028 33.8971L90.7228 33.9063C90.4028 33.9075 90.2422 33.7514 90.241 33.4381L90.2373 32.4381ZM92.6184 35.4193C92.7312 35.2788 92.701 35.2089 92.5276 35.2096L91.4576 35.2136C91.2843 35.2142 91.2479 35.281 91.3484 35.414C91.4489 35.5669 91.6563 35.7628 91.9706 36.0017C92.2897 35.7738 92.5057 35.5797 92.6184 35.4193ZM93.224 34.227C93.4973 34.226 93.7542 34.2784 93.9946 34.3841C94.235 34.4899 94.299 34.673 94.1866 34.9334C93.9953 35.4742 93.5807 36.0257 92.9427 36.5881C93.5103 36.8393 93.9876 36.9942 94.3745 37.0528C94.6613 37.105 94.6854 37.2949 94.4466 37.6225C94.2078 37.9567 93.9383 38.0844 93.638 38.0055C93.0842 37.8875 92.5968 37.696 92.1759 37.4309C92.0155 37.3382 91.8522 37.3354 91.6858 37.4227C91.2002 37.6979 90.6409 37.9066 90.0081 38.0489C89.7151 38.1234 89.4713 38.0009 89.2768 37.6817C89.0889 37.3624 89.1382 37.1755 89.4247 37.1211C89.9044 37.0327 90.4337 36.854 91.0127 36.5852C90.5979 36.1867 90.2529 35.7314 89.9776 35.219C89.7176 35.22 89.5871 35.0672 89.5859 34.7605C89.5848 34.4472 89.7209 34.29 89.9942 34.289L93.224 34.227ZM100.313 33.8407L100.308 32.4807C100.307 32.3074 100.22 32.2211 100.047 32.2217L99.2766 32.2246C98.9566 32.2257 98.796 32.0663 98.7948 31.7463L98.7858 29.3164C98.7848 29.043 98.951 28.9057 99.2843 28.9045C99.6243 28.9032 99.7948 29.0393 99.7958 29.3126L99.7968 29.5826L100.957 29.5783C101.23 29.5773 101.367 29.7401 101.369 30.0668C101.37 30.3934 101.234 30.5573 100.96 30.5583L99.8004 30.5626L99.8022 31.0326C99.8028 31.2059 99.8898 31.2923 100.063 31.2916L100.813 31.2989C101.133 31.2977 101.294 31.4571 101.295 31.7771L101.303 33.8371C101.303 34.0437 101.277 34.1972 101.224 34.2973C101.178 34.3975 101.078 34.4846 100.925 34.5585C100.772 34.6324 100.589 34.6664 100.376 34.6605C100.002 34.6685 99.7719 34.5527 99.6843 34.3131C99.5968 34.0667 99.6896 33.943 99.963 33.942L100.143 33.9414C100.256 33.9476 100.313 33.9141 100.313 33.8407ZM98.8489 32.8561C98.9146 32.5959 99.0943 32.4919 99.3878 32.5441C99.6813 32.5897 99.8021 32.8026 99.7502 33.1828C99.7249 33.5629 99.636 33.8532 99.4834 34.0538C99.3841 34.2475 99.2075 34.2682 98.9536 34.1158C98.6997 33.9567 98.6056 33.7471 98.6713 33.4868L98.8489 32.8561ZM102.616 34.7522L102.663 33.942L102.063 33.9442C101.79 33.9453 101.652 33.7824 101.651 33.4558C101.65 33.1291 101.786 32.9653 102.059 32.9642L102.699 32.9619L102.696 32.1019L102.126 32.104C101.853 32.105 101.716 31.9422 101.714 31.6155C101.713 31.2889 101.849 31.125 102.123 31.124L102.753 31.1217L102.75 30.5217C102.75 30.3483 102.663 30.262 102.489 30.2626L102.019 30.2644C101.746 30.2654 101.609 30.0959 101.607 29.7559C101.606 29.4159 101.742 29.2454 102.016 29.2444L103.366 29.2394C103.686 29.2382 103.843 29.4176 103.838 29.7776C103.85 31.4643 103.817 33.1211 103.736 34.748L104.196 34.7463C104.469 34.7453 104.607 34.9282 104.608 35.2948C104.609 35.6615 104.473 35.8453 104.2 35.8463L101.79 35.8553C102.859 36.3513 103.613 36.7385 104.054 37.0169C104.248 37.1295 104.212 37.3363 103.947 37.6373C103.688 37.9449 103.451 38.0291 103.238 37.8899C102.67 37.4987 102.078 37.1609 101.464 36.8765C101.036 36.6581 100.942 36.3917 101.181 36.0775L101.35 35.8569L98.3801 35.8679L98.7613 36.1765C99.0689 36.4287 99.0464 36.6688 98.6939 36.8967C98.1752 37.252 97.4632 37.6113 96.5579 37.9747C96.285 38.0957 96.0347 38.0066 95.8069 37.7075C95.5858 37.4149 95.6184 37.2115 95.9046 37.0971C96.7102 36.7941 97.4653 36.3846 98.1701 35.8687L95.8501 35.8773C95.5768 35.8783 95.4394 35.6955 95.4381 35.3288C95.4367 34.9621 95.5727 34.7783 95.846 34.7773L96.336 34.7755L96.1586 30.0661C96.1508 29.7661 96.2834 29.5623 96.5563 29.4546L97.6747 29.0105C97.9277 28.9162 98.1381 29.0321 98.306 29.3581C98.4805 29.6775 98.4379 29.8743 98.1782 29.9486L97.4689 30.1612C97.3091 30.2085 97.2295 30.3155 97.2301 30.4821L97.2625 31.132L97.9925 31.1293C98.2659 31.1283 98.4031 31.2911 98.4044 31.6178C98.4055 31.9378 98.2695 32.0983 97.9961 32.0993L97.2961 32.1019L97.3293 32.9618L98.0293 32.9592C98.3027 32.9582 98.4399 33.121 98.4411 33.4477C98.4423 33.7677 98.3062 33.9282 98.0329 33.9292L97.3629 33.9317L97.396 34.7715L102.616 34.7522ZM108.451 36.0506L108.453 36.5606C108.866 36.5324 109.446 36.4836 110.192 36.4141C110.557 35.9061 110.818 35.3051 110.976 34.6112C111.133 33.9173 111.23 33.0836 111.266 32.1101L110.836 32.1117C110.516 32.1129 110.356 31.9535 110.354 31.6335L110.353 31.3335L108.433 31.3406L108.435 31.7306L109.725 31.7258C110.045 31.7246 110.205 31.8807 110.207 32.194L110.215 34.334C110.216 34.654 110.056 34.8146 109.736 34.8158L108.446 34.8206L108.448 35.2106L109.848 35.2054C110.121 35.2044 110.258 35.3439 110.259 35.6239C110.26 35.9039 110.124 36.0444 109.851 36.0454L108.451 36.0506ZM106.583 33.8375C106.583 34.0042 106.67 34.0872 106.844 34.0865L107.364 34.0846L107.362 33.6346L106.582 33.6375L106.583 33.8375ZM109.222 33.6277L108.442 33.6306L108.444 34.0806L108.964 34.0787C109.137 34.078 109.223 33.9944 109.223 33.8277L109.222 33.6277ZM108.439 32.9206L109.219 32.9177L109.219 32.7377C109.218 32.5644 109.131 32.478 108.958 32.4787L108.438 32.4806L108.439 32.9206ZM106.838 32.4865C106.664 32.4872 106.578 32.5742 106.579 32.7475L106.579 32.9275L107.359 32.9246L107.358 32.4846L106.838 32.4865ZM112.422 31.0158L113.962 31.0101C114.289 31.0089 114.449 31.095 114.443 31.2683C114.437 31.5284 114.426 32.1317 114.41 33.0785C114.394 34.1919 114.354 35.1587 114.291 35.9789C114.234 36.7991 114.122 37.3296 113.957 37.5702C113.791 37.8108 113.535 37.9684 113.188 38.043C112.988 38.0838 112.758 38.098 112.498 38.0856C112.132 38.0869 111.888 37.8979 111.766 37.5183C111.652 37.1387 111.738 36.9617 112.024 36.9873C112.104 36.9937 112.298 36.9963 112.604 36.9952C112.751 36.9946 112.864 36.9376 112.944 36.8239C113.136 36.5765 113.251 35.1594 113.288 32.5726C113.293 32.2593 113.213 32.1029 113.046 32.1035L112.396 32.1059C112.328 33.5795 112.133 34.8036 111.81 35.7781C111.487 36.7527 111.059 37.4409 110.528 37.8429C110.275 38.0705 110.052 38.0547 109.857 37.7954C109.877 37.7753 109.74 37.6425 109.446 37.3969C107.527 37.604 106.287 37.7286 105.727 37.7707C105.567 37.7913 105.463 37.635 105.415 37.3018C105.368 36.9687 105.48 36.7949 105.754 36.7806L107.373 36.6546L107.371 36.0546L106.021 36.0596C105.748 36.0606 105.61 35.9211 105.609 35.6411C105.608 35.3611 105.744 35.2206 106.018 35.2196L107.368 35.2146L107.366 34.8246L106.126 34.8292C105.806 34.8304 105.646 34.6743 105.645 34.361L105.637 32.221C105.635 31.901 105.795 31.7404 106.115 31.7392L107.355 31.7346L107.353 31.3446L105.793 31.3504C105.52 31.3514 105.383 31.2086 105.382 30.9219C105.381 30.6353 105.517 30.4914 105.79 30.4904L107.35 30.4846L107.349 30.0846C106.702 30.1337 106.259 30.162 106.019 30.1695C105.779 30.1704 105.615 30.031 105.527 29.7514C105.44 29.4717 105.563 29.3212 105.896 29.3C107.389 29.2145 108.542 29.0835 109.354 28.9072C109.588 28.853 109.791 28.9756 109.966 29.2749C110.14 29.5676 110.094 29.7344 109.828 29.7754L108.428 29.9906L108.43 30.4806L109.87 30.4753C110.19 30.4741 110.351 30.6568 110.352 31.0235L111.292 31.02L111.296 29.34C111.295 29.0667 111.484 28.9293 111.864 28.9279C112.244 28.9265 112.435 29.0624 112.436 29.3358L112.422 31.0158ZM115.897 37.823C115.624 37.824 115.487 37.6945 115.486 37.4345C115.485 37.1745 115.621 37.044 115.895 37.043L124.155 37.0124C124.428 37.0114 124.565 37.1409 124.566 37.4009C124.567 37.6609 124.431 37.7914 124.157 37.7924L115.897 37.823ZM122.298 35.2092C122.297 34.9759 122.21 34.8596 122.037 34.8602L120.517 34.8658L120.518 35.2158L122.298 35.2092ZM122.041 36.1302C122.215 36.1296 122.301 36.0426 122.3 35.8692L122.3 35.7592L120.52 35.7658L120.521 36.1358L122.041 36.1302ZM117.78 35.776L117.78 35.886C117.781 36.0593 117.865 36.1457 118.031 36.1451L119.431 36.1399L119.43 35.7699L117.78 35.776ZM118.027 34.8751C117.86 34.8757 117.777 34.9927 117.778 35.226L119.428 35.2199L119.427 34.8699L118.027 34.8751ZM116.606 34.7903C116.605 34.4703 116.764 34.3097 117.084 34.3086L123.034 34.2865C123.348 34.2853 123.505 34.4448 123.506 34.7648L123.512 36.2148C123.513 36.5348 123.353 36.6953 123.033 36.6965L117.083 36.7186C116.77 36.7197 116.613 36.5603 116.612 36.2403L116.606 34.7903ZM120.532 30.9258L120.533 31.2858L122.033 31.2802C122.207 31.2796 122.293 31.1592 122.292 30.9192L120.532 30.9258ZM120.528 29.9558L120.53 30.2858L122.29 30.2792C122.289 30.0592 122.202 29.9496 122.028 29.9502L120.528 29.9558ZM120.541 33.2357L124.15 33.2224C124.424 33.2214 124.561 33.3442 124.562 33.5908C124.563 33.8308 124.427 33.9513 124.153 33.9524L115.893 33.983C115.62 33.984 115.483 33.8645 115.482 33.6245C115.481 33.3778 115.617 33.254 115.891 33.253L119.341 33.2402L119.339 32.8902L116.599 32.9004C116.326 32.9014 116.189 32.7985 116.188 32.5919C116.187 32.3785 116.324 32.2714 116.597 32.2704L119.337 32.2602L119.336 31.9102L116.906 31.9192C116.632 31.9202 116.495 31.8174 116.494 31.6107C116.494 31.4041 116.63 31.3002 116.903 31.2992L119.333 31.2902L119.332 30.9302L115.912 30.9429C115.639 30.9439 115.502 30.8377 115.501 30.6244C115.5 30.4111 115.636 30.3039 115.91 30.3029L119.33 30.2902L119.328 29.9602L116.948 29.969C116.675 29.9701 116.538 29.8672 116.537 29.6606C116.536 29.4472 116.673 29.3401 116.946 29.339L119.326 29.3302L119.325 29.1502C119.324 28.8769 119.524 28.7395 119.924 28.738C120.324 28.7365 120.524 28.8724 120.525 29.1458L120.526 29.3258L122.996 29.3166C123.316 29.3154 123.477 29.4748 123.478 29.7948L123.48 30.2748L124.07 30.2726C124.343 30.2716 124.48 30.3778 124.481 30.5911C124.482 30.8045 124.345 30.9116 124.072 30.9126L123.482 30.9148L123.484 31.4148C123.485 31.7348 123.326 31.8954 123.006 31.8966L120.536 31.9058L120.537 32.2558L123.467 32.2449C123.74 32.2439 123.877 32.35 123.878 32.5634C123.879 32.77 123.743 32.8739 123.469 32.8749L120.539 32.8857L120.541 33.2357Z" fill="#FE585B"/>
<path d="M84.9945 46.104C84.7172 46.105 84.579 46.2442 84.58 46.5215L84.5914 49.5935L85.5194 49.59L85.513 47.8461C85.5111 47.3341 85.7661 47.0771 86.2781 47.0752L88.1181 47.0684L88.116 46.5084C88.115 46.2311 87.9758 46.0929 87.6985 46.0939L84.9945 46.104ZM88.1274 49.5804L88.1225 48.2524L87.3065 48.2554C87.0292 48.2564 86.891 48.3956 86.892 48.673L86.8954 49.5849L88.1274 49.5804ZM86.7038 54.0177C86.9705 54.0167 87.1033 53.8775 87.1023 53.6002L87.1012 53.3122C87.1002 53.0349 86.961 52.8967 86.6837 52.8978L86.0597 52.9001C85.793 52.9011 85.6602 53.0402 85.6612 53.3175L85.6638 54.0215L86.7038 54.0177ZM83.8768 51.0361C83.5994 51.0372 83.4613 51.1764 83.4623 51.4537L83.4788 55.9017C83.4804 56.339 83.2039 56.5587 82.6492 56.5607C82.1052 56.5627 81.8324 56.3451 81.8308 55.9078L81.8103 50.3718C81.8084 49.8598 82.0634 49.6029 82.5754 49.601L82.9434 49.5996L82.9281 45.4716C82.9262 44.9596 83.1813 44.7027 83.6933 44.7008L89.0692 44.6809C89.5706 44.679 89.8222 44.9341 89.8241 45.4461L89.8394 49.574L90.2714 49.5724C90.7941 49.5705 91.051 49.8309 91.0423 50.3536L90.9506 55.826C90.866 56.0289 90.68 56.2056 90.3925 56.356C90.1158 56.5064 89.8173 56.5715 89.4973 56.5514C88.8253 56.5752 88.4299 56.358 88.3108 55.8997C88.2452 55.4627 88.159 55.2336 88.0523 55.2127L85.6683 55.2215C85.6695 55.5415 85.4407 55.7024 84.9821 55.7041C84.5341 55.7057 84.3093 55.4879 84.3077 55.0506L84.298 52.4586C84.2961 51.9466 84.5512 51.6896 85.0632 51.6878L87.7032 51.678C88.2152 51.6761 88.4721 51.9311 88.474 52.4431L88.4839 55.1151C88.4839 55.1151 88.6973 55.1143 89.1239 55.1127C89.2732 55.1122 89.3477 55.0426 89.3471 54.9039L89.3343 51.4319C89.3332 51.1546 89.1941 51.0164 88.9167 51.0175L83.8768 51.0361ZM80.4187 46.1689C80.6973 46.4986 80.5865 46.835 80.0864 47.1782C79.597 47.5107 79.2237 47.5067 78.9664 47.1663L77.8087 45.6346C77.5514 45.2836 77.6569 44.9685 78.1252 44.6894C78.6041 44.3996 78.9829 44.4196 79.2614 44.7492L80.4187 46.1689ZM79.8636 51.803C80.3009 51.7907 80.6477 51.8428 80.9042 51.9592C81.1712 52.0648 81.2683 52.3578 81.1954 52.8381C81.1129 53.5957 80.9028 54.4552 80.565 55.4165C80.9945 56.1722 81.6203 56.6712 82.4425 56.9135C83.2647 57.1451 84.4172 57.2635 85.8999 57.2687C88.1292 57.2604 89.9743 57.1843 91.4351 57.0402C91.8402 56.996 91.9426 57.2676 91.7421 57.855C91.5416 58.4425 91.2281 58.7476 90.8015 58.7705C89.5644 58.8498 88.0339 58.8928 86.2099 58.8996C84.3966 58.9063 83.0308 58.778 82.1125 58.5147C81.1942 58.2621 80.4456 57.7476 79.8667 56.971C79.3796 57.9115 78.9125 58.5319 78.4656 58.8323C78.136 59.1108 77.7624 59.0375 77.3448 58.6124C76.9379 58.1979 76.8887 57.8674 77.1971 57.6209C78.2399 56.9237 78.9499 55.6678 79.3272 53.853C79.4112 53.49 79.3145 53.3091 79.0372 53.3101L78.3332 53.3127L77.9013 53.3463C77.5391 53.4863 77.2558 53.3007 77.0512 52.7895C76.8467 52.2782 76.9307 51.9259 77.3033 51.7325L77.5904 51.4754C77.8666 51.1864 78.2488 50.689 78.7368 49.9832C78.9703 49.6517 78.9483 49.4864 78.671 49.4874L77.695 49.491C77.2577 49.4927 77.0381 49.2428 77.0362 48.7415C77.0343 48.2295 77.252 47.9727 77.6894 47.9711L80.2653 47.9615L80.3772 47.9291C80.8143 47.8635 81.1292 47.9263 81.3219 48.1176C81.5146 48.3089 81.4094 48.6933 81.0062 49.2708C80.0407 50.661 79.473 51.4685 79.3032 51.6931C79.2289 51.7894 79.3304 51.8317 79.6076 51.82L79.8636 51.803ZM96.8162 45.4521C97.1691 45.7175 97.1599 46.1122 96.7885 46.6363C96.4172 47.1603 96.0817 47.3002 95.7821 47.056C95.814 47.0345 95.5681 46.8701 95.0443 46.5627C94.5311 46.2446 94.2158 46.0698 94.0983 46.0382C93.7243 45.8583 93.7124 45.533 94.0627 45.0623C94.4129 44.581 94.8284 44.4462 95.3092 44.6577C96.0569 44.9323 96.5592 45.1971 96.8162 45.4521ZM96.1756 49.6145C96.5499 49.8798 96.5514 50.2798 96.18 50.8145C95.8193 51.3492 95.4732 51.4838 95.1415 51.2184C94.9059 50.9633 94.3768 50.6666 93.5542 50.3283C93.0627 50.0954 92.9867 49.7384 93.3262 49.2571C93.6658 48.7758 94.0759 48.625 94.5566 48.8045C95.3255 49.047 95.8651 49.317 96.1756 49.6145ZM95.0697 53.4267C95.2599 52.9353 95.6116 52.87 96.125 53.2308C96.649 53.5915 96.8265 54.0015 96.6576 54.4608C96.1929 55.7212 95.643 57.0139 95.0079 58.3389C94.8281 58.7556 94.4442 58.7837 93.8562 58.4232C93.2789 58.0627 93.0856 57.7061 93.2762 57.3533C93.9333 56.1882 94.5311 54.8793 95.0697 53.4267ZM104.449 49.9039L102.385 49.9115L102.387 50.4075C102.388 50.6849 102.527 50.823 102.804 50.822L104.036 50.8174C104.313 50.8164 104.452 50.6772 104.451 50.3999L104.449 49.9039ZM100.705 49.9178L99.4247 49.9225C99.44 54.0505 98.9174 56.9431 97.8569 58.6004C97.698 58.889 97.3513 58.8849 96.8169 58.5882C96.2824 58.2915 96.0947 58.0042 96.2537 57.7263C97.1869 56.2722 97.6466 53.6625 97.6326 49.8972L97.6194 46.3292C97.6175 45.8172 97.8726 45.5602 98.3846 45.5583L101.937 45.5452L101.759 45.0658C101.619 44.661 101.847 44.3935 102.444 44.2633C103.041 44.1224 103.414 44.2543 103.565 44.6591L103.921 45.5378L106.977 45.5265C107.414 45.5249 107.633 45.7907 107.635 46.324C107.637 46.8467 107.42 47.1089 106.982 47.1105L99.8304 47.137C99.5531 47.138 99.4149 47.2772 99.416 47.5545L99.4192 48.4345L100.699 48.4298L100.698 48.0778C100.696 47.6404 100.973 47.4208 101.527 47.4187C102.093 47.4166 102.376 47.6342 102.378 48.0715L102.379 48.4235L104.443 48.4159L104.442 48.0639C104.44 47.6266 104.733 47.4068 105.319 47.4046C105.906 47.4025 106.2 47.62 106.202 48.0574L106.203 48.4094L106.939 48.4066C107.377 48.405 107.596 48.6549 107.598 49.1562C107.6 49.6469 107.382 49.893 106.945 49.8946L106.209 49.8974L106.215 51.4974C106.216 51.9987 105.961 52.2503 105.449 52.2522L101.481 52.2669C100.969 52.2688 100.713 52.0191 100.711 51.5178L100.705 49.9178ZM104.514 54.6877C104.695 54.463 104.647 54.3512 104.369 54.3522L102.657 54.3586C102.38 54.3596 102.322 54.4665 102.482 54.6792C102.643 54.9239 102.975 55.2374 103.478 55.6195C103.989 55.255 104.334 54.9443 104.514 54.6877ZM105.483 52.7801C105.921 52.7784 106.332 52.8623 106.716 53.0315C107.101 53.2007 107.203 53.4937 107.024 53.9104C106.717 54.7755 106.054 55.658 105.033 56.5578C105.942 56.9597 106.705 57.2076 107.324 57.3013C107.783 57.3849 107.822 57.6888 107.44 58.2129C107.058 58.7476 106.626 58.9519 106.146 58.8257C105.26 58.6369 104.48 58.3305 103.806 57.9063C103.55 57.7579 103.288 57.7536 103.022 57.8932C102.245 58.3334 101.351 58.6674 100.338 58.8952C99.8691 59.0143 99.4791 58.8184 99.1678 58.3075C98.8673 57.7966 98.9462 57.4977 99.4045 57.4106C100.172 57.2691 101.019 56.9833 101.945 56.5532C101.282 55.9157 100.73 55.187 100.289 54.3673C99.8732 54.3689 99.6643 54.1243 99.6625 53.6337C99.6606 53.1323 99.8784 52.8808 100.316 52.8792L105.483 52.7801ZM109.776 53.9482C109.338 53.9498 109.119 53.6733 109.117 53.1186C109.115 52.5533 109.332 52.2698 109.77 52.2682L112.825 52.2569C113.263 52.2552 113.483 52.5371 113.485 53.1024C113.487 53.6571 113.269 53.9352 112.832 53.9368L109.776 53.9482ZM116.239 57.6682C115.802 57.6699 115.582 57.356 115.58 56.7267C115.578 56.0867 115.795 55.7659 116.232 55.7643L118.12 55.7573L118.094 48.6853C118.093 48.408 117.959 48.2698 117.693 48.2708L116.605 48.2748C116.167 48.2764 115.948 48.0373 115.946 47.5573C115.944 47.0666 116.178 46.7671 116.647 46.6587C117.286 46.5496 117.968 46.2644 118.691 45.8031L119.667 45.7994C120.179 45.7976 120.436 46.0526 120.438 46.5646L120.472 55.7485L122.04 55.7427C122.478 55.7411 122.698 56.0603 122.7 56.7003C122.702 57.3296 122.485 57.6451 122.047 57.6467L116.239 57.6682Z" fill="black" fill-opacity="0.85"/>
</g>
<defs>
<radialGradient id="paint0_radial_2308_7004" cx="0" cy="0" r="1" gradientUnits="userSpaceOnUse" gradientTransform="translate(0.560609 46.8353) rotate(65.4889) scale(3.32531 8.21233)">
<stop offset="0.33" stop-opacity="0"/>
<stop offset="0.655" stop-opacity="0.6"/>
<stop offset="1"/>
</radialGradient>
<radialGradient id="paint1_radial_2308_7004" cx="0" cy="0" r="1" gradientUnits="userSpaceOnUse" gradientTransform="translate(355.3 45.8572) rotate(114.511) scale(3.32531 8.21233)">
<stop offset="0.33" stop-opacity="0"/>
<stop offset="0.655" stop-opacity="0.6"/>
<stop offset="1"/>
</radialGradient>
<clipPath id="clip0_2308_7004">
<rect width="200" height="90" fill="white"/>
</clipPath>
</defs>
</svg>
