<svg width="200" height="90" viewBox="0 0 200 90" fill="none" xmlns="http://www.w3.org/2000/svg">
<g clip-path="url(#clip0_1720_1998)">
<rect width="200" height="90" fill="#FEB79D"/>
<path fill-rule="evenodd" clip-rule="evenodd" d="M-6.18027 85.5257C-5.5206 81.3514 -9.94765 77.2571 -7.65473 73.2393C-4.94813 68.4966 -1.65241 61.9915 7.77154 61.0783C17.9972 60.0873 23.5998 68.8258 33.9785 69.2048C45.8176 69.6371 56.5881 60.196 66.8872 63.2371C76.2425 65.9996 70.121 74.0119 68.9752 79.5387C68.1676 83.4341 61.5364 86.4306 61.2669 90.3457C60.8502 96.3973 75.7689 103.853 67.0229 107.895C58.3557 111.9 45.7383 103.802 34.2527 102.83C27.3162 102.243 20.5655 103.925 13.6182 103.373C4.65786 102.66 -7.2514 103.227 -11.7526 99.1698C-16.3208 95.0519 -6.92748 90.2539 -6.18027 85.5257Z" fill="#FE585B"/>
<path fill-rule="evenodd" clip-rule="evenodd" d="M28.4743 10.5302C32.6486 10.8717 36.7429 8.58004 40.7607 9.76696C45.5034 11.168 52.0085 12.874 52.9217 17.7523C53.9127 23.0456 45.1742 25.9458 44.7952 31.3183C44.3629 37.4467 53.804 43.0221 50.7629 48.3534C48.0004 53.1961 39.9881 50.0274 34.4613 49.4342C30.5659 49.0162 27.5694 45.5836 23.6543 45.444C17.6027 45.2284 10.1469 52.9509 6.10508 48.4236C2.09968 43.9371 10.1975 37.4057 11.1701 31.4602C11.7575 27.8695 10.0747 24.3751 10.6274 20.7788C11.3402 16.1405 10.7727 9.97575 14.8302 7.64571C18.9481 5.281 23.7461 10.1434 28.4743 10.5302Z" fill="#FC7443"/>
<path fill-rule="evenodd" clip-rule="evenodd" d="M173.474 4.53021C177.649 4.87169 181.743 2.58004 185.761 3.76696C190.503 5.16803 197.008 6.87405 197.922 11.7523C198.913 17.0456 190.174 19.9458 189.795 25.3183C189.363 31.4467 198.804 37.0221 195.763 42.3534C193 47.1961 184.988 44.0274 179.461 43.4342C175.566 43.0162 172.569 39.5836 168.654 39.444C162.603 39.2284 155.147 46.9509 151.105 42.4236C147.1 37.9371 155.198 31.4057 156.17 25.4602C156.757 21.8695 155.075 18.3751 155.627 14.7788C156.34 10.1405 155.773 3.97575 159.83 1.64571C163.948 -0.719004 168.746 4.14342 173.474 4.53021Z" fill="#FF8787"/>
<path fill-rule="evenodd" clip-rule="evenodd" d="M117.063 7.20494C131.49 7.9797 144.155 11.9054 154.996 17.5775C166.733 23.7188 176.896 30.8598 179.688 39.9711C183.097 51.0949 184.354 63.7453 171.749 72.2549C158.691 81.0707 136.857 81.4742 117.063 82.2497C95.2362 83.1048 71.8992 84.7511 54.6033 76.8446C35.6156 68.1646 20.8565 53.9771 24.5773 39.9711C28.0889 26.7526 52.1053 19.9805 71.5388 13.0955C85.3864 8.18958 100.98 6.34119 117.063 7.20494Z" fill="#FFAB7A"/>
<ellipse cx="177.987" cy="70.7269" rx="16.7876" ry="14.0511" fill="#F55A57"/>
<ellipse cx="173.711" cy="65.6395" rx="1.21537" ry="2.15126" fill="black"/>
<ellipse cx="182.286" cy="65.6395" rx="1.21537" ry="2.15126" fill="black"/>
<path d="M173.043 72.6445C173.079 74.5722 175.312 76.0937 178.031 76.0428C180.749 75.9919 182.924 74.388 182.888 72.4603C182.852 70.5326 180.67 71.7825 177.952 71.8334C175.233 71.8843 173.007 70.7168 173.043 72.6445Z" fill="black"/>
<path d="M170.796 50.9035C173.677 48.6452 180.1 51.1915 180.1 55.0219C180.101 59.542 168.086 61.6232 165.801 61.9782C165.552 62.0169 165.303 62.044 165.054 62.039C163.425 62.0062 157.615 61.2375 170.796 50.9035Z" fill="#6E5232"/>
<path d="M170.796 50.9035C173.677 48.6452 180.1 51.1915 180.1 55.0219C180.101 59.542 168.086 61.6232 165.801 61.9782C165.552 62.0169 165.303 62.044 165.054 62.039C163.425 62.0062 157.615 61.2375 170.796 50.9035Z" fill="url(#paint0_radial_1720_1998)" fill-opacity="0.15"/>
<path d="M185.2 50.7629C182.319 48.5045 175.896 51.0509 175.896 54.8813C175.896 59.4014 187.91 61.4825 190.195 61.8375C190.445 61.8763 190.693 61.9034 190.942 61.8984C192.571 61.8656 198.381 61.0968 185.2 50.7629Z" fill="#6E5232"/>
<path d="M185.2 50.7629C182.319 48.5045 175.896 51.0509 175.896 54.8813C175.896 59.4014 187.91 61.4825 190.195 61.8375C190.445 61.8763 190.693 61.9034 190.942 61.8984C192.571 61.8656 198.381 61.0968 185.2 50.7629Z" fill="url(#paint1_radial_1720_1998)" fill-opacity="0.15"/>
<path d="M79.6265 37.0971C79.4466 37.1244 79.2898 37.095 79.1562 37.0088C79.0225 36.9293 78.9387 36.803 78.9048 36.6298C78.8775 36.4565 78.9136 36.3131 79.0132 36.1993C79.1128 36.0856 79.2458 36.0152 79.4124 35.9879C79.5923 35.9539 79.7955 35.9131 80.0219 35.8656C80.2551 35.8181 80.5016 35.7705 80.7614 35.7229L80.7571 34.5629C80.4976 34.7038 80.2348 34.8348 79.9686 34.9558C79.709 35.0701 79.4527 35.1744 79.1997 35.2687C79.0066 35.336 78.84 35.3433 78.6998 35.2905C78.5596 35.2377 78.4559 35.1314 78.3886 34.9717C78.3348 34.8319 78.3376 34.6952 78.3971 34.5616C78.4566 34.4214 78.5829 34.3176 78.7759 34.2502C79.3685 34.048 79.921 33.8093 80.4333 33.5341C80.9523 33.2521 81.4045 32.9471 81.7899 32.619L78.7999 32.6301C78.6666 32.6306 78.5531 32.5844 78.4594 32.4914C78.3657 32.3984 78.3187 32.2852 78.3182 32.1519C78.3177 32.0186 78.3639 31.9051 78.4569 31.8114C78.5499 31.7177 78.6631 31.6706 78.7964 31.6701L82.3864 31.6568L82.3844 31.1168L79.9344 31.1259C79.8077 31.1264 79.6975 31.0801 79.6039 30.9871C79.5102 30.8941 79.4631 30.7843 79.4626 30.6576C79.4622 30.531 79.5084 30.4241 79.6014 30.3371C79.6944 30.2434 79.8043 30.1964 79.9309 30.1959L82.3809 30.1868L82.379 29.6668L79.139 29.6788C79.0123 29.6793 78.9022 29.633 78.8085 29.5401C78.7148 29.4471 78.6677 29.3372 78.6673 29.2106C78.6668 29.0772 78.713 28.9671 78.806 28.8801C78.899 28.7864 79.0089 28.7393 79.1355 28.7388L82.3755 28.7268L82.3742 28.3768C82.3735 28.1902 82.433 28.0433 82.5526 27.9362C82.6721 27.8224 82.8153 27.7652 82.9819 27.7646C83.1553 27.7639 83.2988 27.8201 83.4126 27.933C83.533 28.0392 83.5935 28.1856 83.5942 28.3723L83.5955 28.7223L86.8055 28.7104C86.9388 28.7099 87.049 28.7562 87.136 28.8492C87.2296 28.9355 87.2767 29.0453 87.2772 29.1787C87.2777 29.3053 87.2314 29.4155 87.1384 29.5092C87.0521 29.6028 86.9423 29.6499 86.809 29.6504L83.599 29.6623L83.6009 30.1823L86.0509 30.1732C86.1842 30.1727 86.2944 30.219 86.3814 30.312C86.4684 30.3983 86.5121 30.5048 86.5126 30.6315C86.5131 30.7582 86.4701 30.8683 86.3838 30.962C86.2975 31.0556 86.1877 31.1027 86.0543 31.1032L83.6044 31.1123L83.6064 31.6523L87.1463 31.6392C87.2797 31.6387 87.3932 31.6849 87.4868 31.7779C87.5805 31.8709 87.6276 31.9841 87.6281 32.1174C87.6286 32.2507 87.5824 32.3642 87.4894 32.4579C87.3964 32.5516 87.2832 32.5987 87.1499 32.5992L83.7899 32.6116C83.9174 32.8378 84.0516 33.0573 84.1924 33.2701C84.3398 33.4763 84.4905 33.6724 84.6445 33.8585C84.8042 33.7579 84.9771 33.6439 85.1633 33.5165C85.3561 33.3892 85.5357 33.2652 85.7019 33.1445C85.8748 33.0239 86.0078 32.9267 86.1008 32.8531C86.2204 32.7526 86.3603 32.7054 86.5203 32.7115C86.687 32.7109 86.8172 32.7771 86.911 32.9101C87.0048 33.0364 87.0453 33.1729 87.0326 33.3196C87.0198 33.4663 86.9535 33.5866 86.8339 33.6803C86.6743 33.8009 86.4549 33.9517 86.1756 34.1328C85.9029 34.3071 85.6401 34.4681 85.3873 34.6157C85.6616 34.8614 85.9524 35.087 86.2599 35.2925C86.5739 35.4913 86.9013 35.6768 87.2419 35.8488C87.3755 35.915 87.4693 36.0247 87.5232 36.1778C87.577 36.3243 87.5643 36.4743 87.4848 36.628C87.3988 36.7949 87.2658 36.8954 87.0859 36.9294C86.9061 36.9634 86.7326 36.9374 86.5656 36.8514C85.7641 36.4277 85.0387 35.8903 84.3897 35.2394C83.7405 34.5818 83.2278 33.8504 82.8515 33.0451C82.5725 33.3128 82.2635 33.5739 81.9244 33.8285L81.9305 35.4785C82.2103 35.4242 82.4735 35.3699 82.7199 35.3156C82.973 35.2547 83.1895 35.2005 83.3693 35.1532C83.5358 35.1126 83.6825 35.122 83.8094 35.1816C83.9363 35.2411 84.0167 35.3475 84.0506 35.5007C84.098 35.6805 84.0785 35.8272 83.9923 35.9409C83.906 36.0479 83.7863 36.1217 83.6331 36.1622C83.3867 36.2298 83.0969 36.3042 82.7639 36.3854C82.4309 36.4733 82.0779 36.5613 81.7049 36.6494C81.3385 36.7374 80.9755 36.8187 80.6158 36.8934C80.256 36.9681 79.9263 37.036 79.6265 37.0971ZM92.3153 34.04C92.1622 34.1139 92.0056 34.1378 91.8455 34.1118C91.6921 34.079 91.5751 33.9861 91.4945 33.8331C91.4273 33.7 91.4135 33.5634 91.453 33.4232C91.4991 33.2764 91.592 33.1694 91.7318 33.1022C92.1178 32.9141 92.5036 32.6927 92.8893 32.4379C93.2817 32.1764 93.644 31.8984 93.9762 31.6039C93.849 31.4577 93.7285 31.3114 93.6146 31.1652C93.5007 31.0123 93.3901 30.8527 93.2828 30.6864C93.0972 30.9538 92.9081 31.1945 92.7155 31.4085C92.6093 31.5223 92.4762 31.5927 92.3163 31.62C92.163 31.6406 92.0296 31.6044 91.9159 31.5115C91.8089 31.4186 91.7484 31.2954 91.7345 31.1422C91.7206 30.9889 91.7668 30.8587 91.8731 30.7516C92.0923 30.5375 92.3047 30.28 92.5102 29.9793C92.7224 29.6718 92.9179 29.3544 93.0967 29.0271C93.2821 28.6931 93.4376 28.3825 93.5632 28.0954C93.6294 27.9484 93.7323 27.8447 93.8721 27.7842C94.0119 27.7237 94.1552 27.7232 94.3021 27.7826C94.449 27.8421 94.546 27.9451 94.5932 28.0915C94.6471 28.238 94.641 28.378 94.5748 28.5116C94.5483 28.565 94.5185 28.6252 94.4855 28.6919C94.459 28.752 94.4292 28.8122 94.3961 28.8723L95.5961 28.8678C95.9028 28.8667 96.143 28.9391 96.3169 29.0852C96.4908 29.2245 96.5914 29.4041 96.6189 29.624C96.6464 29.8373 96.5905 30.0608 96.4514 30.2947C96.3256 30.5218 96.1864 30.739 96.0338 30.9462C95.8879 31.1534 95.732 31.354 95.566 31.548C95.8736 31.7735 96.1943 31.9823 96.5284 32.1744C96.8624 32.3665 97.2031 32.5386 97.5503 32.6906C97.6905 32.7568 97.7876 32.8697 97.8416 33.0295C97.8955 33.1827 97.886 33.336 97.8133 33.4896C97.7272 33.6566 97.5943 33.7605 97.4144 33.8011C97.2412 33.8351 97.0678 33.8091 96.8941 33.7231C96.5268 33.5377 96.1627 33.3324 95.8018 33.1071C95.441 32.8818 95.0967 32.6364 94.7691 32.3709C94.4169 32.6922 94.0347 32.9936 93.6224 33.2752C93.2101 33.55 92.7744 33.805 92.3153 34.04ZM90.3864 37.0472C90.2331 37.0478 90.1029 36.9982 89.9958 36.8986C89.8955 36.799 89.845 36.6659 89.8444 36.4992L89.8316 33.0592C89.7257 33.2663 89.6231 33.46 89.5238 33.6404C89.4244 33.8207 89.3317 33.9778 89.2455 34.1114C89.1593 34.2451 89.0397 34.3322 88.8865 34.3727C88.74 34.4133 88.5999 34.3905 88.4662 34.3043C88.3393 34.2314 88.2589 34.1217 88.225 33.9752C88.1911 33.8286 88.2173 33.6952 88.3035 33.5749C88.4295 33.3944 88.5654 33.1773 88.7111 32.9234C88.8568 32.6695 89.0025 32.4056 89.1482 32.1318C89.2938 31.8512 89.4261 31.5807 89.5452 31.3203C89.6642 31.0532 89.7566 30.8195 89.8226 30.6192L88.8126 30.623C88.6526 30.6236 88.5257 30.5741 88.432 30.4744C88.3383 30.3681 88.2912 30.2449 88.2906 30.1049C88.2901 29.9583 88.3363 29.8347 88.4293 29.7344C88.5222 29.6341 88.6487 29.5836 88.8087 29.583L89.8187 29.5793L89.814 28.2993C89.8133 28.1259 89.8628 27.9924 89.9625 27.8987C90.0688 27.7983 90.1986 27.7478 90.3519 27.7473C90.5053 27.7467 90.6354 27.7962 90.7425 27.8958C90.8495 27.9888 90.9033 28.1219 90.904 28.2952L90.9087 29.5752L91.7087 29.5722C91.8687 29.5717 91.9955 29.6212 92.0893 29.7208C92.183 29.8205 92.2301 29.9436 92.2306 30.0903C92.2311 30.2303 92.1849 30.3538 92.092 30.4608C91.999 30.5612 91.8726 30.6116 91.7126 30.6122L90.9126 30.6152L90.9133 30.8052C91.007 30.9182 91.1209 31.0578 91.2548 31.2239C91.3887 31.3834 91.5227 31.5429 91.6566 31.7025C91.7972 31.8553 91.911 31.9782 91.998 32.0712C92.1117 32.1774 92.1655 32.3106 92.1594 32.4706C92.16 32.6239 92.1038 32.7541 91.9909 32.8612C91.878 32.9683 91.7448 33.0155 91.5914 33.0027C91.438 32.9899 91.3111 32.9271 91.2107 32.8141C91.1705 32.7676 91.1237 32.7144 91.0701 32.6546C91.0232 32.5881 90.973 32.5217 90.9194 32.4552L90.9344 36.4952C90.935 36.6618 90.8821 36.7954 90.7758 36.8958C90.6695 36.9961 90.5397 37.0466 90.3864 37.0472ZM94.6756 36.8313C94.1356 36.8333 93.7088 36.7815 93.395 36.676C93.0813 36.5772 92.8574 36.4047 92.7231 36.1585C92.5955 35.9057 92.5309 35.5559 92.5292 35.1092C92.5276 34.6626 92.5896 34.3157 92.7154 34.0685C92.8478 33.8147 93.0704 33.6372 93.3834 33.5361C93.6963 33.4282 94.1228 33.3733 94.6628 33.3713C95.2028 33.3693 95.6263 33.4211 95.9334 33.5266C96.2471 33.6255 96.4677 33.8013 96.5953 34.0542C96.7296 34.3003 96.7975 34.6468 96.7992 35.0934C96.8009 35.5401 96.7355 35.8903 96.6031 36.1442C96.4773 36.3913 96.258 36.5654 95.945 36.6666C95.6388 36.7744 95.2156 36.8293 94.6756 36.8313ZM94.6719 35.8213C94.9519 35.8203 95.1618 35.8028 95.3017 35.769C95.4482 35.7284 95.5446 35.6547 95.5909 35.5479C95.6438 35.441 95.6699 35.2876 95.6692 35.0876C95.6685 34.8943 95.6412 34.7477 95.5875 34.6479C95.5405 34.5481 95.4436 34.4784 95.2968 34.439C95.1566 34.3995 94.9465 34.3803 94.6665 34.3813C94.3865 34.3824 94.1733 34.4031 94.0268 34.4437C93.8869 34.4842 93.7905 34.5579 93.7376 34.6648C93.6846 34.765 93.6585 34.9051 93.6591 35.0851C93.6599 35.2851 93.6871 35.4383 93.7408 35.5448C93.7946 35.6512 93.8915 35.7242 94.0317 35.7637C94.1785 35.8031 94.3919 35.8223 94.6719 35.8213ZM94.7433 30.821C94.9226 30.607 95.0751 30.3998 95.201 30.1993C95.3667 29.932 95.2896 29.799 94.9696 29.8002L93.9496 29.8039C94.1776 30.1698 94.4422 30.5088 94.7433 30.821ZM106.416 36.8878C106.176 36.802 105.905 36.6863 105.605 36.5408C105.304 36.3952 105.007 36.233 104.713 36.0541C104.419 35.8752 104.158 35.6995 103.931 35.527C103.811 35.4341 103.74 35.3177 103.72 35.1778C103.706 35.0311 103.742 34.901 103.828 34.7874C103.901 34.7004 103.981 34.6435 104.067 34.6165L101.987 34.6242C102.028 34.644 102.068 34.6672 102.108 34.6937C102.148 34.7203 102.181 34.7535 102.208 34.7934C102.302 34.9197 102.332 35.0529 102.3 35.193C102.273 35.3265 102.207 35.4367 102.101 35.5238C101.901 35.6845 101.659 35.8521 101.373 36.0265C101.087 36.2009 100.791 36.362 100.484 36.5098C100.185 36.6575 99.9088 36.7819 99.6558 36.8828C99.4628 36.9569 99.2895 36.9742 99.136 36.9348C98.9826 36.902 98.8689 36.8024 98.7949 36.636C98.7277 36.4829 98.7238 36.3363 98.7833 36.1961C98.8428 36.0558 98.9591 35.9554 99.1322 35.8948C99.3852 35.8005 99.6514 35.6895 99.931 35.5618C100.217 35.4274 100.49 35.2897 100.749 35.1488C101.009 35.0011 101.232 34.8603 101.418 34.7263C101.444 34.7062 101.471 34.6894 101.498 34.676C101.531 34.6559 101.561 34.6391 101.587 34.6257L98.8575 34.6358C98.7175 34.6363 98.5973 34.5901 98.497 34.4971C98.4033 34.3975 98.3562 34.281 98.3557 34.1476C98.3552 34.0076 98.4014 33.8908 98.4944 33.7971C98.594 33.6968 98.7138 33.6463 98.8538 33.6458L99.2338 33.6444L99.1394 29.7547C99.1316 29.4547 99.1541 29.2146 99.2068 29.0345C99.2661 28.8476 99.3755 28.7005 99.5351 28.5932C99.6947 28.4793 99.9244 28.3851 100.224 28.3107C100.337 28.2769 100.451 28.2465 100.564 28.2194C100.684 28.1856 100.8 28.1519 100.913 28.1181C101.04 28.0843 101.16 28.0905 101.273 28.1368C101.387 28.1764 101.464 28.2627 101.504 28.3959C101.552 28.5424 101.545 28.6691 101.486 28.776C101.433 28.8762 101.34 28.9432 101.207 28.977C101.12 29.004 101.027 29.0344 100.927 29.0681C100.827 29.0951 100.74 29.1154 100.667 29.129C100.461 29.1831 100.331 29.247 100.278 29.3205C100.225 29.3873 100.202 29.5241 100.209 29.7307L100.21 30.0407L100.99 30.0378C101.124 30.0374 101.234 30.0803 101.321 30.1666C101.415 30.2529 101.462 30.3628 101.462 30.4961C101.463 30.6228 101.416 30.7329 101.323 30.8266C101.237 30.9136 101.127 30.9573 100.994 30.9578L100.234 30.9607L100.257 31.8206L100.997 31.8178C101.13 31.8173 101.241 31.8603 101.328 31.9466C101.421 32.0329 101.468 32.1428 101.469 32.2761C101.469 32.4028 101.423 32.5129 101.33 32.6066C101.244 32.6936 101.134 32.7373 101 32.7378L100.28 32.7405L100.304 33.6404L101.794 33.6349L101.787 31.9149C101.787 31.7749 101.833 31.6647 101.926 31.5844C102.019 31.4974 102.129 31.4536 102.256 31.4532C102.389 31.4527 102.499 31.4956 102.586 31.5819C102.68 31.6616 102.727 31.7714 102.727 31.9114L102.734 33.6314L103.284 33.6294L103.276 31.6394C103.276 31.4461 103.249 31.3228 103.195 31.2697C103.148 31.2099 103.018 31.1803 102.805 31.1811C102.425 31.1825 102.158 31.1135 102.004 30.9741C101.857 30.828 101.782 30.5582 101.781 30.1649L101.774 28.3349C101.774 28.1816 101.823 28.0581 101.923 27.9644C102.022 27.8707 102.142 27.8236 102.282 27.823C102.422 27.8225 102.542 27.8687 102.643 27.9617C102.75 28.0546 102.804 28.1778 102.804 28.3311L102.806 28.7711L103.846 28.7673C103.966 28.7668 104.069 28.8098 104.156 28.8961C104.243 28.9758 104.287 29.0756 104.287 29.1956C104.288 29.3156 104.245 29.4191 104.159 29.5061C104.072 29.5931 103.969 29.6368 103.849 29.6372L102.809 29.6411L102.81 29.9411C102.811 30.1211 102.845 30.2376 102.911 30.2907C102.978 30.3371 103.108 30.36 103.302 30.3593C103.615 30.3581 103.845 30.4373 103.993 30.5967C104.146 30.7495 104.224 31.0159 104.226 31.3959L104.234 33.6258L105.684 33.6205L105.701 32.7304L104.951 32.7332C104.824 32.7337 104.714 32.6874 104.62 32.5944C104.533 32.5014 104.489 32.3916 104.489 32.2649C104.488 32.1382 104.531 32.0314 104.618 31.9444C104.711 31.8507 104.82 31.8037 104.947 31.8032L105.717 31.8003L105.724 30.9403L104.944 30.9432C104.817 30.9437 104.707 30.9007 104.613 30.8144C104.526 30.7214 104.483 30.6116 104.482 30.4849C104.482 30.3516 104.525 30.2414 104.611 30.1544C104.704 30.0674 104.814 30.0237 104.94 30.0232L105.74 30.0202L105.749 29.7102C105.755 29.4968 105.721 29.357 105.648 29.2906C105.574 29.2175 105.431 29.1814 105.217 29.1822L104.747 29.1839C104.621 29.1844 104.511 29.1381 104.417 29.0451C104.323 28.9522 104.276 28.8423 104.276 28.7157C104.275 28.5823 104.321 28.4688 104.414 28.3751C104.507 28.2815 104.617 28.2344 104.744 28.2339L105.284 28.2319C105.69 28.2304 106.004 28.2759 106.224 28.3684C106.451 28.4543 106.609 28.6037 106.696 28.8167C106.783 29.0297 106.821 29.3229 106.809 29.6963L106.744 33.6165L107.144 33.6151C107.284 33.6145 107.401 33.6641 107.494 33.7638C107.595 33.8567 107.645 33.9732 107.646 34.1132C107.646 34.2465 107.597 34.3634 107.497 34.4638C107.404 34.5574 107.287 34.6045 107.147 34.6051L104.397 34.6152C104.431 34.6218 104.464 34.635 104.498 34.6549C104.538 34.6747 104.571 34.6946 104.598 34.7145C104.798 34.8538 105.036 34.9996 105.309 35.1519C105.583 35.2975 105.864 35.4365 106.151 35.5688C106.445 35.6943 106.705 35.7967 106.932 35.8759C107.086 35.922 107.189 36.0116 107.243 36.1447C107.304 36.2845 107.308 36.4278 107.255 36.5747C107.189 36.7616 107.073 36.872 106.906 36.906C106.746 36.9466 106.583 36.9405 106.416 36.8878ZM109.626 36.9859C109.446 37.0132 109.29 36.9838 109.156 36.8976C109.022 36.8181 108.939 36.6918 108.905 36.5186C108.877 36.3453 108.913 36.2019 109.013 36.0882C109.113 35.9744 109.246 35.904 109.412 35.8767C109.592 35.8427 109.795 35.8019 110.022 35.7544C110.255 35.7069 110.501 35.6593 110.761 35.6117L110.757 34.4517C110.497 34.5926 110.235 34.7236 109.968 34.8446C109.709 34.9589 109.453 35.0632 109.2 35.1575C109.006 35.2248 108.84 35.2321 108.7 35.1793C108.559 35.1265 108.456 35.0202 108.388 34.8605C108.335 34.7207 108.337 34.584 108.397 34.4504C108.456 34.3102 108.583 34.2064 108.776 34.139C109.368 33.9368 109.921 33.6981 110.433 33.4229C110.952 33.1409 111.404 32.8359 111.79 32.5078L108.8 32.5189C108.666 32.5194 108.553 32.4732 108.459 32.3802C108.366 32.2872 108.318 32.174 108.318 32.0407C108.317 31.9074 108.364 31.7939 108.457 31.7002C108.55 31.6065 108.663 31.5594 108.796 31.5589L112.386 31.5456L112.384 31.0056L109.934 31.0147C109.808 31.0152 109.697 30.9689 109.604 30.8759C109.51 30.7829 109.463 30.6731 109.462 30.5464C109.462 30.4198 109.508 30.3129 109.601 30.2259C109.694 30.1323 109.804 30.0852 109.931 30.0847L112.381 30.0756L112.379 29.5556L109.139 29.5676C109.012 29.5681 108.902 29.5219 108.808 29.4289C108.715 29.3359 108.668 29.2261 108.667 29.0994C108.667 28.9661 108.713 28.8559 108.806 28.7689C108.899 28.6752 109.009 28.6281 109.135 28.6276L112.375 28.6156L112.374 28.2656C112.373 28.079 112.433 27.9321 112.552 27.825C112.672 27.7112 112.815 27.654 112.982 27.6534C113.155 27.6527 113.299 27.7089 113.412 27.8218C113.533 27.928 113.593 28.0745 113.594 28.2611L113.595 28.6111L116.805 28.5992C116.939 28.5987 117.049 28.645 117.136 28.738C117.229 28.8243 117.277 28.9341 117.277 29.0675C117.277 29.1941 117.231 29.3043 117.138 29.398C117.052 29.4916 116.942 29.5387 116.809 29.5392L113.599 29.5511L113.601 30.0711L116.051 30.062C116.184 30.0615 116.294 30.1078 116.381 30.2008C116.468 30.2871 116.512 30.3937 116.512 30.5203C116.513 30.647 116.47 30.7571 116.384 30.8508C116.297 30.9444 116.187 30.9915 116.054 30.992L113.604 31.0011L113.606 31.5411L117.146 31.528C117.279 31.5275 117.393 31.5737 117.487 31.6667C117.58 31.7597 117.627 31.8729 117.628 32.0062C117.628 32.1395 117.582 32.253 117.489 32.3467C117.396 32.4404 117.283 32.4875 117.15 32.488L113.79 32.5004C113.917 32.7266 114.051 32.9461 114.192 33.1589C114.34 33.3651 114.49 33.5612 114.644 33.7473C114.804 33.6467 114.977 33.5327 115.163 33.4053C115.356 33.278 115.535 33.154 115.702 33.0333C115.875 32.9127 116.008 32.8155 116.101 32.7419C116.22 32.6414 116.36 32.5942 116.52 32.6003C116.687 32.5997 116.817 32.6659 116.911 32.7989C117.005 32.9252 117.045 33.0617 117.032 33.2084C117.02 33.3551 116.953 33.4754 116.834 33.5691C116.674 33.6897 116.455 33.8406 116.175 34.0216C115.903 34.1959 115.64 34.3569 115.387 34.5045C115.661 34.7502 115.952 34.9758 116.26 35.1813C116.574 35.3801 116.901 35.5656 117.242 35.7376C117.375 35.8038 117.469 35.9135 117.523 36.0666C117.577 36.2131 117.564 36.3631 117.485 36.5168C117.399 36.6837 117.266 36.7842 117.086 36.8182C116.906 36.8522 116.732 36.8262 116.565 36.7402C115.764 36.3165 115.039 35.7791 114.389 35.1282C113.74 34.4706 113.228 33.7392 112.851 32.9339C112.572 33.2016 112.263 33.4628 111.924 33.7173L111.93 35.3673C112.21 35.313 112.473 35.2587 112.72 35.2044C112.973 35.1435 113.189 35.0893 113.369 35.042C113.536 35.0014 113.682 35.0108 113.809 35.0704C113.936 35.1299 114.017 35.2363 114.05 35.3895C114.098 35.5693 114.078 35.716 113.992 35.8297C113.906 35.9367 113.786 36.0105 113.633 36.051C113.386 36.1186 113.097 36.193 112.764 36.2743C112.431 36.3622 112.078 36.4501 111.705 36.5382C111.338 36.6262 110.975 36.7075 110.616 36.7822C110.256 36.8569 109.926 36.9248 109.626 36.9859ZM123.017 37.0763C122.857 37.0768 122.717 37.024 122.596 36.9178C122.482 36.8116 122.425 36.6684 122.425 36.4884L122.421 35.5485L118.801 35.5619C118.654 35.5624 118.541 35.5195 118.461 35.4331C118.38 35.3401 118.34 35.2302 118.339 35.1036C118.339 34.9702 118.378 34.8601 118.458 34.7731C118.538 34.6862 118.651 34.6424 118.798 34.6419L122.418 34.6285L122.416 34.0885L121.706 34.0911C121.292 34.0926 120.956 34.0705 120.695 34.0248C120.435 33.9791 120.232 33.8932 120.084 33.7671C119.944 33.641 119.847 33.4613 119.792 33.2282C119.738 32.995 119.71 32.6951 119.709 32.3285C119.708 31.9618 119.733 31.6651 119.786 31.4382C119.838 31.2047 119.934 31.0243 120.074 30.8971C120.22 30.7699 120.423 30.6825 120.683 30.6349C120.943 30.5872 121.279 30.5626 121.693 30.5611L124.273 30.5516C124.686 30.55 125.023 30.5721 125.283 30.6178C125.543 30.6635 125.743 30.7494 125.884 30.8756C126.031 31.0017 126.132 31.1813 126.186 31.4145C126.24 31.6409 126.268 31.9375 126.269 32.3042C126.27 32.6708 126.245 32.9709 126.192 33.2045C126.14 33.438 126.041 33.6184 125.894 33.7456C125.755 33.8727 125.555 33.9602 125.295 34.0078C125.036 34.0554 124.699 34.08 124.286 34.0815L123.586 34.0841L123.588 34.6241L127.218 34.6107C127.364 34.6101 127.478 34.653 127.558 34.7394C127.638 34.8258 127.679 34.9356 127.679 35.069C127.68 35.1956 127.64 35.3058 127.561 35.3994C127.481 35.4864 127.368 35.5301 127.221 35.5307L123.591 35.5441L123.595 36.4841C123.595 36.6641 123.539 36.8076 123.426 36.9147C123.313 37.0218 123.177 37.0757 123.017 37.0763ZM125.031 30.1987C124.538 30.2006 124.164 30.1686 123.911 30.1029C123.657 30.0372 123.487 29.9178 123.4 29.7448C123.319 29.5717 123.278 29.3252 123.277 29.0052C123.276 28.6852 123.315 28.4384 123.394 28.2648C123.48 28.0911 123.65 27.9738 123.903 27.9129C124.156 27.8453 124.529 27.8106 125.022 27.8088C125.516 27.8069 125.886 27.8389 126.133 27.9046C126.386 27.9637 126.553 28.0797 126.634 28.2528C126.721 28.4258 126.766 28.6723 126.767 28.9923C126.768 29.3123 126.726 29.5591 126.64 29.7328C126.56 29.9064 126.394 30.027 126.141 30.0946C125.894 30.1622 125.525 30.1969 125.031 30.1987ZM120.931 30.2139C120.438 30.2158 120.064 30.1838 119.811 30.1181C119.564 30.0523 119.397 29.933 119.31 29.7599C119.229 29.5869 119.188 29.3404 119.187 29.0204C119.186 28.7004 119.225 28.4536 119.304 28.28C119.39 28.1063 119.556 27.989 119.803 27.9281C120.056 27.8605 120.429 27.8258 120.922 27.824C121.416 27.8221 121.786 27.8541 122.033 27.9198C122.28 27.9789 122.443 28.095 122.524 28.268C122.611 28.441 122.656 28.6875 122.657 29.0075C122.658 29.3275 122.616 29.5744 122.53 29.748C122.45 29.9216 122.287 30.0422 122.041 30.1098C121.794 30.1774 121.425 30.2121 120.931 30.2139ZM125.028 29.3887C125.315 29.3877 125.495 29.3637 125.568 29.3167C125.648 29.2698 125.687 29.163 125.687 28.9963C125.686 28.823 125.642 28.7165 125.556 28.6768C125.475 28.6371 125.299 28.6177 125.025 28.6187C124.739 28.6198 124.555 28.6438 124.476 28.6908C124.402 28.7377 124.366 28.8479 124.367 29.0212C124.367 29.1879 124.405 29.2911 124.478 29.3308C124.558 29.3705 124.742 29.3898 125.028 29.3887ZM120.928 29.4039C121.215 29.4029 121.395 29.3789 121.468 29.3319C121.541 29.285 121.577 29.1782 121.577 29.0115C121.576 28.8382 121.536 28.7317 121.456 28.692C121.375 28.6523 121.199 28.6329 120.925 28.6339C120.639 28.635 120.456 28.659 120.376 28.706C120.303 28.7529 120.266 28.8631 120.267 29.0364C120.268 29.2031 120.305 29.3063 120.378 29.346C120.458 29.3857 120.642 29.405 120.928 29.4039ZM121.743 33.2409L122.412 33.2385L122.411 32.7085L120.891 32.7141C120.905 32.9474 120.969 33.0938 121.082 33.1534C121.196 33.213 121.416 33.2422 121.743 33.2409ZM123.582 33.2341L124.252 33.2316C124.579 33.2304 124.796 33.1996 124.902 33.1392C125.015 33.0788 125.081 32.9319 125.101 32.6985L123.581 32.7041L123.582 33.2341ZM120.888 31.9241L122.408 31.9185L122.406 31.4085L121.736 31.411C121.409 31.4122 121.189 31.443 121.076 31.5034C120.97 31.5571 120.907 31.6974 120.888 31.9241ZM123.578 31.9141L125.088 31.9085C125.067 31.682 125 31.5422 124.886 31.4893C124.779 31.4297 124.566 31.4005 124.246 31.4017L123.576 31.4041L123.578 31.9141Z" fill="#FE585B"/>
<path d="M66.1673 58.9559C65.8795 58.9997 65.6286 58.9526 65.4148 58.8147C65.201 58.6875 65.0669 58.4853 65.0126 58.2082C64.9689 57.931 65.0267 57.7015 65.186 57.5196C65.3453 57.3376 65.5582 57.2248 65.8248 57.1812C66.1126 57.1268 66.4376 57.0616 66.8 56.9856C67.1731 56.9095 67.5675 56.8334 67.9832 56.7572L67.9763 54.9012C67.5611 55.1267 67.1406 55.3363 66.7146 55.5299C66.2993 55.7128 65.8893 55.8796 65.4845 56.0304C65.1755 56.1383 64.9089 56.1499 64.6846 56.0654C64.4603 55.9809 64.2943 55.8109 64.1867 55.5552C64.1005 55.3316 64.1051 55.1129 64.2003 54.8992C64.2955 54.6748 64.4975 54.5088 64.8064 54.4009C65.7546 54.0774 66.6385 53.6955 67.4582 53.2551C68.2885 52.804 69.0121 52.316 69.6288 51.7911L64.8448 51.8088C64.6315 51.8096 64.4499 51.7356 64.3 51.5868C64.1501 51.438 64.0748 51.257 64.074 51.0436C64.0732 50.8303 64.1472 50.6487 64.296 50.4988C64.4448 50.3489 64.6258 50.2736 64.8391 50.2728L70.5831 50.2515L70.5799 49.3875L66.6599 49.402C66.4573 49.4028 66.281 49.3288 66.1311 49.18C65.9812 49.0312 65.9059 48.8555 65.9051 48.6528C65.9044 48.4502 65.9784 48.2792 66.1272 48.14C66.276 47.9901 66.4517 47.9148 66.6544 47.914L70.5744 47.8995L70.5713 47.0675L65.3873 47.0867C65.1847 47.0875 65.0084 47.0135 64.8585 46.8647C64.7086 46.7159 64.6333 46.5402 64.6326 46.3375C64.6318 46.1242 64.7058 45.9479 64.8546 45.8087C65.0034 45.6588 65.1791 45.5835 65.3818 45.5827L70.5657 45.5635L70.5636 45.0035C70.5625 44.7049 70.6577 44.4699 70.849 44.2985C71.0404 44.1164 71.2694 44.0249 71.536 44.0239C71.8134 44.0229 72.043 44.1127 72.225 44.2934C72.4177 44.4633 72.5145 44.6976 72.5156 44.9963L72.5177 45.5563L77.6537 45.5373C77.867 45.5365 78.0433 45.6105 78.1825 45.7593C78.3323 45.8974 78.4077 46.0731 78.4085 46.2865C78.4092 46.4891 78.3352 46.6654 78.1864 46.8153C78.0483 46.9651 77.8726 47.0405 77.6592 47.0413L72.5233 47.0603L72.5264 47.8923L76.4463 47.8778C76.6597 47.877 76.8359 47.951 76.9752 48.0998C77.1143 48.2379 77.1843 48.4084 77.1851 48.611C77.1858 48.8137 77.1171 48.9899 76.979 49.1398C76.8409 49.2896 76.6652 49.365 76.4519 49.3657L72.5319 49.3803L72.5351 50.2443L78.199 50.2233C78.4124 50.2225 78.594 50.2965 78.7439 50.4453C78.8938 50.594 78.9691 50.7751 78.9699 50.9884C78.9707 51.2018 78.8967 51.3834 78.7479 51.5332C78.5991 51.6831 78.4181 51.7585 78.2047 51.7593L72.8288 51.7792C73.0328 52.1411 73.2474 52.4923 73.4727 52.8328C73.7086 53.1626 73.9497 53.4764 74.1962 53.7741C74.4516 53.6132 74.7282 53.4308 75.0262 53.2271C75.3347 53.0232 75.622 52.8248 75.888 52.6319C76.1646 52.4388 76.3773 52.2834 76.5262 52.1655C76.7176 52.0048 76.9414 51.9293 77.1974 51.939C77.4641 51.938 77.6725 52.0439 77.8226 52.2567C77.9727 52.4588 78.0375 52.6772 78.017 52.912C77.9965 53.1467 77.8906 53.3391 77.6991 53.4892C77.4439 53.6821 77.0928 53.9234 76.6458 54.2131C76.2095 54.492 75.7891 54.7496 75.3847 54.9857C75.8235 55.3788 76.2888 55.7397 76.7807 56.0686C77.2832 56.3867 77.807 56.6834 78.352 56.9588C78.5657 57.0646 78.7157 57.2401 78.802 57.4851C78.8882 57.7194 78.8677 57.9595 78.7406 58.2053C78.603 58.4725 78.3902 58.6333 78.1024 58.6877C77.8146 58.7421 77.5371 58.7005 77.27 58.5628C75.9874 57.8849 74.8269 57.0252 73.7884 55.9837C72.7498 54.9315 71.9294 53.7612 71.3273 52.4728C70.8809 52.9011 70.3865 53.3189 69.844 53.7263L69.8538 56.3662C70.3014 56.2793 70.7225 56.1924 71.1168 56.1056C71.5218 56.0081 71.8681 55.9214 72.1558 55.8457C72.4223 55.7807 72.657 55.7959 72.86 55.8911C73.063 55.9864 73.1917 56.1565 73.2459 56.4017C73.3216 56.6894 73.2905 56.9242 73.1525 57.106C73.0145 57.2772 72.8229 57.3953 72.5778 57.4602C72.1836 57.5683 71.72 57.6873 71.1871 57.8173C70.6543 57.958 70.0895 58.0987 69.4927 58.2396C68.9066 58.3804 68.3257 58.5106 67.7501 58.6301C67.1746 58.7495 66.647 58.8582 66.1673 58.9559ZM87.592 59.1005C87.336 59.1015 87.1117 59.017 86.9191 58.847C86.7371 58.677 86.6456 58.448 86.6445 58.16L86.6389 56.656L80.847 56.6775C80.6123 56.6784 80.4307 56.6097 80.3022 56.4715C80.1737 56.3227 80.109 56.1469 80.1083 55.9442C80.1075 55.7309 80.1708 55.5547 80.2983 55.4155C80.4258 55.2764 80.6069 55.2064 80.8415 55.2055L86.6335 55.184L86.6303 54.3201L85.4943 54.3243C84.833 54.3267 84.2942 54.2914 83.8779 54.2183C83.4616 54.1451 83.1358 54.0077 82.9004 53.8059C82.6756 53.604 82.5199 53.3166 82.4332 52.9436C82.3464 52.5706 82.302 52.0907 82.2998 51.5041C82.2976 50.9174 82.3386 50.4426 82.4225 50.0796C82.5065 49.706 82.6601 49.4174 82.8833 49.2139C83.1173 49.0104 83.4421 48.8705 83.8578 48.7943C84.2735 48.7181 84.812 48.6788 85.4734 48.6763L89.6013 48.661C90.2627 48.6585 90.8015 48.6939 91.2177 48.767C91.634 48.8401 91.9545 48.9776 92.1793 49.1794C92.4147 49.3812 92.5758 49.6686 92.6625 50.0417C92.7492 50.404 92.7936 50.8785 92.7958 51.4652C92.7979 52.0518 92.757 52.532 92.6731 52.9056C92.5891 53.2793 92.4302 53.5679 92.1963 53.7714C91.973 53.9749 91.6536 54.1148 91.2378 54.191C90.8221 54.2672 90.2836 54.3065 89.6223 54.309L88.5023 54.3131L88.5055 55.1771L94.3134 55.1556C94.5481 55.1547 94.7297 55.2234 94.8582 55.3616C94.9867 55.4998 95.0514 55.6755 95.0522 55.8888C95.0529 56.0915 94.9896 56.2677 94.8621 56.4176C94.7346 56.5567 94.5536 56.6267 94.3189 56.6276L88.5109 56.6491L88.5165 58.1531C88.5176 58.4411 88.4278 58.6708 88.2471 58.8421C88.0664 59.0134 87.848 59.0996 87.592 59.1005ZM90.8153 48.0965C90.0259 48.0994 89.4284 48.0483 89.0227 47.9431C88.6169 47.838 88.3442 47.647 88.2045 47.3702C88.0755 47.0933 88.0101 46.6989 88.0082 46.1869C88.0063 45.6749 88.0688 45.28 88.1958 45.0022C88.3334 44.7243 88.6047 44.5367 89.0097 44.4392C89.4146 44.331 90.0117 44.2754 90.8011 44.2725C91.5904 44.2696 92.1826 44.3207 92.5777 44.4259C92.9833 44.5204 93.2507 44.7061 93.3797 44.983C93.5194 45.2598 93.5902 45.6542 93.5921 46.1662C93.594 46.6782 93.5261 47.0731 93.3885 47.351C93.2615 47.6288 92.9956 47.8217 92.5906 47.9299C92.1964 48.038 91.6046 48.0936 90.8153 48.0965ZM84.2553 48.1208C83.466 48.1237 82.8684 48.0726 82.4627 47.9675C82.0677 47.8623 81.8003 47.6712 81.6606 47.3944C81.5316 47.1176 81.4661 46.7231 81.4642 46.2111C81.4623 45.6991 81.5248 45.3042 81.6518 45.0264C81.7894 44.7486 82.0554 44.5609 82.4497 44.4635C82.8547 44.3553 83.4518 44.2998 84.2411 44.2968C85.0304 44.2939 85.6226 44.3451 86.0177 44.4503C86.4127 44.5448 86.6747 44.7305 86.8038 45.0073C86.9435 45.2842 87.0143 45.6786 87.0162 46.1906C87.0181 46.7026 86.9502 47.0975 86.8125 47.3753C86.6856 47.6531 86.425 47.8461 86.0307 47.9542C85.6364 48.0624 85.0446 48.1179 84.2553 48.1208ZM90.8104 46.8005C91.2691 46.7988 91.557 46.7604 91.674 46.6853C91.8017 46.6102 91.8651 46.4393 91.8641 46.1726C91.8631 45.8953 91.7931 45.7249 91.6542 45.6614C91.526 45.5978 91.2432 45.5669 90.8059 45.5685C90.3472 45.5702 90.054 45.6086 89.9263 45.6838C89.8092 45.7589 89.7512 45.9351 89.7523 46.2124C89.7532 46.4791 89.8125 46.6442 89.9301 46.7078C90.0583 46.7713 90.3518 46.8022 90.8104 46.8005ZM84.2505 46.8248C84.7092 46.8231 84.997 46.7847 85.1141 46.7096C85.2311 46.6345 85.2892 46.4636 85.2882 46.197C85.2871 45.9196 85.2225 45.7492 85.0943 45.6857C84.966 45.6222 84.6833 45.5912 84.2459 45.5928C83.7873 45.5945 83.4941 45.6329 83.3663 45.7081C83.2493 45.7832 83.1913 45.9594 83.1923 46.2367C83.1933 46.5034 83.2526 46.6685 83.3701 46.7321C83.4984 46.7956 83.7918 46.8265 84.2505 46.8248ZM85.5533 52.964L86.6252 52.9601L86.6221 52.1121L84.1901 52.1211C84.2128 52.4943 84.315 52.7286 84.4967 52.824C84.6784 52.9193 85.0306 52.966 85.5533 52.964ZM88.4972 52.9531L89.5692 52.9491C90.0919 52.9472 90.4384 52.8979 90.6087 52.8013C90.7897 52.7046 90.8955 52.4696 90.9261 52.0961L88.4941 52.1051L88.4972 52.9531ZM84.1854 50.8571L86.6174 50.8481L86.6144 50.0321L85.5424 50.0361C85.0197 50.038 84.6679 50.0873 84.4869 50.184C84.3166 50.2699 84.2161 50.4943 84.1854 50.8571ZM88.4894 50.8411L90.9054 50.8322C90.872 50.4696 90.7646 50.246 90.5829 50.1614C90.4119 50.066 90.0704 50.0193 89.5584 50.0212L88.4864 50.0251L88.4894 50.8411ZM97.8619 58.5025C97.5103 58.6104 97.2169 58.6062 96.9818 58.4897C96.7468 58.3839 96.5808 58.2032 96.4838 57.9476C96.3976 57.7025 96.402 57.4679 96.4972 57.2435C96.5924 57.0191 96.7944 56.8531 97.1034 56.7453C98.3604 56.3033 99.2805 55.6225 99.8638 54.703C100.447 53.7728 100.741 52.5291 100.746 50.9717L97.37 50.9842C97.114 50.9852 96.895 50.9006 96.7131 50.7307C96.5417 50.55 96.4556 50.3369 96.4547 50.0916C96.4537 49.8356 96.5383 49.622 96.7083 49.4507C96.889 49.2687 97.1073 49.1772 97.3633 49.1762L109.731 49.1304C109.987 49.1294 110.201 49.2193 110.372 49.4C110.544 49.5701 110.63 49.7831 110.631 50.0391C110.631 50.2844 110.547 50.498 110.377 50.68C110.207 50.8513 109.994 50.9374 109.738 50.9384L106.17 50.9516L106.187 55.4956C106.188 55.8902 106.28 56.1566 106.462 56.2946C106.644 56.4219 107.028 56.4845 107.614 56.4823C107.977 56.4809 108.249 56.4479 108.43 56.3833C108.622 56.3079 108.765 56.19 108.861 56.0297C108.967 55.8693 109.073 55.6449 109.178 55.3565C109.263 55.1215 109.422 54.9556 109.656 54.8587C109.891 54.7512 110.147 54.7556 110.424 54.8719C110.702 54.9775 110.884 55.1368 110.97 55.3498C111.067 55.5628 111.084 55.8028 111.021 56.0697C110.884 56.5822 110.688 57.0096 110.434 57.3518C110.179 57.6941 109.823 57.9461 109.364 58.1078C108.917 58.2801 108.32 58.3677 107.573 58.3705C106.741 58.3735 106.085 58.3013 105.605 58.1537C105.135 58.0168 104.798 57.7674 104.594 57.4055C104.4 57.0329 104.303 56.5159 104.3 55.8546L104.282 50.9586L102.666 50.9646C102.663 52.9273 102.253 54.5501 101.436 55.8332C100.619 57.1056 99.428 57.9953 97.8619 58.5025ZM98.8419 46.6267C98.6072 46.6276 98.3989 46.543 98.2169 46.3731C98.0456 46.1924 97.9595 45.9847 97.9586 45.75C97.9577 45.5047 98.0423 45.2964 98.2123 45.1251C98.393 44.9537 98.6007 44.8676 98.8353 44.8667L108.227 44.8319C108.473 44.831 108.681 44.9156 108.852 45.0856C109.024 45.2557 109.11 45.4633 109.111 45.7087C109.111 45.9433 109.027 46.1516 108.857 46.3336C108.687 46.5049 108.479 46.591 108.234 46.5919L98.8419 46.6267ZM119.559 58.838C119.293 58.839 119.063 58.7492 118.87 58.5686C118.688 58.3986 118.597 58.1696 118.596 57.8816L118.585 55.0336C117.604 55.0693 116.66 55.1048 115.754 55.1401C114.858 55.1648 114.111 55.1889 113.514 55.2124C112.927 55.2146 112.622 54.9544 112.599 54.4318C112.587 54.2078 112.661 54.0209 112.821 53.871C112.98 53.721 113.204 53.6402 113.492 53.6285C113.908 53.6269 114.42 53.625 115.028 53.6228C115.636 53.6205 116.287 53.6128 116.98 53.5996C116.648 53.3554 116.306 53.122 115.953 52.8994C115.611 52.666 115.322 52.475 115.087 52.3266C114.905 52.2099 114.793 52.045 114.749 51.8318C114.716 51.6186 114.764 51.4264 114.891 51.2553C115.029 51.0734 115.205 50.9554 115.418 50.9013C115.631 50.8472 115.839 50.8784 116.042 50.995C116.16 51.0692 116.299 51.1594 116.459 51.2655C116.63 51.3715 116.801 51.4882 116.972 51.6156C117.057 51.4979 117.158 51.3589 117.275 51.1984C117.402 51.038 117.524 50.8722 117.641 50.7011L112.873 50.7188C112.67 50.7195 112.5 50.6508 112.36 50.5127C112.221 50.3745 112.151 50.2041 112.15 50.0014C112.15 49.7988 112.218 49.6278 112.357 49.4887C112.495 49.3495 112.665 49.2795 112.868 49.2788L118.564 49.2577L118.561 48.5537L114.545 48.5685C114.353 48.5693 114.188 48.5059 114.048 48.3784C113.92 48.2402 113.855 48.0751 113.855 47.8831C113.854 47.7018 113.917 47.5469 114.045 47.4184C114.183 47.2792 114.348 47.2093 114.54 47.2086L118.556 47.1937L118.553 46.4897L113.61 46.508C113.418 46.5087 113.252 46.44 113.113 46.3018C112.974 46.1637 112.904 45.9986 112.903 45.8066C112.902 45.6146 112.971 45.449 113.109 45.3098C113.247 45.1707 113.412 45.1007 113.604 45.1L118.548 45.0817L118.547 44.6497C118.546 44.3617 118.635 44.132 118.816 43.9607C119.007 43.7786 119.236 43.6871 119.503 43.6861C119.78 43.6851 120.01 43.7749 120.192 43.9556C120.385 44.1255 120.482 44.3545 120.483 44.6425L120.484 45.0745L125.476 45.056C125.668 45.0553 125.834 45.124 125.973 45.2622C126.112 45.4003 126.182 45.5654 126.183 45.7574C126.184 45.9494 126.115 46.115 125.977 46.2542C125.839 46.3933 125.673 46.4633 125.481 46.464L120.489 46.4825L120.492 47.1865L124.604 47.1713C124.785 47.1706 124.946 47.2393 125.085 47.3775C125.224 47.505 125.294 47.6594 125.295 47.8407C125.295 48.0327 125.227 48.1983 125.088 48.3375C124.95 48.466 124.79 48.5306 124.609 48.5312L120.497 48.5465L120.5 49.2505L126.276 49.2291C126.468 49.2284 126.633 49.2971 126.772 49.4352C126.912 49.5734 126.982 49.7438 126.982 49.9465C126.983 50.1491 126.914 50.32 126.776 50.4592C126.638 50.5984 126.473 50.6683 126.281 50.6691L122.873 50.6817C122.938 50.8308 122.954 50.9907 122.923 51.1615C122.902 51.3323 122.833 51.4765 122.716 51.5943C122.451 51.8726 122.132 52.1884 121.76 52.5418C121.388 52.8952 121.021 53.2326 120.66 53.5539C121.129 53.5522 121.582 53.5505 122.02 53.5489C122.468 53.5365 122.878 53.5244 123.252 53.5123C123.209 53.4591 123.161 53.4113 123.107 53.3688C123.064 53.3263 123.016 53.2838 122.963 53.2414C122.813 53.0926 122.743 52.9115 122.753 52.6982C122.773 52.4741 122.868 52.2924 123.039 52.1531C123.209 51.9925 123.4 51.9117 123.614 51.911C123.838 51.8995 124.035 51.9681 124.206 52.1168C124.42 52.2973 124.661 52.5204 124.929 52.7861C125.207 53.0517 125.475 53.3174 125.732 53.5831C125.989 53.8488 126.198 54.0721 126.358 54.2528C126.53 54.4335 126.605 54.6412 126.585 54.876C126.564 55.1107 126.453 55.3138 126.251 55.4852C126.07 55.6459 125.857 55.716 125.612 55.6956C125.366 55.6752 125.169 55.5746 125.019 55.3938C124.944 55.3087 124.863 55.2183 124.778 55.1227C124.692 55.0163 124.595 54.91 124.488 54.8037C123.987 54.8269 123.39 54.8558 122.697 54.8904C122.003 54.9143 121.278 54.9383 120.521 54.9624L120.532 57.8744C120.533 58.1624 120.438 58.3921 120.246 58.5635C120.066 58.7455 119.837 58.837 119.559 58.838ZM114.517 58.2967C114.272 58.4043 114.022 58.4319 113.766 58.3795C113.509 58.3271 113.322 58.1678 113.204 57.9016C113.086 57.6567 113.069 57.4221 113.153 57.1978C113.248 56.9627 113.429 56.7914 113.695 56.6838C113.951 56.5868 114.249 56.463 114.59 56.3124C114.931 56.1512 115.261 55.9846 115.58 55.8128C115.91 55.6409 116.187 55.4905 116.41 55.3617C116.613 55.2436 116.836 55.2001 117.082 55.2312C117.327 55.2623 117.504 55.379 117.611 55.5812C117.751 55.8154 117.794 56.0392 117.742 56.2527C117.689 56.4663 117.556 56.6428 117.344 56.7822C117.11 56.9324 116.827 57.1041 116.498 57.2974C116.178 57.4799 115.843 57.6571 115.491 57.8291C115.151 58.0117 114.826 58.1676 114.517 58.2967ZM124.629 58.2272C124.234 58.058 123.769 57.8358 123.235 57.5604C122.7 57.2957 122.23 57.0308 121.824 56.7656C121.62 56.6277 121.492 56.4469 121.438 56.2231C121.383 55.9992 121.425 55.7858 121.563 55.5826C121.68 55.4115 121.861 55.3041 122.106 55.2606C122.351 55.2063 122.575 55.2375 122.778 55.3541C122.971 55.4707 123.222 55.6084 123.532 55.7673C123.852 55.9261 124.184 56.0849 124.526 56.2436C124.868 56.3917 125.177 56.5185 125.455 56.6242C125.711 56.7299 125.888 56.8999 125.985 57.1342C126.082 57.3685 126.067 57.6139 125.94 57.8704C125.823 58.1055 125.637 58.2502 125.381 58.3044C125.126 58.3587 124.875 58.333 124.629 58.2272ZM118.946 53.0163C119.169 52.8128 119.413 52.5719 119.679 52.2935C119.955 52.0152 120.232 51.7368 120.508 51.4585C120.784 51.1694 121.029 50.9125 121.241 50.6877L119.689 50.6935C119.572 50.8433 119.424 51.0305 119.243 51.2551C119.063 51.4692 118.877 51.6885 118.686 51.9132C118.505 52.1379 118.346 52.3252 118.208 52.475C118.347 52.5705 118.475 52.666 118.593 52.7616C118.721 52.8464 118.839 52.9313 118.946 53.0163ZM129.462 54.2413C129.228 54.2422 129.025 54.1629 128.853 54.0035C128.693 53.8335 128.612 53.6311 128.611 53.3964C128.61 53.1618 128.69 52.9641 128.849 52.8036C129.019 52.6323 129.221 52.5462 129.456 52.5453L133.36 52.5308C133.595 52.53 133.792 52.6146 133.953 52.7846C134.124 52.944 134.21 53.141 134.211 53.3757C134.212 53.6104 134.127 53.8133 133.957 53.9846C133.798 54.1452 133.601 54.226 133.366 54.2268L129.462 54.2413ZM136.665 57.3186C136.036 57.3209 135.721 57.1461 135.719 56.7941C135.716 56.0261 135.911 55.2787 136.303 54.5519C136.706 53.8251 137.375 53.012 138.31 52.1125C138.639 51.7913 138.953 51.4701 139.25 51.149C139.548 50.8172 139.792 50.4963 139.983 50.1863C140.174 49.8656 140.274 49.5612 140.283 49.2731C140.292 48.7184 140.163 48.3083 139.895 48.0426C139.638 47.7769 139.269 47.6449 138.789 47.6467C138.139 47.6491 137.724 47.9813 137.545 48.6433C137.461 48.9316 137.35 49.156 137.212 49.3165C137.084 49.4663 136.882 49.5418 136.604 49.5428C136.338 49.5438 136.124 49.4539 135.963 49.2732C135.803 49.0924 135.759 48.8472 135.833 48.5376C136 47.7477 136.345 47.1331 136.866 46.6938C137.387 46.2439 138.026 46.0175 138.783 46.0147C139.402 46.0124 139.952 46.1384 140.433 46.3926C140.924 46.6468 141.31 47.0187 141.589 47.5083C141.868 47.9979 141.998 48.6001 141.98 49.3149C141.971 49.8162 141.855 50.2807 141.633 50.7082C141.41 51.1357 141.113 51.5528 140.741 51.9595C140.38 52.3555 139.966 52.7784 139.498 53.2281C139.009 53.7099 138.574 54.1702 138.191 54.6089C137.82 55.0477 137.602 55.4271 137.539 55.7474L140.867 55.735C141.497 55.7327 141.812 55.9929 141.814 56.5155C141.816 57.0382 141.503 57.3007 140.873 57.303L136.665 57.3186Z" fill="black" fill-opacity="0.85"/>
</g>
<defs>
<radialGradient id="paint0_radial_1720_1998" cx="0" cy="0" r="1" gradientUnits="userSpaceOnUse" gradientTransform="translate(0.558656 46.8353) rotate(65.4889) scale(3.32531 8.21233)">
<stop offset="0.33" stop-opacity="0"/>
<stop offset="0.655" stop-opacity="0.6"/>
<stop offset="1"/>
</radialGradient>
<radialGradient id="paint1_radial_1720_1998" cx="0" cy="0" r="1" gradientUnits="userSpaceOnUse" gradientTransform="translate(355.296 45.8572) rotate(114.511) scale(3.32531 8.21233)">
<stop offset="0.33" stop-opacity="0"/>
<stop offset="0.655" stop-opacity="0.6"/>
<stop offset="1"/>
</radialGradient>
<clipPath id="clip0_1720_1998">
<rect width="200" height="90" fill="white"/>
</clipPath>
</defs>
</svg>
