<svg width="335" height="173" viewBox="0 0 335 173" fill="none" xmlns="http://www.w3.org/2000/svg">
<path d="M334.895 30.8455C334.895 14.0408 316.986 0.417969 294.895 0.417969H84.8945C62.8031 0.417969 44.8945 14.0409 44.8945 30.8455V127.433C44.8945 135.095 41.1664 142.529 34.0258 147.933C22.2365 156.854 9.07538 165.487 2.88955 165.487C-6.63412 165.487 19.7444 175.309 43.784 171.568C48.4892 170.836 53.2219 170.051 58.0245 170.051H294.895C316.986 170.051 334.895 156.429 334.895 139.624V30.8455Z" fill="#FEE3EC"/>
<path d="M119.323 77.506C118.955 77.506 118.635 77.378 118.363 77.122C118.107 76.882 117.979 76.562 117.979 76.162V69.586C116.955 70.706 115.827 71.802 114.595 72.874C113.363 73.93 112.155 74.842 110.971 75.61C110.619 75.834 110.227 75.93 109.795 75.898C109.363 75.882 109.035 75.682 108.811 75.298C108.619 74.962 108.563 74.618 108.643 74.266C108.723 73.914 108.939 73.634 109.291 73.426C110.043 72.994 110.819 72.49 111.619 71.914C112.419 71.322 113.211 70.69 113.995 70.018C114.779 69.346 115.515 68.674 116.203 68.002C116.891 67.314 117.483 66.658 117.979 66.034V60.874H109.915C109.595 60.874 109.315 60.762 109.075 60.538C108.835 60.298 108.715 60.01 108.715 59.674C108.715 59.338 108.835 59.05 109.075 58.81C109.315 58.57 109.595 58.45 109.915 58.45H117.979V56.53C117.979 56.114 118.107 55.786 118.363 55.546C118.635 55.306 118.955 55.186 119.323 55.186C119.691 55.186 120.003 55.306 120.259 55.546C120.515 55.786 120.643 56.114 120.643 56.53V58.45H128.851C129.187 58.45 129.475 58.57 129.715 58.81C129.955 59.05 130.075 59.338 130.075 59.674C130.075 60.01 129.955 60.298 129.715 60.538C129.475 60.762 129.187 60.874 128.851 60.874H120.643V65.986C120.723 66.066 120.795 66.154 120.859 66.25C120.939 66.346 121.011 66.434 121.075 66.514C121.443 66.018 121.811 65.474 122.179 64.882C122.563 64.29 122.923 63.714 123.259 63.154C123.595 62.578 123.859 62.082 124.051 61.666C124.211 61.33 124.467 61.114 124.819 61.018C125.171 60.906 125.507 60.938 125.827 61.114C126.147 61.274 126.363 61.506 126.475 61.81C126.587 62.098 126.563 62.402 126.403 62.722C126.323 62.898 126.219 63.098 126.091 63.322C125.979 63.53 125.859 63.746 125.731 63.97C125.987 64.13 126.315 64.338 126.715 64.594C127.115 64.834 127.499 65.074 127.867 65.314C128.251 65.538 128.531 65.698 128.707 65.794C129.011 65.954 129.195 66.202 129.259 66.538C129.339 66.874 129.291 67.194 129.115 67.498C128.923 67.818 128.651 68.026 128.299 68.122C127.963 68.202 127.635 68.146 127.315 67.954C127.139 67.842 126.867 67.666 126.499 67.426C126.147 67.186 125.779 66.938 125.395 66.682C125.027 66.41 124.723 66.186 124.483 66.01C124.195 66.426 123.907 66.834 123.619 67.234C123.331 67.634 123.059 68.002 122.803 68.338C123.795 69.282 124.859 70.186 125.995 71.05C127.147 71.898 128.267 72.634 129.355 73.258C129.691 73.434 129.891 73.714 129.955 74.098C130.035 74.482 129.971 74.834 129.763 75.154C129.555 75.506 129.235 75.714 128.803 75.778C128.387 75.842 127.995 75.754 127.627 75.514C126.491 74.794 125.307 73.914 124.075 72.874C122.843 71.818 121.699 70.722 120.643 69.586V76.162C120.643 76.562 120.515 76.882 120.259 77.122C120.003 77.378 119.691 77.506 119.323 77.506ZM109.507 68.338C109.251 68.114 109.099 67.834 109.051 67.498C109.019 67.146 109.115 66.842 109.339 66.586C109.739 66.17 110.155 65.674 110.587 65.098C111.035 64.506 111.459 63.906 111.859 63.298C112.259 62.69 112.587 62.146 112.843 61.666C113.019 61.346 113.267 61.154 113.587 61.09C113.923 61.01 114.243 61.058 114.547 61.234C114.851 61.394 115.051 61.626 115.147 61.93C115.259 62.218 115.235 62.522 115.075 62.842C114.979 63.002 114.875 63.178 114.763 63.37C114.667 63.562 114.555 63.754 114.427 63.946C114.635 64.09 114.875 64.258 115.147 64.45C115.419 64.642 115.667 64.818 115.891 64.978C116.131 65.138 116.299 65.25 116.395 65.314C116.699 65.49 116.883 65.746 116.947 66.082C117.011 66.418 116.931 66.746 116.707 67.066C116.499 67.37 116.211 67.554 115.843 67.618C115.491 67.682 115.155 67.61 114.835 67.402C114.707 67.306 114.451 67.114 114.067 66.826C113.699 66.522 113.363 66.258 113.059 66.034C112.787 66.418 112.507 66.786 112.219 67.138C111.947 67.49 111.683 67.818 111.427 68.122C111.171 68.394 110.859 68.562 110.491 68.626C110.139 68.674 109.811 68.578 109.507 68.338ZM150.259 75.73C149.379 74.306 148.699 72.482 148.219 70.258C147.739 68.018 147.411 65.378 147.235 62.338H141.763C141.427 62.338 141.147 62.242 140.923 62.05C140.715 61.842 140.595 61.594 140.563 61.306C140.339 61.61 140.051 61.762 139.699 61.762H133.315C133.011 61.762 132.755 61.658 132.547 61.45C132.339 61.226 132.235 60.97 132.235 60.682C132.235 60.378 132.339 60.122 132.547 59.914C132.755 59.69 133.011 59.578 133.315 59.578H139.699C139.971 59.578 140.203 59.666 140.395 59.842C140.587 60.002 140.707 60.21 140.755 60.466C140.979 60.114 141.315 59.938 141.763 59.938H147.139C147.123 59.394 147.107 58.842 147.091 58.282C147.091 57.706 147.091 57.122 147.091 56.53C147.091 56.13 147.219 55.818 147.475 55.594C147.731 55.354 148.043 55.234 148.411 55.234C148.763 55.234 149.059 55.354 149.299 55.594C149.555 55.834 149.683 56.154 149.683 56.554V56.578C149.667 57.154 149.651 57.722 149.635 58.282C149.635 58.842 149.643 59.394 149.659 59.938H153.403C153.771 59.938 154.059 60.058 154.267 60.298C154.491 60.538 154.603 60.818 154.603 61.138C154.603 61.458 154.491 61.738 154.267 61.978C154.059 62.218 153.771 62.338 153.403 62.338H149.731C149.859 64.546 150.083 66.594 150.403 68.482C150.739 70.354 151.227 71.946 151.867 73.258C151.979 73.482 152.083 73.586 152.179 73.57C152.291 73.554 152.379 73.442 152.443 73.234C152.507 73.074 152.563 72.922 152.611 72.778C152.675 72.618 152.723 72.474 152.755 72.346C152.851 72.058 153.035 71.85 153.307 71.722C153.595 71.578 153.915 71.57 154.267 71.698C154.571 71.794 154.795 71.962 154.939 72.202C155.083 72.426 155.115 72.722 155.035 73.09C154.955 73.426 154.835 73.834 154.675 74.314C154.515 74.794 154.323 75.25 154.099 75.682C153.811 76.29 153.443 76.706 152.995 76.93C152.547 77.17 152.083 77.186 151.603 76.978C151.123 76.786 150.675 76.37 150.259 75.73ZM142.243 74.914C141.859 75.026 141.515 74.994 141.211 74.818C140.907 74.626 140.699 74.354 140.587 74.002C140.475 73.65 140.499 73.33 140.659 73.042C140.835 72.738 141.107 72.538 141.475 72.442C141.683 72.394 141.907 72.338 142.147 72.274C142.387 72.21 142.635 72.146 142.891 72.082V67.234H141.667C141.315 67.234 141.027 67.114 140.803 66.874C140.579 66.634 140.467 66.354 140.467 66.034C140.467 65.698 140.579 65.41 140.803 65.17C141.027 64.93 141.315 64.81 141.667 64.81H146.299C146.667 64.81 146.955 64.93 147.163 65.17C147.387 65.41 147.499 65.698 147.499 66.034C147.499 66.354 147.387 66.634 147.163 66.874C146.955 67.114 146.667 67.234 146.299 67.234H145.459V71.362C145.683 71.298 145.891 71.242 146.083 71.194C146.275 71.146 146.459 71.098 146.635 71.05C147.003 70.922 147.323 70.946 147.595 71.122C147.867 71.282 148.035 71.522 148.099 71.842C148.179 72.162 148.163 72.458 148.051 72.73C147.955 73.002 147.723 73.202 147.355 73.33C147.067 73.426 146.691 73.546 146.227 73.69C145.779 73.834 145.307 73.986 144.811 74.146C144.315 74.306 143.835 74.458 143.371 74.602C142.923 74.73 142.547 74.834 142.243 74.914ZM136.555 76.81C135.659 76.81 134.955 76.698 134.443 76.474C133.947 76.266 133.595 75.898 133.387 75.37C133.195 74.842 133.099 74.114 133.099 73.186C133.099 72.242 133.195 71.506 133.387 70.978C133.595 70.45 133.947 70.082 134.443 69.874C134.955 69.666 135.659 69.562 136.555 69.562C137.451 69.562 138.147 69.666 138.643 69.874C139.155 70.082 139.507 70.45 139.699 70.978C139.907 71.506 140.011 72.242 140.011 73.186C140.011 74.114 139.907 74.842 139.699 75.37C139.507 75.898 139.155 76.266 138.643 76.474C138.147 76.698 137.451 76.81 136.555 76.81ZM134.083 58.45C133.779 58.45 133.515 58.338 133.291 58.114C133.067 57.89 132.955 57.626 132.955 57.322C132.955 57.018 133.067 56.762 133.291 56.554C133.515 56.33 133.779 56.218 134.083 56.218H138.907C139.211 56.218 139.467 56.33 139.675 56.554C139.899 56.762 140.011 57.018 140.011 57.322C140.011 57.626 139.899 57.89 139.675 58.114C139.467 58.338 139.211 58.45 138.907 58.45H134.083ZM134.035 65.098C133.731 65.098 133.475 64.994 133.267 64.786C133.059 64.562 132.955 64.298 132.955 63.994C132.955 63.69 133.059 63.434 133.267 63.226C133.475 63.002 133.731 62.89 134.035 62.89H138.931C139.235 62.89 139.491 63.002 139.699 63.226C139.907 63.434 140.011 63.69 140.011 63.994C140.011 64.298 139.907 64.562 139.699 64.786C139.491 64.994 139.235 65.098 138.931 65.098H134.035ZM134.035 68.41C133.731 68.41 133.475 68.306 133.267 68.098C133.059 67.874 132.955 67.61 132.955 67.306C132.955 67.018 133.059 66.77 133.267 66.562C133.475 66.338 133.731 66.226 134.035 66.226H138.931C139.235 66.226 139.491 66.338 139.699 66.562C139.907 66.77 140.011 67.018 140.011 67.306C140.011 67.61 139.907 67.874 139.699 68.098C139.491 68.306 139.235 68.41 138.931 68.41H134.035ZM153.235 59.458C152.979 59.666 152.691 59.762 152.371 59.746C152.051 59.714 151.787 59.57 151.579 59.314C151.451 59.138 151.259 58.922 151.003 58.666C150.763 58.394 150.571 58.178 150.427 58.018C150.219 57.794 150.123 57.53 150.139 57.226C150.171 56.922 150.291 56.666 150.499 56.458C150.739 56.234 151.019 56.13 151.339 56.146C151.675 56.146 151.955 56.258 152.179 56.482C152.339 56.642 152.539 56.858 152.779 57.13C153.019 57.402 153.203 57.618 153.331 57.778C153.555 58.034 153.659 58.322 153.643 58.642C153.627 58.962 153.491 59.234 153.235 59.458ZM136.555 74.602C137.051 74.602 137.363 74.506 137.491 74.314C137.635 74.122 137.707 73.746 137.707 73.186C137.707 72.626 137.635 72.25 137.491 72.058C137.363 71.866 137.051 71.77 136.555 71.77C136.059 71.77 135.739 71.866 135.595 72.058C135.451 72.25 135.379 72.626 135.379 73.186C135.379 73.746 135.451 74.122 135.595 74.314C135.739 74.506 136.059 74.602 136.555 74.602ZM166.459 77.482C165.307 77.482 164.395 77.362 163.723 77.122C163.067 76.898 162.603 76.506 162.331 75.946C162.059 75.386 161.923 74.634 161.923 73.69V71.602C160.723 72.098 159.499 72.554 158.251 72.97C157.835 73.114 157.459 73.13 157.123 73.018C156.803 72.89 156.579 72.634 156.451 72.25C156.323 71.898 156.339 71.562 156.499 71.242C156.659 70.922 156.947 70.706 157.363 70.594C158.835 70.194 160.275 69.698 161.683 69.106C163.091 68.514 164.435 67.866 165.715 67.162H157.555C157.251 67.162 156.987 67.05 156.763 66.826C156.555 66.586 156.451 66.314 156.451 66.01C156.451 65.706 156.555 65.442 156.763 65.218C156.987 64.994 157.251 64.882 157.555 64.882H165.787V63.634H160.099C159.795 63.634 159.539 63.53 159.331 63.322C159.123 63.098 159.019 62.842 159.019 62.554C159.019 62.25 159.123 61.994 159.331 61.786C159.539 61.562 159.795 61.45 160.099 61.45H165.787V60.682C165.787 60.282 165.915 59.97 166.171 59.746C166.443 59.506 166.755 59.386 167.107 59.386C167.475 59.386 167.779 59.506 168.019 59.746C168.275 59.97 168.403 60.282 168.403 60.682V61.45H170.875C171.179 61.45 171.435 61.562 171.643 61.786C171.851 61.994 171.955 62.25 171.955 62.554C171.955 62.634 171.947 62.698 171.931 62.746C172.731 62.026 173.427 61.306 174.019 60.586C174.243 60.314 174.547 60.17 174.931 60.154C175.315 60.122 175.635 60.234 175.891 60.49C176.131 60.73 176.259 61.002 176.275 61.306C176.291 61.61 176.187 61.898 175.963 62.17C175.563 62.65 175.131 63.122 174.667 63.586C174.203 64.034 173.723 64.466 173.227 64.882H177.331C177.635 64.882 177.891 64.994 178.099 65.218C178.323 65.442 178.435 65.706 178.435 66.01C178.435 66.314 178.323 66.586 178.099 66.826C177.891 67.05 177.635 67.162 177.331 67.162H170.275C169.971 67.354 169.667 67.554 169.363 67.762C169.075 67.954 168.771 68.146 168.451 68.338H170.347C171.515 68.338 172.427 68.458 173.083 68.698C173.739 68.922 174.203 69.314 174.475 69.874C174.747 70.418 174.883 71.17 174.883 72.13V73.69C174.883 74.634 174.747 75.386 174.475 75.946C174.203 76.506 173.739 76.898 173.083 77.122C172.427 77.362 171.515 77.482 170.347 77.482H166.459ZM163.531 61.018C163.163 61.018 162.843 60.898 162.571 60.658C162.315 60.418 162.187 60.098 162.187 59.698V59.122H157.507C157.203 59.122 156.947 59.018 156.739 58.81C156.531 58.586 156.427 58.33 156.427 58.042C156.427 57.738 156.531 57.482 156.739 57.274C156.947 57.05 157.203 56.938 157.507 56.938H162.187V56.314C162.187 55.898 162.315 55.57 162.571 55.33C162.843 55.09 163.163 54.97 163.531 54.97C163.899 54.97 164.211 55.09 164.467 55.33C164.739 55.57 164.875 55.898 164.875 56.314V56.938H169.747V56.314C169.747 55.898 169.875 55.57 170.131 55.33C170.403 55.09 170.723 54.97 171.091 54.97C171.459 54.97 171.771 55.09 172.027 55.33C172.283 55.57 172.411 55.898 172.411 56.314V56.938H177.259C177.563 56.938 177.819 57.05 178.027 57.274C178.235 57.498 178.339 57.754 178.339 58.042C178.339 58.346 178.235 58.602 178.027 58.81C177.819 59.018 177.563 59.122 177.259 59.122H172.411V59.698C172.411 60.098 172.283 60.418 172.027 60.658C171.771 60.898 171.459 61.018 171.091 61.018C170.723 61.018 170.403 60.898 170.131 60.658C169.875 60.418 169.747 60.098 169.747 59.698V59.122H164.875V59.698C164.875 60.098 164.739 60.418 164.467 60.658C164.211 60.898 163.899 61.018 163.531 61.018ZM166.459 75.226H170.347C171.003 75.226 171.451 75.146 171.691 74.986C171.931 74.826 172.059 74.466 172.075 73.906H164.731C164.747 74.466 164.875 74.826 165.115 74.986C165.355 75.146 165.803 75.226 166.459 75.226ZM164.731 71.866H172.075C172.059 71.322 171.931 70.978 171.691 70.834C171.451 70.674 171.003 70.594 170.347 70.594H166.459C165.819 70.594 165.379 70.674 165.139 70.834C164.899 70.978 164.763 71.322 164.731 71.866ZM168.403 64.882H169.267C169.539 64.674 169.811 64.466 170.083 64.258C170.355 64.05 170.619 63.842 170.875 63.634H168.403V64.882ZM185.155 77.53C184.787 77.53 184.467 77.402 184.195 77.146C183.939 76.906 183.811 76.586 183.811 76.186V69.034C183.347 70.026 182.907 70.858 182.491 71.53C182.299 71.834 182.019 72.034 181.651 72.13C181.283 72.226 180.939 72.17 180.619 71.962C180.315 71.786 180.131 71.53 180.067 71.194C180.003 70.858 180.075 70.538 180.283 70.234C180.539 69.85 180.819 69.378 181.123 68.818C181.443 68.258 181.771 67.658 182.107 67.018C182.443 66.378 182.755 65.754 183.043 65.146C183.331 64.522 183.579 63.97 183.787 63.49H181.339C181.003 63.49 180.715 63.37 180.475 63.13C180.251 62.89 180.139 62.61 180.139 62.29C180.139 61.954 180.251 61.666 180.475 61.426C180.715 61.186 181.003 61.066 181.339 61.066H183.811V59.146C183.475 59.21 183.147 59.274 182.827 59.338C182.507 59.402 182.203 59.458 181.915 59.506C181.003 59.65 180.475 59.314 180.331 58.498C180.267 58.13 180.347 57.826 180.571 57.586C180.811 57.346 181.139 57.194 181.555 57.13C182.115 57.05 182.747 56.93 183.451 56.77C184.171 56.61 184.875 56.442 185.563 56.266C186.267 56.074 186.859 55.89 187.339 55.714C187.755 55.57 188.115 55.554 188.419 55.666C188.739 55.762 188.963 55.97 189.091 56.29C189.235 56.642 189.235 56.978 189.091 57.298C188.947 57.618 188.691 57.842 188.323 57.97C188.067 58.05 187.779 58.138 187.459 58.234C187.155 58.33 186.835 58.426 186.499 58.522V61.066H188.179C188.467 61.066 188.715 61.154 188.923 61.33C188.891 60.818 189.123 60.402 189.619 60.082C190.179 59.73 190.771 59.29 191.395 58.762C192.035 58.234 192.643 57.682 193.219 57.106C193.795 56.514 194.267 55.986 194.635 55.522C194.875 55.218 195.187 55.05 195.571 55.018C195.955 54.986 196.283 55.082 196.555 55.306C196.859 55.53 197.019 55.818 197.035 56.17C197.051 56.522 196.947 56.842 196.723 57.13C196.707 57.162 196.675 57.202 196.627 57.25C196.595 57.282 196.563 57.322 196.531 57.37H197.995C199.035 57.37 199.811 57.578 200.323 57.994C200.835 58.394 201.075 58.914 201.043 59.554C201.011 60.178 200.707 60.826 200.131 61.498C199.043 62.762 197.731 63.906 196.195 64.93C194.659 65.954 192.987 66.826 191.179 67.546C190.779 67.706 190.395 67.746 190.027 67.666C189.675 67.57 189.411 67.346 189.235 66.994C189.075 66.642 189.067 66.298 189.211 65.962C189.355 65.61 189.651 65.354 190.099 65.194C190.723 64.97 191.339 64.714 191.947 64.426C192.571 64.122 193.179 63.802 193.771 63.466C193.563 63.226 193.291 62.922 192.955 62.554C192.619 62.17 192.331 61.85 192.091 61.594C191.931 61.706 191.779 61.818 191.635 61.93C191.491 62.026 191.347 62.122 191.203 62.218C190.915 62.41 190.603 62.522 190.267 62.554C189.931 62.57 189.643 62.474 189.403 62.266V62.29C189.403 62.61 189.283 62.89 189.043 63.13C188.803 63.37 188.515 63.49 188.179 63.49H186.499V64.354C186.755 64.61 187.067 64.93 187.435 65.314C187.819 65.698 188.187 66.066 188.539 66.418C188.907 66.77 189.195 67.05 189.403 67.258C189.643 67.498 189.763 67.778 189.763 68.098C189.763 68.418 189.643 68.706 189.403 68.962C189.163 69.218 188.867 69.346 188.515 69.346C188.163 69.346 187.867 69.218 187.627 68.962C187.499 68.818 187.331 68.642 187.123 68.434C186.931 68.21 186.723 67.97 186.499 67.714V76.186C186.499 76.586 186.363 76.906 186.091 77.146C185.835 77.402 185.523 77.53 185.155 77.53ZM190.195 77.458C189.763 77.554 189.379 77.538 189.043 77.41C188.723 77.298 188.499 77.042 188.371 76.642C188.259 76.258 188.307 75.898 188.515 75.562C188.723 75.242 189.051 75.034 189.499 74.938C190.347 74.762 191.187 74.538 192.019 74.266C192.851 73.994 193.643 73.682 194.395 73.33C194.155 72.978 193.883 72.61 193.579 72.226C193.275 71.826 193.003 71.482 192.763 71.194C192.491 71.354 192.219 71.514 191.947 71.674C191.675 71.818 191.403 71.954 191.131 72.082C190.731 72.274 190.339 72.338 189.955 72.274C189.571 72.194 189.275 71.954 189.067 71.554C188.875 71.186 188.851 70.826 188.995 70.474C189.155 70.122 189.459 69.85 189.907 69.658C190.691 69.306 191.507 68.866 192.355 68.338C193.203 67.81 194.003 67.25 194.755 66.658C195.507 66.05 196.139 65.466 196.651 64.906C196.923 64.618 197.243 64.466 197.611 64.45C197.979 64.434 198.299 64.554 198.571 64.81C198.859 65.098 198.995 65.418 198.979 65.77C198.979 66.122 198.859 66.434 198.619 66.706C198.555 66.754 198.491 66.81 198.427 66.874C198.379 66.922 198.323 66.978 198.259 67.042H199.387C200.347 67.042 201.067 67.242 201.547 67.642C202.043 68.042 202.283 68.554 202.267 69.178C202.251 69.802 201.955 70.45 201.379 71.122C200.163 72.578 198.587 73.866 196.651 74.986C194.731 76.09 192.579 76.914 190.195 77.458ZM196.771 71.986C197.603 71.426 198.307 70.834 198.883 70.21C199.123 69.938 199.203 69.714 199.123 69.538C199.059 69.362 198.819 69.274 198.403 69.274H195.667C195.427 69.45 195.195 69.61 194.971 69.754C195.243 70.074 195.547 70.442 195.883 70.858C196.219 71.274 196.515 71.65 196.771 71.986ZM195.931 62.074C196.635 61.514 197.235 60.978 197.731 60.466C197.987 60.194 198.075 59.978 197.995 59.818C197.931 59.658 197.699 59.578 197.299 59.578H194.443C194.379 59.642 194.307 59.714 194.227 59.794C194.163 59.858 194.091 59.922 194.011 59.986C194.267 60.258 194.587 60.61 194.971 61.042C195.355 61.458 195.675 61.802 195.931 62.074ZM220.795 77.242C220.395 77.242 220.051 77.13 219.763 76.906C219.475 76.682 219.315 76.362 219.283 75.946C219.267 75.53 219.371 75.178 219.595 74.89C219.835 74.602 220.171 74.45 220.603 74.434C221.131 74.402 221.539 74.338 221.827 74.242C222.115 74.13 222.331 73.93 222.475 73.642C222.619 73.354 222.731 72.922 222.811 72.346C222.939 71.498 223.027 70.466 223.075 69.25C223.139 68.018 223.179 66.618 223.195 65.05C223.211 64.346 223.123 63.89 222.931 63.682C222.739 63.458 222.331 63.338 221.707 63.322C221.627 66.522 221.187 69.234 220.387 71.458C219.603 73.682 218.475 75.506 217.003 76.93C216.715 77.202 216.371 77.354 215.971 77.386C215.571 77.418 215.219 77.282 214.915 76.978C214.691 76.738 214.579 76.442 214.579 76.09C214.595 75.738 214.731 75.458 214.987 75.25C215.035 75.202 215.083 75.154 215.131 75.106C215.179 75.058 215.219 75.01 215.251 74.962C214.419 75.09 213.435 75.234 212.299 75.394C211.163 75.538 210.003 75.666 208.819 75.778C207.635 75.906 206.539 76.01 205.531 76.09C205.147 76.106 204.827 76.018 204.571 75.826C204.315 75.634 204.171 75.346 204.139 74.962C204.123 74.642 204.211 74.362 204.403 74.122C204.611 73.866 204.891 73.73 205.243 73.714C205.819 73.682 206.467 73.642 207.187 73.594C207.923 73.546 208.675 73.49 209.443 73.426V72.13H205.411C205.107 72.13 204.875 72.026 204.715 71.818C204.555 71.61 204.475 71.378 204.475 71.122C204.475 70.866 204.555 70.642 204.715 70.45C204.875 70.242 205.107 70.138 205.411 70.138H209.443V69.25H209.275C208.187 69.25 207.339 69.154 206.731 68.962C206.139 68.77 205.731 68.418 205.507 67.906C205.283 67.378 205.171 66.634 205.171 65.674C205.171 64.698 205.283 63.954 205.507 63.442C205.731 62.914 206.139 62.554 206.731 62.362C207.339 62.17 208.187 62.074 209.275 62.074H209.443V61.306H204.979C204.675 61.306 204.435 61.202 204.259 60.994C204.083 60.786 203.995 60.546 203.995 60.274C203.995 60.002 204.083 59.77 204.259 59.578C204.435 59.37 204.675 59.266 204.979 59.266H209.443V58.402C208.867 58.45 208.299 58.49 207.739 58.522C207.195 58.538 206.675 58.554 206.179 58.57C205.395 58.586 204.963 58.242 204.883 57.538C204.867 57.25 204.955 57.002 205.147 56.794C205.355 56.57 205.643 56.45 206.011 56.434C206.923 56.402 207.883 56.354 208.891 56.29C209.915 56.21 210.907 56.114 211.867 56.002C212.843 55.874 213.707 55.73 214.459 55.57C214.843 55.49 215.171 55.514 215.443 55.642C215.731 55.77 215.907 55.994 215.971 56.314C216.131 57.082 215.851 57.538 215.131 57.682C214.683 57.762 214.187 57.842 213.643 57.922C213.099 58.002 212.531 58.082 211.939 58.162V59.266H216.379C216.699 59.266 216.939 59.37 217.099 59.578C217.275 59.77 217.363 60.002 217.363 60.274C217.363 60.338 217.355 60.402 217.339 60.466C217.339 60.53 217.331 60.586 217.315 60.634H219.091V56.506C219.091 56.09 219.219 55.77 219.475 55.546C219.731 55.306 220.043 55.186 220.411 55.186C220.779 55.186 221.083 55.306 221.323 55.546C221.579 55.77 221.707 56.09 221.707 56.506V60.634C222.683 60.634 223.475 60.746 224.083 60.97C224.691 61.194 225.139 61.602 225.427 62.194C225.715 62.786 225.851 63.65 225.835 64.786C225.819 66.386 225.779 67.874 225.715 69.25C225.651 70.61 225.563 71.81 225.451 72.85C225.339 74.034 225.099 74.938 224.731 75.562C224.363 76.202 223.851 76.642 223.195 76.882C222.555 77.122 221.755 77.242 220.795 77.242ZM216.379 73.69C217.227 72.538 217.875 71.122 218.323 69.442C218.771 67.746 219.027 65.706 219.091 63.322H217.507C217.107 63.322 216.787 63.194 216.547 62.938C216.307 62.666 216.187 62.346 216.187 61.978C216.187 61.706 216.243 61.482 216.355 61.306H211.939V62.074H212.083C213.187 62.074 214.027 62.17 214.603 62.362C215.195 62.554 215.603 62.914 215.827 63.442C216.051 63.954 216.163 64.698 216.163 65.674C216.163 66.634 216.051 67.378 215.827 67.906C215.603 68.418 215.195 68.77 214.603 68.962C214.027 69.154 213.187 69.25 212.083 69.25H211.939V70.138H215.563C215.867 70.138 216.099 70.242 216.259 70.45C216.419 70.642 216.499 70.866 216.499 71.122C216.499 71.378 216.419 71.61 216.259 71.818C216.099 72.026 215.867 72.13 215.563 72.13H211.939V73.21C212.579 73.146 213.187 73.09 213.763 73.042C214.339 72.978 214.843 72.922 215.275 72.874C215.579 72.842 215.827 72.906 216.019 73.066C216.211 73.21 216.331 73.418 216.379 73.69ZM209.419 67.474H209.443V66.466H207.595C207.643 66.93 207.787 67.218 208.027 67.33C208.267 67.426 208.731 67.474 209.419 67.474ZM211.939 67.474C212.627 67.474 213.091 67.426 213.331 67.33C213.571 67.218 213.715 66.93 213.763 66.466H211.939V67.474ZM207.595 64.834H209.443V63.85H209.419C208.731 63.85 208.267 63.898 208.027 63.994C207.787 64.09 207.643 64.37 207.595 64.834ZM211.939 64.834H213.763C213.715 64.37 213.571 64.09 213.331 63.994C213.091 63.898 212.627 63.85 211.939 63.85V64.834ZM240.187 65.506C238.843 65.506 237.923 65.274 237.427 64.81C236.931 64.346 236.683 63.546 236.683 62.41C236.683 61.258 236.931 60.458 237.427 60.01C237.923 59.546 238.843 59.314 240.187 59.314H240.355V58.114H236.923C236.635 58.114 236.387 58.018 236.179 57.826C235.987 57.618 235.891 57.37 235.891 57.082C235.891 56.794 235.987 56.554 236.179 56.362C236.387 56.154 236.635 56.05 236.923 56.05H249.643C249.931 56.05 250.179 56.154 250.387 56.362C250.595 56.554 250.699 56.794 250.699 57.082C250.699 57.37 250.595 57.618 250.387 57.826C250.179 58.018 249.931 58.114 249.643 58.114H246.115V59.314H246.379C247.723 59.314 248.643 59.546 249.139 60.01C249.635 60.458 249.883 61.258 249.883 62.41C249.883 63.546 249.635 64.346 249.139 64.81C248.643 65.274 247.723 65.506 246.379 65.506H240.187ZM232.651 77.602C232.299 77.602 232.003 77.49 231.763 77.266C231.539 77.042 231.427 76.746 231.427 76.378V68.242C231.187 68.738 230.955 69.21 230.731 69.658C230.507 70.09 230.291 70.466 230.083 70.786C229.907 71.09 229.643 71.282 229.291 71.362C228.939 71.426 228.619 71.362 228.331 71.17C228.043 70.994 227.875 70.754 227.827 70.45C227.795 70.13 227.859 69.826 228.019 69.538C228.291 69.106 228.587 68.586 228.907 67.978C229.243 67.37 229.571 66.738 229.891 66.082C230.211 65.41 230.507 64.762 230.779 64.138C231.051 63.514 231.267 62.962 231.427 62.482V62.194H229.123C228.819 62.194 228.547 62.082 228.307 61.858C228.083 61.618 227.971 61.346 227.971 61.042C227.971 60.722 228.083 60.45 228.307 60.226C228.547 60.002 228.819 59.89 229.123 59.89H231.427V56.362C231.427 55.994 231.539 55.698 231.763 55.474C232.003 55.25 232.299 55.138 232.651 55.138C232.987 55.138 233.275 55.25 233.515 55.474C233.755 55.698 233.875 55.994 233.875 56.362V59.89H235.459C235.779 59.89 236.051 60.002 236.275 60.226C236.499 60.45 236.611 60.722 236.611 61.042C236.611 61.346 236.499 61.618 236.275 61.858C236.051 62.082 235.779 62.194 235.459 62.194H233.875V63.442C234.019 63.634 234.219 63.898 234.475 64.234C234.731 64.554 234.995 64.898 235.267 65.266C235.555 65.618 235.827 65.954 236.083 66.274C236.339 66.578 236.547 66.818 236.707 66.994C236.931 67.234 237.019 67.514 236.971 67.834C236.923 68.138 236.779 68.402 236.539 68.626C236.283 68.85 235.987 68.946 235.651 68.914C235.331 68.882 235.067 68.738 234.859 68.482C234.747 68.306 234.603 68.098 234.427 67.858C234.251 67.618 234.067 67.362 233.875 67.09V76.378C233.875 76.746 233.755 77.042 233.515 77.266C233.275 77.49 232.987 77.602 232.651 77.602ZM241.243 77.434C240.875 77.434 240.571 77.33 240.331 77.122C240.107 76.93 239.987 76.65 239.971 76.282C239.955 75.962 240.051 75.682 240.259 75.442C240.467 75.202 240.739 75.066 241.075 75.034C241.459 75.002 241.707 74.938 241.819 74.842C241.947 74.73 242.011 74.498 242.011 74.146V71.386H236.971C236.699 71.386 236.459 71.282 236.251 71.074C236.059 70.866 235.963 70.626 235.963 70.354C235.963 70.066 236.059 69.826 236.251 69.634C236.459 69.426 236.699 69.322 236.971 69.322H249.571C249.843 69.322 250.075 69.426 250.267 69.634C250.475 69.826 250.579 70.066 250.579 70.354C250.579 70.626 250.475 70.866 250.267 71.074C250.075 71.282 249.843 71.386 249.571 71.386H244.531V74.506C244.531 75.578 244.275 76.33 243.763 76.762C243.267 77.21 242.427 77.434 241.243 77.434ZM238.171 68.41C237.899 68.41 237.659 68.306 237.451 68.098C237.259 67.89 237.163 67.65 237.163 67.378C237.163 67.106 237.259 66.874 237.451 66.682C237.659 66.474 237.899 66.37 238.171 66.37H248.251C248.523 66.37 248.755 66.474 248.947 66.682C249.155 66.874 249.259 67.106 249.259 67.378C249.259 67.65 249.155 67.89 248.947 68.098C248.755 68.306 248.523 68.41 248.251 68.41H238.171ZM248.587 76.186C248.331 76.01 248.019 75.778 247.651 75.49C247.299 75.218 246.939 74.922 246.571 74.602C246.219 74.282 245.907 73.994 245.635 73.738C245.411 73.514 245.291 73.242 245.275 72.922C245.275 72.586 245.387 72.306 245.611 72.082C245.835 71.842 246.099 71.706 246.403 71.674C246.723 71.642 247.011 71.738 247.267 71.962C247.491 72.138 247.779 72.37 248.131 72.658C248.483 72.946 248.835 73.226 249.187 73.498C249.555 73.77 249.859 73.986 250.099 74.146C250.371 74.322 250.523 74.578 250.555 74.914C250.603 75.234 250.539 75.53 250.363 75.802C250.171 76.106 249.907 76.29 249.571 76.354C249.235 76.434 248.907 76.378 248.587 76.186ZM237.619 76.138C237.315 76.346 236.987 76.418 236.635 76.354C236.283 76.306 235.995 76.13 235.771 75.826C235.595 75.554 235.531 75.258 235.579 74.938C235.643 74.602 235.811 74.346 236.083 74.17C236.323 74.01 236.619 73.802 236.971 73.546C237.323 73.274 237.675 72.994 238.027 72.706C238.379 72.418 238.667 72.17 238.891 71.962C239.131 71.738 239.419 71.642 239.755 71.674C240.091 71.706 240.363 71.842 240.571 72.082C240.795 72.338 240.907 72.626 240.907 72.946C240.907 73.25 240.787 73.514 240.547 73.738C240.339 73.946 240.059 74.202 239.707 74.506C239.355 74.794 238.987 75.09 238.603 75.394C238.235 75.682 237.907 75.93 237.619 76.138ZM242.563 63.538H243.907V61.282H242.563V63.538ZM246.115 63.538H246.355C246.851 63.538 247.179 63.458 247.339 63.298C247.499 63.138 247.579 62.842 247.579 62.41C247.579 61.962 247.499 61.666 247.339 61.522C247.179 61.362 246.851 61.282 246.355 61.282H246.115V63.538ZM240.235 63.538H240.355V61.282H240.235C239.739 61.282 239.403 61.362 239.227 61.522C239.067 61.666 238.987 61.962 238.987 62.41C238.987 62.842 239.067 63.138 239.227 63.298C239.403 63.458 239.739 63.538 240.235 63.538ZM242.563 59.314H243.907V58.114H242.563V59.314ZM265.867 77.362C265.563 77.57 265.227 77.682 264.859 77.698C264.491 77.73 264.171 77.586 263.899 77.266C263.755 77.09 263.667 76.898 263.635 76.69C263.603 76.482 263.619 76.282 263.683 76.09C262.947 76.186 262.131 76.282 261.235 76.378C260.355 76.474 259.459 76.562 258.547 76.642C257.635 76.738 256.755 76.826 255.907 76.906C255.075 76.986 254.331 77.058 253.675 77.122C253.355 77.138 253.075 77.058 252.835 76.882C252.595 76.706 252.459 76.442 252.427 76.09C252.411 75.754 252.507 75.482 252.715 75.274C252.923 75.05 253.179 74.93 253.483 74.914C253.867 74.882 254.283 74.85 254.731 74.818C255.195 74.786 255.675 74.754 256.171 74.722V73.618H253.459C253.251 73.618 253.075 73.546 252.931 73.402C252.787 73.242 252.715 73.058 252.715 72.85C252.715 72.642 252.787 72.466 252.931 72.322C253.075 72.178 253.251 72.106 253.459 72.106H256.171V71.386H253.459C253.251 71.386 253.075 71.314 252.931 71.17C252.787 71.026 252.715 70.85 252.715 70.642C252.715 70.418 252.787 70.234 252.931 70.09C253.075 69.946 253.251 69.874 253.459 69.874H256.171V69.154H253.459C253.251 69.154 253.075 69.082 252.931 68.938C252.787 68.794 252.715 68.618 252.715 68.41C252.715 68.186 252.787 68.002 252.931 67.858C253.075 67.714 253.251 67.642 253.459 67.642H256.171V66.946H253.195C252.939 66.946 252.715 66.85 252.523 66.658C252.331 66.466 252.235 66.242 252.235 65.986C252.235 65.714 252.331 65.482 252.523 65.29C252.715 65.098 252.939 65.002 253.195 65.002H254.035C253.827 64.842 253.707 64.618 253.675 64.33C253.643 64.042 253.715 63.794 253.891 63.586C254.131 63.314 254.387 62.994 254.659 62.626C254.931 62.242 255.187 61.858 255.427 61.474C255.683 61.074 255.891 60.722 256.051 60.418C256.195 60.146 256.411 59.978 256.699 59.914C256.987 59.834 257.259 59.858 257.515 59.986C257.787 60.114 257.971 60.314 258.067 60.586C258.163 60.858 258.139 61.13 257.995 61.402C257.963 61.466 257.923 61.538 257.875 61.618C257.843 61.698 257.803 61.778 257.755 61.858C257.963 61.986 258.195 62.138 258.451 62.314C258.707 62.474 258.899 62.594 259.027 62.674C259.363 62.898 259.507 63.21 259.459 63.61C259.811 63.162 260.155 62.658 260.491 62.098C260.827 61.522 261.107 61.01 261.331 60.562C261.459 60.29 261.667 60.114 261.955 60.034C262.243 59.954 262.523 59.978 262.795 60.106C262.715 59.786 262.771 59.49 262.963 59.218C263.347 58.69 263.715 58.082 264.067 57.394C264.435 56.69 264.747 56.066 265.003 55.522C265.147 55.202 265.371 54.994 265.675 54.898C265.995 54.802 266.299 54.818 266.587 54.946C266.907 55.074 267.115 55.274 267.211 55.546C267.323 55.818 267.315 56.098 267.187 56.386C267.155 56.466 267.115 56.554 267.067 56.65C267.035 56.73 267.003 56.818 266.971 56.914H273.259C273.547 56.914 273.787 57.018 273.979 57.226C274.187 57.418 274.291 57.658 274.291 57.946C274.291 58.234 274.187 58.482 273.979 58.69C273.787 58.882 273.547 58.978 273.259 58.978H269.851C269.883 59.042 269.915 59.114 269.947 59.194C269.979 59.258 270.003 59.314 270.019 59.362C270.147 59.666 270.139 59.962 269.995 60.25C269.851 60.522 269.619 60.722 269.299 60.85C268.979 60.962 268.667 60.97 268.363 60.874C268.075 60.762 267.875 60.554 267.763 60.25C267.699 60.074 267.619 59.866 267.523 59.626C267.443 59.37 267.363 59.154 267.283 58.978H265.891C265.763 59.218 265.627 59.45 265.483 59.674C265.355 59.882 265.227 60.09 265.099 60.298C264.923 60.57 264.675 60.77 264.355 60.898C264.035 61.01 263.715 60.986 263.395 60.826C263.443 61.034 263.419 61.25 263.323 61.474L263.203 61.714C263.459 61.874 263.755 62.066 264.091 62.29C264.427 62.514 264.667 62.666 264.811 62.746C265.051 62.89 265.195 63.106 265.243 63.394C265.291 63.666 265.227 63.922 265.051 64.162C264.875 64.418 264.635 64.562 264.331 64.594C264.043 64.61 263.771 64.538 263.515 64.378C263.355 64.282 263.155 64.146 262.915 63.97C262.675 63.794 262.443 63.626 262.219 63.466C261.915 63.962 261.603 64.418 261.283 64.834C261.235 64.898 261.179 64.954 261.115 65.002H265.987C265.939 64.474 265.899 63.922 265.867 63.346C265.851 62.77 265.835 62.17 265.819 61.546C265.819 61.162 265.931 60.858 266.155 60.634C266.395 60.41 266.691 60.298 267.043 60.298C267.379 60.298 267.667 60.41 267.907 60.634C268.163 60.858 268.291 61.154 268.291 61.522C268.307 62.162 268.323 62.778 268.339 63.37C268.371 63.946 268.411 64.49 268.459 65.002H273.595C273.851 65.002 274.067 65.098 274.243 65.29C274.435 65.482 274.531 65.714 274.531 65.986C274.531 66.242 274.435 66.466 274.243 66.658C274.067 66.85 273.851 66.946 273.595 66.946H272.179C272.771 67.234 272.947 67.698 272.707 68.338C272.403 69.106 272.059 69.858 271.675 70.594C271.291 71.33 270.867 72.042 270.403 72.73C270.563 72.986 270.723 73.242 270.883 73.498C271.059 73.754 271.251 74.002 271.459 74.242C271.651 74.482 271.811 74.586 271.939 74.554C272.067 74.522 272.187 74.354 272.299 74.05C272.363 73.89 272.419 73.738 272.467 73.594C272.515 73.434 272.571 73.282 272.635 73.138C272.763 72.802 272.971 72.578 273.259 72.466C273.563 72.338 273.899 72.354 274.267 72.514C274.571 72.642 274.771 72.858 274.867 73.162C274.963 73.45 274.947 73.754 274.819 74.074C274.739 74.282 274.635 74.554 274.507 74.89C274.379 75.21 274.243 75.522 274.099 75.826C273.555 76.946 272.891 77.546 272.107 77.626C271.339 77.722 270.603 77.378 269.899 76.594C269.675 76.338 269.459 76.066 269.251 75.778C269.043 75.506 268.843 75.218 268.651 74.914C267.819 75.81 266.891 76.626 265.867 77.362ZM259.771 60.97C259.451 61.082 259.139 61.09 258.835 60.994C258.547 60.898 258.347 60.69 258.235 60.37C258.187 60.226 258.107 60.01 257.995 59.722C257.883 59.434 257.787 59.186 257.707 58.978H256.051C255.891 59.25 255.731 59.522 255.571 59.794C255.411 60.05 255.251 60.29 255.091 60.514C254.883 60.802 254.595 60.994 254.227 61.09C253.875 61.186 253.531 61.13 253.195 60.922C252.939 60.746 252.787 60.498 252.739 60.178C252.691 59.858 252.763 59.578 252.955 59.338C253.387 58.778 253.811 58.13 254.227 57.394C254.659 56.642 255.011 55.986 255.283 55.426C255.427 55.106 255.651 54.906 255.955 54.826C256.275 54.73 256.579 54.746 256.867 54.874C257.171 55.002 257.371 55.202 257.467 55.474C257.563 55.746 257.547 56.034 257.419 56.338C257.387 56.418 257.347 56.506 257.299 56.602C257.251 56.698 257.203 56.802 257.155 56.914H262.435C262.723 56.914 262.963 57.018 263.155 57.226C263.363 57.418 263.467 57.658 263.467 57.946C263.467 58.234 263.363 58.482 263.155 58.69C262.963 58.882 262.723 58.978 262.435 58.978H260.275C260.387 59.218 260.451 59.378 260.467 59.458C260.595 59.778 260.587 60.082 260.443 60.37C260.315 60.642 260.091 60.842 259.771 60.97ZM265.531 74.506C265.883 74.218 266.219 73.914 266.539 73.594C266.875 73.258 267.195 72.914 267.499 72.562C266.907 71.01 266.467 69.138 266.179 66.946H262.099V67.594H264.835C265.059 67.594 265.243 67.666 265.387 67.81C265.531 67.954 265.603 68.13 265.603 68.338C265.603 68.546 265.531 68.73 265.387 68.89C265.243 69.034 265.059 69.106 264.835 69.106H262.099V69.706H264.835C265.059 69.706 265.243 69.778 265.387 69.922C265.531 70.066 265.603 70.25 265.603 70.474C265.603 70.682 265.531 70.858 265.387 71.002C265.243 71.146 265.059 71.218 264.835 71.218H262.099V71.842H264.835C265.059 71.842 265.243 71.914 265.387 72.058C265.531 72.202 265.603 72.378 265.603 72.586C265.603 72.794 265.531 72.978 265.387 73.138C265.243 73.282 265.059 73.354 264.835 73.354H262.099V74.218C262.563 74.186 262.995 74.146 263.395 74.098C263.795 74.05 264.171 74.01 264.523 73.978C265.019 73.946 265.355 74.122 265.531 74.506ZM258.595 74.53L259.675 74.434V66.946H258.595V74.53ZM272.275 64.378C272.035 64.57 271.763 64.658 271.459 64.642C271.155 64.61 270.899 64.474 270.691 64.234C270.547 64.058 270.339 63.818 270.067 63.514C269.795 63.194 269.587 62.954 269.443 62.794C269.251 62.586 269.163 62.338 269.179 62.05C269.211 61.762 269.339 61.53 269.563 61.354C269.803 61.13 270.067 61.026 270.355 61.042C270.643 61.058 270.899 61.178 271.123 61.402C271.267 61.546 271.483 61.77 271.771 62.074C272.059 62.362 272.283 62.602 272.443 62.794C272.667 63.034 272.763 63.306 272.731 63.61C272.699 63.914 272.547 64.17 272.275 64.378ZM269.275 70.042C269.739 69.242 270.139 68.418 270.475 67.57C270.603 67.266 270.771 67.058 270.979 66.946H268.651C268.731 67.522 268.819 68.066 268.915 68.578C269.027 69.09 269.147 69.578 269.275 70.042ZM255.499 65.002H259.459C259.235 64.778 259.139 64.522 259.171 64.234C258.979 64.426 258.747 64.538 258.475 64.57C258.219 64.586 257.979 64.514 257.755 64.354C257.643 64.274 257.483 64.162 257.275 64.018C257.083 63.858 256.891 63.706 256.699 63.562C256.539 63.77 256.379 63.986 256.219 64.21C256.075 64.418 255.923 64.61 255.763 64.786C255.699 64.882 255.611 64.954 255.499 65.002ZM108.763 100.554C108.443 100.762 108.107 100.842 107.755 100.794C107.403 100.73 107.123 100.53 106.915 100.194C106.851 100.082 106.779 99.97 106.699 99.858C106.619 99.73 106.531 99.602 106.435 99.474C105.843 99.538 105.155 99.61 104.371 99.69C103.587 99.77 102.771 99.85 101.923 99.93C101.091 100.01 100.299 100.082 99.5465 100.146C98.7945 100.194 98.1385 100.242 97.5785 100.29C97.1785 100.306 96.8505 100.202 96.5945 99.978C96.3385 99.754 96.1945 99.45 96.1625 99.066C96.1465 98.73 96.2425 98.434 96.4505 98.178C96.6745 97.922 96.9865 97.786 97.3865 97.77C97.6425 97.754 97.9145 97.738 98.2025 97.722C98.5065 97.706 98.8265 97.69 99.1625 97.674C99.3065 97.338 99.4585 96.946 99.6185 96.498C99.7785 96.05 99.9385 95.602 100.099 95.154C100.275 94.706 100.419 94.306 100.531 93.954H97.4345C97.0825 93.954 96.7865 93.834 96.5465 93.594C96.3065 93.354 96.1865 93.058 96.1865 92.706C96.1865 92.37 96.3065 92.082 96.5465 91.842C96.7865 91.602 97.0825 91.482 97.4345 91.482H107.899C108.251 91.482 108.547 91.602 108.787 91.842C109.027 92.082 109.147 92.37 109.147 92.706C109.147 93.058 109.027 93.354 108.787 93.594C108.547 93.834 108.251 93.954 107.899 93.954H103.411C103.235 94.498 103.019 95.082 102.763 95.706C102.523 96.314 102.291 96.906 102.067 97.482C102.547 97.45 103.027 97.41 103.507 97.362C103.987 97.314 104.435 97.274 104.851 97.242C104.771 97.13 104.691 97.026 104.611 96.93C104.547 96.834 104.475 96.746 104.395 96.666C104.203 96.41 104.131 96.13 104.179 95.826C104.227 95.506 104.379 95.25 104.635 95.058C104.923 94.85 105.227 94.754 105.547 94.77C105.883 94.786 106.163 94.93 106.387 95.202C106.627 95.474 106.915 95.826 107.251 96.258C107.587 96.69 107.915 97.13 108.235 97.578C108.571 98.01 108.843 98.37 109.051 98.658C109.291 98.994 109.371 99.346 109.291 99.714C109.227 100.066 109.051 100.346 108.763 100.554ZM98.1305 112.002C97.7305 112.098 97.3705 112.034 97.0505 111.81C96.7465 111.602 96.5545 111.298 96.4745 110.898C96.4105 110.53 96.4745 110.194 96.6665 109.89C96.8745 109.586 97.1785 109.402 97.5785 109.338C97.7065 109.306 98.1305 109.226 98.8505 109.098C99.5865 108.97 100.419 108.818 101.347 108.642V105.546H98.1545C97.8185 105.546 97.5305 105.426 97.2905 105.186C97.0505 104.946 96.9305 104.658 96.9305 104.322C96.9305 103.97 97.0505 103.674 97.2905 103.434C97.5305 103.194 97.8185 103.074 98.1545 103.074H101.347V101.562C101.347 101.146 101.483 100.81 101.755 100.554C102.027 100.298 102.363 100.17 102.763 100.17C103.147 100.17 103.475 100.298 103.747 100.554C104.035 100.81 104.179 101.146 104.179 101.562V103.074H107.131C107.467 103.074 107.755 103.194 107.995 103.434C108.235 103.674 108.355 103.97 108.355 104.322C108.355 104.658 108.235 104.946 107.995 105.186C107.755 105.426 107.467 105.546 107.131 105.546H104.179V108.114C104.979 107.97 105.667 107.842 106.243 107.73C106.835 107.618 107.187 107.554 107.299 107.538C107.715 107.442 108.051 107.482 108.307 107.658C108.563 107.818 108.731 108.082 108.811 108.45C108.891 108.802 108.859 109.122 108.715 109.41C108.571 109.698 108.291 109.89 107.875 109.986C107.795 110.002 107.523 110.058 107.059 110.154C106.595 110.25 106.011 110.37 105.307 110.514C104.619 110.658 103.883 110.81 103.099 110.97C102.331 111.13 101.595 111.282 100.891 111.426C100.187 111.57 99.5785 111.69 99.0665 111.786C98.5705 111.898 98.2585 111.97 98.1305 112.002ZM113.227 112.362C112.827 112.362 112.483 112.226 112.195 111.954C111.923 111.682 111.779 111.346 111.763 110.946C111.747 110.546 111.843 110.202 112.051 109.914C112.275 109.626 112.603 109.466 113.035 109.434C113.515 109.386 113.867 109.322 114.091 109.242C114.331 109.162 114.491 109.026 114.571 108.834C114.651 108.626 114.691 108.322 114.691 107.922V91.578C114.691 91.162 114.827 90.834 115.099 90.594C115.371 90.354 115.691 90.234 116.059 90.234C116.427 90.234 116.739 90.354 116.995 90.594C117.267 90.834 117.403 91.162 117.403 91.578V108.474C117.403 109.434 117.275 110.194 117.019 110.754C116.763 111.33 116.331 111.738 115.723 111.978C115.115 112.234 114.283 112.362 113.227 112.362ZM111.235 106.962C110.867 106.962 110.547 106.842 110.275 106.602C110.019 106.346 109.891 106.018 109.891 105.618V93.978C109.891 93.562 110.019 93.234 110.275 92.994C110.547 92.754 110.867 92.634 111.235 92.634C111.603 92.634 111.915 92.754 112.171 92.994C112.443 93.234 112.579 93.562 112.579 93.978V105.618C112.579 106.018 112.443 106.346 112.171 106.602C111.915 106.842 111.603 106.962 111.235 106.962ZM121.579 111.066C121.211 111.066 120.891 110.938 120.619 110.682C120.363 110.426 120.235 110.114 120.235 109.746C120.235 109.378 120.363 109.066 120.619 108.81C120.891 108.538 121.211 108.402 121.579 108.402H123.883V99.018C123.883 98.554 124.027 98.186 124.315 97.914C124.619 97.642 124.979 97.506 125.395 97.506C125.811 97.506 126.163 97.642 126.451 97.914C126.739 98.186 126.883 98.554 126.883 99.018V108.402H129.883V94.146H122.323C121.955 94.146 121.635 94.018 121.363 93.762C121.107 93.49 120.979 93.17 120.979 92.802C120.979 92.434 121.107 92.122 121.363 91.866C121.635 91.594 121.955 91.458 122.323 91.458H140.467C140.835 91.458 141.147 91.594 141.403 91.866C141.675 92.122 141.811 92.434 141.811 92.802C141.811 93.17 141.675 93.49 141.403 93.762C141.147 94.018 140.835 94.146 140.467 94.146H132.955V99.522H138.139C138.523 99.522 138.851 99.658 139.123 99.93C139.395 100.202 139.531 100.53 139.531 100.914C139.531 101.298 139.395 101.626 139.123 101.898C138.851 102.17 138.523 102.306 138.139 102.306H132.955V108.402H141.211C141.579 108.402 141.891 108.538 142.147 108.81C142.419 109.066 142.555 109.378 142.555 109.746C142.555 110.114 142.419 110.426 142.147 110.682C141.891 110.938 141.579 111.066 141.211 111.066H121.579ZM159.763 112.122C158.643 112.122 157.763 112.01 157.123 111.786C156.499 111.578 156.059 111.194 155.803 110.634C155.563 110.09 155.443 109.314 155.443 108.306V102.882C155.331 103.01 155.203 103.138 155.059 103.266C154.931 103.394 154.803 103.522 154.675 103.65C154.483 103.826 154.251 103.938 153.979 103.986C153.723 104.018 153.483 103.986 153.259 103.89V107.466C153.259 108.618 153.011 109.426 152.515 109.89C152.019 110.338 151.171 110.562 149.971 110.562C148.771 110.562 147.923 110.338 147.427 109.89C146.947 109.426 146.707 108.618 146.707 107.466V104.202C146.611 104.346 146.515 104.49 146.419 104.634C146.339 104.762 146.259 104.89 146.179 105.018C145.971 105.322 145.683 105.506 145.315 105.57C144.947 105.634 144.603 105.562 144.283 105.354C143.979 105.162 143.803 104.89 143.755 104.538C143.707 104.186 143.779 103.866 143.971 103.578C144.531 102.778 145.059 101.866 145.555 100.842C146.067 99.802 146.499 98.746 146.851 97.674C147.219 96.586 147.475 95.57 147.619 94.626H145.507C145.171 94.626 144.883 94.506 144.643 94.266C144.403 94.026 144.283 93.738 144.283 93.402C144.283 93.05 144.403 92.754 144.643 92.514C144.883 92.274 145.171 92.154 145.507 92.154H152.851C153.187 92.154 153.475 92.274 153.715 92.514C153.955 92.754 154.075 93.05 154.075 93.402V93.57C154.331 93.218 154.699 92.97 155.179 92.826C155.659 92.682 156.291 92.61 157.075 92.61H158.275C158.403 92.114 158.499 91.626 158.563 91.146C158.643 90.73 158.835 90.426 159.139 90.234C159.459 90.042 159.803 89.986 160.171 90.066C160.539 90.13 160.811 90.298 160.987 90.57C161.179 90.842 161.235 91.178 161.155 91.578C161.123 91.738 161.083 91.906 161.035 92.082C160.987 92.258 160.947 92.434 160.915 92.61H162.979C164.291 92.61 165.203 92.834 165.715 93.282C166.227 93.714 166.483 94.514 166.483 95.682V96.354C166.483 96.706 166.355 97.01 166.099 97.266C165.859 97.506 165.563 97.626 165.211 97.626C164.891 97.626 164.611 97.506 164.371 97.266C164.131 97.026 164.011 96.746 164.011 96.426V95.85C164.011 95.434 163.923 95.162 163.747 95.034C163.587 94.906 163.267 94.842 162.787 94.842H160.243C160.019 95.482 159.771 96.114 159.499 96.738C159.227 97.346 158.931 97.938 158.611 98.514H160.123C160.219 98.274 160.323 98.002 160.435 97.698C160.547 97.378 160.651 97.082 160.747 96.81C160.859 96.522 160.931 96.314 160.963 96.186C161.091 95.85 161.315 95.61 161.635 95.466C161.971 95.322 162.307 95.314 162.643 95.442C162.979 95.554 163.211 95.762 163.339 96.066C163.483 96.37 163.491 96.682 163.363 97.002C163.315 97.114 163.227 97.322 163.099 97.626C162.987 97.93 162.867 98.226 162.739 98.514H164.875C165.195 98.514 165.459 98.626 165.667 98.85C165.891 99.058 166.003 99.314 166.003 99.618C166.003 99.922 165.891 100.186 165.667 100.41C165.459 100.634 165.195 100.746 164.875 100.746H162.499V102.33H164.419C164.723 102.33 164.979 102.434 165.187 102.642C165.395 102.85 165.499 103.106 165.499 103.41C165.499 103.714 165.395 103.97 165.187 104.178C164.979 104.386 164.723 104.49 164.419 104.49H162.499V106.05H164.419C164.723 106.05 164.979 106.162 165.187 106.386C165.395 106.594 165.499 106.85 165.499 107.154C165.499 107.458 165.395 107.714 165.187 107.922C164.979 108.13 164.723 108.234 164.419 108.234H162.499V109.842H165.115C165.435 109.842 165.699 109.954 165.907 110.178C166.131 110.386 166.243 110.65 166.243 110.97C166.243 111.29 166.131 111.562 165.907 111.786C165.699 112.01 165.435 112.122 165.115 112.122H159.763ZM153.187 101.658C154.227 100.682 155.107 99.626 155.827 98.49C156.563 97.354 157.155 96.138 157.603 94.842H157.315C156.835 94.842 156.507 94.906 156.331 95.034C156.171 95.162 156.091 95.434 156.091 95.85V96.426C156.091 96.762 155.971 97.05 155.731 97.29C155.491 97.514 155.211 97.626 154.891 97.626C154.539 97.626 154.227 97.498 153.955 97.242C153.699 96.986 153.571 96.682 153.571 96.33V95.682C153.571 95.138 153.635 94.658 153.763 94.242C153.507 94.498 153.203 94.626 152.851 94.626H150.211C150.099 95.426 149.931 96.242 149.707 97.074C149.499 97.906 149.251 98.722 148.963 99.522C149.107 99.506 149.259 99.498 149.419 99.498C149.595 99.482 149.779 99.474 149.971 99.474C151.011 99.474 151.779 99.634 152.275 99.954C152.771 100.274 153.075 100.842 153.187 101.658ZM149.947 108.09C150.251 108.09 150.467 108.034 150.595 107.922C150.739 107.794 150.811 107.578 150.811 107.274V102.738C150.811 102.418 150.739 102.202 150.595 102.09C150.467 101.978 150.251 101.922 149.947 101.922C149.643 101.922 149.419 101.978 149.275 102.09C149.131 102.202 149.059 102.418 149.059 102.738V107.274C149.059 107.578 149.131 107.794 149.275 107.922C149.419 108.034 149.643 108.09 149.947 108.09ZM157.987 102.33H160.027V100.746H157.987V102.33ZM157.987 106.05H160.027V104.49H157.987V106.05ZM159.763 109.842H160.027V108.234H157.987V108.306C157.987 108.946 158.099 109.362 158.323 109.554C158.547 109.746 159.027 109.842 159.763 109.842ZM173.539 110.514C172.387 110.514 171.491 110.402 170.851 110.178C170.211 109.954 169.763 109.578 169.507 109.05C169.267 108.506 169.147 107.778 169.147 106.866V98.274C169.147 97.186 169.315 96.37 169.651 95.826C170.003 95.266 170.667 94.906 171.643 94.746C171.739 94.314 171.851 93.794 171.979 93.186C172.107 92.578 172.203 92.082 172.267 91.698C172.347 91.25 172.539 90.93 172.843 90.738C173.147 90.546 173.515 90.49 173.947 90.57C174.379 90.65 174.691 90.85 174.883 91.17C175.075 91.49 175.123 91.858 175.027 92.274C174.963 92.578 174.867 92.962 174.739 93.426C174.611 93.89 174.499 94.298 174.403 94.65C175.347 94.698 176.075 94.85 176.587 95.106C177.099 95.362 177.451 95.746 177.643 96.258C177.835 96.77 177.931 97.442 177.931 98.274V106.866C177.931 107.778 177.803 108.506 177.547 109.05C177.307 109.578 176.867 109.954 176.227 110.178C175.603 110.402 174.707 110.514 173.539 110.514ZM183.979 112.314C183.547 112.33 183.171 112.234 182.851 112.026C182.547 111.834 182.355 111.498 182.275 111.018C182.227 110.602 182.331 110.25 182.587 109.962C182.843 109.658 183.187 109.49 183.619 109.458C184.355 109.394 184.907 109.314 185.275 109.218C185.643 109.106 185.907 108.914 186.067 108.642C186.227 108.37 186.355 107.954 186.451 107.394C186.627 106.37 186.739 105.218 186.787 103.938C186.835 102.658 186.859 101.042 186.859 99.09C186.859 98.29 186.731 97.77 186.475 97.53C186.219 97.29 185.707 97.17 184.939 97.17H182.059C181.851 97.666 181.627 98.13 181.387 98.562C181.147 98.994 180.915 99.394 180.691 99.762C180.483 100.114 180.195 100.354 179.827 100.482C179.459 100.594 179.099 100.554 178.747 100.362C178.427 100.186 178.203 99.922 178.075 99.57C177.963 99.218 178.003 98.882 178.195 98.562C178.579 97.938 178.963 97.234 179.347 96.45C179.731 95.65 180.083 94.826 180.403 93.978C180.723 93.13 180.979 92.322 181.171 91.554C181.267 91.138 181.475 90.826 181.795 90.618C182.131 90.41 182.499 90.354 182.899 90.45C183.267 90.53 183.555 90.722 183.763 91.026C183.971 91.33 184.027 91.69 183.931 92.106C183.723 92.922 183.459 93.762 183.139 94.626H185.203C186.275 94.626 187.131 94.738 187.771 94.962C188.411 95.186 188.875 95.618 189.163 96.258C189.451 96.882 189.595 97.794 189.595 98.994C189.595 100.354 189.579 101.554 189.547 102.594C189.531 103.634 189.491 104.57 189.427 105.402C189.363 106.234 189.275 107.034 189.163 107.802C188.987 108.986 188.699 109.898 188.299 110.538C187.915 111.178 187.371 111.618 186.667 111.858C185.979 112.114 185.083 112.266 183.979 112.314ZM184.699 105.666C184.379 105.89 184.035 105.978 183.667 105.93C183.299 105.882 183.003 105.69 182.779 105.354C182.587 105.05 182.347 104.698 182.059 104.298C181.787 103.898 181.507 103.506 181.219 103.122C180.947 102.738 180.707 102.426 180.499 102.186C180.291 101.914 180.203 101.602 180.235 101.25C180.283 100.882 180.451 100.594 180.739 100.386C181.027 100.146 181.355 100.05 181.723 100.098C182.091 100.13 182.395 100.29 182.635 100.578C182.875 100.85 183.139 101.17 183.427 101.538C183.731 101.906 184.019 102.282 184.291 102.666C184.563 103.05 184.795 103.394 184.987 103.698C185.211 104.05 185.291 104.41 185.227 104.778C185.179 105.146 185.003 105.442 184.699 105.666ZM173.539 107.994C174.179 107.994 174.603 107.898 174.811 107.706C175.019 107.498 175.123 107.122 175.123 106.578V103.698H171.955V106.578C171.955 107.122 172.059 107.498 172.267 107.706C172.475 107.898 172.899 107.994 173.539 107.994ZM171.955 101.25H175.123V98.562C175.123 98.018 175.019 97.65 174.811 97.458C174.603 97.25 174.179 97.146 173.539 97.146C172.899 97.146 172.475 97.25 172.267 97.458C172.059 97.65 171.955 98.018 171.955 98.562V101.25ZM196.723 112.53C196.323 112.53 195.987 112.402 195.715 112.146C195.443 111.89 195.307 111.546 195.307 111.114V100.122C195.131 100.378 194.955 100.618 194.779 100.842C194.619 101.066 194.451 101.282 194.275 101.49C194.035 101.794 193.723 101.97 193.339 102.018C192.955 102.05 192.611 101.954 192.307 101.73C192.019 101.506 191.851 101.218 191.803 100.866C191.755 100.498 191.835 100.178 192.043 99.906C192.459 99.378 192.907 98.738 193.387 97.986C193.867 97.234 194.339 96.442 194.803 95.61C195.267 94.778 195.691 93.978 196.075 93.21C196.459 92.426 196.755 91.746 196.963 91.17C197.123 90.786 197.371 90.514 197.707 90.354C198.043 90.194 198.395 90.178 198.763 90.306C199.131 90.418 199.403 90.634 199.579 90.954C199.755 91.274 199.763 91.634 199.603 92.034C199.427 92.514 199.211 93.034 198.955 93.594C198.715 94.138 198.443 94.698 198.139 95.274V111.114C198.139 111.546 198.003 111.89 197.731 112.146C197.459 112.402 197.123 112.53 196.723 112.53ZM200.011 111.498C199.659 111.498 199.347 111.362 199.075 111.09C198.819 110.834 198.691 110.53 198.691 110.178C198.691 109.81 198.819 109.498 199.075 109.242C199.347 108.97 199.659 108.834 200.011 108.834H206.347C206.539 108.146 206.747 107.378 206.971 106.53C207.211 105.682 207.435 104.818 207.643 103.938C207.867 103.058 208.067 102.21 208.243 101.394C208.435 100.578 208.579 99.866 208.675 99.258C208.755 98.842 208.963 98.522 209.299 98.298C209.635 98.074 210.003 98.002 210.403 98.082C210.851 98.146 211.187 98.338 211.411 98.658C211.635 98.978 211.707 99.346 211.627 99.762C211.515 100.338 211.355 101.018 211.147 101.802C210.955 102.57 210.739 103.378 210.499 104.226C210.275 105.074 210.051 105.898 209.827 106.698C209.603 107.498 209.403 108.21 209.227 108.834H213.355C213.723 108.834 214.035 108.97 214.291 109.242C214.547 109.498 214.675 109.81 214.675 110.178C214.675 110.53 214.547 110.834 214.291 111.09C214.035 111.362 213.723 111.498 213.355 111.498H200.011ZM200.515 97.506C200.163 97.506 199.851 97.378 199.579 97.122C199.323 96.866 199.195 96.562 199.195 96.21C199.195 95.842 199.323 95.53 199.579 95.274C199.851 95.018 200.163 94.89 200.515 94.89H204.955V91.914C204.955 91.45 205.107 91.082 205.411 90.81C205.715 90.522 206.075 90.378 206.491 90.378C206.907 90.378 207.267 90.522 207.571 90.81C207.875 91.082 208.027 91.45 208.027 91.914V94.89H212.755C213.123 94.89 213.427 95.018 213.667 95.274C213.923 95.53 214.051 95.842 214.051 96.21C214.051 96.562 213.923 96.866 213.667 97.122C213.427 97.378 213.123 97.506 212.755 97.506H200.515ZM204.427 107.706C204.027 107.818 203.651 107.802 203.299 107.658C202.963 107.498 202.739 107.186 202.627 106.722C202.531 106.338 202.403 105.874 202.243 105.33C202.099 104.77 201.939 104.194 201.763 103.602C201.587 102.994 201.403 102.418 201.211 101.874C201.035 101.314 200.875 100.842 200.731 100.458C200.571 100.058 200.595 99.682 200.803 99.33C201.011 98.978 201.307 98.754 201.691 98.658C202.107 98.546 202.483 98.562 202.819 98.706C203.155 98.85 203.395 99.13 203.539 99.546C203.683 99.946 203.843 100.426 204.019 100.986C204.195 101.546 204.371 102.13 204.547 102.738C204.723 103.33 204.883 103.906 205.027 104.466C205.187 105.01 205.315 105.482 205.411 105.882C205.539 106.378 205.507 106.778 205.315 107.082C205.123 107.37 204.827 107.578 204.427 107.706ZM226.963 109.266C225.747 109.266 224.803 109.154 224.131 108.93C223.475 108.69 223.011 108.306 222.739 107.778C222.483 107.234 222.355 106.514 222.355 105.618V103.17C222.355 102.306 222.475 101.618 222.715 101.106C222.955 100.578 223.371 100.194 223.963 99.954C224.571 99.698 225.419 99.554 226.507 99.522V98.706H217.315C217.011 98.706 216.755 98.602 216.547 98.394C216.339 98.186 216.235 97.938 216.235 97.65C216.235 97.346 216.339 97.09 216.547 96.882C216.755 96.674 217.011 96.57 217.315 96.57H226.507V95.682H221.923C220.643 95.682 219.763 95.49 219.283 95.106C218.803 94.706 218.563 94.042 218.563 93.114C218.563 92.17 218.803 91.506 219.283 91.122C219.763 90.738 220.643 90.546 221.923 90.546H232.867C234.147 90.546 235.027 90.738 235.507 91.122C235.987 91.506 236.227 92.17 236.227 93.114C236.227 94.042 235.987 94.706 235.507 95.106C235.027 95.49 234.147 95.682 232.867 95.682H229.339V96.57H237.475C237.795 96.57 238.051 96.674 238.243 96.882C238.435 97.09 238.531 97.346 238.531 97.65C238.531 97.938 238.435 98.186 238.243 98.394C238.051 98.602 237.795 98.706 237.475 98.706H229.339V99.522H230.611C231.827 99.522 232.763 99.642 233.419 99.882C234.091 100.106 234.555 100.49 234.811 101.034C235.083 101.562 235.219 102.274 235.219 103.17V105.618C235.219 106.514 235.083 107.234 234.811 107.778C234.555 108.306 234.091 108.69 233.419 108.93C232.763 109.154 231.827 109.266 230.611 109.266H226.963ZM222.715 112.314C221.371 112.314 220.331 112.178 219.595 111.906C218.859 111.65 218.347 111.202 218.059 110.562C217.771 109.938 217.627 109.066 217.627 107.946V102.09C217.627 101.674 217.763 101.346 218.035 101.106C218.307 100.866 218.627 100.746 218.995 100.746C219.363 100.746 219.683 100.866 219.955 101.106C220.227 101.346 220.363 101.674 220.363 102.09V107.946C220.363 108.522 220.427 108.962 220.555 109.266C220.699 109.554 220.939 109.754 221.275 109.866C221.611 109.962 222.091 110.01 222.715 110.01H237.355C237.659 110.01 237.915 110.13 238.123 110.37C238.347 110.61 238.459 110.874 238.459 111.162C238.459 111.466 238.347 111.73 238.123 111.954C237.915 112.194 237.659 112.314 237.355 112.314H222.715ZM224.995 104.85H232.555V103.914H224.995V104.85ZM226.963 107.394H230.611C231.219 107.394 231.659 107.338 231.931 107.226C232.219 107.098 232.403 106.842 232.483 106.458H225.067C225.147 106.842 225.331 107.098 225.619 107.226C225.907 107.338 226.355 107.394 226.963 107.394ZM225.067 102.282H232.483C232.403 101.914 232.219 101.674 231.931 101.562C231.659 101.45 231.219 101.394 230.611 101.394H226.963C226.371 101.394 225.931 101.45 225.643 101.562C225.355 101.674 225.163 101.914 225.067 102.282ZM226.123 93.762H228.667V92.49H226.123V93.762ZM222.091 93.762H223.747V92.49H222.067C221.763 92.49 221.547 92.53 221.419 92.61C221.291 92.674 221.227 92.842 221.227 93.114C221.227 93.37 221.291 93.546 221.419 93.642C221.563 93.722 221.787 93.762 222.091 93.762ZM231.043 93.762H232.699C233.019 93.762 233.243 93.722 233.371 93.642C233.499 93.546 233.563 93.37 233.563 93.114C233.563 92.842 233.491 92.674 233.347 92.61C233.219 92.53 232.995 92.49 232.675 92.49H231.043V93.762ZM242.683 92.13H248.155V106.29H242.683V103.65H245.491V94.77H242.683V92.13ZM240.955 92.13H243.571V108.426H240.955V92.13ZM249.667 91.482H252.475V107.874C252.475 109.338 252.667 109.554 254.107 109.554C254.779 109.554 257.851 109.554 258.571 109.554C259.819 109.554 260.059 108.978 260.275 106.53C260.923 106.986 262.075 107.466 262.867 107.61C262.483 111.018 261.619 112.194 258.835 112.194C258.043 112.194 254.563 112.194 253.819 112.194C250.651 112.194 249.667 111.354 249.667 107.85V91.482ZM251.011 91.482H261.859V104.754H259.051V94.122H251.011V91.482ZM250.939 100.746H260.131V103.338H250.939V100.746ZM254.395 92.514H257.011V101.49H254.395V92.514ZM275.395 106.026C275.075 106.026 274.795 105.914 274.555 105.69C274.315 105.466 274.179 105.186 274.147 104.85C274.099 104.242 274.051 103.546 274.003 102.762C273.971 101.978 273.931 101.178 273.883 100.362C273.835 99.53 273.795 98.738 273.763 97.986C273.731 97.234 273.707 96.57 273.691 95.994C273.675 95.418 273.667 94.994 273.667 94.722V92.346C273.667 91.882 273.827 91.49 274.147 91.17C274.483 90.85 274.899 90.69 275.395 90.69C275.907 90.69 276.323 90.85 276.643 91.17C276.979 91.49 277.147 91.882 277.147 92.346V94.722C277.147 94.994 277.131 95.418 277.099 95.994C277.083 96.57 277.059 97.234 277.027 97.986C276.995 98.738 276.955 99.53 276.907 100.362C276.875 101.178 276.835 101.978 276.787 102.762C276.739 103.546 276.691 104.242 276.643 104.85C276.627 105.186 276.499 105.466 276.259 105.69C276.019 105.914 275.731 106.026 275.395 106.026ZM275.395 111.882C274.835 111.882 274.355 111.682 273.955 111.282C273.555 110.882 273.355 110.402 273.355 109.842C273.355 109.282 273.555 108.802 273.955 108.402C274.355 108.002 274.835 107.802 275.395 107.802C275.955 107.802 276.435 108.002 276.835 108.402C277.235 108.802 277.435 109.282 277.435 109.842C277.435 110.402 277.235 110.882 276.835 111.282C276.435 111.682 275.955 111.882 275.395 111.882Z" fill="black"/>
</svg>
