<svg width="200" height="90" viewBox="0 0 200 90" fill="none" xmlns="http://www.w3.org/2000/svg">
<g clip-path="url(#clip0_1260_3954)">
<rect width="200" height="90" fill="#FEB79D"/>
<path fill-rule="evenodd" clip-rule="evenodd" d="M-6.18027 85.5257C-5.5206 81.3514 -9.94765 77.2571 -7.65473 73.2393C-4.94813 68.4966 -1.65241 61.9915 7.77154 61.0783C17.9972 60.0873 23.5998 68.8258 33.9785 69.2048C45.8176 69.6371 56.5881 60.196 66.8872 63.2371C76.2425 65.9996 70.121 74.0119 68.9752 79.5387C68.1676 83.4341 61.5364 86.4306 61.2669 90.3457C60.8502 96.3973 75.7689 103.853 67.0229 107.895C58.3557 111.9 45.7383 103.802 34.2527 102.83C27.3162 102.243 20.5655 103.925 13.6182 103.373C4.65786 102.66 -7.2514 103.227 -11.7526 99.1698C-16.3208 95.0519 -6.92748 90.2539 -6.18027 85.5257Z" fill="#FE585B"/>
<path fill-rule="evenodd" clip-rule="evenodd" d="M28.4743 10.5302C32.6486 10.8717 36.7429 8.58004 40.7607 9.76696C45.5034 11.168 52.0085 12.874 52.9217 17.7523C53.9127 23.0456 45.1742 25.9458 44.7952 31.3183C44.3629 37.4467 53.804 43.0221 50.7629 48.3534C48.0004 53.1961 39.9881 50.0274 34.4613 49.4342C30.5659 49.0162 27.5694 45.5836 23.6543 45.444C17.6027 45.2284 10.1469 52.9509 6.10508 48.4236C2.09968 43.9371 10.1975 37.4057 11.1701 31.4602C11.7575 27.8695 10.0747 24.3751 10.6274 20.7788C11.3402 16.1405 10.7727 9.97575 14.8302 7.64571C18.9481 5.281 23.7461 10.1434 28.4743 10.5302Z" fill="#FC7443"/>
<path fill-rule="evenodd" clip-rule="evenodd" d="M173.474 4.53021C177.649 4.87169 181.743 2.58004 185.761 3.76696C190.503 5.16803 197.008 6.87405 197.922 11.7523C198.913 17.0456 190.174 19.9458 189.795 25.3183C189.363 31.4467 198.804 37.0221 195.763 42.3534C193 47.1961 184.988 44.0274 179.461 43.4342C175.566 43.0162 172.569 39.5836 168.654 39.444C162.603 39.2284 155.147 46.9509 151.105 42.4236C147.1 37.9371 155.198 31.4057 156.17 25.4602C156.757 21.8695 155.075 18.3751 155.627 14.7788C156.34 10.1405 155.773 3.97575 159.83 1.64571C163.948 -0.719004 168.746 4.14342 173.474 4.53021Z" fill="#FF8787"/>
<path fill-rule="evenodd" clip-rule="evenodd" d="M117.063 7.20494C131.49 7.9797 144.155 11.9054 154.996 17.5775C166.733 23.7188 176.896 30.8598 179.688 39.9711C183.097 51.0949 184.354 63.7453 171.749 72.2549C158.691 81.0707 136.857 81.4742 117.063 82.2497C95.2362 83.1048 71.8992 84.7511 54.6033 76.8446C35.6156 68.1646 20.8565 53.9771 24.5773 39.9711C28.0889 26.7526 52.1053 19.9805 71.5388 13.0955C85.3864 8.18958 100.98 6.34119 117.063 7.20494Z" fill="#FFAB7A"/>
<ellipse cx="177.987" cy="70.7269" rx="16.7876" ry="14.0511" fill="#F55A57"/>
<ellipse cx="173.711" cy="65.6395" rx="1.21537" ry="2.15126" fill="black"/>
<ellipse cx="182.286" cy="65.6395" rx="1.21537" ry="2.15126" fill="black"/>
<path d="M173.043 72.6445C173.079 74.5722 175.312 76.0937 178.031 76.0428C180.749 75.9919 182.924 74.388 182.888 72.4603C182.852 70.5326 180.67 71.7825 177.952 71.8334C175.233 71.8843 173.007 70.7168 173.043 72.6445Z" fill="black"/>
<path d="M170.796 50.9035C173.677 48.6452 180.1 51.1915 180.1 55.0219C180.101 59.542 168.086 61.6232 165.801 61.9782C165.552 62.0169 165.303 62.044 165.054 62.039C163.425 62.0062 157.615 61.2375 170.796 50.9035Z" fill="#6E5232"/>
<path d="M170.796 50.9035C173.677 48.6452 180.1 51.1915 180.1 55.0219C180.101 59.542 168.086 61.6232 165.801 61.9782C165.552 62.0169 165.303 62.044 165.054 62.039C163.425 62.0062 157.615 61.2375 170.796 50.9035Z" fill="url(#paint0_radial_1260_3954)" fill-opacity="0.15"/>
<path d="M185.2 50.7629C182.319 48.5045 175.896 51.0509 175.896 54.8813C175.896 59.4014 187.91 61.4825 190.195 61.8375C190.445 61.8763 190.693 61.9034 190.942 61.8984C192.571 61.8656 198.381 61.0968 185.2 50.7629Z" fill="#6E5232"/>
<path d="M185.2 50.7629C182.319 48.5045 175.896 51.0509 175.896 54.8813C175.896 59.4014 187.91 61.4825 190.195 61.8375C190.445 61.8763 190.693 61.9034 190.942 61.8984C192.571 61.8656 198.381 61.0968 185.2 50.7629Z" fill="url(#paint1_radial_1260_3954)" fill-opacity="0.15"/>
<path d="M84.3161 38.4608C84.0697 38.535 83.873 38.5324 83.7261 38.453C83.5791 38.3802 83.472 38.2572 83.4047 38.0842C83.3508 37.9244 83.3635 37.7643 83.4429 37.604C83.5223 37.4437 83.6619 37.3399 83.8618 37.2925C84.5677 37.1032 85.1936 36.8708 85.7392 36.5955C86.2849 36.3201 86.767 36.0083 87.1857 35.6601C86.7706 35.175 86.412 34.6397 86.1098 34.0541C85.8143 33.4619 85.5685 32.8194 85.3726 32.1268L83.9126 32.1322C83.766 32.1328 83.6391 32.0799 83.5321 31.9736C83.425 31.8674 83.3712 31.7409 83.3706 31.5942C83.3701 31.4476 83.423 31.324 83.5293 31.2236C83.6355 31.1166 83.762 31.0628 83.9087 31.0622L87.3387 31.0495L87.3342 29.8495C87.3335 29.6562 87.3962 29.4993 87.5225 29.3788C87.6487 29.2584 87.8018 29.1978 87.9818 29.1971C88.1618 29.1965 88.3153 29.2559 88.4425 29.3754C88.5696 29.495 88.6335 29.6514 88.6342 29.8447L88.6386 31.0447L92.0486 31.0321C92.1953 31.0315 92.3188 31.0844 92.4192 31.1907C92.5263 31.2903 92.58 31.4134 92.5806 31.5601C92.5811 31.7068 92.5283 31.8336 92.422 31.9407C92.3224 32.0477 92.1993 32.1015 92.0526 32.1021L90.6726 32.1072C90.4885 32.8012 90.2475 33.4421 89.9497 34.0299C89.6586 34.6176 89.3072 35.1556 88.8957 35.6438C89.3237 35.9955 89.8148 36.307 90.3692 36.5783C90.9235 36.8496 91.551 37.0773 92.2517 37.2614C92.4519 37.3073 92.5889 37.4101 92.6629 37.5698C92.7368 37.7296 92.744 37.8895 92.6846 38.0498C92.6253 38.2233 92.5191 38.347 92.366 38.4209C92.2196 38.4948 92.0263 38.4989 91.7861 38.4331C90.2711 37.992 89.0254 37.3533 88.0489 36.5169C87.5638 36.9321 87.0118 37.3008 86.393 37.6231C85.7809 37.9453 85.0886 38.2246 84.3161 38.4608ZM88.0425 34.7769C88.3411 34.4025 88.5962 33.9916 88.8079 33.5441C89.0196 33.0966 89.1978 32.6193 89.3426 32.1121L86.6926 32.1219C86.8478 32.628 87.0329 33.104 87.2479 33.5499C87.4696 33.9957 87.7344 34.4047 88.0425 34.7769ZM98.0163 38.49C97.8496 38.4906 97.7094 38.4378 97.5957 38.3316C97.482 38.2253 97.4248 38.0822 97.4241 37.9022L97.4198 36.7322L96.2098 36.7367C96.0631 36.7372 95.9329 36.6844 95.8192 36.5781C95.7121 36.4652 95.6583 36.3354 95.6578 36.1887C95.6572 36.0354 95.71 35.9052 95.8163 35.7981C95.9293 35.691 96.0591 35.6372 96.2057 35.6367L97.4157 35.6322L97.4068 33.2322C97.135 33.6399 96.8298 34.051 96.4914 34.4656C96.1529 34.8802 95.7944 35.2749 95.4158 35.6496C95.0438 36.0243 94.6717 36.3624 94.2995 36.6638C94.1666 36.7709 94.0101 36.8282 93.8301 36.8355C93.6501 36.8362 93.5032 36.7667 93.3894 36.6271C93.2822 36.4942 93.2417 36.3477 93.2677 36.1876C93.3005 36.0275 93.3867 35.8971 93.5263 35.7966C93.9252 35.4951 94.3305 35.1436 94.7424 34.7421C95.1609 34.3339 95.556 33.9091 95.9277 33.4677C96.2994 33.0197 96.6144 32.5952 96.873 32.1942L93.963 32.205C93.8163 32.2055 93.6895 32.1527 93.5824 32.0464C93.4753 31.9401 93.4215 31.8137 93.421 31.667C93.4204 31.5137 93.4733 31.3868 93.5796 31.2864C93.6858 31.1793 93.8123 31.1255 93.959 31.125L97.399 31.1122L97.3939 29.7422C97.3932 29.5689 97.4494 29.4287 97.5623 29.3216C97.6752 29.2079 97.815 29.1507 97.9817 29.1501C98.1417 29.1495 98.2786 29.2056 98.3923 29.3185C98.506 29.4248 98.5632 29.5646 98.5639 29.7379L98.5689 31.1079L102.009 31.0951C102.162 31.0946 102.289 31.1474 102.39 31.2537C102.497 31.3533 102.55 31.4798 102.551 31.6331C102.551 31.7798 102.499 31.9067 102.392 32.0137C102.293 32.1208 102.166 32.1746 102.013 32.1751L99.1329 32.1858C99.4011 32.5982 99.7261 33.0236 100.108 33.4622C100.489 33.8941 100.894 34.3093 101.322 34.7077C101.75 35.1061 102.168 35.4613 102.576 35.7731C102.703 35.8659 102.767 35.9924 102.768 36.1524C102.775 36.3123 102.732 36.4492 102.639 36.5629C102.533 36.6899 102.397 36.7671 102.23 36.7944C102.063 36.8217 101.91 36.7789 101.77 36.6661C101.408 36.3674 101.037 36.0321 100.656 35.6602C100.274 35.2883 99.9063 34.893 99.5514 34.4743C99.1965 34.0489 98.8716 33.6168 98.5766 33.1779L98.5857 35.6279L99.8357 35.6232C99.989 35.6227 100.119 35.6755 100.226 35.7818C100.333 35.8881 100.387 36.0179 100.388 36.1712C100.388 36.3179 100.335 36.4481 100.229 36.5618C100.123 36.6688 99.9931 36.7227 99.8398 36.7232L98.5898 36.7279L98.5941 37.8979C98.5948 38.0779 98.5386 38.2214 98.4257 38.3285C98.3128 38.4356 98.1763 38.4894 98.0163 38.49ZM103.96 31.3479L111.47 31.3201L111.474 32.5001L105.184 32.5234L105.206 38.5133L103.986 38.5179L103.96 31.3479ZM110.85 31.3224L112.07 31.3179L112.091 37.0878C112.094 37.7278 111.975 38.0783 111.546 38.2699C111.116 38.4614 110.486 38.4838 109.616 38.487C109.575 38.1372 109.383 37.5979 109.212 37.2685C109.762 37.2965 110.442 37.2939 110.632 37.2832C110.812 37.2826 110.872 37.2223 110.871 37.0723L110.85 31.3224ZM105.753 29.5213L107.993 29.513L107.997 30.563L105.757 30.5713L105.753 29.5213ZM107.213 29.5158L108.493 29.5111C108.593 32.0808 109.17 34.1886 111.044 35.0917C110.785 35.3327 110.377 35.8242 110.188 36.1449C108.213 34.9822 107.545 32.6946 107.405 30.0551L107.215 30.0558L107.213 29.5158ZM107.311 31.6155L108.412 31.8014C108.079 33.9027 107.315 35.3855 105.748 36.2313C105.587 35.9519 105.195 35.4634 104.954 35.2643C106.322 34.6092 107.067 33.3364 107.311 31.6155ZM117.396 38.3982C116.896 38.4 116.496 38.3482 116.196 38.2426C115.895 38.1437 115.678 37.9679 115.544 37.715C115.409 37.4622 115.341 37.1124 115.34 36.6658C115.338 36.2191 115.403 35.8689 115.536 35.615C115.668 35.3612 115.884 35.1837 116.184 35.0826C116.483 34.9749 116.883 34.92 117.383 34.9182L118.663 34.9134C119.163 34.9116 119.563 34.9634 119.864 35.069C120.164 35.1679 120.381 35.3437 120.516 35.5966C120.65 35.8494 120.718 36.1992 120.72 36.6458C120.721 37.0925 120.656 37.4427 120.524 37.6966C120.391 37.9504 120.175 38.1279 119.875 38.229C119.576 38.3368 119.176 38.3916 118.676 38.3934L117.396 38.3982ZM114.184 32.45C114.024 32.4506 113.887 32.4011 113.773 32.3016C113.666 32.2019 113.613 32.0655 113.612 31.8921L113.611 31.5721C113.609 31.0522 113.731 30.685 113.977 30.4708C114.229 30.2498 114.659 30.1383 115.265 30.136L117.335 30.1283L117.333 29.5383C117.333 29.345 117.392 29.1981 117.512 29.0977C117.638 28.9972 117.784 28.9467 117.951 28.946C118.124 28.9454 118.271 28.9949 118.392 29.0944C118.519 29.1939 118.583 29.3404 118.583 29.5337L118.585 30.1237L120.725 30.1158C121.332 30.1135 121.759 30.2219 122.007 30.441C122.261 30.6534 122.389 31.0196 122.391 31.5396L122.392 31.8596C122.393 32.0329 122.336 32.1698 122.223 32.2702C122.11 32.3707 121.974 32.4212 121.814 32.4217C121.654 32.4223 121.517 32.3762 121.403 32.2833C121.29 32.1904 121.233 32.0572 121.232 31.8839L121.231 31.6139C121.23 31.4272 121.183 31.2941 121.089 31.2144C121.003 31.1347 120.836 31.0954 120.589 31.0963L115.409 31.1155C115.162 31.1164 114.993 31.157 114.9 31.2374C114.807 31.3177 114.76 31.4512 114.761 31.6379L114.762 31.9079C114.763 32.0812 114.706 32.2148 114.594 32.3085C114.481 32.4023 114.344 32.4494 114.184 32.45ZM114.188 36.21C114.022 36.304 113.858 36.3346 113.698 36.3019C113.538 36.2691 113.411 36.1763 113.317 36.0233C113.23 35.8703 113.213 35.7237 113.266 35.5835C113.318 35.4433 113.428 35.3295 113.594 35.2422C113.974 35.0475 114.363 34.8227 114.762 34.5679C115.161 34.3064 115.55 34.035 115.929 33.7536C116.314 33.4655 116.663 33.1842 116.976 32.9097C117.295 32.6218 117.614 32.4773 117.934 32.4761C118.261 32.4749 118.588 32.6037 118.916 32.8625C119.223 33.1014 119.567 33.3501 119.948 33.6087C120.336 33.8672 120.74 34.1157 121.161 34.3542C121.582 34.5926 121.993 34.8078 122.394 34.9996C122.547 35.0724 122.658 35.1853 122.725 35.3384C122.792 35.4848 122.783 35.6382 122.697 35.7985C122.61 35.9655 122.478 36.076 122.298 36.13C122.125 36.1773 121.948 36.1546 121.767 36.0619C121.393 35.8567 121.003 35.6281 120.595 35.3763C120.187 35.1245 119.793 34.8659 119.412 34.6007C119.038 34.3287 118.7 34.0666 118.399 33.8144C118.245 33.6817 118.105 33.6188 117.978 33.626C117.858 33.6264 117.722 33.6936 117.569 33.8275C117.27 34.0819 116.931 34.3532 116.552 34.6413C116.18 34.9227 115.791 35.2008 115.385 35.4756C114.98 35.7438 114.58 35.9886 114.188 36.21ZM117.392 37.3382L118.672 37.3334C119.032 37.3321 119.265 37.2846 119.372 37.1908C119.485 37.0971 119.541 36.9169 119.54 36.6502C119.539 36.3769 119.481 36.1971 119.368 36.1108C119.261 36.0179 119.027 35.9721 118.667 35.9734L117.387 35.9782C117.02 35.9795 116.781 36.0271 116.668 36.1209C116.561 36.2079 116.509 36.3881 116.51 36.6614C116.511 36.9281 116.565 37.1079 116.672 37.2008C116.785 37.2938 117.026 37.3395 117.392 37.3382ZM115.248 33.5361C115.102 33.63 114.945 33.6739 114.779 33.6678C114.619 33.6618 114.482 33.5823 114.368 33.4294C114.287 33.3163 114.257 33.1864 114.276 33.0397C114.302 32.8863 114.382 32.766 114.515 32.6788C114.788 32.5045 115.067 32.3034 115.353 32.0757C115.645 31.8479 115.894 31.6337 116.1 31.4329C116.213 31.3125 116.346 31.252 116.5 31.2514C116.66 31.2508 116.796 31.307 116.91 31.4199C117.024 31.5262 117.078 31.6526 117.072 31.7993C117.065 31.9393 117.009 32.0662 116.903 32.18C116.657 32.4342 116.395 32.6752 116.116 32.9029C115.843 33.1306 115.554 33.3416 115.248 33.5361ZM120.678 33.406C120.511 33.2999 120.32 33.1773 120.106 33.0381C119.892 32.8989 119.682 32.7563 119.475 32.6104C119.274 32.4578 119.1 32.3218 118.953 32.2024C118.833 32.1028 118.766 31.9797 118.752 31.8331C118.745 31.6865 118.791 31.5596 118.89 31.4526C118.983 31.3389 119.103 31.2785 119.25 31.2712C119.403 31.2573 119.536 31.2969 119.65 31.3898C119.804 31.5092 119.981 31.6385 120.182 31.7778C120.382 31.9104 120.583 32.0396 120.783 32.1656C120.99 32.2848 121.181 32.3874 121.354 32.4735C121.488 32.5396 121.568 32.646 121.595 32.7926C121.629 32.9391 121.61 33.0792 121.537 33.2128C121.451 33.3664 121.324 33.4602 121.158 33.4942C120.991 33.5215 120.831 33.4921 120.678 33.406Z" fill="#FE585B"/>
<path d="M62.3294 58.0294C60.8641 58.0348 59.664 57.8479 58.7293 57.4687C57.8039 57.0988 57.0364 56.5043 56.4267 55.6852C56.2147 56.4234 55.9745 57.0729 55.7059 57.6339C55.6226 57.8209 55.4784 57.9521 55.2734 58.0275C55.0776 58.1029 54.8723 58.0943 54.6573 58.0018C54.4609 57.9092 54.3344 57.7697 54.2777 57.5832C54.2303 57.3967 54.2483 57.2147 54.3317 57.037C54.5076 56.663 54.674 56.2331 54.8309 55.7472C54.9878 55.2612 55.1259 54.7614 55.2453 54.2476C55.3647 53.7245 55.4469 53.2389 55.4919 52.7907C55.5191 52.5759 55.6072 52.4076 55.7561 52.2857C55.9143 52.1544 56.1054 52.1024 56.3295 52.1296C56.5442 52.1474 56.7079 52.2262 56.8204 52.3658C56.9329 52.5053 56.9802 52.6825 56.9623 52.8972C56.9537 53.0746 56.9357 53.2613 56.9084 53.4574C56.8811 53.6442 56.8491 53.831 56.8125 54.0178C57.0285 54.3903 57.2678 54.7254 57.5302 55.0231L57.5163 51.2572L55.4583 51.2648C55.2716 51.2655 55.108 51.2008 54.9676 51.0706C54.8364 50.9311 54.7704 50.768 54.7697 50.5813C54.7691 50.3947 54.8338 50.2358 54.964 50.1046C55.1035 49.9641 55.2665 49.8935 55.4532 49.8928L57.3432 49.8858L57.338 48.4998L55.7561 48.5057C55.5787 48.5063 55.4245 48.4416 55.2933 48.3114C55.1622 48.1719 55.0962 48.0134 55.0956 47.8361C55.0949 47.6495 55.1596 47.4905 55.2898 47.3594C55.42 47.2282 55.5737 47.1623 55.7511 47.1617L57.3331 47.1558L57.3293 46.1338C57.3284 45.8912 57.407 45.6995 57.5652 45.5589C57.7233 45.409 57.9097 45.3337 58.1243 45.3329C58.3483 45.332 58.5353 45.406 58.6851 45.5548C58.8443 45.6942 58.9244 45.8852 58.9253 46.1279L58.9291 47.1499L60.063 47.1457C60.2497 47.145 60.4086 47.2098 60.5398 47.3399C60.6709 47.4701 60.7368 47.6285 60.7375 47.8152C60.7382 47.9925 60.6734 48.1514 60.5433 48.2919C60.4131 48.4231 60.2547 48.489 60.068 48.4897L58.934 48.4939L58.9392 49.8799L60.4652 49.8742C60.6705 49.8735 60.8388 49.9475 60.97 50.0964C60.9886 50.0683 61.0071 50.0402 61.0257 50.0122C61.0536 49.984 61.0862 49.9606 61.1234 49.9418C61.5887 49.5667 61.9419 49.1687 62.183 48.7479C62.4334 48.3269 62.6277 47.8595 62.7658 47.3457L61.3518 47.3509C61.1745 47.3516 61.0202 47.2868 60.8891 47.1566C60.7579 47.0171 60.692 46.8587 60.6913 46.6814C60.6906 46.4947 60.7554 46.3405 60.8856 46.2186C61.0158 46.0875 61.1696 46.0216 61.3469 46.0209L64.6789 46.0086C65.3135 46.0062 65.7991 46.0744 66.1356 46.2132C66.4721 46.3426 66.6923 46.5798 66.7963 46.9247C66.9096 47.2697 66.9393 47.7502 66.8856 48.3664C66.8229 49.0667 66.7036 49.6084 66.5276 49.9918C66.3517 50.3751 66.1007 50.642 65.7746 50.7926C65.4485 50.9431 65.0194 51.0194 64.4874 51.0213C64.0114 51.0231 63.7493 50.7954 63.7009 50.3382C63.6815 50.1516 63.7322 49.9788 63.853 49.8197C63.9737 49.6606 64.1508 49.5759 64.384 49.5657C64.608 49.5555 64.7806 49.5222 64.9017 49.4658C65.0321 49.4093 65.1297 49.3016 65.1945 49.1427C65.2592 48.9838 65.3097 48.7456 65.3458 48.4281C65.382 48.1013 65.3857 47.8633 65.3572 47.7141C65.3286 47.5555 65.2489 47.4531 65.1181 47.407C64.9965 47.3607 64.7958 47.3382 64.5158 47.3392L64.2918 47.34C64.1265 48.078 63.8817 48.7462 63.5572 49.3448C63.2421 49.9339 62.8054 50.4722 62.2472 50.9596C62.0704 51.1096 61.8701 51.199 61.6462 51.2279C61.4223 51.2474 61.2307 51.1734 61.0714 51.006C61.062 50.9967 61.0526 50.9874 61.0433 50.9781C61.0432 50.9688 61.0385 50.9594 61.0292 50.9501C60.8899 51.1467 60.7036 51.2454 60.4703 51.2462L59.0423 51.2515L59.0475 52.6515L60.3354 52.6467C60.5408 52.646 60.7137 52.7153 60.8542 52.8548C61.0041 52.9943 61.0794 53.1666 61.0801 53.372C61.0809 53.5773 61.0069 53.7502 60.8581 53.8908C60.7186 54.0313 60.5462 54.102 60.3408 54.1027L59.0528 54.1075L59.0601 56.0675C59.864 56.3912 60.9519 56.5505 62.3239 56.5454C63.2292 56.542 64.0179 56.5298 64.6898 56.5086C65.3617 56.4781 65.9682 56.4385 66.5094 56.3899C66.808 56.3701 67.0415 56.4346 67.2101 56.5833C67.388 56.7319 67.4727 56.937 67.4644 57.1983C67.4476 57.7211 67.1359 57.9836 66.5293 57.9858C66.2213 57.9869 65.8759 57.9882 65.4933 57.9896C65.1107 58.0004 64.7187 58.0065 64.3173 58.008C63.9254 58.0188 63.5567 58.0248 63.2114 58.0261C62.8661 58.0274 62.5721 58.0285 62.3294 58.0294ZM63.6516 55.9105C63.0822 55.9126 62.634 55.8489 62.3068 55.7194C61.9797 55.5807 61.7455 55.3482 61.6043 55.022C61.4724 54.6959 61.4054 54.2481 61.4033 53.6788C61.4011 53.1001 61.4648 52.6519 61.5943 52.3341C61.7331 52.0069 61.9656 51.7773 62.2917 51.6455C62.6179 51.5043 63.0656 51.4326 63.635 51.4305L64.5869 51.427C65.1656 51.4248 65.6139 51.4932 65.9317 51.632C66.2589 51.7614 66.4884 51.9893 66.6203 52.3154C66.7614 52.6322 66.8331 53.08 66.8352 53.6586C66.8373 54.228 66.769 54.6762 66.6302 55.0034C66.5008 55.3306 66.273 55.5647 65.9468 55.706C65.63 55.8378 65.1822 55.9048 64.6036 55.9069L63.6516 55.9105ZM63.8426 54.5657L64.4446 54.5635C64.8272 54.5621 65.0744 54.5052 65.1859 54.3928C65.2975 54.271 65.3526 54.0281 65.3512 53.6641C65.3499 53.3001 65.293 53.0624 65.1806 52.9508C65.0682 52.8299 64.8206 52.7701 64.4379 52.7715L63.8359 52.7738C63.4533 52.7752 63.2015 52.8368 63.0806 52.9586C62.969 53.071 62.9139 53.3092 62.9153 53.6732C62.9166 54.0372 62.9735 54.2796 63.086 54.4005C63.2077 54.5121 63.4599 54.5672 63.8426 54.5657ZM76.4414 57.9911C75.1254 57.9959 74.061 57.9066 73.2483 57.7229C72.4357 57.5392 71.7858 57.2057 71.2986 56.7221C71.1683 56.8159 71.0101 56.9332 70.8239 57.0739C70.6378 57.2146 70.4609 57.3459 70.2934 57.4679C70.1258 57.5898 70.0002 57.6836 69.9164 57.7493C69.7302 57.8806 69.5157 57.9281 69.2729 57.8916C69.0395 57.8645 68.8617 57.7485 68.7396 57.5436C68.6176 57.3481 68.5795 57.1429 68.6254 56.928C68.6712 56.7039 68.7966 56.5354 69.0015 56.4226C69.1506 56.3474 69.3555 56.2347 69.6162 56.0844C69.8864 55.934 70.1239 55.7978 70.3287 55.6757L70.3174 52.6097C70.3165 52.3857 70.2786 52.2319 70.2037 52.1481C70.138 52.0644 69.9932 52.0229 69.7692 52.0238L69.1952 52.0259C68.9712 52.0267 68.7936 51.9574 68.6624 51.8179C68.5312 51.669 68.4652 51.4966 68.4645 51.3006C68.4637 51.0953 68.5284 50.9223 68.6586 50.7819C68.7887 50.6414 68.9658 50.5707 69.1898 50.5699L70.3798 50.5655C70.8931 50.5636 71.2669 50.6789 71.5011 50.9113C71.7352 51.1345 71.8533 51.5027 71.8552 52.016L71.8677 55.404C72.1208 55.6831 72.425 55.9106 72.7803 56.0866C73.1356 56.2533 73.6027 56.3729 74.1816 56.4454C74.7699 56.5179 75.5214 56.5525 76.436 56.5491L76.674 56.5482C76.4686 56.5303 76.291 56.4516 76.1411 56.3122C76.0006 56.1727 75.9299 55.9863 75.9291 55.753L75.9268 55.137L72.8048 55.1485C72.6088 55.1493 72.4499 55.0845 72.3281 54.9543C72.2156 54.824 72.159 54.6703 72.1584 54.4929C72.1577 54.3156 72.2132 54.166 72.3247 54.0443C72.4456 53.9132 72.604 53.8473 72.8 53.8465L75.922 53.835L75.9194 53.135L75.6254 53.1361C74.9067 53.1387 74.3511 53.0754 73.9586 52.9462C73.5755 52.817 73.3133 52.58 73.172 52.2351C73.0307 51.8903 72.9589 51.3913 72.9565 50.7379C72.954 50.0846 73.0222 49.585 73.1609 49.2392C73.2996 48.8933 73.5601 48.659 73.9423 48.5363C74.3338 48.4041 74.8889 48.3368 75.6076 48.3341L75.9016 48.333L75.8991 47.675L72.8751 47.6862C72.6791 47.6869 72.5249 47.6268 72.4125 47.5059C72.3 47.3757 72.2434 47.2219 72.2428 47.0446C72.2421 46.8672 72.2975 46.7177 72.4091 46.5959C72.5206 46.4742 72.6744 46.413 72.8704 46.4122L75.8944 46.401L75.8929 46.009C75.892 45.7664 75.966 45.5747 76.1148 45.4342C76.2729 45.2843 76.4593 45.2089 76.674 45.2081C76.898 45.2073 77.0849 45.2813 77.2348 45.43C77.394 45.5695 77.474 45.7605 77.4749 46.0032L77.4764 46.3952L80.6544 46.3834C80.8504 46.3826 81.0046 46.4427 81.117 46.5637C81.2295 46.6846 81.286 46.8337 81.2867 47.011C81.2874 47.1884 81.2319 47.3426 81.1204 47.4737C81.0089 47.5954 80.8551 47.6566 80.6591 47.6574L77.4811 47.6691L77.4835 48.3271L77.8055 48.3259C78.5335 48.3232 79.0891 48.3865 79.4723 48.5158C79.8647 48.6356 80.1316 48.868 80.2729 49.2128C80.4235 49.5576 80.5 50.0566 80.5024 50.71C80.5048 51.3633 80.4367 51.8629 80.298 52.2087C80.1592 52.5546 79.8941 52.7936 79.5026 52.9257C79.1204 53.0578 78.5653 53.1252 77.8373 53.1279L77.5013 53.1291L77.5039 53.8291L80.8359 53.8168C81.0413 53.816 81.2002 53.8807 81.3126 54.011C81.4251 54.1319 81.4816 54.281 81.4823 54.4584C81.483 54.6357 81.4275 54.7899 81.316 54.921C81.2045 55.0521 81.0461 55.118 80.8407 55.1187L77.5088 55.1311L77.5111 55.7471C77.5119 55.9804 77.4426 56.1673 77.3031 56.3079C77.1636 56.4484 76.9913 56.5284 76.786 56.5478C77.598 56.5354 78.3073 56.5188 78.9138 56.4979C79.5298 56.4769 80.0757 56.4469 80.5515 56.4078C80.8221 56.3882 81.0463 56.448 81.2242 56.5873C81.4113 56.7173 81.5054 56.9036 81.5063 57.1463C81.5072 57.389 81.4332 57.5852 81.2844 57.7351C81.1357 57.885 80.9073 57.9605 80.5993 57.9617C80.2913 57.9628 79.946 57.9641 79.5633 57.9655C79.19 57.9762 78.8073 57.9823 78.4153 57.9838C78.0327 57.9852 77.6687 57.9865 77.3234 57.9878C76.978 57.9891 76.684 57.9902 76.4414 57.9911ZM71.7862 48.5163C71.6188 48.6662 71.423 48.7369 71.199 48.7284C70.9843 48.7199 70.8066 48.6319 70.666 48.4644C70.5535 48.3342 70.4036 48.1807 70.2163 48.0041C70.0383 47.8181 69.8556 47.6321 69.6682 47.4461C69.4902 47.2601 69.3403 47.1113 69.2186 46.9998C69.0688 46.8697 68.9981 46.7066 69.0068 46.5105C69.0153 46.3052 69.0894 46.1322 69.2288 45.9917C69.359 45.8512 69.5267 45.7666 69.7319 45.7379C69.9465 45.7091 70.138 45.7643 70.3065 45.9037C70.447 46.0245 70.6109 46.1779 70.7982 46.3639C70.9949 46.5498 71.1823 46.7311 71.3602 46.9078C71.5476 47.0845 71.7021 47.2379 71.824 47.3681C71.9832 47.5355 72.0586 47.7312 72.0501 47.9553C72.0416 48.1793 71.9537 48.3663 71.7862 48.5163ZM77.4971 51.9811L77.7911 51.98C78.2018 51.9785 78.4863 51.9401 78.6447 51.8649C78.8124 51.7802 78.9143 51.5792 78.9504 51.2617L77.4944 51.2671L77.4971 51.9811ZM77.4903 50.1611L78.9463 50.1557C78.9079 49.8479 78.8045 49.6569 78.6362 49.5829C78.4773 49.5088 78.1925 49.4725 77.7818 49.474L77.4878 49.4751L77.4903 50.1611ZM75.6631 51.9879L75.9151 51.987L75.9125 51.273L74.5125 51.2782C74.551 51.5954 74.6497 51.7957 74.8087 51.8791C74.9676 51.9532 75.2524 51.9894 75.6631 51.9879ZM74.5084 50.1722L75.9084 50.167L75.9058 49.481L75.6538 49.4819C75.2525 49.4834 74.968 49.5218 74.8002 49.5971C74.6418 49.6723 74.5446 49.864 74.5084 50.1722ZM85.6123 58.2371C85.407 58.2378 85.2294 58.1732 85.0796 58.0431C84.9391 57.9129 84.8685 57.7358 84.8676 57.5118L84.8486 52.3739C84.5594 52.4123 84.2795 52.4506 84.009 52.489C83.7385 52.518 83.4959 52.5422 83.2813 52.5617C83.0574 52.5905 82.8659 52.5492 82.7068 52.4378C82.557 52.317 82.4724 52.1447 82.4529 51.9207C82.4334 51.7061 82.4888 51.5333 82.619 51.4021C82.7491 51.2616 82.9262 51.1863 83.1501 51.1762C83.1968 51.176 83.2481 51.1758 83.3041 51.1756C83.3694 51.166 83.4301 51.1611 83.4861 51.1609C83.6441 50.9737 83.8113 50.7584 83.9877 50.515C84.1735 50.2717 84.3685 50.0096 84.5728 49.7289C84.4137 49.6081 84.2265 49.4735 84.0113 49.3249C83.796 49.1671 83.5855 49.0185 83.3796 48.8793C83.1831 48.7307 83.024 48.6193 82.9024 48.5451C82.7433 48.4336 82.6448 48.2847 82.6067 48.0981C82.5687 47.9116 82.6007 47.7388 82.7028 47.5798C82.8049 47.4114 82.9538 47.3082 83.1497 47.2701C83.3455 47.2227 83.5276 47.2547 83.696 47.3661L83.8083 47.4357C83.901 47.2767 84.0077 47.0849 84.1282 46.8605C84.258 46.6267 84.3831 46.4022 84.5037 46.1871C84.6242 45.972 84.7122 45.8037 84.7678 45.6821C84.8511 45.5045 84.9814 45.3873 85.1585 45.3307C85.3356 45.2647 85.513 45.2734 85.6906 45.3567C85.8775 45.4307 85.9947 45.5562 86.042 45.7334C86.0893 45.9106 86.0713 46.0833 85.9879 46.2516C85.8952 46.4199 85.7793 46.621 85.6401 46.8549C85.501 47.0887 85.3572 47.3226 85.2087 47.5565C85.0696 47.7903 84.9444 47.9915 84.833 48.1599C84.9359 48.2342 85.0342 48.3085 85.1278 48.3828C85.2307 48.4478 85.3196 48.5081 85.3945 48.5638C85.5987 48.2644 85.7843 47.9837 85.9514 47.7217C86.1277 47.4504 86.2715 47.2259 86.3829 47.0481C86.4849 46.8704 86.6338 46.7532 86.8296 46.6965C87.0254 46.6398 87.2074 46.6624 87.3758 46.7645C87.5536 46.8758 87.6568 47.0294 87.6855 47.2253C87.7236 47.4212 87.6916 47.5986 87.5895 47.7577C87.4039 48.0384 87.1764 48.3659 86.9071 48.7402C86.6379 49.1145 86.3546 49.5029 86.0575 49.9054C85.7696 50.2984 85.4863 50.6728 85.2076 51.0285C85.4782 51.0089 85.7395 50.9846 85.9913 50.9556C86.2526 50.9267 86.4952 50.9024 86.7191 50.8829L86.5497 50.5195C86.4745 50.3612 86.4692 50.2025 86.534 50.0436C86.5987 49.8847 86.7056 49.7723 86.8547 49.7064C87.0224 49.6311 87.1904 49.6258 87.3587 49.6905C87.5269 49.7459 87.6533 49.8528 87.7379 50.0111C87.8131 50.1602 87.9071 50.3558 88.02 50.5981C88.1422 50.831 88.2598 51.0685 88.3727 51.3108C88.4856 51.553 88.575 51.7534 88.6409 51.9118C88.7162 52.0889 88.7169 52.2569 88.6428 52.4158C88.578 52.5747 88.4525 52.6918 88.2661 52.7672C88.089 52.8332 87.9117 52.8339 87.7341 52.7692C87.5658 52.7045 87.4534 52.5882 87.3968 52.4204C87.3779 52.3645 87.3544 52.3039 87.3261 52.2387C87.2978 52.1641 87.2696 52.0942 87.2413 52.029C87.1107 52.0481 86.9662 52.072 86.8076 52.1006C86.649 52.1199 86.4858 52.1438 86.3179 52.1724L86.3376 57.5064C86.3385 57.7304 86.2645 57.908 86.1156 58.0392C85.9761 58.1704 85.8083 58.2364 85.6123 58.2371ZM91.9248 57.8077C91.1968 57.8104 90.6225 57.7332 90.2019 57.5761C89.7813 57.419 89.4817 57.1494 89.3029 56.7674C89.1335 56.3853 89.0476 55.8677 89.0452 55.2143C89.0427 54.5517 89.1248 54.0334 89.2914 53.6594C89.4673 53.2761 89.765 53.0043 90.1844 52.8441C90.6038 52.6839 91.1775 52.6024 91.9055 52.5997C92.6428 52.597 93.2171 52.6742 93.6284 52.8313C94.0489 52.9884 94.3439 53.258 94.5134 53.6401C94.6921 54.0127 94.7827 54.5304 94.7851 55.1931C94.7875 55.8464 94.7008 56.3647 94.5249 56.748C94.3583 57.1313 94.0653 57.4031 93.6459 57.5633C93.2358 57.7235 92.6621 57.8049 91.9248 57.8077ZM89.2699 51.6435C89.0553 51.6443 88.8823 51.5796 88.7512 51.4494C88.62 51.3099 88.5541 51.1421 88.5533 50.9461C88.5526 50.7501 88.6173 50.5866 88.7475 50.4554C88.8777 50.3149 89.0501 50.2443 89.2647 50.2435L91.0707 50.2368L91.0653 48.7668L88.7973 48.7752C88.5826 48.776 88.4097 48.7066 88.2785 48.5671C88.1473 48.4276 88.0814 48.2599 88.0806 48.0639C88.0799 47.8679 88.1446 47.6996 88.2748 47.5591C88.4049 47.4187 88.5773 47.348 88.792 47.3472L91.06 47.3388L91.0554 46.1068C91.0545 45.8642 91.1331 45.6679 91.2912 45.5179C91.4493 45.368 91.6404 45.2926 91.8644 45.2918C92.0884 45.291 92.28 45.3649 92.4392 45.5137C92.5984 45.6624 92.6785 45.8581 92.6794 46.1008L92.684 47.3328L94.91 47.3245C95.134 47.3237 95.3115 47.3931 95.4427 47.5326C95.5739 47.6721 95.6399 47.8398 95.6406 48.0358C95.6413 48.2318 95.5766 48.4001 95.4465 48.5406C95.3163 48.681 95.1392 48.7517 94.9152 48.7525L92.6893 48.7608L92.6947 50.2308L94.5567 50.2239C94.7714 50.2231 94.9443 50.2924 95.0755 50.4319C95.2066 50.5621 95.2726 50.7252 95.2733 50.9212C95.274 51.1172 95.2093 51.2855 95.0792 51.4259C94.949 51.5571 94.7766 51.6231 94.5619 51.6239L89.2699 51.6435ZM91.9194 56.3517C92.2647 56.3504 92.5259 56.3214 92.7031 56.2648C92.8895 56.2081 93.0151 56.0956 93.0798 55.9274C93.1445 55.7591 93.1763 55.5164 93.1751 55.199C93.174 54.8817 93.1404 54.6438 93.0745 54.4854C93.0085 54.3176 92.8821 54.2061 92.6952 54.1508C92.5177 54.0861 92.2562 54.0544 91.9109 54.0557C91.3976 54.0576 91.0572 54.1382 90.8898 54.2975C90.7317 54.4474 90.6534 54.7464 90.6551 55.1944C90.6563 55.5117 90.6898 55.7542 90.7558 55.922C90.8311 56.0897 90.9575 56.2059 91.1351 56.2706C91.322 56.3259 91.5834 56.3529 91.9194 56.3517ZM82.9884 56.6508C82.8109 56.5861 82.6798 56.4793 82.5952 56.3302C82.52 56.1719 82.5194 55.9992 82.5933 55.8123C82.6766 55.6159 82.7644 55.3823 82.8567 55.1113C82.9491 54.8403 83.0367 54.5646 83.1197 54.2843C83.2026 53.9946 83.267 53.7424 83.3129 53.5276C83.3588 53.3407 83.4517 53.2004 83.5913 53.1065C83.7403 53.0033 83.9035 52.97 84.0809 53.0067C84.2491 53.0434 84.3847 53.1316 84.4879 53.2712C84.5911 53.4108 84.6197 53.5834 84.5738 53.7889C84.528 54.0224 84.459 54.2887 84.3668 54.5877C84.2839 54.8866 84.1963 55.181 84.1041 55.4706C84.0118 55.7603 83.9287 56.008 83.8548 56.2136C83.7901 56.3912 83.674 56.5222 83.5063 56.6069C83.3479 56.6915 83.1753 56.7061 82.9884 56.6508ZM88.2085 56.1134C88.0221 56.1795 87.8447 56.1708 87.6764 56.0874C87.5081 56.004 87.3956 55.8738 87.3389 55.6967C87.2916 55.5288 87.2256 55.3284 87.1407 55.0954C87.0651 54.853 86.9896 54.6106 86.914 54.3682C86.8384 54.1258 86.777 53.9254 86.7298 53.7669C86.673 53.5711 86.6911 53.3984 86.7839 53.2487C86.8766 53.0897 87.0116 52.9912 87.1888 52.9532C87.3659 52.9059 87.5293 52.9286 87.679 53.0214C87.8287 53.1048 87.9318 53.2398 87.9885 53.4262C88.0358 53.5941 88.0972 53.7945 88.1728 54.0276C88.2576 54.2512 88.3377 54.4749 88.4132 54.6987C88.498 54.913 88.5687 55.0948 88.6253 55.2439C88.7006 55.4209 88.6966 55.5936 88.6132 55.7619C88.5298 55.9302 88.3949 56.0474 88.2085 56.1134ZM106.285 56.7464C105.268 56.7502 104.548 56.5662 104.127 56.1944C103.715 55.8133 103.507 55.1794 103.504 54.2927L103.485 49.3368C103.482 48.4501 103.685 47.8194 104.094 47.4445C104.513 47.0696 105.231 46.8803 106.248 46.8765C107.266 46.8727 107.98 47.0568 108.392 47.4286C108.814 47.8003 109.026 48.4296 109.029 49.3162L109.048 54.2862C109.051 55.1635 108.843 55.7943 108.425 56.1785C108.016 56.5534 107.302 56.7427 106.285 56.7464ZM100.172 58.1551C99.9481 58.1559 99.7565 58.082 99.5973 57.9332C99.4475 57.7938 99.3721 57.5981 99.3711 57.3461L99.3567 53.4401C99.134 53.8049 98.9066 54.1558 98.6745 54.4926C98.4518 54.8201 98.2474 55.0962 98.0616 55.3209C97.9129 55.4988 97.722 55.6068 97.4888 55.645C97.265 55.6832 97.0594 55.6373 96.8723 55.5073C96.6945 55.3773 96.5865 55.205 96.5484 54.9905C96.5196 54.776 96.5795 54.5844 96.7282 54.4158C96.9141 54.2005 97.1231 53.9384 97.3553 53.6295C97.5875 53.3113 97.8242 52.9744 98.0656 52.6189C98.3069 52.2633 98.5296 51.9125 98.7337 51.5664C98.9471 51.2203 99.1233 50.9116 99.2623 50.6404L97.3723 50.6474C97.1483 50.6483 96.966 50.5743 96.8255 50.4255C96.6942 50.2766 96.6282 50.0995 96.6275 49.8942C96.6267 49.6795 96.6914 49.502 96.8215 49.3615C96.961 49.2116 97.1427 49.1363 97.3667 49.1354L99.3407 49.1281L99.3353 47.6861C99.0742 47.7431 98.8177 47.7954 98.5659 47.843C98.3234 47.8906 98.0949 47.9334 97.8804 47.9715C97.6472 48.0097 97.4417 47.9778 97.264 47.8758C97.0863 47.7738 96.969 47.6016 96.9121 47.3591C96.874 47.1446 96.9059 46.9578 97.008 46.7988C97.1101 46.6304 97.2684 46.5318 97.4829 46.503C97.7815 46.4646 98.1219 46.4073 98.5043 46.3312C98.896 46.2458 99.2923 46.151 99.6932 46.0468C100.104 45.9426 100.49 45.8338 100.854 45.7205C101.227 45.6071 101.539 45.5033 101.791 45.409C102.005 45.3336 102.211 45.3375 102.407 45.4207C102.603 45.4947 102.739 45.6388 102.815 45.8532C102.89 46.077 102.891 46.2776 102.817 46.4552C102.752 46.6328 102.613 46.7593 102.398 46.8348C102.016 46.9669 101.531 47.1133 100.944 47.2742L100.951 49.1222L102.407 49.1168C102.64 49.1159 102.822 49.1899 102.953 49.3387C103.094 49.4782 103.165 49.6553 103.165 49.87C103.166 50.0753 103.097 50.2529 102.957 50.4027C102.827 50.5525 102.646 50.6279 102.412 50.6288L100.956 50.6342L100.958 50.9981C101.117 51.1749 101.323 51.3888 101.576 51.6399C101.829 51.8909 102.082 52.1327 102.335 52.3651C102.588 52.5975 102.789 52.7787 102.939 52.9088C103.117 53.0482 103.215 53.2298 103.235 53.4537C103.254 53.6777 103.19 53.8739 103.041 54.0424C102.892 54.211 102.706 54.2957 102.482 54.2965C102.267 54.2973 102.076 54.2234 101.907 54.0747C101.785 53.9631 101.64 53.8236 101.471 53.6563C101.312 53.4795 101.143 53.2888 100.965 53.0841L100.981 57.3401C100.982 57.5921 100.903 57.7884 100.745 57.929C100.597 58.0789 100.405 58.1542 100.172 58.1551ZM106.279 55.1785C106.746 55.1767 107.044 55.101 107.174 54.9511C107.314 54.8013 107.383 54.5164 107.381 54.0964L107.364 49.5044C107.363 49.0844 107.292 48.8 107.151 48.6512C107.02 48.5023 106.721 48.4288 106.254 48.4305C105.797 48.4322 105.498 48.508 105.359 48.6578C105.229 48.8076 105.165 49.0925 105.166 49.5125L105.183 54.1045C105.185 54.5245 105.251 54.8089 105.382 54.9578C105.523 55.1066 105.822 55.1801 106.279 55.1785ZM118.373 58.2976C118.13 58.2985 117.929 58.2293 117.77 58.0899C117.611 57.9505 117.526 57.7641 117.516 57.5308C117.506 57.3255 117.566 57.148 117.696 56.9981C117.835 56.8576 118.022 56.7776 118.255 56.7581C118.526 56.7384 118.722 56.7143 118.843 56.6859C118.964 56.6481 119.043 56.5778 119.08 56.475C119.117 56.3722 119.135 56.2228 119.134 56.0268L119.134 55.8028L114.99 55.8182C115.13 55.911 115.298 56.0364 115.495 56.1943C115.701 56.3522 115.846 56.4637 115.93 56.5287C116.099 56.6681 116.197 56.8404 116.226 57.0456C116.264 57.2508 116.209 57.4423 116.06 57.6202C115.921 57.7981 115.739 57.9014 115.515 57.9302C115.292 57.9591 115.095 57.8991 114.927 57.7504C114.796 57.6389 114.622 57.4949 114.407 57.3183C114.201 57.1418 114.042 57.0117 113.93 56.9281C113.771 56.8074 113.677 56.649 113.648 56.4531C113.628 56.2479 113.679 56.0657 113.8 55.9066L113.884 55.8223L111.182 55.8323C110.986 55.833 110.831 55.7729 110.719 55.652C110.606 55.5217 110.55 55.368 110.549 55.1906C110.549 55.0226 110.604 54.8778 110.716 54.756C110.827 54.6249 110.981 54.559 111.177 54.5583L119.129 54.5288L119.127 53.9828L117.111 53.9903C116.205 53.9937 115.463 53.9264 114.884 53.7885C114.305 53.6414 113.809 53.3912 113.397 53.0381C113.136 53.1884 112.848 53.3528 112.531 53.5313C112.214 53.7004 111.954 53.8367 111.749 53.9402C111.553 54.0436 111.357 54.063 111.161 53.9984C110.974 53.9337 110.838 53.8129 110.753 53.6359C110.659 53.4495 110.64 53.2676 110.695 53.0901C110.76 52.9125 110.89 52.7767 111.086 52.6826C111.263 52.6073 111.482 52.5038 111.743 52.3722C112.013 52.2405 112.269 52.1182 112.511 52.0053L112.506 50.6193C112.505 50.3673 112.463 50.2042 112.378 50.1298C112.294 50.0555 112.131 50.0187 111.888 50.0196L111.272 50.0219C111.067 50.0227 110.903 49.9626 110.781 49.8417C110.66 49.7115 110.598 49.5484 110.598 49.3524C110.597 49.1657 110.657 49.0069 110.778 48.8757C110.899 48.7446 111.062 48.6787 111.267 48.6779L112.247 48.6743C112.882 48.6719 113.33 48.8009 113.593 49.0613C113.855 49.3123 113.987 49.7692 113.99 50.4318L113.995 51.9298C114.211 52.153 114.449 52.3295 114.711 52.4592C114.982 52.5795 115.309 52.667 115.692 52.7215C116.075 52.7668 116.546 52.7884 117.106 52.7863L122.776 52.7653C122.954 52.7646 123.094 52.8201 123.197 52.9317C123.309 53.0433 123.366 53.1878 123.367 53.3651C123.367 53.5424 123.312 53.6873 123.2 53.7997C123.098 53.9121 122.958 53.9686 122.781 53.9693L120.779 53.9767L120.781 54.5227L122.839 54.5151C123.035 54.5143 123.189 54.5791 123.302 54.7094C123.414 54.8303 123.471 54.9747 123.471 55.1427C123.472 55.3201 123.416 55.4743 123.305 55.6053C123.193 55.7271 123.04 55.7883 122.844 55.7891L120.786 55.7967L120.787 56.3147C120.79 57.024 120.615 57.5287 120.261 57.8286C119.917 58.1379 119.287 58.2943 118.373 58.2976ZM117.273 52.3517C116.722 52.3537 116.288 52.304 115.97 52.2025C115.652 52.101 115.428 51.9292 115.296 51.687C115.165 51.4448 115.098 51.1184 115.097 50.7077L115.092 49.4477C115.09 49.0371 115.155 48.7102 115.284 48.467C115.414 48.2239 115.637 48.0504 115.954 47.9465C116.271 47.8427 116.705 47.7898 117.256 47.7877L117.396 47.7872C117.424 47.7218 117.451 47.6563 117.479 47.5909C117.516 47.5161 117.553 47.4459 117.59 47.3805L114.58 47.3916C114.403 47.3923 114.267 47.3368 114.174 47.2251C114.08 47.1135 114.033 46.983 114.032 46.8337C114.032 46.675 114.078 46.5395 114.171 46.4271C114.264 46.3148 114.399 46.2583 114.576 46.2576L116.298 46.2513C116.251 46.1674 116.204 46.0883 116.157 46.0138C116.11 45.9393 116.063 45.8695 116.016 45.8043C115.923 45.6366 115.908 45.4734 115.973 45.3145C116.037 45.1462 116.149 45.0245 116.307 44.9492C116.494 44.8552 116.676 44.8358 116.853 44.8912C117.031 44.9372 117.166 45.0394 117.26 45.1977C117.354 45.328 117.453 45.4956 117.556 45.7006C117.669 45.9055 117.768 46.0871 117.852 46.2455L119.126 46.2408C119.191 46.0912 119.251 45.951 119.307 45.8201C119.362 45.6799 119.422 45.535 119.487 45.3854C119.57 45.1891 119.7 45.0486 119.877 44.964C120.054 44.87 120.255 44.8599 120.479 44.9337C120.694 44.9983 120.839 45.1191 120.915 45.2961C120.99 45.4639 120.981 45.6412 120.889 45.8282C120.851 45.8844 120.814 45.9498 120.777 46.0247C120.75 46.0901 120.712 46.1602 120.666 46.2351L122.822 46.2271C122.999 46.2264 123.135 46.2819 123.229 46.3936C123.332 46.5052 123.384 46.6403 123.384 46.799C123.385 46.9483 123.334 47.0792 123.232 47.1916C123.139 47.3039 123.004 47.3604 122.826 47.3611L119.326 47.374C119.289 47.4395 119.252 47.505 119.215 47.5705C119.187 47.6359 119.155 47.706 119.118 47.7808L120.042 47.7774C120.602 47.7753 121.036 47.825 121.344 47.9266C121.662 48.0281 121.887 48.1999 122.018 48.4421C122.15 48.6842 122.216 49.0107 122.218 49.4213L122.223 50.6813C122.224 51.092 122.16 51.4189 122.03 51.662C121.9 51.9052 121.677 52.0787 121.36 52.1825C121.053 52.2863 120.619 52.3393 120.059 52.3414L117.273 52.3517ZM112.621 47.5249C112.537 47.4505 112.415 47.353 112.256 47.2322C112.097 47.1115 111.938 46.9954 111.778 46.884C111.629 46.7632 111.507 46.6704 111.413 46.6054C111.254 46.5033 111.16 46.359 111.132 46.1724C111.103 45.9765 111.144 45.8037 111.256 45.6539C111.377 45.4855 111.535 45.3822 111.731 45.3442C111.936 45.3061 112.123 45.3427 112.291 45.4541C112.385 45.5098 112.506 45.5933 112.656 45.7048C112.815 45.8162 112.974 45.9322 113.133 46.053C113.292 46.1644 113.423 46.2619 113.526 46.3455C113.695 46.4662 113.789 46.6339 113.808 46.8485C113.837 47.0537 113.786 47.2452 113.656 47.4231C113.536 47.5728 113.373 47.6621 113.167 47.6909C112.962 47.7103 112.78 47.655 112.621 47.5249ZM116.621 50.2681L120.695 50.253L120.693 49.847L116.62 49.8621L116.621 50.2681ZM117.479 51.4409L119.845 51.4321C120.135 51.4311 120.34 51.407 120.461 51.3599C120.582 51.3127 120.656 51.2005 120.684 51.023L116.638 51.038C116.676 51.2152 116.751 51.3269 116.863 51.3732C116.985 51.4194 117.19 51.442 117.479 51.4409ZM116.631 49.106L120.677 49.091C120.648 48.9138 120.573 48.8021 120.451 48.7559C120.33 48.7097 120.125 48.6871 119.835 48.6882L117.469 48.6969C117.18 48.698 116.975 48.7221 116.853 48.7692C116.742 48.8163 116.667 48.9286 116.631 49.106ZM125.387 58.2857C125.181 58.2957 124.999 58.2451 124.84 58.1337C124.69 58.0222 124.606 57.8685 124.587 57.6726C124.576 57.4766 124.627 57.3131 124.739 57.182C124.85 57.051 124.999 56.9804 125.186 56.9704C125.988 56.9114 126.683 56.8062 127.271 56.6547C127.867 56.4938 128.357 56.254 128.738 55.9352C128.197 55.9279 127.772 55.8688 127.463 55.7579C127.164 55.647 126.949 55.4612 126.817 55.2003C126.695 54.9301 126.633 54.571 126.631 54.123L126.627 52.933C126.625 52.4757 126.689 52.1161 126.819 51.8543C126.949 51.5831 127.177 51.391 127.503 51.2778C127.829 51.1552 128.277 51.0929 128.846 51.0908L133.172 51.0747C133.751 51.0726 134.199 51.1316 134.517 51.2518C134.844 51.3626 135.073 51.553 135.205 51.8232C135.346 52.084 135.417 52.4431 135.419 52.9004L135.423 54.0904C135.425 54.5478 135.356 54.912 135.217 55.1832C135.088 55.445 134.86 55.6372 134.533 55.7597C134.217 55.8729 133.769 55.9306 133.19 55.9327L133.022 55.9333L133.023 56.2273C133.024 56.4233 133.062 56.5585 133.137 56.6329C133.221 56.7073 133.394 56.744 133.655 56.743L135.097 56.7376C135.433 56.7364 135.671 56.6889 135.811 56.595C135.96 56.5011 136.085 56.2907 136.186 55.9636C136.26 55.7487 136.39 55.6035 136.577 55.5282C136.772 55.4434 136.982 55.438 137.207 55.5118C137.421 55.5764 137.567 55.7018 137.642 55.8882C137.727 56.0652 137.737 56.2659 137.672 56.4901C137.497 57.1161 137.228 57.5418 136.865 57.7671C136.502 58.0018 135.966 58.1204 135.256 58.1231L133.38 58.13C132.68 58.1326 132.181 58.0178 131.881 57.7856C131.591 57.5533 131.445 57.1572 131.443 56.5972L131.44 55.9392L130.502 55.9427C129.992 56.6912 129.303 57.2538 128.436 57.6303C127.57 58.0162 126.553 58.2347 125.387 58.2857ZM126.759 50.6645C126.068 50.6671 125.582 50.5475 125.301 50.3059C125.02 50.055 124.879 49.6168 124.876 48.9915L124.869 47.0035C124.867 46.3782 125.005 45.9436 125.284 45.6999C125.563 45.4469 126.048 45.3191 126.739 45.3166L130.589 45.3023C130.747 45.3017 130.869 45.3572 130.953 45.4689C131.047 45.5713 131.094 45.6877 131.095 45.8184C131.095 45.9584 131.049 46.0846 130.956 46.1969C130.872 46.2999 130.751 46.3517 130.593 46.3523L128.745 46.3591L128.746 46.8631L129.446 46.8605C129.866 46.859 130.156 46.9466 130.315 47.1233C130.475 47.2907 130.555 47.5751 130.557 47.9764C130.558 48.3777 130.48 48.6674 130.322 48.8453C130.164 49.0139 129.875 49.099 129.455 49.1005L128.755 49.1031L128.757 49.6211L130.675 49.614C130.833 49.6134 130.955 49.6643 131.039 49.7666C131.124 49.869 131.166 49.9902 131.167 50.1302C131.167 50.2608 131.126 50.3823 131.042 50.4946C130.958 50.5976 130.837 50.6494 130.679 50.65L126.759 50.6645ZM132.821 50.67C132.298 50.672 131.938 50.5893 131.742 50.422C131.545 50.2454 131.446 49.9331 131.444 49.4851C131.443 49.0278 131.539 48.7148 131.735 48.5461C131.93 48.3773 132.289 48.292 132.812 48.2901L135.85 48.2788C136.372 48.2769 136.732 48.3595 136.929 48.5268C137.125 48.6941 137.224 49.0064 137.226 49.4637C137.228 49.9117 137.131 50.2247 136.936 50.4028C136.74 50.5715 136.381 50.6568 135.859 50.6588L132.821 50.67ZM130.921 48.1291C130.771 48.027 130.673 47.8873 130.626 47.7102C130.578 47.533 130.61 47.3695 130.722 47.2198C130.926 46.9484 131.135 46.6256 131.348 46.2515C131.571 45.8773 131.756 45.5173 131.904 45.1714C131.978 44.9938 132.104 44.8767 132.281 44.82C132.458 44.7633 132.635 44.772 132.813 44.846C132.991 44.9107 133.112 45.0269 133.178 45.1947C133.244 45.3531 133.24 45.5165 133.166 45.6847L133.152 45.7408L136.96 45.7267C137.119 45.7261 137.241 45.777 137.325 45.8793C137.419 45.9723 137.466 46.0888 137.466 46.2288C137.467 46.3688 137.42 46.4903 137.328 46.5933C137.244 46.687 137.123 46.7341 136.964 46.7347L132.666 46.7506C132.546 46.9564 132.425 47.1575 132.304 47.3539C132.184 47.5504 132.068 47.7281 131.956 47.8872C131.836 48.0463 131.677 48.1543 131.481 48.211C131.295 48.2583 131.108 48.231 130.921 48.1291ZM132.923 47.9676C132.773 47.9682 132.661 47.922 132.586 47.8289C132.511 47.7358 132.473 47.6286 132.473 47.5073C132.472 47.386 132.509 47.2785 132.584 47.1849C132.658 47.0913 132.77 47.0442 132.919 47.0437L136.391 47.0308C136.54 47.0302 136.653 47.0765 136.728 47.1695C136.803 47.2626 136.84 47.3698 136.841 47.4911C136.841 47.6125 136.804 47.7199 136.73 47.8135C136.656 47.9071 136.544 47.9542 136.395 47.9548L132.923 47.9676ZM129.141 54.9677L132.92 54.9537C133.256 54.9525 133.485 54.9283 133.606 54.8812C133.727 54.8247 133.797 54.6938 133.815 54.4884L128.229 54.5091C128.248 54.7144 128.319 54.8448 128.44 54.9003C128.571 54.9465 128.805 54.969 129.141 54.9677ZM128.212 53.7391L133.826 53.7183L133.824 53.2843L128.21 53.3052L128.212 53.7391ZM128.221 52.5211L133.807 52.5004C133.788 52.2951 133.713 52.1694 133.582 52.1232C133.46 52.077 133.236 52.0545 132.91 52.0557L129.13 52.0697C128.794 52.071 128.565 52.0952 128.444 52.1423C128.323 52.1894 128.249 52.3157 128.221 52.5211ZM126.246 48.2444L128.906 48.2345C129.027 48.2341 129.106 48.2198 129.143 48.1917C129.19 48.1635 129.213 48.0934 129.213 47.9814C129.212 47.8694 129.189 47.7995 129.142 47.7717C129.104 47.7438 129.025 47.7301 128.904 47.7305L126.244 47.7404L126.246 48.2444ZM127.007 49.6276L127.413 49.6261L127.411 49.1081L126.249 49.1124C126.268 49.327 126.334 49.4667 126.446 49.5317C126.559 49.5966 126.745 49.6286 127.007 49.6276ZM126.24 46.8724L127.402 46.8681L127.401 46.3641L126.995 46.3656C126.733 46.3666 126.547 46.3999 126.435 46.4657C126.323 46.5221 126.258 46.6577 126.24 46.8724ZM134.05 49.8535L134.596 49.8515L134.593 49.0815L134.047 49.0835L134.05 49.8535ZM135.506 49.8481L135.604 49.8477C135.79 49.847 135.911 49.8232 135.967 49.7764C136.023 49.7202 136.051 49.6174 136.05 49.4681C136.05 49.3094 136.021 49.2068 135.965 49.1604C135.909 49.1046 135.787 49.077 135.601 49.0777L135.503 49.0781L135.506 49.8481ZM133.07 49.8571L133.14 49.8569L133.137 49.0869L133.067 49.0871C132.88 49.0878 132.759 49.1163 132.703 49.1725C132.647 49.2193 132.62 49.3221 132.62 49.4808C132.621 49.6301 132.649 49.7327 132.705 49.7885C132.762 49.8349 132.883 49.8578 133.07 49.8571ZM140.043 57.6713C139.81 57.8029 139.577 57.8411 139.343 57.7859C139.119 57.7307 138.95 57.6007 138.838 57.3958C138.725 57.1909 138.696 56.995 138.751 56.8081C138.816 56.6119 138.951 56.4527 139.156 56.3306C139.836 55.9454 140.427 55.5186 140.929 55.05C141.44 54.5721 141.877 54.0525 142.239 53.4912C142.108 53.3983 141.94 53.2916 141.734 53.171C141.528 53.0505 141.322 52.9299 141.117 52.8093C140.911 52.6794 140.733 52.5727 140.583 52.4893C140.491 52.6203 140.393 52.7467 140.291 52.8684C140.198 52.99 140.1 53.1164 139.998 53.2475C139.85 53.4253 139.668 53.524 139.453 53.5435C139.239 53.5629 139.033 53.503 138.837 53.3638C138.668 53.2431 138.574 53.0754 138.555 52.8608C138.545 52.6462 138.6 52.464 138.721 52.3142C139.315 51.612 139.812 50.8075 140.21 49.9007C140.617 48.9938 140.898 48.0688 141.054 47.1255L139.332 47.1319C139.108 47.1327 138.93 47.0634 138.799 46.9239C138.668 46.7843 138.602 46.6119 138.601 46.4066C138.6 46.2013 138.665 46.0284 138.795 45.8879C138.925 45.7474 139.102 45.6767 139.326 45.6759L145.038 45.6547C145.262 45.6539 145.44 45.7232 145.571 45.8628C145.702 46.0023 145.768 46.1747 145.769 46.38C145.77 46.5854 145.705 46.7583 145.575 46.8987C145.445 47.0392 145.268 47.1099 145.044 47.1107L142.636 47.1196C142.608 47.3531 142.572 47.5912 142.526 47.8341C142.48 48.0769 142.425 48.3198 142.361 48.5627L143.285 48.5592C144.032 48.5565 144.536 48.7459 144.799 49.1276C145.071 49.5093 145.134 50.0551 144.987 50.7649C144.666 52.3528 144.074 53.7177 143.21 54.8596C142.356 55.9921 141.3 56.9293 140.043 57.6713ZM148.191 57.8931C147.949 57.894 147.743 57.8108 147.575 57.6434C147.415 57.476 147.326 57.2757 147.306 57.0424C147.296 56.7998 147.361 56.5942 147.5 56.4257C147.649 56.2571 147.854 56.1584 148.115 56.1294C148.395 56.1004 148.609 56.0622 148.759 56.015C148.908 55.9678 149.005 55.8834 149.052 55.7619C149.107 55.631 149.134 55.4443 149.134 55.2016L149.099 45.9057C149.098 45.663 149.177 45.4667 149.335 45.3168C149.493 45.1669 149.684 45.0915 149.908 45.0907C150.132 45.0898 150.324 45.1638 150.483 45.3125C150.642 45.4613 150.722 45.657 150.723 45.8997L150.759 55.5176C150.762 56.3669 150.568 56.9743 150.177 57.3398C149.796 57.7052 149.134 57.8896 148.191 57.8931ZM146.949 54.9717C146.725 54.9725 146.533 54.8986 146.374 54.7498C146.224 54.6011 146.149 54.41 146.148 54.1767L146.122 47.1767C146.121 46.9341 146.195 46.7424 146.344 46.6019C146.502 46.452 146.693 46.3766 146.917 46.3758C147.131 46.375 147.318 46.4489 147.478 46.5977C147.637 46.7371 147.717 46.9281 147.718 47.1708L147.744 54.1708C147.745 54.4041 147.666 54.5957 147.508 54.7456C147.35 54.8956 147.163 54.9709 146.949 54.9717ZM142.962 52.0745C143.045 51.8688 143.119 51.6585 143.184 51.4436C143.248 51.2287 143.308 51.0138 143.363 50.799C143.437 50.5187 143.427 50.3227 143.333 50.2111C143.249 50.0994 143.066 50.0441 142.786 50.0451L141.876 50.0485C141.802 50.2354 141.724 50.4224 141.64 50.6094C141.566 50.787 141.478 50.9646 141.376 51.1423C141.517 51.2165 141.685 51.3139 141.882 51.4345C142.078 51.5457 142.274 51.6617 142.471 51.7823C142.667 51.8936 142.831 51.991 142.962 52.0745Z" fill="black" fill-opacity="0.85"/>
</g>
<defs>
<radialGradient id="paint0_radial_1260_3954" cx="0" cy="0" r="1" gradientUnits="userSpaceOnUse" gradientTransform="translate(0.558656 46.8353) rotate(65.4889) scale(3.32531 8.21233)">
<stop offset="0.33" stop-opacity="0"/>
<stop offset="0.655" stop-opacity="0.6"/>
<stop offset="1"/>
</radialGradient>
<radialGradient id="paint1_radial_1260_3954" cx="0" cy="0" r="1" gradientUnits="userSpaceOnUse" gradientTransform="translate(355.296 45.8572) rotate(114.511) scale(3.32531 8.21233)">
<stop offset="0.33" stop-opacity="0"/>
<stop offset="0.655" stop-opacity="0.6"/>
<stop offset="1"/>
</radialGradient>
<clipPath id="clip0_1260_3954">
<rect width="200" height="90" fill="white"/>
</clipPath>
</defs>
</svg>
