<svg width="979" height="640" viewBox="0 0 979 640" fill="none" xmlns="http://www.w3.org/2000/svg">
<path d="M848.547 432.314C840.19 392.466 813.682 354.874 771.481 324.685C719.749 287.679 646.525 263.713 564.046 263.713C481.567 263.713 408.342 287.679 356.611 324.685C322.19 349.308 298.209 378.856 286.003 410.536L248.922 409.1C281.173 305.869 410.014 228.715 564.046 228.715C730.099 228.715 866.875 318.382 884.922 433.723L848.547 432.314Z" fill="#FE3040"/>
<path d="M848.547 466.812C840.19 426.965 813.682 389.372 771.481 359.183C719.749 322.177 646.525 298.211 564.046 298.211C481.567 298.211 408.342 322.177 356.611 359.183C322.19 383.806 298.209 413.354 286.003 445.034L248.922 443.598C281.173 340.367 410.014 263.213 564.046 263.213C730.099 263.213 866.875 352.88 884.922 468.221L848.547 466.812Z" fill="#FF6B1A"/>
<path d="M848.547 501.81C840.19 461.963 813.682 424.37 771.481 394.181C719.749 357.175 646.525 333.209 564.046 333.209C481.567 333.209 408.342 357.175 356.611 394.181C322.19 418.804 298.209 448.352 286.003 480.032L248.922 478.596C281.173 375.365 410.014 298.211 564.046 298.211C730.099 298.211 866.875 387.878 884.922 503.219L848.547 501.81Z" fill="#A2AA2E"/>
<path d="M848.547 535.309C840.19 495.461 813.682 457.869 771.481 427.679C719.749 390.673 646.525 366.707 564.046 366.707C481.567 366.707 408.342 390.673 356.611 427.679C322.19 452.302 298.209 481.85 286.003 513.53L248.922 512.094C281.173 408.863 410.014 331.709 564.046 331.709C730.099 331.709 866.875 421.376 884.922 536.717L848.547 535.309Z" fill="#548FD1"/>
<path d="M848.547 569.307C840.19 529.459 813.682 491.867 771.481 461.677C719.749 424.671 646.525 400.705 564.046 400.705C481.567 400.705 408.342 424.671 356.611 461.677C322.19 486.301 298.209 515.848 286.003 547.528L248.922 546.093C281.173 442.861 410.014 365.707 564.046 365.707C730.099 365.707 866.875 455.374 884.922 570.715L848.547 569.307Z" fill="#A349C1"/>
<path fill-rule="evenodd" clip-rule="evenodd" d="M167.712 65.0937C165.121 60.5843 162.051 57.3894 158.959 56.4C156.282 55.5435 153.674 55.5399 149.798 55.918C149.185 55.9778 148.522 56.0506 147.815 56.1281C144.337 56.5097 139.802 57.0073 134.897 56.6565C132.443 56.4809 130.164 56.4043 127.849 56.3265L127.759 56.3234C125.471 56.2465 123.066 56.1653 120.695 55.9623C115.799 55.543 110.737 54.5857 105.282 51.9085C97.3767 48.0283 92.4546 40.3741 89.7119 35.0281C88.2491 32.1769 87.1861 29.541 86.4868 27.6184C86.1348 26.6509 85.869 25.8477 85.6861 25.2679C85.5944 24.9776 85.5232 24.7422 85.472 24.5688C85.4463 24.4821 85.4257 24.4108 85.41 24.3558L85.39 24.2857L85.3828 24.26L85.3786 24.2449C85.378 24.2428 85.3774 24.2407 93.5677 21.967L85.3774 24.2407C84.1217 19.7173 86.7707 15.0324 91.294 13.7767C95.8109 12.5229 100.489 15.1624 101.753 19.6738C101.754 19.6786 101.755 19.6834 101.756 19.6881L101.756 19.6861L101.754 19.6802L101.753 19.6763C101.756 19.6862 101.763 19.7112 101.775 19.7507C101.798 19.8296 101.839 19.9655 101.898 20.1516C102.016 20.5246 102.203 21.0942 102.463 21.8069C102.986 23.2449 103.776 25.1996 104.837 27.268C107.143 31.7611 109.95 35.2624 112.773 36.6476C115.75 38.1087 118.583 38.7192 122.146 39.0243C124.004 39.1835 125.969 39.2537 128.33 39.3331L128.519 39.3394C130.776 39.4152 133.331 39.501 136.11 39.6998C139.346 39.9313 142.095 39.6371 145.484 39.2744C146.327 39.1843 147.209 39.0899 148.148 38.9983C152.622 38.5618 158.066 38.2656 164.139 40.2084C173.435 43.1824 179.253 51.0564 182.452 56.625C184.155 59.5892 185.386 62.3751 186.192 64.4137C186.598 65.4408 186.905 66.2982 187.116 66.9191C187.221 67.23 187.304 67.4832 187.363 67.6702C187.392 67.7638 187.416 67.841 187.435 67.9007L187.458 67.9772L187.466 68.0055L187.471 68.0222C187.472 68.0246 187.473 68.027 179.323 70.4419L187.473 68.027C188.807 72.5279 186.239 77.2579 181.738 78.5916C177.245 79.9231 172.523 77.3665 171.18 72.8796C171.181 72.8829 171.181 72.8833 171.18 72.8796C171.178 72.872 171.176 72.8644 171.173 72.8569L179.29 70.4517C171.173 72.8569 171.174 72.8591 171.175 72.8612L171.176 72.8651L171.18 72.8786C171.177 72.8694 171.169 72.844 171.156 72.8035C171.131 72.7224 171.085 72.5812 171.019 72.3874C170.887 71.999 170.676 71.4055 170.384 70.6668C169.793 69.1739 168.904 67.1685 167.712 65.0937ZM101.757 19.6895C101.757 19.6895 101.757 19.6895 101.757 19.6895V19.6895Z" fill="#E2984F"/>
<path fill-rule="evenodd" clip-rule="evenodd" d="M150.383 308.608C148.092 306.505 145.24 305.003 141.535 305.375C138.045 305.726 134.655 306.933 130.23 308.819C129.5 309.13 128.735 309.463 127.936 309.811C124.153 311.459 119.621 313.432 114.602 314.902C111.845 315.708 109.294 316.531 106.774 317.344L106.652 317.383C104.135 318.195 101.591 319.014 99.0916 319.718C94.0399 321.141 88.7525 322.22 82.8272 322.047C73.7198 321.782 67.2195 316.869 63.3704 312.802C61.407 310.727 59.9524 308.691 58.9833 307.173C58.4941 306.406 58.1159 305.752 57.8473 305.263C57.7126 305.018 57.6047 304.813 57.5232 304.654C57.4824 304.575 57.4482 304.507 57.4206 304.451L57.3839 304.377L57.3693 304.347L57.3629 304.334L57.3599 304.327C57.3585 304.324 57.3571 304.322 65.0135 300.63L57.3571 304.322C55.3181 300.093 57.0931 295.012 61.3216 292.973C65.5317 290.943 70.5867 292.694 72.643 296.883C72.6495 296.896 72.6559 296.909 72.6623 296.922L72.6598 296.917L72.6518 296.901L72.6419 296.881C72.6385 296.874 72.6389 296.875 72.643 296.883C72.6438 296.884 72.6447 296.886 72.6457 296.888C72.6589 296.914 72.6929 296.979 72.7475 297.078C72.8572 297.278 73.0463 297.609 73.3129 298.026C73.8555 298.876 74.6663 300.005 75.7183 301.117C77.9 303.423 80.4304 304.97 83.3224 305.055C86.828 305.157 90.2514 304.547 94.4822 303.355C96.624 302.752 98.8644 302.032 101.435 301.203L101.625 301.142C104.104 300.343 106.844 299.459 109.826 298.586C113.722 297.445 117.092 295.983 120.825 294.362C121.713 293.977 122.622 293.582 123.564 293.181C128.221 291.196 133.616 289.086 139.835 288.46C149.876 287.451 157.315 291.895 161.879 296.084C164.154 298.172 165.833 300.291 166.949 301.885C167.512 302.69 167.947 303.384 168.256 303.905C168.411 304.167 168.536 304.387 168.63 304.558C168.677 304.643 168.717 304.717 168.749 304.777C168.765 304.807 168.78 304.834 168.792 304.858L168.809 304.891L168.817 304.906L168.82 304.913C168.822 304.916 168.824 304.919 161.28 308.804L168.824 304.919C170.973 309.093 169.332 314.218 165.158 316.367C161.006 318.505 155.912 316.892 153.743 312.766C153.743 312.766 153.743 312.766 153.743 312.766C153.73 312.743 153.695 312.679 153.636 312.58C153.518 312.381 153.312 312.048 153.019 311.631C152.424 310.779 151.535 309.665 150.383 308.608ZM72.6655 296.929C72.6644 296.927 72.6634 296.924 72.6623 296.922L72.6646 296.927L72.6655 296.929ZM72.6655 296.929C72.6661 296.93 72.6666 296.931 72.6672 296.932C72.6672 296.932 72.6672 296.932 72.6672 296.932L72.6655 296.929Z" fill="#CCA7D0"/>
<path d="M195.922 247.215C195.922 256.051 188.758 263.215 179.922 263.215C171.085 263.215 163.922 256.051 163.922 247.215C163.922 238.378 171.085 231.215 179.922 231.215C188.758 231.215 195.922 238.378 195.922 247.215Z" fill="#AED2E7"/>
<path d="M124.228 373.398C89.9737 373.398 61.7994 399.452 58.4097 432.839C29.8127 440.148 8.66797 466.102 8.66797 496.999C8.66797 533.569 38.289 563.214 74.8283 563.214C90.8375 563.214 105.519 557.523 116.962 548.052C128.055 556.46 141.879 561.448 156.867 561.448C176.271 561.448 193.724 553.088 205.826 539.771C217.928 553.088 235.381 561.448 254.785 561.448C291.324 561.448 320.945 531.803 320.945 495.233C320.945 464.921 300.593 439.366 272.819 431.509C268.826 398.762 240.947 373.398 207.149 373.398C191.452 373.398 177.032 378.869 165.689 388.01C154.345 378.869 139.925 373.398 124.228 373.398Z" fill="#EEEEEE"/>
<path d="M116.482 364.215C82.2276 364.215 54.0533 390.268 50.6636 423.656C22.0666 430.964 0.921875 456.918 0.921875 487.816C0.921875 524.385 30.5429 554.03 67.0822 554.03C83.0914 554.03 97.7725 548.339 109.216 538.869C120.309 547.277 134.133 552.265 149.121 552.265C168.525 552.265 185.978 543.904 198.08 530.587C210.182 543.904 227.635 552.265 247.038 552.265C283.578 552.265 313.199 522.619 313.199 486.05C313.199 455.737 292.847 430.182 265.073 422.325C261.08 389.579 233.201 364.215 199.403 364.215C183.706 364.215 169.286 369.686 157.942 378.826C146.599 369.686 132.179 364.215 116.482 364.215Z" fill="white"/>
<path d="M845.187 517.145C821.899 517.145 802.745 533.966 800.441 555.523C781 560.242 766.625 577 766.625 596.949C766.625 620.56 786.762 639.701 811.603 639.701C822.487 639.701 832.467 636.027 840.247 629.912C847.788 635.34 857.186 638.561 867.376 638.561C880.567 638.561 892.432 633.163 900.659 624.565C908.887 633.163 920.752 638.561 933.943 638.561C958.784 638.561 978.921 619.42 978.921 595.809C978.921 576.237 965.085 559.737 946.203 554.664C943.489 533.521 924.536 517.145 901.559 517.145C890.888 517.145 881.084 520.677 873.373 526.579C865.661 520.677 855.858 517.145 845.187 517.145Z" fill="#EEEEEE"/>
<path d="M834.483 511.215C811.196 511.215 792.042 528.037 789.738 549.594C770.297 554.312 755.922 571.07 755.922 591.019C755.922 614.631 776.059 633.771 800.9 633.771C811.783 633.771 821.764 630.097 829.544 623.982C837.085 629.411 846.483 632.631 856.673 632.631C869.864 632.631 881.729 627.234 889.956 618.635C898.184 627.234 910.049 632.631 923.24 632.631C948.081 632.631 968.218 613.49 968.218 589.879C968.218 570.308 954.382 553.808 935.5 548.734C932.786 527.591 913.833 511.215 890.856 511.215C880.185 511.215 870.381 514.747 862.67 520.649C854.958 514.747 845.155 511.215 834.483 511.215Z" fill="white"/>
</svg>
