<svg width="200" height="90" viewBox="0 0 200 90" fill="none" xmlns="http://www.w3.org/2000/svg">
<g clip-path="url(#clip0_2308_7061)">
<rect width="200" height="90" fill="#FEB79D"/>
<path fill-rule="evenodd" clip-rule="evenodd" d="M-6.18027 85.5257C-5.5206 81.3514 -9.94765 77.2571 -7.65473 73.2393C-4.94813 68.4966 -1.65241 61.9915 7.77154 61.0783C17.9972 60.0873 23.5998 68.8258 33.9785 69.2048C45.8176 69.6371 56.5881 60.196 66.8872 63.2371C76.2425 65.9996 70.121 74.0119 68.9752 79.5387C68.1676 83.4341 61.5364 86.4306 61.2669 90.3457C60.8502 96.3973 75.7689 103.853 67.0229 107.895C58.3557 111.9 45.7383 103.802 34.2527 102.83C27.3162 102.243 20.5655 103.925 13.6182 103.373C4.65786 102.66 -7.2514 103.227 -11.7526 99.1698C-16.3208 95.0519 -6.92748 90.2539 -6.18027 85.5257Z" fill="#FE585B"/>
<path fill-rule="evenodd" clip-rule="evenodd" d="M28.4743 10.5302C32.6486 10.8717 36.7429 8.58004 40.7607 9.76696C45.5034 11.168 52.0085 12.874 52.9217 17.7523C53.9127 23.0456 45.1742 25.9458 44.7952 31.3183C44.3629 37.4467 53.804 43.0221 50.7629 48.3534C48.0004 53.1961 39.9881 50.0274 34.4613 49.4342C30.5659 49.0162 27.5694 45.5836 23.6543 45.444C17.6027 45.2284 10.1469 52.9509 6.10508 48.4236C2.09968 43.9371 10.1975 37.4057 11.1701 31.4602C11.7575 27.8695 10.0747 24.3751 10.6274 20.7788C11.3402 16.1405 10.7727 9.97575 14.8302 7.64571C18.9481 5.281 23.7461 10.1434 28.4743 10.5302Z" fill="#FC7443"/>
<path fill-rule="evenodd" clip-rule="evenodd" d="M173.474 4.53021C177.649 4.87169 181.743 2.58004 185.761 3.76696C190.503 5.16803 197.008 6.87405 197.922 11.7523C198.913 17.0456 190.174 19.9458 189.795 25.3183C189.363 31.4467 198.804 37.0221 195.763 42.3534C193 47.1961 184.988 44.0274 179.461 43.4342C175.566 43.0162 172.569 39.5836 168.654 39.444C162.603 39.2284 155.147 46.9509 151.105 42.4236C147.1 37.9371 155.198 31.4057 156.17 25.4602C156.757 21.8695 155.075 18.3751 155.627 14.7788C156.34 10.1405 155.773 3.97575 159.83 1.64571C163.948 -0.719004 168.746 4.14342 173.474 4.53021Z" fill="#FF8787"/>
<path fill-rule="evenodd" clip-rule="evenodd" d="M117.063 7.20494C131.49 7.9797 144.155 11.9054 154.996 17.5775C166.733 23.7188 176.896 30.8598 179.688 39.9711C183.097 51.0949 184.354 63.7453 171.749 72.2549C158.691 81.0707 136.857 81.4742 117.063 82.2497C95.2362 83.1048 71.8992 84.7511 54.6033 76.8446C35.6156 68.1646 20.8565 53.9771 24.5773 39.9711C28.0889 26.7526 52.1053 19.9805 71.5388 13.0955C85.3864 8.18958 100.98 6.34119 117.063 7.20494Z" fill="#FFAB7A"/>
<ellipse cx="177.989" cy="70.7269" rx="16.7876" ry="14.0511" fill="#F55A57"/>
<ellipse cx="173.713" cy="65.6395" rx="1.21537" ry="2.15126" fill="black"/>
<ellipse cx="182.288" cy="65.6395" rx="1.21537" ry="2.15126" fill="black"/>
<path d="M173.043 72.6426C173.079 74.5703 175.312 76.0917 178.031 76.0408C180.749 75.99 182.924 74.386 182.888 72.4584C182.852 70.5307 180.67 71.7806 177.952 71.8314C175.233 71.8823 173.007 70.7149 173.043 72.6426Z" fill="black"/>
<path d="M170.798 50.9035C173.679 48.6452 180.102 51.1915 180.102 55.0219C180.103 59.542 168.088 61.6232 165.803 61.9782C165.554 62.0169 165.305 62.044 165.056 62.039C163.427 62.0062 157.617 61.2375 170.798 50.9035Z" fill="#6E5232"/>
<path d="M170.798 50.9035C173.679 48.6452 180.102 51.1915 180.102 55.0219C180.103 59.542 168.088 61.6232 165.803 61.9782C165.554 62.0169 165.305 62.044 165.056 62.039C163.427 62.0062 157.617 61.2375 170.798 50.9035Z" fill="url(#paint0_radial_2308_7061)" fill-opacity="0.15"/>
<path d="M185.204 50.7629C182.323 48.5045 175.9 51.0509 175.9 54.8813C175.899 59.4014 187.914 61.4825 190.199 61.8375C190.448 61.8763 190.697 61.9034 190.946 61.8984C192.575 61.8656 198.385 61.0968 185.204 50.7629Z" fill="#6E5232"/>
<path d="M185.204 50.7629C182.323 48.5045 175.9 51.0509 175.9 54.8813C175.899 59.4014 187.914 61.4825 190.199 61.8375C190.448 61.8763 190.697 61.9034 190.946 61.8984C192.575 61.8656 198.385 61.0968 185.204 50.7629Z" fill="url(#paint1_radial_2308_7061)" fill-opacity="0.15"/>
<path d="M80.4184 30.0544C80.2451 30.0551 80.1588 30.1421 80.1594 30.3154L80.1665 32.2354L80.7465 32.2332L80.7425 31.1432C80.7413 30.8232 80.9007 30.6627 81.2207 30.6615L82.3707 30.6572L82.3694 30.3072C82.3687 30.1339 82.2818 30.0475 82.1084 30.0482L80.4184 30.0544ZM82.3765 32.2272L82.3734 31.3972L81.8634 31.3991C81.6901 31.3997 81.6037 31.4867 81.6044 31.6601L81.6065 32.23L82.3765 32.2272ZM81.4868 35.0005C81.6534 34.9999 81.7364 34.9129 81.7358 34.7396L81.7351 34.5596C81.7345 34.3863 81.6475 34.2999 81.4742 34.3006L81.0842 34.302C80.9175 34.3026 80.8345 34.3896 80.8351 34.5629L80.8368 35.0029L81.4868 35.0005ZM79.7199 33.137C79.5465 33.1377 79.4602 33.2247 79.4608 33.398L79.4711 36.178C79.4721 36.4513 79.2993 36.5886 78.9526 36.5899C78.6126 36.5912 78.4421 36.4551 78.4411 36.1818L78.4283 32.7218C78.4271 32.4018 78.5865 32.2412 78.9065 32.2401L79.1365 32.2392L79.127 29.6592C79.1258 29.3392 79.2852 29.1786 79.6052 29.1774L82.9652 29.165C83.2785 29.1638 83.4357 29.3232 83.4369 29.6432L83.4465 32.2232L83.7165 32.2222C84.0432 32.221 84.2038 32.3838 84.1983 32.7104L84.141 36.1307C84.0881 36.2575 83.9719 36.368 83.7922 36.462C83.6192 36.556 83.4327 36.5966 83.2327 36.5841C82.8127 36.5989 82.5655 36.4632 82.4911 36.1768C82.4501 35.9036 82.3963 35.7605 82.3295 35.7474L80.8396 35.7529C80.8403 35.9529 80.6973 36.0534 80.4107 36.0545C80.1307 36.0555 79.9902 35.9194 79.9892 35.6461L79.9832 34.0261C79.982 33.7061 80.1414 33.5455 80.4614 33.5443L82.1114 33.5382C82.4314 33.537 82.5919 33.6964 82.5931 34.0164L82.5993 35.6864C82.5993 35.6864 82.7327 35.6859 82.9993 35.6849C83.0927 35.6846 83.1392 35.6411 83.1388 35.5544L83.1308 33.3844C83.1302 33.2111 83.0432 33.1247 82.8698 33.1254L79.7199 33.137ZM77.5586 30.095C77.7327 30.3011 77.6634 30.5113 77.3509 30.7258C77.045 30.9336 76.8117 30.9311 76.6509 30.7184L75.9273 29.7611C75.7665 29.5417 75.8324 29.3448 76.1251 29.1703C76.4245 28.9892 76.6612 29.0017 76.8353 29.2077L77.5586 30.095ZM77.2116 33.6163C77.4849 33.6087 77.7017 33.6412 77.862 33.7139C78.0289 33.78 78.0896 33.9631 78.044 34.2633C77.9924 34.7368 77.8611 35.274 77.65 35.8747C77.9184 36.3471 78.3096 36.659 78.8235 36.8104C79.3373 36.9552 80.0576 37.0292 80.9843 37.0324C82.3776 37.0272 83.5308 36.9796 84.4438 36.8896C84.697 36.862 84.761 37.0317 84.6357 37.3989C84.5104 37.766 84.3144 37.9567 84.0478 37.971C83.2746 38.0206 82.3181 38.0475 81.1781 38.0517C80.0448 38.0559 79.1911 37.9757 78.6172 37.8112C78.0432 37.6533 77.5754 37.3317 77.2136 36.8464C76.9091 37.4342 76.6172 37.8219 76.3379 38.0096C76.1319 38.1837 75.8984 38.1379 75.6374 37.8722C75.3831 37.6132 75.3523 37.4066 75.5451 37.2526C76.1968 36.8168 76.6406 36.0318 76.8764 34.8976C76.9289 34.6707 76.8684 34.5576 76.6951 34.5583L76.2551 34.5599L75.9852 34.5809C75.7588 34.6684 75.5817 34.5524 75.4539 34.2329C75.326 33.9133 75.3786 33.6931 75.6114 33.5723L75.7908 33.4116C75.9635 33.231 76.2024 32.9201 76.5074 32.479C76.6533 32.2717 76.6396 32.1685 76.4662 32.1691L75.8562 32.1714C75.5829 32.1724 75.4457 32.0162 75.4445 31.7029C75.4433 31.3829 75.5794 31.2224 75.8527 31.2214L77.4627 31.2154L77.5326 31.1951C77.8058 31.1541 78.0026 31.1934 78.1231 31.313C78.2435 31.4325 78.1777 31.6728 77.9258 32.0337C77.3223 32.9026 76.9675 33.4073 76.8614 33.5476C76.8149 33.6078 76.8783 33.6343 77.0517 33.6269L77.2116 33.6163ZM87.807 29.647C88.0276 29.8129 88.0218 30.0596 87.7897 30.3871C87.5576 30.7146 87.3479 30.8021 87.1607 30.6495C87.1806 30.636 87.0269 30.5333 86.6995 30.3412C86.3788 30.1423 86.1817 30.0331 86.1083 30.0133C85.8746 29.9009 85.8671 29.6976 86.0861 29.4034C86.3049 29.1026 86.5646 29.0183 86.8651 29.1505C87.3324 29.3221 87.6464 29.4876 87.807 29.647ZM87.4066 32.2486C87.6406 32.4144 87.6415 32.6644 87.4094 32.9985C87.184 33.3327 86.9676 33.4169 86.7603 33.251C86.6131 33.0915 86.2824 32.9061 85.7683 32.6946C85.461 32.5491 85.4136 32.3259 85.6258 32.0252C85.838 31.7244 86.0943 31.6301 86.3947 31.7423C86.8753 31.8939 87.2126 32.0626 87.4066 32.2486ZM86.7154 34.6311C86.8343 34.324 87.0542 34.2832 87.375 34.5087C87.7025 34.7341 87.8134 34.9904 87.7078 35.2775C87.4174 36.0652 87.0738 36.8732 86.6768 37.7013C86.5644 37.9617 86.3245 37.9793 85.957 37.754C85.5962 37.5286 85.4753 37.3057 85.5945 37.0853C86.0052 36.3571 86.3788 35.5391 86.7154 34.6311ZM92.5773 32.4294L91.2873 32.4342L91.2885 32.7442C91.2891 32.9175 91.3761 33.0038 91.5494 33.0032L92.3194 33.0003C92.4928 32.9997 92.5791 32.9127 92.5785 32.7394L92.5773 32.4294ZM90.2373 32.4381L89.4373 32.441C89.4469 35.021 89.1203 36.8289 88.4574 37.8647C88.3581 38.0451 88.1414 38.0425 87.8074 37.8571C87.4734 37.6717 87.356 37.4921 87.4554 37.3184C88.0387 36.4096 88.326 34.7785 88.3173 32.4252L88.309 30.1952C88.3078 29.8752 88.4672 29.7146 88.7872 29.7134L91.0072 29.7052L90.8961 29.4056C90.8085 29.1526 90.9512 28.9854 91.3242 28.904C91.6973 28.816 91.9309 28.8984 92.0252 29.1514L92.2472 29.7006L94.1572 29.6935C94.4305 29.6925 94.5678 29.8587 94.569 30.192C94.5703 30.5187 94.4342 30.6825 94.1609 30.6835L89.6909 30.7001C89.5176 30.7007 89.4312 30.7877 89.4319 30.961L89.4339 31.511L90.2339 31.5081L90.2331 31.2881C90.2321 31.0147 90.4049 30.8774 90.7515 30.8761C91.1049 30.8748 91.2821 31.0108 91.2831 31.2842L91.2839 31.5042L92.5739 31.4994L92.5731 31.2794C92.572 31.0061 92.7549 30.8687 93.1215 30.8674C93.4882 30.866 93.672 31.002 93.673 31.2753L93.6739 31.4953L94.1339 31.4936C94.4072 31.4926 94.5444 31.6488 94.5456 31.9621C94.5467 32.2688 94.4106 32.4226 94.1373 32.4236L93.6773 32.4253L93.681 33.4253C93.6822 33.7386 93.5228 33.8959 93.2028 33.8971L90.7228 33.9063C90.4028 33.9075 90.2422 33.7514 90.241 33.4381L90.2373 32.4381ZM92.6184 35.4193C92.7312 35.2788 92.701 35.2089 92.5276 35.2096L91.4576 35.2136C91.2843 35.2142 91.2479 35.281 91.3484 35.414C91.4489 35.5669 91.6563 35.7628 91.9706 36.0017C92.2897 35.7738 92.5057 35.5797 92.6184 35.4193ZM93.224 34.227C93.4973 34.226 93.7542 34.2784 93.9946 34.3841C94.235 34.4899 94.299 34.673 94.1866 34.9334C93.9953 35.4742 93.5807 36.0257 92.9427 36.5881C93.5103 36.8393 93.9876 36.9942 94.3745 37.0528C94.6613 37.105 94.6854 37.2949 94.4466 37.6225C94.2078 37.9567 93.9383 38.0844 93.638 38.0055C93.0842 37.8875 92.5968 37.696 92.1759 37.4309C92.0155 37.3382 91.8522 37.3354 91.6858 37.4227C91.2002 37.6979 90.6409 37.9066 90.0081 38.0489C89.7151 38.1234 89.4713 38.0009 89.2768 37.6817C89.0889 37.3624 89.1382 37.1755 89.4247 37.1211C89.9044 37.0327 90.4337 36.854 91.0127 36.5852C90.5979 36.1867 90.2529 35.7314 89.9776 35.219C89.7176 35.22 89.5871 35.0672 89.5859 34.7605C89.5848 34.4472 89.7209 34.29 89.9942 34.289L93.224 34.227ZM100.313 33.8407L100.308 32.4807C100.307 32.3074 100.22 32.2211 100.047 32.2217L99.2766 32.2246C98.9566 32.2257 98.796 32.0663 98.7948 31.7463L98.7858 29.3164C98.7848 29.043 98.951 28.9057 99.2843 28.9045C99.6243 28.9032 99.7948 29.0393 99.7958 29.3126L99.7968 29.5826L100.957 29.5783C101.23 29.5773 101.367 29.7401 101.369 30.0668C101.37 30.3934 101.234 30.5573 100.96 30.5583L99.8004 30.5626L99.8022 31.0326C99.8028 31.2059 99.8898 31.2923 100.063 31.2916L100.813 31.2989C101.133 31.2977 101.294 31.4571 101.295 31.7771L101.303 33.8371C101.303 34.0437 101.277 34.1972 101.224 34.2973C101.178 34.3975 101.078 34.4846 100.925 34.5585C100.772 34.6324 100.589 34.6664 100.376 34.6605C100.002 34.6685 99.7719 34.5527 99.6843 34.3131C99.5968 34.0667 99.6896 33.943 99.963 33.942L100.143 33.9414C100.256 33.9476 100.313 33.9141 100.313 33.8407ZM98.8489 32.8561C98.9146 32.5959 99.0943 32.4919 99.3878 32.5441C99.6813 32.5897 99.8021 32.8026 99.7502 33.1828C99.7249 33.5629 99.636 33.8532 99.4834 34.0538C99.3841 34.2475 99.2075 34.2682 98.9536 34.1158C98.6997 33.9567 98.6056 33.7471 98.6713 33.4868L98.8489 32.8561ZM102.616 34.7522L102.663 33.942L102.063 33.9442C101.79 33.9453 101.652 33.7824 101.651 33.4558C101.65 33.1291 101.786 32.9653 102.059 32.9642L102.699 32.9619L102.696 32.1019L102.126 32.104C101.853 32.105 101.716 31.9422 101.714 31.6155C101.713 31.2889 101.849 31.125 102.123 31.124L102.753 31.1217L102.75 30.5217C102.75 30.3483 102.663 30.262 102.489 30.2626L102.019 30.2644C101.746 30.2654 101.609 30.0959 101.607 29.7559C101.606 29.4159 101.742 29.2454 102.016 29.2444L103.366 29.2394C103.686 29.2382 103.843 29.4176 103.838 29.7776C103.85 31.4643 103.817 33.1211 103.736 34.748L104.196 34.7463C104.469 34.7453 104.607 34.9282 104.608 35.2948C104.609 35.6615 104.473 35.8453 104.2 35.8463L101.79 35.8553C102.859 36.3513 103.613 36.7385 104.054 37.0169C104.248 37.1295 104.212 37.3363 103.947 37.6373C103.688 37.9449 103.451 38.0291 103.238 37.8899C102.67 37.4987 102.078 37.1609 101.464 36.8765C101.036 36.6581 100.942 36.3917 101.181 36.0775L101.35 35.8569L98.3801 35.8679L98.7613 36.1765C99.0689 36.4287 99.0464 36.6688 98.6939 36.8967C98.1752 37.252 97.4632 37.6113 96.5579 37.9747C96.285 38.0957 96.0347 38.0066 95.8069 37.7075C95.5858 37.4149 95.6184 37.2115 95.9046 37.0971C96.7102 36.7941 97.4653 36.3846 98.1701 35.8687L95.8501 35.8773C95.5768 35.8783 95.4394 35.6955 95.4381 35.3288C95.4367 34.9621 95.5727 34.7783 95.846 34.7773L96.336 34.7755L96.1586 30.0661C96.1508 29.7661 96.2834 29.5623 96.5563 29.4546L97.6747 29.0105C97.9277 28.9162 98.1381 29.0321 98.306 29.3581C98.4805 29.6775 98.4379 29.8743 98.1782 29.9486L97.4689 30.1612C97.3091 30.2085 97.2295 30.3155 97.2301 30.4821L97.2625 31.132L97.9925 31.1293C98.2659 31.1283 98.4031 31.2911 98.4044 31.6178C98.4055 31.9378 98.2695 32.0983 97.9961 32.0993L97.2961 32.1019L97.3293 32.9618L98.0293 32.9592C98.3027 32.9582 98.4399 33.121 98.4411 33.4477C98.4423 33.7677 98.3062 33.9282 98.0329 33.9292L97.3629 33.9317L97.396 34.7715L102.616 34.7522ZM108.451 36.0506L108.453 36.5606C108.866 36.5324 109.446 36.4836 110.192 36.4141C110.557 35.9061 110.818 35.3051 110.976 34.6112C111.133 33.9173 111.23 33.0836 111.266 32.1101L110.836 32.1117C110.516 32.1129 110.356 31.9535 110.354 31.6335L110.353 31.3335L108.433 31.3406L108.435 31.7306L109.725 31.7258C110.045 31.7246 110.205 31.8807 110.207 32.194L110.215 34.334C110.216 34.654 110.056 34.8146 109.736 34.8158L108.446 34.8206L108.448 35.2106L109.848 35.2054C110.121 35.2044 110.258 35.3439 110.259 35.6239C110.26 35.9039 110.124 36.0444 109.851 36.0454L108.451 36.0506ZM106.583 33.8375C106.583 34.0042 106.67 34.0872 106.844 34.0865L107.364 34.0846L107.362 33.6346L106.582 33.6375L106.583 33.8375ZM109.222 33.6277L108.442 33.6306L108.444 34.0806L108.964 34.0787C109.137 34.078 109.223 33.9944 109.223 33.8277L109.222 33.6277ZM108.439 32.9206L109.219 32.9177L109.219 32.7377C109.218 32.5644 109.131 32.478 108.958 32.4787L108.438 32.4806L108.439 32.9206ZM106.838 32.4865C106.664 32.4872 106.578 32.5742 106.579 32.7475L106.579 32.9275L107.359 32.9246L107.358 32.4846L106.838 32.4865ZM112.422 31.0158L113.962 31.0101C114.289 31.0089 114.449 31.095 114.443 31.2683C114.437 31.5284 114.426 32.1317 114.41 33.0785C114.394 34.1919 114.354 35.1587 114.291 35.9789C114.234 36.7991 114.122 37.3296 113.957 37.5702C113.791 37.8108 113.535 37.9684 113.188 38.043C112.988 38.0838 112.758 38.098 112.498 38.0856C112.132 38.0869 111.888 37.8979 111.766 37.5183C111.652 37.1387 111.738 36.9617 112.024 36.9873C112.104 36.9937 112.298 36.9963 112.604 36.9952C112.751 36.9946 112.864 36.9376 112.944 36.8239C113.136 36.5765 113.251 35.1594 113.288 32.5726C113.293 32.2593 113.213 32.1029 113.046 32.1035L112.396 32.1059C112.328 33.5795 112.133 34.8036 111.81 35.7781C111.487 36.7527 111.059 37.4409 110.528 37.8429C110.275 38.0705 110.052 38.0547 109.857 37.7954C109.877 37.7753 109.74 37.6425 109.446 37.3969C107.527 37.604 106.287 37.7286 105.727 37.7707C105.567 37.7913 105.463 37.635 105.415 37.3018C105.368 36.9687 105.48 36.7949 105.754 36.7806L107.373 36.6546L107.371 36.0546L106.021 36.0596C105.748 36.0606 105.61 35.9211 105.609 35.6411C105.608 35.3611 105.744 35.2206 106.018 35.2196L107.368 35.2146L107.366 34.8246L106.126 34.8292C105.806 34.8304 105.646 34.6743 105.645 34.361L105.637 32.221C105.635 31.901 105.795 31.7404 106.115 31.7392L107.355 31.7346L107.353 31.3446L105.793 31.3504C105.52 31.3514 105.383 31.2086 105.382 30.9219C105.381 30.6353 105.517 30.4914 105.79 30.4904L107.35 30.4846L107.349 30.0846C106.702 30.1337 106.259 30.162 106.019 30.1695C105.779 30.1704 105.615 30.031 105.527 29.7514C105.44 29.4717 105.563 29.3212 105.896 29.3C107.389 29.2145 108.542 29.0835 109.354 28.9072C109.588 28.853 109.791 28.9756 109.966 29.2749C110.14 29.5676 110.094 29.7344 109.828 29.7754L108.428 29.9906L108.43 30.4806L109.87 30.4753C110.19 30.4741 110.351 30.6568 110.352 31.0235L111.292 31.02L111.296 29.34C111.295 29.0667 111.484 28.9293 111.864 28.9279C112.244 28.9265 112.435 29.0624 112.436 29.3358L112.422 31.0158ZM115.897 37.823C115.624 37.824 115.487 37.6945 115.486 37.4345C115.485 37.1745 115.621 37.044 115.895 37.043L124.155 37.0124C124.428 37.0114 124.565 37.1409 124.566 37.4009C124.567 37.6609 124.431 37.7914 124.157 37.7924L115.897 37.823ZM122.298 35.2092C122.297 34.9759 122.21 34.8596 122.037 34.8602L120.517 34.8658L120.518 35.2158L122.298 35.2092ZM122.041 36.1302C122.215 36.1296 122.301 36.0426 122.3 35.8692L122.3 35.7592L120.52 35.7658L120.521 36.1358L122.041 36.1302ZM117.78 35.776L117.78 35.886C117.781 36.0593 117.865 36.1457 118.031 36.1451L119.431 36.1399L119.43 35.7699L117.78 35.776ZM118.027 34.8751C117.86 34.8757 117.777 34.9927 117.778 35.226L119.428 35.2199L119.427 34.8699L118.027 34.8751ZM116.606 34.7903C116.605 34.4703 116.764 34.3097 117.084 34.3086L123.034 34.2865C123.348 34.2853 123.505 34.4448 123.506 34.7648L123.512 36.2148C123.513 36.5348 123.353 36.6953 123.033 36.6965L117.083 36.7186C116.77 36.7197 116.613 36.5603 116.612 36.2403L116.606 34.7903ZM120.532 30.9258L120.533 31.2858L122.033 31.2802C122.207 31.2796 122.293 31.1592 122.292 30.9192L120.532 30.9258ZM120.528 29.9558L120.53 30.2858L122.29 30.2792C122.289 30.0592 122.202 29.9496 122.028 29.9502L120.528 29.9558ZM120.541 33.2357L124.15 33.2224C124.424 33.2214 124.561 33.3442 124.562 33.5908C124.563 33.8308 124.427 33.9513 124.153 33.9524L115.893 33.983C115.62 33.984 115.483 33.8645 115.482 33.6245C115.481 33.3778 115.617 33.254 115.891 33.253L119.341 33.2402L119.339 32.8902L116.599 32.9004C116.326 32.9014 116.189 32.7985 116.188 32.5919C116.187 32.3785 116.324 32.2714 116.597 32.2704L119.337 32.2602L119.336 31.9102L116.906 31.9192C116.632 31.9202 116.495 31.8174 116.494 31.6107C116.494 31.4041 116.63 31.3002 116.903 31.2992L119.333 31.2902L119.332 30.9302L115.912 30.9429C115.639 30.9439 115.502 30.8377 115.501 30.6244C115.5 30.4111 115.636 30.3039 115.91 30.3029L119.33 30.2902L119.328 29.9602L116.948 29.969C116.675 29.9701 116.538 29.8672 116.537 29.6606C116.536 29.4472 116.673 29.3401 116.946 29.339L119.326 29.3302L119.325 29.1502C119.324 28.8769 119.524 28.7395 119.924 28.738C120.324 28.7365 120.524 28.8724 120.525 29.1458L120.526 29.3258L122.996 29.3166C123.316 29.3154 123.477 29.4748 123.478 29.7948L123.48 30.2748L124.07 30.2726C124.343 30.2716 124.48 30.3778 124.481 30.5911C124.482 30.8045 124.345 30.9116 124.072 30.9126L123.482 30.9148L123.484 31.4148C123.485 31.7348 123.326 31.8954 123.006 31.8966L120.536 31.9058L120.537 32.2558L123.467 32.2449C123.74 32.2439 123.877 32.35 123.878 32.5634C123.879 32.77 123.743 32.8739 123.469 32.8749L120.539 32.8857L120.541 33.2357Z" fill="#FE585B"/>
<path d="M78.2217 55.8891L78.2247 56.7051C78.8859 56.66 79.8136 56.5819 81.0079 56.4708C81.5916 55.658 82.0093 54.6964 82.2612 53.5862C82.5131 52.4759 82.6682 51.142 82.7264 49.5844L82.0384 49.5869C81.5264 49.5888 81.2694 49.3338 81.2675 48.8218L81.2658 48.3418L78.1938 48.3532L78.1961 48.9772L80.2601 48.9695C80.7721 48.9676 81.029 49.2174 81.0309 49.7187L81.0436 53.1427C81.0455 53.6547 80.7904 53.9116 80.2784 53.9135L78.2144 53.9212L78.2167 54.5451L80.4567 54.5368C80.8941 54.5352 81.1135 54.7584 81.1152 55.2064C81.1169 55.6544 80.899 55.8792 80.4617 55.8808L78.2217 55.8891ZM75.2326 52.3482C75.2336 52.6149 75.3727 52.7477 75.6501 52.7466L76.482 52.7436L76.4794 52.0236L75.2314 52.0282L75.2326 52.3482ZM79.4554 52.0125L78.2074 52.0172L78.21 52.7372L79.042 52.7341C79.3194 52.733 79.4575 52.5992 79.4565 52.3325L79.4554 52.0125ZM78.2032 50.8812L79.4511 50.8765L79.4501 50.5885C79.4491 50.3112 79.3099 50.1731 79.0325 50.1741L78.2005 50.1772L78.2032 50.8812ZM75.6406 50.1867C75.3632 50.1877 75.2251 50.3269 75.2261 50.6042L75.2272 50.8922L76.4752 50.8876L76.4726 50.1836L75.6406 50.1867ZM84.5759 47.8335L87.0399 47.8244C87.5626 47.8225 87.8191 47.9602 87.8094 48.2375C87.8003 48.6536 87.7825 49.619 87.7562 51.1338C87.7308 52.9152 87.6672 54.4621 87.5654 55.7745C87.4742 57.0869 87.296 57.9355 87.0308 58.3205C86.7655 58.7055 86.3558 58.9577 85.8016 59.0771C85.4818 59.1423 85.1139 59.1649 84.6978 59.1452C84.1112 59.1473 83.7207 58.8448 83.5265 58.2375C83.3429 57.6302 83.4805 57.347 83.9393 57.388C84.0674 57.3981 84.3767 57.4023 84.8674 57.4005C85.102 57.3996 85.283 57.3083 85.4104 57.1265C85.7182 56.7307 85.9018 54.4633 85.9611 50.3244C85.97 49.823 85.841 49.5729 85.5744 49.5738L84.5344 49.5777C84.4258 51.9354 84.113 53.894 83.5961 55.4532C83.0792 57.0125 82.3953 58.1137 81.5444 58.7568C81.1404 59.121 80.783 59.0957 80.4721 58.6808C80.504 58.6487 80.2845 58.4362 79.8137 58.0433C76.7429 58.3746 74.7596 58.574 73.8639 58.6413C73.608 58.6743 73.4417 58.4242 73.3651 57.8912C73.2885 57.3581 73.4688 57.0801 73.906 57.0571L76.4973 56.8555L76.4937 55.8955L74.3337 55.9036C73.8964 55.9052 73.6769 55.682 73.6753 55.234C73.6736 54.786 73.8914 54.5612 74.3288 54.5596L76.4887 54.5516L76.4864 53.9276L74.5024 53.9349C73.9905 53.9368 73.7335 53.6871 73.7317 53.1858L73.719 49.7618C73.7171 49.2498 73.9721 48.9928 74.4841 48.9909L76.4681 48.9836L76.4658 48.3596L73.9698 48.3688C73.5325 48.3705 73.313 48.1419 73.3113 47.6833C73.3096 47.2246 73.5274 46.9945 73.9647 46.9929L76.4607 46.9836L76.4583 46.3436C75.4239 46.4221 74.7148 46.4674 74.3308 46.4795C73.9468 46.4809 73.6847 46.2579 73.5443 45.8104C73.404 45.3629 73.6004 45.1222 74.1337 45.0882C76.5225 44.9514 78.3671 44.7419 79.6674 44.4597C80.0404 44.373 80.3664 44.5691 80.6456 45.0481C80.9246 45.5164 80.8509 45.7833 80.4245 45.8489L78.1858 46.1932L78.1887 46.9772L80.4927 46.9687C81.0047 46.9668 81.2618 47.2591 81.2639 47.8458L82.7679 47.8402L82.774 45.1522C82.7723 44.7149 83.0755 44.4951 83.6835 44.4928C84.2915 44.4906 84.5963 44.7081 84.5979 45.1454L84.5759 47.8335ZM90.1363 58.725C89.699 58.7266 89.4795 58.5194 89.478 58.1034C89.4765 57.6874 89.6944 57.4786 90.1317 57.477L103.348 57.428C103.785 57.4264 104.004 57.6336 104.006 58.0496C104.007 58.4656 103.79 58.6744 103.352 58.676L90.1363 58.725ZM100.377 54.543C100.375 54.1697 100.236 53.9835 99.9588 53.9846L97.5268 53.9936L97.5289 54.5536L100.377 54.543ZM99.9663 56.0165C100.244 56.0155 100.382 55.8763 100.381 55.599L100.38 55.423L97.5322 55.4336L97.5344 56.0256L99.9663 56.0165ZM93.1482 55.4498L93.1488 55.6258C93.1499 55.9031 93.2837 56.0413 93.5504 56.0403L95.7904 56.032L95.7882 55.44L93.1482 55.4498ZM93.5429 54.0083C93.2762 54.0093 93.1435 54.1965 93.1449 54.5698L95.7849 54.56L95.7828 54L93.5429 54.0083ZM91.2703 53.8728C91.2684 53.3608 91.5235 53.1038 92.0355 53.1019L101.555 53.0666C102.057 53.0648 102.308 53.3198 102.31 53.8318L102.319 56.1518C102.321 56.6638 102.066 56.9208 101.554 56.9227L92.0338 56.958C91.5324 56.9598 91.2808 56.7047 91.2789 56.1927L91.2703 53.8728ZM97.5515 47.6894L97.5536 48.2654L99.9536 48.2565C100.231 48.2555 100.369 48.063 100.367 47.679L97.5515 47.6894ZM97.5457 46.1374L97.5477 46.6654L100.364 46.655C100.362 46.303 100.223 46.1275 99.9457 46.1286L97.5457 46.1374ZM97.5652 51.3854L103.341 51.364C103.778 51.3624 103.998 51.5589 103.999 51.9536C104.001 52.3376 103.783 52.5304 103.345 52.532L90.1295 52.581C89.6922 52.5826 89.4728 52.3914 89.4714 52.0074C89.4699 51.6128 89.6879 51.4146 90.1252 51.413L95.6452 51.3925L95.6431 50.8325L91.2591 50.8488C90.8218 50.8504 90.6025 50.6859 90.6013 50.3552C90.6 50.0139 90.8181 49.8424 91.2554 49.8408L95.6394 49.8245L95.6373 49.2645L91.7493 49.279C91.312 49.2806 91.0927 49.1161 91.0915 48.7854C91.0903 48.4547 91.3083 48.2886 91.7456 48.287L95.6336 48.2725L95.6315 47.6966L90.1595 47.7168C89.7222 47.7185 89.5029 47.5486 89.5016 47.2073C89.5004 46.8659 89.7184 46.6945 90.1557 46.6928L95.6277 46.6726L95.6257 46.1446L91.8177 46.1587C91.3804 46.1603 91.1611 45.9958 91.1599 45.6651C91.1586 45.3238 91.3767 45.1523 91.814 45.1507L95.622 45.1366L95.6209 44.8486C95.6193 44.4112 95.9385 44.1914 96.5785 44.189C97.2185 44.1866 97.5393 44.4041 97.5409 44.8415L97.542 45.1295L101.494 45.1148C102.006 45.1129 102.263 45.368 102.265 45.88L102.268 46.6479L103.212 46.6444C103.649 46.6428 103.868 46.8127 103.87 47.154C103.871 47.4953 103.653 47.6668 103.215 47.6684L102.271 47.6719L102.274 48.4719C102.276 48.9839 102.021 49.2409 101.509 49.2428L97.5573 49.2574L97.5593 49.8174L102.247 49.8C102.685 49.7984 102.904 49.9683 102.905 50.3096C102.906 50.6403 102.688 50.8064 102.251 50.808L97.5631 50.8254L97.5652 51.3854ZM109.776 53.9482C109.338 53.9498 109.119 53.6733 109.117 53.1186C109.115 52.5533 109.332 52.2698 109.77 52.2682L112.825 52.2569C113.263 52.2552 113.483 52.5371 113.485 53.1024C113.487 53.6571 113.269 53.9352 112.832 53.9368L109.776 53.9482ZM119.24 57.6571C118.803 57.6587 118.584 57.4355 118.582 56.9875C118.58 56.5289 118.776 56.1228 119.169 55.7694C120.488 54.5805 121.566 53.4298 122.405 52.3173C123.254 51.2049 123.677 50.2166 123.674 49.3526C123.671 48.7446 123.515 48.2759 123.204 47.9464C122.894 47.6062 122.456 47.4371 121.891 47.4392C121.187 47.4418 120.654 47.6678 120.293 48.1171C119.91 48.4812 119.505 48.4507 119.077 48.0257C118.648 47.6006 118.604 47.2221 118.945 46.8901C119.178 46.6013 119.582 46.3118 120.157 46.0216C120.732 45.7315 121.409 45.585 122.188 45.5821C123.308 45.578 124.21 45.9106 124.895 46.5801C125.581 47.2389 125.925 48.1176 125.929 49.2163C125.936 51.0189 124.77 53.0713 122.432 55.3733C122.156 55.6516 122.156 55.785 122.433 55.7733L123.953 55.6556L125.857 55.6486C126.294 55.647 126.514 55.9768 126.517 56.6381C126.519 57.2995 126.302 57.6309 125.864 57.6326L119.24 57.6571Z" fill="black" fill-opacity="0.85"/>
</g>
<defs>
<radialGradient id="paint0_radial_2308_7061" cx="0" cy="0" r="1" gradientUnits="userSpaceOnUse" gradientTransform="translate(0.560609 46.8353) rotate(65.4889) scale(3.32531 8.21233)">
<stop offset="0.33" stop-opacity="0"/>
<stop offset="0.655" stop-opacity="0.6"/>
<stop offset="1"/>
</radialGradient>
<radialGradient id="paint1_radial_2308_7061" cx="0" cy="0" r="1" gradientUnits="userSpaceOnUse" gradientTransform="translate(355.3 45.8572) rotate(114.511) scale(3.32531 8.21233)">
<stop offset="0.33" stop-opacity="0"/>
<stop offset="0.655" stop-opacity="0.6"/>
<stop offset="1"/>
</radialGradient>
<clipPath id="clip0_2308_7061">
<rect width="200" height="90" fill="white"/>
</clipPath>
</defs>
</svg>
