<svg width="200" height="90" viewBox="0 0 200 90" fill="none" xmlns="http://www.w3.org/2000/svg">
<g clip-path="url(#clip0_2306_6273)">
<rect width="200" height="90" fill="#BDE3FF"/>
<path fill-rule="evenodd" clip-rule="evenodd" d="M-6.18027 85.5257C-5.5206 81.3514 -9.94765 77.2571 -7.65473 73.2393C-4.94813 68.4966 -1.65241 61.9915 7.77154 61.0783C17.9972 60.0873 23.5998 68.8258 33.9785 69.2048C45.8176 69.6371 56.5881 60.196 66.8872 63.2371C76.2425 65.9996 70.121 74.0119 68.9752 79.5387C68.1676 83.4341 61.5364 86.4306 61.2669 90.3457C60.8502 96.3973 75.7689 103.853 67.0229 107.895C58.3557 111.9 45.7383 103.802 34.2527 102.83C27.3162 102.243 20.5655 103.925 13.6182 103.373C4.65786 102.66 -7.2514 103.227 -11.7526 99.1698C-16.3208 95.0519 -6.92748 90.2539 -6.18027 85.5257Z" fill="#005EA5"/>
<path fill-rule="evenodd" clip-rule="evenodd" d="M28.4743 10.5302C32.6486 10.8717 36.7429 8.58004 40.7607 9.76696C45.5034 11.168 52.0085 12.874 52.9217 17.7523C53.9127 23.0456 45.1742 25.9458 44.7952 31.3183C44.3629 37.4467 53.804 43.0221 50.7629 48.3534C48.0004 53.1961 39.9881 50.0274 34.4613 49.4342C30.5659 49.0162 27.5694 45.5836 23.6543 45.444C17.6027 45.2284 10.1469 52.9509 6.10508 48.4236C2.09968 43.9371 10.1975 37.4057 11.1701 31.4602C11.7575 27.8695 10.0747 24.3751 10.6274 20.7788C11.3402 16.1405 10.7727 9.97575 14.8302 7.64571C18.9481 5.281 23.7461 10.1434 28.4743 10.5302Z" fill="#2382C9"/>
<path fill-rule="evenodd" clip-rule="evenodd" d="M173.474 4.53021C177.649 4.87169 181.743 2.58004 185.761 3.76696C190.503 5.16803 197.008 6.87405 197.922 11.7523C198.913 17.0456 190.174 19.9458 189.795 25.3183C189.363 31.4467 198.804 37.0221 195.763 42.3534C193 47.1961 184.988 44.0274 179.461 43.4342C175.566 43.0162 172.569 39.5836 168.654 39.444C162.603 39.2284 155.147 46.9509 151.105 42.4236C147.1 37.9371 155.198 31.4057 156.17 25.4602C156.757 21.8695 155.075 18.3751 155.627 14.7788C156.34 10.1405 155.773 3.97575 159.83 1.64571C163.948 -0.719004 168.746 4.14342 173.474 4.53021Z" fill="#69BAF5"/>
<path fill-rule="evenodd" clip-rule="evenodd" d="M117.063 7.20494C131.49 7.9797 144.155 11.9054 154.996 17.5775C166.733 23.7188 176.896 30.8598 179.688 39.9711C183.097 51.0949 184.354 63.7453 171.749 72.2549C158.691 81.0707 136.857 81.4742 117.063 82.2497C95.2362 83.1048 71.8992 84.7511 54.6033 76.8446C35.6156 68.1646 20.8565 53.9771 24.5773 39.9711C28.0889 26.7526 52.1053 19.9805 71.5388 13.0955C85.3864 8.18958 100.98 6.34119 117.063 7.20494Z" fill="#C9F4FF"/>
<path d="M177.967 51.2804L196.726 84.9582L159.338 85.0303L177.967 51.2804Z" fill="#228CDA"/>
<path d="M173.373 78.4648H182.74" stroke="black" stroke-width="2" stroke-linecap="round"/>
<ellipse cx="171.472" cy="68.8528" rx="4.64254" ry="4.79533" transform="rotate(-0.110477 171.472 68.8528)" stroke="#FA8F21" stroke-width="2"/>
<ellipse cx="184.669" cy="68.8118" rx="4.64254" ry="4.79533" transform="rotate(-0.110477 184.669 68.8118)" stroke="#FA8F21" stroke-width="2"/>
<path d="M175.55 68.4723C175.55 68.4723 176.816 68.054 177.654 68.0337C178.594 68.011 180.025 68.4637 180.025 68.4637" stroke="#FA8F21" stroke-width="2"/>
<ellipse cx="171.471" cy="68.8518" rx="1.89842" ry="1.9609" transform="rotate(-0.110477 171.471 68.8518)" fill="black"/>
<ellipse cx="184.67" cy="68.8264" rx="1.89842" ry="1.9609" transform="rotate(-0.110477 184.67 68.8264)" fill="black"/>
<path d="M83.5135 35.0059C83.6995 34.8318 83.9563 34.8675 84.2839 35.113C84.6181 35.3518 84.6921 35.5382 84.5059 35.6722C84.2467 35.8731 83.8443 36.138 83.2989 36.4667C83.0993 36.5874 83.0765 36.7142 83.2303 36.8469C83.7252 37.2718 84.2663 37.5631 84.8535 37.7209C85.1272 37.7999 85.1346 38.0132 84.8759 38.3608C84.6172 38.7151 84.351 38.8394 84.0773 38.7338C83.3431 38.4965 82.6447 38.0291 81.9821 37.3316C81.3261 36.6273 80.8028 35.7426 80.4122 34.6774C80.047 35.0587 79.6183 35.427 79.1263 35.7821L79.1317 37.2321C79.1323 37.4054 79.2159 37.4718 79.3824 37.4312L80.9008 36.9956C81.1606 36.9279 81.3244 37.0707 81.3924 37.4237C81.4604 37.7768 81.2979 38.0141 80.905 38.1355C79.8329 38.4529 79.097 38.6756 78.6975 38.8037L78.2682 38.9853C78.0152 39.0863 77.8047 38.9604 77.6368 38.6077C77.4755 38.2616 77.5078 37.9981 77.7338 37.8173C77.8406 37.8302 77.8933 37.6567 77.8919 37.2967L77.8892 36.5567C77.4035 36.8252 77.0641 36.9898 76.871 37.0505C76.638 37.138 76.3909 37.0223 76.1297 36.7032C75.8752 36.3842 75.8811 36.1808 76.1474 36.0932C77.0731 35.8164 78.0012 35.3096 78.9318 34.5728L76.5018 34.5818C76.2285 34.5829 76.0912 34.4167 76.09 34.0834C76.0887 33.7434 76.2248 33.5729 76.4981 33.5719L79.8781 33.5593L79.876 32.9993L77.416 33.0084C77.1427 33.0095 77.0054 32.8533 77.0043 32.54C77.0031 32.22 77.1392 32.0595 77.4125 32.0585L79.8725 32.0493L79.8706 31.5293L76.9206 31.5403C76.6472 31.5413 76.51 31.3751 76.5087 31.0418C76.5075 30.7018 76.6435 30.5313 76.9168 30.5303L79.8668 30.5193L79.8657 30.2093C79.8646 29.936 80.0641 29.7986 80.4641 29.7971C80.8641 29.7956 81.0646 29.9316 81.0657 30.2049L81.0668 30.5149L84.1368 30.5035C84.4101 30.5025 84.5474 30.672 84.5487 31.012C84.5499 31.3453 84.4139 31.5125 84.1405 31.5135L81.0705 31.5249L81.0725 32.0449L83.7525 32.035C84.0258 32.0339 84.163 32.1934 84.1642 32.5134C84.1654 32.8268 84.0293 32.9839 83.756 32.9849L81.076 32.9949L81.0781 33.5549L84.488 33.5422C84.7614 33.5412 84.8987 33.7107 84.8999 34.0507C84.9012 34.384 84.7651 34.5512 84.4918 34.5522L81.5418 34.5632C81.7168 35.0225 81.9752 35.4749 82.3168 35.9203C82.8954 35.5248 83.2943 35.22 83.5135 35.0059ZM91.1249 35.3676L93.4748 35.3589C93.054 35.1338 92.653 34.862 92.2718 34.5434C91.9196 34.8514 91.5373 35.1261 91.1249 35.3676ZM91.1926 37.4674C91.1933 37.6407 91.2803 37.7271 91.4536 37.7264L93.0236 37.7206C93.1969 37.72 93.2833 37.633 93.2826 37.4597L93.2785 36.3597L91.1886 36.3674L91.1926 37.4674ZM89.3106 34.2144C89.5048 34.447 89.5157 34.6869 89.3432 34.9342L89.2636 35.0345C90.1024 34.7181 90.8375 34.2954 91.4689 33.7664L90.7153 32.7891C90.4764 33.0834 90.327 33.2506 90.2672 33.2908C90.0745 33.4715 89.8912 33.4789 89.7172 33.3129C89.7172 33.2929 89.5633 33.1601 89.2558 32.9146L88.4058 32.9177L88.4066 33.1577L89.3106 34.2144ZM92.9325 32.0209C93.0253 31.8806 92.985 31.8107 92.8117 31.8114L91.4317 31.8165L91.3621 31.9167L92.2262 33.0336L92.9325 32.0209ZM93.4078 30.7592C93.6811 30.7581 93.9413 30.8172 94.1885 30.9363C94.4422 31.0487 94.5196 31.2384 94.4206 31.5054C94.1966 32.2462 93.7428 33.0013 93.059 33.7705C93.7275 34.2747 94.3454 34.6024 94.9126 34.7536C95.1862 34.8326 95.2037 35.0392 94.9649 35.3734C94.7261 35.701 94.5466 35.8416 94.4265 35.7954L94.4356 38.2654C94.4368 38.5787 94.2774 38.736 93.9574 38.7372L90.5674 38.7497C90.2474 38.7509 90.0868 38.5915 90.0856 38.2715L90.0768 35.9015C89.7374 36.0428 89.4871 35.9871 89.3262 35.7343L89.0547 35.3253C88.995 35.4122 88.9417 35.4124 88.8947 35.3259L88.4116 34.4877L88.4271 38.6877C88.4282 38.961 88.242 39.0984 87.8687 39.0997C87.4953 39.1011 87.3082 38.9652 87.3072 38.6918L87.2946 35.3118C86.9846 36.1997 86.7134 36.794 86.4812 37.0949C86.3619 37.2753 86.2082 37.1859 86.0202 36.8266C85.8389 36.4672 85.8179 36.1907 85.9572 35.9968C86.1164 35.8029 86.3249 35.3954 86.5826 34.7745C86.847 34.1535 87.0514 33.5361 87.1958 32.9222L86.3858 32.9252C86.1124 32.9262 85.9751 32.7434 85.9737 32.3767C85.9724 32.0101 86.1084 31.8262 86.3817 31.8252L87.2817 31.8219L87.2756 30.1819C87.2746 29.9085 87.4608 29.7712 87.8341 29.7698C88.2074 29.7684 88.3946 29.9044 88.3956 30.1777L88.4017 31.8177L89.0417 31.8153C89.3617 31.8142 89.5223 31.9936 89.5237 32.3536C90.2676 31.6241 90.7716 30.8889 91.0355 30.1479C91.1479 29.8809 91.3909 29.8 91.7646 29.9052C92.145 30.0038 92.2823 30.1767 92.1765 30.4237L92.0079 30.8043L93.4078 30.7592ZM100.813 34.7517L100.808 33.3917C100.807 33.2184 100.72 33.1321 100.547 33.1327L99.7766 33.1356C99.4566 33.1368 99.2961 32.9773 99.2949 32.6573L99.2859 30.2274C99.2848 29.954 99.451 29.8167 99.7843 29.8155C100.124 29.8143 100.295 29.9503 100.296 30.2236L100.297 30.4936L101.457 30.4893C101.73 30.4883 101.867 30.6511 101.869 30.9778C101.87 31.3045 101.734 31.4683 101.46 31.4693L100.3 31.4736L100.302 31.9436C100.303 32.1169 100.39 32.2033 100.563 32.2026L101.313 32.2099C101.633 32.2087 101.794 32.3681 101.795 32.6881L101.803 34.7481C101.803 34.9547 101.777 35.1082 101.724 35.2084C101.678 35.3085 101.578 35.3956 101.425 35.4695C101.272 35.5434 101.089 35.5774 100.876 35.5715C100.502 35.5796 100.272 35.4637 100.184 35.2241C100.097 34.9777 100.19 34.854 100.463 34.853L100.643 34.8524C100.756 34.8586 100.813 34.8251 100.813 34.7517ZM99.349 33.7672C99.4147 33.5069 99.5943 33.4029 99.8878 33.4552C100.181 33.5007 100.302 33.7136 100.25 34.0938C100.225 34.4739 100.136 34.7642 99.9834 34.9648C99.8841 35.1585 99.7076 35.1792 99.4537 35.0268C99.1997 34.8677 99.1056 34.6581 99.1713 34.3978L99.349 33.7672ZM103.116 35.6632L103.163 34.853L102.563 34.8552C102.29 34.8563 102.152 34.6934 102.151 34.3668C102.15 34.0401 102.286 33.8763 102.559 33.8753L103.199 33.8729L103.196 33.0129L102.626 33.015C102.353 33.016 102.216 32.8532 102.214 32.5265C102.213 32.1999 102.349 32.036 102.623 32.035L103.253 32.0327L103.25 31.4327C103.25 31.2593 103.163 31.173 102.989 31.1736L102.519 31.1754C102.246 31.1764 102.109 31.0069 102.108 30.6669C102.106 30.3269 102.242 30.1564 102.516 30.1554L103.866 30.1504C104.186 30.1492 104.343 30.3286 104.338 30.6886C104.351 32.3753 104.317 34.0321 104.236 35.6591L104.696 35.6573C104.969 35.6563 105.107 35.8392 105.108 36.2058C105.109 36.5725 104.973 36.7563 104.7 36.7573L102.29 36.7663C103.359 37.2623 104.113 37.6495 104.554 37.9279C104.748 38.0405 104.712 38.2473 104.447 38.5483C104.188 38.8559 103.952 38.9401 103.738 38.8009C103.17 38.4097 102.578 38.0719 101.964 37.7875C101.536 37.5691 101.442 37.3028 101.681 36.9885L101.85 36.7679L98.8801 36.7789L99.2613 37.0875C99.5689 37.3397 99.5464 37.5798 99.194 37.8078C98.6753 38.163 97.9633 38.5223 97.0579 38.8857C96.7851 39.0067 96.5347 38.9176 96.3069 38.6185C96.0859 38.3259 96.1184 38.1225 96.4047 38.0081C97.2102 37.7051 97.9654 37.2956 98.6701 36.7797L96.3502 36.7883C96.0768 36.7893 95.9395 36.6065 95.9381 36.2398C95.9368 35.8732 96.0728 35.6893 96.3461 35.6883L96.8361 35.6865L96.6586 30.9771C96.6508 30.6771 96.7834 30.4733 97.0564 30.3656L98.1747 29.9215C98.4277 29.8272 98.6381 29.9431 98.806 30.2691C98.9805 30.5885 98.9379 30.7853 98.6782 30.8596L97.969 31.0723C97.8092 31.1195 97.7296 31.2265 97.7302 31.3931L97.7626 32.043L98.4926 32.0403C98.7659 32.0393 98.9032 32.2021 98.9044 32.5288C98.9056 32.8488 98.7695 33.0093 98.4962 33.0103L97.7962 33.0129L97.8294 33.8728L98.5294 33.8702C98.8027 33.8692 98.94 34.032 98.9412 34.3587C98.9424 34.6787 98.8063 34.8392 98.533 34.8402L97.863 34.8427L97.8961 35.6826L103.116 35.6632ZM113.513 34.8947C113.699 34.7206 113.956 34.7564 114.284 35.0018C114.618 35.2406 114.692 35.427 114.506 35.561C114.246 35.762 113.844 36.0268 113.299 36.3555C113.099 36.4762 113.076 36.603 113.23 36.7357C113.725 37.1606 114.266 37.4519 114.853 37.6097C115.127 37.6887 115.134 37.902 114.876 38.2496C114.617 38.6039 114.351 38.7283 114.077 38.6226C113.343 38.3853 112.644 37.9179 111.982 37.2204C111.326 36.5161 110.803 35.6314 110.412 34.5662C110.047 34.9475 109.618 35.3158 109.126 35.6709L109.131 37.1209C109.132 37.2943 109.216 37.3606 109.382 37.32L110.901 36.8844C111.16 36.8167 111.324 36.9595 111.392 37.3125C111.46 37.6656 111.298 37.9029 110.905 38.0244C109.833 38.3417 109.097 38.5644 108.697 38.6925L108.268 38.8741C108.015 38.9751 107.805 38.8492 107.637 38.4965C107.475 38.1504 107.508 37.8869 107.734 37.7061C107.84 37.719 107.893 37.5455 107.892 37.1855L107.889 36.4455C107.403 36.714 107.064 36.8786 106.871 36.9393C106.638 37.0268 106.391 36.9111 106.129 36.592C105.875 36.273 105.881 36.0696 106.147 35.982C107.073 35.7052 108.001 35.1984 108.932 34.4616L106.502 34.4706C106.228 34.4717 106.091 34.3055 106.09 33.9722C106.089 33.6322 106.225 33.4617 106.498 33.4607L109.878 33.4481L109.876 32.8881L107.416 32.8972C107.142 32.8983 107.005 32.7421 107.004 32.4288C107.003 32.1088 107.139 31.9483 107.412 31.9473L109.872 31.9381L109.87 31.4181L106.92 31.4291C106.647 31.4301 106.51 31.2639 106.509 30.9306C106.507 30.5906 106.643 30.4201 106.917 30.4191L109.867 30.4081L109.865 30.0981C109.864 29.8248 110.064 29.6874 110.464 29.6859C110.864 29.6844 111.064 29.8204 111.065 30.0937L111.067 30.4037L114.137 30.3923C114.41 30.3913 114.547 30.5608 114.548 30.9008C114.55 31.2341 114.414 31.4013 114.14 31.4023L111.07 31.4137L111.072 31.9337L113.752 31.9238C114.026 31.9227 114.163 32.0822 114.164 32.4022C114.165 32.7156 114.029 32.8727 113.756 32.8737L111.076 32.8837L111.078 33.4437L114.488 33.431C114.761 33.43 114.898 33.5995 114.9 33.9395C114.901 34.2728 114.765 34.44 114.492 34.441L111.542 34.452C111.717 34.9113 111.975 35.3637 112.317 35.8091C112.895 35.4136 113.294 35.1088 113.513 34.8947ZM123.03 31.3194C123.203 31.3187 123.29 31.2317 123.289 31.0584C123.288 30.8451 123.201 30.7387 123.028 30.7394L122.118 30.7427C121.945 30.7434 121.858 30.8304 121.859 31.0037C121.86 31.217 121.947 31.3234 122.12 31.3227L123.03 31.3194ZM123.915 30.0261C124.235 30.0249 124.396 30.1843 124.397 30.5043L124.401 31.5443C124.402 31.8643 124.243 32.0249 123.923 32.0261L121.293 32.0358C120.973 32.037 120.812 31.8776 120.811 31.5576L120.807 30.5176C120.806 30.1976 120.965 30.037 121.285 30.0358L123.915 30.0261ZM118.83 31.3349C119.003 31.3343 119.09 31.2473 119.089 31.074C119.088 30.8606 119.001 30.7543 118.828 30.7549L117.948 30.7582C117.775 30.7588 117.688 30.8458 117.689 31.0192C117.69 31.2325 117.777 31.3388 117.95 31.3382L118.83 31.3349ZM119.725 30.0416C120.039 30.0404 120.196 30.1999 120.197 30.5199L120.201 31.5599C120.202 31.8798 120.046 32.0404 119.733 32.0416L117.113 32.0513C116.793 32.0525 116.632 31.8931 116.631 31.5731L116.627 30.5331C116.626 30.2131 116.785 30.0525 117.105 30.0513L119.725 30.0416ZM118.164 35.0174C118.164 35.1908 118.251 35.2771 118.425 35.2765L119.855 35.2712L119.853 34.7312L118.163 34.7374L118.164 35.0174ZM118.418 33.3565C118.244 33.3571 118.158 33.4441 118.159 33.6174L118.16 33.8874L119.85 33.8812L119.848 33.3512L118.418 33.3565ZM122.87 33.87L122.869 33.6C122.868 33.4266 122.784 33.3403 122.618 33.3409L121.068 33.3467L121.07 33.8766L122.87 33.87ZM122.625 35.2609C122.791 35.2603 122.874 35.1733 122.874 35L122.873 34.72L121.073 34.7266L121.075 35.2666L122.625 35.2609ZM124.56 36.6837C124.833 36.6827 124.971 36.8522 124.972 37.1922C124.973 37.5322 124.837 37.7027 124.564 37.7037L121.084 37.7166L121.087 38.5766C121.088 38.8499 120.885 38.9874 120.478 38.9889C120.072 38.9904 119.868 38.8545 119.867 38.5811L119.864 37.7211L116.474 37.7337C116.2 37.7347 116.063 37.5652 116.062 37.2252C116.061 36.8852 116.197 36.7147 116.47 36.7137L119.86 36.7012L119.858 36.1812L117.488 36.1899C117.168 36.1911 117.007 36.0317 117.006 35.7117L116.996 32.9217C116.995 32.6017 117.154 32.4412 117.474 32.44L123.604 32.4172C123.924 32.4161 124.085 32.5755 124.086 32.8955L124.096 35.6854C124.097 36.0054 123.938 36.166 123.618 36.1672L121.078 36.1766L121.08 36.6966L124.56 36.6837Z" fill="#2382C9"/>
<path d="M61.4603 56.9338C61.522 56.3043 61.8036 56.0312 62.3053 56.1147C62.8176 56.1875 63.0428 56.5226 62.981 57.1202C62.8998 58.2192 62.7376 59.0838 62.4946 59.714C62.3999 60.0557 62.1069 60.1368 61.6155 59.9573C61.1349 59.7884 60.942 59.5491 61.0369 59.2394C61.2484 58.7586 61.3896 57.9901 61.4603 56.9338ZM63.5567 57.0381C63.4693 56.473 63.6548 56.147 64.1131 56.06C64.5714 55.9623 64.8442 56.1746 64.9315 56.697C65.0942 57.4324 65.1762 57.9601 65.1773 58.2801C65.211 58.7173 65.1162 59.0643 64.8932 59.3211C64.6702 59.5886 64.3238 59.6539 63.8539 59.517L63.8051 59.2931L63.5567 57.0381ZM65.3146 56.4715C65.2064 56.0559 65.3654 55.778 65.7915 55.6378C66.2284 55.4975 66.5062 55.6351 66.6251 56.0507L67.1763 57.9846C67.2951 58.4002 67.1308 58.6835 66.6834 58.8345C66.236 58.9855 65.9581 58.8532 65.8499 58.4376L65.3146 56.4715ZM65.1562 52.5681C65.0266 52.1526 65.1856 51.8746 65.6331 51.7343C66.0912 51.5833 66.4226 51.7847 66.6273 52.3386C66.9503 53.1268 67.1554 53.798 67.2428 54.3524C67.3294 54.7041 67.1278 54.9715 66.6378 55.1546C66.1477 55.3271 65.8646 55.1948 65.7883 54.7578L65.7559 54.6459C63.2932 55.0177 61.9555 55.2626 61.7426 55.3808C61.5934 55.4347 61.4165 55.1793 61.2117 54.6147C61.0176 54.0501 61.0271 53.7247 61.2401 53.6386C61.528 53.6162 62.2025 52.8564 63.2637 51.3591C62.2614 51.4801 61.7657 51.562 61.7766 51.6046C61.5209 51.6802 61.296 51.4464 61.102 50.9031C60.908 50.3598 60.9067 50.0345 61.0984 49.9271C61.333 49.9156 61.8687 49.1243 62.7056 47.5531C63.1293 46.7516 63.3991 46.1639 63.515 45.7901C63.6736 45.3949 64.0359 45.3135 64.6021 45.5461C65.179 45.7786 65.3722 46.0926 65.1816 46.488C64.7586 47.4602 64.1809 48.4437 63.4486 49.4384C63.2682 49.6951 63.3166 49.8176 63.5939 49.8059L64.3297 49.7391L65.1562 48.2481C65.3574 47.874 65.72 47.8513 66.2439 48.18C66.7678 48.5088 66.9131 48.8709 66.6799 49.2664C65.917 50.6239 65.015 51.8806 63.9739 53.0365C63.7827 53.2612 63.8258 53.3624 64.103 53.34L65.3505 53.1914L65.1562 52.5681ZM73.2492 56.0581C73.2481 55.7808 73.109 55.6426 72.8316 55.6437L70.1596 55.6536C69.8823 55.6546 69.7442 55.7938 69.7452 56.0711L69.7509 57.6071C69.7519 57.8844 69.8911 58.0226 70.1684 58.0216L72.8404 58.0116C73.1177 58.0106 73.2559 57.8714 73.2549 57.5941L73.2492 56.0581ZM68.7188 59.7389C68.2068 59.7408 67.9498 59.4858 67.9479 58.9738L67.9321 54.7018C67.9302 54.1898 68.1852 53.9329 68.6972 53.931L74.3612 53.91C74.8732 53.9081 75.1301 54.1631 75.132 54.6751L75.1479 58.9471C75.1498 59.4591 74.8947 59.716 74.3827 59.7179L68.7188 59.7389ZM75.2325 47.2347C75.6698 47.2331 75.8896 47.5309 75.8918 48.1283C75.894 48.7256 75.6764 49.0251 75.2391 49.0267L72.4391 49.0371L72.446 50.8771L74.8619 50.8681C75.2993 50.8665 75.519 51.1643 75.5213 51.7617C75.5234 52.3483 75.3058 52.6425 74.8685 52.6441L68.2766 52.6685C67.8392 52.6701 67.6195 52.3776 67.6173 51.791C67.6151 51.1936 67.8326 50.8942 68.27 50.8925L70.462 50.8844L70.4551 49.0444L67.7992 49.0543C67.3618 49.0559 67.1421 48.758 67.1398 48.1607C67.1376 47.5634 67.3552 47.2639 67.7925 47.2623L70.4485 47.2524L70.4435 45.9084C70.4419 45.4711 70.7718 45.2512 71.4331 45.2488C72.0944 45.2463 72.4259 45.4638 72.4275 45.9011L72.4325 47.2451L75.2325 47.2347ZM82.568 53.5596C82.7289 53.815 82.6449 54.1726 82.3159 54.6325C81.9976 55.0817 81.747 55.1093 81.5642 54.7153L80.9191 53.3417L80.942 59.5016C80.9436 59.939 80.6564 60.1587 80.0804 60.1608C79.5044 60.163 79.2156 59.9454 79.214 59.508L79.1942 54.1801C78.7512 55.5151 78.3652 56.4125 78.0362 56.8724C77.8454 57.1824 77.6102 57.0606 77.3309 56.507C77.0514 55.9427 77.0125 55.5055 77.214 55.1954C77.4475 54.8959 77.7598 54.2494 78.1508 53.2559C78.5418 52.2518 78.8368 51.264 79.0358 50.2926L77.9158 50.2968C77.4785 50.2984 77.2588 50.0059 77.2566 49.4192C77.2544 48.8326 77.472 48.5384 77.9093 48.5368L79.1733 48.5321L79.1635 45.8921C79.1619 45.4548 79.4491 45.2351 80.0251 45.2329C80.6011 45.2308 80.8899 45.4484 80.8915 45.8857L80.9013 48.5257L81.8453 48.5222C82.2826 48.5206 82.5024 48.8131 82.5045 49.3998C82.5067 49.9864 82.2891 50.2806 81.8518 50.2822L80.9078 50.2857L80.9106 51.0377C81.125 51.3356 81.4576 51.8357 81.9082 52.538C82.3694 53.2403 82.5894 53.5808 82.568 53.5596ZM88.0499 56.2433L89.4739 56.238L89.4711 55.47L88.0471 55.4753L88.0499 56.2433ZM84.9751 55.4867L84.978 56.2546L86.338 56.2496L86.3351 55.4816L84.9751 55.4867ZM86.328 53.5616L85.384 53.5651C85.1067 53.5662 84.9685 53.7053 84.9695 53.9827L84.9706 54.2547L86.3305 54.2496L86.328 53.5616ZM89.4655 53.966C89.4645 53.6887 89.3253 53.5505 89.048 53.5515L88.04 53.5553L88.0425 54.2433L89.4665 54.238L89.4655 53.966ZM86.2974 49.6257L86.2999 50.2977L88.0599 50.2912L88.0574 49.6192L86.2974 49.6257ZM86.2902 47.6897L86.2927 48.3457L88.0527 48.3392L88.0502 47.6832L86.2902 47.6897ZM91.4419 56.2307C91.8793 56.2291 92.0988 56.4629 92.1005 56.9323C92.1022 57.3909 91.8844 57.6211 91.4471 57.6227L91.2391 57.6235L91.2416 58.3114C91.2431 58.7168 91.191 59.0263 91.0851 59.24C90.9899 59.4644 90.7826 59.6518 90.4632 59.8023C90.1544 59.9528 89.7546 60.0183 89.2639 59.9988C88.6026 60.0226 88.1965 59.8054 88.0455 59.3473C87.8621 58.804 88.0851 58.5365 88.7145 58.5448C89.1518 58.5432 89.3864 58.5263 89.4183 58.4942C89.4608 58.462 89.4819 58.398 89.4816 58.302L89.4791 57.63L84.9831 57.6466L84.9895 59.3746C84.9912 59.812 84.704 60.0317 84.128 60.0338C83.5626 60.0359 83.2792 59.8183 83.2775 59.381L83.2711 57.653L82.9511 57.6542C82.5138 57.6558 82.2943 57.4273 82.2926 56.9686C82.2909 56.4993 82.5087 56.2638 82.946 56.2622L83.266 56.261L83.254 53.029C83.2521 52.517 83.5072 52.2601 84.0191 52.2582L86.3231 52.2496L86.3209 51.6416L83.2169 51.6531C82.7796 51.6548 82.5601 51.4316 82.5584 50.9836C82.5568 50.5356 82.7746 50.3108 83.2119 50.3092L84.5399 50.3042L84.5374 49.6322L83.8814 49.6347C83.4441 49.6363 83.2246 49.4238 83.2231 48.9971C83.2215 48.5704 83.4393 48.3563 83.8767 48.3547L84.5327 48.3522L84.5302 47.6962L83.5382 47.6999C83.1009 47.7015 82.8814 47.4837 82.8798 47.0464C82.8782 46.609 83.0961 46.3896 83.5334 46.3879L84.5254 46.3843L84.5235 45.8723C84.5219 45.4349 84.8144 45.2152 85.401 45.213C85.9877 45.2108 86.2818 45.4284 86.2835 45.8657L86.2854 46.3777L88.0454 46.3712L88.0435 45.8592C88.0418 45.4219 88.3344 45.2021 88.921 45.2C89.5184 45.1977 89.8178 45.4153 89.8194 45.8526L89.8213 46.3646L90.9573 46.3604C91.3947 46.3588 91.6141 46.5767 91.6158 47.014C91.6174 47.4513 91.3995 47.6708 90.9622 47.6724L89.8262 47.6766L89.8286 48.3326L90.7086 48.3294C91.146 48.3277 91.3654 48.5403 91.367 48.9669C91.3686 49.3936 91.1507 49.6077 90.7134 49.6093L89.8334 49.6126L89.8359 50.2846L91.2599 50.2793C91.6972 50.2777 91.9167 50.5009 91.9184 50.9489C91.92 51.3969 91.7022 51.6217 91.2648 51.6233L88.0329 51.6353L88.0351 52.2433L90.4511 52.2343C90.9631 52.2324 91.22 52.4875 91.2219 52.9995L91.2339 56.2315L91.4419 56.2307ZM100.999 53.2032L100.991 51.0273C100.99 50.7499 100.85 50.6118 100.573 50.6128L99.3412 50.6174C98.8292 50.6193 98.5722 50.3642 98.5703 49.8522L98.5559 45.9643C98.5543 45.5269 98.8202 45.3073 99.3535 45.3053C99.8975 45.3033 100.17 45.5209 100.172 45.9583L100.174 46.3903L102.029 46.3834C102.467 46.3818 102.686 46.6423 102.688 47.1649C102.69 47.6876 102.473 47.9497 102.035 47.9514L100.179 47.9582L100.182 48.7102C100.183 48.9876 100.322 49.1257 100.6 49.1247L101.8 49.1362C102.312 49.1344 102.569 49.3894 102.571 49.9014L102.583 53.1974C102.584 53.528 102.542 53.7735 102.457 53.9338C102.383 54.0941 102.224 54.2334 101.979 54.3516C101.734 54.4699 101.441 54.5243 101.1 54.5149C100.502 54.5278 100.134 54.3425 99.9936 53.959C99.8534 53.5648 100.002 53.3669 100.439 53.3653L100.727 53.3643C100.909 53.3742 100.999 53.3206 100.999 53.2032ZM98.6569 51.6279C98.762 51.2115 99.0494 51.0451 99.5191 51.1287C99.9887 51.2016 100.182 51.5423 100.099 52.1506C100.058 52.7587 99.9162 53.2233 99.672 53.5442C99.5132 53.8541 99.2306 53.8871 98.8244 53.6433C98.4181 53.3888 98.2675 53.0534 98.3727 52.637L98.6569 51.6279ZM104.684 54.6616L104.759 53.3653L103.799 53.3689C103.362 53.3705 103.142 53.11 103.141 52.5873C103.139 52.0646 103.356 51.8025 103.794 51.8009L104.818 51.7971L104.812 50.4211L103.9 50.4245C103.463 50.4261 103.244 50.1656 103.242 49.6429C103.24 49.1202 103.457 48.8581 103.895 48.8565L104.903 48.8527L104.899 47.8928C104.898 47.6154 104.759 47.4773 104.482 47.4783L103.73 47.4811C103.292 47.4827 103.073 47.2115 103.071 46.6675C103.069 46.1235 103.286 45.8507 103.724 45.8491L105.884 45.8411C106.396 45.8392 106.647 46.1263 106.639 46.7023C106.659 49.4009 106.605 52.0518 106.476 54.655L107.212 54.6522C107.65 54.6506 107.869 54.9431 107.871 55.5298C107.874 56.1165 107.656 56.4106 107.219 56.4122L103.363 56.4265C105.072 57.2202 106.28 57.8397 106.986 58.2851C107.296 58.4653 107.238 58.7962 106.813 59.2777C106.399 59.7699 106.021 59.9047 105.679 59.6819C104.77 59.056 103.824 58.5155 102.841 58.0605C102.157 57.711 102.006 57.2849 102.388 56.7821L102.659 56.4291L97.9068 56.4467L98.5166 56.9405C99.0088 57.344 98.9729 57.7281 98.4089 58.0929C97.579 58.6613 96.4398 59.2362 94.9912 59.8176C94.5546 60.0112 94.1541 59.8687 93.7897 59.39C93.4359 58.922 93.488 58.5965 93.946 58.4134C95.2349 57.9286 96.4432 57.2735 97.5708 56.448L93.8588 56.4617C93.4215 56.4634 93.2017 56.1708 93.1995 55.5842C93.1974 54.9975 93.4149 54.7034 93.8523 54.7017L94.6363 54.6988L94.3523 47.1638C94.3399 46.6839 94.552 46.3578 94.9887 46.1855L96.7781 45.4748C97.1829 45.324 97.5196 45.5094 97.7882 46.0311C98.0674 46.5421 97.9992 46.857 97.5837 46.9759L96.4489 47.3161C96.1932 47.3917 96.0658 47.5628 96.0668 47.8295L96.1187 48.8693L97.2867 48.865C97.724 48.8634 97.9436 49.1239 97.9456 49.6465C97.9475 50.1585 97.7297 50.4153 97.2924 50.417L96.1724 50.4211L96.2255 51.7969L97.3455 51.7928C97.7828 51.7912 98.0025 52.0517 98.0044 52.5743C98.0063 53.0863 97.7886 53.3431 97.3513 53.3448L96.2793 53.3487L96.3323 54.6926L104.684 54.6616ZM119.475 47.9027L119.473 47.1827L118.625 47.1859L118.627 47.9059L119.475 47.9027ZM121.754 49.6543C121.753 49.377 121.614 49.2388 121.336 49.2398L120.84 49.2417L120.845 50.4417L121.341 50.4398C121.618 50.4388 121.756 50.2996 121.755 50.0223L121.754 49.6543ZM118.632 49.2499L118.637 50.4499L119.485 50.4467L119.48 49.2467L118.632 49.2499ZM116.84 49.2565C116.563 49.2575 116.425 49.3967 116.426 49.674L116.427 50.042C116.428 50.3194 116.567 50.4575 116.845 50.4565L117.293 50.4548L117.288 49.2548L116.84 49.2565ZM117.283 47.9109L117.281 47.1909L115.233 47.1984C114.795 47.2001 114.576 46.9502 114.574 46.4489C114.572 45.9476 114.784 45.6961 115.211 45.6945L123.019 45.6656C123.456 45.664 123.676 45.9138 123.678 46.4151C123.68 46.9165 123.462 47.1679 123.025 47.1696L120.833 47.1777L120.835 47.8977L122.627 47.891C123.139 47.8891 123.396 48.1442 123.398 48.6562L123.407 51.0082C123.409 51.5202 123.154 51.7771 122.642 51.779L115.666 51.8049C115.154 51.8068 114.897 51.5517 114.895 51.0397L114.886 48.6877C114.884 48.1757 115.139 47.9188 115.651 47.9169L117.283 47.9109ZM122.1 52.341C122.537 52.3394 122.757 52.5786 122.758 53.0586C122.76 53.5386 122.542 53.7794 122.105 53.781L116.233 53.8028C115.796 53.8044 115.576 53.5652 115.574 53.0852C115.573 52.6052 115.79 52.3644 116.228 52.3628L122.1 52.341ZM114.63 53.0087C114.802 53.2748 114.702 53.6271 114.33 54.0658C113.969 54.4938 113.702 54.5108 113.53 54.1168L112.998 52.9188L113.022 59.3827C113.023 59.8201 112.736 60.0398 112.16 60.0419C111.584 60.0441 111.295 59.8265 111.294 59.3891L111.271 53.3732C110.797 54.9963 110.38 56.0805 110.02 56.6258C109.85 56.9145 109.615 56.7393 109.314 56.1004C109.023 55.4509 108.979 54.971 109.18 54.6609C109.403 54.3828 109.71 53.7523 110.101 52.7695C110.492 51.776 110.798 50.8042 111.018 49.8541L109.914 49.8582C109.477 49.8598 109.257 49.5673 109.255 48.9806C109.253 48.394 109.471 48.0998 109.908 48.0982L111.252 48.0932L111.243 45.7732C111.242 45.3359 111.529 45.1162 112.105 45.114C112.681 45.1119 112.97 45.3295 112.971 45.7668L112.98 48.0868L113.876 48.0835C114.313 48.0819 114.533 48.3744 114.535 48.961C114.537 49.5477 114.32 49.8418 113.882 49.8435L112.986 49.8468L112.989 50.5508C113.182 50.7954 113.504 51.2689 113.954 51.9712C114.416 52.6628 114.641 53.0087 114.63 53.0087ZM115.589 56.9732C115.843 56.5029 116.243 56.3468 116.787 56.5047C117.342 56.652 117.498 56.9554 117.254 57.415C116.948 58.0988 116.481 58.7139 115.853 59.2602C115.545 59.5814 115.15 59.5722 114.669 59.2326C114.199 58.9037 114.134 58.5946 114.474 58.3053C115.006 57.9194 115.377 57.4753 115.589 56.9732ZM123.742 55.167C123.744 55.6576 123.526 55.9038 123.089 55.9054L119.953 55.917L119.966 59.357C119.967 59.7943 119.685 60.014 119.12 60.0161C118.555 60.0182 118.271 59.8006 118.27 59.3633L118.257 55.9233L115.281 55.9343C114.844 55.9359 114.624 55.6914 114.622 55.2008C114.62 54.6994 114.838 54.448 115.275 54.4463L123.083 54.4174C123.521 54.4158 123.74 54.6656 123.742 55.167ZM121.047 57.561C120.715 57.1675 120.778 56.8526 121.236 56.6163C121.693 56.3799 122.056 56.4266 122.324 56.7562L123.53 58.2398C123.797 58.5694 123.687 58.8792 123.197 59.169C122.707 59.4588 122.355 59.4068 122.14 59.0129C121.979 58.6402 121.615 58.1562 121.047 57.561ZM137.419 49.9002L137.418 49.5642C137.417 49.2976 137.277 49.1648 137 49.1658L134.92 49.1735C134.643 49.1745 134.505 49.3084 134.506 49.575L134.507 49.911L137.419 49.9002ZM137.426 51.8682L137.423 51.1322L134.511 51.143L134.514 51.879L137.426 51.8682ZM137.017 53.8537C137.295 53.8527 137.433 53.7135 137.432 53.4362L137.431 53.0842L134.519 53.095L134.52 53.447C134.521 53.7243 134.66 53.8625 134.937 53.8615L137.017 53.8537ZM132.822 48.6693C132.82 48.1573 133.075 47.9003 133.587 47.8984L134.867 47.8937L135.136 47.0287L132.976 47.0367C132.539 47.0383 132.319 46.8204 132.318 46.3831C132.316 45.9351 132.534 45.7103 132.971 45.7087L138.987 45.6864C139.424 45.6848 139.644 45.908 139.646 46.356C139.647 46.7933 139.429 47.0128 138.992 47.0144L136.848 47.0223L136.467 47.8877L138.419 47.8805C138.931 47.8786 139.188 48.1337 139.19 48.6457L139.211 54.3736C139.213 54.8856 138.958 55.1426 138.446 55.1445L133.614 55.1624C133.102 55.1643 132.845 54.9092 132.843 54.3972L132.822 48.6693ZM137.54 56.7478C137.198 56.4824 137.026 56.2111 137.025 55.9337C137.035 55.6564 137.253 55.4742 137.679 55.3873C137.689 55.2379 137.93 55.3277 138.4 55.6566C138.935 55.9853 139.207 56.1976 139.218 56.2936C139.497 56.5912 139.589 56.8789 139.494 57.1566C139.399 57.4343 139.111 57.6327 138.632 57.7518L138.263 57.4972C137.909 57.0291 137.668 56.7794 137.54 56.7478ZM133.649 55.8022C133.978 55.449 134.399 55.3568 134.912 55.5256C135.435 55.6836 135.532 55.9606 135.203 56.3565C134.799 56.9127 134.433 57.266 134.103 57.4166C133.698 57.6527 133.293 57.7396 132.888 57.6771C132.493 57.6039 132.225 57.3382 132.085 56.8801L132.356 56.671C133.005 56.3913 133.436 56.1017 133.649 55.8022ZM129.923 47.688L129.921 47.352C129.92 47.0747 129.781 46.9365 129.504 46.9375L128.048 46.9429C127.77 46.944 127.632 47.0832 127.633 47.3605L127.635 47.6965L129.923 47.688ZM129.514 49.6735C129.791 49.6725 129.929 49.5333 129.928 49.256L129.927 48.888L127.639 48.8965L127.64 49.2645C127.641 49.5418 127.781 49.68 128.058 49.6789L129.514 49.6735ZM130.907 45.6683C131.419 45.6664 131.676 45.9215 131.678 46.4335L131.692 50.1775C131.694 50.6895 131.439 50.9464 130.927 50.9483L126.719 50.9639C126.207 50.9658 125.95 50.7107 125.948 50.1988L125.934 46.4548C125.932 45.9428 126.187 45.6858 126.699 45.6839L130.907 45.6683ZM129.809 55.9285L129.815 57.4005C129.816 57.6778 129.912 57.8428 130.104 57.8954C130.692 58.0746 131.78 58.1612 133.369 58.1553C137.007 58.1418 139.161 58.1178 139.833 58.0833C140.036 58.0719 140.037 58.3279 139.836 58.8513C139.635 59.3747 139.316 59.6373 138.879 59.6389L133.375 59.6593C131.722 59.6654 130.409 59.5316 129.437 59.2579C128.476 58.9948 127.696 58.4537 127.095 57.6345C126.854 58.6701 126.595 59.3271 126.319 59.6054C126.096 59.9369 125.797 59.8847 125.422 59.4488C125.058 59.0234 124.987 58.645 125.21 58.3135C125.391 58.1422 125.554 57.6563 125.7 56.8557C125.847 56.0445 125.924 55.3082 125.932 54.6468C125.952 54.1454 126.212 53.8938 126.713 53.8919C127.225 53.89 127.472 54.1131 127.452 54.5612C127.463 54.6998 127.443 55.0572 127.392 55.6334L128.213 56.8944L128.199 53.2464L125.895 53.255C125.458 53.2566 125.238 53.0281 125.237 52.5694C125.235 52.1107 125.453 51.8806 125.89 51.879L131.746 51.8573C132.183 51.8556 132.403 52.0842 132.405 52.5428C132.406 53.0015 132.188 53.2316 131.751 53.2333L129.799 53.2405L129.804 54.5525L131.452 54.5464C131.889 54.5448 132.109 54.7733 132.111 55.2319C132.112 55.6906 131.894 55.9207 131.457 55.9224L129.809 55.9285Z" fill="black" fill-opacity="0.85"/>
</g>
<defs>
<clipPath id="clip0_2306_6273">
<rect width="200" height="90" fill="white"/>
</clipPath>
</defs>
</svg>
