<svg width="200" height="90" viewBox="0 0 200 90" fill="none" xmlns="http://www.w3.org/2000/svg">
<g clip-path="url(#clip0_2308_6822)">
<rect width="200" height="90" fill="#FEB79D"/>
<path fill-rule="evenodd" clip-rule="evenodd" d="M-6.18027 85.5257C-5.5206 81.3514 -9.94765 77.2571 -7.65473 73.2393C-4.94813 68.4966 -1.65241 61.9915 7.77154 61.0783C17.9972 60.0873 23.5998 68.8258 33.9785 69.2048C45.8176 69.6371 56.5881 60.196 66.8872 63.2371C76.2425 65.9996 70.121 74.0119 68.9752 79.5387C68.1676 83.4341 61.5364 86.4306 61.2669 90.3457C60.8502 96.3973 75.7689 103.853 67.0229 107.895C58.3557 111.9 45.7383 103.802 34.2527 102.83C27.3162 102.243 20.5655 103.925 13.6182 103.373C4.65786 102.66 -7.2514 103.227 -11.7526 99.1698C-16.3208 95.0519 -6.92748 90.2539 -6.18027 85.5257Z" fill="#FE585B"/>
<path fill-rule="evenodd" clip-rule="evenodd" d="M28.4743 10.5302C32.6486 10.8717 36.7429 8.58004 40.7607 9.76696C45.5034 11.168 52.0085 12.874 52.9217 17.7523C53.9127 23.0456 45.1742 25.9458 44.7952 31.3183C44.3629 37.4467 53.804 43.0221 50.7629 48.3534C48.0004 53.1961 39.9881 50.0274 34.4613 49.4342C30.5659 49.0162 27.5694 45.5836 23.6543 45.444C17.6027 45.2284 10.1469 52.9509 6.10508 48.4236C2.09968 43.9371 10.1975 37.4057 11.1701 31.4602C11.7575 27.8695 10.0747 24.3751 10.6274 20.7788C11.3402 16.1405 10.7727 9.97575 14.8302 7.64571C18.9481 5.281 23.7461 10.1434 28.4743 10.5302Z" fill="#FC7443"/>
<path fill-rule="evenodd" clip-rule="evenodd" d="M173.474 4.53021C177.649 4.87169 181.743 2.58004 185.761 3.76696C190.503 5.16803 197.008 6.87405 197.922 11.7523C198.913 17.0456 190.174 19.9458 189.795 25.3183C189.363 31.4467 198.804 37.0221 195.763 42.3534C193 47.1961 184.988 44.0274 179.461 43.4342C175.566 43.0162 172.569 39.5836 168.654 39.444C162.603 39.2284 155.147 46.9509 151.105 42.4236C147.1 37.9371 155.198 31.4057 156.17 25.4602C156.757 21.8695 155.075 18.3751 155.627 14.7788C156.34 10.1405 155.773 3.97575 159.83 1.64571C163.948 -0.719004 168.746 4.14342 173.474 4.53021Z" fill="#FF8787"/>
<path fill-rule="evenodd" clip-rule="evenodd" d="M117.063 7.20494C131.49 7.9797 144.155 11.9054 154.996 17.5775C166.733 23.7188 176.896 30.8598 179.688 39.9711C183.097 51.0949 184.354 63.7453 171.749 72.2549C158.691 81.0707 136.857 81.4742 117.063 82.2497C95.2362 83.1048 71.8992 84.7511 54.6033 76.8446C35.6156 68.1646 20.8565 53.9771 24.5773 39.9711C28.0889 26.7526 52.1053 19.9805 71.5388 13.0955C85.3864 8.18958 100.98 6.34119 117.063 7.20494Z" fill="#FFAB7A"/>
<ellipse cx="177.989" cy="70.7269" rx="16.7876" ry="14.0511" fill="#F55A57"/>
<ellipse cx="173.713" cy="65.6395" rx="1.21537" ry="2.15126" fill="black"/>
<ellipse cx="182.288" cy="65.6395" rx="1.21537" ry="2.15126" fill="black"/>
<path d="M173.043 72.6426C173.079 74.5703 175.312 76.0917 178.031 76.0408C180.749 75.99 182.924 74.386 182.888 72.4584C182.852 70.5307 180.67 71.7806 177.952 71.8314C175.233 71.8823 173.007 70.7149 173.043 72.6426Z" fill="black"/>
<path d="M170.798 50.9035C173.679 48.6452 180.102 51.1915 180.102 55.0219C180.103 59.542 168.088 61.6232 165.803 61.9782C165.554 62.0169 165.305 62.044 165.056 62.039C163.427 62.0062 157.617 61.2375 170.798 50.9035Z" fill="#6E5232"/>
<path d="M170.798 50.9035C173.679 48.6452 180.102 51.1915 180.102 55.0219C180.103 59.542 168.088 61.6232 165.803 61.9782C165.554 62.0169 165.305 62.044 165.056 62.039C163.427 62.0062 157.617 61.2375 170.798 50.9035Z" fill="url(#paint0_radial_2308_6822)" fill-opacity="0.15"/>
<path d="M185.204 50.7629C182.323 48.5045 175.9 51.0509 175.9 54.8813C175.899 59.4014 187.914 61.4825 190.199 61.8375C190.448 61.8763 190.697 61.9034 190.946 61.8984C192.575 61.8656 198.385 61.0968 185.204 50.7629Z" fill="#6E5232"/>
<path d="M185.204 50.7629C182.323 48.5045 175.9 51.0509 175.9 54.8813C175.899 59.4014 187.914 61.4825 190.199 61.8375C190.448 61.8763 190.697 61.9034 190.946 61.8984C192.575 61.8656 198.385 61.0968 185.204 50.7629Z" fill="url(#paint1_radial_2308_6822)" fill-opacity="0.15"/>
<path d="M102.249 30.1143C102.523 30.1133 102.66 30.2928 102.661 30.6528C102.663 31.0128 102.527 31.1933 102.254 31.1943L98.6635 31.2076L97.9887 32.6001L99.0387 32.5962L99.0361 31.9062C99.0351 31.6329 99.2279 31.4955 99.6146 31.4941C100.008 31.4926 100.205 31.6285 100.206 31.9019L100.209 32.5919L101.849 32.5858C102.175 32.5846 102.336 32.7473 102.33 33.074L102.272 36.1642C102.219 36.3111 102.116 36.4281 101.963 36.5154C101.744 36.6295 101.497 36.6838 101.224 36.6781C100.871 36.6861 100.643 36.5169 100.542 36.1706C100.447 35.8243 100.537 35.6507 100.81 35.6497L101.08 35.6486C101.167 35.6483 101.21 35.6115 101.21 35.5382L101.204 33.9082C101.203 33.7348 101.116 33.6485 100.943 33.6491L100.213 33.6519L100.227 37.5718C100.228 37.8452 100.032 37.9826 99.6386 37.984C99.252 37.9854 99.0581 37.8495 99.0571 37.5762L99.0426 33.6562L98.1326 33.6596L98.1426 36.3495C98.1436 36.6229 97.9574 36.7602 97.5841 36.7616C97.2174 36.763 97.0336 36.627 97.0326 36.3537L97.0238 33.9737C96.7914 34.2479 96.6885 34.3616 96.715 34.3148C96.4294 34.5825 96.1826 34.5701 95.9749 34.2776C95.8205 34.0048 95.6833 33.8386 95.563 33.7791L95.5771 37.5791C95.5781 37.8524 95.3886 37.9898 95.0086 37.9912C94.6353 37.9926 94.4481 37.8566 94.4471 37.5832L94.4297 32.8833C94.2108 33.1708 94.0747 33.3379 94.0216 33.3848C93.8423 33.5855 93.6453 33.4829 93.4304 33.077C93.2222 32.6644 93.2045 32.3678 93.3771 32.1872C93.6561 31.9128 93.9944 31.4416 94.3919 30.7734C94.7961 30.1052 95.074 29.5442 95.2257 29.0903C95.3247 28.8299 95.5611 28.7591 95.9349 28.8777C96.3153 28.9963 96.456 29.1791 96.3569 29.4261C96.2052 29.8533 95.9372 30.4177 95.5532 31.1191L95.5626 33.6691C96.2871 33.0797 96.8974 32.2608 97.3935 31.2123L96.4735 31.2157C96.2002 31.2167 96.0629 31.0372 96.0615 30.6772C96.0602 30.3172 96.1962 30.1367 96.4695 30.1357L97.8295 30.1307L98.1354 29.0095C98.2077 28.7492 98.4374 28.6551 98.8243 28.727C99.2112 28.7922 99.3685 28.9549 99.2961 29.2152L99.0495 30.1261L102.249 30.1143ZM108.611 36.0307C108.785 36.0301 108.871 35.9431 108.871 35.7698L108.869 35.3998C108.868 35.2264 108.782 35.1401 108.608 35.1407L107.398 35.1452C107.225 35.1459 107.139 35.2329 107.139 35.4062L107.141 36.0362L108.611 36.0307ZM110.33 30.3343C110.33 30.161 110.243 30.0746 110.069 30.0753L105.849 30.0909C105.676 30.0916 105.59 30.1786 105.59 30.3519L105.593 30.9519L110.073 30.9353C110.246 30.9346 110.332 30.8477 110.332 30.6743L110.33 30.3343ZM105.596 31.9519L105.599 32.5919L111.779 32.569C112.105 32.5678 112.259 32.7872 112.241 33.2273C112.219 34.4274 112.169 35.3875 112.092 36.1078C112.014 36.8215 111.893 37.2819 111.727 37.4892C111.568 37.7031 111.335 37.834 111.028 37.8818C110.729 37.9362 110.479 37.9538 110.279 37.9346C109.925 37.9359 109.715 37.79 109.647 37.4969L109.505 36.9674L107.145 36.9762L107.146 37.1562C107.147 37.4295 106.964 37.5669 106.597 37.5682C106.23 37.5696 106.047 37.4336 106.046 37.1603L106.036 34.6903C106.035 34.3703 106.195 34.2097 106.515 34.2085L109.505 34.1974C109.818 34.1963 109.975 34.3557 109.976 34.6757L109.984 36.5957C109.984 36.769 110.071 36.8553 110.245 36.8547L110.375 36.8542C110.508 36.8604 110.618 36.8133 110.704 36.713C110.877 36.5123 110.983 35.6286 111.024 34.0618C111.036 33.7551 110.956 33.602 110.782 33.6027L105.493 33.6223C105.312 35.3896 104.957 36.6343 104.426 37.3563C104.281 37.5968 104.084 37.6075 103.836 37.3884L103.736 37.2988C103.409 37.08 103.324 36.8437 103.484 36.5897C103.842 36.1084 104.095 35.3208 104.245 34.2269C104.362 33.3865 104.418 32.4896 104.415 31.5363L104.408 29.5763C104.406 29.2563 104.562 29.0957 104.876 29.0945L111.036 29.0717C111.356 29.0705 111.516 29.2299 111.517 29.5499L111.525 31.4499C111.526 31.7699 111.366 31.9305 111.046 31.9317L105.596 31.9519Z" fill="#FE585B"/>
<path d="M82.7692 47.4935C82.4919 47.4946 82.3537 47.6338 82.3548 47.9111L82.359 49.0471C82.3606 49.4844 82.0467 49.7042 81.4174 49.7066C80.7987 49.7089 80.4886 49.4913 80.487 49.054L80.4774 46.478C80.4755 45.966 80.7306 45.7091 81.2426 45.7072L86.4105 45.688L86.0878 44.9532C85.9264 44.5592 86.1653 44.2756 86.8047 44.1026C87.444 43.9189 87.8497 44.024 88.0218 44.4181L88.6025 45.6799L93.3865 45.6622C93.8985 45.6603 94.1554 45.9153 94.1573 46.4273L94.1669 49.0033C94.1685 49.4406 93.8387 49.6605 93.1773 49.663C92.5267 49.6654 92.2005 49.4479 92.1989 49.0106L92.1947 47.8746C92.1937 47.5973 92.0545 47.4591 91.7772 47.4602L82.7692 47.4935ZM88.3308 54.385L88.3393 56.689C88.8943 56.7616 89.9291 56.7951 91.4437 56.7895C92.9584 56.7838 93.9184 56.775 94.3237 56.7628C94.6436 56.7509 94.6874 57.0654 94.4551 57.7063C94.2336 58.3578 93.9041 58.6844 93.4668 58.686L90.1388 58.6983C88.4961 58.7044 87.1461 58.5121 86.0886 58.1213C85.0418 57.7305 84.1751 56.9924 83.4884 55.9069C82.9492 57.1996 82.3871 58.0817 81.8022 58.5532C81.5046 58.8423 81.0937 58.7745 80.5694 58.3498C80.0559 57.9357 79.9374 57.6108 80.2138 57.3751C81.4903 56.4317 82.2415 54.7649 82.4673 52.3747C82.5504 51.7771 82.9121 51.509 83.5523 51.5707C84.2032 51.6216 84.4973 51.8392 84.4348 52.2234C84.4353 52.3621 84.357 52.8157 84.1998 53.5843C84.6416 54.7773 85.2365 55.5591 85.9845 55.9297C86.2303 56.0674 86.3528 55.9977 86.3517 55.7203L86.3332 50.7124L83.5812 50.7226C83.1439 50.7242 82.9241 50.421 82.9218 49.813C82.9196 49.205 83.1371 48.9002 83.5744 48.8986L91.0624 48.8708C91.4997 48.8692 91.7195 49.1724 91.7218 49.7804C91.724 50.3884 91.5065 50.6932 91.0691 50.6948L88.3172 50.705L88.3242 52.593L92.0521 52.5792C92.4895 52.5776 92.7092 52.8754 92.7114 53.4727C92.7137 54.0701 92.4961 54.3695 92.0588 54.3712L88.3308 54.385ZM101.122 47.5535C101.119 46.9349 101.337 46.6247 101.774 46.6231L104.862 46.6117L104.327 44.7736C104.208 44.3581 104.447 44.0745 105.044 43.923C105.652 43.7714 106.025 43.898 106.166 44.3028L106.538 45.3894C106.699 45.8795 106.53 46.1948 106.029 46.3353L105.102 46.6108L109.374 46.5949C109.811 46.5933 110.031 46.9018 110.034 47.5205C110.036 48.1285 109.818 48.4333 109.381 48.4349L101.781 48.4631C101.344 48.4647 101.124 48.1615 101.122 47.5535ZM104.762 54.1641C104.806 54.5586 104.685 54.9164 104.398 55.2374C104.111 55.5478 103.696 55.6934 103.152 55.6741L102.974 55.2907C102.851 53.6698 102.637 52.1559 102.333 50.7491C102.246 50.28 102.325 49.9011 102.569 49.6122C102.813 49.3126 103.186 49.1885 103.688 49.24L103.945 49.6551C104.379 51.4881 104.651 52.9911 104.762 54.1641ZM99.2227 44.6165C99.3812 44.2106 99.7594 44.1025 100.357 44.2923C100.955 44.4714 101.17 44.78 101.001 45.218C100.726 45.955 100.319 46.8152 99.7785 47.7985L99.817 58.1984C99.8186 58.6358 99.4994 58.8556 98.8594 58.858C98.2195 58.8604 97.8986 58.6429 97.897 58.2055L97.8696 50.7976C97.4979 51.2576 97.2908 51.5037 97.2483 51.5359C96.9934 51.8355 96.6941 51.6553 96.3503 50.9952C96.0065 50.3352 95.9727 49.8606 96.249 49.5716C96.6954 49.1326 97.2419 48.3786 97.8886 47.3095C98.5353 46.2404 98.98 45.3428 99.2227 44.6165ZM107.89 56.3925L109.954 56.3848C110.392 56.3832 110.611 56.6917 110.614 57.3104C110.616 57.9184 110.399 58.2232 109.961 58.2248L101.241 58.2572C100.804 58.2588 100.584 57.9556 100.582 57.3476C100.58 56.7289 100.797 56.4188 101.234 56.4172L106.146 56.399C106.756 54.0287 107.159 51.7605 107.353 49.5944C107.405 49.1356 107.761 48.9583 108.423 49.0625C109.085 49.156 109.374 49.4429 109.29 49.9233C108.936 52.1433 108.469 54.2997 107.89 56.3925ZM112.776 53.7024C112.339 53.704 112.119 53.4275 112.117 52.8728C112.115 52.3075 112.333 52.024 112.77 52.0224L115.826 52.011C116.264 52.0094 116.483 52.2913 116.485 52.8566C116.487 53.4113 116.27 53.6894 115.832 53.691L112.776 53.7024ZM119.24 57.4224C118.803 57.4241 118.583 57.1102 118.581 56.4809C118.578 55.8409 118.796 55.5201 119.233 55.5184L121.121 55.5114L121.095 48.4395C121.094 48.1622 120.96 48.024 120.693 48.025L119.605 48.029C119.168 48.0306 118.948 47.7914 118.947 47.3115C118.945 46.8208 119.178 46.5213 119.647 46.4128C120.287 46.3038 120.969 46.0186 121.692 45.5573L122.668 45.5536C123.18 45.5517 123.437 45.8068 123.439 46.3188L123.473 55.5027L125.041 55.4969C125.478 55.4953 125.698 55.8145 125.701 56.4545C125.703 57.0838 125.485 57.3993 125.048 57.4009L119.24 57.4224Z" fill="black" fill-opacity="0.85"/>
</g>
<defs>
<radialGradient id="paint0_radial_2308_6822" cx="0" cy="0" r="1" gradientUnits="userSpaceOnUse" gradientTransform="translate(0.560609 46.8353) rotate(65.4889) scale(3.32531 8.21233)">
<stop offset="0.33" stop-opacity="0"/>
<stop offset="0.655" stop-opacity="0.6"/>
<stop offset="1"/>
</radialGradient>
<radialGradient id="paint1_radial_2308_6822" cx="0" cy="0" r="1" gradientUnits="userSpaceOnUse" gradientTransform="translate(355.3 45.8572) rotate(114.511) scale(3.32531 8.21233)">
<stop offset="0.33" stop-opacity="0"/>
<stop offset="0.655" stop-opacity="0.6"/>
<stop offset="1"/>
</radialGradient>
<clipPath id="clip0_2308_6822">
<rect width="200" height="90" fill="white"/>
</clipPath>
</defs>
</svg>
