<svg width="200" height="90" viewBox="0 0 200 90" fill="none" xmlns="http://www.w3.org/2000/svg">
<g clip-path="url(#clip0_2309_7176)">
<rect width="200" height="90" fill="#FEB79D"/>
<path fill-rule="evenodd" clip-rule="evenodd" d="M-6.18027 85.5257C-5.5206 81.3514 -9.94765 77.2571 -7.65473 73.2393C-4.94813 68.4966 -1.65241 61.9915 7.77154 61.0783C17.9972 60.0873 23.5998 68.8258 33.9785 69.2048C45.8176 69.6371 56.5881 60.196 66.8872 63.2371C76.2425 65.9996 70.121 74.0119 68.9752 79.5387C68.1676 83.4341 61.5364 86.4306 61.2669 90.3457C60.8502 96.3973 75.7689 103.853 67.0229 107.895C58.3557 111.9 45.7383 103.802 34.2527 102.83C27.3162 102.243 20.5655 103.925 13.6182 103.373C4.65786 102.66 -7.2514 103.227 -11.7526 99.1698C-16.3208 95.0519 -6.92748 90.2539 -6.18027 85.5257Z" fill="#FE585B"/>
<path fill-rule="evenodd" clip-rule="evenodd" d="M28.4743 10.5302C32.6486 10.8717 36.7429 8.58004 40.7607 9.76696C45.5034 11.168 52.0085 12.874 52.9217 17.7523C53.9127 23.0456 45.1742 25.9458 44.7952 31.3183C44.3629 37.4467 53.804 43.0221 50.7629 48.3534C48.0004 53.1961 39.9881 50.0274 34.4613 49.4342C30.5659 49.0162 27.5694 45.5836 23.6543 45.444C17.6027 45.2284 10.1469 52.9509 6.10508 48.4236C2.09968 43.9371 10.1975 37.4057 11.1701 31.4602C11.7575 27.8695 10.0747 24.3751 10.6274 20.7788C11.3402 16.1405 10.7727 9.97575 14.8302 7.64571C18.9481 5.281 23.7461 10.1434 28.4743 10.5302Z" fill="#FC7443"/>
<path fill-rule="evenodd" clip-rule="evenodd" d="M173.474 4.53021C177.649 4.87169 181.743 2.58004 185.761 3.76696C190.503 5.16803 197.008 6.87405 197.922 11.7523C198.913 17.0456 190.174 19.9458 189.795 25.3183C189.363 31.4467 198.804 37.0221 195.763 42.3534C193 47.1961 184.988 44.0274 179.461 43.4342C175.566 43.0162 172.569 39.5836 168.654 39.444C162.603 39.2284 155.147 46.9509 151.105 42.4236C147.1 37.9371 155.198 31.4057 156.17 25.4602C156.757 21.8695 155.075 18.3751 155.627 14.7788C156.34 10.1405 155.773 3.97575 159.83 1.64571C163.948 -0.719004 168.746 4.14342 173.474 4.53021Z" fill="#FF8787"/>
<path fill-rule="evenodd" clip-rule="evenodd" d="M117.063 7.20494C131.49 7.9797 144.155 11.9054 154.996 17.5775C166.733 23.7188 176.896 30.8598 179.688 39.9711C183.097 51.0949 184.354 63.7453 171.749 72.2549C158.691 81.0707 136.857 81.4742 117.063 82.2497C95.2362 83.1048 71.8992 84.7511 54.6033 76.8446C35.6156 68.1646 20.8565 53.9771 24.5773 39.9711C28.0889 26.7526 52.1053 19.9805 71.5388 13.0955C85.3864 8.18958 100.98 6.34119 117.063 7.20494Z" fill="#FFAB7A"/>
<ellipse cx="177.989" cy="70.7269" rx="16.7876" ry="14.0511" fill="#F55A57"/>
<ellipse cx="173.713" cy="65.6395" rx="1.21537" ry="2.15126" fill="black"/>
<ellipse cx="182.288" cy="65.6395" rx="1.21537" ry="2.15126" fill="black"/>
<path d="M173.043 72.6426C173.079 74.5703 175.312 76.0917 178.031 76.0408C180.749 75.99 182.924 74.386 182.888 72.4584C182.852 70.5307 180.67 71.7806 177.952 71.8314C175.233 71.8823 173.007 70.7149 173.043 72.6426Z" fill="black"/>
<path d="M170.798 50.9035C173.679 48.6452 180.102 51.1915 180.102 55.0219C180.103 59.542 168.088 61.6232 165.803 61.9782C165.554 62.0169 165.305 62.044 165.056 62.039C163.427 62.0062 157.617 61.2375 170.798 50.9035Z" fill="#6E5232"/>
<path d="M170.798 50.9035C173.679 48.6452 180.102 51.1915 180.102 55.0219C180.103 59.542 168.088 61.6232 165.803 61.9782C165.554 62.0169 165.305 62.044 165.056 62.039C163.427 62.0062 157.617 61.2375 170.798 50.9035Z" fill="url(#paint0_radial_2309_7176)" fill-opacity="0.15"/>
<path d="M185.204 50.7629C182.323 48.5045 175.9 51.0509 175.9 54.8813C175.899 59.4014 187.914 61.4825 190.199 61.8375C190.448 61.8763 190.697 61.9034 190.946 61.8984C192.575 61.8656 198.385 61.0968 185.204 50.7629Z" fill="#6E5232"/>
<path d="M185.204 50.7629C182.323 48.5045 175.9 51.0509 175.9 54.8813C175.899 59.4014 187.914 61.4825 190.199 61.8375C190.448 61.8763 190.697 61.9034 190.946 61.8984C192.575 61.8656 198.385 61.0968 185.204 50.7629Z" fill="url(#paint1_radial_2309_7176)" fill-opacity="0.15"/>
<path d="M83.041 30.7447C83.2143 30.7441 83.3007 30.6571 83.3 30.4838L83.2995 30.3238C83.2988 30.1504 83.2118 30.0641 83.0385 30.0647L82.8985 30.0652C82.7252 30.0659 82.6388 30.1529 82.6395 30.3262L82.64 30.4862C82.6407 30.6595 82.7277 30.7459 82.901 30.7452L83.041 30.7447ZM83.7855 29.262C84.1055 29.2608 84.2661 29.4202 84.2673 29.7402L84.2721 31.0502C84.2733 31.3702 84.1139 31.5308 83.7939 31.5319L82.2139 31.5378C81.8939 31.539 81.7334 31.3796 81.7322 31.0596L81.7273 29.7496C81.7261 29.4296 81.8855 29.269 82.2055 29.2678L83.7855 29.262ZM80.041 30.7558C80.2744 30.755 80.3907 30.6679 80.3901 30.4945L80.3895 30.3345C80.3888 30.1612 80.2718 30.075 80.0385 30.0758C79.8652 30.0765 79.7788 30.1635 79.7795 30.3368L79.7801 30.4968C79.7807 30.6701 79.8677 30.7565 80.041 30.7558ZM80.8755 29.2727C81.1955 29.2716 81.3561 29.431 81.3573 29.751L81.3622 31.0609C81.3634 31.3809 81.2039 31.5415 80.884 31.5427L79.354 31.5484C79.034 31.5496 78.8734 31.3902 78.8722 31.0702L78.8673 29.7602C78.8661 29.4402 79.0256 29.2796 79.3455 29.2784L80.8755 29.2727ZM76.6312 33.4985C76.6251 33.6719 76.7088 33.7582 76.8821 33.7576L78.0521 33.7532C78.3255 33.7522 78.4562 33.9551 78.4444 34.3618C78.4326 34.7685 78.4108 35.1852 78.379 35.612C78.3364 36.6989 78.1956 37.3861 77.9567 37.6736C77.7841 37.8943 77.558 38.0251 77.2781 38.0661C77.0049 38.1071 76.765 38.1214 76.5583 38.1088C76.2316 38.11 76.0109 37.9175 75.8961 37.5313C75.7813 37.145 75.8607 36.9647 76.1341 36.9904C76.2008 36.9968 76.4008 36.9994 76.7341 36.9981C76.8675 36.9976 76.9806 36.9539 77.0737 36.8669C77.2064 36.6997 77.2977 36.146 77.3475 35.2059C77.3664 34.9191 77.2892 34.7761 77.1159 34.7767L76.0659 34.7806C75.7326 34.7818 75.5754 34.6391 75.5943 34.3523C75.6586 33.7054 75.6858 32.9587 75.676 32.112C75.6812 31.7053 75.8438 31.5014 76.1638 31.5002L77.0938 31.4968C77.2671 31.4961 77.3534 31.4091 77.3528 31.2358L77.3506 30.6458C77.35 30.4725 77.263 30.3861 77.0896 30.3868L75.9396 30.391C75.6663 30.3921 75.529 30.2159 75.5277 29.8626C75.5264 29.5092 75.6624 29.3321 75.9357 29.331L77.9557 29.3236C78.2757 29.3224 78.4363 29.4818 78.4375 29.8018L78.4459 32.0718C78.4471 32.3918 78.2877 32.5524 77.9677 32.5535L76.9177 32.5574C76.7444 32.5581 76.658 32.6451 76.6587 32.8184L76.6312 33.4985ZM80.0843 34.3357C80.0849 34.509 80.1719 34.5954 80.3453 34.5947L81.0353 34.5922L81.0334 34.0822L80.0834 34.0857L80.0843 34.3357ZM80.3385 32.7748C80.1652 32.7754 80.0788 32.8624 80.0795 33.0357L80.0804 33.2857L81.0304 33.2822L81.0285 32.7722L80.3385 32.7748ZM83.1004 33.2745L83.0995 33.0245C83.0988 32.8512 83.0118 32.7648 82.8385 32.7655L82.1085 32.7682L82.1104 33.2782L83.1004 33.2745ZM82.8452 34.5855C83.0186 34.5848 83.1049 34.4978 83.1043 34.3245L83.1034 34.0745L82.1134 34.0782L82.1152 34.5882L82.8452 34.5855ZM84.2702 35.9102C84.5435 35.9092 84.6808 36.072 84.682 36.3987C84.6832 36.7253 84.5471 36.8892 84.2738 36.8902L82.1238 36.8982L82.1272 37.8182C82.1282 38.0915 81.9487 38.2288 81.5887 38.2302C81.2287 38.2315 81.0482 38.0955 81.0472 37.8222L81.0438 36.9022L79.0138 36.9097C78.7405 36.9107 78.6032 36.7479 78.602 36.4212C78.6008 36.0946 78.7369 35.9307 79.0102 35.9297L81.0402 35.9222L81.0385 35.4622L79.5385 35.4677C79.2185 35.4689 79.0579 35.3129 79.0568 34.9995L79.0471 32.3995C79.0459 32.0795 79.2053 31.9189 79.5253 31.9178L83.6853 31.9023C84.0053 31.9012 84.1659 32.0572 84.167 32.3706L84.1767 34.9705C84.1779 35.2905 84.0185 35.4511 83.6985 35.4523L82.1185 35.4582L82.1202 35.9182L84.2702 35.9102ZM92.2733 36.7305L94.2232 36.7233C94.4966 36.7223 94.6339 36.9118 94.6354 37.2918C94.6367 37.6651 94.5008 37.8523 94.2274 37.8533L88.8175 37.8734C88.5508 37.8743 88.4168 37.6882 88.4154 37.3148C88.414 36.9348 88.5466 36.7444 88.8133 36.7434L91.0833 36.735L91.0759 34.735L89.5559 34.7406C89.2825 34.7416 89.1452 34.5588 89.1438 34.1921C89.1424 33.8188 89.2784 33.6316 89.5518 33.6306L91.0717 33.625L91.0657 31.985L89.9657 31.9891C89.8209 32.5029 89.6922 32.8468 89.5795 33.0205C89.467 33.2543 89.2338 33.2818 88.8798 33.1031C88.5258 32.9244 88.4083 32.7148 88.5275 32.4744L88.6466 32.254L88.5269 32.3144C88.2274 32.4488 88.027 32.3596 87.9259 32.0466L87.6933 31.3675L87.7171 37.7874C87.7182 38.0608 87.5187 38.1982 87.1187 38.1997C86.7253 38.2011 86.5282 38.0652 86.5272 37.7918L86.5022 31.0519C86.4262 32.1322 86.3091 32.9093 86.1508 33.3832C86.0916 33.5968 85.9151 33.6508 85.6214 33.5452C85.3277 33.4396 85.2138 33.2834 85.2797 33.0764C85.4447 32.6425 85.5494 32.0954 85.5936 31.4353C85.6386 31.0018 85.8246 30.8077 86.1514 30.8532L86.5016 30.9019L86.4956 29.2719C86.4946 28.9986 86.6907 28.8612 87.084 28.8597C87.484 28.8582 87.6846 28.9942 87.6856 29.2675L87.6911 30.7475L87.8408 30.6869C88.127 30.5659 88.3407 30.6517 88.4818 30.9446C88.5623 31.0776 88.6766 31.3505 88.8248 31.7633C89.0688 31.0424 89.223 30.3785 89.2874 29.7716C89.3263 29.4714 89.5392 29.3473 89.9261 29.3992C90.3129 29.4511 90.4835 29.6105 90.4378 29.8773L90.2615 30.868L91.0615 30.865L91.0558 29.315C91.0548 29.0417 91.2509 28.9043 91.6442 28.9028C92.0442 28.9013 92.2447 29.0373 92.2458 29.3106L92.2515 30.8606L93.8815 30.8545C94.1548 30.8535 94.2922 31.0397 94.2936 31.413C94.2949 31.7863 94.159 31.9735 93.8856 31.9745L92.2557 31.9806L92.2617 33.6206L93.6817 33.6153C93.9551 33.6143 94.0924 33.8004 94.0938 34.1738C94.0952 34.5404 93.9592 34.7243 93.6858 34.7253L92.2658 34.7306L92.2733 36.7305ZM97.7991 35.5901C97.6324 35.5907 97.5494 35.6776 97.55 35.851L97.5539 36.901L98.4539 36.8976L98.4491 35.5876L97.7991 35.5901ZM100.449 35.5802L99.5391 35.5836L99.5439 36.8936L100.454 36.8902L100.449 35.5802ZM102.46 35.8328C102.459 35.6594 102.376 35.5731 102.209 35.5737L101.539 35.5762L101.544 36.8862L102.464 36.8828L102.46 35.8328ZM103.136 34.6503C103.456 34.6491 103.616 34.8085 103.617 35.1285L103.624 36.8785L104.114 36.8767C104.387 36.8756 104.525 37.0551 104.526 37.4151C104.527 37.7818 104.391 37.9656 104.118 37.9666L95.918 37.997C95.6446 37.9981 95.5073 37.8152 95.5059 37.4486C95.5046 37.0886 95.6406 36.9081 95.9139 36.9071L96.4439 36.9051L96.4374 35.1551C96.4363 34.8351 96.5957 34.6745 96.9157 34.6733L103.136 34.6503ZM101.601 33.4359C101.774 33.4353 101.861 33.3483 101.86 33.175C101.859 32.975 101.772 32.8753 101.599 32.876L98.3791 32.8879C98.2057 32.8885 98.1194 32.9755 98.12 33.1488C98.1208 33.3488 98.2078 33.4485 98.3811 33.4479L101.601 33.4359ZM97.068 32.5927C97.0668 32.2727 97.2228 32.1122 97.5362 32.111L102.496 32.0926C102.816 32.0914 102.977 32.2508 102.978 32.5708L102.982 33.7208C102.983 34.0408 102.827 34.2014 102.514 34.2026L97.554 34.221C97.234 34.2221 97.0734 34.0627 97.0722 33.7427L97.068 32.5927ZM98.9716 30.8857L101.112 30.8777C100.717 30.6392 100.343 30.3839 99.9888 30.1119C99.6498 30.3998 99.3108 30.6578 98.9716 30.8857ZM99.6345 28.9532C99.8005 28.7726 100.054 28.765 100.394 28.9304C100.742 29.0891 100.836 29.2588 100.676 29.4393C101.171 29.7708 101.802 30.1052 102.57 30.4423C103.345 30.7795 103.959 31.0105 104.413 31.1355C104.666 31.2012 104.654 31.408 104.375 31.7557C104.103 32.0967 103.837 32.221 103.576 32.1286C103.149 31.9835 102.605 31.7255 101.943 31.3547C101.944 31.5813 101.831 31.6951 101.605 31.6959L98.3547 31.708C98.168 31.7087 98.0743 31.6157 98.0736 31.429C97.4882 31.7645 96.9359 32.0299 96.4166 32.2252C96.137 32.3329 95.8733 32.2305 95.6254 31.9181C95.3776 31.599 95.3835 31.3956 95.6432 31.308C96.3423 31.0788 97.1077 30.7192 97.9392 30.2295C98.7707 29.7397 99.3358 29.3143 99.6345 28.9532ZM113.401 30.5622C113.402 30.8355 113.225 30.9728 112.872 30.9742C112.519 30.9755 112.342 30.8395 112.341 30.5661L112.34 30.4261L112.05 30.4272C111.777 30.4282 111.639 30.2687 111.638 29.9487C111.637 29.6287 111.773 29.4682 112.046 29.4672L112.336 29.4661L112.335 29.1861C112.334 28.9128 112.511 28.7755 112.864 28.7742C113.217 28.7729 113.394 28.9089 113.395 29.1822L113.396 29.4622L114.156 29.4594C114.43 29.4584 114.567 29.6179 114.568 29.9379C114.569 30.2579 114.433 30.4184 114.16 30.4194L113.4 30.4222L113.401 30.5622ZM110.172 30.9842C109.825 30.9854 109.652 30.8494 109.651 30.5761L109.65 30.4461L109.06 30.4483C108.787 30.4493 108.649 30.2898 108.648 29.9698C108.647 29.6498 108.783 29.4893 109.057 29.4883L109.647 29.4861L109.645 29.1961C109.644 28.9228 109.817 28.7855 110.164 28.7842C110.517 28.7829 110.694 28.9189 110.695 29.1922L110.697 29.4822L110.997 29.4811C111.27 29.4801 111.407 29.6396 111.408 29.9596C111.409 30.2796 111.273 30.4401 111 30.4411L110.7 30.4422L110.701 30.5722C110.702 30.8455 110.525 30.9829 110.172 30.9842ZM108.772 33.6494C108.873 33.809 108.803 34.0259 108.564 34.3001C108.325 34.5677 108.155 34.575 108.054 34.322L107.711 33.4833L107.727 37.7033C107.728 37.9766 107.548 38.1139 107.188 38.1153C106.828 38.1166 106.648 37.9806 106.647 37.7073L106.634 34.3073C106.371 35.1483 106.153 35.7024 105.981 35.9697C105.875 36.1568 105.727 36.0473 105.539 35.6414C105.351 35.2354 105.32 34.9355 105.446 34.7417C105.579 34.5745 105.764 34.1872 106.002 33.5796C106.239 32.9654 106.43 32.3547 106.575 31.7475L105.895 31.75C105.622 31.751 105.484 31.5682 105.483 31.2015C105.481 30.8282 105.617 30.641 105.891 30.64L106.621 30.6373L106.615 29.1873C106.614 28.914 106.794 28.7767 107.154 28.7753C107.514 28.774 107.694 28.91 107.695 29.1833L107.701 30.6333L108.311 30.6311C108.584 30.63 108.721 30.8162 108.723 31.1895C108.724 31.5562 108.588 31.74 108.315 31.7411L107.705 31.7433L107.706 31.9233C107.84 32.1161 108.051 32.452 108.339 32.931C108.634 33.4032 108.779 33.6427 108.772 33.6494ZM110.17 33.2042L110.171 33.3842C110.172 33.5575 110.259 33.6439 110.432 33.6432L112.652 33.635C112.825 33.6343 112.912 33.5474 112.911 33.374L112.91 33.194L110.17 33.2042ZM110.426 32.0032C110.253 32.0039 110.166 32.0909 110.167 32.2642L110.167 32.4342L112.907 32.424L112.907 32.254C112.906 32.0807 112.819 31.9944 112.646 31.995L110.426 32.0032ZM114.107 35.0296C114.38 35.0286 114.518 35.1914 114.519 35.5181C114.52 35.8447 114.384 36.0086 114.111 36.0096L112.431 36.0158C113.593 36.5715 114.304 36.9356 114.565 37.1079C114.712 37.1874 114.659 37.3642 114.407 37.6385C114.161 37.9194 113.958 38.0068 113.798 37.9008C113.464 37.6753 112.959 37.3939 112.285 37.0564C111.784 36.7916 111.669 36.5153 111.942 36.2276L112.151 36.0169L111.831 36.018C111.633 36.5321 111.301 36.96 110.836 37.3017C110.377 37.6434 109.874 37.8753 109.328 37.9973C109.015 38.0852 108.758 37.9695 108.557 37.6502C108.356 37.3309 108.428 37.1307 108.775 37.0494C109.567 36.8998 110.153 36.5576 110.531 36.0229L108.981 36.0286C108.707 36.0296 108.57 35.8668 108.569 35.5401C108.568 35.2135 108.704 35.0496 108.977 35.0486L110.907 35.0415L110.985 34.4712L109.555 34.4765C109.235 34.4777 109.074 34.3183 109.073 33.9983L109.065 31.6683C109.063 31.3483 109.223 31.1877 109.543 31.1865L113.573 31.1716C113.893 31.1704 114.053 31.3298 114.055 31.6498L114.063 33.9798C114.064 34.2998 113.905 34.4603 113.585 34.4615L112.155 34.4668L112.087 35.0371L114.107 35.0296ZM123.474 28.8348C123.854 28.8334 124.045 28.9694 124.046 29.2427L124.06 33.1027C124.061 33.3894 124.029 33.6095 123.962 33.7631C123.896 33.91 123.77 34.0238 123.584 34.1045C123.298 34.2322 122.954 34.2935 122.554 34.2883C122.194 34.2963 121.954 34.1272 121.833 33.781C121.718 33.428 121.874 33.2575 122.301 33.2692C122.634 33.288 122.831 33.2706 122.89 33.217C122.917 33.1903 122.93 33.1469 122.93 33.0869L122.916 29.2469C122.915 28.9736 123.101 28.8362 123.474 28.8348ZM121.636 29.3017C122.003 29.3003 122.186 29.4363 122.187 29.7096L122.197 32.2696C122.198 32.5429 122.015 32.6803 121.648 32.6816C121.288 32.683 121.108 32.547 121.107 32.2736L121.097 29.7137C121.096 29.4403 121.276 29.303 121.636 29.3017ZM117.793 31.1859L118.633 31.1828L118.629 30.1328L117.789 30.1359L117.793 31.1859ZM120.623 36.6555L124.093 36.6426C124.366 36.6416 124.504 36.8244 124.505 37.1911C124.507 37.5577 124.371 37.7416 124.097 37.7426L115.907 37.773C115.634 37.774 115.497 37.5911 115.495 37.2245C115.494 36.8578 115.63 36.674 115.903 36.673L119.403 36.66L119.4 35.86L116.91 35.8692C116.637 35.8702 116.5 35.6907 116.498 35.3307C116.497 34.9707 116.633 34.7902 116.906 34.7892L119.396 34.78L119.395 34.41C119.394 34.2367 119.307 34.1503 119.134 34.151C118.807 34.1522 118.643 33.9928 118.642 33.6728L118.637 32.2328L117.717 32.2362C117.527 33.2236 117.126 33.8784 116.514 34.2007C116.275 34.3549 116.024 34.2958 115.763 34.0235C115.502 33.7444 115.502 33.5244 115.761 33.3635C116.14 33.1954 116.416 32.821 116.587 32.2404L115.987 32.2426C115.713 32.2436 115.576 32.0708 115.575 31.7241C115.574 31.3708 115.71 31.1936 115.983 31.1926L116.703 31.19L116.699 30.14L116.319 30.1414C116.046 30.1424 115.908 29.9696 115.907 29.6229C115.906 29.2762 116.042 29.1024 116.315 29.1014L120.035 29.0876C120.308 29.0866 120.446 29.2594 120.447 29.6061C120.448 29.9527 120.312 30.1266 120.039 30.1276L119.739 30.1287L119.743 31.1787L120.273 31.1767C120.546 31.1757 120.684 31.3519 120.685 31.7052C120.686 32.0519 120.55 32.2257 120.277 32.2267L119.747 32.2287L119.753 33.9787L120.133 33.9773C120.453 33.9761 120.614 34.1355 120.615 34.4555L120.616 34.7755L123.096 34.7663C123.37 34.7653 123.507 34.9448 123.508 35.3048C123.51 35.6648 123.374 35.8453 123.1 35.8463L120.62 35.8555L120.623 36.6555Z" fill="#FE585B"/>
<path d="M59.9822 47.4287C59.7049 47.4297 59.5668 47.5689 59.5678 47.8462L59.5703 48.5342C59.5719 48.9716 59.2528 49.1914 58.6128 49.1938C57.9834 49.1961 57.668 48.9786 57.6663 48.5413L57.6585 46.4293C57.6566 45.9173 57.9117 45.6603 58.4237 45.6585L63.7196 45.6388L63.5099 45.1756C63.3271 44.7816 63.5821 44.5087 64.2749 44.3568C64.9677 44.2049 65.4054 44.3259 65.5882 44.7199L66.0076 45.6303L70.9516 45.612C71.4636 45.6101 71.7205 45.8652 71.7224 46.3772L71.7302 48.4891C71.7319 48.9265 71.3967 49.1464 70.7247 49.1489C70.0527 49.1514 69.7159 48.934 69.7143 48.4966L69.7117 47.8086C69.7107 47.5313 69.5715 47.3931 69.2942 47.3942L59.9822 47.4287ZM66.229 49.2295C65.8761 48.9962 65.9176 48.692 66.3536 48.3171C66.8002 47.9421 67.1999 47.8659 67.5527 48.0886C67.9482 48.3005 68.5416 48.6876 69.333 49.25C70.1351 49.8124 70.6112 50.184 70.7612 50.3648C71.0394 50.6091 70.9393 50.9401 70.4609 51.3579C69.9824 51.7756 69.6094 51.8624 69.3418 51.618C69.2025 51.4372 68.7424 51.0496 67.9615 50.4551C67.1913 49.8606 66.6138 49.4521 66.229 49.2295ZM61.2972 48.2238C61.5627 47.9028 62.0051 47.8479 62.6246 48.0589C63.244 48.2593 63.4263 48.5306 63.1716 48.8729C62.9064 49.2579 62.391 49.7824 61.6254 50.4466C60.8706 51.1108 60.2802 51.5556 59.8544 51.7812C59.5031 51.9852 59.1026 51.8373 58.6527 51.3376C58.2135 50.8379 58.1856 50.4967 58.5689 50.3139C58.9097 50.174 59.4152 49.8468 60.0853 49.3323C60.7554 48.8285 61.1594 48.459 61.2972 48.2238ZM62.1988 54.0605L67.5428 54.0407C66.4842 53.33 65.6496 52.6557 65.0393 52.018C64.8572 51.8266 64.6759 51.8327 64.4953 52.036C63.9643 52.6566 63.1988 53.3315 62.1988 54.0605ZM61.8902 57.1337C61.8912 57.411 62.0304 57.5492 62.3078 57.5481L67.1077 57.5303C67.3851 57.5293 67.5232 57.3901 67.5222 57.1128L67.5172 55.7688L61.8852 55.7897L61.8902 57.1337ZM63.991 49.7978C64.2244 49.4343 64.6241 49.3742 65.1904 49.6174C65.7566 49.8606 65.9549 50.1159 65.7852 50.3832C67.3486 52.0094 69.3212 53.2554 71.7031 54.1213C72.1838 54.2902 72.2224 54.6474 71.8191 55.1929C71.4158 55.7384 71.0165 55.9265 70.6212 55.7573C70.4609 55.6832 70.0975 55.4979 69.5311 55.2013L69.5432 58.4653C69.5451 58.9773 69.2901 59.2343 68.7781 59.2362L60.7461 59.2659C60.2341 59.2678 59.9772 59.0128 59.9753 58.5008L59.9639 55.4448C59.389 55.7349 59.0057 55.9177 58.814 55.9931C58.4093 56.1652 57.998 55.9908 57.58 55.4696C57.1727 54.9378 57.1821 54.5964 57.6082 54.4455C58.7801 54.0465 60.0096 53.386 61.2969 52.4638C62.6055 51.5417 63.5035 50.653 63.991 49.7978ZM83.0105 57.1834C83.0116 57.4607 83.1508 57.5989 83.4281 57.5979L84.5481 57.5937C84.8254 57.5927 84.9636 57.4535 84.9625 57.1762L84.9577 55.8802L83.4217 55.8859C83.1444 55.8869 83.0063 56.0261 83.0073 56.3034L83.0105 57.1834ZM77.9881 57.618C78.2548 57.617 78.3876 57.4779 78.3866 57.2005L78.3833 56.3205C78.3823 56.0432 78.2431 55.9051 77.9658 55.9061L76.4778 55.9116L76.4826 57.2076C76.4836 57.4849 76.6228 57.6231 76.9001 57.622L77.9881 57.618ZM77.7131 48.179C77.9905 48.1779 78.1286 48.0388 78.1276 47.7614L78.1243 46.8654C78.1232 46.5881 77.9841 46.45 77.7067 46.451L76.4747 46.4555C76.1974 46.4566 76.0593 46.5958 76.0603 46.8731L76.0636 47.7691C76.0646 48.0464 76.2038 48.1846 76.4811 48.1835L77.7131 48.179ZM83.5787 46.4292C83.3014 46.4302 83.1632 46.5694 83.1642 46.8468L83.1676 47.7428C83.1686 48.0201 83.3078 48.1582 83.5851 48.1572L84.9131 48.1523C85.1904 48.1513 85.3286 48.0121 85.3275 47.7347L85.3242 46.8388C85.3232 46.5614 85.184 46.4233 84.9067 46.4243L83.5787 46.4292ZM87.5475 50.9585C87.9848 50.9569 88.2045 51.2281 88.2065 51.7721C88.2085 52.3161 87.9909 52.5889 87.5536 52.5905L85.3456 52.5987C86.6818 53.3724 87.5961 53.9984 88.0886 54.4766C88.3775 54.7208 88.304 55.0358 87.8681 55.4214C87.4321 55.7963 87.0643 55.8404 86.7645 55.5535L86.775 58.3695C86.7769 58.8814 86.5218 59.1384 86.0098 59.1403L82.0578 59.1549C81.5565 59.1568 81.3049 58.9017 81.303 58.3897L81.2909 55.1258C81.289 54.6138 81.5441 54.3568 82.0561 54.3549L84.744 54.345C85.0214 54.3439 85.0478 54.2745 84.8233 54.1367C84.1602 53.6591 83.2676 53.1504 82.1456 52.6106L79.0096 52.6222L76.9841 54.3737L79.4001 54.3648C79.9121 54.3629 80.169 54.6179 80.1709 55.1299L80.183 58.3939C80.1849 58.9059 79.9299 59.1628 79.4179 59.1647L75.5459 59.1791C75.0339 59.181 74.777 58.9259 74.7751 58.4139L74.7649 55.678L74.4774 55.807C74.0834 55.9791 73.7094 55.8205 73.3556 55.3312C73.0124 54.8311 73.0539 54.5003 73.4799 54.3387C74.4387 53.9938 75.4286 53.4248 76.4496 52.6317L73.8736 52.6412C73.4363 52.6429 73.2166 52.3717 73.2146 51.8277C73.2126 51.2837 73.4303 51.0109 73.8676 51.0092L78.1396 50.9934L78.7441 50.0632C78.8926 49.8386 78.8282 49.7268 78.5509 49.7279L75.1269 49.7406C74.6149 49.7425 74.358 49.4874 74.3561 48.9754L74.3439 45.6954C74.342 45.1834 74.5971 44.9265 75.1091 44.9246L79.157 44.9096C79.669 44.9077 79.926 45.1627 79.9279 45.6747L79.9417 49.4187L80.1179 49.4661C80.7477 49.5811 80.9089 49.9165 80.6017 50.4723L80.3156 50.9853L83.9955 50.9717L83.3383 50.6381C82.7719 50.3629 82.6641 50.054 83.0149 49.7113L82.2469 49.7142C81.7349 49.7161 81.4779 49.461 81.476 48.949L81.4639 45.6691C81.462 45.1571 81.717 44.9001 82.229 44.8982L86.325 44.883C86.837 44.8811 87.0939 45.1362 87.0958 45.6482L87.108 48.9282C87.1099 49.4402 86.8548 49.6971 86.3428 49.699L84.3908 49.7062L85.2888 50.2309C85.6309 50.4323 85.6585 50.6775 85.3715 50.9666L87.5475 50.9585ZM98.0012 48.1678C98.5879 48.1656 98.882 48.3832 98.8837 48.8205L98.8873 49.7965C98.8889 50.2338 98.5964 50.4536 98.0097 50.4558C97.4337 50.4579 97.1449 50.2403 97.1433 49.803L97.1397 48.827C97.1381 48.3896 97.4252 48.1699 98.0012 48.1678ZM99.9781 54.8805C100.415 54.8789 100.635 55.2141 100.638 55.8861C100.64 56.558 100.466 56.8947 100.114 56.896C100.532 57.4811 100.858 57.7732 101.093 57.7724C101.264 57.7717 101.386 57.7126 101.46 57.595C101.641 57.3597 101.755 56.5379 101.803 55.1297C101.833 54.6603 101.71 54.4261 101.432 54.4271L97.8805 54.4403L97.8821 54.8883L99.9781 54.8805ZM97.8913 57.3682L98.9152 57.3164C98.7651 57.125 98.7966 56.9862 99.0096 56.9001L97.8896 56.9042L97.8913 57.3682ZM98.7828 56.1489C99.0602 56.1479 99.1982 55.9767 99.1969 55.6354L97.8849 55.6403L97.8868 56.1523L98.7828 56.1489ZM94.941 55.6512C94.9422 55.9925 95.0815 56.1626 95.3588 56.1616L96.2868 56.1582L96.2849 55.6462L94.941 55.6512ZM96.2805 54.4462L94.9845 54.451L94.4902 54.9008L96.2822 54.8942L96.2805 54.4462ZM92.4004 47.9645L92.4063 49.5325C92.4136 51.5058 92.3027 53.2449 92.0736 54.7498C93.021 54.2236 93.7814 53.6128 94.3548 52.9173L93.8108 52.9193C93.2988 52.9212 93.0419 52.6662 93.04 52.1542L93.0374 51.4502C93.0355 50.9382 93.1412 50.6818 93.3545 50.681L93.2899 50.5053C93.1493 49.9938 93.3136 49.7052 93.7827 49.6394C94.0385 49.5958 94.6621 49.4762 95.6533 49.2805C94.8419 49.0595 94.2921 48.9389 94.004 48.9186C93.5984 48.8561 93.4378 48.6914 93.5222 48.4244C93.6171 48.1467 93.8781 48.0444 94.305 48.1175L95.4418 48.3373C96.0716 48.4523 96.2967 48.7448 96.1171 49.2148C96.5222 49.1386 96.7306 49.2552 96.7424 49.5644C96.7542 49.8737 96.5469 50.0718 96.1206 50.1588L93.7865 50.6794L101.434 50.6511C101.872 50.6494 101.738 50.5806 101.034 50.4445C100.329 50.2978 99.8056 50.0491 99.4629 49.6984C99.5579 49.4207 99.7174 49.2921 99.9415 49.3126C99.6943 48.8015 99.8743 48.4542 100.482 48.2706L101.632 47.9303L92.4004 47.9645ZM101.418 46.2991C101.418 46.0751 101.278 45.9636 101.001 45.9646L92.8091 45.995C92.5318 45.996 92.3937 46.1352 92.3947 46.4125L92.3959 46.7485L101.004 46.7166C101.281 46.7156 101.419 46.5764 101.418 46.2991ZM100.976 52.1248C101.253 52.1237 101.391 51.9846 101.39 51.7072L101.389 51.4192L100.029 51.4243L100.032 52.1283L100.976 52.1248ZM98.5919 52.1336L98.5893 51.4296L97.2613 51.4345L97.2639 52.1385L98.5919 52.1336ZM95.824 52.1439L95.8213 51.4399L94.5254 51.4447L94.528 52.1487L95.824 52.1439ZM95.9566 53.3914L102.821 53.3659C103.333 53.364 103.584 53.6564 103.576 54.2432C103.589 55.0004 103.534 55.8487 103.409 56.7878C103.285 57.7163 103.132 58.2875 102.952 58.5015C102.739 58.7796 102.431 58.9461 102.025 59.0009C101.759 59.0553 101.53 59.0721 101.338 59.0515C100.836 59.0533 100.548 58.8517 100.471 58.4467L100.168 58.5758C99.9122 58.6834 99.7253 58.6095 99.607 58.3539C97.6449 58.4998 95.608 58.6407 93.4965 58.7765C93.006 58.8104 92.7386 58.6194 92.6944 58.2035C92.6609 57.7983 92.7348 57.5954 92.9161 57.5947C93.1081 57.5833 94.2332 57.5258 96.2915 57.4222L96.2896 56.9102L94.3536 56.9174C93.8416 56.9193 93.5847 56.6642 93.5828 56.1522L93.5807 55.5762C93.155 55.8551 92.7762 55.8192 92.4443 55.4684L92.027 55.118C91.7345 56.7937 91.4028 57.9576 91.0319 58.6097C90.8838 58.9409 90.5318 58.9529 89.976 58.6456C89.4309 58.3383 89.2271 58.0457 89.3648 57.7678C90.1805 56.2608 90.581 53.5233 90.5663 49.5553L90.5516 45.5714C90.5497 45.0594 90.8047 44.8024 91.3167 44.8005L102.517 44.759C103.018 44.7572 103.27 45.0122 103.271 45.5242L103.278 47.1562C103.279 47.6682 103.024 47.9252 102.512 47.927L102.176 47.9283C102.456 48.4179 102.387 48.7382 101.972 48.8891C101.78 48.9858 101.119 49.1322 99.9896 49.3284C101.003 49.442 101.654 49.5516 101.943 49.6572C102.413 49.7728 102.547 50.1029 102.346 50.6477C102.752 50.6462 102.956 51.0188 102.959 51.7654C102.961 52.5121 102.744 52.8862 102.307 52.8878L96.3068 52.9101L95.9566 53.3914ZM116.337 56.7399L119.457 56.7283C119.894 56.7267 120.114 57.0299 120.116 57.6379C120.119 58.2352 119.901 58.5347 119.464 58.5363L110.808 58.5684C110.381 58.57 110.167 58.2721 110.165 57.6748C110.162 57.0668 110.375 56.762 110.801 56.7604L114.433 56.7469L114.421 53.5469L111.989 53.556C111.552 53.5576 111.332 53.2651 111.33 52.6784C111.328 52.0811 111.545 51.7816 111.983 51.78L114.415 51.771L114.405 49.147L112.645 49.1535C112.413 49.9757 112.207 50.5258 112.027 50.8038C111.847 51.1778 111.474 51.2219 110.908 50.936C110.341 50.6501 110.153 50.3147 110.344 49.93L110.535 49.5773L110.343 49.674C109.864 49.8891 109.543 49.7463 109.381 49.2456L109.009 48.159L109.047 58.4309C109.049 58.8682 108.73 59.0881 108.09 59.0905C107.46 59.0928 107.145 58.8753 107.143 58.438L107.103 47.654C106.982 49.3825 106.794 50.6259 106.541 51.3841C106.446 51.7258 106.164 51.8122 105.694 51.6433C105.224 51.4744 105.042 51.2244 105.147 50.8933C105.411 50.199 105.579 49.3237 105.65 48.2674C105.722 47.5738 106.019 47.2634 106.542 47.3361L107.103 47.414L107.093 44.806C107.091 44.3687 107.405 44.1489 108.034 44.1466C108.674 44.1442 108.995 44.3617 108.997 44.799L109.006 47.167L109.245 47.0701C109.703 46.8764 110.045 47.0138 110.271 47.4823C110.4 47.6951 110.583 48.1318 110.82 48.7923C111.21 47.6388 111.457 46.5766 111.56 45.6055C111.622 45.1253 111.963 44.9267 112.582 45.0097C113.201 45.0927 113.474 45.3477 113.4 45.7747L113.118 47.3597L114.398 47.355L114.389 44.875C114.388 44.4377 114.701 44.2178 115.331 44.2155C115.971 44.2131 116.292 44.4306 116.293 44.8679L116.302 47.3479L118.91 47.3383C119.348 47.3366 119.567 47.6345 119.57 48.2318C119.572 48.8292 119.354 49.1286 118.917 49.1303L116.309 49.1399L116.319 51.7639L118.591 51.7555C119.028 51.7539 119.248 52.0517 119.25 52.649C119.252 53.2357 119.035 53.5298 118.597 53.5315L116.325 53.5399L116.337 56.7399ZM125.776 53.8889C125.338 53.8905 125.119 53.614 125.117 53.0593C125.114 52.494 125.332 52.2105 125.769 52.2089L128.825 52.1975C129.263 52.1959 129.482 52.4778 129.485 53.0431C129.487 53.5978 129.269 53.8759 128.832 53.8775L125.776 53.8889ZM135.24 57.5978C134.803 57.5994 134.583 57.3762 134.582 56.9282C134.58 56.4696 134.776 56.0635 135.169 55.7101C136.488 54.5212 137.566 53.3705 138.405 52.258C139.254 51.1456 139.677 50.1573 139.674 49.2933C139.671 48.6853 139.515 48.2166 139.204 47.887C138.894 47.5469 138.456 47.3778 137.89 47.3799C137.186 47.3825 136.654 47.6085 136.293 48.0578C135.91 48.4219 135.505 48.3914 135.077 47.9663C134.648 47.5413 134.604 47.1628 134.944 46.8308C135.178 46.542 135.582 46.2525 136.157 45.9623C136.732 45.6722 137.409 45.5257 138.188 45.5228C139.308 45.5187 140.21 45.8513 140.895 46.5208C141.58 47.1796 141.925 48.0583 141.929 49.157C141.936 50.9596 140.77 53.0119 138.432 55.314C138.156 55.5923 138.156 55.7257 138.433 55.714L139.953 55.5963L141.857 55.5893C142.294 55.5876 142.514 55.9175 142.517 56.5788C142.519 57.2402 142.302 57.5716 141.864 57.5733L135.24 57.5978Z" fill="black" fill-opacity="0.85"/>
</g>
<defs>
<radialGradient id="paint0_radial_2309_7176" cx="0" cy="0" r="1" gradientUnits="userSpaceOnUse" gradientTransform="translate(0.560609 46.8353) rotate(65.4889) scale(3.32531 8.21233)">
<stop offset="0.33" stop-opacity="0"/>
<stop offset="0.655" stop-opacity="0.6"/>
<stop offset="1"/>
</radialGradient>
<radialGradient id="paint1_radial_2309_7176" cx="0" cy="0" r="1" gradientUnits="userSpaceOnUse" gradientTransform="translate(355.3 45.8572) rotate(114.511) scale(3.32531 8.21233)">
<stop offset="0.33" stop-opacity="0"/>
<stop offset="0.655" stop-opacity="0.6"/>
<stop offset="1"/>
</radialGradient>
<clipPath id="clip0_2309_7176">
<rect width="200" height="90" fill="white"/>
</clipPath>
</defs>
</svg>
