<svg width="200" height="90" viewBox="0 0 200 90" fill="none" xmlns="http://www.w3.org/2000/svg">
<g clip-path="url(#clip0_1720_2016)">
<rect width="200" height="90" fill="#FEB79D"/>
<path fill-rule="evenodd" clip-rule="evenodd" d="M-6.18027 85.5257C-5.5206 81.3514 -9.94765 77.2571 -7.65473 73.2393C-4.94813 68.4966 -1.65241 61.9915 7.77154 61.0783C17.9972 60.0873 23.5998 68.8258 33.9785 69.2048C45.8176 69.6371 56.5881 60.196 66.8872 63.2371C76.2425 65.9996 70.121 74.0119 68.9752 79.5387C68.1676 83.4341 61.5364 86.4306 61.2669 90.3457C60.8502 96.3973 75.7689 103.853 67.0229 107.895C58.3557 111.9 45.7383 103.802 34.2527 102.83C27.3162 102.243 20.5655 103.925 13.6182 103.373C4.65786 102.66 -7.2514 103.227 -11.7526 99.1698C-16.3208 95.0519 -6.92748 90.2539 -6.18027 85.5257Z" fill="#FE585B"/>
<path fill-rule="evenodd" clip-rule="evenodd" d="M28.4743 10.5302C32.6486 10.8717 36.7429 8.58004 40.7607 9.76696C45.5034 11.168 52.0085 12.874 52.9217 17.7523C53.9127 23.0456 45.1742 25.9458 44.7952 31.3183C44.3629 37.4467 53.804 43.0221 50.7629 48.3534C48.0004 53.1961 39.9881 50.0274 34.4613 49.4342C30.5659 49.0162 27.5694 45.5836 23.6543 45.444C17.6027 45.2284 10.1469 52.9509 6.10508 48.4236C2.09968 43.9371 10.1975 37.4057 11.1701 31.4602C11.7575 27.8695 10.0747 24.3751 10.6274 20.7788C11.3402 16.1405 10.7727 9.97575 14.8302 7.64571C18.9481 5.281 23.7461 10.1434 28.4743 10.5302Z" fill="#FC7443"/>
<path fill-rule="evenodd" clip-rule="evenodd" d="M173.474 4.53021C177.649 4.87169 181.743 2.58004 185.761 3.76696C190.503 5.16803 197.008 6.87405 197.922 11.7523C198.913 17.0456 190.174 19.9458 189.795 25.3183C189.363 31.4467 198.804 37.0221 195.763 42.3534C193 47.1961 184.988 44.0274 179.461 43.4342C175.566 43.0162 172.569 39.5836 168.654 39.444C162.603 39.2284 155.147 46.9509 151.105 42.4236C147.1 37.9371 155.198 31.4057 156.17 25.4602C156.757 21.8695 155.075 18.3751 155.627 14.7788C156.34 10.1405 155.773 3.97575 159.83 1.64571C163.948 -0.719004 168.746 4.14342 173.474 4.53021Z" fill="#FF8787"/>
<path fill-rule="evenodd" clip-rule="evenodd" d="M117.063 7.20494C131.49 7.9797 144.155 11.9054 154.996 17.5775C166.733 23.7188 176.896 30.8598 179.688 39.9711C183.097 51.0949 184.354 63.7453 171.749 72.2549C158.691 81.0707 136.857 81.4742 117.063 82.2497C95.2362 83.1048 71.8992 84.7511 54.6033 76.8446C35.6156 68.1646 20.8565 53.9771 24.5773 39.9711C28.0889 26.7526 52.1053 19.9805 71.5388 13.0955C85.3864 8.18958 100.98 6.34119 117.063 7.20494Z" fill="#FFAB7A"/>
<ellipse cx="177.987" cy="70.7269" rx="16.7876" ry="14.0511" fill="#F55A57"/>
<ellipse cx="173.711" cy="65.6395" rx="1.21537" ry="2.15126" fill="black"/>
<ellipse cx="182.286" cy="65.6395" rx="1.21537" ry="2.15126" fill="black"/>
<path d="M173.043 72.6445C173.079 74.5722 175.312 76.0937 178.031 76.0428C180.749 75.9919 182.924 74.388 182.888 72.4603C182.852 70.5326 180.67 71.7825 177.952 71.8334C175.233 71.8843 173.007 70.7168 173.043 72.6445Z" fill="black"/>
<path d="M170.796 50.9035C173.677 48.6452 180.1 51.1915 180.1 55.0219C180.101 59.542 168.086 61.6232 165.801 61.9782C165.552 62.0169 165.303 62.044 165.054 62.039C163.425 62.0062 157.615 61.2375 170.796 50.9035Z" fill="#6E5232"/>
<path d="M170.796 50.9035C173.677 48.6452 180.1 51.1915 180.1 55.0219C180.101 59.542 168.086 61.6232 165.801 61.9782C165.552 62.0169 165.303 62.044 165.054 62.039C163.425 62.0062 157.615 61.2375 170.796 50.9035Z" fill="url(#paint0_radial_1720_2016)" fill-opacity="0.15"/>
<path d="M185.2 50.7629C182.319 48.5045 175.896 51.0509 175.896 54.8813C175.896 59.4014 187.91 61.4825 190.195 61.8375C190.445 61.8763 190.693 61.9034 190.942 61.8984C192.571 61.8656 198.381 61.0968 185.2 50.7629Z" fill="#6E5232"/>
<path d="M185.2 50.7629C182.319 48.5045 175.896 51.0509 175.896 54.8813C175.896 59.4014 187.91 61.4825 190.195 61.8375C190.445 61.8763 190.693 61.9034 190.942 61.8984C192.571 61.8656 198.381 61.0968 185.2 50.7629Z" fill="url(#paint1_radial_1720_2016)" fill-opacity="0.15"/>
<path d="M79.4556 36.8555C79.2892 36.9495 79.1227 36.9767 78.9559 36.9374C78.7957 36.898 78.6754 36.8051 78.5948 36.6587C78.5143 36.5123 78.4938 36.3724 78.5333 36.2389C78.5794 36.0988 78.6757 35.9851 78.822 35.8979C79.3077 35.6227 79.7299 35.3178 80.0886 34.9832C80.454 34.6418 80.766 34.2706 81.0245 33.8697C80.9309 33.8034 80.8106 33.7271 80.6637 33.641C80.5167 33.5549 80.3697 33.4688 80.2227 33.3826C80.0757 33.2899 79.9487 33.2137 79.8418 33.1541C79.7755 33.2476 79.7059 33.3379 79.6328 33.4248C79.5665 33.5117 79.4968 33.602 79.4238 33.6956C79.3176 33.8227 79.1879 33.8932 79.0346 33.9071C78.8813 33.921 78.7345 33.8782 78.5941 33.7787C78.4738 33.6925 78.4067 33.5727 78.3928 33.4194C78.3856 33.2661 78.4251 33.136 78.5114 33.029C78.9362 32.5274 79.2907 31.9528 79.575 31.305C79.8659 30.6573 80.0668 29.9965 80.1776 29.3228L78.9477 29.3273C78.7877 29.3279 78.6608 29.2784 78.5671 29.1788C78.4734 29.0791 78.4263 28.9559 78.4257 28.8093C78.4252 28.6626 78.4714 28.5391 78.5644 28.4388C78.6573 28.3384 78.7838 28.2879 78.9438 28.2873L83.0238 28.2722C83.1838 28.2716 83.3106 28.3212 83.4043 28.4208C83.498 28.5205 83.5451 28.6436 83.5457 28.7903C83.5462 28.937 83.5 29.0605 83.4071 29.1608C83.3141 29.2612 83.1876 29.3116 83.0276 29.3122L81.3076 29.3186C81.2883 29.4853 81.2622 29.6554 81.2295 29.8289C81.1968 30.0023 81.1575 30.1758 81.1115 30.3493L81.7714 30.3469C82.3048 30.3449 82.6653 30.4802 82.853 30.7529C83.0473 31.0255 83.0921 31.4153 82.9873 31.9224C82.7582 33.0566 82.3351 34.0315 81.7181 34.8471C81.1078 35.656 80.3536 36.3255 79.4556 36.8555ZM85.2762 37.0139C85.1029 37.0146 84.956 36.9551 84.8355 36.8356C84.7217 36.716 84.6579 36.5729 84.6439 36.4063C84.6366 36.233 84.6827 36.0861 84.7823 35.9658C84.8885 35.8454 85.0349 35.7748 85.2215 35.7541C85.4214 35.7334 85.5747 35.7062 85.6812 35.6724C85.7878 35.6387 85.8575 35.5784 85.8905 35.4917C85.9302 35.3982 85.9497 35.2648 85.9491 35.0914L85.9245 28.4515C85.9238 28.2781 85.98 28.1379 86.0929 28.0308C86.2058 27.9238 86.3423 27.8699 86.5023 27.8693C86.6623 27.8687 86.7992 27.9216 86.9129 28.0278C87.0266 28.1341 87.0838 28.2738 87.0844 28.4472L87.1099 35.3171C87.1122 35.9238 86.9738 36.3576 86.6947 36.6187C86.4224 36.8797 85.9495 37.0114 85.2762 37.0139ZM84.3884 34.9272C84.2284 34.9278 84.0916 34.875 83.9779 34.7687C83.8708 34.6625 83.817 34.526 83.8163 34.3593L83.7978 29.3594C83.7972 29.186 83.85 29.0492 83.9563 28.9488C84.0692 28.8417 84.2057 28.7878 84.3657 28.7873C84.519 28.7867 84.6525 28.8395 84.7663 28.9458C84.88 29.0454 84.9372 29.1818 84.9378 29.3551L84.9563 34.3551C84.9569 34.5218 84.9008 34.6586 84.7878 34.7657C84.6749 34.8728 84.5418 34.9266 84.3884 34.9272ZM81.5408 32.8578C81.6002 32.7109 81.653 32.5607 81.6991 32.4072C81.7452 32.2537 81.7879 32.1002 81.8274 31.9467C81.88 31.7465 81.8728 31.6065 81.8058 31.5268C81.7455 31.447 81.6154 31.4075 81.4154 31.4082L80.7654 31.4106C80.7125 31.5441 80.6564 31.6777 80.5969 31.8112C80.544 31.9381 80.4811 32.065 80.4083 32.1919C80.5085 32.2449 80.6287 32.3145 80.7691 32.4006C80.9093 32.4801 81.0497 32.5629 81.19 32.6491C81.3303 32.7285 81.4472 32.7981 81.5408 32.8578ZM89.6265 37.0878C89.4466 37.1151 89.2898 37.0857 89.1562 36.9996C89.0225 36.9201 88.9387 36.7937 88.9048 36.6205C88.8774 36.4473 88.9136 36.3038 89.0132 36.1901C89.1127 36.0764 89.2458 36.0059 89.4124 35.9786C89.5923 35.9446 89.7954 35.9038 90.0219 35.8563C90.2551 35.8088 90.5016 35.7612 90.7614 35.7136L90.7571 34.5536C90.4976 34.6946 90.2348 34.8255 89.9686 34.9465C89.709 35.0608 89.4527 35.1651 89.1997 35.2594C89.0066 35.3268 88.84 35.3341 88.6998 35.2812C88.5596 35.2284 88.4559 35.1221 88.3886 34.9624C88.3347 34.8226 88.3376 34.6859 88.3971 34.5524C88.4566 34.4121 88.5828 34.3083 88.7759 34.2409C89.3685 34.0387 89.921 33.8 90.4333 33.5248C90.9522 33.2429 91.4045 32.9379 91.7899 32.6098L88.7999 32.6208C88.6666 32.6213 88.5531 32.5751 88.4594 32.4821C88.3657 32.3891 88.3186 32.276 88.3181 32.1426C88.3177 32.0093 88.3639 31.8958 88.4569 31.8021C88.5499 31.7084 88.663 31.6613 88.7964 31.6609L92.3863 31.6475L92.3843 31.1076L89.9344 31.1166C89.8077 31.1171 89.6975 31.0708 89.6038 30.9779C89.5102 30.8849 89.4631 30.775 89.4626 30.6484C89.4621 30.5217 89.5084 30.4149 89.6014 30.3279C89.6944 30.2342 89.8042 30.1871 89.9309 30.1866L92.3809 30.1776L92.379 29.6576L89.139 29.6696C89.0123 29.67 88.9022 29.6238 88.8085 29.5308C88.7148 29.4378 88.6677 29.328 88.6673 29.2013C88.6668 29.068 88.713 28.9578 88.806 28.8708C88.899 28.7771 89.0088 28.73 89.1355 28.7296L92.3755 28.7176L92.3742 28.3676C92.3735 28.1809 92.4329 28.034 92.5526 27.9269C92.6721 27.8131 92.8153 27.7559 92.9819 27.7553C93.1553 27.7547 93.2988 27.8108 93.4125 27.9237C93.5329 28.0299 93.5935 28.1764 93.5942 28.363L93.5955 28.713L96.8055 28.7011C96.9388 28.7007 97.049 28.7469 97.136 28.8399C97.2296 28.9262 97.2767 29.0361 97.2772 29.1694C97.2777 29.2961 97.2314 29.4062 97.1384 29.4999C97.0521 29.5936 96.9423 29.6406 96.8089 29.6411L93.599 29.653L93.6009 30.173L96.0509 30.164C96.1842 30.1635 96.2944 30.2097 96.3814 30.3027C96.4684 30.3891 96.5121 30.4956 96.5126 30.6222C96.513 30.7489 96.4701 30.8591 96.3838 30.9527C96.2975 31.0464 96.1876 31.0935 96.0543 31.0939L93.6043 31.103L93.6063 31.643L97.1463 31.6299C97.2796 31.6294 97.3931 31.6757 97.4868 31.7686C97.5805 31.8616 97.6276 31.9748 97.6281 32.1081C97.6286 32.2415 97.5823 32.355 97.4893 32.4486C97.3964 32.5423 97.2832 32.5894 97.1499 32.5899L93.7899 32.6024C93.9174 32.8285 94.0515 33.0481 94.1923 33.2609C94.3398 33.467 94.4905 33.6631 94.6445 33.8492C94.8041 33.7486 94.9771 33.6346 95.1633 33.5073C95.3561 33.3799 95.5357 33.2559 95.7019 33.1353C95.8748 33.0146 96.0077 32.9175 96.1008 32.8438C96.2204 32.7433 96.3603 32.6962 96.5203 32.7022C96.6869 32.7016 96.8172 32.7678 96.911 32.9008C97.0048 33.0271 97.0453 33.1636 97.0325 33.3103C97.0197 33.4571 96.9535 33.5773 96.8339 33.6711C96.6743 33.7917 96.4549 33.9425 96.1755 34.1235C95.9029 34.2979 95.6401 34.4588 95.3873 34.6064C95.6616 34.8521 95.9524 35.0777 96.2598 35.2832C96.5739 35.4821 96.9013 35.6675 97.2419 35.8396C97.3755 35.9058 97.4692 36.0154 97.5231 36.1685C97.577 36.315 97.5642 36.4651 97.4848 36.6187C97.3988 36.7857 97.2658 36.8862 97.0859 36.9202C96.906 36.9542 96.7326 36.9281 96.5656 36.8421C95.764 36.4184 95.0387 35.8811 94.3896 35.2301C93.7405 34.5725 93.2278 33.8411 92.8515 33.0358C92.5725 33.3035 92.2634 33.5647 91.9244 33.8193L91.9305 35.4693C92.2103 35.4149 92.4734 35.3606 92.7199 35.3063C92.973 35.2454 93.1895 35.1913 93.3693 35.1439C93.5358 35.1033 93.6825 35.1128 93.8094 35.1723C93.9363 35.2318 94.0167 35.3382 94.0506 35.4914C94.0979 35.6712 94.0785 35.818 93.9922 35.9316C93.906 36.0386 93.7862 36.1124 93.6331 36.153C93.3866 36.2205 93.0969 36.2949 92.7639 36.3762C92.4309 36.4641 92.0779 36.5521 91.7048 36.6401C91.3385 36.7281 90.9755 36.8095 90.6157 36.8841C90.256 36.9588 89.9263 37.0267 89.6265 37.0878ZM106.416 36.9156C106.176 36.8298 105.905 36.7141 105.605 36.5686C105.304 36.423 105.007 36.2608 104.713 36.0819C104.419 35.903 104.158 35.7273 103.931 35.5548C103.811 35.4619 103.74 35.3455 103.72 35.2056C103.706 35.0589 103.742 34.9288 103.828 34.8152C103.901 34.7282 103.981 34.6713 104.068 34.6443L101.988 34.652C102.028 34.6718 102.068 34.695 102.108 34.7215C102.148 34.7481 102.181 34.7813 102.208 34.8212C102.302 34.9475 102.332 35.0807 102.3 35.2208C102.273 35.3543 102.207 35.4645 102.101 35.5516C101.901 35.7123 101.659 35.8799 101.373 36.0543C101.087 36.2287 100.791 36.3898 100.485 36.5376C100.185 36.6853 99.9089 36.8097 99.6559 36.9106C99.4628 36.9847 99.2896 37.002 99.1361 36.9626C98.9826 36.9298 98.8689 36.8302 98.795 36.6638C98.7277 36.5107 98.7239 36.3641 98.7833 36.2239C98.8428 36.0836 98.9591 35.9832 99.1322 35.9226C99.3852 35.8283 99.6515 35.7173 99.931 35.5896C100.217 35.4552 100.49 35.3175 100.749 35.1766C101.009 35.0289 101.232 34.8881 101.418 34.7541C101.445 34.734 101.471 34.7172 101.498 34.7038C101.531 34.6837 101.561 34.6669 101.588 34.6535L98.8576 34.6636C98.7176 34.6641 98.5974 34.6179 98.497 34.5249C98.4033 34.4253 98.3562 34.3088 98.3558 34.1754C98.3552 34.0354 98.4015 33.9186 98.4945 33.8249C98.5941 33.7246 98.7139 33.6741 98.8539 33.6736L99.2339 33.6722L99.1395 29.7825C99.1317 29.4825 99.1541 29.2424 99.2068 29.0622C99.2661 28.8754 99.3756 28.7283 99.5352 28.621C99.6948 28.5071 99.9244 28.4129 100.224 28.3385C100.337 28.3047 100.451 28.2743 100.564 28.2472C100.684 28.2134 100.8 28.1797 100.913 28.1459C101.04 28.1121 101.16 28.1183 101.273 28.1646C101.387 28.2042 101.464 28.2905 101.504 28.4237C101.552 28.5702 101.545 28.6969 101.486 28.8038C101.433 28.904 101.34 28.971 101.207 29.0048C101.12 29.0318 101.027 29.0622 100.927 29.0959C100.827 29.1229 100.74 29.1432 100.667 29.1568C100.461 29.2109 100.331 29.2748 100.278 29.3483C100.225 29.4151 100.202 29.5519 100.209 29.7585L100.211 30.0685L100.991 30.0656C101.124 30.0652 101.234 30.1081 101.321 30.1944C101.415 30.2807 101.462 30.3906 101.462 30.5239C101.463 30.6506 101.416 30.7607 101.323 30.8544C101.237 30.9414 101.127 30.9851 100.994 30.9856L100.234 30.9885L100.257 31.8484L100.997 31.8456C101.13 31.8451 101.241 31.8881 101.328 31.9744C101.421 32.0607 101.468 32.1706 101.469 32.3039C101.469 32.4306 101.423 32.5407 101.33 32.6344C101.244 32.7214 101.134 32.7651 101.001 32.7656L100.281 32.7683L100.304 33.6682L101.794 33.6627L101.788 31.9427C101.787 31.8027 101.833 31.6925 101.926 31.6122C102.019 31.5252 102.129 31.4814 102.256 31.481C102.389 31.4805 102.499 31.5234 102.586 31.6097C102.68 31.6894 102.727 31.7992 102.727 31.9392L102.734 33.6592L103.284 33.6572L103.276 31.6672C103.276 31.4739 103.249 31.3506 103.195 31.2975C103.148 31.2377 103.018 31.2081 102.805 31.2089C102.425 31.2103 102.158 31.1413 102.004 31.0019C101.857 30.8558 101.782 30.586 101.781 30.1927L101.774 28.3627C101.774 28.2094 101.823 28.0859 101.923 27.9922C102.023 27.8985 102.142 27.8514 102.282 27.8508C102.422 27.8503 102.543 27.8965 102.643 27.9895C102.75 28.0824 102.804 28.2056 102.804 28.3589L102.806 28.7989L103.846 28.7951C103.966 28.7946 104.069 28.8376 104.156 28.9239C104.243 29.0036 104.287 29.1034 104.287 29.2234C104.288 29.3434 104.245 29.4469 104.159 29.5339C104.072 29.6209 103.969 29.6646 103.849 29.665L102.809 29.6689L102.81 29.9689C102.811 30.1489 102.845 30.2654 102.911 30.3185C102.978 30.3649 103.108 30.3878 103.302 30.3871C103.615 30.3859 103.845 30.4651 103.993 30.6245C104.147 30.7773 104.224 31.0437 104.226 31.4237L104.234 33.6536L105.684 33.6483L105.701 32.7582L104.951 32.761C104.824 32.7615 104.714 32.7152 104.62 32.6222C104.533 32.5292 104.489 32.4194 104.489 32.2927C104.488 32.166 104.531 32.0592 104.618 31.9722C104.711 31.8785 104.82 31.8315 104.947 31.831L105.717 31.8281L105.724 30.9681L104.944 30.971C104.817 30.9715 104.707 30.9285 104.613 30.8422C104.526 30.7492 104.483 30.6394 104.482 30.5127C104.482 30.3794 104.525 30.2692 104.611 30.1822C104.704 30.0952 104.814 30.0515 104.941 30.051L105.741 30.048L105.749 29.738C105.755 29.5246 105.721 29.3848 105.648 29.3184C105.574 29.2453 105.431 29.2092 105.217 29.21L104.747 29.2117C104.621 29.2122 104.511 29.1659 104.417 29.0729C104.323 28.98 104.276 28.8701 104.276 28.7435C104.275 28.6101 104.321 28.4966 104.414 28.4029C104.507 28.3093 104.617 28.2622 104.744 28.2617L105.284 28.2597C105.691 28.2582 106.004 28.3037 106.224 28.3962C106.451 28.4821 106.609 28.6315 106.696 28.8445C106.784 29.0575 106.821 29.3507 106.809 29.7241L106.744 33.6443L107.144 33.6429C107.284 33.6423 107.401 33.6919 107.494 33.7916C107.595 33.8845 107.645 34.001 107.646 34.141C107.646 34.2743 107.597 34.3912 107.497 34.4916C107.404 34.5852 107.288 34.6323 107.148 34.6329L104.398 34.643C104.431 34.6496 104.464 34.6628 104.498 34.6827C104.538 34.7025 104.571 34.7224 104.598 34.7423C104.798 34.8816 105.036 35.0274 105.31 35.1797C105.583 35.3253 105.864 35.4643 106.151 35.5966C106.445 35.7221 106.705 35.8245 106.932 35.9037C107.086 35.9498 107.189 36.0394 107.243 36.1725C107.304 36.3123 107.308 36.4556 107.255 36.6025C107.189 36.7894 107.073 36.8998 106.906 36.9338C106.746 36.9744 106.583 36.9683 106.416 36.9156ZM109.536 36.944C109.35 36.998 109.183 36.9953 109.036 36.9359C108.889 36.8831 108.789 36.7801 108.735 36.627C108.668 36.4739 108.667 36.3239 108.733 36.177C108.799 36.0367 108.926 35.9429 109.112 35.8956C109.425 35.8078 109.771 35.6931 110.151 35.5517C110.537 35.4103 110.88 35.2657 111.179 35.1179C110.819 35.0659 110.539 34.9736 110.338 34.841C110.144 34.7017 110.007 34.5056 109.926 34.2526C109.852 33.9928 109.814 33.6563 109.812 33.243L109.807 31.663C109.805 31.1763 109.857 30.7961 109.962 30.5224C110.068 30.2487 110.264 30.0513 110.55 29.9302C110.843 29.8091 111.259 29.7409 111.799 29.7256C111.832 29.6321 111.872 29.5153 111.918 29.3751C111.964 29.235 112.004 29.1082 112.037 28.9947L108.937 29.0062C108.79 29.0067 108.67 28.9605 108.576 28.8675C108.489 28.7678 108.445 28.6513 108.445 28.518C108.444 28.3847 108.487 28.2712 108.574 28.1775C108.667 28.0772 108.786 28.0267 108.933 28.0262L117.023 27.9962C117.176 27.9956 117.296 28.0452 117.384 28.1449C117.477 28.2379 117.524 28.351 117.525 28.4843C117.525 28.6177 117.479 28.7345 117.386 28.8349C117.3 28.9285 117.18 28.9756 117.027 28.9762L113.417 28.9896C113.377 29.1097 113.334 29.2366 113.288 29.3701C113.249 29.5035 113.209 29.6204 113.169 29.7205L113.869 29.7179C114.343 29.7162 114.729 29.7447 115.03 29.8036C115.33 29.8558 115.564 29.955 115.731 30.101C115.898 30.2404 116.012 30.4366 116.073 30.6897C116.141 30.9362 116.175 31.2527 116.176 31.6394L116.182 33.2194C116.184 33.6327 116.145 33.9695 116.066 34.2298C115.994 34.4834 115.858 34.6806 115.658 34.8213C115.465 34.9554 115.186 35.0497 114.819 35.1044C115.127 35.25 115.47 35.392 115.851 35.5306C116.238 35.6692 116.588 35.7812 116.902 35.8667C117.089 35.9127 117.213 36.0056 117.273 36.1453C117.34 36.2918 117.344 36.4417 117.285 36.5953C117.225 36.7488 117.122 36.8526 116.976 36.9064C116.836 36.967 116.67 36.9709 116.476 36.9183C116.216 36.8393 115.932 36.7403 115.625 36.6214C115.318 36.5026 115.021 36.3737 114.733 36.2347C114.453 36.1025 114.213 35.9767 114.012 35.8574C113.885 35.7779 113.811 35.6748 113.791 35.5482C113.77 35.4216 113.793 35.2949 113.86 35.168L113.869 35.1479L112.139 35.1544L112.15 35.1743C112.223 35.3007 112.247 35.4273 112.221 35.5541C112.201 35.6808 112.125 35.7844 111.992 35.8649C111.799 35.9856 111.56 36.1132 111.274 36.2476C110.994 36.3886 110.701 36.5197 110.395 36.6408C110.089 36.762 109.802 36.863 109.536 36.944ZM110.99 32.7286L115 32.7137L114.998 32.1437L110.988 32.1586L110.99 32.7286ZM112.086 34.1945L113.916 34.1878C114.203 34.1867 114.419 34.1759 114.566 34.1554C114.719 34.1281 114.825 34.0744 114.885 33.9942C114.945 33.9073 114.981 33.7771 114.994 33.6038L111.004 33.6186C111.018 33.7918 111.055 33.9217 111.115 34.0081C111.176 34.0879 111.282 34.1409 111.436 34.167C111.589 34.1864 111.806 34.1956 112.086 34.1945ZM110.995 31.2686L114.985 31.2538C114.971 31.0805 114.931 30.954 114.864 30.8742C114.803 30.7945 114.696 30.7415 114.543 30.7154C114.396 30.6893 114.183 30.6768 113.903 30.6778L112.073 30.6846C111.793 30.6856 111.576 30.6997 111.423 30.727C111.276 30.7542 111.17 30.8079 111.104 30.8882C111.044 30.9684 111.008 31.0952 110.995 31.2686ZM121.535 36.6895C120.835 36.6921 120.285 36.6208 119.884 36.4757C119.484 36.3305 119.2 36.0749 119.032 35.7088C118.864 35.3361 118.778 34.8131 118.776 34.1398L118.77 32.6298C118.768 31.9564 118.849 31.4361 119.014 31.0688C119.18 30.6949 119.462 30.4338 119.861 30.2857C120.261 30.1376 120.811 30.0622 121.511 30.0596L121.961 30.0579C122.013 29.9244 122.073 29.7642 122.139 29.5773C122.205 29.3903 122.261 29.2235 122.307 29.0766L118.787 29.0897C118.634 29.0902 118.51 29.0374 118.416 28.931C118.329 28.8247 118.286 28.7049 118.285 28.5715C118.285 28.4315 118.327 28.3114 118.414 28.2111C118.507 28.104 118.63 28.0502 118.783 28.0497L127.193 28.0185C127.346 28.0179 127.467 28.0708 127.554 28.1772C127.647 28.2768 127.695 28.3967 127.695 28.5367C127.696 28.67 127.649 28.7902 127.556 28.8972C127.47 29.0042 127.35 29.0579 127.197 29.0585L123.687 29.0715C123.634 29.2184 123.571 29.3819 123.499 29.5622C123.433 29.7425 123.37 29.906 123.311 30.0529L124.461 30.0487C125.167 30.046 125.718 30.1173 126.111 30.2625C126.512 30.4077 126.796 30.6667 126.964 31.0394C127.132 31.4054 127.218 31.9251 127.22 32.5984L127.226 34.1084C127.228 34.7818 127.147 35.3054 126.982 35.6793C126.816 36.0466 126.534 36.3043 126.134 36.4525C125.742 36.6006 125.192 36.676 124.485 36.6786L121.535 36.6895ZM124.911 35.607C125.231 35.5858 125.471 35.5316 125.631 35.4444C125.797 35.3504 125.906 35.2033 125.959 35.0031C126.018 34.7962 126.047 34.5128 126.046 34.1528L126.04 32.5528C126.039 32.1862 126.008 31.9029 125.947 31.7032C125.893 31.5034 125.782 31.3604 125.615 31.2744C125.455 31.1816 125.215 31.1292 124.895 31.1171L124.911 35.607ZM121.091 35.6212L121.075 31.1312C120.761 31.1457 120.522 31.1999 120.355 31.2939C120.196 31.3811 120.086 31.5282 120.027 31.7351C119.974 31.9353 119.949 32.2154 119.95 32.5754L119.956 34.1754C119.957 34.5354 119.985 34.8186 120.039 35.0251C120.1 35.2249 120.21 35.3711 120.371 35.4638C120.538 35.5499 120.778 35.6023 121.091 35.6212ZM122.261 35.6268L123.741 35.6214L123.738 34.7014L122.258 34.7068L122.261 35.6268ZM122.254 33.7869L123.734 33.7814L123.731 32.9014L122.251 32.9069L122.254 33.7869ZM122.248 31.9869L123.728 31.9814L123.725 31.1114L122.245 31.1169L122.248 31.9869Z" fill="#FE585B"/>
<path d="M73.3312 58.4666C73.0651 58.6169 72.7986 58.6606 72.5317 58.5975C72.2755 58.5345 72.0829 58.3859 71.9541 58.1517C71.8252 57.9175 71.7924 57.6936 71.8556 57.48C71.9294 57.2558 72.0834 57.0739 72.3175 56.9343C73.0946 56.4941 73.7701 56.0063 74.3441 55.4708C74.9288 54.9246 75.4279 54.3308 75.8415 53.6892C75.6918 53.5831 75.4994 53.4612 75.2642 53.3234C75.029 53.1856 74.7938 53.0478 74.5586 52.91C74.3234 52.7615 74.1203 52.6396 73.9493 52.5442C73.8432 52.694 73.7317 52.8384 73.6149 52.9775C73.5087 53.1166 73.3973 53.261 73.2805 53.4107C73.1106 53.614 72.903 53.7268 72.6577 53.749C72.4125 53.7713 72.1776 53.7028 71.953 53.5437C71.7605 53.4057 71.6531 53.2141 71.6308 52.9688C71.6193 52.7236 71.6825 52.5153 71.8205 52.3441C72.5002 51.5416 73.0675 50.6222 73.5223 49.5858C73.9878 48.5494 74.3092 47.4922 74.4866 46.4142L72.5186 46.4215C72.2626 46.4225 72.0596 46.3432 71.9097 46.1838C71.7598 46.0243 71.6844 45.8273 71.6835 45.5926C71.6826 45.3579 71.7566 45.1603 71.9053 44.9998C72.054 44.8392 72.2564 44.7585 72.5124 44.7575L79.0404 44.7333C79.2964 44.7324 79.4993 44.8116 79.6493 44.9711C79.7992 45.1305 79.8746 45.3276 79.8754 45.5622C79.8763 45.7969 79.8024 45.9945 79.6536 46.1551C79.5049 46.3156 79.3025 46.3964 79.0465 46.3973L76.2946 46.4075C76.2635 46.6743 76.2219 46.9465 76.1696 47.224C76.1173 47.5015 76.0543 47.7791 75.9807 48.0567L77.0367 48.0528C77.89 48.0496 78.4668 48.2661 78.7671 48.7024C79.078 49.1385 79.1497 49.7623 78.982 50.5736C78.6154 52.3883 77.9385 53.9481 76.9513 55.2531C75.9748 56.5474 74.7681 57.6186 73.3312 58.4666ZM82.6442 58.7201C82.3669 58.7211 82.1319 58.626 81.9392 58.4347C81.7571 58.2433 81.6549 58.0144 81.6326 57.7478C81.6209 57.4705 81.6947 57.2356 81.854 57.043C82.024 56.8503 82.2582 56.7375 82.5568 56.7044C82.8766 56.6712 83.1218 56.6276 83.2923 56.5736C83.4628 56.5197 83.5744 56.4233 83.6272 56.2844C83.6907 56.1348 83.7219 55.9214 83.7208 55.6441L83.6815 45.0201C83.6804 44.7428 83.7703 44.5185 83.951 44.3471C84.1317 44.1758 84.35 44.0896 84.606 44.0887C84.862 44.0877 85.081 44.1723 85.263 44.3423C85.4449 44.5122 85.5364 44.7359 85.5375 45.0132L85.5782 56.0052C85.5818 56.9758 85.3604 57.67 84.9139 58.0876C84.4781 58.5053 83.7216 58.7161 82.6442 58.7201ZM81.2239 55.3813C80.9679 55.3823 80.7489 55.2977 80.5669 55.1277C80.3956 54.9577 80.3095 54.7394 80.3085 54.4727L80.2788 46.4727C80.2778 46.1954 80.3623 45.9764 80.5324 45.8158C80.7131 45.6445 80.9314 45.5583 81.1874 45.5574C81.4328 45.5565 81.6464 45.641 81.8284 45.811C82.0103 45.9703 82.1018 46.1887 82.1028 46.466L82.1325 54.4659C82.1335 54.7326 82.0436 54.9516 81.8629 55.1229C81.6822 55.2943 81.4692 55.3804 81.2239 55.3813ZM76.6675 52.0702C76.7627 51.8351 76.8471 51.5948 76.9209 51.3492C76.9946 51.1036 77.0631 50.858 77.1261 50.6125C77.2103 50.2921 77.1988 50.0682 77.0917 49.9406C76.9952 49.8129 76.7869 49.7497 76.4669 49.7509L75.427 49.7548C75.3424 49.9684 75.2525 50.1821 75.1573 50.3958C75.0727 50.5987 74.9722 50.8018 74.8556 51.0049C75.0159 51.0896 75.2083 51.2009 75.4328 51.3387C75.6573 51.4659 75.8818 51.5984 76.1063 51.7362C76.3308 51.8634 76.5179 51.9747 76.6675 52.0702ZM89.6047 58.8383C89.3169 58.882 89.066 58.8349 88.8522 58.6971C88.6384 58.5698 88.5043 58.3677 88.4499 58.0905C88.4062 57.8134 88.4641 57.5838 88.6234 57.4019C88.7827 57.22 88.9956 57.1072 89.2621 57.0635C89.5499 57.0091 89.875 56.9439 90.2374 56.8679C90.6105 56.7919 91.0049 56.7157 91.4206 56.6395L91.4137 54.7835C90.9985 55.0091 90.578 55.2186 90.152 55.4122C89.7367 55.5951 89.3267 55.7619 88.9219 55.9128C88.6129 56.0206 88.3463 56.0322 88.122 55.9477C87.8977 55.8632 87.7317 55.6932 87.6241 55.4376C87.5379 55.2139 87.5425 54.9952 87.6377 54.7815C87.7328 54.5572 87.9349 54.3911 88.2438 54.2833C89.192 53.9598 90.0759 53.5778 90.8956 53.1374C91.7259 52.6864 92.4495 52.1983 93.0662 51.6734L88.2822 51.6911C88.0689 51.6919 87.8873 51.6179 87.7374 51.4691C87.5875 51.3204 87.5122 51.1393 87.5114 50.926C87.5106 50.7126 87.5846 50.531 87.7334 50.3811C87.8821 50.2313 88.0632 50.1559 88.2765 50.1551L94.0205 50.1338L94.0173 49.2698L90.0973 49.2844C89.8946 49.2851 89.7184 49.2111 89.5685 49.0623C89.4186 48.9136 89.3433 48.7378 89.3425 48.5352C89.3418 48.3325 89.4158 48.1616 89.5646 48.0223C89.7134 47.8725 89.8891 47.7971 90.0918 47.7964L94.0118 47.7819L94.0087 46.9499L88.8247 46.9691C88.6221 46.9698 88.4458 46.8958 88.2959 46.747C88.146 46.5983 88.0707 46.4225 88.0699 46.2199C88.0692 46.0065 88.1432 45.8303 88.292 45.691C88.4408 45.5412 88.6165 45.4658 88.8191 45.4651L94.0031 45.4459L94.001 44.8859C93.9999 44.5872 94.0951 44.3522 94.2864 44.1808C94.4778 43.9988 94.7067 43.9073 94.9734 43.9063C95.2507 43.9052 95.4804 43.995 95.6624 44.1757C95.855 44.3457 95.9519 44.58 95.953 44.8786L95.9551 45.4386L101.091 45.4196C101.304 45.4188 101.481 45.4928 101.62 45.6416C101.77 45.7798 101.845 45.9555 101.846 46.1688C101.847 46.3715 101.773 46.5477 101.624 46.6976C101.486 46.8475 101.31 46.9228 101.097 46.9236L95.9607 46.9426L95.9638 47.7746L99.8837 47.7601C100.097 47.7593 100.273 47.8333 100.413 47.9821C100.552 48.1203 100.622 48.2907 100.622 48.4934C100.623 48.696 100.555 48.8723 100.416 49.0221C100.278 49.172 100.103 49.2473 99.8892 49.2481L95.9693 49.2626L95.9725 50.1266L101.636 50.1056C101.85 50.1048 102.031 50.1788 102.181 50.3276C102.331 50.4764 102.406 50.6574 102.407 50.8708C102.408 51.0841 102.334 51.2657 102.185 51.4156C102.037 51.5655 101.855 51.6408 101.642 51.6416L96.2662 51.6615C96.4702 52.0234 96.6848 52.3746 96.9101 52.7151C97.146 53.0449 97.3871 53.3587 97.6336 53.6565C97.889 53.4955 98.1656 53.3132 98.4635 53.1094C98.7721 52.9056 99.0594 52.7072 99.3253 52.5142C99.602 52.3212 99.8147 52.1657 99.9636 52.0478C100.155 51.8871 100.379 51.8116 100.635 51.8213C100.901 51.8203 101.11 51.9262 101.26 52.139C101.41 52.3411 101.475 52.5596 101.454 52.7943C101.434 53.029 101.328 53.2214 101.137 53.3715C100.881 53.5644 100.53 53.8057 100.083 54.0954C99.6469 54.3743 99.2265 54.6319 98.8221 54.8681C99.2609 55.2611 99.7262 55.6221 100.218 55.9509C100.721 56.269 101.244 56.5658 101.789 56.8411C102.003 56.947 102.153 57.1224 102.239 57.3674C102.326 57.6018 102.305 57.8418 102.178 58.0877C102.04 58.3548 101.828 58.5156 101.54 58.57C101.252 58.6244 100.975 58.5828 100.707 58.4451C99.4248 57.7672 98.2643 56.9075 97.2258 55.866C96.1872 54.8138 95.3668 53.6435 94.7647 52.3551C94.3183 52.7834 93.8239 53.2013 93.2814 53.6086L93.2911 56.2486C93.7388 56.1616 94.1598 56.0747 94.5542 55.9879C94.9592 55.8904 95.3055 55.8038 95.5932 55.728C95.8597 55.6631 96.0944 55.6782 96.2974 55.7734C96.5004 55.8687 96.6291 56.0389 96.6833 56.284C96.759 56.5717 96.7279 56.8065 96.5899 56.9884C96.4519 57.1595 96.2603 57.2776 96.0152 57.3425C95.621 57.4506 95.1574 57.5697 94.6245 57.6997C94.0917 57.8403 93.5269 57.9811 92.9301 58.1219C92.3439 58.2628 91.7631 58.3929 91.1875 58.5124C90.612 58.6319 90.0844 58.7405 89.6047 58.8383ZM111.527 50.773C110.631 50.7763 110.017 50.6239 109.685 50.3158C109.353 50.0077 109.186 49.475 109.183 48.7176C109.18 47.9496 109.344 47.4157 109.673 47.1158C110.003 46.8052 110.616 46.6483 111.512 46.645L111.624 46.6446L111.621 45.8446L109.333 45.8531C109.141 45.8538 108.975 45.7904 108.836 45.6629C108.708 45.5247 108.643 45.3596 108.642 45.1676C108.641 44.9756 108.705 44.8154 108.832 44.6869C108.971 44.5477 109.136 44.4778 109.328 44.4771L117.808 44.4456C118 44.4449 118.165 44.5136 118.304 44.6518C118.443 44.7793 118.513 44.939 118.514 45.131C118.515 45.323 118.446 45.4886 118.308 45.6278C118.17 45.7563 118.005 45.8209 117.813 45.8216L115.461 45.8303L115.464 46.6303L115.64 46.6297C116.536 46.6264 117.15 46.7788 117.481 47.0869C117.813 47.3843 117.98 47.917 117.983 48.685C117.986 49.4423 117.823 49.9763 117.493 50.2868C117.164 50.5974 116.551 50.7543 115.655 50.7577L111.527 50.773ZM106.533 58.8555C106.298 58.8564 106.101 58.7825 105.94 58.6337C105.79 58.4849 105.715 58.2879 105.714 58.0425L105.694 52.6186C105.535 52.9498 105.382 53.2651 105.233 53.5643C105.085 53.8529 104.942 54.1041 104.804 54.3179C104.687 54.521 104.512 54.6496 104.277 54.7039C104.043 54.7474 103.83 54.7055 103.637 54.5782C103.445 54.4616 103.332 54.302 103.299 54.0995C103.277 53.8862 103.319 53.6834 103.425 53.491C103.605 53.2023 103.801 52.8549 104.013 52.4488C104.236 52.0427 104.453 51.6205 104.664 51.1824C104.876 50.7336 105.072 50.3009 105.252 49.8842C105.431 49.4675 105.574 49.099 105.68 48.7786L105.679 48.5866L104.143 48.5923C103.94 48.5931 103.759 48.5191 103.598 48.3703C103.448 48.2109 103.373 48.0298 103.372 47.8272C103.371 47.6138 103.445 47.4322 103.594 47.2823C103.753 47.1324 103.934 47.0571 104.137 47.0563L105.673 47.0506L105.664 44.6986C105.664 44.4533 105.737 44.2557 105.886 44.1058C106.046 43.9559 106.243 43.8805 106.477 43.8796C106.701 43.8788 106.894 43.9527 107.054 44.1015C107.215 44.2502 107.296 44.4473 107.296 44.6926L107.305 47.0446L108.361 47.0407C108.574 47.0399 108.756 47.1139 108.906 47.2626C109.056 47.4114 109.131 47.5925 109.132 47.8058C109.133 48.0085 109.059 48.1901 108.91 48.3506C108.761 48.5005 108.58 48.5759 108.367 48.5767L107.311 48.5806L107.314 49.4126C107.41 49.5402 107.544 49.7157 107.716 49.9391C107.887 50.1518 108.064 50.3805 108.246 50.6251C108.439 50.8591 108.621 51.0824 108.793 51.2951C108.964 51.4971 109.104 51.6566 109.211 51.7735C109.361 51.933 109.42 52.1194 109.389 52.3329C109.357 52.5357 109.262 52.712 109.103 52.862C108.933 53.0119 108.735 53.0766 108.511 53.0561C108.298 53.0356 108.122 52.9403 107.982 52.7701C107.907 52.653 107.811 52.5147 107.693 52.3552C107.575 52.1956 107.452 52.0254 107.323 51.8445L107.346 58.0365C107.347 58.2818 107.268 58.4795 107.108 58.6294C106.949 58.7793 106.757 58.8547 106.533 58.8555ZM112.26 58.7223C112.015 58.7232 111.812 58.6546 111.652 58.5165C111.502 58.3891 111.421 58.2027 111.41 57.9574C111.398 57.7441 111.461 57.5572 111.6 57.3967C111.738 57.2362 111.919 57.1449 112.143 57.1227C112.398 57.1004 112.564 57.0572 112.638 56.9929C112.723 56.9179 112.765 56.7631 112.764 56.5284L112.758 54.6884L109.398 54.7009C109.216 54.7015 109.056 54.6328 108.917 54.4947C108.788 54.3565 108.724 54.1967 108.723 54.0154C108.722 53.8234 108.786 53.6631 108.913 53.5347C109.051 53.3955 109.211 53.3256 109.392 53.3249L117.792 53.2937C117.974 53.2931 118.129 53.3618 118.257 53.5C118.396 53.6275 118.466 53.7873 118.467 53.9793C118.468 54.1606 118.399 54.3208 118.261 54.46C118.133 54.5992 117.979 54.6691 117.797 54.6697L114.437 54.6822L114.445 56.7622C114.448 57.4768 114.279 57.9788 113.939 58.2681C113.609 58.568 113.05 58.7194 112.26 58.7223ZM110.19 52.7139C110.009 52.7146 109.849 52.6459 109.709 52.5077C109.581 52.3695 109.516 52.2097 109.516 52.0284C109.515 51.8471 109.578 51.6922 109.706 51.5637C109.844 51.4245 110.004 51.3546 110.185 51.3539L116.905 51.329C117.086 51.3284 117.241 51.3971 117.37 51.5353C117.509 51.6628 117.579 51.8172 117.58 51.9985C117.58 52.1799 117.511 52.3401 117.373 52.4793C117.246 52.6184 117.091 52.6883 116.91 52.689L110.19 52.7139ZM117.153 57.8721C116.982 57.7554 116.774 57.6016 116.528 57.4105C116.292 57.23 116.052 57.0336 115.805 56.8211C115.57 56.6087 115.361 56.4174 115.179 56.2475C115.029 56.0987 114.949 55.9176 114.937 55.7043C114.936 55.4803 115.01 55.2934 115.159 55.1435C115.308 54.983 115.484 54.8916 115.686 54.8696C115.899 54.8474 116.092 54.9107 116.263 55.0594C116.413 55.1762 116.605 55.3302 116.841 55.5213C117.076 55.7124 117.311 55.8982 117.547 56.0787C117.793 56.2591 117.996 56.4023 118.156 56.5084C118.338 56.6251 118.44 56.7954 118.462 57.0193C118.495 57.2325 118.453 57.43 118.336 57.6118C118.209 57.8149 118.034 57.9382 117.81 57.9817C117.586 58.0359 117.367 57.9994 117.153 57.8721ZM109.841 57.8673C109.639 58.0067 109.421 58.0555 109.186 58.0137C108.951 57.9826 108.759 57.8659 108.608 57.6638C108.49 57.4829 108.447 57.2857 108.478 57.0723C108.52 56.8481 108.632 56.6771 108.812 56.5591C108.972 56.4518 109.169 56.3124 109.403 56.1409C109.637 55.9587 109.871 55.7711 110.105 55.5783C110.339 55.3854 110.53 55.2193 110.679 55.0801C110.838 54.9302 111.03 54.8655 111.254 54.886C111.478 54.9065 111.66 54.9965 111.799 55.156C111.949 55.3261 112.025 55.5178 112.025 55.7311C112.026 55.9338 111.947 56.1101 111.787 56.26C111.649 56.3992 111.463 56.5706 111.229 56.7741C110.995 56.967 110.751 57.1652 110.495 57.3688C110.251 57.5617 110.033 57.7279 109.841 57.8673ZM113.106 49.4551L114.002 49.4518L113.997 47.9478L113.101 47.9511L113.106 49.4551ZM115.474 49.4463L115.634 49.4457C115.965 49.4445 116.183 49.3904 116.289 49.2833C116.396 49.1762 116.448 48.9787 116.447 48.6907C116.446 48.392 116.392 48.1949 116.285 48.0993C116.178 47.993 115.959 47.9405 115.629 47.9417L115.469 47.9423L115.474 49.4463ZM111.554 49.4608L111.634 49.4605L111.629 47.9566L111.549 47.9569C111.218 47.9581 110.994 48.0122 110.877 48.1193C110.771 48.2157 110.718 48.4133 110.719 48.7119C110.72 48.9999 110.774 49.1971 110.882 49.3033C110.999 49.4096 111.223 49.4621 111.554 49.4608ZM113.096 46.6391L113.992 46.6358L113.989 45.8358L113.093 45.8391L113.096 46.6391ZM128.676 58.6134C128.474 58.7529 128.25 58.8284 128.005 58.8399C127.76 58.8622 127.546 58.767 127.364 58.5543C127.267 58.4373 127.208 58.3095 127.187 58.171C127.165 58.0324 127.175 57.899 127.217 57.7708C126.727 57.8367 126.183 57.9027 125.586 57.9689C124.999 58.0351 124.402 58.0959 123.794 58.1515C123.187 58.2178 122.6 58.2786 122.035 58.3341C121.481 58.3894 120.985 58.4393 120.548 58.4836C120.334 58.495 120.147 58.4424 119.987 58.3256C119.827 58.2089 119.735 58.0332 119.713 57.7987C119.702 57.5747 119.765 57.3931 119.903 57.254C120.041 57.1041 120.212 57.0235 120.414 57.0121C120.67 56.9898 120.947 56.9674 121.246 56.945C121.555 56.9225 121.875 56.9 122.206 56.8774L122.203 56.1414L120.395 56.1481C120.256 56.1486 120.139 56.1011 120.042 56.0054C119.946 55.8991 119.898 55.7766 119.897 55.638C119.897 55.4993 119.944 55.3818 120.04 55.2854C120.135 55.1891 120.253 55.1406 120.391 55.1401L122.199 55.1334L122.197 54.6534L120.389 54.6601C120.251 54.6606 120.133 54.6131 120.037 54.5174C119.941 54.4218 119.892 54.3046 119.892 54.166C119.891 54.0166 119.939 53.8938 120.034 53.7974C120.13 53.7011 120.247 53.6527 120.386 53.6521L122.194 53.6454L122.192 53.1654L120.384 53.1721C120.245 53.1727 120.128 53.1251 120.031 53.0294C119.935 52.9338 119.887 52.8166 119.886 52.678C119.886 52.5286 119.933 52.4058 120.029 52.3095C120.124 52.2131 120.242 52.1647 120.38 52.1641L122.188 52.1574L122.186 51.6934L120.202 51.7008C120.032 51.7014 119.882 51.638 119.754 51.5105C119.625 51.3829 119.561 51.2338 119.56 51.0632C119.559 50.8818 119.623 50.7269 119.75 50.5985C119.878 50.47 120.027 50.4054 120.198 50.4048L120.758 50.4027C120.619 50.2966 120.538 50.1475 120.516 49.9556C120.494 49.7637 120.541 49.5982 120.658 49.4591C120.817 49.2772 120.987 49.0632 121.168 48.8172C121.348 48.5605 121.518 48.3039 121.677 48.0473C121.847 47.78 121.984 47.5448 122.09 47.3418C122.186 47.1601 122.329 47.0476 122.521 47.0042C122.713 46.9501 122.894 46.9655 123.065 47.0502C123.247 47.1348 123.37 47.2677 123.435 47.4488C123.499 47.6299 123.484 47.8113 123.389 47.993C123.368 48.0357 123.341 48.0838 123.309 48.1373C123.288 48.1907 123.262 48.2441 123.23 48.2976C123.369 48.3824 123.524 48.4831 123.695 48.5998C123.866 48.7059 123.994 48.7854 124.08 48.8384C124.304 48.9869 124.401 49.1946 124.37 49.4613C124.604 49.1618 124.832 48.825 125.054 48.4508C125.277 48.066 125.462 47.7239 125.611 47.4247C125.695 47.2431 125.834 47.1252 126.025 47.0712C126.217 47.0171 126.404 47.0325 126.586 47.1171C126.531 46.904 126.568 46.7065 126.695 46.5247C126.95 46.1718 127.194 45.7655 127.427 45.306C127.67 44.8357 127.877 44.419 128.046 44.0557C128.141 43.842 128.29 43.7028 128.493 43.638C128.706 43.5732 128.908 43.5831 129.101 43.6678C129.314 43.7523 129.454 43.8851 129.518 44.0662C129.594 44.2473 129.589 44.434 129.504 44.6263C129.483 44.6797 129.457 44.7385 129.425 44.8026C129.404 44.856 129.383 44.9147 129.362 44.9788L133.554 44.9633C133.746 44.9626 133.906 45.0313 134.034 45.1695C134.174 45.297 134.243 45.4567 134.244 45.6487C134.245 45.8407 134.176 46.0063 134.038 46.1455C133.91 46.274 133.751 46.3385 133.559 46.3393L131.287 46.3477C131.308 46.3903 131.33 46.4382 131.351 46.4914C131.373 46.534 131.389 46.5713 131.4 46.6033C131.486 46.8056 131.481 47.003 131.386 47.1953C131.291 47.377 131.136 47.5109 130.923 47.597C130.71 47.6725 130.502 47.6786 130.299 47.6154C130.107 47.5414 129.973 47.4032 129.898 47.2008C129.855 47.0837 129.801 46.9452 129.736 46.7854C129.682 46.615 129.628 46.4712 129.575 46.354L128.647 46.3575C128.562 46.5178 128.472 46.6728 128.376 46.8225C128.292 46.9615 128.207 47.1004 128.122 47.2394C128.005 47.4212 127.84 47.5551 127.627 47.6413C127.414 47.7167 127.201 47.7015 126.987 47.5956C127.02 47.7342 127.004 47.8782 126.941 48.0278L126.862 48.1881C127.033 48.2941 127.23 48.4214 127.455 48.5699C127.679 48.7184 127.84 48.8191 127.936 48.8721C128.096 48.9675 128.193 49.1112 128.226 49.303C128.258 49.4843 128.216 49.6551 128.1 49.8155C127.983 49.9866 127.823 50.0832 127.621 50.1053C127.429 50.1167 127.247 50.0693 127.076 49.9633C126.969 49.8997 126.836 49.8095 126.675 49.6928C126.515 49.5761 126.36 49.4646 126.21 49.3585C126.008 49.6899 125.802 49.9947 125.589 50.2728C125.557 50.3156 125.52 50.3531 125.478 50.3852L128.726 50.3732C128.692 50.0213 128.664 49.6534 128.642 49.2695C128.629 48.8855 128.617 48.4856 128.605 48.0696C128.604 47.8136 128.678 47.6107 128.827 47.4608C128.986 47.3109 129.183 47.2355 129.418 47.2346C129.642 47.2338 129.834 47.3077 129.995 47.4565C130.166 47.6052 130.252 47.8022 130.253 48.0475C130.265 48.4741 130.277 48.8848 130.29 49.2794C130.312 49.6633 130.34 50.0259 130.374 50.3671L133.798 50.3544C133.968 50.3538 134.112 50.4172 134.23 50.5448C134.359 50.6723 134.423 50.8268 134.424 51.0081C134.425 51.1788 134.361 51.3283 134.234 51.4568C134.117 51.5852 133.973 51.6498 133.802 51.6504L132.858 51.6539C133.254 51.8444 133.372 52.1533 133.214 52.5806C133.013 53.0933 132.786 53.5955 132.531 54.0871C132.277 54.5787 131.996 55.0544 131.689 55.5143C131.796 55.6845 131.903 55.8548 132.011 56.0251C132.129 56.1953 132.257 56.3602 132.396 56.5196C132.525 56.6792 132.632 56.7481 132.717 56.7265C132.802 56.7048 132.882 56.5925 132.956 56.3896C132.998 56.2827 133.035 56.1813 133.067 56.0852C133.098 55.9784 133.135 55.8769 133.178 55.7807C133.262 55.5564 133.4 55.4066 133.592 55.3312C133.794 55.2451 134.018 55.255 134.264 55.3607C134.467 55.4453 134.601 55.5888 134.666 55.7912C134.73 55.983 134.721 56.1857 134.636 56.3993C134.583 56.5382 134.515 56.7198 134.43 56.9441C134.345 57.1578 134.256 57.3661 134.16 57.5691C133.8 58.3171 133.359 58.7188 132.837 58.774C132.325 58.8399 131.834 58.6124 131.362 58.0915C131.212 57.9214 131.068 57.7406 130.928 57.5491C130.789 57.3683 130.655 57.1768 130.526 56.9746C129.974 57.574 129.357 58.1202 128.676 58.6134ZM124.572 47.7006C124.359 47.776 124.151 47.7821 123.948 47.7189C123.756 47.6556 123.622 47.5174 123.546 47.3044C123.514 47.2085 123.46 47.0647 123.385 46.873C123.309 46.6813 123.245 46.5162 123.191 46.3777L122.087 46.3818C121.981 46.5635 121.875 46.7452 121.769 46.927C121.663 47.098 121.557 47.2584 121.451 47.4081C121.313 47.6007 121.121 47.7294 120.876 47.7943C120.642 47.8591 120.412 47.8227 120.188 47.6848C120.016 47.5681 119.915 47.4032 119.882 47.19C119.849 46.9767 119.896 46.7899 120.024 46.6294C120.31 46.255 120.591 45.822 120.867 45.3303C121.153 44.8279 121.386 44.3897 121.566 44.0157C121.661 43.802 121.81 43.6681 122.013 43.614C122.226 43.5492 122.428 43.5592 122.621 43.6438C122.824 43.7284 122.957 43.8612 123.022 44.0423C123.087 44.2234 123.077 44.4154 122.992 44.6184C122.971 44.6718 122.945 44.7306 122.913 44.7947C122.881 44.8588 122.849 44.9283 122.818 45.0031L126.338 44.99C126.53 44.9893 126.69 45.058 126.818 45.1962C126.958 45.3237 127.027 45.4835 127.028 45.6755C127.029 45.8675 126.96 46.033 126.822 46.1722C126.695 46.3007 126.535 46.3653 126.343 46.366L124.903 46.3713C124.978 46.5311 125.021 46.6376 125.032 46.6909C125.118 46.9039 125.113 47.1066 125.018 47.2989C124.934 47.4806 124.785 47.6145 124.572 47.7006ZM128.445 56.7103C128.679 56.5174 128.902 56.3139 129.115 56.0998C129.338 55.875 129.55 55.6448 129.752 55.4094C129.354 54.3762 129.056 53.1293 128.858 51.6687L126.138 51.6788L126.14 52.1108L127.964 52.104C128.113 52.1035 128.236 52.151 128.333 52.2467C128.429 52.3423 128.477 52.4595 128.478 52.5981C128.478 52.7368 128.431 52.8596 128.335 52.9667C128.24 53.063 128.117 53.1115 127.968 53.112L126.144 53.1188L126.145 53.5188L127.969 53.512C128.119 53.5115 128.241 53.559 128.338 53.6547C128.434 53.7503 128.483 53.8728 128.483 54.0221C128.484 54.1608 128.436 54.2783 128.34 54.3747C128.245 54.471 128.122 54.5195 127.973 54.52L126.149 54.5268L126.151 54.9428L127.975 54.936C128.124 54.9355 128.247 54.983 128.343 55.0787C128.439 55.1743 128.488 55.2915 128.488 55.4301C128.489 55.5688 128.441 55.6916 128.346 55.7986C128.25 55.895 128.128 55.9435 127.978 55.944L126.154 55.9508L126.156 56.5268C126.466 56.5043 126.754 56.4766 127.02 56.4436C127.287 56.4106 127.537 56.383 127.772 56.3608C128.102 56.3382 128.327 56.4547 128.445 56.7103ZM123.821 56.7434L124.541 56.6768L124.522 51.6848L123.802 51.6875L123.821 56.7434ZM132.916 49.9417C132.757 50.0703 132.575 50.1296 132.373 50.1197C132.17 50.0991 131.999 50.0091 131.86 49.8496C131.763 49.7326 131.624 49.5731 131.442 49.3711C131.26 49.1585 131.121 48.999 131.024 48.8927C130.896 48.7545 130.836 48.5894 130.846 48.3973C130.867 48.2053 130.952 48.0503 131.101 47.9324C131.26 47.7825 131.436 47.7125 131.628 47.7224C131.82 47.7324 131.991 47.8117 132.141 47.9605C132.237 48.0562 132.382 48.205 132.574 48.4069C132.767 48.5982 132.917 48.7577 133.024 48.8853C133.174 49.0447 133.239 49.2258 133.218 49.4285C133.198 49.6313 133.097 49.8023 132.916 49.9417ZM130.93 53.7251C131.237 53.1906 131.502 52.6403 131.724 52.0741C131.809 51.8711 131.92 51.732 132.058 51.6569L130.506 51.6626C130.561 52.0464 130.621 52.4089 130.686 52.75C130.762 53.091 130.844 53.416 130.93 53.7251ZM121.734 50.3991L124.374 50.3893C124.224 50.2406 124.159 50.0701 124.18 49.878C124.052 50.0065 123.898 50.0818 123.717 50.1038C123.546 50.1151 123.386 50.0677 123.236 49.9615C123.161 49.9085 123.054 49.8342 122.915 49.7387C122.787 49.6325 122.658 49.5317 122.53 49.4362C122.424 49.5752 122.318 49.7196 122.212 49.8693C122.116 50.0084 122.015 50.1367 121.909 50.2545C121.867 50.3186 121.808 50.3668 121.734 50.3991Z" fill="black" fill-opacity="0.85"/>
</g>
<defs>
<radialGradient id="paint0_radial_1720_2016" cx="0" cy="0" r="1" gradientUnits="userSpaceOnUse" gradientTransform="translate(0.558656 46.8353) rotate(65.4889) scale(3.32531 8.21233)">
<stop offset="0.33" stop-opacity="0"/>
<stop offset="0.655" stop-opacity="0.6"/>
<stop offset="1"/>
</radialGradient>
<radialGradient id="paint1_radial_1720_2016" cx="0" cy="0" r="1" gradientUnits="userSpaceOnUse" gradientTransform="translate(355.296 45.8572) rotate(114.511) scale(3.32531 8.21233)">
<stop offset="0.33" stop-opacity="0"/>
<stop offset="0.655" stop-opacity="0.6"/>
<stop offset="1"/>
</radialGradient>
<clipPath id="clip0_1720_2016">
<rect width="200" height="90" fill="white"/>
</clipPath>
</defs>
</svg>
