<svg width="200" height="90" viewBox="0 0 200 90" fill="none" xmlns="http://www.w3.org/2000/svg">
<g clip-path="url(#clip0_1720_1944)">
<rect width="200" height="90" fill="#FEB79D"/>
<path fill-rule="evenodd" clip-rule="evenodd" d="M-6.18027 85.5257C-5.5206 81.3514 -9.94765 77.2571 -7.65473 73.2393C-4.94813 68.4966 -1.65241 61.9915 7.77154 61.0783C17.9972 60.0873 23.5998 68.8258 33.9785 69.2048C45.8176 69.6371 56.5881 60.196 66.8872 63.2371C76.2425 65.9996 70.121 74.0119 68.9752 79.5387C68.1676 83.4341 61.5364 86.4306 61.2669 90.3457C60.8502 96.3973 75.7689 103.853 67.0229 107.895C58.3557 111.9 45.7383 103.802 34.2527 102.83C27.3162 102.243 20.5655 103.925 13.6182 103.373C4.65786 102.66 -7.2514 103.227 -11.7526 99.1698C-16.3208 95.0519 -6.92748 90.2539 -6.18027 85.5257Z" fill="#FE585B"/>
<path fill-rule="evenodd" clip-rule="evenodd" d="M28.4743 10.5302C32.6486 10.8717 36.7429 8.58004 40.7607 9.76696C45.5034 11.168 52.0085 12.874 52.9217 17.7523C53.9127 23.0456 45.1742 25.9458 44.7952 31.3183C44.3629 37.4467 53.804 43.0221 50.7629 48.3534C48.0004 53.1961 39.9881 50.0274 34.4613 49.4342C30.5659 49.0162 27.5694 45.5836 23.6543 45.444C17.6027 45.2284 10.1469 52.9509 6.10508 48.4236C2.09968 43.9371 10.1975 37.4057 11.1701 31.4602C11.7575 27.8695 10.0747 24.3751 10.6274 20.7788C11.3402 16.1405 10.7727 9.97575 14.8302 7.64571C18.9481 5.281 23.7461 10.1434 28.4743 10.5302Z" fill="#FC7443"/>
<path fill-rule="evenodd" clip-rule="evenodd" d="M173.474 4.53021C177.649 4.87169 181.743 2.58004 185.761 3.76696C190.503 5.16803 197.008 6.87405 197.922 11.7523C198.913 17.0456 190.174 19.9458 189.795 25.3183C189.363 31.4467 198.804 37.0221 195.763 42.3534C193 47.1961 184.988 44.0274 179.461 43.4342C175.566 43.0162 172.569 39.5836 168.654 39.444C162.603 39.2284 155.147 46.9509 151.105 42.4236C147.1 37.9371 155.198 31.4057 156.17 25.4602C156.757 21.8695 155.075 18.3751 155.627 14.7788C156.34 10.1405 155.773 3.97575 159.83 1.64571C163.948 -0.719004 168.746 4.14342 173.474 4.53021Z" fill="#FF8787"/>
<path fill-rule="evenodd" clip-rule="evenodd" d="M117.063 7.20494C131.49 7.9797 144.155 11.9054 154.996 17.5775C166.733 23.7188 176.896 30.8598 179.688 39.9711C183.097 51.0949 184.354 63.7453 171.749 72.2549C158.691 81.0707 136.857 81.4742 117.063 82.2497C95.2362 83.1048 71.8992 84.7511 54.6033 76.8446C35.6156 68.1646 20.8565 53.9771 24.5773 39.9711C28.0889 26.7526 52.1053 19.9805 71.5388 13.0955C85.3864 8.18958 100.98 6.34119 117.063 7.20494Z" fill="#FFAB7A"/>
<ellipse cx="177.987" cy="70.7269" rx="16.7876" ry="14.0511" fill="#F55A57"/>
<ellipse cx="173.711" cy="65.6395" rx="1.21537" ry="2.15126" fill="black"/>
<ellipse cx="182.286" cy="65.6395" rx="1.21537" ry="2.15126" fill="black"/>
<path d="M173.043 72.6445C173.079 74.5722 175.312 76.0937 178.031 76.0428C180.749 75.9919 182.924 74.388 182.888 72.4603C182.852 70.5326 180.67 71.7825 177.952 71.8334C175.233 71.8843 173.007 70.7168 173.043 72.6445Z" fill="black"/>
<path d="M170.796 50.9035C173.677 48.6452 180.1 51.1915 180.1 55.0219C180.101 59.542 168.086 61.6232 165.801 61.9782C165.552 62.0169 165.303 62.044 165.054 62.039C163.425 62.0062 157.615 61.2375 170.796 50.9035Z" fill="#6E5232"/>
<path d="M170.796 50.9035C173.677 48.6452 180.1 51.1915 180.1 55.0219C180.101 59.542 168.086 61.6232 165.801 61.9782C165.552 62.0169 165.303 62.044 165.054 62.039C163.425 62.0062 157.615 61.2375 170.796 50.9035Z" fill="url(#paint0_radial_1720_1944)" fill-opacity="0.15"/>
<path d="M185.2 50.7629C182.319 48.5045 175.896 51.0509 175.896 54.8813C175.896 59.4014 187.91 61.4825 190.195 61.8375C190.445 61.8763 190.693 61.9034 190.942 61.8984C192.571 61.8656 198.381 61.0968 185.2 50.7629Z" fill="#6E5232"/>
<path d="M185.2 50.7629C182.319 48.5045 175.896 51.0509 175.896 54.8813C175.896 59.4014 187.91 61.4825 190.195 61.8375C190.445 61.8763 190.693 61.9034 190.942 61.8984C192.571 61.8656 198.381 61.0968 185.2 50.7629Z" fill="url(#paint1_radial_1720_1944)" fill-opacity="0.15"/>
<path d="M79.6266 37.1249C79.4467 37.1522 79.2899 37.1228 79.1562 37.0366C79.0226 36.9571 78.9388 36.8308 78.9048 36.6576C78.8775 36.4843 78.9136 36.3409 79.0132 36.2271C79.1128 36.1134 79.2459 36.043 79.4124 36.0157C79.5923 35.9817 79.7955 35.9409 80.022 35.8934C80.2552 35.8459 80.5016 35.7983 80.7615 35.7507L80.7572 34.5907C80.4977 34.7316 80.2348 34.8626 79.9686 34.9836C79.709 35.0979 79.4528 35.2022 79.1998 35.2964C79.0067 35.3638 78.8401 35.3711 78.6999 35.3183C78.5597 35.2655 78.4559 35.1592 78.3887 34.9995C78.3348 34.8597 78.3376 34.723 78.3972 34.5894C78.4566 34.4492 78.5829 34.3454 78.776 34.278C79.3686 34.0758 79.921 33.8371 80.4334 33.5619C80.9523 33.2799 81.4045 32.9749 81.79 32.6468L78.8 32.6579C78.6667 32.6584 78.5532 32.6122 78.4595 32.5192C78.3658 32.4262 78.3187 32.313 78.3182 32.1797C78.3177 32.0464 78.364 31.9329 78.457 31.8392C78.5499 31.7455 78.6631 31.6984 78.7964 31.6979L82.3864 31.6846L82.3844 31.1446L79.9344 31.1537C79.8078 31.1542 79.6976 31.1079 79.6039 31.0149C79.5102 30.9219 79.4632 30.8121 79.4627 30.6854C79.4622 30.5588 79.5085 30.4519 79.6015 30.3649C79.6945 30.2712 79.8043 30.2242 79.931 30.2237L82.381 30.2146L82.379 29.6946L79.1391 29.7066C79.0124 29.7071 78.9022 29.6608 78.8085 29.5679C78.7149 29.4749 78.6678 29.365 78.6673 29.2384C78.6668 29.105 78.7131 28.9949 78.8061 28.9079C78.8991 28.8142 79.0089 28.7671 79.1356 28.7666L82.3756 28.7546L82.3743 28.4046C82.3736 28.218 82.433 28.0711 82.5526 27.964C82.6722 27.8502 82.8153 27.793 82.982 27.7924C83.1553 27.7917 83.2989 27.8479 83.4126 27.9608C83.533 28.067 83.5936 28.2134 83.5942 28.4001L83.5955 28.7501L86.8055 28.7382C86.9389 28.7377 87.049 28.784 87.136 28.877C87.2297 28.9633 87.2768 29.0731 87.2773 29.2065C87.2777 29.3331 87.2315 29.4433 87.1385 29.537C87.0522 29.6306 86.9423 29.6777 86.809 29.6782L83.599 29.6901L83.601 30.2101L86.0509 30.201C86.1843 30.2005 86.2944 30.2468 86.3815 30.3398C86.4684 30.4261 86.5122 30.5326 86.5126 30.6593C86.5131 30.786 86.4702 30.8961 86.3839 30.9898C86.2975 31.0834 86.1877 31.1305 86.0544 31.131L83.6044 31.1401L83.6064 31.6801L87.1464 31.667C87.2797 31.6665 87.3932 31.7127 87.4869 31.8057C87.5806 31.8987 87.6277 32.0119 87.6282 32.1452C87.6286 32.2785 87.5824 32.392 87.4894 32.4857C87.3964 32.5794 87.2833 32.6265 87.1499 32.627L83.79 32.6394C83.9175 32.8656 84.0516 33.0851 84.1924 33.2979C84.3398 33.5041 84.4906 33.7002 84.6446 33.8863C84.8042 33.7857 84.9771 33.6717 85.1633 33.5443C85.3562 33.417 85.5357 33.293 85.7019 33.1723C85.8748 33.0517 86.0078 32.9545 86.1009 32.8809C86.2205 32.7804 86.3603 32.7332 86.5203 32.7393C86.687 32.7387 86.8173 32.8049 86.9111 32.9379C87.0049 33.0642 87.0454 33.2007 87.0326 33.3474C87.0198 33.4941 86.9536 33.6144 86.8339 33.7081C86.6744 33.8287 86.4549 33.9795 86.1756 34.1606C85.9029 34.3349 85.6402 34.4959 85.3874 34.6435C85.6616 34.8892 85.9525 35.1148 86.2599 35.3203C86.574 35.5191 86.9013 35.7046 87.242 35.8766C87.3756 35.9428 87.4693 36.0525 87.5232 36.2056C87.5771 36.3521 87.5643 36.5021 87.4849 36.6557C87.3988 36.8227 87.2659 36.9232 87.086 36.9572C86.9061 36.9912 86.7327 36.9652 86.5657 36.8792C85.7641 36.4555 85.0388 35.9181 84.3897 35.2672C83.7406 34.6096 83.2279 33.8782 82.8516 33.0729C82.5726 33.3406 82.2635 33.6017 81.9245 33.8563L81.9306 35.5063C82.2104 35.452 82.4735 35.3976 82.72 35.3434C82.9731 35.2825 83.1896 35.2283 83.3694 35.181C83.5359 35.1404 83.6826 35.1498 83.8095 35.2094C83.9364 35.2689 84.0168 35.3753 84.0507 35.5285C84.098 35.7083 84.0785 35.855 83.9923 35.9687C83.906 36.0757 83.7863 36.1495 83.6331 36.19C83.3867 36.2576 83.097 36.332 82.7639 36.4132C82.4309 36.5011 82.0779 36.5891 81.7049 36.6772C81.3386 36.7652 80.9755 36.8465 80.6158 36.9212C80.2561 36.9959 79.9263 37.0638 79.6266 37.1249ZM92.3153 34.0678C92.1623 34.1417 92.0057 34.1656 91.8456 34.1396C91.6921 34.1068 91.5751 34.0139 91.4945 33.8609C91.4274 33.7278 91.4135 33.5912 91.453 33.451C91.4991 33.3042 91.5921 33.1972 91.7318 33.13C92.1178 32.9419 92.5037 32.7205 92.8894 32.4657C93.2817 32.2042 93.6441 31.9262 93.9763 31.6317C93.8491 31.4855 93.7285 31.3392 93.6147 31.193C93.5008 31.0401 93.3902 30.8805 93.2829 30.7142C93.0972 30.9816 92.9081 31.2223 92.7156 31.4363C92.6093 31.5501 92.4762 31.6205 92.3163 31.6478C92.1631 31.6684 92.0296 31.6322 91.9159 31.5393C91.8089 31.4464 91.7485 31.3232 91.7346 31.17C91.7207 31.0167 91.7669 30.8865 91.8731 30.7794C92.0923 30.5653 92.3047 30.3078 92.5103 30.0071C92.7225 29.6996 92.918 29.3822 93.0967 29.0549C93.2822 28.7209 93.4377 28.4103 93.5633 28.1232C93.6294 27.9762 93.7324 27.8725 93.8721 27.812C94.0119 27.7515 94.1552 27.751 94.3021 27.8104C94.449 27.8699 94.5461 27.9729 94.5933 28.1193C94.6472 28.2658 94.641 28.4058 94.5748 28.5394C94.5484 28.5928 94.5186 28.653 94.4855 28.7197C94.4591 28.7798 94.4293 28.84 94.3962 28.9001L95.5962 28.8956C95.9028 28.8945 96.1431 28.9669 96.317 29.113C96.4908 29.2523 96.5915 29.4319 96.619 29.6518C96.6464 29.8651 96.5906 30.0886 96.4515 30.3225C96.3256 30.5496 96.1864 30.7668 96.0339 30.974C95.888 31.1812 95.732 31.3818 95.5661 31.5758C95.8736 31.8013 96.1944 32.0101 96.5284 32.2022C96.8625 32.3943 97.2031 32.5664 97.5503 32.7184C97.6906 32.7846 97.7877 32.8975 97.8416 33.0573C97.8955 33.2105 97.8861 33.3638 97.8133 33.5174C97.7273 33.6844 97.5943 33.7883 97.4145 33.8289C97.2413 33.8629 97.0678 33.8369 96.8942 33.7509C96.5268 33.5655 96.1627 33.3602 95.8019 33.1349C95.441 32.9096 95.0968 32.6642 94.7691 32.3987C94.417 32.72 94.0348 33.0214 93.6225 33.303C93.2102 33.5778 92.7744 33.8328 92.3153 34.0678ZM90.3864 37.075C90.2331 37.0756 90.1029 37.026 89.9959 36.9264C89.8955 36.8268 89.845 36.6937 89.8444 36.527L89.8317 33.087C89.7258 33.2941 89.6231 33.4878 89.5238 33.6682C89.4245 33.8485 89.3317 34.0056 89.2456 34.1392C89.1594 34.2729 89.0397 34.36 88.8865 34.4005C88.74 34.4411 88.5999 34.4183 88.4663 34.3321C88.3393 34.2592 88.2589 34.1495 88.225 34.003C88.1912 33.8564 88.2173 33.723 88.3036 33.6027C88.4296 33.4222 88.5654 33.2051 88.7111 32.9512C88.8569 32.6973 89.0026 32.4334 89.1482 32.1596C89.2938 31.879 89.4262 31.6085 89.5452 31.3481C89.6642 31.081 89.7567 30.8473 89.8226 30.647L88.8126 30.6508C88.6526 30.6514 88.5258 30.6018 88.4321 30.5022C88.3383 30.3959 88.2912 30.2727 88.2907 30.1327C88.2902 29.9861 88.3364 29.8625 88.4293 29.7622C88.5223 29.6619 88.6488 29.6114 88.8088 29.6108L89.8188 29.6071L89.814 28.3271C89.8134 28.1537 89.8629 28.0202 89.9625 27.9265C90.0688 27.8261 90.1986 27.7756 90.352 27.7751C90.5053 27.7745 90.6355 27.824 90.7425 27.9236C90.8495 28.0166 90.9034 28.1497 90.904 28.323L90.9088 29.603L91.7087 29.6C91.8687 29.5995 91.9956 29.649 92.0893 29.7486C92.183 29.8483 92.2301 29.9714 92.2307 30.1181C92.2312 30.2581 92.185 30.3816 92.092 30.4886C91.9991 30.589 91.8726 30.6394 91.7126 30.64L90.9126 30.643L90.9133 30.833C91.0071 30.946 91.1209 31.0856 91.2549 31.2517C91.3888 31.4112 91.5227 31.5707 91.6566 31.7303C91.7972 31.8831 91.911 32.006 91.998 32.099C92.1117 32.2052 92.1656 32.3384 92.1595 32.4984C92.1601 32.6517 92.1039 32.7819 91.9909 32.889C91.878 32.9961 91.7448 33.0433 91.5915 33.0305C91.4381 33.0177 91.3112 32.9549 91.2108 32.8419C91.1706 32.7954 91.1237 32.7422 91.0702 32.6824C91.0233 32.6159 90.973 32.5495 90.9194 32.483L90.9344 36.523C90.935 36.6896 90.8822 36.8232 90.7759 36.9236C90.6696 37.0239 90.5398 37.0744 90.3864 37.075ZM94.6757 36.8591C94.1357 36.8611 93.7088 36.8093 93.3951 36.7038C93.0814 36.605 92.8574 36.4325 92.7232 36.1863C92.5956 35.9335 92.5309 35.5837 92.5293 35.137C92.5276 34.6904 92.5897 34.3435 92.7154 34.0963C92.8478 33.8425 93.0705 33.665 93.3835 33.5639C93.6964 33.456 94.1229 33.4011 94.6629 33.3991C95.2028 33.3971 95.6264 33.4489 95.9334 33.5544C96.2471 33.6533 96.4678 33.8291 96.5954 34.082C96.7296 34.3281 96.7976 34.6746 96.7992 35.1212C96.8009 35.5679 96.7355 35.9181 96.6031 36.1719C96.4774 36.4191 96.258 36.5932 95.9451 36.6944C95.6388 36.8022 95.2157 36.8571 94.6757 36.8591ZM94.6719 35.8491C94.9519 35.8481 95.1619 35.8306 95.3017 35.7968C95.4483 35.7562 95.5447 35.6825 95.5909 35.5757C95.6439 35.4688 95.67 35.3154 95.6692 35.1154C95.6685 34.9221 95.6413 34.7755 95.5876 34.6757C95.5406 34.5759 95.4436 34.5062 95.2968 34.4668C95.1567 34.4273 94.9466 34.4081 94.6666 34.4091C94.3866 34.4102 94.1733 34.4309 94.0268 34.4715C93.887 34.512 93.7906 34.5857 93.7376 34.6926C93.6847 34.7928 93.6585 34.9329 93.6592 35.1129C93.6599 35.3129 93.6872 35.4661 93.7409 35.5726C93.7946 35.679 93.8916 35.752 94.0317 35.7915C94.1785 35.8309 94.3919 35.8501 94.6719 35.8491ZM94.7434 30.8488C94.9226 30.6348 95.0752 30.4276 95.2011 30.2271C95.3668 29.9598 95.2896 29.8268 94.9696 29.828L93.9496 29.8317C94.1776 30.1976 94.4422 30.5366 94.7434 30.8488ZM106.416 36.9156C106.176 36.8298 105.905 36.7141 105.605 36.5686C105.304 36.423 105.007 36.2608 104.713 36.0819C104.419 35.903 104.158 35.7273 103.931 35.5548C103.811 35.4619 103.74 35.3455 103.72 35.2056C103.706 35.0589 103.742 34.9288 103.828 34.8152C103.901 34.7282 103.981 34.6713 104.068 34.6443L101.988 34.652C102.028 34.6718 102.068 34.695 102.108 34.7215C102.148 34.7481 102.181 34.7813 102.208 34.8212C102.302 34.9475 102.332 35.0807 102.3 35.2208C102.273 35.3543 102.207 35.4645 102.101 35.5516C101.901 35.7123 101.659 35.8799 101.373 36.0543C101.087 36.2287 100.791 36.3898 100.485 36.5376C100.185 36.6853 99.9089 36.8097 99.6559 36.9106C99.4628 36.9847 99.2896 37.002 99.1361 36.9626C98.9826 36.9298 98.8689 36.8302 98.795 36.6638C98.7277 36.5107 98.7239 36.3641 98.7833 36.2239C98.8428 36.0836 98.9591 35.9832 99.1322 35.9226C99.3852 35.8283 99.6515 35.7173 99.931 35.5896C100.217 35.4552 100.49 35.3175 100.749 35.1766C101.009 35.0289 101.232 34.8881 101.418 34.7541C101.445 34.734 101.471 34.7172 101.498 34.7038C101.531 34.6837 101.561 34.6669 101.588 34.6535L98.8576 34.6636C98.7176 34.6641 98.5974 34.6179 98.497 34.5249C98.4033 34.4253 98.3562 34.3088 98.3558 34.1754C98.3552 34.0354 98.4015 33.9186 98.4945 33.8249C98.5941 33.7246 98.7139 33.6741 98.8539 33.6736L99.2339 33.6722L99.1395 29.7825C99.1317 29.4825 99.1541 29.2424 99.2068 29.0622C99.2661 28.8754 99.3756 28.7283 99.5352 28.621C99.6948 28.5071 99.9244 28.4129 100.224 28.3385C100.337 28.3047 100.451 28.2743 100.564 28.2472C100.684 28.2134 100.8 28.1797 100.913 28.1459C101.04 28.1121 101.16 28.1183 101.273 28.1646C101.387 28.2042 101.464 28.2905 101.504 28.4237C101.552 28.5702 101.545 28.6969 101.486 28.8038C101.433 28.904 101.34 28.971 101.207 29.0048C101.12 29.0318 101.027 29.0622 100.927 29.0959C100.827 29.1229 100.74 29.1432 100.667 29.1568C100.461 29.2109 100.331 29.2748 100.278 29.3483C100.225 29.4151 100.202 29.5519 100.209 29.7585L100.211 30.0685L100.991 30.0656C101.124 30.0652 101.234 30.1081 101.321 30.1944C101.415 30.2807 101.462 30.3906 101.462 30.5239C101.463 30.6506 101.416 30.7607 101.323 30.8544C101.237 30.9414 101.127 30.9851 100.994 30.9856L100.234 30.9885L100.257 31.8484L100.997 31.8456C101.13 31.8451 101.241 31.8881 101.328 31.9744C101.421 32.0607 101.468 32.1706 101.469 32.3039C101.469 32.4306 101.423 32.5407 101.33 32.6344C101.244 32.7214 101.134 32.7651 101.001 32.7656L100.281 32.7683L100.304 33.6682L101.794 33.6627L101.788 31.9427C101.787 31.8027 101.833 31.6925 101.926 31.6122C102.019 31.5252 102.129 31.4814 102.256 31.481C102.389 31.4805 102.499 31.5234 102.586 31.6097C102.68 31.6894 102.727 31.7992 102.727 31.9392L102.734 33.6592L103.284 33.6572L103.276 31.6672C103.276 31.4739 103.249 31.3506 103.195 31.2975C103.148 31.2377 103.018 31.2081 102.805 31.2089C102.425 31.2103 102.158 31.1413 102.004 31.0019C101.857 30.8558 101.782 30.586 101.781 30.1927L101.774 28.3627C101.774 28.2094 101.823 28.0859 101.923 27.9922C102.023 27.8985 102.142 27.8514 102.282 27.8508C102.422 27.8503 102.543 27.8965 102.643 27.9895C102.75 28.0824 102.804 28.2056 102.804 28.3589L102.806 28.7989L103.846 28.7951C103.966 28.7946 104.069 28.8376 104.156 28.9239C104.243 29.0036 104.287 29.1034 104.287 29.2234C104.288 29.3434 104.245 29.4469 104.159 29.5339C104.072 29.6209 103.969 29.6646 103.849 29.665L102.809 29.6689L102.81 29.9689C102.811 30.1489 102.845 30.2654 102.911 30.3185C102.978 30.3649 103.108 30.3878 103.302 30.3871C103.615 30.3859 103.845 30.4651 103.993 30.6245C104.147 30.7773 104.224 31.0437 104.226 31.4237L104.234 33.6536L105.684 33.6483L105.701 32.7582L104.951 32.761C104.824 32.7615 104.714 32.7152 104.62 32.6222C104.533 32.5292 104.489 32.4194 104.489 32.2927C104.488 32.166 104.531 32.0592 104.618 31.9722C104.711 31.8785 104.82 31.8315 104.947 31.831L105.717 31.8281L105.724 30.9681L104.944 30.971C104.817 30.9715 104.707 30.9285 104.613 30.8422C104.526 30.7492 104.483 30.6394 104.482 30.5127C104.482 30.3794 104.525 30.2692 104.611 30.1822C104.704 30.0952 104.814 30.0515 104.941 30.051L105.741 30.048L105.749 29.738C105.755 29.5246 105.721 29.3848 105.648 29.3184C105.574 29.2453 105.431 29.2092 105.217 29.21L104.747 29.2117C104.621 29.2122 104.511 29.1659 104.417 29.0729C104.323 28.98 104.276 28.8701 104.276 28.7435C104.275 28.6101 104.321 28.4966 104.414 28.4029C104.507 28.3093 104.617 28.2622 104.744 28.2617L105.284 28.2597C105.691 28.2582 106.004 28.3037 106.224 28.3962C106.451 28.4821 106.609 28.6315 106.696 28.8445C106.784 29.0575 106.821 29.3507 106.809 29.7241L106.744 33.6443L107.144 33.6429C107.284 33.6423 107.401 33.6919 107.494 33.7916C107.595 33.8845 107.645 34.001 107.646 34.141C107.646 34.2743 107.597 34.3912 107.497 34.4916C107.404 34.5852 107.288 34.6323 107.148 34.6329L104.398 34.643C104.431 34.6496 104.464 34.6628 104.498 34.6827C104.538 34.7025 104.571 34.7224 104.598 34.7423C104.798 34.8816 105.036 35.0274 105.31 35.1797C105.583 35.3253 105.864 35.4643 106.151 35.5966C106.445 35.7221 106.705 35.8245 106.932 35.9037C107.086 35.9498 107.189 36.0394 107.243 36.1725C107.304 36.3123 107.308 36.4556 107.255 36.6025C107.189 36.7894 107.073 36.8998 106.906 36.9338C106.746 36.9744 106.583 36.9683 106.416 36.9156ZM109.626 37.0137C109.446 37.041 109.29 37.0116 109.156 36.9254C109.022 36.8459 108.939 36.7196 108.905 36.5464C108.877 36.3731 108.913 36.2297 109.013 36.116C109.113 36.0022 109.246 35.9318 109.412 35.9045C109.592 35.8705 109.795 35.8297 110.022 35.7822C110.255 35.7347 110.501 35.6871 110.761 35.6395L110.757 34.4795C110.497 34.6204 110.235 34.7514 109.968 34.8724C109.709 34.9867 109.453 35.091 109.2 35.1853C109.006 35.2526 108.84 35.2599 108.7 35.2071C108.559 35.1543 108.456 35.048 108.388 34.8883C108.335 34.7485 108.337 34.6118 108.397 34.4782C108.456 34.338 108.583 34.2342 108.776 34.1668C109.368 33.9646 109.921 33.7259 110.433 33.4507C110.952 33.1687 111.404 32.8637 111.79 32.5356L108.8 32.5467C108.666 32.5472 108.553 32.501 108.459 32.408C108.366 32.315 108.319 32.2018 108.318 32.0685C108.318 31.9352 108.364 31.8217 108.457 31.728C108.55 31.6343 108.663 31.5872 108.796 31.5867L112.386 31.5734L112.384 31.0334L109.934 31.0425C109.808 31.043 109.697 30.9967 109.604 30.9037C109.51 30.8107 109.463 30.7009 109.462 30.5742C109.462 30.4476 109.508 30.3407 109.601 30.2537C109.694 30.1601 109.804 30.113 109.931 30.1125L112.381 30.1034L112.379 29.5834L109.139 29.5954C109.012 29.5959 108.902 29.5497 108.808 29.4567C108.715 29.3637 108.668 29.2539 108.667 29.1272C108.667 28.9939 108.713 28.8837 108.806 28.7967C108.899 28.703 109.009 28.6559 109.135 28.6554L112.375 28.6434L112.374 28.2934C112.373 28.1068 112.433 27.9599 112.552 27.8528C112.672 27.739 112.815 27.6818 112.982 27.6812C113.155 27.6805 113.299 27.7367 113.412 27.8496C113.533 27.9558 113.593 28.1023 113.594 28.2889L113.595 28.6389L116.805 28.627C116.939 28.6265 117.049 28.6728 117.136 28.7658C117.229 28.8521 117.277 28.9619 117.277 29.0953C117.278 29.2219 117.231 29.3321 117.138 29.4258C117.052 29.5194 116.942 29.5665 116.809 29.567L113.599 29.5789L113.601 30.0989L116.051 30.0898C116.184 30.0893 116.294 30.1356 116.381 30.2286C116.468 30.3149 116.512 30.4214 116.512 30.5481C116.513 30.6748 116.47 30.7849 116.384 30.8786C116.297 30.9722 116.188 31.0193 116.054 31.0198L113.604 31.0289L113.606 31.5689L117.146 31.5558C117.28 31.5553 117.393 31.6015 117.487 31.6945C117.58 31.7875 117.627 31.9007 117.628 32.034C117.628 32.1673 117.582 32.2808 117.489 32.3745C117.396 32.4682 117.283 32.5153 117.15 32.5158L113.79 32.5282C113.917 32.7544 114.051 32.9739 114.192 33.1867C114.34 33.3929 114.49 33.589 114.644 33.7751C114.804 33.6745 114.977 33.5605 115.163 33.4331C115.356 33.3058 115.536 33.1818 115.702 33.0611C115.875 32.9405 116.008 32.8433 116.101 32.7697C116.22 32.6692 116.36 32.622 116.52 32.6281C116.687 32.6275 116.817 32.6937 116.911 32.8267C117.005 32.953 117.045 33.0895 117.032 33.2362C117.02 33.3829 116.953 33.5032 116.834 33.5969C116.674 33.7175 116.455 33.8684 116.175 34.0494C115.903 34.2237 115.64 34.3847 115.387 34.5323C115.661 34.778 115.952 35.0036 116.26 35.2091C116.574 35.4079 116.901 35.5934 117.242 35.7654C117.375 35.8316 117.469 35.9413 117.523 36.0944C117.577 36.2409 117.564 36.3909 117.485 36.5446C117.399 36.7115 117.266 36.812 117.086 36.846C116.906 36.88 116.732 36.854 116.565 36.768C115.764 36.3443 115.039 35.8069 114.389 35.156C113.74 34.4984 113.228 33.767 112.851 32.9617C112.572 33.2294 112.263 33.4906 111.924 33.7451L111.93 35.3951C112.21 35.3408 112.473 35.2865 112.72 35.2322C112.973 35.1713 113.189 35.1171 113.369 35.0698C113.536 35.0292 113.682 35.0386 113.809 35.0982C113.936 35.1577 114.017 35.2641 114.05 35.4173C114.098 35.5971 114.078 35.7438 113.992 35.8575C113.906 35.9645 113.786 36.0383 113.633 36.0788C113.386 36.1464 113.097 36.2208 112.764 36.3021C112.431 36.39 112.078 36.4779 111.705 36.566C111.338 36.654 110.975 36.7353 110.616 36.81C110.256 36.8847 109.926 36.9526 109.626 37.0137ZM123.017 37.1041C122.857 37.1046 122.717 37.0518 122.596 36.9456C122.482 36.8394 122.425 36.6962 122.425 36.5162L122.421 35.5762L118.801 35.5897C118.654 35.5902 118.541 35.5473 118.461 35.4609C118.38 35.3679 118.34 35.258 118.339 35.1314C118.339 34.998 118.379 34.8879 118.458 34.8009C118.538 34.714 118.651 34.6702 118.798 34.6697L122.418 34.6563L122.416 34.1163L121.706 34.1189C121.292 34.1204 120.956 34.0983 120.695 34.0526C120.435 34.0069 120.232 33.921 120.084 33.7949C119.944 33.6688 119.847 33.4891 119.792 33.256C119.738 33.0228 119.711 32.7229 119.709 32.3563C119.708 31.9896 119.733 31.6929 119.786 31.466C119.838 31.2325 119.934 31.0521 120.074 30.9249C120.22 30.7977 120.423 30.7103 120.683 30.6627C120.943 30.615 121.279 30.5904 121.693 30.5889L124.273 30.5794C124.686 30.5778 125.023 30.5999 125.283 30.6456C125.543 30.6913 125.743 30.7772 125.884 30.9034C126.031 31.0295 126.132 31.2091 126.186 31.4423C126.24 31.6687 126.268 31.9653 126.269 32.332C126.27 32.6986 126.245 32.9987 126.192 33.2323C126.14 33.4658 126.041 33.6462 125.894 33.7734C125.755 33.9005 125.555 33.988 125.295 34.0356C125.036 34.0832 124.699 34.1078 124.286 34.1093L123.586 34.1119L123.588 34.6519L127.218 34.6385C127.364 34.6379 127.478 34.6808 127.558 34.7672C127.638 34.8536 127.679 34.9634 127.679 35.0968C127.68 35.2234 127.64 35.3336 127.561 35.4272C127.481 35.5142 127.368 35.5579 127.221 35.5585L123.591 35.5719L123.595 36.5119C123.595 36.6919 123.539 36.8354 123.426 36.9425C123.313 37.0496 123.177 37.1035 123.017 37.1041ZM125.031 30.2265C124.538 30.2284 124.165 30.1964 123.911 30.1307C123.657 30.065 123.487 29.9456 123.4 29.7726C123.319 29.5995 123.278 29.353 123.277 29.033C123.276 28.713 123.315 28.4662 123.394 28.2926C123.48 28.1189 123.65 28.0016 123.903 27.9407C124.156 27.8731 124.529 27.8384 125.022 27.8366C125.516 27.8347 125.886 27.8667 126.133 27.9324C126.386 27.9915 126.553 28.1075 126.634 28.2806C126.721 28.4536 126.766 28.7001 126.767 29.0201C126.768 29.3401 126.726 29.5869 126.64 29.7606C126.56 29.9342 126.394 30.0548 126.141 30.1224C125.895 30.19 125.525 30.2247 125.031 30.2265ZM120.931 30.2417C120.438 30.2436 120.065 30.2116 119.811 30.1459C119.564 30.0801 119.397 29.9608 119.31 29.7877C119.229 29.6147 119.188 29.3682 119.187 29.0482C119.186 28.7282 119.225 28.4814 119.304 28.3078C119.39 28.1341 119.556 28.0168 119.803 27.9559C120.056 27.8883 120.429 27.8536 120.922 27.8518C121.416 27.8499 121.786 27.8819 122.033 27.9476C122.28 28.0067 122.443 28.1228 122.524 28.2958C122.611 28.4688 122.656 28.7153 122.657 29.0353C122.658 29.3553 122.616 29.6022 122.53 29.7758C122.45 29.9494 122.287 30.07 122.041 30.1376C121.795 30.2052 121.425 30.2399 120.931 30.2417ZM125.028 29.4165C125.315 29.4155 125.495 29.3915 125.568 29.3445C125.648 29.2976 125.687 29.1908 125.687 29.0241C125.686 28.8508 125.642 28.7443 125.556 28.7046C125.476 28.6649 125.299 28.6455 125.025 28.6465C124.739 28.6476 124.556 28.6716 124.476 28.7186C124.403 28.7655 124.366 28.8757 124.367 29.049C124.368 29.2157 124.405 29.3189 124.478 29.3586C124.558 29.3983 124.742 29.4176 125.028 29.4165ZM120.928 29.4317C121.215 29.4307 121.395 29.4067 121.468 29.3597C121.541 29.3128 121.577 29.206 121.577 29.0393C121.576 28.866 121.536 28.7595 121.456 28.7198C121.376 28.6801 121.199 28.6607 120.925 28.6617C120.639 28.6628 120.456 28.6868 120.376 28.7338C120.303 28.7807 120.266 28.8909 120.267 29.0642C120.268 29.2309 120.305 29.3341 120.378 29.3738C120.458 29.4135 120.642 29.4328 120.928 29.4317ZM121.743 33.2687L122.413 33.2663L122.411 32.7363L120.891 32.7419C120.905 32.9752 120.969 33.1216 121.082 33.1812C121.196 33.2408 121.416 33.27 121.743 33.2687ZM123.583 33.2619L124.253 33.2594C124.579 33.2582 124.796 33.2274 124.902 33.167C125.015 33.1066 125.081 32.9597 125.101 32.7263L123.581 32.7319L123.583 33.2619ZM120.888 31.9519L122.408 31.9463L122.406 31.4363L121.736 31.4388C121.409 31.44 121.189 31.4708 121.076 31.5312C120.97 31.5849 120.907 31.7252 120.888 31.9519ZM123.578 31.9419L125.088 31.9363C125.067 31.7097 125 31.57 124.886 31.5171C124.779 31.4575 124.566 31.4283 124.246 31.4295L123.576 31.4319L123.578 31.9419Z" fill="#FE585B"/>
<path d="M73.6048 58.8976C73.317 58.9413 73.0661 58.8942 72.8523 58.7564C72.6385 58.6291 72.5044 58.427 72.4501 58.1498C72.4064 57.8727 72.4642 57.6431 72.6235 57.4612C72.7828 57.2793 72.9957 57.1665 73.2623 57.1228C73.5501 57.0684 73.8751 57.0032 74.2375 56.9272C74.6106 56.8512 75.005 56.775 75.4207 56.6988L75.4138 54.8428C74.9986 55.0684 74.5781 55.2779 74.1521 55.4715C73.7368 55.6544 73.3268 55.8212 72.922 55.9721C72.613 56.0799 72.3464 56.0915 72.1221 56.007C71.8978 55.9225 71.7318 55.7525 71.6242 55.4969C71.5381 55.2732 71.5426 55.0545 71.6378 54.8408C71.733 54.6165 71.935 54.4504 72.2439 54.3426C73.1921 54.0191 74.076 53.6371 74.8957 53.1967C75.726 52.7457 76.4496 52.2576 77.0663 51.7327L72.2823 51.7504C72.069 51.7512 71.8874 51.6772 71.7375 51.5284C71.5876 51.3797 71.5123 51.1986 71.5115 50.9853C71.5107 50.7719 71.5847 50.5903 71.7335 50.4404C71.8823 50.2906 72.0633 50.2152 72.2766 50.2144L78.0206 50.1931L78.0174 49.3291L74.0974 49.3437C73.8948 49.3444 73.7185 49.2704 73.5686 49.1216C73.4187 48.9729 73.3434 48.7971 73.3426 48.5945C73.3419 48.3918 73.4159 48.2209 73.5647 48.0816C73.7135 47.9318 73.8892 47.8564 74.0919 47.8557L78.0119 47.8412L78.0088 47.0092L72.8248 47.0284C72.6222 47.0291 72.4459 46.9551 72.296 46.8063C72.1461 46.6576 72.0708 46.4818 72.0701 46.2792C72.0693 46.0658 72.1433 45.8896 72.2921 45.7503C72.4409 45.6005 72.6166 45.5251 72.8193 45.5244L78.0032 45.5052L78.0011 44.9452C78 44.6465 78.0952 44.4115 78.2865 44.2401C78.4779 44.0581 78.7069 43.9666 78.9735 43.9656C79.2509 43.9645 79.4805 44.0544 79.6625 44.235C79.8552 44.405 79.952 44.6393 79.9531 44.9379L79.9552 45.4979L85.0912 45.4789C85.3045 45.4781 85.4808 45.5521 85.62 45.7009C85.7698 45.8391 85.8452 46.0148 85.846 46.2281C85.8467 46.4308 85.7727 46.6071 85.6239 46.7569C85.4858 46.9068 85.3101 46.9821 85.0967 46.9829L79.9608 47.0019L79.9639 47.8339L83.8838 47.8194C84.0972 47.8186 84.2734 47.8926 84.4127 48.0414C84.5518 48.1796 84.6218 48.35 84.6226 48.5527C84.6233 48.7553 84.5546 48.9316 84.4165 49.0814C84.2784 49.2313 84.1027 49.3066 83.8894 49.3074L79.9694 49.3219L79.9726 50.1859L85.6365 50.1649C85.8499 50.1641 86.0315 50.2381 86.1814 50.3869C86.3313 50.5357 86.4066 50.7167 86.4074 50.9301C86.4082 51.1434 86.3342 51.325 86.1854 51.4749C86.0366 51.6248 85.8556 51.7001 85.6422 51.7009L80.2663 51.7208C80.4703 52.0827 80.6849 52.4339 80.9102 52.7744C81.1461 53.1042 81.3872 53.418 81.6337 53.7158C81.8891 53.5548 82.1657 53.3725 82.4637 53.1687C82.7722 52.9649 83.0595 52.7665 83.3255 52.5735C83.6021 52.3805 83.8148 52.225 83.9637 52.1071C84.1551 51.9464 84.3789 51.8709 84.6349 51.8806C84.9016 51.8796 85.11 51.9855 85.2601 52.1983C85.4102 52.4004 85.475 52.6189 85.4545 52.8536C85.434 53.0884 85.3281 53.2807 85.1366 53.4308C84.8814 53.6237 84.5303 53.865 84.0833 54.1547C83.647 54.4336 83.2266 54.6912 82.8222 54.9274C83.261 55.3204 83.7263 55.6814 84.2182 56.0102C84.7207 56.3283 85.2445 56.6251 85.7895 56.9004C86.0032 57.0063 86.1532 57.1817 86.2395 57.4267C86.3257 57.6611 86.3052 57.9012 86.1781 58.147C86.0405 58.4141 85.8277 58.5749 85.5399 58.6293C85.2521 58.6837 84.9746 58.6421 84.7075 58.5044C83.4249 57.8265 82.2644 56.9668 81.2259 55.9253C80.1873 54.8731 79.367 53.7028 78.7648 52.4144C78.3184 52.8427 77.824 53.2606 77.2815 53.6679L77.2913 56.3079C77.7389 56.2209 78.16 56.134 78.5543 56.0472C78.9593 55.9497 79.3056 55.8631 79.5933 55.7874C79.8598 55.7224 80.0945 55.7375 80.2975 55.8327C80.5005 55.928 80.6292 56.0982 80.6834 56.3433C80.7591 56.631 80.728 56.8658 80.59 57.0477C80.452 57.2188 80.2604 57.3369 80.0153 57.4018C79.6211 57.5099 79.1575 57.629 78.6246 57.759C78.0918 57.8996 77.527 58.0404 76.9302 58.1812C76.3441 58.3221 75.7632 58.4522 75.1876 58.5717C74.6121 58.6912 74.0845 58.7998 73.6048 58.8976ZM93.9068 54.0063C93.6619 54.1245 93.4114 54.1628 93.1553 54.1211C92.9097 54.0686 92.7225 53.92 92.5936 53.6752C92.4861 53.4622 92.464 53.2436 92.5272 53.0194C92.601 52.7844 92.7497 52.6132 92.9733 52.5057C93.5908 52.2048 94.2082 51.8505 94.8253 51.4429C95.4531 51.0245 96.0328 50.5797 96.5644 50.1084C96.3609 49.8745 96.168 49.6405 95.9858 49.4065C95.8036 49.1619 95.6266 48.9065 95.455 48.6405C95.1579 49.0683 94.8553 49.4534 94.5472 49.7959C94.3772 49.9778 94.1643 50.0906 93.9085 50.1343C93.6633 50.1672 93.4497 50.1093 93.2678 49.9606C93.0966 49.8119 92.9999 49.6149 92.9776 49.3697C92.9554 49.1244 93.0293 48.9162 93.1993 48.7449C93.5501 48.4022 93.8899 47.9903 94.2188 47.5091C94.5583 47.0172 94.8711 46.5093 95.1571 45.9856C95.4538 45.4512 95.7026 44.9542 95.9036 44.4948C96.0094 44.2598 96.1741 44.0938 96.3978 43.997C96.6214 43.9002 96.8507 43.8993 97.0858 43.9944C97.3208 44.0896 97.4761 44.2543 97.5516 44.4887C97.6378 44.7231 97.628 44.9471 97.5221 45.1608C97.4797 45.2463 97.4321 45.3425 97.3791 45.4494C97.3368 45.5455 97.2892 45.6417 97.2362 45.7379L99.1562 45.7308C99.6469 45.729 100.031 45.8449 100.31 46.0785C100.588 46.3015 100.749 46.5889 100.793 46.9407C100.837 47.2819 100.747 47.6396 100.525 48.0137C100.323 48.3771 100.101 48.7246 99.8565 49.0562C99.6231 49.3877 99.3736 49.7087 99.1081 50.019C99.6001 50.3798 100.113 50.7139 100.648 51.0213C101.182 51.3286 101.727 51.6039 102.283 51.8472C102.507 51.9531 102.663 52.1338 102.749 52.3895C102.835 52.6345 102.82 52.8799 102.704 53.1257C102.566 53.3929 102.353 53.559 102.065 53.624C101.788 53.6784 101.511 53.6368 101.233 53.4991C100.645 53.2026 100.063 52.8741 99.4853 52.5136C98.908 52.1531 98.3572 51.7604 97.833 51.3357C97.2695 51.8498 96.658 52.3321 95.9983 52.7825C95.3386 53.2223 94.6415 53.6302 93.9068 54.0063ZM90.8207 58.8178C90.5753 58.8187 90.367 58.7394 90.1958 58.5801C90.0352 58.4207 89.9544 58.2076 89.9534 57.941L89.933 52.437C89.7636 52.7683 89.5994 53.0782 89.4404 53.3668C89.2815 53.6554 89.1331 53.9066 88.9952 54.1205C88.8574 54.3343 88.6659 54.4737 88.4208 54.5386C88.1863 54.6035 87.9622 54.567 87.7484 54.4291C87.5453 54.3125 87.4166 54.137 87.3624 53.9025C87.3082 53.6681 87.3501 53.4546 87.488 53.2621C87.6896 52.9733 87.907 52.6258 88.1402 52.2196C88.3733 51.8134 88.6064 51.3912 88.8395 50.953C89.0725 50.5042 89.2842 50.0714 89.4747 49.6547C89.6651 49.2273 89.813 48.8534 89.9185 48.533L88.3025 48.539C88.0465 48.54 87.8436 48.4607 87.6937 48.3013C87.5437 48.1312 87.4683 47.9341 87.4675 47.7101C87.4666 47.4754 87.5405 47.2778 87.6893 47.1173C87.838 46.9567 88.0404 46.876 88.2964 46.875L89.9124 46.869L89.9048 44.8211C89.9037 44.5437 89.9829 44.3301 90.1424 44.1802C90.3125 44.0195 90.5202 43.9388 90.7655 43.9379C91.0108 43.9369 91.2191 44.0162 91.3904 44.1755C91.5616 44.3242 91.6477 44.5373 91.6488 44.8146L91.6563 46.8626L92.9363 46.8578C93.1923 46.8569 93.3953 46.9361 93.5452 47.0956C93.6952 47.255 93.7705 47.4521 93.7714 47.6867C93.7722 47.9107 93.6983 48.1084 93.5496 48.2796C93.4009 48.4401 93.1985 48.5209 92.9425 48.5218L91.6625 48.5266L91.6636 48.8306C91.8136 49.0113 91.9958 49.2347 92.2101 49.5005C92.4244 49.7558 92.6387 50.011 92.853 50.2662C93.0779 50.5107 93.2599 50.7073 93.3992 50.8561C93.5811 51.0261 93.6673 51.2392 93.6575 51.4952C93.6584 51.7405 93.5685 51.9489 93.3878 52.1202C93.2071 52.2915 92.9941 52.367 92.7487 52.3466C92.5033 52.3261 92.3002 52.2256 92.1396 52.0448C92.0753 51.9704 92.0003 51.8853 91.9146 51.7897C91.8396 51.6833 91.7592 51.5769 91.6734 51.4705L91.6974 57.9345C91.6984 58.2012 91.6138 58.4148 91.4438 58.5754C91.2737 58.7361 91.066 58.8168 90.8207 58.8178ZM97.6834 58.4723C96.8194 58.4755 96.1364 58.3927 95.6345 58.2239C95.1326 58.0658 94.7742 57.7898 94.5594 57.3959C94.3552 56.9913 94.2518 56.4317 94.2492 55.717C94.2465 55.0024 94.3458 54.4473 94.547 54.0519C94.7588 53.6458 95.1151 53.3618 95.6159 53.1999C96.1166 53.0274 96.7989 52.9396 97.6629 52.9364C98.5269 52.9332 99.2045 53.016 99.6958 53.1848C100.198 53.343 100.551 53.6243 100.755 54.0289C100.97 54.4228 101.078 54.977 101.081 55.6917C101.084 56.4064 100.979 56.9668 100.767 57.3729C100.566 57.7683 100.215 58.0469 99.7145 58.2088C99.2244 58.3813 98.5474 58.4691 97.6834 58.4723ZM97.6774 56.8563C98.1254 56.8547 98.4613 56.8268 98.6851 56.7726C98.9196 56.7077 99.0738 56.5898 99.1478 56.4189C99.2325 56.2479 99.2743 56.0024 99.2731 55.6824C99.2719 55.3731 99.2284 55.1386 99.1425 54.9789C99.0672 54.8192 98.9121 54.7077 98.6772 54.6446C98.453 54.5814 98.1169 54.5507 97.6689 54.5523C97.2209 54.554 96.8797 54.5873 96.6453 54.6521C96.4215 54.717 96.2673 54.8349 96.1826 55.0059C96.0978 55.1662 96.056 55.3903 96.0571 55.6783C96.0582 55.9983 96.1018 56.2435 96.1878 56.4138C96.2737 56.5842 96.4288 56.701 96.6531 56.7641C96.888 56.8273 97.2294 56.858 97.6774 56.8563ZM97.7918 48.8558C98.0785 48.5135 98.3226 48.1819 98.5241 47.8611C98.7892 47.4335 98.6657 47.2206 98.1537 47.2225L96.5217 47.2285C96.8866 47.8139 97.3099 48.3563 97.7918 48.8558ZM112.9 58.5759C112.207 58.5785 111.827 58.2599 111.76 57.6201C111.727 57.3216 111.801 57.0706 111.982 56.8673C112.162 56.6533 112.439 56.5349 112.812 56.5122C113.281 56.4678 113.58 56.392 113.707 56.2849C113.846 56.1671 113.914 55.9375 113.913 55.5961L113.894 50.6202L110.086 50.6343C109.841 50.6352 109.627 50.5507 109.446 50.3807C109.274 50.2 109.188 49.9816 109.187 49.7256C109.186 49.4803 109.271 49.272 109.441 49.1007C109.621 48.9187 109.834 48.8272 110.08 48.8263L117.616 48.7984C117.861 48.7975 118.069 48.8874 118.241 49.0681C118.423 49.238 118.514 49.4457 118.515 49.691C118.516 49.947 118.426 50.166 118.245 50.348C118.075 50.5193 117.868 50.6054 117.622 50.6064L115.894 50.6128L115.914 55.8127C115.917 56.8154 115.675 57.5256 115.186 57.9434C114.707 58.3612 113.945 58.572 112.9 58.5759ZM107.141 58.7733C106.874 58.7743 106.644 58.6844 106.452 58.5038C106.27 58.3338 106.178 58.1048 106.177 57.8168L106.157 52.4729C105.987 52.6442 105.817 52.8101 105.647 52.9708C105.477 53.1314 105.312 53.276 105.153 53.4046C104.94 53.5867 104.69 53.6943 104.402 53.7274C104.125 53.7497 103.879 53.6493 103.665 53.4261C103.483 53.2455 103.391 53.0218 103.39 52.7551C103.4 52.4884 103.5 52.2694 103.692 52.098C104 51.8409 104.33 51.5356 104.68 51.1823C105.042 50.829 105.403 50.4596 105.764 50.0743C106.126 49.6783 106.46 49.2877 106.768 48.9026C107.087 48.5174 107.347 48.1751 107.548 47.8757C107.697 47.6618 107.904 47.5277 108.171 47.4734C108.437 47.4084 108.677 47.4502 108.891 47.5987C109.137 47.7578 109.277 47.9599 109.309 48.2052C109.353 48.4503 109.301 48.6852 109.152 48.9097C108.845 49.3909 108.489 49.8722 108.085 50.3537L108.113 57.8097C108.114 58.0977 108.019 58.3273 107.828 58.4987C107.647 58.6807 107.418 58.7722 107.141 58.7733ZM110.983 46.5029C110.738 46.5038 110.524 46.4193 110.342 46.2493C110.171 46.0686 110.085 45.8556 110.084 45.6103C110.083 45.3649 110.167 45.1566 110.338 44.9853C110.518 44.8033 110.731 44.7119 110.977 44.711L116.896 44.689C117.142 44.6881 117.35 44.778 117.521 44.9587C117.703 45.1287 117.795 45.3363 117.796 45.5817C117.797 45.827 117.707 46.0407 117.526 46.2227C117.356 46.394 117.148 46.4801 116.903 46.481L110.983 46.5029ZM105.229 48.2043C104.985 48.3545 104.718 48.4195 104.43 48.3992C104.153 48.3683 103.934 48.2357 103.773 48.0017C103.612 47.7783 103.558 47.5331 103.61 47.2663C103.662 46.9887 103.816 46.7802 104.072 46.6406C104.402 46.458 104.774 46.2273 105.189 45.9484C105.604 45.6695 106.008 45.38 106.402 45.0799C106.795 44.7798 107.12 44.5172 107.375 44.2923C107.577 44.1102 107.811 44.024 108.078 44.0337C108.345 44.0434 108.558 44.1386 108.719 44.3193C108.901 44.5106 108.987 44.7397 108.978 45.0064C108.979 45.273 108.883 45.4974 108.692 45.6794C108.394 45.9579 108.044 46.2525 107.639 46.5633C107.246 46.8635 106.836 47.1583 106.411 47.4479C105.996 47.7374 105.602 47.9896 105.229 48.2043ZM121.331 58.2887C121.065 58.439 120.798 58.4826 120.531 58.4196C120.275 58.3566 120.083 58.208 119.954 57.9738C119.825 57.7396 119.792 57.5157 119.855 57.3021C119.929 57.0779 120.083 56.8959 120.317 56.7564C121.094 56.3162 121.77 55.8284 122.344 55.2929C122.928 54.7467 123.428 54.1529 123.841 53.5113C123.691 53.4052 123.499 53.2833 123.264 53.1455C123.029 53.0077 122.793 52.8699 122.558 52.7321C122.323 52.5836 122.12 52.4617 121.949 52.3663C121.843 52.5161 121.731 52.6605 121.615 52.7996C121.508 52.9386 121.397 53.0831 121.28 53.2328C121.11 53.4361 120.903 53.5489 120.657 53.5711C120.412 53.5934 120.177 53.5249 119.953 53.3657C119.76 53.2278 119.653 53.0362 119.631 52.7909C119.619 52.5456 119.682 52.3374 119.82 52.1662C120.5 51.3637 121.067 50.4443 121.522 49.4079C121.987 48.3715 122.309 47.3143 122.486 46.2363L120.518 46.2436C120.262 46.2445 120.059 46.1653 119.909 46.0058C119.759 45.8464 119.684 45.6493 119.683 45.4147C119.682 45.18 119.756 44.9824 119.905 44.8219C120.054 44.6613 120.256 44.5806 120.512 44.5796L127.04 44.5554C127.296 44.5545 127.499 44.6337 127.649 44.7932C127.799 44.9526 127.874 45.1497 127.875 45.3843C127.876 45.619 127.802 45.8166 127.653 45.9771C127.505 46.1377 127.302 46.2184 127.046 46.2194L124.294 46.2296C124.263 46.4964 124.222 46.7685 124.169 47.0461C124.117 47.3236 124.054 47.6012 123.98 47.8788L125.036 47.8749C125.89 47.8717 126.466 48.0882 126.767 48.5245C127.078 48.9606 127.149 49.5844 126.982 50.3957C126.615 52.2104 125.938 53.7702 124.951 55.0752C123.974 56.3695 122.768 57.4407 121.331 58.2887ZM130.644 58.5421C130.367 58.5432 130.132 58.448 129.939 58.2568C129.757 58.0654 129.655 57.8365 129.632 57.5699C129.621 57.2926 129.694 57.0577 129.854 56.8651C130.024 56.6724 130.258 56.5596 130.556 56.5265C130.876 56.4933 131.121 56.4497 131.292 56.3957C131.462 56.3418 131.574 56.2454 131.627 56.1065C131.69 55.9569 131.722 55.7435 131.721 55.4661L131.681 44.8422C131.68 44.5649 131.77 44.3405 131.951 44.1692C132.131 43.9979 132.35 43.9117 132.606 43.9108C132.862 43.9098 133.081 43.9943 133.263 44.1643C133.445 44.3343 133.536 44.558 133.537 44.8353L133.578 55.8273C133.581 56.7979 133.36 57.4921 132.914 57.9097C132.478 58.3273 131.721 58.5382 130.644 58.5421ZM129.224 55.2034C128.968 55.2043 128.749 55.1198 128.567 54.9498C128.395 54.7798 128.309 54.5614 128.308 54.2948L128.278 46.2948C128.277 46.0175 128.362 45.7985 128.532 45.6379C128.713 45.4665 128.931 45.3804 129.187 45.3795C129.432 45.3785 129.646 45.4631 129.828 45.6331C130.01 45.7924 130.101 46.0107 130.102 46.2881L130.132 54.288C130.133 54.5547 130.043 54.7737 129.863 54.945C129.682 55.1164 129.469 55.2025 129.224 55.2034ZM124.667 51.8923C124.762 51.6572 124.847 51.4169 124.921 51.1713C124.994 50.9257 125.063 50.6801 125.126 50.4345C125.21 50.1142 125.198 49.8903 125.091 49.7627C124.995 49.635 124.787 49.5718 124.467 49.573L123.427 49.5768C123.342 49.7905 123.252 50.0042 123.157 50.2178C123.072 50.4208 122.972 50.6239 122.855 50.827C123.016 50.9117 123.208 51.023 123.432 51.1608C123.657 51.288 123.881 51.4205 124.106 51.5583C124.33 51.6855 124.518 51.7968 124.667 51.8923Z" fill="black" fill-opacity="0.85"/>
</g>
<defs>
<radialGradient id="paint0_radial_1720_1944" cx="0" cy="0" r="1" gradientUnits="userSpaceOnUse" gradientTransform="translate(0.558656 46.8353) rotate(65.4889) scale(3.32531 8.21233)">
<stop offset="0.33" stop-opacity="0"/>
<stop offset="0.655" stop-opacity="0.6"/>
<stop offset="1"/>
</radialGradient>
<radialGradient id="paint1_radial_1720_1944" cx="0" cy="0" r="1" gradientUnits="userSpaceOnUse" gradientTransform="translate(355.296 45.8572) rotate(114.511) scale(3.32531 8.21233)">
<stop offset="0.33" stop-opacity="0"/>
<stop offset="0.655" stop-opacity="0.6"/>
<stop offset="1"/>
</radialGradient>
<clipPath id="clip0_1720_1944">
<rect width="200" height="90" fill="white"/>
</clipPath>
</defs>
</svg>
