<svg width="200" height="90" viewBox="0 0 200 90" fill="none" xmlns="http://www.w3.org/2000/svg">
<g clip-path="url(#clip0_1720_1926)">
<rect width="200" height="90" fill="#FEB79D"/>
<path fill-rule="evenodd" clip-rule="evenodd" d="M-6.18027 85.5257C-5.5206 81.3514 -9.94765 77.2571 -7.65473 73.2393C-4.94813 68.4966 -1.65241 61.9915 7.77154 61.0783C17.9972 60.0873 23.5998 68.8258 33.9785 69.2048C45.8176 69.6371 56.5881 60.196 66.8872 63.2371C76.2425 65.9996 70.121 74.0119 68.9752 79.5387C68.1676 83.4341 61.5364 86.4306 61.2669 90.3457C60.8502 96.3973 75.7689 103.853 67.0229 107.895C58.3557 111.9 45.7383 103.802 34.2527 102.83C27.3162 102.243 20.5655 103.925 13.6182 103.373C4.65786 102.66 -7.2514 103.227 -11.7526 99.1698C-16.3208 95.0519 -6.92748 90.2539 -6.18027 85.5257Z" fill="#FE585B"/>
<path fill-rule="evenodd" clip-rule="evenodd" d="M28.4743 10.5302C32.6486 10.8717 36.7429 8.58004 40.7607 9.76696C45.5034 11.168 52.0085 12.874 52.9217 17.7523C53.9127 23.0456 45.1742 25.9458 44.7952 31.3183C44.3629 37.4467 53.804 43.0221 50.7629 48.3534C48.0004 53.1961 39.9881 50.0274 34.4613 49.4342C30.5659 49.0162 27.5694 45.5836 23.6543 45.444C17.6027 45.2284 10.1469 52.9509 6.10508 48.4236C2.09968 43.9371 10.1975 37.4057 11.1701 31.4602C11.7575 27.8695 10.0747 24.3751 10.6274 20.7788C11.3402 16.1405 10.7727 9.97575 14.8302 7.64571C18.9481 5.281 23.7461 10.1434 28.4743 10.5302Z" fill="#FC7443"/>
<path fill-rule="evenodd" clip-rule="evenodd" d="M173.474 4.53021C177.649 4.87169 181.743 2.58004 185.761 3.76696C190.503 5.16803 197.008 6.87405 197.922 11.7523C198.913 17.0456 190.174 19.9458 189.795 25.3183C189.363 31.4467 198.804 37.0221 195.763 42.3534C193 47.1961 184.988 44.0274 179.461 43.4342C175.566 43.0162 172.569 39.5836 168.654 39.444C162.603 39.2284 155.147 46.9509 151.105 42.4236C147.1 37.9371 155.198 31.4057 156.17 25.4602C156.757 21.8695 155.075 18.3751 155.627 14.7788C156.34 10.1405 155.773 3.97575 159.83 1.64571C163.948 -0.719004 168.746 4.14342 173.474 4.53021Z" fill="#FF8787"/>
<path fill-rule="evenodd" clip-rule="evenodd" d="M117.063 7.20494C131.49 7.9797 144.155 11.9054 154.996 17.5775C166.733 23.7188 176.896 30.8598 179.688 39.9711C183.097 51.0949 184.354 63.7453 171.749 72.2549C158.691 81.0707 136.857 81.4742 117.063 82.2497C95.2362 83.1048 71.8992 84.7511 54.6033 76.8446C35.6156 68.1646 20.8565 53.9771 24.5773 39.9711C28.0889 26.7526 52.1053 19.9805 71.5388 13.0955C85.3864 8.18958 100.98 6.34119 117.063 7.20494Z" fill="#FFAB7A"/>
<ellipse cx="177.987" cy="70.7269" rx="16.7876" ry="14.0511" fill="#F55A57"/>
<ellipse cx="173.711" cy="65.6395" rx="1.21537" ry="2.15126" fill="black"/>
<ellipse cx="182.286" cy="65.6395" rx="1.21537" ry="2.15126" fill="black"/>
<path d="M173.043 72.6445C173.079 74.5722 175.312 76.0937 178.031 76.0428C180.749 75.9919 182.924 74.388 182.888 72.4603C182.852 70.5326 180.67 71.7825 177.952 71.8334C175.233 71.8843 173.007 70.7168 173.043 72.6445Z" fill="black"/>
<path d="M170.796 50.9035C173.677 48.6452 180.1 51.1915 180.1 55.0219C180.101 59.542 168.086 61.6232 165.801 61.9782C165.552 62.0169 165.303 62.044 165.054 62.039C163.425 62.0062 157.615 61.2375 170.796 50.9035Z" fill="#6E5232"/>
<path d="M170.796 50.9035C173.677 48.6452 180.1 51.1915 180.1 55.0219C180.101 59.542 168.086 61.6232 165.801 61.9782C165.552 62.0169 165.303 62.044 165.054 62.039C163.425 62.0062 157.615 61.2375 170.796 50.9035Z" fill="url(#paint0_radial_1720_1926)" fill-opacity="0.15"/>
<path d="M185.2 50.7629C182.319 48.5045 175.896 51.0509 175.896 54.8813C175.896 59.4014 187.91 61.4825 190.195 61.8375C190.445 61.8763 190.693 61.9034 190.942 61.8984C192.571 61.8656 198.381 61.0968 185.2 50.7629Z" fill="#6E5232"/>
<path d="M185.2 50.7629C182.319 48.5045 175.896 51.0509 175.896 54.8813C175.896 59.4014 187.91 61.4825 190.195 61.8375C190.445 61.8763 190.693 61.9034 190.942 61.8984C192.571 61.8656 198.381 61.0968 185.2 50.7629Z" fill="url(#paint1_radial_1720_1926)" fill-opacity="0.15"/>
<path d="M79.567 37.2451C79.1138 37.2868 78.8565 37.1244 78.7952 36.758C78.7679 36.5847 78.8073 36.4312 78.9135 36.2975C79.0263 36.1638 79.1861 36.0898 79.3927 36.0757C80.0458 36.02 80.6888 35.9209 81.3216 35.7786C81.9611 35.6362 82.5637 35.4606 83.1296 35.2519C83.0627 35.1721 82.9924 35.0891 82.9187 35.0027C82.8451 34.9163 82.7881 34.8498 82.748 34.8033C82.5806 34.6106 82.5499 34.4107 82.6558 34.2036C82.0835 34.4858 81.5143 34.7145 80.9483 34.89C80.7419 34.9574 80.5585 34.9581 80.3983 34.892C80.2447 34.8192 80.1376 34.6963 80.0769 34.5232C80.0163 34.3501 80.0324 34.1934 80.1252 34.053C80.2246 33.906 80.3709 33.8054 80.5641 33.7514C80.917 33.6567 81.2899 33.5254 81.6826 33.3572C82.0753 33.1824 82.4646 32.9877 82.8504 32.7729C83.2363 32.5515 83.5955 32.3235 83.9279 32.0889C84.267 31.8476 84.5495 31.6099 84.7753 31.3758C84.928 31.2219 85.0878 31.1446 85.2544 31.144C85.4278 31.1433 85.5746 31.1995 85.6951 31.3123C85.8155 31.4319 85.8727 31.5684 85.8666 31.7217C85.8671 31.875 85.811 32.0086 85.6981 32.1223C85.5719 32.2495 85.439 32.3733 85.2994 32.4938L86.0194 32.4912C86.3461 32.4899 86.6096 32.549 86.8101 32.6682C87.0105 32.7808 87.1444 32.9303 87.2118 33.1167C87.2858 33.3031 87.2899 33.5065 87.224 33.7267C87.1648 33.9403 87.0356 34.1474 86.8363 34.3481C86.4578 34.7362 86.0024 35.0912 85.4703 35.4132C84.9381 35.7352 84.3525 36.0207 83.7134 36.2697C83.081 36.5187 82.4118 36.7246 81.7057 36.8872C81.0063 37.0564 80.2934 37.1757 79.567 37.2451ZM79.3436 33.6259C79.1504 33.6733 78.9771 33.6639 78.8235 33.5978C78.6699 33.5317 78.5661 33.4121 78.5121 33.239C78.4649 33.0725 78.4843 32.9224 78.5705 32.7888C78.6566 32.6484 78.7996 32.5546 78.9994 32.5072C79.5123 32.3919 80.0118 32.2434 80.4978 32.0616C80.9905 31.8798 81.4531 31.6814 81.8856 31.4665L81.4841 31.068C81.3101 30.8953 81.2561 30.7088 81.322 30.5085C81.0959 30.6561 80.8664 30.7969 80.6336 30.9311C80.4074 31.0586 80.1812 31.1795 79.9549 31.2936C79.7686 31.381 79.5887 31.4083 79.4152 31.3756C79.2485 31.3429 79.1281 31.2567 79.0543 31.117C78.967 30.9639 78.9531 30.8107 79.0126 30.6571C79.072 30.4969 79.1849 30.3798 79.3513 30.3059C79.7839 30.1042 80.2196 29.8626 80.6586 29.581C81.0976 29.2994 81.5065 29.0012 81.8853 28.6864C82.2708 28.3717 82.593 28.0772 82.852 27.8029C82.9849 27.669 83.1313 27.5985 83.2912 27.5912C83.4579 27.5773 83.6014 27.6234 83.7218 27.7296C83.8355 27.8359 83.896 27.9623 83.9032 28.109C83.917 28.2556 83.8709 28.3858 83.7646 28.4995C83.7447 28.5262 83.7215 28.553 83.6949 28.5797C83.675 28.5998 83.6551 28.6199 83.6351 28.64L84.4851 28.6368C84.8651 28.6354 85.1555 28.7277 85.3562 28.9136C85.5635 29.0928 85.6577 29.3225 85.6387 29.6025C85.6198 29.8826 85.4641 30.1665 85.1719 30.4543C84.4744 31.1435 83.64 31.76 82.6687 32.3036C81.704 32.8405 80.5957 33.2813 79.3436 33.6259ZM84.3976 34.6972C84.6504 34.5629 84.8833 34.4287 85.0961 34.2946C85.3156 34.1538 85.5084 34.0097 85.6745 33.8624C85.8074 33.7419 85.8604 33.6451 85.8334 33.5718C85.8065 33.4986 85.7064 33.4623 85.533 33.463L83.973 33.4687C83.8866 33.5224 83.7968 33.5794 83.7037 33.6397C83.6105 33.6934 83.5174 33.7471 83.4243 33.8008C83.5643 33.8203 83.6879 33.8898 83.795 34.0094C83.862 34.0892 83.9557 34.1988 84.0763 34.3384C84.2034 34.4712 84.3105 34.5908 84.3976 34.6972ZM83.0731 30.7821C83.492 30.5005 83.8543 30.2158 84.1599 29.928C84.2861 29.8076 84.3358 29.714 84.3089 29.6475C84.2819 29.5742 84.1818 29.5379 84.0085 29.5386L82.6585 29.5436C82.5654 29.6173 82.4657 29.6943 82.3593 29.7747C82.2596 29.8551 82.1566 29.9321 82.0502 30.0058C82.1969 30.012 82.3304 30.0715 82.4509 30.1844C82.5244 30.2508 82.6214 30.3437 82.7419 30.4633C82.869 30.5828 82.9794 30.6891 83.0731 30.7821ZM94.5666 37.0995C94.4132 37.1001 94.2797 37.0472 94.166 36.941C94.0589 36.8414 94.0051 36.7082 94.0045 36.5416L93.9987 34.9716C93.7331 35.2592 93.4308 35.5437 93.0918 35.825C92.7595 36.1062 92.4371 36.3507 92.1245 36.5586C91.9782 36.6458 91.8283 36.683 91.675 36.6702C91.5216 36.6641 91.4014 36.5979 91.3142 36.4716C91.2271 36.3585 91.1933 36.232 91.2128 36.0919C91.2389 35.9452 91.3119 35.8349 91.4316 35.7611C91.6578 35.6269 91.8905 35.4694 92.1298 35.2885C92.3758 35.1009 92.6084 34.9101 92.8277 34.7159C93.0536 34.5151 93.2496 34.3277 93.4156 34.1537L92.0956 34.1586C91.9556 34.1592 91.8355 34.1129 91.7351 34.02C91.6414 33.9203 91.5943 33.8005 91.5938 33.6605C91.5933 33.5272 91.6396 33.4137 91.7325 33.32C91.8322 33.2196 91.952 33.1692 92.092 33.1686L93.992 33.1616L93.9898 32.5716C93.6163 32.5463 93.3295 32.4841 93.1291 32.3848C92.9287 32.2855 92.7915 32.1394 92.7175 31.9463C92.6434 31.7466 92.6058 31.4901 92.6046 31.1767L92.599 29.6767L92.049 29.6788C91.9224 29.6793 91.8089 29.633 91.7085 29.54C91.6148 29.4471 91.5678 29.3339 91.5673 29.2006C91.5668 29.0672 91.613 28.9537 91.706 28.86C91.8057 28.7663 91.9188 28.7193 92.0455 28.7188L92.5955 28.7168L92.5939 28.2968C92.5933 28.1234 92.6461 27.9899 92.7524 27.8962C92.8587 27.7958 92.9852 27.7453 93.1319 27.7448C93.2852 27.7442 93.4154 27.7937 93.5224 27.8933C93.6294 27.9862 93.6833 28.1194 93.6839 28.2927L93.6855 28.7127L95.4055 28.7063L95.4039 28.2963C95.4033 28.123 95.4561 27.9861 95.5624 27.8857C95.6754 27.7853 95.8085 27.7348 95.9619 27.7343C96.1152 27.7337 96.2454 27.7832 96.3524 27.8828C96.4661 27.9824 96.5233 28.1189 96.5239 28.2922L96.5255 28.7022L97.1155 28.7C97.2488 28.6995 97.3623 28.7458 97.456 28.8387C97.5496 28.9317 97.5967 29.0449 97.5972 29.1782C97.5977 29.3115 97.5515 29.4251 97.4585 29.5187C97.3655 29.6124 97.2523 29.6595 97.119 29.66L96.529 29.6622L96.5346 31.1622C96.5358 31.4822 96.4967 31.7423 96.4175 31.9426C96.3448 32.1362 96.2054 32.2834 95.9991 32.3842C95.7928 32.4783 95.4963 32.5394 95.1098 32.5675L95.112 33.1575L97.1819 33.1498C97.3153 33.1493 97.4288 33.1989 97.5225 33.2985C97.6228 33.3915 97.6733 33.5046 97.6738 33.638C97.6743 33.778 97.6247 33.8981 97.5251 33.9985C97.4321 34.0922 97.3189 34.1393 97.1856 34.1398L95.7556 34.1451C95.9095 34.2978 96.0868 34.4639 96.2875 34.6431C96.4948 34.8157 96.7054 34.9849 96.9194 35.1508C97.14 35.31 97.3471 35.4492 97.5409 35.5685C97.6679 35.648 97.745 35.7677 97.7722 35.9276C97.7995 36.0808 97.7667 36.2176 97.6738 36.338C97.5676 36.4717 97.4345 36.5489 97.2746 36.5695C97.1214 36.59 96.9779 36.5506 96.8442 36.4511C96.5567 36.2388 96.2558 35.9932 95.9414 35.7144C95.6337 35.4355 95.3594 35.1566 95.1183 34.8774L95.1245 36.5374C95.1251 36.7041 95.0689 36.8376 94.956 36.9381C94.8497 37.0451 94.7199 37.0989 94.5666 37.0995ZM88.7152 36.7512C88.5948 36.645 88.5344 36.5185 88.5338 36.3719C88.5333 36.2252 88.5862 36.1017 88.6925 36.0013C89.1774 35.5328 89.5722 35.0347 89.8769 34.5069C89.8368 34.4804 89.7967 34.4572 89.7567 34.4373C89.7232 34.4108 89.6865 34.3842 89.6464 34.3577C89.359 34.1588 89.1416 33.9796 88.9944 33.8201C88.8538 33.654 88.7731 33.4643 88.7523 33.251C88.7381 33.0311 88.7671 32.7476 88.8391 32.4007C88.8916 32.1738 88.9374 31.9403 88.9765 31.7002C89.0223 31.46 89.0681 31.2165 89.1138 30.9697L88.6938 30.9712C88.5605 30.9717 88.4436 30.9222 88.3433 30.8225C88.2495 30.7162 88.2024 30.5964 88.2019 30.463C88.2014 30.3297 88.2477 30.2129 88.3406 30.1125C88.4402 30.0055 88.5567 29.9517 88.69 29.9512L89.27 29.9491C89.309 29.6623 89.3446 29.3821 89.3769 29.1087C89.4159 28.8352 89.445 28.5818 89.4641 28.3484C89.4834 28.1683 89.5463 28.0414 89.6527 27.9677C89.7657 27.8939 89.8956 27.8634 90.0423 27.8762C90.1891 27.889 90.3093 27.9452 90.403 28.0449C90.5033 28.1445 90.5405 28.2844 90.5145 28.4645C90.4887 28.6779 90.4562 28.9113 90.4171 29.1648C90.3781 29.4183 90.339 29.6785 90.3 29.9453C90.8467 29.9499 91.2304 30.0585 91.4512 30.271C91.6787 30.4835 91.7768 30.8731 91.7456 31.4399C91.7209 31.9667 91.6593 32.4569 91.561 32.9106C91.4693 33.3576 91.3476 33.7781 91.1957 34.172C91.3227 34.2582 91.4363 34.3411 91.5366 34.4207C91.6436 34.5003 91.7338 34.5733 91.8074 34.6397C91.9412 34.7459 92.005 34.879 91.9989 35.039C91.9928 35.1924 91.9333 35.3326 91.8205 35.4597C91.7209 35.5667 91.5944 35.6238 91.4411 35.6311C91.2944 35.6316 91.1642 35.5788 91.0505 35.4725C90.997 35.4194 90.9401 35.3663 90.8799 35.3132C90.8197 35.2534 90.7628 35.2003 90.7093 35.1538C90.5503 35.421 90.3746 35.6817 90.1822 35.9357C89.9898 36.1898 89.7774 36.4373 89.545 36.6781C89.4387 36.7985 89.3057 36.8657 89.1457 36.8796C88.9858 36.9002 88.8423 36.8574 88.7152 36.7512ZM90.3134 33.5652C90.4256 33.2448 90.5143 32.9112 90.5797 32.5643C90.6451 32.2173 90.6904 31.8505 90.7157 31.4637C90.7282 31.257 90.6977 31.1238 90.6242 31.0641C90.5573 30.9977 90.4138 30.9649 90.1938 30.9657L90.1338 30.9659C90.0816 31.2728 90.0294 31.5696 89.9771 31.8565C89.9248 32.1433 89.8758 32.3969 89.8299 32.617C89.7972 32.7838 89.7844 32.9172 89.7914 33.0172C89.7984 33.1105 89.8354 33.1937 89.9023 33.2668C89.9759 33.3332 90.0862 33.4161 90.2333 33.5155L90.3134 33.5652ZM93.6911 30.2227L95.4111 30.2163L95.409 29.6663L93.689 29.6727L93.6911 30.2227ZM94.5563 31.6295C94.8096 31.6286 94.9963 31.6179 95.1162 31.5974C95.2427 31.5703 95.3226 31.52 95.3556 31.4465C95.3953 31.3664 95.4149 31.253 95.4144 31.1063L95.4142 31.0763L93.6943 31.0827L93.6944 31.1127C93.6949 31.2594 93.712 31.3726 93.7456 31.4525C93.7859 31.5257 93.8661 31.5754 93.9862 31.6016C94.1129 31.6211 94.303 31.6304 94.5563 31.6295ZM99.4364 37.0415C99.3097 37.0419 99.1996 36.999 99.1059 36.9127C99.0123 36.833 98.9652 36.7199 98.9646 36.5732L98.9509 32.8632C98.9505 32.7499 98.9601 32.6499 98.9798 32.5631C98.9531 32.5699 98.9265 32.5766 98.8999 32.5834C98.8799 32.5835 98.8565 32.5836 98.8299 32.5837C98.7032 32.5841 98.593 32.5445 98.4994 32.4649C98.4058 32.3786 98.3587 32.2621 98.3581 32.1154L98.3557 31.4654C98.3548 31.2121 98.3941 31.0186 98.4736 30.885C98.5597 30.7513 98.6994 30.6608 98.8926 30.6134L98.8867 29.0234C98.8852 28.6301 98.9675 28.3531 99.1336 28.1925C99.2996 28.0252 99.576 27.9409 99.9627 27.9394L100.953 27.9358C101.346 27.9343 101.623 28.0166 101.784 28.1827C101.944 28.3421 102.025 28.6185 102.027 29.0118L102.033 30.6218C102.206 30.6678 102.33 30.7574 102.404 30.8904C102.484 31.0234 102.525 31.21 102.526 31.45L102.528 32.1C102.529 32.2466 102.482 32.3635 102.389 32.4505C102.296 32.5308 102.183 32.5712 102.05 32.5717C102.023 32.5718 102 32.5719 101.98 32.572C101.96 32.5654 101.936 32.5588 101.91 32.5523C101.923 32.5989 101.93 32.6488 101.93 32.7022C101.93 32.7488 101.931 32.7988 101.931 32.8522L101.942 35.9522C101.944 36.2922 101.865 36.5491 101.705 36.723C101.546 36.897 101.293 36.9912 100.946 37.0059C100.8 37.0131 100.673 36.9802 100.566 36.9073C100.466 36.8343 100.405 36.7312 100.385 36.5979C100.364 36.4713 100.384 36.3579 100.443 36.2577C100.51 36.1575 100.603 36.0971 100.723 36.0767C100.843 36.0629 100.923 36.0326 100.962 35.9858C101.002 35.939 101.022 35.8556 101.022 35.7356L101.019 35.0956L99.8892 35.0998L99.8946 36.5698C99.8952 36.7164 99.8523 36.8299 99.7659 36.9102C99.6796 36.9972 99.5697 37.041 99.4364 37.0415ZM102.836 36.8189C102.709 36.8193 102.609 36.7764 102.535 36.69C102.461 36.6102 102.424 36.5137 102.424 36.4004C102.424 36.287 102.46 36.1902 102.533 36.11C102.606 36.023 102.706 35.9793 102.832 35.9789L103.902 35.9749C103.869 35.8817 103.832 35.7885 103.791 35.6953C103.758 35.6021 103.727 35.5289 103.701 35.4756C103.667 35.3824 103.663 35.2924 103.69 35.2057C103.723 35.1122 103.779 35.042 103.859 34.995C103.592 34.9627 103.402 34.8734 103.288 34.7272C103.174 34.5742 103.116 34.3411 103.115 34.0278C103.114 33.6611 103.19 33.4042 103.342 33.2569C103.502 33.1097 103.765 33.0354 104.132 33.034L106.072 33.0268C106.438 33.0255 106.698 33.0978 106.852 33.2439C107.013 33.39 107.094 33.6464 107.095 34.013C107.096 34.3264 107.041 34.5599 106.928 34.7137C106.815 34.8608 106.629 34.9514 106.369 34.9857C106.429 35.0389 106.473 35.1054 106.5 35.1853C106.526 35.2585 106.523 35.3418 106.49 35.4353C106.477 35.482 106.451 35.5554 106.411 35.6556C106.372 35.7557 106.332 35.8592 106.292 35.966L107.312 35.9623C107.446 35.9618 107.546 36.0047 107.613 36.0911C107.687 36.1709 107.724 36.2674 107.724 36.3807C107.724 36.4941 107.688 36.5909 107.615 36.6711C107.549 36.758 107.449 36.8018 107.316 36.8022L102.836 36.8189ZM104.116 31.5241C103.629 31.5259 103.289 31.4371 103.095 31.2579C102.908 31.0785 102.813 30.7556 102.811 30.2889L102.809 29.7589C102.808 29.2989 102.9 28.9786 103.086 28.7979C103.279 28.6172 103.612 28.5259 104.085 28.5242L104.083 27.9742C104.082 27.8542 104.119 27.764 104.192 27.7038C104.265 27.6368 104.355 27.6032 104.461 27.6028C104.561 27.6024 104.648 27.6354 104.722 27.7018C104.795 27.7615 104.832 27.8514 104.833 27.9714L104.835 28.5114L105.285 28.5097L105.283 27.9697C105.282 27.8497 105.319 27.7596 105.392 27.6993C105.465 27.6324 105.551 27.5987 105.651 27.5984C105.758 27.598 105.848 27.631 105.922 27.6974C105.995 27.7571 106.032 27.8469 106.033 27.9669L106.035 28.5069C106.521 28.5118 106.858 28.6039 107.046 28.7832C107.24 28.9558 107.338 29.2754 107.339 29.7421L107.341 30.2721C107.343 30.7388 107.248 31.0625 107.055 31.2432C106.869 31.4239 106.529 31.5151 106.036 31.517L104.116 31.5241ZM102.96 32.6984C102.834 32.6988 102.733 32.6592 102.66 32.5795C102.586 32.4931 102.549 32.3932 102.549 32.2799C102.548 32.1666 102.585 32.0698 102.658 31.9895C102.731 31.9025 102.831 31.8588 102.957 31.8584L107.187 31.8427C107.321 31.8422 107.424 31.8851 107.498 31.9715C107.571 32.0513 107.608 32.1478 107.609 32.2611C107.609 32.3745 107.573 32.4746 107.5 32.5615C107.427 32.6418 107.324 32.6822 107.19 32.6827L102.96 32.6984ZM104.426 34.3329L105.786 34.3279C105.9 34.3275 105.98 34.3072 106.026 34.267C106.079 34.2268 106.106 34.1434 106.105 34.0167C106.105 33.8834 106.078 33.8001 106.024 33.767C105.977 33.7272 105.897 33.7075 105.784 33.7079L104.424 33.7129C104.304 33.7134 104.221 33.7337 104.174 33.7739C104.128 33.8074 104.105 33.8908 104.105 34.0241C104.106 34.1508 104.129 34.234 104.176 34.2739C104.223 34.3137 104.306 34.3334 104.426 34.3329ZM99.7124 30.5704L100.092 30.569L100.09 30.009C100.089 29.689 100.148 29.4721 100.268 29.3583C100.394 29.2378 100.617 29.177 100.937 29.1758L101.197 29.1749C101.197 29.0015 101.163 28.8917 101.096 28.8452C101.036 28.7921 100.916 28.7659 100.736 28.7666L100.176 28.7687C99.9891 28.7693 99.8625 28.7998 99.7961 28.8601C99.7363 28.9136 99.7067 29.0371 99.7074 29.2304L99.7124 30.5704ZM99.2978 32.0219C99.3842 31.9683 99.4874 31.9312 99.6074 31.9108C99.7273 31.8837 99.8639 31.8698 100.017 31.8693L100.867 31.8661C101.021 31.8655 101.157 31.8784 101.277 31.9046C101.397 31.9241 101.501 31.9604 101.588 32.0134L101.587 31.7934C101.586 31.6134 101.559 31.5035 101.506 31.4637C101.452 31.4173 101.332 31.3944 101.145 31.3951L99.7455 31.4003C99.5588 31.401 99.4356 31.4248 99.3757 31.4716C99.3226 31.5185 99.2963 31.6353 99.297 31.8219L99.2978 32.0219ZM104.812 35.9715L105.342 35.9696C105.382 35.8561 105.428 35.7192 105.481 35.559C105.534 35.3922 105.573 35.2654 105.6 35.1786C105.613 35.1452 105.626 35.1152 105.639 35.0884C105.659 35.055 105.682 35.0283 105.709 35.0082L104.439 35.0129C104.499 35.066 104.546 35.1325 104.58 35.2124C104.613 35.2923 104.65 35.3921 104.691 35.512C104.731 35.6318 104.765 35.7384 104.792 35.8316C104.805 35.8582 104.812 35.8815 104.812 35.9015C104.812 35.9215 104.812 35.9449 104.812 35.9715ZM99.8866 34.3898L101.017 34.3856L101.015 33.8656L99.8846 33.8698L99.8866 34.3898ZM99.882 33.1598L101.012 33.1556L101.012 33.0356C101.011 32.8623 100.984 32.7557 100.93 32.7159C100.884 32.6761 100.777 32.6565 100.61 32.6571L100.28 32.6583C100.12 32.6589 100.014 32.6793 99.9604 32.7195C99.9072 32.7597 99.8809 32.8664 99.8816 33.0398L99.882 33.1598ZM100.792 30.5664L101.212 30.5648L101.21 29.8448L101.05 29.8454C100.95 29.8458 100.88 29.8661 100.84 29.9062C100.807 29.9397 100.79 30.0064 100.791 30.1064L100.792 30.5664ZM104.843 30.8214L105.293 30.8197L105.292 30.3297L104.842 30.3314L104.843 30.8214ZM104.839 29.6914L105.289 29.6897L105.287 29.2097L104.837 29.2114L104.839 29.6914ZM106.043 30.8169C106.237 30.8162 106.363 30.7857 106.423 30.7255C106.483 30.6586 106.512 30.5285 106.512 30.3352L106.512 30.3252L106.042 30.3269L106.043 30.8169ZM106.039 29.6869L106.509 29.6852C106.502 29.4919 106.468 29.3653 106.408 29.3056C106.348 29.2458 106.224 29.2129 106.037 29.2069L106.039 29.6869ZM104.093 30.8241L104.092 30.3342L103.642 30.3358L103.642 30.3458C103.642 30.5325 103.673 30.659 103.733 30.7255C103.793 30.7853 103.913 30.8181 104.093 30.8241ZM103.639 29.6958L104.089 29.6942L104.087 29.2142C103.907 29.2215 103.788 29.2553 103.728 29.3155C103.675 29.3757 103.645 29.5025 103.639 29.6958ZM108.96 29.8961L116.47 29.8683L116.474 31.0483L110.184 31.0716L110.207 37.0615L108.987 37.0661L108.96 29.8961ZM115.85 29.8706L117.07 29.866L117.091 35.636C117.094 36.276 116.975 36.6264 116.546 36.818C116.116 37.0096 115.486 37.032 114.616 37.0352C114.575 36.6853 114.383 36.146 114.212 35.8167C114.762 35.8446 115.442 35.8421 115.632 35.8314C115.812 35.8307 115.872 35.7705 115.871 35.6205L115.85 29.8706ZM110.753 28.0694L112.993 28.0611L112.997 29.1111L110.757 29.1194L110.753 28.0694ZM112.213 28.064L113.493 28.0593C113.593 30.6289 114.171 32.7368 116.044 33.6399C115.785 33.8808 115.377 34.3724 115.188 34.6931C113.213 33.5304 112.545 31.2428 112.405 28.6033L112.215 28.604L112.213 28.064ZM112.311 30.1637L113.412 30.3496C113.079 32.4509 112.315 33.9337 110.748 34.7795C110.587 34.5001 110.195 34.0116 109.954 33.8124C111.322 33.1574 112.067 31.8846 112.311 30.1637ZM122.396 36.9464C121.896 36.9482 121.496 36.8964 121.196 36.7908C120.895 36.6919 120.678 36.5161 120.544 36.2632C120.409 36.0104 120.341 35.6606 120.34 35.214C120.338 34.7673 120.403 34.4171 120.536 34.1632C120.668 33.9094 120.884 33.7319 121.184 33.6308C121.483 33.523 121.883 33.4682 122.383 33.4664L123.663 33.4616C124.163 33.4598 124.563 33.5116 124.864 33.6172C125.164 33.7161 125.382 33.8919 125.516 34.1448C125.65 34.3976 125.718 34.7474 125.72 35.194C125.721 35.6407 125.656 35.9909 125.524 36.2448C125.391 36.4986 125.175 36.676 124.876 36.7772C124.576 36.8849 124.176 36.9398 123.676 36.9416L122.396 36.9464ZM119.184 30.9982C119.024 30.9988 118.887 30.9493 118.774 30.8497C118.667 30.7501 118.613 30.6137 118.612 30.4403L118.611 30.1203C118.609 29.6003 118.731 29.2332 118.977 29.019C119.229 28.798 119.659 28.6864 120.266 28.6842L122.336 28.6765L122.333 28.0865C122.333 27.8932 122.392 27.7463 122.512 27.6459C122.638 27.5454 122.784 27.4948 122.951 27.4942C123.124 27.4936 123.271 27.543 123.392 27.6426C123.519 27.7421 123.583 27.8886 123.583 28.0819L123.586 28.6719L125.726 28.664C126.332 28.6617 126.759 28.7701 127.007 28.9892C127.261 29.2016 127.389 29.5678 127.391 30.0878L127.392 30.4078C127.393 30.5811 127.336 30.718 127.224 30.8184C127.111 30.9188 126.974 30.9693 126.814 30.9699C126.654 30.9705 126.517 30.9244 126.404 30.8315C126.29 30.7385 126.233 30.6054 126.232 30.4321L126.231 30.1621C126.23 29.9754 126.183 29.8423 126.09 29.7626C126.003 29.6829 125.836 29.6436 125.589 29.6445L120.409 29.6637C120.163 29.6646 119.993 29.7052 119.9 29.7856C119.807 29.8659 119.76 29.9994 119.761 30.1861L119.762 30.4561C119.763 30.6294 119.707 30.7629 119.594 30.8567C119.481 30.9505 119.344 30.9976 119.184 30.9982ZM119.188 34.7582C119.022 34.8522 118.859 34.8828 118.698 34.85C118.538 34.8173 118.411 34.7244 118.317 34.5715C118.23 34.4184 118.213 34.2718 118.266 34.1316C118.319 33.9914 118.428 33.8777 118.594 33.7904C118.974 33.5957 119.363 33.3709 119.762 33.1161C120.161 32.8546 120.55 32.5832 120.929 32.3018C121.315 32.0137 121.664 31.7324 121.976 31.4579C122.295 31.17 122.614 31.0255 122.934 31.0243C123.261 31.0231 123.588 31.1519 123.916 31.4107C124.223 31.6495 124.567 31.8983 124.948 32.1569C125.336 32.4154 125.74 32.6639 126.161 32.9024C126.582 33.1408 126.993 33.356 127.394 33.5478C127.547 33.6206 127.658 33.7335 127.725 33.8866C127.792 34.033 127.783 34.1864 127.697 34.3467C127.611 34.5137 127.478 34.6242 127.298 34.6782C127.125 34.7255 126.948 34.7028 126.768 34.6101C126.393 34.4049 126.003 34.1763 125.595 33.9245C125.187 33.6726 124.793 33.4141 124.412 33.1489C124.038 32.8769 123.7 32.6148 123.399 32.3626C123.245 32.2298 123.105 32.167 122.979 32.1742C122.859 32.1746 122.722 32.2418 122.569 32.3757C122.27 32.6301 121.931 32.9014 121.552 33.1895C121.18 33.4708 120.791 33.7489 120.385 34.0238C119.98 34.292 119.581 34.5368 119.188 34.7582ZM122.392 35.8864L123.672 35.8816C124.032 35.8803 124.265 35.8327 124.372 35.739C124.485 35.6453 124.541 35.4651 124.54 35.1984C124.539 34.9251 124.481 34.7453 124.368 34.659C124.261 34.5661 124.027 34.5203 123.667 34.5216L122.387 34.5264C122.021 34.5277 121.781 34.5753 121.668 34.669C121.561 34.7561 121.509 34.9363 121.51 35.2096C121.511 35.4763 121.565 35.6561 121.672 35.749C121.785 35.8419 122.026 35.8877 122.392 35.8864ZM120.248 32.0843C120.102 32.1782 119.945 32.2221 119.779 32.216C119.619 32.2099 119.482 32.1305 119.368 31.9775C119.287 31.8645 119.257 31.7346 119.276 31.5879C119.302 31.4344 119.382 31.3142 119.515 31.227C119.788 31.0526 120.067 30.8516 120.353 30.6239C120.645 30.3961 120.894 30.1819 121.1 29.9811C121.213 29.8607 121.346 29.8002 121.5 29.7996C121.66 29.799 121.797 29.8552 121.91 29.9681C122.024 30.0743 122.078 30.2008 122.072 30.3475C122.066 30.4875 122.009 30.6144 121.903 30.7281C121.657 30.9824 121.395 31.2234 121.116 31.4511C120.843 31.6787 120.554 31.8898 120.248 32.0843ZM125.678 31.9542C125.511 31.8481 125.32 31.7255 125.106 31.5863C124.892 31.4471 124.682 31.3045 124.475 31.1586C124.274 31.006 124.1 30.87 123.953 30.7505C123.833 30.651 123.766 30.5279 123.752 30.3813C123.745 30.2346 123.791 30.1078 123.89 30.0008C123.983 29.8871 124.103 29.8266 124.25 29.8194C124.403 29.8055 124.537 29.845 124.65 29.9379C124.804 30.0574 124.981 30.1867 125.182 30.326C125.382 30.4586 125.583 30.5878 125.783 30.7138C125.99 30.833 126.181 30.9356 126.354 31.0216C126.488 31.0878 126.568 31.1942 126.595 31.3407C126.629 31.4873 126.61 31.6274 126.537 31.761C126.451 31.9146 126.325 32.0084 126.158 32.0424C125.991 32.0697 125.831 32.0403 125.678 31.9542Z" fill="#FE585B"/>
<path d="M79.6123 56.5873C79.0576 56.5893 78.6255 56.5429 78.3158 56.4481C78.0061 56.3426 77.7868 56.1727 77.6579 55.9385C77.5397 55.6936 77.4797 55.3578 77.4782 54.9312C77.4761 54.3765 77.6187 53.9973 77.9059 53.7936C78.2038 53.5792 78.6781 53.4707 79.3287 53.4683L81.0567 53.4619C81.2061 53.4614 81.3127 53.445 81.3766 53.4127C81.4404 53.3805 81.4722 53.311 81.4718 53.2044C81.4713 53.087 81.4391 53.0178 81.375 52.9967C81.3109 52.965 81.2042 52.9494 81.0548 52.9499L77.9829 52.9613C77.9402 52.9615 77.9029 52.9616 77.8709 52.9617C77.8388 52.9512 77.8068 52.9406 77.7747 52.9301C77.5726 53.0802 77.3705 53.2302 77.1684 53.3803C76.977 53.5304 76.7748 53.6698 76.562 53.7986C76.3597 53.9167 76.1413 53.9761 75.9066 53.977C75.6826 53.9672 75.4955 53.8559 75.3454 53.6431C75.2167 53.4516 75.1786 53.2544 75.2312 53.0515C75.2838 52.8486 75.4112 52.6882 75.6134 52.5701C75.954 52.3662 76.2785 52.1516 76.587 51.9265C76.8955 51.6907 77.1826 51.4496 77.4483 51.2033L75.8963 51.209C75.6937 51.2098 75.5334 51.1464 75.4156 51.0188C75.3085 50.8912 75.2546 50.7421 75.254 50.5714C75.2533 50.3901 75.3061 50.2405 75.4123 50.1228C75.5292 49.9944 75.6889 49.9298 75.8916 49.929L78.5476 49.9192C78.6113 49.8336 78.6696 49.7481 78.7226 49.6625C78.7863 49.577 78.8447 49.4861 78.8976 49.3899L77.9056 49.3936C77.2123 49.3961 76.7266 49.2913 76.4485 49.079C76.181 48.856 76.046 48.4298 76.0437 47.8005C76.0414 47.1711 76.1732 46.7493 76.439 46.535C76.7155 46.31 77.2004 46.1962 77.8938 46.1936L78.7738 46.1903L78.7717 45.6303L75.9237 45.6409C75.721 45.6416 75.5661 45.5782 75.459 45.4506C75.3519 45.323 75.298 45.1739 75.2973 45.0032C75.2967 44.8325 75.3495 44.6883 75.4557 44.5706C75.5619 44.4422 75.7164 44.3776 75.919 44.3769L85.535 44.3412C85.7376 44.3405 85.8925 44.4039 85.9997 44.5315C86.1068 44.6485 86.1606 44.7923 86.1613 44.9629C86.1619 45.1336 86.1091 45.2831 86.0029 45.4115C85.8967 45.5399 85.7423 45.6045 85.5396 45.6052L82.6757 45.6159L82.6777 46.1759L83.5737 46.1725C84.2777 46.1699 84.7635 46.2801 85.031 46.5031C85.2984 46.7155 85.4333 47.1363 85.4357 47.7656C85.438 48.395 85.3062 48.8221 85.0404 49.0471C84.7745 49.2614 84.2896 49.3699 83.5856 49.3725L80.6736 49.3833C80.6313 49.4688 80.5889 49.5596 80.5466 49.6558C80.5149 49.7412 80.4726 49.8267 80.4196 49.9122L85.8595 49.8921C86.0622 49.8913 86.2171 49.9548 86.3242 50.0824C86.442 50.1993 86.5012 50.3484 86.5019 50.5297C86.5025 50.7004 86.4444 50.8499 86.3276 50.9784C86.2214 51.1068 86.0669 51.1713 85.8643 51.1721L83.4963 51.1809C83.8601 51.4782 84.2397 51.7381 84.6352 51.9606C85.0307 52.1725 85.4527 52.3683 85.9014 52.5479C86.115 52.6325 86.2596 52.7813 86.335 52.9943C86.4211 53.1967 86.4059 53.3941 86.2892 53.5865C86.1727 53.8003 86.0079 53.9342 85.7947 53.9884C85.5923 54.0424 85.3681 54.0059 85.1223 53.8788C84.759 53.6989 84.4009 53.4975 84.0481 53.2748C83.6952 53.0415 83.3583 52.8027 83.0374 52.5586C83.0591 52.6438 83.0754 52.7398 83.0865 52.8464C83.1082 52.9423 83.1192 53.0489 83.1197 53.1663C83.1216 53.6783 83.0002 54.0414 82.7557 54.2556C82.5218 54.4592 82.0848 54.5621 81.4448 54.5645L79.6528 54.5711C79.4502 54.5719 79.3063 54.5937 79.2211 54.6367C79.1359 54.669 79.0935 54.7492 79.094 54.8772C79.0945 55.0265 79.1322 55.1224 79.207 55.1648C79.2925 55.2071 79.4419 55.2279 79.6553 55.2271L82.0233 55.2183C82.3646 55.2171 82.6259 55.2054 82.8071 55.1834C82.9883 55.1508 83.1268 55.0916 83.2225 55.0059C83.3181 54.9095 83.4029 54.7706 83.4769 54.5889C83.5721 54.3753 83.7156 54.2361 83.9074 54.1713C84.1098 54.1066 84.3232 54.1165 84.5475 54.201C84.7718 54.2855 84.9216 54.4183 84.997 54.5993C85.083 54.7803 85.0944 54.983 85.0312 55.2072C84.9364 55.5169 84.7933 55.7734 84.6021 55.9768C84.4108 56.1802 84.1394 56.3305 83.7877 56.4278C83.4361 56.5251 82.9563 56.5749 82.3483 56.5771L79.6123 56.5873ZM80.4838 58.6001C79.0118 58.6055 77.7794 58.5034 76.7866 58.2938C75.8045 58.0947 75.0192 57.735 74.4306 57.2145C74.3029 57.3003 74.1327 57.4183 73.9199 57.5684C73.7071 57.7185 73.4996 57.858 73.2975 57.9867C73.106 58.1261 72.957 58.2333 72.8506 58.3084C72.6485 58.4478 72.414 58.4913 72.1471 58.439C71.8803 58.3973 71.6878 58.2593 71.5696 58.0251C71.4408 57.8122 71.4079 57.583 71.471 57.3375C71.5341 57.0919 71.6775 56.9154 71.9011 56.8079C72.0608 56.7219 72.279 56.6091 72.5558 56.4694C72.8326 56.3297 73.0881 56.1955 73.3223 56.0666L73.3089 52.4346C73.308 52.1893 73.2647 52.0188 73.179 51.9231C73.104 51.8274 72.9384 51.78 72.6824 51.7809L72.1865 51.7828C71.9411 51.7837 71.7435 51.7044 71.5936 51.545C71.4436 51.3855 71.3683 51.1938 71.3674 50.9698C71.3666 50.7458 71.4406 50.5589 71.5894 50.409C71.7381 50.2484 71.9351 50.1677 72.1805 50.1668L73.3645 50.1624C74.4524 50.1584 74.9985 50.7003 75.0025 51.7883L75.0173 55.7723C75.3064 56.0806 75.6753 56.3299 76.124 56.5202C76.5727 56.6999 77.1492 56.8311 77.8535 56.9138C78.5684 56.9858 79.4432 57.0199 80.4779 57.0161C81.0646 57.0139 81.6672 57.0063 82.2858 56.9934C82.9151 56.9804 83.5071 56.9622 84.0616 56.9388C84.6269 56.9154 85.0961 56.887 85.4693 56.8536C85.7679 56.8311 86.0135 56.8942 86.206 57.0428C86.4093 57.1914 86.5114 57.3991 86.5124 57.6657C86.5133 57.9324 86.4288 58.146 86.2587 58.3067C86.0993 58.4673 85.849 58.5482 85.5076 58.5494C85.177 58.5507 84.777 58.5522 84.3076 58.5539C83.849 58.5663 83.3744 58.5734 82.8837 58.5752C82.4037 58.5876 81.9504 58.5946 81.5238 58.5962C81.0971 58.5978 80.7504 58.5991 80.4838 58.6001ZM74.843 47.5969C74.6729 47.7682 74.4599 47.8543 74.2039 47.8553C73.9586 47.8562 73.7556 47.7609 73.5948 47.5695C73.3913 47.3249 73.1449 47.0592 72.8559 46.7723C72.5668 46.4853 72.2992 46.241 72.0532 46.0392C71.8819 45.8905 71.7959 45.6988 71.795 45.4642C71.8048 45.2295 71.8894 45.0318 72.0488 44.8712C72.2082 44.7 72.4052 44.6033 72.6398 44.581C72.8743 44.5588 73.088 44.6327 73.2806 44.8027C73.5588 45.0363 73.8477 45.2912 74.1474 45.5675C74.4471 45.833 74.6986 46.0721 74.9021 46.2847C75.0841 46.476 75.1703 46.6997 75.1606 46.9557C75.1508 47.2011 75.0449 47.4148 74.843 47.5969ZM82.2027 51.8417C82.085 51.7248 81.9726 51.6132 81.8655 51.5069C81.7584 51.4006 81.6567 51.2943 81.5603 51.188L79.5283 51.1956C79.454 51.2918 79.3691 51.3935 79.2735 51.5005C79.1885 51.5968 79.1035 51.6931 79.0185 51.7895L81.4345 51.7805C81.7438 51.7794 81.9999 51.7997 82.2027 51.8417ZM80.2215 48.281L81.2455 48.2772L81.2419 47.3012L80.2179 47.305L80.2215 48.281ZM82.6855 48.2718L83.1975 48.2699C83.4108 48.2691 83.5601 48.2366 83.6451 48.1723C83.7302 48.108 83.7724 47.9745 83.7717 47.7718C83.7709 47.5691 83.7278 47.4413 83.6422 47.3883C83.5567 47.3246 83.4072 47.2932 83.1939 47.2939L82.6819 47.2958L82.6855 48.2718ZM78.2855 48.2881L78.7815 48.2863L78.7779 47.3103L78.2819 47.3122C78.0686 47.3129 77.9194 47.3455 77.8343 47.4098C77.7598 47.4634 77.723 47.5916 77.7237 47.7942C77.7245 47.9969 77.7623 48.1301 77.8372 48.1938C77.9228 48.2575 78.0722 48.2889 78.2855 48.2881ZM80.2138 46.185L81.2378 46.1812L81.2357 45.6212L80.2117 45.625L80.2138 46.185ZM89.2509 58.3436C88.9955 58.5045 88.7184 58.5642 88.4195 58.5227C88.1207 58.4811 87.8908 58.3273 87.7298 58.0612C87.5903 57.8164 87.5626 57.5552 87.6469 57.2775C87.7312 56.9999 87.9064 56.7859 88.1725 56.6356C89.3646 55.9378 90.3908 55.0913 91.2512 54.0961C92.1221 53.0902 92.8115 52.0157 93.3192 50.8724C93.8376 49.7185 94.1427 48.576 94.2345 47.445C94.2756 47.0182 94.2052 46.7198 94.0232 46.5498C93.8519 46.3798 93.5103 46.2957 92.9983 46.2976L91.2543 46.3041C91.0089 46.305 90.7953 46.2204 90.6133 46.0504C90.442 45.8697 90.3559 45.6567 90.355 45.4114C90.3541 45.1661 90.4386 44.9577 90.6086 44.7864C90.7893 44.6044 91.0023 44.513 91.2476 44.5121L92.9916 44.5056C93.7916 44.5026 94.4212 44.5803 94.8805 44.7386C95.3504 44.8969 95.6874 45.173 95.8916 45.5669C96.0957 45.9501 96.199 46.4884 96.2016 47.1817C96.2064 48.4937 96.4456 49.7195 96.9192 50.8591C97.3928 51.9987 98.0633 53.0469 98.9309 54.0037C99.8091 54.9604 100.842 55.8206 102.028 56.5842C102.274 56.7433 102.419 56.9721 102.463 57.2706C102.517 57.5691 102.46 57.8359 102.29 58.0712C102.12 58.3279 101.881 58.4674 101.572 58.4899C101.273 58.523 100.995 58.4494 100.739 58.269C99.4767 57.3883 98.3476 56.3685 97.3513 55.2095C96.355 54.0505 95.6035 52.736 95.0967 51.2659C94.4834 52.7295 93.6831 54.0658 92.6955 55.2748C91.708 56.4731 90.5598 57.496 89.2509 58.3436ZM104.538 47.3908L116.554 47.3463L116.561 49.2343L106.497 49.2716L106.533 58.8555L104.581 58.8628L104.538 47.3908ZM115.562 47.35L117.514 47.3427L117.549 56.5747C117.552 57.5987 117.362 58.1594 116.676 58.4659C115.989 58.7725 114.981 58.8082 113.589 58.8134C113.523 58.2536 113.216 57.3907 112.942 56.8638C113.822 56.9085 114.91 56.9045 115.214 56.8873C115.502 56.8863 115.597 56.7899 115.596 56.5499L115.562 47.35ZM107.408 44.4682L110.992 44.4549L110.998 46.1349L107.414 46.1482L107.408 44.4682ZM109.744 44.4595L111.792 44.4519C111.951 48.5634 112.875 51.936 115.873 53.3809C115.458 53.7664 114.805 54.5528 114.503 55.066C111.344 53.2056 110.274 49.5456 110.051 45.3224L109.747 45.3235L109.744 44.4595ZM109.9 47.819L111.661 48.1164C111.13 51.4784 109.906 53.851 107.399 55.2043C107.142 54.7572 106.515 53.9756 106.13 53.657C108.318 52.6089 109.51 50.5724 109.9 47.819ZM126.036 58.6712C125.236 58.6742 124.596 58.5912 124.115 58.4223C123.635 58.2641 123.287 57.9827 123.072 57.5782C122.857 57.1737 122.749 56.6141 122.746 55.8994C122.743 55.1847 122.848 54.6244 123.06 54.2182C123.272 53.8121 123.617 53.5282 124.097 53.3664C124.576 53.1939 125.216 53.1062 126.016 53.1033L128.064 53.0957C128.864 53.0927 129.504 53.1757 129.985 53.3446C130.465 53.5028 130.813 53.7842 131.028 54.1887C131.243 54.5932 131.351 55.1528 131.354 55.8675C131.357 56.5822 131.252 57.1426 131.04 57.5487C130.828 57.9548 130.483 58.2387 130.003 58.4005C129.524 58.573 128.884 58.6607 128.084 58.6636L126.036 58.6712ZM120.897 49.1542C120.641 49.1552 120.422 49.076 120.24 48.9166C120.069 48.7573 119.983 48.5389 119.982 48.2616L119.98 47.7496C119.977 46.9176 120.172 46.3302 120.565 45.9874C120.969 45.6339 121.657 45.4554 122.627 45.4518L125.939 45.4395L125.936 44.4955C125.935 44.1862 126.03 43.9512 126.221 43.7904C126.423 43.6297 126.658 43.5488 126.924 43.5478C127.202 43.5468 127.437 43.6259 127.629 43.7852C127.832 43.9445 127.935 44.1788 127.936 44.4881L127.939 45.4321L131.363 45.4194C132.334 45.4158 133.017 45.5893 133.413 45.9398C133.82 46.2796 134.025 46.8655 134.028 47.6975L134.03 48.2095C134.031 48.4869 133.941 48.7059 133.76 48.8665C133.579 49.0272 133.361 49.108 133.105 49.109C132.849 49.1099 132.63 49.0361 132.448 48.8874C132.266 48.7387 132.175 48.5257 132.174 48.2484L132.172 47.8164C132.171 47.5177 132.096 47.3047 131.946 47.1772C131.807 47.0498 131.54 46.9867 131.145 46.9882L122.857 47.0189C122.462 47.0204 122.191 47.0854 122.042 47.214C121.893 47.3425 121.819 47.5561 121.82 47.8548L121.822 48.2868C121.823 48.5641 121.733 48.7778 121.552 48.9278C121.371 49.0778 121.153 49.1533 120.897 49.1542ZM120.903 55.1702C120.637 55.3205 120.376 55.3695 120.12 55.3171C119.864 55.2648 119.66 55.1162 119.51 54.8714C119.371 54.6266 119.343 54.392 119.428 54.1677C119.512 53.9434 119.687 53.7614 119.954 53.6217C120.56 53.3102 121.183 52.9505 121.822 52.5428C122.46 52.1244 123.082 51.6901 123.689 51.2399C124.306 50.7789 124.864 50.3288 125.364 49.8897C125.874 49.4291 126.385 49.1979 126.897 49.196C127.42 49.194 127.943 49.4001 128.468 49.8142C128.96 50.1963 129.51 50.5943 130.12 51.008C130.74 51.4217 131.387 51.8193 132.06 52.2009C132.734 52.5824 133.391 52.9266 134.032 53.2336C134.278 53.35 134.455 53.5307 134.562 53.7756C134.67 54.0099 134.655 54.2553 134.517 54.5118C134.379 54.7789 134.167 54.9557 133.879 55.0421C133.602 55.1178 133.319 55.0815 133.031 54.9333C132.432 54.6048 131.807 54.2391 131.154 53.8362C130.502 53.4333 129.871 53.0196 129.262 52.5952C128.663 52.1601 128.123 51.7408 127.641 51.3372C127.395 51.1248 127.171 51.0243 126.968 51.0357C126.776 51.0364 126.558 51.1439 126.313 51.3582C125.835 51.7653 125.292 52.1993 124.686 52.6602C124.09 53.1104 123.468 53.5554 122.819 53.9951C122.17 54.4242 121.531 54.8159 120.903 55.1702ZM126.03 56.9752L128.078 56.9676C128.654 56.9655 129.027 56.8895 129.197 56.7395C129.378 56.5895 129.468 56.3012 129.466 55.8745C129.464 55.4372 129.373 55.1495 129.191 55.0115C129.02 54.8628 128.646 54.7895 128.07 54.7917L126.022 54.7993C125.435 54.8014 125.052 54.8775 124.871 55.0275C124.701 55.1668 124.616 55.4551 124.618 55.8925C124.62 56.3191 124.706 56.6068 124.877 56.7555C125.059 56.9042 125.443 56.9774 126.03 56.9752ZM122.599 50.8919C122.365 51.0421 122.115 51.1124 121.848 51.1027C121.592 51.093 121.373 50.9658 121.191 50.7211C121.062 50.5403 121.013 50.3325 121.045 50.0977C121.086 49.8522 121.214 49.6597 121.426 49.5203C121.863 49.2413 122.31 48.9196 122.767 48.5553C123.235 48.1909 123.634 47.8481 123.963 47.5268C124.144 47.3342 124.357 47.2374 124.602 47.2365C124.858 47.2355 125.077 47.3254 125.259 47.506C125.441 47.676 125.527 47.8784 125.517 48.1131C125.507 48.3371 125.417 48.5401 125.247 48.7221C124.854 49.1289 124.434 49.5144 123.988 49.8788C123.552 50.243 123.089 50.5808 122.599 50.8919ZM131.287 50.6837C131.019 50.514 130.715 50.3178 130.373 50.0951C130.03 49.8724 129.694 49.6443 129.362 49.4108C129.041 49.1667 128.763 48.9491 128.528 48.7579C128.335 48.5986 128.228 48.4017 128.205 48.1671C128.194 47.9325 128.268 47.7295 128.427 47.5583C128.576 47.3764 128.767 47.2797 129.002 47.2682C129.247 47.2459 129.461 47.3091 129.643 47.4578C129.889 47.6489 130.172 47.8558 130.493 48.0786C130.814 48.2908 131.135 48.4976 131.455 48.6991C131.787 48.8898 132.091 49.0541 132.369 49.1917C132.583 49.2976 132.712 49.4678 132.755 49.7023C132.809 49.9367 132.778 50.1608 132.662 50.3746C132.524 50.6205 132.322 50.7705 132.055 50.8249C131.789 50.8685 131.533 50.8215 131.287 50.6837Z" fill="black" fill-opacity="0.85"/>
</g>
<defs>
<radialGradient id="paint0_radial_1720_1926" cx="0" cy="0" r="1" gradientUnits="userSpaceOnUse" gradientTransform="translate(0.558656 46.8353) rotate(65.4889) scale(3.32531 8.21233)">
<stop offset="0.33" stop-opacity="0"/>
<stop offset="0.655" stop-opacity="0.6"/>
<stop offset="1"/>
</radialGradient>
<radialGradient id="paint1_radial_1720_1926" cx="0" cy="0" r="1" gradientUnits="userSpaceOnUse" gradientTransform="translate(355.296 45.8572) rotate(114.511) scale(3.32531 8.21233)">
<stop offset="0.33" stop-opacity="0"/>
<stop offset="0.655" stop-opacity="0.6"/>
<stop offset="1"/>
</radialGradient>
<clipPath id="clip0_1720_1926">
<rect width="200" height="90" fill="white"/>
</clipPath>
</defs>
</svg>
