<svg width="200" height="90" viewBox="0 0 200 90" fill="none" xmlns="http://www.w3.org/2000/svg">
<g clip-path="url(#clip0_1260_3863)">
<rect width="200" height="90" fill="#FEB79D"/>
<path fill-rule="evenodd" clip-rule="evenodd" d="M-6.18027 85.5257C-5.5206 81.3514 -9.94765 77.2571 -7.65473 73.2393C-4.94813 68.4966 -1.65241 61.9915 7.77154 61.0783C17.9972 60.0873 23.5998 68.8258 33.9785 69.2048C45.8176 69.6371 56.5881 60.196 66.8872 63.2371C76.2425 65.9996 70.121 74.0119 68.9752 79.5387C68.1676 83.4341 61.5364 86.4306 61.2669 90.3457C60.8502 96.3973 75.7689 103.853 67.0229 107.895C58.3557 111.9 45.7383 103.802 34.2527 102.83C27.3162 102.243 20.5655 103.925 13.6182 103.373C4.65786 102.66 -7.2514 103.227 -11.7526 99.1698C-16.3208 95.0519 -6.92748 90.2539 -6.18027 85.5257Z" fill="#FE585B"/>
<path fill-rule="evenodd" clip-rule="evenodd" d="M28.4743 10.5302C32.6486 10.8717 36.7429 8.58004 40.7607 9.76696C45.5034 11.168 52.0085 12.874 52.9217 17.7523C53.9127 23.0456 45.1742 25.9458 44.7952 31.3183C44.3629 37.4467 53.804 43.0221 50.7629 48.3534C48.0004 53.1961 39.9881 50.0274 34.4613 49.4342C30.5659 49.0162 27.5694 45.5836 23.6543 45.444C17.6027 45.2284 10.1469 52.9509 6.10508 48.4236C2.09968 43.9371 10.1975 37.4057 11.1701 31.4602C11.7575 27.8695 10.0747 24.3751 10.6274 20.7788C11.3402 16.1405 10.7727 9.97575 14.8302 7.64571C18.9481 5.281 23.7461 10.1434 28.4743 10.5302Z" fill="#FC7443"/>
<path fill-rule="evenodd" clip-rule="evenodd" d="M173.474 4.53021C177.649 4.87169 181.743 2.58004 185.761 3.76696C190.503 5.16803 197.008 6.87405 197.922 11.7523C198.913 17.0456 190.174 19.9458 189.795 25.3183C189.363 31.4467 198.804 37.0221 195.763 42.3534C193 47.1961 184.988 44.0274 179.461 43.4342C175.566 43.0162 172.569 39.5836 168.654 39.444C162.603 39.2284 155.147 46.9509 151.105 42.4236C147.1 37.9371 155.198 31.4057 156.17 25.4602C156.757 21.8695 155.075 18.3751 155.627 14.7788C156.34 10.1405 155.773 3.97575 159.83 1.64571C163.948 -0.719004 168.746 4.14342 173.474 4.53021Z" fill="#FF8787"/>
<path fill-rule="evenodd" clip-rule="evenodd" d="M117.063 7.20494C131.49 7.9797 144.155 11.9054 154.996 17.5775C166.733 23.7188 176.896 30.8598 179.688 39.9711C183.097 51.0949 184.354 63.7453 171.749 72.2549C158.691 81.0707 136.857 81.4742 117.063 82.2497C95.2362 83.1048 71.8992 84.7511 54.6033 76.8446C35.6156 68.1646 20.8565 53.9771 24.5773 39.9711C28.0889 26.7526 52.1053 19.9805 71.5388 13.0955C85.3864 8.18958 100.98 6.34119 117.063 7.20494Z" fill="#FFAB7A"/>
<ellipse cx="177.987" cy="70.7269" rx="16.7876" ry="14.0511" fill="#F55A57"/>
<ellipse cx="173.711" cy="65.6395" rx="1.21537" ry="2.15126" fill="black"/>
<ellipse cx="182.286" cy="65.6395" rx="1.21537" ry="2.15126" fill="black"/>
<path d="M173.043 72.6445C173.079 74.5722 175.312 76.0937 178.031 76.0428C180.749 75.9919 182.924 74.388 182.888 72.4603C182.852 70.5326 180.67 71.7825 177.952 71.8334C175.233 71.8843 173.007 70.7168 173.043 72.6445Z" fill="black"/>
<path d="M170.796 50.9035C173.677 48.6452 180.1 51.1915 180.1 55.0219C180.101 59.542 168.086 61.6232 165.801 61.9782C165.552 62.0169 165.303 62.044 165.054 62.039C163.425 62.0062 157.615 61.2375 170.796 50.9035Z" fill="#6E5232"/>
<path d="M170.796 50.9035C173.677 48.6452 180.1 51.1915 180.1 55.0219C180.101 59.542 168.086 61.6232 165.801 61.9782C165.552 62.0169 165.303 62.044 165.054 62.039C163.425 62.0062 157.615 61.2375 170.796 50.9035Z" fill="url(#paint0_radial_1260_3863)" fill-opacity="0.15"/>
<path d="M185.2 50.7629C182.319 48.5045 175.896 51.0509 175.896 54.8813C175.896 59.4014 187.91 61.4825 190.195 61.8375C190.445 61.8763 190.693 61.9034 190.942 61.8984C192.571 61.8656 198.381 61.0968 185.2 50.7629Z" fill="#6E5232"/>
<path d="M185.2 50.7629C182.319 48.5045 175.896 51.0509 175.896 54.8813C175.896 59.4014 187.91 61.4825 190.195 61.8375C190.445 61.8763 190.693 61.9034 190.942 61.8984C192.571 61.8656 198.381 61.0968 185.2 50.7629Z" fill="url(#paint1_radial_1260_3863)" fill-opacity="0.15"/>
<path d="M85.7175 36.9556C85.4711 37.0298 85.2744 37.0272 85.1274 36.9478C84.9805 36.875 84.8734 36.752 84.8061 36.579C84.7521 36.4192 84.7649 36.2591 84.8443 36.0988C84.9237 35.9385 85.0633 35.8347 85.2631 35.7873C85.9691 35.598 86.5949 35.3657 87.1406 35.0903C87.6862 34.8149 88.1684 34.5032 88.5871 34.1549C88.172 33.6698 87.8133 33.1345 87.5111 32.5489C87.2156 31.9567 86.9699 31.3142 86.774 30.6216L85.314 30.627C85.1673 30.6276 85.0405 30.5747 84.9334 30.4684C84.8264 30.3622 84.7725 30.2357 84.772 30.089C84.7715 29.9424 84.8243 29.8188 84.9306 29.7185C85.0369 29.6114 85.1634 29.5576 85.31 29.557L88.74 29.5443L88.7356 28.3443C88.7348 28.151 88.7976 27.9941 88.9238 27.8736C89.05 27.7532 89.2032 27.6926 89.3832 27.6919C89.5632 27.6913 89.7167 27.7507 89.8438 27.8702C89.9709 27.9898 90.0348 28.1462 90.0356 28.3395L90.04 29.5395L93.45 29.5269C93.5966 29.5263 93.7202 29.5792 93.8206 29.6855C93.9276 29.7851 93.9814 29.9082 93.9819 30.0549C93.9825 30.2016 93.9296 30.3284 93.8234 30.4355C93.7237 30.5425 93.6006 30.5963 93.4539 30.5969L92.074 30.602C91.8899 31.296 91.6489 31.9369 91.3511 32.5247C91.0599 33.1124 90.7086 33.6504 90.2971 34.1386C90.725 34.4903 91.2162 34.8019 91.7705 35.0731C92.3249 35.3444 92.9524 35.5721 93.6531 35.7562C93.8532 35.8021 93.9903 35.9049 94.0642 36.0646C94.1381 36.2244 94.1454 36.3843 94.086 36.5446C94.0266 36.7181 93.9204 36.8418 93.7674 36.9157C93.621 36.9896 93.4277 36.9937 93.1874 36.9279C91.6724 36.4868 90.4267 35.8481 89.4503 35.0117C88.9652 35.4269 88.4132 35.7956 87.7944 36.1179C87.1822 36.4402 86.4899 36.7194 85.7175 36.9556ZM89.4438 33.2717C89.7424 32.8973 89.9976 32.4864 90.2093 32.0389C90.4209 31.5914 90.5992 31.1141 90.744 30.6069L88.094 30.6167C88.2492 31.1228 88.4343 31.5988 88.6493 32.0447C88.8709 32.4905 89.1358 32.8996 89.4438 33.2717ZM99.4177 36.9848C99.251 36.9854 99.1108 36.9326 98.9971 36.8264C98.8833 36.7201 98.8261 36.577 98.8255 36.397L98.8211 35.227L97.6112 35.2315C97.4645 35.232 97.3343 35.1792 97.2206 35.0729C97.1135 34.96 97.0597 34.8302 97.0591 34.6835C97.0586 34.5302 97.1114 34.4 97.2177 34.2929C97.3306 34.1859 97.4604 34.132 97.6071 34.1315L98.8171 34.127L98.8082 31.727C98.5363 32.1347 98.2312 32.5458 97.8927 32.9604C97.5543 33.375 97.1957 33.7697 96.8171 34.1444C96.4452 34.5191 96.0731 34.8572 95.7009 35.1586C95.5679 35.2657 95.4115 35.323 95.2315 35.3303C95.0515 35.331 94.9046 35.2615 94.7907 35.1219C94.6836 34.989 94.643 34.8425 94.6691 34.6824C94.7018 34.5223 94.788 34.3919 94.9277 34.2914C95.3265 33.9899 95.7319 33.6384 96.1438 33.2369C96.5622 32.8287 96.9573 32.4039 97.329 31.9625C97.7007 31.5145 98.0158 31.09 98.2743 30.689L95.3643 30.6998C95.2177 30.7003 95.0908 30.6475 94.9838 30.5412C94.8767 30.4349 94.8229 30.3085 94.8223 30.1618C94.8218 30.0085 94.8746 29.8816 94.9809 29.7812C95.0872 29.6741 95.2137 29.6203 95.3603 29.6198L98.8003 29.607L98.7952 28.2371C98.7946 28.0637 98.8507 27.9235 98.9637 27.8164C99.0766 27.7027 99.2164 27.6455 99.383 27.6449C99.543 27.6443 99.6799 27.7004 99.7937 27.8133C99.9074 27.9196 99.9646 28.0594 99.9652 28.2327L99.9703 29.6027L103.41 29.59C103.564 29.5894 103.69 29.6423 103.791 29.7485C103.898 29.8481 103.952 29.9746 103.952 30.1279C103.953 30.2746 103.9 30.4015 103.794 30.5085C103.694 30.6156 103.568 30.6694 103.414 30.6699L100.534 30.6806C100.803 31.093 101.127 31.5184 101.509 31.957C101.891 32.3889 102.296 32.8041 102.724 33.2025C103.152 33.6009 103.57 33.9561 103.978 34.2679C104.105 34.3607 104.168 34.4872 104.169 34.6472C104.176 34.8072 104.133 34.944 104.041 35.0577C103.934 35.1847 103.798 35.2619 103.631 35.2892C103.465 35.3165 103.311 35.2737 103.171 35.1609C102.81 34.8622 102.439 34.5269 102.057 34.155C101.676 33.7831 101.308 33.3878 100.953 32.9691C100.598 32.5437 100.273 32.1116 99.978 31.6727L99.9871 34.1227L101.237 34.118C101.39 34.1175 101.521 34.1703 101.628 34.2766C101.735 34.3829 101.789 34.5127 101.789 34.666C101.79 34.8127 101.737 34.9429 101.631 35.0566C101.524 35.1637 101.394 35.2175 101.241 35.218L99.9911 35.2227L99.9955 36.3927C99.9961 36.5727 99.94 36.7162 99.8271 36.8233C99.7141 36.9304 99.5777 36.9842 99.4177 36.9848ZM105.361 29.8427L112.871 29.8149L112.876 30.9949L106.586 31.0182L106.608 37.0082L105.388 37.0127L105.361 29.8427ZM112.251 29.8172L113.471 29.8127L113.493 35.5826C113.495 36.2226 113.376 36.5731 112.947 36.7647C112.518 36.9562 111.888 36.9786 111.018 36.9818C110.976 36.632 110.784 36.0927 110.613 35.7633C111.163 35.7913 111.843 35.7887 112.033 35.778C112.213 35.7774 112.273 35.7171 112.272 35.5671L112.251 29.8172ZM107.154 28.0161L109.394 28.0078L109.398 29.0578L107.158 29.0661L107.154 28.0161ZM108.614 28.0107L109.894 28.0059C109.994 30.5756 110.572 32.6834 112.445 33.5865C112.186 33.8275 111.778 34.319 111.589 34.6397C109.615 33.477 108.946 31.1894 108.806 28.5499L108.616 28.5507L108.614 28.0107ZM108.712 30.1103L109.813 30.2962C109.481 32.3975 108.716 33.8803 107.149 34.7261C106.988 34.4467 106.596 33.9582 106.356 33.7591C107.723 33.104 108.469 31.8312 108.712 30.1103ZM118.797 36.893C118.297 36.8948 117.897 36.843 117.597 36.7374C117.297 36.6385 117.079 36.4627 116.945 36.2098C116.811 35.957 116.743 35.6072 116.741 35.1606C116.739 34.7139 116.805 34.3637 116.937 34.1098C117.07 33.856 117.286 33.6786 117.585 33.5774C117.885 33.4697 118.285 33.4148 118.785 33.413L120.065 33.4083C120.565 33.4064 120.965 33.4582 121.265 33.5638C121.566 33.6627 121.783 33.8386 121.917 34.0914C122.051 34.3442 122.119 34.694 122.121 35.1406C122.123 35.5873 122.057 35.9375 121.925 36.1914C121.792 36.4452 121.576 36.6227 121.277 36.7238C120.977 36.8316 120.577 36.8864 120.077 36.8882L118.797 36.893ZM115.585 30.9448C115.425 30.9454 115.289 30.8959 115.175 30.7964C115.068 30.6968 115.014 30.5603 115.013 30.387L115.012 30.067C115.01 29.547 115.132 29.1798 115.378 28.9656C115.631 28.7447 116.06 28.6331 116.667 28.6308L118.737 28.6231L118.735 28.0331C118.734 27.8398 118.793 27.6929 118.913 27.5925C119.039 27.492 119.186 27.4415 119.352 27.4408C119.526 27.4402 119.673 27.4897 119.793 27.5892C119.92 27.6887 119.984 27.8352 119.985 28.0285L119.987 28.6185L122.127 28.6106C122.733 28.6083 123.161 28.7167 123.408 28.9358C123.662 29.1482 123.79 29.5144 123.792 30.0344L123.793 30.3544C123.794 30.5277 123.738 30.6646 123.625 30.765C123.512 30.8655 123.375 30.916 123.215 30.9166C123.055 30.9171 122.918 30.871 122.805 30.7781C122.691 30.6852 122.634 30.552 122.633 30.3787L122.632 30.1087C122.632 29.922 122.584 29.7889 122.491 29.7092C122.404 29.6296 122.237 29.5902 121.99 29.5911L116.81 29.6103C116.564 29.6112 116.394 29.6518 116.301 29.7322C116.208 29.8125 116.162 29.946 116.162 30.1327L116.163 30.4027C116.164 30.576 116.108 30.7096 115.995 30.8033C115.882 30.8971 115.745 30.9442 115.585 30.9448ZM115.589 34.7048C115.423 34.7988 115.26 34.8294 115.1 34.7967C114.94 34.7639 114.813 34.6711 114.719 34.5181C114.631 34.3651 114.614 34.2185 114.667 34.0783C114.72 33.9381 114.829 33.8243 114.996 33.737C115.375 33.5423 115.764 33.3175 116.163 33.0627C116.562 32.8012 116.951 32.5298 117.33 32.2484C117.716 31.9603 118.065 31.679 118.377 31.4045C118.696 31.1166 119.016 30.9721 119.336 30.9709C119.662 30.9697 119.989 31.0985 120.317 31.3573C120.625 31.5962 120.969 31.8449 121.35 32.1035C121.737 32.362 122.142 32.6105 122.562 32.849C122.983 33.0874 123.394 33.3026 123.795 33.4944C123.949 33.5672 124.059 33.6801 124.126 33.8332C124.193 33.9796 124.184 34.133 124.098 34.2933C124.012 34.4603 123.879 34.5708 123.699 34.6248C123.526 34.6721 123.349 34.6494 123.169 34.5568C122.795 34.3515 122.404 34.1229 121.996 33.8711C121.589 33.6193 121.194 33.3607 120.813 33.0955C120.439 32.8235 120.101 32.5614 119.8 32.3092C119.647 32.1765 119.506 32.1136 119.38 32.1208C119.26 32.1212 119.123 32.1884 118.971 32.3223C118.671 32.5767 118.332 32.848 117.954 33.1361C117.581 33.4175 117.192 33.6956 116.787 33.9704C116.381 34.2386 115.982 34.4834 115.589 34.7048ZM118.794 35.833L120.074 35.8282C120.434 35.8269 120.667 35.7794 120.773 35.6856C120.886 35.5919 120.942 35.4117 120.941 35.145C120.94 34.8717 120.883 34.6919 120.769 34.6056C120.662 34.5127 120.428 34.4669 120.068 34.4682L118.788 34.473C118.422 34.4743 118.182 34.5219 118.069 34.6157C117.963 34.7027 117.91 34.8829 117.911 35.1562C117.912 35.4229 117.966 35.6027 118.073 35.6956C118.187 35.7886 118.427 35.8343 118.794 35.833ZM116.649 32.0309C116.503 32.1248 116.347 32.1687 116.18 32.1626C116.02 32.1566 115.883 32.0771 115.769 31.9242C115.689 31.8111 115.658 31.6812 115.678 31.5345C115.704 31.3811 115.783 31.2608 115.916 31.1736C116.189 30.9993 116.468 30.7982 116.754 30.5705C117.047 30.3428 117.296 30.1285 117.502 29.9277C117.615 29.8073 117.748 29.7468 117.901 29.7462C118.061 29.7457 118.198 29.8018 118.312 29.9147C118.425 30.021 118.479 30.1474 118.473 30.2941C118.467 30.4342 118.411 30.561 118.304 30.6748C118.059 30.929 117.796 31.17 117.517 31.3977C117.245 31.6254 116.955 31.8364 116.649 32.0309ZM122.079 31.9008C121.912 31.7947 121.721 31.6721 121.508 31.5329C121.294 31.3937 121.083 31.2511 120.876 31.1052C120.675 30.9526 120.502 30.8166 120.355 30.6972C120.234 30.5976 120.167 30.4745 120.153 30.3279C120.146 30.1813 120.192 30.0544 120.292 29.9474C120.385 29.8337 120.504 29.7733 120.651 29.7661C120.804 29.7522 120.938 29.7917 121.051 29.8846C121.205 30.004 121.382 30.1333 121.583 30.2726C121.783 30.4052 121.984 30.5345 122.184 30.6604C122.391 30.7796 122.582 30.8822 122.756 30.9683C122.889 31.0344 122.969 31.1408 122.997 31.2874C123.031 31.4339 123.011 31.574 122.938 31.7076C122.852 31.8612 122.726 31.955 122.559 31.989C122.393 32.0163 122.233 31.9869 122.079 31.9008Z" fill="#FE585B"/>
<path d="M71.5271 50.9912C70.6311 50.9945 70.0172 50.8421 69.6854 50.534C69.3536 50.2259 69.1863 49.6932 69.1835 48.9359C69.1806 48.1679 69.344 47.634 69.6736 47.3341C70.0031 47.0235 70.6158 46.8666 71.5118 46.8632L71.6238 46.8628L71.6209 46.0628L69.3329 46.0713C69.1409 46.072 68.9753 46.0086 68.8362 45.8812C68.7077 45.743 68.643 45.5779 68.6423 45.3859C68.6416 45.1939 68.705 45.0336 68.8326 44.9052C68.9707 44.766 69.1358 44.696 69.3278 44.6953L77.8077 44.6639C77.9997 44.6632 78.1653 44.7319 78.3045 44.8701C78.4436 44.9975 78.5136 45.1573 78.5143 45.3493C78.515 45.5413 78.4463 45.7069 78.3081 45.846C78.1699 45.9746 78.0048 46.0392 77.8128 46.0399L75.4608 46.0486L75.4638 46.8486L75.6398 46.8479C76.5358 46.8446 77.1497 46.997 77.4815 47.3051C77.8133 47.6026 77.9806 48.1353 77.9834 48.9033C77.9862 49.6606 77.8229 50.1945 77.4934 50.5051C77.1639 50.8157 76.5511 50.9726 75.6551 50.9759L71.5271 50.9912ZM66.5331 59.0738C66.2984 59.0747 66.1008 59.0007 65.9402 58.852C65.7903 58.7032 65.7149 58.5061 65.714 58.2608L65.6939 52.8368C65.5352 53.1681 65.3817 53.4833 65.2334 53.7826C65.0852 54.0711 64.9421 54.3223 64.8042 54.5362C64.6876 54.7393 64.5121 54.8679 64.2776 54.9221C64.0431 54.9656 63.8297 54.9238 63.6372 54.7965C63.4447 54.6799 63.3322 54.5203 63.2994 54.3177C63.2773 54.1045 63.3192 53.9017 63.4251 53.7093C63.6054 53.4206 63.8015 53.0732 64.0133 52.6671C64.2358 52.2609 64.4529 51.8388 64.6646 51.4007C64.8763 50.9519 65.072 50.5191 65.2518 50.1025C65.4316 49.6858 65.5742 49.3173 65.6797 48.9969L65.679 48.8049L64.143 48.8106C63.9403 48.8113 63.7587 48.7373 63.5982 48.5886C63.4482 48.4291 63.3729 48.2481 63.3722 48.0454C63.3714 47.8321 63.4454 47.6505 63.5941 47.5006C63.7536 47.3507 63.9346 47.2753 64.1373 47.2746L65.6733 47.2689L65.6646 44.9169C65.6637 44.6716 65.7376 44.474 65.8864 44.3241C66.0458 44.1742 66.2429 44.0988 66.4775 44.0979C66.7015 44.0971 66.8938 44.171 67.0544 44.3197C67.2149 44.4685 67.2957 44.6655 67.2966 44.9109L67.3053 47.2628L68.3613 47.2589C68.5746 47.2581 68.7562 47.3321 68.9061 47.4809C69.056 47.6297 69.1313 47.8107 69.1321 48.0241C69.1329 48.2267 69.0589 48.4083 68.9101 48.5689C68.7614 48.7188 68.5803 48.7941 68.367 48.7949L67.311 48.7988L67.3141 49.6308C67.4105 49.7585 67.5445 49.934 67.716 50.1573C67.8875 50.37 68.0643 50.5987 68.2466 50.8434C68.4394 51.0773 68.6216 51.3007 68.793 51.5134C68.9645 51.7154 69.1037 51.8749 69.2108 51.9918C69.3607 52.1513 69.4201 52.3377 69.3889 52.5512C69.3576 52.7539 69.2623 52.9303 69.1029 53.0802C68.9327 53.2302 68.7356 53.2949 68.5116 53.2744C68.2982 53.2539 68.1218 53.1585 67.9825 52.9884C67.9074 52.8713 67.8109 52.733 67.693 52.5734C67.575 52.4139 67.4517 52.2437 67.3231 52.0628L67.346 58.2548C67.3469 58.5001 67.2677 58.6977 67.1082 58.8476C66.9488 58.9976 66.7571 59.073 66.5331 59.0738ZM72.2606 58.9406C72.0153 58.9415 71.8123 58.8729 71.6518 58.7348C71.502 58.6074 71.4213 58.421 71.4098 58.1757C71.3983 57.9624 71.4616 57.7755 71.5997 57.615C71.7378 57.4545 71.9188 57.3631 72.1427 57.341C72.3986 57.3187 72.5638 57.2754 72.6382 57.2111C72.7232 57.1362 72.7653 56.9813 72.7645 56.7467L72.7577 54.9067L69.3977 54.9191C69.2163 54.9198 69.0561 54.8511 68.9169 54.7129C68.7884 54.5747 68.7238 54.415 68.7231 54.2336C68.7224 54.0416 68.7858 53.8814 68.9133 53.7529C69.0515 53.6137 69.2112 53.5438 69.3926 53.5431L77.7925 53.512C77.9738 53.5113 78.1288 53.5801 78.2573 53.7183C78.3964 53.8458 78.4663 54.0055 78.4671 54.1975C78.4677 54.3788 78.399 54.5391 78.2608 54.6783C78.1334 54.8174 77.9789 54.8873 77.7976 54.888L74.4376 54.9005L74.4453 56.9804C74.448 57.6951 74.2792 58.1971 73.9389 58.4863C73.6094 58.7862 73.0499 58.9376 72.2606 58.9406ZM70.1903 52.9322C70.009 52.9329 69.8487 52.8641 69.7095 52.726C69.581 52.5878 69.5164 52.428 69.5158 52.2467C69.5151 52.0653 69.5785 51.9104 69.706 51.782C69.8442 51.6428 70.0039 51.5729 70.1853 51.5722L76.9052 51.5473C77.0866 51.5466 77.2415 51.6154 77.37 51.7536C77.5091 51.881 77.579 52.0355 77.5797 52.2168C77.5804 52.3981 77.5116 52.5584 77.3735 52.6976C77.246 52.8367 77.0916 52.9066 76.9103 52.9073L70.1903 52.9322ZM77.1535 58.0904C76.9824 57.9737 76.7738 57.8198 76.5278 57.6287C76.2924 57.4483 76.0517 57.2518 75.8056 57.0394C75.5701 56.8269 75.3614 56.6357 75.1794 56.4657C75.0296 56.3169 74.9489 56.1359 74.9374 55.9226C74.9366 55.6986 75.0106 55.5117 75.1594 55.3618C75.3081 55.2012 75.4838 55.1099 75.6863 55.0878C75.8996 55.0657 76.0918 55.129 76.2631 55.2777C76.4128 55.3945 76.6054 55.5484 76.8408 55.7396C77.0761 55.9307 77.3115 56.1165 77.5468 56.2969C77.7928 56.4774 77.996 56.6206 78.1564 56.7267C78.3382 56.8433 78.4402 57.0136 78.4623 57.2376C78.4951 57.4508 78.4532 57.6483 78.3365 57.83C78.2093 58.0332 78.0337 58.1565 77.8099 58.2C77.5861 58.2541 77.3673 58.2176 77.1535 58.0904ZM69.8414 58.0855C69.6393 58.2249 69.4208 58.2737 69.186 58.2319C68.9512 58.2008 68.7587 58.0842 68.6087 57.8821C68.4906 57.7012 68.4472 57.504 68.4785 57.2906C68.5203 57.0664 68.6317 56.8953 68.8126 56.7773C68.9722 56.6701 69.169 56.5307 69.403 56.3591C69.637 56.1769 69.871 55.9894 70.1049 55.7965C70.3389 55.6037 70.5303 55.4376 70.6791 55.2984C70.8385 55.1485 71.0303 55.0838 71.2544 55.1043C71.4785 55.1248 71.6601 55.2148 71.7994 55.3742C71.9493 55.5443 72.0247 55.7361 72.0255 55.9494C72.0263 56.1521 71.9469 56.3284 71.7875 56.4783C71.6493 56.6175 71.4633 56.7888 71.2294 56.9924C70.9954 57.1852 70.7508 57.3835 70.4956 57.5871C70.251 57.78 70.0329 57.9461 69.8414 58.0855ZM73.1063 49.6734L74.0022 49.67L73.9967 48.166L73.1007 48.1694L73.1063 49.6734ZM75.4742 49.6646L75.6342 49.664C75.9649 49.6628 76.1834 49.6086 76.2896 49.5016C76.3959 49.3945 76.4485 49.197 76.4474 48.909C76.4463 48.6103 76.3923 48.4132 76.2853 48.3176C76.1782 48.2113 75.9593 48.1588 75.6287 48.16L75.4687 48.1606L75.4742 49.6646ZM71.5543 49.6791L71.6343 49.6788L71.6287 48.1748L71.5487 48.1751C71.218 48.1763 70.9942 48.2305 70.8773 48.3376C70.771 48.434 70.7184 48.6315 70.7195 48.9302C70.7206 49.2182 70.7746 49.4153 70.8817 49.5216C70.9994 49.6278 71.2236 49.6803 71.5543 49.6791ZM73.0958 46.8574L73.9918 46.8541L73.9888 46.0541L73.0929 46.0574L73.0958 46.8574ZM88.2522 56.6413C88.05 56.7807 87.8156 56.8455 87.5489 56.8359C87.2822 56.8262 87.0738 56.715 86.9237 56.5022C86.8056 56.3106 86.7622 56.1081 86.7934 55.8947C86.8352 55.6705 86.9573 55.4994 87.1595 55.3813C87.2872 55.3062 87.4469 55.2042 87.6384 55.0755C87.8406 54.9468 88.0374 54.8127 88.2289 54.6733C88.431 54.5339 88.5906 54.4213 88.7076 54.3356C88.8885 54.1962 89.0856 54.1368 89.299 54.1574C88.584 54.0747 88.0979 53.8685 87.8407 53.5388C87.5834 53.1984 87.4535 52.6709 87.4508 51.9562L87.4405 49.1722C87.4378 48.4576 87.5639 47.9344 87.8187 47.6028C88.0734 47.2605 88.558 47.0507 89.2724 46.9734C89.3145 46.8239 89.3566 46.6691 89.3986 46.5089C89.4513 46.3381 89.4988 46.1886 89.541 46.0604L87.317 46.0687C87.1143 46.0694 86.9434 46.0007 86.8042 45.8626C86.665 45.7244 86.5951 45.554 86.5943 45.3513C86.5936 45.1487 86.6623 44.9777 86.8004 44.8386C86.9386 44.6994 87.109 44.6294 87.3117 44.6287L93.5836 44.6054C93.7863 44.6047 93.9572 44.6734 94.0964 44.8115C94.2356 44.9497 94.3055 45.1201 94.3063 45.3227C94.307 45.5254 94.2383 45.6963 94.1002 45.8355C93.962 45.9747 93.7916 46.0447 93.5889 46.0454L91.349 46.0537C91.3067 46.1712 91.2593 46.3154 91.2066 46.4862C91.1538 46.6464 91.101 46.7906 91.0482 46.9188C91.7309 46.927 92.2538 47.005 92.617 47.153C92.9803 47.301 93.2318 47.5347 93.3717 47.8542C93.5222 48.1737 93.5984 48.6054 93.6005 49.1494L93.6108 51.9334C93.6133 52.6267 93.4979 53.1445 93.2645 53.4867C93.0311 53.8289 92.5733 54.0439 91.8909 54.1318C92.0403 54.1525 92.1685 54.2054 92.2755 54.2903C92.4038 54.3752 92.5642 54.4813 92.7567 54.6086C92.9492 54.7358 93.1416 54.8631 93.3341 54.9904C93.5372 55.1177 93.703 55.2237 93.8313 55.3086C94.0237 55.4145 94.1416 55.5794 94.1851 55.8033C94.2286 56.0271 94.1921 56.2352 94.0754 56.4277C93.9376 56.6522 93.7354 56.7703 93.4687 56.7819C93.2128 56.7935 92.9779 56.7304 92.764 56.5925C92.6357 56.5077 92.4753 56.4016 92.2829 56.2743C92.0904 56.147 91.8979 56.0144 91.7054 55.8765C91.5129 55.7385 91.3578 55.6217 91.2401 55.5262C91.0689 55.3775 90.9722 55.1912 90.95 54.9673C90.9385 54.7433 91.0018 54.5511 91.1399 54.3905C91.2355 54.2942 91.3472 54.2191 91.475 54.1653C91.3897 54.1763 91.2938 54.182 91.1871 54.1824C91.0911 54.1827 90.9898 54.1831 90.8831 54.1835L90.2111 54.186C90.0511 54.1866 89.8964 54.1872 89.7471 54.1877C89.6084 54.1776 89.4804 54.1674 89.363 54.1571C89.5551 54.1884 89.7155 54.2838 89.8441 54.4433C89.9833 54.6135 90.0481 54.8053 90.0382 55.0186C90.0283 55.232 89.9383 55.4137 89.7682 55.5636C89.6512 55.6601 89.497 55.778 89.3055 55.9174C89.1247 56.046 88.9385 56.18 88.747 56.3194C88.5555 56.4481 88.3905 56.5554 88.2522 56.6413ZM88.9154 58.5908C87.8061 58.5949 86.8191 58.5186 85.9545 58.3618C85.09 58.2157 84.3158 57.9732 83.6318 57.6344C82.9479 57.2956 82.3223 56.8552 81.7549 56.3133C81.5335 56.9968 81.2851 57.6218 81.0099 58.1881C80.904 58.4018 80.7339 58.5465 80.4995 58.622C80.2758 58.7082 80.0518 58.7037 79.8274 58.6085C79.6137 58.5133 79.4745 58.3591 79.4097 58.146C79.345 57.9436 79.3655 57.7409 79.4714 57.5378C79.6727 57.1424 79.8577 56.699 80.0265 56.2077C80.206 55.7164 80.3642 55.2198 80.501 54.718C80.6378 54.2055 80.7374 53.7358 80.7998 53.3089C80.8309 53.0634 80.9369 52.887 81.1178 52.7797C81.3094 52.6723 81.5119 52.6289 81.7253 52.6494C81.9601 52.6806 82.1418 52.7759 82.2704 52.9354C82.399 53.0949 82.4477 53.2868 82.4165 53.5109C82.3959 53.7029 82.3646 53.8951 82.3227 54.0872C82.2914 54.2793 82.2548 54.4768 82.2129 54.6796C82.3307 54.8179 82.4539 54.9507 82.5824 55.0783C82.7215 55.1951 82.8606 55.3119 82.9997 55.4287L82.9876 52.1807L80.3956 52.1904C80.193 52.1911 80.0167 52.1171 79.8668 51.9683C79.7169 51.8195 79.6416 51.6385 79.6408 51.4251C79.64 51.2118 79.714 51.0355 79.8628 50.8963C80.0116 50.7464 80.1873 50.6711 80.39 50.6704L86.31 50.6484C86.5233 50.6476 86.7049 50.7216 86.8548 50.8704C87.0046 51.0085 87.08 51.1842 87.0807 51.3976C87.0815 51.6109 87.0075 51.7925 86.8588 51.9424C86.71 52.0923 86.5289 52.1676 86.3156 52.1684L84.6356 52.1746L84.6398 53.3106L86.1118 53.3052C86.3145 53.3044 86.4854 53.3785 86.6246 53.5273C86.7745 53.6654 86.8498 53.8358 86.8505 54.0384C86.8513 54.2411 86.7773 54.4174 86.6285 54.5673C86.4904 54.7171 86.32 54.7924 86.1173 54.7932L84.6453 54.7986L84.6511 56.3666C85.7086 56.768 87.128 56.9654 88.9094 56.9588C89.2187 56.9577 89.5867 56.9563 90.0134 56.9547C90.4507 56.9531 90.8934 56.9515 91.3414 56.9498C91.8 56.9374 92.2159 56.9252 92.5892 56.9132C92.9732 56.9011 93.2611 56.8894 93.4531 56.878C93.7304 56.8663 93.96 56.9294 94.1418 57.0674C94.3237 57.2054 94.4045 57.4238 94.3842 57.7225C94.3543 58.288 93.998 58.572 93.3154 58.5745L88.9154 58.5908ZM83.3315 50.0035C82.6382 50.006 82.0886 49.9387 81.6828 49.8016C81.2876 49.6537 81.004 49.4147 80.8321 49.0847C80.6709 48.7546 80.5893 48.3176 80.5873 47.7736L80.5834 46.7176C80.5813 46.163 80.6597 45.7253 80.8185 45.4047C80.9879 45.0734 81.2697 44.8377 81.6639 44.6976C82.0686 44.5468 82.6177 44.4701 83.311 44.4675L83.567 44.4665C84.2604 44.464 84.8046 44.5366 85.1998 44.6845C85.6057 44.8217 85.8892 45.0553 86.0505 45.3853C86.2223 45.7047 86.3093 46.1417 86.3113 46.6964L86.3152 47.7524C86.3172 48.2964 86.2335 48.734 86.0641 49.0653C85.9053 49.3966 85.6235 49.6376 85.2188 49.7885C84.8246 49.9286 84.2809 49.9999 83.5875 50.0025L83.3315 50.0035ZM89.1271 50.942L91.927 50.9316L91.9242 50.1636L89.1242 50.174L89.1271 50.942ZM90.2061 52.842L90.8781 52.8395C91.3048 52.8379 91.582 52.7942 91.7096 52.7084C91.8479 52.6119 91.9218 52.3983 91.9313 52.0676L89.1313 52.078C89.1432 52.4086 89.2186 52.6217 89.3576 52.7171C89.4966 52.802 89.7795 52.8436 90.2061 52.842ZM89.12 49.022L91.9199 49.0116C91.9081 48.7023 91.8327 48.4999 91.6937 48.4044C91.5653 48.3089 91.2878 48.262 90.8612 48.2635L90.1892 48.266C89.7625 48.2676 89.48 48.3167 89.3417 48.4132C89.2141 48.5096 89.1401 48.7126 89.12 49.022ZM83.3266 48.6755L83.5826 48.6745C84.02 48.6729 84.3024 48.6185 84.43 48.5114C84.5683 48.4042 84.6368 48.1746 84.6355 47.8226L82.2675 47.8314C82.2795 48.1833 82.3496 48.4124 82.478 48.5186C82.6064 48.6248 82.8893 48.6771 83.3266 48.6755ZM82.2631 46.6474L84.6311 46.6386C84.6298 46.2866 84.5596 46.0629 84.4206 45.9674C84.2922 45.8612 84.0093 45.8089 83.572 45.8105L83.316 45.8115C82.8787 45.8131 82.5962 45.8675 82.4686 45.9746C82.341 46.0711 82.2725 46.2954 82.2631 46.6474ZM108.468 58.6623C108.083 58.5251 107.651 58.34 107.17 58.1072C106.689 57.8743 106.213 57.6147 105.743 57.3284C105.272 57.0422 104.855 56.7611 104.492 56.4851C104.299 56.3364 104.186 56.1502 104.154 55.9263C104.131 55.6917 104.189 55.4835 104.327 55.3017C104.444 55.1626 104.572 55.0714 104.71 55.0282L101.382 55.0406C101.446 55.0723 101.511 55.1094 101.575 55.1519C101.639 55.1943 101.692 55.2474 101.735 55.3113C101.885 55.5134 101.934 55.7265 101.882 55.9507C101.84 56.1642 101.734 56.3406 101.564 56.4799C101.245 56.7371 100.856 57.0052 100.399 57.2842C99.941 57.5633 99.4673 57.821 98.9775 58.0575C98.4984 58.294 98.0565 58.4929 97.6517 58.6544C97.3428 58.7729 97.0656 58.8006 96.82 58.7375C96.5745 58.6851 96.3926 58.5258 96.2742 58.2595C96.1667 58.0146 96.1605 57.78 96.2556 57.5556C96.3508 57.3312 96.5369 57.1706 96.8138 57.0735C97.2186 56.9227 97.6446 56.7451 98.0919 56.5408C98.5498 56.3258 98.9863 56.1055 99.4014 55.8799C99.8166 55.6437 100.173 55.4184 100.471 55.204C100.513 55.1718 100.556 55.145 100.599 55.1235C100.652 55.0913 100.7 55.0644 100.742 55.043L96.3744 55.0591C96.1504 55.06 95.9581 54.986 95.7976 54.8373C95.6476 54.6778 95.5723 54.4914 95.5715 54.2781C95.5706 54.0541 95.6446 53.8672 95.7934 53.7173C95.9528 53.5567 96.1445 53.476 96.3685 53.4752L96.9765 53.4729L96.8254 47.2494C96.813 46.7695 96.8489 46.3853 96.9332 46.097C97.0281 45.798 97.2032 45.5627 97.4586 45.3911C97.7139 45.2088 98.0813 45.0581 98.5609 44.939C98.742 44.885 98.9232 44.8363 99.1043 44.793C99.2961 44.7389 99.4826 44.6849 99.6637 44.6309C99.8662 44.5768 100.058 44.5868 100.24 44.6607C100.421 44.7241 100.545 44.8623 100.609 45.0754C100.685 45.3098 100.675 45.5125 100.58 45.6835C100.495 45.8438 100.346 45.951 100.133 46.0052C99.9943 46.0483 99.8452 46.0969 99.6854 46.1508C99.5255 46.1941 99.387 46.2266 99.2697 46.2484C98.9394 46.3349 98.7318 46.437 98.6469 46.5547C98.5619 46.6616 98.5254 46.8805 98.5373 47.2111L98.5391 47.7071L99.7871 47.7024C100 47.7017 100.177 47.7703 100.316 47.9085C100.466 48.0466 100.541 48.2223 100.542 48.4357C100.543 48.6383 100.469 48.8146 100.32 48.9645C100.182 49.1037 100.006 49.1736 99.7926 49.1744L98.5766 49.1789L98.6137 50.5548L99.7977 50.5504C100.011 50.5496 100.187 50.6183 100.326 50.7565C100.476 50.8946 100.552 51.0703 100.552 51.2836C100.553 51.4863 100.479 51.6626 100.33 51.8125C100.192 51.9516 100.016 52.0216 99.8031 52.0224L98.6512 52.0267L98.6885 53.4666L101.072 53.4577L101.062 50.7057C101.061 50.4817 101.135 50.3055 101.284 50.1769C101.433 50.0377 101.609 49.9677 101.812 49.967C102.025 49.9662 102.201 50.0348 102.34 50.173C102.49 50.3004 102.565 50.4762 102.566 50.7002L102.576 53.4521L103.456 53.4489L103.445 50.2649C103.444 49.9556 103.4 49.7584 103.314 49.6734C103.239 49.5777 103.031 49.5304 102.69 49.5317C102.082 49.534 101.655 49.4235 101.409 49.2004C101.173 48.9667 101.054 48.5351 101.052 47.9058L101.041 44.9778C101.04 44.7324 101.119 44.5348 101.279 44.3849C101.438 44.235 101.63 44.1596 101.854 44.1588C102.078 44.1579 102.27 44.2319 102.431 44.3806C102.602 44.5293 102.688 44.7263 102.689 44.9717L102.692 45.6757L104.356 45.6695C104.548 45.6688 104.713 45.7375 104.852 45.8757C104.992 46.0031 105.061 46.1629 105.062 46.3549C105.063 46.5469 104.994 46.7125 104.856 46.8517C104.718 46.9908 104.553 47.0608 104.361 47.0615L102.697 47.0677L102.699 47.5477C102.7 47.8357 102.754 48.0221 102.861 48.1071C102.968 48.1813 103.176 48.2179 103.485 48.2167C103.986 48.2149 104.355 48.3415 104.59 48.5966C104.837 48.8411 104.961 49.2673 104.963 49.8753L104.976 53.4433L107.296 53.4347L107.323 52.0105L106.123 52.015C105.92 52.0157 105.744 51.9417 105.594 51.7929C105.455 51.6441 105.385 51.4684 105.384 51.2657C105.384 51.0631 105.452 50.8921 105.59 50.753C105.739 50.6031 105.915 50.5278 106.118 50.527L107.35 50.5224L107.361 49.1464L106.113 49.151C105.91 49.1518 105.734 49.0831 105.584 48.945C105.445 48.7962 105.375 48.6204 105.374 48.4177C105.373 48.2044 105.442 48.0282 105.58 47.889C105.729 47.7498 105.904 47.6798 106.107 47.679L107.387 47.6743L107.401 47.1782C107.411 46.8368 107.356 46.613 107.239 46.5068C107.121 46.3899 106.891 46.3321 106.55 46.3334L105.798 46.3362C105.595 46.3369 105.419 46.2629 105.269 46.1141C105.119 45.9653 105.044 45.7896 105.043 45.5869C105.043 45.3736 105.117 45.192 105.265 45.0421C105.414 44.8922 105.59 44.8169 105.792 44.8162L106.656 44.813C107.307 44.8106 107.809 44.8834 108.161 45.0314C108.524 45.1687 108.776 45.4078 108.916 45.7486C109.056 46.0894 109.116 46.5585 109.097 47.1559L108.992 53.4284L109.632 53.426C109.856 53.4252 110.043 53.5045 110.193 53.6639C110.354 53.8127 110.435 53.999 110.435 54.223C110.436 54.4364 110.357 54.6233 110.197 54.7839C110.049 54.9338 109.862 55.0092 109.638 55.01L105.238 55.0263C105.292 55.0368 105.345 55.0579 105.399 55.0897C105.463 55.1215 105.516 55.1533 105.559 55.1851C105.88 55.4079 106.259 55.6412 106.698 55.8849C107.136 56.1179 107.585 56.3403 108.044 56.5519C108.514 56.7528 108.931 56.9166 109.294 57.0433C109.539 57.117 109.705 57.2604 109.791 57.4734C109.888 57.6971 109.894 57.9264 109.81 58.1614C109.704 58.4604 109.518 58.6371 109.252 58.6914C108.996 58.7564 108.735 58.7467 108.468 58.6623ZM113.573 58.8514C113.317 58.8524 113.098 58.7679 112.916 58.5979C112.744 58.4385 112.658 58.2201 112.657 57.9428L112.651 56.2308C112.576 56.2418 112.502 56.2527 112.427 56.2637C112.363 56.2746 112.304 56.2854 112.251 56.2963C111.953 56.3401 111.707 56.2877 111.514 56.139C111.333 55.9797 111.225 55.7774 111.192 55.5322C111.17 55.287 111.228 55.0681 111.366 54.8756C111.504 54.6831 111.722 54.5703 112.021 54.5371C112.116 54.5155 112.218 54.4991 112.324 54.488C112.431 54.477 112.538 54.4659 112.644 54.4548L112.618 47.2549C112.615 46.4976 112.762 45.9477 113.059 45.6052C113.357 45.2521 113.879 44.9889 114.625 44.8154C115.051 44.7178 115.509 44.6041 115.999 44.4743C116.5 44.3445 116.932 44.2309 117.294 44.1335C117.582 44.0578 117.822 44.0729 118.014 44.1789C118.217 44.2741 118.356 44.4283 118.432 44.6413C118.507 44.865 118.498 45.0891 118.402 45.3134C118.307 45.5271 118.126 45.6665 117.86 45.7314C117.455 45.8396 117.034 45.9425 116.597 46.0401C116.16 46.1377 115.75 46.2246 115.366 46.3007C115.004 46.3767 114.753 46.4843 114.615 46.6235C114.488 46.752 114.425 47.0242 114.426 47.4402L114.427 47.6482L116.923 47.6389C117.179 47.638 117.382 47.7226 117.532 47.8927C117.682 48.0521 117.757 48.2492 117.758 48.4838C117.759 48.7185 117.685 48.9161 117.536 49.0767C117.388 49.2372 117.185 49.318 116.929 49.3189L114.433 49.3282L114.439 50.7842L116.935 50.7749C117.191 50.774 117.394 50.8532 117.544 51.0127C117.693 51.1721 117.769 51.3692 117.77 51.6038C117.771 51.8385 117.697 52.0414 117.548 52.2126C117.399 52.3732 117.197 52.4539 116.941 52.4549L114.445 52.4641L114.451 54.1921C114.942 54.1157 115.421 54.0392 115.89 53.9628C116.359 53.8757 116.77 53.8049 117.122 53.7502C117.399 53.6959 117.623 53.7217 117.794 53.8277C117.965 53.9338 118.072 54.1094 118.116 54.3546C118.17 54.5997 118.144 54.8131 118.038 54.9948C117.943 55.1765 117.762 55.2945 117.496 55.3489C117.144 55.4248 116.691 55.5172 116.137 55.6259C115.582 55.724 115.023 55.822 114.458 55.9201L114.465 57.9361C114.466 58.2134 114.382 58.4324 114.212 58.5931C114.042 58.7644 113.829 58.8505 113.573 58.8514ZM118.036 58.6589C117.748 58.7346 117.492 58.7142 117.268 58.5977C117.054 58.4919 116.909 58.3217 116.834 58.0873C116.758 57.8529 116.768 57.6342 116.863 57.4312C116.969 57.2282 117.155 57.0888 117.422 57.0131C118.018 56.8296 118.599 56.6034 119.163 56.3347C119.728 56.0659 120.249 55.7547 120.728 55.4009C120.053 54.5394 119.532 53.5226 119.164 52.3507L118.748 52.3522C118.514 52.3531 118.322 52.2791 118.172 52.1303C118.032 51.9708 117.962 51.7844 117.962 51.5711C117.961 51.3578 118.029 51.1762 118.168 51.0263C118.316 50.8658 118.508 50.7851 118.743 50.7842L123.255 50.7675C123.809 50.7654 124.236 50.8812 124.536 51.1147C124.846 51.3376 125.029 51.6356 125.083 52.0087C125.138 52.3712 125.054 52.7662 124.832 53.1937C124.62 53.6104 124.376 54.0113 124.1 54.3964C123.835 54.7814 123.548 55.1451 123.24 55.4876C123.615 55.7742 124.021 56.0287 124.459 56.2511C124.908 56.4734 125.394 56.6529 125.917 56.7897C126.205 56.8633 126.414 57.0012 126.543 57.2033C126.682 57.4055 126.704 57.6454 126.609 57.9231C126.525 58.1901 126.355 58.372 126.099 58.469C125.854 58.5659 125.593 58.5722 125.315 58.4879C124.002 58.0554 122.879 57.4463 121.948 56.6604C120.832 57.5392 119.528 58.2053 118.036 58.6589ZM119.38 50.1898C119.178 50.3399 118.944 50.4101 118.677 50.4004C118.421 50.3907 118.213 50.2955 118.052 50.1148C117.902 49.9447 117.832 49.7529 117.842 49.5395C117.863 49.3155 117.958 49.1338 118.128 48.9945C118.415 48.7587 118.633 48.5286 118.781 48.304C118.941 48.0688 119.052 47.7857 119.114 47.4548C119.188 47.1132 119.223 46.6757 119.221 46.1424C119.23 45.481 119.404 45.0164 119.744 44.7485C120.085 44.4805 120.687 44.345 121.551 44.3418C122.415 44.3386 123.018 44.475 123.36 44.7511C123.703 45.0164 123.875 45.4798 123.878 46.1411L123.885 48.0451C123.885 48.1838 123.917 48.2797 123.982 48.3328C124.057 48.3858 124.174 48.4121 124.334 48.4115C124.537 48.4107 124.675 48.3622 124.749 48.2659C124.824 48.159 124.897 47.924 124.971 47.5611C125.023 47.3262 125.151 47.1604 125.353 47.0637C125.555 46.9563 125.774 46.9341 126.009 46.9972C126.254 47.071 126.431 47.193 126.538 47.3633C126.645 47.5336 126.678 47.7361 126.636 47.9709C126.501 48.7714 126.252 49.3217 125.89 49.6217C125.54 49.9217 125.001 50.073 124.276 50.0757C123.519 50.0785 122.98 49.9685 122.659 49.7457C122.338 49.5122 122.176 49.0701 122.174 48.4195L122.167 46.4675C122.166 46.2542 122.123 46.1103 122.037 46.036C121.962 45.9616 121.802 45.9248 121.557 45.9257C121.322 45.9266 121.162 45.9645 121.077 46.0395C121.003 46.1145 120.961 46.2533 120.951 46.456C120.933 47.4267 120.797 48.1899 120.543 48.7455C120.289 49.3011 119.902 49.7826 119.38 50.1898ZM122.02 54.2761C122.2 54.0834 122.365 53.8855 122.513 53.6823C122.662 53.4684 122.805 53.2545 122.943 53.0407C123.208 52.5703 123.068 52.3362 122.524 52.3382L120.908 52.3442C121.178 53.0365 121.548 53.6805 122.02 54.2761ZM136.5 58.6544C135.796 58.6571 135.246 58.5844 134.851 58.4366C134.456 58.2994 134.172 58.0604 134 57.7197C133.839 57.379 133.758 56.9153 133.755 56.3286C133.754 55.8593 133.8 55.4698 133.895 55.1601C134.001 54.8503 134.176 54.6044 134.42 54.4221C134.207 54.5082 133.984 54.5944 133.749 54.6806C133.526 54.7668 133.291 54.853 133.046 54.9392C132.812 55.0148 132.582 55.0103 132.358 54.9258C132.144 54.8412 132 54.6711 131.924 54.4154C131.849 54.181 131.864 53.9783 131.97 53.8072C132.087 53.6254 132.262 53.4968 132.497 53.4212C133.093 53.2377 133.684 53.0222 134.27 52.7747C134.856 52.5272 135.415 52.2478 135.947 51.9364C135.487 51.5328 135.069 51.1024 134.694 50.6451C134.291 51.1052 133.892 51.4907 133.499 51.8015C133.318 51.9515 133.105 52.0323 132.859 52.0439C132.625 52.0448 132.427 51.9602 132.267 51.7901C132.095 51.6094 132.02 51.4017 132.04 51.1669C132.061 50.9215 132.172 50.7184 132.374 50.5577C132.693 50.3005 133.017 49.9953 133.347 49.6421C133.687 49.2888 134.011 48.9249 134.319 48.5505C134.626 48.1653 134.886 47.807 135.099 47.4756C135.236 47.2617 135.412 47.1331 135.625 47.0896C135.838 47.0461 136.041 47.0721 136.233 47.1674L136.231 46.6394L133.591 46.6491L133.593 47.0971C133.594 47.3745 133.504 47.5988 133.324 47.7701C133.154 47.9308 132.946 48.0115 132.701 48.0125C132.445 48.0134 132.226 47.9342 132.044 47.7749C131.872 47.6049 131.786 47.3812 131.785 47.1038L131.783 46.6558L128.503 46.668C128.301 46.6688 128.13 46.6001 127.991 46.4619C127.852 46.3131 127.782 46.1373 127.781 45.9347C127.78 45.732 127.849 45.5558 127.987 45.4059C128.125 45.2561 128.295 45.1808 128.498 45.18L131.778 45.1679L131.776 44.6719C131.775 44.3945 131.86 44.1755 132.03 44.0149C132.21 43.8436 132.429 43.7574 132.685 43.7565C132.93 43.7556 133.138 43.8401 133.31 44.0102C133.492 44.1695 133.583 44.3878 133.584 44.6652L133.586 45.1612L136.226 45.1514L136.224 44.6554C136.223 44.378 136.308 44.1591 136.478 43.9984C136.658 43.8271 136.871 43.741 137.117 43.7401C137.373 43.7391 137.586 43.8236 137.758 43.9937C137.94 44.153 138.031 44.3713 138.032 44.6487L138.034 45.1447L141.442 45.132C141.645 45.1313 141.816 45.2053 141.955 45.3541C142.094 45.503 142.164 45.6787 142.165 45.8814C142.165 46.084 142.097 46.2603 141.959 46.4101C141.82 46.5493 141.65 46.6193 141.447 46.62L138.039 46.6327L138.041 47.0487C138.042 47.326 137.952 47.5503 137.771 47.7217C137.601 47.8823 137.388 47.9631 137.132 47.964C136.951 47.9647 136.802 47.9279 136.684 47.8537C136.706 48.0349 136.659 48.2058 136.542 48.3662L136.494 48.4144L138.606 48.4066C139.171 48.4045 139.598 48.5362 139.887 48.8018C140.187 49.0674 140.327 49.3975 140.307 49.7923C140.298 50.1763 140.107 50.5664 139.735 50.9624C139.427 51.2942 139.103 51.6047 138.763 51.894C139.255 52.1589 139.762 52.397 140.286 52.6084C140.82 52.8197 141.359 52.9937 141.904 53.1304C142.16 53.1828 142.352 53.3154 142.481 53.5282C142.61 53.7304 142.632 53.9597 142.548 54.216C142.474 54.4509 142.325 54.6168 142.101 54.7137C141.888 54.8104 141.638 54.822 141.35 54.7484C139.919 54.3804 138.573 53.7881 137.311 52.9714C136.981 53.1753 136.64 53.3739 136.289 53.5672C135.938 53.7498 135.565 53.9325 135.171 54.1153C135.502 54.0394 135.939 54.0005 136.483 53.9985L137.699 53.994C138.403 53.9914 138.952 54.064 139.348 54.2119C139.753 54.349 140.037 54.588 140.198 54.9287C140.359 55.2588 140.441 55.7171 140.443 56.3038C140.445 56.8905 140.367 57.3548 140.208 57.6967C140.05 58.0386 139.768 58.2797 139.363 58.4198C138.969 58.5706 138.42 58.6473 137.716 58.6499L136.5 58.6544ZM128.483 58.3642C128.258 58.2157 128.124 58.0188 128.081 57.7736C128.037 57.5391 128.09 57.3203 128.238 57.1171C128.419 56.8711 128.636 56.5716 128.891 56.2186C129.146 55.855 129.395 55.4914 129.639 55.1279C129.883 54.7643 130.079 54.4542 130.227 54.1977C130.355 53.9839 130.53 53.8499 130.754 53.7957C130.988 53.7415 131.207 53.7727 131.41 53.8893C131.624 54.0165 131.769 54.1866 131.844 54.3997C131.93 54.602 131.904 54.8208 131.767 55.056C131.618 55.3232 131.422 55.6492 131.178 56.0342C130.945 56.4084 130.701 56.7826 130.446 57.1569C130.192 57.5312 129.974 57.836 129.794 58.0713C129.635 58.2746 129.427 58.4087 129.171 58.4736C128.926 58.5385 128.697 58.502 128.483 58.3642ZM131.14 50.0023C131.022 49.9067 130.867 49.7953 130.675 49.668C130.493 49.5406 130.306 49.4133 130.113 49.2861C129.931 49.1481 129.776 49.042 129.648 48.9678C129.456 48.8405 129.343 48.6649 129.31 48.441C129.277 48.2171 129.33 48.0143 129.468 47.8324C129.616 47.6399 129.803 47.5219 130.027 47.4784C130.25 47.4242 130.464 47.4607 130.667 47.588C130.774 47.6516 130.929 47.7524 131.132 47.8903C131.346 48.0281 131.554 48.166 131.758 48.3039C131.961 48.4419 132.116 48.5533 132.223 48.6382C132.426 48.7761 132.533 48.9677 132.545 49.213C132.567 49.4476 132.504 49.6612 132.355 49.8537C132.217 50.0356 132.026 50.143 131.781 50.1759C131.546 50.1981 131.332 50.1402 131.14 50.0023ZM129.822 52.7112C129.704 52.6263 129.544 52.5255 129.341 52.4089C129.138 52.2817 128.935 52.1598 128.731 52.0432C128.539 51.9159 128.384 51.8205 128.266 51.7569C128.063 51.6403 127.94 51.4755 127.897 51.2623C127.853 51.0491 127.884 50.841 127.99 50.6379C128.117 50.4241 128.293 50.2901 128.517 50.236C128.751 50.1711 128.975 50.1969 129.189 50.3135C129.307 50.377 129.467 50.4725 129.67 50.5997C129.884 50.7162 130.092 50.8381 130.295 50.9654C130.509 51.0819 130.67 51.1773 130.777 51.2516C130.98 51.3895 131.103 51.5757 131.147 51.8102C131.19 52.0341 131.143 52.2529 131.005 52.4668C130.878 52.6592 130.697 52.7826 130.462 52.8368C130.228 52.891 130.014 52.8491 129.822 52.7112ZM136.51 57.1344L137.694 57.13C138.068 57.1286 138.318 57.0744 138.446 56.9672C138.573 56.8601 138.637 56.6412 138.635 56.3105C138.634 55.9905 138.569 55.7774 138.441 55.6712C138.313 55.565 138.062 55.5126 137.688 55.514L136.504 55.5184C136.131 55.5198 135.881 55.5741 135.753 55.6812C135.625 55.7883 135.562 56.0019 135.563 56.3219C135.565 56.6526 135.629 56.871 135.758 56.9772C135.886 57.0834 136.137 57.1358 136.51 57.1344ZM137.352 50.9712C137.639 50.7462 137.899 50.5159 138.133 50.2803C138.314 50.1197 138.383 49.9861 138.339 49.8796C138.296 49.7624 138.152 49.7043 137.907 49.7052L135.987 49.7123C136.19 49.9462 136.405 50.1694 136.629 50.3819C136.865 50.5837 137.105 50.7801 137.352 50.9712Z" fill="black" fill-opacity="0.85"/>
</g>
<defs>
<radialGradient id="paint0_radial_1260_3863" cx="0" cy="0" r="1" gradientUnits="userSpaceOnUse" gradientTransform="translate(0.558656 46.8353) rotate(65.4889) scale(3.32531 8.21233)">
<stop offset="0.33" stop-opacity="0"/>
<stop offset="0.655" stop-opacity="0.6"/>
<stop offset="1"/>
</radialGradient>
<radialGradient id="paint1_radial_1260_3863" cx="0" cy="0" r="1" gradientUnits="userSpaceOnUse" gradientTransform="translate(355.296 45.8572) rotate(114.511) scale(3.32531 8.21233)">
<stop offset="0.33" stop-opacity="0"/>
<stop offset="0.655" stop-opacity="0.6"/>
<stop offset="1"/>
</radialGradient>
<clipPath id="clip0_1260_3863">
<rect width="200" height="90" fill="white"/>
</clipPath>
</defs>
</svg>
