<svg width="200" height="90" viewBox="0 0 200 90" fill="none" xmlns="http://www.w3.org/2000/svg">
<g clip-path="url(#clip0_2308_6881)">
<rect width="200" height="90" fill="#FEB79D"/>
<path fill-rule="evenodd" clip-rule="evenodd" d="M-6.18027 85.5257C-5.5206 81.3514 -9.94765 77.2571 -7.65473 73.2393C-4.94813 68.4966 -1.65241 61.9915 7.77154 61.0783C17.9972 60.0873 23.5998 68.8258 33.9785 69.2048C45.8176 69.6371 56.5881 60.196 66.8872 63.2371C76.2425 65.9996 70.121 74.0119 68.9752 79.5387C68.1676 83.4341 61.5364 86.4306 61.2669 90.3457C60.8502 96.3973 75.7689 103.853 67.0229 107.895C58.3557 111.9 45.7383 103.802 34.2527 102.83C27.3162 102.243 20.5655 103.925 13.6182 103.373C4.65786 102.66 -7.2514 103.227 -11.7526 99.1698C-16.3208 95.0519 -6.92748 90.2539 -6.18027 85.5257Z" fill="#FE585B"/>
<path fill-rule="evenodd" clip-rule="evenodd" d="M28.4743 10.5302C32.6486 10.8717 36.7429 8.58004 40.7607 9.76696C45.5034 11.168 52.0085 12.874 52.9217 17.7523C53.9127 23.0456 45.1742 25.9458 44.7952 31.3183C44.3629 37.4467 53.804 43.0221 50.7629 48.3534C48.0004 53.1961 39.9881 50.0274 34.4613 49.4342C30.5659 49.0162 27.5694 45.5836 23.6543 45.444C17.6027 45.2284 10.1469 52.9509 6.10508 48.4236C2.09968 43.9371 10.1975 37.4057 11.1701 31.4602C11.7575 27.8695 10.0747 24.3751 10.6274 20.7788C11.3402 16.1405 10.7727 9.97575 14.8302 7.64571C18.9481 5.281 23.7461 10.1434 28.4743 10.5302Z" fill="#FC7443"/>
<path fill-rule="evenodd" clip-rule="evenodd" d="M173.474 4.53021C177.649 4.87169 181.743 2.58004 185.761 3.76696C190.503 5.16803 197.008 6.87405 197.922 11.7523C198.913 17.0456 190.174 19.9458 189.795 25.3183C189.363 31.4467 198.804 37.0221 195.763 42.3534C193 47.1961 184.988 44.0274 179.461 43.4342C175.566 43.0162 172.569 39.5836 168.654 39.444C162.603 39.2284 155.147 46.9509 151.105 42.4236C147.1 37.9371 155.198 31.4057 156.17 25.4602C156.757 21.8695 155.075 18.3751 155.627 14.7788C156.34 10.1405 155.773 3.97575 159.83 1.64571C163.948 -0.719004 168.746 4.14342 173.474 4.53021Z" fill="#FF8787"/>
<path fill-rule="evenodd" clip-rule="evenodd" d="M117.063 7.20494C131.49 7.9797 144.155 11.9054 154.996 17.5775C166.733 23.7188 176.896 30.8598 179.688 39.9711C183.097 51.0949 184.354 63.7453 171.749 72.2549C158.691 81.0707 136.857 81.4742 117.063 82.2497C95.2362 83.1048 71.8992 84.7511 54.6033 76.8446C35.6156 68.1646 20.8565 53.9771 24.5773 39.9711C28.0889 26.7526 52.1053 19.9805 71.5388 13.0955C85.3864 8.18958 100.98 6.34119 117.063 7.20494Z" fill="#FFAB7A"/>
<ellipse cx="177.989" cy="70.7269" rx="16.7876" ry="14.0511" fill="#F55A57"/>
<ellipse cx="173.713" cy="65.6395" rx="1.21537" ry="2.15126" fill="black"/>
<ellipse cx="182.288" cy="65.6395" rx="1.21537" ry="2.15126" fill="black"/>
<path d="M173.043 72.6426C173.079 74.5703 175.312 76.0917 178.031 76.0408C180.749 75.99 182.924 74.386 182.888 72.4584C182.852 70.5307 180.67 71.7806 177.952 71.8314C175.233 71.8823 173.007 70.7149 173.043 72.6426Z" fill="black"/>
<path d="M170.798 50.9035C173.679 48.6452 180.102 51.1915 180.102 55.0219C180.103 59.542 168.088 61.6232 165.803 61.9782C165.554 62.0169 165.305 62.044 165.056 62.039C163.427 62.0062 157.617 61.2375 170.798 50.9035Z" fill="#6E5232"/>
<path d="M170.798 50.9035C173.679 48.6452 180.102 51.1915 180.102 55.0219C180.103 59.542 168.088 61.6232 165.803 61.9782C165.554 62.0169 165.305 62.044 165.056 62.039C163.427 62.0062 157.617 61.2375 170.798 50.9035Z" fill="url(#paint0_radial_2308_6881)" fill-opacity="0.15"/>
<path d="M185.204 50.7629C182.323 48.5045 175.9 51.0509 175.9 54.8813C175.899 59.4014 187.914 61.4825 190.199 61.8375C190.448 61.8763 190.697 61.9034 190.946 61.8984C192.575 61.8656 198.385 61.0968 185.204 50.7629Z" fill="#6E5232"/>
<path d="M185.204 50.7629C182.323 48.5045 175.9 51.0509 175.9 54.8813C175.899 59.4014 187.914 61.4825 190.199 61.8375C190.448 61.8763 190.697 61.9034 190.946 61.8984C192.575 61.8656 198.385 61.0968 185.204 50.7629Z" fill="url(#paint1_radial_2308_6881)" fill-opacity="0.15"/>
<path d="M46.9881 36.1684C47.0266 35.7749 47.1893 35.601 47.4761 35.6466C47.763 35.6922 47.887 35.8951 47.8484 36.2552C47.8107 36.8753 47.7226 37.3923 47.5841 37.8062C47.525 38.0331 47.3552 38.097 47.0748 37.9981C46.8012 37.9058 46.694 37.7628 46.7532 37.5693C46.8721 37.2688 46.9504 36.8019 46.9881 36.1684ZM48.1881 36.1739C48.1469 35.8608 48.2562 35.6704 48.516 35.6027C48.7757 35.5351 48.9228 35.6346 48.9571 35.9011L49.1318 37.1805C49.1661 37.447 49.0434 37.6174 48.7637 37.6918C48.4907 37.7662 48.3436 37.6634 48.3226 37.3835C48.3215 37.0901 48.2766 36.687 48.1881 36.1739ZM49.2869 35.8499C49.2193 35.5901 49.3053 35.4198 49.545 35.3389C49.7847 35.2514 49.945 35.3374 50.026 35.5971L50.37 36.6859C50.4443 36.9456 50.3516 37.1259 50.092 37.2269C49.839 37.3278 49.6787 37.2484 49.6111 36.9887L49.2869 35.8499ZM53.2063 35.6853L54.0761 35.6321C54.3494 35.6244 54.4966 35.7539 54.5176 36.0205C54.5452 36.287 54.4224 36.4308 54.1492 36.4519L53.9393 36.4826L53.0993 36.4857C52.6926 36.4872 52.419 36.4083 52.2784 36.2488C52.1444 36.0826 52.0767 35.7895 52.0751 35.3695L52.0729 34.7795C51.8796 34.7803 51.7824 34.6339 51.7813 34.3406C51.7802 34.0406 51.9163 33.8901 52.1896 33.8891L52.7896 33.8869L52.7089 33.6972C52.5945 33.3909 52.6937 33.1872 53.0067 33.0861L53.1365 33.0456L52.1365 33.0493C51.8632 33.0503 51.726 32.9041 51.7249 32.6108C51.7238 32.3108 51.8599 32.1603 52.1332 32.1593L52.2632 32.1588C52.2218 31.7723 52.1507 31.4826 52.05 31.2896C51.9423 31.0033 51.9983 30.8231 52.218 30.749C52.4444 30.6748 52.5981 30.7676 52.679 31.0273L52.8408 31.5067C52.9419 31.8063 52.8427 32.0067 52.543 32.1078L52.4132 32.1583L53.2932 32.155L53.5491 31.044C53.6081 30.7838 53.7711 30.6899 54.0381 30.7622C54.305 30.8279 54.3989 30.9909 54.3199 31.2512L54.0432 32.1522L54.1432 32.1518C54.4165 32.1508 54.5538 32.3003 54.5549 32.6003C54.556 32.8937 54.4198 33.0408 54.1465 33.0418L53.3865 33.0447L53.4974 33.2842C53.6252 33.5838 53.5559 33.784 53.2896 33.885L54.1096 33.882C54.383 33.881 54.5202 34.0305 54.5213 34.3305C54.5224 34.6238 54.3863 34.771 54.1129 34.772L53.0129 34.7761L53.016 35.616C53.0629 35.6625 53.1263 35.6856 53.2063 35.6853ZM55.313 29.3975C55.6397 29.3963 55.8036 29.559 55.8048 29.8857L55.7441 37.7759C55.6913 37.9228 55.5884 38.0365 55.4353 38.1171C55.1958 38.2513 54.9127 38.3124 54.586 38.3002C54.2261 38.3149 53.9955 38.1524 53.8942 37.8128C53.7996 37.4798 53.889 37.3128 54.1623 37.3118L54.6023 37.3102C54.7157 37.3164 54.7722 37.2629 54.7717 37.1495L54.7478 30.6896C54.7472 30.5163 54.6602 30.4299 54.4868 30.4306L51.7969 30.4405C51.6235 30.4412 51.5372 30.5282 51.5378 30.7015L51.5646 37.9314C51.5656 38.2048 51.3895 38.3421 51.0361 38.3434C50.6828 38.3447 50.5056 38.2087 50.5046 37.9354L50.4931 34.8154L50.2435 34.9263C49.8774 35.081 49.6605 35.0185 49.5928 34.7387C48.1736 34.9773 47.3909 35.1336 47.2445 35.2074C47.1379 35.2412 47.0308 35.1016 46.9229 34.7886C46.8151 34.469 46.821 34.279 46.9408 34.2186C47.1074 34.2046 47.5089 33.7098 48.1453 32.7341C47.5456 32.803 47.2491 32.8507 47.2559 32.8774C47.0961 32.9313 46.9589 32.8018 46.8444 32.4889C46.7366 32.1693 46.7724 31.9458 46.9519 31.8185C46.9322 31.8986 47.0218 31.7816 47.2206 31.4675C47.3466 31.287 47.5287 30.953 47.7669 30.4655C48.0051 29.9712 48.1538 29.6174 48.213 29.4038C48.3054 29.1501 48.5085 29.0894 48.8223 29.2215C49.1428 29.3537 49.2402 29.56 49.1146 29.8405C48.8304 30.5082 48.5093 31.1061 48.1513 31.634C48.0518 31.7878 48.0888 31.8609 48.2621 31.8536L48.7119 31.812L49.228 30.7601C49.3471 30.5196 49.5504 30.4922 49.8377 30.6778C50.1251 30.8634 50.2059 31.0798 50.0801 31.3269C49.6499 32.1752 49.0997 33.0139 48.4294 33.843C48.31 33.9968 48.3336 34.0634 48.5002 34.0428L49.3397 33.9197L49.2286 33.6201C49.141 33.3671 49.2237 33.1934 49.4767 33.0991C49.7297 32.9982 49.8999 33.0742 49.9875 33.3273L50.4926 34.6954L50.4748 29.8954C50.4736 29.5754 50.633 29.4148 50.953 29.4136L55.313 29.3975ZM61.9922 34.5628L64.3422 34.5541C63.9214 34.3289 63.5203 34.0571 63.1392 33.7385C62.787 34.0465 62.4046 34.3212 61.9922 34.5628ZM62.06 36.6625C62.0606 36.8359 62.1476 36.9222 62.3209 36.9216L63.8909 36.9157C64.0643 36.9151 64.1506 36.8281 64.15 36.6548L64.1459 35.5548L62.0559 35.5625L62.06 36.6625ZM60.1779 33.4095C60.3721 33.6421 60.383 33.8821 60.2106 34.1294L60.131 34.2297C60.9698 33.9132 61.7049 33.4905 62.3363 32.9615L61.5826 31.9843C61.3437 32.2785 61.1944 32.4457 61.1345 32.4859C60.9418 32.6666 60.7585 32.674 60.5846 32.508C60.5845 32.488 60.4307 32.3552 60.1231 32.1097L59.2731 32.1128L59.274 32.3528L60.1779 33.4095ZM63.7998 31.216C63.8926 31.0757 63.8524 31.0058 63.679 31.0065L62.299 31.0116L62.2294 31.1119L63.0936 32.2287L63.7998 31.216ZM64.2751 29.9543C64.5485 29.9533 64.8087 30.0123 65.0558 30.1314C65.3096 30.2438 65.3869 30.4335 65.2879 30.7005C65.064 31.4414 64.6101 32.1964 63.9263 32.9656C64.5948 33.4698 65.2127 33.7975 65.78 33.9487C66.0536 34.0277 66.071 34.2343 65.8323 34.5685C65.5935 34.8961 65.414 35.0368 65.2938 34.9905L65.303 37.4605C65.3041 37.7738 65.1447 37.9311 64.8247 37.9323L61.4347 37.9449C61.1147 37.946 60.9541 37.7866 60.953 37.4666L60.9442 35.0967C60.6047 35.2379 60.3545 35.1822 60.1936 34.9294L59.922 34.5204C59.8624 34.6073 59.809 34.6075 59.762 34.521L59.2789 33.6828L59.2945 37.8828C59.2955 38.1561 59.1093 38.2935 58.736 38.2949C58.3627 38.2962 58.1755 38.1603 58.1745 37.8869L58.162 34.507C57.8519 35.3948 57.5808 35.9891 57.3486 36.29C57.2292 36.4704 57.0756 36.381 56.8876 36.0217C56.7062 35.6624 56.6852 35.3858 56.8245 35.1919C56.9838 34.998 57.1923 34.5906 57.45 33.9696C57.7143 33.3486 57.9187 32.7312 58.0631 32.1173L57.2531 32.1203C56.9798 32.1213 56.8424 31.9385 56.8411 31.5718C56.8397 31.2052 56.9757 31.0213 57.249 31.0203L58.149 31.017L58.143 29.377C58.1419 29.1037 58.3281 28.9663 58.7014 28.9649C59.0748 28.9635 59.2619 29.0995 59.2629 29.3728L59.269 31.0128L59.909 31.0105C60.229 31.0093 60.3897 31.1887 60.391 31.5487C61.135 30.8193 61.6389 30.084 61.9029 29.3431C62.0152 29.076 62.2582 28.9951 62.632 29.1004C63.0123 29.1989 63.1496 29.3718 63.0439 29.6188L62.8753 29.9995L64.2751 29.9543ZM75.6168 30.3722C75.8901 30.3712 76.0274 30.5507 76.0288 30.9107C76.0301 31.2707 75.8941 31.4512 75.6208 31.4522L72.0308 31.4655L71.3559 32.858L72.4059 32.8542L72.4034 32.1642C72.4024 31.8908 72.5952 31.7534 72.9819 31.752C73.3752 31.7506 73.5724 31.8865 73.5734 32.1598L73.5759 32.8498L75.2159 32.8437C75.5426 32.8425 75.7032 33.0053 75.6977 33.332L75.6392 36.4222C75.5864 36.5691 75.4835 36.6861 75.3305 36.7733C75.1109 36.8875 74.8644 36.9417 74.5911 36.9361C74.2378 36.9441 74.0105 36.7749 73.9092 36.4286C73.8146 36.0823 73.9039 35.9086 74.1773 35.9076L74.4473 35.9066C74.5339 35.9063 74.5771 35.8695 74.5769 35.7961L74.5708 34.1661C74.5702 33.9928 74.4832 33.9065 74.3099 33.9071L73.5799 33.9098L73.5944 37.8298C73.5954 38.1031 73.3992 38.2405 73.0059 38.242C72.6193 38.2434 72.4254 38.1075 72.4244 37.8341L72.4099 33.9141L71.4999 33.9175L71.5098 36.6075C71.5109 36.8808 71.3247 37.0182 70.9514 37.0196C70.5847 37.0209 70.4009 36.8849 70.3999 36.6116L70.391 34.2316C70.1587 34.5058 70.0558 34.6195 70.0823 34.5728C69.7966 34.8405 69.5499 34.8281 69.3422 34.5355C69.1878 34.2628 69.0505 34.0966 68.9303 34.037L68.9444 37.837C68.9454 38.1104 68.7559 38.2477 68.3759 38.2491C68.0026 38.2505 67.8154 38.1145 67.8144 37.8412L67.797 33.1412C67.578 33.4287 67.442 33.5959 67.3888 33.6428C67.2096 33.8434 67.0125 33.7408 66.7977 33.3349C66.5895 32.9224 66.5717 32.6258 66.7444 32.4451C67.0234 32.1708 67.3616 31.6995 67.7592 31.0314C68.1633 30.3632 68.4413 29.8022 68.5929 29.3483C68.692 29.0879 68.9284 29.017 69.3021 29.1356C69.6826 29.2542 69.8233 29.437 69.7242 29.6841C69.5724 30.1113 69.3045 30.6756 68.9204 31.3771L68.9299 33.927C69.6544 33.3377 70.2647 32.5188 70.7608 31.4702L69.8408 31.4737C69.5675 31.4747 69.4301 31.2952 69.4288 30.9352C69.4275 30.5752 69.5635 30.3947 69.8368 30.3937L71.1968 30.3886L71.5026 29.2675C71.575 29.0072 71.8047 28.913 72.1916 28.9849C72.5785 29.0502 72.7358 29.2129 72.6634 29.4732L72.4168 30.3841L75.6168 30.3722ZM81.9787 36.2887C82.1521 36.2881 82.2384 36.2011 82.2378 36.0277L82.2364 35.6577C82.2358 35.4844 82.1488 35.3981 81.9754 35.3987L80.7654 35.4032C80.5921 35.4038 80.5058 35.4908 80.5064 35.6642L80.5087 36.2941L81.9787 36.2887ZM83.6976 30.5923C83.697 30.419 83.61 30.3326 83.4367 30.3333L79.2167 30.3489C79.0434 30.3495 78.957 30.4365 78.9577 30.6099L78.9599 31.2099L83.4399 31.1932C83.6132 31.1926 83.6995 31.1056 83.6989 30.9323L83.6976 30.5923ZM78.9636 32.2098L78.966 32.8498L85.1459 32.8269C85.4726 32.8257 85.6267 33.0452 85.6084 33.4852C85.5862 34.6853 85.5364 35.6455 85.459 36.3658C85.3817 37.0794 85.2601 37.5399 85.0942 37.7472C84.935 37.9611 84.7021 38.0919 84.3956 38.1398C84.0958 38.1942 83.8459 38.2118 83.6458 38.1925C83.2925 38.1938 83.0819 38.048 83.0142 37.7549L82.8722 37.2254L80.5122 37.2341L80.5129 37.4141C80.5139 37.6875 80.3311 37.8248 79.9644 37.8262C79.5978 37.8275 79.4139 37.6915 79.4129 37.4182L79.4038 34.9482C79.4026 34.6282 79.562 34.4676 79.882 34.4665L82.8719 34.4554C83.1853 34.4542 83.3425 34.6136 83.3437 34.9336L83.3508 36.8536C83.3515 37.0269 83.4385 37.1133 83.6118 37.1127L83.7418 37.1122C83.8752 37.1183 83.985 37.0713 84.0713 36.9709C84.2439 36.7703 84.3506 35.8866 84.3915 34.3197C84.4037 34.013 84.3231 33.86 84.1498 33.8606L78.8598 33.8802C78.6797 35.6476 78.3243 36.8922 77.7936 37.6142C77.6478 37.8548 77.4512 37.8655 77.2037 37.6464L77.1034 37.5568C76.7759 37.338 76.6917 37.1016 76.8508 36.8477C77.209 36.3664 77.4627 35.5788 77.612 34.4849C77.7289 33.6444 77.7856 32.7475 77.7821 31.7942L77.7748 29.8342C77.7736 29.5142 77.9297 29.3537 78.243 29.3525L84.403 29.3297C84.723 29.3285 84.8836 29.4879 84.8847 29.8079L84.8918 31.7079C84.893 32.0279 84.7336 32.1885 84.4136 32.1896L78.9636 32.2098ZM91.455 39.1336C91.1488 39.2681 90.9219 39.2089 90.7743 38.9561C89.9225 37.5726 89.4932 35.9742 89.4865 34.1609C89.4798 32.3409 89.8972 30.7426 90.7388 29.3662C90.8845 29.1123 91.1109 29.0515 91.4181 29.1837C91.7252 29.3092 91.8126 29.4922 91.6801 29.7327C91.0045 30.9085 90.67 32.3865 90.6766 34.1664C90.6831 35.9398 91.0286 37.4118 91.7129 38.5826C91.8472 38.8221 91.7612 39.0058 91.455 39.1336ZM96.518 37.4348C95.478 37.4387 94.6235 37.1085 93.9543 36.4443C93.2918 35.7734 92.9584 34.8413 92.9539 33.648C92.9495 32.4547 93.2827 31.5101 93.9535 30.8143C94.6242 30.1118 95.4395 29.7588 96.3995 29.7552C97.3662 29.7516 98.0537 29.9757 98.462 30.4276C98.676 30.6068 98.6536 30.8535 98.3948 31.1678C98.136 31.4821 97.8895 31.553 97.6556 31.3806C97.448 31.1413 97.0542 31.0228 96.4742 31.0249C95.8943 31.0271 95.4118 31.2589 95.0268 31.7203C94.6485 32.175 94.4608 32.8057 94.4638 33.6124C94.4668 34.4124 94.6558 35.0384 95.0308 35.4903C95.4058 35.9356 95.9533 36.1569 96.6733 36.1542C97.0666 36.1528 97.3729 36.0583 97.5922 35.8708L97.5878 34.6708C97.5871 34.4975 97.5035 34.4111 97.3368 34.4118L96.6868 34.4142C96.4135 34.4152 96.2761 34.2157 96.2746 33.8157C96.2731 33.409 96.409 33.2052 96.6823 33.2042L98.4223 33.1977C98.7423 33.1965 98.9029 33.3559 98.9041 33.6759L98.9147 36.5359C98.649 36.7969 98.3065 37.0115 97.8871 37.1797C97.4677 37.348 97.0113 37.433 96.518 37.4348ZM101.115 37.2778C100.629 37.2796 100.385 37.1438 100.384 36.8705L100.366 32.0905C100.365 31.8172 100.565 31.6798 100.965 31.6783C101.365 31.6768 101.579 31.8127 101.606 32.0859L101.678 32.6657C101.897 32.3048 102.146 32.0273 102.425 31.8329C102.711 31.6318 102.987 31.5308 103.254 31.5298L103.554 31.5887C103.821 31.6277 103.912 31.8607 103.827 32.2877C103.749 32.708 103.573 32.902 103.299 32.8696L103.079 32.8305C102.859 32.8313 102.633 32.9221 102.4 33.103C102.174 33.2772 101.988 33.5545 101.843 33.9351L101.854 36.865C101.855 37.1384 101.609 37.2759 101.115 37.2778ZM105.471 37.2616C104.984 37.2634 104.74 37.1277 104.739 36.8543L104.722 32.0744C104.721 31.801 104.963 31.6635 105.45 31.6617C105.943 31.6598 106.191 31.7956 106.192 32.0689L106.209 36.8489C106.21 37.1222 105.964 37.2598 105.471 37.2616ZM106.066 30.5394C105.913 30.6866 105.71 30.7607 105.457 30.7616C105.203 30.7626 104.997 30.69 104.836 30.5439C104.675 30.3979 104.595 30.2048 104.594 29.9648C104.593 29.7182 104.672 29.5212 104.832 29.3739C104.991 29.2267 105.197 29.1526 105.451 29.1516C105.704 29.1507 105.908 29.2233 106.062 29.3694C106.222 29.5155 106.303 29.7118 106.304 29.9585C106.305 30.1985 106.225 30.3921 106.066 30.5394ZM109.748 37.3858C109.048 37.3884 108.491 37.1304 108.076 36.612C107.66 36.0868 107.451 35.3776 107.448 34.4843C107.444 33.591 107.675 32.8734 108.14 32.3317C108.604 31.7833 109.153 31.5079 109.787 31.5056C110.293 31.5037 110.767 31.7053 111.209 32.1103L111.15 29.6705C111.149 29.3972 111.392 29.2596 111.878 29.2578C112.365 29.256 112.609 29.3918 112.61 29.6651L112.636 36.8251C112.637 37.0984 112.438 37.2358 112.038 37.2373C111.645 37.2387 111.424 37.1062 111.376 36.8397L111.336 36.6599C110.818 37.1418 110.288 37.3838 109.748 37.3858ZM110.124 36.1744C110.517 36.1729 110.867 35.9783 111.172 35.5905L111.163 33.1305C110.855 32.8516 110.518 32.7129 110.151 32.7143C109.791 32.7156 109.502 32.87 109.283 33.1775C109.064 33.4783 108.956 33.8987 108.958 34.4387C108.962 35.5987 109.351 36.1772 110.124 36.1744ZM117.079 37.2186C116.759 37.2198 116.598 37.0604 116.597 36.7404L116.573 30.2204C116.572 29.9471 116.818 29.8095 117.312 29.8077C117.805 29.8059 118.052 29.9416 118.053 30.2149L118.074 35.7149C118.074 35.8882 118.161 35.9746 118.334 35.9739L120.674 35.9653C120.948 35.9643 121.085 36.1704 121.087 36.5837C121.088 36.9971 120.952 37.2042 120.679 37.2053L117.079 37.2186ZM125.368 36.5879C124.77 37.0834 124.207 37.3322 123.681 37.3341C123.161 37.3361 122.747 37.1809 122.439 36.8687C122.131 36.5565 121.976 36.1604 121.975 35.6804C121.972 35.0805 122.227 34.6162 122.739 34.2876C123.252 33.9524 123.957 33.7398 124.857 33.6497C125.084 33.6156 125.177 33.4886 125.136 33.2687C125.141 32.842 124.84 32.6298 124.233 32.6321C123.82 32.6336 123.454 32.7349 123.134 32.9361C122.842 33.0905 122.605 33.0081 122.424 32.6888C122.249 32.3627 122.295 32.1226 122.561 31.9682C123.086 31.6263 123.716 31.454 124.449 31.4512C125.916 31.4458 126.652 32.2664 126.658 33.9131L126.669 36.7831C126.67 37.0497 126.47 37.1838 126.07 37.1853C125.67 37.1868 125.45 37.0509 125.409 36.7777L125.368 36.5879ZM124.117 36.1825C124.463 36.1812 124.826 35.9965 125.204 35.6285L125.2 34.4985C123.981 34.6563 123.372 35.0086 123.374 35.5553C123.376 35.9753 123.623 36.1843 124.117 36.1825ZM128.667 39.4257L128.307 39.367C128.033 39.3347 127.939 39.1284 128.024 38.748C128.116 38.3744 128.292 38.2104 128.552 38.2561C129.066 38.2542 129.415 37.9696 129.599 37.4022L129.698 37.0718L127.649 31.9594C127.548 31.7064 127.744 31.579 128.238 31.5772C128.731 31.5754 129.018 31.7043 129.099 31.964L130.403 35.7492L131.449 31.9553C131.521 31.695 131.791 31.564 132.258 31.5623C132.731 31.5605 132.925 31.6865 132.839 31.9402L130.999 37.337C130.742 38.0446 130.437 38.5691 130.085 38.9104C129.733 39.2517 129.26 39.4235 128.667 39.4257ZM138.07 36.4808C137.545 37.0161 136.913 37.2851 136.173 37.2878C135.433 37.2906 134.799 37.0263 134.27 36.4949C133.741 35.9635 133.475 35.2511 133.472 34.3578C133.469 33.4645 133.729 32.7502 134.254 32.2149C134.779 31.6796 135.411 31.4106 136.151 31.4079C136.891 31.4051 137.525 31.6694 138.054 32.2008C138.583 32.7322 138.849 33.4446 138.852 34.3379C138.855 35.2312 138.595 35.9455 138.07 36.4808ZM135.287 35.6211C135.501 35.9336 135.795 36.0892 136.169 36.0878C136.542 36.0865 136.831 35.9287 137.037 35.6146C137.249 35.3005 137.354 34.8768 137.352 34.3434C137.35 33.8101 137.242 33.3872 137.027 33.0746C136.82 32.7621 136.529 32.6065 136.156 32.6079C135.782 32.6092 135.49 32.767 135.277 33.0811C135.072 33.3952 134.97 33.8189 134.972 34.3523C134.974 34.8856 135.079 35.3085 135.287 35.6211ZM141.763 37.2671C140.609 37.2714 140.03 36.5269 140.024 35.0335L140.013 31.9436C140.012 31.6702 140.255 31.5327 140.741 31.5309C141.235 31.529 141.482 31.6648 141.483 31.9381L141.494 34.8381C141.495 35.2648 141.556 35.5679 141.677 35.7474C141.804 35.9203 141.991 36.0063 142.238 36.0053C142.491 36.0044 142.701 35.9503 142.867 35.843L143.415 35.301L143.403 31.931C143.402 31.6577 143.645 31.5201 144.131 31.5183C144.625 31.5165 144.872 31.6522 144.873 31.9255L144.891 36.7055C144.892 36.9788 144.692 37.1163 144.292 37.1177C143.892 37.1192 143.675 36.9834 143.641 36.7101L143.579 36.3204C143.028 36.9491 142.423 37.2647 141.763 37.2671ZM148.51 37.2421C147.283 37.2467 146.667 36.5489 146.662 35.1489L146.653 32.669L146.273 32.6704C146 32.6714 145.862 32.4919 145.861 32.1319C145.86 31.7652 145.995 31.5714 146.269 31.5504L146.729 31.5087L146.854 30.4082C146.88 30.1348 147.096 29.9973 147.503 29.9958C147.91 29.9943 148.113 30.1302 148.114 30.4035L148.119 31.5035L149.089 31.4999C149.362 31.4989 149.499 31.6917 149.501 32.0784C149.502 32.4651 149.366 32.6589 149.093 32.6599L148.123 32.6635L148.132 35.1435C148.134 35.7702 148.389 36.0825 148.896 36.0807L149.026 36.0802C149.305 35.9991 149.486 36.1385 149.567 36.4982C149.648 36.8512 149.556 37.0516 149.289 37.0992L148.51 37.2421ZM151.515 38.731C151.376 38.9848 151.152 39.0457 150.845 38.9135C150.545 38.7879 150.457 38.6049 150.583 38.3644C151.266 37.1886 151.603 35.714 151.597 33.9406C151.59 32.1607 151.241 30.6853 150.55 29.5145C150.423 29.275 150.509 29.0913 150.808 28.9635C151.115 28.8291 151.338 28.8882 151.479 29.141C152.344 30.5045 152.78 32.0996 152.787 33.9262C152.794 35.7462 152.369 37.3478 151.515 38.731Z" fill="#FE585B"/>
<path d="M63.6072 47.4152C63.3299 47.4163 63.1917 47.5555 63.1928 47.8328L63.1953 48.5208C63.1969 48.9581 62.8777 49.178 62.2377 49.1803C61.6084 49.1827 61.2929 48.9652 61.2913 48.5278L61.2835 46.4159C61.2816 45.9039 61.5366 45.6469 62.0486 45.645L67.3446 45.6254L67.1349 45.1622C66.9521 44.7682 67.2071 44.4952 67.8999 44.3433C68.5926 44.1914 69.0304 44.3125 69.2132 44.7065L69.6326 45.6169L74.5766 45.5986C75.0885 45.5967 75.3455 45.8517 75.3474 46.3637L75.3552 48.4757C75.3568 48.913 75.0217 49.133 74.3497 49.1354C73.6777 49.1379 73.3409 48.9205 73.3392 48.4832L73.3367 47.7952C73.3357 47.5179 73.1965 47.3797 72.9191 47.3807L63.6072 47.4152ZM69.8539 49.2161C69.5011 48.9827 69.5426 48.6786 69.9785 48.3036C70.4252 47.9286 70.8249 47.8525 71.1777 48.0752C71.5732 48.2871 72.1666 48.6742 72.958 49.2366C73.7601 49.799 74.2362 50.1705 74.3862 50.3513C74.6644 50.5956 74.5643 50.9267 74.0858 51.3444C73.6074 51.7622 73.2344 51.8489 72.9668 51.6046C72.8275 51.4238 72.3674 51.0361 71.5865 50.4417C70.8163 49.8472 70.2388 49.4387 69.8539 49.2161ZM64.9222 48.2104C65.1876 47.8894 65.6301 47.8344 66.2496 48.0455C66.869 48.2458 67.0513 48.5172 66.7966 48.8594C66.5313 49.2444 66.016 49.769 65.2504 50.4332C64.4955 51.0973 63.9052 51.5422 63.4793 51.7678C63.1281 51.9717 62.7275 51.8239 62.2777 51.3242C61.8385 50.8245 61.8106 50.4833 62.1939 50.3005C62.5347 50.1606 63.0402 49.8334 63.7103 49.3189C64.3804 48.8151 64.7844 48.4456 64.9222 48.2104ZM65.8238 54.0471L71.1678 54.0273C70.1091 53.3165 69.2746 52.6423 68.6643 52.0045C68.4822 51.8132 68.3009 51.8192 68.1203 52.0226C67.5893 52.6432 66.8238 53.318 65.8238 54.0471ZM65.5152 57.1202C65.5162 57.3976 65.6554 57.5357 65.9327 57.5347L70.7327 57.5169C71.01 57.5159 71.1482 57.3767 71.1472 57.0994L71.1422 55.7554L65.5102 55.7763L65.5152 57.1202ZM67.616 49.7844C67.8493 49.4209 68.2491 49.3607 68.8154 49.604C69.3816 49.8472 69.5799 50.1025 69.4102 50.3698C70.9736 51.996 72.9462 53.242 75.3281 54.1079C75.8087 54.2767 75.8474 54.6339 75.4441 55.1794C75.0408 55.7249 74.6414 55.9131 74.2462 55.7439C74.0859 55.6698 73.7225 55.4845 73.1561 55.1879L73.1682 58.4519C73.1701 58.9639 72.915 59.2208 72.403 59.2227L64.3711 59.2525C63.8591 59.2544 63.6021 58.9993 63.6002 58.4874L63.5889 55.4314C63.014 55.7215 62.6307 55.9043 62.4389 55.9796C62.0342 56.1518 61.6229 55.9773 61.205 55.4562C60.7977 54.9244 60.8071 54.583 61.2332 54.4321C62.4051 54.0331 63.6346 53.3725 64.9219 52.4504C66.2305 51.5282 67.1285 50.6396 67.616 49.7844ZM86.6355 57.17C86.6366 57.4473 86.7757 57.5854 87.0531 57.5844L88.1731 57.5803C88.4504 57.5792 88.5885 57.4401 88.5875 57.1627L88.5827 55.8667L87.0467 55.8724C86.7694 55.8735 86.6312 56.0126 86.6323 56.29L86.6355 57.17ZM81.6131 57.6046C81.8798 57.6036 82.0126 57.4644 82.0116 57.1871L82.0083 56.3071C82.0073 56.0298 81.8681 55.8916 81.5908 55.8927L80.1028 55.8982L80.1076 57.1942C80.1086 57.4715 80.2478 57.6096 80.5251 57.6086L81.6131 57.6046ZM81.3381 48.1655C81.6154 48.1645 81.7536 48.0253 81.7526 47.748L81.7492 46.852C81.7482 46.5747 81.609 46.4365 81.3317 46.4375L80.0997 46.4421C79.8224 46.4431 79.6842 46.5823 79.6853 46.8597L79.6886 47.7556C79.6896 48.033 79.8288 48.1711 80.1061 48.1701L81.3381 48.1655ZM87.2037 46.4158C86.9263 46.4168 86.7882 46.556 86.7892 46.8333L86.7925 47.7293C86.7936 48.0066 86.9327 48.1448 87.2101 48.1438L88.5381 48.1388C88.8154 48.1378 88.9535 47.9986 88.9525 47.7213L88.9492 46.8253C88.9482 46.548 88.809 46.4098 88.5317 46.4109L87.2037 46.4158ZM91.1725 50.9451C91.6098 50.9435 91.8295 51.2147 91.8315 51.7587C91.8335 52.3027 91.6159 52.5755 91.1785 52.5771L88.9705 52.5853C90.3068 53.359 91.2211 53.9849 91.7135 54.4631C92.0024 54.7074 91.9289 55.0223 91.493 55.4079C91.0571 55.7829 90.6892 55.8269 90.3895 55.54L90.3999 58.356C90.4018 58.868 90.1468 59.125 89.6348 59.1269L85.6828 59.1415C85.1815 59.1434 84.9299 58.8883 84.928 58.3763L84.9159 55.1123C84.914 54.6003 85.169 54.3434 85.681 54.3415L88.369 54.3315C88.6463 54.3305 88.6728 54.2611 88.4482 54.1232C87.7851 53.6457 86.8926 53.137 85.7706 52.5971L82.6346 52.6088L80.6091 54.3603L83.0251 54.3513C83.537 54.3494 83.794 54.6045 83.7959 55.1165L83.808 58.3805C83.8099 58.8924 83.5548 59.1494 83.0428 59.1513L79.1709 59.1656C78.6589 59.1675 78.4019 58.9125 78.4 58.4005L78.3899 55.6645L78.1024 55.7936C77.7083 55.9657 77.3344 55.8071 76.9806 55.3177C76.6374 54.8177 76.6788 54.4868 77.1049 54.3253C78.0636 53.9804 79.0535 53.4114 80.0746 52.6182L77.4986 52.6278C77.0613 52.6294 76.8416 52.3582 76.8396 51.8142C76.8376 51.2702 77.0552 50.9974 77.4926 50.9958L81.7645 50.98L82.3691 50.0497C82.5176 49.8252 82.4532 49.7134 82.1759 49.7144L78.7519 49.7271C78.2399 49.729 77.9829 49.474 77.981 48.962L77.9689 45.682C77.967 45.17 78.222 44.9131 78.734 44.9112L82.782 44.8962C83.294 44.8943 83.5509 45.1493 83.5528 45.6613L83.5667 49.4053L83.7429 49.4526C84.3727 49.5676 84.5339 49.903 84.2266 50.4588L83.9405 50.9719L87.6205 50.9583L86.9633 50.6247C86.3969 50.3495 86.2891 50.0405 86.6398 49.6979L85.8718 49.7007C85.3598 49.7026 85.1029 49.4476 85.101 48.9356L85.0888 45.6556C85.0869 45.1436 85.342 44.8867 85.854 44.8848L89.95 44.8696C90.462 44.8677 90.7189 45.1227 90.7208 45.6347L90.733 48.9147C90.7349 49.4267 90.4798 49.6837 89.9678 49.6856L88.0158 49.6928L88.9138 50.2175C89.2559 50.4189 89.2834 50.6641 88.9965 50.9532L91.1725 50.9451ZM101.626 48.1543C102.213 48.1522 102.507 48.3697 102.509 48.8071L102.512 49.7831C102.514 50.2204 102.221 50.4401 101.635 50.4423C101.059 50.4445 100.77 50.2269 100.768 49.7895L100.765 48.8135C100.763 48.3762 101.05 48.1565 101.626 48.1543ZM103.603 54.8671C104.04 54.8654 104.26 55.2006 104.263 55.8726C104.265 56.5446 104.091 56.8813 103.739 56.8826C104.157 57.4677 104.483 57.7598 104.718 57.7589C104.888 57.7583 105.011 57.6992 105.085 57.5816C105.266 57.3462 105.38 56.5245 105.428 55.1163C105.458 54.6468 105.335 54.4126 105.057 54.4137L101.505 54.4268L101.507 54.8748L103.603 54.8671ZM101.516 57.3548L102.54 57.303C102.39 57.1116 102.422 56.9728 102.635 56.8867L101.515 56.8908L101.516 57.3548ZM102.408 56.1355C102.685 56.1345 102.823 55.9633 102.822 55.622L101.51 55.6268L101.512 56.1388L102.408 56.1355ZM98.5659 55.6377C98.5672 55.9791 98.7065 56.1492 98.9838 56.1482L99.9118 56.1447L99.9099 55.6327L98.5659 55.6377ZM99.9055 54.4328L98.6095 54.4376L98.1151 54.8874L99.9071 54.8808L99.9055 54.4328ZM96.0254 47.9511L96.0312 49.5191C96.0385 51.4924 95.9277 53.2315 95.6986 54.7364C96.646 54.2102 97.4064 53.5993 97.9798 52.9039L97.4358 52.9059C96.9238 52.9078 96.6668 52.6527 96.665 52.1408L96.6623 51.4368C96.6604 50.9248 96.7662 50.6684 96.9795 50.6676L96.9148 50.4918C96.7743 49.9803 96.9385 49.6917 97.4076 49.626C97.6635 49.5824 98.287 49.4627 99.2783 49.267C98.4668 49.0461 97.917 48.9254 97.629 48.9052C97.2234 48.8427 97.0628 48.6779 97.1471 48.4109C97.2421 48.1333 97.5031 48.031 97.93 48.104L99.0668 48.3238C99.6966 48.4388 99.9217 48.7313 99.7421 49.2013C100.147 49.1252 100.356 49.2417 100.367 49.551C100.379 49.8603 100.172 50.0584 99.7456 50.1453L97.4115 50.666L105.059 50.6376C105.497 50.636 105.363 50.5672 104.659 50.4311C103.954 50.2844 103.431 50.0357 103.088 49.6849C103.183 49.4072 103.342 49.2786 103.566 49.2992C103.319 48.7881 103.499 48.4407 104.107 48.2571L105.257 47.9169L96.0254 47.9511ZM105.043 46.2857C105.042 46.0617 104.903 45.9502 104.626 45.9512L96.4341 45.9816C96.1568 45.9826 96.0186 46.1218 96.0197 46.3991L96.0209 46.7351L104.629 46.7032C104.906 46.7022 105.044 46.563 105.043 46.2857ZM104.601 52.1113C104.878 52.1103 105.016 51.9711 105.015 51.6938L105.014 51.4058L103.654 51.4108L103.657 52.1148L104.601 52.1113ZM102.217 52.1202L102.214 51.4162L100.886 51.4211L100.889 52.1251L102.217 52.1202ZM99.4489 52.1304L99.4463 51.4264L98.1503 51.4312L98.1529 52.1352L99.4489 52.1304ZM99.5816 53.378L106.446 53.3525C106.958 53.3506 107.209 53.643 107.201 54.2297C107.214 54.987 107.159 55.8352 107.034 56.7744C106.91 57.7028 106.757 58.2741 106.577 58.4881C106.364 58.7662 106.056 58.9327 105.65 58.9875C105.384 59.0418 105.155 59.0587 104.963 59.038C104.461 59.0399 104.172 58.8383 104.096 58.4333L103.793 58.5624C103.537 58.67 103.35 58.596 103.232 58.3405C101.27 58.4864 99.233 58.6273 97.1215 58.7631C96.631 58.7969 96.3636 58.6059 96.3194 58.1901C96.2859 57.7849 96.3598 57.5819 96.5411 57.5812C96.7331 57.5699 97.8582 57.5124 99.9165 57.4087L99.9146 56.8967L97.9786 56.9039C97.4666 56.9058 97.2097 56.6508 97.2078 56.1388L97.2056 55.5628C96.78 55.8417 96.4012 55.8058 96.0692 55.455L95.6519 55.1045C95.3595 56.7803 95.0278 57.9442 94.6569 58.5962C94.5088 58.9275 94.1568 58.9394 93.601 58.6322C93.0558 58.3248 92.8521 58.0323 92.9897 57.7544C93.8055 56.2474 94.206 53.5099 94.1913 49.5419L94.1765 45.5579C94.1746 45.0459 94.4297 44.789 94.9417 44.7871L106.142 44.7456C106.643 44.7437 106.895 44.9988 106.896 45.5108L106.902 47.1428C106.904 47.6548 106.649 47.9117 106.137 47.9136L105.801 47.9149C106.081 48.4045 106.012 48.7247 105.597 48.8756C105.405 48.9723 104.744 49.1188 103.615 49.315C104.628 49.4286 105.279 49.5381 105.568 49.6437C106.038 49.7593 106.172 50.0895 105.971 50.6342C106.377 50.6327 106.581 51.0053 106.584 51.752C106.586 52.4986 106.369 52.8728 105.932 52.8744L99.9318 52.8966L99.5816 53.378ZM119.962 56.7264L123.082 56.7149C123.519 56.7132 123.739 57.0164 123.741 57.6244C123.744 58.2218 123.526 58.5212 123.089 58.5229L114.433 58.5549C114.006 58.5565 113.792 58.2586 113.79 57.6613C113.787 57.0533 113.999 56.7485 114.426 56.747L118.058 56.7335L118.046 53.5335L115.614 53.5425C115.177 53.5441 114.957 53.2516 114.955 52.665C114.953 52.0676 115.17 51.7682 115.608 51.7665L118.04 51.7575L118.03 49.1335L116.27 49.1401C116.038 49.9623 115.832 50.5124 115.652 50.7904C115.472 51.1644 115.099 51.2084 114.533 50.9225C113.966 50.6366 113.778 50.3013 113.969 49.9166L114.16 49.5639L113.968 49.6606C113.489 49.8757 113.168 49.7329 113.006 49.2322L112.634 48.1455L112.672 58.4175C112.674 58.8548 112.355 59.0746 111.715 59.077C111.085 59.0794 110.77 58.8619 110.768 58.4245L110.728 47.6406C110.607 49.3691 110.419 50.6124 110.166 51.3707C110.071 51.7124 109.789 51.7988 109.319 51.6298C108.849 51.4609 108.667 51.2109 108.772 50.8799C109.036 50.1855 109.204 49.3103 109.275 48.254C109.347 47.5604 109.644 47.2499 110.167 47.3227L110.727 47.4006L110.718 44.7926C110.716 44.3553 111.03 44.1355 111.659 44.1331C112.299 44.1307 112.62 44.3482 112.622 44.7856L112.631 47.1535L112.87 47.0567C113.328 46.863 113.67 47.0004 113.896 47.4689C114.025 47.6817 114.207 48.1184 114.445 48.7788C114.835 47.6254 115.082 46.5631 115.185 45.5921C115.247 45.1118 115.588 44.9132 116.207 44.9963C116.826 45.0793 117.099 45.3343 117.025 45.7612L116.743 47.3463L118.023 47.3416L118.014 44.8616C118.012 44.4242 118.326 44.2044 118.956 44.2021C119.596 44.1997 119.916 44.4172 119.918 44.8545L119.927 47.3345L122.535 47.3248C122.973 47.3232 123.192 47.6211 123.195 48.2184C123.197 48.8157 122.979 49.1152 122.542 49.1168L119.934 49.1265L119.944 51.7505L122.216 51.742C122.653 51.7404 122.873 52.0383 122.875 52.6356C122.877 53.2223 122.66 53.5164 122.222 53.518L119.95 53.5265L119.962 56.7264ZM125.776 53.8889C125.338 53.8905 125.119 53.614 125.117 53.0593C125.114 52.494 125.332 52.2105 125.769 52.2089L128.825 52.1975C129.263 52.1959 129.482 52.4778 129.485 53.0431C129.487 53.5978 129.269 53.8759 128.832 53.8775L125.776 53.8889ZM132.239 57.6089C131.802 57.6106 131.582 57.2967 131.58 56.6674C131.577 56.0274 131.795 55.7066 132.232 55.7049L134.12 55.6979L134.094 48.626C134.093 48.3487 133.959 48.2105 133.693 48.2115L132.605 48.2155C132.167 48.2171 131.948 47.9779 131.946 47.4979C131.944 47.0073 132.178 46.7078 132.647 46.5993C133.286 46.4903 133.968 46.2051 134.691 45.7438L135.667 45.7401C136.179 45.7382 136.436 45.9933 136.438 46.5053L136.472 55.6892L138.04 55.6834C138.478 55.6818 138.697 56.001 138.7 56.641C138.702 57.2703 138.485 57.5858 138.047 57.5874L132.239 57.6089Z" fill="black" fill-opacity="0.85"/>
</g>
<defs>
<radialGradient id="paint0_radial_2308_6881" cx="0" cy="0" r="1" gradientUnits="userSpaceOnUse" gradientTransform="translate(0.560609 46.8353) rotate(65.4889) scale(3.32531 8.21233)">
<stop offset="0.33" stop-opacity="0"/>
<stop offset="0.655" stop-opacity="0.6"/>
<stop offset="1"/>
</radialGradient>
<radialGradient id="paint1_radial_2308_6881" cx="0" cy="0" r="1" gradientUnits="userSpaceOnUse" gradientTransform="translate(355.3 45.8572) rotate(114.511) scale(3.32531 8.21233)">
<stop offset="0.33" stop-opacity="0"/>
<stop offset="0.655" stop-opacity="0.6"/>
<stop offset="1"/>
</radialGradient>
<clipPath id="clip0_2308_6881">
<rect width="200" height="90" fill="white"/>
</clipPath>
</defs>
</svg>
