<svg width="200" height="90" viewBox="0 0 200 90" fill="none" xmlns="http://www.w3.org/2000/svg">
<g clip-path="url(#clip0_2308_6633)">
<rect width="200" height="90" fill="#FEB79D"/>
<path fill-rule="evenodd" clip-rule="evenodd" d="M-6.18027 85.5257C-5.5206 81.3514 -9.94765 77.2571 -7.65473 73.2393C-4.94813 68.4966 -1.65241 61.9915 7.77154 61.0783C17.9972 60.0873 23.5998 68.8258 33.9785 69.2048C45.8176 69.6371 56.5881 60.196 66.8872 63.2371C76.2425 65.9996 70.121 74.0119 68.9752 79.5387C68.1676 83.4341 61.5364 86.4306 61.2669 90.3457C60.8502 96.3973 75.7689 103.853 67.0229 107.895C58.3557 111.9 45.7383 103.802 34.2527 102.83C27.3162 102.243 20.5655 103.925 13.6182 103.373C4.65786 102.66 -7.2514 103.227 -11.7526 99.1698C-16.3208 95.0519 -6.92748 90.2539 -6.18027 85.5257Z" fill="#FE585B"/>
<path fill-rule="evenodd" clip-rule="evenodd" d="M28.4743 10.5302C32.6486 10.8717 36.7429 8.58004 40.7607 9.76696C45.5034 11.168 52.0085 12.874 52.9217 17.7523C53.9127 23.0456 45.1742 25.9458 44.7952 31.3183C44.3629 37.4467 53.804 43.0221 50.7629 48.3534C48.0004 53.1961 39.9881 50.0274 34.4613 49.4342C30.5659 49.0162 27.5694 45.5836 23.6543 45.444C17.6027 45.2284 10.1469 52.9509 6.10508 48.4236C2.09968 43.9371 10.1975 37.4057 11.1701 31.4602C11.7575 27.8695 10.0747 24.3751 10.6274 20.7788C11.3402 16.1405 10.7727 9.97575 14.8302 7.64571C18.9481 5.281 23.7461 10.1434 28.4743 10.5302Z" fill="#FC7443"/>
<path fill-rule="evenodd" clip-rule="evenodd" d="M173.474 4.53021C177.649 4.87169 181.743 2.58004 185.761 3.76696C190.503 5.16803 197.008 6.87405 197.922 11.7523C198.913 17.0456 190.174 19.9458 189.795 25.3183C189.363 31.4467 198.804 37.0221 195.763 42.3534C193 47.1961 184.988 44.0274 179.461 43.4342C175.566 43.0162 172.569 39.5836 168.654 39.444C162.603 39.2284 155.147 46.9509 151.105 42.4236C147.1 37.9371 155.198 31.4057 156.17 25.4602C156.757 21.8695 155.075 18.3751 155.627 14.7788C156.34 10.1405 155.773 3.97575 159.83 1.64571C163.948 -0.719004 168.746 4.14342 173.474 4.53021Z" fill="#FF8787"/>
<path fill-rule="evenodd" clip-rule="evenodd" d="M117.063 7.20494C131.49 7.9797 144.155 11.9054 154.996 17.5775C166.733 23.7188 176.896 30.8598 179.688 39.9711C183.097 51.0949 184.354 63.7453 171.749 72.2549C158.691 81.0707 136.857 81.4742 117.063 82.2497C95.2362 83.1048 71.8992 84.7511 54.6033 76.8446C35.6156 68.1646 20.8565 53.9771 24.5773 39.9711C28.0889 26.7526 52.1053 19.9805 71.5388 13.0955C85.3864 8.18958 100.98 6.34119 117.063 7.20494Z" fill="#FFAB7A"/>
<ellipse cx="177.989" cy="70.7269" rx="16.7876" ry="14.0511" fill="#F55A57"/>
<ellipse cx="173.713" cy="65.6395" rx="1.21537" ry="2.15126" fill="black"/>
<ellipse cx="182.288" cy="65.6395" rx="1.21537" ry="2.15126" fill="black"/>
<path d="M173.043 72.6426C173.079 74.5703 175.312 76.0917 178.031 76.0408C180.749 75.99 182.924 74.386 182.888 72.4584C182.852 70.5307 180.67 71.7806 177.952 71.8314C175.233 71.8823 173.007 70.7149 173.043 72.6426Z" fill="black"/>
<path d="M170.798 50.9035C173.679 48.6452 180.102 51.1915 180.102 55.0219C180.103 59.542 168.088 61.6232 165.803 61.9782C165.554 62.0169 165.305 62.044 165.056 62.039C163.427 62.0062 157.617 61.2375 170.798 50.9035Z" fill="#6E5232"/>
<path d="M170.798 50.9035C173.679 48.6452 180.102 51.1915 180.102 55.0219C180.103 59.542 168.088 61.6232 165.803 61.9782C165.554 62.0169 165.305 62.044 165.056 62.039C163.427 62.0062 157.617 61.2375 170.798 50.9035Z" fill="url(#paint0_radial_2308_6633)" fill-opacity="0.15"/>
<path d="M185.204 50.7629C182.323 48.5045 175.9 51.0509 175.9 54.8813C175.899 59.4014 187.914 61.4825 190.199 61.8375C190.448 61.8763 190.697 61.9034 190.946 61.8984C192.575 61.8656 198.385 61.0968 185.204 50.7629Z" fill="#6E5232"/>
<path d="M185.204 50.7629C182.323 48.5045 175.9 51.0509 175.9 54.8813C175.899 59.4014 187.914 61.4825 190.199 61.8375C190.448 61.8763 190.697 61.9034 190.946 61.8984C192.575 61.8656 198.385 61.0968 185.204 50.7629Z" fill="url(#paint1_radial_2308_6633)" fill-opacity="0.15"/>
<path d="M70.1219 30.8334C69.9486 30.834 69.8623 30.921 69.8629 31.0943L69.8648 31.5943C69.8658 31.8677 69.6696 32.005 69.2763 32.0065C68.8896 32.0079 68.6958 31.872 68.6948 31.5987L68.6895 30.1887C68.6884 29.8753 68.8478 29.7181 69.1678 29.7169L72.4278 29.7048L72.2466 29.3955C72.1058 29.1627 72.2318 28.9855 72.6247 28.8641C73.0242 28.7426 73.3078 28.7982 73.4753 29.0309C73.5757 29.1306 73.6965 29.3534 73.8378 29.6996L76.7977 29.6886C77.1177 29.6874 77.2783 29.8435 77.2795 30.1568L77.2847 31.5668C77.2857 31.8402 77.0796 31.9776 76.6662 31.9791C76.2596 31.9806 76.0557 31.8447 76.0547 31.5714L76.0529 31.0714C76.0522 30.898 75.9652 30.8117 75.7919 30.8123L70.1219 30.8334ZM76.954 34.0781C77.2273 34.077 77.3647 34.2665 77.3661 34.6465C77.3675 35.0199 77.2315 35.207 76.9582 35.2081L73.6382 35.2204L73.6438 36.7304C73.645 37.057 73.5993 37.3072 73.5066 37.4809C73.4139 37.6545 73.2477 37.7852 73.0081 37.8727C72.6685 38.0073 72.2088 38.0723 71.6288 38.0678C71.2555 38.0759 70.9814 37.8769 70.8065 37.4709C70.6317 37.0715 70.6577 36.8748 70.8844 36.8806C71.0711 36.8866 71.4811 36.8884 72.1144 36.886C72.2144 36.8856 72.281 36.8721 72.3142 36.8453C72.3541 36.8185 72.374 36.7717 72.3737 36.7051L72.3682 35.2251L69.0683 35.2373C68.7949 35.2383 68.6576 35.0522 68.6562 34.6788C68.6548 34.2988 68.7907 34.1083 69.0641 34.1073L72.364 34.0951C72.3627 33.7417 72.4785 33.4846 72.7112 33.3238L73.579 32.7406L70.7691 32.751C70.4957 32.752 70.3584 32.5692 70.357 32.2025C70.3556 31.8292 70.4916 31.642 70.7649 31.641L74.6347 31.5666C74.908 31.5656 75.1751 31.668 75.4358 31.8737C75.7033 32.0794 75.7407 32.2825 75.5481 32.4833C75.0965 32.9649 74.4583 33.444 73.6334 33.9204L73.634 34.0904L76.954 34.0781ZM86.4746 28.8127C86.8546 28.8113 87.0451 28.9473 87.0461 29.2206L87.0604 33.0806C87.0615 33.3673 87.0289 33.5874 86.9628 33.741C86.8967 33.8879 86.7705 34.0017 86.5841 34.0824C86.2979 34.2101 85.9548 34.2714 85.5548 34.2662C85.1948 34.2742 84.9542 34.1051 84.8329 33.7589C84.7182 33.4059 84.8743 33.2354 85.301 33.2471C85.6344 33.2659 85.831 33.2485 85.8908 33.1949C85.9174 33.1682 85.9305 33.1248 85.9303 33.0648L85.9161 29.2248C85.9151 28.9515 86.1012 28.8141 86.4746 28.8127ZM84.6363 29.2796C85.0029 29.2782 85.1868 29.4142 85.1878 29.6875L85.1973 32.2475C85.1983 32.5208 85.0155 32.6582 84.6488 32.6595C84.2888 32.6609 84.1083 32.5249 84.1073 32.2515L84.0978 29.6916C84.0968 29.4182 84.2763 29.2809 84.6363 29.2796ZM80.7932 31.1638L81.6332 31.1607L81.6293 30.1107L80.7893 30.1138L80.7932 31.1638ZM83.6235 36.6334L87.0935 36.6205C87.3668 36.6195 87.5042 36.8023 87.5055 37.169C87.5069 37.5356 87.3709 37.7195 87.0976 37.7205L78.9076 37.7508C78.6343 37.7519 78.497 37.569 78.4956 37.2024C78.4942 36.8357 78.6302 36.6519 78.9036 36.6509L82.4035 36.6379L82.4006 35.8379L79.9106 35.8471C79.6373 35.8481 79.4999 35.6686 79.4986 35.3086C79.4973 34.9486 79.6333 34.7681 79.9066 34.7671L82.3966 34.7579L82.3952 34.3879C82.3946 34.2146 82.3076 34.1282 82.1342 34.1289C81.8076 34.1301 81.6436 33.9707 81.6425 33.6507L81.6371 32.2107L80.7171 32.2141C80.5275 33.2015 80.1265 33.8563 79.5144 34.1786C79.275 34.3328 79.0248 34.2737 78.7637 34.0014C78.5027 33.7223 78.5019 33.5023 78.7613 33.3414C79.1407 33.1733 79.416 32.7989 79.5871 32.2183L78.9871 32.2205C78.7138 32.2215 78.5765 32.0487 78.5752 31.702C78.5739 31.3487 78.7099 31.1715 78.9833 31.1705L79.7032 31.1679L79.6994 30.1179L79.3194 30.1193C79.046 30.1203 78.9087 29.9475 78.9074 29.6008C78.9061 29.2541 79.0422 29.0803 79.3155 29.0793L83.0355 29.0655C83.3088 29.0645 83.4461 29.2373 83.4474 29.584C83.4487 29.9306 83.3127 30.1045 83.0393 30.1055L82.7393 30.1066L82.7432 31.1566L83.2732 31.1546C83.5466 31.1536 83.6839 31.3298 83.6852 31.6831C83.6865 32.0298 83.5504 32.2036 83.2771 32.2046L82.7471 32.2066L82.7536 33.9566L83.1336 33.9552C83.4536 33.954 83.6142 34.1134 83.6154 34.4334L83.6166 34.7534L86.0965 34.7442C86.3699 34.7432 86.5072 34.9227 86.5085 35.2827C86.5099 35.6427 86.3739 35.8232 86.1006 35.8242L83.6206 35.8334L83.6235 36.6334ZM93.3128 33.7074L93.3077 32.3474C93.3071 32.1741 93.2201 32.0878 93.0468 32.0884L92.2768 32.0913C91.9568 32.0924 91.7962 31.933 91.795 31.613L91.786 29.1831C91.785 28.9097 91.9511 28.7724 92.2845 28.7712C92.6244 28.7699 92.795 28.906 92.796 29.1793L92.797 29.4493L93.957 29.445C94.2303 29.444 94.3676 29.6068 94.3688 29.9335C94.37 30.2601 94.2339 30.424 93.9606 30.425L92.8006 30.4293L92.8023 30.8993C92.803 31.0726 92.89 31.159 93.0633 31.1583L93.8133 31.1656C94.1333 31.1644 94.2939 31.3238 94.2951 31.6438L94.3027 33.7038C94.3035 33.9104 94.2774 34.0639 94.2245 34.164C94.1782 34.2642 94.0785 34.3513 93.9254 34.4252C93.7724 34.4991 93.5891 34.5331 93.3758 34.5272C93.0025 34.5352 92.7721 34.4194 92.6845 34.1798C92.5969 33.9334 92.6898 33.8097 92.9631 33.8087L93.1431 33.8081C93.2565 33.8143 93.313 33.7808 93.3128 33.7074ZM91.8491 32.7228C91.9148 32.4626 92.0944 32.3586 92.3879 32.4108C92.6814 32.4564 92.8022 32.6693 92.7503 33.0495C92.7251 33.4296 92.6361 33.7199 92.4835 33.9205C92.3843 34.1142 92.2077 34.1349 91.9538 33.9825C91.6998 33.8234 91.6057 33.6138 91.6714 33.3535L91.8491 32.7228ZM95.6161 34.6189L95.6631 33.8087L95.0631 33.8109C94.7898 33.812 94.6525 33.6491 94.6513 33.3225C94.6501 32.9958 94.7862 32.832 95.0595 32.8309L95.6995 32.8286L95.6963 31.9686L95.1263 31.9707C94.853 31.9717 94.7157 31.8089 94.7145 31.4822C94.7133 31.1556 94.8494 30.9917 95.1227 30.9907L95.7527 30.9884L95.7505 30.3884C95.7498 30.215 95.6628 30.1287 95.4895 30.1293L95.0195 30.1311C94.7462 30.1321 94.6089 29.9626 94.6076 29.6226C94.6064 29.2826 94.7424 29.1121 95.0157 29.1111L96.3657 29.1061C96.6857 29.1049 96.8431 29.2843 96.8377 29.6443C96.8506 31.331 96.8168 32.9878 96.7361 34.6147L97.1961 34.613C97.4695 34.612 97.6068 34.7949 97.6082 35.1615C97.6095 35.5282 97.4735 35.712 97.2002 35.713L94.7902 35.722C95.8587 36.218 96.6135 36.6052 97.0546 36.8836C97.2483 36.9962 97.2124 37.203 96.9469 37.504C96.688 37.8116 96.4516 37.8958 96.2378 37.7566C95.6697 37.3654 95.0784 37.0276 94.464 36.7432C94.0365 36.5248 93.9422 36.2584 94.1811 35.9442L94.3502 35.7236L91.3803 35.7346L91.7614 36.0432C92.069 36.2954 92.0466 36.5355 91.6941 36.7634C91.1754 37.1187 90.4634 37.478 89.5581 37.8414C89.2852 37.9624 89.0348 37.8733 88.8071 37.5742C88.586 37.2816 88.6185 37.0782 88.9048 36.9638C89.7103 36.6608 90.4655 36.2513 91.1703 35.7354L88.8503 35.744C88.5769 35.745 88.4396 35.5622 88.4382 35.1955C88.4369 34.8288 88.5729 34.645 88.8462 34.644L89.3362 34.6422L89.1587 29.9328C89.151 29.6328 89.2835 29.429 89.5565 29.3213L90.6748 28.8772C90.9278 28.7829 91.1382 28.8988 91.3061 29.2248C91.4806 29.5442 91.438 29.741 91.1783 29.8153L90.4691 30.0279C90.3093 30.0752 90.2297 30.1822 90.2303 30.3488L90.2627 30.9987L90.9927 30.996C91.266 30.995 91.4033 31.1578 91.4045 31.4845C91.4057 31.8045 91.2696 31.965 90.9963 31.966L90.2963 31.9686L90.3295 32.8285L91.0295 32.8259C91.3028 32.8249 91.4401 32.9877 91.4413 33.3144C91.4425 33.6344 91.3064 33.7949 91.0331 33.7959L90.3631 33.7984L90.3962 34.6382L95.6161 34.6189ZM104.695 31.4752L101.265 31.4879C101.702 32.5463 102.305 33.4674 103.075 34.2512C103.779 33.4686 104.319 32.5433 104.695 31.4752ZM107.15 30.3061C107.424 30.3051 107.561 30.4979 107.562 30.8846C107.564 31.2713 107.428 31.4651 107.155 31.4661L106.035 31.4703C105.54 32.8854 104.858 34.0813 103.988 35.0579C105.024 35.8607 106.139 36.3999 107.334 36.6755C107.627 36.7411 107.642 36.9577 107.376 37.3253C107.111 37.6996 106.835 37.844 106.548 37.7584C105.293 37.4364 104.201 36.8904 103.272 36.1205C103.131 36.001 102.991 35.9982 102.852 36.1121C101.915 36.8889 100.78 37.4631 99.4481 37.8347C99.1618 37.9291 98.8979 37.7901 98.6565 37.4176C98.4152 37.0519 98.441 36.8284 98.7341 36.7474C100.026 36.4226 101.174 35.8683 102.178 35.0846C101.308 34.1345 100.593 32.9371 100.035 31.4925L98.8746 31.4968C98.6013 31.4978 98.4639 31.305 98.4625 30.9183C98.461 30.5317 98.597 30.3378 98.8703 30.3368L102.68 30.3227L102.266 29.2942C102.166 29.0412 102.325 28.854 102.744 28.7324C103.171 28.6042 103.437 28.6632 103.545 28.9095L103.868 29.5983C104.002 29.8978 103.913 30.0981 103.6 30.1993L103.21 30.3207L107.15 30.3061ZM110.122 30.6851C109.948 30.6857 109.862 30.7727 109.863 30.9461L109.864 31.4461C109.865 31.7194 109.669 31.8568 109.276 31.8582C108.889 31.8597 108.696 31.7237 108.694 31.4504L108.689 30.0404C108.688 29.7271 108.848 29.5698 109.168 29.5686L112.428 29.5565L112.246 29.2472C112.105 29.0144 112.231 28.8373 112.624 28.7158C113.024 28.5943 113.307 28.6499 113.475 28.8827C113.575 28.9823 113.696 29.2052 113.837 29.5513L116.797 29.5403C117.117 29.5392 117.278 29.6952 117.279 30.0086L117.284 31.4186C117.285 31.6919 117.079 31.8293 116.666 31.8309C116.259 31.8324 116.055 31.6964 116.054 31.4231L116.053 30.9231C116.052 30.7498 115.965 30.6634 115.792 30.6641L110.122 30.6851ZM116.954 33.9298C117.227 33.9288 117.364 34.1183 117.366 34.4983C117.367 34.8716 117.231 35.0588 116.958 35.0598L113.638 35.0721L113.644 36.5821C113.645 36.9088 113.599 37.1589 113.506 37.3326C113.414 37.5063 113.247 37.6369 113.008 37.7245C112.668 37.859 112.209 37.9241 111.628 37.9196C111.255 37.9276 110.981 37.7286 110.806 37.3226C110.631 36.9233 110.657 36.7265 110.884 36.7323C111.071 36.7383 111.481 36.7401 112.114 36.7378C112.214 36.7374 112.281 36.7238 112.314 36.697C112.354 36.6702 112.374 36.6235 112.373 36.5568L112.368 35.0768L109.068 35.089C108.795 35.0901 108.657 34.9039 108.656 34.5306C108.655 34.1506 108.79 33.9601 109.064 33.959L112.364 33.9468C112.362 33.5935 112.478 33.3364 112.711 33.1755L113.579 32.5923L110.769 32.6027C110.495 32.6037 110.358 32.4209 110.357 32.0542C110.355 31.6809 110.491 31.4937 110.765 31.4927L114.634 31.4184C114.908 31.4174 115.175 31.5197 115.436 31.7254C115.703 31.9311 115.74 32.1343 115.548 32.335C115.096 32.8167 114.458 33.2957 113.633 33.7721L113.634 33.9421L116.954 33.9298ZM121.712 33.5722C121.86 33.7983 121.831 34.0551 121.625 34.3425C121.426 34.6232 121.27 34.6405 121.155 34.3942L120.773 33.5956L120.787 37.4956C120.788 37.7689 120.609 37.9063 120.249 37.9076C119.889 37.909 119.708 37.773 119.707 37.4996L119.695 34.1696C119.418 35.004 119.176 35.5649 118.971 35.8523C118.852 36.0461 118.705 35.97 118.53 35.624C118.355 35.2713 118.331 34.998 118.457 34.8042C118.603 34.617 118.798 34.213 119.043 33.5921C119.287 32.9645 119.471 32.3471 119.596 31.74L118.896 31.7426C118.622 31.7436 118.485 31.5608 118.484 31.1941C118.482 30.8274 118.618 30.6436 118.892 30.6426L119.682 30.6397L119.675 28.9897C119.674 28.7163 119.854 28.579 120.214 28.5777C120.574 28.5763 120.754 28.7123 120.755 28.9857L120.762 30.6357L121.352 30.6335C121.625 30.6325 121.762 30.8153 121.764 31.182C121.765 31.5486 121.629 31.7325 121.356 31.7335L120.766 31.7357L120.767 32.1757L121.712 33.5722ZM122.987 34.9074C123.261 34.9064 123.504 34.9489 123.718 35.0347C123.938 35.1206 123.996 35.327 123.89 35.6541C123.653 36.5217 123.139 37.1469 122.347 37.5298C122.108 37.6774 121.884 37.6249 121.677 37.3723C121.476 37.1197 121.495 36.9297 121.734 36.8021C122.081 36.6608 122.423 36.3062 122.76 35.7383L122.08 35.7408C121.807 35.7418 121.67 35.609 121.669 35.3423C121.668 35.0757 121.804 34.9418 122.078 34.9408L122.987 34.9074ZM126.445 34.2946C126.644 34.1139 126.888 34.133 127.175 34.3519C127.469 34.5642 127.49 34.7641 127.238 34.9517C126.925 35.1795 126.563 35.4242 126.15 35.6857C126.632 36.1773 127.06 36.4857 127.434 36.611C127.687 36.71 127.698 36.9067 127.466 37.2009C127.234 37.4951 127.001 37.5759 126.767 37.4435C126.293 37.2319 125.794 36.7637 125.272 36.039L125.187 37.4093C125.127 37.5495 124.998 37.6667 124.798 37.7608C124.598 37.8615 124.342 37.9058 124.028 37.8936C123.655 37.9083 123.418 37.7525 123.317 37.4262C123.216 37.1066 123.302 36.9463 123.575 36.9453L123.985 36.9438C124.105 36.9433 124.165 36.8964 124.164 36.8031L124.157 34.8531C124.157 34.6798 124.07 34.5934 123.896 34.5941L122.926 34.5977C122.653 34.5987 122.516 34.4659 122.515 34.1992C122.514 33.9259 122.65 33.7887 122.923 33.7877L124.913 33.7803L124.062 33.4735C123.688 33.3415 123.598 33.1685 123.79 32.9545L122.16 32.9605C121.887 32.9615 121.75 32.8187 121.749 32.532C121.748 32.2387 121.884 32.0915 122.157 32.0905L124.127 32.0832L124.126 31.6932L122.796 31.6981C122.522 31.6991 122.385 31.5663 122.384 31.2997C122.383 31.0263 122.519 30.8892 122.793 30.8881L124.122 30.8832L124.121 30.5132L122.431 30.5195C122.158 30.5205 122.021 30.381 122.02 30.101C122.019 29.821 122.155 29.6805 122.428 29.6795L123.078 29.6771L122.816 29.238C122.682 29.0052 122.762 28.8349 123.054 28.7272C123.347 28.6194 123.564 28.6819 123.705 28.9147L123.967 29.3338C124.061 29.4868 124.021 29.6002 123.848 29.6742L125.458 29.6682C125.324 29.6221 125.344 29.4253 125.516 29.078C125.688 28.7307 125.904 28.5933 126.164 28.6656C126.605 28.7907 126.706 29.0136 126.467 29.3345L126.228 29.6654L127.048 29.6624C127.321 29.6613 127.459 29.8008 127.46 30.0808C127.461 30.3608 127.324 30.5013 127.051 30.5024L125.261 30.509L125.262 30.879L126.812 30.8732C127.086 30.8722 127.223 31.0084 127.224 31.2817C127.225 31.5484 127.089 31.6822 126.815 31.6832L125.265 31.689L125.267 32.079L127.227 32.0717C127.5 32.0707 127.637 32.2169 127.639 32.5102C127.64 32.7969 127.503 32.9407 127.23 32.9417L125.56 32.9479C125.287 32.9489 125.297 33.0122 125.591 33.1378C125.885 33.2634 126.082 33.4526 126.183 33.7056L126.083 33.846C125.878 34.0801 125.655 34.1376 125.414 34.0184L125.264 33.939L125.266 34.439L125.628 35.0577L126.445 34.2946ZM133.522 36.0584C133.556 36.4116 133.5 36.6052 133.354 36.639C132.861 36.7475 131.575 37.0223 129.497 37.4633C129.091 37.5582 128.83 37.4058 128.715 37.0062C128.607 36.6066 128.686 36.3863 128.953 36.3453L130.442 36.0998L130.433 33.6898L129.333 33.6939C129.06 33.6949 128.922 33.5054 128.921 33.1254C128.919 32.7388 129.055 32.5449 129.329 32.5439L132.799 32.5311C133.072 32.53 133.209 32.7229 133.211 33.1095C133.212 33.4895 133.076 33.68 132.803 33.6811L131.613 33.6855L131.621 35.8854L133.08 35.6C133.347 35.5524 133.494 35.7052 133.522 36.0584ZM137.06 30.2152C137.333 30.2142 137.471 30.4071 137.472 30.7937C137.474 31.1804 137.338 31.3742 137.064 31.3752L134.764 31.3838C134.877 32.8834 135.078 34.1293 135.368 35.1216C135.659 36.1138 135.98 36.6093 136.334 36.608C136.54 36.6072 136.649 36.2468 136.66 35.5268C136.691 35.0467 136.881 34.9226 137.228 35.1547C137.576 35.3867 137.727 35.6895 137.682 36.063C137.644 36.6098 137.512 37.0436 137.287 37.3645C137.068 37.6919 136.732 37.8565 136.278 37.8582C135.832 37.8599 135.444 37.6913 135.117 37.3525C134.795 37.0204 134.527 36.548 134.311 35.9355C133.9 34.737 133.631 33.2213 133.504 31.3884L128.944 31.4053C128.671 31.4064 128.534 31.2135 128.532 30.8269C128.531 30.4402 128.667 30.2464 128.94 30.2453L133.44 30.2287L133.406 28.9888C133.405 28.7155 133.617 28.578 134.044 28.5764C134.471 28.5748 134.685 28.7107 134.686 28.984L134.7 30.224L136.28 30.2181L135.407 29.4414C135.207 29.2621 135.236 29.0653 135.495 28.851C135.761 28.6301 135.997 28.6058 136.205 28.7784L136.827 29.2961C137.081 29.5152 137.082 29.7352 136.829 29.9561L136.53 30.2172L137.06 30.2152Z" fill="#FE585B"/>
<path d="M70.4122 48.5954L64.9242 48.6157C65.6239 50.3091 66.5893 51.7829 67.8207 53.037C68.9467 51.7848 69.8105 50.3043 70.4122 48.5954ZM74.3413 46.7248C74.7786 46.7232 74.9984 47.0317 75.0007 47.6503C75.003 48.269 74.7855 48.5791 74.3482 48.5808L72.5562 48.5874C71.7646 50.8517 70.673 52.7651 69.2815 54.3276C70.9396 55.6121 72.7241 56.4748 74.6351 56.9158C75.1048 57.0207 75.1274 57.3673 74.7029 57.9555C74.2785 58.5544 73.8367 58.7854 73.3775 58.6484C71.3702 58.1332 69.623 57.2597 68.1357 56.0278C67.911 55.8367 67.687 55.8322 67.4637 56.0143C65.9643 57.2572 64.149 58.176 62.0179 58.7705C61.5598 58.9216 61.1376 58.6991 60.7514 58.1032C60.3652 57.518 60.4066 57.1605 60.8754 57.0308C62.9428 56.5111 64.7796 55.6243 66.3856 54.3703C64.9933 52.8501 63.8502 50.9344 62.9563 48.623L61.1003 48.6299C60.6629 48.6315 60.4431 48.323 60.4408 47.7043C60.4385 47.0856 60.6561 46.7755 61.0934 46.7739L67.1894 46.7513L66.5273 45.1057C66.3657 44.701 66.6206 44.4014 67.2919 44.2069C67.9738 44.0017 68.4009 44.0961 68.573 44.4901L69.0891 45.5922C69.3042 46.0714 69.1614 46.392 68.6606 46.5538L68.0373 46.7481L74.3413 46.7248ZM79.0956 47.3312C78.8183 47.3322 78.6801 47.4714 78.6811 47.7487L78.6841 48.5487C78.6857 48.986 78.3719 49.2059 77.7425 49.2082C77.1239 49.2105 76.8137 48.993 76.8121 48.5556L76.8037 46.2996C76.8019 45.7983 77.057 45.5467 77.569 45.5448L82.7849 45.5255L82.4951 45.0305C82.2697 44.658 82.4713 44.3746 83.0999 44.1803C83.7392 43.9859 84.1929 44.0749 84.4609 44.4473C84.6215 44.6067 84.8148 44.9633 85.0409 45.5171L89.7769 45.4996C90.2889 45.4977 90.5458 45.7474 90.5477 46.2487L90.556 48.5047C90.5576 48.942 90.2278 49.1619 89.5665 49.1644C88.9158 49.1668 88.5896 48.9493 88.588 48.512L88.5851 47.712C88.584 47.4347 88.4449 47.2965 88.1675 47.2975L79.0956 47.3312ZM90.0269 52.5227C90.4642 52.5211 90.684 52.8242 90.6863 53.4322C90.6885 54.0296 90.4709 54.329 90.0336 54.3307L84.7216 54.3504L84.7306 56.7663C84.7325 57.289 84.6594 57.6893 84.511 57.9672C84.3627 58.245 84.0968 58.454 83.7134 58.5941C83.1702 58.8095 82.4345 58.9135 81.5065 58.9063C80.9092 58.9192 80.4707 58.6008 80.191 57.9512C79.9113 57.3122 79.9528 56.9974 80.3155 57.0067C80.6142 57.0163 81.2702 57.0192 82.2835 57.0154C82.4435 57.0148 82.5501 56.9931 82.6033 56.9502C82.6671 56.9073 82.6988 56.8325 82.6984 56.7259L82.6897 54.3579L77.4097 54.3775C76.9724 54.3791 76.7526 54.0812 76.7504 53.4839C76.7481 52.8759 76.9657 52.5711 77.403 52.5695L82.683 52.5499C82.6809 51.9846 82.866 51.5732 83.2384 51.3158L84.6269 50.3827L80.131 50.3993C79.6936 50.401 79.4739 50.1084 79.4717 49.5218C79.4695 48.9245 79.6871 48.625 80.1244 48.6234L86.316 48.5044C86.7533 48.5028 87.1806 48.6665 87.5978 48.9957C88.0257 49.3247 88.0856 49.6499 87.7774 49.971C87.0549 50.7417 86.0338 51.5081 84.7139 52.2704L84.7149 52.5424L90.0269 52.5227ZM97.6408 51.9505C97.8768 52.3122 97.8304 52.7231 97.5014 53.183C97.1831 53.6322 96.9325 53.6598 96.7497 53.2658L96.137 51.988L96.1601 58.228C96.1617 58.6653 95.8745 58.885 95.2985 58.8872C94.7225 58.8893 94.4337 58.6717 94.4321 58.2344L94.4124 52.9064C93.9693 54.2414 93.5833 55.1388 93.2543 55.5987C93.0635 55.9088 92.8284 55.787 92.549 55.2333C92.2695 54.669 92.2306 54.2319 92.4321 53.9218C92.6657 53.6222 92.9779 52.9757 93.3689 51.9823C93.7599 50.9782 94.0549 49.9904 94.2539 49.019L93.134 49.0231C92.6966 49.0248 92.4769 48.7322 92.4747 48.1456C92.4725 47.5589 92.6901 47.2648 93.1274 47.2632L94.3914 47.2585L94.3816 44.6185C94.38 44.1812 94.6672 43.9614 95.2432 43.9593C95.8192 43.9571 96.108 44.1747 96.1096 44.6121L96.1194 47.2521L97.0634 47.2486C97.5007 47.2469 97.7205 47.5395 97.7227 48.1261C97.7248 48.7128 97.5073 49.0069 97.0699 49.0085L96.1259 49.012L96.1285 49.716L97.6408 51.9505ZM99.6808 54.0869C100.118 54.0853 100.508 54.1532 100.85 54.2906C101.202 54.4279 101.294 54.7583 101.125 55.2816C100.746 56.6696 99.9234 57.67 98.6563 58.2827C98.2732 58.5188 97.9155 58.4348 97.5834 58.0307C97.2619 57.6266 97.2927 57.3224 97.676 57.1184C98.2298 56.8923 98.7771 56.3249 99.3177 55.4163L98.2297 55.4203C97.7924 55.4219 97.5729 55.2094 97.5713 54.7827C97.5698 54.3561 97.7876 54.1419 98.225 54.1403L99.6808 54.0869ZM105.213 53.1064C105.532 52.8172 105.922 52.8478 106.382 53.1981C106.852 53.5377 106.885 53.8575 106.481 54.1577C105.981 54.5222 105.401 54.9137 104.741 55.3322C105.512 56.1186 106.197 56.6121 106.795 56.8126C107.201 56.9711 107.218 57.2857 106.846 57.7564C106.475 58.2271 106.102 58.3565 105.728 58.1445C104.969 57.806 104.172 57.0569 103.336 55.8974L103.2 58.0899C103.104 58.3142 102.897 58.5017 102.578 58.6522C102.258 58.8134 101.848 58.8842 101.346 58.8648C100.749 58.8883 100.37 58.6391 100.208 58.117C100.046 57.6056 100.184 57.3491 100.621 57.3474L101.277 57.345C101.469 57.3443 101.565 57.2693 101.564 57.1199L101.552 54C101.551 53.7226 101.412 53.5845 101.135 53.5855L99.5829 53.5913C99.1456 53.5929 98.9261 53.3804 98.9246 52.9537C98.9229 52.5164 99.1408 52.2969 99.5781 52.2953L102.762 52.2835L101.4 51.7925C100.802 51.5814 100.657 51.3046 100.965 50.9621L98.3572 50.9718C97.9199 50.9734 97.7004 50.7449 97.6987 50.2862C97.6969 49.8169 97.9147 49.5814 98.3521 49.5798L101.504 49.5681L101.502 48.9441L99.3737 48.952C98.9364 48.9536 98.7169 48.7411 98.7154 48.3144C98.7137 47.8771 98.9316 47.6576 99.3689 47.656L101.497 47.6481L101.495 47.0561L98.7907 47.0662C98.3534 47.0678 98.1339 46.8446 98.1323 46.3966C98.1306 45.9486 98.3484 45.7238 98.7858 45.7222L99.8258 45.7183L99.4071 45.0159C99.1924 44.6433 99.3194 44.3708 99.7881 44.1984C100.257 44.026 100.604 44.1261 100.829 44.4986L101.248 45.169C101.398 45.4138 101.335 45.5954 101.058 45.7137L103.634 45.7042C103.42 45.6303 103.451 45.3155 103.726 44.7598C104.002 44.2042 104.347 43.9842 104.764 44.1C105.469 44.3001 105.63 44.6568 105.248 45.1702L104.866 45.6996L106.178 45.6948C106.615 45.6931 106.835 45.9163 106.836 46.3643C106.838 46.8123 106.62 47.0371 106.183 47.0388L103.319 47.0494L103.321 47.6414L105.801 47.6322C106.238 47.6306 106.458 47.8484 106.459 48.2857C106.461 48.7124 106.243 48.9265 105.806 48.9282L103.326 48.9374L103.328 49.5614L106.464 49.5497C106.901 49.5481 107.121 49.782 107.123 50.2513C107.124 50.71 106.906 50.9401 106.469 50.9417L103.797 50.9516C103.36 50.9532 103.376 51.0545 103.846 51.2554C104.316 51.4564 104.632 51.7592 104.794 52.1639L104.635 52.3885C104.305 52.7631 103.948 52.8551 103.564 52.6645L103.323 52.5374L103.326 53.3374L103.906 54.3272L105.213 53.1064ZM116.536 55.9284C116.591 56.4936 116.502 56.8032 116.267 56.8574C115.478 57.031 113.421 57.4707 110.096 58.1763C109.446 58.3281 109.029 58.0843 108.845 57.445C108.672 56.8056 108.799 56.4531 109.225 56.3875L111.608 55.9947L111.594 52.1387L109.834 52.1453C109.396 52.1469 109.177 51.8437 109.174 51.2357C109.172 50.617 109.389 50.3069 109.827 50.3053L115.379 50.2847C115.816 50.2831 116.036 50.5916 116.038 51.2103C116.04 51.8183 115.823 52.1231 115.386 52.1247L113.482 52.1317L113.495 55.6517L115.829 55.1951C116.255 55.1188 116.491 55.3633 116.536 55.9284ZM122.197 46.5794C122.634 46.5778 122.854 46.8863 122.857 47.505C122.859 48.1236 122.641 48.4338 122.204 48.4354L118.524 48.449C118.704 50.8484 119.026 52.8419 119.49 54.4295C119.955 56.0171 120.47 56.8099 121.035 56.8078C121.366 56.8066 121.54 56.2299 121.557 55.0778C121.607 54.3096 121.91 54.1112 122.466 54.4825C123.022 54.8537 123.264 55.3382 123.192 55.9358C123.131 56.8107 122.92 57.5048 122.559 58.0181C122.209 58.5421 121.672 58.8054 120.946 58.8081C120.232 58.8108 119.612 58.5411 119.087 57.999C118.573 57.4676 118.144 56.7118 117.799 55.7318C117.141 53.8142 116.711 51.3891 116.508 48.4565L109.212 48.4835C108.775 48.4852 108.555 48.1766 108.553 47.558C108.55 46.9393 108.768 46.6292 109.205 46.6276L116.405 46.6009L116.35 44.6171C116.348 44.1797 116.689 43.9598 117.371 43.9573C118.054 43.9547 118.396 44.1721 118.398 44.6095L118.421 46.5934L120.949 46.584L119.552 45.3412C119.231 45.0544 119.278 44.7395 119.693 44.3967C120.118 44.0431 120.497 44.0043 120.829 44.2805L121.824 45.1088C122.23 45.4593 122.232 45.8113 121.828 46.1648L121.349 46.5825L122.197 46.5794ZM128.776 53.6431C128.339 53.6447 128.119 53.3682 128.117 52.8135C128.115 52.2482 128.333 51.9647 128.77 51.9631L131.826 51.9517C132.263 51.9501 132.483 52.232 132.485 52.7973C132.487 53.352 132.27 53.6301 131.832 53.6317L128.776 53.6431ZM139.71 52.1305C139.572 52.3657 139.642 52.4828 139.919 52.4818L142.271 52.473L142.335 48.2488C142.334 47.8114 142.163 47.9187 141.824 48.5707C141.496 49.2119 141.221 49.7142 140.998 50.0777L139.71 52.1305ZM143.377 57.333C142.652 57.3357 142.288 57.1183 142.287 56.681L142.278 54.265L137.878 54.2813C137.44 54.283 137.221 54.0171 137.219 53.4838C137.217 52.9504 137.327 52.502 137.55 52.1385L141.255 46.0608C141.488 45.6759 141.834 45.4826 142.293 45.4809L143.669 45.4758C144.181 45.4739 144.438 45.729 144.44 46.241L144.463 52.4649L145.199 52.4622C145.636 52.4606 145.856 52.7584 145.858 53.3557C145.86 53.9531 145.643 54.2525 145.206 54.2542L144.47 54.2569L144.479 56.6729C144.48 57.1102 144.113 57.3302 143.377 57.333Z" fill="black" fill-opacity="0.85"/>
</g>
<defs>
<radialGradient id="paint0_radial_2308_6633" cx="0" cy="0" r="1" gradientUnits="userSpaceOnUse" gradientTransform="translate(0.560609 46.8353) rotate(65.4889) scale(3.32531 8.21233)">
<stop offset="0.33" stop-opacity="0"/>
<stop offset="0.655" stop-opacity="0.6"/>
<stop offset="1"/>
</radialGradient>
<radialGradient id="paint1_radial_2308_6633" cx="0" cy="0" r="1" gradientUnits="userSpaceOnUse" gradientTransform="translate(355.3 45.8572) rotate(114.511) scale(3.32531 8.21233)">
<stop offset="0.33" stop-opacity="0"/>
<stop offset="0.655" stop-opacity="0.6"/>
<stop offset="1"/>
</radialGradient>
<clipPath id="clip0_2308_6633">
<rect width="200" height="90" fill="white"/>
</clipPath>
</defs>
</svg>
