<svg width="200" height="90" viewBox="0 0 200 90" fill="none" xmlns="http://www.w3.org/2000/svg">
<g clip-path="url(#clip0_2306_6339)">
<rect width="200" height="90" fill="#BDE3FF"/>
<path fill-rule="evenodd" clip-rule="evenodd" d="M-6.18027 85.5257C-5.5206 81.3514 -9.94765 77.2571 -7.65473 73.2393C-4.94813 68.4966 -1.65241 61.9915 7.77154 61.0783C17.9972 60.0873 23.5998 68.8258 33.9785 69.2048C45.8176 69.6371 56.5881 60.196 66.8872 63.2371C76.2425 65.9996 70.121 74.0119 68.9752 79.5387C68.1676 83.4341 61.5364 86.4306 61.2669 90.3457C60.8502 96.3973 75.7689 103.853 67.0229 107.895C58.3557 111.9 45.7383 103.802 34.2527 102.83C27.3162 102.243 20.5655 103.925 13.6182 103.373C4.65786 102.66 -7.2514 103.227 -11.7526 99.1698C-16.3208 95.0519 -6.92748 90.2539 -6.18027 85.5257Z" fill="#005EA5"/>
<path fill-rule="evenodd" clip-rule="evenodd" d="M28.4743 10.5302C32.6486 10.8717 36.7429 8.58004 40.7607 9.76696C45.5034 11.168 52.0085 12.874 52.9217 17.7523C53.9127 23.0456 45.1742 25.9458 44.7952 31.3183C44.3629 37.4467 53.804 43.0221 50.7629 48.3534C48.0004 53.1961 39.9881 50.0274 34.4613 49.4342C30.5659 49.0162 27.5694 45.5836 23.6543 45.444C17.6027 45.2284 10.1469 52.9509 6.10508 48.4236C2.09968 43.9371 10.1975 37.4057 11.1701 31.4602C11.7575 27.8695 10.0747 24.3751 10.6274 20.7788C11.3402 16.1405 10.7727 9.97575 14.8302 7.64571C18.9481 5.281 23.7461 10.1434 28.4743 10.5302Z" fill="#2382C9"/>
<path fill-rule="evenodd" clip-rule="evenodd" d="M173.474 4.53021C177.649 4.87169 181.743 2.58004 185.761 3.76696C190.503 5.16803 197.008 6.87405 197.922 11.7523C198.913 17.0456 190.174 19.9458 189.795 25.3183C189.363 31.4467 198.804 37.0221 195.763 42.3534C193 47.1961 184.988 44.0274 179.461 43.4342C175.566 43.0162 172.569 39.5836 168.654 39.444C162.603 39.2284 155.147 46.9509 151.105 42.4236C147.1 37.9371 155.198 31.4057 156.17 25.4602C156.757 21.8695 155.075 18.3751 155.627 14.7788C156.34 10.1405 155.773 3.97575 159.83 1.64571C163.948 -0.719004 168.746 4.14342 173.474 4.53021Z" fill="#69BAF5"/>
<path fill-rule="evenodd" clip-rule="evenodd" d="M117.063 7.20494C131.49 7.9797 144.155 11.9054 154.996 17.5775C166.733 23.7188 176.896 30.8598 179.688 39.9711C183.097 51.0949 184.354 63.7453 171.749 72.2549C158.691 81.0707 136.857 81.4742 117.063 82.2497C95.2362 83.1048 71.8992 84.7511 54.6033 76.8446C35.6156 68.1646 20.8565 53.9771 24.5773 39.9711C28.0889 26.7526 52.1053 19.9805 71.5388 13.0955C85.3864 8.18958 100.98 6.34119 117.063 7.20494Z" fill="#C9F4FF"/>
<path d="M177.967 51.2804L196.726 84.9582L159.338 85.0303L177.967 51.2804Z" fill="#228CDA"/>
<path d="M173.373 78.4648H182.74" stroke="black" stroke-width="2" stroke-linecap="round"/>
<ellipse cx="171.472" cy="68.8528" rx="4.64254" ry="4.79533" transform="rotate(-0.110477 171.472 68.8528)" stroke="#FA8F21" stroke-width="2"/>
<ellipse cx="184.669" cy="68.8118" rx="4.64254" ry="4.79533" transform="rotate(-0.110477 184.669 68.8118)" stroke="#FA8F21" stroke-width="2"/>
<path d="M175.55 68.4723C175.55 68.4723 176.816 68.054 177.654 68.0337C178.594 68.011 180.025 68.4637 180.025 68.4637" stroke="#FA8F21" stroke-width="2"/>
<ellipse cx="171.471" cy="68.8518" rx="1.89842" ry="1.9609" transform="rotate(-0.110477 171.471 68.8518)" fill="black"/>
<ellipse cx="184.67" cy="68.8264" rx="1.89842" ry="1.9609" transform="rotate(-0.110477 184.67 68.8264)" fill="black"/>
<path d="M83.5135 35.0059C83.6995 34.8318 83.9563 34.8675 84.2839 35.113C84.6181 35.3518 84.6921 35.5382 84.5059 35.6722C84.2467 35.8731 83.8443 36.138 83.2989 36.4667C83.0993 36.5874 83.0765 36.7142 83.2303 36.8469C83.7252 37.2718 84.2663 37.5631 84.8535 37.7209C85.1272 37.7999 85.1346 38.0132 84.8759 38.3608C84.6172 38.7151 84.351 38.8394 84.0773 38.7338C83.3431 38.4965 82.6447 38.0291 81.9821 37.3316C81.3261 36.6273 80.8028 35.7426 80.4122 34.6774C80.047 35.0587 79.6183 35.427 79.1263 35.7821L79.1317 37.2321C79.1323 37.4054 79.2159 37.4718 79.3824 37.4312L80.9008 36.9956C81.1606 36.9279 81.3244 37.0707 81.3924 37.4237C81.4604 37.7768 81.2979 38.0141 80.905 38.1355C79.8329 38.4529 79.097 38.6756 78.6975 38.8037L78.2682 38.9853C78.0152 39.0863 77.8047 38.9604 77.6368 38.6077C77.4755 38.2616 77.5078 37.9981 77.7338 37.8173C77.8406 37.8302 77.8933 37.6567 77.8919 37.2967L77.8892 36.5567C77.4035 36.8252 77.0641 36.9898 76.871 37.0505C76.638 37.138 76.3909 37.0223 76.1297 36.7032C75.8752 36.3842 75.8811 36.1808 76.1474 36.0932C77.0731 35.8164 78.0012 35.3096 78.9318 34.5728L76.5018 34.5818C76.2285 34.5829 76.0912 34.4167 76.09 34.0834C76.0887 33.7434 76.2248 33.5729 76.4981 33.5719L79.8781 33.5593L79.876 32.9993L77.416 33.0084C77.1427 33.0095 77.0054 32.8533 77.0043 32.54C77.0031 32.22 77.1392 32.0595 77.4125 32.0585L79.8725 32.0493L79.8706 31.5293L76.9206 31.5403C76.6472 31.5413 76.51 31.3751 76.5087 31.0418C76.5075 30.7018 76.6435 30.5313 76.9168 30.5303L79.8668 30.5193L79.8657 30.2093C79.8646 29.936 80.0641 29.7986 80.4641 29.7971C80.8641 29.7956 81.0646 29.9316 81.0657 30.2049L81.0668 30.5149L84.1368 30.5035C84.4101 30.5025 84.5474 30.672 84.5487 31.012C84.5499 31.3453 84.4139 31.5125 84.1405 31.5135L81.0705 31.5249L81.0725 32.0449L83.7525 32.035C84.0258 32.0339 84.163 32.1934 84.1642 32.5134C84.1654 32.8268 84.0293 32.9839 83.756 32.9849L81.076 32.9949L81.0781 33.5549L84.488 33.5422C84.7614 33.5412 84.8987 33.7107 84.8999 34.0507C84.9012 34.384 84.7651 34.5512 84.4918 34.5522L81.5418 34.5632C81.7168 35.0225 81.9752 35.4749 82.3168 35.9203C82.8954 35.5248 83.2943 35.22 83.5135 35.0059ZM91.1249 35.3676L93.4748 35.3589C93.054 35.1338 92.653 34.862 92.2718 34.5434C91.9196 34.8514 91.5373 35.1261 91.1249 35.3676ZM91.1926 37.4674C91.1933 37.6407 91.2803 37.7271 91.4536 37.7264L93.0236 37.7206C93.1969 37.72 93.2833 37.633 93.2826 37.4597L93.2785 36.3597L91.1886 36.3674L91.1926 37.4674ZM89.3106 34.2144C89.5048 34.447 89.5157 34.6869 89.3432 34.9342L89.2636 35.0345C90.1024 34.7181 90.8375 34.2954 91.4689 33.7664L90.7153 32.7891C90.4764 33.0834 90.327 33.2506 90.2672 33.2908C90.0745 33.4715 89.8912 33.4789 89.7172 33.3129C89.7172 33.2929 89.5633 33.1601 89.2558 32.9146L88.4058 32.9177L88.4066 33.1577L89.3106 34.2144ZM92.9325 32.0209C93.0253 31.8806 92.985 31.8107 92.8117 31.8114L91.4317 31.8165L91.3621 31.9167L92.2262 33.0336L92.9325 32.0209ZM93.4078 30.7592C93.6811 30.7581 93.9413 30.8172 94.1885 30.9363C94.4422 31.0487 94.5196 31.2384 94.4206 31.5054C94.1966 32.2462 93.7428 33.0013 93.059 33.7705C93.7275 34.2747 94.3454 34.6024 94.9126 34.7536C95.1862 34.8326 95.2037 35.0392 94.9649 35.3734C94.7261 35.701 94.5466 35.8416 94.4265 35.7954L94.4356 38.2654C94.4368 38.5787 94.2774 38.736 93.9574 38.7372L90.5674 38.7497C90.2474 38.7509 90.0868 38.5915 90.0856 38.2715L90.0768 35.9015C89.7374 36.0428 89.4871 35.9871 89.3262 35.7343L89.0547 35.3253C88.995 35.4122 88.9417 35.4124 88.8947 35.3259L88.4116 34.4877L88.4271 38.6877C88.4282 38.961 88.242 39.0984 87.8687 39.0997C87.4953 39.1011 87.3082 38.9652 87.3072 38.6918L87.2946 35.3118C86.9846 36.1997 86.7134 36.794 86.4812 37.0949C86.3619 37.2753 86.2082 37.1859 86.0202 36.8266C85.8389 36.4672 85.8179 36.1907 85.9572 35.9968C86.1164 35.8029 86.3249 35.3954 86.5826 34.7745C86.847 34.1535 87.0514 33.5361 87.1958 32.9222L86.3858 32.9252C86.1124 32.9262 85.9751 32.7434 85.9737 32.3767C85.9724 32.0101 86.1084 31.8262 86.3817 31.8252L87.2817 31.8219L87.2756 30.1819C87.2746 29.9085 87.4608 29.7712 87.8341 29.7698C88.2074 29.7684 88.3946 29.9044 88.3956 30.1777L88.4017 31.8177L89.0417 31.8153C89.3617 31.8142 89.5223 31.9936 89.5237 32.3536C90.2676 31.6241 90.7716 30.8889 91.0355 30.1479C91.1479 29.8809 91.3909 29.8 91.7646 29.9052C92.145 30.0038 92.2823 30.1767 92.1765 30.4237L92.0079 30.8043L93.4078 30.7592ZM100.813 34.7517L100.808 33.3917C100.807 33.2184 100.72 33.1321 100.547 33.1327L99.7766 33.1356C99.4566 33.1368 99.2961 32.9773 99.2949 32.6573L99.2859 30.2274C99.2848 29.954 99.451 29.8167 99.7843 29.8155C100.124 29.8143 100.295 29.9503 100.296 30.2236L100.297 30.4936L101.457 30.4893C101.73 30.4883 101.867 30.6511 101.869 30.9778C101.87 31.3045 101.734 31.4683 101.46 31.4693L100.3 31.4736L100.302 31.9436C100.303 32.1169 100.39 32.2033 100.563 32.2026L101.313 32.2099C101.633 32.2087 101.794 32.3681 101.795 32.6881L101.803 34.7481C101.803 34.9547 101.777 35.1082 101.724 35.2084C101.678 35.3085 101.578 35.3956 101.425 35.4695C101.272 35.5434 101.089 35.5774 100.876 35.5715C100.502 35.5796 100.272 35.4637 100.184 35.2241C100.097 34.9777 100.19 34.854 100.463 34.853L100.643 34.8524C100.756 34.8586 100.813 34.8251 100.813 34.7517ZM99.349 33.7672C99.4147 33.5069 99.5943 33.4029 99.8878 33.4552C100.181 33.5007 100.302 33.7136 100.25 34.0938C100.225 34.4739 100.136 34.7642 99.9834 34.9648C99.8841 35.1585 99.7076 35.1792 99.4537 35.0268C99.1997 34.8677 99.1056 34.6581 99.1713 34.3978L99.349 33.7672ZM103.116 35.6632L103.163 34.853L102.563 34.8552C102.29 34.8563 102.152 34.6934 102.151 34.3668C102.15 34.0401 102.286 33.8763 102.559 33.8753L103.199 33.8729L103.196 33.0129L102.626 33.015C102.353 33.016 102.216 32.8532 102.214 32.5265C102.213 32.1999 102.349 32.036 102.623 32.035L103.253 32.0327L103.25 31.4327C103.25 31.2593 103.163 31.173 102.989 31.1736L102.519 31.1754C102.246 31.1764 102.109 31.0069 102.108 30.6669C102.106 30.3269 102.242 30.1564 102.516 30.1554L103.866 30.1504C104.186 30.1492 104.343 30.3286 104.338 30.6886C104.351 32.3753 104.317 34.0321 104.236 35.6591L104.696 35.6573C104.969 35.6563 105.107 35.8392 105.108 36.2058C105.109 36.5725 104.973 36.7563 104.7 36.7573L102.29 36.7663C103.359 37.2623 104.113 37.6495 104.554 37.9279C104.748 38.0405 104.712 38.2473 104.447 38.5483C104.188 38.8559 103.952 38.9401 103.738 38.8009C103.17 38.4097 102.578 38.0719 101.964 37.7875C101.536 37.5691 101.442 37.3028 101.681 36.9885L101.85 36.7679L98.8801 36.7789L99.2613 37.0875C99.5689 37.3397 99.5464 37.5798 99.194 37.8078C98.6753 38.163 97.9633 38.5223 97.0579 38.8857C96.7851 39.0067 96.5347 38.9176 96.3069 38.6185C96.0859 38.3259 96.1184 38.1225 96.4047 38.0081C97.2102 37.7051 97.9654 37.2956 98.6701 36.7797L96.3502 36.7883C96.0768 36.7893 95.9395 36.6065 95.9381 36.2398C95.9368 35.8732 96.0728 35.6893 96.3461 35.6883L96.8361 35.6865L96.6586 30.9771C96.6508 30.6771 96.7834 30.4733 97.0564 30.3656L98.1747 29.9215C98.4277 29.8272 98.6381 29.9431 98.806 30.2691C98.9805 30.5885 98.9379 30.7853 98.6782 30.8596L97.969 31.0723C97.8092 31.1195 97.7296 31.2265 97.7302 31.3931L97.7626 32.043L98.4926 32.0403C98.7659 32.0393 98.9032 32.2021 98.9044 32.5288C98.9056 32.8488 98.7695 33.0093 98.4962 33.0103L97.7962 33.0129L97.8294 33.8728L98.5294 33.8702C98.8027 33.8692 98.94 34.032 98.9412 34.3587C98.9424 34.6787 98.8063 34.8392 98.533 34.8402L97.863 34.8427L97.8961 35.6826L103.116 35.6632ZM113.513 34.8947C113.699 34.7206 113.956 34.7564 114.284 35.0018C114.618 35.2406 114.692 35.427 114.506 35.561C114.246 35.762 113.844 36.0268 113.299 36.3555C113.099 36.4762 113.076 36.603 113.23 36.7357C113.725 37.1606 114.266 37.4519 114.853 37.6097C115.127 37.6887 115.134 37.902 114.876 38.2496C114.617 38.6039 114.351 38.7283 114.077 38.6226C113.343 38.3853 112.644 37.9179 111.982 37.2204C111.326 36.5161 110.803 35.6314 110.412 34.5662C110.047 34.9475 109.618 35.3158 109.126 35.6709L109.131 37.1209C109.132 37.2943 109.216 37.3606 109.382 37.32L110.901 36.8844C111.16 36.8167 111.324 36.9595 111.392 37.3125C111.46 37.6656 111.298 37.9029 110.905 38.0244C109.833 38.3417 109.097 38.5644 108.697 38.6925L108.268 38.8741C108.015 38.9751 107.805 38.8492 107.637 38.4965C107.475 38.1504 107.508 37.8869 107.734 37.7061C107.84 37.719 107.893 37.5455 107.892 37.1855L107.889 36.4455C107.403 36.714 107.064 36.8786 106.871 36.9393C106.638 37.0268 106.391 36.9111 106.129 36.592C105.875 36.273 105.881 36.0696 106.147 35.982C107.073 35.7052 108.001 35.1984 108.932 34.4616L106.502 34.4706C106.228 34.4717 106.091 34.3055 106.09 33.9722C106.089 33.6322 106.225 33.4617 106.498 33.4607L109.878 33.4481L109.876 32.8881L107.416 32.8972C107.142 32.8983 107.005 32.7421 107.004 32.4288C107.003 32.1088 107.139 31.9483 107.412 31.9473L109.872 31.9381L109.87 31.4181L106.92 31.4291C106.647 31.4301 106.51 31.2639 106.509 30.9306C106.507 30.5906 106.643 30.4201 106.917 30.4191L109.867 30.4081L109.865 30.0981C109.864 29.8248 110.064 29.6874 110.464 29.6859C110.864 29.6844 111.064 29.8204 111.065 30.0937L111.067 30.4037L114.137 30.3923C114.41 30.3913 114.547 30.5608 114.548 30.9008C114.55 31.2341 114.414 31.4013 114.14 31.4023L111.07 31.4137L111.072 31.9337L113.752 31.9238C114.026 31.9227 114.163 32.0822 114.164 32.4022C114.165 32.7156 114.029 32.8727 113.756 32.8737L111.076 32.8837L111.078 33.4437L114.488 33.431C114.761 33.43 114.898 33.5995 114.9 33.9395C114.901 34.2728 114.765 34.44 114.492 34.441L111.542 34.452C111.717 34.9113 111.975 35.3637 112.317 35.8091C112.895 35.4136 113.294 35.1088 113.513 34.8947ZM123.03 31.3194C123.203 31.3187 123.29 31.2317 123.289 31.0584C123.288 30.8451 123.201 30.7387 123.028 30.7394L122.118 30.7427C121.945 30.7434 121.858 30.8304 121.859 31.0037C121.86 31.217 121.947 31.3234 122.12 31.3227L123.03 31.3194ZM123.915 30.0261C124.235 30.0249 124.396 30.1843 124.397 30.5043L124.401 31.5443C124.402 31.8643 124.243 32.0249 123.923 32.0261L121.293 32.0358C120.973 32.037 120.812 31.8776 120.811 31.5576L120.807 30.5176C120.806 30.1976 120.965 30.037 121.285 30.0358L123.915 30.0261ZM118.83 31.3349C119.003 31.3343 119.09 31.2473 119.089 31.074C119.088 30.8606 119.001 30.7543 118.828 30.7549L117.948 30.7582C117.775 30.7588 117.688 30.8458 117.689 31.0192C117.69 31.2325 117.777 31.3388 117.95 31.3382L118.83 31.3349ZM119.725 30.0416C120.039 30.0404 120.196 30.1999 120.197 30.5199L120.201 31.5599C120.202 31.8798 120.046 32.0404 119.733 32.0416L117.113 32.0513C116.793 32.0525 116.632 31.8931 116.631 31.5731L116.627 30.5331C116.626 30.2131 116.785 30.0525 117.105 30.0513L119.725 30.0416ZM118.164 35.0174C118.164 35.1908 118.251 35.2771 118.425 35.2765L119.855 35.2712L119.853 34.7312L118.163 34.7374L118.164 35.0174ZM118.418 33.3565C118.244 33.3571 118.158 33.4441 118.159 33.6174L118.16 33.8874L119.85 33.8812L119.848 33.3512L118.418 33.3565ZM122.87 33.87L122.869 33.6C122.868 33.4266 122.784 33.3403 122.618 33.3409L121.068 33.3467L121.07 33.8766L122.87 33.87ZM122.625 35.2609C122.791 35.2603 122.874 35.1733 122.874 35L122.873 34.72L121.073 34.7266L121.075 35.2666L122.625 35.2609ZM124.56 36.6837C124.833 36.6827 124.971 36.8522 124.972 37.1922C124.973 37.5322 124.837 37.7027 124.564 37.7037L121.084 37.7166L121.087 38.5766C121.088 38.8499 120.885 38.9874 120.478 38.9889C120.072 38.9904 119.868 38.8545 119.867 38.5811L119.864 37.7211L116.474 37.7337C116.2 37.7347 116.063 37.5652 116.062 37.2252C116.061 36.8852 116.197 36.7147 116.47 36.7137L119.86 36.7012L119.858 36.1812L117.488 36.1899C117.168 36.1911 117.007 36.0317 117.006 35.7117L116.996 32.9217C116.995 32.6017 117.154 32.4412 117.474 32.44L123.604 32.4172C123.924 32.4161 124.085 32.5755 124.086 32.8955L124.096 35.6854C124.097 36.0054 123.938 36.166 123.618 36.1672L121.078 36.1766L121.08 36.6966L124.56 36.6837Z" fill="#2382C9"/>
<path d="M73.6482 53.6086C73.9458 53.3302 74.3567 53.3873 74.8809 53.7801C75.4156 54.1621 75.534 54.4603 75.2362 54.6747C74.8214 54.9963 74.1776 55.42 73.3049 55.9459C72.9856 56.1391 72.949 56.3419 73.1951 56.5543C73.987 57.2341 74.8527 57.7002 75.7923 57.9527C76.2301 58.0791 76.2421 58.4204 75.8281 58.9766C75.4142 59.5435 74.9883 59.7424 74.5503 59.5733C73.3756 59.1937 72.2581 58.4458 71.198 57.3297C70.1485 56.2029 69.3112 54.7874 68.6862 53.083C68.1018 53.6932 67.416 54.2824 66.6288 54.8507L66.6374 57.1706C66.6384 57.448 66.7721 57.5541 67.0385 57.4892L69.468 56.7921C69.8836 56.6839 70.1458 56.9123 70.2545 57.4772C70.3633 58.0422 70.1034 58.4218 69.4747 58.6161C67.7593 59.1238 66.5819 59.4802 65.9427 59.6852L65.2557 59.9758C64.851 60.1373 64.5143 59.9359 64.2455 59.3715C63.9874 58.8178 64.0392 58.3963 64.4008 58.1069C64.5716 58.1276 64.6559 57.85 64.6537 57.274L64.6493 56.09C63.8723 56.5195 63.3292 56.7829 63.0203 56.88C62.6474 57.0201 62.2521 56.8349 61.8342 56.3244C61.427 55.8139 61.4364 55.4886 61.8626 55.3483C63.3436 54.9055 64.8286 54.0947 66.3176 52.9158L62.4296 52.9302C61.9923 52.9318 61.7726 52.666 61.7707 52.1326C61.7686 51.5886 61.9863 51.3158 62.4236 51.3142L67.8316 51.2942L67.8283 50.3982L63.8923 50.4128C63.455 50.4144 63.2354 50.1645 63.2335 49.6632C63.2316 49.1512 63.4493 48.8944 63.8867 48.8928L67.8226 48.8782L67.8196 48.0462L63.0996 48.0637C62.6623 48.0653 62.4426 47.7995 62.4406 47.2661C62.4386 46.7221 62.6563 46.4493 63.0936 46.4477L67.8136 46.4302L67.8117 45.9342C67.8101 45.4969 68.1293 45.277 68.7693 45.2747C69.4093 45.2723 69.7301 45.4898 69.7317 45.9271L69.7335 46.4231L74.6455 46.4049C75.0828 46.4033 75.3025 46.6744 75.3045 47.2184C75.3065 47.7518 75.0888 48.0192 74.6515 48.0209L69.7395 48.0391L69.7426 48.8711L74.0306 48.8552C74.4679 48.8536 74.6875 49.1087 74.6894 49.6207C74.6913 50.1221 74.4736 50.3735 74.0362 50.3752L69.7483 50.3911L69.7516 51.2871L75.2075 51.2668C75.6449 51.2652 75.8645 51.5364 75.8666 52.0804C75.8685 52.6137 75.6509 52.8812 75.2135 52.8828L70.4936 52.9003C70.7736 53.6353 71.187 54.3591 71.7336 55.0717C72.6593 54.439 73.2975 53.9513 73.6482 53.6086ZM88.8751 47.8881C89.1524 47.8871 89.2906 47.7479 89.2896 47.4706C89.2883 47.1293 89.149 46.9591 88.8717 46.9602L87.4157 46.9655C87.1383 46.9666 87.0002 47.1058 87.0012 47.3831C87.0025 47.7244 87.1418 47.8946 87.4191 47.8935L88.8751 47.8881ZM90.2914 45.8189C90.8034 45.817 91.0604 46.072 91.0623 46.584L91.0685 48.248C91.0704 48.76 90.8153 49.017 90.3033 49.0189L86.0953 49.0345C85.5833 49.0364 85.3264 48.7813 85.3245 48.2693L85.3183 46.6053C85.3164 46.0933 85.5715 45.8364 86.0835 45.8345L90.2914 45.8189ZM82.1552 47.9131C82.4325 47.912 82.5706 47.7728 82.5696 47.4955C82.5683 47.1542 82.429 46.984 82.1517 46.9851L80.7437 46.9903C80.4664 46.9913 80.3282 47.1305 80.3293 47.4078C80.3305 47.7491 80.4698 47.9193 80.7472 47.9183L82.1552 47.9131ZM83.5875 45.8437C84.0888 45.8419 84.3404 46.0969 84.3423 46.6089L84.3485 48.2729C84.3504 48.7849 84.1007 49.0419 83.5994 49.0437L79.4074 49.0592C78.8954 49.0611 78.6384 48.8061 78.6365 48.2941L78.6304 46.6301C78.6285 46.1181 78.8835 45.8612 79.3955 45.8593L83.5875 45.8437ZM81.089 53.805C81.09 54.0824 81.2292 54.2205 81.5065 54.2195L83.7945 54.211L83.7913 53.347L81.0873 53.357L81.089 53.805ZM81.4951 51.1475C81.2178 51.1486 81.0797 51.2877 81.0807 51.5651L81.0823 51.9971L83.7863 51.987L83.7831 51.139L81.4951 51.1475ZM88.6182 51.9691L88.6166 51.5371C88.6156 51.2598 88.4818 51.1216 88.2151 51.1226L85.7351 51.1318L85.7383 51.9798L88.6182 51.9691ZM88.2265 54.1946C88.4931 54.1936 88.626 54.0544 88.6249 53.7771L88.6233 53.3291L85.7433 53.3398L85.7465 54.2038L88.2265 54.1946ZM91.3229 56.4711C91.7603 56.4695 91.9799 56.7407 91.982 57.2847C91.984 57.8287 91.7663 58.1015 91.329 58.1031L85.761 58.1238L85.7661 59.4998C85.7677 59.9371 85.4432 60.157 84.7926 60.1594C84.1419 60.1618 83.8158 59.9443 83.8141 59.507L83.809 58.131L78.3851 58.1511C77.9477 58.1527 77.7281 57.8815 77.7261 57.3375C77.724 56.7935 77.9417 56.5207 78.379 56.5191L83.803 56.499L83.7999 55.667L80.0079 55.6811C79.4959 55.683 79.239 55.4279 79.2371 54.9159L79.2205 50.4519C79.2186 49.94 79.4737 49.683 79.9857 49.6811L89.7936 49.6448C90.3056 49.6429 90.5626 49.8979 90.5645 50.4099L90.581 54.8739C90.5829 55.3859 90.3279 55.6428 89.8159 55.6447L85.7519 55.6598L85.755 56.4918L91.3229 56.4711ZM105.829 46.2573C106.267 46.2557 106.486 46.5642 106.489 47.1829C106.491 47.7909 106.273 48.0957 105.836 48.0973L95.7881 48.1345C95.3507 48.1361 95.1309 47.833 95.1287 47.225C95.1264 46.6063 95.3439 46.2962 95.7812 46.2945L105.829 46.2573ZM104.401 58.0387L105.841 58.0333C106.107 58.0323 106.278 57.8717 106.351 57.5514C106.435 57.2205 106.482 56.7829 106.49 56.2389C106.52 55.6201 106.829 55.443 107.416 55.7075C108.004 55.972 108.272 56.403 108.221 57.0005C108.181 57.8433 108.003 58.5213 107.685 59.0345C107.377 59.5476 106.818 59.8057 106.007 59.8087L104.087 59.8158C103.191 59.8192 102.588 59.6454 102.277 59.2945C101.967 58.9437 101.81 58.2936 101.806 57.3443L101.788 52.4483L99.3881 52.4572C99.3268 53.1934 99.2439 53.8391 99.1393 54.3941C99.0453 54.9385 98.8874 55.5151 98.6657 56.1239C98.4439 56.7221 98.1685 57.2458 97.8395 57.695C97.0753 58.7218 96.2032 59.4184 95.2232 59.7847C94.7867 59.989 94.3701 59.8305 93.9735 59.3093C93.5769 58.7988 93.6183 58.4413 94.0975 58.2369C95.2054 57.8381 96.0186 57.0937 96.5372 56.0038C96.8018 55.4375 96.9865 54.8981 97.0912 54.3857L97.3241 52.4649L94.3642 52.4758C93.9268 52.4775 93.707 52.1689 93.7047 51.5503C93.7024 50.9316 93.9199 50.6215 94.3573 50.6198L107.317 50.5718C107.755 50.5702 107.974 50.8787 107.977 51.4974C107.979 52.116 107.761 52.4262 107.324 52.4278L103.756 52.441L103.774 57.337C103.775 57.6357 103.813 57.8275 103.888 57.9126C103.963 57.9976 104.134 58.0397 104.401 58.0387ZM112.637 57.0161C112.967 56.7482 113.425 56.7252 114.013 56.947C114.6 57.1689 114.724 57.4297 114.384 57.7297C113.704 58.4042 112.953 58.9083 112.133 59.242C111.675 59.457 111.212 59.5068 110.742 59.3912C110.283 59.2862 109.962 58.9941 109.779 58.5147L110.098 58.3216C111.312 57.9011 112.159 57.4659 112.637 57.0161ZM119.681 57.982C119.136 57.6854 119.092 57.3762 119.549 57.0545C120.007 56.7221 120.503 56.6936 121.037 56.969C122.212 57.5193 123.094 58.0227 123.683 58.4792C123.961 58.6702 123.855 58.9479 123.366 59.3124C122.876 59.6875 122.503 59.7743 122.247 59.5725C121.733 59.1371 120.878 58.6069 119.681 57.982ZM114.165 59.1385C113.95 58.5633 114.141 58.2906 114.738 58.3204C115.186 58.3294 115.549 58.328 115.826 58.3163C116.103 58.3046 116.242 58.2188 116.241 58.0588L116.235 56.3148C112.982 56.5082 111.201 56.6641 110.892 56.7826C110.754 56.8151 110.614 56.5756 110.474 56.0641C110.344 55.5526 110.401 55.2804 110.647 55.2475C111.318 55.1917 112.858 54.69 115.265 53.7424C113.249 53.8672 112.162 53.9725 112.002 54.0585C111.832 54.1018 111.665 53.873 111.504 53.3723C111.352 52.8715 111.479 52.5457 111.884 52.3949L114.536 51.3771L110.184 51.3932C109.747 51.3948 109.527 51.1556 109.526 50.6756C109.524 50.1956 109.742 49.9548 110.179 49.9532L115.827 49.9323L115.825 49.3083L111.793 49.3232C111.355 49.3248 111.136 49.1016 111.134 48.6536C111.132 48.195 111.35 47.9648 111.788 47.9632L115.82 47.9483L115.817 47.3403L110.937 47.3584C110.5 47.36 110.28 47.1315 110.279 46.6728C110.277 46.2141 110.495 45.984 110.932 45.9824L115.812 45.9643L115.811 45.7403C115.81 45.303 116.129 45.0831 116.769 45.0807C117.409 45.0784 117.73 45.2958 117.731 45.7332L117.732 45.9572L122.724 45.9387C123.161 45.937 123.381 46.1656 123.383 46.6242C123.384 47.0829 123.167 47.313 122.729 47.3147L117.737 47.3332L117.74 47.9412L121.915 47.9257C122.353 47.9241 122.572 48.1526 122.574 48.6112C122.576 49.0592 122.358 49.2841 121.921 49.2857L117.745 49.3011L117.747 49.9251L123.523 49.9037C123.96 49.9021 124.18 50.1413 124.181 50.6213C124.183 51.1013 123.965 51.3421 123.528 51.3437L116.664 51.3692C116.91 51.5709 116.895 51.7363 116.618 51.8653L115.133 52.5589L118.364 52.4189L119.706 51.7259C120.089 51.5325 120.5 51.627 120.939 52.0093C121.377 52.381 121.405 52.6636 121.022 52.857C119.595 53.5877 117.822 54.3089 115.702 55.0208L120.309 54.8117L120.165 54.7002C119.812 54.4349 119.869 54.1573 120.337 53.8676C120.816 53.5778 121.313 53.6293 121.826 54.0221C122.821 54.7224 123.479 55.2693 123.8 55.6627C124.014 55.8646 123.866 56.1265 123.355 56.4484C122.855 56.7596 122.455 56.7611 122.155 56.4529L121.705 55.9905L118.074 56.196L118.081 58.116C118.083 58.564 118.02 58.9109 117.893 59.1567C117.777 59.4131 117.516 59.6167 117.111 59.7676C116.707 59.9291 116.142 60.0058 115.416 59.9979C114.808 60.0108 114.391 59.7243 114.165 59.1385ZM126.277 54.8696C125.84 54.8712 125.62 54.5947 125.618 54.04C125.616 53.4747 125.834 53.1912 126.271 53.1896L129.327 53.1782C129.764 53.1766 129.984 53.4585 129.986 54.0238C129.988 54.5785 129.771 54.8566 129.333 54.8582L126.277 54.8696ZM132.117 58.5919C131.68 58.5936 131.46 58.3704 131.458 57.9224C131.457 57.4637 131.653 57.0577 132.046 56.7042C133.364 55.5153 134.443 54.3646 135.281 53.2522C136.13 52.1397 136.553 51.1514 136.55 50.2875C136.548 49.6795 136.392 49.2107 136.081 48.8812C135.77 48.541 135.332 48.372 134.767 48.374C134.063 48.3767 133.531 48.6026 133.17 49.052C132.787 49.4161 132.382 49.3856 131.953 48.9605C131.525 48.5354 131.481 48.1569 131.821 47.825C132.055 47.5361 132.459 47.2466 133.034 46.9565C133.609 46.6663 134.286 46.5198 135.064 46.5169C136.184 46.5128 137.087 46.8454 137.772 47.5149C138.457 48.1737 138.802 49.0524 138.806 50.1511C138.812 51.9537 137.647 54.0061 135.309 56.3081C135.032 56.5865 135.033 56.7198 135.31 56.7081L136.83 56.5905L138.734 56.5834C139.171 56.5818 139.391 56.9116 139.393 57.573C139.396 58.2343 139.178 58.5658 138.741 58.5674L132.117 58.5919Z" fill="black" fill-opacity="0.85"/>
</g>
<defs>
<clipPath id="clip0_2306_6339">
<rect width="200" height="90" fill="white"/>
</clipPath>
</defs>
</svg>
