<svg width="200" height="90" viewBox="0 0 200 90" fill="none" xmlns="http://www.w3.org/2000/svg">
<g clip-path="url(#clip0_2308_7080)">
<rect width="200" height="90" fill="#FEB79D"/>
<path fill-rule="evenodd" clip-rule="evenodd" d="M-6.18027 85.5257C-5.5206 81.3514 -9.94765 77.2571 -7.65473 73.2393C-4.94813 68.4966 -1.65241 61.9915 7.77154 61.0783C17.9972 60.0873 23.5998 68.8258 33.9785 69.2048C45.8176 69.6371 56.5881 60.196 66.8872 63.2371C76.2425 65.9996 70.121 74.0119 68.9752 79.5387C68.1676 83.4341 61.5364 86.4306 61.2669 90.3457C60.8502 96.3973 75.7689 103.853 67.0229 107.895C58.3557 111.9 45.7383 103.802 34.2527 102.83C27.3162 102.243 20.5655 103.925 13.6182 103.373C4.65786 102.66 -7.2514 103.227 -11.7526 99.1698C-16.3208 95.0519 -6.92748 90.2539 -6.18027 85.5257Z" fill="#FE585B"/>
<path fill-rule="evenodd" clip-rule="evenodd" d="M28.4743 10.5302C32.6486 10.8717 36.7429 8.58004 40.7607 9.76696C45.5034 11.168 52.0085 12.874 52.9217 17.7523C53.9127 23.0456 45.1742 25.9458 44.7952 31.3183C44.3629 37.4467 53.804 43.0221 50.7629 48.3534C48.0004 53.1961 39.9881 50.0274 34.4613 49.4342C30.5659 49.0162 27.5694 45.5836 23.6543 45.444C17.6027 45.2284 10.1469 52.9509 6.10508 48.4236C2.09968 43.9371 10.1975 37.4057 11.1701 31.4602C11.7575 27.8695 10.0747 24.3751 10.6274 20.7788C11.3402 16.1405 10.7727 9.97575 14.8302 7.64571C18.9481 5.281 23.7461 10.1434 28.4743 10.5302Z" fill="#FC7443"/>
<path fill-rule="evenodd" clip-rule="evenodd" d="M173.474 4.53021C177.649 4.87169 181.743 2.58004 185.761 3.76696C190.503 5.16803 197.008 6.87405 197.922 11.7523C198.913 17.0456 190.174 19.9458 189.795 25.3183C189.363 31.4467 198.804 37.0221 195.763 42.3534C193 47.1961 184.988 44.0274 179.461 43.4342C175.566 43.0162 172.569 39.5836 168.654 39.444C162.603 39.2284 155.147 46.9509 151.105 42.4236C147.1 37.9371 155.198 31.4057 156.17 25.4602C156.757 21.8695 155.075 18.3751 155.627 14.7788C156.34 10.1405 155.773 3.97575 159.83 1.64571C163.948 -0.719004 168.746 4.14342 173.474 4.53021Z" fill="#FF8787"/>
<path fill-rule="evenodd" clip-rule="evenodd" d="M117.063 7.20494C131.49 7.9797 144.155 11.9054 154.996 17.5775C166.733 23.7188 176.896 30.8598 179.688 39.9711C183.097 51.0949 184.354 63.7453 171.749 72.2549C158.691 81.0707 136.857 81.4742 117.063 82.2497C95.2362 83.1048 71.8992 84.7511 54.6033 76.8446C35.6156 68.1646 20.8565 53.9771 24.5773 39.9711C28.0889 26.7526 52.1053 19.9805 71.5388 13.0955C85.3864 8.18958 100.98 6.34119 117.063 7.20494Z" fill="#FFAB7A"/>
<ellipse cx="177.989" cy="70.7269" rx="16.7876" ry="14.0511" fill="#F55A57"/>
<ellipse cx="173.713" cy="65.6395" rx="1.21537" ry="2.15126" fill="black"/>
<ellipse cx="182.288" cy="65.6395" rx="1.21537" ry="2.15126" fill="black"/>
<path d="M173.043 72.6426C173.079 74.5703 175.312 76.0917 178.031 76.0408C180.749 75.99 182.924 74.386 182.888 72.4584C182.852 70.5307 180.67 71.7806 177.952 71.8314C175.233 71.8823 173.007 70.7149 173.043 72.6426Z" fill="black"/>
<path d="M170.798 50.9035C173.679 48.6452 180.102 51.1915 180.102 55.0219C180.103 59.542 168.088 61.6232 165.803 61.9782C165.554 62.0169 165.305 62.044 165.056 62.039C163.427 62.0062 157.617 61.2375 170.798 50.9035Z" fill="#6E5232"/>
<path d="M170.798 50.9035C173.679 48.6452 180.102 51.1915 180.102 55.0219C180.103 59.542 168.088 61.6232 165.803 61.9782C165.554 62.0169 165.305 62.044 165.056 62.039C163.427 62.0062 157.617 61.2375 170.798 50.9035Z" fill="url(#paint0_radial_2308_7080)" fill-opacity="0.15"/>
<path d="M185.204 50.7629C182.323 48.5045 175.9 51.0509 175.9 54.8813C175.899 59.4014 187.914 61.4825 190.199 61.8375C190.448 61.8763 190.697 61.9034 190.946 61.8984C192.575 61.8656 198.385 61.0968 185.204 50.7629Z" fill="#6E5232"/>
<path d="M185.204 50.7629C182.323 48.5045 175.9 51.0509 175.9 54.8813C175.899 59.4014 187.914 61.4825 190.199 61.8375C190.448 61.8763 190.697 61.9034 190.946 61.8984C192.575 61.8656 198.385 61.0968 185.204 50.7629Z" fill="url(#paint1_radial_2308_7080)" fill-opacity="0.15"/>
<path d="M83.404 34.2434L83.4067 34.9734L86.5567 34.9617L86.554 34.2317L83.404 34.2434ZM86.5418 30.9517L83.3918 30.9634L83.3941 31.5834L86.5441 31.5717L86.5418 30.9517ZM83.3978 32.5734L83.4003 33.2434L86.5503 33.2317L86.5478 32.5617L83.3978 32.5734ZM89.4787 35.5009C89.48 35.8609 89.344 36.0414 89.0707 36.0424L83.5507 36.0629L84.0321 36.4411C84.3464 36.6866 84.3205 36.91 83.9546 37.1114C83.3825 37.4535 82.6004 37.7731 81.6082 38.0701C81.3285 38.1645 81.0581 38.0655 80.797 37.7731C80.5426 37.4807 80.5386 37.3007 80.785 37.2331C81.0514 37.1588 81.4742 37.0006 82.0533 36.7584C82.6391 36.5163 83.1082 36.2845 83.4607 36.0632L80.9507 36.0725C80.6774 36.0735 80.5401 35.894 80.5387 35.534C80.5374 35.1674 80.6734 34.9835 80.9467 34.9825L82.2267 34.9778L82.2118 30.9678L81.2318 30.9714C80.9585 30.9724 80.8212 30.793 80.8198 30.433C80.8185 30.0663 80.9545 29.8824 81.2278 29.8814L82.2078 29.8778L82.2057 29.3178C82.2047 29.0445 82.4009 28.9071 82.7942 28.9056C83.1875 28.9042 83.3847 29.0401 83.3857 29.3134L83.3878 29.8734L86.5378 29.8618L86.5357 29.3018C86.5347 29.0284 86.7342 28.891 87.1342 28.8895C87.5408 28.888 87.7447 29.0239 87.7457 29.2973L87.7478 29.8573L88.7977 29.8534C89.0711 29.8524 89.2084 30.0352 89.2098 30.4019C89.2111 30.7619 89.0751 30.9424 88.8018 30.9434L87.7518 30.9473L87.7667 34.9572L89.0666 34.9524C89.34 34.9514 89.4773 35.1342 89.4787 35.5009ZM85.9843 37.0339C85.6706 36.915 85.6532 36.7351 85.9323 36.494C86.2181 36.2463 86.5245 36.1818 86.8516 36.3006C87.7928 36.6105 88.5806 36.9309 89.2152 37.2619C89.4289 37.3611 89.3462 37.5347 88.9671 37.7828C88.5881 38.0375 88.2916 38.102 88.0778 37.9761C87.4966 37.6383 86.7988 37.3242 85.9843 37.0339ZM92.2756 29.2605C92.3746 29.0001 92.611 28.9292 92.9848 29.0479C93.3586 29.1665 93.4959 29.3493 93.3968 29.5963C93.2384 30.0303 92.9606 30.618 92.5634 31.3594L92.587 37.7494C92.5881 38.0227 92.3986 38.1601 92.0186 38.1615C91.6386 38.1629 91.4481 38.0269 91.447 37.7536L91.4299 33.1236C91.2574 33.3443 91.1479 33.478 91.1014 33.5249C90.9089 33.7456 90.7018 33.6497 90.4803 33.2372C90.2654 32.8246 90.2443 32.528 90.417 32.3474C90.7027 32.073 91.0476 31.6051 91.4518 30.9435C91.856 30.2754 92.1306 29.7144 92.2756 29.2605ZM95.8143 37.0074L97.9043 36.9997C98.1976 36.9986 98.3906 36.9112 98.4833 36.7375C98.576 36.5638 98.622 36.377 98.6213 36.177C98.6532 35.8102 98.8428 35.6995 99.19 35.8449C99.5439 35.9903 99.6948 36.243 99.6428 36.6032C99.6243 37.0033 99.4956 37.3438 99.2566 37.6247C99.0244 37.9122 98.6049 38.0571 97.9982 38.0593L95.7282 38.0677C95.0282 38.0703 94.5545 37.9521 94.3069 37.713C94.0594 37.4806 93.9343 37.0177 93.9318 36.3244L93.9214 33.5244L93.5419 33.6758C93.289 33.7768 93.0852 33.6542 92.9306 33.3081C92.7826 32.9553 92.8351 32.7318 93.0881 32.6375L93.9169 32.3044L93.9096 30.3544C93.9086 30.0811 94.0948 29.9437 94.4681 29.9424C94.8414 29.941 95.0286 30.077 95.0296 30.3503L95.0352 31.8503L96.0337 31.4566L96.0257 29.2766C96.0246 29.0033 96.2008 28.8659 96.5541 28.8646C96.9141 28.8633 97.0946 28.9993 97.0956 29.2726L97.1022 31.0326L98.54 30.4373L98.9905 30.5756C99.2841 30.6612 99.4015 30.8574 99.3427 31.1643L99.3132 31.3044C99.3059 32.9378 99.2206 34.2148 99.0574 35.1354C99.0248 35.3422 98.845 35.3995 98.518 35.3074C98.191 35.2153 98.0372 35.0758 98.0565 34.8891C98.1344 34.3355 98.1877 33.4286 98.2164 32.1685C98.2288 31.9151 98.1551 31.8187 97.9953 31.8793L97.1067 32.2526L97.1183 35.3826C97.1193 35.6559 96.9398 35.7932 96.5798 35.7946C96.2265 35.7959 96.0493 35.6599 96.0483 35.3865L96.0382 32.6666L95.0397 33.0803L95.0518 36.3202C95.0528 36.6136 95.0969 36.8034 95.1839 36.8898C95.2775 36.9694 95.4876 37.0086 95.8143 37.0074ZM105.813 31.2803C106.18 31.279 106.364 31.4149 106.365 31.6883L106.367 32.2983C106.368 32.5716 106.185 32.709 105.818 32.7103C105.458 32.7116 105.278 32.5756 105.277 32.3023L105.275 31.6923C105.274 31.419 105.453 31.2817 105.813 31.2803ZM107.049 35.4758C107.322 35.4748 107.459 35.6842 107.461 36.1042C107.463 36.5242 107.353 36.7346 107.133 36.7355C107.395 37.1012 107.599 37.2837 107.745 37.2832C107.852 37.2828 107.929 37.2459 107.975 37.1723C108.088 37.0253 108.159 36.5117 108.189 35.6315C108.208 35.3381 108.131 35.1918 107.958 35.1924L105.738 35.2006L105.739 35.4806L107.049 35.4758ZM105.744 37.0306L106.384 36.9982C106.291 36.8786 106.31 36.7918 106.443 36.738L105.743 36.7406L105.744 37.0306ZM106.302 36.2685C106.475 36.2679 106.561 36.1609 106.56 35.9476L105.74 35.9506L105.742 36.2706L106.302 36.2685ZM103.9 35.9574C103.901 36.1708 103.988 36.2771 104.162 36.2765L104.742 36.2743L104.74 35.9543L103.9 35.9574ZM104.738 35.2043L103.928 35.2073L103.619 35.4885L104.739 35.4843L104.738 35.2043ZM102.313 31.1533L102.316 32.1333C102.321 33.3666 102.252 34.4535 102.108 35.3941C102.7 35.0652 103.176 34.6835 103.534 34.2488L103.194 34.25C102.874 34.2512 102.714 34.0918 102.712 33.7718L102.711 33.3318C102.71 33.0118 102.776 32.8516 102.909 32.8511L102.869 32.7412C102.781 32.4216 102.883 32.2412 103.177 32.2001C103.336 32.1728 103.726 32.0981 104.346 31.9758C103.839 31.8376 103.495 31.7622 103.315 31.7496C103.061 31.7105 102.961 31.6076 103.014 31.4407C103.073 31.2671 103.236 31.2032 103.503 31.2489L104.214 31.3862C104.607 31.4581 104.748 31.6409 104.636 31.9347C104.889 31.8871 105.019 31.9599 105.026 32.1532C105.034 32.3465 104.904 32.4704 104.638 32.5247L103.179 32.8501L107.959 32.8324C108.232 32.8314 108.149 32.7883 107.708 32.7033C107.268 32.6116 106.941 32.4561 106.727 32.2369C106.786 32.0634 106.886 31.983 107.026 31.9958C106.871 31.6764 106.984 31.4593 107.363 31.3446L108.083 31.1319L102.313 31.1533ZM107.949 30.1124C107.948 29.9724 107.861 29.9027 107.688 29.9034L102.568 29.9223C102.395 29.923 102.308 30.01 102.309 30.1833L102.31 30.3933L107.69 30.3734C107.863 30.3727 107.949 30.2857 107.949 30.1124ZM107.672 33.7534C107.846 33.7528 107.932 33.6658 107.931 33.4925L107.931 33.3125L107.081 33.3156L107.082 33.7556L107.672 33.7534ZM106.182 33.759L106.181 33.319L105.351 33.322L105.352 33.762L106.182 33.759ZM104.452 33.7654L104.451 33.3254L103.641 33.3284L103.642 33.7684L104.452 33.7654ZM104.535 34.5451L108.825 34.5292C109.145 34.528 109.303 34.7107 109.297 35.0774C109.306 35.5507 109.271 36.0809 109.193 36.6678C109.115 37.2481 109.02 37.6051 108.907 37.7389C108.774 37.9127 108.581 38.0168 108.328 38.051C108.162 38.085 108.018 38.0955 107.898 38.0826C107.585 38.0838 107.405 37.9578 107.357 37.7046L107.167 37.7853C107.008 37.8526 106.891 37.8064 106.817 37.6466C105.59 37.7379 104.317 37.8259 102.998 37.9108C102.691 37.9319 102.524 37.8126 102.496 37.5527C102.475 37.2994 102.522 37.1726 102.635 37.1721C102.755 37.165 103.458 37.1291 104.745 37.0643L104.743 36.7443L103.533 36.7488C103.213 36.75 103.053 36.5906 103.052 36.2706L103.05 35.9106C102.784 36.0849 102.548 36.0625 102.34 35.8432L102.079 35.6242C101.896 36.6715 101.689 37.399 101.457 37.8065C101.365 38.0135 101.145 38.021 100.797 37.829C100.457 37.6369 100.329 37.454 100.415 37.2804C100.925 36.3385 101.176 34.6275 101.166 32.1475L101.157 29.6576C101.156 29.3376 101.315 29.177 101.635 29.1758L108.635 29.1498C108.949 29.1487 109.106 29.3081 109.107 29.6281L109.111 30.6481C109.112 30.9681 108.953 31.1287 108.633 31.1299L108.423 31.1306C108.597 31.4367 108.554 31.6368 108.295 31.7311C108.175 31.7916 107.762 31.8831 107.056 32.0057C107.689 32.0767 108.096 32.1452 108.277 32.2112C108.57 32.2834 108.654 32.4898 108.529 32.8303C108.782 32.8293 108.91 33.0622 108.912 33.5289C108.913 33.9955 108.777 34.2294 108.504 34.2304L104.754 34.2443L104.535 34.5451ZM117.273 36.6379L119.223 36.6307C119.496 36.6296 119.634 36.8191 119.635 37.1991C119.637 37.5725 119.501 37.7596 119.227 37.7606L113.817 37.7807C113.551 37.7817 113.417 37.5955 113.415 37.2222C113.414 36.8422 113.546 36.6517 113.813 36.6507L116.083 36.6423L116.076 34.6423L114.556 34.6479C114.282 34.649 114.145 34.4661 114.144 34.0995C114.142 33.7261 114.278 33.539 114.552 33.5379L116.072 33.5323L116.065 31.8923L114.965 31.8964C114.821 32.4103 114.692 32.7541 114.579 32.9278C114.467 33.1616 114.234 33.1891 113.88 33.0104C113.526 32.8317 113.408 32.6222 113.527 32.3817L113.646 32.1613L113.527 32.2217C113.227 32.3562 113.027 32.2669 112.926 31.954L112.693 31.2748L112.717 37.6948C112.718 37.9681 112.518 38.1055 112.118 38.107C111.725 38.1085 111.528 37.9725 111.527 37.6992L111.502 30.9592C111.426 32.0395 111.309 32.8166 111.151 33.2906C111.091 33.5041 110.915 33.5581 110.621 33.4525C110.328 33.3469 110.214 33.1907 110.279 32.9838C110.445 32.5498 110.549 32.0028 110.593 31.3426C110.638 30.9091 110.824 30.7151 111.151 30.7605L111.501 30.8092L111.495 29.1792C111.494 28.9059 111.691 28.7685 112.084 28.7671C112.484 28.7656 112.684 28.9015 112.685 29.1748L112.691 30.6548L112.841 30.5943C113.127 30.4732 113.341 30.5591 113.482 30.8519C113.562 30.9849 113.676 31.2578 113.825 31.6706C114.069 30.9497 114.223 30.2858 114.287 29.6789C114.326 29.3788 114.539 29.2546 114.926 29.3065C115.313 29.3584 115.483 29.5178 115.438 29.7846L115.261 30.7753L116.061 30.7723L116.056 29.2223C116.055 28.949 116.251 28.8116 116.644 28.8102C117.044 28.8087 117.245 28.9446 117.246 29.2179L117.251 30.7679L118.881 30.7619C119.155 30.7609 119.292 30.947 119.293 31.3204C119.295 31.6937 119.159 31.8809 118.885 31.8819L117.255 31.8879L117.262 33.5279L118.682 33.5226C118.955 33.5216 119.092 33.7078 119.094 34.0811C119.095 34.4478 118.959 34.6316 118.686 34.6326L117.266 34.6379L117.273 36.6379Z" fill="#FE585B"/>
<path d="M61.3389 54.9277C61.3371 54.4264 61.5548 54.1749 61.9921 54.1733L73.384 54.1311C73.9174 54.1291 74.1585 54.4429 74.1075 55.0724C73.9014 57.0038 73.5857 58.1783 73.1606 58.5959C72.8311 58.9171 72.3678 59.0949 71.7706 59.1291C71.2374 59.1844 70.7308 59.1969 70.2507 59.1667C69.7279 59.1473 69.3749 58.8713 69.1916 58.3386C69.0083 57.806 69.1354 57.5602 69.5729 57.6012C69.7009 57.6114 70.0423 57.6155 70.5969 57.6134C71.1623 57.6113 71.5034 57.5674 71.6205 57.4816L72.063 56.008C72.1367 55.7517 72.0349 55.6241 71.7576 55.6251L67.9336 55.6393C67.6281 56.6751 67.0177 57.4773 66.1025 58.0461C65.1979 58.6148 63.9887 58.9979 62.4747 59.1955C61.9204 59.2829 61.4982 59.0605 61.2083 58.5282C60.9183 58.0066 61.0559 57.7181 61.6211 57.6627C62.7406 57.5519 63.6732 57.3351 64.4187 57.0123C65.1748 56.6895 65.6798 56.2343 65.9336 55.6467L61.9976 55.6613C61.5603 55.6629 61.3407 55.4184 61.3389 54.9277ZM63.565 51.1594L66.2849 51.1494L66.2826 50.5254L63.5626 50.5354L63.565 51.1594ZM66.2781 49.3094C66.2771 49.032 66.1379 48.8939 65.8606 48.8949L63.9886 48.9018C63.7113 48.9029 63.5731 49.0421 63.5741 49.3194L63.575 49.5434L66.279 49.5334L66.2781 49.3094ZM67.0405 47.7865C67.5525 47.7846 67.8094 48.0397 67.8113 48.5517L67.8257 52.4396C67.8269 52.749 67.7851 52.9838 67.7003 53.1441C67.6262 53.2937 67.472 53.4223 67.2378 53.5298C67.0141 53.6267 66.7476 53.6703 66.4383 53.6608C65.841 53.6737 65.4723 53.5044 65.3324 53.1529C65.1924 52.8014 65.3411 52.6249 65.7784 52.6232L66.0984 52.6221C66.2264 52.6322 66.2902 52.5733 66.2897 52.4453L66.2886 52.1413L63.3446 52.1523C63.1342 52.9424 62.912 53.4285 62.678 53.6107C62.4019 53.9318 62.0552 53.9277 61.638 53.5986C61.2314 53.2588 61.1502 52.9444 61.3945 52.6555C61.8411 52.2805 62.0618 51.3997 62.0567 50.013L62.0514 48.573C62.0495 48.061 62.3045 47.8041 62.8165 47.8022L67.0405 47.7865ZM70.7019 51.405C70.7035 51.8423 70.4377 52.062 69.9044 52.0639C69.371 52.0659 69.1036 51.8482 69.1019 51.4109L69.0918 48.6749C69.0902 48.2376 69.356 48.0179 69.8894 48.016C70.4227 48.014 70.6902 48.2317 70.6918 48.669L70.7019 51.405ZM72.0984 48.2958C72.0968 47.8585 72.3733 47.6388 72.928 47.6367C73.4826 47.6346 73.7608 47.8523 73.7624 48.2896L73.7775 52.3696C73.7789 52.7323 73.7319 52.9991 73.6365 53.1701C73.5411 53.3411 73.3496 53.4805 73.062 53.5882C72.7851 53.6959 72.4119 53.7453 71.9426 53.7364C71.3346 53.7493 70.9552 53.5587 70.8044 53.1646C70.6536 52.7598 70.7969 52.5566 71.2342 52.555L71.8262 52.5528C72.0182 52.5521 72.1139 52.4771 72.1134 52.3278L72.0984 48.2958ZM71.5769 45.7217L74.3448 45.7114C74.7822 45.7098 75.0017 45.949 75.0035 46.429C75.0052 46.8983 74.7875 47.1338 74.3501 47.1354L61.6302 47.1826C61.1929 47.1842 60.9733 46.9503 60.9716 46.481C60.9698 46.001 61.1876 45.7602 61.6249 45.7586L64.1849 45.7491L63.8787 45.1422C63.6959 44.7482 63.8976 44.4968 64.4839 44.388C65.0808 44.2791 65.4813 44.4163 65.6854 44.7995C65.9754 45.3318 65.8645 45.6469 65.3529 45.7448L69.6889 45.7287L70.1654 44.7989C70.356 44.4142 70.7715 44.274 71.4119 44.3783C72.0523 44.4826 72.2505 44.7165 72.0065 45.0801L71.5769 45.7217ZM90.6186 46.1631C90.8972 46.5034 90.7972 46.8558 90.3185 47.2202C89.8506 47.5846 89.4933 47.602 89.2467 47.2722C89.1177 47.006 88.9463 46.7933 88.7324 46.6341C88.3149 46.241 88.1109 45.8684 88.1202 45.5164C88.1402 45.1643 88.3686 44.9075 88.8054 44.7458C88.8047 44.5752 89.0077 44.6597 89.4143 44.9996C90.0455 45.4879 90.4469 45.8758 90.6186 46.1631ZM80.3836 56.1691C80.3847 56.4465 80.5184 56.5526 80.7848 56.4876L81.6001 56.2766C82.0157 56.1684 82.2457 56.3649 82.2902 56.8661C82.3454 57.3565 82.0746 57.6882 81.4779 57.8611C80.7001 58.0986 80.0982 58.2875 79.672 58.4278L79.3845 58.5568C78.9905 58.7396 78.6648 58.6288 78.4073 58.2245C78.1497 57.8201 78.1751 57.4627 78.4833 57.1522C78.622 57.173 78.6903 56.9007 78.6883 56.3354L78.6857 55.6474L78.2069 55.9692C77.8451 56.2052 77.4607 56.1 77.0537 55.6535C76.6573 55.1963 76.6615 54.8656 77.066 54.6614C77.8008 54.328 78.5614 53.7545 79.3477 52.9409L77.6997 52.9471C77.2624 52.9487 77.0427 52.6882 77.0408 52.1655C77.0388 51.6322 77.2565 51.3647 77.6938 51.3631L80.4298 51.3529L80.2849 51.1135C80.0808 50.7302 80.2504 50.4469 80.7938 50.2636C81.3478 50.0802 81.7321 50.1748 81.9468 50.5473L82.4138 51.3456L84.3178 51.3385C84.7551 51.3369 84.9748 51.6027 84.9767 52.1361C84.9787 52.6587 84.761 52.9209 84.3236 52.9225L81.4917 52.933L80.3764 54.2171L80.3836 56.1691ZM83.0784 53.6791C83.3545 53.3474 83.7278 53.3194 84.1981 53.595C84.6685 53.8706 84.7549 54.1742 84.4575 54.506C84.4257 54.5701 84.2132 54.7736 83.8198 55.1164C84.2369 55.4135 84.4455 55.5834 84.4457 55.6261C84.7667 55.9022 84.7359 56.2383 84.3534 56.6344C83.9815 57.0198 83.6618 57.0903 83.3942 56.846C82.8801 56.2825 82.1366 55.704 81.1637 55.1102C80.6825 54.792 80.6173 54.4616 80.9681 54.1189C81.3294 53.7656 81.6972 53.7002 82.0713 53.9229L82.6006 54.2569L83.0784 53.6791ZM88.8291 51.1618C88.9876 50.7559 89.3552 50.6478 89.932 50.8377C90.5086 51.0169 90.7124 51.3255 90.5434 51.7634C90.0576 53.0772 89.3105 54.408 88.3022 55.7558C88.6684 56.7251 89.0596 57.209 89.4756 57.2074C89.7849 57.2063 89.9433 56.7737 89.9508 55.9097C90.0013 55.1628 90.2725 54.9538 90.7644 55.2826C91.2563 55.6115 91.4607 56.0694 91.3775 56.6564C91.3267 57.3392 91.1422 57.9053 90.8238 58.3544C90.5161 58.8036 90.0156 59.0294 89.3223 59.032C88.405 59.0354 87.6295 58.4516 86.9958 57.2806C86.3371 57.9764 85.7842 58.4638 85.3372 58.7428C84.9862 59.0108 84.5912 58.9056 84.152 58.4272C83.713 57.9595 83.6743 57.6076 84.0361 57.3716C84.7173 56.9637 85.4668 56.2943 86.2847 55.3632C85.8956 53.9993 85.6116 52.1977 85.4327 49.9584L77.4167 49.9881C76.9794 49.9897 76.7597 49.7185 76.7577 49.1745C76.7557 48.6305 76.9733 48.3577 77.4107 48.3561L79.9706 48.3466L79.9664 47.2106L78.0465 47.2177C77.6091 47.2193 77.3895 46.9535 77.3875 46.4202C77.3855 45.8762 77.6031 45.6034 78.0405 45.6017L79.9604 45.5946L79.958 44.9386C79.9564 44.5013 80.2542 44.2815 80.8516 44.2793C81.4596 44.2771 81.7644 44.4946 81.766 44.9319L81.7684 45.5879L83.6884 45.5808C84.1258 45.5792 84.3454 45.8504 84.3474 46.3944C84.3494 46.9277 84.1317 47.1952 83.6944 47.1968L81.7744 47.2039L81.7786 48.3399L85.3306 48.3267C85.2617 47.015 85.2256 45.8898 85.2221 44.9511C85.2204 44.4925 85.5342 44.262 86.1635 44.2596C86.7929 44.2573 87.1031 44.4855 87.0941 44.9442C87.0763 45.8936 87.1018 47.0188 87.1706 48.3199L90.5786 48.3073C91.0159 48.3057 91.2356 48.5769 91.2376 49.1208C91.2396 49.6648 91.022 49.9377 90.5846 49.9393L87.2726 49.9516C87.3734 51.2419 87.5217 52.404 87.7176 53.4379C88.2687 52.4759 88.6392 51.7172 88.8291 51.1618ZM100.497 52.2225L100.489 50.0466C100.488 49.7692 100.349 49.6311 100.072 49.6321L98.8396 49.6367C98.3276 49.6386 98.0706 49.3835 98.0687 48.8715L98.0543 44.9836C98.0527 44.5462 98.3185 44.3266 98.8519 44.3246C99.3959 44.3226 99.6687 44.5402 99.6703 44.9776L99.6719 45.4096L101.528 45.4027C101.965 45.4011 102.185 45.6616 102.187 46.1842C102.189 46.7069 101.971 46.969 101.534 46.9707L99.6777 46.9775L99.6805 47.7295C99.6815 48.0069 99.8207 48.145 100.098 48.144L101.298 48.1556C101.81 48.1537 102.067 48.4087 102.069 48.9207L102.081 52.2167C102.082 52.5473 102.041 52.7928 101.956 52.9531C101.882 53.1134 101.722 53.2527 101.477 53.3709C101.233 53.4892 100.939 53.5436 100.598 53.5342C100.001 53.5471 99.632 53.3618 99.492 52.9783C99.3518 52.5841 99.5004 52.3862 99.9378 52.3846L100.226 52.3836C100.407 52.3936 100.498 52.3399 100.497 52.2225ZM98.1553 50.6472C98.2604 50.2308 98.5478 50.0644 99.0175 50.148C99.4871 50.2209 99.6803 50.5616 99.5972 51.1699C99.5568 51.778 99.4146 52.2426 99.1704 52.5635C99.0116 52.8734 98.729 52.9064 98.3228 52.6626C97.9165 52.4081 97.7659 52.0727 97.871 51.6563L98.1553 50.6472ZM104.183 53.6809L104.258 52.3846L103.298 52.3882C102.86 52.3898 102.641 52.1293 102.639 51.6066C102.637 51.0839 102.855 50.8218 103.292 50.8202L104.316 50.8164L104.311 49.4404L103.399 49.4438C102.962 49.4454 102.742 49.1849 102.74 48.6622C102.738 48.1395 102.956 47.8774 103.393 47.8758L104.401 47.872L104.397 46.9121C104.396 46.6347 104.257 46.4966 103.98 46.4976L103.228 46.5004C102.791 46.502 102.571 46.2308 102.569 45.6868C102.567 45.1428 102.785 44.87 103.222 44.8684L105.382 44.8604C105.894 44.8585 106.146 45.1456 106.137 45.7216C106.158 48.4202 106.104 51.0711 105.975 53.6743L106.711 53.6715C107.148 53.6699 107.368 53.9624 107.37 54.5491C107.372 55.1358 107.154 55.4299 106.717 55.4315L102.861 55.4458C104.571 56.2395 105.778 56.859 106.484 57.3044C106.794 57.4846 106.737 57.8155 106.312 58.297C105.898 58.7892 105.519 58.924 105.177 58.7012C104.268 58.0753 103.322 57.5348 102.339 57.0798C101.655 56.7303 101.504 56.3042 101.886 55.8014L102.157 55.4484L97.4052 55.466L98.015 55.9598C98.5072 56.3633 98.4712 56.7474 97.9073 57.1122C97.0774 57.6806 95.9382 58.2555 94.4896 58.8369C94.053 59.0305 93.6525 58.888 93.288 58.4093C92.9343 57.9413 92.9864 57.6158 93.4444 57.4327C94.7333 56.9479 95.9415 56.2928 97.0692 55.4673L93.3572 55.481C92.9199 55.4827 92.7001 55.1901 92.6979 54.6035C92.6958 54.0168 92.9133 53.7227 93.3507 53.721L94.1347 53.7181L93.8507 46.1831C93.8383 45.7032 94.0504 45.3771 94.4871 45.2048L96.2765 44.4941C96.6813 44.3433 97.0179 44.5287 97.2866 45.0504C97.5658 45.5614 97.4976 45.8763 97.0821 45.9952L95.9473 46.3354C95.6916 46.411 95.5642 46.5821 95.5652 46.8488L95.6171 47.8886L96.7851 47.8843C97.2224 47.8827 97.442 48.1432 97.444 48.6658C97.4459 49.1778 97.2281 49.4346 96.7908 49.4363L95.6708 49.4404L95.7239 50.8162L96.8439 50.8121C97.2812 50.8105 97.5009 51.071 97.5028 51.5936C97.5047 52.1056 97.287 52.3624 96.8497 52.3641L95.7777 52.368L95.8306 53.7119L104.183 53.6809ZM123.277 55.2741C123.459 55.6681 123.316 55.9567 122.848 56.1397C122.39 56.3121 122.08 56.1959 121.919 55.7912L121.208 54.1298C121.047 53.7251 121.179 53.4526 121.605 53.3123C122.042 53.172 122.352 53.2989 122.535 53.6929L123.277 55.2741ZM119.241 54.3451C119.133 53.9295 119.292 53.6729 119.718 53.5753C120.155 53.467 120.433 53.6207 120.552 54.0362L120.941 55.4108C121.049 55.8264 120.874 56.0937 120.416 56.2127C119.968 56.3211 119.696 56.1621 119.598 55.7358L119.241 54.3451ZM119.769 50.0231L118.025 50.0296L118.029 50.9896C118.03 51.2669 118.169 51.405 118.446 51.404L119.358 51.4006C119.636 51.3996 119.774 51.2604 119.773 50.9831L119.769 50.0231ZM116.521 50.0351L115.241 50.0399C115.166 52.7815 114.784 54.7136 114.095 55.8362C113.936 56.1354 113.621 56.1419 113.151 55.8557C112.68 55.5587 112.519 55.2713 112.668 54.9935C113.325 53.935 113.648 51.9605 113.638 49.0698L113.627 46.2538C113.625 45.7418 113.88 45.4849 114.392 45.483L117.56 45.4713L117.383 45.0559C117.221 44.6512 117.439 44.3837 118.036 44.2535C118.643 44.1232 119.033 44.2551 119.205 44.6492L119.576 45.4638L122.456 45.4531C122.894 45.4515 123.113 45.7067 123.115 46.2187C123.117 46.7307 122.899 46.9875 122.462 46.9891L115.662 47.0143C115.385 47.0153 115.246 47.1545 115.248 47.4318L115.252 48.5678L116.516 48.5632L116.513 47.9392C116.512 47.5018 116.762 47.2822 117.263 47.2804C117.764 47.2785 118.016 47.4962 118.017 47.9336L118.02 48.5576L119.764 48.5511L119.761 47.9271C119.76 47.4898 120.02 47.2702 120.543 47.2682C121.076 47.2662 121.344 47.4839 121.345 47.9212L121.348 48.5452L122.452 48.5411C122.889 48.5395 123.109 48.784 123.11 49.2747C123.112 49.7654 122.894 50.0115 122.457 50.0131L121.353 50.0172L121.361 52.0332C121.362 52.5452 121.107 52.8022 120.595 52.8041L117.299 52.8163C116.787 52.8182 116.531 52.5631 116.529 52.0511L116.521 50.0351ZM118.75 55.6109C118.773 56.0482 118.55 56.2783 118.08 56.3014C117.611 56.3245 117.37 56.1174 117.358 55.6801L117.305 54.2563C117.293 53.819 117.51 53.5888 117.958 53.5658C118.406 53.5428 118.642 53.75 118.665 54.1872L118.75 55.6109ZM116.224 56.1323C116.022 56.4744 115.692 56.5396 115.232 56.328C114.784 56.1056 114.681 55.7913 114.925 55.3851C115.159 55.0856 115.349 54.6102 115.496 53.959C115.643 53.4784 115.936 53.3227 116.374 53.4917C116.812 53.6608 116.952 54.0176 116.794 54.5622C116.584 55.3843 116.394 55.9077 116.224 56.1323ZM112.074 46.0516C112.353 46.3812 112.242 46.7176 111.742 47.0608C111.253 47.404 110.879 47.4 110.622 47.049L109.464 45.5173C109.207 45.1662 109.313 44.8512 109.781 44.5721C110.26 44.293 110.639 44.3182 110.917 44.6479L112.074 46.0516ZM111.263 51.6866C111.701 51.6744 112.053 51.721 112.32 51.8267C112.587 51.9324 112.689 52.2147 112.627 52.6736C112.555 53.3352 112.371 54.1466 112.076 55.1077C112.506 55.9487 113.137 56.5011 113.97 56.7646C114.803 57.0176 116.004 57.1464 117.572 57.1513C119.78 57.1431 121.614 57.067 123.075 56.9229C123.491 56.8787 123.593 57.1503 123.382 57.7378C123.181 58.3252 122.868 58.6303 122.441 58.6533C121.204 58.7325 119.668 58.7755 117.834 58.7823C116.01 58.7891 114.633 58.6555 113.704 58.3816C112.775 58.1077 112.021 57.5665 111.442 56.758C110.987 57.7304 110.552 58.372 110.137 58.6829C109.84 58.972 109.477 58.9093 109.048 58.4949C108.631 58.0804 108.56 57.75 108.837 57.5037C109.762 56.8176 110.403 55.5672 110.759 53.7525C110.843 53.3789 110.746 53.1926 110.469 53.1936L109.957 53.1955L109.557 53.229C109.195 53.369 108.911 53.1887 108.707 52.6881C108.502 52.1769 108.586 51.8246 108.959 51.6312L109.166 51.4384C109.4 51.1815 109.761 50.6682 110.249 49.8984C110.482 49.5455 110.46 49.3696 110.183 49.3706L109.351 49.3737C108.913 49.3753 108.694 49.1255 108.692 48.6241C108.69 48.1122 108.908 47.8553 109.345 47.8537L111.233 47.7987C111.67 47.7864 112.081 47.8596 112.466 48.0182C112.85 48.1661 112.862 48.5234 112.502 49.09C111.685 50.3944 111.118 51.2712 110.799 51.7204L111.263 51.6866ZM128.151 53.7201L128.152 53.9121C128.153 54.1894 128.292 54.3275 128.569 54.3265L135.337 54.3014C135.614 54.3004 135.753 54.1612 135.752 53.8839L135.751 53.6919L128.151 53.7201ZM128.56 51.9425C128.283 51.9436 128.145 52.0827 128.146 52.3601L128.147 52.5521L135.747 52.5239L135.746 52.3319C135.745 52.0546 135.606 51.9164 135.328 51.9174L128.56 51.9425ZM129.278 46.9638L129.274 45.9398L127.898 45.9449C127.621 45.946 127.483 46.0852 127.484 46.3625L127.484 46.5545C127.485 46.8318 127.625 46.97 127.902 46.9689L129.278 46.9638ZM131.018 45.9334L131.022 46.9574L132.83 46.9507L132.826 45.9267L131.018 45.9334ZM134.57 45.9202L134.574 46.9442L136.03 46.9388C136.307 46.9378 136.445 46.7986 136.444 46.5213L136.444 46.3293C136.443 46.0519 136.303 45.9138 136.026 45.9148L134.57 45.9202ZM138.56 56.1455C138.997 56.1439 139.217 56.3884 139.219 56.8791C139.231 57.359 139.019 57.5998 138.581 57.6014L132.965 57.6222L132.968 58.3262C132.97 58.7636 132.645 58.9834 131.994 58.9858C131.354 58.9882 131.034 58.7707 131.032 58.3334L131.029 57.6294L125.493 57.6499C125.056 57.6516 124.837 57.4124 124.835 56.9324C124.833 56.4417 125.051 56.1956 125.488 56.1939L131.024 56.1734L131.022 55.5494L127.07 55.5641C126.568 55.5659 126.317 55.3109 126.315 54.7989L126.303 51.4869C126.301 50.9749 126.556 50.718 127.068 50.7161L130.812 50.7022L130.803 48.3182L126.419 48.3344C125.918 48.3363 125.666 48.0812 125.664 47.5692L125.656 45.3772C125.654 44.8653 125.909 44.6083 126.421 44.6064L137.573 44.5651C138.085 44.5632 138.342 44.8182 138.344 45.3302L138.352 47.5222C138.354 48.0342 138.099 48.2911 137.587 48.293L132.723 48.3111L132.725 48.8551L137.637 48.8369C138.074 48.8352 138.294 49.0478 138.295 49.4744C138.297 49.8904 138.079 50.0992 137.642 50.1009L132.73 50.1191L132.732 50.6951L136.924 50.6795C137.425 50.6777 137.677 50.9327 137.679 51.4447L137.691 54.7567C137.693 55.2687 137.438 55.5257 136.926 55.5275L132.958 55.5423L132.96 56.1663L138.56 56.1455Z" fill="black" fill-opacity="0.85"/>
</g>
<defs>
<radialGradient id="paint0_radial_2308_7080" cx="0" cy="0" r="1" gradientUnits="userSpaceOnUse" gradientTransform="translate(0.560609 46.8353) rotate(65.4889) scale(3.32531 8.21233)">
<stop offset="0.33" stop-opacity="0"/>
<stop offset="0.655" stop-opacity="0.6"/>
<stop offset="1"/>
</radialGradient>
<radialGradient id="paint1_radial_2308_7080" cx="0" cy="0" r="1" gradientUnits="userSpaceOnUse" gradientTransform="translate(355.3 45.8572) rotate(114.511) scale(3.32531 8.21233)">
<stop offset="0.33" stop-opacity="0"/>
<stop offset="0.655" stop-opacity="0.6"/>
<stop offset="1"/>
</radialGradient>
<clipPath id="clip0_2308_7080">
<rect width="200" height="90" fill="white"/>
</clipPath>
</defs>
</svg>
