<svg width="200" height="90" viewBox="0 0 200 90" fill="none" xmlns="http://www.w3.org/2000/svg">
<g clip-path="url(#clip0_1260_3936)">
<rect width="200" height="90" fill="#FEB79D"/>
<path fill-rule="evenodd" clip-rule="evenodd" d="M-6.18027 85.5257C-5.5206 81.3514 -9.94765 77.2571 -7.65473 73.2393C-4.94813 68.4966 -1.65241 61.9915 7.77154 61.0783C17.9972 60.0873 23.5998 68.8258 33.9785 69.2048C45.8176 69.6371 56.5881 60.196 66.8872 63.2371C76.2425 65.9996 70.121 74.0119 68.9752 79.5387C68.1676 83.4341 61.5364 86.4306 61.2669 90.3457C60.8502 96.3973 75.7689 103.853 67.0229 107.895C58.3557 111.9 45.7383 103.802 34.2527 102.83C27.3162 102.243 20.5655 103.925 13.6182 103.373C4.65786 102.66 -7.2514 103.227 -11.7526 99.1698C-16.3208 95.0519 -6.92748 90.2539 -6.18027 85.5257Z" fill="#FE585B"/>
<path fill-rule="evenodd" clip-rule="evenodd" d="M28.4743 10.5302C32.6486 10.8717 36.7429 8.58004 40.7607 9.76696C45.5034 11.168 52.0085 12.874 52.9217 17.7523C53.9127 23.0456 45.1742 25.9458 44.7952 31.3183C44.3629 37.4467 53.804 43.0221 50.7629 48.3534C48.0004 53.1961 39.9881 50.0274 34.4613 49.4342C30.5659 49.0162 27.5694 45.5836 23.6543 45.444C17.6027 45.2284 10.1469 52.9509 6.10508 48.4236C2.09968 43.9371 10.1975 37.4057 11.1701 31.4602C11.7575 27.8695 10.0747 24.3751 10.6274 20.7788C11.3402 16.1405 10.7727 9.97575 14.8302 7.64571C18.9481 5.281 23.7461 10.1434 28.4743 10.5302Z" fill="#FC7443"/>
<path fill-rule="evenodd" clip-rule="evenodd" d="M173.474 4.53021C177.649 4.87169 181.743 2.58004 185.761 3.76696C190.503 5.16803 197.008 6.87405 197.922 11.7523C198.913 17.0456 190.174 19.9458 189.795 25.3183C189.363 31.4467 198.804 37.0221 195.763 42.3534C193 47.1961 184.988 44.0274 179.461 43.4342C175.566 43.0162 172.569 39.5836 168.654 39.444C162.603 39.2284 155.147 46.9509 151.105 42.4236C147.1 37.9371 155.198 31.4057 156.17 25.4602C156.757 21.8695 155.075 18.3751 155.627 14.7788C156.34 10.1405 155.773 3.97575 159.83 1.64571C163.948 -0.719004 168.746 4.14342 173.474 4.53021Z" fill="#FF8787"/>
<path fill-rule="evenodd" clip-rule="evenodd" d="M117.063 7.20494C131.49 7.9797 144.155 11.9054 154.996 17.5775C166.733 23.7188 176.896 30.8598 179.688 39.9711C183.097 51.0949 184.354 63.7453 171.749 72.2549C158.691 81.0707 136.857 81.4742 117.063 82.2497C95.2362 83.1048 71.8992 84.7511 54.6033 76.8446C35.6156 68.1646 20.8565 53.9771 24.5773 39.9711C28.0889 26.7526 52.1053 19.9805 71.5388 13.0955C85.3864 8.18958 100.98 6.34119 117.063 7.20494Z" fill="#FFAB7A"/>
<ellipse cx="177.987" cy="70.7269" rx="16.7876" ry="14.0511" fill="#F55A57"/>
<ellipse cx="173.711" cy="65.6395" rx="1.21537" ry="2.15126" fill="black"/>
<ellipse cx="182.286" cy="65.6395" rx="1.21537" ry="2.15126" fill="black"/>
<path d="M173.043 72.6445C173.079 74.5722 175.312 76.0937 178.031 76.0428C180.749 75.9919 182.924 74.388 182.888 72.4603C182.852 70.5326 180.67 71.7825 177.952 71.8334C175.233 71.8843 173.007 70.7168 173.043 72.6445Z" fill="black"/>
<path d="M170.796 50.9035C173.677 48.6452 180.1 51.1915 180.1 55.0219C180.101 59.542 168.086 61.6232 165.801 61.9782C165.552 62.0169 165.303 62.044 165.054 62.039C163.425 62.0062 157.615 61.2375 170.796 50.9035Z" fill="#6E5232"/>
<path d="M170.796 50.9035C173.677 48.6452 180.1 51.1915 180.1 55.0219C180.101 59.542 168.086 61.6232 165.801 61.9782C165.552 62.0169 165.303 62.044 165.054 62.039C163.425 62.0062 157.615 61.2375 170.796 50.9035Z" fill="url(#paint0_radial_1260_3936)" fill-opacity="0.15"/>
<path d="M185.2 50.7629C182.319 48.5045 175.896 51.0509 175.896 54.8813C175.896 59.4014 187.91 61.4825 190.195 61.8375C190.445 61.8763 190.693 61.9034 190.942 61.8984C192.571 61.8656 198.381 61.0968 185.2 50.7629Z" fill="#6E5232"/>
<path d="M185.2 50.7629C182.319 48.5045 175.896 51.0509 175.896 54.8813C175.896 59.4014 187.91 61.4825 190.195 61.8375C190.445 61.8763 190.693 61.9034 190.942 61.8984C192.571 61.8656 198.381 61.0968 185.2 50.7629Z" fill="url(#paint1_radial_1260_3936)" fill-opacity="0.15"/>
<path d="M84.3161 39.9608C84.0697 40.035 83.873 40.0324 83.7261 39.953C83.5791 39.8802 83.472 39.7572 83.4047 39.5842C83.3508 39.4244 83.3635 39.2643 83.4429 39.104C83.5223 38.9437 83.6619 38.8399 83.8618 38.7925C84.5677 38.6032 85.1936 38.3708 85.7392 38.0955C86.2849 37.8201 86.767 37.5083 87.1857 37.1601C86.7706 36.675 86.412 36.1397 86.1098 35.5541C85.8143 34.9619 85.5685 34.3194 85.3726 33.6268L83.9126 33.6322C83.766 33.6328 83.6391 33.5799 83.5321 33.4736C83.425 33.3674 83.3712 33.2409 83.3706 33.0942C83.3701 32.9476 83.423 32.824 83.5293 32.7236C83.6355 32.6166 83.762 32.5628 83.9087 32.5622L87.3387 32.5495L87.3342 31.3495C87.3335 31.1562 87.3962 30.9993 87.5225 30.8788C87.6487 30.7584 87.8018 30.6978 87.9818 30.6971C88.1618 30.6965 88.3153 30.7559 88.4425 30.8754C88.5696 30.995 88.6335 31.1514 88.6342 31.3447L88.6386 32.5447L92.0486 32.5321C92.1953 32.5315 92.3188 32.5844 92.4192 32.6907C92.5263 32.7903 92.58 32.9134 92.5806 33.0601C92.5811 33.2068 92.5283 33.3336 92.422 33.4407C92.3224 33.5477 92.1993 33.6015 92.0526 33.6021L90.6726 33.6072C90.4885 34.3012 90.2475 34.9421 89.9497 35.5299C89.6586 36.1176 89.3072 36.6556 88.8957 37.1438C89.3237 37.4955 89.8148 37.807 90.3692 38.0783C90.9235 38.3496 91.551 38.5773 92.2517 38.7614C92.4519 38.8073 92.5889 38.9101 92.6629 39.0698C92.7368 39.2296 92.744 39.3895 92.6846 39.5498C92.6253 39.7233 92.5191 39.847 92.366 39.9209C92.2196 39.9948 92.0263 39.9989 91.7861 39.9331C90.2711 39.492 89.0254 38.8533 88.0489 38.0169C87.5638 38.4321 87.0118 38.8008 86.393 39.1231C85.7809 39.4453 85.0886 39.7246 84.3161 39.9608ZM88.0425 36.2769C88.3411 35.9025 88.5962 35.4916 88.8079 35.0441C89.0196 34.5966 89.1978 34.1193 89.3426 33.6121L86.6926 33.6219C86.8478 34.128 87.0329 34.604 87.2479 35.0499C87.4696 35.4957 87.7344 35.9047 88.0425 36.2769ZM98.0163 39.99C97.8496 39.9906 97.7094 39.9378 97.5957 39.8316C97.482 39.7253 97.4248 39.5822 97.4241 39.4022L97.4198 38.2322L96.2098 38.2367C96.0631 38.2372 95.9329 38.1844 95.8192 38.0781C95.7121 37.9652 95.6583 37.8354 95.6578 37.6887C95.6572 37.5354 95.71 37.4052 95.8163 37.2981C95.9293 37.191 96.0591 37.1372 96.2057 37.1367L97.4157 37.1322L97.4068 34.7322C97.135 35.1399 96.8298 35.551 96.4914 35.9656C96.1529 36.3802 95.7944 36.7749 95.4158 37.1496C95.0438 37.5243 94.6717 37.8624 94.2995 38.1638C94.1666 38.2709 94.0101 38.3282 93.8301 38.3355C93.6501 38.3362 93.5032 38.2667 93.3894 38.1271C93.2822 37.9942 93.2417 37.8477 93.2677 37.6876C93.3005 37.5275 93.3867 37.3971 93.5263 37.2966C93.9252 36.9951 94.3305 36.6436 94.7424 36.2421C95.1609 35.8339 95.556 35.4091 95.9277 34.9677C96.2994 34.5197 96.6144 34.0952 96.873 33.6942L93.963 33.705C93.8163 33.7055 93.6895 33.6527 93.5824 33.5464C93.4753 33.4401 93.4215 33.3137 93.421 33.167C93.4204 33.0137 93.4733 32.8868 93.5796 32.7864C93.6858 32.6793 93.8123 32.6255 93.959 32.625L97.399 32.6122L97.3939 31.2422C97.3932 31.0689 97.4494 30.9287 97.5623 30.8216C97.6752 30.7079 97.815 30.6507 97.9817 30.6501C98.1417 30.6495 98.2786 30.7056 98.3923 30.8185C98.506 30.9248 98.5632 31.0646 98.5639 31.2379L98.5689 32.6079L102.009 32.5951C102.162 32.5946 102.289 32.6474 102.39 32.7537C102.497 32.8533 102.55 32.9798 102.551 33.1331C102.551 33.2798 102.499 33.4067 102.392 33.5137C102.293 33.6208 102.166 33.6746 102.013 33.6751L99.1329 33.6858C99.4011 34.0982 99.7261 34.5236 100.108 34.9622C100.489 35.3941 100.894 35.8093 101.322 36.2077C101.75 36.6061 102.168 36.9613 102.576 37.2731C102.703 37.3659 102.767 37.4924 102.768 37.6524C102.775 37.8123 102.732 37.9492 102.639 38.0629C102.533 38.1899 102.397 38.2671 102.23 38.2944C102.063 38.3217 101.91 38.2789 101.77 38.1661C101.408 37.8674 101.037 37.5321 100.656 37.1602C100.274 36.7883 99.9063 36.393 99.5514 35.9743C99.1965 35.5489 98.8716 35.1168 98.5766 34.6779L98.5857 37.1279L99.8357 37.1232C99.989 37.1227 100.119 37.1755 100.226 37.2818C100.333 37.3881 100.387 37.5179 100.388 37.6712C100.388 37.8179 100.335 37.9481 100.229 38.0618C100.123 38.1688 99.9931 38.2227 99.8398 38.2232L98.5898 38.2279L98.5941 39.3979C98.5948 39.5779 98.5386 39.7214 98.4257 39.8285C98.3128 39.9356 98.1763 39.9894 98.0163 39.99ZM103.96 32.8479L111.47 32.8201L111.474 34.0001L105.184 34.0234L105.206 40.0133L103.986 40.0179L103.96 32.8479ZM110.85 32.8224L112.07 32.8179L112.091 38.5878C112.094 39.2278 111.975 39.5783 111.546 39.7699C111.116 39.9614 110.486 39.9838 109.616 39.987C109.575 39.6372 109.383 39.0979 109.212 38.7685C109.762 38.7965 110.442 38.7939 110.632 38.7832C110.812 38.7826 110.872 38.7223 110.871 38.5723L110.85 32.8224ZM105.753 31.0213L107.993 31.013L107.997 32.063L105.757 32.0713L105.753 31.0213ZM107.213 31.0158L108.493 31.0111C108.593 33.5808 109.17 35.6886 111.044 36.5917C110.785 36.8327 110.377 37.3242 110.188 37.6449C108.213 36.4822 107.545 34.1946 107.405 31.5551L107.215 31.5558L107.213 31.0158ZM107.311 33.1155L108.412 33.3014C108.079 35.4027 107.315 36.8855 105.748 37.7313C105.587 37.4519 105.195 36.9634 104.954 36.7643C106.322 36.1092 107.067 34.8364 107.311 33.1155ZM117.396 39.8982C116.896 39.9 116.496 39.8482 116.196 39.7426C115.895 39.6437 115.678 39.4679 115.544 39.215C115.409 38.9622 115.341 38.6124 115.34 38.1658C115.338 37.7191 115.403 37.3689 115.536 37.115C115.668 36.8612 115.884 36.6837 116.184 36.5826C116.483 36.4749 116.883 36.42 117.383 36.4182L118.663 36.4134C119.163 36.4116 119.563 36.4634 119.864 36.569C120.164 36.6679 120.381 36.8437 120.516 37.0966C120.65 37.3494 120.718 37.6992 120.72 38.1458C120.721 38.5925 120.656 38.9427 120.524 39.1966C120.391 39.4504 120.175 39.6279 119.875 39.729C119.576 39.8368 119.176 39.8916 118.676 39.8934L117.396 39.8982ZM114.184 33.95C114.024 33.9506 113.887 33.9011 113.773 33.8016C113.666 33.7019 113.613 33.5655 113.612 33.3921L113.611 33.0721C113.609 32.5522 113.731 32.185 113.977 31.9708C114.229 31.7498 114.659 31.6383 115.265 31.636L117.335 31.6283L117.333 31.0383C117.333 30.845 117.392 30.6981 117.512 30.5977C117.638 30.4972 117.784 30.4467 117.951 30.446C118.124 30.4454 118.271 30.4949 118.392 30.5944C118.519 30.6939 118.583 30.8404 118.583 31.0337L118.585 31.6237L120.725 31.6158C121.332 31.6135 121.759 31.7219 122.007 31.941C122.261 32.1534 122.389 32.5196 122.391 33.0396L122.392 33.3596C122.393 33.5329 122.336 33.6698 122.223 33.7702C122.11 33.8707 121.974 33.9212 121.814 33.9217C121.654 33.9223 121.517 33.8762 121.403 33.7833C121.29 33.6904 121.233 33.5572 121.232 33.3839L121.231 33.1139C121.23 32.9272 121.183 32.7941 121.089 32.7144C121.003 32.6347 120.836 32.5954 120.589 32.5963L115.409 32.6155C115.162 32.6164 114.993 32.657 114.9 32.7374C114.807 32.8177 114.76 32.9512 114.761 33.1379L114.762 33.4079C114.763 33.5812 114.706 33.7148 114.594 33.8085C114.481 33.9023 114.344 33.9494 114.184 33.95ZM114.188 37.71C114.022 37.804 113.858 37.8346 113.698 37.8019C113.538 37.7691 113.411 37.6763 113.317 37.5233C113.23 37.3703 113.213 37.2237 113.266 37.0835C113.318 36.9433 113.428 36.8295 113.594 36.7422C113.974 36.5475 114.363 36.3227 114.762 36.0679C115.161 35.8064 115.55 35.535 115.929 35.2536C116.314 34.9655 116.663 34.6842 116.976 34.4097C117.295 34.1218 117.614 33.9773 117.934 33.9761C118.261 33.9749 118.588 34.1037 118.916 34.3625C119.223 34.6014 119.567 34.8501 119.948 35.1087C120.336 35.3672 120.74 35.6157 121.161 35.8542C121.582 36.0926 121.993 36.3078 122.394 36.4996C122.547 36.5724 122.658 36.6853 122.725 36.8384C122.792 36.9848 122.783 37.1382 122.697 37.2985C122.61 37.4655 122.478 37.576 122.298 37.63C122.125 37.6773 121.948 37.6546 121.767 37.5619C121.393 37.3567 121.003 37.1281 120.595 36.8763C120.187 36.6245 119.793 36.3659 119.412 36.1007C119.038 35.8287 118.7 35.5666 118.399 35.3144C118.245 35.1817 118.105 35.1188 117.978 35.126C117.858 35.1264 117.722 35.1936 117.569 35.3275C117.27 35.5819 116.931 35.8532 116.552 36.1413C116.18 36.4227 115.791 36.7008 115.385 36.9756C114.98 37.2438 114.58 37.4886 114.188 37.71ZM117.392 38.8382L118.672 38.8334C119.032 38.8321 119.265 38.7846 119.372 38.6908C119.485 38.5971 119.541 38.4169 119.54 38.1502C119.539 37.8769 119.481 37.6971 119.368 37.6108C119.261 37.5179 119.027 37.4721 118.667 37.4734L117.387 37.4782C117.02 37.4795 116.781 37.5271 116.668 37.6209C116.561 37.7079 116.509 37.8881 116.51 38.1614C116.511 38.4281 116.565 38.6079 116.672 38.7008C116.785 38.7938 117.026 38.8395 117.392 38.8382ZM115.248 35.0361C115.102 35.13 114.945 35.1739 114.779 35.1678C114.619 35.1618 114.482 35.0823 114.368 34.9294C114.287 34.8163 114.257 34.6864 114.276 34.5397C114.302 34.3863 114.382 34.266 114.515 34.1788C114.788 34.0045 115.067 33.8034 115.353 33.5757C115.645 33.3479 115.894 33.1337 116.1 32.9329C116.213 32.8125 116.346 32.752 116.5 32.7514C116.66 32.7508 116.796 32.807 116.91 32.9199C117.024 33.0262 117.078 33.1526 117.072 33.2993C117.065 33.4393 117.009 33.5662 116.903 33.68C116.657 33.9342 116.395 34.1752 116.116 34.4029C115.843 34.6306 115.554 34.8416 115.248 35.0361ZM120.678 34.906C120.511 34.7999 120.32 34.6773 120.106 34.5381C119.892 34.3989 119.682 34.2563 119.475 34.1104C119.274 33.9578 119.1 33.8218 118.953 33.7024C118.833 33.6028 118.766 33.4797 118.752 33.3331C118.745 33.1865 118.791 33.0596 118.89 32.9526C118.983 32.8389 119.103 32.7785 119.25 32.7712C119.403 32.7573 119.536 32.7969 119.65 32.8898C119.804 33.0092 119.981 33.1385 120.182 33.2778C120.382 33.4104 120.583 33.5396 120.783 33.6656C120.99 33.7848 121.181 33.8874 121.354 33.9735C121.488 34.0396 121.568 34.146 121.595 34.2926C121.629 34.4391 121.61 34.5792 121.537 34.7128C121.451 34.8664 121.324 34.9602 121.158 34.9942C120.991 35.0215 120.831 34.9921 120.678 34.906Z" fill="#FE585B"/>
<path d="M61.3958 57.5008C60.8358 57.5029 60.5309 57.264 60.4811 56.7842C60.4643 56.5523 60.5356 56.364 60.695 56.2194C60.8545 56.0748 61.0582 55.9981 61.3062 55.9892C61.6582 55.9799 61.9261 55.9549 62.1099 55.9142C62.3017 55.8655 62.4414 55.7689 62.5288 55.6246C62.6243 55.4803 62.6995 55.26 62.7544 54.9638C62.7935 54.7316 62.8246 54.4875 62.8477 54.2314C62.8787 53.9753 62.9057 53.6952 62.9286 53.3911C62.9593 53.047 62.9144 52.8192 62.794 52.7076C62.6816 52.596 62.4254 52.541 62.0254 52.5425L60.9574 52.5464C60.8881 53.2667 60.7066 53.9474 60.413 54.5885C60.1274 55.2295 59.7255 55.799 59.2073 56.2969C58.6891 56.7869 58.0465 57.1732 57.2796 57.4561C57.0799 57.5368 56.8799 57.5456 56.6797 57.4823C56.4874 57.419 56.3469 57.2795 56.2581 57.0639C56.1775 56.8802 56.1808 56.7042 56.2682 56.5358C56.3555 56.3595 56.4991 56.235 56.6988 56.1622C57.282 55.9361 57.7729 55.6383 58.1715 55.2688C58.5701 54.8913 58.8805 54.4701 59.1028 54.0053C59.3331 53.5325 59.4793 53.0479 59.5414 52.5517L58.3894 52.5559C58.1894 52.5567 58.0212 52.4893 57.8847 52.3538C57.7482 52.2183 57.6796 52.0506 57.6788 51.8506C57.6781 51.6586 57.7455 51.4943 57.881 51.3578C58.0165 51.2133 58.1842 51.1407 58.3842 51.14L62.1162 51.1261C62.7242 51.1239 63.1964 51.1901 63.5329 51.3249C63.8774 51.4516 64.1142 51.6707 64.2434 51.9822C64.3805 52.2937 64.4341 52.7135 64.404 53.2417C64.3815 53.6337 64.3508 53.9939 64.312 54.322C64.2812 54.6421 64.2424 54.9543 64.1955 55.2584C64.1096 55.8268 63.9593 56.2753 63.7445 56.6041C63.5377 56.9329 63.2425 57.162 62.859 57.2914C62.4835 57.4288 61.9958 57.4986 61.3958 57.5008ZM65.42 52.1579C65.027 51.8793 64.6257 51.5488 64.2163 51.1663C63.8149 50.7838 63.4414 50.3852 63.0959 49.9705C62.7583 49.5557 62.4849 49.1687 62.2756 48.8095C62.1709 48.6259 62.0704 48.4903 61.9741 48.4026C61.8857 48.307 61.7735 48.2434 61.6374 48.2119C61.5012 48.1724 61.3211 48.153 61.0971 48.1539L60.4611 48.1562C60.2691 48.1569 60.1049 48.0936 59.9684 47.9661C59.8319 47.8306 59.7633 47.6668 59.7626 47.4748C59.7619 47.2828 59.8253 47.1186 59.9528 46.9821C60.0803 46.8456 60.24 46.777 60.432 46.7763L61.092 46.7739C61.588 46.772 61.9802 46.8106 62.2685 46.8895C62.5567 46.9605 62.8012 47.0956 63.002 47.2948C63.2027 47.4941 63.4118 47.7813 63.6292 48.1565C63.9189 48.6354 64.3127 49.114 64.8105 49.5921C65.3083 50.0703 65.8298 50.4804 66.3751 50.8223C66.5595 50.9497 66.6762 51.1212 66.725 51.337C66.7818 51.5528 66.7465 51.753 66.6192 51.9374C66.4839 52.1379 66.3004 52.2586 66.0685 52.2995C65.8367 52.3323 65.6205 52.2851 65.42 52.1579ZM56.6125 52.2985C56.437 52.4352 56.2372 52.4999 56.0132 52.4928C55.7892 52.4856 55.6008 52.3943 55.4482 52.2188C55.3195 52.0513 55.2669 51.8675 55.2901 51.6674C55.3214 51.4593 55.4247 51.2909 55.6003 51.1623C55.9513 50.905 56.3062 50.5957 56.6648 50.2343C57.0235 49.873 57.3581 49.4997 57.6687 49.1146C57.9872 48.7214 58.2459 48.3604 58.4447 48.0317C58.556 47.8473 58.7076 47.7307 58.8994 47.682C59.0992 47.6333 59.2913 47.6646 59.4757 47.7759C59.6601 47.8792 59.7767 48.0308 59.8254 48.2306C59.8741 48.4224 59.8428 48.6105 59.7315 48.7949C59.493 49.2038 59.1946 49.6289 58.8362 50.0703C58.4779 50.5116 58.1034 50.929 57.7129 51.3224C57.3223 51.7079 56.9555 52.0333 56.6125 52.2985ZM68.3804 57.6549C68.2044 57.6556 68.0562 57.6001 67.9358 57.4886C67.8154 57.377 67.7548 57.2253 67.7541 57.0333L67.7219 48.3333C67.7203 47.9173 67.7671 47.5932 67.8622 47.3608C67.9654 47.1284 68.1488 46.9677 68.4125 46.8788C68.6761 46.7818 69.0519 46.7324 69.5399 46.7306C70.3239 46.7277 70.8365 46.8778 71.0776 47.1809C71.3267 47.484 71.3444 47.9279 71.1305 48.5127C71.0435 48.769 70.9485 49.0374 70.8455 49.3178C70.7426 49.5981 70.6475 49.8425 70.5602 50.0508C70.4572 50.3072 70.4019 50.4954 70.3943 50.6154C70.3948 50.7354 70.4713 50.8872 70.624 51.0706C70.8651 51.3577 71.0423 51.677 71.1556 52.0286C71.2768 52.3722 71.3382 52.732 71.3396 53.1079C71.3419 53.7479 71.1957 54.2325 70.901 54.5616C70.6142 54.8906 70.1948 55.0722 69.643 55.1063C69.3471 55.1313 69.1308 55.0561 68.9941 54.8807L69.0021 57.0286C69.0028 57.2206 68.9434 57.3729 68.8238 57.4853C68.7042 57.5977 68.5564 57.6543 68.3804 57.6549ZM72.1363 57.617C71.9603 57.6177 71.8121 57.5622 71.6917 57.4507C71.5713 57.3391 71.5107 57.1873 71.51 56.9953L71.4957 53.1554C71.4941 52.7154 71.5528 52.3712 71.6719 52.1227C71.791 51.8663 71.9943 51.6855 72.2819 51.5804C72.5775 51.4673 72.9773 51.4099 73.4813 51.408L76.3013 51.3975C76.8133 51.3956 77.2095 51.4502 77.4899 51.5611C77.7783 51.6641 77.9829 51.8433 78.1039 52.0989C78.2248 52.3464 78.2861 52.6902 78.2877 53.1302L78.2983 55.9982C78.3003 56.5342 78.1778 56.9226 77.9307 57.1635C77.6916 57.4124 77.288 57.5379 76.72 57.54C76.528 57.5407 76.3678 57.4893 76.2395 57.3858C76.1111 57.2903 76.0386 57.1466 76.0219 56.9546C76.0132 56.7787 76.0606 56.6265 76.1642 56.4981C76.2677 56.3617 76.4114 56.2892 76.5954 56.2805C76.7873 56.2638 76.9112 56.2273 76.967 56.1711C77.0228 56.1149 77.0504 56.0068 77.0498 55.8468L77.0427 53.9508C76.8431 54.0476 76.5793 54.0965 76.2513 54.0977C75.7393 54.0996 75.395 54.0249 75.2184 53.8736C75.0418 53.7142 74.9528 53.4306 74.9513 53.0226L74.9493 52.4946L74.6013 52.4959C74.5546 52.84 74.4557 53.1444 74.3047 53.409C74.1617 53.6655 73.9705 53.8982 73.7313 54.1071C73.5957 54.2196 73.456 54.2881 73.3121 54.3126C73.1681 54.3292 73.0359 54.2857 72.9156 54.1821C72.8273 54.1024 72.7749 54.0066 72.7585 53.8947L72.77 56.9907C72.7707 57.1827 72.7072 57.3349 72.5797 57.4474C72.4601 57.5598 72.3123 57.6164 72.1363 57.617ZM73.7556 50.939C73.1716 50.9411 72.7672 50.8546 72.5426 50.6795C72.3259 50.4963 72.2167 50.1647 72.2149 49.6847C72.2131 49.2047 72.3199 48.8763 72.5352 48.6995C72.7586 48.5147 73.1622 48.4212 73.7462 48.419L75.9902 48.4107C76.5822 48.4085 76.9865 48.499 77.2032 48.6822C77.4199 48.8574 77.5291 49.185 77.5309 49.665C77.5326 50.145 77.4259 50.4774 77.2105 50.6622C76.9952 50.839 76.5915 50.9285 75.9995 50.9307L73.7556 50.939ZM72.0406 47.9813C71.8886 47.9819 71.7564 47.9304 71.644 47.8268C71.5396 47.7152 71.4871 47.5834 71.4865 47.4314C71.4859 47.2714 71.5375 47.1392 71.6411 47.0348C71.7526 46.9224 71.8844 46.8659 72.0364 46.8653L77.8684 46.8437C78.0204 46.8431 78.1486 46.8987 78.253 47.0103C78.3654 47.1139 78.4219 47.2457 78.4225 47.4057C78.423 47.5577 78.3675 47.6899 78.256 47.8023C78.1523 47.9067 78.0245 47.9591 77.8725 47.9597L72.0406 47.9813ZM74.9079 57.5108C74.7319 57.5114 74.5837 57.456 74.4633 57.3444C74.3429 57.2328 74.2823 57.0811 74.2816 56.8891L74.2759 55.3531L73.5079 55.3559C73.3719 55.3564 73.2557 55.3089 73.1594 55.2132C73.063 55.1176 73.0146 55.0018 73.0141 54.8658C73.0136 54.7298 73.0612 54.6176 73.1569 54.5292C73.2525 54.4329 73.3683 54.3844 73.5043 54.3839L76.3123 54.3735C76.4483 54.373 76.5645 54.4206 76.6608 54.5162C76.7572 54.6039 76.8056 54.7157 76.8061 54.8517C76.8066 54.9877 76.759 55.1039 76.6634 55.2002C76.5677 55.2966 76.4519 55.345 76.3159 55.3455L75.5239 55.3485L75.5296 56.8844C75.5303 57.0764 75.4669 57.2287 75.3393 57.3412C75.2197 57.4536 75.0759 57.5101 74.9079 57.5108ZM68.9909 54.0167C69.0865 53.8963 69.2182 53.8238 69.3861 53.7992C69.642 53.7582 69.8176 53.6696 69.9131 53.5332C70.0086 53.3889 70.0557 53.1327 70.0543 52.7647C70.0533 52.5087 70.0004 52.2569 69.8955 52.0093C69.7906 51.7617 69.6658 51.5421 69.521 51.3507C69.3683 51.1512 69.2637 50.9916 69.2073 50.8718C69.1508 50.744 69.1343 50.6081 69.1578 50.464C69.1892 50.3119 69.2524 50.1077 69.3475 49.8513C69.395 49.7311 69.4465 49.5789 69.5018 49.3947C69.5651 49.2105 69.6244 49.0263 69.6797 48.8421C69.743 48.6498 69.7985 48.4936 69.846 48.3735C69.9094 48.2052 69.9169 48.0852 69.8687 48.0134C69.8204 47.9415 69.6763 47.9061 69.4363 47.907C69.2523 47.9076 69.1284 47.9401 69.0646 48.0043C69.0008 48.0606 68.9693 48.1807 68.97 48.3647L68.9909 54.0167ZM74.0281 50.002L75.7201 49.9957C75.8961 49.995 76.016 49.9746 76.0798 49.9344C76.1437 49.8861 76.1753 49.798 76.1749 49.67C76.1744 49.534 76.142 49.4461 76.0779 49.4064C76.0137 49.3586 75.8936 49.335 75.7176 49.3357L74.0256 49.342C73.8496 49.3426 73.7297 49.3671 73.6659 49.4153C73.6021 49.4555 73.5704 49.5437 73.5709 49.6797C73.5714 49.8077 73.6037 49.8955 73.6679 49.9433C73.732 49.9831 73.8521 50.0026 74.0281 50.002ZM72.7579 53.7387C72.7735 53.6186 72.8291 53.5224 72.9249 53.4501C73.1003 53.3134 73.2398 53.1729 73.3433 53.0285C73.4468 52.8841 73.5261 52.7078 73.5813 52.4996L73.4853 52.5C73.2053 52.501 73.0135 52.5417 72.9098 52.6221C72.8061 52.6945 72.7547 52.8707 72.7557 53.1507L72.7579 53.7387ZM76.2717 53.1377C76.3837 53.1373 76.4597 53.121 76.4995 53.0888C76.5474 53.0566 76.5872 52.9965 76.6189 52.9084C76.6823 52.7641 76.786 52.6798 76.9299 52.6552C76.8737 52.5834 76.7935 52.5397 76.6894 52.5241C76.5934 52.5005 76.4653 52.4889 76.3053 52.4895L75.9693 52.4908L75.9709 52.9228C75.9712 53.0028 75.9874 53.0587 76.0195 53.0906C76.0597 53.1225 76.1437 53.1381 76.2717 53.1377ZM82.7302 57.0378C82.5787 57.1663 82.4029 57.219 82.2028 57.1957C82.0027 57.1805 81.8344 57.0971 81.6979 56.9456C81.5773 56.802 81.4167 56.6266 81.2159 56.4194C81.0151 56.2041 80.8063 55.9929 80.5896 55.7857C80.3808 55.5705 80.1961 55.3951 80.0356 55.2597C79.9072 55.1402 79.8306 54.9885 79.8059 54.8046C79.7892 54.6126 79.8446 54.4484 79.9721 54.312C80.1076 54.1755 80.2633 54.0989 80.4392 54.0822C80.6232 54.0655 80.7914 54.1129 80.9438 54.2244C81.1203 54.3597 81.3249 54.5349 81.5577 54.7501C81.7985 54.9652 82.0314 55.1883 82.2562 55.4195C82.489 55.6426 82.6738 55.838 82.8104 56.0055C82.947 56.1569 83.0076 56.3327 82.9923 56.5328C82.9771 56.7328 82.8897 56.9012 82.7302 57.0378ZM92.6681 57.5289C92.5081 57.5295 92.3679 57.474 92.2475 57.3625C92.1271 57.2589 92.0666 57.1192 92.0659 56.9432L92.048 52.0952L91.772 52.0962C91.58 52.0969 91.4277 52.0375 91.3153 51.9179C91.2029 51.7983 91.1463 51.6505 91.1457 51.4745C91.145 51.2985 91.2005 51.1503 91.312 51.0299C91.4236 50.9095 91.5753 50.8489 91.7673 50.8482L92.0433 50.8472L92.0367 49.0472C92.0347 48.5112 92.1011 48.091 92.236 47.7865C92.3789 47.4819 92.6061 47.2691 92.9176 47.1479C93.2292 47.0188 93.6409 46.9532 94.1529 46.9513L96.1329 46.944C96.6529 46.9421 97.0691 47.0045 97.3816 47.1314C97.694 47.2502 97.9188 47.4614 98.056 47.7649C98.1931 48.0684 98.2626 48.4881 98.2646 49.0241L98.2713 50.8241L98.5233 50.8232C98.7153 50.8225 98.8675 50.8819 98.98 51.0015C99.0924 51.1211 99.1489 51.2689 99.1496 51.4449C99.1503 51.6209 99.0948 51.7691 98.9832 51.8895C98.8717 52.0099 98.7199 52.0705 98.5279 52.0712L98.2759 52.0721L98.2902 55.9121C98.2921 56.4321 98.1855 56.8165 97.9704 57.0653C97.7553 57.3141 97.3758 57.4395 96.8318 57.4415C96.6398 57.4422 96.4836 57.3868 96.3632 57.2752C96.2508 57.1716 96.1862 57.0199 96.1695 56.8199C96.1609 56.668 96.2044 56.5278 96.2999 56.3995C96.3955 56.2711 96.5232 56.1986 96.6831 56.182C96.8671 56.1574 96.9829 56.1209 97.0307 56.0727C97.0785 56.0166 97.1021 55.8965 97.1014 55.7125L97.0879 52.0765L96.4159 52.079L96.4304 55.979C96.431 56.131 96.3834 56.2511 96.2877 56.3395C96.192 56.4279 96.0762 56.4723 95.9402 56.4728C95.8122 56.4733 95.6961 56.4297 95.5917 56.3421C95.4954 56.2544 95.447 56.1346 95.4464 55.9826L95.4319 52.0826L94.8319 52.0849L94.8464 55.9848C94.847 56.1368 94.7994 56.257 94.7037 56.3454C94.6081 56.4337 94.4922 56.4782 94.3562 56.4787C94.2202 56.4792 94.1041 56.4356 94.0077 56.348C93.9114 56.2603 93.863 56.1405 93.8624 55.9885L93.8479 52.0885L93.248 52.0907L93.2659 56.9387C93.2666 57.1147 93.2071 57.2549 93.0875 57.3594C92.9679 57.4718 92.8281 57.5283 92.6681 57.5289ZM100.3 57.4406C100.116 57.4413 99.9596 57.3779 99.8311 57.2504C99.7026 57.1228 99.6341 56.9671 99.6254 56.7831C99.6167 56.5992 99.6681 56.439 99.7796 56.3026C99.8911 56.1661 100.047 56.0896 100.247 56.0728C100.463 56.048 100.627 56.0194 100.738 55.987C100.85 55.9466 100.926 55.8823 100.966 55.7942C101.005 55.698 101.025 55.5539 101.024 55.3619L100.993 47.058C100.993 46.866 101.052 46.7138 101.172 46.6013C101.291 46.4809 101.439 46.4203 101.615 46.4197C101.799 46.419 101.951 46.4784 102.072 46.598C102.192 46.7095 102.253 46.8613 102.253 47.0533L102.285 55.6093C102.287 56.2653 102.141 56.7338 101.846 57.0149C101.559 57.296 101.044 57.4379 100.3 57.4406ZM99.7741 54.8266C99.6061 54.8272 99.4619 54.7757 99.3416 54.6722C99.2291 54.5606 99.1726 54.4168 99.172 54.2408L99.1492 48.1088C99.1486 47.9248 99.204 47.7806 99.3156 47.6762C99.4352 47.5718 99.5791 47.5192 99.7471 47.5186C99.9071 47.518 100.043 47.5695 100.156 47.6731C100.276 47.7767 100.337 47.9204 100.337 48.1044L100.36 54.2364C100.361 54.4124 100.301 54.5566 100.182 54.6691C100.07 54.7735 99.9341 54.826 99.7741 54.8266ZM96.4113 50.831L97.0833 50.8285L97.0767 49.0525C97.0756 48.7485 97.0308 48.5327 96.9423 48.405C96.8618 48.2693 96.6815 48.19 96.4014 48.167L96.4113 50.831ZM94.8273 50.8369L95.4273 50.8347L95.4174 48.1587L94.8174 48.1609L94.8273 50.8369ZM93.2433 50.8427L93.8433 50.8405L93.8335 48.1885C93.5856 48.2215 93.4219 48.3021 93.3424 48.4304C93.2709 48.5586 93.2356 48.7708 93.2367 49.0668L93.2433 50.8427ZM104.404 57.5214C104.22 57.5221 104.064 57.4627 103.935 57.3432C103.815 57.2316 103.755 57.0758 103.754 56.8758L103.722 48.2719C103.72 47.8319 103.771 47.4917 103.874 47.2513C103.977 47.0109 104.165 46.8462 104.436 46.7572C104.716 46.6602 105.116 46.6107 105.636 46.6088C106.452 46.6058 107.004 46.7637 107.293 47.0826C107.583 47.4016 107.596 47.8535 107.335 48.4385C107.239 48.6469 107.128 48.8873 107.001 49.1597C106.874 49.4322 106.763 49.6646 106.668 49.857C106.58 50.0333 106.521 50.1775 106.489 50.2896C106.458 50.4018 106.462 50.5017 106.502 50.5896C106.543 50.6774 106.619 50.7892 106.732 50.9248C107.125 51.3713 107.363 51.8424 107.445 52.3381C107.484 52.21 107.556 52.1057 107.66 52.0253C107.772 51.9449 107.903 51.9044 108.055 51.9039L110.011 51.8966L110.008 50.9726L108.736 50.9773C108.552 50.978 108.404 50.9186 108.291 50.799C108.187 50.6794 108.134 50.5355 108.134 50.3676C108.134 50.3356 108.133 50.3076 108.133 50.2836C108.141 50.2515 108.149 50.2195 108.157 50.1875C108.013 50.308 107.882 50.4165 107.762 50.5129C107.611 50.6335 107.439 50.6781 107.247 50.6468C107.063 50.6155 106.914 50.5321 106.802 50.3965C106.705 50.2608 106.669 50.105 106.692 49.9289C106.723 49.7448 106.807 49.6005 106.942 49.496C107.214 49.295 107.509 49.0539 107.828 48.7727C108.147 48.4835 108.458 48.1863 108.76 47.8812C109.063 47.5681 109.322 47.2871 109.537 47.0383C110.206 46.2678 110.922 46.2492 111.685 46.9824C111.902 47.1896 112.179 47.4325 112.516 47.7113C112.853 47.99 113.198 48.2648 113.551 48.5355C113.904 48.7982 114.217 49.021 114.489 49.204C114.642 49.3074 114.742 49.451 114.791 49.6349C114.84 49.8187 114.812 49.9908 114.709 50.1512C114.598 50.3276 114.442 50.4362 114.242 50.4769C114.042 50.5177 113.854 50.4743 113.678 50.347C113.397 50.14 113.088 49.9012 112.751 49.6304C112.422 49.3516 112.101 49.0688 111.788 48.782C111.475 48.4952 111.21 48.2441 110.993 48.0289C110.865 47.9014 110.748 47.8418 110.644 47.8502C110.548 47.8506 110.441 47.919 110.321 48.0554C110.106 48.2962 109.843 48.5732 109.532 48.8864C109.229 49.1995 108.922 49.4966 108.611 49.7778C108.627 49.7777 108.643 49.7777 108.659 49.7776C108.683 49.7695 108.707 49.7654 108.731 49.7653L112.535 49.7512C112.719 49.7505 112.864 49.81 112.968 49.9296C113.081 50.0492 113.137 50.189 113.138 50.349C113.138 50.517 113.083 50.6612 112.971 50.7816C112.868 50.902 112.724 50.9625 112.54 50.9632L111.364 50.9676L111.367 51.8916L113.647 51.8831C113.847 51.8824 114.004 51.9458 114.116 52.0734C114.236 52.1929 114.297 52.3447 114.298 52.5287C114.298 52.7047 114.239 52.8569 114.119 52.9854C114.008 53.1138 113.852 53.1784 113.652 53.1791L111.372 53.1876L111.381 55.6475C111.383 56.1115 111.316 56.4718 111.181 56.7283C111.054 56.9928 110.855 57.1735 110.583 57.2705C110.32 57.3755 109.984 57.4327 109.576 57.4423C109.352 57.4431 109.168 57.3838 109.023 57.2643C108.879 57.1528 108.798 56.9931 108.781 56.7852C108.765 56.5773 108.82 56.409 108.948 56.2806C109.083 56.1521 109.247 56.0795 109.439 56.0628C109.695 56.0298 109.855 55.9852 109.918 55.929C109.99 55.8647 110.025 55.7086 110.025 55.4606L110.016 53.1926L108.06 53.1998C107.924 53.2003 107.804 53.1688 107.7 53.1052C107.604 53.0415 107.531 52.9618 107.483 52.866C107.485 53.538 107.327 54.0466 107.009 54.3917C106.698 54.7369 106.247 54.9306 105.655 54.9728C105.399 54.9897 105.195 54.9345 105.042 54.807L105.05 56.871C105.05 57.071 104.987 57.2273 104.859 57.3397C104.74 57.4602 104.588 57.5207 104.404 57.5214ZM106.932 56.264C106.803 56.1365 106.738 55.9848 106.738 55.8088C106.737 55.6248 106.801 55.4725 106.928 55.3521C107.064 55.2235 107.219 55.063 107.394 54.8703C107.578 54.6776 107.753 54.481 107.92 54.2804C108.095 54.0717 108.231 53.8992 108.326 53.7629C108.438 53.6184 108.581 53.5299 108.757 53.4973C108.941 53.4646 109.105 53.504 109.25 53.6154C109.41 53.7188 109.507 53.8585 109.539 54.0344C109.58 54.2102 109.545 54.3783 109.433 54.5388C109.322 54.6992 109.174 54.8877 108.991 55.1044C108.816 55.3211 108.633 55.5337 108.442 55.7424C108.258 55.9431 108.099 56.1117 107.963 56.2482C107.82 56.3848 107.644 56.4574 107.436 56.4662C107.236 56.4669 107.068 56.3995 106.932 56.264ZM113.496 56.2517C113.359 56.1162 113.19 55.9408 112.99 55.7256C112.789 55.5103 112.592 55.2871 112.399 55.0558C112.206 54.8245 112.049 54.6291 111.929 54.4695C111.824 54.3259 111.788 54.166 111.819 53.9899C111.85 53.8138 111.942 53.6775 112.094 53.5809C112.245 53.4843 112.409 53.4517 112.585 53.4831C112.761 53.5144 112.902 53.5979 113.006 53.7335C113.111 53.8691 113.247 54.0366 113.416 54.236C113.593 54.4273 113.773 54.6187 113.958 54.81C114.151 54.9933 114.315 55.1447 114.452 55.2642C114.588 55.3837 114.653 55.5394 114.646 55.7315C114.646 55.9234 114.583 56.0837 114.455 56.2122C114.32 56.3487 114.16 56.4213 113.976 56.4299C113.792 56.4386 113.632 56.3792 113.496 56.2517ZM105.038 53.751C105.078 53.7109 105.126 53.6787 105.182 53.6545C105.238 53.6303 105.298 53.6141 105.362 53.6058C105.657 53.5488 105.853 53.456 105.949 53.3277C106.052 53.1913 106.103 52.9231 106.102 52.5231C106.101 52.2751 106.052 52.0433 105.955 51.8276C105.858 51.604 105.729 51.3965 105.569 51.2051C105.408 51.0137 105.295 50.8541 105.231 50.7263C105.175 50.5985 105.158 50.4586 105.181 50.3065C105.213 50.1464 105.28 49.9421 105.383 49.6937C105.447 49.5335 105.534 49.3172 105.645 49.0448C105.756 48.7644 105.855 48.516 105.942 48.2997C106.013 48.1314 106.021 48.0114 105.965 47.9396C105.916 47.8678 105.776 47.8323 105.544 47.8331C105.344 47.8339 105.204 47.8624 105.125 47.9187C105.053 47.967 105.017 48.0791 105.018 48.2551L105.038 53.751ZM125.103 57.3007C124.815 57.1978 124.491 57.059 124.13 56.8843C123.769 56.7096 123.413 56.515 123.06 56.3003C122.707 56.0856 122.394 55.8747 122.121 55.6677C121.977 55.5563 121.892 55.4166 121.868 55.2487C121.851 55.0727 121.895 54.9166 121.998 54.7802C122.086 54.6759 122.181 54.6075 122.285 54.5751L119.789 54.5844C119.837 54.6082 119.886 54.636 119.934 54.6678C119.982 54.6997 120.022 54.7395 120.054 54.7874C120.167 54.939 120.203 55.0988 120.164 55.267C120.133 55.4271 120.053 55.5594 119.925 55.6639C119.686 55.8568 119.395 56.0578 119.052 56.2671C118.708 56.4764 118.353 56.6697 117.986 56.8471C117.626 57.0244 117.295 57.1736 116.991 57.2948C116.76 57.3836 116.552 57.4044 116.368 57.3571C116.183 57.3178 116.047 57.1983 115.958 56.9986C115.878 56.8149 115.873 56.6389 115.944 56.4706C116.016 56.3024 116.155 56.1819 116.363 56.1091C116.667 55.996 116.986 55.8628 117.322 55.7095C117.665 55.5483 117.992 55.383 118.304 55.2139C118.615 55.0367 118.882 54.8677 119.106 54.7069C119.138 54.6828 119.17 54.6627 119.202 54.6466C119.242 54.6224 119.277 54.6023 119.309 54.5862L116.033 54.5983C115.865 54.5989 115.721 54.5435 115.601 54.4319C115.488 54.3123 115.432 54.1725 115.431 54.0125C115.431 53.8445 115.486 53.7043 115.598 53.5919C115.717 53.4715 115.861 53.4109 116.029 53.4103L116.485 53.4086L116.372 48.741C116.362 48.381 116.389 48.0929 116.452 47.8767C116.524 47.6524 116.655 47.4759 116.847 47.3472C117.038 47.2105 117.314 47.0975 117.673 47.0082C117.809 46.9677 117.945 46.9312 118.081 46.8987C118.225 46.8581 118.365 46.8176 118.5 46.7771C118.652 46.7365 118.796 46.744 118.933 46.7995C119.069 46.847 119.161 46.9507 119.21 47.1105C119.266 47.2863 119.259 47.4383 119.187 47.5666C119.124 47.6868 119.012 47.7672 118.852 47.8078C118.748 47.8402 118.637 47.8766 118.517 47.917C118.397 47.9495 118.293 47.9739 118.205 47.9902C117.957 48.0551 117.801 48.1317 117.738 48.2199C117.674 48.3002 117.647 48.4643 117.656 48.7122L117.657 49.0842L118.593 49.0808C118.753 49.0802 118.885 49.1317 118.99 49.2353C119.102 49.3389 119.158 49.4707 119.159 49.6307C119.16 49.7827 119.104 49.9149 118.992 50.0273C118.889 50.1317 118.757 50.1842 118.597 50.1848L117.685 50.1881L117.713 51.2201L118.601 51.2168C118.761 51.2162 118.893 51.2677 118.997 51.3713C119.11 51.4749 119.166 51.6067 119.167 51.7667C119.167 51.9187 119.112 52.0509 119 52.1633C118.897 52.2677 118.765 52.3202 118.605 52.3208L117.741 52.324L117.769 53.4039L119.557 53.3972L119.549 51.3332C119.549 51.1652 119.604 51.033 119.716 50.9366C119.827 50.8322 119.959 50.7797 120.111 50.7792C120.271 50.7786 120.403 50.8301 120.508 50.9337C120.62 51.0293 120.677 51.1611 120.677 51.3291L120.685 53.393L121.345 53.3906L121.336 51.0026C121.335 50.7706 121.303 50.6227 121.238 50.559C121.182 50.4872 121.026 50.4518 120.77 50.4527C120.314 50.4544 119.994 50.3716 119.809 50.2043C119.632 50.0289 119.543 49.7053 119.542 49.2333L119.533 47.0373C119.533 46.8533 119.592 46.7051 119.712 46.5926C119.831 46.4802 119.975 46.4236 120.143 46.423C120.311 46.4224 120.455 46.4779 120.576 46.5894C120.704 46.7009 120.769 46.8487 120.769 47.0327L120.771 47.5607L122.019 47.5561C122.163 47.5555 122.288 47.6071 122.392 47.7107C122.496 47.8063 122.549 47.9261 122.549 48.0701C122.55 48.2141 122.498 48.3383 122.395 48.4427C122.291 48.5471 122.167 48.5995 122.023 48.6001L120.775 48.6047L120.777 48.9647C120.777 49.1807 120.818 49.3205 120.898 49.3842C120.978 49.4399 121.134 49.4674 121.366 49.4665C121.742 49.4651 122.019 49.5601 122.195 49.7514C122.38 49.9347 122.473 50.2544 122.475 50.7104L122.485 53.3864L124.225 53.3799L124.245 52.3118L123.345 52.3152C123.193 52.3157 123.061 52.2602 122.948 52.1487C122.844 52.037 122.791 51.9052 122.791 51.7532C122.79 51.6012 122.842 51.473 122.945 51.3687C123.057 51.2562 123.189 51.1998 123.341 51.1992L124.265 51.1958L124.273 50.1637L123.337 50.1672C123.185 50.1678 123.053 50.1162 122.94 50.0127C122.836 49.9011 122.784 49.7692 122.783 49.6172C122.782 49.4572 122.834 49.3251 122.938 49.2207C123.049 49.1163 123.181 49.0638 123.333 49.0632L124.293 49.0596L124.304 48.6876C124.311 48.4316 124.27 48.2637 124.182 48.1841C124.093 48.0964 123.921 48.053 123.665 48.054L123.101 48.0561C122.949 48.0566 122.817 48.0011 122.705 47.8895C122.592 47.7779 122.536 47.6461 122.535 47.4942C122.535 47.3342 122.59 47.1979 122.702 47.0855C122.813 46.9731 122.945 46.9166 123.097 46.9161L123.745 46.9137C124.233 46.9119 124.609 46.9665 124.874 47.0775C125.146 47.1805 125.335 47.3598 125.44 47.6154C125.545 47.871 125.59 48.2228 125.576 48.6709L125.497 53.3752L125.977 53.3734C126.145 53.3728 126.285 53.4323 126.398 53.5519C126.518 53.6634 126.579 53.8032 126.579 53.9712C126.58 54.1312 126.52 54.2714 126.401 54.3919C126.289 54.5043 126.149 54.5608 125.981 54.5614L122.681 54.5737C122.721 54.5815 122.761 54.5974 122.802 54.6212C122.85 54.645 122.89 54.6689 122.922 54.6928C123.162 54.8599 123.447 55.0348 123.776 55.2176C124.104 55.3924 124.441 55.5591 124.786 55.7179C125.138 55.8686 125.451 55.9914 125.723 56.0864C125.907 56.1417 126.032 56.2493 126.096 56.409C126.169 56.5767 126.173 56.7487 126.11 56.925C126.031 57.1493 125.891 57.2818 125.692 57.3225C125.5 57.3712 125.304 57.364 125.103 57.3007ZM128.464 57.4682C128.24 57.4691 128.064 57.4137 127.936 57.3022C127.807 57.1907 127.735 57.0349 127.718 56.835C127.701 56.6511 127.748 56.4869 127.86 56.3425C127.971 56.1981 128.127 56.1135 128.327 56.0887C128.543 56.0719 128.675 56.0315 128.723 55.9673C128.778 55.8951 128.806 55.763 128.805 55.571L128.797 53.267C128.693 53.2994 128.597 53.3357 128.509 53.376C128.421 53.4084 128.337 53.4407 128.257 53.473C128.082 53.5376 127.906 53.5343 127.729 53.4629C127.553 53.3916 127.429 53.2561 127.356 53.0563C127.299 52.8645 127.314 52.6885 127.402 52.5281C127.489 52.3678 127.625 52.2593 127.809 52.2026C127.952 52.1621 128.108 52.1135 128.276 52.0569C128.444 52.0003 128.616 51.9436 128.791 51.887L128.784 49.883L127.92 49.8862C127.728 49.8869 127.576 49.8275 127.463 49.7079C127.351 49.5883 127.294 49.4405 127.294 49.2645C127.293 49.0965 127.349 48.9523 127.46 48.8319C127.572 48.7115 127.723 48.6509 127.915 48.6502L128.779 48.647L128.773 46.931C128.772 46.739 128.836 46.5868 128.963 46.4743C129.091 46.3538 129.243 46.2933 129.419 46.2926C129.595 46.292 129.743 46.3514 129.863 46.471C129.992 46.5825 130.056 46.7343 130.057 46.9263L130.063 48.6423L130.567 48.6404C130.751 48.6397 130.9 48.6992 131.012 48.8187C131.125 48.9383 131.181 49.0821 131.182 49.2501L131.182 49.3701C131.27 49.3218 131.366 49.2974 131.47 49.297L134.11 49.2873L134.106 48.2193C133.786 48.2525 133.462 48.2817 133.134 48.3069C132.814 48.3241 132.498 48.3412 132.186 48.3584C131.962 48.3672 131.782 48.3199 131.646 48.2164C131.517 48.1129 131.449 47.9571 131.44 47.7491C131.431 47.5732 131.483 47.429 131.595 47.3166C131.714 47.2041 131.874 47.1475 132.074 47.1468C132.602 47.1368 133.162 47.1068 133.754 47.0566C134.353 47.0063 134.941 46.9402 135.517 46.858C136.101 46.7679 136.624 46.6699 137.088 46.5642C137.264 46.5236 137.424 46.547 137.568 46.6344C137.712 46.7219 137.801 46.8456 137.833 47.0054C137.874 47.1813 137.851 47.3374 137.763 47.4737C137.684 47.61 137.552 47.6985 137.368 47.7392C137.064 47.8043 136.741 47.8655 136.397 47.9228C136.061 47.98 135.717 48.0333 135.365 48.0826L135.37 49.2826L138.094 49.2725C138.262 49.2719 138.402 49.3314 138.514 49.4509C138.635 49.5625 138.695 49.6983 138.696 49.8583C138.697 50.0263 138.637 50.1705 138.518 50.2909C138.406 50.4033 138.266 50.4599 138.098 50.4605L135.374 50.4706L135.394 55.9065L135.862 55.9048C136.214 55.9035 136.458 55.8386 136.594 55.7101C136.737 55.5816 136.808 55.3613 136.807 55.0493L136.806 54.7013L136.17 54.7037C136.018 54.7042 135.886 54.6487 135.773 54.5371C135.661 54.4255 135.604 54.2898 135.604 54.1298C135.603 53.9698 135.659 53.8376 135.77 53.7331C135.882 53.6207 136.014 53.5642 136.166 53.5637L136.802 53.5613L136.8 53.0453C136.799 52.8533 136.763 52.7255 136.69 52.6617C136.618 52.59 136.474 52.5545 136.258 52.5553L136.114 52.5559C135.962 52.5564 135.826 52.5049 135.705 52.4014C135.593 52.2898 135.536 52.15 135.536 51.982C135.535 51.806 135.591 51.6658 135.702 51.5614C135.822 51.4569 135.958 51.4044 136.11 51.4039L136.314 51.4031C136.978 51.4006 137.446 51.5189 137.719 51.7579C137.992 51.9969 138.129 52.4084 138.132 52.9924L138.139 55.0444C138.142 55.7644 137.972 56.281 137.629 56.5943C137.286 56.9075 136.699 57.0657 135.867 57.0688L133.707 57.0768C132.875 57.0799 132.286 56.9261 131.941 56.6154C131.604 56.3046 131.434 55.7892 131.431 55.0692L131.424 53.2332C131.423 52.8732 131.458 52.5851 131.529 52.3688C131.6 52.1526 131.72 51.9761 131.887 51.8395C132.055 51.6949 132.286 51.562 132.582 51.4409C132.686 51.4006 132.786 51.3602 132.881 51.3198C132.985 51.2714 133.081 51.2311 133.169 51.1988C133.329 51.1342 133.477 51.1336 133.613 51.1971C133.757 51.2526 133.866 51.3602 133.938 51.5199C134.003 51.6637 134.007 51.8117 133.952 51.9639C133.904 52.108 133.801 52.2164 133.641 52.289C133.593 52.3052 133.525 52.3334 133.437 52.3738C133.357 52.4061 133.297 52.4303 133.258 52.4464C133.05 52.5272 132.91 52.6197 132.839 52.724C132.767 52.8283 132.732 53.0044 132.733 53.2524L132.734 53.5764L133.358 53.5741C133.518 53.5735 133.65 53.629 133.754 53.7406C133.867 53.8442 133.923 53.976 133.924 54.136C133.924 54.296 133.869 54.4322 133.757 54.5446C133.654 54.657 133.522 54.7135 133.362 54.7141L132.738 54.7164L132.739 55.0644C132.74 55.3764 132.813 55.5961 132.958 55.7236C133.102 55.851 133.35 55.9141 133.702 55.9128L134.134 55.9112L134.114 50.4753L131.474 50.485C131.306 50.4857 131.162 50.4302 131.042 50.3186C130.929 50.1991 130.873 50.0553 130.872 49.8873C130.872 49.8473 130.876 49.8193 130.884 49.8032C130.788 49.8516 130.684 49.876 130.572 49.8764L130.068 49.8782L130.074 51.4502L130.517 51.2926C130.661 51.2361 130.805 51.2435 130.949 51.315C131.102 51.3784 131.202 51.4901 131.251 51.6499C131.307 51.8097 131.308 51.9657 131.252 52.1179C131.197 52.2621 131.077 52.3705 130.894 52.4432C130.79 52.4836 130.666 52.532 130.522 52.5886C130.386 52.6451 130.238 52.7056 130.079 52.7702L130.09 55.8662C130.092 56.4022 129.966 56.8027 129.711 57.0676C129.456 57.3326 129.04 57.4661 128.464 57.4682ZM140.69 57.0029C140.499 57.1236 140.291 57.1684 140.067 57.1372C139.843 57.1061 139.67 56.9907 139.55 56.7911C139.445 56.6075 139.424 56.4116 139.488 56.2034C139.551 55.9951 139.682 55.8347 139.882 55.7219C140.776 55.1986 141.545 54.5637 142.191 53.8173C142.844 53.0629 143.361 52.257 143.742 51.3996C144.131 50.5341 144.359 49.6773 144.428 48.829C144.459 48.5089 144.406 48.2851 144.27 48.1576C144.141 48.0301 143.885 47.967 143.501 47.9684L142.193 47.9733C142.009 47.974 141.849 47.9106 141.712 47.7831C141.584 47.6475 141.519 47.4878 141.519 47.3038C141.518 47.1198 141.581 46.9636 141.709 46.8351C141.844 46.6986 142.004 46.63 142.188 46.6293L143.496 46.6245C144.096 46.6222 144.568 46.6805 144.913 46.7992C145.265 46.9179 145.518 47.125 145.671 47.4204C145.824 47.7078 145.902 48.1115 145.903 48.6315C145.907 49.6155 146.087 50.5349 146.442 51.3896C146.797 52.2443 147.3 53.0304 147.95 53.748C148.609 54.4656 149.384 55.1107 150.274 55.6834C150.458 55.8027 150.567 55.9743 150.6 56.1982C150.64 56.422 150.597 56.6222 150.47 56.7987C150.343 56.9911 150.163 57.0958 149.931 57.1127C149.707 57.1375 149.499 57.0823 149.306 56.947C148.36 56.2865 147.513 55.5216 146.766 54.6524C146.019 53.7832 145.455 52.7972 145.075 51.6946C144.615 52.7923 144.015 53.7946 143.274 54.7013C142.533 55.6001 141.672 56.3673 140.69 57.0029Z" fill="black" fill-opacity="0.85"/>
</g>
<defs>
<radialGradient id="paint0_radial_1260_3936" cx="0" cy="0" r="1" gradientUnits="userSpaceOnUse" gradientTransform="translate(0.558656 46.8353) rotate(65.4889) scale(3.32531 8.21233)">
<stop offset="0.33" stop-opacity="0"/>
<stop offset="0.655" stop-opacity="0.6"/>
<stop offset="1"/>
</radialGradient>
<radialGradient id="paint1_radial_1260_3936" cx="0" cy="0" r="1" gradientUnits="userSpaceOnUse" gradientTransform="translate(355.296 45.8572) rotate(114.511) scale(3.32531 8.21233)">
<stop offset="0.33" stop-opacity="0"/>
<stop offset="0.655" stop-opacity="0.6"/>
<stop offset="1"/>
</radialGradient>
<clipPath id="clip0_1260_3936">
<rect width="200" height="90" fill="white"/>
</clipPath>
</defs>
</svg>
