<svg width="650" height="650" viewBox="0 0 650 650" fill="none" xmlns="http://www.w3.org/2000/svg">
<path d="M258.164 259.613C302.432 229.359 269.808 201.043 247.511 200.186C225.213 199.329 186.22 229.098 155.529 211.213C102.949 180.573 104.108 104.897 157.564 78.3353C194.927 59.7698 198.418 90.2826 234.442 81.2916C256.74 82.149 256.048 52.1564 250.037 35.2111C232.7 -13.6648 157.523 -4.15593 108.912 18.7599C21.4371 59.9965 19.2036 205.824 105.313 253.735C153.165 280.361 223.746 283.136 258.164 259.613Z" fill="white"/>
<path fill-rule="evenodd" clip-rule="evenodd" d="M513.005 24.5218C467.535 -8.17394 418.046 -8.17394 372.576 24.5218C305.141 73.0112 305.141 198.126 372.576 246.615C418.046 279.311 467.535 279.311 513.005 246.615C580.439 198.126 580.439 73.0112 513.005 24.5218ZM470.426 72.3781C450.881 62.6237 434.729 62.6237 415.185 72.3781C373.36 93.2525 373.36 177.764 415.185 198.639C434.729 208.393 450.881 208.393 470.426 198.639C512.25 177.764 512.25 93.2525 470.426 72.3781Z" fill="white"/>
<path fill-rule="evenodd" clip-rule="evenodd" d="M116.279 334.718C86.5943 339.57 67 365.83 67 395.329V536.511C67 566.011 86.5943 592.271 116.279 597.122C154.71 603.403 206.769 606.478 238.779 586.112C321.267 533.63 321.267 398.211 238.779 345.728C206.769 325.362 154.71 328.437 116.279 334.718ZM190.403 389.24C161.475 381.189 140.52 412.409 140.52 441.886V489.952C140.52 519.429 161.475 550.649 190.403 542.598C193.134 541.838 195.724 540.825 198.087 539.506C241.673 515.174 241.673 416.664 198.087 392.332C195.724 391.013 193.134 390 190.403 389.24Z" fill="white"/>
<path d="M550.964 606.213L390.632 611.258C366.777 612.009 347 593.853 347 571.204L347 366.783C347 346.465 364.351 330 385.764 330L521.5 330C538.064 330 551.777 342.23 552.803 357.918C553.91 374.848 539.895 389.217 522.023 389.477L436.871 390.714C422.398 390.924 410.897 402.303 411.279 416.033C411.659 429.669 423.619 440.436 437.989 440.077L493.604 438.688C512.414 438.218 528.072 452.313 528.569 470.163C529.074 488.331 513.698 503.311 494.546 503.311L437.769 503.311C423.627 503.311 412.274 514.372 412.648 527.787C413.01 540.793 424.284 551.133 437.994 551.034L549.721 550.226C565.81 550.109 579.041 562.244 579.465 577.507C579.893 592.885 567.167 605.704 550.964 606.213Z" fill="white"/>
</svg>
