<svg width="203" height="209" viewBox="0 0 203 209" fill="none" xmlns="http://www.w3.org/2000/svg">
<path d="M192.863 81.6619C196.546 85.6326 197.288 88.8336 195.725 94.0195C191.038 109.577 132.014 108.779 132.014 108.779L129.152 96.4215C129.152 96.4215 181.815 69.7499 192.863 81.6619Z" fill="#E285AE"/>
<path d="M105.658 206.632C100.827 209.079 97.5457 208.91 92.9915 205.979C79.3292 197.187 96.3549 140.658 96.3549 140.658L109.021 141.311C109.021 141.311 120.151 199.29 105.658 206.632Z" fill="#E285AE"/>
<path d="M48.8173 203.978C43.4024 204.05 40.5303 202.455 37.7292 197.82C29.3259 183.914 69.4769 140.637 69.4769 140.637L80.565 146.794C80.565 146.794 65.0619 203.76 48.8173 203.978Z" fill="#E285AE"/>
<path d="M0.0932111 73.4327C-0.393619 68.0384 0.976693 65.0522 5.38334 61.9041C18.6033 52.4598 64.8208 89.1863 64.8208 89.1863L59.5307 100.715C59.5307 100.715 1.5537 89.6153 0.0932111 73.4327Z" fill="#E285AE"/>
<path d="M63.4157 0.00012354L172.136 0L133.883 164.456H18.6656L63.4157 0.00012354Z" fill="#F498C1"/>
<path d="M63.4157 0.00012354L172.136 0L133.883 164.456H18.6656L63.4157 0.00012354Z" fill="url(#paint0_linear_1884_1752)"/>
<path d="M71.9716 39.3469C71.9716 31.6111 78.2418 25.3399 85.9765 25.3399C93.7112 25.3399 99.9814 31.6111 99.9814 39.3469V51.6281C99.9814 59.364 93.7112 65.6351 85.9765 65.6351C78.2418 65.6351 71.9716 59.364 71.9716 51.6281V39.3469Z" fill="white"/>
<path fill-rule="evenodd" clip-rule="evenodd" d="M95.2692 48.6141L95.3076 48.6506L86.3826 57.757L76.9291 48.7663L76.9548 48.7401C76.7621 48.5906 76.5752 48.43 76.3949 48.2585C73.4895 45.4953 73.4081 40.935 76.2132 38.0728C78.8559 35.3765 83.118 35.1492 86.0321 37.4427C88.8619 35.1559 93.045 35.2706 95.7424 37.8359C98.6478 40.5991 98.7292 45.1594 95.9242 48.0214C95.7155 48.2344 95.4967 48.4319 95.2692 48.6141Z" fill="black"/>
<path d="M113.873 39.3469C113.873 31.6111 120.143 25.3399 127.878 25.3399C135.613 25.3399 141.883 31.6111 141.883 39.3469V51.6281C141.883 59.364 135.613 65.6351 127.878 65.6351C120.143 65.6351 113.873 59.364 113.873 51.6281V39.3469Z" fill="white"/>
<path fill-rule="evenodd" clip-rule="evenodd" d="M137.171 48.6141L137.21 48.6506L128.285 57.757L118.831 48.7663L118.857 48.7401C118.664 48.5906 118.477 48.43 118.297 48.2585C115.392 45.4953 115.31 40.935 118.115 38.0728C120.758 35.3765 125.02 35.1492 127.934 37.4427C130.764 35.1559 134.947 35.2706 137.644 37.8359C140.55 40.5991 140.631 45.1594 137.826 48.0214C137.618 48.2344 137.399 48.4319 137.171 48.6141Z" fill="black"/>
<path fill-rule="evenodd" clip-rule="evenodd" d="M112.463 70.8863L112.481 70.8787C112.496 70.8723 112.52 70.8622 112.552 70.8488C112.617 70.822 112.714 70.7818 112.84 70.7314C113.093 70.6305 113.458 70.4893 113.898 70.332C114.787 70.0144 115.945 69.6452 117.086 69.4036C118.283 69.1504 119.232 69.0889 119.809 69.2065C119.915 69.2283 119.986 69.2517 120.029 69.2693C120.029 69.2723 120.03 69.2755 120.03 69.2787C120.058 69.5993 120.007 69.724 119.997 69.7465C119.99 69.7635 119.971 69.8062 119.867 69.8822C119.558 70.1081 119.035 70.2791 118.027 70.5572C117.986 70.5685 117.944 70.5801 117.901 70.592C117.087 70.8154 115.878 71.147 114.926 71.833C114.376 72.2293 113.863 72.7701 113.522 73.5058C113.182 74.238 113.067 75.0428 113.126 75.8851C113.188 76.7574 113.466 77.5749 114.029 78.2477C114.58 78.9066 115.279 79.2753 115.922 79.4869C117.046 79.8564 118.386 79.8522 119.341 79.8492C119.389 79.8491 119.436 79.8489 119.482 79.8489C120.653 79.8464 121.356 79.8667 121.802 80.0152C121.842 80.0285 121.871 80.0404 121.893 80.0501C121.898 80.0789 121.904 80.1208 121.907 80.1788C121.911 80.2561 121.902 80.2625 121.896 80.2671L121.893 80.2697C121.85 80.3213 121.7 80.4612 121.315 80.6187C120.518 80.944 119.276 81.1233 117.806 81.1643C116.382 81.2041 114.927 81.111 113.813 81.0045C113.259 80.9516 112.799 80.8963 112.479 80.8545C112.319 80.8336 112.195 80.8162 112.112 80.8043C112.071 80.7983 112.04 80.7937 112.021 80.7908L112 80.7876L111.996 80.787C110.939 80.6218 109.947 81.3445 109.782 82.4017C109.616 83.4591 110.339 84.4506 111.396 84.6164L111.689 82.746C111.396 84.6164 111.396 84.6164 111.396 84.6164L111.41 84.6186L111.443 84.6235C111.47 84.6276 111.509 84.6333 111.558 84.6405C111.657 84.6548 111.799 84.6746 111.977 84.6979C112.334 84.7445 112.839 84.8052 113.444 84.863C114.645 84.9778 116.272 85.0847 117.915 85.0389C119.512 84.9943 121.322 84.8026 122.78 84.2071C123.521 83.9043 124.299 83.4464 124.887 82.7299C125.512 81.9688 125.833 81.023 125.777 79.972C125.73 79.1027 125.469 78.2791 124.913 77.5965C124.368 76.9267 123.67 76.5522 123.027 76.338C121.908 75.9652 120.568 75.9694 119.615 75.9724C119.567 75.9726 119.52 75.9727 119.474 75.9728C118.305 75.9753 117.592 75.9559 117.133 75.8049C117.075 75.7858 117.036 75.7691 117.012 75.7569C117.005 75.728 116.997 75.6821 116.992 75.614C116.97 75.2962 117.023 75.1682 117.037 75.1379C117.049 75.1112 117.077 75.0601 117.191 74.9781C117.516 74.7439 118.052 74.5713 119.058 74.2936C119.098 74.2826 119.139 74.2713 119.182 74.2597C119.995 74.0366 121.206 73.704 122.154 73.0111C122.703 72.6096 123.21 72.0614 123.54 71.3173C123.868 70.5786 123.965 69.7719 123.89 68.9341C123.805 67.9854 123.43 67.129 122.744 66.4774C122.093 65.8578 121.299 65.5547 120.583 65.4087C119.199 65.1265 117.606 65.3317 116.284 65.6115C114.907 65.9029 113.57 66.3333 112.594 66.6819C112.102 66.8578 111.692 67.0164 111.403 67.132C111.258 67.1899 111.143 67.2372 111.062 67.2707C111.022 67.2875 110.99 67.3008 110.968 67.3104L110.941 67.3218L110.933 67.3252L110.929 67.3268C110.929 67.3268 110.929 67.3271 111.696 69.1066L110.929 67.3268C109.947 67.7508 109.493 68.8915 109.917 69.8743C110.341 70.8569 111.481 71.3099 112.463 70.8863ZM117.021 75.7895C117.024 75.7945 117.025 75.7976 117.025 75.7976C117.025 75.7976 117.024 75.7953 117.021 75.7895Z" fill="black"/>
<path d="M159.312 56.744C161.861 54.2127 165.994 54.2127 168.543 56.744C171.092 59.2752 171.092 63.3793 168.543 65.9105L159.38 75.0091C158.303 76.0785 156.565 76.0785 155.488 75.0091L146.325 65.9105C143.776 63.3793 143.776 59.2752 146.325 56.744C148.874 54.2127 153.007 54.2127 155.557 56.744C156.596 57.7758 158.273 57.7758 159.312 56.744Z" fill="#EC2B2B"/>
<path d="M188.965 34.3334C192.133 31.1693 197.267 31.1693 200.435 34.3334C203.602 37.4975 203.602 42.6275 200.435 45.7916L188.585 57.6302C187.506 58.7075 185.759 58.7075 184.68 57.6302L172.83 45.7916C169.663 42.6275 169.663 37.4975 172.83 34.3334C175.998 31.1693 181.133 31.1693 184.3 34.3334L184.68 34.7137C185.759 35.7911 187.506 35.7911 188.585 34.7137L188.965 34.3334Z" fill="#EC2B2B"/>
<path d="M150.85 59.9749C150.85 60.6287 150.32 61.1587 149.666 61.1587C149.012 61.1587 148.482 60.6287 148.482 59.9749C148.482 59.3212 149.012 58.7912 149.666 58.7912C150.32 58.7912 150.85 59.3212 150.85 59.9749Z" fill="white"/>
<path d="M174.401 44.1921C174.401 44.8458 174.931 45.3758 175.585 45.3758C176.238 45.3758 176.768 44.8458 176.768 44.1921C176.768 43.5383 176.238 43.0083 175.585 43.0083C174.931 43.0083 174.401 43.5383 174.401 44.1921Z" fill="white"/>
<path d="M148.162 64.3769C147.854 64.0688 147.854 63.5691 148.162 63.2609C148.47 62.9527 148.97 62.9527 149.278 63.2609L152.626 66.609C152.934 66.9172 152.934 67.4168 152.626 67.725C152.318 68.0332 151.818 68.0332 151.51 67.725L148.162 64.3769Z" fill="white"/>
<path fill-rule="evenodd" clip-rule="evenodd" d="M178.79 35.1169C174.993 35.1176 173.317 38.1786 173.653 40.5294C173.714 40.9608 173.415 41.3605 172.983 41.4221C172.552 41.4837 172.152 41.1839 172.09 40.7525C171.637 37.5792 173.907 33.5395 178.79 33.5386C179.226 33.5385 179.579 33.8918 179.579 34.3276C179.579 34.7635 179.226 35.1168 178.79 35.1169Z" fill="#F5F5F5"/>
<defs>
<linearGradient id="paint0_linear_1884_1752" x1="118.617" y1="-1.07334e-06" x2="79.851" y2="197.966" gradientUnits="userSpaceOnUse">
<stop offset="0.235" stop-color="#F498C1" stop-opacity="0"/>
<stop offset="1" stop-color="#E285AE"/>
</linearGradient>
</defs>
</svg>
