<svg width="200" height="90" viewBox="0 0 200 90" fill="none" xmlns="http://www.w3.org/2000/svg">
<g clip-path="url(#clip0_2308_6862)">
<rect width="200" height="90" fill="#FEB79D"/>
<path fill-rule="evenodd" clip-rule="evenodd" d="M-6.18027 85.5257C-5.5206 81.3514 -9.94765 77.2571 -7.65473 73.2393C-4.94813 68.4966 -1.65241 61.9915 7.77154 61.0783C17.9972 60.0873 23.5998 68.8258 33.9785 69.2048C45.8176 69.6371 56.5881 60.196 66.8872 63.2371C76.2425 65.9996 70.121 74.0119 68.9752 79.5387C68.1676 83.4341 61.5364 86.4306 61.2669 90.3457C60.8502 96.3973 75.7689 103.853 67.0229 107.895C58.3557 111.9 45.7383 103.802 34.2527 102.83C27.3162 102.243 20.5655 103.925 13.6182 103.373C4.65786 102.66 -7.2514 103.227 -11.7526 99.1698C-16.3208 95.0519 -6.92748 90.2539 -6.18027 85.5257Z" fill="#FE585B"/>
<path fill-rule="evenodd" clip-rule="evenodd" d="M28.4743 10.5302C32.6486 10.8717 36.7429 8.58004 40.7607 9.76696C45.5034 11.168 52.0085 12.874 52.9217 17.7523C53.9127 23.0456 45.1742 25.9458 44.7952 31.3183C44.3629 37.4467 53.804 43.0221 50.7629 48.3534C48.0004 53.1961 39.9881 50.0274 34.4613 49.4342C30.5659 49.0162 27.5694 45.5836 23.6543 45.444C17.6027 45.2284 10.1469 52.9509 6.10508 48.4236C2.09968 43.9371 10.1975 37.4057 11.1701 31.4602C11.7575 27.8695 10.0747 24.3751 10.6274 20.7788C11.3402 16.1405 10.7727 9.97575 14.8302 7.64571C18.9481 5.281 23.7461 10.1434 28.4743 10.5302Z" fill="#FC7443"/>
<path fill-rule="evenodd" clip-rule="evenodd" d="M173.474 4.53021C177.649 4.87169 181.743 2.58004 185.761 3.76696C190.503 5.16803 197.008 6.87405 197.922 11.7523C198.913 17.0456 190.174 19.9458 189.795 25.3183C189.363 31.4467 198.804 37.0221 195.763 42.3534C193 47.1961 184.988 44.0274 179.461 43.4342C175.566 43.0162 172.569 39.5836 168.654 39.444C162.603 39.2284 155.147 46.9509 151.105 42.4236C147.1 37.9371 155.198 31.4057 156.17 25.4602C156.757 21.8695 155.075 18.3751 155.627 14.7788C156.34 10.1405 155.773 3.97575 159.83 1.64571C163.948 -0.719004 168.746 4.14342 173.474 4.53021Z" fill="#FF8787"/>
<path fill-rule="evenodd" clip-rule="evenodd" d="M117.063 7.20494C131.49 7.9797 144.155 11.9054 154.996 17.5775C166.733 23.7188 176.896 30.8598 179.688 39.9711C183.097 51.0949 184.354 63.7453 171.749 72.2549C158.691 81.0707 136.857 81.4742 117.063 82.2497C95.2362 83.1048 71.8992 84.7511 54.6033 76.8446C35.6156 68.1646 20.8565 53.9771 24.5773 39.9711C28.0889 26.7526 52.1053 19.9805 71.5388 13.0955C85.3864 8.18958 100.98 6.34119 117.063 7.20494Z" fill="#FFAB7A"/>
<ellipse cx="177.989" cy="70.7269" rx="16.7876" ry="14.0511" fill="#F55A57"/>
<ellipse cx="173.713" cy="65.6395" rx="1.21537" ry="2.15126" fill="black"/>
<ellipse cx="182.288" cy="65.6395" rx="1.21537" ry="2.15126" fill="black"/>
<path d="M173.043 72.6426C173.079 74.5703 175.312 76.0917 178.031 76.0408C180.749 75.99 182.924 74.386 182.888 72.4584C182.852 70.5307 180.67 71.7806 177.952 71.8314C175.233 71.8823 173.007 70.7149 173.043 72.6426Z" fill="black"/>
<path d="M170.798 50.9035C173.679 48.6452 180.102 51.1915 180.102 55.0219C180.103 59.542 168.088 61.6232 165.803 61.9782C165.554 62.0169 165.305 62.044 165.056 62.039C163.427 62.0062 157.617 61.2375 170.798 50.9035Z" fill="#6E5232"/>
<path d="M170.798 50.9035C173.679 48.6452 180.102 51.1915 180.102 55.0219C180.103 59.542 168.088 61.6232 165.803 61.9782C165.554 62.0169 165.305 62.044 165.056 62.039C163.427 62.0062 157.617 61.2375 170.798 50.9035Z" fill="url(#paint0_radial_2308_6862)" fill-opacity="0.15"/>
<path d="M185.204 50.7629C182.323 48.5045 175.9 51.0509 175.9 54.8813C175.899 59.4014 187.914 61.4825 190.199 61.8375C190.448 61.8763 190.697 61.9034 190.946 61.8984C192.575 61.8656 198.385 61.0968 185.204 50.7629Z" fill="#6E5232"/>
<path d="M185.204 50.7629C182.323 48.5045 175.9 51.0509 175.9 54.8813C175.899 59.4014 187.914 61.4825 190.199 61.8375C190.448 61.8763 190.697 61.9034 190.946 61.8984C192.575 61.8656 198.385 61.0968 185.204 50.7629Z" fill="url(#paint1_radial_2308_6862)" fill-opacity="0.15"/>
<path d="M102.249 30.1143C102.523 30.1133 102.66 30.2928 102.661 30.6528C102.663 31.0128 102.527 31.1933 102.254 31.1943L98.6635 31.2076L97.9887 32.6001L99.0387 32.5962L99.0361 31.9062C99.0351 31.6329 99.2279 31.4955 99.6146 31.4941C100.008 31.4926 100.205 31.6285 100.206 31.9019L100.209 32.5919L101.849 32.5858C102.175 32.5846 102.336 32.7473 102.33 33.074L102.272 36.1642C102.219 36.3111 102.116 36.4281 101.963 36.5154C101.744 36.6295 101.497 36.6838 101.224 36.6781C100.871 36.6861 100.643 36.5169 100.542 36.1706C100.447 35.8243 100.537 35.6507 100.81 35.6497L101.08 35.6486C101.167 35.6483 101.21 35.6115 101.21 35.5382L101.204 33.9082C101.203 33.7348 101.116 33.6485 100.943 33.6491L100.213 33.6519L100.227 37.5718C100.228 37.8452 100.032 37.9826 99.6386 37.984C99.252 37.9854 99.0581 37.8495 99.0571 37.5762L99.0426 33.6562L98.1326 33.6596L98.1426 36.3495C98.1436 36.6229 97.9574 36.7602 97.5841 36.7616C97.2174 36.763 97.0336 36.627 97.0326 36.3537L97.0238 33.9737C96.7914 34.2479 96.6885 34.3616 96.715 34.3148C96.4294 34.5825 96.1826 34.5701 95.9749 34.2776C95.8205 34.0048 95.6833 33.8386 95.563 33.7791L95.5771 37.5791C95.5781 37.8524 95.3886 37.9898 95.0086 37.9912C94.6353 37.9926 94.4481 37.8566 94.4471 37.5832L94.4297 32.8833C94.2108 33.1708 94.0747 33.3379 94.0216 33.3848C93.8423 33.5855 93.6453 33.4829 93.4304 33.077C93.2222 32.6644 93.2045 32.3678 93.3771 32.1872C93.6561 31.9128 93.9944 31.4416 94.3919 30.7734C94.7961 30.1052 95.074 29.5442 95.2257 29.0903C95.3247 28.8299 95.5611 28.7591 95.9349 28.8777C96.3153 28.9963 96.456 29.1791 96.3569 29.4261C96.2052 29.8533 95.9372 30.4177 95.5532 31.1191L95.5626 33.6691C96.2871 33.0797 96.8974 32.2608 97.3935 31.2123L96.4735 31.2157C96.2002 31.2167 96.0629 31.0372 96.0615 30.6772C96.0602 30.3172 96.1962 30.1367 96.4695 30.1357L97.8295 30.1307L98.1354 29.0095C98.2077 28.7492 98.4374 28.6551 98.8243 28.727C99.2112 28.7922 99.3685 28.9549 99.2961 29.2152L99.0495 30.1261L102.249 30.1143ZM108.611 36.0307C108.785 36.0301 108.871 35.9431 108.871 35.7698L108.869 35.3998C108.868 35.2264 108.782 35.1401 108.608 35.1407L107.398 35.1452C107.225 35.1459 107.139 35.2329 107.139 35.4062L107.141 36.0362L108.611 36.0307ZM110.33 30.3343C110.33 30.161 110.243 30.0746 110.069 30.0753L105.849 30.0909C105.676 30.0916 105.59 30.1786 105.59 30.3519L105.593 30.9519L110.073 30.9353C110.246 30.9346 110.332 30.8477 110.332 30.6743L110.33 30.3343ZM105.596 31.9519L105.599 32.5919L111.779 32.569C112.105 32.5678 112.259 32.7872 112.241 33.2273C112.219 34.4274 112.169 35.3875 112.092 36.1078C112.014 36.8215 111.893 37.2819 111.727 37.4892C111.568 37.7031 111.335 37.834 111.028 37.8818C110.729 37.9362 110.479 37.9538 110.279 37.9346C109.925 37.9359 109.715 37.79 109.647 37.4969L109.505 36.9674L107.145 36.9762L107.146 37.1562C107.147 37.4295 106.964 37.5669 106.597 37.5682C106.23 37.5696 106.047 37.4336 106.046 37.1603L106.036 34.6903C106.035 34.3703 106.195 34.2097 106.515 34.2085L109.505 34.1974C109.818 34.1963 109.975 34.3557 109.976 34.6757L109.984 36.5957C109.984 36.769 110.071 36.8553 110.245 36.8547L110.375 36.8542C110.508 36.8604 110.618 36.8133 110.704 36.713C110.877 36.5123 110.983 35.6286 111.024 34.0618C111.036 33.7551 110.956 33.602 110.782 33.6027L105.493 33.6223C105.312 35.3896 104.957 36.6343 104.426 37.3563C104.281 37.5968 104.084 37.6075 103.836 37.3884L103.736 37.2988C103.409 37.08 103.324 36.8437 103.484 36.5897C103.842 36.1084 104.095 35.3208 104.245 34.2269C104.362 33.3865 104.418 32.4896 104.415 31.5363L104.408 29.5763C104.406 29.2563 104.562 29.0957 104.876 29.0945L111.036 29.0717C111.356 29.0705 111.516 29.2299 111.517 29.5499L111.525 31.4499C111.526 31.7699 111.366 31.9305 111.046 31.9317L105.596 31.9519Z" fill="#FE585B"/>
<path d="M76.2368 44.1897C76.5884 44.0924 76.9519 44.3044 77.3272 44.8257C77.7131 45.3363 77.7142 45.6403 77.3305 45.7377C75.3165 46.2572 72.9549 46.5699 70.246 46.676C69.7233 46.6886 69.2909 46.5675 68.9486 46.3128C68.617 46.058 68.4983 45.6958 68.5926 45.2261L69.0561 45.0964C72.2128 44.9247 74.6064 44.6224 76.2368 44.1897ZM73.8042 48.3428C73.9337 48.7476 73.7161 49.0471 73.1515 49.2412C72.5869 49.4353 72.2451 49.3246 72.1263 48.909L71.7376 47.6624C71.6188 47.2469 71.831 46.9528 72.3744 46.7801C72.9177 46.6074 73.2542 46.7235 73.3837 47.1283L73.8042 48.3428ZM67.7133 45.4213C68.0981 45.6226 68.1047 45.9852 67.7333 46.5093C67.3726 47.0226 67.0051 47.168 66.6309 46.9454L64.915 45.8957C64.5409 45.6731 64.5289 45.3318 64.8792 44.8718C65.2295 44.4012 65.597 44.2665 65.9818 44.4677L67.7133 45.4213ZM66.8971 49.6804C67.2818 49.871 67.2885 50.2336 66.9171 50.7683C66.5564 51.2923 66.189 51.4484 65.8148 51.2364L64.051 50.2029C63.6769 49.991 63.6649 49.6497 64.0152 49.1791C64.3655 48.7084 64.7329 48.5684 65.1177 48.759L66.8971 49.6804ZM77.6468 53.3526C78.0841 53.351 78.3038 53.6381 78.306 54.2141C78.3081 54.7901 78.0905 55.0789 77.6532 55.0806L74.2292 55.0933L74.2368 57.1412C74.2385 57.5999 74.1758 57.9468 74.0486 58.1819C73.9215 58.4171 73.6609 58.6047 73.2667 58.7448C72.8726 58.8956 72.2702 58.9672 71.4595 58.9595C70.8409 58.9725 70.4239 58.7074 70.2086 58.1642C70.0039 57.6209 70.0829 57.3593 70.4456 57.3793C70.627 57.3786 71.1496 57.3767 72.0136 57.3735C72.1629 57.3623 72.2588 57.3406 72.3014 57.3084C72.3546 57.2762 72.381 57.2068 72.3806 57.1001L72.3732 55.1001L68.6932 55.1138C68.2559 55.1154 68.0362 54.8282 68.034 54.2522C68.0319 53.6762 68.2495 53.3874 68.6868 53.3858L72.3668 53.3721C72.3651 52.9135 72.5451 52.5448 72.9067 52.2661L74.0394 51.3819L69.3515 51.3993C68.9141 51.4009 68.6944 51.1191 68.6923 50.5537C68.6902 49.9777 68.9078 49.6889 69.3451 49.6873L75.9049 49.615L75.2799 49.3453C74.7992 49.1551 74.6646 48.8249 74.8762 48.3548L75.5905 46.8001C75.7703 46.4048 76.154 46.3234 76.7416 46.5559C77.3397 46.7777 77.5328 47.0756 77.3209 47.4497L76.1287 49.5662L76.7706 50.0598C77.1877 50.3783 77.2104 50.7248 76.8384 51.0996C76.2754 51.7203 75.4035 52.4755 74.2228 53.3653L77.6468 53.3526ZM67.3097 53.0709C67.791 53.4424 67.9312 53.8526 67.7302 54.3013C67.0745 55.8184 66.45 57.1168 65.8566 58.1963C65.6554 58.5917 65.2715 58.5985 64.7047 58.2166C64.1486 57.8346 63.9872 57.4512 64.2204 57.0664C64.931 55.9544 65.6195 54.6505 66.286 53.1547C66.487 52.7166 66.8282 52.6887 67.3097 53.0709ZM70.3199 49.3477C69.798 49.5736 69.4511 49.4896 69.2789 49.0956L68.7949 48.0093C68.6228 47.6153 68.7924 47.3213 69.3036 47.1275C69.8149 46.9229 70.1619 47.0176 70.3447 47.4116L70.8444 48.4178C71.0272 48.8117 70.8524 49.1217 70.3199 49.3477ZM84.5193 55.6311L84.5223 56.4471C85.1835 56.402 86.1112 56.3239 87.3054 56.2128C87.8891 55.4 88.3069 54.4384 88.5588 53.3281C88.8106 52.2179 88.9657 50.8839 89.0239 49.3264L88.3359 49.3289C87.8239 49.3308 87.567 49.0758 87.5651 48.5638L87.5633 48.0838L84.4913 48.0952L84.4936 48.7192L86.5576 48.7115C87.0696 48.7096 87.3266 48.9593 87.3284 49.4607L87.3411 52.8846C87.343 53.3966 87.088 53.6536 86.576 53.6555L84.512 53.6631L84.5143 54.2871L86.7543 54.2788C87.1916 54.2772 87.4111 54.5004 87.4128 54.9484C87.4144 55.3964 87.1966 55.6212 86.7592 55.6228L84.5193 55.6311ZM81.5301 52.0902C81.5311 52.3568 81.6703 52.4897 81.9476 52.4886L82.7796 52.4855L82.7769 51.7655L81.5289 51.7702L81.5301 52.0902ZM85.7529 51.7545L84.5049 51.7591L84.5076 52.4791L85.3396 52.4761C85.6169 52.475 85.7551 52.3412 85.7541 52.0745L85.7529 51.7545ZM84.5007 50.6231L85.7487 50.6185L85.7476 50.3305C85.7466 50.0532 85.6074 49.915 85.3301 49.9161L84.4981 49.9192L84.5007 50.6231ZM81.9381 49.9286C81.6608 49.9297 81.5226 50.0688 81.5237 50.3462L81.5247 50.6342L82.7727 50.6296L82.7701 49.9256L81.9381 49.9286ZM90.8734 47.5755L93.3374 47.5664C93.8601 47.5644 94.1166 47.7022 94.107 47.9795C94.0978 48.3956 94.0801 49.361 94.0537 50.8757C94.0283 52.6572 93.9647 54.2041 93.8629 55.5165C93.7718 56.8288 93.5936 57.6775 93.3283 58.0625C93.0631 58.4475 92.6534 58.6997 92.0991 58.819C91.7794 58.8842 91.4115 58.9069 90.9954 58.8871C90.4087 58.8893 90.0183 58.5868 89.824 57.9795C89.6404 57.3721 89.778 57.089 90.2369 57.1299C90.3649 57.1401 90.6742 57.1443 91.1649 57.1425C91.3996 57.1416 91.5806 57.0503 91.7079 56.8685C92.0158 56.4727 92.1994 54.2053 92.2587 50.0664C92.2675 49.565 92.1386 49.3148 91.8719 49.3158L90.8319 49.3197C90.7233 51.6774 90.4106 53.6359 89.8937 55.1952C89.3768 56.7545 88.6929 57.8557 87.8419 58.4988C87.4379 58.863 87.0805 58.8376 86.7696 58.4228C86.8015 58.3907 86.5821 58.1782 86.1113 57.7852C83.0405 58.1166 81.0572 58.316 80.1614 58.3833C79.9056 58.4162 79.7393 58.1662 79.6626 57.6331C79.586 57.1001 79.7663 56.8221 80.2036 56.7991L82.7948 56.5975L82.7913 55.6375L80.6313 55.6455C80.194 55.6471 79.9745 55.424 79.9728 54.976C79.9711 54.528 80.189 54.3032 80.6263 54.3015L82.7863 54.2935L82.784 53.6695L80.8 53.6769C80.288 53.6788 80.0311 53.4291 80.0292 52.9277L80.0165 49.5038C80.0146 48.9918 80.2697 48.7348 80.7817 48.7329L82.7657 48.7256L82.7633 48.1016L80.2674 48.1108C79.83 48.1124 79.6105 47.8839 79.6088 47.4253C79.6071 46.9666 79.8249 46.7365 80.2623 46.7348L82.7582 46.7256L82.7559 46.0856C81.7215 46.1641 81.0123 46.2094 80.6284 46.2215C80.2444 46.2229 79.9822 45.9999 79.8419 45.5524C79.7015 45.1049 79.898 44.8642 80.4312 44.8302C82.82 44.6933 84.6646 44.4838 85.9649 44.2017C86.3379 44.115 86.664 44.3111 86.9431 44.7901C87.2222 45.2584 87.1485 45.5253 86.7221 45.5909L84.4833 45.9352L84.4862 46.7192L86.7902 46.7106C87.3022 46.7087 87.5593 47.0011 87.5615 47.5878L89.0655 47.5822L89.0715 44.8942C89.0699 44.4568 89.3731 44.237 89.9811 44.2348C90.5891 44.2325 90.8939 44.4501 90.8955 44.8874L90.8734 47.5755ZM103.498 51.9767L103.49 49.8008C103.489 49.5234 103.35 49.3853 103.072 49.3863L101.84 49.3909C101.328 49.3928 101.071 49.1377 101.069 48.6257L101.055 44.7377C101.053 44.3004 101.319 44.0808 101.853 44.0788C102.397 44.0768 102.669 44.2944 102.671 44.7318L102.673 45.1638L104.529 45.1569C104.966 45.1553 105.186 45.4158 105.187 45.9384C105.189 46.4611 104.972 46.7232 104.534 46.7249L102.678 46.7317L102.681 47.4837C102.682 47.7611 102.821 47.8992 103.099 47.8982L104.299 47.9097C104.811 47.9078 105.068 48.1629 105.07 48.6749L105.082 51.9709C105.083 52.3015 105.041 52.547 104.957 52.7073C104.882 52.8676 104.723 53.0069 104.478 53.1251C104.233 53.2434 103.94 53.2978 103.599 53.2884C103.001 53.3013 102.633 53.116 102.493 52.7325C102.353 52.3383 102.501 52.1404 102.938 52.1388L103.226 52.1378C103.408 52.1477 103.498 52.0941 103.498 51.9767ZM101.156 50.4014C101.261 49.985 101.549 49.8186 102.018 49.9022C102.488 49.9751 102.681 50.3158 102.598 50.9241C102.558 51.5322 102.415 51.9968 102.171 52.3177C102.012 52.6276 101.73 52.6606 101.323 52.4168C100.917 52.1623 100.767 51.8269 100.872 51.4105L101.156 50.4014ZM107.183 53.4351L107.258 52.1388L106.298 52.1424C105.861 52.144 105.642 51.8835 105.64 51.3608C105.638 50.8381 105.855 50.576 106.293 50.5744L107.317 50.5706L107.312 49.1946L106.4 49.198C105.962 49.1996 105.743 48.9391 105.741 48.4164C105.739 47.8937 105.956 47.6316 106.394 47.63L107.402 47.6262L107.398 46.6663C107.397 46.3889 107.258 46.2508 106.981 46.2518L106.229 46.2546C105.791 46.2562 105.572 45.985 105.57 45.441C105.568 44.897 105.785 44.6242 106.223 44.6226L108.383 44.6146C108.895 44.6127 109.146 44.8998 109.138 45.4758C109.158 48.1744 109.104 50.8253 108.975 53.4285L109.711 53.4257C110.149 53.4241 110.368 53.7166 110.371 54.3033C110.373 54.8899 110.155 55.1841 109.718 55.1857L105.862 55.2C107.571 55.9937 108.779 56.6132 109.485 57.0586C109.795 57.2388 109.737 57.5697 109.312 58.0512C108.898 58.5434 108.52 58.6782 108.178 58.4554C107.269 57.8295 106.323 57.289 105.34 56.834C104.656 56.4845 104.505 56.0584 104.887 55.5556L105.158 55.2026L100.406 55.2202L101.016 55.714C101.508 56.1175 101.472 56.5016 100.908 56.8664C100.078 57.4348 98.9388 58.0097 97.4903 58.5911C97.0537 58.7847 96.6532 58.6422 96.2887 58.1635C95.935 57.6955 95.9871 57.37 96.4451 57.1869C97.734 56.7021 98.9422 56.047 100.07 55.2215L96.3579 55.2352C95.9205 55.2369 95.7008 54.9443 95.6986 54.3577C95.6964 53.771 95.914 53.4769 96.3514 53.4752L97.1353 53.4723L96.8514 45.9373C96.839 45.4574 97.0511 45.1313 97.4878 44.959L99.2772 44.2483C99.682 44.0975 100.019 44.2829 100.287 44.8046C100.566 45.3156 100.498 45.6305 100.083 45.7494L98.948 46.0896C98.6923 46.1652 98.5649 46.3363 98.5659 46.603L98.6178 47.6428L99.7857 47.6385C100.223 47.6369 100.443 47.8974 100.445 48.42C100.447 48.932 100.229 49.1888 99.7915 49.1905L98.6715 49.1946L98.7246 50.5704L99.8446 50.5663C100.282 50.5647 100.502 50.8252 100.503 51.3478C100.505 51.8598 100.288 52.1166 99.8503 52.1183L98.7784 52.1222L98.8313 53.4661L107.183 53.4351ZM115.186 45.5334C115.539 45.7881 115.519 46.1668 115.126 46.6696C114.744 47.1617 114.387 47.2697 114.055 46.9936L112.675 45.8787C112.344 45.6026 112.358 45.2452 112.719 44.8065C113.08 44.3678 113.437 44.2758 113.79 44.5305L115.186 45.5334ZM114.433 49.6642C114.807 49.8761 114.836 50.2494 114.518 50.7839C114.199 51.3184 113.859 51.469 113.495 51.2357L111.875 50.2177C111.512 49.995 111.489 49.6431 111.807 49.1619C112.126 48.6701 112.472 48.5301 112.846 48.7421L114.433 49.6642ZM113.616 57.8913C113.394 58.3401 113.026 58.3895 112.512 58.0394C112.01 57.6999 111.875 57.3324 112.108 56.9369C112.787 55.8037 113.433 54.5106 114.046 53.0577C114.236 52.6303 114.556 52.5918 115.006 52.9421C115.465 53.2924 115.611 53.6705 115.442 54.0765C114.903 55.3692 114.294 56.6408 113.616 57.8913ZM118.533 55.009L123.317 54.9913L123.314 54.1593L118.594 54.1768L118.533 55.009ZM123.308 52.5273C123.307 52.25 123.168 52.1118 122.89 52.1129L119.003 52.1273C118.725 52.1283 118.587 52.2675 118.588 52.5448L118.59 52.9608L123.31 52.9433L123.308 52.5273ZM124.502 50.7789C125.014 50.777 125.27 51.032 125.272 51.544L125.292 56.92C125.294 57.3573 125.237 57.6935 125.12 57.9286C125.004 58.1637 124.764 58.362 124.402 58.5233C124.051 58.6846 123.539 58.7558 122.867 58.737C122.248 58.7606 121.842 58.5008 121.648 57.9575C121.465 57.4249 121.635 57.1682 122.157 57.1876C122.371 57.1975 122.659 57.1911 123.021 57.1684C123.224 57.157 123.325 57.0713 123.324 56.9113L123.322 56.2553L118.362 56.2737C118.131 57.3519 117.856 58.0516 117.538 58.3727C117.304 58.6936 116.941 58.6256 116.449 58.1688C115.967 57.7226 115.822 57.3551 116.013 57.0664C116.48 56.5633 116.711 55.4265 116.704 53.6558L116.696 51.5758C116.695 51.0638 116.95 50.8069 117.462 50.805L124.502 50.7789ZM121.854 48.7727L125.822 48.758C126.259 48.7564 126.479 48.9849 126.481 49.4435C126.482 49.8915 126.264 50.1163 125.827 50.118L115.971 50.1545C115.534 50.1561 115.314 49.9329 115.313 49.4849C115.311 49.0263 115.529 48.7961 115.966 48.7945L119.95 48.7797L119.947 48.0277L116.875 48.0391C116.438 48.0408 116.219 47.8336 116.217 47.4176C116.215 46.9909 116.433 46.7768 116.871 46.7751L119.943 46.7638L119.94 46.0598L116.42 46.0728C115.983 46.0744 115.763 45.8512 115.762 45.4032C115.76 44.9446 115.978 44.7144 116.415 44.7128L119.935 44.6998L119.934 44.5238C119.933 44.0864 120.247 43.8666 120.876 43.8643C121.516 43.8619 121.837 44.0794 121.838 44.5167L121.839 44.6927L125.471 44.6792C125.898 44.6777 126.112 44.9062 126.113 45.3649C126.115 45.8129 125.903 46.0377 125.476 46.0392L121.844 46.0527L121.847 46.7567L125.063 46.7448C125.5 46.7432 125.719 46.9557 125.721 47.3823C125.723 47.7983 125.505 48.0071 125.067 48.0088L121.851 48.0207L121.854 48.7727ZM131.806 44.3838L132.399 44.7176C132.827 44.9507 132.951 45.3662 132.772 45.9642L131.823 48.9917C131.76 49.1946 131.809 49.4185 131.969 49.6632C132.527 50.4078 132.819 51.3827 132.844 52.588C132.848 53.6333 132.616 54.3382 132.148 54.7026C131.914 54.8848 131.659 54.9977 131.381 55.0414L130.902 55.0752C130.464 55.0981 130.175 54.8379 130.035 54.2944C129.905 53.7402 130.106 53.4675 130.64 53.4762L130.911 53.3471C131.092 53.2078 131.181 52.8875 131.18 52.3861C131.154 51.3196 130.943 50.5577 130.547 50.1005C130.29 49.6961 130.203 49.3391 130.287 49.0294C130.414 48.6343 130.598 47.8816 130.839 46.7714C130.933 46.355 130.842 46.1474 130.564 46.1484L130.132 46.15C129.855 46.151 129.717 46.2849 129.718 46.5515L129.761 58.0714C129.762 58.5088 129.486 58.7285 128.931 58.7305C128.376 58.7326 128.098 58.5149 128.097 58.0776L128.049 45.2297C128.047 44.7177 128.302 44.4608 128.814 44.4589L131.806 44.3838ZM133.908 54.584C134.141 54.0925 134.535 53.9257 135.09 54.0837C135.645 54.2309 135.812 54.5397 135.589 55.0098C135.23 55.8432 134.715 56.6237 134.046 57.3516C133.759 57.6833 133.381 57.6794 132.91 57.3398C132.439 56.9895 132.353 56.6645 132.65 56.3647C133.214 55.8613 133.633 55.2677 133.908 54.584ZM135.357 48.3866C135.133 48.5688 135.16 48.6594 135.438 48.6583L139.79 48.6422C140.067 48.6412 140.093 48.5557 139.869 48.3859C139.12 47.802 138.355 47.0688 137.573 46.1864C136.872 47.053 136.133 47.7864 135.357 48.3866ZM141.641 51.5794C142.078 51.5777 142.298 51.8649 142.3 52.4409C142.302 53.0169 142.084 53.3057 141.647 53.3074L138.703 53.3183L138.716 56.7582C138.717 57.2062 138.665 57.5531 138.56 57.7988C138.454 58.0446 138.263 58.2426 137.986 58.393C137.549 58.6079 137.038 58.7058 136.451 58.6866C135.875 58.7101 135.479 58.4342 135.264 57.859C135.059 57.2838 135.298 57.0109 135.981 57.0404C136.45 57.06 136.717 57.043 136.781 56.9894C136.844 56.9252 136.876 56.8397 136.876 56.7331L136.863 53.3251L133.711 53.3368C133.274 53.3384 133.054 53.0512 133.052 52.4752C133.05 51.8992 133.267 51.6104 133.705 51.6088L136.857 51.5971L136.852 50.2851L135.044 50.2918C134.532 50.2937 134.275 50.0387 134.273 49.5267L134.272 49.1907L134.176 49.255C133.804 49.4911 133.408 49.3752 132.991 48.9074C132.584 48.4396 132.566 48.109 132.939 47.9156C133.557 47.6146 134.312 47.0572 135.205 46.2432C136.098 45.4185 136.687 44.723 136.973 44.1566C137.196 43.7931 137.569 43.7117 138.092 43.9125C138.626 44.1132 138.782 44.4006 138.559 44.7747L138.512 44.8549C139.754 46.173 140.963 47.1125 142.138 47.6735C142.534 47.864 142.524 48.2214 142.11 48.7456C141.696 49.2591 141.307 49.3993 140.944 49.1659L140.735 49.0227L140.737 49.5027C140.739 50.0147 140.484 50.2716 139.972 50.2735L138.692 50.2783L138.697 51.5903L141.641 51.5794ZM139.686 55.1386C139.332 54.6706 139.389 54.3184 139.858 54.082C140.326 53.8456 140.743 53.9507 141.107 54.3974C141.718 55.0671 142.066 55.5405 142.152 55.8175C142.335 56.1582 142.347 56.4834 142.188 56.7934C142.029 57.1033 141.694 57.3072 141.182 57.4051L140.973 57.1819L139.686 55.1386Z" fill="black" fill-opacity="0.85"/>
</g>
<defs>
<radialGradient id="paint0_radial_2308_6862" cx="0" cy="0" r="1" gradientUnits="userSpaceOnUse" gradientTransform="translate(0.560609 46.8353) rotate(65.4889) scale(3.32531 8.21233)">
<stop offset="0.33" stop-opacity="0"/>
<stop offset="0.655" stop-opacity="0.6"/>
<stop offset="1"/>
</radialGradient>
<radialGradient id="paint1_radial_2308_6862" cx="0" cy="0" r="1" gradientUnits="userSpaceOnUse" gradientTransform="translate(355.3 45.8572) rotate(114.511) scale(3.32531 8.21233)">
<stop offset="0.33" stop-opacity="0"/>
<stop offset="0.655" stop-opacity="0.6"/>
<stop offset="1"/>
</radialGradient>
<clipPath id="clip0_2308_6862">
<rect width="200" height="90" fill="white"/>
</clipPath>
</defs>
</svg>
