<svg width="200" height="90" viewBox="0 0 200 90" fill="none" xmlns="http://www.w3.org/2000/svg">
<g clip-path="url(#clip0_2309_7157)">
<rect width="200" height="90" fill="#FEB79D"/>
<path fill-rule="evenodd" clip-rule="evenodd" d="M-6.18027 85.5257C-5.5206 81.3514 -9.94765 77.2571 -7.65473 73.2393C-4.94813 68.4966 -1.65241 61.9915 7.77154 61.0783C17.9972 60.0873 23.5998 68.8258 33.9785 69.2048C45.8176 69.6371 56.5881 60.196 66.8872 63.2371C76.2425 65.9996 70.121 74.0119 68.9752 79.5387C68.1676 83.4341 61.5364 86.4306 61.2669 90.3457C60.8502 96.3973 75.7689 103.853 67.0229 107.895C58.3557 111.9 45.7383 103.802 34.2527 102.83C27.3162 102.243 20.5655 103.925 13.6182 103.373C4.65786 102.66 -7.2514 103.227 -11.7526 99.1698C-16.3208 95.0519 -6.92748 90.2539 -6.18027 85.5257Z" fill="#FE585B"/>
<path fill-rule="evenodd" clip-rule="evenodd" d="M28.4743 10.5302C32.6486 10.8717 36.7429 8.58004 40.7607 9.76696C45.5034 11.168 52.0085 12.874 52.9217 17.7523C53.9127 23.0456 45.1742 25.9458 44.7952 31.3183C44.3629 37.4467 53.804 43.0221 50.7629 48.3534C48.0004 53.1961 39.9881 50.0274 34.4613 49.4342C30.5659 49.0162 27.5694 45.5836 23.6543 45.444C17.6027 45.2284 10.1469 52.9509 6.10508 48.4236C2.09968 43.9371 10.1975 37.4057 11.1701 31.4602C11.7575 27.8695 10.0747 24.3751 10.6274 20.7788C11.3402 16.1405 10.7727 9.97575 14.8302 7.64571C18.9481 5.281 23.7461 10.1434 28.4743 10.5302Z" fill="#FC7443"/>
<path fill-rule="evenodd" clip-rule="evenodd" d="M173.474 4.53021C177.649 4.87169 181.743 2.58004 185.761 3.76696C190.503 5.16803 197.008 6.87405 197.922 11.7523C198.913 17.0456 190.174 19.9458 189.795 25.3183C189.363 31.4467 198.804 37.0221 195.763 42.3534C193 47.1961 184.988 44.0274 179.461 43.4342C175.566 43.0162 172.569 39.5836 168.654 39.444C162.603 39.2284 155.147 46.9509 151.105 42.4236C147.1 37.9371 155.198 31.4057 156.17 25.4602C156.757 21.8695 155.075 18.3751 155.627 14.7788C156.34 10.1405 155.773 3.97575 159.83 1.64571C163.948 -0.719004 168.746 4.14342 173.474 4.53021Z" fill="#FF8787"/>
<path fill-rule="evenodd" clip-rule="evenodd" d="M117.063 7.20494C131.49 7.9797 144.155 11.9054 154.996 17.5775C166.733 23.7188 176.896 30.8598 179.688 39.9711C183.097 51.0949 184.354 63.7453 171.749 72.2549C158.691 81.0707 136.857 81.4742 117.063 82.2497C95.2362 83.1048 71.8992 84.7511 54.6033 76.8446C35.6156 68.1646 20.8565 53.9771 24.5773 39.9711C28.0889 26.7526 52.1053 19.9805 71.5388 13.0955C85.3864 8.18958 100.98 6.34119 117.063 7.20494Z" fill="#FFAB7A"/>
<ellipse cx="177.989" cy="70.7269" rx="16.7876" ry="14.0511" fill="#F55A57"/>
<ellipse cx="173.713" cy="65.6395" rx="1.21537" ry="2.15126" fill="black"/>
<ellipse cx="182.288" cy="65.6395" rx="1.21537" ry="2.15126" fill="black"/>
<path d="M173.043 72.6426C173.079 74.5703 175.312 76.0917 178.031 76.0408C180.749 75.99 182.924 74.386 182.888 72.4584C182.852 70.5307 180.67 71.7806 177.952 71.8314C175.233 71.8823 173.007 70.7149 173.043 72.6426Z" fill="black"/>
<path d="M170.798 50.9035C173.679 48.6452 180.102 51.1915 180.102 55.0219C180.103 59.542 168.088 61.6232 165.803 61.9782C165.554 62.0169 165.305 62.044 165.056 62.039C163.427 62.0062 157.617 61.2375 170.798 50.9035Z" fill="#6E5232"/>
<path d="M170.798 50.9035C173.679 48.6452 180.102 51.1915 180.102 55.0219C180.103 59.542 168.088 61.6232 165.803 61.9782C165.554 62.0169 165.305 62.044 165.056 62.039C163.427 62.0062 157.617 61.2375 170.798 50.9035Z" fill="url(#paint0_radial_2309_7157)" fill-opacity="0.15"/>
<path d="M185.204 50.7629C182.323 48.5045 175.9 51.0509 175.9 54.8813C175.899 59.4014 187.914 61.4825 190.199 61.8375C190.448 61.8763 190.697 61.9034 190.946 61.8984C192.575 61.8656 198.385 61.0968 185.204 50.7629Z" fill="#6E5232"/>
<path d="M185.204 50.7629C182.323 48.5045 175.9 51.0509 175.9 54.8813C175.899 59.4014 187.914 61.4825 190.199 61.8375C190.448 61.8763 190.697 61.9034 190.946 61.8984C192.575 61.8656 198.385 61.0968 185.204 50.7629Z" fill="url(#paint1_radial_2309_7157)" fill-opacity="0.15"/>
<path d="M58.9787 30.8339C59.152 30.8333 59.2384 30.7463 59.2377 30.5729L59.2371 30.413C59.2365 30.2396 59.1495 30.1533 58.9762 30.1539L58.8362 30.1544C58.6628 30.1551 58.5765 30.2421 58.5771 30.4154L58.5777 30.5754C58.5784 30.7487 58.6653 30.8351 58.8387 30.8344L58.9787 30.8339ZM59.7232 29.3511C60.0432 29.35 60.2038 29.5094 60.205 29.8294L60.2098 31.1393C60.211 31.4593 60.0516 31.6199 59.7316 31.6211L58.1516 31.627C57.8316 31.6282 57.671 31.4688 57.6698 31.1488L57.665 29.8388C57.6638 29.5188 57.8232 29.3582 58.1432 29.357L59.7232 29.3511ZM55.9787 30.845C56.212 30.8442 56.3284 30.7571 56.3277 30.5837L56.3271 30.4237C56.3265 30.2504 56.2095 30.1642 55.9762 30.165C55.8028 30.1657 55.7165 30.2527 55.7171 30.426L55.7177 30.586C55.7184 30.7593 55.8054 30.8457 55.9787 30.845ZM56.8132 29.3619C57.1332 29.3607 57.2938 29.5201 57.295 29.8401L57.2998 31.1501C57.301 31.4701 57.1416 31.6307 56.8216 31.6319L55.2916 31.6376C54.9716 31.6388 54.811 31.4794 54.8099 31.1594L54.805 29.8494C54.8038 29.5294 54.9632 29.3688 55.2832 29.3676L56.8132 29.3619ZM52.5688 33.5877C52.5628 33.761 52.6465 33.8474 52.8198 33.8468L53.9898 33.8424C54.2631 33.8414 54.3939 34.0443 54.382 34.451C54.3702 34.8577 54.3484 35.2744 54.3167 35.7012C54.274 36.7881 54.1333 37.4752 53.8943 37.7628C53.7218 37.9834 53.4956 38.1143 53.2158 38.1553C52.9426 38.1963 52.7026 38.2106 52.4959 38.198C52.1693 38.1992 51.9485 38.0067 51.8338 37.6204C51.719 37.2342 51.7983 37.0539 52.0718 37.0796C52.1385 37.086 52.3385 37.0886 52.6718 37.0873C52.8051 37.0868 52.9183 37.0431 53.0113 36.9561C53.144 36.7889 53.2353 36.2352 53.2852 35.295C53.3041 35.0083 53.2269 34.8653 53.0536 34.8659L52.0036 34.8698C51.6703 34.871 51.5131 34.7283 51.532 34.4415C51.5963 33.7946 51.6235 33.0479 51.6137 32.2012C51.6189 31.7945 51.7814 31.5906 52.1014 31.5894L53.0314 31.586C53.2048 31.5853 53.2911 31.4983 53.2905 31.325L53.2883 30.735C53.2876 30.5617 53.2006 30.4753 53.0273 30.476L51.8773 30.4802C51.604 30.4812 51.4667 30.3051 51.4654 29.9518C51.464 29.5984 51.6001 29.4213 51.8734 29.4202L53.8934 29.4128C54.2134 29.4116 54.374 29.571 54.3751 29.891L54.3836 32.161C54.3847 32.4809 54.2253 32.6415 53.9053 32.6427L52.8554 32.6466C52.682 32.6473 52.5957 32.7342 52.5963 32.9076L52.5688 33.5877ZM56.022 34.4249C56.0226 34.5982 56.1096 34.6846 56.2829 34.6839L56.9729 34.6814L56.971 34.1714L56.021 34.1749L56.022 34.4249ZM56.2762 32.8639C56.1028 32.8646 56.0165 32.9516 56.0171 33.1249L56.0181 33.3749L56.9681 33.3714L56.9662 32.8614L56.2762 32.8639ZM59.0381 33.3637L59.0371 33.1137C59.0365 32.9404 58.9495 32.854 58.7762 32.8547L58.0462 32.8574L58.0481 33.3674L59.0381 33.3637ZM58.7829 34.6747C58.9562 34.674 59.0426 34.587 59.0419 34.4137L59.041 34.1637L58.051 34.1674L58.0529 34.6774L58.7829 34.6747ZM60.2078 35.9994C60.4812 35.9984 60.6184 36.1612 60.6196 36.4879C60.6209 36.8145 60.4848 36.9784 60.2115 36.9794L58.0615 36.9874L58.0649 37.9073C58.0659 38.1807 57.8864 38.318 57.5264 38.3193C57.1664 38.3207 56.9859 38.1847 56.9849 37.9113L56.9815 36.9914L54.9515 36.9989C54.6782 36.9999 54.5409 36.8371 54.5397 36.5104C54.5385 36.1837 54.6745 36.0199 54.9479 36.0189L56.9779 36.0114L56.9761 35.5514L55.4762 35.5569C55.1562 35.5581 54.9956 35.402 54.9944 35.0887L54.9848 32.4887C54.9836 32.1687 55.143 32.0081 55.463 32.0069L59.623 31.9915C59.943 31.9903 60.1035 32.1464 60.1047 32.4597L60.1143 35.0597C60.1155 35.3797 59.9561 35.5403 59.6361 35.5415L58.0561 35.5474L58.0578 36.0074L60.2078 35.9994ZM68.2109 36.8197L70.1609 36.8125C70.4342 36.8115 70.5716 37.001 70.573 37.381C70.5744 37.7543 70.4384 37.9415 70.1651 37.9425L64.7551 37.9625C64.4885 37.9635 64.3544 37.7774 64.3531 37.404C64.3517 37.024 64.4843 36.8335 64.7509 36.8326L67.0209 36.8241L67.0135 34.8242L65.4935 34.8298C65.2202 34.8308 65.0829 34.648 65.0815 34.2813C65.0801 33.908 65.2161 33.7208 65.4894 33.7198L67.0094 33.7142L67.0033 32.0742L65.9033 32.0783C65.7586 32.5921 65.6298 32.9359 65.5172 33.1097C65.4047 33.3434 65.1715 33.371 64.8175 33.1923C64.4635 33.0136 64.346 32.804 64.4651 32.5636L64.5843 32.3431L64.4645 32.4036C64.165 32.538 63.9647 32.4488 63.8635 32.1358L63.631 31.4567L63.6548 37.8766C63.6558 38.15 63.4563 38.2874 63.0563 38.2888C62.663 38.2903 62.4658 38.1544 62.4648 37.881L62.4398 31.1411C62.3638 32.2214 62.2467 32.9985 62.0885 33.4724C62.0293 33.686 61.8528 33.7399 61.5591 33.6344C61.2653 33.5288 61.1514 33.3725 61.2173 33.1656C61.3824 32.7317 61.487 32.1846 61.5313 31.5245C61.5763 31.091 61.7623 30.8969 62.0891 30.9424L62.4393 30.9911L62.4332 29.3611C62.4322 29.0878 62.6284 28.9504 63.0217 28.9489C63.4217 28.9474 63.6222 29.0834 63.6232 29.3567L63.6287 30.8367L63.7785 30.7761C64.0647 30.6551 64.2784 30.7409 64.4195 31.0337C64.4999 31.1668 64.6143 31.4397 64.7625 31.8525C65.0065 31.1316 65.1607 30.4677 65.2251 29.8608C65.264 29.5606 65.4769 29.4365 65.8637 29.4884C66.2506 29.5403 66.4212 29.6997 66.3755 29.9665L66.1992 30.9571L66.9992 30.9542L66.9934 29.4042C66.9924 29.1309 67.1886 28.9935 67.5819 28.992C67.9819 28.9905 68.1824 29.1265 68.1834 29.3998L68.1892 30.9498L69.8192 30.9437C70.0925 30.9427 70.2298 31.1289 70.2312 31.5022C70.2326 31.8755 70.0966 32.0627 69.8233 32.0637L68.1933 32.0698L68.1994 33.7098L69.6194 33.7045C69.8927 33.7035 70.0301 33.8896 70.0315 34.263C70.0328 34.6296 69.8968 34.8135 69.6235 34.8145L68.2035 34.8197L68.2109 36.8197ZM73.7367 35.6792C73.5701 35.6799 73.4871 35.7668 73.4877 35.9402L73.4916 36.9902L74.3916 36.9868L74.3867 35.6768L73.7367 35.6792ZM76.3867 35.6694L75.4767 35.6728L75.4816 36.9828L76.3916 36.9794L76.3867 35.6694ZM78.3977 35.922C78.397 35.7486 78.3134 35.6623 78.1467 35.6629L77.4767 35.6654L77.4816 36.9754L78.4016 36.972L78.3977 35.922ZM79.0733 34.7395C79.3933 34.7383 79.5539 34.8977 79.5551 35.2177L79.5616 36.9677L80.0515 36.9658C80.3249 36.9648 80.4622 37.1443 80.4635 37.5043C80.4649 37.871 80.3289 38.0548 80.0556 38.0558L71.8556 38.0862C71.5823 38.0872 71.445 37.9044 71.4436 37.5378C71.4423 37.1778 71.5783 36.9973 71.8516 36.9962L72.3816 36.9943L72.3751 35.2443C72.3739 34.9243 72.5333 34.7637 72.8533 34.7625L79.0733 34.7395ZM77.5388 33.5251C77.7121 33.5245 77.7985 33.4375 77.7978 33.2642C77.7971 33.0642 77.71 32.9645 77.5367 32.9651L74.3167 32.9771C74.1434 32.9777 74.057 33.0647 74.0577 33.238C74.0584 33.438 74.1455 33.5377 74.3188 33.5371L77.5388 33.5251ZM73.0056 32.6819C73.0044 32.3619 73.1605 32.2014 73.4738 32.2002L78.4338 32.1818C78.7538 32.1806 78.9144 32.34 78.9156 32.66L78.9198 33.81C78.921 34.13 78.765 34.2906 78.4516 34.2918L73.4917 34.3101C73.1717 34.3113 73.0111 34.1519 73.0099 33.8319L73.0056 32.6819ZM74.9093 30.9749L77.0493 30.9669C76.6551 30.7284 76.2808 30.4731 75.9264 30.2011C75.5875 30.489 75.2485 30.7469 74.9093 30.9749ZM75.5721 29.0424C75.7381 28.8618 75.9915 28.8542 76.3321 29.0196C76.6793 29.1783 76.7733 29.3479 76.614 29.5285C77.1085 29.86 77.7398 30.1944 78.5077 30.5315C79.2823 30.8687 79.8965 31.0997 80.3503 31.2247C80.6038 31.2904 80.5913 31.4971 80.3126 31.8448C80.0405 32.1859 79.7743 32.3102 79.5139 32.2178C79.0867 32.0727 78.5424 31.8147 77.8811 31.4439C77.8819 31.6705 77.769 31.7843 77.5423 31.7851L74.2923 31.7972C74.1057 31.7978 74.012 31.7049 74.0113 31.5182C73.4259 31.8537 72.8735 32.1191 72.3543 32.3143C72.0747 32.422 71.8109 32.3197 71.5631 32.0073C71.3153 31.6882 71.3212 31.4848 71.5808 31.3972C72.28 31.1679 73.0453 30.8084 73.8769 30.3187C74.7084 29.8289 75.2735 29.4035 75.5721 29.0424ZM89.3382 30.6514C89.3392 30.9247 89.1631 31.062 88.8097 31.0633C88.4564 31.0647 88.2792 30.9286 88.2782 30.6553L88.2777 30.5153L87.9877 30.5164C87.7144 30.5174 87.5771 30.3579 87.5759 30.0379C87.5747 29.7179 87.7108 29.5574 87.9841 29.5564L88.2741 29.5553L88.2731 29.2753C88.2721 29.002 88.4482 28.8647 88.8016 28.8634C89.1549 28.862 89.3321 28.9981 89.3331 29.2714L89.3341 29.5514L90.0941 29.5486C90.3675 29.5476 90.5047 29.7071 90.5059 30.027C90.5071 30.347 90.371 30.5076 90.0977 30.5086L89.3377 30.5114L89.3382 30.6514ZM86.1097 31.0733C85.7631 31.0746 85.5892 30.9386 85.5882 30.6653L85.5878 30.5353L84.9978 30.5375C84.7244 30.5385 84.5872 30.379 84.586 30.059C84.5848 29.739 84.7209 29.5785 84.9942 29.5775L85.5842 29.5753L85.5831 29.2853C85.5821 29.012 85.7549 28.8747 86.1016 28.8734C86.4549 28.8721 86.6321 29.0081 86.6331 29.2814L86.6342 29.5714L86.9342 29.5703C87.2075 29.5693 87.3448 29.7288 87.346 30.0488C87.3471 30.3688 87.2111 30.5293 86.9377 30.5303L86.6377 30.5314L86.6382 30.6614C86.6392 30.9347 86.4631 31.072 86.1097 31.0733ZM84.7096 33.7386C84.8102 33.8982 84.741 34.1151 84.502 34.3893C84.263 34.6569 84.093 34.6642 83.9921 34.4112L83.649 33.5725L83.6646 37.7925C83.6656 38.0658 83.4862 38.2031 83.1262 38.2045C82.7662 38.2058 82.5857 38.0698 82.5846 37.7965L82.572 34.3965C82.3085 35.2375 82.0905 35.7916 81.9182 36.0589C81.8122 36.246 81.6652 36.1365 81.477 35.7306C81.2888 35.3246 81.2577 35.0247 81.3836 34.8309C81.5164 34.6637 81.7016 34.2764 81.9393 33.6688C82.1771 33.0546 82.3681 32.4439 82.5126 31.8367L81.8326 31.8392C81.5592 31.8402 81.4219 31.6574 81.4205 31.2907C81.4191 30.9174 81.5551 30.7302 81.8284 30.7292L82.5584 30.7265L82.5531 29.2765C82.5521 29.0032 82.7315 28.8659 83.0915 28.8645C83.4515 28.8632 83.632 28.9992 83.6331 29.2725L83.6384 30.7225L84.2484 30.7202C84.5218 30.7192 84.6591 30.9054 84.6605 31.2787C84.6619 31.6454 84.5259 31.8292 84.2525 31.8302L83.6425 31.8325L83.6432 32.0125C83.7773 32.2053 83.9885 32.5412 84.277 33.0202C84.572 33.4924 84.7163 33.7319 84.7096 33.7386ZM86.108 33.2934L86.1086 33.4734C86.1093 33.6467 86.1963 33.733 86.3696 33.7324L88.5896 33.7242C88.7629 33.7235 88.8493 33.6365 88.8486 33.4632L88.848 33.2832L86.108 33.2934ZM86.3635 32.0924C86.1902 32.0931 86.1039 32.18 86.1045 32.3534L86.1051 32.5234L88.8451 32.5132L88.8445 32.3432C88.8438 32.1699 88.7568 32.0835 88.5835 32.0842L86.3635 32.0924ZM90.0448 35.1188C90.3181 35.1178 90.4554 35.2806 90.4566 35.6073C90.4578 35.9339 90.3217 36.0978 90.0484 36.0988L88.3684 36.105C89.5305 36.6607 90.2418 37.0247 90.5025 37.1971C90.6494 37.2766 90.5968 37.4534 90.3444 37.7277C90.0988 38.0086 89.8958 38.096 89.7354 37.99C89.4012 37.7645 88.8969 37.4831 88.2223 37.1456C87.7213 36.8808 87.6069 36.6045 87.8792 36.3168L88.0884 36.1061L87.7684 36.1072C87.5703 36.6213 87.2386 37.0492 86.7732 37.3909C86.3144 37.7326 85.812 37.9645 85.2657 38.0865C84.9527 38.1744 84.6956 38.0586 84.4944 37.7394C84.2933 37.4201 84.3659 37.2199 84.7122 37.1386C85.505 36.989 86.0904 36.6468 86.4684 36.1121L84.9184 36.1178C84.6451 36.1188 84.5078 35.956 84.5066 35.6293C84.5054 35.3027 84.6415 35.1388 84.9148 35.1378L86.8448 35.1307L86.9227 34.5604L85.4927 34.5657C85.1727 34.5668 85.0121 34.4074 85.0109 34.0874L85.0023 31.7575C85.0011 31.4375 85.1605 31.2769 85.4805 31.2757L89.5105 31.2607C89.8305 31.2596 89.9911 31.419 89.9922 31.739L90.0009 34.0689C90.0021 34.3889 89.8427 34.5495 89.5227 34.5507L88.0927 34.556L88.0248 35.1263L90.0448 35.1188ZM99.4119 28.924C99.7919 28.9226 99.9824 29.0586 99.9834 29.3319L99.9977 33.1919C99.9988 33.4786 99.9662 33.6987 99.9001 33.8523C99.834 33.9992 99.7078 34.113 99.5214 34.1937C99.2352 34.3214 98.8921 34.3827 98.4921 34.3775C98.1321 34.3855 97.8915 34.2164 97.7702 33.8701C97.6556 33.5172 97.8116 33.3467 98.2383 33.3584C98.5717 33.3772 98.7683 33.3598 98.8281 33.3062C98.8547 33.2795 98.8679 33.2361 98.8676 33.1761L98.8534 29.3361C98.8524 29.0628 99.0385 28.9254 99.4119 28.924ZM97.5736 29.3908C97.9403 29.3895 98.1241 29.5255 98.1251 29.7988L98.1346 32.3588C98.1356 32.6321 97.9528 32.7695 97.5861 32.7708C97.2261 32.7722 97.0456 32.6362 97.0446 32.3628L97.0351 29.8028C97.0341 29.5295 97.2136 29.3922 97.5736 29.3908ZM93.7305 31.2751L94.5705 31.272L94.5667 30.222L93.7267 30.2251L93.7305 31.2751ZM96.5608 36.7447L100.031 36.7318C100.304 36.7308 100.441 36.9136 100.443 37.2803C100.444 37.6469 100.308 37.8308 100.035 37.8318L91.845 37.8621C91.5716 37.8632 91.4343 37.6803 91.4329 37.3137C91.4316 36.947 91.5675 36.7632 91.8409 36.7621L95.3408 36.7492L95.3379 35.9492L92.8479 35.9584C92.5746 35.9594 92.4372 35.7799 92.4359 35.4199C92.4346 35.0599 92.5706 34.8794 92.8439 34.8784L95.3339 34.8692L95.3325 34.4992C95.3319 34.3259 95.2449 34.2395 95.0715 34.2402C94.7449 34.2414 94.581 34.082 94.5798 33.762L94.5744 32.322L93.6544 32.3254C93.4648 33.3128 93.0639 33.9676 92.4517 34.2899C92.2123 34.4441 91.9621 34.385 91.7011 34.1126C91.44 33.8336 91.4392 33.6136 91.6986 33.4527C92.078 33.2846 92.3533 32.9102 92.5244 32.3296L91.9245 32.3318C91.6511 32.3328 91.5138 32.16 91.5125 31.8133C91.5112 31.46 91.6472 31.2828 91.9206 31.2818L92.6406 31.2791L92.6367 30.2292L92.2567 30.2306C91.9833 30.2316 91.846 30.0587 91.8447 29.7121C91.8435 29.3654 91.9795 29.1916 92.2528 29.1906L95.9728 29.1768C96.2461 29.1758 96.3834 29.3486 96.3847 29.6953C96.386 30.0419 96.25 30.2158 95.9766 30.2168L95.6766 30.2179L95.6805 31.2679L96.2105 31.2659C96.4839 31.2649 96.6212 31.4411 96.6225 31.7944C96.6238 32.1411 96.4878 32.3149 96.2144 32.3159L95.6844 32.3179L95.6909 34.0679L96.0709 34.0664C96.3909 34.0653 96.5515 34.2247 96.5527 34.5447L96.5539 34.8647L99.0339 34.8555C99.3072 34.8545 99.4445 35.034 99.4459 35.3939C99.4472 35.7539 99.3112 35.9345 99.0379 35.9355L96.5579 35.9447L96.5608 36.7447ZM106.025 39.0796C105.719 39.2141 105.492 39.1549 105.345 38.9021C104.493 37.5186 104.063 35.9202 104.057 34.1068C104.05 32.2869 104.467 30.6886 105.309 29.3122C105.455 29.0583 105.681 28.9975 105.988 29.1297C106.295 29.2552 106.383 29.4382 106.25 29.6787C105.575 30.8545 105.24 32.3325 105.247 34.1124C105.253 35.8858 105.599 37.3578 106.283 38.5286C106.417 38.7681 106.331 38.9518 106.025 39.0796ZM109.386 36.8371C109.387 37.1104 109.141 37.248 108.648 37.2499C108.154 37.2517 107.907 37.1159 107.906 36.8426L107.882 30.3226C107.881 30.0026 108.04 29.8421 108.36 29.8409L112.03 29.8273C112.304 29.8263 112.441 30.0324 112.443 30.4457C112.444 30.8591 112.308 31.0662 112.035 31.0673L109.625 31.0762C109.452 31.0768 109.365 31.1638 109.366 31.3372L109.372 33.0071L111.592 32.9989C111.865 32.9979 112.003 33.2041 112.004 33.6174C112.006 34.0307 111.87 34.2379 111.597 34.2389L109.377 34.2471L109.386 36.8371ZM115.398 37.2948C115.144 37.3424 114.861 37.3468 114.548 37.308C113.941 37.3502 113.636 36.8014 113.631 35.6614L113.609 29.6614C113.608 29.3881 113.851 29.2505 114.338 29.2487C114.831 29.2469 115.078 29.3826 115.079 29.656L115.102 35.7159C115.103 36.0159 115.2 36.1656 115.393 36.1648L115.593 36.1641L115.716 36.8337C115.757 37.1002 115.651 37.2539 115.398 37.2948ZM120.277 36.0367C120.543 35.8958 120.76 35.9749 120.928 36.2743C121.096 36.5737 121.06 36.7972 120.821 36.9447C120.462 37.2127 119.905 37.3481 119.152 37.3509C118.399 37.3537 117.758 37.0928 117.229 36.568C116.701 36.0367 116.435 35.3276 116.431 34.441C116.428 33.5543 116.685 32.84 117.203 32.2981C117.721 31.7495 118.34 31.4739 119.06 31.4712C119.787 31.4685 120.355 31.7131 120.763 32.2049C121.171 32.6901 121.377 33.3326 121.38 34.1326L121.351 34.3427C121.325 34.6562 121.156 34.8135 120.843 34.8146L118.123 34.8247C117.949 34.8254 117.88 34.9256 117.914 35.1255C117.941 35.3787 118.092 35.6248 118.367 35.8638C118.641 36.1028 118.991 36.2215 119.418 36.2199C119.845 36.2183 120.131 36.1573 120.277 36.0367ZM117.938 33.6154C117.872 33.769 117.926 33.8454 118.099 33.8448L119.859 33.8383C120.032 33.8376 120.109 33.7373 120.088 33.5374C120.107 33.3507 120.027 33.151 119.846 32.9383C119.672 32.719 119.418 32.6099 119.085 32.6111C118.758 32.6123 118.482 32.72 118.256 32.9342L117.938 33.6154ZM123.514 36.8347C123.395 37.0752 123.082 37.1964 122.576 37.1982C122.069 37.2001 121.885 37.0841 122.025 36.8503L123.555 34.2746L122.116 31.9399C121.975 31.7137 122.168 31.5997 122.695 31.5977C123.222 31.5958 123.549 31.7113 123.676 31.9441L124.552 33.5309L125.296 31.9581C125.409 31.711 125.718 31.5865 126.225 31.5847C126.732 31.5828 126.919 31.6988 126.786 31.9326L125.356 34.4379L126.895 36.8422C127.042 37.0683 126.852 37.1824 126.326 37.1843C125.799 37.1863 125.469 37.0708 125.335 36.838L124.318 35.1818L123.514 36.8347ZM130.872 37.3075C130.345 37.3094 129.847 37.0679 129.379 36.583L129.32 36.7832C129.247 37.0435 129.018 37.1744 128.631 37.1758C128.251 37.1772 128.061 37.0412 128.06 36.7679L128.033 29.6079C128.032 29.3346 128.275 29.1971 128.761 29.1952C129.255 29.1934 129.502 29.3292 129.503 29.6025L129.472 32.1026C129.964 31.6541 130.48 31.4289 131.02 31.4269C131.706 31.4243 132.247 31.6823 132.643 32.2009C133.038 32.7128 133.237 33.4154 133.24 34.3087C133.244 35.202 133.01 35.9262 132.538 36.4813C132.074 37.0297 131.518 37.3051 130.872 37.3075ZM129.525 35.6825C129.84 35.9613 130.177 36.1 130.537 36.0987C130.897 36.0974 131.186 35.943 131.405 35.6355C131.624 35.328 131.733 34.8809 131.73 34.2943C131.726 33.1876 131.354 32.6357 130.614 32.6384C130.261 32.6397 129.895 32.8344 129.516 33.2225L129.525 35.6825ZM138.734 36.4783C138.209 37.0136 137.577 37.2826 136.837 37.2854C136.097 37.2881 135.463 37.0238 134.934 36.4924C134.405 35.961 134.139 35.2487 134.136 34.3554C134.133 33.462 134.394 32.7477 134.918 32.2124C135.443 31.6772 136.075 31.4082 136.815 31.4054C137.555 31.4027 138.19 31.667 138.718 32.1984C139.247 32.7297 139.513 33.4421 139.516 34.3354C139.519 35.2287 139.259 35.9431 138.734 36.4783ZM135.951 35.6186C136.165 35.9312 136.459 36.0868 136.833 36.0854C137.206 36.084 137.495 35.9263 137.701 35.6122C137.913 35.298 138.018 34.8743 138.016 34.341C138.014 33.8076 137.906 33.3847 137.691 33.0722C137.484 32.7596 137.193 32.604 136.82 32.6054C136.446 32.6068 136.154 32.7645 135.941 33.0787C135.736 33.3928 135.634 33.8165 135.636 34.3498C135.638 34.8831 135.743 35.3061 135.951 35.6186ZM141.542 36.7679C141.423 37.0084 141.11 37.1295 140.603 37.1314C140.096 37.1333 139.913 37.0173 140.052 36.7835L141.582 34.2078L140.144 31.8731C140.003 31.6469 140.196 31.5329 140.722 31.5309C141.249 31.529 141.576 31.6444 141.704 31.8773L142.579 33.4641L143.324 31.8913C143.436 31.6442 143.746 31.5197 144.252 31.5178C144.759 31.516 144.946 31.6319 144.814 31.8658L143.383 34.3711L144.922 36.7754C145.069 37.0015 144.88 37.1156 144.353 37.1175C143.826 37.1195 143.496 37.004 143.362 36.7712L142.346 35.1149L141.542 36.7679ZM146.944 38.7479C146.805 39.0018 146.582 39.0626 146.275 38.9304C145.975 38.8048 145.887 38.6218 146.013 38.3814C146.695 37.2055 147.033 35.7309 147.027 33.9576C147.02 32.1776 146.671 30.7022 145.98 29.5314C145.853 29.2919 145.939 29.1082 146.238 28.9805C146.544 28.846 146.768 28.9052 146.909 29.158C147.774 30.5215 148.21 32.1165 148.217 33.9432C148.223 35.7632 147.799 37.3647 146.944 38.7479Z" fill="#FE585B"/>
<path d="M63.6072 47.4152C63.3299 47.4163 63.1917 47.5555 63.1928 47.8328L63.1953 48.5208C63.1969 48.9581 62.8777 49.178 62.2377 49.1803C61.6084 49.1827 61.2929 48.9652 61.2913 48.5278L61.2835 46.4159C61.2816 45.9039 61.5366 45.6469 62.0486 45.645L67.3446 45.6254L67.1349 45.1622C66.9521 44.7682 67.2071 44.4952 67.8999 44.3433C68.5926 44.1914 69.0304 44.3125 69.2132 44.7065L69.6326 45.6169L74.5766 45.5986C75.0885 45.5967 75.3455 45.8517 75.3474 46.3637L75.3552 48.4757C75.3568 48.913 75.0217 49.133 74.3497 49.1354C73.6777 49.1379 73.3409 48.9205 73.3392 48.4832L73.3367 47.7952C73.3357 47.5179 73.1965 47.3797 72.9191 47.3807L63.6072 47.4152ZM69.8539 49.2161C69.5011 48.9827 69.5426 48.6786 69.9785 48.3036C70.4252 47.9286 70.8249 47.8525 71.1777 48.0752C71.5732 48.2871 72.1666 48.6742 72.958 49.2366C73.7601 49.799 74.2362 50.1705 74.3862 50.3513C74.6644 50.5956 74.5643 50.9267 74.0858 51.3444C73.6074 51.7622 73.2344 51.8489 72.9668 51.6046C72.8275 51.4238 72.3674 51.0361 71.5865 50.4417C70.8163 49.8472 70.2388 49.4387 69.8539 49.2161ZM64.9222 48.2104C65.1876 47.8894 65.6301 47.8344 66.2496 48.0455C66.869 48.2458 67.0513 48.5172 66.7966 48.8594C66.5313 49.2444 66.016 49.769 65.2504 50.4332C64.4955 51.0973 63.9052 51.5422 63.4793 51.7678C63.1281 51.9717 62.7275 51.8239 62.2777 51.3242C61.8385 50.8245 61.8106 50.4833 62.1939 50.3005C62.5347 50.1606 63.0402 49.8334 63.7103 49.3189C64.3804 48.8151 64.7844 48.4456 64.9222 48.2104ZM65.8238 54.0471L71.1678 54.0273C70.1091 53.3165 69.2746 52.6423 68.6643 52.0045C68.4822 51.8132 68.3009 51.8192 68.1203 52.0226C67.5893 52.6432 66.8238 53.318 65.8238 54.0471ZM65.5152 57.1202C65.5162 57.3976 65.6554 57.5357 65.9327 57.5347L70.7327 57.5169C71.01 57.5159 71.1482 57.3767 71.1472 57.0994L71.1422 55.7554L65.5102 55.7763L65.5152 57.1202ZM67.616 49.7844C67.8493 49.4209 68.2491 49.3607 68.8154 49.604C69.3816 49.8472 69.5799 50.1025 69.4102 50.3698C70.9736 51.996 72.9462 53.242 75.3281 54.1079C75.8087 54.2767 75.8474 54.6339 75.4441 55.1794C75.0408 55.7249 74.6414 55.9131 74.2462 55.7439C74.0859 55.6698 73.7225 55.4845 73.1561 55.1879L73.1682 58.4519C73.1701 58.9639 72.915 59.2208 72.403 59.2227L64.3711 59.2525C63.8591 59.2544 63.6021 58.9993 63.6002 58.4874L63.5889 55.4314C63.014 55.7215 62.6307 55.9043 62.4389 55.9796C62.0342 56.1518 61.6229 55.9773 61.205 55.4562C60.7977 54.9244 60.8071 54.583 61.2332 54.4321C62.4051 54.0331 63.6346 53.3725 64.9219 52.4504C66.2305 51.5282 67.1285 50.6396 67.616 49.7844ZM86.6355 57.17C86.6366 57.4473 86.7757 57.5854 87.0531 57.5844L88.1731 57.5803C88.4504 57.5792 88.5885 57.4401 88.5875 57.1627L88.5827 55.8667L87.0467 55.8724C86.7694 55.8735 86.6312 56.0126 86.6323 56.29L86.6355 57.17ZM81.6131 57.6046C81.8798 57.6036 82.0126 57.4644 82.0116 57.1871L82.0083 56.3071C82.0073 56.0298 81.8681 55.8916 81.5908 55.8927L80.1028 55.8982L80.1076 57.1942C80.1086 57.4715 80.2478 57.6096 80.5251 57.6086L81.6131 57.6046ZM81.3381 48.1655C81.6154 48.1645 81.7536 48.0253 81.7526 47.748L81.7492 46.852C81.7482 46.5747 81.609 46.4365 81.3317 46.4375L80.0997 46.4421C79.8224 46.4431 79.6842 46.5823 79.6853 46.8597L79.6886 47.7556C79.6896 48.033 79.8288 48.1711 80.1061 48.1701L81.3381 48.1655ZM87.2037 46.4158C86.9263 46.4168 86.7882 46.556 86.7892 46.8333L86.7925 47.7293C86.7936 48.0066 86.9327 48.1448 87.2101 48.1438L88.5381 48.1388C88.8154 48.1378 88.9535 47.9986 88.9525 47.7213L88.9492 46.8253C88.9482 46.548 88.809 46.4098 88.5317 46.4109L87.2037 46.4158ZM91.1725 50.9451C91.6098 50.9435 91.8295 51.2147 91.8315 51.7587C91.8335 52.3027 91.6159 52.5755 91.1785 52.5771L88.9705 52.5853C90.3068 53.359 91.2211 53.9849 91.7135 54.4631C92.0024 54.7074 91.9289 55.0223 91.493 55.4079C91.0571 55.7829 90.6892 55.8269 90.3895 55.54L90.3999 58.356C90.4018 58.868 90.1468 59.125 89.6348 59.1269L85.6828 59.1415C85.1815 59.1434 84.9299 58.8883 84.928 58.3763L84.9159 55.1123C84.914 54.6003 85.169 54.3434 85.681 54.3415L88.369 54.3315C88.6463 54.3305 88.6728 54.2611 88.4482 54.1232C87.7851 53.6457 86.8926 53.137 85.7706 52.5971L82.6346 52.6088L80.6091 54.3603L83.0251 54.3513C83.537 54.3494 83.794 54.6045 83.7959 55.1165L83.808 58.3805C83.8099 58.8924 83.5548 59.1494 83.0428 59.1513L79.1709 59.1656C78.6589 59.1675 78.4019 58.9125 78.4 58.4005L78.3899 55.6645L78.1024 55.7936C77.7083 55.9657 77.3344 55.8071 76.9806 55.3177C76.6374 54.8177 76.6788 54.4868 77.1049 54.3253C78.0636 53.9804 79.0535 53.4114 80.0746 52.6182L77.4986 52.6278C77.0613 52.6294 76.8416 52.3582 76.8396 51.8142C76.8376 51.2702 77.0552 50.9974 77.4926 50.9958L81.7645 50.98L82.3691 50.0497C82.5176 49.8252 82.4532 49.7134 82.1759 49.7144L78.7519 49.7271C78.2399 49.729 77.9829 49.474 77.981 48.962L77.9689 45.682C77.967 45.17 78.222 44.9131 78.734 44.9112L82.782 44.8962C83.294 44.8943 83.5509 45.1493 83.5528 45.6613L83.5667 49.4053L83.7429 49.4526C84.3727 49.5676 84.5339 49.903 84.2266 50.4588L83.9405 50.9719L87.6205 50.9583L86.9633 50.6247C86.3969 50.3495 86.2891 50.0405 86.6398 49.6979L85.8718 49.7007C85.3598 49.7026 85.1029 49.4476 85.101 48.9356L85.0888 45.6556C85.0869 45.1436 85.342 44.8867 85.854 44.8848L89.95 44.8696C90.462 44.8677 90.7189 45.1227 90.7208 45.6347L90.733 48.9147C90.7349 49.4267 90.4798 49.6837 89.9678 49.6856L88.0158 49.6928L88.9138 50.2175C89.2559 50.4189 89.2834 50.6641 88.9965 50.9532L91.1725 50.9451ZM101.626 48.1543C102.213 48.1522 102.507 48.3697 102.509 48.8071L102.512 49.7831C102.514 50.2204 102.221 50.4401 101.635 50.4423C101.059 50.4445 100.77 50.2269 100.768 49.7895L100.765 48.8135C100.763 48.3762 101.05 48.1565 101.626 48.1543ZM103.603 54.8671C104.04 54.8654 104.26 55.2006 104.263 55.8726C104.265 56.5446 104.091 56.8813 103.739 56.8826C104.157 57.4677 104.483 57.7598 104.718 57.7589C104.888 57.7583 105.011 57.6992 105.085 57.5816C105.266 57.3462 105.38 56.5245 105.428 55.1163C105.458 54.6468 105.335 54.4126 105.057 54.4137L101.505 54.4268L101.507 54.8748L103.603 54.8671ZM101.516 57.3548L102.54 57.303C102.39 57.1116 102.422 56.9728 102.635 56.8867L101.515 56.8908L101.516 57.3548ZM102.408 56.1355C102.685 56.1345 102.823 55.9633 102.822 55.622L101.51 55.6268L101.512 56.1388L102.408 56.1355ZM98.5659 55.6377C98.5672 55.9791 98.7065 56.1492 98.9838 56.1482L99.9118 56.1447L99.9099 55.6327L98.5659 55.6377ZM99.9055 54.4328L98.6095 54.4376L98.1151 54.8874L99.9071 54.8808L99.9055 54.4328ZM96.0254 47.9511L96.0312 49.5191C96.0385 51.4924 95.9277 53.2315 95.6986 54.7364C96.646 54.2102 97.4064 53.5993 97.9798 52.9039L97.4358 52.9059C96.9238 52.9078 96.6668 52.6527 96.665 52.1408L96.6623 51.4368C96.6604 50.9248 96.7662 50.6684 96.9795 50.6676L96.9148 50.4918C96.7743 49.9803 96.9385 49.6917 97.4076 49.626C97.6635 49.5824 98.287 49.4627 99.2783 49.267C98.4668 49.0461 97.917 48.9254 97.629 48.9052C97.2234 48.8427 97.0628 48.6779 97.1471 48.4109C97.2421 48.1333 97.5031 48.031 97.93 48.104L99.0668 48.3238C99.6966 48.4388 99.9217 48.7313 99.7421 49.2013C100.147 49.1252 100.356 49.2417 100.367 49.551C100.379 49.8603 100.172 50.0584 99.7456 50.1453L97.4115 50.666L105.059 50.6376C105.497 50.636 105.363 50.5672 104.659 50.4311C103.954 50.2844 103.431 50.0357 103.088 49.6849C103.183 49.4072 103.342 49.2786 103.566 49.2992C103.319 48.7881 103.499 48.4407 104.107 48.2571L105.257 47.9169L96.0254 47.9511ZM105.043 46.2857C105.042 46.0617 104.903 45.9502 104.626 45.9512L96.4341 45.9816C96.1568 45.9826 96.0186 46.1218 96.0197 46.3991L96.0209 46.7351L104.629 46.7032C104.906 46.7022 105.044 46.563 105.043 46.2857ZM104.601 52.1113C104.878 52.1103 105.016 51.9711 105.015 51.6938L105.014 51.4058L103.654 51.4108L103.657 52.1148L104.601 52.1113ZM102.217 52.1202L102.214 51.4162L100.886 51.4211L100.889 52.1251L102.217 52.1202ZM99.4489 52.1304L99.4463 51.4264L98.1503 51.4312L98.1529 52.1352L99.4489 52.1304ZM99.5816 53.378L106.446 53.3525C106.958 53.3506 107.209 53.643 107.201 54.2297C107.214 54.987 107.159 55.8352 107.034 56.7744C106.91 57.7028 106.757 58.2741 106.577 58.4881C106.364 58.7662 106.056 58.9327 105.65 58.9875C105.384 59.0418 105.155 59.0587 104.963 59.038C104.461 59.0399 104.172 58.8383 104.096 58.4333L103.793 58.5624C103.537 58.67 103.35 58.596 103.232 58.3405C101.27 58.4864 99.233 58.6273 97.1215 58.7631C96.631 58.7969 96.3636 58.6059 96.3194 58.1901C96.2859 57.7849 96.3598 57.5819 96.5411 57.5812C96.7331 57.5699 97.8582 57.5124 99.9165 57.4087L99.9146 56.8967L97.9786 56.9039C97.4666 56.9058 97.2097 56.6508 97.2078 56.1388L97.2056 55.5628C96.78 55.8417 96.4012 55.8058 96.0692 55.455L95.6519 55.1045C95.3595 56.7803 95.0278 57.9442 94.6569 58.5962C94.5088 58.9275 94.1568 58.9394 93.601 58.6322C93.0558 58.3248 92.8521 58.0323 92.9897 57.7544C93.8055 56.2474 94.206 53.5099 94.1913 49.5419L94.1765 45.5579C94.1746 45.0459 94.4297 44.789 94.9417 44.7871L106.142 44.7456C106.643 44.7437 106.895 44.9988 106.896 45.5108L106.902 47.1428C106.904 47.6548 106.649 47.9117 106.137 47.9136L105.801 47.9149C106.081 48.4045 106.012 48.7247 105.597 48.8756C105.405 48.9723 104.744 49.1188 103.615 49.315C104.628 49.4286 105.279 49.5381 105.568 49.6437C106.038 49.7593 106.172 50.0895 105.971 50.6342C106.377 50.6327 106.581 51.0053 106.584 51.752C106.586 52.4986 106.369 52.8728 105.932 52.8744L99.9318 52.8966L99.5816 53.378ZM119.962 56.7264L123.082 56.7149C123.519 56.7132 123.739 57.0164 123.741 57.6244C123.744 58.2218 123.526 58.5212 123.089 58.5229L114.433 58.5549C114.006 58.5565 113.792 58.2586 113.79 57.6613C113.787 57.0533 113.999 56.7485 114.426 56.747L118.058 56.7335L118.046 53.5335L115.614 53.5425C115.177 53.5441 114.957 53.2516 114.955 52.665C114.953 52.0676 115.17 51.7682 115.608 51.7665L118.04 51.7575L118.03 49.1335L116.27 49.1401C116.038 49.9623 115.832 50.5124 115.652 50.7904C115.472 51.1644 115.099 51.2084 114.533 50.9225C113.966 50.6366 113.778 50.3013 113.969 49.9166L114.16 49.5639L113.968 49.6606C113.489 49.8757 113.168 49.7329 113.006 49.2322L112.634 48.1455L112.672 58.4175C112.674 58.8548 112.355 59.0746 111.715 59.077C111.085 59.0794 110.77 58.8619 110.768 58.4245L110.728 47.6406C110.607 49.3691 110.419 50.6124 110.166 51.3707C110.071 51.7124 109.789 51.7988 109.319 51.6298C108.849 51.4609 108.667 51.2109 108.772 50.8799C109.036 50.1855 109.204 49.3103 109.275 48.254C109.347 47.5604 109.644 47.2499 110.167 47.3227L110.727 47.4006L110.718 44.7926C110.716 44.3553 111.03 44.1355 111.659 44.1331C112.299 44.1307 112.62 44.3482 112.622 44.7856L112.631 47.1535L112.87 47.0567C113.328 46.863 113.67 47.0004 113.896 47.4689C114.025 47.6817 114.207 48.1184 114.445 48.7788C114.835 47.6254 115.082 46.5631 115.185 45.5921C115.247 45.1118 115.588 44.9132 116.207 44.9963C116.826 45.0793 117.099 45.3343 117.025 45.7612L116.743 47.3463L118.023 47.3416L118.014 44.8616C118.012 44.4242 118.326 44.2044 118.956 44.2021C119.596 44.1997 119.916 44.4172 119.918 44.8545L119.927 47.3345L122.535 47.3248C122.973 47.3232 123.192 47.6211 123.195 48.2184C123.197 48.8157 122.979 49.1152 122.542 49.1168L119.934 49.1265L119.944 51.7505L122.216 51.742C122.653 51.7404 122.873 52.0383 122.875 52.6356C122.877 53.2223 122.66 53.5164 122.222 53.518L119.95 53.5265L119.962 56.7264ZM125.776 53.8889C125.338 53.8905 125.119 53.614 125.117 53.0593C125.114 52.494 125.332 52.2105 125.769 52.2089L128.825 52.1975C129.263 52.1959 129.482 52.4778 129.485 53.0431C129.487 53.5978 129.269 53.8759 128.832 53.8775L125.776 53.8889ZM132.239 57.6089C131.802 57.6106 131.582 57.2967 131.58 56.6674C131.577 56.0274 131.795 55.7066 132.232 55.7049L134.12 55.6979L134.094 48.626C134.093 48.3487 133.959 48.2105 133.693 48.2115L132.605 48.2155C132.167 48.2171 131.948 47.9779 131.946 47.4979C131.944 47.0073 132.178 46.7078 132.647 46.5993C133.286 46.4903 133.968 46.2051 134.691 45.7438L135.667 45.7401C136.179 45.7382 136.436 45.9933 136.438 46.5053L136.472 55.6892L138.04 55.6834C138.478 55.6818 138.697 56.001 138.7 56.641C138.702 57.2703 138.485 57.5858 138.047 57.5874L132.239 57.6089Z" fill="black" fill-opacity="0.85"/>
</g>
<defs>
<radialGradient id="paint0_radial_2309_7157" cx="0" cy="0" r="1" gradientUnits="userSpaceOnUse" gradientTransform="translate(0.560609 46.8353) rotate(65.4889) scale(3.32531 8.21233)">
<stop offset="0.33" stop-opacity="0"/>
<stop offset="0.655" stop-opacity="0.6"/>
<stop offset="1"/>
</radialGradient>
<radialGradient id="paint1_radial_2309_7157" cx="0" cy="0" r="1" gradientUnits="userSpaceOnUse" gradientTransform="translate(355.3 45.8572) rotate(114.511) scale(3.32531 8.21233)">
<stop offset="0.33" stop-opacity="0"/>
<stop offset="0.655" stop-opacity="0.6"/>
<stop offset="1"/>
</radialGradient>
<clipPath id="clip0_2309_7157">
<rect width="200" height="90" fill="white"/>
</clipPath>
</defs>
</svg>
