<svg width="200" height="90" viewBox="0 0 200 90" fill="none" xmlns="http://www.w3.org/2000/svg">
<g clip-path="url(#clip0_2306_6185)">
<rect width="200" height="90" fill="#BDE3FF"/>
<path fill-rule="evenodd" clip-rule="evenodd" d="M-6.18027 85.5257C-5.5206 81.3514 -9.94765 77.2571 -7.65473 73.2393C-4.94813 68.4966 -1.65241 61.9915 7.77154 61.0783C17.9972 60.0873 23.5998 68.8258 33.9785 69.2048C45.8176 69.6371 56.5881 60.196 66.8872 63.2371C76.2425 65.9996 70.121 74.0119 68.9752 79.5387C68.1676 83.4341 61.5364 86.4306 61.2669 90.3457C60.8502 96.3973 75.7689 103.853 67.0229 107.895C58.3557 111.9 45.7383 103.802 34.2527 102.83C27.3162 102.243 20.5655 103.925 13.6182 103.373C4.65786 102.66 -7.2514 103.227 -11.7526 99.1698C-16.3208 95.0519 -6.92748 90.2539 -6.18027 85.5257Z" fill="#005EA5"/>
<path fill-rule="evenodd" clip-rule="evenodd" d="M28.4743 10.5302C32.6486 10.8717 36.7429 8.58004 40.7607 9.76696C45.5034 11.168 52.0085 12.874 52.9217 17.7523C53.9127 23.0456 45.1742 25.9458 44.7952 31.3183C44.3629 37.4467 53.804 43.0221 50.7629 48.3534C48.0004 53.1961 39.9881 50.0274 34.4613 49.4342C30.5659 49.0162 27.5694 45.5836 23.6543 45.444C17.6027 45.2284 10.1469 52.9509 6.10508 48.4236C2.09968 43.9371 10.1975 37.4057 11.1701 31.4602C11.7575 27.8695 10.0747 24.3751 10.6274 20.7788C11.3402 16.1405 10.7727 9.97575 14.8302 7.64571C18.9481 5.281 23.7461 10.1434 28.4743 10.5302Z" fill="#2382C9"/>
<path fill-rule="evenodd" clip-rule="evenodd" d="M173.474 4.53021C177.649 4.87169 181.743 2.58004 185.761 3.76696C190.503 5.16803 197.008 6.87405 197.922 11.7523C198.913 17.0456 190.174 19.9458 189.795 25.3183C189.363 31.4467 198.804 37.0221 195.763 42.3534C193 47.1961 184.988 44.0274 179.461 43.4342C175.566 43.0162 172.569 39.5836 168.654 39.444C162.603 39.2284 155.147 46.9509 151.105 42.4236C147.1 37.9371 155.198 31.4057 156.17 25.4602C156.757 21.8695 155.075 18.3751 155.627 14.7788C156.34 10.1405 155.773 3.97575 159.83 1.64571C163.948 -0.719004 168.746 4.14342 173.474 4.53021Z" fill="#69BAF5"/>
<path fill-rule="evenodd" clip-rule="evenodd" d="M117.063 7.20494C131.49 7.9797 144.155 11.9054 154.996 17.5775C166.733 23.7188 176.896 30.8598 179.688 39.9711C183.097 51.0949 184.354 63.7453 171.749 72.2549C158.691 81.0707 136.857 81.4742 117.063 82.2497C95.2362 83.1048 71.8992 84.7511 54.6033 76.8446C35.6156 68.1646 20.8565 53.9771 24.5773 39.9711C28.0889 26.7526 52.1053 19.9805 71.5388 13.0955C85.3864 8.18958 100.98 6.34119 117.063 7.20494Z" fill="#C9F4FF"/>
<path d="M177.967 51.2804L196.726 84.9582L159.338 85.0303L177.967 51.2804Z" fill="#228CDA"/>
<path d="M173.373 78.4648H182.74" stroke="black" stroke-width="2" stroke-linecap="round"/>
<ellipse cx="171.472" cy="68.8528" rx="4.64254" ry="4.79533" transform="rotate(-0.110477 171.472 68.8528)" stroke="#FA8F21" stroke-width="2"/>
<ellipse cx="184.669" cy="68.8118" rx="4.64254" ry="4.79533" transform="rotate(-0.110477 184.669 68.8118)" stroke="#FA8F21" stroke-width="2"/>
<path d="M175.55 68.4723C175.55 68.4723 176.816 68.054 177.654 68.0337C178.594 68.011 180.025 68.4637 180.025 68.4637" stroke="#FA8F21" stroke-width="2"/>
<ellipse cx="171.471" cy="68.8518" rx="1.89842" ry="1.9609" transform="rotate(-0.110477 171.471 68.8518)" fill="black"/>
<ellipse cx="184.67" cy="68.8264" rx="1.89842" ry="1.9609" transform="rotate(-0.110477 184.67 68.8264)" fill="black"/>
<path d="M83.0948 35.3674C83.1943 35.2204 83.1573 35.1472 82.984 35.1478L80.894 35.1556L80.3653 35.4975C81.02 35.8618 81.5212 36.1999 81.869 36.512C82.4343 36.1365 82.8429 35.755 83.0948 35.3674ZM81.6512 31.7127C81.7708 31.5856 81.7439 31.5224 81.5705 31.523L79.4406 31.5309L79.0715 31.7923C79.686 32.11 80.1471 32.3983 80.4547 32.6572C80.9869 32.3285 81.3857 32.0137 81.6512 31.7127ZM83.6902 34.1152C83.9635 34.1075 84.2337 34.1732 84.5009 34.3122C84.7681 34.4445 84.8421 34.6443 84.7231 34.9114C84.2608 36.0864 83.3443 37.0432 81.9737 37.7816C81.3084 38.1374 80.6061 38.4233 79.8669 38.6394C79.1344 38.8554 78.4583 39.0046 77.8386 39.0869C77.5521 39.1347 77.3248 38.9755 77.1568 38.6094C76.9888 38.2501 77.058 38.0531 77.3646 38.0187C78.5974 37.8874 79.743 37.5832 80.8012 37.1059C80.42 36.7673 79.9287 36.4192 79.3273 36.0614C78.8948 36.2763 78.552 36.4276 78.299 36.5152C78.0327 36.6162 77.7757 36.5138 77.5279 36.2081C77.2867 35.9023 77.3193 35.7022 77.6257 35.6077C79.124 35.1488 80.3279 34.421 81.2376 33.4243C79.9807 34.2556 78.5828 34.8275 77.0439 35.1398C76.7508 35.2009 76.5103 35.0618 76.3224 34.7225C76.1411 34.3832 76.1904 34.1897 76.4702 34.142C77.4296 33.9851 78.4118 33.6748 79.4168 33.211C79.0023 32.8992 78.5546 32.6142 78.0736 32.356C77.7276 32.5373 77.4747 32.6582 77.3149 32.7188C77.0553 32.8264 76.7917 32.7341 76.5239 32.4417C76.2562 32.1494 76.2754 31.9527 76.5817 31.8515C77.9268 31.4199 78.9113 30.8262 79.5351 30.0706C79.7144 29.8699 80.0175 29.8154 80.4445 29.9072C80.8782 29.9923 81.002 30.1318 80.8161 30.3258L80.6169 30.5466L82.4067 30.4899C82.68 30.4889 82.9437 30.5613 83.1975 30.707C83.4514 30.8527 83.5121 31.0392 83.3796 31.2663C83.0553 31.9009 82.4377 32.5532 81.5268 33.2232L82.1474 33.3709C82.5344 33.4561 82.5918 33.6459 82.3195 33.9403L82.1103 34.1611L83.6902 34.1152ZM90.4502 36.8202C90.576 36.5864 90.7791 36.5189 91.0595 36.6179C91.3399 36.7169 91.4238 36.8899 91.3114 37.137C91.2587 37.3038 91.0998 37.5878 90.8346 37.9887C90.5694 38.3831 90.3869 38.6104 90.2871 38.6708C90.1077 38.8448 89.8876 38.7956 89.6265 38.5232C89.3722 38.2575 89.3448 38.0476 89.5442 37.8935C89.6174 37.8666 89.7802 37.6993 90.0324 37.3917C90.2912 37.0841 90.4305 36.8936 90.4502 36.8202ZM91.2767 33.1771L91.2778 33.4571C91.2784 33.6304 91.3654 33.7167 91.5387 33.7161L92.7987 33.7114C92.9721 33.7108 93.0584 33.6238 93.0578 33.4505L93.0567 33.1705L91.2767 33.1771ZM93.0516 31.7805L91.2716 31.7871L91.2735 32.3071L93.0535 32.3005L93.0516 31.7805ZM88.0955 32.8489L87.4257 32.9013C87.2756 33.7886 87.158 34.4223 87.0727 34.8027C87.0465 34.9294 87.0937 35.0526 87.2141 35.1721L87.6556 35.5805C87.9261 34.8128 88.0727 33.9023 88.0955 32.8489ZM94.5945 35.2648C94.8678 35.2638 95.0051 35.4299 95.0064 35.7633C95.0076 36.0966 94.8715 36.2638 94.5982 36.2648L92.8382 36.2713L92.8472 38.6813C92.8482 38.9546 92.6553 39.092 92.2687 39.0934C91.882 39.0949 91.6882 38.9589 91.6872 38.6856L91.6782 36.2756L89.8082 36.2825C89.5349 36.2835 89.3976 36.1174 89.3964 35.7841C89.3952 35.4507 89.5312 35.2836 89.8045 35.2825L91.6745 35.2756L91.6723 34.6656L90.6723 34.6693C90.3589 34.6705 90.2017 34.5111 90.2005 34.1911L90.1916 31.7911L89.9016 31.7922C89.6283 31.7932 89.491 31.627 89.4897 31.2937C89.4885 30.9604 89.6246 30.7932 89.8979 30.7922L90.1879 30.7911L90.1856 30.1711C90.1846 29.8978 90.3641 29.7604 90.7241 29.7591C91.0841 29.7578 91.2646 29.8938 91.2656 30.1671L91.2679 30.7871L93.0479 30.7805L93.0456 30.1605C93.0446 29.8872 93.2307 29.7498 93.604 29.7484C93.984 29.747 94.1745 29.883 94.1756 30.1563L94.1779 30.7763L94.5379 30.775C94.8112 30.774 94.9485 30.9401 94.9497 31.2734C94.9509 31.6068 94.8149 31.7739 94.5416 31.775L94.1816 31.7763L94.1905 34.1763C94.1916 34.4963 94.0322 34.6569 93.7122 34.6581L92.8323 34.6613L92.8345 35.2713L94.5945 35.2648ZM93.3821 37.3193C93.1675 36.9868 93.2034 36.7633 93.4896 36.6489C93.7758 36.5278 94.0363 36.6402 94.2709 36.986C94.7064 37.5844 94.931 37.9169 94.9446 37.9835C95.0318 38.1365 95.019 38.2799 94.9062 38.4137C94.7934 38.5541 94.577 38.6449 94.2572 38.6861L94.1568 38.5764L93.3821 37.3193ZM89.0814 31.7452C89.3547 31.7309 89.492 31.8937 89.4932 32.2337C89.4945 32.5737 89.3585 32.7542 89.0852 32.7752C89.0505 34.1953 88.8349 35.3928 88.4385 36.3676C88.907 36.8392 89.1814 37.1349 89.2618 37.2546C89.4025 37.4207 89.3567 37.6576 89.1245 37.9651C88.8923 38.2659 88.7125 38.3333 88.5852 38.1671C88.5516 38.0939 88.3373 37.8313 87.9423 37.3795C87.5579 38.0009 87.183 38.4589 86.8174 38.7536C86.6114 38.9411 86.3813 38.9119 86.127 38.6662C85.8795 38.4271 85.862 38.2138 86.0747 38.0264C86.4868 37.6915 86.8683 37.2101 87.2193 36.5821C86.9316 36.2899 86.6338 35.9943 86.326 35.6954C86.0784 35.443 85.9842 35.1934 86.0433 34.9465C86.155 34.5261 86.2826 33.8656 86.4259 32.965L86.316 32.9755C86.0427 32.9898 85.8854 32.8204 85.8441 32.4672C85.8094 32.1073 85.9287 31.9202 86.202 31.9059L86.5819 31.8845L86.7458 30.2438C86.7715 29.9771 86.951 29.8497 87.2844 29.8618C87.6245 29.8739 87.7817 30.0133 87.756 30.2801L87.5818 31.8408L88.1016 31.8088L88.1008 31.5888C88.0998 31.3155 88.2626 31.1782 88.5893 31.177C88.916 31.1758 89.0798 31.3119 89.0808 31.5852L89.0814 31.7452ZM103.981 31.67L103.98 31.46C103.98 31.2933 103.893 31.2103 103.72 31.2109L103.45 31.2119L103.451 31.6719L103.981 31.67ZM103.726 32.8609C103.899 32.8603 103.985 32.7733 103.985 32.6L103.984 32.39L103.454 32.3919L103.456 32.8619L103.726 32.8609ZM101.024 32.4009L101.025 32.6109C101.025 32.7843 101.112 32.8706 101.286 32.87L101.536 32.869L101.534 32.399L101.024 32.4009ZM101.28 31.22C101.106 31.2206 101.02 31.3043 101.02 31.4709L101.021 31.6809L101.531 31.6791L101.53 31.2191L101.28 31.22ZM102.734 32.3946L102.254 32.3964L102.256 32.8664L102.736 32.8646L102.734 32.3946ZM102.251 31.6764L102.731 31.6746L102.73 31.2146L102.25 31.2164L102.251 31.6764ZM104.417 30.4283C104.737 30.4272 104.897 30.5832 104.898 30.8966L104.907 33.1566C104.908 33.4765 104.749 33.6371 104.429 33.6383L100.629 33.6524C100.309 33.6536 100.148 33.4975 100.147 33.1842L100.138 30.9242C100.137 30.6042 100.297 30.4436 100.617 30.4424L101.317 30.4398L101.316 30.1398C101.315 29.8665 101.467 29.7293 101.774 29.7281C102.081 29.727 102.235 29.8631 102.236 30.1364L102.237 30.4364L102.677 30.4348L102.676 30.1348C102.675 29.8615 102.827 29.7242 103.134 29.7231C103.447 29.7219 103.605 29.858 103.606 30.1314L103.607 30.4314L104.417 30.4283ZM104.69 33.9774C104.963 33.9763 105.1 34.1192 105.101 34.4058C105.102 34.6858 104.966 34.8263 104.693 34.8274L100.413 34.8432C100.14 34.8442 100.002 34.7047 100.001 34.4247C100 34.1381 100.136 33.9942 100.41 33.9932L104.69 33.9774ZM97.3761 35.6945L97.3772 35.9945C97.3783 36.2811 97.3694 36.5878 97.3506 36.9146L98.5486 36.3501L98.5469 35.9101L98.4673 36.0004C98.2548 36.2346 98.0282 36.2487 97.7874 36.043L97.3761 35.6945ZM97.4683 30.8841C97.295 30.8847 97.2086 30.9717 97.2092 31.1451L97.2157 32.8951L97.6057 32.8936L97.6016 31.7736C97.6004 31.4536 97.7598 31.293 98.0798 31.2918L98.5698 31.29L98.5692 31.14C98.5686 30.9667 98.4816 30.8803 98.3083 30.881L97.4683 30.8841ZM98.2057 32.8914L98.5757 32.89L98.5723 31.96L98.4623 31.9604C98.2889 31.9611 98.2026 32.0447 98.2032 32.2114L98.2057 32.8914ZM98.8102 34.0892C98.9835 34.0885 99.0698 34.0015 99.0692 33.8282C99.0689 33.7349 98.982 33.6885 98.8087 33.6892L97.0387 33.6957C96.8654 33.6964 96.779 33.7833 96.7797 33.9567C96.78 34.05 96.8669 34.0964 97.0402 34.0957L98.8102 34.0892ZM97.373 34.8645L97.3751 35.4345C97.601 35.207 97.8375 35.1794 98.0848 35.3519L98.5461 35.6801L98.543 34.8601L97.373 34.8645ZM99.9697 33.9549C99.9709 34.2749 99.8215 34.4354 99.5215 34.4365L99.4567 38.5568C99.4105 38.6836 99.3076 38.7907 99.1479 38.8779C98.9883 38.9719 98.7984 39.0126 98.5784 39C98.2118 39.0147 97.9812 38.8756 97.8868 38.5826C97.7991 38.2963 97.8919 38.1526 98.1652 38.1516L98.4252 38.1506C98.5119 38.157 98.5551 38.1168 98.5548 38.0301L98.5514 37.1201L98.0027 37.4822C97.7234 37.6565 97.5132 37.594 97.372 37.2945L97.3216 37.1847C97.2247 38.0184 97.0834 38.5589 96.8976 38.8063C96.7851 39.0067 96.5884 39.0108 96.3077 38.8185C96.0337 38.6328 95.9463 38.4465 96.0456 38.2594C96.2976 37.9052 96.4215 37.1447 96.4172 35.978L96.4115 34.448C96.0848 34.4493 95.9209 34.2899 95.9197 33.9699L95.9172 33.2799C95.9162 33.0265 96.0424 32.8994 96.2957 32.8985L96.287 30.5285C96.2858 30.2085 96.4452 30.0479 96.7652 30.0467L99.0552 30.0382C99.3752 30.037 99.5357 30.1964 99.5369 30.5164L99.5457 32.8864C99.8257 32.8854 99.9663 33.0449 99.9675 33.3649L99.9697 33.9549ZM103.241 37.1128L101.761 37.1182L102.105 38.037L102.915 38.034L103.241 37.1128ZM101.687 35.8885C101.514 35.8891 101.427 35.9761 101.428 36.1495C101.428 36.3228 101.515 36.4091 101.689 36.4085L103.339 36.4024C103.512 36.4017 103.598 36.3148 103.598 36.1414C103.597 35.9681 103.51 35.8817 103.337 35.8824L101.687 35.8885ZM103.895 38.0303L104.785 38.027C105.058 38.026 105.195 38.1688 105.196 38.4555C105.197 38.7422 105.061 38.886 104.788 38.887L100.328 38.9036C100.055 38.9046 99.9175 38.7617 99.9164 38.4751C99.9154 38.1884 100.052 38.0446 100.325 38.0436L101.095 38.0407L100.994 37.7711C100.879 37.4648 100.979 37.2645 101.292 37.17L101.451 37.1194L100.881 37.1215C100.561 37.1227 100.401 36.9633 100.4 36.6433L100.396 35.6433C100.395 35.33 100.554 35.1727 100.874 35.1715L104.214 35.1591C104.534 35.1579 104.695 35.3174 104.696 35.6373L104.7 36.6373C104.701 36.9507 104.541 37.1079 104.221 37.1091L103.561 37.1116L103.752 37.1709C104.139 37.2694 104.229 37.4891 104.024 37.8299L103.895 38.0303ZM113.347 33.3153C113.347 33.1419 113.26 33.0556 113.086 33.0562L111.446 33.0623C111.824 34.2343 112.461 35.0652 113.356 35.5553L113.347 33.3153ZM107.966 33.0752C107.793 33.0759 107.707 33.1628 107.707 33.3362L107.716 35.6862C108.668 35.156 109.311 34.2836 109.646 33.069L107.966 33.0752ZM114.082 31.8925C114.402 31.8913 114.563 32.0508 114.564 32.3708L114.583 37.6207C114.585 37.954 114.546 38.2075 114.466 38.3812C114.387 38.5614 114.221 38.7087 113.968 38.823C113.715 38.9439 113.292 39.0022 112.698 38.9977C112.305 39.0058 112.041 38.8101 111.906 38.4106C111.778 38.0111 111.827 37.8143 112.054 37.8201C112.194 37.8262 112.551 37.8282 113.124 37.8261C113.284 37.8255 113.364 37.7519 113.363 37.6052L113.357 35.8152C113.078 36.123 112.938 36.2901 112.939 36.3168C112.773 36.5641 112.556 36.6016 112.289 36.4292C111.567 36.0252 110.981 35.2107 110.53 33.9857C110.081 35.2674 109.458 36.113 108.659 36.5227C108.393 36.6837 108.166 36.6412 107.979 36.3952L107.718 36.0562L107.727 38.6261C107.728 38.8995 107.525 39.0369 107.119 39.0384C106.719 39.0399 106.518 38.904 106.517 38.6306L106.494 32.4007C106.493 32.0807 106.652 31.9201 106.972 31.9189L110.032 31.9075L109.98 31.3977C109.966 31.2245 109.873 31.1381 109.699 31.1388L108.679 31.1426C108.406 31.1436 108.269 30.9707 108.267 30.6241C108.266 30.2774 108.402 30.1036 108.675 30.1026L110.515 30.0957C110.829 30.0946 110.999 30.2506 111.027 30.5638L111.162 31.9034L114.082 31.8925ZM117.551 31.5997C117.378 31.6003 117.291 31.6873 117.292 31.8606L117.294 32.2906C117.295 32.564 117.095 32.7014 116.695 32.7029C116.302 32.7043 116.105 32.5684 116.104 32.295L116.099 30.9751C116.098 30.6551 116.257 30.4945 116.577 30.4933L119.887 30.481L119.756 30.1915C119.642 29.9452 119.801 29.7747 120.234 29.6797C120.667 29.5848 120.941 29.6604 121.055 29.9067L121.317 30.4757L124.407 30.4643C124.727 30.4631 124.888 30.6225 124.889 30.9425L124.894 32.2625C124.895 32.5358 124.685 32.6732 124.265 32.6748C123.845 32.6764 123.635 32.5405 123.634 32.2671L123.632 31.8371C123.631 31.6638 123.544 31.5775 123.371 31.5781L117.551 31.5997ZM121.455 32.7252C121.235 32.5794 121.261 32.3893 121.533 32.1549C121.812 31.9205 122.062 31.873 122.283 32.0121C122.53 32.1446 122.901 32.3865 123.395 32.738C123.897 33.0895 124.194 33.3217 124.288 33.4347C124.462 33.5874 124.399 33.7943 124.1 34.0554C123.801 34.3165 123.568 34.3707 123.401 34.218C123.314 34.105 123.026 33.8627 122.538 33.4912C122.057 33.1196 121.696 32.8643 121.455 32.7252ZM118.373 32.0966C118.539 31.896 118.815 31.8617 119.203 31.9936C119.59 32.1188 119.704 32.2884 119.544 32.5023C119.379 32.7429 119.057 33.0708 118.578 33.4859C118.106 33.901 117.737 34.179 117.471 34.32C117.252 34.4475 117.001 34.3551 116.72 34.0428C116.446 33.7305 116.428 33.5172 116.668 33.403C116.881 33.3155 117.197 33.111 117.615 32.7894C118.034 32.4746 118.287 32.2436 118.373 32.0966ZM118.936 35.7446L122.276 35.7322C121.615 35.288 121.093 34.8666 120.712 34.468C120.598 34.3484 120.485 34.3522 120.372 34.4792C120.04 34.8671 119.561 35.2889 118.936 35.7446ZM118.744 37.6653C118.744 37.8386 118.831 37.925 119.005 37.9243L122.005 37.9132C122.178 37.9126 122.264 37.8256 122.264 37.6522L122.26 36.8123L118.74 36.8253L118.744 37.6653ZM120.057 33.0804C120.202 32.8532 120.452 32.8156 120.806 32.9676C121.16 33.1196 121.284 33.2792 121.178 33.4462C122.155 34.4626 123.388 35.2414 124.877 35.7825C125.177 35.8881 125.201 36.1113 124.949 36.4523C124.697 36.7932 124.447 36.9108 124.2 36.8051C124.1 36.7588 123.873 36.6429 123.519 36.4576L123.527 38.4976C123.528 38.8176 123.368 38.9782 123.048 38.9793L118.028 38.998C117.709 38.9991 117.548 38.8397 117.547 38.5197L117.54 36.6098C117.18 36.7911 116.941 36.9053 116.821 36.9524C116.568 37.06 116.311 36.951 116.05 36.6253C115.795 36.2929 115.801 36.0795 116.067 35.9852C116.8 35.7358 117.568 35.323 118.373 34.7466C119.191 34.1703 119.752 33.6149 120.057 33.0804Z" fill="#2382C9"/>
<path d="M68.2536 55.1006C67.9762 55.1017 67.8382 55.2782 67.8395 55.6302L68.6235 55.6273C68.9009 55.6262 69.0389 55.4497 69.0376 55.0977L68.2536 55.1006ZM67.4586 56.4636C67.0213 56.4652 66.8013 56.098 66.7985 55.362C66.7958 54.626 67.0131 54.2572 67.4504 54.2556L69.5144 54.248C69.9518 54.2463 70.1718 54.6135 70.1745 55.3495C70.1772 56.0855 69.9599 56.4543 69.5226 56.4559L67.4586 56.4636ZM66.5207 53.779C66.2433 53.7801 66.1052 53.9193 66.1062 54.1966L66.1149 56.5326C66.1159 56.8099 66.2551 56.9481 66.5324 56.947L70.3884 56.9327C70.6657 56.9317 70.8039 56.7925 70.8028 56.5152L70.7942 54.1792C70.7931 53.9019 70.654 53.7637 70.3766 53.7648L66.5207 53.779ZM65.3685 58.0553C64.8565 58.0572 64.5996 57.8022 64.5977 57.2902L64.5835 53.4662C64.5816 52.9542 64.8366 52.6973 65.3486 52.6954L71.6206 52.6721C72.1326 52.6702 72.3895 52.9253 72.3914 53.4373L72.4056 57.2613C72.4075 57.7733 72.1525 58.0302 71.6405 58.0321L65.3685 58.0553ZM67.1269 48.9768C66.8495 48.9778 66.7114 49.117 66.7124 49.3943C66.713 49.565 66.852 49.6498 67.1294 49.6488L69.7213 49.6392C69.9987 49.6381 70.1368 49.4989 70.1358 49.2216C70.1352 49.0509 69.9962 48.9661 69.7189 48.9672L67.1269 48.9768ZM69.2788 51.1128L72.5748 51.1006C73.0121 51.099 73.2314 51.2795 73.2328 51.6422C73.2341 52.0048 73.0161 52.187 72.5788 52.1886L64.4669 52.2186C64.0295 52.2203 63.8102 52.0397 63.8089 51.6771C63.8075 51.3144 64.0255 51.1323 64.4628 51.1307L67.6148 51.119L67.613 50.623L65.933 50.6292C65.421 50.6311 65.164 50.376 65.1621 49.8641L65.1581 48.7601C65.1562 48.2481 65.4112 47.9911 65.9232 47.9892L71.0432 47.9702C71.5445 47.9684 71.7961 48.2235 71.798 48.7354L71.8021 49.8394C71.804 50.3514 71.5489 50.6084 71.037 50.6103L69.277 50.6168L69.2788 51.1128ZM63.273 58.1911C63.274 58.4684 63.4132 58.6066 63.6905 58.6056L73.3545 58.5697C73.6211 58.5688 73.754 58.4296 73.7529 58.1523L73.7147 47.8323C73.7136 47.555 73.5745 47.4169 73.2971 47.4179L63.6332 47.4537C63.3665 47.4547 63.2337 47.5939 63.2347 47.8712L63.273 58.1911ZM61.39 46.598C61.3881 46.086 61.6432 45.8291 62.1552 45.8272L74.8751 45.78C75.3871 45.7781 75.644 46.0332 75.6459 46.5452L75.6935 59.3931C75.6954 59.9051 75.4404 60.162 74.9284 60.1639L62.2085 60.2111C61.6965 60.213 61.4395 59.9579 61.4376 59.4459L61.39 46.598ZM83.8346 49.9548L83.8367 50.5308C83.8378 50.8082 83.977 50.9463 84.2543 50.9453L85.6143 50.9403L85.6106 49.9483L83.8346 49.9548ZM86.4516 48.0571C86.6108 47.8432 86.5517 47.7368 86.2744 47.7378L84.3544 47.7449L83.9084 48.2746C83.7385 48.4885 83.7922 48.595 84.0696 48.594L86.0536 48.5866L86.4516 48.0571ZM88.7983 50.9285C89.0756 50.9274 89.2137 50.7882 89.2127 50.5109C89.2113 50.1269 89.0719 49.9354 88.7946 49.9365L87.3066 49.942L87.3103 50.934L88.7983 50.9285ZM89.5889 52.7175C89.9081 52.4923 90.2817 52.5816 90.7099 52.9854C91.1487 53.3784 91.1339 53.7038 90.6655 53.9616C90.4739 54.0689 90.1971 54.214 89.8351 54.3966C90.3745 56.0266 90.997 57.059 91.7026 57.4937C92.0234 57.7165 91.9874 58.0633 91.5945 58.5341C91.2015 59.0049 90.8606 59.1129 90.5717 58.8579C89.7481 58.253 89.0553 56.9702 88.4934 55.0096L88.078 55.1872C88.3373 56.0715 88.4204 56.9032 88.3273 57.6822C88.2448 58.4612 88.0283 59.0274 87.6776 59.3807C87.2633 59.8515 86.7255 60.0882 86.0642 60.0906L85.7122 60.092C85.2749 60.0936 84.9805 59.8227 84.8292 59.2792C84.6778 58.7358 84.8262 58.4846 85.2744 58.5256L85.6744 58.5241C86.005 58.5229 86.2393 58.4047 86.3771 58.1695C86.6108 57.9019 86.7103 57.4109 86.6756 56.6964C85.272 57.8749 83.9363 58.6799 82.6685 59.1112C82.2638 59.2727 81.8793 59.1355 81.515 58.6995C81.1613 58.2528 81.187 57.97 81.5919 57.8512C82.1886 57.689 82.9873 57.3447 83.9881 56.8183C84.9887 56.2813 85.7814 55.729 86.3659 55.1615L86.156 54.6503C84.9436 55.6148 83.7941 56.2964 82.7076 56.6951C82.2922 56.8566 81.9184 56.7407 81.5863 56.3472C81.2542 55.9538 81.2852 55.6977 81.6794 55.5789C82.0737 55.4814 82.6809 55.2392 83.5008 54.8521C84.3313 54.4544 84.9007 54.1269 85.2091 53.8698C85.4006 53.7197 85.3999 53.5437 85.2072 53.3418L85.0626 53.1983C83.9986 53.9169 83.163 54.3787 82.5558 54.5836C82.1829 54.7237 81.8305 54.6023 81.4984 54.2195C81.1663 53.8261 81.208 53.5646 81.6235 53.4351C82.3054 53.2405 83.1414 52.8641 84.1313 52.3058L82.9473 52.3101C82.4353 52.312 82.1784 52.057 82.1765 51.545L82.1709 50.041C81.8306 50.3196 81.4784 50.2516 81.1142 49.8369C80.7499 49.4223 80.7699 49.0542 81.1741 48.7327C82.2804 47.9286 83.1088 46.9548 83.6593 45.8115C83.8605 45.4267 84.2547 45.2919 84.8418 45.4071C85.4288 45.5116 85.6164 45.7562 85.4045 46.141L85.2933 46.3494L87.4209 46.2615C87.8582 46.2492 88.2534 46.3758 88.6064 46.6411C88.9593 46.9065 89.0085 47.2156 88.7538 47.5686L88.0215 48.5793L90.1815 48.5713C90.6935 48.5694 90.9505 48.8245 90.9524 49.3365L90.9604 51.5124C90.9623 52.0244 90.7073 52.2814 90.1953 52.2833L86.2433 52.2979L87.5294 53.9412C88.5621 53.404 89.2486 52.9961 89.5889 52.7175ZM80.5996 49.1508L80.5899 59.4869C80.5915 59.9243 80.2884 60.1441 79.6804 60.1463C79.0724 60.1486 78.7676 59.931 78.7659 59.4937L78.7387 52.1497L78.245 52.7596C77.9689 53.0913 77.6589 52.9324 77.3152 52.283C76.9714 51.623 76.9323 51.1431 77.1979 50.8434C77.6229 50.4045 78.1428 49.6506 78.7575 48.5817C79.3722 47.5127 79.7902 46.6258 80.0116 45.921C80.1594 45.5044 80.5323 45.3911 81.1304 45.5808C81.7284 45.76 81.9535 46.0525 81.8056 46.4583C81.5841 47.1312 81.1821 48.0287 80.5996 49.1508ZM100.999 53.2032L100.991 51.0273C100.99 50.7499 100.85 50.6118 100.573 50.6128L99.3412 50.6174C98.8292 50.6193 98.5722 50.3642 98.5703 49.8522L98.5559 45.9643C98.5543 45.5269 98.8202 45.3073 99.3535 45.3053C99.8975 45.3033 100.17 45.5209 100.172 45.9583L100.174 46.3903L102.029 46.3834C102.467 46.3818 102.686 46.6423 102.688 47.1649C102.69 47.6876 102.473 47.9497 102.035 47.9514L100.179 47.9582L100.182 48.7102C100.183 48.9876 100.322 49.1257 100.6 49.1247L101.8 49.1362C102.312 49.1344 102.569 49.3894 102.571 49.9014L102.583 53.1974C102.584 53.528 102.542 53.7735 102.457 53.9338C102.383 54.0941 102.224 54.2334 101.979 54.3516C101.734 54.4699 101.441 54.5243 101.1 54.5149C100.502 54.5278 100.134 54.3425 99.9936 53.959C99.8534 53.5648 100.002 53.3669 100.439 53.3653L100.727 53.3643C100.909 53.3742 100.999 53.3206 100.999 53.2032ZM98.6569 51.6279C98.762 51.2115 99.0494 51.0451 99.5191 51.1287C99.9887 51.2016 100.182 51.5423 100.099 52.1506C100.058 52.7587 99.9162 53.2233 99.672 53.5442C99.5132 53.8541 99.2306 53.8871 98.8244 53.6433C98.4181 53.3888 98.2675 53.0534 98.3727 52.637L98.6569 51.6279ZM104.684 54.6616L104.759 53.3653L103.799 53.3689C103.362 53.3705 103.142 53.11 103.141 52.5873C103.139 52.0646 103.356 51.8025 103.794 51.8009L104.818 51.7971L104.812 50.4211L103.9 50.4245C103.463 50.4261 103.244 50.1656 103.242 49.6429C103.24 49.1202 103.457 48.8581 103.895 48.8565L104.903 48.8527L104.899 47.8928C104.898 47.6154 104.759 47.4773 104.482 47.4783L103.73 47.4811C103.292 47.4827 103.073 47.2115 103.071 46.6675C103.069 46.1235 103.286 45.8507 103.724 45.8491L105.884 45.8411C106.396 45.8392 106.647 46.1263 106.639 46.7023C106.659 49.4009 106.605 52.0518 106.476 54.655L107.212 54.6522C107.65 54.6506 107.869 54.9431 107.871 55.5298C107.874 56.1165 107.656 56.4106 107.219 56.4122L103.363 56.4265C105.072 57.2202 106.28 57.8397 106.986 58.2851C107.296 58.4653 107.238 58.7962 106.813 59.2777C106.399 59.7699 106.021 59.9047 105.679 59.6819C104.77 59.056 103.824 58.5155 102.841 58.0605C102.157 57.711 102.006 57.2849 102.388 56.7821L102.659 56.4291L97.9068 56.4467L98.5166 56.9405C99.0088 57.344 98.9729 57.7281 98.4089 58.0929C97.579 58.6613 96.4398 59.2362 94.9912 59.8176C94.5546 60.0112 94.1541 59.8687 93.7897 59.39C93.4359 58.922 93.488 58.5965 93.946 58.4134C95.2349 57.9286 96.4432 57.2735 97.5708 56.448L93.8588 56.4617C93.4215 56.4634 93.2017 56.1708 93.1995 55.5842C93.1974 54.9975 93.4149 54.7034 93.8523 54.7017L94.6363 54.6988L94.3523 47.1638C94.3399 46.6839 94.552 46.3578 94.9887 46.1855L96.7781 45.4748C97.1829 45.324 97.5196 45.5094 97.7882 46.0311C98.0674 46.5421 97.9992 46.857 97.5837 46.9759L96.4489 47.3161C96.1932 47.3917 96.0658 47.5628 96.0668 47.8295L96.1187 48.8693L97.2867 48.865C97.724 48.8634 97.9436 49.1239 97.9456 49.6465C97.9475 50.1585 97.7297 50.4153 97.2924 50.417L96.1724 50.4211L96.2255 51.7969L97.3455 51.7928C97.7828 51.7912 98.0025 52.0517 98.0044 52.5743C98.0063 53.0863 97.7886 53.3431 97.3513 53.3448L96.2793 53.3487L96.3323 54.6926L104.684 54.6616ZM116.253 54.9227C115.976 54.9237 115.838 55.1003 115.839 55.4523L116.623 55.4493C116.901 55.4483 117.039 55.2718 117.037 54.9198L116.253 54.9227ZM115.458 56.2857C115.021 56.2873 114.801 55.9201 114.798 55.1841C114.795 54.4481 115.013 54.0793 115.45 54.0777L117.514 54.07C117.951 54.0684 118.171 54.4356 118.174 55.1716C118.177 55.9076 117.96 56.2764 117.522 56.278L115.458 56.2857ZM114.52 53.6011C114.243 53.6022 114.105 53.7413 114.106 54.0187L114.115 56.3547C114.116 56.632 114.255 56.7701 114.532 56.7691L118.388 56.7548C118.665 56.7538 118.804 56.6146 118.803 56.3373L118.794 54.0013C118.793 53.724 118.654 53.5858 118.376 53.5868L114.52 53.6011ZM113.368 57.8774C112.856 57.8793 112.599 57.6243 112.597 57.1123L112.583 53.2883C112.581 52.7763 112.836 52.5194 113.348 52.5175L119.62 52.4942C120.132 52.4923 120.389 52.7474 120.391 53.2594L120.405 57.0833C120.407 57.5953 120.152 57.8523 119.64 57.8542L113.368 57.8774ZM115.127 48.7988C114.849 48.7999 114.711 48.9391 114.712 49.2164C114.713 49.3871 114.852 49.4719 115.129 49.4708L117.721 49.4612C117.998 49.4602 118.136 49.321 118.135 49.0437C118.135 48.873 117.996 48.7882 117.719 48.7892L115.127 48.7988ZM117.278 50.9349L120.574 50.9227C121.012 50.9211 121.231 51.1016 121.232 51.4642C121.234 51.8269 121.016 52.009 120.578 52.0107L112.467 52.0407C112.029 52.0424 111.81 51.8618 111.809 51.4992C111.807 51.1365 112.025 50.9544 112.463 50.9527L115.614 50.9411L115.613 50.4451L113.933 50.4513C113.421 50.4532 113.164 50.1981 113.162 49.6861L113.158 48.5821C113.156 48.0701 113.411 47.8132 113.923 47.8113L119.043 47.7923C119.544 47.7905 119.796 48.0455 119.798 48.5575L119.802 49.6615C119.804 50.1735 119.549 50.4305 119.037 50.4324L117.277 50.4389L117.278 50.9349ZM111.273 58.0132C111.274 58.2905 111.413 58.4287 111.69 58.4277L121.354 58.3918C121.621 58.3908 121.754 58.2517 121.753 57.9744L121.714 47.6544C121.713 47.3771 121.574 47.2389 121.297 47.24L111.633 47.2758C111.366 47.2768 111.233 47.4159 111.234 47.6933L111.273 58.0132ZM109.39 46.4201C109.388 45.9081 109.643 45.6512 110.155 45.6493L122.875 45.6021C123.387 45.6002 123.644 45.8553 123.646 46.3673L123.693 59.2152C123.695 59.7272 123.44 59.9841 122.928 59.986L110.208 60.0332C109.696 60.0351 109.439 59.78 109.437 59.268L109.39 46.4201ZM128.359 48.8298L128.377 53.6458C129.406 52.3299 130.124 50.2526 130.53 47.4137L130.242 47.4148C129.73 47.4167 129.473 47.1617 129.471 46.6497L129.468 46.0577L128.359 48.8298ZM132.864 51.2451C132.916 50.9356 132.803 50.7813 132.526 50.7824L131.566 50.7859L131.075 52.1798L132.407 53.2308C132.618 52.5154 132.77 51.8535 132.864 51.2451ZM136.736 55.5188C136.737 55.9561 136.455 56.1758 135.89 56.1779C135.335 56.18 135.057 55.9624 135.056 55.525L135.027 47.8131C135.026 47.5357 134.887 47.3976 134.609 47.3986L132.338 47.407L131.992 49.1363L133.064 49.0844C133.501 49.0721 133.901 49.1239 134.264 49.2399C134.638 49.3452 134.794 49.6486 134.732 50.1502C134.515 52.2097 134.005 54.1369 133.201 55.9319C132.408 57.7269 131.548 58.9514 130.623 59.6055C130.314 59.8626 129.962 59.7466 129.565 59.2574C129.169 58.7789 129.13 58.4163 129.449 58.1698C130.279 57.6227 131.049 56.5639 131.758 54.9932L130.361 53.6864C130.085 54.1994 129.963 54.4026 129.995 54.2958C129.624 54.7878 129.245 54.7892 128.859 54.3C128.58 53.8744 128.419 53.6936 128.377 53.7578L128.398 59.3257C128.399 59.7631 128.107 59.9828 127.52 59.985C126.944 59.9871 126.655 59.7695 126.654 59.3322L126.626 51.9722C126.298 52.4748 126.096 52.7529 126.021 52.8065C125.767 53.1274 125.483 52.9472 125.171 52.2656C124.87 51.5841 124.842 51.0935 125.086 50.7939C126.18 49.5206 127.022 47.8694 127.612 45.8406C127.78 45.3279 128.158 45.1612 128.746 45.3403C129.333 45.5088 129.611 45.6465 129.579 45.7533L134.363 45.7355C134.875 45.7336 135.132 45.9887 135.134 46.5007L135.136 46.8687L135.936 46.8657C136.448 46.8638 136.704 47.1189 136.706 47.6309L136.736 55.5188ZM137.708 45.9791C137.707 45.5418 137.999 45.322 138.586 45.3199C139.172 45.3177 139.467 45.5353 139.468 45.9726L139.512 57.7965C139.514 58.3085 139.457 58.6981 139.34 58.9652C139.235 59.2429 139.038 59.457 138.751 59.6074C138.282 59.8544 137.664 59.9687 136.896 59.9502C136.309 59.9737 135.919 59.6712 135.725 59.0426C135.53 58.4246 135.78 58.1304 136.473 58.1598C137.156 58.1893 137.556 58.1558 137.673 58.0593C137.726 58.0058 137.752 57.915 137.752 57.7871L137.708 45.9791Z" fill="black" fill-opacity="0.85"/>
</g>
<defs>
<clipPath id="clip0_2306_6185">
<rect width="200" height="90" fill="white"/>
</clipPath>
</defs>
</svg>
