<svg width="200" height="90" viewBox="0 0 200 90" fill="none" xmlns="http://www.w3.org/2000/svg">
<g clip-path="url(#clip0_1260_3865)">
<rect width="200" height="90" fill="#FEB79D"/>
<path fill-rule="evenodd" clip-rule="evenodd" d="M-6.18027 85.5257C-5.5206 81.3514 -9.94765 77.2571 -7.65473 73.2393C-4.94813 68.4966 -1.65241 61.9915 7.77154 61.0783C17.9972 60.0873 23.5998 68.8258 33.9785 69.2048C45.8176 69.6371 56.5881 60.196 66.8872 63.2371C76.2425 65.9996 70.121 74.0119 68.9752 79.5387C68.1676 83.4341 61.5364 86.4306 61.2669 90.3457C60.8502 96.3973 75.7689 103.853 67.0229 107.895C58.3557 111.9 45.7383 103.802 34.2527 102.83C27.3162 102.243 20.5655 103.925 13.6182 103.373C4.65786 102.66 -7.2514 103.227 -11.7526 99.1698C-16.3208 95.0519 -6.92748 90.2539 -6.18027 85.5257Z" fill="#FE585B"/>
<path fill-rule="evenodd" clip-rule="evenodd" d="M28.4743 10.5302C32.6486 10.8717 36.7429 8.58004 40.7607 9.76696C45.5034 11.168 52.0085 12.874 52.9217 17.7523C53.9127 23.0456 45.1742 25.9458 44.7952 31.3183C44.3629 37.4467 53.804 43.0221 50.7629 48.3534C48.0004 53.1961 39.9881 50.0274 34.4613 49.4342C30.5659 49.0162 27.5694 45.5836 23.6543 45.444C17.6027 45.2284 10.1469 52.9509 6.10508 48.4236C2.09968 43.9371 10.1975 37.4057 11.1701 31.4602C11.7575 27.8695 10.0747 24.3751 10.6274 20.7788C11.3402 16.1405 10.7727 9.97575 14.8302 7.64571C18.9481 5.281 23.7461 10.1434 28.4743 10.5302Z" fill="#FC7443"/>
<path fill-rule="evenodd" clip-rule="evenodd" d="M173.474 4.53021C177.649 4.87169 181.743 2.58004 185.761 3.76696C190.503 5.16803 197.008 6.87405 197.922 11.7523C198.913 17.0456 190.174 19.9458 189.795 25.3183C189.363 31.4467 198.804 37.0221 195.763 42.3534C193 47.1961 184.988 44.0274 179.461 43.4342C175.566 43.0162 172.569 39.5836 168.654 39.444C162.603 39.2284 155.147 46.9509 151.105 42.4236C147.1 37.9371 155.198 31.4057 156.17 25.4602C156.757 21.8695 155.075 18.3751 155.627 14.7788C156.34 10.1405 155.773 3.97575 159.83 1.64571C163.948 -0.719004 168.746 4.14342 173.474 4.53021Z" fill="#FF8787"/>
<path fill-rule="evenodd" clip-rule="evenodd" d="M117.063 7.20494C131.49 7.9797 144.155 11.9054 154.996 17.5775C166.733 23.7188 176.896 30.8598 179.688 39.9711C183.097 51.0949 184.354 63.7453 171.749 72.2549C158.691 81.0707 136.857 81.4742 117.063 82.2497C95.2362 83.1048 71.8992 84.7511 54.6033 76.8446C35.6156 68.1646 20.8565 53.9771 24.5773 39.9711C28.0889 26.7526 52.1053 19.9805 71.5388 13.0955C85.3864 8.18958 100.98 6.34119 117.063 7.20494Z" fill="#FFAB7A"/>
<ellipse cx="177.987" cy="70.7269" rx="16.7876" ry="14.0511" fill="#F55A57"/>
<ellipse cx="173.711" cy="65.6395" rx="1.21537" ry="2.15126" fill="black"/>
<ellipse cx="182.286" cy="65.6395" rx="1.21537" ry="2.15126" fill="black"/>
<path d="M173.043 72.6445C173.079 74.5722 175.312 76.0937 178.031 76.0428C180.749 75.9919 182.924 74.388 182.888 72.4603C182.852 70.5326 180.67 71.7825 177.952 71.8334C175.233 71.8843 173.007 70.7168 173.043 72.6445Z" fill="black"/>
<path d="M170.796 50.9035C173.677 48.6452 180.1 51.1915 180.1 55.0219C180.101 59.542 168.086 61.6232 165.801 61.9782C165.552 62.0169 165.303 62.044 165.054 62.039C163.425 62.0062 157.615 61.2375 170.796 50.9035Z" fill="#6E5232"/>
<path d="M170.796 50.9035C173.677 48.6452 180.1 51.1915 180.1 55.0219C180.101 59.542 168.086 61.6232 165.801 61.9782C165.552 62.0169 165.303 62.044 165.054 62.039C163.425 62.0062 157.615 61.2375 170.796 50.9035Z" fill="url(#paint0_radial_1260_3865)" fill-opacity="0.15"/>
<path d="M185.2 50.7629C182.319 48.5045 175.896 51.0509 175.896 54.8813C175.896 59.4014 187.91 61.4825 190.195 61.8375C190.445 61.8763 190.693 61.9034 190.942 61.8984C192.571 61.8656 198.381 61.0968 185.2 50.7629Z" fill="#6E5232"/>
<path d="M185.2 50.7629C182.319 48.5045 175.896 51.0509 175.896 54.8813C175.896 59.4014 187.91 61.4825 190.195 61.8375C190.445 61.8763 190.693 61.9034 190.942 61.8984C192.571 61.8656 198.381 61.0968 185.2 50.7629Z" fill="url(#paint1_radial_1260_3865)" fill-opacity="0.15"/>
<path d="M84.3161 36.9608C84.0697 37.035 83.873 37.0324 83.7261 36.953C83.5791 36.8802 83.472 36.7572 83.4047 36.5842C83.3508 36.4244 83.3635 36.2643 83.4429 36.104C83.5223 35.9437 83.6619 35.8399 83.8618 35.7925C84.5677 35.6032 85.1936 35.3708 85.7392 35.0955C86.2849 34.8201 86.767 34.5083 87.1857 34.1601C86.7706 33.675 86.412 33.1397 86.1098 32.5541C85.8143 31.9619 85.5685 31.3194 85.3726 30.6268L83.9126 30.6322C83.766 30.6328 83.6391 30.5799 83.5321 30.4736C83.425 30.3674 83.3712 30.2409 83.3706 30.0942C83.3701 29.9476 83.423 29.824 83.5293 29.7236C83.6355 29.6166 83.762 29.5628 83.9087 29.5622L87.3387 29.5495L87.3342 28.3495C87.3335 28.1562 87.3962 27.9993 87.5225 27.8788C87.6487 27.7584 87.8018 27.6978 87.9818 27.6971C88.1618 27.6965 88.3153 27.7559 88.4425 27.8754C88.5696 27.995 88.6335 28.1514 88.6342 28.3447L88.6386 29.5447L92.0486 29.5321C92.1953 29.5315 92.3188 29.5844 92.4192 29.6907C92.5263 29.7903 92.58 29.9134 92.5806 30.0601C92.5811 30.2068 92.5283 30.3336 92.422 30.4407C92.3224 30.5477 92.1993 30.6015 92.0526 30.6021L90.6726 30.6072C90.4885 31.3012 90.2475 31.9421 89.9497 32.5299C89.6586 33.1176 89.3072 33.6556 88.8957 34.1438C89.3237 34.4955 89.8148 34.807 90.3692 35.0783C90.9235 35.3496 91.551 35.5773 92.2517 35.7614C92.4519 35.8073 92.5889 35.9101 92.6629 36.0698C92.7368 36.2296 92.744 36.3895 92.6846 36.5498C92.6253 36.7233 92.5191 36.847 92.366 36.9209C92.2196 36.9948 92.0263 36.9989 91.7861 36.9331C90.2711 36.492 89.0254 35.8533 88.0489 35.0169C87.5638 35.4321 87.0118 35.8008 86.393 36.1231C85.7809 36.4453 85.0886 36.7246 84.3161 36.9608ZM88.0425 33.2769C88.3411 32.9025 88.5962 32.4916 88.8079 32.0441C89.0196 31.5966 89.1978 31.1193 89.3426 30.6121L86.6926 30.6219C86.8478 31.128 87.0329 31.604 87.2479 32.0499C87.4696 32.4957 87.7344 32.9047 88.0425 33.2769ZM98.0163 36.99C97.8496 36.9906 97.7094 36.9378 97.5957 36.8316C97.482 36.7253 97.4248 36.5822 97.4241 36.4022L97.4198 35.2322L96.2098 35.2367C96.0631 35.2372 95.9329 35.1844 95.8192 35.0781C95.7121 34.9652 95.6583 34.8354 95.6578 34.6887C95.6572 34.5354 95.71 34.4052 95.8163 34.2981C95.9293 34.191 96.0591 34.1372 96.2057 34.1367L97.4157 34.1322L97.4068 31.7322C97.135 32.1399 96.8298 32.551 96.4914 32.9656C96.1529 33.3802 95.7944 33.7749 95.4158 34.1496C95.0438 34.5243 94.6717 34.8624 94.2995 35.1638C94.1666 35.2709 94.0101 35.3282 93.8301 35.3355C93.6501 35.3362 93.5032 35.2667 93.3894 35.1271C93.2822 34.9942 93.2417 34.8477 93.2677 34.6876C93.3005 34.5275 93.3867 34.3971 93.5263 34.2966C93.9252 33.9951 94.3305 33.6436 94.7424 33.2421C95.1609 32.8339 95.556 32.4091 95.9277 31.9677C96.2994 31.5197 96.6144 31.0952 96.873 30.6942L93.963 30.705C93.8163 30.7055 93.6895 30.6527 93.5824 30.5464C93.4753 30.4401 93.4215 30.3137 93.421 30.167C93.4204 30.0137 93.4733 29.8868 93.5796 29.7864C93.6858 29.6793 93.8123 29.6255 93.959 29.625L97.399 29.6122L97.3939 28.2422C97.3932 28.0689 97.4494 27.9287 97.5623 27.8216C97.6752 27.7079 97.815 27.6507 97.9817 27.6501C98.1417 27.6495 98.2786 27.7056 98.3923 27.8185C98.506 27.9248 98.5632 28.0646 98.5639 28.2379L98.5689 29.6079L102.009 29.5951C102.162 29.5946 102.289 29.6474 102.39 29.7537C102.497 29.8533 102.55 29.9798 102.551 30.1331C102.551 30.2798 102.499 30.4067 102.392 30.5137C102.293 30.6208 102.166 30.6746 102.013 30.6751L99.1329 30.6858C99.4011 31.0982 99.7261 31.5236 100.108 31.9622C100.489 32.3941 100.894 32.8093 101.322 33.2077C101.75 33.6061 102.168 33.9613 102.576 34.2731C102.703 34.3659 102.767 34.4924 102.768 34.6524C102.775 34.8123 102.732 34.9492 102.639 35.0629C102.533 35.1899 102.397 35.2671 102.23 35.2944C102.063 35.3217 101.91 35.2789 101.77 35.1661C101.408 34.8674 101.037 34.5321 100.656 34.1602C100.274 33.7883 99.9063 33.393 99.5514 32.9743C99.1965 32.5489 98.8716 32.1168 98.5766 31.6779L98.5857 34.1279L99.8357 34.1232C99.989 34.1227 100.119 34.1755 100.226 34.2818C100.333 34.3881 100.387 34.5179 100.388 34.6712C100.388 34.8179 100.335 34.9481 100.229 35.0618C100.123 35.1688 99.9931 35.2227 99.8398 35.2232L98.5898 35.2279L98.5941 36.3979C98.5948 36.5779 98.5386 36.7214 98.4257 36.8285C98.3128 36.9356 98.1763 36.9894 98.0163 36.99ZM103.96 29.8479L111.47 29.8201L111.474 31.0001L105.184 31.0234L105.206 37.0133L103.986 37.0179L103.96 29.8479ZM110.85 29.8224L112.07 29.8179L112.091 35.5878C112.094 36.2278 111.975 36.5783 111.546 36.7699C111.116 36.9614 110.486 36.9838 109.616 36.987C109.575 36.6372 109.383 36.0979 109.212 35.7685C109.762 35.7965 110.442 35.7939 110.632 35.7832C110.812 35.7826 110.872 35.7223 110.871 35.5723L110.85 29.8224ZM105.753 28.0213L107.993 28.013L107.997 29.063L105.757 29.0713L105.753 28.0213ZM107.213 28.0158L108.493 28.0111C108.593 30.5808 109.17 32.6886 111.044 33.5917C110.785 33.8327 110.377 34.3242 110.188 34.6449C108.213 33.4822 107.545 31.1946 107.405 28.5551L107.215 28.5558L107.213 28.0158ZM107.311 30.1155L108.412 30.3014C108.079 32.4027 107.315 33.8855 105.748 34.7313C105.587 34.4519 105.195 33.9634 104.954 33.7643C106.322 33.1092 107.067 31.8364 107.311 30.1155ZM117.396 36.8982C116.896 36.9 116.496 36.8482 116.196 36.7426C115.895 36.6437 115.678 36.4679 115.544 36.215C115.409 35.9622 115.341 35.6124 115.34 35.1658C115.338 34.7191 115.403 34.3689 115.536 34.115C115.668 33.8612 115.884 33.6837 116.184 33.5826C116.483 33.4749 116.883 33.42 117.383 33.4182L118.663 33.4134C119.163 33.4116 119.563 33.4634 119.864 33.569C120.164 33.6679 120.381 33.8437 120.516 34.0966C120.65 34.3494 120.718 34.6992 120.72 35.1458C120.721 35.5925 120.656 35.9427 120.524 36.1966C120.391 36.4504 120.175 36.6279 119.875 36.729C119.576 36.8368 119.176 36.8916 118.676 36.8934L117.396 36.8982ZM114.184 30.95C114.024 30.9506 113.887 30.9011 113.773 30.8016C113.666 30.7019 113.613 30.5655 113.612 30.3921L113.611 30.0721C113.609 29.5522 113.731 29.185 113.977 28.9708C114.229 28.7498 114.659 28.6383 115.265 28.636L117.335 28.6283L117.333 28.0383C117.333 27.845 117.392 27.6981 117.512 27.5977C117.638 27.4972 117.784 27.4467 117.951 27.446C118.124 27.4454 118.271 27.4949 118.392 27.5944C118.519 27.6939 118.583 27.8404 118.583 28.0337L118.585 28.6237L120.725 28.6158C121.332 28.6135 121.759 28.7219 122.007 28.941C122.261 29.1534 122.389 29.5196 122.391 30.0396L122.392 30.3596C122.393 30.5329 122.336 30.6698 122.223 30.7702C122.11 30.8707 121.974 30.9212 121.814 30.9217C121.654 30.9223 121.517 30.8762 121.403 30.7833C121.29 30.6904 121.233 30.5572 121.232 30.3839L121.231 30.1139C121.23 29.9272 121.183 29.7941 121.089 29.7144C121.003 29.6347 120.836 29.5954 120.589 29.5963L115.409 29.6155C115.162 29.6164 114.993 29.657 114.9 29.7374C114.807 29.8177 114.76 29.9512 114.761 30.1379L114.762 30.4079C114.763 30.5812 114.706 30.7148 114.594 30.8085C114.481 30.9023 114.344 30.9494 114.184 30.95ZM114.188 34.71C114.022 34.804 113.858 34.8346 113.698 34.8019C113.538 34.7691 113.411 34.6763 113.317 34.5233C113.23 34.3703 113.213 34.2237 113.266 34.0835C113.318 33.9433 113.428 33.8295 113.594 33.7422C113.974 33.5475 114.363 33.3227 114.762 33.0679C115.161 32.8064 115.55 32.535 115.929 32.2536C116.314 31.9655 116.663 31.6842 116.976 31.4097C117.295 31.1218 117.614 30.9773 117.934 30.9761C118.261 30.9749 118.588 31.1037 118.916 31.3625C119.223 31.6014 119.567 31.8501 119.948 32.1087C120.336 32.3672 120.74 32.6157 121.161 32.8542C121.582 33.0926 121.993 33.3078 122.394 33.4996C122.547 33.5724 122.658 33.6853 122.725 33.8384C122.792 33.9848 122.783 34.1382 122.697 34.2985C122.61 34.4655 122.478 34.576 122.298 34.63C122.125 34.6773 121.948 34.6546 121.767 34.5619C121.393 34.3567 121.003 34.1281 120.595 33.8763C120.187 33.6245 119.793 33.3659 119.412 33.1007C119.038 32.8287 118.7 32.5666 118.399 32.3144C118.245 32.1817 118.105 32.1188 117.978 32.126C117.858 32.1264 117.722 32.1936 117.569 32.3275C117.27 32.5819 116.931 32.8532 116.552 33.1413C116.18 33.4227 115.791 33.7008 115.385 33.9756C114.98 34.2438 114.58 34.4886 114.188 34.71ZM117.392 35.8382L118.672 35.8334C119.032 35.8321 119.265 35.7846 119.372 35.6908C119.485 35.5971 119.541 35.4169 119.54 35.1502C119.539 34.8769 119.481 34.6971 119.368 34.6108C119.261 34.5179 119.027 34.4721 118.667 34.4734L117.387 34.4782C117.02 34.4795 116.781 34.5271 116.668 34.6209C116.561 34.7079 116.509 34.8881 116.51 35.1614C116.511 35.4281 116.565 35.6079 116.672 35.7008C116.785 35.7938 117.026 35.8395 117.392 35.8382ZM115.248 32.0361C115.102 32.13 114.945 32.1739 114.779 32.1678C114.619 32.1618 114.482 32.0823 114.368 31.9294C114.287 31.8163 114.257 31.6864 114.276 31.5397C114.302 31.3863 114.382 31.266 114.515 31.1788C114.788 31.0045 115.067 30.8034 115.353 30.5757C115.645 30.3479 115.894 30.1337 116.1 29.9329C116.213 29.8125 116.346 29.752 116.5 29.7514C116.66 29.7508 116.796 29.807 116.91 29.9199C117.024 30.0262 117.078 30.1526 117.072 30.2993C117.065 30.4393 117.009 30.5662 116.903 30.68C116.657 30.9342 116.395 31.1752 116.116 31.4029C115.843 31.6306 115.554 31.8416 115.248 32.0361ZM120.678 31.906C120.511 31.7999 120.32 31.6773 120.106 31.5381C119.892 31.3989 119.682 31.2563 119.475 31.1104C119.274 30.9578 119.1 30.8218 118.953 30.7024C118.833 30.6028 118.766 30.4797 118.752 30.3331C118.745 30.1865 118.791 30.0596 118.89 29.9526C118.983 29.8389 119.103 29.7785 119.25 29.7712C119.403 29.7573 119.536 29.7969 119.65 29.8898C119.804 30.0092 119.981 30.1385 120.182 30.2778C120.382 30.4104 120.583 30.5396 120.783 30.6656C120.99 30.7848 121.181 30.8874 121.354 30.9735C121.488 31.0396 121.568 31.146 121.595 31.2926C121.629 31.4391 121.61 31.5792 121.537 31.7128C121.451 31.8664 121.324 31.9602 121.158 31.9942C120.991 32.0215 120.831 31.9921 120.678 31.906Z" fill="#FE585B"/>
<path d="M61.1864 58.8856C60.7922 59.0044 60.4775 59.0002 60.2424 58.8731C60.0073 58.7566 59.8359 58.5599 59.7282 58.283C59.6419 58.0273 59.6623 57.7712 59.7894 57.5148C59.9164 57.2583 60.1398 57.0921 60.4595 57.0163C61.5891 56.7134 62.5904 56.3417 63.4634 55.9011C64.3364 55.4606 65.1079 54.9617 65.7779 54.4045C65.1137 53.6283 64.5398 52.7718 64.0563 51.8349C63.5835 50.8873 63.1903 49.8594 62.8769 48.7513L60.5409 48.7599C60.3062 48.7608 60.1033 48.6762 59.932 48.5062C59.7607 48.3361 59.6746 48.1338 59.6737 47.8991C59.6728 47.6645 59.7574 47.4668 59.9275 47.3062C60.0975 47.1349 60.2999 47.0488 60.5346 47.0479L66.0225 47.0276L66.0154 45.1076C66.0143 44.7983 66.1147 44.5472 66.3166 44.3545C66.5186 44.1617 66.7635 44.0648 67.0515 44.0638C67.3395 44.0627 67.5852 44.1578 67.7886 44.349C67.992 44.5403 68.0942 44.7906 68.0954 45.0999L68.1025 47.0199L73.5585 46.9997C73.7931 46.9988 73.9908 47.0834 74.1514 47.2535C74.3227 47.4128 74.4087 47.6098 74.4096 47.8445C74.4105 48.0792 74.3259 48.2822 74.1559 48.4535C73.9965 48.6247 73.7995 48.7108 73.5648 48.7116L71.3568 48.7198C71.0623 49.8303 70.6767 50.8557 70.2002 51.7961C69.7344 52.7365 69.1722 53.5973 68.5138 54.3784C69.1985 54.9412 69.9844 55.4396 70.8713 55.8737C71.7583 56.3077 72.7623 56.672 73.8834 56.9665C74.2037 57.04 74.423 57.2045 74.5413 57.4601C74.6595 57.7157 74.6712 57.9716 74.5761 58.228C74.4811 58.5057 74.3112 58.7036 74.0663 58.8219C73.8321 58.9401 73.5228 58.9465 73.1384 58.8413C70.7144 58.1356 68.7213 57.1137 67.159 55.7754C66.3827 56.4397 65.4996 57.0296 64.5095 57.5453C63.5301 58.0609 62.4224 58.5077 61.1864 58.8856ZM67.1486 52.9915C67.6264 52.3923 68.0347 51.7348 68.3733 51.0189C68.712 50.303 68.9972 49.5392 69.2288 48.7277L64.9889 48.7434C65.2372 49.5532 65.5334 50.3148 65.8774 51.0282C66.232 51.7415 66.6558 52.3959 67.1486 52.9915ZM81.2835 59.1311C81.0062 59.1321 80.7658 59.0424 80.5625 58.8618C80.3698 58.6812 80.2729 58.4469 80.2719 58.1589C80.271 57.9135 80.3662 57.6998 80.5575 57.5178C80.7488 57.3357 80.9938 57.2388 81.2924 57.2271C81.9964 57.2031 82.4972 57.0626 82.7949 56.8055C83.1032 56.5377 83.2562 56.0838 83.2538 55.4438C83.2525 55.0811 83.2033 54.7506 83.1062 54.4523L76.4822 54.4769C76.2262 54.4778 76.0179 54.3986 75.8573 54.2392C75.7074 54.0691 75.6319 53.8667 75.6311 53.632C75.6302 53.3974 75.7041 53.1997 75.8529 53.0392C76.0123 52.8786 76.22 52.7978 76.476 52.7969L81.8039 52.7771C81.6541 52.6284 81.5574 52.442 81.5139 52.2182C81.481 51.9943 81.5496 51.7861 81.7196 51.5934C81.8895 51.3901 82.097 51.2667 82.3422 51.2231C82.5874 51.1796 82.8382 51.2373 83.0948 51.3963C83.1376 51.4175 83.175 51.444 83.2071 51.4759C83.2499 51.4971 83.2926 51.5236 83.3354 51.5555L84.2293 50.9921C84.4103 50.8848 84.4846 50.7779 84.4522 50.6713C84.4304 50.5647 84.3182 50.5118 84.1156 50.5126L79.6676 50.529C79.4009 50.53 79.1873 50.4508 79.0267 50.2914C78.8767 50.1213 78.8013 49.9189 78.8005 49.6842C78.7996 49.4496 78.8735 49.252 79.0223 49.0914C79.1816 48.9202 79.3946 48.834 79.6613 48.8331L85.2613 48.8123C85.7199 48.8106 86.0883 48.9052 86.3663 49.0962C86.655 49.2871 86.8426 49.5264 86.929 49.8141C87.0154 50.1018 86.9952 50.4059 86.8684 50.7264C86.7522 51.0361 86.5186 51.3143 86.1675 51.561C85.976 51.7003 85.7206 51.8719 85.4014 52.0758C85.0928 52.2796 84.7842 52.4834 84.4756 52.6872L84.5239 52.7671L89.6759 52.748C89.9319 52.747 90.1349 52.8263 90.2848 52.9857C90.4454 53.1451 90.5261 53.3421 90.527 53.5768C90.5278 53.8115 90.4486 54.0144 90.2892 54.1857C90.1405 54.3462 89.9381 54.427 89.6821 54.4279L85.1861 54.4446C85.2515 54.7964 85.2848 55.1643 85.2862 55.5482C85.2908 56.7749 84.9635 57.6775 84.3043 58.2559C83.6557 58.8343 82.6488 59.126 81.2835 59.1311ZM77.1864 50.2182C76.9198 50.2192 76.6848 50.1348 76.4815 49.9648C76.2889 49.7949 76.192 49.5606 76.1909 49.2619L76.1879 48.4459C76.1846 47.5606 76.4063 46.9358 76.8529 46.5714C77.3102 46.2071 78.0722 46.0229 79.1389 46.019L81.9389 46.0086L81.9349 44.9366C81.9337 44.6166 82.0341 44.3656 82.2361 44.1835C82.4488 44.0014 82.7044 43.9097 83.0031 43.9086C83.3017 43.9075 83.5527 43.9973 83.7561 44.1778C83.9701 44.3584 84.0777 44.6087 84.0789 44.9286L84.0828 46.0006L86.9948 45.9898C88.0721 45.9859 88.8355 46.1644 89.2848 46.5254C89.7342 46.8864 89.9605 47.5095 89.9638 48.3949L89.9668 49.2109C89.9679 49.5095 89.8728 49.7445 89.6814 49.9159C89.5007 50.0873 89.2717 50.1734 88.9943 50.1745C88.7277 50.1755 88.4927 50.0963 88.2895 49.9371C88.0969 49.7778 88 49.5488 87.9989 49.2502L87.9959 48.4502C87.9948 48.1408 87.914 47.9225 87.7535 47.795C87.6037 47.6569 87.3208 47.5887 86.9048 47.5902L79.2408 47.6186C78.8355 47.6201 78.5531 47.6905 78.3936 47.8297C78.2341 47.9583 78.1549 48.1773 78.156 48.4866L78.159 49.2866C78.1601 49.5853 78.0649 49.815 77.8735 49.9757C77.6928 50.1364 77.4638 50.2172 77.1864 50.2182ZM100.195 58.869C99.9387 58.87 99.7411 58.8014 99.6019 58.6632C99.4627 58.5251 99.3874 58.3493 99.3759 58.136C99.3645 57.9227 99.4278 57.7358 99.5659 57.5753C99.704 57.4255 99.901 57.3448 100.157 57.3331C100.434 57.3108 100.61 57.2728 100.685 57.2192C100.759 57.1549 100.796 57.0161 100.795 56.8028L100.786 54.2908C100.785 53.9921 100.736 53.8056 100.64 53.7313C100.543 53.6464 100.346 53.6044 100.047 53.6055L98.2552 53.6122C98.0845 53.6128 97.9349 53.544 97.8064 53.4058C97.6779 53.2676 97.6133 53.1132 97.6127 52.9425C97.612 52.7612 97.6754 52.601 97.8029 52.4618C97.9304 52.3227 98.0794 52.2528 98.2501 52.2522L100.17 52.2451C100.341 52.2444 100.495 52.2492 100.634 52.2593C100.773 52.2695 100.901 52.285 101.018 52.3059C100.783 52.2001 100.543 52.105 100.297 52.0206C100.052 51.9255 99.8273 51.841 99.6243 51.7671C99.4535 51.7144 99.3305 51.6242 99.2553 51.4964C99.1802 51.3687 99.1583 51.2301 99.1898 51.0807L97.0938 51.0885C96.9125 51.0891 96.7522 51.0257 96.6131 50.8982C96.4846 50.76 96.42 50.5949 96.4192 50.4029C96.4186 50.2216 96.482 50.0667 96.6095 49.9382C96.7477 49.7991 96.9074 49.7291 97.0887 49.7285L100.497 49.7158L100.494 49.0918L98.0784 49.1008C97.8971 49.1015 97.7422 49.038 97.6137 48.9105C97.4852 48.783 97.4207 48.6286 97.42 48.4472C97.4193 48.2659 97.4828 48.111 97.6103 47.9825C97.7378 47.8434 97.8922 47.7735 98.0735 47.7728L100.489 47.7638L100.487 47.1718L97.3513 47.1835C97.17 47.1841 97.0151 47.1207 96.8866 46.9932C96.7581 46.8657 96.6936 46.7112 96.6929 46.5299C96.6922 46.3486 96.7557 46.199 96.8832 46.0812C97.0108 45.9527 97.1652 45.8882 97.3465 45.8875L99.1865 45.8807L99.1704 45.8647C99.0953 45.7263 99.004 45.572 98.8967 45.4017C98.7894 45.2208 98.7035 45.0824 98.6392 44.9867C98.5533 44.8377 98.5367 44.6671 98.5893 44.4749C98.6526 44.2826 98.78 44.1382 98.9717 44.0414C99.1527 43.9554 99.3393 43.9334 99.5314 43.9754C99.7236 44.0173 99.8787 44.1287 99.9967 44.3096C100.072 44.4267 100.158 44.5704 100.254 44.7407C100.362 44.911 100.442 45.0493 100.496 45.1558C100.635 45.4113 100.626 45.6513 100.466 45.8759L101.666 45.8715C101.73 45.7326 101.809 45.5563 101.905 45.3426C102 45.1289 102.09 44.9312 102.174 44.7496C102.259 44.5573 102.312 44.4397 102.333 44.397C102.418 44.1833 102.566 44.0441 102.779 43.9793C102.993 43.9039 103.201 43.9084 103.404 43.993C103.606 44.0669 103.746 44.1997 103.821 44.3915C103.896 44.5832 103.886 44.7752 103.791 44.9676C103.77 45.021 103.706 45.1386 103.6 45.3203C103.505 45.502 103.41 45.6837 103.314 45.8654L105.554 45.8571C105.736 45.8564 105.891 45.9198 106.019 46.0473C106.148 46.1642 106.212 46.3133 106.213 46.4946C106.213 46.676 106.15 46.8309 106.023 46.9593C105.895 47.0878 105.741 47.1524 105.559 47.153L102.151 47.1657L102.153 47.7577L104.697 47.7482C104.879 47.7476 105.034 47.8163 105.162 47.9545C105.291 48.082 105.355 48.2365 105.356 48.4178C105.357 48.5991 105.293 48.754 105.166 48.8825C105.038 49.011 104.884 49.0756 104.702 49.0762L102.158 49.0857L102.161 49.7097L105.857 49.696C106.049 49.6953 106.209 49.764 106.337 49.9022C106.477 50.0297 106.547 50.1841 106.547 50.3654C106.548 50.5574 106.479 50.723 106.341 50.8622C106.213 50.9906 106.054 51.0552 105.862 51.056L101.366 51.0726C101.526 51.1254 101.681 51.1835 101.83 51.2469C101.991 51.3103 102.124 51.3685 102.231 51.4214C102.391 51.4955 102.493 51.6124 102.536 51.7723C102.59 51.9321 102.575 52.0975 102.49 52.2685C102.437 52.3967 102.347 52.493 102.219 52.5575C102.102 52.6112 101.98 52.633 101.852 52.6228C102.055 52.7927 102.194 53.0162 102.27 53.2933C102.377 53.4316 102.484 53.5805 102.592 53.7401C102.71 53.889 102.838 54.0378 102.977 54.1867C103.137 54.0687 103.328 53.924 103.552 53.7525C103.775 53.5704 103.993 53.3936 104.206 53.2221C104.418 53.0507 104.578 52.9167 104.684 52.8203C104.854 52.6704 105.046 52.611 105.26 52.6422C105.484 52.6734 105.66 52.774 105.789 52.9442C105.917 53.1144 105.971 53.3062 105.951 53.5196C105.93 53.7224 105.835 53.8881 105.665 54.0167C105.484 54.1454 105.223 54.333 104.883 54.5796C104.542 54.8155 104.234 55.0247 103.957 55.207C104.696 55.887 105.439 56.4549 106.187 56.9108C106.38 57.0167 106.492 57.187 106.525 57.4215C106.569 57.6454 106.522 57.8482 106.384 58.0301C106.235 58.2333 106.038 58.346 105.793 58.3683C105.558 58.3905 105.339 58.3326 105.136 58.1947C104.655 57.8445 104.173 57.4463 103.692 57C103.221 56.5431 102.782 56.0594 102.374 55.5489L102.38 56.9729C102.382 57.6556 102.219 58.1415 101.889 58.4307C101.559 58.72 100.995 58.866 100.195 58.869ZM94.4829 58.9382C94.2695 58.939 94.0826 58.865 93.922 58.7163C93.7722 58.5781 93.6968 58.3918 93.696 58.1571L93.6754 52.6211C93.5379 52.9203 93.4003 53.2088 93.2627 53.4867C93.125 53.7645 92.9979 54.0157 92.8814 54.2401C92.7755 54.4325 92.616 54.5611 92.4029 54.6259C92.2004 54.6799 91.9976 54.654 91.7946 54.5481C91.6129 54.4528 91.495 54.3092 91.441 54.1174C91.3976 53.9149 91.4289 53.7281 91.5349 53.5571C91.7152 53.2684 91.9059 52.9264 92.1071 52.5309C92.3083 52.1355 92.5094 51.7188 92.7105 51.2807C92.9115 50.832 93.0912 50.3993 93.2497 49.9827C93.4187 49.5554 93.556 49.1816 93.6615 48.8612L92.3335 48.8661C92.0882 48.867 91.8906 48.7931 91.7407 48.6443C91.6015 48.4955 91.5315 48.3091 91.5306 48.0851C91.5298 47.8611 91.5984 47.6741 91.7365 47.5243C91.8853 47.3744 92.0824 47.299 92.3277 47.2981L93.6557 47.2932L93.6466 44.8292C93.6457 44.5839 93.7196 44.3916 93.8684 44.2524C94.0279 44.1131 94.2143 44.0431 94.4277 44.0423C94.641 44.0415 94.8226 44.1102 94.9724 44.2483C95.1329 44.3863 95.2136 44.578 95.2146 44.8234L95.2237 47.2874L95.9917 47.2845C96.237 47.2836 96.4293 47.3576 96.5685 47.5064C96.7184 47.6552 96.7938 47.8415 96.7946 48.0655C96.7954 48.2895 96.7214 48.4765 96.5727 48.6264C96.4345 48.7762 96.2428 48.8516 95.9975 48.8525L95.2295 48.8553L95.2321 49.5433C95.3714 49.7242 95.5375 49.9422 95.7305 50.1975C95.9341 50.4421 96.143 50.6866 96.3572 50.9312C96.5714 51.1651 96.7535 51.367 96.9035 51.5372C97.0533 51.6859 97.1233 51.8617 97.1134 52.0644C97.1142 52.2671 97.0348 52.438 96.8753 52.5773C96.7158 52.7165 96.5347 52.7865 96.3321 52.7873C96.1294 52.7774 95.9637 52.6873 95.8351 52.5171C95.76 52.4107 95.6689 52.2937 95.5618 52.1661C95.4653 52.0278 95.3581 51.8842 95.2402 51.7353L95.264 58.1513C95.2648 58.3859 95.1855 58.5729 95.026 58.7122C94.8773 58.8621 94.6962 58.9374 94.4829 58.9382ZM97.1052 58.4965C96.9136 58.6038 96.7057 58.6313 96.4816 58.5788C96.2574 58.5263 96.0862 58.3989 95.9681 58.1967C95.8607 57.9944 95.8386 57.7972 95.9019 57.6049C95.9759 57.4126 96.114 57.2681 96.3163 57.1714C96.5293 57.0639 96.7634 56.9297 97.0188 56.7688C97.2742 56.6078 97.5243 56.4362 97.7689 56.254C98.0243 56.0717 98.237 55.9056 98.4071 55.7556C98.5347 55.6378 98.577 55.5417 98.534 55.4671C98.5017 55.3819 98.3842 55.3397 98.1816 55.3404L96.9816 55.3449C96.8109 55.3455 96.6613 55.2821 96.5329 55.1546C96.4151 55.027 96.3558 54.8779 96.3552 54.7072C96.3546 54.5365 96.4127 54.387 96.5295 54.2586C96.6571 54.1301 96.8062 54.0655 96.9768 54.0649L98.8488 54.058C99.3181 54.0562 99.6812 54.1562 99.9379 54.3579C100.205 54.5596 100.345 54.8204 100.357 55.1404C100.379 55.4496 100.258 55.7701 99.9924 56.1017C99.6315 56.5724 99.2064 57.006 98.7172 57.4025C98.228 57.7883 97.6906 58.153 97.1052 58.4965ZM118.526 57.5531C117.851 56.7556 117.228 55.6592 116.658 54.264C116.087 52.8687 115.659 51.1103 115.374 48.9887L108.654 49.0136C108.388 49.0146 108.169 48.9301 107.997 48.76C107.837 48.5793 107.756 48.3609 107.755 48.1049C107.754 47.8596 107.833 47.6513 107.992 47.48C108.162 47.2981 108.381 47.2066 108.647 47.2056L115.175 47.1814C115.153 46.8188 115.13 46.4456 115.107 46.0616C115.095 45.6777 115.078 45.2884 115.055 44.8938C115.054 44.5952 115.144 44.3602 115.324 44.1888C115.516 44.0068 115.745 43.9153 116.011 43.9143C116.278 43.9133 116.502 43.9978 116.684 44.1678C116.877 44.3271 116.974 44.5614 116.975 44.8707C116.966 45.2654 116.967 45.6548 116.979 46.0387C117.002 46.4226 117.025 46.8012 117.047 47.1745L121.479 47.158C121.757 47.157 121.976 47.2469 122.136 47.4276C122.297 47.5977 122.378 47.8054 122.379 48.0507C122.38 48.3067 122.3 48.5257 122.141 48.7076C121.982 48.8789 121.763 48.965 121.486 48.966L117.246 48.9817C117.487 50.6875 117.845 52.1582 118.318 53.3938C118.803 54.6187 119.34 55.534 119.929 56.1398C120.089 56.3099 120.223 56.3841 120.329 56.3624C120.447 56.3299 120.553 56.2175 120.648 56.0252C120.701 55.9077 120.765 55.7741 120.839 55.6245C120.913 55.4642 120.971 55.3306 121.013 55.2238C121.119 54.9781 121.284 54.8175 121.508 54.742C121.742 54.6558 121.977 54.6602 122.212 54.7554C122.457 54.8611 122.623 55.0259 122.709 55.2495C122.806 55.4625 122.818 55.6811 122.744 55.9054C122.67 56.1297 122.585 56.3433 122.49 56.5464C122.406 56.7493 122.305 56.9737 122.189 57.2195C121.903 57.8179 121.552 58.2192 121.137 58.4234C120.722 58.6383 120.285 58.6665 119.825 58.5082C119.377 58.3606 118.944 58.0422 118.526 57.5531ZM109.008 58.1963C108.71 58.2401 108.464 58.1877 108.272 58.0391C108.079 57.9011 107.956 57.6936 107.901 57.4164C107.858 57.1393 107.91 56.9151 108.059 56.7438C108.218 56.5619 108.442 56.4491 108.73 56.4054C108.804 56.3944 109.044 56.3562 109.449 56.2907C109.854 56.2252 110.334 56.1487 110.888 56.0614L110.876 52.6054L108.956 52.6125C108.689 52.6135 108.475 52.5289 108.315 52.3589C108.165 52.1888 108.089 51.9864 108.088 51.7517C108.087 51.5064 108.161 51.3034 108.31 51.1429C108.469 50.9716 108.682 50.8855 108.949 50.8845L114.517 50.8639C114.784 50.8629 114.992 50.9474 115.142 51.1176C115.292 51.277 115.367 51.4794 115.368 51.7247C115.369 51.9594 115.295 52.1623 115.147 52.3335C114.998 52.5048 114.79 52.5909 114.523 52.5919L112.859 52.598L112.871 55.734C113.436 55.6466 113.932 55.5647 114.358 55.4885C114.795 55.4122 115.067 55.3685 115.174 55.3575C115.451 55.3031 115.675 55.3343 115.846 55.451C116.028 55.5676 116.141 55.7539 116.184 56.0097C116.238 56.2655 116.202 56.4843 116.075 56.6661C115.958 56.8372 115.777 56.9499 115.532 57.0042C115.436 57.0258 115.223 57.0693 114.892 57.1345C114.562 57.1891 114.162 57.2599 113.693 57.347C113.224 57.434 112.734 57.5212 112.222 57.6084C111.71 57.7063 111.22 57.7988 110.751 57.8859C110.293 57.9729 109.904 58.0437 109.584 58.0982C109.275 58.1527 109.083 58.1854 109.008 58.1963ZM120.487 46.9377C120.295 47.0984 120.071 47.1686 119.815 47.1482C119.57 47.1278 119.356 47.0272 119.174 46.8466C119.099 46.7615 118.992 46.6553 118.853 46.5278C118.714 46.3896 118.575 46.2568 118.436 46.1293C118.296 46.0018 118.184 45.9009 118.098 45.8266C117.927 45.6779 117.841 45.4862 117.84 45.2515C117.85 45.0168 117.94 44.8138 118.11 44.6425C118.28 44.4605 118.477 44.3585 118.701 44.3363C118.935 44.3141 119.149 44.388 119.342 44.5579C119.438 44.6323 119.566 44.7438 119.727 44.8925C119.887 45.0306 120.043 45.1687 120.193 45.3068C120.353 45.4449 120.471 45.5564 120.546 45.6415C120.728 45.8221 120.809 46.0405 120.788 46.2966C120.778 46.542 120.678 46.7557 120.487 46.9377ZM129.462 54.2805C129.228 54.2814 129.025 54.2021 128.853 54.0428C128.693 53.8727 128.612 53.6703 128.611 53.4356C128.61 53.201 128.689 53.0034 128.849 52.8428C129.019 52.6715 129.221 52.5854 129.456 52.5845L133.36 52.57C133.595 52.5692 133.792 52.6538 133.953 52.8238C134.124 52.9832 134.21 53.1802 134.211 53.4149C134.212 53.6496 134.127 53.8525 133.957 54.0238C133.798 54.1844 133.601 54.2652 133.366 54.266L129.462 54.2805ZM141.15 57.3412C140.52 57.3435 140.205 57.1687 140.204 56.8167C140.201 56.0487 140.395 55.3013 140.787 54.5745C141.19 53.8477 141.859 53.0345 142.794 52.1351C143.124 51.8138 143.437 51.4927 143.735 51.1716C144.032 50.8398 144.276 50.5189 144.467 50.2089C144.658 49.8881 144.758 49.5838 144.768 49.2957C144.776 48.741 144.647 48.3308 144.379 48.0652C144.122 47.7994 143.754 47.6675 143.274 47.6693C142.623 47.6717 142.208 48.0039 142.029 48.6659C141.945 48.9542 141.834 49.1786 141.696 49.3391C141.568 49.4889 141.366 49.5643 141.089 49.5654C140.822 49.5664 140.608 49.4765 140.448 49.2957C140.287 49.115 140.243 48.8698 140.317 48.5602C140.485 47.7703 140.829 47.1557 141.35 46.7164C141.871 46.2664 142.51 46.0401 143.268 46.0373C143.886 46.035 144.436 46.1609 144.917 46.4152C145.409 46.6693 145.794 47.0412 146.073 47.5309C146.352 48.0205 146.483 48.6227 146.464 49.3374C146.455 49.8388 146.339 50.3032 146.117 50.7307C145.895 51.1582 145.598 51.5753 145.226 51.9821C144.864 52.3781 144.45 52.8009 143.982 53.2507C143.493 53.7325 143.058 54.1928 142.675 54.6315C142.304 55.0702 142.087 55.4497 142.024 55.7699L145.352 55.7576C145.981 55.7553 146.297 56.0154 146.299 56.5381C146.301 57.0608 145.987 57.3233 145.357 57.3256L141.15 57.3412Z" fill="black" fill-opacity="0.85"/>
</g>
<defs>
<radialGradient id="paint0_radial_1260_3865" cx="0" cy="0" r="1" gradientUnits="userSpaceOnUse" gradientTransform="translate(0.558656 46.8353) rotate(65.4889) scale(3.32531 8.21233)">
<stop offset="0.33" stop-opacity="0"/>
<stop offset="0.655" stop-opacity="0.6"/>
<stop offset="1"/>
</radialGradient>
<radialGradient id="paint1_radial_1260_3865" cx="0" cy="0" r="1" gradientUnits="userSpaceOnUse" gradientTransform="translate(355.296 45.8572) rotate(114.511) scale(3.32531 8.21233)">
<stop offset="0.33" stop-opacity="0"/>
<stop offset="0.655" stop-opacity="0.6"/>
<stop offset="1"/>
</radialGradient>
<clipPath id="clip0_1260_3865">
<rect width="200" height="90" fill="white"/>
</clipPath>
</defs>
</svg>
