<svg width="200" height="90" viewBox="0 0 200 90" fill="none" xmlns="http://www.w3.org/2000/svg">
<g clip-path="url(#clip0_2308_6803)">
<rect width="200" height="90" fill="#FEB79D"/>
<path fill-rule="evenodd" clip-rule="evenodd" d="M-6.18027 85.5257C-5.5206 81.3514 -9.94765 77.2571 -7.65473 73.2393C-4.94813 68.4966 -1.65241 61.9915 7.77154 61.0783C17.9972 60.0873 23.5998 68.8258 33.9785 69.2048C45.8176 69.6371 56.5881 60.196 66.8872 63.2371C76.2425 65.9996 70.121 74.0119 68.9752 79.5387C68.1676 83.4341 61.5364 86.4306 61.2669 90.3457C60.8502 96.3973 75.7689 103.853 67.0229 107.895C58.3557 111.9 45.7383 103.802 34.2527 102.83C27.3162 102.243 20.5655 103.925 13.6182 103.373C4.65786 102.66 -7.2514 103.227 -11.7526 99.1698C-16.3208 95.0519 -6.92748 90.2539 -6.18027 85.5257Z" fill="#FE585B"/>
<path fill-rule="evenodd" clip-rule="evenodd" d="M28.4743 10.5302C32.6486 10.8717 36.7429 8.58004 40.7607 9.76696C45.5034 11.168 52.0085 12.874 52.9217 17.7523C53.9127 23.0456 45.1742 25.9458 44.7952 31.3183C44.3629 37.4467 53.804 43.0221 50.7629 48.3534C48.0004 53.1961 39.9881 50.0274 34.4613 49.4342C30.5659 49.0162 27.5694 45.5836 23.6543 45.444C17.6027 45.2284 10.1469 52.9509 6.10508 48.4236C2.09968 43.9371 10.1975 37.4057 11.1701 31.4602C11.7575 27.8695 10.0747 24.3751 10.6274 20.7788C11.3402 16.1405 10.7727 9.97575 14.8302 7.64571C18.9481 5.281 23.7461 10.1434 28.4743 10.5302Z" fill="#FC7443"/>
<path fill-rule="evenodd" clip-rule="evenodd" d="M173.474 4.53021C177.649 4.87169 181.743 2.58004 185.761 3.76696C190.503 5.16803 197.008 6.87405 197.922 11.7523C198.913 17.0456 190.174 19.9458 189.795 25.3183C189.363 31.4467 198.804 37.0221 195.763 42.3534C193 47.1961 184.988 44.0274 179.461 43.4342C175.566 43.0162 172.569 39.5836 168.654 39.444C162.603 39.2284 155.147 46.9509 151.105 42.4236C147.1 37.9371 155.198 31.4057 156.17 25.4602C156.757 21.8695 155.075 18.3751 155.627 14.7788C156.34 10.1405 155.773 3.97575 159.83 1.64571C163.948 -0.719004 168.746 4.14342 173.474 4.53021Z" fill="#FF8787"/>
<path fill-rule="evenodd" clip-rule="evenodd" d="M117.063 7.20494C131.49 7.9797 144.155 11.9054 154.996 17.5775C166.733 23.7188 176.896 30.8598 179.688 39.9711C183.097 51.0949 184.354 63.7453 171.749 72.2549C158.691 81.0707 136.857 81.4742 117.063 82.2497C95.2362 83.1048 71.8992 84.7511 54.6033 76.8446C35.6156 68.1646 20.8565 53.9771 24.5773 39.9711C28.0889 26.7526 52.1053 19.9805 71.5388 13.0955C85.3864 8.18958 100.98 6.34119 117.063 7.20494Z" fill="#FFAB7A"/>
<ellipse cx="177.989" cy="70.7269" rx="16.7876" ry="14.0511" fill="#F55A57"/>
<ellipse cx="173.713" cy="65.6395" rx="1.21537" ry="2.15126" fill="black"/>
<ellipse cx="182.288" cy="65.6395" rx="1.21537" ry="2.15126" fill="black"/>
<path d="M173.043 72.6426C173.079 74.5703 175.312 76.0917 178.031 76.0408C180.749 75.99 182.924 74.386 182.888 72.4584C182.852 70.5307 180.67 71.7806 177.952 71.8314C175.233 71.8823 173.007 70.7149 173.043 72.6426Z" fill="black"/>
<path d="M170.798 50.9035C173.679 48.6452 180.102 51.1915 180.102 55.0219C180.103 59.542 168.088 61.6232 165.803 61.9782C165.554 62.0169 165.305 62.044 165.056 62.039C163.427 62.0062 157.617 61.2375 170.798 50.9035Z" fill="#6E5232"/>
<path d="M170.798 50.9035C173.679 48.6452 180.102 51.1915 180.102 55.0219C180.103 59.542 168.088 61.6232 165.803 61.9782C165.554 62.0169 165.305 62.044 165.056 62.039C163.427 62.0062 157.617 61.2375 170.798 50.9035Z" fill="url(#paint0_radial_2308_6803)" fill-opacity="0.15"/>
<path d="M185.204 50.7629C182.323 48.5045 175.9 51.0509 175.9 54.8813C175.899 59.4014 187.914 61.4825 190.199 61.8375C190.448 61.8763 190.697 61.9034 190.946 61.8984C192.575 61.8656 198.385 61.0968 185.204 50.7629Z" fill="#6E5232"/>
<path d="M185.204 50.7629C182.323 48.5045 175.9 51.0509 175.9 54.8813C175.899 59.4014 187.914 61.4825 190.199 61.8375C190.448 61.8763 190.697 61.9034 190.946 61.8984C192.575 61.8656 198.385 61.0968 185.204 50.7629Z" fill="url(#paint1_radial_2308_6803)" fill-opacity="0.15"/>
<path d="M102.249 30.1143C102.523 30.1133 102.66 30.2928 102.661 30.6528C102.663 31.0128 102.527 31.1933 102.254 31.1943L98.6635 31.2076L97.9887 32.6001L99.0387 32.5962L99.0361 31.9062C99.0351 31.6329 99.2279 31.4955 99.6146 31.4941C100.008 31.4926 100.205 31.6285 100.206 31.9019L100.209 32.5919L101.849 32.5858C102.175 32.5846 102.336 32.7473 102.33 33.074L102.272 36.1642C102.219 36.3111 102.116 36.4281 101.963 36.5154C101.744 36.6295 101.497 36.6838 101.224 36.6781C100.871 36.6861 100.643 36.5169 100.542 36.1706C100.447 35.8243 100.537 35.6507 100.81 35.6497L101.08 35.6486C101.167 35.6483 101.21 35.6115 101.21 35.5382L101.204 33.9082C101.203 33.7348 101.116 33.6485 100.943 33.6491L100.213 33.6519L100.227 37.5718C100.228 37.8452 100.032 37.9826 99.6386 37.984C99.252 37.9854 99.0581 37.8495 99.0571 37.5762L99.0426 33.6562L98.1326 33.6596L98.1426 36.3495C98.1436 36.6229 97.9574 36.7602 97.5841 36.7616C97.2174 36.763 97.0336 36.627 97.0326 36.3537L97.0238 33.9737C96.7914 34.2479 96.6885 34.3616 96.715 34.3148C96.4294 34.5825 96.1826 34.5701 95.9749 34.2776C95.8205 34.0048 95.6833 33.8386 95.563 33.7791L95.5771 37.5791C95.5781 37.8524 95.3886 37.9898 95.0086 37.9912C94.6353 37.9926 94.4481 37.8566 94.4471 37.5832L94.4297 32.8833C94.2108 33.1708 94.0747 33.3379 94.0216 33.3848C93.8423 33.5855 93.6453 33.4829 93.4304 33.077C93.2222 32.6644 93.2045 32.3678 93.3771 32.1872C93.6561 31.9128 93.9944 31.4416 94.3919 30.7734C94.7961 30.1052 95.074 29.5442 95.2257 29.0903C95.3247 28.8299 95.5611 28.7591 95.9349 28.8777C96.3153 28.9963 96.456 29.1791 96.3569 29.4261C96.2052 29.8533 95.9372 30.4177 95.5532 31.1191L95.5626 33.6691C96.2871 33.0797 96.8974 32.2608 97.3935 31.2123L96.4735 31.2157C96.2002 31.2167 96.0629 31.0372 96.0615 30.6772C96.0602 30.3172 96.1962 30.1367 96.4695 30.1357L97.8295 30.1307L98.1354 29.0095C98.2077 28.7492 98.4374 28.6551 98.8243 28.727C99.2112 28.7922 99.3685 28.9549 99.2961 29.2152L99.0495 30.1261L102.249 30.1143ZM108.611 36.0307C108.785 36.0301 108.871 35.9431 108.871 35.7698L108.869 35.3998C108.868 35.2264 108.782 35.1401 108.608 35.1407L107.398 35.1452C107.225 35.1459 107.139 35.2329 107.139 35.4062L107.141 36.0362L108.611 36.0307ZM110.33 30.3343C110.33 30.161 110.243 30.0746 110.069 30.0753L105.849 30.0909C105.676 30.0916 105.59 30.1786 105.59 30.3519L105.593 30.9519L110.073 30.9353C110.246 30.9346 110.332 30.8477 110.332 30.6743L110.33 30.3343ZM105.596 31.9519L105.599 32.5919L111.779 32.569C112.105 32.5678 112.259 32.7872 112.241 33.2273C112.219 34.4274 112.169 35.3875 112.092 36.1078C112.014 36.8215 111.893 37.2819 111.727 37.4892C111.568 37.7031 111.335 37.834 111.028 37.8818C110.729 37.9362 110.479 37.9538 110.279 37.9346C109.925 37.9359 109.715 37.79 109.647 37.4969L109.505 36.9674L107.145 36.9762L107.146 37.1562C107.147 37.4295 106.964 37.5669 106.597 37.5682C106.23 37.5696 106.047 37.4336 106.046 37.1603L106.036 34.6903C106.035 34.3703 106.195 34.2097 106.515 34.2085L109.505 34.1974C109.818 34.1963 109.975 34.3557 109.976 34.6757L109.984 36.5957C109.984 36.769 110.071 36.8553 110.245 36.8547L110.375 36.8542C110.508 36.8604 110.618 36.8133 110.704 36.713C110.877 36.5123 110.983 35.6286 111.024 34.0618C111.036 33.7551 110.956 33.602 110.782 33.6027L105.493 33.6223C105.312 35.3896 104.957 36.6343 104.426 37.3563C104.281 37.5968 104.084 37.6075 103.836 37.3884L103.736 37.2988C103.409 37.08 103.324 36.8437 103.484 36.5897C103.842 36.1084 104.095 35.3208 104.245 34.2269C104.362 33.3865 104.418 32.4896 104.415 31.5363L104.408 29.5763C104.406 29.2563 104.562 29.0957 104.876 29.0945L111.036 29.0717C111.356 29.0705 111.516 29.2299 111.517 29.5499L111.525 31.4499C111.526 31.7699 111.366 31.9305 111.046 31.9317L105.596 31.9519Z" fill="#FE585B"/>
<path d="M57.8176 47.666L57.8203 48.418L61.2443 48.4053C61.5217 48.4043 61.6598 48.2651 61.6588 47.9878L61.6575 47.6518L57.8176 47.666ZM58.2268 45.8405C57.9495 45.8415 57.8113 45.9754 57.8123 46.242L57.8135 46.578L61.6535 46.5638L61.6523 46.2278C61.6513 45.9611 61.5121 45.8283 61.2348 45.8294L58.2268 45.8405ZM65.7268 53.3808L65.7289 53.9568C65.73 54.2341 65.8691 54.3722 66.1465 54.3712L68.0025 54.3643C68.2798 54.3633 68.4179 54.2241 68.4169 53.9468L68.4148 53.3708L65.7268 53.3808ZM65.7182 51.0608L65.7219 52.0528L68.4099 52.0428L68.4062 51.0508L65.7182 51.0608ZM66.1257 48.7552C65.8483 48.7563 65.7102 48.8955 65.7112 49.1728L65.7132 49.7168L68.4012 49.7068L68.3992 49.1628C68.3981 48.8855 68.259 48.7473 67.9816 48.7484L66.1257 48.7552ZM62.6083 53.7923C62.4575 53.3875 62.5578 53.1152 62.9093 52.9752C63.2608 52.8352 63.5119 52.9676 63.6627 53.3724L64.2606 54.9542L64.2352 48.1062C64.2333 47.5943 64.4884 47.3373 65.0004 47.3354L65.9444 47.3319L66.0686 46.3074L64.5326 46.3131C64.0953 46.3148 63.8756 46.0489 63.8736 45.5156C63.8717 44.9822 64.0893 44.7148 64.5267 44.7131L69.5666 44.6945C70.004 44.6928 70.2236 44.9587 70.2256 45.492C70.2276 46.0254 70.0099 46.2928 69.5726 46.2945L67.8606 46.3008L67.5764 47.3259L69.1764 47.3199C69.6777 47.3181 69.9293 47.5731 69.9312 48.0851L69.9569 55.0131C69.9588 55.5251 69.7037 55.782 69.1917 55.7839L65.0318 55.7993C64.5198 55.8012 64.2629 55.5835 64.2613 55.1462L63.9259 55.2914C63.4253 55.496 63.1209 55.3851 63.0126 54.9588L60.6619 55.3035C60.2354 55.3585 59.9467 55.1675 59.7958 54.7307C59.6448 54.2833 59.6917 53.9951 59.9366 53.8662C60.0327 53.9085 60.4152 53.5018 61.084 52.646L60.6364 52.7436C60.21 52.8305 59.9214 52.6609 59.7705 52.2348C59.6196 51.8087 59.7037 51.4671 60.0227 51.2099L60.8486 49.5588L57.0726 49.5728C57.7559 49.7303 57.9599 50.0975 57.6847 50.6745L57.4305 51.1715C57.3141 51.4173 57.4425 51.5234 57.8157 51.4901L58.0224 51.1213C58.2236 50.7365 58.5485 50.6233 58.9971 50.7817C59.4564 50.94 59.5694 51.2116 59.3361 51.5964C58.9546 52.2698 58.4664 52.9383 57.8716 53.6019C57.6591 53.848 57.6916 53.9652 57.9689 53.9535L58.4167 53.9039L58.3844 53.84C58.2655 53.4137 58.3712 53.152 58.7015 53.0548C59.0318 52.9576 59.2511 53.1168 59.3593 53.5324L59.6352 54.5873C59.7434 55.0029 59.6217 55.2647 59.2701 55.3727C58.9292 55.47 58.7367 55.3533 58.6928 55.0228C57.1041 55.1887 56.2885 55.2984 56.246 55.3519C56.0649 55.4059 55.8989 55.2199 55.748 54.7938C55.597 54.3676 55.6866 54.0633 56.0166 53.8807L56.3672 53.5114L57.0042 52.7091L56.5245 52.7909C56.1836 52.8881 55.9323 52.7291 55.7708 52.3136C55.6199 51.8982 55.6986 51.5512 56.0069 51.2728C56.3143 50.7596 56.5469 50.1934 56.7046 49.5742L56.2406 49.5759L56.2254 45.4799C56.2235 44.9679 56.4786 44.711 56.9906 44.7091L62.5426 44.6885C63.0545 44.6866 63.3115 44.9416 63.3134 45.4536L63.3257 48.7816C63.3276 49.2936 63.0726 49.5506 62.5606 49.5525L61.2326 49.5574C61.9479 49.7361 62.1413 50.098 61.8126 50.6432L61.5582 51.0762C61.4204 51.3114 61.4902 51.4231 61.7675 51.4114L61.9594 51.3947L62.1343 51.0901C62.3462 50.7159 62.6872 50.6133 63.1571 50.7823C63.6271 50.9405 63.7294 51.2175 63.4642 51.6131C63.0295 52.3081 62.4296 53.0623 61.6646 53.8758L62.6083 53.7923ZM57.1375 58.4526C56.9469 58.8267 56.6112 58.9026 56.1304 58.6804C55.6495 58.4581 55.531 58.1226 55.7746 57.6737C55.9975 57.3635 56.1665 56.9149 56.2817 56.3278C56.4079 55.858 56.7007 55.7129 57.16 55.8925C57.63 56.0721 57.7914 56.4289 57.644 56.9627C57.4655 57.7314 57.2967 58.228 57.1375 58.4526ZM58.1551 56.7048C58.1108 56.2677 58.3072 56.0163 58.7443 55.9507C59.192 55.885 59.4434 56.0707 59.4983 56.5079L59.6796 57.9312C59.7239 58.3577 59.5114 58.6038 59.0423 58.6696C58.584 58.7459 58.338 58.5655 58.3043 58.1283L58.1551 56.7048ZM59.9306 56.5703C59.833 56.1546 59.9921 55.898 60.4077 55.8005C60.834 55.6922 61.1012 55.8459 61.2094 56.2615L61.5499 57.4603C61.6581 57.8759 61.4937 58.1431 61.0569 58.2621C60.62 58.3811 60.3527 58.2327 60.2552 57.8171L59.9306 56.5703ZM61.7373 56.2276C61.5652 55.8335 61.6762 55.5611 62.0703 55.4103C62.475 55.2488 62.7688 55.3651 62.9516 55.7591L63.403 56.6694C63.5858 57.0634 63.4642 57.3518 63.0382 57.5347C62.6228 57.707 62.3291 57.596 62.1569 57.202L61.7373 56.2276ZM65.1299 56.391C65.4062 56.0913 65.7795 56.0899 66.2499 56.3868C66.731 56.6837 66.8282 56.9874 66.5413 57.2978C66.4777 57.394 66.1906 57.6457 65.6801 58.053C65.1697 58.4709 64.8558 58.696 64.7386 58.7285C64.3874 58.9431 64.0191 58.8645 63.6337 58.4925C63.259 58.1206 63.2473 57.8326 63.5985 57.6287C63.6838 57.6177 63.9551 57.4247 64.4124 57.0497C64.8696 56.664 65.1088 56.4444 65.1299 56.391ZM67.8055 57.3411C67.5269 57.0114 67.6005 56.7072 68.0261 56.4283C68.4624 56.1386 68.8304 56.1479 69.1302 56.4562L70.2064 57.5882C70.5062 57.8964 70.4274 58.2114 69.9699 58.5331C69.5124 58.8548 69.1444 58.8561 68.8659 58.5372L67.8055 57.3411ZM84.0159 45.0089C84.4532 45.0073 84.673 45.3211 84.6754 45.9505C84.6777 46.5798 84.4602 46.8953 84.0229 46.8969L74.055 46.9338C73.6176 46.9355 73.3978 46.6216 73.3955 45.9923C73.3931 45.3629 73.6106 45.0475 74.048 45.0459L84.0159 45.0089ZM73.9642 52.6782C74.1227 52.2723 74.5437 52.1587 75.227 52.3375C75.9103 52.5163 76.1674 52.8087 75.9982 53.2147C75.8189 53.738 75.4482 54.4541 74.8862 55.3628C74.3349 56.2609 73.8998 56.8758 73.581 57.2077C73.3155 57.5073 72.8833 57.4609 72.2845 57.0685C71.6964 56.676 71.5458 56.3405 71.8328 56.0621C72.1199 55.8157 72.5126 55.2969 73.011 54.5058C73.5201 53.7145 73.8378 53.1054 73.9642 52.6782ZM86.162 49.881C86.1643 50.5103 85.9468 50.8258 85.5095 50.8274L79.9415 50.848L79.9691 58.288C79.9707 58.7253 79.6355 58.9452 78.9635 58.9477C78.2915 58.9502 77.9547 58.7328 77.9531 58.2955L77.9255 50.8555L72.5976 50.8753C72.1602 50.8769 71.9404 50.563 71.9381 49.9337C71.9357 49.2937 72.1532 48.9729 72.5905 48.9713L85.5024 48.9234C85.9397 48.9218 86.1596 49.241 86.162 49.881ZM82.3024 53.2393C82.0664 52.8775 82.2519 52.5675 82.8589 52.3092C83.4659 52.0403 83.941 52.1506 84.2842 52.64C85.3133 54.0228 85.9198 55.0446 86.1035 55.7052C86.2327 56.0248 86.1592 56.3397 85.883 56.6501C85.6069 56.9604 85.181 57.186 84.6055 57.3268L84.3005 57.0559C84.2355 56.7682 83.9613 56.1719 83.4779 55.267C83.0052 54.3514 82.6133 53.6755 82.3024 53.2393ZM95.4979 52.0064L95.4898 49.8304C95.4888 49.5531 95.3496 49.4149 95.0723 49.416L93.8403 49.4205C93.3283 49.4224 93.0714 49.1674 93.0695 48.6554L93.0551 44.7674C93.0534 44.3301 93.3193 44.1104 93.8526 44.1084C94.3966 44.1064 94.6694 44.3241 94.671 44.7614L94.6726 45.1934L96.5286 45.1865C96.966 45.1849 97.1856 45.4454 97.1875 45.9681C97.1895 46.4908 96.9718 46.7529 96.5344 46.7545L94.6785 46.7614L94.6812 47.5134C94.6823 47.7907 94.8215 47.9289 95.0988 47.9278L96.2988 47.9394C96.8108 47.9375 97.0678 48.1926 97.0697 48.7045L97.0819 52.0005C97.0831 52.3312 97.0414 52.5767 96.9566 52.737C96.8825 52.8973 96.7231 53.0365 96.4782 53.1548C96.2333 53.273 95.9401 53.3274 95.5988 53.318C95.0015 53.3309 94.6328 53.1456 94.4927 52.7621C94.3526 52.368 94.5012 52.1701 94.9385 52.1685L95.2265 52.1674C95.4079 52.1774 95.4983 52.1237 95.4979 52.0064ZM93.156 50.4311C93.2612 50.0147 93.5486 49.8483 94.0182 49.9319C94.4878 50.0048 94.6811 50.3454 94.598 50.9537C94.5576 51.5619 94.4153 52.0264 94.1712 52.3473C94.0123 52.6572 93.7298 52.6903 93.3235 52.4465C92.9172 52.192 92.7667 51.8565 92.8718 51.4401L93.156 50.4311ZM99.1833 53.4647L99.2585 52.1685L98.2985 52.172C97.8612 52.1736 97.6416 51.9131 97.6396 51.3905C97.6377 50.8678 97.8554 50.6056 98.2927 50.604L99.3167 50.6002L99.3116 49.2242L98.3996 49.2276C97.9623 49.2292 97.7427 48.9687 97.7407 48.4461C97.7388 47.9234 97.9565 47.6613 98.3938 47.6596L99.4018 47.6559L99.3982 46.6959C99.3972 46.4186 99.258 46.2804 98.9807 46.2814L98.2287 46.2842C97.7914 46.2859 97.5717 46.0147 97.5697 45.4707C97.5677 44.9267 97.7853 44.6539 98.2227 44.6522L100.383 44.6442C100.895 44.6423 101.146 44.9294 101.138 45.5054C101.159 48.2041 101.104 50.8549 100.975 53.4581L101.711 53.4554C102.149 53.4538 102.368 53.7463 102.371 54.3329C102.373 54.9196 102.155 55.2137 101.718 55.2154L97.8619 55.2297C99.5715 56.0233 100.779 56.6429 101.485 57.0882C101.795 57.2684 101.737 57.5993 101.312 58.0809C100.898 58.5731 100.52 58.7078 100.178 58.4851C99.269 57.8591 98.3229 57.3186 97.3399 56.8636C96.656 56.5141 96.505 56.088 96.8872 55.5853L97.1579 55.2323L92.4059 55.2499L93.0157 55.7436C93.5079 56.1471 93.472 56.5313 92.908 56.896C92.0781 57.4644 90.9389 58.0393 89.4904 58.6207C89.0538 58.8143 88.6532 58.6718 88.2888 58.1932C87.935 57.7251 87.9872 57.3996 88.4452 57.2166C89.734 56.7318 90.9423 56.0766 92.0699 55.2511L88.3579 55.2649C87.9206 55.2665 87.7008 54.974 87.6987 54.3873C87.6965 53.8007 87.9141 53.5065 88.3514 53.5049L89.1354 53.502L88.8515 45.967C88.839 45.487 89.0512 45.1609 89.4878 44.9886L91.2772 44.278C91.682 44.1272 92.0187 44.3126 92.2873 44.8342C92.5665 45.3452 92.4984 45.6601 92.0828 45.779L90.9481 46.1192C90.6923 46.1948 90.565 46.366 90.566 46.6326L90.6178 47.6725L91.7858 47.6681C92.2231 47.6665 92.4428 47.927 92.4447 48.4497C92.4466 48.9617 92.2289 49.2185 91.7915 49.2201L90.6716 49.2243L90.7247 50.6001L91.8446 50.5959C92.282 50.5943 92.5016 50.8548 92.5036 51.3775C92.5054 51.8895 92.2877 52.1463 91.8504 52.1479L90.7784 52.1519L90.8314 53.4957L99.1833 53.4647ZM110.182 50.912C110.181 50.6346 110.042 50.4965 109.764 50.4975L107.556 50.5057C107.279 50.5067 107.141 50.6459 107.142 50.9232L107.148 52.6512C107.149 52.9285 107.289 53.0667 107.566 53.0657L109.774 53.0575C110.051 53.0565 110.189 52.9173 110.188 52.64L110.182 50.912ZM112.082 54.1049C112.084 54.6169 111.829 54.8739 111.317 54.8758L106.053 54.8953C105.551 54.8972 105.3 54.6421 105.298 54.1301L105.281 49.4741C105.279 48.9621 105.534 48.7052 106.046 48.7033L111.31 48.6838C111.811 48.6819 112.063 48.937 112.065 49.449L112.082 54.1049ZM117.552 44.9486C117.989 44.947 118.209 45.2662 118.211 45.9062C118.214 46.5462 117.996 46.867 117.559 46.8686L116.375 46.873L116.41 56.4089C116.412 56.9849 116.334 57.4279 116.175 57.7378C116.027 58.0477 115.767 58.2833 115.394 58.4447C114.808 58.6815 113.907 58.7969 112.691 58.7907C112.083 58.8036 111.645 58.4746 111.375 57.8036C111.117 57.1325 111.132 56.8071 111.42 56.8274C111.697 56.8371 112.524 56.8393 113.9 56.8342C114.081 56.8336 114.209 56.8011 114.284 56.7368C114.369 56.6725 114.411 56.555 114.41 56.3843L114.375 46.8804L104.455 46.9172C104.018 46.9188 103.798 46.5996 103.796 45.9596C103.793 45.3196 104.011 44.9988 104.448 44.9972L117.552 44.9486ZM123.655 51.086L123.657 51.662C123.658 51.9394 123.797 52.0775 124.074 52.0765L129.93 52.0548C130.208 52.0537 130.346 51.9146 130.345 51.6372L130.343 51.0612L123.655 51.086ZM123.645 48.542L123.649 49.534L130.337 49.5092L130.333 48.5173L123.645 48.542ZM124.052 46.0125C123.775 46.0135 123.636 46.1527 123.637 46.4301L123.64 47.0061L130.328 46.9813L130.325 46.4053C130.324 46.1279 130.185 45.9898 129.908 45.9908L124.052 46.0125ZM130.396 56.8371L132.06 56.8309C132.337 56.8299 132.513 56.7066 132.587 56.461C132.671 56.2153 132.713 55.9272 132.711 55.5965C132.752 54.999 133.061 54.8272 133.638 55.0811C134.225 55.3242 134.483 55.7393 134.41 56.3262C134.381 56.9983 134.212 57.5483 133.904 57.9761C133.597 58.4146 133.043 58.6353 132.243 58.6382L130.131 58.6461C129.192 58.6496 128.562 58.4866 128.241 58.1571C127.93 57.8276 127.773 57.2041 127.77 56.2868L127.761 53.7268L125.825 53.734C125.731 54.417 125.595 55.0042 125.415 55.4955C125.236 55.9869 124.96 56.4572 124.588 56.9066C123.866 57.7626 122.812 58.3425 121.427 58.6463C120.883 58.7977 120.434 58.5913 120.08 58.0273C119.726 57.4633 119.826 57.1216 120.381 57.0022C121.415 56.817 122.219 56.4407 122.792 55.8733C123.101 55.5734 123.323 55.2633 123.461 54.9428L123.777 53.7416L122.593 53.746C122.081 53.7479 121.824 53.4928 121.822 52.9808L121.793 45.1249C121.791 44.6129 122.046 44.3559 122.558 44.354L131.486 44.321C131.998 44.3191 132.255 44.5741 132.257 45.0861L132.286 52.942C132.288 53.454 132.032 53.711 131.52 53.7129L129.68 53.7197L129.69 56.2637C129.691 56.5197 129.729 56.6796 129.804 56.7433C129.889 56.807 130.087 56.8382 130.396 56.8371ZM146.635 56.3929L149.754 56.3813C150.192 56.3797 150.412 56.6829 150.414 57.2909C150.416 57.8882 150.199 58.1877 149.761 58.1893L141.105 58.2214C140.679 58.223 140.464 57.9251 140.462 57.3278C140.46 56.7198 140.672 56.415 141.099 56.4134L144.731 56.3999L144.719 53.2L142.287 53.209C141.849 53.2106 141.63 52.9181 141.627 52.3314C141.625 51.7341 141.843 51.4346 142.28 51.433L144.712 51.424L144.702 48.8L142.942 48.8065C142.711 49.6287 142.505 50.1788 142.324 50.4568C142.145 50.8308 141.771 50.8749 141.205 50.589C140.639 50.3031 140.451 49.9678 140.641 49.5831L140.832 49.2303L140.64 49.3271C140.161 49.5422 139.841 49.3994 139.679 48.8986L139.307 47.812L139.345 58.0839C139.346 58.5212 139.027 58.7411 138.387 58.7435C137.758 58.7458 137.442 58.5283 137.441 58.091L137.401 47.307C137.279 49.0355 137.092 50.2789 136.839 51.0372C136.744 51.3788 136.462 51.4652 135.992 51.2963C135.522 51.1274 135.339 50.8774 135.445 50.5463C135.709 49.852 135.876 48.9767 135.947 47.9204C136.019 47.2268 136.317 46.9164 136.84 46.9891L137.4 47.0671L137.39 44.4591C137.389 44.0217 137.702 43.8019 138.332 43.7996C138.972 43.7972 139.293 44.0147 139.294 44.452L139.303 46.82L139.543 46.7231C140.001 46.5294 140.342 46.6668 140.568 47.1353C140.697 47.3482 140.88 47.7848 141.117 48.4453C141.507 47.2918 141.754 46.2296 141.857 45.2585C141.919 44.7783 142.26 44.5797 142.879 44.6627C143.498 44.7458 143.771 45.0008 143.698 45.4277L143.416 47.0128L144.696 47.008L144.687 44.528C144.685 44.0907 144.999 43.8709 145.628 43.8685C146.268 43.8662 146.589 44.0836 146.591 44.521L146.6 47.001L149.208 46.9913C149.645 46.9897 149.865 47.2875 149.867 47.8848C149.869 48.4822 149.652 48.7817 149.214 48.7833L146.606 48.7929L146.616 51.4169L148.888 51.4085C149.325 51.4069 149.545 51.7047 149.547 52.3021C149.55 52.8887 149.332 53.1829 148.895 53.1845L146.623 53.1929L146.635 56.3929Z" fill="black" fill-opacity="0.85"/>
</g>
<defs>
<radialGradient id="paint0_radial_2308_6803" cx="0" cy="0" r="1" gradientUnits="userSpaceOnUse" gradientTransform="translate(0.560609 46.8353) rotate(65.4889) scale(3.32531 8.21233)">
<stop offset="0.33" stop-opacity="0"/>
<stop offset="0.655" stop-opacity="0.6"/>
<stop offset="1"/>
</radialGradient>
<radialGradient id="paint1_radial_2308_6803" cx="0" cy="0" r="1" gradientUnits="userSpaceOnUse" gradientTransform="translate(355.3 45.8572) rotate(114.511) scale(3.32531 8.21233)">
<stop offset="0.33" stop-opacity="0"/>
<stop offset="0.655" stop-opacity="0.6"/>
<stop offset="1"/>
</radialGradient>
<clipPath id="clip0_2308_6803">
<rect width="200" height="90" fill="white"/>
</clipPath>
</defs>
</svg>
