<svg width="200" height="90" viewBox="0 0 200 90" fill="none" xmlns="http://www.w3.org/2000/svg">
<g clip-path="url(#clip0_2308_6981)">
<rect width="200" height="90" fill="#FEB79D"/>
<path fill-rule="evenodd" clip-rule="evenodd" d="M-6.18027 85.5257C-5.5206 81.3514 -9.94765 77.2571 -7.65473 73.2393C-4.94813 68.4966 -1.65241 61.9915 7.77154 61.0783C17.9972 60.0873 23.5998 68.8258 33.9785 69.2048C45.8176 69.6371 56.5881 60.196 66.8872 63.2371C76.2425 65.9996 70.121 74.0119 68.9752 79.5387C68.1676 83.4341 61.5364 86.4306 61.2669 90.3457C60.8502 96.3973 75.7689 103.853 67.0229 107.895C58.3557 111.9 45.7383 103.802 34.2527 102.83C27.3162 102.243 20.5655 103.925 13.6182 103.373C4.65786 102.66 -7.2514 103.227 -11.7526 99.1698C-16.3208 95.0519 -6.92748 90.2539 -6.18027 85.5257Z" fill="#FE585B"/>
<path fill-rule="evenodd" clip-rule="evenodd" d="M28.4743 10.5302C32.6486 10.8717 36.7429 8.58004 40.7607 9.76696C45.5034 11.168 52.0085 12.874 52.9217 17.7523C53.9127 23.0456 45.1742 25.9458 44.7952 31.3183C44.3629 37.4467 53.804 43.0221 50.7629 48.3534C48.0004 53.1961 39.9881 50.0274 34.4613 49.4342C30.5659 49.0162 27.5694 45.5836 23.6543 45.444C17.6027 45.2284 10.1469 52.9509 6.10508 48.4236C2.09968 43.9371 10.1975 37.4057 11.1701 31.4602C11.7575 27.8695 10.0747 24.3751 10.6274 20.7788C11.3402 16.1405 10.7727 9.97575 14.8302 7.64571C18.9481 5.281 23.7461 10.1434 28.4743 10.5302Z" fill="#FC7443"/>
<path fill-rule="evenodd" clip-rule="evenodd" d="M173.474 4.53021C177.649 4.87169 181.743 2.58004 185.761 3.76696C190.503 5.16803 197.008 6.87405 197.922 11.7523C198.913 17.0456 190.174 19.9458 189.795 25.3183C189.363 31.4467 198.804 37.0221 195.763 42.3534C193 47.1961 184.988 44.0274 179.461 43.4342C175.566 43.0162 172.569 39.5836 168.654 39.444C162.603 39.2284 155.147 46.9509 151.105 42.4236C147.1 37.9371 155.198 31.4057 156.17 25.4602C156.757 21.8695 155.075 18.3751 155.627 14.7788C156.34 10.1405 155.773 3.97575 159.83 1.64571C163.948 -0.719004 168.746 4.14342 173.474 4.53021Z" fill="#FF8787"/>
<path fill-rule="evenodd" clip-rule="evenodd" d="M117.063 7.20494C131.49 7.9797 144.155 11.9054 154.996 17.5775C166.733 23.7188 176.896 30.8598 179.688 39.9711C183.097 51.0949 184.354 63.7453 171.749 72.2549C158.691 81.0707 136.857 81.4742 117.063 82.2497C95.2362 83.1048 71.8992 84.7511 54.6033 76.8446C35.6156 68.1646 20.8565 53.9771 24.5773 39.9711C28.0889 26.7526 52.1053 19.9805 71.5388 13.0955C85.3864 8.18958 100.98 6.34119 117.063 7.20494Z" fill="#FFAB7A"/>
<ellipse cx="177.989" cy="70.7269" rx="16.7876" ry="14.0511" fill="#F55A57"/>
<ellipse cx="173.713" cy="65.6395" rx="1.21537" ry="2.15126" fill="black"/>
<ellipse cx="182.288" cy="65.6395" rx="1.21537" ry="2.15126" fill="black"/>
<path d="M173.043 72.6426C173.079 74.5703 175.312 76.0917 178.031 76.0408C180.749 75.99 182.924 74.386 182.888 72.4584C182.852 70.5307 180.67 71.7806 177.952 71.8314C175.233 71.8823 173.007 70.7149 173.043 72.6426Z" fill="black"/>
<path d="M170.798 50.9035C173.679 48.6452 180.102 51.1915 180.102 55.0219C180.103 59.542 168.088 61.6232 165.803 61.9782C165.554 62.0169 165.305 62.044 165.056 62.039C163.427 62.0062 157.617 61.2375 170.798 50.9035Z" fill="#6E5232"/>
<path d="M170.798 50.9035C173.679 48.6452 180.102 51.1915 180.102 55.0219C180.103 59.542 168.088 61.6232 165.803 61.9782C165.554 62.0169 165.305 62.044 165.056 62.039C163.427 62.0062 157.617 61.2375 170.798 50.9035Z" fill="url(#paint0_radial_2308_6981)" fill-opacity="0.15"/>
<path d="M185.204 50.7629C182.323 48.5045 175.9 51.0509 175.9 54.8813C175.899 59.4014 187.914 61.4825 190.199 61.8375C190.448 61.8763 190.697 61.9034 190.946 61.8984C192.575 61.8656 198.385 61.0968 185.204 50.7629Z" fill="#6E5232"/>
<path d="M185.204 50.7629C182.323 48.5045 175.9 51.0509 175.9 54.8813C175.899 59.4014 187.914 61.4825 190.199 61.8375C190.448 61.8763 190.697 61.9034 190.946 61.8984C192.575 61.8656 198.385 61.0968 185.204 50.7629Z" fill="url(#paint1_radial_2308_6981)" fill-opacity="0.15"/>
<path d="M46.9881 36.1684C47.0266 35.7749 47.1893 35.601 47.4761 35.6466C47.763 35.6922 47.887 35.8951 47.8484 36.2552C47.8107 36.8753 47.7226 37.3923 47.5841 37.8062C47.525 38.0331 47.3552 38.097 47.0748 37.9981C46.8012 37.9058 46.694 37.7628 46.7532 37.5693C46.8721 37.2688 46.9504 36.8019 46.9881 36.1684ZM48.1881 36.1739C48.1469 35.8608 48.2562 35.6704 48.516 35.6027C48.7757 35.5351 48.9228 35.6346 48.9571 35.9011L49.1318 37.1805C49.1661 37.447 49.0434 37.6174 48.7637 37.6918C48.4907 37.7662 48.3436 37.6634 48.3226 37.3835C48.3215 37.0901 48.2766 36.687 48.1881 36.1739ZM49.2869 35.8499C49.2193 35.5901 49.3053 35.4198 49.545 35.3389C49.7847 35.2514 49.945 35.3374 50.026 35.5971L50.37 36.6859C50.4443 36.9456 50.3516 37.1259 50.092 37.2269C49.839 37.3278 49.6787 37.2484 49.6111 36.9887L49.2869 35.8499ZM53.2063 35.6853L54.0761 35.6321C54.3494 35.6244 54.4966 35.7539 54.5176 36.0205C54.5452 36.287 54.4224 36.4308 54.1492 36.4519L53.9393 36.4826L53.0993 36.4857C52.6926 36.4872 52.419 36.4083 52.2784 36.2488C52.1444 36.0826 52.0767 35.7895 52.0751 35.3695L52.0729 34.7795C51.8796 34.7803 51.7824 34.6339 51.7813 34.3406C51.7802 34.0406 51.9163 33.8901 52.1896 33.8891L52.7896 33.8869L52.7089 33.6972C52.5945 33.3909 52.6937 33.1872 53.0067 33.0861L53.1365 33.0456L52.1365 33.0493C51.8632 33.0503 51.726 32.9041 51.7249 32.6108C51.7238 32.3108 51.8599 32.1603 52.1332 32.1593L52.2632 32.1588C52.2218 31.7723 52.1507 31.4826 52.05 31.2896C51.9423 31.0033 51.9983 30.8231 52.218 30.749C52.4444 30.6748 52.5981 30.7676 52.679 31.0273L52.8408 31.5067C52.9419 31.8063 52.8427 32.0067 52.543 32.1078L52.4132 32.1583L53.2932 32.155L53.5491 31.044C53.6081 30.7838 53.7711 30.6899 54.0381 30.7622C54.305 30.8279 54.3989 30.9909 54.3199 31.2512L54.0432 32.1522L54.1432 32.1518C54.4165 32.1508 54.5538 32.3003 54.5549 32.6003C54.556 32.8937 54.4198 33.0408 54.1465 33.0418L53.3865 33.0447L53.4974 33.2842C53.6252 33.5838 53.5559 33.784 53.2896 33.885L54.1096 33.882C54.383 33.881 54.5202 34.0305 54.5213 34.3305C54.5224 34.6238 54.3863 34.771 54.1129 34.772L53.0129 34.7761L53.016 35.616C53.0629 35.6625 53.1263 35.6856 53.2063 35.6853ZM55.313 29.3975C55.6397 29.3963 55.8036 29.559 55.8048 29.8857L55.7441 37.7759C55.6913 37.9228 55.5884 38.0365 55.4353 38.1171C55.1958 38.2513 54.9127 38.3124 54.586 38.3002C54.2261 38.3149 53.9955 38.1524 53.8942 37.8128C53.7996 37.4798 53.889 37.3128 54.1623 37.3118L54.6023 37.3102C54.7157 37.3164 54.7722 37.2629 54.7717 37.1495L54.7478 30.6896C54.7472 30.5163 54.6602 30.4299 54.4868 30.4306L51.7969 30.4405C51.6235 30.4412 51.5372 30.5282 51.5378 30.7015L51.5646 37.9314C51.5656 38.2048 51.3895 38.3421 51.0361 38.3434C50.6828 38.3447 50.5056 38.2087 50.5046 37.9354L50.4931 34.8154L50.2435 34.9263C49.8774 35.081 49.6605 35.0185 49.5928 34.7387C48.1736 34.9773 47.3909 35.1336 47.2445 35.2074C47.1379 35.2412 47.0308 35.1016 46.9229 34.7886C46.8151 34.469 46.821 34.279 46.9408 34.2186C47.1074 34.2046 47.5089 33.7098 48.1453 32.7341C47.5456 32.803 47.2491 32.8507 47.2559 32.8774C47.0961 32.9313 46.9589 32.8018 46.8444 32.4889C46.7366 32.1693 46.7724 31.9458 46.9519 31.8185C46.9322 31.8986 47.0218 31.7816 47.2206 31.4675C47.3466 31.287 47.5287 30.953 47.7669 30.4655C48.0051 29.9712 48.1538 29.6174 48.213 29.4038C48.3054 29.1501 48.5085 29.0894 48.8223 29.2215C49.1428 29.3537 49.2402 29.56 49.1146 29.8405C48.8304 30.5082 48.5093 31.1061 48.1513 31.634C48.0518 31.7878 48.0888 31.8609 48.2621 31.8536L48.7119 31.812L49.228 30.7601C49.3471 30.5196 49.5504 30.4922 49.8377 30.6778C50.1251 30.8634 50.2059 31.0798 50.0801 31.3269C49.6499 32.1752 49.0997 33.0139 48.4294 33.843C48.31 33.9968 48.3336 34.0634 48.5002 34.0428L49.3397 33.9197L49.2286 33.6201C49.141 33.3671 49.2237 33.1934 49.4767 33.0991C49.7297 32.9982 49.8999 33.0742 49.9875 33.3273L50.4926 34.6954L50.4748 29.8954C50.4736 29.5754 50.633 29.4148 50.953 29.4136L55.313 29.3975ZM61.9922 34.5628L64.3422 34.5541C63.9214 34.3289 63.5203 34.0571 63.1392 33.7385C62.787 34.0465 62.4046 34.3212 61.9922 34.5628ZM62.06 36.6625C62.0606 36.8359 62.1476 36.9222 62.3209 36.9216L63.8909 36.9157C64.0643 36.9151 64.1506 36.8281 64.15 36.6548L64.1459 35.5548L62.0559 35.5625L62.06 36.6625ZM60.1779 33.4095C60.3721 33.6421 60.383 33.8821 60.2106 34.1294L60.131 34.2297C60.9698 33.9132 61.7049 33.4905 62.3363 32.9615L61.5826 31.9843C61.3437 32.2785 61.1944 32.4457 61.1345 32.4859C60.9418 32.6666 60.7585 32.674 60.5846 32.508C60.5845 32.488 60.4307 32.3552 60.1231 32.1097L59.2731 32.1128L59.274 32.3528L60.1779 33.4095ZM63.7998 31.216C63.8926 31.0757 63.8524 31.0058 63.679 31.0065L62.299 31.0116L62.2294 31.1119L63.0936 32.2287L63.7998 31.216ZM64.2751 29.9543C64.5485 29.9533 64.8087 30.0123 65.0558 30.1314C65.3096 30.2438 65.3869 30.4335 65.2879 30.7005C65.064 31.4414 64.6101 32.1964 63.9263 32.9656C64.5948 33.4698 65.2127 33.7975 65.78 33.9487C66.0536 34.0277 66.071 34.2343 65.8323 34.5685C65.5935 34.8961 65.414 35.0368 65.2938 34.9905L65.303 37.4605C65.3041 37.7738 65.1447 37.9311 64.8247 37.9323L61.4347 37.9449C61.1147 37.946 60.9541 37.7866 60.953 37.4666L60.9442 35.0967C60.6047 35.2379 60.3545 35.1822 60.1936 34.9294L59.922 34.5204C59.8624 34.6073 59.809 34.6075 59.762 34.521L59.2789 33.6828L59.2945 37.8828C59.2955 38.1561 59.1093 38.2935 58.736 38.2949C58.3627 38.2962 58.1755 38.1603 58.1745 37.8869L58.162 34.507C57.8519 35.3948 57.5808 35.9891 57.3486 36.29C57.2292 36.4704 57.0756 36.381 56.8876 36.0217C56.7062 35.6624 56.6852 35.3858 56.8245 35.1919C56.9838 34.998 57.1923 34.5906 57.45 33.9696C57.7143 33.3486 57.9187 32.7312 58.0631 32.1173L57.2531 32.1203C56.9798 32.1213 56.8424 31.9385 56.8411 31.5718C56.8397 31.2052 56.9757 31.0213 57.249 31.0203L58.149 31.017L58.143 29.377C58.1419 29.1037 58.3281 28.9663 58.7014 28.9649C59.0748 28.9635 59.2619 29.0995 59.2629 29.3728L59.269 31.0128L59.909 31.0105C60.229 31.0093 60.3897 31.1887 60.391 31.5487C61.135 30.8193 61.6389 30.084 61.9029 29.3431C62.0152 29.076 62.2582 28.9951 62.632 29.1004C63.0123 29.1989 63.1496 29.3718 63.0439 29.6188L62.8753 29.9995L64.2751 29.9543ZM75.6168 30.3722C75.8901 30.3712 76.0274 30.5507 76.0288 30.9107C76.0301 31.2707 75.8941 31.4512 75.6208 31.4522L72.0308 31.4655L71.3559 32.858L72.4059 32.8542L72.4034 32.1642C72.4024 31.8908 72.5952 31.7534 72.9819 31.752C73.3752 31.7506 73.5724 31.8865 73.5734 32.1598L73.5759 32.8498L75.2159 32.8437C75.5426 32.8425 75.7032 33.0053 75.6977 33.332L75.6392 36.4222C75.5864 36.5691 75.4835 36.6861 75.3305 36.7733C75.1109 36.8875 74.8644 36.9417 74.5911 36.9361C74.2378 36.9441 74.0105 36.7749 73.9092 36.4286C73.8146 36.0823 73.9039 35.9086 74.1773 35.9076L74.4473 35.9066C74.5339 35.9063 74.5771 35.8695 74.5769 35.7961L74.5708 34.1661C74.5702 33.9928 74.4832 33.9065 74.3099 33.9071L73.5799 33.9098L73.5944 37.8298C73.5954 38.1031 73.3992 38.2405 73.0059 38.242C72.6193 38.2434 72.4254 38.1075 72.4244 37.8341L72.4099 33.9141L71.4999 33.9175L71.5098 36.6075C71.5109 36.8808 71.3247 37.0182 70.9514 37.0196C70.5847 37.0209 70.4009 36.8849 70.3999 36.6116L70.391 34.2316C70.1587 34.5058 70.0558 34.6195 70.0823 34.5728C69.7966 34.8405 69.5499 34.8281 69.3422 34.5355C69.1878 34.2628 69.0505 34.0966 68.9303 34.037L68.9444 37.837C68.9454 38.1104 68.7559 38.2477 68.3759 38.2491C68.0026 38.2505 67.8154 38.1145 67.8144 37.8412L67.797 33.1412C67.578 33.4287 67.442 33.5959 67.3888 33.6428C67.2096 33.8434 67.0125 33.7408 66.7977 33.3349C66.5895 32.9224 66.5717 32.6258 66.7444 32.4451C67.0234 32.1708 67.3616 31.6995 67.7592 31.0314C68.1633 30.3632 68.4413 29.8022 68.5929 29.3483C68.692 29.0879 68.9284 29.017 69.3021 29.1356C69.6826 29.2542 69.8233 29.437 69.7242 29.6841C69.5724 30.1113 69.3045 30.6756 68.9204 31.3771L68.9299 33.927C69.6544 33.3377 70.2647 32.5188 70.7608 31.4702L69.8408 31.4737C69.5675 31.4747 69.4301 31.2952 69.4288 30.9352C69.4275 30.5752 69.5635 30.3947 69.8368 30.3937L71.1968 30.3886L71.5026 29.2675C71.575 29.0072 71.8047 28.913 72.1916 28.9849C72.5785 29.0502 72.7358 29.2129 72.6634 29.4732L72.4168 30.3841L75.6168 30.3722ZM81.9787 36.2887C82.1521 36.2881 82.2384 36.2011 82.2378 36.0277L82.2364 35.6577C82.2358 35.4844 82.1488 35.3981 81.9754 35.3987L80.7654 35.4032C80.5921 35.4038 80.5058 35.4908 80.5064 35.6642L80.5087 36.2941L81.9787 36.2887ZM83.6976 30.5923C83.697 30.419 83.61 30.3326 83.4367 30.3333L79.2167 30.3489C79.0434 30.3495 78.957 30.4365 78.9577 30.6099L78.9599 31.2099L83.4399 31.1932C83.6132 31.1926 83.6995 31.1056 83.6989 30.9323L83.6976 30.5923ZM78.9636 32.2098L78.966 32.8498L85.1459 32.8269C85.4726 32.8257 85.6267 33.0452 85.6084 33.4852C85.5862 34.6853 85.5364 35.6455 85.459 36.3658C85.3817 37.0794 85.2601 37.5399 85.0942 37.7472C84.935 37.9611 84.7021 38.0919 84.3956 38.1398C84.0958 38.1942 83.8459 38.2118 83.6458 38.1925C83.2925 38.1938 83.0819 38.048 83.0142 37.7549L82.8722 37.2254L80.5122 37.2341L80.5129 37.4141C80.5139 37.6875 80.3311 37.8248 79.9644 37.8262C79.5978 37.8275 79.4139 37.6915 79.4129 37.4182L79.4038 34.9482C79.4026 34.6282 79.562 34.4676 79.882 34.4665L82.8719 34.4554C83.1853 34.4542 83.3425 34.6136 83.3437 34.9336L83.3508 36.8536C83.3515 37.0269 83.4385 37.1133 83.6118 37.1127L83.7418 37.1122C83.8752 37.1183 83.985 37.0713 84.0713 36.9709C84.2439 36.7703 84.3506 35.8866 84.3915 34.3197C84.4037 34.013 84.3231 33.86 84.1498 33.8606L78.8598 33.8802C78.6797 35.6476 78.3243 36.8922 77.7936 37.6142C77.6478 37.8548 77.4512 37.8655 77.2037 37.6464L77.1034 37.5568C76.7759 37.338 76.6917 37.1016 76.8508 36.8477C77.209 36.3664 77.4627 35.5788 77.612 34.4849C77.7289 33.6444 77.7856 32.7475 77.7821 31.7942L77.7748 29.8342C77.7736 29.5142 77.9297 29.3537 78.243 29.3525L84.403 29.3297C84.723 29.3285 84.8836 29.4879 84.8847 29.8079L84.8918 31.7079C84.893 32.0279 84.7336 32.1885 84.4136 32.1896L78.9636 32.2098ZM91.455 39.1336C91.1488 39.2681 90.9219 39.2089 90.7743 38.9561C89.9225 37.5726 89.4932 35.9742 89.4865 34.1609C89.4798 32.3409 89.8972 30.7426 90.7388 29.3662C90.8845 29.1123 91.1109 29.0515 91.4181 29.1837C91.7252 29.3092 91.8126 29.4922 91.6801 29.7327C91.0045 30.9085 90.67 32.3865 90.6766 34.1664C90.6831 35.9398 91.0286 37.4118 91.7129 38.5826C91.8472 38.8221 91.7612 39.0058 91.455 39.1336ZM96.518 37.4348C95.478 37.4387 94.6235 37.1085 93.9543 36.4443C93.2918 35.7734 92.9584 34.8413 92.9539 33.648C92.9495 32.4547 93.2827 31.5101 93.9535 30.8143C94.6242 30.1118 95.4395 29.7588 96.3995 29.7552C97.3662 29.7516 98.0537 29.9757 98.462 30.4276C98.676 30.6068 98.6536 30.8535 98.3948 31.1678C98.136 31.4821 97.8895 31.553 97.6556 31.3806C97.448 31.1413 97.0542 31.0228 96.4742 31.0249C95.8943 31.0271 95.4118 31.2589 95.0268 31.7203C94.6485 32.175 94.4608 32.8057 94.4638 33.6124C94.4668 34.4124 94.6558 35.0384 95.0308 35.4903C95.4058 35.9356 95.9533 36.1569 96.6733 36.1542C97.0666 36.1528 97.3729 36.0583 97.5922 35.8708L97.5878 34.6708C97.5871 34.4975 97.5035 34.4111 97.3368 34.4118L96.6868 34.4142C96.4135 34.4152 96.2761 34.2157 96.2746 33.8157C96.2731 33.409 96.409 33.2052 96.6823 33.2042L98.4223 33.1977C98.7423 33.1965 98.9029 33.3559 98.9041 33.6759L98.9147 36.5359C98.649 36.7969 98.3065 37.0115 97.8871 37.1797C97.4677 37.348 97.0113 37.433 96.518 37.4348ZM101.115 37.2778C100.629 37.2796 100.385 37.1438 100.384 36.8705L100.366 32.0905C100.365 31.8172 100.565 31.6798 100.965 31.6783C101.365 31.6768 101.579 31.8127 101.606 32.0859L101.678 32.6657C101.897 32.3048 102.146 32.0273 102.425 31.8329C102.711 31.6318 102.987 31.5308 103.254 31.5298L103.554 31.5887C103.821 31.6277 103.912 31.8607 103.827 32.2877C103.749 32.708 103.573 32.902 103.299 32.8696L103.079 32.8305C102.859 32.8313 102.633 32.9221 102.4 33.103C102.174 33.2772 101.988 33.5545 101.843 33.9351L101.854 36.865C101.855 37.1384 101.609 37.2759 101.115 37.2778ZM105.471 37.2616C104.984 37.2634 104.74 37.1277 104.739 36.8543L104.722 32.0744C104.721 31.801 104.963 31.6635 105.45 31.6617C105.943 31.6598 106.191 31.7956 106.192 32.0689L106.209 36.8489C106.21 37.1222 105.964 37.2598 105.471 37.2616ZM106.066 30.5394C105.913 30.6866 105.71 30.7607 105.457 30.7616C105.203 30.7626 104.997 30.69 104.836 30.5439C104.675 30.3979 104.595 30.2048 104.594 29.9648C104.593 29.7182 104.672 29.5212 104.832 29.3739C104.991 29.2267 105.197 29.1526 105.451 29.1516C105.704 29.1507 105.908 29.2233 106.062 29.3694C106.222 29.5155 106.303 29.7118 106.304 29.9585C106.305 30.1985 106.225 30.3921 106.066 30.5394ZM109.748 37.3858C109.048 37.3884 108.491 37.1304 108.076 36.612C107.66 36.0868 107.451 35.3776 107.448 34.4843C107.444 33.591 107.675 32.8734 108.14 32.3317C108.604 31.7833 109.153 31.5079 109.787 31.5056C110.293 31.5037 110.767 31.7053 111.209 32.1103L111.15 29.6705C111.149 29.3972 111.392 29.2596 111.878 29.2578C112.365 29.256 112.609 29.3918 112.61 29.6651L112.636 36.8251C112.637 37.0984 112.438 37.2358 112.038 37.2373C111.645 37.2387 111.424 37.1062 111.376 36.8397L111.336 36.6599C110.818 37.1418 110.288 37.3838 109.748 37.3858ZM110.124 36.1744C110.517 36.1729 110.867 35.9783 111.172 35.5905L111.163 33.1305C110.855 32.8516 110.518 32.7129 110.151 32.7143C109.791 32.7156 109.502 32.87 109.283 33.1775C109.064 33.4783 108.956 33.8987 108.958 34.4387C108.962 35.5987 109.351 36.1772 110.124 36.1744ZM117.079 37.2186C116.759 37.2198 116.598 37.0604 116.597 36.7404L116.573 30.2204C116.572 29.9471 116.818 29.8095 117.312 29.8077C117.805 29.8059 118.052 29.9416 118.053 30.2149L118.074 35.7149C118.074 35.8882 118.161 35.9746 118.334 35.9739L120.674 35.9653C120.948 35.9643 121.085 36.1704 121.087 36.5837C121.088 36.9971 120.952 37.2042 120.679 37.2053L117.079 37.2186ZM125.368 36.5879C124.77 37.0834 124.207 37.3322 123.681 37.3341C123.161 37.3361 122.747 37.1809 122.439 36.8687C122.131 36.5565 121.976 36.1604 121.975 35.6804C121.972 35.0805 122.227 34.6162 122.739 34.2876C123.252 33.9524 123.957 33.7398 124.857 33.6497C125.084 33.6156 125.177 33.4886 125.136 33.2687C125.141 32.842 124.84 32.6298 124.233 32.6321C123.82 32.6336 123.454 32.7349 123.134 32.9361C122.842 33.0905 122.605 33.0081 122.424 32.6888C122.249 32.3627 122.295 32.1226 122.561 31.9682C123.086 31.6263 123.716 31.454 124.449 31.4512C125.916 31.4458 126.652 32.2664 126.658 33.9131L126.669 36.7831C126.67 37.0497 126.47 37.1838 126.07 37.1853C125.67 37.1868 125.45 37.0509 125.409 36.7777L125.368 36.5879ZM124.117 36.1825C124.463 36.1812 124.826 35.9965 125.204 35.6285L125.2 34.4985C123.981 34.6563 123.372 35.0086 123.374 35.5553C123.376 35.9753 123.623 36.1843 124.117 36.1825ZM128.667 39.4257L128.307 39.367C128.033 39.3347 127.939 39.1284 128.024 38.748C128.116 38.3744 128.292 38.2104 128.552 38.2561C129.066 38.2542 129.415 37.9696 129.599 37.4022L129.698 37.0718L127.649 31.9594C127.548 31.7064 127.744 31.579 128.238 31.5772C128.731 31.5754 129.018 31.7043 129.099 31.964L130.403 35.7492L131.449 31.9553C131.521 31.695 131.791 31.564 132.258 31.5623C132.731 31.5605 132.925 31.6865 132.839 31.9402L130.999 37.337C130.742 38.0446 130.437 38.5691 130.085 38.9104C129.733 39.2517 129.26 39.4235 128.667 39.4257ZM138.07 36.4808C137.545 37.0161 136.913 37.2851 136.173 37.2878C135.433 37.2906 134.799 37.0263 134.27 36.4949C133.741 35.9635 133.475 35.2511 133.472 34.3578C133.469 33.4645 133.729 32.7502 134.254 32.2149C134.779 31.6796 135.411 31.4106 136.151 31.4079C136.891 31.4051 137.525 31.6694 138.054 32.2008C138.583 32.7322 138.849 33.4446 138.852 34.3379C138.855 35.2312 138.595 35.9455 138.07 36.4808ZM135.287 35.6211C135.501 35.9336 135.795 36.0892 136.169 36.0878C136.542 36.0865 136.831 35.9287 137.037 35.6146C137.249 35.3005 137.354 34.8768 137.352 34.3434C137.35 33.8101 137.242 33.3872 137.027 33.0746C136.82 32.7621 136.529 32.6065 136.156 32.6079C135.782 32.6092 135.49 32.767 135.277 33.0811C135.072 33.3952 134.97 33.8189 134.972 34.3523C134.974 34.8856 135.079 35.3085 135.287 35.6211ZM141.763 37.2671C140.609 37.2714 140.03 36.5269 140.024 35.0335L140.013 31.9436C140.012 31.6702 140.255 31.5327 140.741 31.5309C141.235 31.529 141.482 31.6648 141.483 31.9381L141.494 34.8381C141.495 35.2648 141.556 35.5679 141.677 35.7474C141.804 35.9203 141.991 36.0063 142.238 36.0053C142.491 36.0044 142.701 35.9503 142.867 35.843L143.415 35.301L143.403 31.931C143.402 31.6577 143.645 31.5201 144.131 31.5183C144.625 31.5165 144.872 31.6522 144.873 31.9255L144.891 36.7055C144.892 36.9788 144.692 37.1163 144.292 37.1177C143.892 37.1192 143.675 36.9834 143.641 36.7101L143.579 36.3204C143.028 36.9491 142.423 37.2647 141.763 37.2671ZM148.51 37.2421C147.283 37.2467 146.667 36.5489 146.662 35.1489L146.653 32.669L146.273 32.6704C146 32.6714 145.862 32.4919 145.861 32.1319C145.86 31.7652 145.995 31.5714 146.269 31.5504L146.729 31.5087L146.854 30.4082C146.88 30.1348 147.096 29.9973 147.503 29.9958C147.91 29.9943 148.113 30.1302 148.114 30.4035L148.119 31.5035L149.089 31.4999C149.362 31.4989 149.499 31.6917 149.501 32.0784C149.502 32.4651 149.366 32.6589 149.093 32.6599L148.123 32.6635L148.132 35.1435C148.134 35.7702 148.389 36.0825 148.896 36.0807L149.026 36.0802C149.305 35.9991 149.486 36.1385 149.567 36.4982C149.648 36.8512 149.556 37.0516 149.289 37.0992L148.51 37.2421ZM151.515 38.731C151.376 38.9848 151.152 39.0457 150.845 38.9135C150.545 38.7879 150.457 38.6049 150.583 38.3644C151.266 37.1886 151.603 35.714 151.597 33.9406C151.59 32.1607 151.241 30.6853 150.55 29.5145C150.423 29.275 150.509 29.0913 150.808 28.9635C151.115 28.8291 151.338 28.8882 151.479 29.141C152.344 30.5045 152.78 32.0996 152.787 33.9262C152.794 35.7462 152.369 37.3478 151.515 38.731Z" fill="#FE585B"/>
<path d="M74.6211 51.1825C75.0585 51.1808 75.2783 51.5 75.2807 52.14C75.283 52.7693 75.0655 53.0848 74.6282 53.0864L69.0762 53.107L69.0905 56.963C69.0925 57.507 69.0194 57.9233 68.8711 58.2118C68.7335 58.5003 68.4784 58.7199 68.1056 58.8707C67.4878 59.1183 66.6669 59.228 65.6428 59.1998C65.0562 59.2126 64.623 58.8889 64.3432 58.2286C64.0741 57.5789 64.297 57.2741 65.0118 57.3141C66.164 57.3738 66.8306 57.3394 67.0114 57.2107C67.0752 57.1571 67.1069 57.061 67.1063 56.9223L67.0922 53.1144L61.4123 53.1354C60.9749 53.137 60.7551 52.8232 60.7528 52.1939C60.7504 51.5539 60.9679 51.2331 61.4052 51.2314L67.0852 51.2104L67.0795 49.6904C67.0778 49.2211 67.2739 48.8897 67.6679 48.6962C68.2855 48.4059 69.1155 47.8695 70.1579 47.087L62.974 47.1136C62.5366 47.1152 62.3168 46.8014 62.3145 46.172C62.3121 45.5427 62.5296 45.2272 62.967 45.2256L72.0705 45.0959C72.5079 45.0942 72.9672 45.2792 73.4486 45.6508C73.93 46.0116 74.0112 46.3473 73.6923 46.6579C72.5127 47.8462 71.1032 48.8808 69.4638 49.7616C69.1977 49.9119 69.0652 50.1257 69.0662 50.403L69.0692 51.203L74.6211 51.1825ZM81.8112 52.8198C82.2268 52.6903 82.4836 52.9027 82.5816 53.457C82.6903 54.0006 82.5636 54.3424 82.2014 54.4824C81.1682 54.8809 79.7302 55.4142 77.8873 56.0824C77.3866 56.2656 77.0019 56.0537 76.7329 55.4467C76.4747 54.8396 76.5533 54.4766 76.9689 54.3578L78.5511 53.8719L78.5283 47.7279L77.4084 47.7321C76.971 47.7337 76.7513 47.4412 76.7491 46.8545C76.7469 46.2679 76.9645 45.9737 77.4018 45.9721L81.5618 45.9567C81.9991 45.9551 82.2189 46.2476 82.2211 46.8343C82.2232 47.4209 82.0057 47.7151 81.5683 47.7167L80.4483 47.7208L80.4689 53.2728L81.8112 52.8198ZM84.8702 53.6085L84.8724 54.2165C84.8735 54.4938 85.0126 54.632 85.29 54.6309L88.65 54.6185C88.9273 54.6174 89.0654 54.4783 89.0644 54.2009L89.0622 53.5929L84.8702 53.6085ZM84.8615 51.2725L84.8653 52.2965L89.0573 52.281L89.0535 51.257L84.8615 51.2725ZM85.269 48.983C84.9917 48.984 84.8536 49.1232 84.8546 49.4005L84.8568 49.9925L89.0488 49.977L89.0466 49.385C89.0455 49.1076 88.9064 48.9695 88.629 48.9705L85.269 48.983ZM90.9243 55.2341C90.9262 55.746 90.6711 56.003 90.1591 56.0049L83.8871 56.0281C83.3752 56.03 83.1182 55.775 83.1163 55.263L83.0907 48.351C83.0888 47.839 83.3438 47.5821 83.8558 47.5802L85.5998 47.5737L85.8037 46.469L83.0837 46.4791C82.6464 46.4807 82.4268 46.2148 82.4248 45.6815C82.4228 45.1482 82.6405 44.8807 83.0778 44.8791L90.8218 44.8504C91.2591 44.8487 91.4787 45.1146 91.4807 45.6479C91.4827 46.1813 91.265 46.4487 90.8277 46.4503L87.9477 46.461L87.5518 47.5665L90.1278 47.557C90.6398 47.5551 90.8967 47.8101 90.8986 48.3221L90.9243 55.2341ZM87.9888 57.5489C87.465 57.2309 87.4371 56.9057 87.9052 56.5733C88.3733 56.2302 88.8798 56.207 89.4249 56.5036C90.3548 56.9908 91.0177 57.4097 91.4136 57.7603C91.6703 57.9513 91.5487 58.2344 91.0488 58.6096C90.5488 58.9848 90.1705 59.0662 89.9137 58.8538C89.5283 58.4926 88.8867 58.0576 87.9888 57.5489ZM84.2725 56.3787C84.5809 56.1429 85.0025 56.2 85.5371 56.55C86.0717 56.8894 86.1741 57.177 85.8443 57.4129C85.6529 57.5843 85.174 57.8634 84.4074 58.2502C83.6515 58.637 83.1137 58.8737 82.794 58.9602C82.3999 59.1003 82.01 58.9525 81.6244 58.5165C81.2388 58.0913 81.2431 57.814 81.6373 57.6845C81.893 57.6089 82.3722 57.3991 83.0749 57.0552C83.7776 56.7006 84.1768 56.4751 84.2725 56.3787ZM95.9372 56.5595C95.9382 56.8368 96.0774 56.975 96.3547 56.9739L103.491 56.9475C103.768 56.9465 103.906 56.8073 103.905 56.5299L103.899 54.914L95.9312 54.9435L95.9372 56.5595ZM103.884 50.946L95.9165 50.9755L95.924 53.0075L103.892 52.978L103.884 50.946ZM103.872 47.458C103.87 47.1807 103.731 47.0425 103.454 47.0436L96.318 47.07C96.0407 47.071 95.9025 47.2102 95.9036 47.4875L95.9094 49.0555L103.877 49.026L103.872 47.458ZM93.8175 45.8473C93.8156 45.3353 94.0706 45.0783 94.5826 45.0764L105.271 45.0368C105.783 45.0349 106.039 45.29 106.041 45.802L106.087 58.1539C106.089 58.6659 105.834 58.9228 105.322 58.9247L94.6341 58.9643C94.1221 58.9662 93.8652 58.7112 93.8633 58.1992L93.8175 45.8473ZM117.298 48.0962C117.885 48.0941 118.179 48.3117 118.18 48.749L118.184 49.725C118.186 50.1623 117.893 50.3821 117.306 50.3842C116.73 50.3864 116.442 50.1688 116.44 49.7314L116.436 48.7554C116.435 48.3181 116.722 48.0984 117.298 48.0962ZM119.275 54.809C119.712 54.8073 119.932 55.1425 119.935 55.8145C119.937 56.4865 119.762 56.8232 119.41 56.8245C119.829 57.4096 120.155 57.7017 120.39 57.7009C120.56 57.7002 120.683 57.6411 120.757 57.5235C120.937 57.2882 121.052 56.4664 121.1 55.0582C121.13 54.5888 121.007 54.3545 120.729 54.3556L117.177 54.3687L117.179 54.8167L119.275 54.809ZM117.188 57.2967L118.212 57.2449C118.062 57.0535 118.093 56.9147 118.306 56.8286L117.186 56.8327L117.188 57.2967ZM118.08 56.0774C118.357 56.0764 118.495 55.9052 118.494 55.5639L117.182 55.5687L117.184 56.0807L118.08 56.0774ZM114.238 55.5796C114.239 55.921 114.378 56.0911 114.656 56.0901L115.584 56.0867L115.582 55.5747L114.238 55.5796ZM115.577 54.3747L114.281 54.3795L113.787 54.8293L115.579 54.8227L115.577 54.3747ZM111.697 47.893L111.703 49.461C111.71 51.4343 111.599 53.1734 111.37 54.6783C112.318 54.1521 113.078 53.5413 113.652 52.8458L113.108 52.8478C112.596 52.8497 112.339 52.5947 112.337 52.0827L112.334 51.3787C112.332 50.8667 112.438 50.6103 112.651 50.6095L112.587 50.4337C112.446 49.9222 112.61 49.6336 113.079 49.5679C113.335 49.5243 113.959 49.4046 114.95 49.209C114.139 48.988 113.589 48.8673 113.301 48.8471C112.895 48.7846 112.735 48.6198 112.819 48.3529C112.914 48.0752 113.175 47.9729 113.602 48.0459L114.739 48.2657C115.368 48.3807 115.593 48.6732 115.414 49.1432C115.819 49.0671 116.027 49.1836 116.039 49.4929C116.051 49.8022 115.844 50.0003 115.417 50.0872L113.083 50.6079L120.731 50.5795C121.169 50.5779 121.035 50.5091 120.33 50.373C119.626 50.2263 119.102 49.9776 118.76 49.6268C118.855 49.3492 119.014 49.2206 119.238 49.2411C118.991 48.73 119.171 48.3826 119.778 48.1991L120.929 47.8588L111.697 47.893ZM120.715 46.2276C120.714 46.0036 120.575 45.8921 120.298 45.8931L112.106 45.9235C111.829 45.9245 111.69 46.0637 111.691 46.341L111.693 46.677L120.301 46.6451C120.578 46.6441 120.716 46.5049 120.715 46.2276ZM120.273 52.0532C120.55 52.0522 120.688 51.913 120.687 51.6357L120.686 51.3477L119.326 51.3528L119.329 52.0567L120.273 52.0532ZM117.889 52.0621L117.886 51.3581L116.558 51.363L116.561 52.067L117.889 52.0621ZM115.121 52.0723L115.118 51.3683L113.822 51.3732L113.825 52.0771L115.121 52.0723ZM115.253 53.3199L122.117 53.2944C122.629 53.2925 122.881 53.5849 122.873 54.1716C122.886 54.9289 122.83 55.7771 122.706 56.7163C122.581 57.6447 122.429 58.216 122.248 58.43C122.036 58.7081 121.727 58.8746 121.322 58.9294C121.056 58.9837 120.826 59.0006 120.634 58.98C120.133 58.9818 119.844 58.7802 119.768 58.3752L119.465 58.5043C119.209 58.6119 119.022 58.5379 118.904 58.2824C116.942 58.4283 114.905 58.5692 112.793 58.705C112.303 58.7388 112.035 58.5478 111.991 58.132C111.958 57.7268 112.032 57.5238 112.213 57.5232C112.405 57.5118 113.53 57.4543 115.588 57.3506L115.586 56.8387L113.65 56.8458C113.138 56.8477 112.881 56.5927 112.88 56.0807L112.877 55.5047C112.452 55.7836 112.073 55.7477 111.741 55.3969L111.324 55.0464C111.031 56.7222 110.7 57.8861 110.329 58.5382C110.181 58.8694 109.829 58.8813 109.273 58.5741C108.728 58.2668 108.524 57.9742 108.662 57.6963C109.477 56.1893 109.878 53.4518 109.863 49.4838L109.848 45.4998C109.846 44.9878 110.101 44.7309 110.613 44.729L121.813 44.6875C122.315 44.6856 122.566 44.9407 122.568 45.4527L122.574 47.0847C122.576 47.5967 122.321 47.8536 121.809 47.8555L121.473 47.8568C121.752 48.3464 121.684 48.6667 121.269 48.8175C121.077 48.9142 120.416 49.0607 119.286 49.2569C120.3 49.3705 120.951 49.48 121.24 49.5856C121.709 49.7012 121.844 50.0314 121.643 50.5762C122.049 50.5747 122.253 50.9472 122.255 51.6939C122.258 52.4406 122.041 52.8147 121.604 52.8163L115.604 52.8386L115.253 53.3199ZM135.634 56.6683L138.754 56.6568C139.191 56.6552 139.411 56.9583 139.413 57.5663C139.415 58.1637 139.198 58.4631 138.761 58.4648L130.105 58.4969C129.678 58.4984 129.464 58.2006 129.461 57.6032C129.459 56.9952 129.671 56.6904 130.098 56.6889L133.73 56.6754L133.718 53.4754L131.286 53.4844C130.849 53.4861 130.629 53.1935 130.627 52.6069C130.625 52.0095 130.842 51.7101 131.279 51.7084L133.711 51.6994L133.702 49.0755L131.942 49.082C131.71 49.9042 131.504 50.4543 131.324 50.7323C131.144 51.1063 130.771 51.1503 130.204 50.8644C129.638 50.5785 129.45 50.2432 129.641 49.8585L129.831 49.5058L129.64 49.6025C129.16 49.8176 128.84 49.6748 128.678 49.1741L128.306 48.0874L128.344 58.3594C128.346 58.7967 128.027 59.0166 127.387 59.0189C126.757 59.0213 126.442 58.8038 126.44 58.3664L126.4 47.5825C126.279 49.311 126.091 50.5543 125.838 51.3126C125.743 51.6543 125.461 51.7407 124.991 51.5718C124.521 51.4028 124.339 51.1528 124.444 50.8218C124.708 50.1275 124.876 49.2522 124.946 48.1959C125.018 47.5023 125.316 47.1919 125.839 47.2646L126.399 47.3425L126.39 44.7345C126.388 44.2972 126.702 44.0774 127.331 44.075C127.971 44.0727 128.292 44.2901 128.294 44.7275L128.302 47.0955L128.542 46.9986C129 46.8049 129.342 46.9423 129.568 47.4108C129.696 47.6236 129.879 48.0603 130.116 48.7207C130.507 47.5673 130.754 46.505 130.857 45.534C130.919 45.0537 131.259 44.8551 131.878 44.9382C132.497 45.0212 132.77 45.2762 132.697 45.7032L132.415 47.2882L133.695 47.2835L133.686 44.8035C133.684 44.3662 133.998 44.1463 134.627 44.144C135.267 44.1416 135.588 44.3591 135.59 44.7964L135.599 47.2764L138.207 47.2667C138.644 47.2651 138.864 47.563 138.866 48.1603C138.869 48.7576 138.651 49.0571 138.214 49.0587L135.606 49.0684L135.615 51.6924L137.887 51.684C138.325 51.6823 138.545 51.9802 138.547 52.5775C138.549 53.1642 138.331 53.4583 137.894 53.4599L135.622 53.4684L135.634 56.6683Z" fill="black" fill-opacity="0.85"/>
</g>
<defs>
<radialGradient id="paint0_radial_2308_6981" cx="0" cy="0" r="1" gradientUnits="userSpaceOnUse" gradientTransform="translate(0.560609 46.8353) rotate(65.4889) scale(3.32531 8.21233)">
<stop offset="0.33" stop-opacity="0"/>
<stop offset="0.655" stop-opacity="0.6"/>
<stop offset="1"/>
</radialGradient>
<radialGradient id="paint1_radial_2308_6981" cx="0" cy="0" r="1" gradientUnits="userSpaceOnUse" gradientTransform="translate(355.3 45.8572) rotate(114.511) scale(3.32531 8.21233)">
<stop offset="0.33" stop-opacity="0"/>
<stop offset="0.655" stop-opacity="0.6"/>
<stop offset="1"/>
</radialGradient>
<clipPath id="clip0_2308_6981">
<rect width="200" height="90" fill="white"/>
</clipPath>
</defs>
</svg>
