<svg width="200" height="90" viewBox="0 0 200 90" fill="none" xmlns="http://www.w3.org/2000/svg">
<g clip-path="url(#clip0_2306_6207)">
<rect width="200" height="90" fill="#BDE3FF"/>
<path fill-rule="evenodd" clip-rule="evenodd" d="M-6.18027 85.5257C-5.5206 81.3514 -9.94765 77.2571 -7.65473 73.2393C-4.94813 68.4966 -1.65241 61.9915 7.77154 61.0783C17.9972 60.0873 23.5998 68.8258 33.9785 69.2048C45.8176 69.6371 56.5881 60.196 66.8872 63.2371C76.2425 65.9996 70.121 74.0119 68.9752 79.5387C68.1676 83.4341 61.5364 86.4306 61.2669 90.3457C60.8502 96.3973 75.7689 103.853 67.0229 107.895C58.3557 111.9 45.7383 103.802 34.2527 102.83C27.3162 102.243 20.5655 103.925 13.6182 103.373C4.65786 102.66 -7.2514 103.227 -11.7526 99.1698C-16.3208 95.0519 -6.92748 90.2539 -6.18027 85.5257Z" fill="#005EA5"/>
<path fill-rule="evenodd" clip-rule="evenodd" d="M28.4743 10.5302C32.6486 10.8717 36.7429 8.58004 40.7607 9.76696C45.5034 11.168 52.0085 12.874 52.9217 17.7523C53.9127 23.0456 45.1742 25.9458 44.7952 31.3183C44.3629 37.4467 53.804 43.0221 50.7629 48.3534C48.0004 53.1961 39.9881 50.0274 34.4613 49.4342C30.5659 49.0162 27.5694 45.5836 23.6543 45.444C17.6027 45.2284 10.1469 52.9509 6.10508 48.4236C2.09968 43.9371 10.1975 37.4057 11.1701 31.4602C11.7575 27.8695 10.0747 24.3751 10.6274 20.7788C11.3402 16.1405 10.7727 9.97575 14.8302 7.64571C18.9481 5.281 23.7461 10.1434 28.4743 10.5302Z" fill="#2382C9"/>
<path fill-rule="evenodd" clip-rule="evenodd" d="M173.474 4.53021C177.649 4.87169 181.743 2.58004 185.761 3.76696C190.503 5.16803 197.008 6.87405 197.922 11.7523C198.913 17.0456 190.174 19.9458 189.795 25.3183C189.363 31.4467 198.804 37.0221 195.763 42.3534C193 47.1961 184.988 44.0274 179.461 43.4342C175.566 43.0162 172.569 39.5836 168.654 39.444C162.603 39.2284 155.147 46.9509 151.105 42.4236C147.1 37.9371 155.198 31.4057 156.17 25.4602C156.757 21.8695 155.075 18.3751 155.627 14.7788C156.34 10.1405 155.773 3.97575 159.83 1.64571C163.948 -0.719004 168.746 4.14342 173.474 4.53021Z" fill="#69BAF5"/>
<path fill-rule="evenodd" clip-rule="evenodd" d="M117.063 7.20494C131.49 7.9797 144.155 11.9054 154.996 17.5775C166.733 23.7188 176.896 30.8598 179.688 39.9711C183.097 51.0949 184.354 63.7453 171.749 72.2549C158.691 81.0707 136.857 81.4742 117.063 82.2497C95.2362 83.1048 71.8992 84.7511 54.6033 76.8446C35.6156 68.1646 20.8565 53.9771 24.5773 39.9711C28.0889 26.7526 52.1053 19.9805 71.5388 13.0955C85.3864 8.18958 100.98 6.34119 117.063 7.20494Z" fill="#C9F4FF"/>
<path d="M177.967 51.2804L196.726 84.9582L159.338 85.0303L177.967 51.2804Z" fill="#228CDA"/>
<path d="M173.373 78.4648H182.74" stroke="black" stroke-width="2" stroke-linecap="round"/>
<ellipse cx="171.472" cy="68.8528" rx="4.64254" ry="4.79533" transform="rotate(-0.110477 171.472 68.8528)" stroke="#FA8F21" stroke-width="2"/>
<ellipse cx="184.669" cy="68.8118" rx="4.64254" ry="4.79533" transform="rotate(-0.110477 184.669 68.8118)" stroke="#FA8F21" stroke-width="2"/>
<path d="M175.55 68.4723C175.55 68.4723 176.816 68.054 177.654 68.0337C178.594 68.011 180.025 68.4637 180.025 68.4637" stroke="#FA8F21" stroke-width="2"/>
<ellipse cx="171.471" cy="68.8518" rx="1.89842" ry="1.9609" transform="rotate(-0.110477 171.471 68.8518)" fill="black"/>
<ellipse cx="184.67" cy="68.8264" rx="1.89842" ry="1.9609" transform="rotate(-0.110477 184.67 68.8264)" fill="black"/>
<path d="M83.0948 35.3674C83.1943 35.2204 83.1573 35.1472 82.984 35.1478L80.894 35.1556L80.3653 35.4975C81.02 35.8618 81.5212 36.1999 81.869 36.512C82.4343 36.1365 82.8429 35.755 83.0948 35.3674ZM81.6512 31.7127C81.7708 31.5856 81.7439 31.5224 81.5705 31.523L79.4406 31.5309L79.0715 31.7923C79.686 32.11 80.1471 32.3983 80.4547 32.6572C80.9869 32.3285 81.3857 32.0137 81.6512 31.7127ZM83.6902 34.1152C83.9635 34.1075 84.2337 34.1732 84.5009 34.3122C84.7681 34.4445 84.8421 34.6443 84.7231 34.9114C84.2608 36.0864 83.3443 37.0432 81.9737 37.7816C81.3084 38.1374 80.6061 38.4233 79.8669 38.6394C79.1344 38.8554 78.4583 39.0046 77.8386 39.0869C77.5521 39.1347 77.3248 38.9755 77.1568 38.6094C76.9888 38.2501 77.058 38.0531 77.3646 38.0187C78.5974 37.8874 79.743 37.5832 80.8012 37.1059C80.42 36.7673 79.9287 36.4192 79.3273 36.0614C78.8948 36.2763 78.552 36.4276 78.299 36.5152C78.0327 36.6162 77.7757 36.5138 77.5279 36.2081C77.2867 35.9023 77.3193 35.7022 77.6257 35.6077C79.124 35.1488 80.3279 34.421 81.2376 33.4243C79.9807 34.2556 78.5828 34.8275 77.0439 35.1398C76.7508 35.2009 76.5103 35.0618 76.3224 34.7225C76.1411 34.3832 76.1904 34.1897 76.4702 34.142C77.4296 33.9851 78.4118 33.6748 79.4168 33.211C79.0023 32.8992 78.5546 32.6142 78.0736 32.356C77.7276 32.5373 77.4747 32.6582 77.3149 32.7188C77.0553 32.8264 76.7917 32.7341 76.5239 32.4417C76.2562 32.1494 76.2754 31.9527 76.5817 31.8515C77.9268 31.4199 78.9113 30.8262 79.5351 30.0706C79.7144 29.8699 80.0175 29.8154 80.4445 29.9072C80.8782 29.9923 81.002 30.1318 80.8161 30.3258L80.6169 30.5466L82.4067 30.4899C82.68 30.4889 82.9437 30.5613 83.1975 30.707C83.4514 30.8527 83.5121 31.0392 83.3796 31.2663C83.0553 31.9009 82.4377 32.5532 81.5268 33.2232L82.1474 33.3709C82.5344 33.4561 82.5918 33.6459 82.3195 33.9403L82.1103 34.1611L83.6902 34.1152ZM90.4502 36.8202C90.576 36.5864 90.7791 36.5189 91.0595 36.6179C91.3399 36.7169 91.4238 36.8899 91.3114 37.137C91.2587 37.3038 91.0998 37.5878 90.8346 37.9887C90.5694 38.3831 90.3869 38.6104 90.2871 38.6708C90.1077 38.8448 89.8876 38.7956 89.6265 38.5232C89.3722 38.2575 89.3448 38.0476 89.5442 37.8935C89.6174 37.8666 89.7802 37.6993 90.0324 37.3917C90.2912 37.0841 90.4305 36.8936 90.4502 36.8202ZM91.2767 33.1771L91.2778 33.4571C91.2784 33.6304 91.3654 33.7167 91.5387 33.7161L92.7987 33.7114C92.9721 33.7108 93.0584 33.6238 93.0578 33.4505L93.0567 33.1705L91.2767 33.1771ZM93.0516 31.7805L91.2716 31.7871L91.2735 32.3071L93.0535 32.3005L93.0516 31.7805ZM88.0955 32.8489L87.4257 32.9013C87.2756 33.7886 87.158 34.4223 87.0727 34.8027C87.0465 34.9294 87.0937 35.0526 87.2141 35.1721L87.6556 35.5805C87.9261 34.8128 88.0727 33.9023 88.0955 32.8489ZM94.5945 35.2648C94.8678 35.2638 95.0051 35.4299 95.0064 35.7633C95.0076 36.0966 94.8715 36.2638 94.5982 36.2648L92.8382 36.2713L92.8472 38.6813C92.8482 38.9546 92.6553 39.092 92.2687 39.0934C91.882 39.0949 91.6882 38.9589 91.6872 38.6856L91.6782 36.2756L89.8082 36.2825C89.5349 36.2835 89.3976 36.1174 89.3964 35.7841C89.3952 35.4507 89.5312 35.2836 89.8045 35.2825L91.6745 35.2756L91.6723 34.6656L90.6723 34.6693C90.3589 34.6705 90.2017 34.5111 90.2005 34.1911L90.1916 31.7911L89.9016 31.7922C89.6283 31.7932 89.491 31.627 89.4897 31.2937C89.4885 30.9604 89.6246 30.7932 89.8979 30.7922L90.1879 30.7911L90.1856 30.1711C90.1846 29.8978 90.3641 29.7604 90.7241 29.7591C91.0841 29.7578 91.2646 29.8938 91.2656 30.1671L91.2679 30.7871L93.0479 30.7805L93.0456 30.1605C93.0446 29.8872 93.2307 29.7498 93.604 29.7484C93.984 29.747 94.1745 29.883 94.1756 30.1563L94.1779 30.7763L94.5379 30.775C94.8112 30.774 94.9485 30.9401 94.9497 31.2734C94.9509 31.6068 94.8149 31.7739 94.5416 31.775L94.1816 31.7763L94.1905 34.1763C94.1916 34.4963 94.0322 34.6569 93.7122 34.6581L92.8323 34.6613L92.8345 35.2713L94.5945 35.2648ZM93.3821 37.3193C93.1675 36.9868 93.2034 36.7633 93.4896 36.6489C93.7758 36.5278 94.0363 36.6402 94.2709 36.986C94.7064 37.5844 94.931 37.9169 94.9446 37.9835C95.0318 38.1365 95.019 38.2799 94.9062 38.4137C94.7934 38.5541 94.577 38.6449 94.2572 38.6861L94.1568 38.5764L93.3821 37.3193ZM89.0814 31.7452C89.3547 31.7309 89.492 31.8937 89.4932 32.2337C89.4945 32.5737 89.3585 32.7542 89.0852 32.7752C89.0505 34.1953 88.8349 35.3928 88.4385 36.3676C88.907 36.8392 89.1814 37.1349 89.2618 37.2546C89.4025 37.4207 89.3567 37.6576 89.1245 37.9651C88.8923 38.2659 88.7125 38.3333 88.5852 38.1671C88.5516 38.0939 88.3373 37.8313 87.9423 37.3795C87.5579 38.0009 87.183 38.4589 86.8174 38.7536C86.6114 38.9411 86.3813 38.9119 86.127 38.6662C85.8795 38.4271 85.862 38.2138 86.0747 38.0264C86.4868 37.6915 86.8683 37.2101 87.2193 36.5821C86.9316 36.2899 86.6338 35.9943 86.326 35.6954C86.0784 35.443 85.9842 35.1934 86.0433 34.9465C86.155 34.5261 86.2826 33.8656 86.4259 32.965L86.316 32.9755C86.0427 32.9898 85.8854 32.8204 85.8441 32.4672C85.8094 32.1073 85.9287 31.9202 86.202 31.9059L86.5819 31.8845L86.7458 30.2438C86.7715 29.9771 86.951 29.8497 87.2844 29.8618C87.6245 29.8739 87.7817 30.0133 87.756 30.2801L87.5818 31.8408L88.1016 31.8088L88.1008 31.5888C88.0998 31.3155 88.2626 31.1782 88.5893 31.177C88.916 31.1758 89.0798 31.3119 89.0808 31.5852L89.0814 31.7452ZM103.981 31.67L103.98 31.46C103.98 31.2933 103.893 31.2103 103.72 31.2109L103.45 31.2119L103.451 31.6719L103.981 31.67ZM103.726 32.8609C103.899 32.8603 103.985 32.7733 103.985 32.6L103.984 32.39L103.454 32.3919L103.456 32.8619L103.726 32.8609ZM101.024 32.4009L101.025 32.6109C101.025 32.7843 101.112 32.8706 101.286 32.87L101.536 32.869L101.534 32.399L101.024 32.4009ZM101.28 31.22C101.106 31.2206 101.02 31.3043 101.02 31.4709L101.021 31.6809L101.531 31.6791L101.53 31.2191L101.28 31.22ZM102.734 32.3946L102.254 32.3964L102.256 32.8664L102.736 32.8646L102.734 32.3946ZM102.251 31.6764L102.731 31.6746L102.73 31.2146L102.25 31.2164L102.251 31.6764ZM104.417 30.4283C104.737 30.4272 104.897 30.5832 104.898 30.8966L104.907 33.1566C104.908 33.4765 104.749 33.6371 104.429 33.6383L100.629 33.6524C100.309 33.6536 100.148 33.4975 100.147 33.1842L100.138 30.9242C100.137 30.6042 100.297 30.4436 100.617 30.4424L101.317 30.4398L101.316 30.1398C101.315 29.8665 101.467 29.7293 101.774 29.7281C102.081 29.727 102.235 29.8631 102.236 30.1364L102.237 30.4364L102.677 30.4348L102.676 30.1348C102.675 29.8615 102.827 29.7242 103.134 29.7231C103.447 29.7219 103.605 29.858 103.606 30.1314L103.607 30.4314L104.417 30.4283ZM104.69 33.9774C104.963 33.9763 105.1 34.1192 105.101 34.4058C105.102 34.6858 104.966 34.8263 104.693 34.8274L100.413 34.8432C100.14 34.8442 100.002 34.7047 100.001 34.4247C100 34.1381 100.136 33.9942 100.41 33.9932L104.69 33.9774ZM97.3761 35.6945L97.3772 35.9945C97.3783 36.2811 97.3694 36.5878 97.3506 36.9146L98.5486 36.3501L98.5469 35.9101L98.4673 36.0004C98.2548 36.2346 98.0282 36.2487 97.7874 36.043L97.3761 35.6945ZM97.4683 30.8841C97.295 30.8847 97.2086 30.9717 97.2092 31.1451L97.2157 32.8951L97.6057 32.8936L97.6016 31.7736C97.6004 31.4536 97.7598 31.293 98.0798 31.2918L98.5698 31.29L98.5692 31.14C98.5686 30.9667 98.4816 30.8803 98.3083 30.881L97.4683 30.8841ZM98.2057 32.8914L98.5757 32.89L98.5723 31.96L98.4623 31.9604C98.2889 31.9611 98.2026 32.0447 98.2032 32.2114L98.2057 32.8914ZM98.8102 34.0892C98.9835 34.0885 99.0698 34.0015 99.0692 33.8282C99.0689 33.7349 98.982 33.6885 98.8087 33.6892L97.0387 33.6957C96.8654 33.6964 96.779 33.7833 96.7797 33.9567C96.78 34.05 96.8669 34.0964 97.0402 34.0957L98.8102 34.0892ZM97.373 34.8645L97.3751 35.4345C97.601 35.207 97.8375 35.1794 98.0848 35.3519L98.5461 35.6801L98.543 34.8601L97.373 34.8645ZM99.9697 33.9549C99.9709 34.2749 99.8215 34.4354 99.5215 34.4365L99.4567 38.5568C99.4105 38.6836 99.3076 38.7907 99.1479 38.8779C98.9883 38.9719 98.7984 39.0126 98.5784 39C98.2118 39.0147 97.9812 38.8756 97.8868 38.5826C97.7991 38.2963 97.8919 38.1526 98.1652 38.1516L98.4252 38.1506C98.5119 38.157 98.5551 38.1168 98.5548 38.0301L98.5514 37.1201L98.0027 37.4822C97.7234 37.6565 97.5132 37.594 97.372 37.2945L97.3216 37.1847C97.2247 38.0184 97.0834 38.5589 96.8976 38.8063C96.7851 39.0067 96.5884 39.0108 96.3077 38.8185C96.0337 38.6328 95.9463 38.4465 96.0456 38.2594C96.2976 37.9052 96.4215 37.1447 96.4172 35.978L96.4115 34.448C96.0848 34.4493 95.9209 34.2899 95.9197 33.9699L95.9172 33.2799C95.9162 33.0265 96.0424 32.8994 96.2957 32.8985L96.287 30.5285C96.2858 30.2085 96.4452 30.0479 96.7652 30.0467L99.0552 30.0382C99.3752 30.037 99.5357 30.1964 99.5369 30.5164L99.5457 32.8864C99.8257 32.8854 99.9663 33.0449 99.9675 33.3649L99.9697 33.9549ZM103.241 37.1128L101.761 37.1182L102.105 38.037L102.915 38.034L103.241 37.1128ZM101.687 35.8885C101.514 35.8891 101.427 35.9761 101.428 36.1495C101.428 36.3228 101.515 36.4091 101.689 36.4085L103.339 36.4024C103.512 36.4017 103.598 36.3148 103.598 36.1414C103.597 35.9681 103.51 35.8817 103.337 35.8824L101.687 35.8885ZM103.895 38.0303L104.785 38.027C105.058 38.026 105.195 38.1688 105.196 38.4555C105.197 38.7422 105.061 38.886 104.788 38.887L100.328 38.9036C100.055 38.9046 99.9175 38.7617 99.9164 38.4751C99.9154 38.1884 100.052 38.0446 100.325 38.0436L101.095 38.0407L100.994 37.7711C100.879 37.4648 100.979 37.2645 101.292 37.17L101.451 37.1194L100.881 37.1215C100.561 37.1227 100.401 36.9633 100.4 36.6433L100.396 35.6433C100.395 35.33 100.554 35.1727 100.874 35.1715L104.214 35.1591C104.534 35.1579 104.695 35.3174 104.696 35.6373L104.7 36.6373C104.701 36.9507 104.541 37.1079 104.221 37.1091L103.561 37.1116L103.752 37.1709C104.139 37.2694 104.229 37.4891 104.024 37.8299L103.895 38.0303ZM113.347 33.3153C113.347 33.1419 113.26 33.0556 113.086 33.0562L111.446 33.0623C111.824 34.2343 112.461 35.0652 113.356 35.5553L113.347 33.3153ZM107.966 33.0752C107.793 33.0759 107.707 33.1628 107.707 33.3362L107.716 35.6862C108.668 35.156 109.311 34.2836 109.646 33.069L107.966 33.0752ZM114.082 31.8925C114.402 31.8913 114.563 32.0508 114.564 32.3708L114.583 37.6207C114.585 37.954 114.546 38.2075 114.466 38.3812C114.387 38.5614 114.221 38.7087 113.968 38.823C113.715 38.9439 113.292 39.0022 112.698 38.9977C112.305 39.0058 112.041 38.8101 111.906 38.4106C111.778 38.0111 111.827 37.8143 112.054 37.8201C112.194 37.8262 112.551 37.8282 113.124 37.8261C113.284 37.8255 113.364 37.7519 113.363 37.6052L113.357 35.8152C113.078 36.123 112.938 36.2901 112.939 36.3168C112.773 36.5641 112.556 36.6016 112.289 36.4292C111.567 36.0252 110.981 35.2107 110.53 33.9857C110.081 35.2674 109.458 36.113 108.659 36.5227C108.393 36.6837 108.166 36.6412 107.979 36.3952L107.718 36.0562L107.727 38.6261C107.728 38.8995 107.525 39.0369 107.119 39.0384C106.719 39.0399 106.518 38.904 106.517 38.6306L106.494 32.4007C106.493 32.0807 106.652 31.9201 106.972 31.9189L110.032 31.9075L109.98 31.3977C109.966 31.2245 109.873 31.1381 109.699 31.1388L108.679 31.1426C108.406 31.1436 108.269 30.9707 108.267 30.6241C108.266 30.2774 108.402 30.1036 108.675 30.1026L110.515 30.0957C110.829 30.0946 110.999 30.2506 111.027 30.5638L111.162 31.9034L114.082 31.8925ZM117.551 31.5997C117.378 31.6003 117.291 31.6873 117.292 31.8606L117.294 32.2906C117.295 32.564 117.095 32.7014 116.695 32.7029C116.302 32.7043 116.105 32.5684 116.104 32.295L116.099 30.9751C116.098 30.6551 116.257 30.4945 116.577 30.4933L119.887 30.481L119.756 30.1915C119.642 29.9452 119.801 29.7747 120.234 29.6797C120.667 29.5848 120.941 29.6604 121.055 29.9067L121.317 30.4757L124.407 30.4643C124.727 30.4631 124.888 30.6225 124.889 30.9425L124.894 32.2625C124.895 32.5358 124.685 32.6732 124.265 32.6748C123.845 32.6764 123.635 32.5405 123.634 32.2671L123.632 31.8371C123.631 31.6638 123.544 31.5775 123.371 31.5781L117.551 31.5997ZM121.455 32.7252C121.235 32.5794 121.261 32.3893 121.533 32.1549C121.812 31.9205 122.062 31.873 122.283 32.0121C122.53 32.1446 122.901 32.3865 123.395 32.738C123.897 33.0895 124.194 33.3217 124.288 33.4347C124.462 33.5874 124.399 33.7943 124.1 34.0554C123.801 34.3165 123.568 34.3707 123.401 34.218C123.314 34.105 123.026 33.8627 122.538 33.4912C122.057 33.1196 121.696 32.8643 121.455 32.7252ZM118.373 32.0966C118.539 31.896 118.815 31.8617 119.203 31.9936C119.59 32.1188 119.704 32.2884 119.544 32.5023C119.379 32.7429 119.057 33.0708 118.578 33.4859C118.106 33.901 117.737 34.179 117.471 34.32C117.252 34.4475 117.001 34.3551 116.72 34.0428C116.446 33.7305 116.428 33.5172 116.668 33.403C116.881 33.3155 117.197 33.111 117.615 32.7894C118.034 32.4746 118.287 32.2436 118.373 32.0966ZM118.936 35.7446L122.276 35.7322C121.615 35.288 121.093 34.8666 120.712 34.468C120.598 34.3484 120.485 34.3522 120.372 34.4792C120.04 34.8671 119.561 35.2889 118.936 35.7446ZM118.744 37.6653C118.744 37.8386 118.831 37.925 119.005 37.9243L122.005 37.9132C122.178 37.9126 122.264 37.8256 122.264 37.6522L122.26 36.8123L118.74 36.8253L118.744 37.6653ZM120.057 33.0804C120.202 32.8532 120.452 32.8156 120.806 32.9676C121.16 33.1196 121.284 33.2792 121.178 33.4462C122.155 34.4626 123.388 35.2414 124.877 35.7825C125.177 35.8881 125.201 36.1113 124.949 36.4523C124.697 36.7932 124.447 36.9108 124.2 36.8051C124.1 36.7588 123.873 36.6429 123.519 36.4576L123.527 38.4976C123.528 38.8176 123.368 38.9782 123.048 38.9793L118.028 38.998C117.709 38.9991 117.548 38.8397 117.547 38.5197L117.54 36.6098C117.18 36.7911 116.941 36.9053 116.821 36.9524C116.568 37.06 116.311 36.951 116.05 36.6253C115.795 36.2929 115.801 36.0795 116.067 35.9852C116.8 35.7358 117.568 35.323 118.373 34.7466C119.191 34.1703 119.752 33.6149 120.057 33.0804Z" fill="#2382C9"/>
<path d="M71.9981 55.2468C71.9971 54.9694 71.8579 54.8313 71.5806 54.8323L65.5326 54.8547C65.2553 54.8557 65.1172 54.9949 65.1182 55.2723L65.1207 55.9442L72.0006 55.9187L71.9981 55.2468ZM65.1291 58.2162C65.1301 58.4936 65.2693 58.6317 65.5466 58.6307L71.5946 58.6083C71.8719 58.6072 72.0101 58.4681 72.0091 58.1907L72.0062 57.4227L65.1263 57.4482L65.1291 58.2162ZM63.8886 60.2528C63.3873 60.2547 63.1357 59.9996 63.1338 59.4876L63.1134 53.9837C63.1115 53.4717 63.3612 53.2148 63.8625 53.2129L73.3025 53.1779C73.8145 53.176 74.0714 53.4311 74.0733 53.9431L74.0937 59.447C74.0956 59.959 73.8406 60.216 73.3286 60.2179L63.8886 60.2528ZM71.0126 48.3704L65.9887 48.389L66.8443 50.4338L70.2682 50.4211L71.0126 48.3704ZM72.4282 50.4131L75.2922 50.4025C75.7295 50.4009 75.9493 50.6934 75.9515 51.2801C75.9536 51.8667 75.7361 52.1609 75.2987 52.1625L61.6988 52.2129C61.2615 52.2145 61.0417 51.922 61.0396 51.3353C61.0374 50.7487 61.255 50.4545 61.6923 50.4529L64.6843 50.4418L64.3452 49.6111C64.119 49.0146 64.3203 48.6565 64.9492 48.5368L65.6207 48.3903L62.6287 48.4014C62.1914 48.4031 61.9716 48.1159 61.9695 47.5399C61.9673 46.9532 62.1849 46.6591 62.6222 46.6574L67.5662 46.6391L67.292 46.0321C67.1198 45.6381 67.3749 45.3865 68.0572 45.2773C68.7501 45.1574 69.1879 45.2944 69.3707 45.6884L69.8062 46.6308L74.4942 46.6134C74.9315 46.6118 75.1512 46.9043 75.1534 47.491C75.1556 48.067 74.938 48.3558 74.5006 48.3574L71.7166 48.3677L72.3252 48.5095C72.9443 48.6352 73.1163 48.9866 72.8411 49.5636L72.4282 50.4131ZM80.8118 50.286L80.8149 51.118L82.2472 53.3528C82.4832 53.7145 82.4474 54.12 82.1397 54.5692C81.832 55.0076 81.5921 55.0299 81.4199 54.6358L80.8231 53.342L80.846 59.502C80.8476 59.9393 80.5604 60.159 79.9844 60.1612C79.4084 60.1633 79.1196 59.9457 79.118 59.5084L79.0988 54.3244C78.6663 55.6274 78.3015 56.4874 78.0043 56.9045C77.8241 57.2038 77.5943 57.0714 77.3149 56.5071C77.0354 55.9428 76.9965 55.5002 77.1979 55.1795C77.4208 54.88 77.7224 54.2389 78.1028 53.2561C78.4831 52.2627 78.7728 51.2749 78.9718 50.2929L77.9158 50.2968C77.4785 50.2984 77.2588 50.0059 77.2566 49.4192C77.2544 48.8326 77.472 48.5384 77.9093 48.5368L79.0773 48.5325L79.0675 45.8925C79.0659 45.4552 79.3531 45.2354 79.9291 45.2333C80.5051 45.2312 80.7939 45.4487 80.7955 45.8861L80.8053 48.5261L81.5413 48.5233C81.9786 48.5217 82.1984 48.8142 82.2005 49.4009C82.2027 49.9876 81.9851 50.2817 81.5478 50.2833L80.8118 50.286ZM86.2385 55.306L84.9425 55.3108C84.6651 55.3118 84.527 55.451 84.528 55.7283L84.5296 56.1443L86.2415 56.138L86.2385 55.306ZM89.6335 56.1254L89.632 55.7094C89.631 55.4321 89.4918 55.2939 89.2144 55.2949L87.8704 55.2999L87.8735 56.1319L89.6335 56.1254ZM87.8814 58.2599L89.2254 58.2549C89.5027 58.2539 89.6409 58.1147 89.6399 57.8374L89.6383 57.4214L87.8783 57.4279L87.8814 58.2599ZM84.5359 57.8563C84.5369 58.1336 84.6761 58.2718 84.9534 58.2708L86.2494 58.266L86.2463 57.434L84.5344 57.4403L84.5359 57.8563ZM83.5826 59.6518C83.0706 59.6537 82.8136 59.3987 82.8117 58.8867L82.7962 54.6947C82.7943 54.1934 83.0494 53.9418 83.5614 53.9399L90.6653 53.9136C91.1773 53.9117 91.4343 54.1667 91.4362 54.6787L91.4517 58.8707C91.4536 59.372 91.1985 59.6236 90.6865 59.6255L83.5826 59.6518ZM88.2745 52.0664C88.5518 52.0654 88.69 51.9262 88.6889 51.6489L88.6871 51.1529L85.5351 51.1645L85.5369 51.6605C85.538 51.9379 85.6772 52.076 85.9545 52.075L88.2745 52.0664ZM89.6104 49.8854C89.8877 49.8844 90.0259 49.7452 90.0248 49.4679C90.024 49.2439 89.8849 49.1324 89.6076 49.1334L84.5196 49.1523C84.2423 49.1533 84.1042 49.2925 84.1052 49.5698C84.106 49.7938 84.2451 49.9053 84.5224 49.9043L89.6104 49.8854ZM90.1941 47.6593L91.0101 47.6562C91.5221 47.6543 91.7791 47.9094 91.781 48.4214L91.7857 49.7014C91.7876 50.2134 91.5326 50.4703 91.0206 50.4722L90.4286 50.4744L90.4363 52.5544C90.4382 53.0664 90.1831 53.3233 89.6711 53.3252L84.6632 53.3438C84.1512 53.3457 83.8942 53.0906 83.8923 52.5786L83.8862 50.9147C83.8851 50.6373 83.746 50.4992 83.4686 50.5002L83.1966 50.5012C82.6846 50.5031 82.4277 50.2481 82.4258 49.7361L82.421 48.4561C82.4191 47.9441 82.6742 47.6871 83.1862 47.6852L83.7622 47.6831L83.2137 46.4851C83.031 46.0911 83.1952 45.8025 83.7065 45.6193C84.2179 45.4361 84.5703 45.5414 84.7637 45.9354L85.0861 46.5902C85.3226 47.0693 85.1905 47.4005 84.6898 47.5837L84.4342 47.6806L86.1302 47.6743L86.1235 45.8823C86.1219 45.445 86.4198 45.2252 87.0171 45.223C87.6251 45.2208 87.9299 45.4383 87.9315 45.8756L87.9382 47.6676L89.5061 47.6618L89.2338 47.5668C88.828 47.4297 88.7731 47.0192 89.0692 46.3354C89.376 45.6409 89.7376 45.3516 90.154 45.4674L90.3783 45.5466C90.987 45.7256 91.1323 46.0878 90.8143 46.6329L90.1941 47.6593ZM100.999 53.2032L100.991 51.0273C100.99 50.7499 100.85 50.6118 100.573 50.6128L99.3412 50.6174C98.8292 50.6193 98.5722 50.3642 98.5703 49.8522L98.5559 45.9643C98.5543 45.5269 98.8202 45.3073 99.3535 45.3053C99.8975 45.3033 100.17 45.5209 100.172 45.9583L100.174 46.3903L102.029 46.3834C102.467 46.3818 102.686 46.6423 102.688 47.1649C102.69 47.6876 102.473 47.9497 102.035 47.9514L100.179 47.9582L100.182 48.7102C100.183 48.9876 100.322 49.1257 100.6 49.1247L101.8 49.1362C102.312 49.1344 102.569 49.3894 102.571 49.9014L102.583 53.1974C102.584 53.528 102.542 53.7735 102.457 53.9338C102.383 54.0941 102.224 54.2334 101.979 54.3516C101.734 54.4699 101.441 54.5243 101.1 54.5149C100.502 54.5278 100.134 54.3425 99.9936 53.959C99.8534 53.5648 100.002 53.3669 100.439 53.3653L100.727 53.3643C100.909 53.3742 100.999 53.3206 100.999 53.2032ZM98.6569 51.6279C98.762 51.2115 99.0494 51.0451 99.5191 51.1287C99.9887 51.2016 100.182 51.5423 100.099 52.1506C100.058 52.7587 99.9162 53.2233 99.672 53.5442C99.5132 53.8541 99.2306 53.8871 98.8244 53.6433C98.4181 53.3888 98.2675 53.0534 98.3727 52.637L98.6569 51.6279ZM104.684 54.6616L104.759 53.3653L103.799 53.3689C103.362 53.3705 103.142 53.11 103.141 52.5873C103.139 52.0646 103.356 51.8025 103.794 51.8009L104.818 51.7971L104.812 50.4211L103.9 50.4245C103.463 50.4261 103.244 50.1656 103.242 49.6429C103.24 49.1202 103.457 48.8581 103.895 48.8565L104.903 48.8527L104.899 47.8928C104.898 47.6154 104.759 47.4773 104.482 47.4783L103.73 47.4811C103.292 47.4827 103.073 47.2115 103.071 46.6675C103.069 46.1235 103.286 45.8507 103.724 45.8491L105.884 45.8411C106.396 45.8392 106.647 46.1263 106.639 46.7023C106.659 49.4009 106.605 52.0518 106.476 54.655L107.212 54.6522C107.65 54.6506 107.869 54.9431 107.871 55.5298C107.874 56.1165 107.656 56.4106 107.219 56.4122L103.363 56.4265C105.072 57.2202 106.28 57.8397 106.986 58.2851C107.296 58.4653 107.238 58.7962 106.813 59.2777C106.399 59.7699 106.021 59.9047 105.679 59.6819C104.77 59.056 103.824 58.5155 102.841 58.0605C102.157 57.711 102.006 57.2849 102.388 56.7821L102.659 56.4291L97.9068 56.4467L98.5166 56.9405C99.0088 57.344 98.9729 57.7281 98.4089 58.0929C97.579 58.6613 96.4398 59.2362 94.9912 59.8176C94.5546 60.0112 94.1541 59.8687 93.7897 59.39C93.4359 58.922 93.488 58.5965 93.946 58.4134C95.2349 57.9286 96.4432 57.2735 97.5708 56.448L93.8588 56.4617C93.4215 56.4634 93.2017 56.1708 93.1995 55.5842C93.1974 54.9975 93.4149 54.7034 93.8523 54.7017L94.6363 54.6988L94.3523 47.1638C94.3399 46.6839 94.552 46.3578 94.9887 46.1855L96.7781 45.4748C97.1829 45.324 97.5196 45.5094 97.7882 46.0311C98.0674 46.5421 97.9992 46.857 97.5837 46.9759L96.4489 47.3161C96.1932 47.3917 96.0658 47.5628 96.0668 47.8295L96.1187 48.8693L97.2867 48.865C97.724 48.8634 97.9436 49.1239 97.9456 49.6465C97.9475 50.1585 97.7297 50.4153 97.2924 50.417L96.1724 50.4211L96.2255 51.7969L97.3455 51.7928C97.7828 51.7912 98.0025 52.0517 98.0044 52.5743C98.0063 53.0863 97.7886 53.3431 97.3513 53.3448L96.2793 53.3487L96.3323 54.6926L104.684 54.6616ZM121.116 45.8486C121.36 45.5171 121.781 45.4728 122.379 45.7159C122.977 45.9591 123.133 46.2732 122.847 46.6582C122.083 47.7704 121.02 48.7503 119.658 49.5981C119.274 49.8448 118.858 49.7504 118.408 49.3147C117.959 48.8684 117.91 48.5432 118.261 48.3392C118.612 48.1673 119.133 47.7813 119.825 47.1814C120.526 46.5708 120.957 46.1266 121.116 45.8486ZM121.532 50.1671C121.776 49.8355 122.186 49.7914 122.763 50.0346C123.351 50.2777 123.501 50.5918 123.215 50.9769C122.334 52.1962 121.159 53.2512 119.69 54.142C119.307 54.3887 118.896 54.2942 118.457 53.8585C118.018 53.4122 117.98 53.0816 118.342 52.867C118.767 52.6414 119.358 52.2125 120.113 51.5804C120.879 50.9482 121.351 50.4771 121.532 50.1671ZM111.765 48.5073L111.766 48.6993C111.767 48.9766 111.906 49.1148 112.184 49.1138L115.336 49.1021C115.613 49.101 115.751 48.9619 115.75 48.6845L115.749 48.4925L111.765 48.5073ZM112.175 46.8258C111.898 46.8268 111.76 46.966 111.761 47.2433L111.761 47.4193L115.745 47.4045L115.745 47.2285C115.744 46.9512 115.605 46.8131 115.327 46.8141L112.175 46.8258ZM117.551 50.9819C117.988 50.9803 118.208 51.2194 118.209 51.6994C118.211 52.1794 117.993 52.4202 117.556 52.4219L109.924 52.4502C109.487 52.4518 109.267 52.2126 109.265 51.7326C109.264 51.2526 109.481 51.0118 109.919 51.0102L112.847 50.9993C112.696 50.6799 112.791 50.4875 113.133 50.4223L113.868 50.2595L110.732 50.2711C110.22 50.273 109.963 50.018 109.961 49.506L109.95 46.45C109.948 45.938 110.203 45.6811 110.715 45.6792L116.859 45.6564C117.371 45.6545 117.628 45.9096 117.63 46.4216L117.641 49.4775C117.643 49.9895 117.388 50.2465 116.876 50.2484L114.508 50.2572L114.879 50.9918L117.551 50.9819ZM110.357 57.1206C110.59 56.6077 110.968 56.4303 111.491 56.5884C112.025 56.7464 112.176 57.0712 111.943 57.5627C111.71 58.1076 111.387 58.6101 110.973 59.0703C110.707 59.4126 110.355 59.4193 109.917 59.0902C109.478 58.7612 109.397 58.4362 109.673 58.1151C110.003 57.8152 110.231 57.4837 110.357 57.1206ZM112.411 54.217C112.133 54.218 111.995 54.3572 111.996 54.6345C111.997 54.9118 112.136 55.05 112.414 55.0489L115.166 55.0387C115.443 55.0377 115.581 54.8985 115.58 54.6212C115.579 54.3439 115.44 54.2057 115.163 54.2068L112.411 54.217ZM117.439 55.4943C117.441 56.0063 117.192 56.2632 116.69 56.2651L114.674 56.2726L114.682 58.3686C114.684 58.7846 114.637 59.0941 114.541 59.2971C114.457 59.5001 114.26 59.6715 113.951 59.8113C113.653 59.9511 113.301 60.011 112.896 59.9912C112.309 60.0147 111.925 59.7708 111.741 59.2595C111.569 58.7588 111.701 58.5076 112.138 58.506L112.618 58.5042C112.757 58.5144 112.826 58.4554 112.826 58.3274L112.818 56.2795L111.01 56.2862C110.498 56.2881 110.241 56.033 110.239 55.521L110.233 53.761C110.231 53.249 110.486 52.9921 110.998 52.9902L116.662 52.9692C117.174 52.9673 117.431 53.2223 117.433 53.7343L117.439 55.4943ZM121.884 54.6938C122.096 54.3304 122.496 54.2596 123.084 54.4814C123.671 54.6926 123.854 54.9905 123.631 55.3754C123.271 56.0487 122.639 56.8244 121.736 57.7024C120.843 58.5697 120.05 59.1913 119.358 59.5672C118.986 59.7926 118.585 59.6608 118.157 59.1717C117.739 58.6932 117.717 58.352 118.089 58.1479C118.675 57.8471 119.388 57.3271 120.227 56.588C121.078 55.8382 121.63 55.2068 121.884 54.6938ZM117.498 58.4061C117.616 58.6724 117.537 58.87 117.26 58.999C116.994 59.1387 116.669 59.1932 116.285 59.1626C116.275 59.376 116.098 59.1473 115.754 58.4766C115.411 57.7952 115.259 57.2358 115.3 56.7983L115.619 56.6051C116.067 56.4114 116.419 56.5221 116.677 56.9372C116.923 57.2989 117.197 57.7886 117.498 58.4061ZM129.397 52.682L136.373 52.6561C136.885 52.6542 137.142 52.9093 137.144 53.4213L137.166 59.3092C137.167 59.7466 136.832 59.9665 136.16 59.969C135.488 59.9715 135.151 59.754 135.15 59.3167L135.134 54.9807C135.133 54.7034 134.993 54.5653 134.716 54.5663L129.212 54.5867C128.869 56.8706 128.192 58.5372 127.183 59.5862C126.917 59.9072 126.543 59.8179 126.062 59.3184C125.58 58.8188 125.477 58.3979 125.753 58.0555C126.433 57.3277 126.909 56.2432 127.181 54.8022C127.411 53.5854 127.523 52.2249 127.518 50.7209L127.5 45.953C127.498 45.5156 127.818 45.2958 128.458 45.2934C129.098 45.291 129.418 45.5085 129.42 45.9459L129.43 48.6658L134.214 48.6481C134.491 48.6471 134.63 48.5079 134.629 48.2306L134.619 45.6866C134.618 45.2492 134.942 45.0294 135.593 45.027C136.254 45.0245 136.586 45.242 136.587 45.6793L136.602 49.7913C136.604 50.3033 136.349 50.5602 135.837 50.5621L129.437 50.5858L129.397 52.682Z" fill="black" fill-opacity="0.85"/>
</g>
<defs>
<clipPath id="clip0_2306_6207">
<rect width="200" height="90" fill="white"/>
</clipPath>
</defs>
</svg>
