<svg width="200" height="90" viewBox="0 0 200 90" fill="none" xmlns="http://www.w3.org/2000/svg">
<g clip-path="url(#clip0_2306_5966)">
<rect width="200" height="90" fill="#BDE3FF"/>
<path fill-rule="evenodd" clip-rule="evenodd" d="M-6.18027 85.5257C-5.5206 81.3514 -9.94765 77.2571 -7.65473 73.2393C-4.94813 68.4966 -1.65241 61.9915 7.77154 61.0783C17.9972 60.0873 23.5998 68.8258 33.9785 69.2048C45.8176 69.6371 56.5881 60.196 66.8872 63.2371C76.2425 65.9996 70.121 74.0119 68.9752 79.5387C68.1676 83.4341 61.5364 86.4306 61.2669 90.3457C60.8502 96.3973 75.7689 103.853 67.0229 107.895C58.3557 111.9 45.7383 103.802 34.2527 102.83C27.3162 102.243 20.5655 103.925 13.6182 103.373C4.65786 102.66 -7.2514 103.227 -11.7526 99.1698C-16.3208 95.0519 -6.92748 90.2539 -6.18027 85.5257Z" fill="#005EA5"/>
<path fill-rule="evenodd" clip-rule="evenodd" d="M28.4743 10.5302C32.6486 10.8717 36.7429 8.58004 40.7607 9.76696C45.5034 11.168 52.0085 12.874 52.9217 17.7523C53.9127 23.0456 45.1742 25.9458 44.7952 31.3183C44.3629 37.4467 53.804 43.0221 50.7629 48.3534C48.0004 53.1961 39.9881 50.0274 34.4613 49.4342C30.5659 49.0162 27.5694 45.5836 23.6543 45.444C17.6027 45.2284 10.1469 52.9509 6.10508 48.4236C2.09968 43.9371 10.1975 37.4057 11.1701 31.4602C11.7575 27.8695 10.0747 24.3751 10.6274 20.7788C11.3402 16.1405 10.7727 9.97575 14.8302 7.64571C18.9481 5.281 23.7461 10.1434 28.4743 10.5302Z" fill="#2382C9"/>
<path fill-rule="evenodd" clip-rule="evenodd" d="M173.474 4.53021C177.649 4.87169 181.743 2.58004 185.761 3.76696C190.503 5.16803 197.008 6.87405 197.922 11.7523C198.913 17.0456 190.174 19.9458 189.795 25.3183C189.363 31.4467 198.804 37.0221 195.763 42.3534C193 47.1961 184.988 44.0274 179.461 43.4342C175.566 43.0162 172.569 39.5836 168.654 39.444C162.603 39.2284 155.147 46.9509 151.105 42.4236C147.1 37.9371 155.198 31.4057 156.17 25.4602C156.757 21.8695 155.075 18.3751 155.627 14.7788C156.34 10.1405 155.773 3.97575 159.83 1.64571C163.948 -0.719004 168.746 4.14342 173.474 4.53021Z" fill="#69BAF5"/>
<path fill-rule="evenodd" clip-rule="evenodd" d="M117.063 7.20494C131.49 7.9797 144.155 11.9054 154.996 17.5775C166.733 23.7188 176.896 30.8598 179.688 39.9711C183.097 51.0949 184.354 63.7453 171.749 72.2549C158.691 81.0707 136.857 81.4742 117.063 82.2497C95.2362 83.1048 71.8992 84.7511 54.6033 76.8446C35.6156 68.1646 20.8565 53.9771 24.5773 39.9711C28.0889 26.7526 52.1053 19.9805 71.5388 13.0955C85.3864 8.18958 100.98 6.34119 117.063 7.20494Z" fill="#C9F4FF"/>
<path d="M177.967 51.2804L196.726 84.9582L159.338 85.0303L177.967 51.2804Z" fill="#228CDA"/>
<path d="M173.373 78.4648H182.74" stroke="black" stroke-width="2" stroke-linecap="round"/>
<ellipse cx="171.472" cy="68.8528" rx="4.64254" ry="4.79533" transform="rotate(-0.110477 171.472 68.8528)" stroke="#FA8F21" stroke-width="2"/>
<ellipse cx="184.669" cy="68.8118" rx="4.64254" ry="4.79533" transform="rotate(-0.110477 184.669 68.8118)" stroke="#FA8F21" stroke-width="2"/>
<path d="M175.55 68.4723C175.55 68.4723 176.816 68.054 177.654 68.0337C178.594 68.011 180.025 68.4637 180.025 68.4637" stroke="#FA8F21" stroke-width="2"/>
<ellipse cx="171.471" cy="68.8518" rx="1.89842" ry="1.9609" transform="rotate(-0.110477 171.471 68.8518)" fill="black"/>
<ellipse cx="184.67" cy="68.8264" rx="1.89842" ry="1.9609" transform="rotate(-0.110477 184.67 68.8264)" fill="black"/>
<path d="M68.8367 37.9979C68.8377 38.2713 68.5916 38.4088 68.0982 38.4107C67.6049 38.4125 67.3577 38.2768 67.3567 38.0034L67.3323 31.4135C67.3313 31.1401 67.5774 31.0026 68.0708 31.0007C68.5641 30.9989 68.8113 31.1346 68.8123 31.408L68.8216 33.918L71.6216 33.9076L71.6123 31.3976C71.6113 31.1243 71.8541 30.9867 72.3407 30.9849C72.8341 30.9831 73.0812 31.1188 73.0823 31.3922L73.1067 37.9821C73.1077 38.2554 72.8615 38.393 72.3682 38.3948C71.8815 38.3967 71.6377 38.2609 71.6367 37.9876L71.6263 35.1976L68.8264 35.208L68.8367 37.9979ZM77.875 37.9644C77.876 38.2378 77.6299 38.3753 77.1365 38.3772C76.6432 38.379 76.396 38.2433 76.395 37.9699L76.3737 32.21L74.7037 32.2161C74.4303 32.2172 74.2929 32.011 74.2914 31.5977C74.2899 31.1843 74.4257 30.9772 74.6991 30.9762L79.539 30.9582C79.8124 30.9572 79.9498 31.1634 79.9513 31.5767C79.9529 31.99 79.817 32.1972 79.5436 32.1982L77.8537 32.2045L77.875 37.9644ZM81.8365 38.3598C81.3965 38.3614 81.176 38.2255 81.175 37.9522L81.1508 31.4322C81.1496 31.1122 81.309 30.9517 81.629 30.9505L82.339 30.9478C82.639 30.9467 82.8362 31.086 82.9306 31.3656L84.4862 35.5899C84.5402 35.7497 84.5935 35.7495 84.6462 35.5893L86.0906 31.3539C86.1829 31.0736 86.379 30.9329 86.679 30.9318L87.389 30.9291C87.709 30.9279 87.8696 31.0873 87.8708 31.4073L87.8949 37.9273C87.896 38.2006 87.6698 38.3381 87.2165 38.3398C86.7698 38.3415 86.546 38.2056 86.5449 37.9323L86.535 35.2523C86.5331 34.739 86.5768 33.9288 86.666 32.8218L85.0924 37.2577C84.9935 37.538 84.794 37.6788 84.494 37.6799C84.2273 37.6809 84.0502 37.5582 83.9626 37.3119L82.336 32.8379C82.4407 34.1042 82.4937 34.914 82.495 35.2673L82.505 37.9473C82.506 38.2206 82.2832 38.3581 81.8365 38.3598ZM90.1916 38.3288C89.8716 38.33 89.711 38.1706 89.7098 37.8506L89.6857 31.3306C89.6846 31.0573 89.9308 30.9197 90.4241 30.9179C90.9175 30.916 91.1646 31.0518 91.1656 31.3251L91.186 36.8251C91.1867 36.9984 91.2737 37.0848 91.447 37.0841L93.787 37.0754C94.0603 37.0744 94.1977 37.2806 94.1993 37.6939C94.2008 38.1073 94.0649 38.3144 93.7916 38.3154L90.1916 38.3288ZM100.165 36.3218L101.765 36.3159L101.042 35.4885L98.2224 35.499L97.5155 36.3316L98.9555 36.3263L98.9547 36.1163C98.9537 35.843 99.1532 35.7055 99.5532 35.7041C99.9598 35.7026 100.164 35.8385 100.165 36.1118L100.165 36.3218ZM98.0172 34.0797L98.0188 34.5297L101.149 34.5181L101.147 34.0681L98.0172 34.0797ZM101.138 31.5382L98.0078 31.5498L98.0094 31.9898L101.139 31.9782L101.138 31.5382ZM98.0124 32.8098L98.0141 33.2498L101.144 33.2382L101.142 32.7982L98.0124 32.8098ZM104.221 34.9968C104.222 35.3168 104.086 35.4773 103.812 35.4783L102.392 35.4835C102.968 36.0014 103.489 36.3362 103.956 36.4878C104.216 36.5868 104.214 36.7901 103.948 37.0978C103.69 37.4054 103.44 37.503 103.199 37.3906C102.886 37.2517 102.481 36.9599 101.986 36.5151L101.987 36.7751C101.988 37.0951 101.829 37.2556 101.509 37.2568L100.169 37.2618L100.171 37.9118L103.041 37.9012C103.308 37.9002 103.442 38.063 103.443 38.3897C103.444 38.7163 103.308 38.8802 103.035 38.8812L96.235 38.9064C95.9617 38.9074 95.8244 38.7446 95.8232 38.4179C95.822 38.0912 95.9581 37.9274 96.2314 37.9264L98.9614 37.9163L98.959 37.2663L97.669 37.2711C97.349 37.2722 97.1884 37.1128 97.1872 36.7928L97.1867 36.6528C96.6816 37.0881 96.2693 37.3729 95.9498 37.5074C95.7169 37.6216 95.4733 37.5292 95.2188 37.2301C94.9643 36.9244 94.9669 36.7177 95.2265 36.6101C95.7392 36.4282 96.2811 36.0595 96.8524 35.5041L95.3424 35.5097C95.0691 35.5107 94.9318 35.3512 94.9307 35.0312C94.9294 34.7045 95.0655 34.5407 95.3388 34.5397L96.8288 34.5342L96.8178 31.5542L95.8478 31.5578C95.5745 31.5588 95.4372 31.3993 95.436 31.0793C95.4348 30.7593 95.5709 30.5988 95.8442 30.5978L96.8142 30.5942L96.813 30.2542C96.812 29.9809 97.0081 29.8435 97.4014 29.842C97.8014 29.8405 98.0019 29.9764 98.003 30.2498L98.0042 30.5898L101.134 30.5782L101.133 30.2382C101.132 29.9648 101.335 29.8274 101.741 29.8259C102.148 29.8244 102.352 29.9603 102.353 30.2337L102.354 30.5736L103.314 30.5701C103.588 30.5691 103.725 30.7286 103.726 31.0486C103.727 31.3686 103.591 31.5291 103.318 31.5301L102.358 31.5336L102.369 34.5136L103.809 34.5083C104.082 34.5073 104.219 34.6701 104.221 34.9968ZM112.577 34.0658C112.271 34.0669 112.117 33.9308 112.116 33.6575L112.113 33.0275C111.868 33.4284 111.689 33.6691 111.576 33.7495C111.397 33.9235 111.227 33.8841 111.066 33.6314C110.911 33.3786 110.927 33.1686 111.113 33.0012C111.406 32.8001 111.697 32.349 111.988 31.6479L111.608 31.6494C111.335 31.6504 111.198 31.5009 111.197 31.2009C111.195 30.9009 111.332 30.7504 111.605 30.7494L112.105 30.7475L112.103 30.2075C112.102 29.9342 112.255 29.7969 112.561 29.7958C112.875 29.7946 113.032 29.9307 113.033 30.2041L113.035 30.7441L113.725 30.7415C113.998 30.7405 114.135 30.89 114.137 31.19C114.138 31.49 114.002 31.6405 113.728 31.6415L113.208 31.6434L114.072 32.6202C114.253 32.8196 114.233 33.053 114.014 33.3204C113.802 33.5879 113.629 33.6052 113.495 33.3724L113.042 32.584L113.046 33.654C113.047 33.9274 112.891 34.0646 112.577 34.0658ZM110.176 33.6647C110.177 33.938 110.024 34.0752 109.717 34.0764C109.411 34.0775 109.257 33.9414 109.256 33.6681L109.252 32.7781C108.941 33.2926 108.725 33.5967 108.606 33.6905C108.453 33.8511 108.293 33.8017 108.125 33.5423C107.964 33.2762 107.973 33.0595 108.153 32.8922C108.392 32.718 108.657 32.307 108.948 31.6592L108.628 31.6604C108.355 31.6614 108.218 31.5119 108.217 31.2119C108.215 30.9119 108.352 30.7614 108.625 30.7604L109.245 30.7581L109.243 30.2181C109.242 29.9448 109.395 29.8075 109.701 29.8064C110.008 29.8053 110.162 29.9414 110.163 30.2147L110.165 30.7547L110.585 30.7531C110.858 30.7521 110.995 30.9016 110.997 31.2016C110.998 31.5016 110.862 31.6521 110.588 31.6531L110.178 31.6547L110.891 32.362C111.078 32.5547 111.079 32.768 110.893 33.002C110.707 33.236 110.541 33.24 110.393 33.0139L110.172 32.6847L110.176 33.6647ZM106.928 36.8867C107.101 36.8861 107.187 36.7991 107.187 36.6258L107.179 34.6358C107.179 34.4625 107.092 34.3761 106.918 34.3768L106.418 34.3786L106.427 36.6286C106.427 36.8019 106.514 36.8883 106.688 36.8876L106.928 36.8867ZM107.98 37.4428C107.981 37.7628 107.821 37.9234 107.501 37.9246L106.061 37.93C105.741 37.9311 105.581 37.7717 105.58 37.4517L105.572 35.3618L105.333 35.6926C105.181 35.9132 105.037 35.8037 104.902 35.3642C104.774 34.918 104.769 34.6047 104.888 34.4243C105.326 33.836 105.689 32.8013 105.977 31.3202L105.437 31.3222C105.164 31.3232 105.026 31.1437 105.025 30.7838C105.024 30.4238 105.16 30.2432 105.433 30.2422L107.633 30.2341C107.906 30.2331 108.044 30.4126 108.045 30.7726C108.046 31.1326 107.91 31.3131 107.637 31.3141L107.017 31.3164L106.484 33.3384L107.484 33.3347C107.804 33.3335 107.965 33.4929 107.966 33.8129L107.98 37.4428ZM111.638 37.0393L111.64 37.6293C111.641 37.8026 111.688 37.8958 111.781 37.9088C111.888 37.915 112.271 37.9169 112.931 37.9145L113.951 37.9007C114.225 37.8997 114.305 38.0661 114.193 38.3998C114.088 38.7335 113.898 38.9009 113.625 38.9019L112.205 38.9072C111.525 38.9097 110.958 38.8285 110.504 38.6635C110.05 38.4985 109.669 38.1933 109.361 37.7477C109.15 38.3485 108.921 38.7327 108.675 38.9003C108.482 39.0877 108.252 39.0552 107.985 38.8028C107.717 38.5572 107.663 38.3607 107.823 38.2134C108.335 37.8515 108.629 37.1504 108.705 36.1101C108.75 35.7166 108.936 35.5493 109.263 35.6081C109.596 35.6602 109.747 35.823 109.715 36.0964L109.656 36.5166C109.872 37.0358 110.099 37.355 110.34 37.4741C110.48 37.5536 110.55 37.5067 110.549 37.3333L110.542 35.2633L108.572 35.2706C108.298 35.2716 108.161 35.1122 108.16 34.7922C108.159 34.4722 108.295 34.3117 108.568 34.3106L113.438 34.2426L113.738 34.3415C114.052 34.4337 114.153 34.6299 114.04 34.9304L113.753 35.6614C113.661 35.9151 113.464 35.9925 113.164 35.8936C112.864 35.7947 112.769 35.5817 112.882 35.2547L111.632 35.2593L111.635 36.0893L113.455 36.0825C113.728 36.0815 113.865 36.241 113.866 36.561C113.868 36.8744 113.732 37.0315 113.458 37.0325L111.638 37.0393ZM119.246 33.7011C119.519 33.7 119.657 33.8862 119.658 34.2595C119.659 34.6329 119.523 34.82 119.25 34.8211L117.94 34.8259L117.872 35.2362C118.3 35.6479 118.812 36.206 119.408 36.9105C119.642 37.1829 119.627 37.4863 119.361 37.8207C119.096 38.155 118.903 38.2357 118.782 38.0628C118.601 37.7635 118.196 37.225 117.566 36.4473C117.183 37.5554 116.663 38.344 116.005 38.8131C115.792 38.9872 115.542 38.9248 115.254 38.6259C114.973 38.3269 114.942 38.0937 115.162 37.9262C116.019 37.3164 116.545 36.2844 116.74 34.8304L115.38 34.8354C115.107 34.8364 114.969 34.6503 114.968 34.2769C114.967 33.9036 115.103 33.7164 115.376 33.7154L116.816 33.7101L116.81 32.1201L116.41 32.1216C116.205 32.6557 116.043 32.9996 115.924 33.1534C115.798 33.3605 115.575 33.3513 115.254 33.1259C114.933 32.8937 114.832 32.6874 114.951 32.507C115.343 31.9988 115.617 31.2645 115.773 30.3039C115.845 29.9436 116.071 29.8028 116.452 29.8814C116.832 29.9533 116.993 30.1227 116.934 30.3896L116.776 31.0202L119.006 31.0119C119.279 31.0109 119.417 31.1937 119.418 31.5604C119.419 31.9271 119.283 32.1109 119.01 32.1119L118.01 32.1156L118.016 33.7056L119.246 33.7011ZM121.087 36.6943C121.088 36.8676 121.175 36.9539 121.348 36.9533L122.278 36.9498C122.451 36.9492 122.538 36.8622 122.537 36.6889L122.52 31.9789C122.519 31.8056 122.432 31.7192 122.259 31.7199L121.329 31.7233C121.155 31.724 121.069 31.811 121.07 31.9843L121.087 36.6943ZM119.916 31.0886C119.915 30.7686 120.074 30.608 120.394 30.6068L123.244 30.5962C123.564 30.595 123.725 30.7544 123.726 31.0744L123.75 37.5944C123.752 37.9077 123.592 38.065 123.272 38.0662L120.422 38.0767C120.102 38.0779 119.942 37.9218 119.94 37.6085L119.916 31.0886ZM133.828 31.637C133.936 31.8833 133.837 32.0736 133.53 32.2081C133.224 32.3359 133.024 32.2733 132.93 32.0203L132.516 30.9919C132.422 30.7389 132.518 30.5552 132.804 30.4408C133.09 30.3264 133.287 30.3923 133.395 30.6386L133.828 31.637ZM125.761 35.0269C125.488 35.0279 125.35 34.8818 125.349 34.5884C125.348 34.2884 125.484 34.1379 125.758 34.1369L127.348 34.131C127.621 34.13 127.758 34.2795 127.759 34.5795C127.76 34.8728 127.624 35.02 127.351 35.021L125.761 35.0269ZM127.343 32.771C127.616 32.77 127.753 32.9195 127.754 33.2195C127.755 33.5195 127.619 33.67 127.346 33.671L125.756 33.6769C125.483 33.6779 125.345 33.5285 125.344 33.2285C125.343 32.9285 125.479 32.778 125.753 32.7769L127.343 32.771ZM126.937 36.6726C126.936 36.5059 126.849 36.4229 126.676 36.4235L126.456 36.4244C126.283 36.425 126.196 36.5087 126.197 36.6753L126.199 37.3453C126.2 37.5186 126.287 37.605 126.46 37.6043L126.68 37.6035C126.854 37.6029 126.94 37.5159 126.939 37.3426L126.937 36.6726ZM127.303 35.5112C127.623 35.51 127.783 35.6694 127.784 35.9894L127.792 38.0294C127.793 38.3494 127.634 38.51 127.314 38.5112L125.854 38.5166C125.534 38.5178 125.373 38.3584 125.372 38.0384L125.364 35.9984C125.363 35.6784 125.523 35.5178 125.843 35.5166L127.303 35.5112ZM126.945 30.6325C127.086 30.9253 127.006 31.1356 126.707 31.2634L126.397 31.3945L127.527 31.3903C127.801 31.3893 127.938 31.5455 127.939 31.8588C127.94 32.1655 127.804 32.3193 127.531 32.3203L125.461 32.328C125.188 32.329 125.05 32.1762 125.049 31.8695C125.048 31.5562 125.184 31.399 125.457 31.398L126.247 31.3951L125.834 30.4366C125.726 30.1904 125.809 30.0167 126.082 29.9157C126.362 29.808 126.562 29.8739 126.683 30.1135L126.945 30.6325ZM130.665 30.6687C130.938 30.6677 131.075 30.8205 131.076 31.1272C131.078 31.4272 130.941 31.5777 130.668 31.5787L128.528 31.5866C128.255 31.5877 128.118 31.4382 128.116 31.1382C128.115 30.8315 128.251 30.6777 128.525 30.6766L129.195 30.6742L129.043 30.3347C128.929 30.0885 129.022 29.9215 129.322 29.8337C129.628 29.7459 129.838 29.8251 129.953 30.0714L130.225 30.6703L130.665 30.6687ZM129.247 36.614C129.247 36.7873 129.334 36.8737 129.508 36.873L130.138 36.8707L130.135 36.2307L129.245 36.234L129.247 36.614ZM130.131 35.0907C130.13 34.9174 130.043 34.831 129.87 34.8317L129.5 34.8331C129.327 34.8337 129.24 34.9207 129.241 35.094L129.242 35.454L130.132 35.4507L130.131 35.0907ZM132.968 34.3702C133.061 34.0899 133.257 34.0258 133.558 34.178C133.858 34.3302 133.959 34.5432 133.86 34.8169C133.669 35.4509 133.335 36.1255 132.858 36.8406C132.973 37.3669 133.091 37.6298 133.211 37.6293C133.337 37.6155 133.4 37.442 133.399 37.1086C133.437 36.6618 133.583 36.5479 133.837 36.767C134.092 36.9861 134.173 37.3158 134.081 37.7561C133.971 38.5699 133.672 38.9776 133.186 38.9794C132.759 38.981 132.401 38.599 132.111 37.8334C131.706 38.2882 131.377 38.5961 131.125 38.7571C130.912 38.9245 130.692 38.8987 130.464 38.6795C130.244 38.467 130.24 38.277 130.452 38.1096L130.732 37.8985L130.382 37.8998C130.222 37.9004 130.141 37.8207 130.141 37.6607L128.781 37.6657C128.461 37.6669 128.3 37.5075 128.299 37.1875L128.289 34.5175C128.288 34.1976 128.447 34.037 128.767 34.0358L130.617 34.0289C130.937 34.0277 131.098 34.1871 131.099 34.5071L131.109 37.2671C131.11 37.4404 131.157 37.4803 131.25 37.3866C131.436 37.2059 131.625 36.9752 131.817 36.6945C131.654 35.9284 131.524 34.9189 131.426 33.6659L128.386 33.6772C128.113 33.6782 127.975 33.512 127.974 33.1787C127.973 32.8454 128.109 32.6782 128.382 32.6772L128.562 32.6765L128.45 32.1369C128.396 31.8705 128.502 31.7134 128.768 31.6658C129.035 31.6181 129.199 31.7275 129.26 31.9939L129.422 32.6733L129.772 32.672L129.91 31.9815C129.955 31.7147 130.128 31.604 130.428 31.6496C130.729 31.6885 130.842 31.8381 130.77 32.0983L130.592 32.669L131.362 32.6661C131.312 31.853 131.276 31.0331 131.253 30.2065C131.252 29.8865 131.425 29.7259 131.771 29.7246C132.125 29.7233 132.302 29.8293 132.302 30.0426C132.304 30.5493 132.334 31.4225 132.392 32.6623L133.702 32.6575C133.975 32.6565 134.113 32.8226 134.114 33.1559C134.115 33.4893 133.979 33.6565 133.706 33.6575L132.466 33.6621C132.508 34.2419 132.56 34.7851 132.622 35.2915C132.8 34.8975 132.916 34.5904 132.968 34.3702Z" fill="#2382C9"/>
<path d="M47.9413 48.8412C47.6639 48.8423 47.5258 48.9814 47.5268 49.2588L47.531 50.3948C47.5326 50.8321 47.2188 51.0519 46.5895 51.0543C45.9708 51.0566 45.6607 50.839 45.659 50.4017L45.6495 47.8257C45.6476 47.3137 45.9026 47.0568 46.4146 47.0549L51.5826 47.0357L51.2599 46.3009C51.0984 45.9068 51.3374 45.6233 51.9767 45.4503C52.616 45.2665 53.0218 45.3717 53.1939 45.7657L53.7746 47.0276L58.5586 47.0099C59.0705 47.008 59.3275 47.263 59.3294 47.775L59.3389 50.351C59.3406 50.7883 59.0107 51.0082 58.3494 51.0107C57.6987 51.0131 57.3726 50.7956 57.371 50.3583L57.3667 49.2223C57.3657 48.945 57.2265 48.8068 56.9492 48.8078L47.9413 48.8412ZM53.5028 55.7327L53.5114 58.0366C54.0663 58.1093 55.1011 58.1428 56.6158 58.1371C58.1304 58.1315 59.0904 58.1226 59.4957 58.1105C59.8157 58.0986 59.8595 58.4131 59.6272 59.054C59.4056 59.7055 59.0762 60.032 58.6388 60.0337L55.3108 60.046C53.6682 60.0521 52.3181 59.8598 51.2607 59.469C50.2139 59.0782 49.3471 58.3401 48.6605 57.2546C48.1212 58.5473 47.5592 59.4294 46.9743 59.9009C46.6767 60.19 46.2657 60.1222 45.7415 59.6975C45.228 59.2834 45.1094 58.9585 45.3859 58.7228C46.6624 57.7794 47.4135 56.1126 47.6394 53.7224C47.7225 53.1247 48.0841 52.8567 48.7244 52.9184C49.3752 52.9693 49.6694 53.1869 49.6068 53.5711C49.6073 53.7098 49.529 54.1634 49.3719 54.932C49.8136 56.125 50.4085 56.9068 51.1566 57.2774C51.4024 57.4151 51.5248 57.3453 51.5238 57.068L51.5052 52.06L48.7532 52.0702C48.3159 52.0719 48.0961 51.7687 48.0939 51.1607C48.0916 50.5527 48.3091 50.2479 48.7465 50.2463L56.2344 50.2185C56.6718 50.2169 56.8915 50.5201 56.8938 51.1281C56.8961 51.7361 56.6785 52.0409 56.2412 52.0425L53.4892 52.0527L53.4962 53.9407L57.2242 53.9269C57.6615 53.9252 57.8813 54.2231 57.8835 54.8204C57.8857 55.4178 57.6682 55.7172 57.2308 55.7188L53.5028 55.7327ZM73.0391 55.7723L71.3751 55.7784C71.5367 56.1938 71.7033 56.5345 71.8749 56.8006C72.3218 56.4896 72.7098 56.1468 73.0391 55.7723ZM66.33 54.4051L69.098 54.3949L68.9167 52.9715C68.8618 52.5344 69.1383 52.3147 69.7463 52.3124C70.3543 52.3102 70.6857 52.5223 70.7406 52.9488L70.938 54.388L73.578 54.3782L72.087 53.5838C71.5206 53.2872 71.4552 52.9088 71.8908 52.4485L72.2255 52.0952L67.4895 52.1128L67.8749 52.4954C68.314 52.9524 68.219 53.2354 67.5901 53.3444L66.3269 53.5731L66.33 54.4051ZM73.3271 55.7712L73.8238 55.9453C74.4219 56.1458 74.5244 56.4708 74.1314 56.9202C74.0786 57.0697 73.6533 57.4287 72.8554 57.9969C73.2512 58.3048 73.6518 58.458 74.0571 58.4565C74.2384 58.4558 74.3661 58.3754 74.4402 58.2151L74.5031 57.9108C74.5761 57.4839 74.8425 57.3922 75.3021 57.6359C75.7723 57.8795 75.9497 58.2681 75.8344 58.8019C75.8249 59.1326 75.6714 59.4425 75.3738 59.7316C75.0869 60.0314 74.6182 60.1824 73.9675 60.1848C72.9435 60.1886 72.03 59.7814 71.2269 58.963C70.2261 59.468 69.3581 59.8179 68.6228 60.0127C68.1966 60.1422 67.8279 59.9569 67.5167 59.4567C67.2056 58.9566 67.2738 58.6576 67.7214 58.56C68.4675 58.3972 69.3144 58.1061 70.2622 57.6866L69.4552 55.7855L66.3352 55.7971L66.3374 56.4051L68.0811 56.3026C68.5183 56.2797 68.7324 56.4816 68.7233 56.9083C68.7249 57.3349 68.5071 57.5651 68.0699 57.5987L66.3424 57.7491L66.3454 58.5651C66.347 58.9917 66.2895 59.3066 66.1729 59.5097C66.0671 59.7235 65.8277 59.895 65.4548 60.0244C65.0927 60.1644 64.5703 60.2303 63.8876 60.2222C63.2689 60.2352 62.868 59.9966 62.6849 59.5067C62.5018 59.0273 62.6449 58.7975 63.1143 58.8171C63.3171 58.8376 63.6851 58.8309 64.2183 58.797C64.4316 58.7962 64.5379 58.7051 64.5373 58.5238L64.5349 57.8838L62.1196 58.0847C61.6824 58.1077 61.4362 57.8793 61.3811 57.3995C61.3366 56.909 61.533 56.6576 61.9703 56.6453L64.5298 56.5078L64.5272 55.8038L62.0152 55.8131C61.5779 55.8147 61.3584 55.5862 61.3567 55.1276C61.3549 54.6582 61.5727 54.4227 62.01 54.4211L64.522 54.4118L64.5197 53.7718C63.6773 53.8496 63.0588 53.8946 62.6641 53.9067C62.2375 53.9189 61.9542 53.7387 61.8141 53.3658C61.6847 52.9823 61.8919 52.7735 62.4358 52.7395C64.3447 52.6258 65.9493 52.4172 67.2495 52.1137L62.0336 52.133C61.5962 52.1346 61.3767 51.8955 61.3749 51.4155C61.3731 50.9355 61.5909 50.6947 62.0282 50.693L67.4842 50.6728L67.482 50.0808L63.594 50.0952C63.1567 50.0968 62.9372 49.879 62.9356 49.4417C62.934 49.0043 63.1518 48.7849 63.5892 48.7832L67.4771 48.7688L67.475 48.1928L62.739 48.2104C62.3017 48.212 62.0822 47.9781 62.0804 47.5088C62.0787 47.0395 62.2965 46.804 62.7338 46.8024L64.9098 46.7943L64.6363 46.3793C64.4109 46.0175 64.5753 45.7502 65.1293 45.5775C65.6833 45.3941 66.1049 45.4779 66.3942 45.8288C66.544 45.9349 66.7265 46.2543 66.9418 46.7868L70.1578 46.7749L70.5863 45.8293C70.7661 45.4339 71.2083 45.3043 71.9128 45.4404C72.6173 45.5657 72.8422 45.8049 72.5875 46.1579L72.1417 46.7675L74.2537 46.7597C74.6911 46.7581 74.9106 46.9919 74.9123 47.4613C74.9141 47.9306 74.6963 48.1661 74.259 48.1677L69.427 48.1856L69.4291 48.7616L73.4131 48.7468C73.8504 48.7452 74.0699 48.9631 74.0715 49.4004C74.0731 49.8377 73.8553 50.0572 73.418 50.0588L69.434 50.0736L69.4362 50.6656L74.9721 50.6451C75.4095 50.6434 75.629 50.8826 75.6308 51.3626C75.6326 51.8426 75.4148 52.0834 74.9775 52.085L72.4655 52.0944C73.5123 52.4958 74.1642 52.8134 74.421 53.0471C74.806 53.3017 74.8285 53.6216 74.4886 54.0069L74.154 54.3761L75.066 54.3727C75.5033 54.3711 75.7228 54.605 75.7246 55.0743C75.7263 55.533 75.5084 55.7631 75.0711 55.7647L73.3271 55.7712ZM87.2089 49.7517L81.7209 49.772C82.4206 51.4655 83.386 52.9392 84.6174 54.1933C85.7434 52.9411 86.6072 51.4606 87.2089 49.7517ZM91.138 47.8811C91.5753 47.8795 91.7951 48.188 91.7974 48.8067C91.7997 49.4253 91.5822 49.7355 91.1449 49.7371L89.3529 49.7437C88.5613 52.008 87.4697 53.9214 86.0781 55.4839C87.7363 56.7685 89.5208 57.6312 91.4318 58.0721C91.9015 58.177 91.9241 58.5236 91.4996 59.1119C91.0752 59.7108 90.6334 59.9417 90.1742 59.8048C88.1669 59.2895 86.4197 58.416 84.9324 57.1842C84.7077 56.993 84.4837 56.9885 84.2604 57.1707C82.761 58.4136 80.9457 59.3323 78.8146 59.9269C78.3565 60.0779 77.9343 59.8555 77.5481 59.2596C77.1619 58.6743 77.2033 58.3168 77.6721 58.1871C79.7395 57.6674 81.5763 56.7806 83.1823 55.5267C81.79 54.0065 80.6469 52.0907 79.753 49.7793L77.897 49.7862C77.4596 49.7878 77.2398 49.4793 77.2375 48.8606C77.2352 48.242 77.4528 47.9318 77.8901 47.9302L83.9861 47.9076L83.3239 46.2621C83.1624 45.8573 83.4173 45.5577 84.0886 45.3632C84.7705 45.158 85.1976 45.2524 85.3697 45.6465L85.8858 46.7486C86.1009 47.2278 85.9581 47.5483 85.4573 47.7102L84.834 47.9045L91.138 47.8811ZM96.8107 50.2281L96.8138 51.0601L98.2461 53.2948C98.4821 53.6566 98.4463 54.0621 98.1386 54.5112C97.8309 54.9497 97.591 54.9719 97.4189 54.5779L96.8221 53.2841L96.8449 59.444C96.8465 59.8814 96.5593 60.1011 95.9833 60.1032C95.4073 60.1054 95.1185 59.8878 95.1169 59.4504L95.0977 54.2665C94.6652 55.5694 94.3004 56.4295 94.0033 56.8466C93.823 57.1459 93.5932 57.0134 93.3138 56.4491C93.0343 55.8848 92.9954 55.4423 93.1969 55.1215C93.4197 54.822 93.7214 54.1809 94.1017 53.1982C94.4821 52.2047 94.7717 51.217 94.9708 50.2349L93.9148 50.2388C93.4774 50.2405 93.2577 49.9479 93.2555 49.3613C93.2533 48.7746 93.4709 48.4805 93.9082 48.4789L95.0762 48.4745L95.0664 45.8345C95.0648 45.3972 95.352 45.1775 95.928 45.1753C96.504 45.1732 96.7928 45.3908 96.7944 45.8281L96.8042 48.4681L97.5402 48.4654C97.9775 48.4638 98.1973 48.7563 98.1995 49.343C98.2016 49.9296 97.9841 50.2238 97.5467 50.2254L96.8107 50.2281ZM102.237 55.248L100.941 55.2528C100.664 55.2539 100.526 55.393 100.527 55.6704L100.528 56.0864L102.24 56.08L102.237 55.248ZM105.632 56.0674L105.631 55.6514C105.63 55.3741 105.491 55.236 105.213 55.237L103.869 55.242L103.872 56.074L105.632 56.0674ZM103.88 58.202L105.224 58.197C105.502 58.1959 105.64 58.0568 105.639 57.7794L105.637 57.3634L103.877 57.37L103.88 58.202ZM100.535 57.7984C100.536 58.0757 100.675 58.2138 100.952 58.2128L102.248 58.208L102.245 57.376L100.533 57.3824L100.535 57.7984ZM99.5815 59.5939C99.0695 59.5958 98.8125 59.3407 98.8106 58.8288L98.7951 54.6368C98.7932 54.1354 99.0483 53.8838 99.5603 53.8819L106.664 53.8556C107.176 53.8537 107.433 54.1088 107.435 54.6208L107.451 58.8127C107.452 59.3141 107.197 59.5657 106.685 59.5676L99.5815 59.5939ZM104.273 52.0085C104.551 52.0074 104.689 51.8682 104.688 51.5909L104.686 51.0949L101.534 51.1066L101.536 51.6026C101.537 51.8799 101.676 52.0181 101.953 52.0171L104.273 52.0085ZM105.609 49.8275C105.887 49.8265 106.025 49.6873 106.024 49.4099C106.023 49.186 105.884 49.0745 105.607 49.0755L100.519 49.0944C100.241 49.0954 100.103 49.2346 100.104 49.5119C100.105 49.7359 100.244 49.8474 100.521 49.8463L105.609 49.8275ZM106.193 47.6013L107.009 47.5983C107.521 47.5964 107.778 47.8514 107.78 48.3634L107.785 49.6434C107.787 50.1554 107.531 50.4124 107.02 50.4143L106.428 50.4165L106.435 52.4964C106.437 53.0084 106.182 53.2654 105.67 53.2673L100.662 53.2858C100.15 53.2877 99.8932 53.0327 99.8913 52.5207L99.8851 50.8567C99.8841 50.5794 99.7449 50.4412 99.4676 50.4423L99.1956 50.4433C98.6836 50.4452 98.4266 50.1901 98.4247 49.6781L98.42 48.3981C98.4181 47.8861 98.6731 47.6292 99.1851 47.6273L99.7611 47.6252L99.2127 46.4272C99.0299 46.0332 99.1941 45.7446 99.7055 45.5613C100.217 45.3781 100.569 45.4835 100.763 45.8774L101.085 46.5322C101.322 47.0114 101.189 47.3425 100.689 47.5257L100.433 47.6227L102.129 47.6164L102.122 45.8244C102.121 45.3871 102.419 45.1673 103.016 45.1651C103.624 45.1628 103.929 45.3804 103.93 45.8177L103.937 47.6097L105.505 47.6039L105.233 47.5089C104.827 47.3717 104.772 46.9612 105.068 46.2775C105.375 45.583 105.737 45.2937 106.153 45.4094L106.377 45.4886C106.986 45.6677 107.131 46.0298 106.813 46.575L106.193 47.6013ZM111.457 56.3179C111.458 56.5952 111.598 56.7333 111.875 56.7323L113.587 56.726C113.864 56.7249 114.002 56.5858 114.001 56.3084L113.991 53.5884L111.447 53.5979L111.457 56.3179ZM113.985 51.9405L113.977 49.7645C113.976 49.4871 113.837 49.349 113.56 49.35L111.848 49.3564C111.57 49.3574 111.432 49.4966 111.433 49.7739L111.441 51.9499L113.985 51.9405ZM119.057 47.5536L122.769 47.5399C123.292 47.5379 123.554 47.7983 123.556 48.321L123.541 48.497C123.447 52.1667 123.334 54.7272 123.201 56.1783C123.078 57.6188 122.858 58.5423 122.539 58.9488C122.189 59.4194 121.678 59.7147 121.007 59.8345C120.537 59.9002 119.988 59.9183 119.359 59.8886C118.783 59.8801 118.387 59.5669 118.171 58.949C117.966 58.3311 118.056 58.0374 118.44 58.068C118.739 58.0989 119.341 58.1126 120.248 58.1093C120.536 58.1082 120.77 58.0167 120.951 57.8347C121.174 57.5779 121.347 56.8092 121.471 55.5287C121.594 54.2376 121.683 52.3439 121.738 49.8477C121.757 49.4636 121.629 49.2721 121.351 49.2731L118.343 49.2843C117.931 50.2458 117.603 50.8817 117.358 51.1919C117.083 51.609 116.784 51.6954 116.463 51.4513C116.281 51.2813 116.03 51.1062 115.709 50.9261L115.734 57.63C115.736 58.142 115.481 58.399 114.969 58.4009L110.505 58.4174C109.993 58.4193 109.736 58.1643 109.734 57.6523L109.7 48.4683C109.698 47.9563 109.953 47.6994 110.465 47.6975L111.505 47.6936L111.85 45.7563C111.923 45.3294 112.307 45.1626 113 45.2561C113.694 45.3495 113.967 45.5991 113.819 46.005L113.217 47.6873L114.929 47.6809C115.441 47.679 115.698 47.9341 115.7 48.4461L115.707 50.2701C116.619 48.9333 117.265 47.4589 117.643 45.8469C117.779 45.3557 118.152 45.1783 118.761 45.3147C119.369 45.4511 119.61 45.7276 119.484 46.144L119.057 47.5536ZM120.65 54.3798C120.833 54.6884 120.653 55.0091 120.11 55.3418C119.578 55.6744 119.226 55.6811 119.054 55.3617C118.828 54.8505 118.485 54.2651 118.023 53.6055C117.702 53.116 117.583 52.6845 117.667 52.3108C117.761 51.9265 118.038 51.6908 118.496 51.6037C118.538 51.4009 118.725 51.5389 119.058 52.0177C119.883 53.1239 120.414 53.9113 120.65 54.3798ZM135.474 47.8448L135.472 47.1248L134.624 47.1279L134.626 47.8479L135.474 47.8448ZM137.753 49.5963C137.752 49.319 137.612 49.1809 137.335 49.1819L136.839 49.1837L136.844 50.3837L137.34 50.3819C137.617 50.3809 137.755 50.2417 137.754 49.9643L137.753 49.5963ZM134.631 49.1919L134.636 50.3919L135.484 50.3888L135.479 49.1888L134.631 49.1919ZM132.839 49.1986C132.562 49.1996 132.424 49.3388 132.425 49.6161L132.426 49.9841C132.427 50.2614 132.566 50.3996 132.844 50.3985L133.292 50.3969L133.287 49.1969L132.839 49.1986ZM133.282 47.8529L133.28 47.1329L131.232 47.1405C130.794 47.1421 130.575 46.8923 130.573 46.3909C130.571 45.8896 130.783 45.6382 131.21 45.6366L139.018 45.6076C139.455 45.606 139.675 45.8559 139.677 46.3572C139.679 46.8585 139.461 47.11 139.023 47.1116L136.831 47.1197L136.834 47.8397L138.626 47.8331C139.138 47.8312 139.395 48.0862 139.397 48.5982L139.406 50.9502C139.408 51.4622 139.153 51.7192 138.641 51.7211L131.665 51.7469C131.153 51.7488 130.896 51.4938 130.894 50.9818L130.885 48.6298C130.883 48.1178 131.138 47.8609 131.65 47.859L133.282 47.8529ZM138.099 52.2831C138.536 52.2815 138.756 52.5206 138.757 53.0006C138.759 53.4806 138.541 53.7215 138.104 53.7231L132.232 53.7448C131.795 53.7465 131.575 53.5073 131.573 53.0273C131.572 52.5473 131.789 52.3065 132.227 52.3048L138.099 52.2831ZM130.629 52.9508C130.801 53.2168 130.701 53.5692 130.329 54.0079C129.968 54.4359 129.701 54.4529 129.529 54.0589L128.997 52.8608L129.021 59.3248C129.022 59.7621 128.735 59.9818 128.159 59.984C127.583 59.9861 127.294 59.7685 127.293 59.3312L127.27 53.3152C126.796 54.9383 126.379 56.0225 126.018 56.5679C125.849 56.8565 125.614 56.6814 125.312 56.0425C125.022 55.3929 124.978 54.9131 125.179 54.603C125.402 54.3248 125.709 53.6943 126.1 52.7116C126.491 51.7181 126.797 50.7463 127.017 49.7961L125.913 49.8002C125.476 49.8019 125.256 49.5093 125.254 48.9227C125.252 48.336 125.47 48.0419 125.907 48.0402L127.251 48.0353L127.242 45.7153C127.241 45.2779 127.528 45.0582 128.104 45.0561C128.68 45.0539 128.969 45.2715 128.97 45.7089L128.979 48.0289L129.875 48.0255C130.312 48.0239 130.532 48.3164 130.534 48.9031C130.536 49.4898 130.319 49.7839 129.881 49.7855L128.985 49.7888L128.988 50.4928C129.181 50.7375 129.503 51.2109 129.953 51.9133C130.414 52.6049 130.64 52.9507 130.629 52.9508ZM131.588 56.9152C131.842 56.445 132.241 56.2888 132.786 56.4468C133.341 56.5941 133.497 56.8975 133.253 57.3571C132.947 58.0409 132.48 58.656 131.852 59.2023C131.544 59.5234 131.149 59.5142 130.668 59.1747C130.198 58.8457 130.132 58.5367 130.473 58.2474C131.005 57.8614 131.376 57.4174 131.588 56.9152ZM139.741 55.109C139.743 55.5997 139.525 55.8458 139.088 55.8474L135.952 55.8591L135.965 59.299C135.966 59.7364 135.684 59.9561 135.119 59.9582C134.554 59.9603 134.27 59.7427 134.269 59.3053L134.256 55.8654L131.28 55.8764C130.843 55.878 130.623 55.6335 130.621 55.1428C130.619 54.6415 130.837 54.39 131.274 54.3884L139.082 54.3595C139.52 54.3578 139.739 54.6077 139.741 55.109ZM137.046 57.503C136.714 57.1096 136.777 56.7947 137.234 56.5583C137.692 56.322 138.055 56.3686 138.323 56.6983L139.529 58.1818C139.796 58.5115 139.686 58.8212 139.196 59.1111C138.706 59.4009 138.354 59.3489 138.139 58.955C137.978 58.5822 137.614 58.0983 137.046 57.503ZM152.56 47.0934L150.736 47.1002C150.364 47.6669 150.072 48.0307 149.86 48.1915C149.551 48.5019 149.162 48.4714 148.691 48.0998C148.22 47.7282 148.15 47.3978 148.48 47.1086C149.065 46.6797 149.457 46.1663 149.658 45.5682C149.869 45.0767 150.263 44.9046 150.84 45.0518C151.427 45.199 151.636 45.4702 151.467 45.8655L151.419 45.9457L155.179 45.9317C155.617 45.9301 155.836 46.1213 155.837 46.5053C155.839 46.8893 155.621 47.0821 155.183 47.0837L153.152 47.0913C153.569 47.4417 153.745 47.6064 153.681 47.5853C153.928 47.883 153.79 48.1502 153.268 48.3868C152.747 48.6234 152.341 48.5823 152.052 48.2633C151.655 47.8061 151.75 47.4484 152.336 47.1903L152.56 47.0934ZM152.889 49.7002C152.643 49.3492 152.737 49.0608 153.174 48.8352C153.621 48.5989 153.979 48.6509 154.247 48.9912L154.825 49.7411C155.093 50.0814 154.993 50.3804 154.525 50.6382C154.056 50.8959 153.699 50.8493 153.452 50.4982L152.889 49.7002ZM145.392 47.136L143.888 47.1416C143.389 47.7621 143.017 48.1688 142.772 48.3617C142.453 48.6403 142.08 48.567 141.651 48.1419C141.234 47.7061 141.206 47.3489 141.567 47.0702C142.227 46.6197 142.694 46.106 142.97 45.529C143.235 45.08 143.645 44.9398 144.2 45.1084C144.766 45.277 144.943 45.5537 144.731 45.9385L144.715 45.9545L147.627 45.9437C148.065 45.9421 148.284 46.1386 148.285 46.5333C148.287 46.9279 148.069 47.1261 147.632 47.1277L146.272 47.1328L146.85 47.6586C147.16 47.9561 147.065 48.2338 146.565 48.4917C146.064 48.7495 145.664 48.7243 145.364 48.4161L145.188 48.2408C144.738 47.7944 144.806 47.4262 145.392 47.136ZM148.967 57.7308C149.489 57.7076 149.751 57.8613 149.753 58.1919C150.391 57.7629 150.896 57.3503 151.268 56.9543C150.858 55.7505 150.57 54.2849 150.404 52.5575L147.796 52.5671L147.798 53.2071L149.078 53.2024C149.515 53.2008 149.735 53.3653 149.736 53.696C149.737 54.0266 149.519 54.1928 149.082 54.1944L147.802 54.1991L147.804 54.7591L148.988 54.7547C149.425 54.7531 149.644 54.9123 149.646 55.2323C149.647 55.5416 149.429 55.6971 148.991 55.6987L147.807 55.7031L147.809 56.2631L149.249 56.2578C149.687 56.2562 149.906 56.426 149.907 56.7673C149.909 57.098 149.691 57.2642 149.253 57.2658L147.813 57.2711L147.815 57.8151L148.967 57.7308ZM145.348 52.5762L145.368 57.9682L146.312 57.9167L146.292 52.5727L145.348 52.5762ZM142.911 51.2732L144.911 51.2658C144.675 50.9254 144.402 50.6117 144.091 50.3249C143.751 50.6781 143.358 50.9942 142.911 51.2732ZM146.317 50.8766C146.103 50.6641 145.89 50.6382 145.677 50.799L145.087 51.2652L146.687 51.2592L146.317 50.8766ZM147.151 51.2575L148.751 51.2516C148.537 50.9857 148.296 50.7199 148.028 50.4543C147.794 50.7325 147.502 51.0002 147.151 51.2575ZM153.623 53.3615C153.76 52.9557 154.074 52.8212 154.565 52.9581C155.067 53.0842 155.239 53.3662 155.08 53.8041C154.743 54.9147 154.113 56.0424 153.189 57.1872C153.5 57.7834 153.822 58.0808 154.152 58.0796C154.291 58.0791 154.392 57.9721 154.455 57.7585L154.517 57.2943C154.569 56.8567 154.819 56.7758 155.268 57.0515C155.717 57.3271 155.89 57.7425 155.785 58.2976C155.776 58.6389 155.633 58.9701 155.357 59.2912C155.081 59.6122 154.639 59.7738 154.031 59.7761C153.241 59.779 152.557 59.3442 151.978 58.4717C151.265 59.0823 150.749 59.4629 150.43 59.6134C150.036 59.8602 149.684 59.7975 149.373 59.4253L148.988 58.9788C146.066 59.2349 143.741 59.4142 142.013 59.5166C141.651 59.55 141.437 59.3374 141.371 58.879C141.305 58.4206 141.491 58.1799 141.928 58.1569L143.864 58.0538L143.862 57.3658L142.326 57.3715C141.888 57.3731 141.669 57.2086 141.668 56.8779C141.666 56.5366 141.884 56.3651 142.322 56.3635L143.858 56.3578L143.856 55.7498L142.688 55.7541C142.25 55.7557 142.031 55.6019 142.03 55.2925C142.029 54.9725 142.247 54.8117 142.684 54.8101L143.852 54.8058L143.85 54.2298L142.538 54.2346C142.101 54.2363 141.881 54.0771 141.88 53.7571C141.879 53.4264 142.097 53.2603 142.534 53.2586L143.846 53.2538L143.844 52.5818L141.844 52.5892C141.406 52.5908 141.187 52.373 141.185 51.9356C141.184 51.4983 141.402 51.2788 141.839 51.2772L142.559 51.2745L142.35 51.0673C141.9 50.6103 142.038 50.1831 142.761 49.7858C143.113 49.7311 143.325 49.437 143.398 48.9034C143.557 48.4868 143.871 48.3097 144.34 48.3719C144.82 48.4341 144.981 48.7002 144.823 49.1701L146.027 50.3337C146.837 49.8933 147.262 49.4491 147.303 49.0009C147.45 48.5631 147.759 48.3752 148.228 48.4375C148.698 48.4891 148.875 48.7231 148.759 49.1395L148.711 49.2517C149.279 49.7083 149.568 49.9792 149.578 50.0645C149.878 50.4154 149.826 50.7409 149.422 51.0411L149.151 51.2501L150.287 51.2459L150.2 49.3262C150.187 48.8889 150.475 48.6692 151.061 48.667C151.659 48.6648 151.963 48.8823 151.976 49.3196L152.031 51.2394L155.151 51.2279C155.588 51.2262 155.808 51.4441 155.809 51.8814C155.811 52.3188 155.593 52.5382 155.156 52.5399L152.132 52.5511C152.253 53.6706 152.406 54.6087 152.59 55.3654C153.152 54.51 153.497 53.842 153.623 53.3615Z" fill="black" fill-opacity="0.85"/>
</g>
<defs>
<clipPath id="clip0_2306_5966">
<rect width="200" height="90" fill="white"/>
</clipPath>
</defs>
</svg>
