<svg width="200" height="90" viewBox="0 0 200 90" fill="none" xmlns="http://www.w3.org/2000/svg">
<g clip-path="url(#clip0_1720_1945)">
<rect width="200" height="90" fill="#FEB79D"/>
<path fill-rule="evenodd" clip-rule="evenodd" d="M-6.18027 85.5257C-5.5206 81.3514 -9.94765 77.2571 -7.65473 73.2393C-4.94813 68.4966 -1.65241 61.9915 7.77154 61.0783C17.9972 60.0873 23.5998 68.8258 33.9785 69.2048C45.8176 69.6371 56.5881 60.196 66.8872 63.2371C76.2425 65.9996 70.121 74.0119 68.9752 79.5387C68.1676 83.4341 61.5364 86.4306 61.2669 90.3457C60.8502 96.3973 75.7689 103.853 67.0229 107.895C58.3557 111.9 45.7383 103.802 34.2527 102.83C27.3162 102.243 20.5655 103.925 13.6182 103.373C4.65786 102.66 -7.2514 103.227 -11.7526 99.1698C-16.3208 95.0519 -6.92748 90.2539 -6.18027 85.5257Z" fill="#FE585B"/>
<path fill-rule="evenodd" clip-rule="evenodd" d="M28.4743 10.5302C32.6486 10.8717 36.7429 8.58004 40.7607 9.76696C45.5034 11.168 52.0085 12.874 52.9217 17.7523C53.9127 23.0456 45.1742 25.9458 44.7952 31.3183C44.3629 37.4467 53.804 43.0221 50.7629 48.3534C48.0004 53.1961 39.9881 50.0274 34.4613 49.4342C30.5659 49.0162 27.5694 45.5836 23.6543 45.444C17.6027 45.2284 10.1469 52.9509 6.10508 48.4236C2.09968 43.9371 10.1975 37.4057 11.1701 31.4602C11.7575 27.8695 10.0747 24.3751 10.6274 20.7788C11.3402 16.1405 10.7727 9.97575 14.8302 7.64571C18.9481 5.281 23.7461 10.1434 28.4743 10.5302Z" fill="#FC7443"/>
<path fill-rule="evenodd" clip-rule="evenodd" d="M173.474 4.53021C177.649 4.87169 181.743 2.58004 185.761 3.76696C190.503 5.16803 197.008 6.87405 197.922 11.7523C198.913 17.0456 190.174 19.9458 189.795 25.3183C189.363 31.4467 198.804 37.0221 195.763 42.3534C193 47.1961 184.988 44.0274 179.461 43.4342C175.566 43.0162 172.569 39.5836 168.654 39.444C162.603 39.2284 155.147 46.9509 151.105 42.4236C147.1 37.9371 155.198 31.4057 156.17 25.4602C156.757 21.8695 155.075 18.3751 155.627 14.7788C156.34 10.1405 155.773 3.97575 159.83 1.64571C163.948 -0.719004 168.746 4.14342 173.474 4.53021Z" fill="#FF8787"/>
<path fill-rule="evenodd" clip-rule="evenodd" d="M117.063 7.20494C131.49 7.9797 144.155 11.9054 154.996 17.5775C166.733 23.7188 176.896 30.8598 179.688 39.9711C183.097 51.0949 184.354 63.7453 171.749 72.2549C158.691 81.0707 136.857 81.4742 117.063 82.2497C95.2362 83.1048 71.8992 84.7511 54.6033 76.8446C35.6156 68.1646 20.8565 53.9771 24.5773 39.9711C28.0889 26.7526 52.1053 19.9805 71.5388 13.0955C85.3864 8.18958 100.98 6.34119 117.063 7.20494Z" fill="#FFAB7A"/>
<ellipse cx="177.987" cy="70.7269" rx="16.7876" ry="14.0511" fill="#F55A57"/>
<ellipse cx="173.711" cy="65.6395" rx="1.21537" ry="2.15126" fill="black"/>
<ellipse cx="182.286" cy="65.6395" rx="1.21537" ry="2.15126" fill="black"/>
<path d="M173.043 72.6445C173.079 74.5722 175.312 76.0937 178.031 76.0428C180.749 75.9919 182.924 74.388 182.888 72.4603C182.852 70.5326 180.67 71.7825 177.952 71.8334C175.233 71.8843 173.007 70.7168 173.043 72.6445Z" fill="black"/>
<path d="M170.796 50.9035C173.677 48.6452 180.1 51.1915 180.1 55.0219C180.101 59.542 168.086 61.6232 165.801 61.9782C165.552 62.0169 165.303 62.044 165.054 62.039C163.425 62.0062 157.615 61.2375 170.796 50.9035Z" fill="#6E5232"/>
<path d="M170.796 50.9035C173.677 48.6452 180.1 51.1915 180.1 55.0219C180.101 59.542 168.086 61.6232 165.801 61.9782C165.552 62.0169 165.303 62.044 165.054 62.039C163.425 62.0062 157.615 61.2375 170.796 50.9035Z" fill="url(#paint0_radial_1720_1945)" fill-opacity="0.15"/>
<path d="M185.2 50.7629C182.319 48.5045 175.896 51.0509 175.896 54.8813C175.896 59.4014 187.91 61.4825 190.195 61.8375C190.445 61.8763 190.693 61.9034 190.942 61.8984C192.571 61.8656 198.381 61.0968 185.2 50.7629Z" fill="#6E5232"/>
<path d="M185.2 50.7629C182.319 48.5045 175.896 51.0509 175.896 54.8813C175.896 59.4014 187.91 61.4825 190.195 61.8375C190.445 61.8763 190.693 61.9034 190.942 61.8984C192.571 61.8656 198.381 61.0968 185.2 50.7629Z" fill="url(#paint1_radial_1720_1945)" fill-opacity="0.15"/>
<path d="M79.6265 37.0952C79.4466 37.1226 79.2898 37.0931 79.1562 37.007C79.0225 36.9275 78.9387 36.8011 78.9048 36.6279C78.8775 36.4547 78.9136 36.3112 79.0132 36.1975C79.1127 36.0838 79.2458 36.0133 79.4124 35.986C79.5923 35.952 79.7954 35.9113 80.0219 35.8638C80.2551 35.8162 80.5016 35.7686 80.7614 35.721L80.7571 34.561C80.4976 34.702 80.2348 34.833 79.9686 34.9539C79.709 35.0682 79.4527 35.1725 79.1997 35.2668C79.0066 35.3342 78.84 35.3415 78.6998 35.2887C78.5596 35.2358 78.4559 35.1296 78.3886 34.9698C78.3348 34.83 78.3376 34.6933 78.3971 34.5598C78.4566 34.4195 78.5829 34.3157 78.7759 34.2484C79.3685 34.0462 79.921 33.8074 80.4333 33.5322C80.9523 33.2503 81.4045 32.9453 81.7899 32.6172L78.7999 32.6283C78.6666 32.6288 78.5531 32.5825 78.4594 32.4895C78.3657 32.3965 78.3187 32.2834 78.3182 32.15C78.3177 32.0167 78.3639 31.9032 78.4569 31.8095C78.5499 31.7158 78.663 31.6688 78.7964 31.6683L82.3864 31.655L82.3844 31.115L79.9344 31.124C79.8077 31.1245 79.6975 31.0783 79.6039 30.9853C79.5102 30.8923 79.4631 30.7825 79.4626 30.6558C79.4622 30.5291 79.5084 30.4223 79.6014 30.3353C79.6944 30.2416 79.8043 30.1945 79.9309 30.1941L82.3809 30.185L82.379 29.665L79.139 29.677C79.0123 29.6775 78.9022 29.6312 78.8085 29.5382C78.7148 29.4452 78.6677 29.3354 78.6673 29.2087C78.6668 29.0754 78.713 28.9652 78.806 28.8782C78.899 28.7845 79.0089 28.7375 79.1355 28.737L82.3755 28.725L82.3742 28.375C82.3735 28.1883 82.433 28.0414 82.5526 27.9343C82.6721 27.8205 82.8153 27.7633 82.9819 27.7627C83.1553 27.7621 83.2988 27.8182 83.4126 27.9311C83.533 28.0374 83.5935 28.1838 83.5942 28.3705L83.5955 28.7205L86.8055 28.7086C86.9388 28.7081 87.049 28.7543 87.136 28.8473C87.2296 28.9337 87.2767 29.0435 87.2772 29.1768C87.2777 29.3035 87.2314 29.4137 87.1384 29.5073C87.0521 29.601 86.9423 29.6481 86.809 29.6486L83.599 29.6605L83.6009 30.1804L86.0509 30.1714C86.1842 30.1709 86.2944 30.2171 86.3814 30.3101C86.4684 30.3965 86.5121 30.503 86.5126 30.6297C86.5131 30.7563 86.4701 30.8665 86.3838 30.9601C86.2975 31.0538 86.1877 31.1009 86.0543 31.1014L83.6043 31.1104L83.6063 31.6504L87.1463 31.6373C87.2797 31.6368 87.3932 31.6831 87.4868 31.7761C87.5805 31.869 87.6276 31.9822 87.6281 32.1155C87.6286 32.2489 87.5823 32.3624 87.4894 32.4561C87.3964 32.5497 87.2832 32.5968 87.1499 32.5973L83.7899 32.6098C83.9174 32.836 84.0516 33.0555 84.1923 33.2683C84.3398 33.4744 84.4905 33.6705 84.6445 33.8566C84.8042 33.756 84.9771 33.642 85.1633 33.5147C85.3561 33.3873 85.5357 33.2633 85.7019 33.1427C85.8748 33.022 86.0078 32.9249 86.1008 32.8512C86.2204 32.7508 86.3603 32.7036 86.5203 32.7096C86.687 32.709 86.8172 32.7752 86.911 32.9082C87.0048 33.0345 87.0453 33.171 87.0326 33.3178C87.0198 33.4645 86.9535 33.5847 86.8339 33.6785C86.6743 33.7991 86.4549 33.9499 86.1756 34.1309C85.9029 34.3053 85.6401 34.4663 85.3873 34.6139C85.6616 34.8595 85.9524 35.0851 86.2599 35.2906C86.5739 35.4895 86.9013 35.6749 87.2419 35.847C87.3755 35.9132 87.4692 36.0228 87.5231 36.176C87.577 36.3224 87.5642 36.4725 87.4848 36.6261C87.3988 36.7931 87.2658 36.8936 87.0859 36.9276C86.9061 36.9616 86.7326 36.9356 86.5656 36.8495C85.7641 36.4258 85.0387 35.8885 84.3896 35.2376C83.7405 34.58 83.2278 33.8485 82.8515 33.0432C82.5725 33.3109 82.2635 33.5721 81.9244 33.8267L81.9305 35.4767C82.2103 35.4223 82.4735 35.368 82.7199 35.3137C82.973 35.2528 83.1895 35.1987 83.3693 35.1513C83.5358 35.1107 83.6825 35.1202 83.8094 35.1797C83.9363 35.2392 84.0167 35.3456 84.0506 35.4988C84.0979 35.6786 84.0785 35.8254 83.9922 35.939C83.906 36.046 83.7862 36.1198 83.6331 36.1604C83.3866 36.228 83.0969 36.3024 82.7639 36.3836C82.4309 36.4715 82.0779 36.5595 81.7049 36.6475C81.3385 36.7355 80.9755 36.8169 80.6158 36.8916C80.256 36.9662 79.9263 37.0341 79.6265 37.0952ZM92.3153 34.0382C92.1622 34.1121 92.0056 34.136 91.8455 34.1099C91.6921 34.0772 91.5751 33.9843 91.4945 33.8312C91.4273 33.6981 91.4135 33.5615 91.453 33.4214C91.4991 33.2745 91.592 33.1675 91.7318 33.1003C92.1178 32.9122 92.5036 32.6908 92.8893 32.436C93.2817 32.1746 93.644 31.8966 93.9762 31.602C93.849 31.4558 93.7285 31.3096 93.6146 31.1633C93.5007 31.0104 93.3901 30.8508 93.2828 30.6846C93.0972 30.9519 92.908 31.1926 92.7155 31.4067C92.6093 31.5204 92.4762 31.5909 92.3163 31.6182C92.163 31.6387 92.0296 31.6026 91.9159 31.5096C91.8089 31.4167 91.7484 31.2936 91.7345 31.1403C91.7206 30.987 91.7668 30.8569 91.8731 30.7498C92.0923 30.5356 92.3047 30.2782 92.5102 29.9774C92.7224 29.67 92.9179 29.3526 93.0967 29.0252C93.2821 28.6912 93.4376 28.3806 93.5632 28.0935C93.6294 27.9466 93.7323 27.8429 93.8721 27.7824C94.0119 27.7218 94.1552 27.7213 94.3021 27.7808C94.449 27.8402 94.546 27.9432 94.5932 28.0897C94.6471 28.2362 94.641 28.3762 94.5748 28.5098C94.5483 28.5632 94.5185 28.6233 94.4855 28.6901C94.459 28.7502 94.4292 28.8103 94.3961 28.8704L95.5961 28.866C95.9028 28.8648 96.143 28.9373 96.3169 29.0833C96.4908 29.2227 96.5914 29.4023 96.6189 29.6222C96.6464 29.8354 96.5905 30.059 96.4514 30.2928C96.3256 30.52 96.1864 30.7371 96.0338 30.9444C95.8879 31.1516 95.732 31.3522 95.566 31.5461C95.8735 31.7716 96.1943 31.9804 96.5284 32.1725C96.8624 32.3646 97.2031 32.5367 97.5503 32.6888C97.6905 32.7549 97.7876 32.8679 97.8416 33.0277C97.8955 33.1808 97.886 33.3342 97.8133 33.4878C97.7272 33.6548 97.5943 33.7586 97.4144 33.7993C97.2412 33.8332 97.0678 33.8072 96.8941 33.7212C96.5268 33.5359 96.1627 33.3306 95.8018 33.1052C95.441 32.8799 95.0967 32.6345 94.7691 32.3691C94.4169 32.6904 94.0347 32.9918 93.6224 33.2733C93.2101 33.5482 92.7744 33.8031 92.3153 34.0382ZM90.3864 37.0453C90.2331 37.0459 90.1029 36.9964 89.9958 36.8968C89.8955 36.7972 89.845 36.664 89.8444 36.4974L89.8316 33.0574C89.7257 33.2644 89.6231 33.4581 89.5238 33.6385C89.4244 33.8189 89.3317 33.9759 89.2455 34.1096C89.1593 34.2432 89.0397 34.3303 88.8865 34.3709C88.74 34.4114 88.5999 34.3886 88.4662 34.3024C88.3393 34.2296 88.2589 34.1199 88.225 33.9733C88.1911 33.8268 88.2173 33.6934 88.3035 33.573C88.4295 33.3926 88.5654 33.1754 88.7111 32.9215C88.8568 32.6677 89.0025 32.4038 89.1482 32.1299C89.2938 31.8494 89.4261 31.5789 89.5452 31.3184C89.6642 31.0513 89.7566 30.8176 89.8226 30.6174L88.8126 30.6211C88.6526 30.6217 88.5257 30.5722 88.432 30.4725C88.3383 30.3662 88.2912 30.2431 88.2906 30.1031C88.2901 29.9564 88.3363 29.8329 88.4293 29.7325C88.5222 29.6322 88.6487 29.5817 88.8087 29.5811L89.8187 29.5774L89.814 28.2974C89.8133 28.1241 89.8628 27.9906 89.9625 27.8969C90.0688 27.7965 90.1986 27.746 90.3519 27.7454C90.5053 27.7448 90.6354 27.7944 90.7425 27.894C90.8495 27.9869 90.9033 28.12 90.904 28.2934L90.9087 29.5734L91.7087 29.5704C91.8687 29.5698 91.9955 29.6193 92.0892 29.719C92.183 29.8186 92.2301 29.9418 92.2306 30.0885C92.2311 30.2285 92.1849 30.352 92.092 30.459C91.999 30.5593 91.8725 30.6098 91.7125 30.6104L90.9126 30.6134L90.9133 30.8033C91.007 30.9163 91.1209 31.0559 91.2548 31.2221C91.3887 31.3816 91.5227 31.5411 91.6566 31.7006C91.7972 31.8534 91.9109 31.9763 91.998 32.0693C92.1117 32.1756 92.1655 32.3087 92.1594 32.4687C92.16 32.6221 92.1038 32.7523 91.9909 32.8594C91.8779 32.9665 91.7448 33.0136 91.5914 33.0009C91.438 32.9881 91.3111 32.9252 91.2107 32.8123C91.1705 32.7657 91.1237 32.7126 91.0701 32.6528C91.0232 32.5863 90.973 32.5198 90.9194 32.4533L90.9343 36.4933C90.935 36.66 90.8821 36.7935 90.7758 36.8939C90.6695 36.9943 90.5397 37.0448 90.3864 37.0453ZM94.6756 36.8294C94.1356 36.8314 93.7088 36.7797 93.395 36.6742C93.0813 36.5754 92.8574 36.4028 92.7231 36.1567C92.5955 35.9038 92.5309 35.5541 92.5292 35.1074C92.5276 34.6607 92.5896 34.3138 92.7154 34.0667C92.8478 33.8129 93.0704 33.6354 93.3834 33.5342C93.6963 33.4264 94.1228 33.3715 94.6628 33.3695C95.2028 33.3675 95.6263 33.4192 95.9334 33.5248C96.2471 33.6236 96.4677 33.7994 96.5953 34.0523C96.7296 34.2985 96.7975 34.6449 96.7992 35.0916C96.8008 35.5382 96.7355 35.8885 96.6031 36.1423C96.4773 36.3894 96.258 36.5636 95.945 36.6647C95.6387 36.7725 95.2156 36.8274 94.6756 36.8294ZM94.6719 35.8195C94.9519 35.8184 95.1618 35.801 95.3017 35.7671C95.4482 35.7266 95.5446 35.6529 95.5909 35.546C95.6438 35.4392 95.6699 35.2857 95.6692 35.0858C95.6684 34.8924 95.6412 34.7459 95.5875 34.6461C95.5405 34.5462 95.4436 34.4766 95.2968 34.4371C95.1566 34.3976 94.9465 34.3784 94.6665 34.3795C94.3865 34.3805 94.1733 34.4013 94.0268 34.4418C93.8869 34.4824 93.7905 34.556 93.7376 34.6629C93.6846 34.7631 93.6585 34.9032 93.6591 35.0832C93.6599 35.2832 93.6871 35.4364 93.7408 35.5429C93.7946 35.6494 93.8915 35.7223 94.0317 35.7618C94.1785 35.8013 94.3919 35.8205 94.6719 35.8195ZM94.7433 30.8192C94.9226 30.6052 95.0751 30.3979 95.201 30.1975C95.3667 29.9302 95.2896 29.7971 94.9696 29.7983L93.9496 29.8021C94.1776 30.1679 94.4422 30.5069 94.7433 30.8192ZM106.416 36.8859C106.176 36.8002 105.905 36.6845 105.605 36.5389C105.304 36.3934 105.007 36.2311 104.713 36.0522C104.419 35.8733 104.158 35.6976 103.931 35.5251C103.811 35.4322 103.74 35.3158 103.72 35.1759C103.706 35.0293 103.742 34.8992 103.828 34.7855C103.901 34.6986 103.981 34.6416 104.067 34.6146L101.987 34.6223C102.028 34.6422 102.068 34.6654 102.108 34.6919C102.148 34.7184 102.181 34.7516 102.208 34.7915C102.302 34.9178 102.332 35.0511 102.3 35.1912C102.273 35.3246 102.207 35.4349 102.101 35.5219C101.901 35.6827 101.659 35.8502 101.373 36.0246C101.087 36.199 100.791 36.3601 100.484 36.5079C100.185 36.6557 99.9088 36.78 99.6558 36.881C99.4628 36.955 99.2895 36.9723 99.136 36.9329C98.9826 36.9001 98.8689 36.8006 98.7949 36.6342C98.7277 36.4811 98.7238 36.3344 98.7833 36.1942C98.8428 36.054 98.9591 35.9536 99.1322 35.8929C99.3852 35.7986 99.6514 35.6877 99.931 35.56C100.217 35.4256 100.49 35.2879 100.749 35.1469C101.009 34.9993 101.232 34.8585 101.418 34.7244C101.444 34.7043 101.471 34.6876 101.498 34.6741C101.531 34.654 101.561 34.6372 101.587 34.6238L98.8575 34.6339C98.7175 34.6344 98.5973 34.5882 98.497 34.4953C98.4033 34.3956 98.3562 34.2791 98.3557 34.1458C98.3552 34.0058 98.4014 33.8889 98.4944 33.7953C98.594 33.6949 98.7138 33.6445 98.8538 33.6439L99.2338 33.6425L99.1394 29.7529C99.1316 29.4529 99.1541 29.2128 99.2068 29.0326C99.2661 28.8457 99.3755 28.6986 99.5351 28.5914C99.6947 28.4775 99.9244 28.3833 100.224 28.3088C100.337 28.2751 100.451 28.2446 100.564 28.2176C100.684 28.1838 100.8 28.15 100.913 28.1163C101.04 28.0825 101.16 28.0887 101.273 28.1349C101.387 28.1745 101.464 28.2609 101.504 28.3941C101.552 28.5406 101.545 28.6673 101.486 28.7741C101.433 28.8743 101.34 28.9414 101.207 28.9752C101.12 29.0022 101.027 29.0325 100.927 29.0662C100.827 29.0933 100.74 29.1136 100.667 29.1272C100.461 29.1813 100.331 29.2451 100.278 29.3186C100.225 29.3855 100.202 29.5222 100.209 29.7289L100.21 30.0389L100.99 30.036C101.124 30.0355 101.234 30.0784 101.321 30.1648C101.415 30.2511 101.462 30.3609 101.462 30.4942C101.463 30.6209 101.416 30.7311 101.323 30.8248C101.237 30.9118 101.127 30.9555 100.994 30.956L100.234 30.9588L100.257 31.8187L100.997 31.816C101.13 31.8155 101.241 31.8584 101.328 31.9448C101.421 32.0311 101.468 32.1409 101.469 32.2742C101.469 32.4009 101.423 32.5111 101.33 32.6048C101.244 32.6917 101.134 32.7355 101 32.736L100.28 32.7386L100.304 33.6386L101.794 33.633L101.787 31.9131C101.787 31.7731 101.833 31.6629 101.926 31.5825C102.019 31.4955 102.129 31.4518 102.256 31.4513C102.389 31.4508 102.499 31.4937 102.586 31.5801C102.68 31.6597 102.727 31.7696 102.727 31.9096L102.734 33.6296L103.284 33.6275L103.276 31.6375C103.276 31.4442 103.249 31.321 103.195 31.2678C103.148 31.208 103.018 31.1785 102.805 31.1793C102.425 31.1807 102.158 31.1117 102.004 30.9722C101.857 30.8261 101.782 30.5564 101.781 30.1631L101.774 28.3331C101.774 28.1797 101.823 28.0562 101.923 27.9625C102.022 27.8688 102.142 27.8217 102.282 27.8212C102.422 27.8207 102.542 27.8669 102.643 27.9599C102.75 28.0528 102.804 28.1759 102.804 28.3293L102.806 28.7693L103.846 28.7654C103.966 28.765 104.069 28.8079 104.156 28.8943C104.243 28.9739 104.287 29.0738 104.287 29.1938C104.288 29.3138 104.245 29.4173 104.159 29.5042C104.072 29.5912 103.969 29.6349 103.849 29.6354L102.809 29.6392L102.81 29.9392C102.811 30.1192 102.845 30.2358 102.911 30.2889C102.978 30.3353 103.108 30.3581 103.302 30.3574C103.615 30.3563 103.845 30.4354 103.993 30.5949C104.146 30.7476 104.224 31.014 104.226 31.394L104.234 33.624L105.684 33.6186L105.7 32.7286L104.951 32.7313C104.824 32.7318 104.714 32.6855 104.62 32.5926C104.533 32.4995 104.489 32.3897 104.489 32.263C104.488 32.1364 104.531 32.0295 104.618 31.9426C104.711 31.8489 104.82 31.8018 104.947 31.8013L105.717 31.7985L105.724 30.9385L104.944 30.9413C104.817 30.9418 104.707 30.8989 104.613 30.8126C104.526 30.7196 104.483 30.6097 104.482 30.4831C104.482 30.3497 104.525 30.2396 104.611 30.1526C104.704 30.0656 104.814 30.0218 104.94 30.0214L105.74 30.0184L105.749 29.7084C105.755 29.495 105.721 29.3551 105.648 29.2887C105.574 29.2157 105.431 29.1795 105.217 29.1803L104.747 29.1821C104.621 29.1825 104.511 29.1363 104.417 29.0433C104.323 28.9503 104.276 28.8405 104.276 28.7138C104.275 28.5805 104.321 28.467 104.414 28.3733C104.507 28.2796 104.617 28.2325 104.744 28.2321L105.284 28.2301C105.69 28.2286 106.004 28.2741 106.224 28.3666C106.451 28.4524 106.609 28.6018 106.696 28.8148C106.783 29.0278 106.821 29.321 106.809 29.6944L106.744 33.6147L107.144 33.6132C107.284 33.6127 107.401 33.6623 107.494 33.7619C107.595 33.8549 107.645 33.9714 107.646 34.1114C107.646 34.2447 107.597 34.3615 107.497 34.4619C107.404 34.5556 107.287 34.6027 107.147 34.6032L104.397 34.6134C104.431 34.6199 104.464 34.6331 104.498 34.653C104.538 34.6729 104.571 34.6928 104.598 34.7127C104.798 34.8519 105.036 34.9977 105.309 35.15C105.583 35.2957 105.864 35.4346 106.151 35.5669C106.445 35.6925 106.705 35.7949 106.932 35.874C107.086 35.9201 107.189 36.0097 107.243 36.1429C107.304 36.2826 107.308 36.426 107.255 36.5728C107.189 36.7597 107.073 36.8702 106.906 36.9041C106.746 36.9447 106.583 36.9386 106.416 36.8859ZM109.626 36.984C109.446 37.0114 109.29 36.9819 109.156 36.8958C109.022 36.8163 108.939 36.6899 108.905 36.5167C108.877 36.3435 108.913 36.2 109.013 36.0863C109.113 35.9726 109.246 35.9021 109.412 35.8748C109.592 35.8408 109.795 35.8001 110.022 35.7526C110.255 35.705 110.501 35.6574 110.761 35.6098L110.757 34.4498C110.497 34.5908 110.235 34.7218 109.968 34.8427C109.709 34.957 109.453 35.0613 109.2 35.1556C109.006 35.223 108.84 35.2303 108.7 35.1775C108.559 35.1246 108.456 35.0184 108.388 34.8586C108.335 34.7188 108.337 34.5821 108.397 34.4486C108.456 34.3083 108.583 34.2045 108.776 34.1372C109.368 33.935 109.921 33.6963 110.433 33.421C110.952 33.1391 111.404 32.8341 111.79 32.506L108.8 32.5171C108.666 32.5176 108.553 32.4713 108.459 32.3783C108.366 32.2853 108.318 32.1722 108.318 32.0388C108.317 31.9055 108.364 31.792 108.457 31.6983C108.55 31.6047 108.663 31.5576 108.796 31.5571L112.386 31.5438L112.384 31.0038L109.934 31.0128C109.808 31.0133 109.697 30.9671 109.604 30.8741C109.51 30.7811 109.463 30.6713 109.462 30.5446C109.462 30.4179 109.508 30.3111 109.601 30.2241C109.694 30.1304 109.804 30.0833 109.931 30.0829L112.381 30.0738L112.379 29.5538L109.139 29.5658C109.012 29.5663 108.902 29.52 108.808 29.427C108.715 29.334 108.668 29.2242 108.667 29.0975C108.667 28.9642 108.713 28.854 108.806 28.767C108.899 28.6733 109.009 28.6263 109.135 28.6258L112.375 28.6138L112.374 28.2638C112.373 28.0771 112.433 27.9302 112.552 27.8231C112.672 27.7093 112.815 27.6521 112.982 27.6515C113.155 27.6509 113.299 27.707 113.412 27.8199C113.533 27.9262 113.593 28.0726 113.594 28.2593L113.595 28.6093L116.805 28.5974C116.939 28.5969 117.049 28.6431 117.136 28.7361C117.229 28.8225 117.277 28.9323 117.277 29.0656C117.277 29.1923 117.231 29.3025 117.138 29.3961C117.052 29.4898 116.942 29.5369 116.809 29.5374L113.599 29.5493L113.601 30.0693L116.051 30.0602C116.184 30.0597 116.294 30.1059 116.381 30.1989C116.468 30.2853 116.512 30.3918 116.512 30.5185C116.513 30.6451 116.47 30.7553 116.384 30.8489C116.297 30.9426 116.187 30.9897 116.054 30.9902L113.604 30.9992L113.606 31.5392L117.146 31.5261C117.279 31.5256 117.393 31.5719 117.487 31.6649C117.58 31.7578 117.627 31.871 117.628 32.0043C117.628 32.1377 117.582 32.2512 117.489 32.3449C117.396 32.4385 117.283 32.4856 117.15 32.4861L113.79 32.4986C113.917 32.7248 114.051 32.9443 114.192 33.1571C114.34 33.3632 114.49 33.5593 114.644 33.7454C114.804 33.6448 114.977 33.5308 115.163 33.4035C115.356 33.2761 115.535 33.1521 115.702 33.0315C115.875 32.9108 116.008 32.8137 116.101 32.74C116.22 32.6396 116.36 32.5924 116.52 32.5984C116.687 32.5978 116.817 32.664 116.911 32.797C117.005 32.9233 117.045 33.0598 117.032 33.2066C117.02 33.3533 116.953 33.4735 116.834 33.5673C116.674 33.6879 116.455 33.8387 116.175 34.0197C115.903 34.1941 115.64 34.3551 115.387 34.5027C115.661 34.7483 115.952 34.9739 116.26 35.1794C116.574 35.3783 116.901 35.5637 117.242 35.7358C117.375 35.802 117.469 35.9116 117.523 36.0648C117.577 36.2112 117.564 36.3613 117.485 36.5149C117.399 36.6819 117.266 36.7824 117.086 36.8164C116.906 36.8504 116.732 36.8244 116.565 36.7383C115.764 36.3146 115.039 35.7773 114.389 35.1264C113.74 34.4688 113.228 33.7373 112.851 32.932C112.572 33.1998 112.263 33.4609 111.924 33.7155L111.93 35.3655C112.21 35.3111 112.473 35.2568 112.72 35.2026C112.973 35.1416 113.189 35.0875 113.369 35.0401C113.536 34.9995 113.682 35.009 113.809 35.0685C113.936 35.128 114.017 35.2344 114.05 35.3876C114.098 35.5674 114.078 35.7142 113.992 35.8278C113.906 35.9348 113.786 36.0086 113.633 36.0492C113.386 36.1168 113.097 36.1912 112.764 36.2724C112.431 36.3603 112.078 36.4483 111.705 36.5363C111.338 36.6244 110.975 36.7057 110.616 36.7804C110.256 36.855 109.926 36.9229 109.626 36.984ZM123.017 37.0744C122.857 37.075 122.717 37.0222 122.596 36.916C122.482 36.8097 122.425 36.6666 122.425 36.4866L122.421 35.5466L118.801 35.56C118.654 35.5606 118.541 35.5176 118.461 35.4313C118.38 35.3382 118.34 35.2284 118.339 35.1017C118.339 34.9684 118.378 34.8582 118.458 34.7713C118.538 34.6843 118.651 34.6406 118.798 34.64L122.418 34.6266L122.416 34.0866L121.706 34.0892C121.292 34.0908 120.956 34.0687 120.695 34.023C120.435 33.9773 120.232 33.8914 120.084 33.7652C119.944 33.6391 119.847 33.4595 119.792 33.2263C119.738 32.9932 119.71 32.6933 119.709 32.3266C119.708 31.96 119.733 31.6632 119.786 31.4363C119.838 31.2028 119.934 31.0225 120.074 30.8953C120.22 30.7681 120.423 30.6806 120.683 30.633C120.943 30.5854 121.279 30.5608 121.693 30.5593L124.273 30.5497C124.686 30.5482 125.023 30.5703 125.283 30.616C125.543 30.6617 125.743 30.7476 125.884 30.8737C126.031 30.9999 126.132 31.1795 126.186 31.4126C126.24 31.6391 126.268 31.9356 126.269 32.3023C126.27 32.669 126.245 32.9691 126.192 33.2026C126.14 33.4361 126.041 33.6165 125.894 33.7437C125.755 33.8709 125.555 33.9583 125.295 34.0059C125.036 34.0536 124.699 34.0781 124.286 34.0797L123.586 34.0823L123.588 34.6223L127.218 34.6088C127.364 34.6083 127.478 34.6512 127.558 34.7376C127.638 34.8239 127.679 34.9338 127.679 35.0671C127.68 35.1938 127.64 35.3039 127.561 35.3975C127.481 35.4845 127.368 35.5283 127.221 35.5288L123.591 35.5423L123.595 36.4823C123.595 36.6623 123.539 36.8058 123.426 36.9129C123.313 37.02 123.177 37.0738 123.017 37.0744ZM125.031 30.1969C124.538 30.1987 124.164 30.1668 123.911 30.101C123.657 30.0353 123.487 29.9159 123.4 29.7429C123.319 29.5699 123.278 29.3234 123.277 29.0034C123.276 28.6834 123.315 28.4366 123.394 28.2629C123.48 28.0893 123.65 27.972 123.903 27.9111C124.156 27.8434 124.529 27.8087 125.022 27.8069C125.516 27.8051 125.886 27.837 126.133 27.9028C126.386 27.9618 126.553 28.0779 126.634 28.2509C126.721 28.4239 126.766 28.6704 126.767 28.9904C126.768 29.3104 126.726 29.5573 126.64 29.7309C126.56 29.9045 126.394 30.0252 126.141 30.0928C125.894 30.1604 125.525 30.1951 125.031 30.1969ZM120.931 30.2121C120.438 30.2139 120.064 30.182 119.811 30.1162C119.564 30.0505 119.397 29.9311 119.31 29.7581C119.229 29.5851 119.188 29.3385 119.187 29.0185C119.186 28.6985 119.225 28.4517 119.304 28.2781C119.39 28.1044 119.556 27.9872 119.803 27.9262C120.056 27.8586 120.429 27.8239 120.922 27.8221C121.416 27.8203 121.786 27.8522 122.033 27.918C122.28 27.9771 122.443 28.0931 122.524 28.2662C122.611 28.4392 122.656 28.6857 122.657 29.0057C122.658 29.3257 122.616 29.5725 122.53 29.7462C122.45 29.9198 122.287 30.0404 122.041 30.108C121.794 30.1755 121.425 30.2103 120.931 30.2121ZM125.028 29.3869C125.315 29.3858 125.495 29.3618 125.568 29.3149C125.648 29.2679 125.687 29.1611 125.687 28.9944C125.686 28.8211 125.642 28.7146 125.556 28.6749C125.475 28.6352 125.299 28.6159 125.025 28.6169C124.739 28.618 124.555 28.642 124.476 28.6889C124.402 28.7359 124.366 28.846 124.367 29.0193C124.367 29.186 124.405 29.2892 124.478 29.3289C124.558 29.3686 124.742 29.388 125.028 29.3869ZM120.928 29.4021C121.215 29.401 121.395 29.377 121.468 29.3301C121.541 29.2831 121.577 29.1763 121.577 29.0097C121.576 28.8363 121.536 28.7298 121.456 28.6901C121.375 28.6504 121.199 28.6311 120.925 28.6321C120.639 28.6332 120.456 28.6572 120.376 28.7041C120.303 28.7511 120.266 28.8612 120.267 29.0345C120.268 29.2012 120.305 29.3044 120.378 29.3441C120.458 29.3838 120.642 29.4032 120.928 29.4021ZM121.742 33.2391L122.412 33.2366L122.411 32.7066L120.891 32.7123C120.905 32.9455 120.969 33.092 121.082 33.1515C121.196 33.2111 121.416 33.2403 121.742 33.2391ZM123.582 33.2323L124.252 33.2298C124.579 33.2286 124.796 33.1978 124.902 33.1374C125.015 33.077 125.081 32.9301 125.101 32.6966L123.581 32.7023L123.582 33.2323ZM120.888 31.9223L122.408 31.9166L122.406 31.4066L121.736 31.4091C121.409 31.4103 121.189 31.4411 121.076 31.5016C120.97 31.5553 120.907 31.6955 120.888 31.9223ZM123.578 31.9123L125.088 31.9067C125.067 31.6801 125 31.5403 124.886 31.4874C124.779 31.4278 124.566 31.3986 124.246 31.3998L123.576 31.4023L123.578 31.9123Z" fill="#FE585B"/>
<path d="M67.1248 58.9384C66.8901 58.9393 66.6872 58.8654 66.5159 58.7167C66.3554 58.568 66.2746 58.3656 66.2737 58.1096L66.2519 52.2376C65.9214 52.2815 65.6016 52.3254 65.2924 52.3692C64.9832 52.4023 64.706 52.43 64.4607 52.4523C64.2048 52.4852 63.986 52.438 63.8042 52.3107C63.633 52.1727 63.5363 51.9757 63.514 51.7198C63.4917 51.4745 63.555 51.2769 63.7038 51.1271C63.8525 50.9665 64.0549 50.8804 64.3108 50.8688C64.3642 50.8686 64.4228 50.8684 64.4868 50.8682C64.5615 50.8572 64.6308 50.8516 64.6948 50.8514C64.8753 50.6374 65.0664 50.3913 65.268 50.1133C65.4803 49.8351 65.7032 49.5356 65.9367 49.2148C65.7549 49.0768 65.541 48.9229 65.295 48.7531C65.049 48.5727 64.8084 48.4029 64.5731 48.2438C64.3485 48.074 64.1667 47.9467 64.0277 47.8618C63.8459 47.7345 63.7332 47.5643 63.6898 47.3511C63.6463 47.1379 63.6829 46.9404 63.7996 46.7587C63.9162 46.5662 64.0864 46.4483 64.3103 46.4048C64.5341 46.3506 64.7422 46.3872 64.9347 46.5145L65.063 46.594C65.169 46.4123 65.2908 46.1931 65.4286 45.9366C65.5769 45.6694 65.72 45.4129 65.8577 45.167C65.9955 44.9212 66.0961 44.7288 66.1596 44.5899C66.2548 44.3869 66.4037 44.253 66.6061 44.1883C66.8085 44.1128 67.0112 44.1228 67.2142 44.218C67.4278 44.3025 67.5617 44.446 67.6158 44.6485C67.6699 44.851 67.6493 45.0484 67.554 45.2407C67.448 45.4331 67.3156 45.663 67.1565 45.9302C66.9975 46.1975 66.8332 46.4648 66.6635 46.7321C66.5045 46.9993 66.3614 47.2292 66.2341 47.4217C66.3517 47.5066 66.464 47.5915 66.571 47.6764C66.6886 47.7506 66.7902 47.8196 66.8758 47.8833C67.1092 47.5411 67.3213 47.2203 67.5122 46.9209C67.7137 46.6108 67.8781 46.3542 68.0054 46.1511C68.122 45.948 68.2921 45.814 68.5159 45.7492C68.7396 45.6844 68.9477 45.7103 69.1402 45.8269C69.3433 45.9541 69.4613 46.1297 69.4941 46.3536C69.5376 46.5774 69.501 46.7802 69.3844 46.962C69.1722 47.2828 68.9123 47.6571 68.6045 48.0849C68.2968 48.5127 67.9731 48.9566 67.6335 49.4165C67.3045 49.8657 66.9807 50.2936 66.6622 50.7001C66.9715 50.6776 67.27 50.6498 67.5579 50.6168C67.8565 50.5837 68.1337 50.556 68.3896 50.5337L68.1961 50.1184C68.1101 49.9374 68.1041 49.7561 68.1781 49.5745C68.2521 49.3929 68.3742 49.2644 68.5446 49.1891C68.7363 49.1031 68.9283 49.097 69.1206 49.171C69.3128 49.2343 69.4573 49.3564 69.5539 49.5374C69.6399 49.7077 69.7474 49.9313 69.8764 50.2082C70.0161 50.4743 70.1504 50.7458 70.2794 51.0227C70.4085 51.2995 70.5107 51.5285 70.586 51.7096C70.6721 51.9119 70.6728 52.1039 70.5881 52.2856C70.5141 52.4672 70.3706 52.601 70.1576 52.6872C69.9552 52.7626 69.7526 52.7633 69.5496 52.6894C69.3573 52.6154 69.2288 52.4826 69.1641 52.2908C69.1426 52.2269 69.1156 52.1577 69.0834 52.0831C69.051 51.9979 69.0188 51.918 68.9865 51.8435C68.8372 51.8654 68.672 51.8927 68.4908 51.9253C68.3095 51.9473 68.123 51.9747 67.9311 52.0074L67.9537 58.1034C67.9546 58.3594 67.87 58.5623 67.6999 58.7123C67.5405 58.8622 67.3488 58.9376 67.1248 58.9384ZM74.339 58.4477C73.507 58.4508 72.8507 58.3625 72.37 58.183C71.8893 58.0034 71.5469 57.6954 71.3426 57.2588C71.1489 56.8222 71.0508 56.2305 71.048 55.4839C71.0452 54.7265 71.139 54.1342 71.3294 53.7068C71.5304 53.2687 71.8706 52.9581 72.35 52.775C72.8293 52.5919 73.4849 52.4988 74.3169 52.4957C75.1596 52.4926 75.8159 52.5808 76.2859 52.7604C76.7666 52.94 77.1037 53.2481 77.2974 53.6847C77.5016 54.1106 77.6051 54.7022 77.6079 55.4596C77.6107 56.2062 77.5116 56.7986 77.3105 57.2367C77.1201 57.6747 76.7853 57.9853 76.306 58.1684C75.8373 58.3515 75.1817 58.4446 74.339 58.4477ZM71.3049 51.4029C71.0595 51.4038 70.8619 51.3299 70.712 51.1811C70.5621 51.0216 70.4867 50.8299 70.4859 50.6059C70.4851 50.3819 70.559 50.195 70.7078 50.0451C70.8566 49.8845 71.0536 49.8038 71.2989 49.8029L73.3629 49.7953L73.3567 48.1153L70.7647 48.1249C70.5194 48.1258 70.3217 48.0465 70.1718 47.8871C70.0219 47.7276 69.9465 47.5359 69.9457 47.3119C69.9449 47.0879 70.0188 46.8956 70.1676 46.7351C70.3163 46.5745 70.5133 46.4938 70.7587 46.4929L73.3506 46.4833L73.3454 45.0753C73.3444 44.798 73.4342 44.5736 73.6149 44.4023C73.7956 44.2309 74.014 44.1448 74.27 44.1438C74.526 44.1429 74.745 44.2274 74.9269 44.3974C75.1089 44.5674 75.2004 44.7911 75.2014 45.0684L75.2066 46.4764L77.7506 46.467C78.0066 46.466 78.2096 46.5453 78.3595 46.7047C78.5094 46.8642 78.5848 47.0559 78.5856 47.2799C78.5865 47.5039 78.5125 47.6961 78.3638 47.8567C78.215 48.0173 78.0127 48.098 77.7567 48.099L75.2127 48.1084L75.2189 49.7884L77.3469 49.7805C77.5922 49.7796 77.7898 49.8588 77.9398 50.0183C78.0897 50.1671 78.165 50.3535 78.1658 50.5775C78.1667 50.8015 78.0927 50.9937 77.944 51.1543C77.7952 51.3042 77.5982 51.3796 77.3528 51.3805L71.3049 51.4029ZM74.3328 56.7837C74.7275 56.7822 75.026 56.7491 75.2285 56.6844C75.4416 56.6196 75.5851 56.4911 75.659 56.2988C75.733 56.1065 75.7693 55.829 75.768 55.4664C75.7666 55.1037 75.7283 54.8319 75.6529 54.6508C75.5776 54.4591 75.4331 54.3316 75.2195 54.2684C75.0166 54.1945 74.7178 54.1583 74.3231 54.1597C73.7364 54.1619 73.3474 54.254 73.1561 54.436C72.9754 54.6074 72.886 54.9491 72.8879 55.461C72.8893 55.8237 72.9276 56.1009 73.003 56.2926C73.089 56.4843 73.2335 56.6171 73.4365 56.691C73.65 56.7542 73.9488 56.7851 74.3328 56.7837ZM64.126 57.1255C63.9231 57.0516 63.7733 56.9295 63.6767 56.7592C63.5907 56.5782 63.5899 56.3809 63.6745 56.1672C63.7696 55.9429 63.87 55.6758 63.9755 55.3661C64.081 55.0564 64.1812 54.7413 64.276 54.421C64.3708 54.0899 64.4444 53.8017 64.4968 53.5561C64.5493 53.3426 64.6554 53.1822 64.815 53.075C64.9852 52.957 65.1718 52.919 65.3746 52.9609C65.5668 53.0028 65.7218 53.1036 65.8397 53.2632C65.9576 53.4227 65.9904 53.6199 65.9379 53.8548C65.8856 54.1217 65.8067 54.426 65.7013 54.7677C65.6066 55.1094 65.5065 55.4457 65.401 55.7768C65.2956 56.1079 65.2006 56.3909 65.1162 56.6259C65.0423 56.8288 64.9095 56.9786 64.7178 57.0753C64.5369 57.172 64.3396 57.1887 64.126 57.1255ZM70.0918 56.5114C69.8787 56.5869 69.676 56.577 69.4837 56.4817C69.2913 56.3864 69.1628 56.2375 69.098 56.0351C69.044 55.8433 68.9685 55.6142 68.8715 55.3479C68.7851 55.0709 68.6987 54.7939 68.6124 54.5169C68.526 54.2399 68.4558 54.0108 68.4018 53.8297C68.337 53.6059 68.3576 53.4085 68.4636 53.2374C68.5696 53.0557 68.7239 52.9431 68.9264 52.8997C69.1289 52.8456 69.3156 52.8716 69.4867 52.9776C69.6577 53.073 69.7756 53.2272 69.8404 53.4403C69.8944 53.6321 69.9646 53.8612 70.051 54.1276C70.1479 54.3832 70.2395 54.6389 70.3258 54.8945C70.4227 55.1395 70.5035 55.3472 70.5681 55.5176C70.6542 55.72 70.6496 55.9173 70.5543 56.1097C70.459 56.3021 70.3048 56.436 70.0918 56.5114ZM86.3409 58.9312C86.1062 58.9321 85.8979 58.8529 85.716 58.6935C85.5448 58.5448 85.4587 58.3371 85.4577 58.0705L85.4509 56.2305L84.7149 56.2332C84.5229 56.2339 84.3573 56.1652 84.2181 56.0271C84.0896 55.8889 84.025 55.7238 84.0243 55.5318C84.0235 55.3398 84.0869 55.1795 84.2145 55.0511C84.3526 54.9119 84.5177 54.8419 84.7097 54.8412L85.4457 54.8385L85.4393 53.1265C85.4374 52.5932 85.5158 52.1716 85.6747 51.8616C85.8335 51.5517 86.0994 51.3321 86.4722 51.2027C86.845 51.0626 87.3568 50.9914 88.0074 50.989L88.5354 50.987L88.5332 50.395L84.9973 50.4081C84.8053 50.4088 84.6397 50.3455 84.5006 50.218C84.372 50.0798 84.3075 49.92 84.3068 49.7387C84.3061 49.5467 84.3695 49.3865 84.497 49.258C84.6352 49.1188 84.8002 49.0489 84.9922 49.0481L86.8802 49.0411L86.8778 48.3851L85.7898 48.3892C85.6191 48.3898 85.4696 48.3317 85.3411 48.2148C85.2233 48.0873 85.1641 47.9382 85.1635 47.7675C85.1628 47.5862 85.2209 47.4366 85.3378 47.3188C85.4653 47.1904 85.6144 47.1258 85.7851 47.1252L86.8731 47.1212L86.8708 46.5132L85.2069 46.5193C85.0362 46.52 84.8866 46.4618 84.7582 46.345C84.6404 46.2174 84.5812 46.0683 84.5805 45.8976C84.5799 45.7163 84.638 45.5668 84.7549 45.449C84.8824 45.3312 85.0316 45.272 85.2022 45.2713L86.8662 45.2652L86.8644 44.7852C86.8635 44.5292 86.9427 44.3262 87.1022 44.1763C87.2723 44.0157 87.4746 43.9349 87.7093 43.934C87.944 43.9332 88.1416 44.0124 88.3022 44.1718C88.4734 44.3205 88.5595 44.5229 88.5604 44.7789L88.5622 45.2589L90.1462 45.253L90.1444 44.773C90.1435 44.517 90.2227 44.3141 90.3822 44.1641C90.5522 44.0035 90.7546 43.9227 90.9893 43.9219C91.2239 43.921 91.4216 44.0003 91.5822 44.1597C91.7534 44.3084 91.8395 44.5107 91.8404 44.7667L91.8422 45.2467L93.6342 45.2401C93.8155 45.2394 93.9651 45.2975 94.0828 45.4144C94.2006 45.5313 94.2598 45.6804 94.2605 45.8618C94.2611 46.0324 94.203 46.182 94.0861 46.3104C93.9692 46.4282 93.8201 46.4874 93.6388 46.4881L91.8468 46.4947L91.8491 47.1027L93.2891 47.0974C93.4704 47.0967 93.62 47.1601 93.7378 47.2877C93.8662 47.4046 93.9307 47.5537 93.9314 47.735C93.9321 47.9057 93.8686 48.0552 93.7411 48.1837C93.6242 48.3015 93.4751 48.3607 93.2937 48.3614L91.8537 48.3667L91.8562 49.0227L93.7762 49.0156C93.9682 49.0149 94.1284 49.0836 94.2569 49.2218C94.3961 49.3493 94.466 49.509 94.4667 49.701C94.4674 49.8824 94.3986 50.0426 94.2605 50.1818C94.133 50.3103 93.9732 50.3749 93.7812 50.3756L90.2132 50.3888L90.2154 50.9808L90.7434 50.9788C91.4048 50.9764 91.9223 51.0438 92.2962 51.1811C92.67 51.3077 92.9321 51.5254 93.0826 51.8342C93.2438 52.1429 93.3253 52.5639 93.3273 53.0973L93.3336 54.8093L94.0856 54.8065C94.2776 54.8058 94.4379 54.8745 94.5664 55.0127C94.7055 55.1402 94.7755 55.2999 94.7762 55.4919C94.7769 55.6839 94.7082 55.8495 94.57 55.9887C94.4425 56.1278 94.2828 56.1978 94.0908 56.1985L93.3388 56.2013L93.3406 56.6972C93.3436 57.4866 93.1483 58.0366 92.7547 58.3474C92.3719 58.6689 91.7432 58.8312 90.8685 58.8344C90.6339 58.8353 90.4363 58.7667 90.2758 58.6286C90.1259 58.4905 90.0452 58.2988 90.0336 58.0535C90.0221 57.8082 90.0907 57.616 90.2395 57.4767C90.3989 57.3268 90.596 57.2461 90.8306 57.2346C91.1505 57.212 91.3584 57.1686 91.4541 57.1042C91.5499 57.0292 91.5973 56.8744 91.5964 56.6397L91.5948 56.2077L87.1948 56.224L87.2017 58.064C87.2026 58.3307 87.1181 58.539 86.948 58.689C86.7886 58.8495 86.5862 58.9303 86.3409 58.9312ZM82.5008 58.9294C82.2662 58.9303 82.0686 58.8564 81.908 58.7076C81.7581 58.5589 81.6827 58.3618 81.6818 58.1165L81.6617 52.6765C81.5029 53.0078 81.3494 53.323 81.2012 53.6222C81.0529 53.9108 80.9098 54.1673 80.772 54.3918C80.6554 54.5949 80.4745 54.7183 80.2294 54.7618C79.9949 54.8054 79.7867 54.7688 79.605 54.6521C79.4232 54.5248 79.3105 54.3599 79.2671 54.1574C79.2343 53.9442 79.2763 53.7467 79.3929 53.5649C79.5839 53.2869 79.7853 52.9448 79.9971 52.5387C80.209 52.1326 80.4207 51.6998 80.6323 51.2403C80.8546 50.7808 81.0503 50.3374 81.2194 49.9101C81.3991 49.4828 81.5418 49.1143 81.6473 48.8045L81.6468 48.6605L80.1588 48.6661C79.9454 48.6668 79.7585 48.5929 79.598 48.4441C79.448 48.2847 79.3727 48.0983 79.3719 47.885C79.3711 47.6716 79.4451 47.49 79.5939 47.3401C79.7533 47.1902 79.9397 47.1149 80.153 47.1141L81.641 47.1085L81.6327 44.8526C81.6317 44.6072 81.7057 44.4096 81.8545 44.2597C82.0139 44.1098 82.211 44.0344 82.4456 44.0335C82.6696 44.0327 82.8619 44.1067 83.0224 44.2554C83.183 44.4041 83.2637 44.6012 83.2646 44.8465L83.273 47.1025L84.249 47.0989C84.4623 47.0981 84.6439 47.1721 84.7938 47.3209C84.9437 47.4696 85.019 47.6507 85.0198 47.864C85.0206 48.0774 84.9467 48.2643 84.7979 48.4249C84.6491 48.5747 84.4681 48.6501 84.2547 48.6509L83.2788 48.6545L83.2831 49.8385C83.4225 50.03 83.6101 50.2853 83.846 50.6044C84.0925 50.9128 84.3336 51.2159 84.5694 51.5137C84.8158 51.8115 85.0086 52.0401 85.1479 52.1996C85.2978 52.359 85.3679 52.5508 85.358 52.7748C85.3482 52.9882 85.2582 53.1698 85.0881 53.3198C84.9179 53.4591 84.7208 53.5238 84.4968 53.514C84.2727 53.4935 84.091 53.3928 83.9517 53.212C83.8766 53.1056 83.7801 52.9727 83.6622 52.8131C83.5442 52.6429 83.4209 52.462 83.2922 52.2705L83.3138 58.1104C83.3147 58.3558 83.2354 58.5534 83.076 58.7033C82.9166 58.8532 82.7248 58.9286 82.5008 58.9294ZM88.5762 49.0349L90.1602 49.029L90.1578 48.373L88.5738 48.3789L88.5762 49.0349ZM88.5691 47.1149L90.1531 47.109L90.1508 46.501L88.5668 46.5069L88.5691 47.1149ZM87.1897 54.832L88.5497 54.827L88.5471 54.139L87.1871 54.144L87.1897 54.832ZM90.2297 54.8208L91.5896 54.8157L91.5871 54.1277L90.2271 54.1328L90.2297 54.8208ZM90.2226 52.9168L91.5826 52.9117C91.5604 52.6665 91.4797 52.4961 91.3407 52.4006C91.2123 52.3051 90.9988 52.2579 90.7002 52.259L90.2202 52.2608L90.2226 52.9168ZM87.1986 52.928L88.5426 52.923L88.5402 52.267L88.0762 52.2687C87.7775 52.2698 87.559 52.3186 87.4207 52.4152C87.2931 52.5116 87.219 52.6826 87.1986 52.928ZM108.468 58.6252C108.083 58.488 107.651 58.3029 107.17 58.07C106.689 57.8371 106.213 57.5775 105.743 57.2913C105.273 57.005 104.855 56.7239 104.492 56.4479C104.299 56.2993 104.187 56.113 104.154 55.8892C104.132 55.6546 104.189 55.4464 104.327 55.2645C104.444 55.1254 104.572 55.0343 104.71 54.9911L101.382 55.0034C101.447 55.0352 101.511 55.0723 101.575 55.1147C101.639 55.1571 101.693 55.2103 101.735 55.2741C101.886 55.4762 101.934 55.6894 101.882 55.9136C101.84 56.1271 101.734 56.3035 101.564 56.4428C101.245 56.7 100.856 56.9681 100.399 57.2471C99.9411 57.5261 99.4674 57.7839 98.9776 58.0204C98.4985 58.2568 98.0565 58.4558 97.6518 58.6173C97.3429 58.7358 97.0657 58.7635 96.8201 58.7004C96.5746 58.6479 96.3926 58.4886 96.2743 58.2224C96.1667 57.9774 96.1605 57.7428 96.2557 57.5185C96.3509 57.2941 96.5369 57.1334 96.8139 57.0364C97.2187 56.8855 97.6447 56.708 98.092 56.5036C98.5498 56.2886 98.9863 56.0683 99.4015 55.8428C99.8166 55.6066 100.173 55.3812 100.471 55.1668C100.514 55.1347 100.556 55.1078 100.599 55.0863C100.652 55.0541 100.7 55.0273 100.742 55.0058L96.3744 55.022C96.1504 55.0228 95.9582 54.9489 95.7976 54.8001C95.6477 54.6407 95.5723 54.4543 95.5715 54.241C95.5707 54.017 95.6447 53.83 95.7935 53.6801C95.9529 53.5195 96.1446 53.4388 96.3686 53.438L96.9766 53.4358L96.8255 47.2123C96.8131 46.7323 96.849 46.3482 96.9332 46.0599C97.0281 45.7608 97.2033 45.5255 97.4586 45.3539C97.7139 45.1716 98.0814 45.0209 98.561 44.9018C98.7421 44.8478 98.9232 44.7991 99.1044 44.7558C99.2962 44.7018 99.4827 44.6477 99.6638 44.5937C99.8663 44.5396 100.058 44.5496 100.24 44.6236C100.422 44.6869 100.545 44.8251 100.609 45.0382C100.685 45.2726 100.675 45.4753 100.58 45.6463C100.495 45.8067 100.346 45.9139 100.133 45.968C99.9944 46.0112 99.8453 46.0597 99.6855 46.1137C99.5256 46.1569 99.3871 46.1894 99.2698 46.2112C98.9395 46.2978 98.7318 46.3999 98.6469 46.5175C98.562 46.6245 98.5255 46.8433 98.5374 47.1739L98.5392 47.6699L99.7872 47.6653C100.001 47.6645 100.177 47.7332 100.316 47.8713C100.466 48.0094 100.541 48.1852 100.542 48.3985C100.543 48.6012 100.469 48.7774 100.32 48.9273C100.182 49.0665 100.006 49.1365 99.7927 49.1373L98.5767 49.1418L98.6138 50.5177L99.7978 50.5133C100.011 50.5125 100.187 50.5812 100.327 50.7193C100.476 50.8574 100.552 51.0331 100.552 51.2465C100.553 51.4491 100.479 51.6254 100.33 51.7753C100.192 51.9145 100.017 51.9845 99.8032 51.9853L98.6512 51.9895L98.6886 53.4294L101.073 53.4206L101.062 50.6686C101.062 50.4446 101.136 50.2683 101.284 50.1398C101.433 50.0005 101.609 49.9306 101.812 49.9298C102.025 49.929 102.201 49.9977 102.34 50.1358C102.49 50.2633 102.566 50.439 102.566 50.663L102.577 53.415L103.457 53.4117L103.445 50.2278C103.444 49.9184 103.4 49.7212 103.315 49.6362C103.24 49.5405 103.031 49.4933 102.69 49.4945C102.082 49.4968 101.655 49.3864 101.409 49.1633C101.173 48.9295 101.054 48.4979 101.052 47.8686L101.041 44.9406C101.04 44.6953 101.119 44.4977 101.279 44.3477C101.438 44.1978 101.63 44.1224 101.854 44.1216C102.078 44.1208 102.27 44.1947 102.431 44.3435C102.602 44.4922 102.688 44.6892 102.689 44.9345L102.692 45.6385L104.356 45.6323C104.548 45.6316 104.713 45.7004 104.852 45.8385C104.992 45.966 105.062 46.1257 105.062 46.3177C105.063 46.5097 104.994 46.6753 104.856 46.8145C104.718 46.9537 104.553 47.0236 104.361 47.0243L102.697 47.0305L102.699 47.5105C102.7 47.7985 102.754 47.985 102.861 48.0699C102.968 48.1442 103.176 48.1807 103.485 48.1796C103.986 48.1777 104.355 48.3044 104.591 48.5595C104.837 48.8039 104.961 49.2301 104.963 49.8381L104.977 53.4061L107.297 53.3975L107.323 51.9734L106.123 51.9778C105.921 51.9786 105.744 51.9046 105.594 51.7558C105.455 51.607 105.385 51.4312 105.384 51.2286C105.384 51.0259 105.452 50.855 105.591 50.7158C105.739 50.5659 105.915 50.4906 106.118 50.4898L107.35 50.4853L107.361 49.1092L106.113 49.1139C105.91 49.1146 105.734 49.0459 105.584 48.9078C105.445 48.759 105.375 48.5833 105.374 48.3806C105.373 48.1673 105.442 47.991 105.58 47.8518C105.729 47.7126 105.904 47.6426 106.107 47.6419L107.387 47.6371L107.401 47.1411C107.411 46.7997 107.357 46.5759 107.239 46.4697C107.121 46.3528 106.892 46.295 106.55 46.2962L105.798 46.299C105.596 46.2998 105.419 46.2257 105.269 46.077C105.119 45.9282 105.044 45.7525 105.043 45.5498C105.043 45.3365 105.117 45.1549 105.265 45.005C105.414 44.8551 105.59 44.7798 105.793 44.779L106.657 44.7758C107.307 44.7734 107.809 44.8462 108.161 44.9942C108.525 45.1316 108.776 45.3706 108.916 45.7114C109.056 46.0523 109.116 46.5214 109.097 47.1188L108.992 53.3912L109.632 53.3888C109.856 53.388 110.043 53.4673 110.193 53.6268C110.354 53.7755 110.435 53.9619 110.435 54.1859C110.436 54.3992 110.357 54.5862 110.198 54.7468C110.049 54.8966 109.862 54.972 109.638 54.9728L105.238 54.9891C105.292 54.9996 105.345 55.0207 105.399 55.0525C105.463 55.0843 105.516 55.1161 105.559 55.148C105.88 55.3708 106.259 55.604 106.698 55.8477C107.136 56.0808 107.585 56.3031 108.044 56.5147C108.514 56.7157 108.931 56.8795 109.294 57.0061C109.539 57.0799 109.705 57.2233 109.791 57.4363C109.888 57.6599 109.895 57.8892 109.81 58.1242C109.704 58.4233 109.518 58.6 109.252 58.6543C108.996 58.7192 108.735 58.7095 108.468 58.6252ZM119.527 50.7761C118.631 50.7795 118.017 50.6271 117.685 50.319C117.353 50.0109 117.186 49.4781 117.183 48.7208C117.18 47.9528 117.344 47.4189 117.673 47.119C118.003 46.8084 118.616 46.6515 119.512 46.6482L119.624 46.6478L119.621 45.8478L117.333 45.8562C117.141 45.857 116.975 45.7936 116.836 45.6661C116.707 45.5279 116.643 45.3628 116.642 45.1708C116.641 44.9788 116.705 44.8186 116.832 44.6901C116.97 44.5509 117.136 44.481 117.328 44.4803L125.807 44.4488C125.999 44.4481 126.165 44.5168 126.304 44.655C126.443 44.7825 126.513 44.9422 126.514 45.1342C126.515 45.3262 126.446 45.4918 126.308 45.631C126.17 45.7595 126.005 45.8241 125.813 45.8248L123.461 45.8335L123.464 46.6335L123.64 46.6329C124.536 46.6296 125.149 46.7819 125.481 47.0901C125.813 47.3875 125.98 47.9202 125.983 48.6882C125.986 49.4455 125.823 49.9795 125.493 50.29C125.164 50.6006 124.551 50.7575 123.655 50.7608L119.527 50.7761ZM114.533 58.8587C114.298 58.8596 114.101 58.7856 113.94 58.6369C113.79 58.4881 113.715 58.2911 113.714 58.0457L113.694 52.6218C113.535 52.953 113.381 53.2683 113.233 53.5675C113.085 53.856 112.942 54.1072 112.804 54.3211C112.687 54.5242 112.512 54.6528 112.277 54.707C112.043 54.7506 111.829 54.7087 111.637 54.5814C111.444 54.4648 111.332 54.3052 111.299 54.1027C111.277 53.8894 111.319 53.6866 111.425 53.4942C111.605 53.2055 111.801 52.8581 112.013 52.452C112.236 52.0458 112.453 51.6237 112.664 51.1856C112.876 50.7368 113.072 50.3041 113.252 49.8874C113.431 49.4707 113.574 49.1022 113.679 48.7818L113.679 48.5898L112.143 48.5955C111.94 48.5963 111.758 48.5223 111.598 48.3735C111.448 48.2141 111.373 48.033 111.372 47.8304C111.371 47.617 111.445 47.4354 111.594 47.2855C111.753 47.1356 111.934 47.0603 112.137 47.0595L113.673 47.0538L113.664 44.7018C113.663 44.4565 113.737 44.2589 113.886 44.109C114.046 43.9591 114.243 43.8837 114.477 43.8828C114.701 43.882 114.894 43.9559 115.054 44.1047C115.215 44.2534 115.295 44.4505 115.296 44.6958L115.305 47.0478L116.361 47.0439C116.574 47.0431 116.756 47.1171 116.906 47.2658C117.056 47.4146 117.131 47.5957 117.132 47.809C117.133 48.0117 117.059 48.1933 116.91 48.3538C116.761 48.5037 116.58 48.5791 116.367 48.5798L115.311 48.5838L115.314 49.4158C115.41 49.5434 115.544 49.7189 115.716 49.9423C115.887 50.155 116.064 50.3836 116.246 50.6283C116.439 50.8623 116.621 51.0856 116.793 51.2983C116.964 51.5003 117.103 51.6598 117.211 51.7767C117.36 51.9362 117.42 52.1226 117.389 52.3361C117.357 52.5389 117.262 52.7152 117.103 52.8651C116.932 53.0151 116.735 53.0798 116.511 53.0593C116.298 53.0388 116.122 52.9435 115.982 52.7733C115.907 52.6562 115.811 52.5179 115.693 52.3584C115.575 52.1988 115.451 52.0286 115.323 51.8477L115.346 58.0397C115.347 58.285 115.267 58.4827 115.108 58.6326C114.949 58.7825 114.757 58.8579 114.533 58.8587ZM120.26 58.7255C120.015 58.7264 119.812 58.6578 119.652 58.5197C119.502 58.3923 119.421 58.2059 119.409 57.9606C119.398 57.7473 119.461 57.5604 119.599 57.3999C119.737 57.2394 119.918 57.1481 120.142 57.1259C120.398 57.1036 120.564 57.0603 120.638 56.9961C120.723 56.9211 120.765 56.7663 120.764 56.5316L120.757 54.6916L117.397 54.7041C117.216 54.7047 117.056 54.636 116.917 54.4978C116.788 54.3597 116.724 54.1999 116.723 54.0186C116.722 53.8266 116.786 53.6663 116.913 53.5379C117.051 53.3987 117.211 53.3287 117.392 53.3281L125.792 53.2969C125.974 53.2963 126.129 53.365 126.257 53.5032C126.396 53.6307 126.466 53.7904 126.467 53.9824C126.467 54.1638 126.399 54.324 126.261 54.4632C126.133 54.6024 125.979 54.6723 125.797 54.6729L122.437 54.6854L122.445 56.7654C122.448 57.48 122.279 57.982 121.939 58.2713C121.609 58.5712 121.05 58.7226 120.26 58.7255ZM118.19 52.7171C118.009 52.7178 117.848 52.649 117.709 52.5109C117.581 52.3727 117.516 52.2129 117.516 52.0316C117.515 51.8503 117.578 51.6954 117.706 51.5669C117.844 51.4277 118.004 51.3578 118.185 51.3571L124.905 51.3322C125.086 51.3315 125.241 51.4003 125.37 51.5385C125.509 51.666 125.579 51.8204 125.579 52.0017C125.58 52.1831 125.511 52.3433 125.373 52.4825C125.246 52.6216 125.091 52.6915 124.91 52.6922L118.19 52.7171ZM125.153 57.8753C124.982 57.7586 124.774 57.6047 124.528 57.4137C124.292 57.2332 124.051 57.0368 123.805 56.8243C123.57 56.6119 123.361 56.4206 123.179 56.2506C123.029 56.1019 122.949 55.9208 122.937 55.7075C122.936 55.4835 123.01 55.2966 123.159 55.1467C123.308 54.9862 123.483 54.8948 123.686 54.8728C123.899 54.8506 124.092 54.9139 124.263 55.0626C124.413 55.1794 124.605 55.3334 124.841 55.5245C125.076 55.7156 125.311 55.9014 125.547 56.0819C125.793 56.2623 125.996 56.4055 126.156 56.5116C126.338 56.6283 126.44 56.7986 126.462 57.0225C126.495 57.2357 126.453 57.4332 126.336 57.615C126.209 57.8181 126.033 57.9414 125.81 57.9849C125.586 58.0391 125.367 58.0026 125.153 57.8753ZM117.841 57.8704C117.639 58.0099 117.421 58.0587 117.186 58.0169C116.951 57.9857 116.758 57.8691 116.608 57.667C116.49 57.4861 116.447 57.2889 116.478 57.0755C116.52 56.8513 116.631 56.6803 116.812 56.5622C116.972 56.455 117.169 56.3156 117.403 56.1441C117.637 55.9619 117.871 55.7743 118.105 55.5815C118.339 55.3886 118.53 55.2225 118.679 55.0833C118.838 54.9334 119.03 54.8687 119.254 54.8892C119.478 54.9097 119.66 54.9997 119.799 55.1592C119.949 55.3293 120.024 55.521 120.025 55.7343C120.026 55.937 119.947 56.1133 119.787 56.2632C119.649 56.4024 119.463 56.5738 119.229 56.7773C118.995 56.9702 118.751 57.1684 118.495 57.372C118.251 57.5649 118.033 57.7311 117.841 57.8704ZM121.106 49.4583L122.002 49.455L121.996 47.951L121.1 47.9543L121.106 49.4583ZM123.474 49.4495L123.634 49.4489C123.965 49.4477 124.183 49.3935 124.289 49.2865C124.396 49.1794 124.448 48.9819 124.447 48.6939C124.446 48.3952 124.392 48.1981 124.285 48.1025C124.178 47.9962 123.959 47.9437 123.628 47.9449L123.468 47.9455L123.474 49.4495ZM119.554 49.464L119.634 49.4637L119.628 47.9598L119.548 47.96C119.218 47.9613 118.994 48.0154 118.877 48.1225C118.771 48.2189 118.718 48.4165 118.719 48.7151C118.72 49.0031 118.774 49.2003 118.881 49.3065C118.999 49.4128 119.223 49.4653 119.554 49.464ZM121.096 46.6423L121.992 46.639L121.989 45.839L121.093 45.8423L121.096 46.6423ZM136.252 56.4262C136.05 56.5656 135.815 56.6305 135.549 56.6208C135.282 56.6111 135.074 56.4999 134.923 56.2871C134.805 56.0956 134.762 55.893 134.793 55.6796C134.835 55.4554 134.957 55.2843 135.159 55.1662C135.287 55.0911 135.447 54.9892 135.638 54.8605C135.84 54.7317 136.037 54.5976 136.229 54.4583C136.431 54.3189 136.59 54.2063 136.707 54.1205C136.888 53.9812 137.085 53.9218 137.299 53.9423C136.584 53.8596 136.098 53.6534 135.84 53.3237C135.583 52.9833 135.453 52.4558 135.451 51.7411L135.44 48.9572C135.438 48.2425 135.564 47.7194 135.818 47.3877C136.073 47.0455 136.558 46.8357 137.272 46.7583C137.314 46.6089 137.356 46.454 137.398 46.2939C137.451 46.123 137.499 45.9735 137.541 45.8453L135.317 45.8536C135.114 45.8543 134.943 45.7856 134.804 45.6475C134.665 45.5093 134.595 45.3389 134.594 45.1363C134.593 44.9336 134.662 44.7627 134.8 44.6235C134.938 44.4843 135.109 44.4143 135.311 44.4136L141.583 44.3904C141.786 44.3896 141.957 44.4583 142.096 44.5965C142.235 44.7346 142.305 44.905 142.306 45.1077C142.307 45.3103 142.238 45.4813 142.1 45.6204C141.962 45.7596 141.791 45.8296 141.589 45.8303L139.349 45.8386C139.306 45.9561 139.259 46.1003 139.206 46.2712C139.154 46.4314 139.101 46.5756 139.048 46.7038C139.731 46.7119 140.254 46.79 140.617 46.938C140.98 47.0859 141.232 47.3197 141.371 47.6392C141.522 47.9586 141.598 48.3903 141.6 48.9343L141.611 51.7183C141.613 52.4116 141.498 52.9294 141.264 53.2716C141.031 53.6138 140.573 53.8288 139.891 53.9167C140.04 53.9375 140.168 53.9903 140.275 54.0753C140.404 54.1601 140.564 54.2662 140.756 54.3935C140.949 54.5208 141.141 54.6481 141.334 54.7753C141.537 54.9026 141.703 55.0086 141.831 55.0935C142.023 55.1995 142.141 55.3644 142.185 55.5882C142.228 55.812 142.192 56.0202 142.075 56.2126C141.937 56.4371 141.735 56.5552 141.468 56.5669C141.213 56.5785 140.978 56.5153 140.764 56.3775C140.635 56.2926 140.475 56.1865 140.283 56.0593C140.09 55.932 139.898 55.7993 139.705 55.6614C139.513 55.5234 139.358 55.4067 139.24 55.3111C139.069 55.1624 138.972 54.9761 138.95 54.7522C138.938 54.5282 139.002 54.336 139.14 54.1755C139.235 54.0791 139.347 54.004 139.475 53.9502C139.389 53.9612 139.293 53.9669 139.187 53.9673C139.091 53.9677 138.99 53.968 138.883 53.9684L138.211 53.9709C138.051 53.9715 137.896 53.9721 137.747 53.9726C137.608 53.9625 137.48 53.9523 137.363 53.9421C137.555 53.9733 137.715 54.0688 137.844 54.2283C137.983 54.3984 138.048 54.5902 138.038 54.8036C138.028 55.0169 137.938 55.1986 137.768 55.3486C137.651 55.445 137.497 55.5629 137.305 55.7023C137.124 55.831 136.938 55.965 136.747 56.1044C136.555 56.2331 136.39 56.3403 136.252 56.4262ZM136.915 58.3758C135.806 58.3799 134.819 58.3035 133.954 58.1467C133.09 58.0006 132.316 57.7581 131.632 57.4193C130.948 57.0805 130.322 56.6402 129.755 56.0983C129.533 56.7818 129.285 57.4067 129.01 57.973C128.904 58.1868 128.734 58.3314 128.499 58.4069C128.276 58.4931 128.052 58.4886 127.827 58.3934C127.613 58.2982 127.474 58.1441 127.409 57.931C127.345 57.7286 127.365 57.5258 127.471 57.3227C127.672 56.9273 127.857 56.484 128.026 55.9927C128.206 55.5013 128.364 55.0048 128.501 54.5029C128.638 53.9904 128.737 53.5207 128.8 53.0938C128.831 52.8483 128.937 52.672 129.118 52.5646C129.309 52.4572 129.512 52.4138 129.725 52.4344C129.96 52.4655 130.142 52.5608 130.27 52.7203C130.399 52.8799 130.447 53.0717 130.416 53.2958C130.396 53.4879 130.364 53.68 130.322 53.8722C130.291 54.0643 130.255 54.2617 130.213 54.4646C130.33 54.6028 130.454 54.7357 130.582 54.8632C130.721 54.98 130.86 55.0968 130.999 55.2137L130.987 51.9657L128.395 51.9753C128.193 51.976 128.016 51.902 127.867 51.7532C127.717 51.6045 127.641 51.4234 127.641 51.2101C127.64 50.9967 127.714 50.8205 127.863 50.6813C128.011 50.5314 128.187 50.456 128.39 50.4553L134.31 50.4334C134.523 50.4326 134.705 50.5066 134.855 50.6553C135.004 50.7934 135.08 50.9692 135.08 51.1825C135.081 51.3958 135.007 51.5774 134.859 51.7273C134.71 51.8772 134.529 51.9526 134.315 51.9533L132.635 51.9596L132.64 53.0956L134.112 53.0901C134.314 53.0894 134.485 53.1634 134.624 53.3122C134.774 53.4503 134.85 53.6207 134.85 53.8234C134.851 54.026 134.777 54.2023 134.628 54.3522C134.49 54.502 134.32 54.5773 134.117 54.5781L132.645 54.5836L132.651 56.1515C133.708 56.553 135.128 56.7504 136.909 56.7438C137.218 56.7426 137.586 56.7413 138.013 56.7397C138.45 56.738 138.893 56.7364 139.341 56.7347C139.8 56.7224 140.216 56.7102 140.589 56.6981C140.973 56.686 141.261 56.6743 141.453 56.6629C141.73 56.6512 141.96 56.7144 142.142 56.8524C142.323 56.9904 142.404 57.2087 142.384 57.5075C142.354 58.0729 141.998 58.3569 141.315 58.3594L136.915 58.3758ZM131.331 49.7884C130.638 49.791 130.088 49.7237 129.683 49.5865C129.287 49.4386 129.004 49.1997 128.832 48.8696C128.671 48.5396 128.589 48.1025 128.587 47.5585L128.583 46.5026C128.581 45.9479 128.659 45.5103 128.818 45.1897C128.988 44.8584 129.269 44.6227 129.664 44.4825C130.068 44.3317 130.617 44.255 131.311 44.2524L131.567 44.2515C132.26 44.2489 132.804 44.3216 133.2 44.4694C133.605 44.6066 133.889 44.8402 134.05 45.1703C134.222 45.4896 134.309 45.9267 134.311 46.4813L134.315 47.5373C134.317 48.0813 134.233 48.519 134.064 48.8503C133.905 49.1815 133.623 49.4226 133.219 49.5734C132.824 49.7135 132.281 49.7849 131.587 49.7874L131.331 49.7884ZM137.127 50.7269L139.927 50.7165L139.924 49.9485L137.124 49.9589L137.127 50.7269ZM138.206 52.6269L138.878 52.6244C139.305 52.6229 139.582 52.5792 139.709 52.4934C139.848 52.3968 139.922 52.1832 139.931 51.8525L137.131 51.8629C137.143 52.1935 137.218 52.4066 137.357 52.5021C137.496 52.5869 137.779 52.6285 138.206 52.6269ZM137.12 48.8069L139.92 48.7965C139.908 48.4873 139.832 48.2849 139.693 48.1894C139.565 48.0939 139.288 48.0469 138.861 48.0485L138.189 48.051C137.762 48.0525 137.48 48.1016 137.341 48.1981C137.214 48.2946 137.14 48.4975 137.12 48.8069ZM131.326 48.4604L131.582 48.4594C132.02 48.4578 132.302 48.4034 132.43 48.2963C132.568 48.1891 132.637 47.9595 132.635 47.6075L130.267 47.6163C130.279 47.9683 130.349 48.1973 130.478 48.3035C130.606 48.4097 130.889 48.462 131.326 48.4604ZM130.263 46.4323L132.631 46.4235C132.63 46.0715 132.559 45.8478 132.42 45.7523C132.292 45.6461 132.009 45.5938 131.572 45.5955L131.316 45.5964C130.878 45.598 130.596 45.6524 130.468 45.7596C130.341 45.856 130.272 46.0803 130.263 46.4323Z" fill="black" fill-opacity="0.85"/>
</g>
<defs>
<radialGradient id="paint0_radial_1720_1945" cx="0" cy="0" r="1" gradientUnits="userSpaceOnUse" gradientTransform="translate(0.558656 46.8353) rotate(65.4889) scale(3.32531 8.21233)">
<stop offset="0.33" stop-opacity="0"/>
<stop offset="0.655" stop-opacity="0.6"/>
<stop offset="1"/>
</radialGradient>
<radialGradient id="paint1_radial_1720_1945" cx="0" cy="0" r="1" gradientUnits="userSpaceOnUse" gradientTransform="translate(355.296 45.8572) rotate(114.511) scale(3.32531 8.21233)">
<stop offset="0.33" stop-opacity="0"/>
<stop offset="0.655" stop-opacity="0.6"/>
<stop offset="1"/>
</radialGradient>
<clipPath id="clip0_1720_1945">
<rect width="200" height="90" fill="white"/>
</clipPath>
</defs>
</svg>
