<svg width="650" height="650" viewBox="0 0 650 650" fill="none" xmlns="http://www.w3.org/2000/svg">
<path fill-rule="evenodd" clip-rule="evenodd" d="M294.592 126.627C370.071 132.323 449.335 103.622 512.186 145.803C585.897 195.271 656.092 275.053 647.391 363.397C638.918 449.433 548.759 500.018 473.171 541.976C418.814 572.149 356.688 562.263 294.592 559.231C237.326 556.434 179.052 559.012 132.643 525.346C78.0397 485.737 39.0967 429.283 24.6252 363.397C5.76697 277.54 -24.6123 168.243 41.4758 110.281C107.555 52.3272 206.948 120.013 294.592 126.627Z" fill="white" fill-opacity="0.3"/>
<path d="M281.016 293.994C325.283 263.74 292.66 235.424 270.362 234.567C248.064 233.71 209.072 263.479 178.38 245.594C125.801 214.954 126.96 139.278 180.415 112.716C217.778 94.1506 221.27 124.663 257.294 115.672C279.592 116.53 278.9 86.5373 272.889 69.592C255.552 20.716 180.375 30.2249 131.763 53.1408C44.2887 94.3774 42.0552 240.205 128.165 288.116C176.017 314.742 246.597 317.517 281.016 293.994Z" fill="#F27B12"/>
<path fill-rule="evenodd" clip-rule="evenodd" d="M532.423 63.3851C486.953 30.6893 437.464 30.6893 391.994 63.3851C324.559 111.875 324.559 236.989 391.994 285.479C437.464 318.174 486.953 318.174 532.423 285.479C599.857 236.989 599.857 111.875 532.423 63.3851ZM489.844 111.241C470.299 101.487 454.147 101.487 434.603 111.241C392.778 132.116 392.778 216.628 434.603 237.502C454.147 247.256 470.299 247.256 489.844 237.502C531.668 216.628 531.668 132.116 489.844 111.241Z" fill="#F27B12"/>
<path fill-rule="evenodd" clip-rule="evenodd" d="M143.635 372.878C113.95 377.73 94.3555 403.99 94.3555 433.49V574.671C94.3555 604.171 113.95 630.431 143.635 635.282C182.065 641.563 234.125 644.638 266.134 624.273C348.622 571.79 348.622 436.371 266.134 383.888C234.125 363.522 182.065 366.598 143.635 372.878ZM217.753 427.4C188.825 419.349 167.87 450.569 167.87 480.046V528.112C167.87 557.589 188.825 588.809 217.753 580.758C220.485 579.998 223.074 578.985 225.437 577.666C269.023 553.334 269.023 454.824 225.437 430.492C223.074 429.173 220.485 428.16 217.753 427.4Z" fill="#F27B12"/>
<path d="M579.487 634.934L419.156 639.979C395.301 640.729 375.523 622.574 375.523 599.925L375.523 395.504C375.523 375.185 392.874 358.721 414.287 358.721L550.023 358.721C566.587 358.721 580.3 370.951 581.326 386.639C582.433 403.569 568.419 417.938 550.546 418.197L465.394 419.434C450.921 419.645 439.42 431.023 439.802 444.754C440.182 458.389 452.143 469.156 466.512 468.797L522.127 467.409C540.938 466.939 556.595 481.034 557.092 498.884C557.597 517.051 542.222 532.032 523.069 532.032L466.292 532.032C452.151 532.032 440.798 543.093 441.171 556.507C441.533 569.513 452.808 579.854 466.518 579.755L578.244 578.947C594.333 578.83 607.564 590.965 607.988 606.227C608.416 621.606 595.69 634.424 579.487 634.934Z" fill="#F27B12"/>
</svg>
