<svg width="200" height="90" viewBox="0 0 200 90" fill="none" xmlns="http://www.w3.org/2000/svg">
<g clip-path="url(#clip0_2308_6692)">
<rect width="200" height="90" fill="#FEB79D"/>
<path fill-rule="evenodd" clip-rule="evenodd" d="M-6.18027 85.5257C-5.5206 81.3514 -9.94765 77.2571 -7.65473 73.2393C-4.94813 68.4966 -1.65241 61.9915 7.77154 61.0783C17.9972 60.0873 23.5998 68.8258 33.9785 69.2048C45.8176 69.6371 56.5881 60.196 66.8872 63.2371C76.2425 65.9996 70.121 74.0119 68.9752 79.5387C68.1676 83.4341 61.5364 86.4306 61.2669 90.3457C60.8502 96.3973 75.7689 103.853 67.0229 107.895C58.3557 111.9 45.7383 103.802 34.2527 102.83C27.3162 102.243 20.5655 103.925 13.6182 103.373C4.65786 102.66 -7.2514 103.227 -11.7526 99.1698C-16.3208 95.0519 -6.92748 90.2539 -6.18027 85.5257Z" fill="#FE585B"/>
<path fill-rule="evenodd" clip-rule="evenodd" d="M28.4743 10.5302C32.6486 10.8717 36.7429 8.58004 40.7607 9.76696C45.5034 11.168 52.0085 12.874 52.9217 17.7523C53.9127 23.0456 45.1742 25.9458 44.7952 31.3183C44.3629 37.4467 53.804 43.0221 50.7629 48.3534C48.0004 53.1961 39.9881 50.0274 34.4613 49.4342C30.5659 49.0162 27.5694 45.5836 23.6543 45.444C17.6027 45.2284 10.1469 52.9509 6.10508 48.4236C2.09968 43.9371 10.1975 37.4057 11.1701 31.4602C11.7575 27.8695 10.0747 24.3751 10.6274 20.7788C11.3402 16.1405 10.7727 9.97575 14.8302 7.64571C18.9481 5.281 23.7461 10.1434 28.4743 10.5302Z" fill="#FC7443"/>
<path fill-rule="evenodd" clip-rule="evenodd" d="M173.474 4.53021C177.649 4.87169 181.743 2.58004 185.761 3.76696C190.503 5.16803 197.008 6.87405 197.922 11.7523C198.913 17.0456 190.174 19.9458 189.795 25.3183C189.363 31.4467 198.804 37.0221 195.763 42.3534C193 47.1961 184.988 44.0274 179.461 43.4342C175.566 43.0162 172.569 39.5836 168.654 39.444C162.603 39.2284 155.147 46.9509 151.105 42.4236C147.1 37.9371 155.198 31.4057 156.17 25.4602C156.757 21.8695 155.075 18.3751 155.627 14.7788C156.34 10.1405 155.773 3.97575 159.83 1.64571C163.948 -0.719004 168.746 4.14342 173.474 4.53021Z" fill="#FF8787"/>
<path fill-rule="evenodd" clip-rule="evenodd" d="M117.063 7.20494C131.49 7.9797 144.155 11.9054 154.996 17.5775C166.733 23.7188 176.896 30.8598 179.688 39.9711C183.097 51.0949 184.354 63.7453 171.749 72.2549C158.691 81.0707 136.857 81.4742 117.063 82.2497C95.2362 83.1048 71.8992 84.7511 54.6033 76.8446C35.6156 68.1646 20.8565 53.9771 24.5773 39.9711C28.0889 26.7526 52.1053 19.9805 71.5388 13.0955C85.3864 8.18958 100.98 6.34119 117.063 7.20494Z" fill="#FFAB7A"/>
<ellipse cx="177.989" cy="70.7269" rx="16.7876" ry="14.0511" fill="#F55A57"/>
<ellipse cx="173.713" cy="65.6395" rx="1.21537" ry="2.15126" fill="black"/>
<ellipse cx="182.288" cy="65.6395" rx="1.21537" ry="2.15126" fill="black"/>
<path d="M173.043 72.6426C173.079 74.5703 175.312 76.0917 178.031 76.0408C180.749 75.99 182.924 74.386 182.888 72.4584C182.852 70.5307 180.67 71.7806 177.952 71.8314C175.233 71.8823 173.007 70.7149 173.043 72.6426Z" fill="black"/>
<path d="M170.798 50.9035C173.679 48.6452 180.102 51.1915 180.102 55.0219C180.103 59.542 168.088 61.6232 165.803 61.9782C165.554 62.0169 165.305 62.044 165.056 62.039C163.427 62.0062 157.617 61.2375 170.798 50.9035Z" fill="#6E5232"/>
<path d="M170.798 50.9035C173.679 48.6452 180.102 51.1915 180.102 55.0219C180.103 59.542 168.088 61.6232 165.803 61.9782C165.554 62.0169 165.305 62.044 165.056 62.039C163.427 62.0062 157.617 61.2375 170.798 50.9035Z" fill="url(#paint0_radial_2308_6692)" fill-opacity="0.15"/>
<path d="M185.204 50.7629C182.323 48.5045 175.9 51.0509 175.9 54.8813C175.899 59.4014 187.914 61.4825 190.199 61.8375C190.448 61.8763 190.697 61.9034 190.946 61.8984C192.575 61.8656 198.385 61.0968 185.204 50.7629Z" fill="#6E5232"/>
<path d="M185.204 50.7629C182.323 48.5045 175.9 51.0509 175.9 54.8813C175.899 59.4014 187.914 61.4825 190.199 61.8375C190.448 61.8763 190.697 61.9034 190.946 61.8984C192.575 61.8656 198.385 61.0968 185.204 50.7629Z" fill="url(#paint1_radial_2308_6692)" fill-opacity="0.15"/>
<path d="M79.7175 32.3078L81.8475 32.2999C81.5936 32.1542 81.2496 31.9855 80.8156 31.7937C80.4696 31.9817 80.1036 32.153 79.7175 32.3078ZM81.4105 30.4315L79.6305 30.4381C79.971 30.5569 80.3482 30.7021 80.7622 30.8739C81.0349 30.7129 81.251 30.5654 81.4105 30.4315ZM79.7809 33.2376L79.784 34.0576C80.5031 33.8216 81.0554 33.5462 81.4409 33.2314L79.7809 33.2376ZM79.7842 34.1176L79.785 34.3476C79.7911 35.9876 79.5886 37.115 79.1776 37.7298C79.0783 37.9169 78.8915 37.8876 78.6172 37.6419C78.343 37.4029 78.2489 37.19 78.3349 37.003C78.6065 36.5553 78.7399 35.6648 78.735 34.3315L78.7293 32.7915C78.7281 32.4715 78.8641 32.311 79.1375 32.31L79.007 32.1904C78.706 31.9249 78.7387 31.7348 79.1049 31.6201C79.1449 31.6199 79.3813 31.529 79.8139 31.3474C79.3999 31.169 79.2297 31.0996 79.3031 31.1393C78.9693 31.0139 78.9587 30.8306 79.2711 30.5895L79.4705 30.4387L78.9305 30.4407C78.6572 30.4417 78.52 30.2889 78.5188 29.9822C78.5177 29.6756 78.6538 29.5217 78.9271 29.5207L80.2771 29.5157L80.1762 29.2661C80.0753 29.0131 80.2013 28.8493 80.5544 28.7747C80.9141 28.7 81.1478 28.7858 81.2553 29.0321L81.4571 29.5113L82.4971 29.5075C82.7704 29.5065 82.9077 29.6593 82.9088 29.966C82.91 30.2726 82.7739 30.4265 82.5005 30.4275L82.0805 30.429C82.3609 30.5347 82.3583 30.7147 82.0725 30.9691C81.8533 31.1899 81.7204 31.287 81.6736 31.2605C81.9875 31.3994 82.1344 31.4688 82.1144 31.4689C82.495 31.6475 82.5325 31.8674 82.2268 32.1285L82.0275 32.2992L82.5675 32.2972C82.8408 32.2962 82.978 32.4524 82.9792 32.7657C82.9803 33.0724 82.8442 33.2262 82.5709 33.2272L81.7909 33.2301C82.2115 33.4019 82.2856 33.6083 82.0132 33.8493C81.8075 34.0967 81.4482 34.3081 80.9355 34.4833C80.5561 34.6314 80.2626 34.6025 80.0552 34.3966L79.7842 34.1176ZM81.5561 34.631C81.7487 34.437 81.9919 34.3994 82.2857 34.5183C82.5795 34.6372 82.6267 34.8004 82.4275 35.0078C82.089 35.409 81.71 35.6871 81.2906 35.842C80.9977 35.9698 80.7245 36.0108 80.471 35.965C80.2242 35.9126 80.0902 35.7464 80.0692 35.4665L80.2488 35.3759C80.8947 35.1535 81.3304 34.9052 81.5561 34.631ZM81.8413 36.04C82.0006 35.8327 82.2404 35.7851 82.5608 35.8973C82.8879 36.0027 82.9685 36.1725 82.8027 36.4064C82.3785 37.0813 81.8002 37.5335 81.0677 37.7628C80.7681 37.884 80.4882 37.9083 80.228 37.836C79.9744 37.7636 79.827 37.5741 79.7859 37.2676L79.9256 37.2071C80.2187 37.1327 80.5914 36.9579 81.0437 36.6829C81.5027 36.4012 81.7685 36.1869 81.8413 36.04ZM84.296 34.6009L84.2973 34.9609C84.298 35.1342 84.385 35.2205 84.5583 35.2199L86.0483 35.2144C86.2216 35.2137 86.308 35.1267 86.3073 34.9534L86.306 34.5934L84.296 34.6009ZM84.2906 33.1509L84.2929 33.7709L86.3029 33.7634L86.3006 33.1434L84.2906 33.1509ZM84.5453 31.7099C84.372 31.7106 84.2856 31.7975 84.2863 31.9709L84.2876 32.3209L86.2975 32.3134L86.2962 31.9634C86.2956 31.7901 86.2086 31.7037 86.0353 31.7044L84.5453 31.7099ZM87.3798 35.6094C87.3809 35.9294 87.2215 36.09 86.9015 36.0912L83.7616 36.1028C83.4416 36.104 83.281 35.9446 83.2798 35.6246L83.2638 31.3147C83.2626 30.9947 83.422 30.8341 83.742 30.8329L84.592 30.8297L84.6894 30.1094L83.4194 30.1141C83.146 30.1151 83.0088 29.9489 83.0075 29.6156C83.0063 29.2823 83.1423 29.1151 83.4157 29.1141L87.2456 29.0999C87.519 29.0989 87.6562 29.265 87.6575 29.5984C87.6587 29.9317 87.5227 30.0989 87.2493 30.0999L85.8794 30.105L85.672 30.8257L86.882 30.8212C87.202 30.8201 87.3626 30.9795 87.3638 31.2995L87.3798 35.6094ZM85.7648 36.9754C85.5708 36.7895 85.6168 36.6026 85.9027 36.4149C86.1954 36.2272 86.442 36.2196 86.6427 36.3922L87.5355 37.1689C87.7429 37.3414 87.6902 37.5316 87.3777 37.7395C87.0718 37.9539 86.8218 37.9682 86.6278 37.7822L85.7648 36.9754ZM83.8325 36.3626C84.0119 36.1886 84.2653 36.1976 84.5926 36.3898C84.9267 36.5819 85.0007 36.7649 84.8147 36.9389C84.7616 37.0191 84.5456 37.1866 84.1665 37.4414C83.7942 37.7027 83.5481 37.8536 83.4282 37.8941C83.1953 38.015 82.9451 37.9526 82.6775 37.7069C82.4166 37.4612 82.4026 37.2846 82.6355 37.177C82.7354 37.1433 82.9549 37.0092 83.2941 36.7746C83.6399 36.54 83.8193 36.4026 83.8325 36.3626ZM93.4716 30.6968C93.5845 30.5697 93.5542 30.5065 93.3809 30.5072L91.4009 30.5145L90.5644 31.4576L92.8044 31.4493L93.4716 30.6968ZM95.2429 33.7303C95.4162 33.7296 95.5025 33.6426 95.5019 33.4693L95.4994 32.7893C95.4987 32.6226 95.4118 32.5396 95.2384 32.5403L93.6785 32.5461L93.6829 33.7361L95.2429 33.7303ZM90.6585 32.5573L90.6629 33.7472L92.5229 33.7404L92.5185 32.5504L90.6585 32.5573ZM91.9341 36.7626L95.314 36.75C95.7874 36.7483 96.0937 36.6605 96.2331 36.4866C96.3791 36.3127 96.4583 36.0958 96.4707 35.8357C96.5226 35.4689 96.7356 35.3548 97.1094 35.4934C97.4832 35.632 97.6408 35.8814 97.5822 36.2416C97.5373 36.7151 97.3653 37.0958 97.0664 37.3835C96.7675 37.678 96.2047 37.8267 95.378 37.8298L91.9581 37.8425C91.0181 37.846 90.3776 37.725 90.0367 37.4796C89.6958 37.2409 89.5241 36.7682 89.5215 36.0615L89.5079 32.4115L89.2487 32.6125C89.0293 32.7733 88.8122 32.6674 88.5975 32.2949C88.3827 31.9157 88.3851 31.6557 88.6046 31.5149C88.9971 31.2867 89.4656 30.8983 90.0103 30.3496C90.5616 29.7943 90.9332 29.3295 91.1251 28.9555C91.2576 28.7283 91.5041 28.6841 91.8646 28.8228C92.2251 28.9548 92.3391 29.1377 92.2067 29.3715L92.157 29.4517L94.2767 29.3838C94.5501 29.3828 94.8138 29.4785 95.0678 29.6709C95.3218 29.8566 95.3626 30.0531 95.19 30.2604L94.2244 31.444L96.1844 31.4368C96.5044 31.4356 96.6649 31.595 96.6661 31.915L96.6753 34.385C96.6765 34.6983 96.517 34.8556 96.197 34.8567L90.6671 34.8772L90.6714 36.0572C90.6726 36.3639 90.7466 36.5603 90.8936 36.6464C91.0406 36.7259 91.3874 36.7646 91.9341 36.7626ZM103.313 33.6704L103.308 32.3104C103.307 32.137 103.22 32.0507 103.047 32.0513L102.277 32.0542C101.957 32.0554 101.796 31.896 101.795 31.576L101.786 29.146C101.785 28.8727 101.951 28.7354 102.284 28.7341C102.624 28.7329 102.795 28.8689 102.796 29.1422L102.797 29.4122L103.957 29.4079C104.23 29.4069 104.367 29.5698 104.369 29.8964C104.37 30.2231 104.234 30.3869 103.961 30.3879L102.801 30.3922L102.802 30.8622C102.803 31.0356 102.89 31.1219 103.063 31.1213L103.813 31.1285C104.133 31.1273 104.294 31.2867 104.295 31.6067L104.303 33.6667C104.303 33.8734 104.277 34.0268 104.224 34.127C104.178 34.2272 104.078 34.3142 103.925 34.3881C103.772 34.462 103.589 34.496 103.376 34.4901C103.002 34.4982 102.772 34.3824 102.684 34.1427C102.597 33.8963 102.69 33.7727 102.963 33.7717L103.143 33.771C103.256 33.7772 103.313 33.7437 103.313 33.6704ZM101.849 32.6858C101.915 32.4255 102.094 32.3215 102.388 32.3738C102.681 32.4194 102.802 32.6322 102.75 33.0124C102.725 33.3925 102.636 33.6829 102.483 33.8834C102.384 34.0771 102.208 34.0978 101.954 33.9454C101.7 33.7863 101.606 33.5767 101.671 33.3164L101.849 32.6858ZM105.616 34.5818L105.663 33.7716L105.063 33.7739C104.79 33.7749 104.652 33.6121 104.651 33.2854C104.65 32.9587 104.786 32.7949 105.059 32.7939L105.699 32.7915L105.696 31.9315L105.126 31.9336C104.853 31.9346 104.716 31.7718 104.714 31.4451C104.713 31.1185 104.849 30.9546 105.123 30.9536L105.753 30.9513L105.75 30.3513C105.75 30.178 105.663 30.0916 105.489 30.0923L105.019 30.094C104.746 30.095 104.609 29.9255 104.608 29.5855C104.606 29.2455 104.742 29.075 105.016 29.074L106.366 29.069C106.686 29.0678 106.843 29.2472 106.838 29.6073C106.851 31.2939 106.817 32.9507 106.736 34.5777L107.196 34.576C107.469 34.575 107.607 34.7578 107.608 35.1244C107.609 35.4911 107.473 35.675 107.2 35.676L104.79 35.6849C105.859 36.1809 106.613 36.5681 107.054 36.8465C107.248 36.9591 107.212 37.1659 106.947 37.4669C106.688 37.7745 106.452 37.8588 106.238 37.7195C105.67 37.3283 105.078 36.9905 104.464 36.7061C104.036 36.4877 103.942 36.2214 104.181 35.9072L104.35 35.6865L101.38 35.6975L101.761 36.0061C102.069 36.2583 102.046 36.4984 101.694 36.7264C101.175 37.0816 100.463 37.4409 99.558 37.8043C99.2851 37.9253 99.0348 37.8362 98.807 37.5371C98.5859 37.2446 98.6185 37.0411 98.9047 36.9267C99.7103 36.6237 100.465 36.2143 101.17 35.6983L98.8502 35.7069C98.5769 35.7079 98.4395 35.5251 98.4382 35.1584C98.4368 34.7918 98.5728 34.6079 98.8461 34.6069L99.3361 34.6051L99.1587 29.8957C99.1509 29.5958 99.2835 29.3919 99.5564 29.2843L100.675 28.8401C100.928 28.7458 101.138 28.8617 101.306 29.1878C101.481 29.5071 101.438 29.7039 101.178 29.7782L100.469 29.9909C100.309 30.0381 100.23 30.1451 100.23 30.3118L100.263 30.9616L100.993 30.9589C101.266 30.9579 101.403 31.1208 101.404 31.4474C101.406 31.7674 101.27 31.9279 100.996 31.9289L100.296 31.9315L100.329 32.7914L101.029 32.7888C101.303 32.7878 101.44 32.9506 101.441 33.2773C101.442 33.5973 101.306 33.7578 101.033 33.7588L100.363 33.7613L100.396 34.6012L105.616 34.5818ZM112.695 31.5756C112.709 31.8622 112.557 32.0361 112.237 32.0973C111.098 32.2948 110.048 32.4754 109.089 32.6389C108.849 32.6732 108.698 32.5271 108.637 32.2006C108.583 31.8741 108.635 31.704 108.795 31.69C109.062 31.6557 109.778 31.553 110.944 31.3821L110.94 30.2821L109.2 30.2885C108.927 30.2895 108.79 30.1367 108.788 29.83C108.787 29.5234 108.923 29.3695 109.197 29.3685L110.937 29.3621L110.936 29.0221C110.934 28.7487 111.134 28.6113 111.534 28.6099C111.934 28.6084 112.134 28.7443 112.136 29.0176L112.144 31.2076L112.264 31.1872C112.537 31.1528 112.681 31.2823 112.695 31.5756ZM115.789 32.6941C116.109 32.6929 116.27 32.8523 116.271 33.1723L116.284 36.7323C116.285 37.0256 116.243 37.2491 116.157 37.4028C116.077 37.5564 115.918 37.6803 115.678 37.7746C115.438 37.8754 115.052 37.9235 114.519 37.9189C114.125 37.927 113.865 37.7579 113.737 37.4117C113.615 37.0655 113.668 36.8987 113.895 36.9112C113.988 36.9175 114.298 36.9197 114.825 36.9177C114.918 36.9107 114.981 36.8938 115.015 36.867C115.048 36.8402 115.064 36.7935 115.064 36.7268L115.062 36.0568C113.909 36.2944 112.753 36.5187 111.594 36.7297C111.301 36.7774 111.097 36.6315 110.982 36.292C110.868 35.9524 110.904 35.7722 111.09 35.7515C111.524 35.6966 112.39 35.5534 113.689 35.3219C112.881 34.9849 112.133 34.7577 111.446 34.6402C111.166 34.5813 111.099 34.4182 111.245 34.151C111.397 33.8837 111.596 33.773 111.843 33.8187C112.09 33.8512 112.497 33.9463 113.064 34.1042C113.638 34.2554 113.962 34.3576 114.036 34.4106C114.296 34.5097 114.353 34.7028 114.208 34.99L114.059 35.2605L115.058 35.0768L115.054 33.9368C115.053 33.7635 114.966 33.6772 114.793 33.6778L111.183 33.6912C111.009 33.6918 110.923 33.7788 110.924 33.9522L110.925 34.2521C110.931 35.9988 110.562 37.1835 109.818 37.8063C109.645 37.9803 109.409 37.9311 109.108 37.6589C108.813 37.3933 108.766 37.1602 108.965 36.9594C109.244 36.7451 109.453 36.3476 109.591 35.7671C109.709 35.2933 109.767 34.7831 109.765 34.2364L109.761 33.1965C109.76 32.8765 109.919 32.7159 110.239 32.7147L115.789 32.6941ZM114.974 31.3971L116.084 31.393C116.231 31.3925 116.327 31.3454 116.374 31.2519L116.413 31.1218C116.459 30.7949 116.655 30.6976 117.002 30.8296C117.356 30.9616 117.5 31.1978 117.435 31.538C117.436 31.7247 117.343 31.915 117.157 32.109C116.971 32.2964 116.655 32.3909 116.208 32.3926L114.808 32.3977C114.228 32.3999 113.834 32.3047 113.627 32.1121C113.426 31.9195 113.325 31.5632 113.323 31.0432L113.315 29.0133C113.314 28.7399 113.514 28.6025 113.914 28.601C114.321 28.5995 114.524 28.7354 114.525 29.0088L114.527 29.3488L116.427 29.3417C116.7 29.3407 116.837 29.4935 116.838 29.8002C116.84 30.1069 116.703 30.2607 116.43 30.2617L114.53 30.2688L114.533 31.0388C114.534 31.1921 114.561 31.292 114.614 31.3385C114.668 31.3783 114.788 31.3978 114.974 31.3971ZM120.722 30.7158L120.722 30.8858C120.723 31.0591 120.81 31.1455 120.983 31.1448L124.923 31.1302C125.097 31.1296 125.183 31.0426 125.182 30.8693L125.182 30.6993L120.722 30.7158ZM120.978 29.6149C120.804 29.6155 120.718 29.7025 120.719 29.8758L120.719 30.0258L125.179 30.0093L125.179 29.8593C125.178 29.686 125.091 29.5996 124.918 29.6003L120.978 29.6149ZM126.968 32.2727C127.241 32.2717 127.378 32.4278 127.379 32.7411C127.381 33.0545 127.244 33.2117 126.971 33.2127L118.971 33.2423C118.698 33.2433 118.561 33.0872 118.559 32.7738C118.558 32.4605 118.694 32.3033 118.968 32.3023L122.348 32.2898C122.234 32.1102 122.273 31.9901 122.466 31.9294L122.636 31.8787L120.066 31.8883C119.746 31.8894 119.586 31.73 119.584 31.41L119.577 29.37C119.576 29.05 119.735 28.8895 120.055 28.8883L125.885 28.8667C126.205 28.8655 126.366 29.0249 126.367 29.3449L126.374 31.3849C126.376 31.7049 126.216 31.8655 125.896 31.8666L123.366 31.876L123.618 32.2851L126.968 32.2727ZM120.392 36.1071C120.605 35.9529 120.891 35.9486 121.252 36.0939C121.619 36.2392 121.693 36.3989 121.474 36.5731C121.042 36.9547 120.573 37.2364 120.067 37.4183C119.774 37.546 119.481 37.5705 119.187 37.4915C118.9 37.4126 118.709 37.22 118.615 36.9137L118.804 36.823C119.557 36.6068 120.086 36.3682 120.392 36.1071ZM121.236 34.4039C121.062 34.4046 120.976 34.4916 120.976 34.6649C120.977 34.8649 121.064 34.9646 121.238 34.9639L124.778 34.9508C124.951 34.9502 125.037 34.8632 125.037 34.6898C125.036 34.4898 124.949 34.3902 124.776 34.3908L121.236 34.4039ZM126.239 35.2754C126.24 35.5954 126.081 35.756 125.761 35.7572L123.621 35.7651L123.625 36.8851C123.626 37.1451 123.59 37.3386 123.517 37.4655C123.444 37.5924 123.294 37.693 123.068 37.7672C122.842 37.848 122.515 37.8859 122.088 37.8808C121.702 37.8889 121.451 37.7398 121.337 37.4336C121.229 37.134 121.365 36.9901 121.745 37.0021C121.965 37.0079 122.135 37.0073 122.255 37.0002C122.375 36.9864 122.435 36.9328 122.435 36.8395L122.431 35.7695L120.321 35.7773C120.001 35.7785 119.84 35.6191 119.839 35.2991L119.834 34.0791C119.833 33.7591 119.993 33.5985 120.313 33.5973L125.752 33.5772C126.072 33.576 126.233 33.7354 126.234 34.0554L126.239 35.2754ZM124.564 36.7416C124.224 36.6029 124.18 36.4264 124.432 36.2121C124.691 35.9978 124.985 35.95 125.312 36.0688C126.046 36.2995 126.654 36.5672 127.135 36.8721C127.342 36.9847 127.306 37.1615 127.027 37.4025C126.754 37.6502 126.525 37.7144 126.337 37.595C125.923 37.3232 125.332 37.0388 124.564 36.7416Z" fill="#FE585B"/>
<path d="M86.8379 48.7425C86.8609 49.2011 86.6166 49.4793 86.105 49.5772C84.2821 49.8933 82.6032 50.1822 81.0681 50.4439C80.6843 50.4986 80.4435 50.2649 80.3455 49.7425C80.2583 49.2202 80.3426 48.9479 80.5985 48.9256C81.025 48.8707 82.171 48.7064 84.0367 48.4329L84.0302 46.6729L81.2462 46.6832C80.8089 46.6848 80.5893 46.4403 80.5875 45.9496C80.5857 45.459 80.8034 45.2128 81.2407 45.2112L84.0247 45.2009L84.0227 44.6569C84.0211 44.2195 84.3403 43.9997 84.9803 43.9973C85.6203 43.995 85.9411 44.2124 85.9427 44.6498L85.9557 48.1537L86.1476 48.121C86.5847 48.0661 86.8148 48.2732 86.8379 48.7425ZM91.7885 50.5321C92.3005 50.5302 92.5575 50.7853 92.5594 51.2973L92.5805 56.9932C92.5822 57.4626 92.5142 57.8202 92.3765 58.066C92.2494 58.3118 91.9941 58.5101 91.6107 58.6609C91.2273 58.8223 90.6089 58.8992 89.7555 58.8917C89.1262 58.9047 88.7092 58.6343 88.5045 58.0804C88.3104 57.5264 88.3948 57.2594 88.7575 57.2794C88.9069 57.2895 89.4029 57.293 90.2456 57.2899C90.3949 57.2787 90.4961 57.2516 90.5493 57.2088C90.6025 57.1659 90.6288 57.0911 90.6284 56.9845L90.6245 55.9125C88.7805 56.2927 86.9312 56.6515 85.0764 56.9891C84.6074 57.0655 84.2812 56.832 84.0978 56.2887C83.9145 55.7454 83.9721 55.4571 84.2706 55.424C84.9636 55.3361 86.3495 55.107 88.4281 54.7366C87.1354 54.1974 85.9394 53.8338 84.84 53.6459C84.3917 53.5516 84.284 53.2906 84.5171 52.8631C84.7609 52.4355 85.0802 52.2583 85.4752 52.3315C85.87 52.3834 86.5213 52.5357 87.4289 52.7883C88.3471 53.0302 88.865 53.1937 88.9827 53.2786C89.3993 53.437 89.4911 53.746 89.2581 54.2055L89.0197 54.6384L90.6187 54.3445L90.6119 52.5205C90.6109 52.2432 90.4717 52.105 90.1944 52.1061L84.4184 52.1275C84.1411 52.1285 84.0029 52.2677 84.0039 52.545L84.0057 53.025C84.0161 55.8196 83.4258 57.7152 82.2348 58.7116C81.9585 58.99 81.5795 58.9114 81.0979 58.4758C80.627 58.0509 80.5509 57.6778 80.8698 57.3567C81.3165 57.0137 81.6501 56.3778 81.8707 55.4489C82.0599 54.6909 82.1529 53.8745 82.1496 52.9999L82.1435 51.3359C82.1416 50.8239 82.3966 50.5669 82.9086 50.565L91.7885 50.5321ZM90.4848 48.457L92.2608 48.4504C92.4955 48.4495 92.6499 48.3743 92.724 48.2247L92.7872 48.0164C92.8599 47.4935 93.174 47.3376 93.7295 47.5489C94.2956 47.7602 94.5264 48.138 94.4217 48.6824C94.4228 48.981 94.2746 49.2856 93.9771 49.596C93.6795 49.8958 93.1734 50.047 92.4588 50.0496L90.2188 50.058C89.2908 50.0614 88.6609 49.9091 88.3291 49.601C88.0079 49.2928 87.8458 48.7227 87.8427 47.8907L87.8307 44.6428C87.8291 44.2054 88.1482 43.9856 88.7882 43.9832C89.4389 43.9808 89.765 44.1983 89.7667 44.6356L89.7687 45.1796L92.8087 45.1683C93.246 45.1667 93.4656 45.4112 93.4674 45.9019C93.4692 46.3925 93.2515 46.6387 92.8141 46.6403L89.7741 46.6516L89.7787 47.8836C89.7796 48.1289 89.8229 48.2887 89.9085 48.3631C89.9941 48.4268 90.1862 48.4581 90.4848 48.457ZM99.6809 47.3669L99.6819 47.6389C99.6829 47.9162 99.8221 48.0543 100.099 48.0533L106.403 48.0299C106.681 48.0289 106.819 47.8897 106.818 47.6124L106.817 47.3404L99.6809 47.3669ZM100.09 45.6053C99.813 45.6064 99.6749 45.7455 99.6759 46.0229L99.6768 46.2629L106.813 46.2364L106.812 45.9964C106.811 45.7191 106.672 45.5809 106.394 45.582L100.09 45.6053ZM109.674 49.8578C110.111 49.8562 110.331 50.1061 110.333 50.6074C110.335 51.1087 110.117 51.3602 109.68 51.3618L96.8798 51.4093C96.4425 51.4109 96.2229 51.161 96.221 50.6597C96.2192 50.1584 96.4369 49.9069 96.8742 49.9053L102.282 49.8852C102.1 49.5979 102.163 49.4057 102.472 49.3085L102.744 49.2275L98.6318 49.2428C98.1198 49.2447 97.8629 48.9896 97.861 48.4776L97.8489 45.2136C97.847 44.7016 98.102 44.4447 98.614 44.4428L107.942 44.4082C108.454 44.4063 108.711 44.6614 108.713 45.1734L108.725 48.4373C108.727 48.9493 108.472 49.2063 107.96 49.2082L103.912 49.2232L104.314 49.8777L109.674 49.8578ZM99.1528 55.9929C99.4933 55.7463 99.9519 55.7392 100.529 55.9718C101.116 56.2043 101.235 56.4598 100.884 56.7385C100.193 57.349 99.4422 57.7998 98.6326 58.0908C98.164 58.2952 97.6948 58.3343 97.225 58.208C96.7659 58.0817 96.4607 57.7735 96.3096 57.2834L96.6131 57.1383C97.8171 56.7925 98.6637 56.4107 99.1528 55.9929ZM100.503 53.2679C100.225 53.2689 100.087 53.4081 100.088 53.6854C100.089 54.0054 100.229 54.1649 100.506 54.1638L106.17 54.1429C106.447 54.1418 106.586 54.0026 106.584 53.7253C106.583 53.4053 106.444 53.2458 106.167 53.2469L100.503 53.2679ZM108.508 54.6622C108.51 55.1742 108.255 55.4311 107.743 55.433L104.319 55.4457L104.325 57.2377C104.327 57.6537 104.27 57.9633 104.153 58.1664C104.036 58.3695 103.797 58.5303 103.435 58.649C103.073 58.7784 102.55 58.839 101.867 58.8308C101.249 58.8438 100.848 58.6053 100.665 58.1153C100.492 57.6359 100.71 57.4058 101.318 57.4249C101.67 57.4342 101.942 57.4332 102.134 57.4218C102.326 57.3998 102.422 57.3141 102.421 57.1648L102.415 55.4528L99.0389 55.4653C98.5269 55.4672 98.2699 55.2121 98.268 54.7001L98.2608 52.7482C98.2589 52.2362 98.5139 51.9792 99.0259 51.9773L107.73 51.9451C108.242 51.9432 108.499 52.1982 108.501 52.7102L108.508 54.6622ZM105.829 57.0081C105.284 56.7862 105.213 56.5038 105.617 56.1609C106.032 55.818 106.501 55.7416 107.025 55.9317C108.199 56.3007 109.172 56.7291 109.941 57.2169C110.273 57.397 110.215 57.6799 109.769 58.0655C109.333 58.4618 108.965 58.5645 108.666 58.3736C108.003 57.9388 107.057 57.4836 105.829 57.0081ZM112.776 53.7024C112.339 53.704 112.119 53.4275 112.117 52.8728C112.115 52.3075 112.333 52.024 112.77 52.0224L115.826 52.011C116.264 52.0094 116.483 52.2913 116.485 52.8566C116.487 53.4113 116.27 53.6894 115.832 53.691L112.776 53.7024ZM118.616 57.4247C118.179 57.4264 117.959 57.2032 117.958 56.7552C117.956 56.2965 118.152 55.8905 118.545 55.537C119.863 54.3481 120.942 53.1974 121.78 52.085C122.63 50.9725 123.053 49.9843 123.049 49.1203C123.047 48.5123 122.891 48.0435 122.58 47.714C122.27 47.3738 121.832 47.2048 121.266 47.2069C120.562 47.2095 120.03 47.4354 119.669 47.8848C119.286 48.2489 118.881 48.2184 118.452 47.7933C118.024 47.3682 117.98 46.9897 118.32 46.6578C118.554 46.3689 118.958 46.0794 119.533 45.7893C120.108 45.4991 120.785 45.3526 121.563 45.3497C122.683 45.3456 123.586 45.6782 124.271 46.3477C124.956 47.0065 125.301 47.8852 125.305 48.9839C125.312 50.7865 124.146 52.8389 121.808 55.1409C121.531 55.4193 121.532 55.5526 121.809 55.5409L123.329 55.4233L125.233 55.4162C125.67 55.4146 125.89 55.7444 125.892 56.4058C125.895 57.0671 125.677 57.3986 125.24 57.4002L118.616 57.4247Z" fill="black" fill-opacity="0.85"/>
</g>
<defs>
<radialGradient id="paint0_radial_2308_6692" cx="0" cy="0" r="1" gradientUnits="userSpaceOnUse" gradientTransform="translate(0.560609 46.8353) rotate(65.4889) scale(3.32531 8.21233)">
<stop offset="0.33" stop-opacity="0"/>
<stop offset="0.655" stop-opacity="0.6"/>
<stop offset="1"/>
</radialGradient>
<radialGradient id="paint1_radial_2308_6692" cx="0" cy="0" r="1" gradientUnits="userSpaceOnUse" gradientTransform="translate(355.3 45.8572) rotate(114.511) scale(3.32531 8.21233)">
<stop offset="0.33" stop-opacity="0"/>
<stop offset="0.655" stop-opacity="0.6"/>
<stop offset="1"/>
</radialGradient>
<clipPath id="clip0_2308_6692">
<rect width="200" height="90" fill="white"/>
</clipPath>
</defs>
</svg>
