<svg width="200" height="90" viewBox="0 0 200 90" fill="none" xmlns="http://www.w3.org/2000/svg">
<g clip-path="url(#clip0_2306_6053)">
<rect width="200" height="90" fill="#BDE3FF"/>
<path fill-rule="evenodd" clip-rule="evenodd" d="M-6.18027 85.5257C-5.5206 81.3514 -9.94765 77.2571 -7.65473 73.2393C-4.94813 68.4966 -1.65241 61.9915 7.77154 61.0783C17.9972 60.0873 23.5998 68.8258 33.9785 69.2048C45.8176 69.6371 56.5881 60.196 66.8872 63.2371C76.2425 65.9996 70.121 74.0119 68.9752 79.5387C68.1676 83.4341 61.5364 86.4306 61.2669 90.3457C60.8502 96.3973 75.7689 103.853 67.0229 107.895C58.3557 111.9 45.7383 103.802 34.2527 102.83C27.3162 102.243 20.5655 103.925 13.6182 103.373C4.65786 102.66 -7.2514 103.227 -11.7526 99.1698C-16.3208 95.0519 -6.92748 90.2539 -6.18027 85.5257Z" fill="#005EA5"/>
<path fill-rule="evenodd" clip-rule="evenodd" d="M28.4743 10.5302C32.6486 10.8717 36.7429 8.58004 40.7607 9.76696C45.5034 11.168 52.0085 12.874 52.9217 17.7523C53.9127 23.0456 45.1742 25.9458 44.7952 31.3183C44.3629 37.4467 53.804 43.0221 50.7629 48.3534C48.0004 53.1961 39.9881 50.0274 34.4613 49.4342C30.5659 49.0162 27.5694 45.5836 23.6543 45.444C17.6027 45.2284 10.1469 52.9509 6.10508 48.4236C2.09968 43.9371 10.1975 37.4057 11.1701 31.4602C11.7575 27.8695 10.0747 24.3751 10.6274 20.7788C11.3402 16.1405 10.7727 9.97575 14.8302 7.64571C18.9481 5.281 23.7461 10.1434 28.4743 10.5302Z" fill="#2382C9"/>
<path fill-rule="evenodd" clip-rule="evenodd" d="M173.474 4.53021C177.649 4.87169 181.743 2.58004 185.761 3.76696C190.503 5.16803 197.008 6.87405 197.922 11.7523C198.913 17.0456 190.174 19.9458 189.795 25.3183C189.363 31.4467 198.804 37.0221 195.763 42.3534C193 47.1961 184.988 44.0274 179.461 43.4342C175.566 43.0162 172.569 39.5836 168.654 39.444C162.603 39.2284 155.147 46.9509 151.105 42.4236C147.1 37.9371 155.198 31.4057 156.17 25.4602C156.757 21.8695 155.075 18.3751 155.627 14.7788C156.34 10.1405 155.773 3.97575 159.83 1.64571C163.948 -0.719004 168.746 4.14342 173.474 4.53021Z" fill="#69BAF5"/>
<path fill-rule="evenodd" clip-rule="evenodd" d="M117.063 7.20494C131.49 7.9797 144.155 11.9054 154.996 17.5775C166.733 23.7188 176.896 30.8598 179.688 39.9711C183.097 51.0949 184.354 63.7453 171.749 72.2549C158.691 81.0707 136.857 81.4742 117.063 82.2497C95.2362 83.1048 71.8992 84.7511 54.6033 76.8446C35.6156 68.1646 20.8565 53.9771 24.5773 39.9711C28.0889 26.7526 52.1053 19.9805 71.5388 13.0955C85.3864 8.18958 100.98 6.34119 117.063 7.20494Z" fill="#C9F4FF"/>
<path d="M177.967 51.2804L196.726 84.9582L159.338 85.0303L177.967 51.2804Z" fill="#228CDA"/>
<path d="M173.373 78.4648H182.74" stroke="black" stroke-width="2" stroke-linecap="round"/>
<ellipse cx="171.472" cy="68.8528" rx="4.64254" ry="4.79533" transform="rotate(-0.110477 171.472 68.8528)" stroke="#FA8F21" stroke-width="2"/>
<ellipse cx="184.669" cy="68.8118" rx="4.64254" ry="4.79533" transform="rotate(-0.110477 184.669 68.8118)" stroke="#FA8F21" stroke-width="2"/>
<path d="M175.55 68.4723C175.55 68.4723 176.816 68.054 177.654 68.0337C178.594 68.011 180.025 68.4637 180.025 68.4637" stroke="#FA8F21" stroke-width="2"/>
<ellipse cx="171.471" cy="68.8518" rx="1.89842" ry="1.9609" transform="rotate(-0.110477 171.471 68.8518)" fill="black"/>
<ellipse cx="184.67" cy="68.8264" rx="1.89842" ry="1.9609" transform="rotate(-0.110477 184.67 68.8264)" fill="black"/>
<path d="M87.1946 32.6122L83.7646 32.6249C84.2019 33.6833 84.8053 34.6044 85.5749 35.3882C86.2787 34.6056 86.8186 33.6803 87.1946 32.6122ZM89.6503 31.4431C89.9236 31.4421 90.061 31.6349 90.0624 32.0216C90.0639 32.4082 89.9279 32.6021 89.6546 32.6031L88.5346 32.6072C88.0398 34.0224 87.3576 35.2183 86.4879 36.1948C87.5242 36.9977 88.6395 37.5369 89.8339 37.8125C90.1275 37.878 90.1416 38.0946 89.8763 38.4623C89.611 38.8366 89.3349 38.981 89.0479 38.8954C87.7934 38.5734 86.7014 38.0274 85.7718 37.2575C85.6314 37.138 85.4914 37.1352 85.3518 37.2491C84.4147 38.0259 83.2801 38.6001 81.9482 38.9717C81.6618 39.0661 81.398 38.9271 81.1566 38.5546C80.9152 38.1888 80.9411 37.9654 81.2341 37.8843C82.5263 37.5595 83.6742 37.0053 84.678 36.2216C83.8078 35.2714 83.0933 34.0741 82.5346 32.6295L81.3747 32.6338C81.1013 32.6348 80.9639 32.442 80.9625 32.0553C80.9611 31.6686 81.097 31.4748 81.3704 31.4738L85.1803 31.4597L84.7665 30.4312C84.6656 30.1782 84.8249 29.991 85.2444 29.8694C85.6706 29.7412 85.9375 29.8002 86.0451 30.0464L86.3677 30.7352C86.5021 31.0348 86.4128 31.2351 86.0999 31.3362L85.7103 31.4577L89.6503 31.4431ZM96.1379 36.1791L97.9179 36.1725C97.2078 35.2418 96.6104 34.1473 96.1257 32.8891L96.1379 36.1791ZM93.0379 36.1906L94.8779 36.1837L94.7957 32.894C94.3536 34.129 93.7677 35.2279 93.0379 36.1906ZM99.8935 32.2751C99.8949 32.6751 99.759 32.8756 99.4857 32.8766L97.3757 32.8845C97.7051 33.6299 98.1144 34.3217 98.6034 34.9599C99.0924 35.5981 99.5174 36.0365 99.8783 36.2752C100.092 36.4211 100.043 36.6679 99.731 37.0158C99.419 37.3636 99.1659 37.4445 98.9719 37.2586L98.1991 36.5114L98.2006 36.9014C98.2018 37.2214 98.0424 37.382 97.7224 37.3832L96.1424 37.3891L96.1471 38.6691C96.1481 38.9424 95.9386 39.0798 95.5187 39.0814C95.0987 39.0829 94.8882 38.9471 94.8871 38.6737L94.8824 37.3937L93.2624 37.3997C92.9424 37.4009 92.7818 37.2415 92.7806 36.9215L92.7791 36.5115C92.4539 36.9061 92.1849 37.1837 91.9722 37.3445C91.7595 37.5253 91.5059 37.4563 91.2114 37.1373C90.9235 36.8117 90.8793 36.5719 91.0787 36.4178C91.4445 36.1765 91.8695 35.7249 92.3537 35.0631C92.8446 34.3946 93.2486 33.6731 93.5657 32.8986L91.5257 32.9061C91.2524 32.9072 91.115 32.7077 91.1135 32.3077C91.112 31.901 91.2479 31.6972 91.5213 31.6962L94.8612 31.6838L94.8556 30.1638C94.8546 29.8905 95.0641 29.753 95.4841 29.7515C95.9041 29.7499 96.1146 29.8858 96.1156 30.1591L96.1212 31.6791L99.4812 31.6667C99.7545 31.6656 99.8919 31.8685 99.8935 32.2751ZM108.347 33.3338C108.347 33.1605 108.26 33.0741 108.086 33.0748L106.446 33.0808C106.824 34.2528 107.461 35.0838 108.356 35.5738L108.347 33.3338ZM102.967 33.0937C102.793 33.0944 102.707 33.1814 102.707 33.3547L102.716 35.7047C103.668 35.1745 104.311 34.3021 104.646 33.0875L102.967 33.0937ZM109.082 31.9111C109.402 31.9099 109.563 32.0693 109.564 32.3893L109.583 37.6392C109.585 37.9726 109.546 38.2261 109.466 38.3997C109.387 38.58 109.221 38.7273 108.968 38.8415C108.715 38.9625 108.292 39.0207 107.698 39.0162C107.305 39.0244 107.041 38.8287 106.906 38.4292C106.778 38.0296 106.827 37.8328 107.054 37.8386C107.194 37.8448 107.551 37.8468 108.124 37.8447C108.284 37.8441 108.364 37.7704 108.363 37.6238L108.357 35.8338C108.078 36.1415 107.938 36.3087 107.939 36.3353C107.773 36.5826 107.556 36.6201 107.289 36.4477C106.567 36.0437 105.981 35.2292 105.53 34.0042C105.081 35.2859 104.458 36.1316 103.659 36.5412C103.393 36.7022 103.166 36.6597 102.979 36.4137L102.718 36.0747L102.727 38.6447C102.728 38.918 102.525 39.0554 102.119 39.0569C101.719 39.0584 101.518 38.9225 101.517 38.6492L101.494 32.4192C101.493 32.0992 101.652 31.9386 101.972 31.9374L105.032 31.9261L104.98 31.4163C104.966 31.243 104.873 31.1567 104.699 31.1573L103.679 31.1611C103.406 31.1621 103.269 30.9893 103.267 30.6426C103.266 30.2959 103.402 30.1221 103.675 30.1211L105.515 30.1143C105.829 30.1131 105.999 30.2691 106.027 30.5824L106.162 31.9219L109.082 31.9111ZM112.551 31.6182C112.378 31.6188 112.291 31.7058 112.292 31.8792L112.294 32.3092C112.295 32.5825 112.095 32.7199 111.695 32.7214C111.302 32.7228 111.105 32.5869 111.104 32.3136L111.099 30.9936C111.098 30.6736 111.257 30.513 111.577 30.5118L114.887 30.4995L114.756 30.21C114.642 29.9638 114.801 29.7932 115.234 29.6982C115.667 29.6033 115.941 29.679 116.055 29.9252L116.317 30.4942L119.407 30.4828C119.727 30.4816 119.888 30.641 119.889 30.961L119.894 32.281C119.895 32.5543 119.685 32.6918 119.265 32.6933C118.845 32.6949 118.635 32.559 118.634 32.2857L118.632 31.8557C118.631 31.6823 118.544 31.596 118.371 31.5966L112.551 31.6182ZM116.455 32.7437C116.235 32.5979 116.261 32.4078 116.533 32.1734C116.812 31.9391 117.062 31.8915 117.283 32.0307C117.53 32.1631 117.901 32.405 118.395 32.7566C118.897 33.108 119.194 33.3403 119.288 33.4532C119.462 33.6059 119.399 33.8128 119.1 34.0739C118.801 34.3351 118.568 34.3893 118.401 34.2365C118.314 34.1235 118.026 33.8813 117.538 33.5097C117.057 33.1382 116.696 32.8829 116.455 32.7437ZM113.373 32.1152C113.539 31.9145 113.815 31.8802 114.203 32.0121C114.59 32.1373 114.704 32.3069 114.544 32.5208C114.379 32.7614 114.057 33.0893 113.578 33.5044C113.106 33.9195 112.737 34.1975 112.471 34.3385C112.252 34.466 112.001 34.3736 111.72 34.0613C111.446 33.749 111.428 33.5357 111.668 33.4215C111.881 33.334 112.197 33.1295 112.616 32.808C113.034 32.4931 113.287 32.2621 113.373 32.1152ZM113.936 35.7631L117.276 35.7507C116.615 35.3065 116.093 34.8851 115.712 34.4865C115.598 34.3669 115.485 34.3707 115.372 34.4978C115.04 34.8857 114.561 35.3074 113.936 35.7631ZM113.744 37.6838C113.744 37.8572 113.831 37.9435 114.005 37.9429L117.005 37.9317C117.178 37.9311 117.264 37.8441 117.264 37.6708L117.26 36.8308L113.74 36.8438L113.744 37.6838ZM115.057 33.0989C115.202 32.8717 115.452 32.8341 115.806 32.9861C116.16 33.1382 116.284 33.2977 116.178 33.4648C117.155 34.4812 118.388 35.2599 119.877 35.8011C120.177 35.9066 120.201 36.1299 119.949 36.4708C119.697 36.8118 119.448 36.9293 119.2 36.8236C119.1 36.7773 118.873 36.6615 118.519 36.4761L118.527 38.5161C118.528 38.8361 118.368 38.9967 118.048 38.9979L113.029 39.0165C112.709 39.0177 112.548 38.8583 112.547 38.5383L112.54 36.6283C112.18 36.8096 111.941 36.9238 111.821 36.9709C111.568 37.0786 111.311 36.9695 111.05 36.6438C110.795 36.3114 110.801 36.0981 111.067 36.0037C111.8 35.7544 112.568 35.3415 113.373 34.7652C114.191 34.1888 114.752 33.6334 115.057 33.0989Z" fill="#2382C9"/>
<path d="M71.5381 49.8084L66.0501 49.8288C66.7498 51.5222 67.7152 52.9959 68.9466 54.2501C70.0726 52.9979 70.9364 51.5173 71.5381 49.8084ZM75.4672 47.9378C75.9045 47.9362 76.1243 48.2447 76.1266 48.8634C76.1289 49.4821 75.9114 49.7922 75.4741 49.7938L73.6821 49.8005C72.8905 52.0648 71.7989 53.9781 70.4073 55.5407C72.0655 56.8252 73.85 57.6879 75.761 58.1288C76.2307 58.2338 76.2533 58.5803 75.8288 59.1686C75.4044 59.7675 74.9626 59.9985 74.5034 59.8615C72.4961 59.3463 70.7489 58.4727 69.2616 57.2409C69.0369 57.0497 68.8129 57.0452 68.5896 57.2274C67.0902 58.4703 65.2749 59.389 63.1438 59.9836C62.6857 60.1346 62.2635 59.9122 61.8773 59.3163C61.4911 58.7311 61.5325 58.3736 62.0013 58.2438C64.0687 57.7242 65.9055 56.8373 67.5115 55.5834C66.1192 54.0632 64.9761 52.1474 64.0822 49.8361L62.2262 49.8429C61.7888 49.8446 61.569 49.536 61.5667 48.9174C61.5644 48.2987 61.782 47.9886 62.2193 47.9869L68.3153 47.9644L67.6531 46.3188C67.4916 45.9141 67.7465 45.6144 68.4178 45.42C69.0997 45.2148 69.5268 45.3092 69.6989 45.7032L70.215 46.8053C70.4301 47.2845 70.2873 47.605 69.7865 47.7669L69.1632 47.9612L75.4672 47.9378ZM80.2215 48.5442C79.9441 48.5453 79.806 48.6844 79.807 48.9618L79.81 49.7618C79.8116 50.1991 79.4978 50.4189 78.8684 50.4213C78.2498 50.4235 77.9396 50.206 77.938 49.7687L77.9296 47.5127C77.9278 47.0114 78.1829 46.7598 78.6948 46.7579L83.9108 46.7385L83.621 46.2436C83.3956 45.8711 83.5972 45.5877 84.2258 45.3934C84.8651 45.199 85.3188 45.288 85.5868 45.6603C85.7474 45.8197 85.9407 46.1763 86.1668 46.7302L90.9028 46.7126C91.4148 46.7107 91.6717 46.9604 91.6735 47.4618L91.6819 49.7178C91.6835 50.1551 91.3537 50.375 90.6923 50.3774C90.0417 50.3798 89.7155 50.1624 89.7139 49.725L89.711 48.9251C89.7099 48.6477 89.5708 48.5096 89.2934 48.5106L80.2215 48.5442ZM91.1528 53.7357C91.5901 53.7341 91.8099 54.0373 91.8122 54.6453C91.8144 55.2426 91.5968 55.5421 91.1595 55.5437L85.8475 55.5634L85.8565 57.9794C85.8584 58.5021 85.7852 58.9023 85.6369 59.1802C85.4886 59.4581 85.2227 59.6671 84.8393 59.8072C84.2961 60.0225 83.5604 60.1266 82.6324 60.1194C82.0351 60.1323 81.5966 59.8139 81.3169 59.1642C81.0371 58.5253 81.0786 58.2104 81.4414 58.2198C81.7401 58.2293 82.3961 58.2322 83.4094 58.2285C83.5694 58.2279 83.676 58.2062 83.7292 58.1633C83.793 58.1204 83.8247 58.0456 83.8243 57.9389L83.8156 55.571L78.5356 55.5905C78.0983 55.5921 77.8785 55.2943 77.8763 54.697C77.874 54.089 78.0916 53.7842 78.5289 53.7825L83.8088 53.763C83.8068 53.1976 83.9919 52.7863 84.3643 52.5289L85.7528 51.5957L81.2569 51.6124C80.8195 51.614 80.5998 51.3215 80.5976 50.7348C80.5954 50.1375 80.8129 49.838 81.2503 49.8364L87.4419 49.7175C87.8792 49.7159 88.3065 49.8796 88.7237 50.2087C89.1516 50.5378 89.2115 50.8629 88.9033 51.1841C88.1808 51.9547 87.1597 52.7212 85.8398 53.4834L85.8408 53.7554L91.1528 53.7357ZM98.7667 53.1635C99.0027 53.5253 98.9563 53.9362 98.6273 54.396C98.309 54.8452 98.0584 54.8728 97.8756 54.4788L97.2629 53.2011L97.286 59.4411C97.2876 59.8784 97.0004 60.0981 96.4244 60.1002C95.8484 60.1024 95.5596 59.8848 95.558 59.4475L95.5383 54.1195C95.0952 55.4545 94.7092 56.3519 94.3802 56.8118C94.1894 57.1218 93.9543 57 93.6749 56.4464C93.3954 55.8821 93.3565 55.4449 93.558 55.1348C93.7916 54.8353 94.1038 54.1888 94.4948 53.1954C94.8858 52.1912 95.1808 51.2035 95.3798 50.2321L94.2598 50.2362C93.8225 50.2378 93.6028 49.9453 93.6006 49.3586C93.5984 48.772 93.816 48.4778 94.2533 48.4762L95.5173 48.4715L95.5075 45.8315C95.5059 45.3942 95.7931 45.1745 96.3691 45.1724C96.9451 45.1702 97.2339 45.3878 97.2355 45.8251L97.2453 48.4651L98.1893 48.4616C98.6266 48.46 98.8464 48.7525 98.8486 49.3392C98.8507 49.9259 98.6332 50.22 98.1958 50.2216L97.2518 50.2251L97.2544 50.9291L98.7667 53.1635ZM100.807 55.3C101.244 55.2984 101.634 55.3662 101.975 55.5036C102.328 55.641 102.42 55.9713 102.251 56.4946C101.872 57.8827 101.049 58.8831 99.7822 59.4958C99.3991 59.7319 99.0414 59.6479 98.7093 59.2438C98.3878 58.8396 98.4186 58.5355 98.8019 58.3314C99.3557 58.1054 99.903 57.538 100.444 56.6293L99.3556 56.6334C98.9183 56.635 98.6988 56.4225 98.6972 55.9958C98.6956 55.5691 98.9135 55.355 99.3509 55.3534L100.807 55.3ZM106.339 54.3195C106.658 54.0303 107.047 54.0608 107.507 54.4111C107.978 54.7507 108.011 55.0706 107.607 55.3708C107.107 55.7353 106.527 56.1268 105.867 56.5452C106.638 57.3317 107.323 57.8252 107.921 58.0256C108.327 58.1841 108.344 58.4987 107.972 58.9694C107.601 59.4402 107.228 59.5695 106.854 59.3576C106.095 59.0191 105.298 58.27 104.461 57.1104L104.326 59.303C104.23 59.5273 104.023 59.7147 103.704 59.8653C103.384 60.0265 102.974 60.0973 102.472 60.0778C101.875 60.1014 101.496 59.8521 101.334 59.33C101.172 58.8186 101.309 58.5621 101.747 58.5605L102.403 58.5581C102.595 58.5574 102.69 58.4823 102.69 58.333L102.678 55.213C102.677 54.9357 102.538 54.7976 102.261 54.7986L100.709 54.8043C100.271 54.806 100.052 54.5934 100.05 54.1668C100.049 53.7294 100.267 53.51 100.704 53.5083L103.888 53.4965L102.526 53.0056C101.928 52.7945 101.783 52.5177 102.091 52.1752L99.4831 52.1849C99.0458 52.1865 98.8263 51.958 98.8246 51.4993C98.8228 51.03 99.0406 50.7945 99.4779 50.7929L102.63 50.7812L102.628 50.1572L100.5 50.1651C100.062 50.1667 99.8428 49.9542 99.8413 49.5275C99.8396 49.0902 100.057 48.8707 100.495 48.8691L102.623 48.8612L102.621 48.2692L99.9166 48.2792C99.4793 48.2808 99.2598 48.0577 99.2581 47.6097C99.2565 47.1617 99.4743 46.9369 99.9117 46.9352L100.952 46.9314L100.533 46.2289C100.318 45.8564 100.445 45.5839 100.914 45.4115C101.383 45.2391 101.73 45.3391 101.955 45.7116L102.374 46.3821C102.524 46.6269 102.461 46.8085 102.184 46.9268L104.76 46.9173C104.546 46.8434 104.577 46.5286 104.852 45.9729C105.127 45.4172 105.473 45.1973 105.89 45.3131C106.594 45.5131 106.756 45.8699 106.374 46.3833L105.992 46.9127L107.304 46.9078C107.741 46.9062 107.96 47.1294 107.962 47.5774C107.964 48.0254 107.746 48.2502 107.309 48.2518L104.445 48.2624L104.447 48.8544L106.927 48.8452C107.364 48.8436 107.584 49.0615 107.585 49.4988C107.587 49.9255 107.369 50.1396 106.932 50.1412L104.452 50.1504L104.454 50.7744L107.59 50.7628C108.027 50.7612 108.247 50.995 108.248 51.4644C108.25 51.923 108.032 52.1532 107.595 52.1548L104.923 52.1647C104.486 52.1663 104.502 52.2676 104.972 52.4685C105.442 52.6694 105.758 52.9723 105.92 53.377L105.76 53.6016C105.431 53.9762 105.074 54.0681 104.689 53.8776L104.449 53.7505L104.452 54.5505L105.032 55.5403L106.339 54.3195ZM117.662 57.1415C117.717 57.7066 117.628 58.0163 117.393 58.0705C116.604 58.2441 114.547 58.6837 111.222 59.3894C110.572 59.5411 110.155 59.2974 109.971 58.658C109.798 58.0187 109.925 57.6662 110.351 57.6006L112.734 57.2078L112.72 53.3518L110.96 53.3583C110.522 53.3599 110.302 53.0568 110.3 52.4488C110.298 51.8301 110.515 51.52 110.953 51.5183L116.505 51.4978C116.942 51.4961 117.162 51.8047 117.164 52.4233C117.166 53.0313 116.949 53.3361 116.511 53.3377L114.608 53.3448L114.621 56.8648L116.955 56.4081C117.381 56.3319 117.617 56.5763 117.662 57.1415ZM123.323 47.7925C123.76 47.7908 123.98 48.0994 123.982 48.718C123.985 49.3367 123.767 49.6468 123.33 49.6484L119.65 49.6621C119.829 52.0614 120.152 54.0549 120.616 55.6426C121.081 57.2302 121.596 58.0229 122.161 58.0208C122.492 58.0196 122.665 57.443 122.682 56.2909C122.733 55.5227 123.036 55.3242 123.592 55.6955C124.148 56.0668 124.39 56.5512 124.318 57.1488C124.257 58.0237 124.046 58.7179 123.685 59.2312C123.335 59.7552 122.798 60.0185 122.072 60.0212C121.358 60.0238 120.738 59.7541 120.213 59.2121C119.699 58.6806 119.27 57.9249 118.925 56.9448C118.267 55.0273 117.837 52.6022 117.634 49.6696L110.338 49.6966C109.901 49.6982 109.681 49.3897 109.679 48.771C109.676 48.1524 109.894 47.8422 110.331 47.8406L117.531 47.8139L117.476 45.8301C117.474 45.3928 117.815 45.1729 118.497 45.1703C119.18 45.1678 119.522 45.3852 119.524 45.8225L119.547 47.8065L122.075 47.7971L120.678 46.5543C120.357 46.2674 120.404 45.9526 120.819 45.6097C121.244 45.2562 121.623 45.2174 121.954 45.4935L122.95 46.3218C123.356 46.6723 123.357 47.0243 122.953 47.3778L122.475 47.7956L123.323 47.7925ZM126.277 54.8696C125.84 54.8712 125.62 54.5947 125.618 54.04C125.616 53.4747 125.834 53.1912 126.271 53.1896L129.327 53.1782C129.764 53.1766 129.984 53.4585 129.986 54.0238C129.988 54.5785 129.771 54.8566 129.333 54.8582L126.277 54.8696ZM132.741 58.5896C132.304 58.5913 132.084 58.2774 132.081 57.6481C132.079 57.0081 132.297 56.6873 132.734 56.6856L134.622 56.6786L134.596 49.6067C134.595 49.3294 134.461 49.1912 134.194 49.1922L133.106 49.1962C132.669 49.1978 132.449 48.9586 132.447 48.4786C132.446 47.988 132.679 47.6884 133.148 47.58C133.788 47.471 134.469 47.1858 135.193 46.7245L136.169 46.7208C136.681 46.7189 136.938 46.974 136.94 47.486L136.974 56.6699L138.542 56.6641C138.979 56.6625 139.199 56.9817 139.201 57.6217C139.204 58.251 138.986 58.5665 138.549 58.5681L132.741 58.5896Z" fill="black" fill-opacity="0.85"/>
</g>
<defs>
<clipPath id="clip0_2306_6053">
<rect width="200" height="90" fill="white"/>
</clipPath>
</defs>
</svg>
