<svg width="200" height="90" viewBox="0 0 200 90" fill="none" xmlns="http://www.w3.org/2000/svg">
<g clip-path="url(#clip0_1720_2088)">
<rect width="200" height="90" fill="#FEB79D"/>
<path fill-rule="evenodd" clip-rule="evenodd" d="M-6.18027 85.5257C-5.5206 81.3514 -9.94765 77.2571 -7.65473 73.2393C-4.94813 68.4966 -1.65241 61.9915 7.77154 61.0783C17.9972 60.0873 23.5998 68.8258 33.9785 69.2048C45.8176 69.6371 56.5881 60.196 66.8872 63.2371C76.2425 65.9996 70.121 74.0119 68.9752 79.5387C68.1676 83.4341 61.5364 86.4306 61.2669 90.3457C60.8502 96.3973 75.7689 103.853 67.0229 107.895C58.3557 111.9 45.7383 103.802 34.2527 102.83C27.3162 102.243 20.5655 103.925 13.6182 103.373C4.65786 102.66 -7.2514 103.227 -11.7526 99.1698C-16.3208 95.0519 -6.92748 90.2539 -6.18027 85.5257Z" fill="#FE585B"/>
<path fill-rule="evenodd" clip-rule="evenodd" d="M28.4743 10.5302C32.6486 10.8717 36.7429 8.58004 40.7607 9.76696C45.5034 11.168 52.0085 12.874 52.9217 17.7523C53.9127 23.0456 45.1742 25.9458 44.7952 31.3183C44.3629 37.4467 53.804 43.0221 50.7629 48.3534C48.0004 53.1961 39.9881 50.0274 34.4613 49.4342C30.5659 49.0162 27.5694 45.5836 23.6543 45.444C17.6027 45.2284 10.1469 52.9509 6.10508 48.4236C2.09968 43.9371 10.1975 37.4057 11.1701 31.4602C11.7575 27.8695 10.0747 24.3751 10.6274 20.7788C11.3402 16.1405 10.7727 9.97575 14.8302 7.64571C18.9481 5.281 23.7461 10.1434 28.4743 10.5302Z" fill="#FC7443"/>
<path fill-rule="evenodd" clip-rule="evenodd" d="M173.474 4.53021C177.649 4.87169 181.743 2.58004 185.761 3.76696C190.503 5.16803 197.008 6.87405 197.922 11.7523C198.913 17.0456 190.174 19.9458 189.795 25.3183C189.363 31.4467 198.804 37.0221 195.763 42.3534C193 47.1961 184.988 44.0274 179.461 43.4342C175.566 43.0162 172.569 39.5836 168.654 39.444C162.603 39.2284 155.147 46.9509 151.105 42.4236C147.1 37.9371 155.198 31.4057 156.17 25.4602C156.757 21.8695 155.075 18.3751 155.627 14.7788C156.34 10.1405 155.773 3.97575 159.83 1.64571C163.948 -0.719004 168.746 4.14342 173.474 4.53021Z" fill="#FF8787"/>
<path fill-rule="evenodd" clip-rule="evenodd" d="M117.063 7.20494C131.49 7.9797 144.155 11.9054 154.996 17.5775C166.733 23.7188 176.896 30.8598 179.688 39.9711C183.097 51.0949 184.354 63.7453 171.749 72.2549C158.691 81.0707 136.857 81.4742 117.063 82.2497C95.2362 83.1048 71.8992 84.7511 54.6033 76.8446C35.6156 68.1646 20.8565 53.9771 24.5773 39.9711C28.0889 26.7526 52.1053 19.9805 71.5388 13.0955C85.3864 8.18958 100.98 6.34119 117.063 7.20494Z" fill="#FFAB7A"/>
<ellipse cx="177.987" cy="70.7269" rx="16.7876" ry="14.0511" fill="#F55A57"/>
<ellipse cx="173.711" cy="65.6395" rx="1.21537" ry="2.15126" fill="black"/>
<ellipse cx="182.286" cy="65.6395" rx="1.21537" ry="2.15126" fill="black"/>
<path d="M173.043 72.6445C173.079 74.5722 175.312 76.0937 178.031 76.0428C180.749 75.9919 182.924 74.388 182.888 72.4603C182.852 70.5326 180.67 71.7825 177.952 71.8334C175.233 71.8843 173.007 70.7168 173.043 72.6445Z" fill="black"/>
<path d="M170.796 50.9035C173.677 48.6452 180.1 51.1915 180.1 55.0219C180.101 59.542 168.086 61.6232 165.801 61.9782C165.552 62.0169 165.303 62.044 165.054 62.039C163.425 62.0062 157.615 61.2375 170.796 50.9035Z" fill="#6E5232"/>
<path d="M170.796 50.9035C173.677 48.6452 180.1 51.1915 180.1 55.0219C180.101 59.542 168.086 61.6232 165.801 61.9782C165.552 62.0169 165.303 62.044 165.054 62.039C163.425 62.0062 157.615 61.2375 170.796 50.9035Z" fill="url(#paint0_radial_1720_2088)" fill-opacity="0.15"/>
<path d="M185.2 50.7629C182.319 48.5045 175.896 51.0509 175.896 54.8813C175.896 59.4014 187.91 61.4825 190.195 61.8375C190.445 61.8763 190.693 61.9034 190.942 61.8984C192.571 61.8656 198.381 61.0968 185.2 50.7629Z" fill="#6E5232"/>
<path d="M185.2 50.7629C182.319 48.5045 175.896 51.0509 175.896 54.8813C175.896 59.4014 187.91 61.4825 190.195 61.8375C190.445 61.8763 190.693 61.9034 190.942 61.8984C192.571 61.8656 198.381 61.0968 185.2 50.7629Z" fill="url(#paint1_radial_1720_2088)" fill-opacity="0.15"/>
<path d="M43.9602 30.0332L51.4702 30.0054L51.4745 31.1854L45.1846 31.2087L45.2068 37.1987L43.9868 37.2032L43.9602 30.0332ZM50.8502 30.0077L52.0702 30.0032L52.0916 35.7731C52.0939 36.4131 51.9752 36.7636 51.5459 36.9552C51.1166 37.1468 50.4867 37.1691 49.6167 37.1723C49.5754 36.8225 49.3834 36.2832 49.2122 35.9538C49.7623 35.9818 50.4423 35.9793 50.6323 35.9686C50.8123 35.9679 50.872 35.9077 50.8715 35.7577L50.8502 30.0077ZM45.7535 28.2066L47.9934 28.1983L47.9973 29.2483L45.7574 29.2566L45.7535 28.2066ZM47.2135 28.2012L48.4934 28.1964C48.593 30.7661 49.1708 32.874 51.0441 33.777C50.785 34.018 50.3769 34.5095 50.188 34.8302C48.2137 33.6675 47.5452 31.38 47.4055 28.7405L47.2155 28.7412L47.2135 28.2012ZM47.3112 30.3008L48.4119 30.4867C48.0797 32.588 47.3152 34.0708 45.7483 34.9167C45.5873 34.6372 45.1955 34.1487 44.9547 33.9496C46.3223 33.2945 47.0676 32.0217 47.3112 30.3008ZM55.8765 37.0891C55.4231 37.0908 55.0763 37.0488 54.836 36.963C54.5957 36.8839 54.4285 36.7378 54.3344 36.5248C54.2469 36.3185 54.2025 36.0253 54.2011 35.6453L54.1899 32.6353L53.7099 32.6371C53.5633 32.6377 53.4464 32.5914 53.3594 32.4984C53.2724 32.4054 53.2287 32.2956 53.2282 32.1689C53.2277 32.0356 53.2706 31.9221 53.3569 31.8284C53.4433 31.7348 53.5598 31.6877 53.7064 31.6871L54.1864 31.6854L54.1842 31.0954C54.1836 30.9287 54.2365 30.7985 54.3428 30.7048C54.4557 30.6043 54.5856 30.5539 54.7322 30.5533C54.8856 30.5528 55.0157 30.6023 55.1228 30.7019C55.2298 30.7948 55.2836 30.9246 55.2842 31.0913L55.2864 31.6813L56.4164 31.6771L56.4142 31.0871C56.4136 30.9204 56.4664 30.7902 56.5728 30.6965C56.6857 30.5961 56.8155 30.5456 56.9622 30.5451C57.1155 30.5445 57.2457 30.594 57.3528 30.6936C57.4598 30.7865 57.5136 30.9164 57.5142 31.083L57.5164 31.673L57.8564 31.6718C58.0031 31.6712 58.1166 31.7175 58.1969 31.8105C58.2839 31.9035 58.3277 32.0167 58.3282 32.15C58.3286 32.2767 58.2857 32.3868 58.1994 32.4805C58.1197 32.5741 58.0066 32.6212 57.8599 32.6217L57.5199 32.623L57.5311 35.633C57.5325 36.013 57.4902 36.3065 57.4043 36.5135C57.3185 36.7271 57.1557 36.8744 56.916 36.9553C56.6763 37.0428 56.3298 37.0874 55.8765 37.0891ZM58.5058 36.9194C58.3728 37.0065 58.2296 37.0437 58.0763 37.031C57.9229 37.0182 57.7959 36.942 57.6954 36.8024C57.6083 36.6827 57.5745 36.5528 57.594 36.4128C57.6201 36.2727 57.693 36.1657 57.8128 36.0919C58.2518 35.8236 58.5907 35.5291 58.8295 35.2082C59.075 34.8873 59.2437 34.53 59.3355 34.1363C59.4341 33.7426 59.4824 33.3024 59.4806 32.8157L59.4798 32.5857L59.3298 32.5863C59.2571 32.7732 59.1778 32.9569 59.0918 33.1372C59.0125 33.3175 58.9264 33.4845 58.8337 33.6381C58.7608 33.7651 58.6511 33.8522 58.5046 33.8994C58.3648 33.9465 58.2281 33.9371 58.0945 33.8709C57.9676 33.8047 57.8806 33.705 57.8334 33.5718C57.7929 33.4387 57.8091 33.3119 57.882 33.1917C58.0808 32.8509 58.256 32.4703 58.4078 32.0497C58.5662 31.6291 58.6947 31.2253 58.7933 30.8383C58.8327 30.6848 58.909 30.5778 59.0221 30.5174C59.1352 30.4503 59.2651 30.4332 59.4119 30.466C59.5587 30.4988 59.669 30.5684 59.7427 30.6748C59.8164 30.7745 59.8369 30.9011 59.8041 31.0545C59.7778 31.1546 59.7515 31.2547 59.7252 31.3548C59.7056 31.4549 59.6793 31.555 59.6463 31.6551L61.2963 31.649C61.7497 31.6473 62.0601 31.7695 62.2277 32.0156C62.4019 32.2549 62.3997 32.5649 62.2211 32.9456C62.1749 33.0524 62.122 33.166 62.0624 33.2862C62.0028 33.3997 61.9366 33.5233 61.8638 33.6569C61.7976 33.7838 61.6946 33.8742 61.5548 33.9281C61.415 33.9819 61.275 33.9791 61.1347 33.9196C61.0079 33.8601 60.9175 33.7671 60.8637 33.6406C60.8165 33.5075 60.8294 33.3807 60.9023 33.2605C60.9752 33.1469 61.0315 33.0467 61.0712 32.9598C61.1507 32.8195 61.1736 32.7228 61.1401 32.6696C61.1132 32.6097 61.0164 32.58 60.8498 32.5807L60.4798 32.582L60.4806 32.812C60.4819 33.1654 60.4632 33.5021 60.4244 33.8222C60.6394 34.2748 60.9109 34.6805 61.2389 35.0392C61.5736 35.398 61.948 35.7033 62.3623 35.9551C62.5093 36.0412 62.5964 36.1609 62.6236 36.3141C62.6576 36.474 62.6247 36.6141 62.5252 36.7345C62.4257 36.8682 62.2993 36.9453 62.146 36.9659C61.9994 36.9864 61.8593 36.9536 61.7257 36.8674C61.4182 36.6553 61.1206 36.3997 60.8328 36.1007C60.545 35.7951 60.2938 35.4694 60.0792 35.1235C59.9271 35.4708 59.7217 35.7949 59.4628 36.0958C59.2106 36.3901 58.8916 36.6646 58.5058 36.9194ZM55.8314 30.3292C55.2847 30.3313 54.8944 30.2361 54.6603 30.0436C54.4263 29.8445 54.3083 29.5016 54.3065 29.0149L54.3051 28.6349C54.3045 28.4616 54.3606 28.3247 54.4736 28.2243C54.5865 28.1172 54.723 28.0633 54.883 28.0627C55.0497 28.0621 55.1899 28.1149 55.3036 28.2212C55.4173 28.3208 55.4745 28.4572 55.4751 28.6306L55.476 28.8806C55.4768 29.0872 55.5206 29.2237 55.6075 29.2901C55.7011 29.3564 55.8846 29.389 56.1579 29.388L57.4079 29.3834L57.4038 28.2834C57.4032 28.1101 57.4593 27.9732 57.5723 27.8728C57.6852 27.7657 57.8217 27.7119 57.9817 27.7113C58.1417 27.7107 58.2786 27.7635 58.3923 27.8697C58.506 27.9693 58.5632 28.1058 58.5638 28.2791L58.5679 29.3791L59.8379 29.3744C60.1112 29.3734 60.2911 29.3394 60.3775 29.2724C60.4706 29.2054 60.5168 29.0685 60.516 28.8619L60.5151 28.6119C60.5144 28.4385 60.5706 28.3017 60.6835 28.2012C60.7965 28.0942 60.9363 28.0403 61.1029 28.0397C61.2629 28.0391 61.3998 28.0919 61.5135 28.1982C61.6272 28.2978 61.6844 28.4342 61.6851 28.6075L61.6865 28.9875C61.6883 29.4742 61.5729 29.818 61.3403 30.0188C61.1077 30.213 60.718 30.3111 60.1714 30.3132L55.8314 30.3292ZM55.8727 36.0791C56.106 36.0783 56.2559 36.0477 56.3224 35.9875C56.3955 35.9205 56.4316 35.7771 56.4308 35.5571L56.4277 34.7171L55.2977 34.7213L55.3008 35.5613C55.3016 35.7812 55.3388 35.9244 55.4124 35.9908C55.4859 36.0506 55.6394 36.08 55.8727 36.0791ZM55.2943 33.8013L56.4243 33.7971L56.4199 32.6271L55.2899 32.6313L55.2943 33.8013ZM66.1048 36.6112C65.9785 36.7183 65.832 36.7622 65.6652 36.7428C65.4985 36.7301 65.3583 36.6606 65.2445 36.5344C65.144 36.4148 65.0101 36.2686 64.8428 36.0959C64.6755 35.9165 64.5015 35.7405 64.3209 35.5678C64.1469 35.3885 63.993 35.2424 63.8592 35.1295C63.7522 35.0299 63.6884 34.9035 63.6678 34.7502C63.6539 34.5903 63.7001 34.4534 63.8063 34.3397C63.9192 34.226 64.049 34.1621 64.1956 34.1483C64.3489 34.1344 64.489 34.1739 64.6161 34.2667C64.7631 34.3795 64.9337 34.5255 65.1277 34.7048C65.3283 34.8841 65.5224 35.07 65.7098 35.2627C65.9038 35.4486 66.0577 35.6114 66.1716 35.751C66.2854 35.8772 66.3359 36.0237 66.3232 36.1904C66.3105 36.3571 66.2377 36.4974 66.1048 36.6112ZM74.2066 34.3912C74.0666 34.3917 73.9464 34.3455 73.8461 34.2525C73.7524 34.1528 73.7053 34.0364 73.7048 33.903C73.7042 33.763 73.7505 33.6462 73.8435 33.5525C73.9431 33.4521 74.0629 33.4017 74.2029 33.4012L75.0229 33.3981L75.0179 32.0481L73.8279 32.0526C73.6946 32.053 73.5777 32.0068 73.4774 31.9139C73.377 31.8142 73.3266 31.6977 73.3261 31.5644C73.3256 31.4244 73.3751 31.3076 73.4748 31.2139C73.5744 31.1135 73.6909 31.0631 73.8242 31.0626L75.0142 31.0582L75.0103 29.9882C74.9306 30.0818 74.8509 30.1721 74.7713 30.259C74.6983 30.346 74.6252 30.4263 74.5522 30.4999C74.4326 30.6203 74.2895 30.6942 74.123 30.7215C73.9631 30.742 73.8162 30.6926 73.6824 30.5731C73.5687 30.4802 73.5083 30.3537 73.501 30.1938C73.5004 30.0338 73.5533 29.9036 73.6596 29.8032C73.819 29.6426 73.9916 29.4486 74.1774 29.2212C74.3699 28.9939 74.5491 28.7632 74.7149 28.5292C74.8873 28.2953 75.0232 28.0948 75.1226 27.9277C75.2154 27.7674 75.3384 27.6736 75.4916 27.6464C75.6515 27.6124 75.7982 27.6386 75.9319 27.7247C76.0722 27.8109 76.1593 27.9239 76.1931 28.0638C76.227 28.2036 76.2042 28.3404 76.1247 28.474C76.0982 28.5208 76.0683 28.5676 76.0352 28.6143C76.002 28.6611 75.9689 28.7113 75.9357 28.7647L81.6557 28.7435C81.789 28.743 81.9025 28.7926 81.9963 28.8923C82.0966 28.9852 82.147 29.0984 82.1475 29.2317C82.148 29.3717 82.0985 29.4919 81.9988 29.5923C81.9059 29.6859 81.7927 29.733 81.6594 29.7335L80.9994 29.736L81.0042 31.0359L82.1542 31.0317C82.2942 31.0312 82.411 31.0807 82.5047 31.1804C82.6051 31.2733 82.6555 31.3898 82.656 31.5298C82.6565 31.6632 82.607 31.78 82.5073 31.8804C82.4143 31.9741 82.2979 32.0212 82.1579 32.0217L81.0079 32.0259L81.0129 33.3759L81.8629 33.3728C81.9962 33.3723 82.113 33.4219 82.2134 33.5215C82.3138 33.6144 82.3642 33.7309 82.3647 33.8709C82.3652 34.0043 82.3156 34.1211 82.216 34.2215C82.1164 34.3152 81.9999 34.3623 81.8665 34.3628L74.2066 34.3912ZM82.1256 36.8118C81.9859 36.899 81.836 36.9229 81.6759 36.8835C81.5224 36.8441 81.4054 36.7578 81.3249 36.6248C81.2578 36.5117 81.1639 36.3654 81.0433 36.1858C80.9226 36.013 80.7987 35.8401 80.6714 35.6672C80.5507 35.4943 80.4468 35.3514 80.3598 35.2384C80.2727 35.1254 80.2389 35.0021 80.2584 34.8687C80.2845 34.7286 80.3541 34.615 80.4671 34.528C80.5868 34.4409 80.72 34.4037 80.8667 34.4165C81.0134 34.4226 81.137 34.4821 81.2374 34.5951C81.3378 34.7081 81.455 34.8543 81.589 35.0338C81.723 35.2066 81.8536 35.3828 81.981 35.5624C82.1083 35.7352 82.2088 35.8782 82.2826 35.9912C82.3764 36.1309 82.407 36.2775 82.3742 36.4309C82.3481 36.591 82.2653 36.718 82.1256 36.8118ZM73.8157 36.8626C73.6887 36.7698 73.6183 36.6434 73.6043 36.4834C73.5904 36.3235 73.6366 36.1866 73.7428 36.0729C73.8291 35.9792 73.9287 35.8555 74.0414 35.7018C74.1609 35.548 74.277 35.3909 74.3897 35.2305C74.5024 35.0701 74.5953 34.9331 74.6682 34.8195C74.7477 34.6858 74.8607 34.6021 75.0072 34.5682C75.1604 34.5276 75.3005 34.5438 75.4274 34.6166C75.5677 34.6895 75.6581 34.8025 75.6987 34.9556C75.7392 35.1022 75.7197 35.2422 75.6402 35.3759C75.5674 35.4961 75.4746 35.6431 75.3619 35.8169C75.2492 35.9906 75.1331 36.1611 75.0138 36.3282C74.8944 36.4953 74.7882 36.6324 74.6953 36.7394C74.5891 36.8664 74.4527 36.9436 74.2861 36.9709C74.1196 37.0048 73.9628 36.9688 73.8157 36.8626ZM79.386 36.912C79.2194 36.9526 79.0694 36.9332 78.9357 36.8537C78.8021 36.7808 78.7184 36.6711 78.6845 36.5246C78.6641 36.418 78.6336 36.2848 78.593 36.1249C78.5524 35.9584 78.5118 35.7952 78.4712 35.6354C78.4306 35.4689 78.3934 35.3357 78.3597 35.2358C78.3125 35.076 78.3286 34.9359 78.4082 34.8156C78.4877 34.6886 78.6007 34.6049 78.7473 34.5643C78.9004 34.5238 79.0438 34.5366 79.1774 34.6027C79.311 34.6622 79.4014 34.7752 79.4487 34.9417C79.4823 35.035 79.5195 35.1681 79.5601 35.3413C79.6074 35.5078 79.6547 35.6743 79.702 35.8408C79.7493 36.0073 79.7831 36.1405 79.8035 36.2404C79.8374 36.4003 79.8146 36.5437 79.7351 36.6707C79.6622 36.7976 79.5458 36.8781 79.386 36.912ZM77.2963 37.0097C77.1364 37.0437 76.9897 37.0209 76.8561 36.9414C76.7224 36.8619 76.6453 36.7455 76.6248 36.5922C76.6111 36.4989 76.5872 36.3657 76.5533 36.1925C76.526 36.0259 76.4954 35.8594 76.4614 35.6928C76.4341 35.5263 76.4103 35.3963 76.39 35.3031C76.3627 35.1432 76.3889 35.0031 76.4684 34.8828C76.5546 34.7625 76.671 34.6887 76.8176 34.6615C76.9775 34.6276 77.1209 34.647 77.2478 34.7199C77.3747 34.7861 77.4585 34.9058 77.4992 35.079C77.5261 35.1655 77.5566 35.2954 77.5906 35.4686C77.6246 35.6418 77.6552 35.8151 77.6825 35.9883C77.7165 36.1548 77.7403 36.2847 77.754 36.378C77.7813 36.5446 77.7518 36.6814 77.6655 36.7884C77.5792 36.902 77.4562 36.9758 77.2963 37.0097ZM76.0429 33.3944L76.6829 33.392L76.6779 32.042L76.0379 32.0444L76.0429 33.3944ZM79.3529 33.3821L79.9929 33.3797L79.9879 32.0297L79.3479 32.0321L79.3529 33.3821ZM77.7029 33.3882L78.3329 33.3859L78.3279 32.0359L77.6979 32.0382L77.7029 33.3882ZM76.0342 31.0544L76.6742 31.052L76.6694 29.752L76.0294 29.7544L76.0342 31.0544ZM79.3442 31.0421L79.9842 31.0397L79.9794 29.7397L79.3394 29.7421L79.3442 31.0421ZM77.6942 31.0482L78.3242 31.0459L78.3194 29.7459L77.6894 29.7482L77.6942 31.0482ZM87.5812 32.9116C87.4345 32.9121 87.3143 32.8659 87.2207 32.7729C87.127 32.6733 87.0799 32.5534 87.0793 32.4134C87.0788 32.2734 87.1251 32.1566 87.218 32.0629C87.311 31.9626 87.4308 31.9121 87.5775 31.9116L88.3575 31.9087C88.3903 31.7686 88.4297 31.5984 88.4756 31.3983C88.5282 31.1981 88.5774 30.9845 88.6232 30.7577L88.0532 30.7598C87.9065 30.7604 87.7897 30.7141 87.7027 30.6211C87.6157 30.5281 87.5719 30.4183 87.5715 30.2916C87.571 30.1583 87.6139 30.0448 87.7002 29.9511C87.7865 29.8575 87.903 29.8104 88.0497 29.8098L88.8297 29.8069C88.8625 29.6535 88.8919 29.5134 88.9181 29.3866C88.9443 29.2532 88.9672 29.1398 88.9869 29.0463L87.7369 29.051C87.5902 29.0515 87.4734 29.0053 87.3864 28.9123C87.306 28.8192 87.2656 28.7061 87.2651 28.5727C87.2646 28.4394 87.3042 28.3292 87.3839 28.2423C87.4702 28.1486 87.5867 28.1015 87.7334 28.101L92.0133 28.0851C92.16 28.0846 92.2768 28.1308 92.3638 28.2238C92.4508 28.3102 92.4946 28.42 92.4951 28.5533C92.4956 28.6867 92.4526 28.8002 92.3663 28.8938C92.28 28.9875 92.1635 29.0346 92.0169 29.0351L90.1269 29.0421C90.1072 29.1422 90.0843 29.2556 90.0581 29.3824C90.0319 29.5091 90.0024 29.6493 89.9697 29.8027L90.2797 29.8016C90.7997 29.7996 91.1567 29.8916 91.3507 30.0776C91.5447 30.2569 91.6426 30.5898 91.6444 31.0765L91.6475 31.8965L92.2774 31.8942C92.4308 31.8936 92.551 31.9432 92.638 32.0428C92.7317 32.1358 92.7788 32.2523 92.7793 32.3923C92.7798 32.5323 92.7336 32.6525 92.6406 32.7528C92.5543 32.8465 92.4345 32.8936 92.2812 32.8942L87.5812 32.9116ZM89.9553 36.7028C89.4419 36.7047 89.0384 36.6595 88.7447 36.5673C88.4511 36.4817 88.2438 36.3225 88.123 36.0896C88.0021 35.85 87.9408 35.5169 87.9393 35.0903C87.9377 34.6569 87.9964 34.3267 88.1156 34.0996C88.2347 33.8658 88.4408 33.7051 88.7338 33.6173C89.0268 33.5229 89.43 33.4747 89.9433 33.4728C90.4633 33.4709 90.8668 33.5161 91.1538 33.6083C91.4474 33.6939 91.6547 33.8532 91.7756 34.086C91.8964 34.3123 91.9576 34.642 91.9592 35.0754C91.9608 35.502 91.9021 35.8356 91.7829 36.076C91.6638 36.3098 91.4577 36.4706 91.1647 36.5583C90.8784 36.6527 90.4753 36.7009 89.9553 36.7028ZM85.4054 36.7397C84.992 36.7412 84.6652 36.6958 84.4248 36.6033C84.1912 36.5108 84.0239 36.3548 83.9231 36.1352C83.829 35.9155 83.7812 35.619 83.7798 35.2457C83.7784 34.8657 83.824 34.5689 83.9165 34.3552C84.0157 34.1348 84.1818 33.9809 84.4148 33.8933C84.6545 33.7991 84.9809 33.7512 85.3943 33.7497C85.8143 33.7481 86.1411 33.7936 86.3748 33.8861C86.6151 33.9718 86.7823 34.1246 86.8765 34.3442C86.9706 34.5572 87.0184 34.8537 87.0198 35.2337C87.0212 35.607 86.9756 35.9038 86.8831 36.1242C86.7906 36.3445 86.6245 36.5018 86.3848 36.596C86.1519 36.6902 85.8254 36.7381 85.4054 36.7397ZM83.6921 30.466C83.5521 30.4665 83.4386 30.4236 83.3516 30.3372C83.2713 30.2442 83.2309 30.1344 83.2304 30.0077C83.2299 29.881 83.2695 29.7742 83.3492 29.6872C83.4355 29.5936 83.5487 29.5465 83.6887 29.546L86.9087 29.5341C87.0487 29.5335 87.1588 29.5798 87.2392 29.6728C87.3262 29.7592 87.3699 29.8657 87.3704 29.9923C87.3708 30.119 87.3279 30.2292 87.2416 30.3228C87.1619 30.4098 87.0521 30.4535 86.9121 30.454L83.6921 30.466ZM84.1969 29.0641C84.0502 29.0646 83.9334 29.0184 83.8464 28.9254C83.7594 28.8324 83.7156 28.7192 83.7151 28.5859C83.7146 28.4526 83.7576 28.3424 83.8439 28.2554C83.9302 28.1617 84.0467 28.1147 84.1934 28.1141L86.4534 28.1057C86.6 28.1052 86.7135 28.1514 86.7939 28.2445C86.8809 28.3308 86.9246 28.4407 86.9251 28.574C86.9256 28.7073 86.8827 28.8208 86.7964 28.9145C86.7167 29.0081 86.6036 29.0552 86.4569 29.0557L84.1969 29.0641ZM84.1925 33.2841C84.0459 33.2847 83.9324 33.2418 83.8521 33.1554C83.7717 33.0624 83.7313 32.9525 83.7308 32.8259C83.7303 32.6925 83.7699 32.5824 83.8496 32.4954C83.9293 32.4018 84.0424 32.3547 84.1891 32.3542L86.4791 32.3457C86.6257 32.3451 86.7393 32.3914 86.8196 32.4844C86.8999 32.5708 86.9403 32.6806 86.9408 32.814C86.9413 32.9406 86.9017 33.0508 86.822 33.1444C86.7424 33.2314 86.6292 33.2751 86.4825 33.2757L84.1925 33.2841ZM84.1873 31.8742C84.0407 31.8747 83.9272 31.8318 83.8468 31.7454C83.7665 31.6524 83.7261 31.5425 83.7256 31.4159C83.7251 31.2825 83.7647 31.1724 83.8444 31.0854C83.9241 30.9985 84.0372 30.9547 84.1839 30.9542L86.4739 30.9457C86.6206 30.9451 86.7341 30.988 86.8144 31.0744C86.8947 31.1608 86.9351 31.2706 86.9356 31.404C86.9361 31.5306 86.8965 31.6408 86.8168 31.7344C86.7371 31.8214 86.624 31.8651 86.4773 31.8657L84.1873 31.8742ZM89.9614 35.6728C90.2014 35.6719 90.3814 35.6612 90.5013 35.6408C90.6279 35.6136 90.711 35.5567 90.7507 35.4699C90.797 35.383 90.8199 35.2529 90.8192 35.0796C90.8186 34.9129 90.7948 34.7897 90.7479 34.7099C90.7076 34.6233 90.624 34.567 90.4972 34.5408C90.3771 34.5079 90.1971 34.4919 89.9571 34.4928C89.5904 34.4941 89.3506 34.535 89.2375 34.6155C89.1311 34.6892 89.0784 34.8427 89.0792 35.076C89.0799 35.2494 89.1037 35.3793 89.1507 35.4658C89.1977 35.5523 89.2845 35.6086 89.4113 35.6348C89.5381 35.661 89.7214 35.6737 89.9614 35.6728ZM85.402 35.8197C85.6353 35.8188 85.7885 35.7816 85.8615 35.708C85.9346 35.6277 85.9707 35.4709 85.9698 35.2376C85.969 35.0109 85.9317 34.8577 85.8581 34.778C85.7845 34.6983 85.631 34.6588 85.3977 34.6597C85.171 34.6605 85.0178 34.7011 84.9381 34.7814C84.8651 34.8617 84.829 35.0151 84.8298 35.2418C84.8307 35.4751 84.8679 35.6317 84.9415 35.7114C85.0218 35.7844 85.1753 35.8205 85.402 35.8197ZM89.5075 31.9044L90.5575 31.9005L90.5552 31.2905C90.5544 31.0706 90.5172 30.9274 90.4436 30.861C90.3767 30.7879 90.2265 30.7518 89.9932 30.7526L89.7632 30.7535C89.7174 30.9803 89.6715 31.1938 89.6256 31.394C89.5797 31.5942 89.5403 31.7643 89.5075 31.9044ZM93.8238 30.9084C93.6905 30.9089 93.5836 30.866 93.5033 30.7796C93.4297 30.6932 93.3926 30.59 93.3922 30.47C93.3917 30.35 93.428 30.2466 93.501 30.1596C93.5807 30.0727 93.6872 30.0289 93.8205 30.0284L95.9705 30.0205L95.8295 29.741C95.7892 29.6678 95.7723 29.5945 95.7787 29.5212C95.7917 29.4411 95.8181 29.371 95.8579 29.3109L94.4779 29.316C94.3446 29.3165 94.2377 29.2736 94.1574 29.1872C94.0771 29.0941 94.0367 28.9876 94.0362 28.8676C94.0358 28.7476 94.0754 28.6441 94.1551 28.5572C94.2347 28.4636 94.3412 28.4165 94.4746 28.416L97.3746 28.4053L97.3734 28.0853C97.3727 27.9119 97.4289 27.775 97.5418 27.6746C97.6614 27.5675 97.8046 27.5137 97.9712 27.513C98.1446 27.5124 98.2914 27.5652 98.4118 27.6714C98.5322 27.771 98.5927 27.9074 98.5934 28.0807L98.5945 28.4007L101.535 28.3898C101.675 28.3893 101.781 28.4356 101.855 28.5286C101.935 28.615 101.976 28.7182 101.976 28.8382C101.977 28.9582 101.937 29.065 101.857 29.1586C101.784 29.2456 101.678 29.2893 101.538 29.2898L100.018 29.2955C100.051 29.3553 100.072 29.4219 100.079 29.4952C100.092 29.5685 100.082 29.6419 100.049 29.7153C100.03 29.7488 100.006 29.7922 99.9799 29.8456C99.9601 29.899 99.9336 29.9524 99.9005 30.0059L102.16 29.9975C102.294 29.997 102.397 30.04 102.471 30.1264C102.551 30.2127 102.592 30.3159 102.592 30.4359C102.593 30.5559 102.553 30.6594 102.473 30.7464C102.4 30.8333 102.297 30.877 102.164 30.8775L93.8238 30.9084ZM98.9207 35.4596C98.8144 35.5466 98.6945 35.5904 98.5612 35.5909C98.4345 35.5847 98.3243 35.5284 98.2306 35.4221C98.1971 35.3823 98.1402 35.3258 98.0599 35.2528C97.9796 35.1731 97.8993 35.0934 97.819 35.0137C97.7454 34.9339 97.6885 34.8775 97.6484 34.8443C97.5681 34.7712 97.5278 34.6814 97.5274 34.5747C97.5337 34.468 97.57 34.3712 97.6363 34.2843L96.9663 34.2868C96.4597 34.2887 96.0695 34.2435 95.7958 34.1511C95.5221 34.0522 95.3315 33.8895 95.224 33.6633C95.1232 33.437 95.0721 33.1372 95.0707 32.7638C95.0693 32.3838 95.1182 32.0836 95.2174 31.8633C95.3232 31.6362 95.5126 31.4755 95.7856 31.3812C96.0585 31.2802 96.4483 31.2287 96.955 31.2268L99.045 31.2191C99.5583 31.2172 99.9518 31.2657 100.226 31.3647C100.499 31.457 100.69 31.6163 100.797 31.8426C100.905 32.0622 100.959 32.362 100.961 32.742C100.962 33.1153 100.91 33.4155 100.804 33.6426C100.698 33.8696 100.509 34.0337 100.236 34.1347C99.9628 34.229 99.5697 34.2772 99.0563 34.2791L98.4463 34.2813C98.5199 34.3477 98.6136 34.4374 98.7273 34.5503C98.8411 34.6632 98.9214 34.7429 98.9682 34.7894C99.0619 34.889 99.1057 35.0022 99.0995 35.1289C99.0933 35.2556 99.0337 35.3658 98.9207 35.4596ZM98.2259 36.8622C97.6659 36.8642 97.2258 36.8225 96.9054 36.737C96.5918 36.6582 96.368 36.519 96.2339 36.3195C96.0998 36.12 96.0321 35.8403 96.0308 35.4803L96.029 35.0003C96.0284 34.8336 96.0812 34.7001 96.1875 34.5997C96.3005 34.4993 96.4303 34.4488 96.5769 34.4483C96.7303 34.4477 96.8571 34.4972 96.9575 34.5968C97.0645 34.6964 97.1184 34.8296 97.119 34.9962L97.1201 35.2962C97.1207 35.4562 97.1445 35.5795 97.1915 35.666C97.2384 35.7458 97.3386 35.8021 97.4921 35.8349C97.6522 35.8676 97.8956 35.8834 98.2223 35.8822C98.5156 35.8811 98.7422 35.8669 98.9021 35.8396C99.062 35.8124 99.1818 35.7619 99.2616 35.6883C99.3413 35.6147 99.4109 35.5044 99.4703 35.3575C99.5232 35.224 99.6128 35.1337 99.7393 35.0865C99.8658 35.0327 99.9991 35.0289 100.139 35.0751C100.286 35.1212 100.39 35.2008 100.45 35.3139C100.517 35.427 100.531 35.5569 100.492 35.7037C100.419 35.9907 100.304 36.2178 100.144 36.385C99.9848 36.559 99.7519 36.6798 99.4455 36.7476C99.1458 36.8221 98.7392 36.8603 98.2259 36.8622ZM93.7352 36.6888C93.6216 36.6092 93.5545 36.4961 93.534 36.3495C93.5135 36.2096 93.5463 36.0862 93.6326 35.9792C93.7123 35.8922 93.8085 35.7752 93.9213 35.6281C94.0407 35.4743 94.1568 35.3206 94.2696 35.1668C94.3823 35.0064 94.4685 34.8761 94.5281 34.7758C94.601 34.6489 94.7074 34.5718 94.8473 34.5447C94.9872 34.5108 95.1206 34.5303 95.2475 34.6032C95.3811 34.6827 95.4615 34.7924 95.4887 34.9323C95.5226 35.0722 95.5031 35.2056 95.4302 35.3325C95.364 35.4528 95.2745 35.5931 95.1618 35.7535C95.0557 35.9139 94.9463 36.0676 94.8335 36.2147C94.7274 36.3618 94.6378 36.4788 94.5648 36.5657C94.4586 36.6861 94.3255 36.7566 94.1656 36.7772C94.0123 36.8044 93.8689 36.775 93.7352 36.6888ZM102.434 36.4266C102.321 36.5136 102.191 36.5508 102.045 36.538C101.898 36.5252 101.778 36.4623 101.684 36.3493C101.61 36.2563 101.51 36.14 101.383 36.0004C101.256 35.8543 101.125 35.7114 100.991 35.5719C100.857 35.4257 100.747 35.3128 100.66 35.2331C100.566 35.1401 100.526 35.027 100.539 34.8936C100.551 34.7602 100.604 34.65 100.697 34.563C100.797 34.4693 100.917 34.4222 101.057 34.4216C101.197 34.4211 101.32 34.4707 101.427 34.5703C101.514 34.65 101.625 34.7595 101.759 34.899C101.899 35.0385 102.04 35.178 102.18 35.3175C102.321 35.457 102.428 35.5699 102.501 35.6563C102.602 35.7693 102.642 35.9024 102.623 36.0559C102.61 36.2092 102.547 36.3328 102.434 36.4266ZM97.0335 33.5066L99.0434 33.4991C99.3034 33.4981 99.4867 33.4741 99.5932 33.4271C99.6997 33.38 99.7659 33.2731 99.792 33.1063L96.282 33.1193C96.3093 33.2859 96.3764 33.3923 96.4832 33.4386C96.59 33.4849 96.7735 33.5075 97.0335 33.5066ZM97.2005 30.0159L98.6605 30.0105C98.7068 29.917 98.7631 29.8001 98.8292 29.6599C98.8954 29.5196 98.9449 29.4061 98.978 29.3193L98.9979 29.2992L96.8679 29.3071C96.8746 29.3138 96.8779 29.3204 96.878 29.3271C96.878 29.3271 96.8813 29.3304 96.888 29.3371C96.9283 29.4236 96.9787 29.5367 97.0393 29.6765C97.1064 29.8096 97.1602 29.9227 97.2005 30.0159ZM96.2794 32.4093L99.7894 32.3963C99.7621 32.2431 99.6918 32.1434 99.5783 32.0971C99.4714 32.0442 99.2913 32.0182 99.038 32.0191L97.028 32.0266C96.7746 32.0275 96.5947 32.0548 96.4883 32.1086C96.3818 32.1556 96.3122 32.2559 96.2794 32.4093ZM108.328 31.9247C107.768 31.9268 107.384 31.8315 107.177 31.6389C106.969 31.4464 106.865 31.1134 106.863 30.6401C106.861 30.1601 106.963 29.8264 107.169 29.639C107.375 29.4449 107.758 29.3468 108.318 29.3447L108.388 29.3444L108.386 28.8444L106.956 28.8497C106.836 28.8502 106.733 28.8106 106.646 28.7309C106.566 28.6445 106.525 28.5413 106.525 28.4213C106.524 28.3013 106.564 28.2012 106.644 28.1209C106.73 28.0339 106.833 27.9902 106.953 27.9897L112.253 27.9701C112.373 27.9697 112.477 28.0126 112.564 28.099C112.65 28.1786 112.694 28.2785 112.695 28.3985C112.695 28.5185 112.652 28.622 112.566 28.7089C112.479 28.7893 112.376 28.8297 112.256 28.8301L110.786 28.8355L110.788 29.3355L110.898 29.3351C111.458 29.3331 111.842 29.4283 112.049 29.6209C112.257 29.8068 112.361 30.1397 112.363 30.6197C112.365 31.093 112.263 31.4268 112.057 31.6209C111.851 31.815 111.468 31.913 110.908 31.9151L108.328 31.9247ZM105.206 36.9763C105.06 36.9768 104.936 36.9306 104.836 36.8377C104.742 36.7447 104.695 36.6215 104.694 36.4682L104.682 33.0782C104.583 33.2852 104.487 33.4823 104.394 33.6693C104.301 33.8496 104.212 34.0066 104.126 34.1403C104.053 34.2672 103.943 34.3476 103.797 34.3815C103.65 34.4087 103.517 34.3825 103.396 34.303C103.276 34.2301 103.206 34.1303 103.185 34.0038C103.172 33.8705 103.198 33.7437 103.264 33.6235C103.377 33.443 103.499 33.2259 103.632 32.9721C103.771 32.7182 103.906 32.4544 104.039 32.1806C104.171 31.9001 104.293 31.6296 104.406 31.3692C104.518 31.1088 104.607 30.8785 104.673 30.6782L104.673 30.5582L103.713 30.5618C103.586 30.5622 103.472 30.516 103.372 30.423C103.278 30.3234 103.231 30.2102 103.231 30.0836C103.23 29.9502 103.277 29.8367 103.37 29.743C103.469 29.6493 103.582 29.6023 103.709 29.6018L104.669 29.5982L104.664 28.1282C104.663 27.9749 104.709 27.8514 104.802 27.7577C104.902 27.664 105.025 27.6169 105.172 27.6163C105.312 27.6158 105.432 27.662 105.532 27.755C105.633 27.848 105.683 27.9711 105.684 28.1245L105.689 29.5944L106.349 29.592C106.482 29.5915 106.596 29.6377 106.69 29.7307C106.783 29.8237 106.83 29.9369 106.831 30.0702C106.831 30.1969 106.785 30.3104 106.692 30.4107C106.599 30.5044 106.486 30.5515 106.353 30.552L105.693 30.5544L105.695 31.0744C105.755 31.1542 105.839 31.2639 105.946 31.4035C106.053 31.5364 106.163 31.6794 106.277 31.8323C106.398 31.9785 106.512 32.1181 106.619 32.251C106.726 32.3773 106.813 32.477 106.88 32.55C106.974 32.6497 107.011 32.7662 106.991 32.8996C106.972 33.0264 106.912 33.1366 106.813 33.2303C106.706 33.324 106.583 33.3645 106.443 33.3517C106.31 33.3388 106.199 33.2792 106.112 33.1729C106.065 33.0997 106.005 33.0133 105.931 32.9136C105.858 32.8138 105.781 32.7075 105.7 32.5944L105.714 36.4644C105.715 36.6177 105.666 36.7412 105.566 36.8349C105.466 36.9287 105.346 36.9758 105.206 36.9763ZM108.786 36.893C108.633 36.8936 108.506 36.8507 108.406 36.7644C108.312 36.6848 108.262 36.5683 108.254 36.415C108.247 36.2817 108.287 36.1649 108.373 36.0645C108.459 35.9642 108.572 35.9071 108.712 35.8933C108.872 35.8794 108.976 35.8523 109.022 35.8121C109.075 35.7653 109.102 35.6685 109.101 35.5218L109.097 34.3718L106.997 34.3796C106.883 34.38 106.783 34.3371 106.696 34.2507C106.616 34.1644 106.576 34.0645 106.575 33.9512C106.575 33.8312 106.614 33.731 106.694 33.6507C106.78 33.5638 106.88 33.5201 106.994 33.5196L112.244 33.5002C112.357 33.4998 112.454 33.5427 112.534 33.6291C112.621 33.7088 112.665 33.8086 112.665 33.9286C112.666 34.0419 112.623 34.1421 112.536 34.2291C112.457 34.3161 112.36 34.3597 112.247 34.3602L110.147 34.368L110.152 35.6679C110.153 36.1146 110.048 36.4283 109.835 36.6091C109.629 36.7966 109.279 36.8912 108.786 36.893ZM107.492 33.1378C107.379 33.1382 107.279 33.0952 107.192 33.0089C107.111 32.9225 107.071 32.8227 107.071 32.7093C107.07 32.596 107.11 32.4992 107.189 32.4189C107.276 32.3319 107.376 32.2882 107.489 32.2878L111.689 32.2722C111.802 32.2718 111.899 32.3148 111.979 32.4011C112.066 32.4808 112.11 32.5773 112.111 32.6907C112.111 32.804 112.068 32.9042 111.982 32.9911C111.902 33.0781 111.805 33.1218 111.692 33.1222L107.492 33.1378ZM111.844 36.3617C111.737 36.2887 111.607 36.1926 111.453 36.0731C111.306 35.9603 111.156 35.8376 111.002 35.7048C110.855 35.572 110.724 35.4525 110.61 35.3462C110.517 35.2533 110.466 35.1401 110.459 35.0068C110.459 34.8668 110.505 34.75 110.598 34.6563C110.691 34.5559 110.801 34.4989 110.927 34.4851C111.06 34.4712 111.181 34.5108 111.288 34.6037C111.381 34.6767 111.502 34.7729 111.649 34.8924C111.796 35.0118 111.943 35.128 112.09 35.2408C112.244 35.3535 112.371 35.4431 112.471 35.5093C112.585 35.5823 112.648 35.6887 112.662 35.8286C112.683 35.9619 112.656 36.0853 112.584 36.1989C112.504 36.3259 112.394 36.403 112.254 36.4302C112.115 36.464 111.978 36.4412 111.844 36.3617ZM107.274 36.3586C107.148 36.4458 107.011 36.4763 106.864 36.4501C106.718 36.4307 106.597 36.3578 106.504 36.2315C106.43 36.1184 106.403 35.9952 106.422 35.8618C106.448 35.7217 106.518 35.6147 106.631 35.541C106.731 35.474 106.854 35.3868 107 35.2796C107.146 35.1657 107.293 35.0485 107.439 34.928C107.585 34.8075 107.705 34.7037 107.798 34.6167C107.897 34.523 108.017 34.4825 108.157 34.4953C108.297 34.5081 108.411 34.5644 108.498 34.6641C108.592 34.7704 108.639 34.8902 108.639 35.0235C108.64 35.1502 108.59 35.2604 108.49 35.3541C108.404 35.4411 108.288 35.5482 108.142 35.6754C107.995 35.7959 107.842 35.9198 107.683 36.0471C107.53 36.1677 107.394 36.2715 107.274 36.3586ZM109.315 31.101L109.875 31.0989L109.871 30.1589L109.311 30.161L109.315 31.101ZM110.795 31.0955L110.895 31.0952C111.101 31.0944 111.238 31.0606 111.304 30.9936C111.371 30.9267 111.404 30.8033 111.403 30.6233C111.402 30.4366 111.368 30.3134 111.301 30.2536C111.235 30.1872 111.098 30.1544 110.891 30.1552L110.791 30.1555L110.795 31.0955ZM108.345 31.1046L108.395 31.1044L108.391 30.1644L108.341 30.1646C108.134 30.1654 107.995 30.1992 107.922 30.2662C107.855 30.3264 107.822 30.4499 107.823 30.6365C107.824 30.8165 107.857 30.9397 107.924 31.0062C107.998 31.0726 108.138 31.1054 108.345 31.1046ZM109.308 29.341L109.868 29.339L109.866 28.839L109.306 28.841L109.308 29.341ZM119.046 36.825C118.92 36.9121 118.78 36.9593 118.626 36.9665C118.473 36.9804 118.34 36.9209 118.226 36.788C118.165 36.7149 118.129 36.6351 118.115 36.5484C118.101 36.4618 118.108 36.3785 118.134 36.2984C117.827 36.3395 117.488 36.3808 117.114 36.4221C116.748 36.4635 116.375 36.5016 115.995 36.5363C115.615 36.5777 115.248 36.6157 114.895 36.6504C114.549 36.685 114.239 36.7161 113.966 36.7438C113.832 36.751 113.715 36.7181 113.615 36.6451C113.515 36.5722 113.458 36.4624 113.444 36.3157C113.437 36.1758 113.476 36.0623 113.563 35.9753C113.649 35.8816 113.756 35.8313 113.882 35.8241C114.042 35.8102 114.215 35.7962 114.402 35.7822C114.595 35.7681 114.795 35.7541 115.002 35.74L115 35.28L113.87 35.2842C113.783 35.2845 113.71 35.2548 113.65 35.195C113.59 35.1285 113.559 35.052 113.559 34.9653C113.559 34.8786 113.588 34.8052 113.648 34.745C113.708 34.6848 113.781 34.6545 113.868 34.6542L114.998 34.65L114.997 34.35L113.867 34.3542C113.78 34.3545 113.707 34.3248 113.646 34.265C113.586 34.2052 113.556 34.132 113.556 34.0453C113.555 33.952 113.585 33.8752 113.645 33.815C113.704 33.7548 113.778 33.7245 113.864 33.7242L114.994 33.72L114.993 33.42L113.863 33.4242C113.777 33.4245 113.703 33.3948 113.643 33.335C113.583 33.2752 113.552 33.202 113.552 33.1153C113.552 33.022 113.581 32.9452 113.641 32.885C113.701 32.8248 113.774 32.7945 113.861 32.7942L114.991 32.79L114.99 32.5L113.75 32.5046C113.643 32.505 113.55 32.4653 113.469 32.3856C113.389 32.3059 113.349 32.2127 113.348 32.1061C113.348 31.9927 113.388 31.8959 113.467 31.8156C113.547 31.7353 113.64 31.695 113.747 31.6946L114.097 31.6933C114.01 31.6269 113.96 31.5338 113.946 31.4139C113.932 31.2939 113.962 31.1905 114.035 31.1035C114.134 30.9898 114.24 30.8561 114.353 30.7023C114.466 30.5419 114.572 30.3815 114.671 30.2212C114.777 30.0541 114.864 29.9071 114.93 29.7802C114.989 29.6666 115.079 29.5963 115.199 29.5692C115.319 29.5354 115.432 29.545 115.539 29.5979C115.653 29.6508 115.73 29.7339 115.77 29.8471C115.81 29.9603 115.801 30.0736 115.741 30.1872C115.728 30.2139 115.711 30.244 115.692 30.2774C115.678 30.3108 115.662 30.3442 115.642 30.3776C115.729 30.4306 115.826 30.4935 115.933 30.5665C116.04 30.6328 116.12 30.6825 116.173 30.7156C116.314 30.8084 116.374 30.9382 116.355 31.1049C116.501 30.9177 116.643 30.7072 116.782 30.4733C116.921 30.2328 117.037 30.019 117.13 29.832C117.183 29.7185 117.269 29.6449 117.389 29.6111C117.509 29.5773 117.626 29.5869 117.739 29.6398C117.705 29.5066 117.728 29.3832 117.808 29.2695C117.967 29.0489 118.119 28.795 118.265 28.5078C118.417 28.2139 118.546 27.9534 118.652 27.7264C118.712 27.5928 118.805 27.5058 118.931 27.4653C119.064 27.4249 119.191 27.431 119.311 27.4839C119.445 27.5368 119.532 27.6198 119.572 27.733C119.619 27.8461 119.616 27.9628 119.564 28.083C119.55 28.1164 119.534 28.1531 119.514 28.1932C119.501 28.2266 119.488 28.2633 119.474 28.3033L122.094 28.2936C122.214 28.2932 122.314 28.3361 122.395 28.4225C122.482 28.5022 122.525 28.602 122.526 28.722C122.526 28.842 122.483 28.9455 122.397 29.0325C122.317 29.1128 122.217 29.1532 122.097 29.1536L120.678 29.1589C120.691 29.1855 120.704 29.2155 120.718 29.2487C120.731 29.2754 120.741 29.2986 120.748 29.3186C120.802 29.4451 120.799 29.5684 120.739 29.6887C120.68 29.8022 120.584 29.8859 120.45 29.9397C120.317 29.9869 120.187 29.9907 120.06 29.9512C119.94 29.905 119.857 29.8186 119.809 29.6921C119.783 29.6189 119.749 29.5323 119.709 29.4325C119.675 29.3259 119.641 29.2361 119.608 29.1629L119.028 29.165C118.975 29.2652 118.918 29.3621 118.859 29.4556C118.806 29.5425 118.753 29.6294 118.7 29.7162C118.627 29.8298 118.524 29.9135 118.39 29.9674C118.257 30.0145 118.124 30.005 117.99 29.9388C118.011 30.0254 118.001 30.1155 117.961 30.209L117.912 30.3091C118.019 30.3754 118.142 30.455 118.283 30.5478C118.423 30.6406 118.523 30.7035 118.583 30.7367C118.684 30.7963 118.744 30.8861 118.764 31.006C118.785 31.1192 118.758 31.226 118.686 31.3263C118.613 31.4332 118.513 31.4936 118.386 31.5074C118.266 31.5145 118.153 31.4849 118.046 31.4187C117.979 31.3789 117.896 31.3225 117.795 31.2496C117.695 31.1766 117.598 31.107 117.504 31.0407C117.379 31.2478 117.249 31.4383 117.117 31.6121C117.097 31.6388 117.073 31.6623 117.047 31.6824L119.077 31.6748C119.056 31.4549 119.038 31.225 119.024 30.985C119.017 30.7451 119.009 30.4951 119.001 30.2351C119.001 30.0751 119.047 29.9483 119.14 29.8546C119.24 29.7609 119.363 29.7138 119.51 29.7132C119.65 29.7127 119.77 29.7589 119.87 29.8519C119.977 29.9448 120.031 30.068 120.031 30.2213C120.039 30.4879 120.047 30.7446 120.054 30.9912C120.069 31.2312 120.086 31.4578 120.107 31.671L122.247 31.6631C122.353 31.6627 122.444 31.7024 122.517 31.7821C122.598 31.8618 122.638 31.9583 122.638 32.0716C122.639 32.1783 122.599 32.2718 122.519 32.3521C122.446 32.4324 122.356 32.4727 122.25 32.4731L121.66 32.4753C121.907 32.5944 121.981 32.7874 121.882 33.0544C121.756 33.3749 121.614 33.6888 121.455 33.996C121.297 34.3033 121.121 34.6006 120.929 34.888C120.996 34.9944 121.063 35.1008 121.13 35.2072C121.204 35.3136 121.284 35.4167 121.371 35.5164C121.451 35.6161 121.518 35.6591 121.572 35.6456C121.625 35.6321 121.675 35.5619 121.721 35.4351C121.747 35.3683 121.77 35.3049 121.79 35.2448C121.81 35.1781 121.833 35.1146 121.859 35.0545C121.912 34.9143 121.999 34.8207 122.118 34.7736C122.245 34.7198 122.385 34.7259 122.538 34.792C122.665 34.8449 122.749 34.9346 122.789 35.0611C122.83 35.1809 122.824 35.3076 122.771 35.4412C122.738 35.528 122.695 35.6415 122.642 35.7816C122.589 35.9152 122.533 36.0454 122.474 36.1723C122.249 36.6398 121.973 36.8908 121.646 36.9253C121.326 36.9665 121.019 36.8243 120.725 36.4988C120.631 36.3924 120.541 36.2794 120.453 36.1598C120.366 36.0468 120.283 35.9271 120.202 35.8007C119.857 36.1753 119.471 36.5167 119.046 36.825ZM116.481 30.0044C116.347 30.0516 116.217 30.0554 116.091 30.0159C115.971 29.9763 115.887 29.89 115.84 29.7568C115.819 29.6969 115.786 29.607 115.739 29.4872C115.692 29.3674 115.651 29.2642 115.618 29.1776L114.928 29.1802C114.861 29.2938 114.795 29.4074 114.729 29.5209C114.663 29.6278 114.596 29.7281 114.53 29.8217C114.444 29.942 114.324 30.0224 114.171 30.063C114.024 30.1036 113.881 30.0807 113.741 29.9946C113.634 29.9217 113.57 29.8186 113.549 29.6853C113.529 29.5521 113.558 29.4353 113.638 29.335C113.817 29.101 113.993 28.8303 114.165 28.523C114.344 28.209 114.49 27.9351 114.602 27.7014C114.662 27.5678 114.755 27.4842 114.881 27.4504C115.014 27.4099 115.141 27.4161 115.261 27.4689C115.388 27.5218 115.472 27.6048 115.512 27.718C115.553 27.8312 115.546 27.9512 115.493 28.0781C115.48 28.1115 115.464 28.1482 115.444 28.1883C115.424 28.2284 115.404 28.2718 115.384 28.3185L117.584 28.3103C117.704 28.3099 117.804 28.3529 117.885 28.4392C117.972 28.5189 118.015 28.6187 118.016 28.7387C118.016 28.8587 117.973 28.9622 117.887 29.0492C117.807 29.1295 117.708 29.1699 117.588 29.1703L116.688 29.1737C116.735 29.2735 116.761 29.3401 116.768 29.3734C116.822 29.5065 116.819 29.6332 116.76 29.7534C116.707 29.8669 116.614 29.9506 116.481 30.0044ZM118.902 35.6355C119.048 35.515 119.187 35.3878 119.32 35.254C119.46 35.1134 119.592 34.9696 119.718 34.8225C119.469 34.1767 119.283 33.3974 119.16 32.4845L117.46 32.4908L117.461 32.7608L118.601 32.7566C118.694 32.7563 118.771 32.786 118.831 32.8458C118.891 32.9055 118.922 32.9788 118.922 33.0654C118.922 33.1521 118.893 33.2289 118.833 33.2958C118.773 33.356 118.696 33.3863 118.603 33.3866L117.463 33.3908L117.464 33.6408L118.604 33.6366C118.697 33.6363 118.774 33.666 118.834 33.7257C118.895 33.7855 118.925 33.8621 118.925 33.9554C118.926 34.0421 118.896 34.1155 118.836 34.1757C118.776 34.236 118.7 34.2663 118.606 34.2666L117.466 34.2708L117.467 34.5308L118.607 34.5266C118.701 34.5262 118.777 34.556 118.838 34.6157C118.898 34.6755 118.928 34.7487 118.929 34.8354C118.929 34.9221 118.899 34.9989 118.839 35.0657C118.78 35.126 118.703 35.1562 118.61 35.1566L117.47 35.1608L117.471 35.5208C117.664 35.5068 117.844 35.4894 118.011 35.4688C118.177 35.4482 118.334 35.4309 118.481 35.4171C118.687 35.403 118.828 35.4758 118.902 35.6355ZM116.012 35.6562L116.461 35.6146L116.45 32.4946L116 32.4962L116.012 35.6562ZM121.696 31.4051C121.596 31.4855 121.483 31.5226 121.356 31.5164C121.23 31.5035 121.123 31.4473 121.036 31.3476C120.975 31.2745 120.888 31.1748 120.775 31.0485C120.661 30.9156 120.574 30.8159 120.513 30.7495C120.433 30.6631 120.396 30.5599 120.402 30.4399C120.415 30.3199 120.468 30.223 120.561 30.1493C120.661 30.0556 120.771 30.0119 120.891 30.0181C121.011 30.0243 121.118 30.0739 121.211 30.1669C121.271 30.2267 121.362 30.3197 121.482 30.4459C121.603 30.5655 121.696 30.6651 121.763 30.7449C121.857 30.8445 121.898 30.9577 121.885 31.0844C121.872 31.2111 121.809 31.318 121.696 31.4051ZM120.455 33.7697C120.647 33.4357 120.812 33.0917 120.951 32.7379C121.004 32.611 121.073 32.5241 121.16 32.4771L120.19 32.4807C120.224 32.7206 120.262 32.9471 120.302 33.1603C120.35 33.3735 120.401 33.5766 120.455 33.7697ZM114.707 31.691L116.357 31.6849C116.263 31.5919 116.223 31.4854 116.236 31.3654C116.156 31.4457 116.059 31.4927 115.946 31.5064C115.84 31.5135 115.739 31.4839 115.646 31.4176C115.599 31.3844 115.532 31.338 115.445 31.2783C115.365 31.2119 115.285 31.1489 115.205 31.0892C115.138 31.1761 115.072 31.2663 115.006 31.3599C114.946 31.4468 114.883 31.527 114.817 31.6006C114.79 31.6407 114.753 31.6709 114.707 31.691ZM131.416 36.7191C131.175 36.6334 130.905 36.5177 130.604 36.3721C130.304 36.2266 130.006 36.0644 129.713 35.8854C129.419 35.7065 129.158 35.5308 128.931 35.3583C128.81 35.2654 128.74 35.149 128.719 35.0091C128.705 34.8625 128.742 34.7324 128.828 34.6187C128.901 34.5318 128.981 34.4748 129.067 34.4478L126.987 34.4555C127.027 34.4754 127.067 34.4986 127.107 34.5251C127.148 34.5516 127.181 34.5848 127.208 34.6247C127.302 34.751 127.332 34.8843 127.299 35.0244C127.273 35.1578 127.207 35.2681 127.101 35.3551C126.901 35.5159 126.658 35.6834 126.372 35.8578C126.086 36.0322 125.79 36.1933 125.484 36.3411C125.185 36.4889 124.908 36.6133 124.656 36.7142C124.462 36.7882 124.289 36.8056 124.136 36.7661C123.982 36.7334 123.869 36.6338 123.795 36.4674C123.727 36.3143 123.724 36.1676 123.783 36.0274C123.842 35.8872 123.959 35.7868 124.132 35.7261C124.385 35.6319 124.651 35.5209 124.931 35.3932C125.217 35.2588 125.49 35.1211 125.749 34.9801C126.009 34.8325 126.231 34.6917 126.418 34.5576C126.444 34.5375 126.471 34.5208 126.497 34.5074C126.531 34.4872 126.561 34.4704 126.587 34.457L123.857 34.4671C123.717 34.4677 123.597 34.4214 123.497 34.3285C123.403 34.2288 123.356 34.1123 123.355 33.979C123.355 33.839 123.401 33.7222 123.494 33.6285C123.594 33.5281 123.714 33.4777 123.854 33.4771L124.234 33.4757L124.139 29.5861C124.131 29.2861 124.154 29.046 124.206 28.8658C124.266 28.6789 124.375 28.5318 124.535 28.4246C124.694 28.3107 124.924 28.2165 125.224 28.142C125.337 28.1083 125.45 28.0779 125.563 28.0508C125.683 28.017 125.8 27.9832 125.913 27.9495C126.04 27.9157 126.16 27.9219 126.273 27.9681C126.387 28.0077 126.464 28.0941 126.504 28.2273C126.551 28.3738 126.545 28.5005 126.486 28.6074C126.433 28.7076 126.339 28.7746 126.206 28.8084C126.12 28.8354 126.026 28.8657 125.927 28.8994C125.827 28.9265 125.74 28.9468 125.667 28.9604C125.46 29.0145 125.331 29.0783 125.278 29.1518C125.224 29.2187 125.202 29.3555 125.209 29.5621L125.21 29.8721L125.99 29.8692C126.124 29.8687 126.234 29.9116 126.321 29.998C126.414 30.0843 126.461 30.1941 126.462 30.3275C126.462 30.4541 126.416 30.5643 126.323 30.658C126.237 30.745 126.127 30.7887 125.994 30.7892L125.234 30.792L125.257 31.6519L125.997 31.6492C126.13 31.6487 126.24 31.6916 126.327 31.778C126.421 31.8643 126.468 31.9741 126.468 32.1074C126.469 32.2341 126.423 32.3443 126.33 32.438C126.243 32.5249 126.134 32.5687 126 32.5692L125.28 32.5718L125.304 33.4718L126.794 33.4662L126.787 31.7463C126.787 31.6063 126.833 31.4961 126.926 31.4157C127.019 31.3287 127.129 31.285 127.255 31.2845C127.389 31.284 127.499 31.3269 127.586 31.4133C127.68 31.4929 127.727 31.6028 127.727 31.7428L127.734 33.4628L128.284 33.4607L128.276 31.4707C128.275 31.2774 128.248 31.1542 128.195 31.101C128.148 31.0412 128.018 31.0117 127.804 31.0125C127.424 31.0139 127.158 30.9449 127.004 30.8054C126.856 30.6593 126.782 30.3896 126.781 29.9963L126.774 28.1663C126.773 28.0129 126.823 27.8894 126.922 27.7957C127.022 27.702 127.142 27.6549 127.282 27.6544C127.422 27.6539 127.542 27.7001 127.642 27.7931C127.75 27.886 127.803 28.0091 127.804 28.1625L127.805 28.6025L128.845 28.5986C128.965 28.5982 129.069 28.6411 129.156 28.7275C129.243 28.8071 129.287 28.907 129.287 29.027C129.288 29.147 129.245 29.2505 129.158 29.3375C129.072 29.4244 128.969 29.4682 128.849 29.4686L127.809 29.4725L127.81 29.7725C127.81 29.9525 127.844 30.069 127.911 30.1221C127.978 30.1685 128.108 30.1913 128.301 30.1906C128.615 30.1895 128.845 30.2686 128.992 30.4281C129.146 30.5808 129.224 30.8472 129.225 31.2272L129.233 33.4572L130.683 33.4518L130.7 32.5618L129.95 32.5645C129.824 32.565 129.713 32.5187 129.62 32.4258C129.533 32.3328 129.489 32.2229 129.488 32.0962C129.488 31.9696 129.531 31.8628 129.617 31.7758C129.71 31.6821 129.82 31.635 129.947 31.6345L130.717 31.6317L130.724 30.7717L129.944 30.7746C129.817 30.775 129.707 30.7321 129.613 30.6458C129.526 30.5528 129.482 30.4429 129.482 30.3163C129.481 30.1829 129.524 30.0728 129.611 29.9858C129.704 29.8988 129.813 29.855 129.94 29.8546L130.74 29.8516L130.749 29.5416C130.755 29.3282 130.721 29.1883 130.647 29.1219C130.574 29.0489 130.43 29.0127 130.217 29.0135L129.747 29.0153C129.62 29.0157 129.51 28.9695 129.417 28.8765C129.323 28.7835 129.276 28.6737 129.275 28.547C129.275 28.4137 129.321 28.3002 129.414 28.2065C129.507 28.1128 129.617 28.0657 129.744 28.0653L130.284 28.0633C130.69 28.0618 131.004 28.1073 131.224 28.1998C131.451 28.2856 131.608 28.435 131.696 28.648C131.783 28.8611 131.821 29.1542 131.809 29.5276L131.743 33.4479L132.143 33.4464C132.283 33.4459 132.4 33.4955 132.494 33.5951C132.594 33.6881 132.645 33.8046 132.645 33.9446C132.646 34.0779 132.596 34.1947 132.497 34.2951C132.404 34.3888 132.287 34.4359 132.147 34.4364L129.397 34.4466C129.431 34.4531 129.464 34.4664 129.497 34.4862C129.537 34.5061 129.571 34.526 129.598 34.5459C129.798 34.6851 130.035 34.8309 130.309 34.9832C130.583 35.1289 130.864 35.2678 131.151 35.4001C131.445 35.5257 131.705 35.6281 131.932 35.7072C132.085 35.7533 132.189 35.8429 132.243 35.9761C132.303 36.1158 132.307 36.2592 132.254 36.406C132.188 36.5929 132.072 36.7034 131.906 36.7373C131.746 36.7779 131.582 36.7719 131.416 36.7191ZM137.136 36.7579C136.963 36.8052 136.809 36.7958 136.676 36.7296C136.542 36.6701 136.448 36.5605 136.394 36.4007C136.347 36.2609 136.357 36.1308 136.423 36.0106C136.496 35.8903 136.616 35.8065 136.782 35.7592C137.208 35.6377 137.568 35.4797 137.86 35.2852C138.153 35.0842 138.385 34.8366 138.558 34.5426L136.908 34.5488C136.761 34.5493 136.644 34.5031 136.557 34.4101C136.477 34.317 136.436 34.2072 136.436 34.0805C136.435 33.9472 136.475 33.837 136.555 33.7501C136.641 33.6564 136.757 33.6093 136.904 33.6088L138.904 33.6014C138.937 33.4612 138.956 33.3112 138.962 33.1511L138.882 33.1514C138.442 33.1531 138.096 33.1077 137.842 33.0153C137.595 32.9229 137.418 32.7569 137.31 32.5173C137.203 32.2777 137.148 31.9445 137.146 31.5179C137.145 31.0179 137.213 30.6476 137.352 30.4071C137.498 30.1665 137.754 30.0089 138.12 29.9342C138.114 29.9076 138.104 29.881 138.09 29.8543C138.083 29.821 138.08 29.7877 138.08 29.7544L138.078 29.2944L137.008 29.2984C136.861 29.2989 136.745 29.2527 136.658 29.1597C136.577 29.0666 136.537 28.9568 136.536 28.8301C136.536 28.6968 136.575 28.5866 136.655 28.4997C136.741 28.406 136.858 28.3589 137.005 28.3584L138.075 28.3544L138.073 28.0144C138.073 27.8477 138.126 27.7175 138.232 27.6238C138.345 27.5234 138.475 27.4729 138.621 27.4724C138.768 27.4718 138.895 27.5213 139.002 27.621C139.109 27.7139 139.163 27.8437 139.163 28.0104L139.165 28.3504L139.965 28.3474L139.963 28.0074C139.963 27.8407 140.016 27.7105 140.122 27.6168C140.228 27.5164 140.355 27.4659 140.501 27.4654C140.655 27.4648 140.785 27.5143 140.892 27.6139C140.999 27.7069 141.053 27.8367 141.053 28.0034L141.055 28.3434L142.195 28.3391C142.341 28.3386 142.455 28.3848 142.535 28.4779C142.615 28.5642 142.656 28.6741 142.656 28.8074C142.657 28.9341 142.617 29.0442 142.538 29.1379C142.458 29.2315 142.345 29.2786 142.198 29.2791L141.058 29.2833L141.06 29.7433C141.06 29.7767 141.057 29.81 141.05 29.8434C141.044 29.8701 141.034 29.9001 141.021 29.9335C141.374 30.0055 141.621 30.1613 141.762 30.4007C141.91 30.6402 141.985 31.0066 141.986 31.4999C141.988 31.9266 141.936 32.2601 141.83 32.5005C141.724 32.7409 141.545 32.9082 141.292 33.0025C141.039 33.0968 140.689 33.1447 140.242 33.1464L140.072 33.147C140.066 33.2204 140.06 33.2971 140.053 33.3771C140.047 33.4505 140.037 33.5238 140.024 33.5972L142.244 33.589C142.391 33.5884 142.504 33.6347 142.585 33.7277C142.672 33.8141 142.715 33.9239 142.716 34.0572C142.716 34.1839 142.673 34.2941 142.587 34.3877C142.507 34.4813 142.394 34.5284 142.248 34.529L140.508 34.5354C140.749 34.8145 141.026 35.0502 141.34 35.2423C141.654 35.4345 141.992 35.5933 142.352 35.7186C142.526 35.7779 142.643 35.8675 142.703 35.9873C142.763 36.1071 142.767 36.2404 142.714 36.3873C142.668 36.5341 142.572 36.6378 142.426 36.6983C142.279 36.7655 142.126 36.7728 141.966 36.72C141.518 36.5684 141.081 36.3333 140.653 36.0149C140.225 35.7031 139.874 35.3511 139.599 34.9588C139.149 35.7938 138.328 36.3935 137.136 36.7579ZM135.316 36.8047C135.169 36.8052 135.046 36.759 134.945 36.6661C134.845 36.5731 134.795 36.4466 134.794 36.2866L134.781 32.8766C134.676 33.1037 134.566 33.3208 134.454 33.5279C134.348 33.7282 134.249 33.9019 134.156 34.049C134.076 34.1759 133.963 34.2597 133.817 34.3002C133.677 34.3407 133.54 34.3246 133.406 34.2517C133.28 34.1789 133.199 34.0725 133.165 33.9326C133.131 33.7861 133.158 33.656 133.244 33.5423C133.363 33.3619 133.496 33.1381 133.641 32.8709C133.794 32.6036 133.943 32.3231 134.088 32.0292C134.234 31.7287 134.366 31.4415 134.485 31.1677C134.611 30.8939 134.707 30.6602 134.772 30.4667L133.792 30.4703C133.639 30.4709 133.516 30.4213 133.422 30.3217C133.328 30.222 133.281 30.1022 133.281 29.9622C133.28 29.8222 133.326 29.7053 133.419 29.6117C133.512 29.5113 133.635 29.4609 133.789 29.4603L134.769 29.4567L134.763 28.0367C134.763 27.87 134.812 27.7398 134.912 27.6461C135.012 27.5524 135.135 27.5053 135.281 27.5047C135.435 27.5042 135.558 27.5504 135.652 27.6434C135.752 27.7363 135.803 27.8661 135.803 28.0328L135.809 29.4528L136.509 29.4502C136.662 29.4496 136.782 29.4992 136.869 29.5989C136.963 29.6919 137.01 29.8084 137.011 29.9484C137.011 30.0883 136.965 30.2085 136.872 30.3089C136.786 30.4092 136.666 30.4596 136.512 30.4602L135.812 30.4628L135.814 31.0028C135.908 31.1091 136.029 31.252 136.176 31.4315C136.33 31.6109 136.481 31.787 136.628 31.9598C136.775 32.1259 136.896 32.2555 136.989 32.3484C137.09 32.4547 137.14 32.5812 137.141 32.7279C137.141 32.8746 137.085 32.9981 136.972 33.0985C136.866 33.1989 136.736 33.2427 136.583 33.23C136.436 33.2172 136.316 33.1509 136.222 33.0313C136.175 32.9715 136.115 32.895 136.041 32.802C135.974 32.7089 135.9 32.6092 135.82 32.5028L135.834 36.2828C135.835 36.4428 135.785 36.5696 135.685 36.6633C135.592 36.757 135.469 36.8041 135.316 36.8047ZM139.029 32.3409L140.109 32.3369C140.376 32.3359 140.563 32.3085 140.669 32.2548C140.776 32.2011 140.838 32.0708 140.858 31.8641L138.268 31.8737C138.295 32.0803 138.362 32.21 138.469 32.263C138.576 32.3159 138.763 32.3419 139.029 32.3409ZM138.265 31.1337L140.855 31.1241C140.828 30.9309 140.757 30.8111 140.644 30.7649C140.537 30.712 140.357 30.686 140.103 30.6869L139.023 30.6909C138.763 30.6919 138.58 30.7192 138.474 30.7729C138.367 30.82 138.298 30.9403 138.265 31.1337ZM139.15 29.8804L139.99 29.8773C139.977 29.824 139.97 29.7807 139.97 29.7474L139.968 29.2874L139.168 29.2903L139.17 29.7503C139.17 29.7837 139.163 29.827 139.15 29.8804ZM147.444 36.3897C147.284 36.3903 147.158 36.3408 147.064 36.2411C146.97 36.1415 146.923 36.0183 146.923 35.8717C146.922 35.7317 146.968 35.6115 147.061 35.5111C147.154 35.4108 147.281 35.3603 147.441 35.3597L148.111 35.3572L148.089 29.5373C148.088 29.124 148.143 28.7971 148.255 28.5567C148.368 28.3162 148.554 28.1456 148.814 28.0446C149.073 27.937 149.42 27.8823 149.853 27.8807L150.193 27.8795C150.633 27.8778 150.98 27.9299 151.234 28.0356C151.494 28.1347 151.681 28.304 151.795 28.5435C151.91 28.7831 151.968 29.1096 151.969 29.5229L151.991 35.3429L152.381 35.3414C152.541 35.3408 152.667 35.3904 152.761 35.49C152.855 35.5897 152.902 35.7095 152.903 35.8495C152.903 35.9962 152.857 36.1197 152.764 36.22C152.671 36.3203 152.544 36.3708 152.384 36.3714L147.444 36.3897ZM145.606 36.7665C145.453 36.7671 145.322 36.7176 145.215 36.618C145.115 36.5184 145.064 36.3852 145.064 36.2185L145.05 32.5986C144.837 32.626 144.637 32.6534 144.451 32.6808C144.264 32.7015 144.104 32.7187 143.971 32.7326C143.804 32.7532 143.661 32.7204 143.541 32.6342C143.427 32.5413 143.363 32.4115 143.349 32.2449C143.335 32.0916 143.371 31.9615 143.458 31.8545C143.551 31.7408 143.68 31.6803 143.847 31.673C143.894 31.6662 143.944 31.6627 143.997 31.6625C144.057 31.6622 144.117 31.6587 144.177 31.6518C144.27 31.5315 144.376 31.3877 144.495 31.2206C144.621 31.0468 144.754 30.8663 144.893 30.6791C144.773 30.5863 144.629 30.4834 144.462 30.3707C144.295 30.2514 144.135 30.1386 143.981 30.0325C143.834 29.9197 143.717 29.8368 143.63 29.7838C143.503 29.7043 143.426 29.5946 143.399 29.4547C143.378 29.3147 143.408 29.1813 143.487 29.0543C143.573 28.9207 143.69 28.8403 143.836 28.813C143.983 28.7792 144.12 28.8053 144.247 28.8915L144.327 28.9412C144.393 28.8276 144.473 28.694 144.565 28.5403C144.658 28.3867 144.744 28.2397 144.824 28.0994C144.91 27.9591 144.969 27.8522 145.003 27.7787C145.075 27.6451 145.185 27.558 145.332 27.5175C145.485 27.4703 145.628 27.4831 145.762 27.5559C145.889 27.6221 145.969 27.7251 146.003 27.865C146.037 28.0049 146.017 28.1383 145.944 28.2652C145.891 28.3588 145.815 28.4824 145.716 28.6361C145.623 28.7898 145.524 28.9468 145.417 29.1072C145.318 29.2676 145.229 29.4046 145.149 29.5182L145.52 29.7868C145.673 29.5796 145.809 29.3857 145.928 29.2053C146.054 29.0248 146.153 28.8778 146.226 28.7642C146.319 28.6305 146.439 28.5501 146.585 28.5229C146.732 28.4956 146.869 28.5251 146.996 28.6113C147.129 28.6908 147.21 28.8039 147.237 28.9504C147.264 29.097 147.235 29.2338 147.148 29.3608C147.036 29.5145 146.886 29.7151 146.701 29.9624C146.522 30.2098 146.329 30.4705 146.124 30.7446C145.918 31.0187 145.722 31.2794 145.536 31.5268C145.723 31.5127 145.906 31.4954 146.086 31.4747C146.266 31.4541 146.429 31.4368 146.576 31.4229L146.475 31.1933C146.421 31.0668 146.424 30.9435 146.484 30.8232C146.55 30.6963 146.646 30.6093 146.773 30.5622C146.906 30.5083 147.033 30.5079 147.153 30.5608C147.28 30.607 147.377 30.6966 147.444 30.8297C147.491 30.9162 147.551 31.046 147.625 31.219C147.699 31.3854 147.773 31.5551 147.847 31.7282C147.921 31.8946 147.975 32.0277 148.009 32.1276C148.063 32.2674 148.066 32.3974 148.02 32.5176C147.974 32.6377 147.874 32.7281 147.721 32.7887C147.575 32.8425 147.435 32.8431 147.301 32.7902C147.168 32.7374 147.074 32.6444 147.02 32.5113C147.013 32.4846 147.003 32.4547 146.99 32.4214C146.976 32.3881 146.963 32.3548 146.949 32.3215C146.843 32.3419 146.72 32.3624 146.58 32.3829C146.44 32.4034 146.293 32.424 146.14 32.4445L146.154 36.2145C146.154 36.3812 146.102 36.5147 145.995 36.6151C145.889 36.7155 145.759 36.766 145.606 36.7665ZM143.742 35.6634C143.615 35.6172 143.518 35.5376 143.451 35.4245C143.39 35.3047 143.387 35.1814 143.44 35.0546C143.492 34.921 143.552 34.7541 143.618 34.5539C143.69 34.347 143.756 34.14 143.815 33.9332C143.875 33.7263 143.921 33.5494 143.953 33.4026C143.986 33.2692 144.059 33.1689 144.172 33.1018C144.292 33.0347 144.422 33.0176 144.562 33.0504C144.696 33.0766 144.796 33.1462 144.863 33.2593C144.93 33.3724 144.947 33.4956 144.914 33.6291C144.881 33.7825 144.835 33.966 144.776 34.1796C144.717 34.3865 144.654 34.5934 144.589 34.8003C144.523 35.0005 144.463 35.1741 144.411 35.321C144.358 35.4545 144.265 35.5548 144.132 35.622C144.005 35.6891 143.875 35.7029 143.742 35.6634ZM149.241 35.3531L150.811 35.3472L150.805 33.8672L149.235 33.8731L149.241 35.3531ZM149.231 32.8131L150.801 32.8073L150.796 31.4173L149.226 31.4231L149.231 32.8131ZM149.222 30.3631L150.792 30.3573L150.789 29.5873C150.788 29.3406 150.738 29.1775 150.637 29.0978C150.544 29.0115 150.357 28.9689 150.077 28.9699L149.927 28.9705C149.647 28.9715 149.457 29.0155 149.357 29.1026C149.264 29.1829 149.218 29.3464 149.219 29.5931L149.222 30.3631ZM147.39 35.0499C147.243 35.0971 147.106 35.0943 146.979 35.0414C146.859 34.9819 146.776 34.8855 146.728 34.7524C146.695 34.6525 146.651 34.526 146.597 34.3728C146.543 34.213 146.493 34.0566 146.445 33.9034C146.398 33.7436 146.361 33.6137 146.334 33.5138C146.3 33.3806 146.316 33.2572 146.382 33.1436C146.455 33.03 146.558 32.9596 146.692 32.9325C146.825 32.8987 146.945 32.9115 147.052 32.9712C147.165 33.0307 147.242 33.1238 147.283 33.2503C147.31 33.3435 147.35 33.4634 147.404 33.6099C147.458 33.7563 147.512 33.9028 147.566 34.0493C147.62 34.1957 147.663 34.3156 147.697 34.4088C147.751 34.5419 147.748 34.6686 147.689 34.7888C147.629 34.909 147.529 34.9961 147.39 35.0499ZM160.185 36.4225C159.598 36.4247 159.128 36.3698 158.774 36.2577C158.427 36.1457 158.176 35.9499 158.022 35.6705C157.874 35.3844 157.799 34.9913 157.798 34.4913L157.774 28.2014C157.774 28.0147 157.833 27.8678 157.953 27.7607C158.072 27.6469 158.215 27.5897 158.382 27.5891C158.549 27.5885 158.689 27.6446 158.803 27.7576C158.923 27.8638 158.984 28.0102 158.984 28.1969L158.994 30.8669C159.267 30.7325 159.55 30.5915 159.843 30.4437C160.135 30.296 160.411 30.1483 160.671 30.0007C160.937 29.853 161.16 29.7188 161.339 29.5982C161.492 29.5043 161.659 29.4637 161.839 29.4763C162.019 29.489 162.153 29.5718 162.24 29.7248C162.327 29.8712 162.354 30.0277 162.322 30.1945C162.289 30.3547 162.203 30.4816 162.063 30.5755C161.77 30.7566 161.444 30.9411 161.085 31.1291C160.732 31.3104 160.376 31.4851 160.017 31.6531C159.658 31.8144 159.318 31.959 158.999 32.0869L159.007 34.3969C159.008 34.6102 159.039 34.7767 159.099 34.8965C159.166 35.0163 159.283 35.0992 159.45 35.1452C159.623 35.1912 159.87 35.2137 160.19 35.2125C160.484 35.2114 160.713 35.1872 160.88 35.1399C161.053 35.0859 161.179 34.9955 161.259 34.8685C161.345 34.7415 161.408 34.5646 161.447 34.3378C161.48 34.1577 161.566 34.024 161.705 33.9368C161.845 33.843 162.005 33.8124 162.185 33.8451C162.365 33.8711 162.502 33.9472 162.596 34.0735C162.696 34.1998 162.734 34.353 162.708 34.5331C162.624 35.2001 162.389 35.681 162.003 35.9758C161.617 36.2705 161.011 36.4194 160.185 36.4225ZM155.676 36.6792C155.509 36.6798 155.369 36.627 155.255 36.5208C155.141 36.4145 155.084 36.2714 155.083 36.0914L155.066 31.4314C154.92 31.612 154.774 31.7859 154.628 31.9531C154.489 32.1136 154.353 32.2608 154.22 32.3946C154.113 32.5083 153.977 32.5721 153.81 32.5861C153.65 32.5934 153.51 32.5439 153.39 32.4377C153.276 32.3381 153.212 32.2116 153.198 32.0584C153.185 31.8984 153.231 31.7649 153.337 31.6578C153.576 31.4103 153.818 31.1294 154.064 30.8151C154.316 30.4942 154.558 30.1633 154.79 29.8224C155.029 29.4749 155.241 29.1374 155.426 28.8101C155.619 28.4827 155.774 28.1855 155.893 27.9183C155.966 27.7647 156.076 27.661 156.222 27.6071C156.375 27.5532 156.525 27.5593 156.672 27.6255C156.826 27.6916 156.926 27.7979 156.973 27.9443C157.02 28.0842 157.011 28.2309 156.945 28.3845C156.859 28.5914 156.753 28.8085 156.627 29.0356C156.508 29.2561 156.382 29.4799 156.25 29.707L156.273 36.087C156.274 36.267 156.215 36.4105 156.095 36.5177C155.982 36.6247 155.842 36.6786 155.676 36.6792Z" fill="#FE585B"/>
<path d="M59.1086 59.0105C58.8632 59.0114 58.6496 58.9322 58.4677 58.7728C58.2964 58.6135 58.2103 58.4004 58.2093 58.1338L58.1909 53.1738C57.9897 53.5692 57.7885 53.9486 57.5871 54.3121C57.3965 54.6754 57.2109 54.9801 57.0305 55.2261C56.9032 55.4079 56.717 55.5366 56.4719 55.6122C56.2269 55.6771 55.9867 55.6247 55.7514 55.4549C55.5802 55.3275 55.4782 55.1465 55.4453 54.912C55.4231 54.6774 55.4811 54.4745 55.6191 54.3034C55.7995 54.0574 56.0011 53.7579 56.2238 53.4051C56.4571 53.0416 56.6903 52.6567 56.9235 52.2505C57.1673 51.8443 57.3898 51.4434 57.591 51.048C57.8029 50.6526 57.9776 50.2946 58.1151 49.9741L56.5151 49.98C56.2804 49.9809 56.0774 49.9016 55.9062 49.7423C55.7456 49.5722 55.6648 49.3698 55.6639 49.1352C55.6631 48.9005 55.7423 48.7029 55.9017 48.5423C56.0718 48.371 56.2741 48.2849 56.5088 48.284L58.1728 48.2778L58.1679 46.9499C57.9227 46.9934 57.6829 47.0423 57.4484 47.0965C57.2139 47.1401 56.99 47.1782 56.7768 47.211C56.1478 47.3093 55.7843 47.0814 55.6863 46.5271C55.6427 46.2819 55.6953 46.079 55.844 45.9185C55.9928 45.7579 56.195 45.6558 56.4509 45.6122C56.856 45.5467 57.3143 45.4597 57.8259 45.3511C58.3482 45.2318 58.8543 45.102 59.3445 44.9615C59.8453 44.821 60.2555 44.6861 60.575 44.5569C60.82 44.46 61.0493 44.4485 61.2629 44.5224C61.4765 44.5962 61.621 44.7397 61.6965 44.9528C61.7933 45.1871 61.8048 45.411 61.731 45.6246C61.6571 45.8382 61.4976 45.9882 61.2526 46.0744C60.8692 46.2252 60.4324 46.3655 59.9422 46.4953L59.9488 48.2713L61.2448 48.2665C61.4794 48.2656 61.6771 48.3502 61.8377 48.5203C62.009 48.6796 62.095 48.8766 62.0959 49.1113C62.0968 49.346 62.0122 49.549 61.8421 49.7203C61.6827 49.8808 61.4857 49.9616 61.251 49.9624L59.955 49.9673L59.9577 50.6872C60.1398 50.8786 60.3486 51.1018 60.5842 51.3569C60.8304 51.6014 61.0713 51.8351 61.3068 52.0583C61.5423 52.2814 61.7296 52.4567 61.8688 52.5842C62.0506 52.7328 62.142 52.9245 62.1429 53.1592C62.1544 53.3938 62.0805 53.6021 61.9212 53.784C61.7512 53.966 61.5436 54.0574 61.2982 54.0583C61.0635 54.0485 60.8605 53.9586 60.6892 53.7886C60.6036 53.7035 60.4965 53.5866 60.3679 53.4377C60.25 53.2888 60.1161 53.1347 59.9662 52.9752L59.9853 58.1272C59.9863 58.3939 59.9017 58.6075 59.7317 58.7681C59.5616 58.9288 59.3539 59.0095 59.1086 59.0105ZM61.8423 58.4083C61.6077 58.4092 61.4101 58.3299 61.2495 58.1705C61.0889 58.0111 61.0082 57.8194 61.0073 57.5954C61.0065 57.3607 61.0857 57.1631 61.2451 57.0025C61.4045 56.8419 61.6016 56.7612 61.8362 56.7603L65.0042 56.7486L64.9993 55.4206L63.0793 55.4277C62.8553 55.4285 62.663 55.3493 62.5024 55.1898C62.3418 55.0304 62.2611 54.8387 62.2603 54.6147C62.2595 54.3907 62.3388 54.2038 62.4982 54.0539C62.6576 53.8933 62.8493 53.8126 63.0733 53.8117L64.9933 53.8046L64.989 52.6526L62.7011 52.6611C62.4771 52.6619 62.2848 52.5826 62.1242 52.4232C61.9636 52.2638 61.8829 52.0721 61.882 51.8481C61.8812 51.6241 61.9605 51.4372 62.12 51.2872C62.2794 51.1266 62.4711 51.0459 62.6951 51.0451L69.271 51.0207C69.495 51.0199 69.682 51.0992 69.8319 51.2587C69.9925 51.4074 70.0731 51.5938 70.074 51.8178C70.0748 52.0418 69.9955 52.2341 69.8361 52.3946C69.6874 52.5552 69.501 52.6359 69.277 52.6367L66.909 52.6455L66.9133 53.7975L68.7693 53.7906C68.9933 53.7898 69.1856 53.8691 69.3462 54.0285C69.5067 54.1772 69.5874 54.3636 69.5882 54.5876C69.5891 54.8116 69.5098 55.0039 69.3504 55.1645C69.191 55.3251 68.9993 55.4058 68.7753 55.4066L66.9193 55.4135L66.9242 56.7415L69.7402 56.731C69.9642 56.7302 70.1565 56.8095 70.3171 56.9689C70.4883 57.1283 70.5744 57.3253 70.5753 57.5599C70.5761 57.7839 70.4915 57.9763 70.3214 58.1369C70.162 58.2975 69.9703 58.3782 69.7463 58.379L61.8423 58.4083ZM65.4116 50.107C64.6329 50.1099 64.0246 50.0268 63.5867 49.8578C63.1487 49.6887 62.8383 49.4126 62.6556 49.0292C62.4728 48.6352 62.3802 48.1023 62.3777 47.4303C62.3752 46.7583 62.4639 46.2299 62.6438 45.8453C62.8237 45.4499 63.132 45.1714 63.5687 45.0098C64.0054 44.8375 64.6131 44.75 65.3917 44.7471L66.5437 44.7428C67.3224 44.7399 67.9307 44.823 68.3687 44.992C68.8066 45.1504 69.1169 45.4266 69.2997 45.8206C69.4825 46.2039 69.5751 46.7316 69.5776 47.4036C69.5801 48.0756 69.4914 48.6092 69.3115 49.0046C69.1316 49.3892 68.8233 49.6677 68.3866 49.84C67.9499 50.0123 67.3423 50.0999 66.5636 50.1028L65.4116 50.107ZM65.3894 48.4271L66.5734 48.4227C67.0214 48.4211 67.3251 48.3559 67.4847 48.2273C67.6548 48.088 67.7391 47.8157 67.7376 47.4104C67.7361 47.0051 67.6604 46.7333 67.5106 46.5952C67.3714 46.4571 67.0778 46.3888 66.6298 46.3905L65.3818 46.3951C64.9338 46.3968 64.6248 46.4673 64.4546 46.6066C64.2951 46.7458 64.2161 47.0181 64.2176 47.4234C64.2192 47.8288 64.3002 48.1005 64.4607 48.2385C64.6318 48.3659 64.9414 48.4288 65.3894 48.4271ZM82.448 57.7239C81.773 56.9264 81.1503 55.8301 80.5798 54.4348C80.0092 53.0396 79.5814 51.2812 79.2962 49.1596L72.5762 49.1845C72.3096 49.1855 72.0906 49.1009 71.9193 48.9309C71.7586 48.7502 71.6778 48.5318 71.6769 48.2758C71.6759 48.0305 71.7552 47.8222 71.9145 47.6509C72.0845 47.4689 72.3029 47.3775 72.5695 47.3765L79.0975 47.3523C79.0748 46.9897 79.0521 46.6164 79.0293 46.2325C79.0172 45.8486 78.9998 45.4593 78.977 45.0647C78.9759 44.766 79.0657 44.531 79.2464 44.3597C79.4377 44.1777 79.6667 44.0862 79.9334 44.0852C80.2 44.0842 80.4244 44.1687 80.6063 44.3387C80.7989 44.498 80.8958 44.7323 80.8969 45.0416C80.8877 45.4363 80.8892 45.8256 80.9013 46.2096C80.924 46.5935 80.9468 46.9721 80.9695 47.3453L85.4014 47.3289C85.6788 47.3279 85.8978 47.4177 86.0584 47.5985C86.2191 47.7686 86.2998 47.9763 86.3008 48.2216C86.3017 48.4776 86.2225 48.6965 86.0632 48.8785C85.9038 49.0497 85.6855 49.1359 85.4081 49.1369L81.1682 49.1526C81.4092 50.8584 81.7666 52.3291 82.2405 53.5647C82.7251 54.7896 83.2618 55.7049 83.8507 56.3107C84.0114 56.4808 84.145 56.555 84.2516 56.5332C84.3688 56.5008 84.475 56.3884 84.5703 56.1961C84.6232 56.0785 84.6867 55.945 84.7608 55.7954C84.8349 55.6351 84.8931 55.5015 84.9353 55.3947C85.0411 55.149 85.2058 54.9884 85.4296 54.9129C85.6639 54.8267 85.8986 54.8311 86.1336 54.9263C86.3793 55.032 86.5453 55.1967 86.6314 55.4204C86.7282 55.6334 86.7397 55.852 86.6659 56.0763C86.592 56.3006 86.5075 56.5142 86.4123 56.7172C86.3277 56.9202 86.2272 57.1446 86.1107 57.3904C85.825 57.9888 85.4744 58.3901 85.0592 58.5943C84.644 58.8091 84.2068 58.8374 83.7475 58.6791C83.299 58.5315 82.8658 58.2131 82.448 57.7239ZM72.9303 58.3672C72.6318 58.411 72.3862 58.3586 72.1937 58.2099C72.0012 58.072 71.8777 57.8644 71.8234 57.5873C71.7797 57.3101 71.8322 57.0859 71.9809 56.9147C72.1402 56.7328 72.3638 56.62 72.6516 56.5762C72.7263 56.5653 72.9661 56.5271 73.3712 56.4616C73.7763 56.3961 74.256 56.3196 74.8104 56.2322L74.7976 52.7763L72.8776 52.7834C72.6109 52.7844 72.3973 52.6998 72.2366 52.5297C72.0867 52.3596 72.0112 52.1572 72.0104 51.9226C72.0095 51.6773 72.0834 51.4743 72.2321 51.3138C72.3915 51.1425 72.6045 51.0564 72.8712 51.0554L78.4391 51.0347C78.7058 51.0338 78.9141 51.1183 79.0641 51.2884C79.214 51.4479 79.2894 51.6503 79.2903 51.8956C79.2912 52.1303 79.2173 52.3332 79.0686 52.5044C78.9199 52.6756 78.7122 52.7617 78.4455 52.7627L76.7815 52.7689L76.7932 55.9049C77.3582 55.8175 77.8539 55.7356 78.2803 55.6594C78.7173 55.5831 78.9892 55.5394 79.0958 55.5283C79.3729 55.474 79.597 55.5052 79.7681 55.6219C79.9499 55.7385 80.0626 55.9248 80.1062 56.1806C80.1605 56.4364 80.124 56.6552 79.9966 56.837C79.8799 57.0081 79.699 57.1208 79.4539 57.175C79.358 57.1967 79.1448 57.2402 78.8144 57.3054C78.4839 57.36 78.0842 57.4308 77.6152 57.5178C77.1461 57.6049 76.6558 57.6921 76.1441 57.7793C75.6325 57.8772 75.1421 57.9697 74.6731 58.0568C74.2148 58.1438 73.8257 58.2146 73.5059 58.2691C73.1968 58.3236 73.0049 58.3563 72.9303 58.3672ZM84.4086 47.1086C84.2172 47.2693 83.9935 47.3395 83.7374 47.3191C83.492 47.2987 83.2783 47.1981 83.0963 47.0175C83.0213 46.9324 82.9142 46.8261 82.7751 46.6986C82.6359 46.5605 82.4968 46.4277 82.3576 46.3002C82.2185 46.1727 82.1061 46.0718 82.0205 45.9974C81.8493 45.8487 81.7632 45.6571 81.7624 45.4224C81.7721 45.1877 81.8621 44.9847 82.0321 44.8134C82.2021 44.6314 82.399 44.5294 82.623 44.5072C82.8576 44.485 83.0712 44.5589 83.2638 44.7288C83.3601 44.8031 83.4885 44.9147 83.649 45.0634C83.8095 45.2015 83.9647 45.3396 84.1146 45.4777C84.2751 45.6157 84.3928 45.7273 84.4678 45.8124C84.6498 45.993 84.7306 46.2114 84.7102 46.4675C84.7005 46.7128 84.5999 46.9266 84.4086 47.1086ZM98.7504 57.2795C97.5878 57.2838 96.7656 57.0735 96.2841 56.6486C95.8131 56.2131 95.5758 55.4886 95.572 54.4753L95.551 48.8113C95.5473 47.798 95.7792 47.0771 96.247 46.6487C96.7254 46.2203 97.546 46.0039 98.7086 45.9996C99.8713 45.9953 100.688 46.2056 101.159 46.6305C101.641 47.0554 101.883 47.7745 101.887 48.7878L101.908 54.4678C101.912 55.4704 101.674 56.1913 101.196 56.6304C100.728 57.0588 99.9131 57.2752 98.7504 57.2795ZM91.7643 58.8894C91.5083 58.8904 91.2894 58.8058 91.1074 58.6358C90.9361 58.4765 90.85 58.2528 90.8489 57.9648L90.8324 53.5008C90.5779 53.9178 90.3181 54.3187 90.0528 54.7037C89.7982 55.078 89.5647 55.3935 89.3523 55.6503C89.1824 55.8536 88.9642 55.9771 88.6977 56.0208C88.4418 56.0644 88.207 56.0119 87.9931 55.8634C87.7899 55.7148 87.6665 55.5179 87.6229 55.2727C87.59 55.0275 87.6585 54.8086 87.8285 54.616C88.0409 54.3698 88.2798 54.0703 88.5451 53.7173C88.8105 53.3537 89.081 52.9687 89.3569 52.5623C89.6327 52.1559 89.8872 51.755 90.1204 51.3595C90.3643 50.9639 90.5656 50.6111 90.7245 50.3012L88.5645 50.3092C88.3085 50.3102 88.1002 50.2256 87.9396 50.0555C87.7896 49.8854 87.7142 49.683 87.7133 49.4484C87.7124 49.203 87.7863 49.0001 87.9351 48.8395C88.0944 48.6683 88.3021 48.5822 88.5581 48.5812L90.8141 48.5729L90.808 46.9249C90.5096 46.99 90.2164 47.0497 89.9286 47.1041C89.6515 47.1585 89.3904 47.2075 89.1452 47.251C88.8787 47.2947 88.6439 47.2582 88.4408 47.1417C88.2377 47.0251 88.1036 46.8282 88.0386 46.5511C87.995 46.306 88.0315 46.0925 88.1482 45.9107C88.2648 45.7183 88.4457 45.6056 88.691 45.5727C89.0321 45.5288 89.4212 45.4633 89.8582 45.3764C90.3059 45.2787 90.7588 45.1704 91.217 45.0513C91.6859 44.9323 92.1281 44.808 92.5437 44.6784C92.9699 44.5488 93.3268 44.4302 93.6144 44.3225C93.8594 44.2362 94.0941 44.2407 94.3184 44.3358C94.5427 44.4203 94.698 44.5851 94.7842 44.8301C94.8705 45.0858 94.8714 45.3151 94.7868 45.5181C94.7129 45.7211 94.5534 45.8657 94.3084 45.9519C93.8716 46.1028 93.3176 46.2702 92.6463 46.4541L92.6541 48.566L94.3181 48.5599C94.5847 48.5589 94.793 48.6434 94.943 48.8136C95.1036 48.973 95.1844 49.1753 95.1853 49.4207C95.1861 49.6553 95.1069 49.8583 94.9475 50.0296C94.7988 50.2008 94.5911 50.2869 94.3245 50.2879L92.6605 50.294L92.662 50.71C92.8441 50.912 93.0797 51.1565 93.3687 51.4434C93.6578 51.7303 93.9468 52.0066 94.2358 52.2722C94.5248 52.5378 94.7549 52.745 94.9261 52.8937C95.1294 53.0529 95.2422 53.2605 95.2644 53.5164C95.2867 53.7723 95.2129 53.9966 95.0429 54.1892C94.873 54.3819 94.66 54.4786 94.404 54.4796C94.1587 54.4805 93.9397 54.396 93.7471 54.226C93.6079 54.0985 93.442 53.9392 93.2493 53.7479C93.0672 53.5459 92.8744 53.3279 92.6709 53.094L92.6889 57.958C92.69 58.246 92.6001 58.4703 92.4194 58.631C92.2494 58.8023 92.031 58.8884 91.7643 58.8894ZM98.7438 55.4875C99.2771 55.4855 99.6181 55.3989 99.7668 55.2277C99.9262 55.0565 100.005 54.7308 100.003 54.2508L99.9837 49.0029C99.982 48.5229 99.9008 48.1978 99.7401 48.0278C99.5902 47.8577 99.2485 47.7736 98.7152 47.7756C98.1925 47.7775 97.8515 47.8641 97.6921 48.0354C97.5434 48.2066 97.47 48.5322 97.4718 49.0122L97.4912 54.2602C97.493 54.7402 97.5689 55.0652 97.7188 55.2353C97.8795 55.4054 98.2211 55.4895 98.7438 55.4875ZM109.62 58.7912C109.343 58.8669 109.098 58.8518 108.884 58.746C108.67 58.6507 108.52 58.4753 108.434 58.2196C108.358 57.9959 108.374 57.7878 108.48 57.5954C108.596 57.403 108.788 57.269 109.054 57.1933C109.736 56.9988 110.311 56.746 110.779 56.4349C111.248 56.1132 111.619 55.7171 111.895 55.2468L109.255 55.2566C109.02 55.2574 108.833 55.1835 108.694 55.0346C108.566 54.8858 108.501 54.71 108.5 54.5074C108.499 54.294 108.563 54.1178 108.69 53.9786C108.828 53.8288 109.015 53.7534 109.249 53.7526L112.449 53.7407C112.502 53.5165 112.533 53.2764 112.543 53.0204L112.415 53.0208C111.711 53.0234 111.156 52.9508 110.75 52.803C110.355 52.6551 110.071 52.3895 109.899 52.0061C109.727 51.6228 109.64 51.0898 109.637 50.4071C109.634 49.6071 109.744 49.0147 109.966 48.6299C110.2 48.245 110.609 47.9928 111.196 47.8733C111.185 47.8307 111.169 47.7881 111.147 47.7455C111.136 47.6922 111.131 47.6389 111.131 47.5856L111.128 46.8496L109.416 46.8559C109.181 46.8568 108.994 46.7828 108.855 46.634C108.726 46.4851 108.662 46.3094 108.661 46.1067C108.66 45.8934 108.724 45.7171 108.851 45.578C108.989 45.4281 109.176 45.3528 109.41 45.3519L111.122 45.3456L111.12 44.8016C111.119 44.5349 111.204 44.3266 111.374 44.1766C111.555 44.016 111.762 43.9352 111.997 43.9343C112.232 43.9334 112.435 44.0127 112.606 44.1721C112.777 44.3208 112.863 44.5284 112.864 44.7951L112.866 45.3391L114.146 45.3344L114.144 44.7904C114.143 44.5237 114.228 44.3154 114.398 44.1654C114.568 44.0048 114.77 43.924 115.005 43.9232C115.25 43.9223 115.459 44.0015 115.63 44.1609C115.801 44.3096 115.887 44.5172 115.888 44.7839L115.89 45.3279L117.714 45.3211C117.949 45.3203 118.13 45.3943 118.259 45.5431C118.388 45.6813 118.452 45.8571 118.453 46.0704C118.454 46.2731 118.39 46.4493 118.263 46.5991C118.136 46.7489 117.954 46.8243 117.72 46.8251L115.896 46.8319L115.899 47.5679C115.899 47.6212 115.894 47.6746 115.883 47.7279C115.873 47.7706 115.857 47.8187 115.836 47.8721C116.401 47.9874 116.797 48.2366 117.022 48.6197C117.259 49.0028 117.378 49.5891 117.381 50.3784C117.383 51.0611 117.3 51.5947 117.131 51.9793C116.962 52.364 116.675 52.6317 116.27 52.7825C115.865 52.9334 115.305 53.0101 114.591 53.0128L114.319 53.0138C114.308 53.1311 114.298 53.2539 114.288 53.3819C114.278 53.4993 114.262 53.6167 114.241 53.7341L117.793 53.7209C118.028 53.72 118.21 53.794 118.338 53.9429C118.477 54.081 118.547 54.2568 118.548 54.4701C118.549 54.6728 118.48 54.849 118.342 54.9989C118.215 55.1487 118.034 55.224 117.799 55.2249L115.015 55.2352C115.401 55.6818 115.845 56.0588 116.347 56.3663C116.85 56.6738 117.389 56.9278 117.966 57.1283C118.244 57.2233 118.431 57.3666 118.528 57.5582C118.624 57.7498 118.63 57.9632 118.546 58.1981C118.472 58.4331 118.318 58.599 118.084 58.6959C117.85 58.8034 117.604 58.815 117.348 58.7306C116.632 58.4879 115.932 58.1118 115.248 57.6024C114.563 57.1036 114.001 56.5403 113.561 55.9126C112.841 57.2486 111.527 58.2082 109.62 58.7912ZM106.708 58.866C106.474 58.8669 106.276 58.793 106.116 58.6442C105.955 58.4955 105.874 58.2931 105.873 58.0371L105.853 52.5811C105.684 52.9444 105.509 53.2918 105.329 53.6231C105.159 53.9437 105 54.2217 104.852 54.4569C104.725 54.66 104.544 54.794 104.309 54.8589C104.086 54.9237 103.867 54.8979 103.653 54.7813C103.45 54.6647 103.321 54.4945 103.267 54.2707C103.213 54.0363 103.255 53.8281 103.393 53.6463C103.584 53.3576 103.796 52.9994 104.029 52.5719C104.273 52.1443 104.511 51.6955 104.744 51.2253C104.977 50.7444 105.189 50.2849 105.379 49.8469C105.58 49.4088 105.733 49.0349 105.839 48.7252L104.271 48.731C104.025 48.7319 103.828 48.6526 103.678 48.4932C103.528 48.3337 103.453 48.142 103.452 47.918C103.451 47.694 103.525 47.5071 103.674 47.3572C103.822 47.1966 104.019 47.1159 104.265 47.115L105.833 47.1092L105.824 44.8372C105.823 44.5705 105.903 44.3622 106.062 44.2123C106.221 44.0624 106.419 43.987 106.653 43.9861C106.899 43.9852 107.096 44.0591 107.246 44.2079C107.407 44.3567 107.487 44.5644 107.488 44.831L107.497 47.103L108.617 47.0989C108.862 47.098 109.054 47.1772 109.194 47.3367C109.344 47.4855 109.419 47.6719 109.42 47.8959C109.421 48.1199 109.347 48.3122 109.198 48.4727C109.06 48.6332 108.868 48.7139 108.623 48.7149L107.503 48.719L107.506 49.583C107.656 49.7531 107.849 49.9817 108.084 50.2689C108.331 50.556 108.572 50.8377 108.808 51.1142C109.043 51.38 109.236 51.5873 109.386 51.736C109.547 51.9061 109.627 52.1085 109.628 52.3432C109.629 52.5778 109.539 52.7755 109.358 52.9362C109.188 53.0968 108.981 53.1669 108.735 53.1465C108.5 53.126 108.308 53.0201 108.158 52.8286C108.083 52.7329 107.987 52.6106 107.869 52.4617C107.761 52.3127 107.643 52.1532 107.515 51.983L107.537 58.0309C107.538 58.2869 107.459 58.4899 107.3 58.6398C107.151 58.7897 106.954 58.8651 106.708 58.866ZM112.65 51.7239L114.378 51.7175C114.805 51.716 115.103 51.6722 115.273 51.5862C115.444 51.5003 115.544 51.2919 115.575 50.9611L111.431 50.9765C111.475 51.307 111.582 51.5146 111.753 51.5993C111.924 51.684 112.223 51.7255 112.65 51.7239ZM111.427 49.7925L115.571 49.7771C115.527 49.4679 115.414 49.2764 115.233 49.2024C115.062 49.1177 114.773 49.0761 114.368 49.0776L112.64 49.084C112.224 49.0855 111.931 49.1293 111.761 49.2152C111.59 49.2905 111.479 49.4829 111.427 49.7925ZM112.843 47.7872L114.187 47.7822C114.166 47.697 114.155 47.6277 114.155 47.5743L114.152 46.8383L112.872 46.8431L112.875 47.5791C112.875 47.6324 112.864 47.7018 112.843 47.7872ZM126.114 58.2021C125.858 58.203 125.655 58.1238 125.505 57.9643C125.355 57.8049 125.28 57.6078 125.279 57.3732C125.278 57.1492 125.352 56.9569 125.501 56.7964C125.65 56.6358 125.852 56.555 126.108 56.5541L127.18 56.5501L127.145 47.2382C127.143 46.5769 127.232 46.0539 127.412 45.6692C127.591 45.2845 127.889 45.0114 128.305 44.8499C128.72 44.6777 129.274 44.5903 129.968 44.5877L130.512 44.5857C131.216 44.5831 131.771 44.6664 132.177 44.8355C132.593 44.994 132.893 45.2649 133.076 45.6482C133.258 46.0315 133.351 46.5539 133.353 47.2152L133.388 56.5271L134.012 56.5248C134.268 56.5239 134.471 56.6031 134.621 56.7625C134.771 56.922 134.846 57.1137 134.847 57.3377C134.848 57.5724 134.774 57.77 134.625 57.9305C134.476 58.0911 134.274 58.1718 134.018 58.1728L126.114 58.2021ZM123.172 58.805C122.927 58.8059 122.719 58.7267 122.547 58.5673C122.387 58.4079 122.306 58.1949 122.305 57.9282L122.284 52.1362C121.942 52.1802 121.623 52.224 121.324 52.2678C121.025 52.3009 120.77 52.3285 120.556 52.3506C120.29 52.3836 120.06 52.3312 119.868 52.1932C119.686 52.0445 119.584 51.8369 119.561 51.5703C119.539 51.3251 119.597 51.1169 119.735 50.9457C119.884 50.7638 120.091 50.667 120.358 50.6554C120.433 50.6444 120.513 50.6388 120.598 50.6385C120.694 50.6381 120.79 50.6324 120.886 50.6214C121.035 50.4289 121.204 50.1989 121.395 49.9315C121.597 49.6534 121.809 49.3647 122.032 49.0652C121.84 48.9165 121.61 48.7521 121.342 48.5717C121.075 48.3807 120.818 48.2003 120.572 48.0306C120.337 47.8501 120.15 47.7175 120.011 47.6326C119.808 47.5054 119.684 47.3298 119.641 47.106C119.608 46.8821 119.655 46.6686 119.782 46.4655C119.92 46.2516 120.107 46.1229 120.341 46.0794C120.576 46.0252 120.794 46.0671 120.998 46.205L121.126 46.2845C121.232 46.1028 121.359 45.889 121.507 45.6431C121.656 45.3972 121.794 45.162 121.921 44.9375C122.059 44.713 122.154 44.542 122.207 44.4245C122.323 44.2107 122.499 44.0714 122.733 44.0065C122.978 43.9309 123.208 43.9514 123.422 44.068C123.625 44.1739 123.753 44.3387 123.807 44.5625C123.862 44.7863 123.83 44.9998 123.714 45.2029C123.629 45.3525 123.507 45.5503 123.348 45.7963C123.2 46.0421 123.041 46.2934 122.871 46.55C122.712 46.8066 122.569 47.0258 122.441 47.2076L123.035 47.6374C123.279 47.3059 123.496 46.9957 123.687 46.707C123.889 46.4183 124.048 46.183 124.165 46.0012C124.313 45.7873 124.505 45.6586 124.739 45.6151C124.974 45.5716 125.193 45.6188 125.396 45.7567C125.61 45.8839 125.738 46.0647 125.782 46.2992C125.825 46.5337 125.778 46.7526 125.64 46.9558C125.46 47.2018 125.221 47.5227 124.924 47.9184C124.637 48.3142 124.33 48.7313 124.001 49.1699C123.671 49.6084 123.358 50.0256 123.061 50.4214C123.36 50.3989 123.653 50.3712 123.941 50.3381C124.229 50.305 124.49 50.2774 124.725 50.2552L124.563 49.8878C124.477 49.6854 124.482 49.4881 124.577 49.2957C124.683 49.0927 124.837 48.9534 125.039 48.878C125.252 48.7919 125.455 48.7911 125.647 48.8758C125.85 48.9497 126.006 49.0931 126.113 49.306C126.188 49.4444 126.285 49.6521 126.403 49.929C126.522 50.1952 126.64 50.4668 126.758 50.7436C126.877 51.0099 126.963 51.2229 127.017 51.3827C127.103 51.6064 127.109 51.8144 127.035 52.0066C126.961 52.1989 126.802 52.3435 126.557 52.4404C126.322 52.5266 126.098 52.5274 125.885 52.4429C125.671 52.3584 125.521 52.2096 125.435 51.9966C125.424 51.9539 125.408 51.906 125.386 51.8527C125.365 51.7995 125.343 51.7462 125.322 51.693C125.151 51.7256 124.954 51.7583 124.73 51.7912C124.506 51.824 124.272 51.8569 124.027 51.8898L124.049 57.9217C124.05 58.1884 123.965 58.4021 123.795 58.5627C123.625 58.7233 123.418 58.8041 123.172 58.805ZM120.19 57.04C119.987 56.9661 119.832 56.8387 119.724 56.6578C119.628 56.4661 119.621 56.2688 119.706 56.0658C119.791 55.8522 119.886 55.5852 119.991 55.2648C120.107 54.9337 120.213 54.6026 120.307 54.2716C120.402 53.9406 120.476 53.6576 120.528 53.4228C120.581 53.2092 120.698 53.0488 120.878 52.9415C121.07 52.8341 121.278 52.8066 121.502 52.8591C121.716 52.901 121.876 53.0124 121.983 53.1934C122.091 53.3743 122.118 53.5715 122.066 53.7851C122.013 54.0306 121.94 54.3242 121.845 54.6659C121.75 54.9969 121.65 55.3279 121.545 55.659C121.439 55.9794 121.344 56.2571 121.26 56.4921C121.175 56.7057 121.026 56.8663 120.813 56.9737C120.611 57.0811 120.403 57.1032 120.19 57.04ZM128.988 56.5434L131.5 56.5341L131.491 54.1661L128.979 54.1754L128.988 56.5434ZM128.973 52.4795L131.485 52.4701L131.477 50.2462L128.965 50.2555L128.973 52.4795ZM128.958 48.5595L131.47 48.5502L131.466 47.3182C131.464 46.9235 131.383 46.6625 131.223 46.5351C131.073 46.397 130.774 46.3287 130.326 46.3304L130.086 46.3313C129.638 46.3329 129.334 46.4034 129.175 46.5427C129.026 46.6712 128.952 46.9328 128.954 47.3275L128.958 48.5595ZM126.026 56.0584C125.792 56.1339 125.573 56.1294 125.37 56.0448C125.178 55.9495 125.044 55.7954 124.968 55.5823C124.914 55.4225 124.844 55.2201 124.758 54.9751C124.672 54.7194 124.591 54.469 124.515 54.224C124.44 53.9683 124.38 53.7605 124.337 53.6006C124.283 53.3875 124.309 53.1901 124.415 53.0084C124.531 52.8266 124.696 52.714 124.91 52.6705C125.123 52.6164 125.315 52.637 125.486 52.7324C125.667 52.8277 125.791 52.9766 125.855 53.179C125.899 53.3282 125.963 53.5199 126.05 53.7543C126.136 53.9886 126.222 54.223 126.308 54.4573C126.394 54.6917 126.464 54.8834 126.518 55.0326C126.604 55.2456 126.6 55.4483 126.505 55.6406C126.409 55.833 126.25 55.9722 126.026 56.0584ZM146.498 58.2545C145.56 58.258 144.807 58.1701 144.241 57.9909C143.686 57.8116 143.285 57.4984 143.038 57.0514C142.802 56.5936 142.682 55.9647 142.679 55.1647L142.642 45.1007C142.64 44.8021 142.736 44.5671 142.927 44.3957C143.118 44.2136 143.347 44.1221 143.614 44.1211C143.881 44.1201 144.105 44.21 144.287 44.3906C144.48 44.5606 144.576 44.7949 144.578 45.0936L144.593 49.3655C145.03 49.1506 145.482 48.9249 145.951 48.6885C146.419 48.4521 146.861 48.2158 147.276 47.9796C147.702 47.7433 148.059 47.5287 148.346 47.3356C148.591 47.1854 148.857 47.1204 149.145 47.1406C149.433 47.1609 149.647 47.2935 149.787 47.5383C149.926 47.7724 149.97 48.0229 149.917 48.2898C149.865 48.546 149.727 48.7492 149.504 48.8993C149.035 49.1891 148.514 49.4843 147.939 49.7851C147.375 50.0752 146.805 50.3547 146.23 50.6235C145.655 50.8816 145.112 51.113 144.601 51.3175L144.614 55.0135C144.616 55.3548 144.665 55.6213 144.761 55.813C144.869 56.0046 145.056 56.1372 145.323 56.2109C145.6 56.2845 145.995 56.3204 146.507 56.3185C146.977 56.3167 147.344 56.2781 147.611 56.2024C147.888 56.116 148.09 55.9713 148.217 55.7681C148.355 55.565 148.455 55.2819 148.518 54.919C148.57 54.6308 148.708 54.417 148.932 54.2775C149.155 54.1273 149.411 54.0784 149.699 54.1306C149.987 54.1722 150.206 54.2941 150.356 54.4962C150.517 54.6983 150.577 54.9434 150.535 55.2316C150.4 56.2987 150.025 57.0681 149.408 57.5397C148.791 58.0114 147.821 58.2496 146.498 58.2545ZM139.284 58.6653C139.017 58.6663 138.793 58.5818 138.611 58.4118C138.429 58.2418 138.337 58.0128 138.336 57.7248L138.309 50.2688C138.075 50.5577 137.841 50.8359 137.608 51.1034C137.385 51.3603 137.167 51.5957 136.954 51.8099C136.784 51.9918 136.566 52.094 136.3 52.1163C136.044 52.1279 135.819 52.0487 135.627 51.8788C135.445 51.7195 135.343 51.5172 135.32 51.2719C135.298 51.016 135.372 50.8024 135.542 50.6311C135.925 50.235 136.312 49.7856 136.705 49.2828C137.108 48.7693 137.496 48.2398 137.867 47.6945C138.249 47.1384 138.588 46.5984 138.885 46.0747C139.193 45.5509 139.441 45.0753 139.632 44.6479C139.748 44.4021 139.924 44.2361 140.158 44.1499C140.403 44.0637 140.643 44.0735 140.878 44.1793C141.124 44.285 141.285 44.4551 141.36 44.6895C141.436 44.9132 141.42 45.1479 141.315 45.3937C141.177 45.7248 141.008 46.0721 140.807 46.4355C140.616 46.7883 140.414 47.1463 140.202 47.5098L140.24 57.7177C140.241 58.0057 140.146 58.2354 139.955 58.4068C139.774 58.5781 139.55 58.6643 139.284 58.6653Z" fill="black" fill-opacity="0.85"/>
</g>
<defs>
<radialGradient id="paint0_radial_1720_2088" cx="0" cy="0" r="1" gradientUnits="userSpaceOnUse" gradientTransform="translate(0.558656 46.8353) rotate(65.4889) scale(3.32531 8.21233)">
<stop offset="0.33" stop-opacity="0"/>
<stop offset="0.655" stop-opacity="0.6"/>
<stop offset="1"/>
</radialGradient>
<radialGradient id="paint1_radial_1720_2088" cx="0" cy="0" r="1" gradientUnits="userSpaceOnUse" gradientTransform="translate(355.296 45.8572) rotate(114.511) scale(3.32531 8.21233)">
<stop offset="0.33" stop-opacity="0"/>
<stop offset="0.655" stop-opacity="0.6"/>
<stop offset="1"/>
</radialGradient>
<clipPath id="clip0_1720_2088">
<rect width="200" height="90" fill="white"/>
</clipPath>
</defs>
</svg>
