<svg width="200" height="90" viewBox="0 0 200 90" fill="none" xmlns="http://www.w3.org/2000/svg">
<g clip-path="url(#clip0_2306_6405)">
<rect width="200" height="90" fill="#BDE3FF"/>
<path fill-rule="evenodd" clip-rule="evenodd" d="M-6.18027 85.5257C-5.5206 81.3514 -9.94765 77.2571 -7.65473 73.2393C-4.94813 68.4966 -1.65241 61.9915 7.77154 61.0783C17.9972 60.0873 23.5998 68.8258 33.9785 69.2048C45.8176 69.6371 56.5881 60.196 66.8872 63.2371C76.2425 65.9996 70.121 74.0119 68.9752 79.5387C68.1676 83.4341 61.5364 86.4306 61.2669 90.3457C60.8502 96.3973 75.7689 103.853 67.0229 107.895C58.3557 111.9 45.7383 103.802 34.2527 102.83C27.3162 102.243 20.5655 103.925 13.6182 103.373C4.65786 102.66 -7.2514 103.227 -11.7526 99.1698C-16.3208 95.0519 -6.92748 90.2539 -6.18027 85.5257Z" fill="#005EA5"/>
<path fill-rule="evenodd" clip-rule="evenodd" d="M28.4743 10.5302C32.6486 10.8717 36.7429 8.58004 40.7607 9.76696C45.5034 11.168 52.0085 12.874 52.9217 17.7523C53.9127 23.0456 45.1742 25.9458 44.7952 31.3183C44.3629 37.4467 53.804 43.0221 50.7629 48.3534C48.0004 53.1961 39.9881 50.0274 34.4613 49.4342C30.5659 49.0162 27.5694 45.5836 23.6543 45.444C17.6027 45.2284 10.1469 52.9509 6.10508 48.4236C2.09968 43.9371 10.1975 37.4057 11.1701 31.4602C11.7575 27.8695 10.0747 24.3751 10.6274 20.7788C11.3402 16.1405 10.7727 9.97575 14.8302 7.64571C18.9481 5.281 23.7461 10.1434 28.4743 10.5302Z" fill="#2382C9"/>
<path fill-rule="evenodd" clip-rule="evenodd" d="M173.474 4.53021C177.649 4.87169 181.743 2.58004 185.761 3.76696C190.503 5.16803 197.008 6.87405 197.922 11.7523C198.913 17.0456 190.174 19.9458 189.795 25.3183C189.363 31.4467 198.804 37.0221 195.763 42.3534C193 47.1961 184.988 44.0274 179.461 43.4342C175.566 43.0162 172.569 39.5836 168.654 39.444C162.603 39.2284 155.147 46.9509 151.105 42.4236C147.1 37.9371 155.198 31.4057 156.17 25.4602C156.757 21.8695 155.075 18.3751 155.627 14.7788C156.34 10.1405 155.773 3.97575 159.83 1.64571C163.948 -0.719004 168.746 4.14342 173.474 4.53021Z" fill="#69BAF5"/>
<path fill-rule="evenodd" clip-rule="evenodd" d="M117.063 7.20494C131.49 7.9797 144.155 11.9054 154.996 17.5775C166.733 23.7188 176.896 30.8598 179.688 39.9711C183.097 51.0949 184.354 63.7453 171.749 72.2549C158.691 81.0707 136.857 81.4742 117.063 82.2497C95.2362 83.1048 71.8992 84.7511 54.6033 76.8446C35.6156 68.1646 20.8565 53.9771 24.5773 39.9711C28.0889 26.7526 52.1053 19.9805 71.5388 13.0955C85.3864 8.18958 100.98 6.34119 117.063 7.20494Z" fill="#C9F4FF"/>
<path d="M177.967 51.2804L196.726 84.9582L159.338 85.0303L177.967 51.2804Z" fill="#228CDA"/>
<path d="M173.373 78.4648H182.74" stroke="black" stroke-width="2" stroke-linecap="round"/>
<ellipse cx="171.472" cy="68.8528" rx="4.64254" ry="4.79533" transform="rotate(-0.110477 171.472 68.8528)" stroke="#FA8F21" stroke-width="2"/>
<ellipse cx="184.669" cy="68.8118" rx="4.64254" ry="4.79533" transform="rotate(-0.110477 184.669 68.8118)" stroke="#FA8F21" stroke-width="2"/>
<path d="M175.55 68.4723C175.55 68.4723 176.816 68.054 177.654 68.0337C178.594 68.011 180.025 68.4637 180.025 68.4637" stroke="#FA8F21" stroke-width="2"/>
<ellipse cx="171.471" cy="68.8518" rx="1.89842" ry="1.9609" transform="rotate(-0.110477 171.471 68.8518)" fill="black"/>
<ellipse cx="184.67" cy="68.8264" rx="1.89842" ry="1.9609" transform="rotate(-0.110477 184.67 68.8264)" fill="black"/>
<path d="M48.3464 33.5562C48.3458 33.3829 48.2588 33.2965 48.0854 33.2972L46.4455 33.3033C46.8231 34.4752 47.4595 35.3062 48.3547 35.7962L48.3464 33.5562ZM42.9655 33.3162C42.7921 33.3168 42.7058 33.4038 42.7064 33.5771L42.7152 35.9271C43.6665 35.3969 44.31 34.5245 44.6455 33.3099L42.9655 33.3162ZM49.0811 32.1335C49.4011 32.1323 49.5617 32.2917 49.5629 32.6117L49.5824 37.8617C49.5836 38.195 49.5445 38.4485 49.4652 38.6221C49.3859 38.8024 49.2197 38.9497 48.9668 39.0639C48.7139 39.1849 48.2908 39.2431 47.6975 39.2387C47.3042 39.2468 47.0401 39.0511 46.9053 38.6516C46.7771 38.2521 46.8264 38.0552 47.0531 38.061C47.1931 38.0672 47.5498 38.0692 48.1231 38.0671C48.2831 38.0665 48.3628 37.9928 48.3623 37.8462L48.3557 36.0562C48.0768 36.3639 47.9374 36.5311 47.9375 36.5577C47.7718 36.805 47.5552 36.8425 47.2879 36.6702C46.5664 36.2662 45.9801 35.4517 45.5289 34.2267C45.0803 35.5083 44.4567 36.354 43.6583 36.7636C43.3922 36.9246 43.1654 36.8821 42.9778 36.6361L42.7165 36.2971L42.726 38.8671C42.7271 39.1404 42.5242 39.2778 42.1176 39.2793C41.7176 39.2808 41.5171 39.1449 41.5161 38.8716L41.493 32.6416C41.4918 32.3216 41.6512 32.161 41.9712 32.1598L45.0312 32.1485L44.9793 31.6387C44.9653 31.4654 44.8716 31.3791 44.6983 31.3797L43.6783 31.3835C43.405 31.3845 43.2677 31.2117 43.2664 30.865C43.2651 30.5184 43.4011 30.3445 43.6745 30.3435L45.5145 30.3367C45.8278 30.3355 45.9984 30.4916 46.0262 30.8048L46.1612 32.1443L49.0811 32.1335ZM59.6637 35.5043C59.6112 35.7178 59.4381 35.7884 59.1445 35.7162C58.8509 35.644 58.7269 35.4744 58.7726 35.2076L58.9199 34.467C58.9459 34.3003 58.8723 34.2172 58.6989 34.2178L56.9889 34.2242C56.7784 34.985 56.5969 35.4756 56.4444 35.6962C56.3384 35.8899 56.1284 35.8907 55.8144 35.6985C55.5003 35.5064 55.3963 35.3201 55.5023 35.1397C55.8338 34.6451 56.0544 33.901 56.1641 32.9072C56.216 32.5337 56.4221 32.3763 56.7823 32.4349C57.1492 32.4936 57.3098 32.6563 57.2641 32.9232L57.2152 33.2133L59.6156 33.3144C59.9423 33.3266 60.0665 33.5528 59.9881 33.9931C59.9036 34.58 59.7955 35.0838 59.6637 35.5043ZM58.3355 30.5992C58.3345 30.3258 58.544 30.1884 58.964 30.1868C59.384 30.1853 59.5945 30.3212 59.5955 30.5945L59.5998 31.7445C59.601 32.0645 59.4415 32.2251 59.1215 32.2263L51.9316 32.2529C51.6183 32.2541 51.461 32.0947 51.4598 31.7747L51.4556 30.6247C51.4545 30.3513 51.654 30.2139 52.054 30.2124C52.4607 30.2109 52.6645 30.3468 52.6656 30.6202L52.667 31.0002C52.6676 31.1735 52.7546 31.2599 52.9279 31.2592L54.8579 31.2521L54.8543 30.2921C54.8533 30.0187 55.0562 29.8813 55.4628 29.8798C55.8762 29.8783 56.0833 30.0142 56.0843 30.2875L56.0879 31.2475L58.0779 31.2401C58.2512 31.2395 58.3376 31.1525 58.3369 30.9792L58.3355 30.5992ZM53.9536 35.4754L53.9501 34.5554L52.6802 34.5602L52.6836 35.4801L53.9536 35.4754ZM52.6897 37.1401C52.6904 37.3135 52.7773 37.3998 52.9507 37.3992L53.7007 37.3964C53.874 37.3957 53.9604 37.3088 53.9597 37.1354L53.9571 36.4354L52.6871 36.4401L52.6897 37.1401ZM55.2362 33.4907C55.5095 33.4897 55.6469 33.6658 55.6482 34.0191C55.6495 34.3725 55.5135 34.5497 55.2401 34.5507L55.0601 34.5513L55.0728 37.9613C55.074 38.2813 54.9146 38.4419 54.5946 38.4431L52.0546 38.4525C51.7346 38.4537 51.574 38.2943 51.5728 37.9743L51.5602 34.5643L51.3102 34.5652C51.0368 34.5662 50.8995 34.3901 50.8982 34.0368C50.8969 33.6834 51.0329 33.5063 51.3062 33.5052L51.5562 33.5043L51.5544 33.0143C51.5534 32.741 51.7396 32.6036 52.1129 32.6022C52.4862 32.6009 52.6734 32.7368 52.6744 33.0102L52.6762 33.5002L53.9462 33.4955L53.9444 33.0055C53.9434 32.7321 54.1262 32.5948 54.4929 32.5934C54.8662 32.592 55.0534 32.728 55.0544 33.0013L55.0562 33.4913L55.2362 33.4907ZM57.1518 34.9836C57.151 34.7903 57.3473 34.6929 57.7407 34.6914C58.134 34.6899 58.3311 34.7959 58.3319 35.0092C58.3331 35.3492 58.3044 35.686 58.2456 36.0195C58.4341 36.5188 58.6958 36.9745 59.0307 37.3866C59.3655 37.7921 59.6298 38.0378 59.8234 38.1237C60.0572 38.2562 60.0414 38.4696 59.7758 38.7639C59.5102 39.0649 59.2705 39.1424 59.0566 38.9965C58.6291 38.7515 58.1938 38.2331 57.7509 37.4414C57.3734 38.1294 56.932 38.6378 56.4265 38.9663C56.1938 39.1405 55.9237 39.1048 55.6161 38.8593C55.3086 38.6204 55.2745 38.4239 55.5139 38.2697C55.6537 38.1958 55.8563 38.0217 56.122 37.7474C56.3876 37.4664 56.5867 37.2124 56.7192 36.9852C56.8516 36.7514 56.9507 36.491 57.0163 36.2041C57.0885 35.9172 57.1277 35.697 57.1338 35.5437C57.1466 35.3903 57.1526 35.2036 57.1518 34.9836ZM64.4265 33.5466C64.772 33.2387 65.0351 33.1643 65.2157 33.3237C65.3761 33.4431 65.6671 33.7153 66.0887 34.1405C66.5169 34.5655 66.7847 34.8512 66.8919 34.9975C67.0525 35.1769 66.9534 35.4206 66.5946 35.7286C66.2424 36.0366 65.9759 36.0875 65.7951 35.8816C65.3263 35.2966 64.8144 34.7718 64.2593 34.3072C64.0252 34.1014 64.0809 33.8479 64.4265 33.5466ZM77.6738 35.5075L77.6691 34.2375L76.9191 34.2403L76.9238 35.5103L77.6738 35.5075ZM73.4792 34.2531L73.4839 35.5231L74.1639 35.5205L74.1592 34.2505L73.4792 34.2531ZM75.9291 34.244L75.1491 34.2469L75.1539 35.5169L75.9338 35.514L75.9291 34.244ZM79.3352 33.1713C79.6085 33.1703 79.7458 33.3465 79.7472 33.6998C79.7485 34.0532 79.6125 34.2303 79.3391 34.2313L78.7691 34.2335L78.7738 35.5034L79.5638 35.5005C79.8372 35.4995 79.9745 35.6757 79.9758 36.029C79.9771 36.3823 79.8411 36.5595 79.5678 36.5605L71.4678 36.5905C71.1945 36.5915 71.0572 36.4154 71.0558 36.0621C71.0545 35.7087 71.1905 35.5316 71.4639 35.5305L72.4239 35.527L72.4192 34.257L71.7592 34.2594C71.4858 34.2604 71.3485 34.0843 71.3472 33.731C71.3459 33.3776 71.4819 33.2005 71.7552 33.1994L72.4152 33.197L72.4134 32.707C72.4124 32.4337 72.5886 32.2963 72.9419 32.295C73.2952 32.2937 73.4724 32.4297 73.4734 32.7031L73.4752 33.1931L74.1552 33.1905L74.1534 32.7005C74.1524 32.4272 74.3152 32.2899 74.6419 32.2887C74.9752 32.2875 75.1424 32.4235 75.1434 32.6969L75.1452 33.1869L75.9252 33.184L75.9234 32.694C75.9224 32.4207 76.0852 32.2834 76.4119 32.2822C76.7452 32.2809 76.9124 32.417 76.9134 32.6903L76.9152 33.1803L77.6652 33.1775L77.6634 32.6875C77.6624 32.4142 77.8452 32.2769 78.2119 32.2755C78.5785 32.2741 78.7624 32.4101 78.7634 32.6835L78.7652 33.1735L79.3352 33.1713ZM79.6786 31.3801C79.6798 31.7267 79.5438 31.9006 79.2705 31.9016L72.6105 31.9263C72.179 32.4079 71.8801 32.7056 71.7138 32.8196C71.5344 32.9669 71.3307 32.881 71.1029 32.5619C70.875 32.2427 70.8641 32.0061 71.0702 31.852C71.2764 31.7179 71.5621 31.4435 71.9272 31.0288C72.299 30.6074 72.5345 30.2865 72.6336 30.0662C72.7594 29.8257 72.9925 29.7615 73.3329 29.8736C73.68 29.9856 73.7873 30.1586 73.6549 30.3924L73.3866 30.8734L79.2666 30.8516C79.5399 30.8506 79.6772 31.0267 79.6786 31.3801ZM72.386 38.8071C72.2204 39.0744 71.9439 39.1288 71.5566 38.9702C71.1694 38.8183 71.0686 38.6087 71.2543 38.3413C71.5264 38.007 71.7483 37.6162 71.92 37.1689C72.0323 36.9151 72.2787 36.8375 72.6591 36.9361C73.0461 37.0347 73.1835 37.2175 73.0711 37.4846C72.8797 37.992 72.6513 38.4328 72.386 38.8071ZM73.8215 37.5918C73.7939 37.3186 73.9633 37.1613 74.3298 37.1199C74.703 37.0785 74.9067 37.1911 74.941 37.4577L75.095 38.5271C75.1293 38.7936 74.9499 38.9543 74.5568 39.0091C74.1704 39.0705 73.9633 38.9646 73.9356 38.6914L73.8215 37.5918ZM75.9214 37.544C75.8471 37.2843 75.9965 37.1237 76.3696 37.0624C76.7427 37.001 76.9965 37.1367 77.1311 37.4695C77.2924 37.8156 77.3969 38.1452 77.4448 38.4584C77.499 38.6982 77.3262 38.8555 76.9265 38.9303C76.5335 39.0118 76.3032 38.9226 76.2355 38.6629L75.9214 37.544ZM78.3832 38.0349C78.2155 37.7555 78.1712 37.499 78.2504 37.2654C78.3361 37.0251 78.529 36.8877 78.8288 36.8532C78.8951 36.7397 79.0321 36.8358 79.2399 37.1417C79.5749 37.6005 79.7627 37.8965 79.8032 38.0296C79.904 38.2359 79.8814 38.4327 79.7354 38.6199C79.5894 38.8071 79.3432 38.938 78.9968 39.0126L78.8063 38.8633C78.685 38.5305 78.544 38.2543 78.3832 38.0349ZM84.2391 31.5132C84.5124 31.5121 84.6497 31.675 84.6509 32.0016C84.6521 32.3283 84.516 32.4921 84.2427 32.4932L81.0527 32.505C80.7794 32.506 80.6421 32.3432 80.6409 32.0165C80.6397 31.6898 80.7758 31.526 81.0491 31.525L82.4391 31.5198L81.9356 30.5717C81.8147 30.3321 81.914 30.1384 82.2334 29.9906C82.5528 29.8361 82.7763 29.8786 82.9039 30.1181L83.2462 30.7268C83.4072 31.0062 83.3447 31.2231 83.0586 31.3775L82.7991 31.5185L84.2391 31.5132ZM83.8845 32.9645C84.1578 32.9635 84.295 33.1196 84.2962 33.433C84.2973 33.7396 84.1612 33.8935 83.8879 33.8945L81.5179 33.9033C81.2446 33.9043 81.1074 33.7514 81.1062 33.4448C81.1051 33.1315 81.2411 32.9743 81.5145 32.9733L83.8845 32.9645ZM81.5231 35.2933C81.2497 35.2943 81.1125 35.1414 81.1114 34.8348C81.1102 34.5214 81.2463 34.3643 81.5196 34.3633L83.8896 34.3545C84.1629 34.3535 84.3002 34.5096 84.3013 34.823C84.3025 35.1296 84.1664 35.2835 83.8931 35.2845L81.5231 35.2933ZM83.3095 37.0366C83.3089 36.8633 83.2219 36.777 83.0486 36.7776L82.3986 36.78C82.2253 36.7807 82.1389 36.8676 82.1396 37.041L82.142 37.691C82.1426 37.8643 82.2296 37.9507 82.4029 37.95L83.0529 37.9476C83.2263 37.947 83.3126 37.86 83.312 37.6866L83.3095 37.0366ZM83.8849 35.7845C84.2049 35.7833 84.3655 35.9427 84.3667 36.2627L84.3748 38.4427C84.3759 38.7627 84.2165 38.9233 83.8965 38.9245L81.5866 38.933C81.2666 38.9342 81.106 38.7748 81.1048 38.4548L81.0967 36.2748C81.0955 35.9548 81.2549 35.7942 81.5749 35.7931L83.8849 35.7845ZM88.5892 36.9271C88.5885 36.7537 88.5015 36.6674 88.3282 36.668L86.4282 36.6751C86.2549 36.6757 86.1685 36.7627 86.1692 36.936L86.1725 37.816C86.1731 37.9894 86.2601 38.0757 86.4334 38.0751L88.3334 38.068C88.5067 38.0674 88.5931 37.9804 88.5924 37.8071L88.5892 36.9271ZM85.5073 39.1285C85.1873 39.1297 85.0267 38.9703 85.0255 38.6503L85.0161 36.1003C85.0149 35.7803 85.1743 35.6197 85.4943 35.6185L89.3143 35.6044C89.6343 35.6032 89.7949 35.7626 89.7961 36.0826L89.8055 38.6326C89.8067 38.9526 89.6473 39.1132 89.3273 39.1144L85.5073 39.1285ZM88.3154 33.2181C88.3148 33.0447 88.2278 32.9584 88.0545 32.959L87.1345 32.9624L86.9087 34.0933L88.3186 34.0881L88.3154 33.2181ZM89.4686 34.0838L89.9386 34.0821C90.212 34.081 90.3493 34.2505 90.3505 34.5905C90.3518 34.9305 90.2158 35.101 89.9424 35.102L84.9025 35.1207C84.6291 35.1217 84.4918 34.9522 84.4906 34.6122C84.4893 34.2722 84.6253 34.1017 84.8987 34.1007L85.7187 34.0977L85.9345 32.9669L85.4145 32.9688C85.1411 32.9698 85.0039 32.8037 85.0026 32.4703C85.0014 32.137 85.1374 31.9698 85.4108 31.9688L86.1108 31.9662L86.2179 31.1958L85.1479 31.1998C84.8746 31.2008 84.7373 31.0313 84.736 30.6913C84.7348 30.3513 84.8708 30.1808 85.1441 30.1798L89.6541 30.1631C89.9274 30.1621 90.0647 30.3316 90.066 30.6716C90.0673 31.0116 89.9312 31.1821 89.6579 31.1831L87.4379 31.1913L87.3008 31.9618L88.9808 31.9556C89.3007 31.9544 89.4613 32.1138 89.4625 32.4338L89.4686 34.0838ZM96.7881 31.2166L94.1881 31.2263L94.4707 31.9252L96.5107 31.9177L96.7881 31.2166ZM99.4206 31.9069C99.694 31.9059 99.8312 32.0587 99.8323 32.3654C99.8335 32.672 99.6974 32.8259 99.4241 32.8269L91.5941 32.8559C91.3208 32.8569 91.1835 32.7041 91.1824 32.3974C91.1813 32.0908 91.3174 31.9369 91.5907 31.9359L93.2707 31.9297C93.136 31.5635 93.2352 31.3465 93.5683 31.2786L93.8181 31.2277L92.0781 31.2341C91.8048 31.2351 91.6675 31.0823 91.6664 30.7756C91.6653 30.469 91.8014 30.3151 92.0747 30.3141L94.9047 30.3036L94.8744 30.2237C94.7801 29.9641 94.9261 29.8002 95.3126 29.7321C95.6989 29.6573 95.9459 29.7464 96.0535 29.9994L96.1847 30.2989L98.8946 30.2888C99.1613 30.2878 99.2952 30.4407 99.2963 30.7473C99.2975 31.054 99.1614 31.2078 98.8881 31.2089L97.2481 31.2149L97.4582 31.2542C97.8518 31.3194 97.9426 31.539 97.7307 31.9132L99.4206 31.9069ZM97.5797 34.3637L97.5791 34.1937C97.5785 34.0204 97.4915 33.9341 97.3181 33.9347L93.6982 33.9481C93.5248 33.9488 93.4385 34.0357 93.4391 34.2091L93.4398 34.3791L97.5797 34.3637ZM97.3239 35.4947C97.4973 35.494 97.5836 35.4071 97.583 35.2337L97.5823 35.0637L93.4424 35.0791L93.443 35.2491C93.4436 35.4224 93.5306 35.5087 93.704 35.5081L97.3239 35.4947ZM98.2754 33.1911C98.5954 33.19 98.756 33.3494 98.7572 33.6694L98.7649 35.7593C98.7661 36.0793 98.6067 36.2399 98.2867 36.2411L95.7067 36.2507L96.4184 36.6981C96.6456 36.8372 96.6363 37.0306 96.3905 37.2782C96.1514 37.519 95.9416 37.5665 95.7611 37.4205C95.5736 37.2212 95.3698 37.0819 95.1495 37.0028C94.6886 36.7711 94.5944 36.5215 94.8667 36.2538L92.8067 36.2614C92.4867 36.2626 92.3261 36.1032 92.325 35.7832L92.3172 33.6932C92.316 33.3732 92.4754 33.2126 92.7954 33.2115L98.2754 33.1911ZM92.2052 38.5437C92.0126 38.7444 91.7493 38.7487 91.4152 38.5566C91.0879 38.3645 91.0371 38.1647 91.263 37.9572C91.5422 37.7428 91.7743 37.4153 91.9594 36.9746C92.0917 36.7008 92.3215 36.6366 92.6487 36.782C92.9825 36.9275 93.0734 37.1471 92.9211 37.441C92.6831 37.9752 92.4444 38.3428 92.2052 38.5437ZM95.0733 38.023L96.4533 38.0179C96.6399 38.0172 96.7598 37.9701 96.8128 37.8766L96.8621 37.7064C96.9076 37.3729 97.0972 37.2689 97.431 37.3943C97.7714 37.513 97.9089 37.7459 97.8436 38.0928C97.8443 38.2928 97.7484 38.4865 97.5557 38.6738C97.3698 38.8679 97.0401 38.9658 96.5668 38.9675L94.9568 38.9735C94.3368 38.9758 93.9198 38.8907 93.7058 38.7181C93.4919 38.5456 93.384 38.2226 93.3823 37.7493L93.3799 37.1093C93.3789 36.836 93.5717 36.6986 93.9584 36.6972C94.345 36.6957 94.5389 36.8317 94.5399 37.105L94.5422 37.735C94.5427 37.8617 94.573 37.9416 94.6331 37.9747C94.6999 38.0078 94.8466 38.0239 95.0733 38.023ZM98.4221 37.7006C98.2278 37.448 98.1503 37.2116 98.1895 36.9915C98.2353 36.7713 98.4015 36.644 98.6881 36.6096C98.721 36.5028 98.858 36.5923 99.0991 36.8781C99.4538 37.2568 99.638 37.4995 99.6518 37.6061C99.7592 37.8123 99.7499 38.0057 99.6239 38.1862C99.5046 38.36 99.2783 38.4708 98.9451 38.5187L98.7946 38.3693C98.6934 38.0563 98.5693 37.8334 98.4221 37.7006ZM107.359 31.4575L107.357 31.0075L106.827 31.0094L106.829 31.4594L107.359 31.4575ZM108.783 32.5522C108.782 32.3789 108.695 32.2925 108.522 32.2932L108.212 32.2943L108.215 33.0443L108.525 33.0432C108.698 33.0425 108.785 32.9555 108.784 32.7822L108.783 32.5522ZM106.832 32.2994L106.835 33.0494L107.365 33.0475L107.362 32.2975L106.832 32.2994ZM105.712 32.3036C105.539 32.3042 105.452 32.3912 105.453 32.5645L105.454 32.7945C105.455 32.9679 105.542 33.0542 105.715 33.0536L105.995 33.0525L105.992 32.3025L105.712 32.3036ZM105.989 31.4625L105.987 31.0125L104.707 31.0173C104.434 31.0183 104.297 30.8621 104.296 30.5488C104.294 30.2355 104.427 30.0783 104.694 30.0773L109.574 30.0592C109.847 30.0582 109.984 30.2144 109.986 30.5277C109.987 30.8411 109.851 30.9982 109.577 30.9992L108.207 31.0043L108.209 31.4543L109.329 31.4502C109.649 31.449 109.81 31.6084 109.811 31.9284L109.816 33.3984C109.817 33.7184 109.658 33.879 109.338 33.8801L104.978 33.8963C104.658 33.8975 104.497 33.7381 104.496 33.4181L104.491 31.9481C104.49 31.6281 104.649 31.4675 104.969 31.4663L105.989 31.4625ZM108.999 34.2314C109.273 34.2304 109.41 34.3799 109.411 34.6799C109.412 34.9799 109.276 35.1304 109.003 35.1314L105.333 35.145C105.059 35.146 104.922 34.9965 104.921 34.6965C104.92 34.3965 105.056 34.246 105.329 34.245L108.999 34.2314ZM104.331 34.6487C104.438 34.815 104.376 35.0352 104.143 35.3094C103.918 35.5769 103.751 35.5875 103.643 35.3413L103.311 34.5925L103.326 38.6325C103.327 38.9058 103.147 39.0431 102.787 39.0445C102.427 39.0458 102.247 38.9098 102.246 38.6365L102.232 34.8765C101.935 35.8909 101.675 36.5686 101.449 36.9094C101.343 37.0898 101.196 36.9803 101.008 36.581C100.826 36.175 100.799 35.8751 100.925 35.6813C101.064 35.5075 101.256 35.1134 101.5 34.4992C101.745 33.8783 101.936 33.2709 102.074 32.6771L101.384 32.6796C101.11 32.6806 100.973 32.4978 100.971 32.1311C100.97 31.7645 101.106 31.5806 101.379 31.5796L102.219 31.5765L102.214 30.1265C102.213 29.8532 102.393 29.7159 102.753 29.7145C103.113 29.7132 103.293 29.8492 103.294 30.1225L103.299 31.5725L103.859 31.5704C104.133 31.5694 104.27 31.7522 104.271 32.1189C104.273 32.4856 104.137 32.6694 103.864 32.6704L103.304 32.6725L103.305 33.1125C103.426 33.2654 103.627 33.5613 103.908 34.0003C104.197 34.4325 104.338 34.6487 104.331 34.6487ZM104.93 37.1265C105.089 36.8326 105.339 36.735 105.679 36.8337C106.026 36.9258 106.123 37.1154 105.971 37.4026C105.779 37.83 105.487 38.2144 105.095 38.5559C104.903 38.7566 104.656 38.7509 104.355 38.5386C104.061 38.3331 104.02 38.1399 104.233 37.9591C104.566 37.7179 104.798 37.4403 104.93 37.1265ZM110.026 35.9976C110.027 36.3043 109.891 36.4581 109.618 36.4591L107.658 36.4664L107.666 38.6164C107.667 38.8897 107.49 39.027 107.137 39.0283C106.784 39.0296 106.607 38.8936 106.606 38.6203L106.598 36.4703L104.738 36.4772C104.464 36.4782 104.327 36.3254 104.326 36.0187C104.325 35.7054 104.461 35.5482 104.734 35.5472L109.614 35.5291C109.887 35.5281 110.025 35.6843 110.026 35.9976ZM108.341 37.4939C108.134 37.248 108.173 37.0512 108.459 36.9034C108.745 36.7557 108.972 36.7849 109.14 36.9909L109.893 37.9181C110.06 38.1242 109.991 38.3178 109.685 38.4989C109.379 38.68 109.159 38.6475 109.025 38.4013C108.924 38.1684 108.696 37.8659 108.341 37.4939ZM118.037 30.9879L116.897 30.9921C116.665 31.3463 116.483 31.5736 116.35 31.6741C116.157 31.8682 115.914 31.8491 115.62 31.6168C115.325 31.3846 115.281 31.1781 115.487 30.9973C115.853 30.7293 116.099 30.4084 116.224 30.0346C116.356 29.7274 116.602 29.6199 116.963 29.7119C117.33 29.8038 117.46 29.9733 117.355 30.2204L117.325 30.2705L119.675 30.2618C119.948 30.2608 120.085 30.3803 120.086 30.6203C120.087 30.8603 119.951 30.9808 119.677 30.9818L118.407 30.9865C118.668 31.2055 118.779 31.3085 118.739 31.2953C118.893 31.4814 118.806 31.6484 118.48 31.7962C118.154 31.9441 117.901 31.9184 117.72 31.7191C117.472 31.4333 117.532 31.2098 117.898 31.0484L118.037 30.9879ZM118.243 32.6171C118.089 32.3977 118.149 32.2175 118.421 32.0765C118.701 31.9288 118.924 31.9613 119.092 32.174L119.454 32.6426C119.621 32.8554 119.558 33.0423 119.266 33.2033C118.973 33.3644 118.749 33.3353 118.595 33.1158L118.243 32.6171ZM113.557 31.0145L112.617 31.018C112.306 31.4058 112.073 31.66 111.92 31.7806C111.721 31.9546 111.487 31.9088 111.22 31.6432C110.959 31.3708 110.941 31.1475 111.167 30.9733C111.58 30.6918 111.872 30.3707 112.044 30.0101C112.209 29.7295 112.466 29.6419 112.813 29.7472C113.166 29.8526 113.277 30.0255 113.145 30.266L113.135 30.276L114.955 30.2693C115.228 30.2683 115.365 30.3911 115.366 30.6378C115.367 30.8844 115.231 31.0083 114.957 31.0093L114.107 31.0124L114.469 31.3411C114.663 31.5271 114.603 31.7006 114.291 31.8618C113.978 32.0229 113.728 32.0072 113.54 31.8146L113.43 31.705C113.149 31.426 113.191 31.1958 113.557 31.0145ZM115.792 37.6362C116.119 37.6217 116.282 37.7178 116.283 37.9244C116.682 37.6563 116.998 37.3984 117.23 37.1509C116.974 36.3985 116.794 35.4825 116.69 34.4029L115.06 34.4089L115.062 34.8089L115.862 34.806C116.135 34.805 116.272 34.9078 116.273 35.1144C116.273 35.3211 116.137 35.425 115.864 35.426L115.064 35.4289L115.065 35.7789L115.805 35.7762C116.078 35.7752 116.215 35.8747 116.216 36.0747C116.217 36.268 116.081 36.3652 115.807 36.3662L115.067 36.3689L115.069 36.7189L115.969 36.7156C116.242 36.7146 116.379 36.8207 116.38 37.0341C116.381 37.2407 116.244 37.3446 115.971 37.3456L115.071 37.3489L115.072 37.6889L115.792 37.6362ZM113.53 34.4146L113.543 37.7846L114.132 37.7524L114.12 34.4124L113.53 34.4146ZM112.007 33.6002L113.257 33.5956C113.11 33.3828 112.939 33.1868 112.745 33.0075C112.532 33.2283 112.286 33.4259 112.007 33.6002ZM114.136 33.3524C114.002 33.2195 113.869 33.2033 113.736 33.3038L113.367 33.5952L114.367 33.5915L114.136 33.3524ZM114.657 33.5904L115.657 33.5867C115.523 33.4205 115.372 33.2544 115.205 33.0884C115.059 33.2623 114.876 33.4296 114.657 33.5904ZM118.702 34.9054C118.788 34.6518 118.984 34.5677 119.291 34.6533C119.605 34.7321 119.712 34.9084 119.613 35.1821C119.402 35.8762 119.008 36.581 118.431 37.2965C118.625 37.6691 118.826 37.855 119.033 37.8542C119.119 37.8539 119.183 37.787 119.222 37.6535L119.261 37.3634C119.293 37.0899 119.45 37.0394 119.73 37.2116C120.011 37.3839 120.119 37.6435 120.053 37.9905C120.047 38.2038 119.958 38.4108 119.786 38.6115C119.613 38.8121 119.337 38.9131 118.957 38.9145C118.463 38.9164 118.036 38.6446 117.674 38.0993C117.228 38.4809 116.906 38.7188 116.706 38.8129C116.46 38.9671 116.24 38.9279 116.046 38.6953L115.805 38.4162C113.979 38.5763 112.526 38.6884 111.446 38.7524C111.22 38.7732 111.086 38.6404 111.045 38.3538C111.004 38.0673 111.12 37.9169 111.393 37.9026L112.603 37.8381L112.601 37.4081L111.641 37.4116C111.368 37.4126 111.231 37.3098 111.23 37.1032C111.229 36.8898 111.365 36.7826 111.639 36.7816L112.599 36.7781L112.597 36.3981L111.867 36.4008C111.594 36.4018 111.457 36.3056 111.456 36.1123C111.456 35.9123 111.592 35.8118 111.865 35.8108L112.595 35.8081L112.594 35.4481L111.774 35.4511C111.501 35.4521 111.363 35.3526 111.363 35.1526C111.362 34.946 111.498 34.8421 111.772 34.8411L112.592 34.8381L112.59 34.4181L111.34 34.4227C111.067 34.4237 110.93 34.2876 110.929 34.0142C110.928 33.7409 111.064 33.6037 111.337 33.6027L111.787 33.6011L111.657 33.4715C111.375 33.1859 111.461 32.9189 111.914 32.6706C112.133 32.6364 112.266 32.4526 112.312 32.1191C112.411 31.8587 112.607 31.748 112.9 31.7869C113.2 31.8258 113.301 31.9921 113.202 32.2858L113.955 33.013C114.46 32.7378 114.726 32.4602 114.752 32.1801C114.844 31.9064 115.037 31.789 115.33 31.8279C115.624 31.8602 115.734 32.0064 115.662 32.2667L115.632 32.3368C115.987 32.6222 116.167 32.7915 116.174 32.8448C116.362 33.0641 116.329 33.2676 116.076 33.4552L115.907 33.5858L116.617 33.5832L116.563 32.3834C116.555 32.11 116.734 31.9727 117.101 31.9714C117.474 31.97 117.665 32.1059 117.673 32.3792L117.707 33.5791L119.657 33.5719C119.93 33.5709 120.067 33.707 120.068 33.9804C120.069 34.2537 119.933 34.3909 119.66 34.3919L117.77 34.3989C117.846 35.0986 117.941 35.6849 118.057 36.1578C118.408 35.6232 118.623 35.2057 118.702 34.9054ZM125.811 34.6591L125.806 33.2991C125.805 33.1258 125.718 33.0394 125.545 33.0401L124.775 33.0429C124.455 33.0441 124.294 32.8847 124.293 32.5647L124.284 30.1347C124.283 29.8614 124.449 29.7241 124.783 29.7229C125.123 29.7216 125.293 29.8576 125.294 30.131L125.295 30.401L126.455 30.3967C126.729 30.3957 126.866 30.5585 126.867 30.8852C126.868 31.2118 126.732 31.3757 126.459 31.3767L125.299 31.381L125.301 31.851C125.301 32.0243 125.388 32.1106 125.562 32.11L126.312 32.1172C126.632 32.116 126.792 32.2754 126.793 32.5954L126.801 34.6554C126.802 34.8621 126.776 35.0155 126.723 35.1157C126.676 35.2159 126.577 35.3029 126.424 35.3768C126.271 35.4507 126.087 35.4847 125.874 35.4789C125.501 35.4869 125.27 35.3711 125.183 35.1314C125.095 34.8851 125.188 34.7614 125.461 34.7604L125.641 34.7597C125.755 34.766 125.811 34.7324 125.811 34.6591ZM124.347 33.6745C124.413 33.4143 124.593 33.3103 124.886 33.3625C125.18 33.4081 125.301 33.621 125.249 34.0012C125.223 34.3813 125.134 34.6716 124.982 34.8722C124.883 35.0659 124.706 35.0865 124.452 34.9341C124.198 34.7751 124.104 34.5654 124.17 34.3052L124.347 33.6745ZM128.114 35.5706L128.161 34.7604L127.561 34.7626C127.288 34.7636 127.151 34.6008 127.15 34.2741C127.148 33.9475 127.284 33.7836 127.558 33.7826L128.198 33.7802L128.195 32.9202L127.625 32.9224C127.351 32.9234 127.214 32.7605 127.213 32.4339C127.212 32.1072 127.348 31.9434 127.621 31.9424L128.251 31.94L128.249 31.34C128.248 31.1667 128.161 31.0804 127.988 31.081L127.518 31.0827C127.244 31.0838 127.107 30.9143 127.106 30.5743C127.105 30.2343 127.241 30.0638 127.514 30.0627L128.864 30.0577C129.184 30.0566 129.341 30.236 129.336 30.596C129.349 32.2826 129.315 33.9394 129.234 35.5664L129.694 35.5647C129.968 35.5637 130.105 35.7465 130.106 36.1132C130.108 36.4798 129.972 36.6637 129.698 36.6647L127.289 36.6736C128.357 37.1697 129.112 37.5569 129.553 37.8352C129.747 37.9479 129.711 38.1547 129.445 38.4556C129.186 38.7633 128.95 38.8475 128.736 38.7083C128.168 38.317 127.577 37.9792 126.962 37.6948C126.535 37.4764 126.44 37.2101 126.679 36.8959L126.849 36.6753L123.879 36.6863L124.26 36.9949C124.567 37.2471 124.545 37.4871 124.192 37.7151C123.674 38.0704 122.962 38.4297 122.056 38.793C121.783 38.914 121.533 38.825 121.305 38.5258C121.084 38.2333 121.117 38.0298 121.403 37.9155C122.209 37.6125 122.964 37.203 123.669 36.687L121.349 36.6956C121.075 36.6967 120.938 36.5138 120.937 36.1472C120.935 35.7805 121.071 35.5967 121.344 35.5957L121.834 35.5938L121.657 30.8845C121.649 30.5845 121.782 30.3807 122.055 30.273L123.173 29.8288C123.426 29.7346 123.637 29.8505 123.804 30.1765C123.979 30.4959 123.936 30.6927 123.677 30.767L122.967 30.9796C122.808 31.0269 122.728 31.1338 122.729 31.3005L122.761 31.9504L123.491 31.9477C123.764 31.9467 123.902 32.1095 123.903 32.4361C123.904 32.7561 123.768 32.9167 123.495 32.9177L122.795 32.9203L122.828 33.7801L123.528 33.7775C123.801 33.7765 123.938 33.9394 123.94 34.266C123.941 34.586 123.805 34.7465 123.531 34.7475L122.861 34.75L122.894 35.5899L128.114 35.5706ZM138.899 31.3806C138.9 31.6539 138.724 31.7912 138.37 31.7925C138.017 31.7938 137.84 31.6578 137.839 31.3845L137.838 31.2445L137.548 31.2456C137.275 31.2466 137.138 31.0871 137.137 30.7671C137.135 30.4471 137.272 30.2866 137.545 30.2856L137.835 30.2845L137.834 30.0045C137.833 29.7312 138.009 29.5938 138.362 29.5925C138.716 29.5912 138.893 29.7272 138.894 30.0006L138.895 30.2806L139.655 30.2777C139.928 30.2767 140.065 30.4362 140.067 30.7562C140.068 31.0762 139.932 31.2367 139.658 31.2377L138.898 31.2406L138.899 31.3806ZM135.671 31.8025C135.324 31.8038 135.15 31.6678 135.149 31.3945L135.149 31.2645L134.559 31.2666C134.285 31.2677 134.148 31.1082 134.147 30.7882C134.146 30.4682 134.282 30.3077 134.555 30.3067L135.145 30.3045L135.144 30.0145C135.143 29.7411 135.316 29.6038 135.662 29.6025C136.016 29.6012 136.193 29.7372 136.194 30.0106L136.195 30.3006L136.495 30.2995C136.768 30.2984 136.906 30.4579 136.907 30.7779C136.908 31.0979 136.772 31.2584 136.498 31.2595L136.198 31.2606L136.199 31.3906C136.2 31.6639 136.024 31.8012 135.671 31.8025ZM134.27 34.4677C134.371 34.6274 134.302 34.8443 134.063 35.1185C133.824 35.3861 133.654 35.3934 133.553 35.1404L133.21 34.3017L133.225 38.5216C133.226 38.795 133.047 38.9323 132.687 38.9336C132.327 38.935 132.146 38.799 132.145 38.5256L132.133 35.1257C131.869 35.9666 131.651 36.5208 131.479 36.7881C131.373 36.9752 131.226 36.8657 131.038 36.4597C130.85 36.0538 130.818 35.7539 130.944 35.5601C131.077 35.3929 131.262 35.0056 131.5 34.398C131.738 33.7838 131.929 33.1731 132.073 32.5659L131.393 32.5684C131.12 32.5694 130.983 32.3866 130.981 32.0199C130.98 31.6466 131.116 31.4594 131.389 31.4584L132.119 31.4557L132.114 30.0057C132.113 29.7324 132.292 29.595 132.652 29.5937C133.012 29.5924 133.193 29.7284 133.194 30.0017L133.199 31.4517L133.809 31.4494C134.083 31.4484 134.22 31.6346 134.221 32.0079C134.223 32.3746 134.087 32.5584 133.813 32.5594L133.203 32.5617L133.204 32.7417C133.338 32.9345 133.549 33.2704 133.838 33.7493C134.133 34.2216 134.277 34.461 134.27 34.4677ZM135.669 34.0225L135.669 34.2025C135.67 34.3759 135.757 34.4622 135.93 34.4616L138.15 34.4534C138.324 34.4527 138.41 34.3657 138.409 34.1924L138.409 34.0124L135.669 34.0225ZM135.924 32.8216C135.751 32.8222 135.665 32.9092 135.665 33.0826L135.666 33.2526L138.406 33.2424L138.405 33.0724C138.405 32.8991 138.318 32.8127 138.144 32.8134L135.924 32.8216ZM139.606 35.848C139.879 35.847 140.016 36.0098 140.017 36.3364C140.019 36.6631 139.882 36.8269 139.609 36.828L137.929 36.8342C139.091 37.3899 139.803 37.7539 140.063 37.9263C140.21 38.0057 140.158 38.1826 139.905 38.4569C139.66 38.7378 139.457 38.8252 139.296 38.7191C138.962 38.4937 138.458 38.2122 137.783 37.8747C137.282 37.6099 137.168 37.3337 137.44 37.046L137.649 36.8352L137.329 36.8364C137.131 37.3505 136.799 37.7784 136.334 38.1201C135.875 38.4618 135.373 38.6937 134.826 38.8157C134.513 38.9035 134.256 38.7878 134.055 38.4686C133.854 38.1493 133.927 37.949 134.273 37.8677C135.066 37.7181 135.651 37.376 136.029 36.8412L134.479 36.847C134.206 36.848 134.069 36.6852 134.067 36.3585C134.066 36.0318 134.202 35.868 134.476 35.867L136.406 35.8598L136.483 35.2895L135.053 35.2948C134.733 35.296 134.573 35.1366 134.572 34.8166L134.563 32.4866C134.562 32.1666 134.721 32.006 135.041 32.0049L139.071 31.9899C139.391 31.9887 139.552 32.1481 139.553 32.4681L139.562 34.7981C139.563 35.1181 139.403 35.2787 139.083 35.2799L137.653 35.2852L137.586 35.8555L139.606 35.848ZM144.893 35.1284C144.947 35.3548 144.818 35.522 144.505 35.6298C144.198 35.7376 144.015 35.6283 143.954 35.3019C142.894 35.4658 142.201 35.5783 141.875 35.6396L141.595 35.7206C141.335 35.7882 141.141 35.6456 141.013 35.2927C140.885 34.9332 140.915 34.7098 141.101 34.6224C141.134 34.6623 141.314 34.4916 141.639 34.1104L142.306 33.2979L141.357 33.4515C141.197 33.4987 141.056 33.3559 140.935 33.023C140.814 32.6835 140.853 32.4533 141.053 32.3326L141.282 32.0717C141.481 31.811 141.709 31.4368 141.967 30.9492C142.232 30.4615 142.401 30.1042 142.473 29.8773C142.572 29.6303 142.796 29.5794 143.143 29.7248C143.497 29.8702 143.611 30.0731 143.485 30.3336C143.194 30.9613 142.84 31.556 142.422 32.1175C142.309 32.2713 142.339 32.3445 142.513 32.3372L142.992 32.2954L143.519 31.3434C143.651 31.1096 143.881 31.0988 144.209 31.3109C144.543 31.5163 144.637 31.7393 144.491 31.9798C144.028 32.7816 143.45 33.567 142.76 34.3363C142.634 34.4767 142.657 34.5366 142.831 34.516L143.71 34.4027L143.589 34.0532C143.508 33.7935 143.611 33.6164 143.897 33.522C144.19 33.4276 144.397 33.5502 144.518 33.8897C144.707 34.3491 144.832 34.7619 144.893 35.1284ZM141.179 36.7321C141.211 36.3387 141.387 36.168 141.707 36.2202C142.034 36.2723 142.181 36.4784 142.149 36.8385C142.118 37.4653 142.023 37.989 141.865 38.4096C141.799 38.6365 141.609 38.6939 141.296 38.5817C140.989 38.4762 140.865 38.3233 140.924 38.1231C141.056 37.8226 141.141 37.359 141.179 36.7321ZM142.549 36.8271C142.494 36.4539 142.617 36.2368 142.917 36.1757C143.223 36.1146 143.407 36.2639 143.468 36.6237C143.564 37.1033 143.608 37.4065 143.602 37.5332C143.623 37.7731 143.557 37.9667 143.404 38.1139C143.258 38.2678 143.028 38.3153 142.714 38.2565L142.684 38.1166L142.549 36.8271ZM143.728 36.4527C143.66 36.1929 143.77 36.0159 144.056 35.9215C144.342 35.8271 144.526 35.9097 144.607 36.1694L144.86 36.9685C144.934 37.2282 144.818 37.412 144.512 37.5198C144.205 37.6276 144.019 37.5516 143.951 37.2919L143.728 36.4527ZM146.317 36.1431L146.322 37.6531L148.402 37.6454L148.397 36.1354L146.317 36.1431ZM148.379 31.3854C148.378 31.2121 148.291 31.1257 148.118 31.1264L146.558 31.1322C146.385 31.1328 146.298 31.2198 146.299 31.3931L146.303 32.5731L148.383 32.5654L148.379 31.3854ZM148.393 35.0854L148.387 33.6354L146.307 33.6431L146.313 35.0931L148.393 35.0854ZM149.532 37.6412L149.752 37.6404C150.026 37.6394 150.163 37.8155 150.164 38.1688C150.166 38.5288 150.03 38.7094 149.756 38.7104L144.876 38.7285C144.61 38.7294 144.476 38.5499 144.474 38.1899C144.473 37.8366 144.609 37.6594 144.882 37.6584L145.242 37.6571L145.216 30.5471C145.215 30.2271 145.374 30.0665 145.694 30.0654L149.024 30.053C149.344 30.0518 149.505 30.2112 149.506 30.5312L149.532 37.6412ZM153.144 29.9477C153.249 29.694 153.486 29.6298 153.853 29.7551C154.227 29.8737 154.357 30.0566 154.245 30.3037C154.093 30.6842 153.828 31.1952 153.451 31.8366L153.475 38.4566C153.476 38.7299 153.287 38.8673 152.907 38.8687C152.533 38.8701 152.346 38.7341 152.345 38.4608L152.327 33.4808C151.988 33.9087 151.756 34.1796 151.63 34.2934C151.457 34.4607 151.263 34.3381 151.048 33.9255C150.84 33.513 150.829 33.223 151.015 33.0557C151.341 32.7811 151.732 32.3097 152.19 31.6413C152.648 30.9729 152.965 30.4084 153.144 29.9477ZM156.922 37.5738L158.382 37.5684C158.629 37.5675 158.792 37.4369 158.871 37.1766C158.95 36.9163 158.998 36.5494 159.017 36.076C159.042 35.6893 159.228 35.5786 159.575 35.744C159.929 35.9093 160.09 36.1754 160.058 36.5422C160.027 37.1756 159.902 37.6794 159.684 38.0536C159.465 38.4277 159.063 38.6159 158.476 38.618L156.806 38.6242C156.193 38.6265 155.775 38.5047 155.555 38.2589C155.334 38.013 155.222 37.5501 155.219 36.8701L155.194 30.1201C155.193 29.8468 155.383 29.7094 155.763 29.708C156.15 29.7066 156.343 29.8426 156.344 30.1159L156.352 32.2459L159.422 32.2345C159.696 32.2335 159.833 32.423 159.834 32.803C159.836 33.183 159.7 33.3735 159.426 33.3745L156.357 33.3859L156.369 36.8858C156.371 37.1858 156.401 37.3757 156.462 37.4555C156.529 37.5353 156.682 37.5747 156.922 37.5738Z" fill="#2382C9"/>
<path d="M81.0547 51.0922C81.0536 50.8149 80.9145 50.6767 80.6371 50.6778L78.0131 50.6875C78.6174 52.5626 79.6357 53.8922 81.0679 54.6762L81.0547 51.0922ZM72.4452 50.7081C72.1678 50.7092 72.0297 50.8483 72.0307 51.1257L72.0447 54.8856C73.5669 54.0373 74.5964 52.6415 75.1332 50.6982L72.4452 50.7081ZM82.2302 48.8158C82.7422 48.8139 82.9992 49.069 83.0011 49.581L83.0322 57.9809C83.0342 58.5143 82.9717 58.9198 82.8447 59.1976C82.7178 59.4861 82.452 59.7218 82.0473 59.9046C81.6427 60.0981 80.9657 60.1913 80.0164 60.1841C79.3871 60.1971 78.9646 59.884 78.7489 59.2448C78.5438 58.6056 78.6227 58.2906 78.9854 58.2999C79.2094 58.3098 79.7801 58.313 80.6974 58.3096C80.9534 58.3086 81.081 58.1908 81.0801 57.9562L81.0695 55.0922C80.6233 55.5845 80.4003 55.852 80.4005 55.8947C80.1353 56.2903 79.7888 56.3503 79.3611 56.0745C78.2067 55.4281 77.2685 54.1249 76.5466 52.1649C75.8289 54.2156 74.8312 55.5686 73.5536 56.2241C73.1279 56.4816 72.765 56.4136 72.4649 56.0201L72.0469 55.4776L72.0621 59.5896C72.0637 60.0269 71.7392 60.2468 71.0885 60.2492C70.4485 60.2516 70.1277 60.0341 70.1261 59.5968L70.0892 49.6289C70.0873 49.1169 70.3423 48.8599 70.8543 48.858L75.7503 48.8399L75.6673 48.0242C75.6449 47.7469 75.495 47.6088 75.2177 47.6098L73.5857 47.6159C73.1484 47.6175 72.9287 47.341 72.9266 46.7863C72.9246 46.2317 73.1422 45.9535 73.5796 45.9519L76.5235 45.941C77.0249 45.9391 77.2978 46.1888 77.3423 46.6899L77.5583 48.8332L82.2302 48.8158ZM99.1623 54.2091C99.0783 54.5508 98.8014 54.6638 98.3316 54.5482C97.8618 54.4326 97.6635 54.1613 97.7366 53.7344L97.9722 52.5495C98.0139 52.2827 97.896 52.1498 97.6187 52.1508L94.8827 52.161C94.5459 53.3782 94.2555 54.1633 94.0114 54.5162C93.8419 54.8262 93.5059 54.8274 93.0034 54.52C92.501 54.2125 92.3345 53.9144 92.5041 53.6258C93.0345 52.8345 93.3875 51.6438 93.5629 50.0538C93.646 49.4562 93.9758 49.2043 94.5521 49.2982C95.1391 49.392 95.3961 49.6524 95.323 50.0793L95.2447 50.5436L99.0854 50.7054C99.6081 50.7248 99.8068 51.0867 99.6814 51.7912C99.5462 52.7304 99.3732 53.5363 99.1623 54.2091ZM97.0372 46.3609C97.0356 45.9236 97.3708 45.7037 98.0428 45.7012C98.7148 45.6987 99.0516 45.9161 99.0532 46.3535L99.06 48.1935C99.0619 48.7055 98.8069 48.9624 98.2949 48.9643L86.791 49.0069C86.2896 49.0088 86.038 48.7537 86.0361 48.2417L86.0293 46.4017C86.0277 45.9644 86.3469 45.7446 86.9869 45.7422C87.6375 45.7398 87.9637 45.9572 87.9653 46.3946L87.9676 47.0026C87.9686 47.2799 88.1078 47.418 88.3851 47.417L91.4731 47.4056L91.4674 45.8696C91.4658 45.4323 91.7903 45.2124 92.4409 45.21C93.1023 45.2075 93.4337 45.425 93.4354 45.8623L93.4411 47.3983L96.625 47.3865C96.9024 47.3855 97.0405 47.2463 97.0395 46.9689L97.0372 46.3609ZM90.0261 54.163L90.0206 52.691L87.9887 52.6985L87.9941 54.1705L90.0261 54.163ZM88.004 56.8265C88.005 57.1038 88.1442 57.242 88.4215 57.241L89.6215 57.2365C89.8988 57.2355 90.037 57.0963 90.036 56.819L90.0318 55.699L87.9998 55.7065L88.004 56.8265ZM92.0783 50.9874C92.5157 50.9857 92.7354 51.2676 92.7375 51.8329C92.7396 52.3982 92.522 52.6817 92.0846 52.6833L91.7966 52.6844L91.8169 58.1404C91.8188 58.6524 91.5637 58.9093 91.0517 58.9112L86.9877 58.9263C86.4757 58.9282 86.2188 58.6731 86.2169 58.1611L86.1967 52.7052L85.7967 52.7067C85.3593 52.7083 85.1396 52.4264 85.1375 51.8611C85.1354 51.2958 85.3531 51.0123 85.7904 51.0107L86.1904 51.0092L86.1875 50.2252C86.1859 49.7879 86.4837 49.5681 87.081 49.5659C87.6784 49.5637 87.9778 49.7812 87.9795 50.2185L87.9824 51.0025L90.0144 50.995L90.0115 50.211C90.0098 49.7737 90.3024 49.5539 90.889 49.5518C91.4863 49.5495 91.7858 49.7671 91.7874 50.2044L91.7904 50.9884L92.0783 50.9874ZM95.1432 53.376C95.1421 53.0667 95.4562 52.9109 96.0855 52.9085C96.7148 52.9062 97.0301 53.0757 97.0314 53.417C97.0334 53.961 96.9874 54.4999 96.8934 55.0335C97.195 55.8324 97.6137 56.5615 98.1495 57.2209C98.6852 57.8696 99.108 58.2627 99.4179 58.4002C99.792 58.6122 99.7666 58.9536 99.3417 59.4245C98.9168 59.9061 98.5332 60.0302 98.191 59.7968C97.5069 59.4046 96.8105 58.5752 96.1018 57.3085C95.4979 58.4094 94.7916 59.2227 93.9828 59.7484C93.6105 60.0271 93.1783 59.97 92.6862 59.5772C92.1941 59.195 92.1396 58.8805 92.5227 58.6338C92.7463 58.5156 93.0706 58.2371 93.4956 57.7982C93.9206 57.3486 94.2391 56.9421 94.4511 56.5786C94.663 56.2045 94.8215 55.7879 94.9265 55.3288C95.0421 54.8697 95.1048 54.5175 95.1145 54.2721C95.135 54.0267 95.1445 53.728 95.1432 53.376ZM111.475 47.9714L111.473 47.2514L110.625 47.2546L110.627 47.9746L111.475 47.9714ZM113.754 49.723C113.753 49.4457 113.614 49.3075 113.336 49.3086L112.84 49.3104L112.845 50.5104L113.341 50.5085C113.618 50.5075 113.756 50.3683 113.755 50.091L113.754 49.723ZM110.632 49.3186L110.637 50.5186L111.485 50.5154L111.48 49.3154L110.632 49.3186ZM108.84 49.3252C108.563 49.3262 108.425 49.4654 108.426 49.7428L108.427 50.1108C108.428 50.3881 108.567 50.5262 108.845 50.5252L109.293 50.5235L109.288 49.3236L108.84 49.3252ZM109.283 47.9796L109.281 47.2596L107.233 47.2672C106.795 47.2688 106.576 47.0189 106.574 46.5176C106.572 46.0163 106.784 45.7648 107.211 45.7632L115.019 45.7343C115.456 45.7327 115.676 45.9825 115.678 46.4839C115.68 46.9852 115.462 47.2367 115.025 47.2383L112.833 47.2464L112.835 47.9664L114.627 47.9598C115.139 47.9579 115.396 48.2129 115.398 48.7249L115.407 51.0769C115.409 51.5889 115.154 51.8458 114.642 51.8477L107.666 51.8736C107.154 51.8755 106.897 51.6204 106.895 51.1084L106.886 48.7565C106.884 48.2445 107.139 47.9875 107.651 47.9856L109.283 47.9796ZM114.1 52.4097C114.537 52.4081 114.757 52.6473 114.758 53.1273C114.76 53.6073 114.542 53.8481 114.105 53.8497L108.233 53.8715C107.796 53.8731 107.576 53.6339 107.574 53.1539C107.573 52.6739 107.79 52.4331 108.228 52.4315L114.1 52.4097ZM106.63 53.0774C106.802 53.3435 106.702 53.6958 106.33 54.1346C105.969 54.5626 105.702 54.5796 105.53 54.1855L104.998 52.9875L105.022 59.4514C105.023 59.8888 104.736 60.1085 104.16 60.1106C103.584 60.1128 103.295 59.8952 103.294 59.4578L103.272 53.4419C102.798 55.065 102.38 56.1492 102.02 56.6945C101.85 56.9832 101.615 56.8081 101.314 56.1692C101.023 55.5196 100.979 55.0397 101.18 54.7296C101.403 54.4515 101.71 53.821 102.101 52.8382C102.492 51.8448 102.798 50.873 103.018 49.9228L101.914 49.9269C101.477 49.9285 101.257 49.636 101.255 49.0493C101.253 48.4627 101.471 48.1685 101.908 48.1669L103.252 48.1619L103.243 45.8419C103.242 45.4046 103.529 45.1849 104.105 45.1827C104.681 45.1806 104.97 45.3982 104.971 45.8355L104.98 48.1555L105.876 48.1522C106.313 48.1506 106.533 48.4431 106.535 49.0298C106.537 49.6164 106.32 49.9106 105.882 49.9122L104.986 49.9155L104.989 50.6195C105.182 50.8641 105.504 51.3376 105.954 52.0399C106.416 52.7316 106.641 53.0774 106.63 53.0774ZM107.589 57.0419C107.843 56.5716 108.243 56.4155 108.787 56.5735C109.342 56.7207 109.498 57.0242 109.255 57.4837C108.948 58.1675 108.481 58.7826 107.853 59.3289C107.545 59.6501 107.151 59.6409 106.669 59.3013C106.199 58.9724 106.134 58.6633 106.474 58.3741C107.006 57.9881 107.377 57.544 107.589 57.0419ZM115.742 55.2357C115.744 55.7263 115.526 55.9725 115.089 55.9741L111.953 55.9857L111.966 59.4257C111.967 59.863 111.686 60.0827 111.12 60.0848C110.555 60.0869 110.271 59.8693 110.27 59.432L110.257 55.992L107.281 56.003C106.844 56.0047 106.624 55.7601 106.622 55.2695C106.62 54.7681 106.838 54.5167 107.276 54.5151L115.083 54.4861C115.521 54.4845 115.74 54.7343 115.742 55.2357ZM113.047 57.6297C112.715 57.2362 112.778 56.9213 113.236 56.685C113.693 56.4486 114.056 56.4953 114.324 56.8249L115.53 58.3085C115.798 58.6382 115.687 58.9479 115.197 59.2377C114.707 59.5275 114.355 59.4755 114.141 59.0816C113.979 58.7089 113.615 58.2249 113.047 57.6297ZM128.561 47.2201L126.737 47.2269C126.365 47.7936 126.073 48.1573 125.861 48.3181C125.553 48.6286 125.163 48.598 124.692 48.2265C124.222 47.8549 124.151 47.5245 124.481 47.2352C125.066 46.8064 125.459 46.2929 125.659 45.6949C125.87 45.2034 126.265 45.0313 126.841 45.1785C127.428 45.3256 127.637 45.5969 127.468 45.9921L127.42 46.0723L131.18 46.0584C131.618 46.0568 131.837 46.248 131.838 46.632C131.84 47.016 131.622 47.2088 131.185 47.2104L129.153 47.2179C129.57 47.5684 129.747 47.733 129.682 47.712C129.929 48.0097 129.791 48.2769 129.269 48.5135C128.748 48.7501 128.342 48.7089 128.053 48.39C127.657 47.9328 127.751 47.5751 128.337 47.3169L128.561 47.2201ZM128.89 49.8269C128.644 49.4758 128.739 49.1875 129.175 48.9618C129.622 48.7255 129.98 48.7775 130.248 49.1179L130.826 49.8677C131.094 50.2081 130.994 50.5071 130.526 50.7648C130.057 51.0226 129.7 50.9759 129.453 50.6248L128.89 49.8269ZM121.393 47.2627L119.889 47.2683C119.39 47.8888 119.018 48.2955 118.773 48.4884C118.454 48.7669 118.081 48.6936 117.652 48.2685C117.235 47.8328 117.207 47.4755 117.568 47.1968C118.228 46.7464 118.696 46.2327 118.971 45.6556C119.236 45.2067 119.646 45.0665 120.201 45.2351C120.767 45.4036 120.944 45.6803 120.732 46.0651L120.716 46.0812L123.628 46.0704C124.066 46.0688 124.285 46.2653 124.287 46.6599C124.288 47.0546 124.07 47.2528 123.633 47.2544L122.273 47.2594L122.851 47.7853C123.161 48.0828 123.066 48.3605 122.566 48.6183C122.065 48.8762 121.665 48.851 121.365 48.5428L121.189 48.3674C120.739 47.9211 120.807 47.5528 121.393 47.2627ZM124.968 57.8575C125.491 57.8342 125.753 57.9879 125.754 58.3186C126.392 57.8896 126.897 57.477 127.269 57.081C126.859 55.8771 126.571 54.4115 126.405 52.6841L123.797 52.6938L123.799 53.3338L125.079 53.3291C125.517 53.3274 125.736 53.492 125.737 53.8226C125.738 54.1533 125.52 54.3194 125.083 54.321L123.803 54.3258L123.805 54.8858L124.989 54.8814C125.426 54.8798 125.646 55.039 125.647 55.359C125.648 55.6683 125.43 55.8238 124.993 55.8254L123.809 55.8298L123.811 56.3898L125.251 56.3844C125.688 56.3828 125.907 56.5527 125.908 56.894C125.91 57.2247 125.692 57.3908 125.254 57.3924L123.814 57.3978L123.816 57.9418L124.968 57.8575ZM121.349 52.7029L121.369 58.0948L122.313 58.0433L122.293 52.6994L121.349 52.7029ZM118.912 51.3999L120.912 51.3925C120.676 51.052 120.403 50.7384 120.093 50.4515C119.753 50.8048 119.359 51.1209 118.912 51.3999ZM122.319 51.0033C122.104 50.7907 121.891 50.7649 121.678 50.9256L121.088 51.3918L122.688 51.3859L122.319 51.0033ZM123.152 51.3842L124.752 51.3783C124.538 51.1124 124.297 50.8466 124.029 50.5809C123.795 50.8591 123.503 51.1269 123.152 51.3842ZM129.624 53.4882C129.761 53.0824 130.075 52.9479 130.566 53.0847C131.068 53.2109 131.24 53.4929 131.082 53.9308C130.744 55.0414 130.114 56.1691 129.19 57.3138C129.502 57.91 129.823 58.2075 130.153 58.2063C130.292 58.2058 130.393 58.0987 130.456 57.8852L130.518 57.4209C130.57 56.9834 130.821 56.9025 131.27 57.1781C131.719 57.4538 131.891 57.8692 131.786 58.4242C131.777 58.7656 131.634 59.0968 131.358 59.4178C131.082 59.7388 130.64 59.9005 130.032 59.9027C129.242 59.9057 128.558 59.4709 127.979 58.5983C127.266 59.209 126.75 59.5896 126.431 59.7401C126.037 59.9869 125.685 59.9242 125.374 59.552L124.989 59.1054C122.067 59.3616 119.742 59.5409 118.015 59.6433C117.652 59.6766 117.438 59.4641 117.372 59.0057C117.307 58.5472 117.492 58.3065 117.93 58.2836L119.865 58.1804L119.863 57.4924L118.327 57.4981C117.889 57.4997 117.67 57.3352 117.669 57.0045C117.668 56.6632 117.886 56.4917 118.323 56.4901L119.859 56.4844L119.857 55.8764L118.689 55.8808C118.251 55.8824 118.032 55.7285 118.031 55.4192C118.03 55.0992 118.248 54.9384 118.685 54.9368L119.853 54.9324L119.851 54.3564L118.539 54.3613C118.102 54.3629 117.882 54.2037 117.881 53.8837C117.88 53.5531 118.098 53.3869 118.535 53.3853L119.847 53.3804L119.845 52.7085L117.845 52.7159C117.408 52.7175 117.188 52.4996 117.187 52.0623C117.185 51.625 117.403 51.4055 117.84 51.4039L118.56 51.4012L118.351 51.194C117.902 50.737 118.039 50.3098 118.763 49.9124C119.114 49.8578 119.327 49.5637 119.399 49.0301C119.558 48.6135 119.872 48.4363 120.341 48.4986C120.822 48.5608 120.983 48.8269 120.824 49.2968L122.029 50.4603C122.838 50.02 123.263 49.5758 123.304 49.1276C123.451 48.6897 123.76 48.5019 124.23 48.5642C124.699 48.6158 124.876 48.8498 124.76 49.2662L124.713 49.3784C125.28 49.835 125.569 50.1059 125.58 50.1912C125.88 50.5421 125.827 50.8676 125.423 51.1678L125.152 51.3768L126.288 51.3726L126.201 49.4529C126.189 49.0156 126.476 48.7958 127.062 48.7937C127.66 48.7915 127.965 49.009 127.977 49.4463L128.032 51.3661L131.152 51.3545C131.589 51.3529 131.809 51.5708 131.81 52.0081C131.812 52.4454 131.594 52.6649 131.157 52.6665L128.133 52.6777C128.254 53.7973 128.407 54.7354 128.591 55.4921C129.153 54.6366 129.498 53.9687 129.624 53.4882Z" fill="black" fill-opacity="0.85"/>
</g>
<defs>
<clipPath id="clip0_2306_6405">
<rect width="200" height="90" fill="white"/>
</clipPath>
</defs>
</svg>
