<svg width="216" height="226" viewBox="0 0 216 226" fill="none" xmlns="http://www.w3.org/2000/svg">
<g filter="url(#filter0_d_936_9485)">
<path d="M207.556 85.2738C211.357 89.3714 212.122 92.6748 210.51 98.0265C205.672 114.082 144.751 113.258 144.751 113.258L141.797 100.505C141.797 100.505 196.152 72.9807 207.556 85.2738Z" fill="#E285AE"/>
</g>
<g filter="url(#filter1_d_936_9485)">
<path d="M117.548 214.241C112.562 216.766 109.175 216.592 104.475 213.567C90.3733 204.494 107.946 146.157 107.946 146.157L121.019 146.83C121.019 146.83 132.507 206.664 117.548 214.241Z" fill="#E285AE"/>
</g>
<g filter="url(#filter2_d_936_9485)">
<path d="M58.8818 211.502C53.2929 211.577 50.3284 209.931 47.4373 205.147C38.764 190.796 80.2053 146.135 80.2053 146.135L91.6498 152.489C91.6498 152.489 75.6484 211.277 58.8818 211.502Z" fill="#E285AE"/>
</g>
<g filter="url(#filter3_d_936_9485)">
<path d="M8.59121 76.7813C8.08874 71.2145 9.50309 68.1328 14.0513 64.884C27.6961 55.1377 75.3989 93.0387 75.3989 93.0387L69.9388 104.936C69.9388 104.936 10.0986 93.4815 8.59121 76.7813Z" fill="#E285AE"/>
</g>
<g filter="url(#filter4_d_936_9485)">
<path d="M73.9479 1.00013L186.162 1L146.68 170.716H27.7598L73.9479 1.00013Z" fill="#F498C1"/>
<path d="M73.9479 1.00013L186.162 1L146.68 170.716H27.7598L73.9479 1.00013Z" fill="url(#paint0_linear_936_9485)"/>
</g>
<path d="M82.7793 41.6054C82.7793 33.6221 89.251 27.1504 97.2343 27.1504C105.218 27.1504 111.689 33.6221 111.689 41.6054V54.2794C111.689 62.2626 105.218 68.7344 97.2343 68.7344C89.251 68.7344 82.7793 62.2626 82.7793 54.2794V41.6054Z" fill="white"/>
<path className="eye" fill-rule="evenodd" clip-rule="evenodd" d="M106.827 51.1689L106.866 51.2066L97.6545 60.6042L87.8973 51.326L87.9238 51.299C87.7248 51.1446 87.532 50.9789 87.3459 50.802C84.3471 47.9504 84.2631 43.2443 87.1584 40.2905C89.886 37.5079 94.285 37.2734 97.2927 39.6402C100.214 37.2803 104.531 37.3987 107.315 40.046C110.314 42.8976 110.398 47.6037 107.503 50.5573C107.287 50.7771 107.062 50.981 106.827 51.1689Z" fill="black"/>
<path d="M126.027 41.6054C126.027 33.6221 132.499 27.1504 140.482 27.1504C148.466 27.1504 154.937 33.6221 154.937 41.6054V54.2794C154.937 62.2626 148.466 68.7344 140.482 68.7344C132.499 68.7344 126.027 62.2626 126.027 54.2794V41.6054Z" fill="white"/>
<path className="eye" fill-rule="evenodd" clip-rule="evenodd" d="M150.075 51.1689L150.114 51.2066L140.903 60.6042L131.145 51.326L131.172 51.299C130.973 51.1446 130.78 50.9789 130.594 50.802C127.595 47.9504 127.511 43.2443 130.406 40.2905C133.134 37.5079 137.533 37.2734 140.541 39.6402C143.462 37.2803 147.779 37.3987 150.563 40.046C153.562 42.8976 153.646 47.6037 150.751 50.5573C150.535 50.7771 150.31 50.981 150.075 51.1689Z" fill="black"/>
<path fill-rule="evenodd" clip-rule="evenodd" d="M119.685 74.1535C119.684 74.1536 119.685 74.1535 119.685 74.1535V74.1535ZM119.685 74.1535L119.687 74.1525L119.703 74.1456C119.719 74.1391 119.743 74.1287 119.777 74.1148C119.843 74.0871 119.944 74.0457 120.074 73.9937C120.335 73.8895 120.711 73.7438 121.166 73.5815C122.084 73.2537 123.278 72.8727 124.457 72.6233C125.691 72.362 126.671 72.2986 127.266 72.42C127.376 72.4425 127.449 72.4666 127.494 72.4848C127.494 72.4879 127.494 72.4912 127.495 72.4945C127.524 72.8254 127.471 72.954 127.461 72.9772C127.453 72.9948 127.433 73.0388 127.326 73.1172C127.007 73.3504 126.468 73.5269 125.428 73.8139C125.385 73.8256 125.342 73.8375 125.297 73.8498C124.457 74.0803 123.209 74.4225 122.227 75.1304C121.659 75.5394 121.13 76.0975 120.777 76.8568C120.427 77.6124 120.308 78.4429 120.369 79.3122C120.432 80.2124 120.719 81.056 121.301 81.7503C121.87 82.4303 122.591 82.8108 123.255 83.0292C124.414 83.4105 125.798 83.4062 126.783 83.4031C126.833 83.4029 126.881 83.4028 126.929 83.4027C128.137 83.4002 128.864 83.4211 129.324 83.5744C129.365 83.5881 129.395 83.6004 129.417 83.6104C129.423 83.6401 129.429 83.6833 129.432 83.7432C129.436 83.823 129.427 83.8296 129.42 83.8343C129.419 83.8351 129.418 83.8359 129.417 83.837C129.373 83.8903 129.219 84.0347 128.821 84.1972C127.998 84.5329 126.717 84.7179 125.2 84.7603C123.729 84.8013 122.228 84.7053 121.077 84.5953C120.506 84.5407 120.031 84.4836 119.701 84.4405C119.536 84.419 119.408 84.401 119.323 84.3887C119.28 84.3825 119.248 84.3778 119.228 84.3747L119.206 84.3715L119.203 84.3709C119.202 84.3709 119.203 84.3709 119.203 84.3709C118.112 84.2004 117.088 84.9462 116.917 86.0371C116.746 87.1284 117.492 88.1517 118.583 88.3227L118.886 86.3925C118.583 88.3227 118.583 88.3226 118.583 88.3227L118.585 88.323L118.588 88.3235L118.598 88.325L118.631 88.33C118.66 88.3343 118.699 88.3402 118.75 88.3476C118.852 88.3623 118.999 88.3828 119.183 88.4069C119.551 88.4549 120.073 88.5175 120.697 88.5772C121.936 88.6956 123.616 88.806 125.311 88.7587C126.96 88.7127 128.828 88.5148 130.333 87.9004C131.098 87.5878 131.901 87.1153 132.508 86.3758C133.153 85.5904 133.484 84.6144 133.426 83.5297C133.378 82.6327 133.108 81.7828 132.535 81.0783C131.972 80.3871 131.252 80.0006 130.588 79.7795C129.434 79.3948 128.05 79.3992 127.067 79.4023C127.017 79.4024 126.968 79.4026 126.92 79.4027C125.714 79.4052 124.978 79.3852 124.504 79.2294C124.445 79.2097 124.405 79.1924 124.38 79.1799C124.373 79.1501 124.364 79.1027 124.359 79.0324C124.336 78.7045 124.391 78.5723 124.405 78.5411C124.418 78.5135 124.447 78.4607 124.564 78.3761C124.9 78.1345 125.453 77.9564 126.492 77.6698C126.533 77.6584 126.575 77.6467 126.619 77.6347C127.458 77.4045 128.709 77.0613 129.687 76.3463C130.254 75.9319 130.777 75.3661 131.118 74.5983C131.456 73.836 131.556 73.0035 131.479 72.1389C131.391 71.1598 131.004 70.2761 130.296 69.6036C129.624 68.9641 128.804 68.6514 128.065 68.5006C126.637 68.2095 124.993 68.4212 123.628 68.71C122.208 69.0107 120.827 69.4548 119.82 69.8146C119.312 69.9961 118.889 70.1598 118.59 70.2791C118.441 70.3388 118.322 70.3876 118.239 70.4223C118.197 70.4396 118.164 70.4533 118.141 70.4632L118.114 70.4749L118.105 70.4785L118.102 70.4801C118.101 70.4803 118.101 70.4805 118.893 72.3169L118.102 70.4801C117.087 70.9177 116.619 72.0949 117.057 73.1091C117.494 74.1231 118.671 74.5906 119.685 74.1535ZM124.39 79.2135C124.392 79.2187 124.394 79.2217 124.393 79.2219C124.393 79.2221 124.392 79.2195 124.39 79.2135Z" fill="black"/>
<defs>
<filter id="filter0_d_936_9485" x="133.797" y="80.1133" width="81.5098" height="43.1523" filterUnits="userSpaceOnUse" color-interpolation-filters="sRGB">
<feFlood flood-opacity="0" result="BackgroundImageFix"/>
<feColorMatrix in="SourceAlpha" type="matrix" values="0 0 0 0 0 0 0 0 0 0 0 0 0 0 0 0 0 0 127 0" result="hardAlpha"/>
<feOffset dx="-2" dy="4"/>
<feGaussianBlur stdDeviation="3"/>
<feComposite in2="hardAlpha" operator="out"/>
<feColorMatrix type="matrix" values="0 0 0 0 0 0 0 0 0 0 0 0 0 0 0 0 0 0 0.25 0"/>
<feBlend mode="normal" in2="BackgroundImageFix" result="effect1_dropShadow_936_9485"/>
<feBlend mode="normal" in="SourceGraphic" in2="effect1_dropShadow_936_9485" result="shape"/>
</filter>
<filter id="filter1_d_936_9485" x="90.9961" y="144.156" width="38.2363" height="81.8418" filterUnits="userSpaceOnUse" color-interpolation-filters="sRGB">
<feFlood flood-opacity="0" result="BackgroundImageFix"/>
<feColorMatrix in="SourceAlpha" type="matrix" values="0 0 0 0 0 0 0 0 0 0 0 0 0 0 0 0 0 0 127 0" result="hardAlpha"/>
<feOffset dx="-2" dy="4"/>
<feGaussianBlur stdDeviation="3"/>
<feComposite in2="hardAlpha" operator="out"/>
<feColorMatrix type="matrix" values="0 0 0 0 0 0 0 0 0 0 0 0 0 0 0 0 0 0 0.25 0"/>
<feBlend mode="normal" in2="BackgroundImageFix" result="effect1_dropShadow_936_9485"/>
<feBlend mode="normal" in="SourceGraphic" in2="effect1_dropShadow_936_9485" result="shape"/>
</filter>
<filter id="filter2_d_936_9485" x="38.2441" y="144.135" width="57.4062" height="77.3691" filterUnits="userSpaceOnUse" color-interpolation-filters="sRGB">
<feFlood flood-opacity="0" result="BackgroundImageFix"/>
<feColorMatrix in="SourceAlpha" type="matrix" values="0 0 0 0 0 0 0 0 0 0 0 0 0 0 0 0 0 0 127 0" result="hardAlpha"/>
<feOffset dx="-2" dy="4"/>
<feGaussianBlur stdDeviation="3"/>
<feComposite in2="hardAlpha" operator="out"/>
<feColorMatrix type="matrix" values="0 0 0 0 0 0 0 0 0 0 0 0 0 0 0 0 0 0 0.25 0"/>
<feBlend mode="normal" in2="BackgroundImageFix" result="effect1_dropShadow_936_9485"/>
<feBlend mode="normal" in="SourceGraphic" in2="effect1_dropShadow_936_9485" result="shape"/>
</filter>
<filter id="filter3_d_936_9485" x="0.494141" y="61.2812" width="78.9043" height="53.6543" filterUnits="userSpaceOnUse" color-interpolation-filters="sRGB">
<feFlood flood-opacity="0" result="BackgroundImageFix"/>
<feColorMatrix in="SourceAlpha" type="matrix" values="0 0 0 0 0 0 0 0 0 0 0 0 0 0 0 0 0 0 127 0" result="hardAlpha"/>
<feOffset dx="-2" dy="4"/>
<feGaussianBlur stdDeviation="3"/>
<feComposite in2="hardAlpha" operator="out"/>
<feColorMatrix type="matrix" values="0 0 0 0 0 0 0 0 0 0 0 0 0 0 0 0 0 0 0.25 0"/>
<feBlend mode="normal" in2="BackgroundImageFix" result="effect1_dropShadow_936_9485"/>
<feBlend mode="normal" in="SourceGraphic" in2="effect1_dropShadow_936_9485" result="shape"/>
</filter>
<filter id="filter4_d_936_9485" x="17.0598" y="0.3" width="179.802" height="191.117" filterUnits="userSpaceOnUse" color-interpolation-filters="sRGB">
<feFlood flood-opacity="0" result="BackgroundImageFix"/>
<feColorMatrix in="SourceAlpha" type="matrix" values="0 0 0 0 0 0 0 0 0 0 0 0 0 0 0 0 0 0 127 0" result="hardAlpha"/>
<feOffset dy="10"/>
<feGaussianBlur stdDeviation="5.35"/>
<feComposite in2="hardAlpha" operator="out"/>
<feColorMatrix type="matrix" values="0 0 0 0 0 0 0 0 0 0 0 0 0 0 0 0 0 0 0.25 0"/>
<feBlend mode="normal" in2="BackgroundImageFix" result="effect1_dropShadow_936_9485"/>
<feBlend mode="normal" in="SourceGraphic" in2="effect1_dropShadow_936_9485" result="shape"/>
</filter>
<linearGradient id="paint0_linear_936_9485" x1="120.404" y1="0.999999" x2="87.5718" y2="161.748" gradientUnits="userSpaceOnUse">
<stop offset="0.235" stop-color="#F498C1" stop-opacity="0"/>
<stop offset="1" stop-color="#E285AE"/>
</linearGradient>
</defs>
</svg>
