<svg width="231" height="143" viewBox="0 0 231 143" fill="none" xmlns="http://www.w3.org/2000/svg">
<g filter="url(#filter0_d_936_9583)">
<path d="M212.047 91.3637C213.408 89.2055 217.282 83.9177 220.549 87.7089C223.044 90.6031 220.549 94.2089 220.549 94.2089C220.549 94.2089 225.521 98.4105 226.56 101.21C227.557 103.896 225.491 107.72 223.363 110.102C223.022 110.756 222.619 111.468 222.15 112.263C212.316 128.935 171.885 102.097 171.885 102.097L175.147 85.9668C175.147 85.9668 184.08 86.3647 194.3 87.7613C196.821 87.8527 199.532 88.3578 202.042 88.9969C205.544 89.6477 208.977 90.4289 212.047 91.3637Z" fill="#F498C1"/>
</g>
<g filter="url(#filter1_d_936_9583)">
<path d="M19.2721 118C15.4968 112.488 6.6703 115.986 8.27235 109.5C13.0785 90.0414 34.7037 88.5 34.7037 88.5L34.7037 103.288C34.7037 103.288 30.5979 134.537 19.2721 118Z" fill="#F397C0"/>
</g>
<g filter="url(#filter2_d_936_9583)">
<path d="M197.555 1L56.4864 1.00016L29.2715 101H174.292L197.555 1Z" fill="#F498C1"/>
<path d="M197.555 1L56.4864 1.00016L29.2715 101H174.292L197.555 1Z" fill="url(#paint0_linear_936_9583)"/>
</g>
<path fill-rule="evenodd" clip-rule="evenodd" d="M129.98 80.8222L129.468 76.2955C129.329 75.0607 130.217 73.9466 131.451 73.8071C132.686 73.6675 133.8 74.5554 133.94 75.7902L134.607 81.6884C135.138 86.391 128.743 88.3112 126.596 84.0939L125.411 81.7659L123.667 83.6909C120.878 86.7705 115.781 84.4293 116.301 80.3065L117.382 71.7191C117.538 70.4862 118.663 69.6127 119.896 69.768C121.129 69.9232 122.002 71.0486 121.847 72.2815L120.864 80.082L122.319 78.476C124.318 76.2699 127.906 76.7484 129.256 79.4011L129.98 80.8222Z" fill="black"/>
<path d="M107.271 46C107.271 55.3888 99.8842 63 90.7715 63C81.6588 63 74.2715 55.3888 74.2715 46C74.2715 36.6112 81.6588 29 90.7715 29C99.8842 29 107.271 36.6112 107.271 46Z" fill="#FFFCFC"/>
<path d="M174.271 46C174.271 55.3888 166.884 63 157.771 63C148.659 63 141.271 55.3888 141.271 46C141.271 36.6112 148.659 29 157.771 29C166.884 29 174.271 36.6112 174.271 46Z" fill="#FFFCFC"/>
<path fill-rule="evenodd" clip-rule="evenodd" d="M81.8173 45.4536C80.2657 46.2272 79.3024 47.0112 78.8577 47.5902C78.1849 48.4662 76.9294 48.631 76.0533 47.9581C75.1773 47.2853 75.0126 46.0298 75.6854 45.1537C76.6462 43.9029 78.2038 42.7856 80.0323 41.8739C81.8968 40.9442 84.1873 40.156 86.7639 39.6418C91.9179 38.6132 98.3337 38.6582 104.937 40.9866C105.978 41.3539 106.525 42.4962 106.158 43.5379C105.79 44.5796 104.648 45.1263 103.606 44.759C97.7554 42.6957 92.0766 42.6605 87.5468 43.5645C85.2815 44.0165 83.3328 44.6979 81.8173 45.4536Z" fill="black"/>
<path fill-rule="evenodd" clip-rule="evenodd" d="M167.174 45.5823C168.957 46.2089 170.036 46.8947 170.495 47.3899C171.247 48.1992 172.513 48.2459 173.322 47.4942C174.131 46.7425 174.178 45.4771 173.426 44.6677C172.316 43.4723 170.52 42.5181 168.5 41.8085C166.423 41.0788 163.893 40.5322 161.107 40.2818C155.543 39.7818 148.79 40.4494 142.42 43.3906C141.417 43.8536 140.98 45.0419 141.443 46.0448C141.906 47.0476 143.094 47.4852 144.097 47.0222C149.716 44.4277 155.744 43.816 160.749 44.2658C163.248 44.4903 165.448 44.9759 167.174 45.5823Z" fill="black"/>
<path d="M101.273 49C101.273 53.4183 97.9156 57 93.7734 57C89.6313 57 86.2734 53.4183 86.2734 49C86.2734 44.5817 89.6313 41 93.7734 41C97.9156 41 101.273 44.5817 101.273 49Z" fill="black"/>
<path d="M169.273 50C169.273 54.4183 165.692 58 161.273 58C156.855 58 153.273 54.4183 153.273 50C153.273 45.5817 156.855 42 161.273 42C165.692 42 169.273 45.5817 169.273 50Z" fill="black"/>
<g filter="url(#filter3_d_936_9583)">
<path d="M9.77251 110.14C7.19274 117.399 16.7167 129.207 24.6134 130.19C36.2713 131.64 39.2716 131.64 45.2764 130.19C47.4677 129.66 52.7718 123.141 51.2871 119.142C50.2477 116.342 45.2764 112.141 45.2764 112.141C45.2764 112.141 47.7708 108.535 45.2764 105.641C41.2376 100.954 36.2717 110.14 36.2717 110.14C36.2717 110.14 13.3401 100.101 9.77251 110.14Z" fill="#F497C1"/>
</g>
<defs>
<filter id="filter0_d_936_9583" x="163.885" y="83.9668" width="66.9336" height="43.7559" filterUnits="userSpaceOnUse" color-interpolation-filters="sRGB">
<feFlood flood-opacity="0" result="BackgroundImageFix"/>
<feColorMatrix in="SourceAlpha" type="matrix" values="0 0 0 0 0 0 0 0 0 0 0 0 0 0 0 0 0 0 127 0" result="hardAlpha"/>
<feOffset dx="-2" dy="4"/>
<feGaussianBlur stdDeviation="3"/>
<feComposite in2="hardAlpha" operator="out"/>
<feColorMatrix type="matrix" values="0 0 0 0 0 0 0 0 0 0 0 0 0 0 0 0 0 0 0.25 0"/>
<feBlend mode="normal" in2="BackgroundImageFix" result="effect1_dropShadow_936_9583"/>
<feBlend mode="normal" in="SourceGraphic" in2="effect1_dropShadow_936_9583" result="shape"/>
</filter>
<filter id="filter1_d_936_9583" x="0.0800781" y="86.5" width="38.623" height="46.3281" filterUnits="userSpaceOnUse" color-interpolation-filters="sRGB">
<feFlood flood-opacity="0" result="BackgroundImageFix"/>
<feColorMatrix in="SourceAlpha" type="matrix" values="0 0 0 0 0 0 0 0 0 0 0 0 0 0 0 0 0 0 127 0" result="hardAlpha"/>
<feOffset dx="-2" dy="4"/>
<feGaussianBlur stdDeviation="3"/>
<feComposite in2="hardAlpha" operator="out"/>
<feColorMatrix type="matrix" values="0 0 0 0 0 0 0 0 0 0 0 0 0 0 0 0 0 0 0.25 0"/>
<feBlend mode="normal" in2="BackgroundImageFix" result="effect1_dropShadow_936_9583"/>
<feBlend mode="normal" in="SourceGraphic" in2="effect1_dropShadow_936_9583" result="shape"/>
</filter>
<filter id="filter2_d_936_9583" x="18.5715" y="0.3" width="189.683" height="121.4" filterUnits="userSpaceOnUse" color-interpolation-filters="sRGB">
<feFlood flood-opacity="0" result="BackgroundImageFix"/>
<feColorMatrix in="SourceAlpha" type="matrix" values="0 0 0 0 0 0 0 0 0 0 0 0 0 0 0 0 0 0 127 0" result="hardAlpha"/>
<feOffset dy="10"/>
<feGaussianBlur stdDeviation="5.35"/>
<feComposite in2="hardAlpha" operator="out"/>
<feColorMatrix type="matrix" values="0 0 0 0 0 0 0 0 0 0 0 0 0 0 0 0 0 0 0.25 0"/>
<feBlend mode="normal" in2="BackgroundImageFix" result="effect1_dropShadow_936_9583"/>
<feBlend mode="normal" in="SourceGraphic" in2="effect1_dropShadow_936_9583" result="shape"/>
</filter>
<filter id="filter3_d_936_9583" x="1.3418" y="102.309" width="54.2031" height="38.9688" filterUnits="userSpaceOnUse" color-interpolation-filters="sRGB">
<feFlood flood-opacity="0" result="BackgroundImageFix"/>
<feColorMatrix in="SourceAlpha" type="matrix" values="0 0 0 0 0 0 0 0 0 0 0 0 0 0 0 0 0 0 127 0" result="hardAlpha"/>
<feOffset dx="-2" dy="4"/>
<feGaussianBlur stdDeviation="3"/>
<feComposite in2="hardAlpha" operator="out"/>
<feColorMatrix type="matrix" values="0 0 0 0 0 0 0 0 0 0 0 0 0 0 0 0 0 0 0.25 0"/>
<feBlend mode="normal" in2="BackgroundImageFix" result="effect1_dropShadow_936_9583"/>
<feBlend mode="normal" in="SourceGraphic" in2="effect1_dropShadow_936_9583" result="shape"/>
</filter>
<linearGradient id="paint0_linear_936_9583" x1="114.888" y1="1" x2="73.6132" y2="203.083" gradientUnits="userSpaceOnUse">
<stop offset="0.235" stop-color="#F498C1" stop-opacity="0"/>
<stop offset="1" stop-color="#E285AE"/>
</linearGradient>
</defs>
</svg>
