<svg width="365" height="310" viewBox="0 0 365 310" fill="none" xmlns="http://www.w3.org/2000/svg">
<g filter="url(#filter0_d_936_7676)">
<ellipse cx="178.482" cy="177.995" rx="110.925" ry="86.2293" transform="rotate(19.3645 178.482 177.995)" fill="#FF615E"/>
<ellipse cx="178.482" cy="177.995" rx="110.925" ry="86.2293" transform="rotate(19.3645 178.482 177.995)" fill="url(#paint0_linear_936_7676)"/>
</g>
<ellipse cx="120.978" cy="131.128" rx="8.03065" ry="13.2019" transform="rotate(19.3645 120.978 131.128)" fill="black"/>
<ellipse cx="189.265" cy="155.128" rx="8.03065" ry="13.2019" transform="rotate(19.3645 189.265 155.128)" fill="black"/>
<path d="M126.025 153.467C118.937 173.636 168.166 190.938 175.255 170.769" stroke="black" stroke-width="9" stroke-linecap="round"/>
<g filter="url(#filter1_d_936_7676)">
<path d="M168.697 62.132C181.941 68.3643 187.98 74.764 191.387 86.1761C198.696 110.657 126.837 109.059 88.9556 106.571C80.33 106.005 77.4766 95.7428 84.6112 90.5926C107.131 74.3366 145.452 51.1936 168.697 62.132Z" fill="#6E5232"/>
<path d="M168.697 62.132C181.941 68.3643 187.98 74.764 191.387 86.1761C198.696 110.657 126.837 109.059 88.9556 106.571C80.33 106.005 77.4766 95.7428 84.6112 90.5926C107.131 74.3366 145.452 51.1936 168.697 62.132Z" fill="url(#paint1_radial_936_7676)" fill-opacity="0.2"/>
</g>
<g filter="url(#filter2_d_936_7676)">
<path d="M226.166 75.1212C206.144 69.6085 194.039 70.8681 180.689 79.8536C151.414 99.5576 237.448 166.083 281.115 197.335C289.777 203.534 300.453 195.722 297.35 185.341C286.105 147.729 262.272 85.0622 226.166 75.1212Z" fill="#6E5232"/>
<path d="M226.166 75.1212C206.144 69.6085 194.039 70.8681 180.689 79.8536C151.414 99.5576 237.448 166.083 281.115 197.335C289.777 203.534 300.453 195.722 297.35 185.341C286.105 147.729 262.272 85.0622 226.166 75.1212Z" fill="url(#paint2_radial_936_7676)" fill-opacity="0.2"/>
</g>
<g filter="url(#filter3_d_936_7676)">
<ellipse cx="178.482" cy="177.995" rx="110.925" ry="86.2293" transform="rotate(19.3645 178.482 177.995)" fill="#FF615E"/>
<ellipse cx="178.482" cy="177.995" rx="110.925" ry="86.2293" transform="rotate(19.3645 178.482 177.995)" fill="url(#paint3_linear_936_7676)"/>
</g>
<ellipse cx="120.978" cy="131.128" rx="8.03065" ry="13.2019" transform="rotate(19.3645 120.978 131.128)" fill="black"/>
<ellipse cx="189.265" cy="155.128" rx="8.03065" ry="13.2019" transform="rotate(19.3645 189.265 155.128)" fill="black"/>
<path d="M126.025 153.467C118.937 173.636 168.166 190.938 175.255 170.769" stroke="black" stroke-width="9" stroke-linecap="round"/>
<g filter="url(#filter4_d_936_7676)">
<path d="M168.697 62.132C181.941 68.3643 187.98 74.764 191.387 86.1761C198.696 110.657 126.837 109.059 88.9556 106.571C80.33 106.005 77.4766 95.7428 84.6112 90.5926C107.131 74.3366 145.452 51.1936 168.697 62.132Z" fill="#6E5232"/>
<path d="M168.697 62.132C181.941 68.3643 187.98 74.764 191.387 86.1761C198.696 110.657 126.837 109.059 88.9556 106.571C80.33 106.005 77.4766 95.7428 84.6112 90.5926C107.131 74.3366 145.452 51.1936 168.697 62.132Z" fill="url(#paint4_radial_936_7676)" fill-opacity="0.2"/>
</g>
<g filter="url(#filter5_d_936_7676)">
<path d="M226.166 75.1212C206.144 69.6085 194.039 70.8681 180.689 79.8536C151.414 99.5576 237.448 166.083 281.115 197.335C289.777 203.534 300.453 195.722 297.35 185.341C286.105 147.729 262.272 85.0622 226.166 75.1212Z" fill="#6E5232"/>
<path d="M226.166 75.1212C206.144 69.6085 194.039 70.8681 180.689 79.8536C151.414 99.5576 237.448 166.083 281.115 197.335C289.777 203.534 300.453 195.722 297.35 185.341C286.105 147.729 262.272 85.0622 226.166 75.1212Z" fill="url(#paint5_radial_936_7676)" fill-opacity="0.2"/>
</g>
<g filter="url(#filter6_d_936_7676)">
<path d="M271.632 266.198C268.92 271.209 261.34 270.849 255.83 271.7C239.301 274.254 226.55 223.582 226.55 223.582L237.646 215.671C237.646 215.671 279.767 251.165 271.632 266.198Z" fill="#DE2210"/>
</g>
<g filter="url(#filter7_d_936_7676)">
<path d="M49.9241 101.468C44.4245 102.958 43.0348 110.418 40.9418 115.585C34.663 131.087 81.056 155.127 81.056 155.127L91.3029 146.143C91.3029 146.143 66.423 97 49.9241 101.468Z" fill="#FF615E"/>
</g>
<defs>
<filter id="filter0_d_936_7676" x="63.8687" y="87.5934" width="239.225" height="200.804" filterUnits="userSpaceOnUse" color-interpolation-filters="sRGB">
<feFlood flood-opacity="0" result="BackgroundImageFix"/>
<feColorMatrix in="SourceAlpha" type="matrix" values="0 0 0 0 0 0 0 0 0 0 0 0 0 0 0 0 0 0 127 0" result="hardAlpha"/>
<feOffset dx="5" dy="10"/>
<feGaussianBlur stdDeviation="5.55"/>
<feComposite in2="hardAlpha" operator="out"/>
<feColorMatrix type="matrix" values="0 0 0 0 0 0 0 0 0 0 0 0 0 0 0 0 0 0 0.25 0"/>
<feBlend mode="normal" in2="BackgroundImageFix" result="effect1_dropShadow_936_7676"/>
<feBlend mode="normal" in="SourceGraphic" in2="effect1_dropShadow_936_7676" result="shape"/>
</filter>
<filter id="filter1_d_936_7676" x="70.0703" y="59.2988" width="132.334" height="71.0996" filterUnits="userSpaceOnUse" color-interpolation-filters="sRGB">
<feFlood flood-opacity="0" result="BackgroundImageFix"/>
<feColorMatrix in="SourceAlpha" type="matrix" values="0 0 0 0 0 0 0 0 0 0 0 0 0 0 0 0 0 0 127 0" result="hardAlpha"/>
<feOffset dy="12"/>
<feGaussianBlur stdDeviation="5.25"/>
<feComposite in2="hardAlpha" operator="out"/>
<feColorMatrix type="matrix" values="0 0 0 0 0 0 0 0 0 0 0 0 0 0 0 0 0 0 0.25 0"/>
<feBlend mode="normal" in2="BackgroundImageFix" result="effect1_dropShadow_936_7676"/>
<feBlend mode="normal" in="SourceGraphic" in2="effect1_dropShadow_936_7676" result="shape"/>
</filter>
<filter id="filter2_d_936_7676" x="164.24" y="71.8164" width="144.158" height="150.221" filterUnits="userSpaceOnUse" color-interpolation-filters="sRGB">
<feFlood flood-opacity="0" result="BackgroundImageFix"/>
<feColorMatrix in="SourceAlpha" type="matrix" values="0 0 0 0 0 0 0 0 0 0 0 0 0 0 0 0 0 0 127 0" result="hardAlpha"/>
<feOffset dy="12"/>
<feGaussianBlur stdDeviation="5.25"/>
<feComposite in2="hardAlpha" operator="out"/>
<feColorMatrix type="matrix" values="0 0 0 0 0 0 0 0 0 0 0 0 0 0 0 0 0 0 0.25 0"/>
<feBlend mode="normal" in2="BackgroundImageFix" result="effect1_dropShadow_936_7676"/>
<feBlend mode="normal" in="SourceGraphic" in2="effect1_dropShadow_936_7676" result="shape"/>
</filter>
<filter id="filter3_d_936_7676" x="63.8687" y="87.5934" width="239.225" height="200.804" filterUnits="userSpaceOnUse" color-interpolation-filters="sRGB">
<feFlood flood-opacity="0" result="BackgroundImageFix"/>
<feColorMatrix in="SourceAlpha" type="matrix" values="0 0 0 0 0 0 0 0 0 0 0 0 0 0 0 0 0 0 127 0" result="hardAlpha"/>
<feOffset dx="5" dy="10"/>
<feGaussianBlur stdDeviation="5.55"/>
<feComposite in2="hardAlpha" operator="out"/>
<feColorMatrix type="matrix" values="0 0 0 0 0 0 0 0 0 0 0 0 0 0 0 0 0 0 0.25 0"/>
<feBlend mode="normal" in2="BackgroundImageFix" result="effect1_dropShadow_936_7676"/>
<feBlend mode="normal" in="SourceGraphic" in2="effect1_dropShadow_936_7676" result="shape"/>
</filter>
<filter id="filter4_d_936_7676" x="70.0703" y="59.2988" width="132.334" height="71.0996" filterUnits="userSpaceOnUse" color-interpolation-filters="sRGB">
<feFlood flood-opacity="0" result="BackgroundImageFix"/>
<feColorMatrix in="SourceAlpha" type="matrix" values="0 0 0 0 0 0 0 0 0 0 0 0 0 0 0 0 0 0 127 0" result="hardAlpha"/>
<feOffset dy="12"/>
<feGaussianBlur stdDeviation="5.25"/>
<feComposite in2="hardAlpha" operator="out"/>
<feColorMatrix type="matrix" values="0 0 0 0 0 0 0 0 0 0 0 0 0 0 0 0 0 0 0.25 0"/>
<feBlend mode="normal" in2="BackgroundImageFix" result="effect1_dropShadow_936_7676"/>
<feBlend mode="normal" in="SourceGraphic" in2="effect1_dropShadow_936_7676" result="shape"/>
</filter>
<filter id="filter5_d_936_7676" x="164.24" y="71.8164" width="144.158" height="150.221" filterUnits="userSpaceOnUse" color-interpolation-filters="sRGB">
<feFlood flood-opacity="0" result="BackgroundImageFix"/>
<feColorMatrix in="SourceAlpha" type="matrix" values="0 0 0 0 0 0 0 0 0 0 0 0 0 0 0 0 0 0 127 0" result="hardAlpha"/>
<feOffset dy="12"/>
<feGaussianBlur stdDeviation="5.25"/>
<feComposite in2="hardAlpha" operator="out"/>
<feColorMatrix type="matrix" values="0 0 0 0 0 0 0 0 0 0 0 0 0 0 0 0 0 0 0.25 0"/>
<feBlend mode="normal" in2="BackgroundImageFix" result="effect1_dropShadow_936_7676"/>
<feBlend mode="normal" in="SourceGraphic" in2="effect1_dropShadow_936_7676" result="shape"/>
</filter>
<filter id="filter6_d_936_7676" x="218.551" y="213.67" width="58.123" height="68.123" filterUnits="userSpaceOnUse" color-interpolation-filters="sRGB">
<feFlood flood-opacity="0" result="BackgroundImageFix"/>
<feColorMatrix in="SourceAlpha" type="matrix" values="0 0 0 0 0 0 0 0 0 0 0 0 0 0 0 0 0 0 127 0" result="hardAlpha"/>
<feOffset dx="-2" dy="4"/>
<feGaussianBlur stdDeviation="3"/>
<feComposite in2="hardAlpha" operator="out"/>
<feColorMatrix type="matrix" values="0 0 0 0 0 0 0 0 0 0 0 0 0 0 0 0 0 0 0.25 0"/>
<feBlend mode="normal" in2="BackgroundImageFix" result="effect1_dropShadow_936_7676"/>
<feBlend mode="normal" in="SourceGraphic" in2="effect1_dropShadow_936_7676" result="shape"/>
</filter>
<filter id="filter7_d_936_7676" x="32.3574" y="99.1816" width="62.9453" height="65.9453" filterUnits="userSpaceOnUse" color-interpolation-filters="sRGB">
<feFlood flood-opacity="0" result="BackgroundImageFix"/>
<feColorMatrix in="SourceAlpha" type="matrix" values="0 0 0 0 0 0 0 0 0 0 0 0 0 0 0 0 0 0 127 0" result="hardAlpha"/>
<feOffset dx="-2" dy="4"/>
<feGaussianBlur stdDeviation="3"/>
<feComposite in2="hardAlpha" operator="out"/>
<feColorMatrix type="matrix" values="0 0 0 0 0 0 0 0 0 0 0 0 0 0 0 0 0 0 0.25 0"/>
<feBlend mode="normal" in2="BackgroundImageFix" result="effect1_dropShadow_936_7676"/>
<feBlend mode="normal" in="SourceGraphic" in2="effect1_dropShadow_936_7676" result="shape"/>
</filter>
<linearGradient id="paint0_linear_936_7676" x1="137.241" y1="107.938" x2="253.333" y2="223.805" gradientUnits="userSpaceOnUse">
<stop stop-color="#D28078" stop-opacity="0"/>
<stop offset="1" stop-color="#DE2210"/>
</linearGradient>
<radialGradient id="paint1_radial_936_7676" cx="0" cy="0" r="1" gradientUnits="userSpaceOnUse" gradientTransform="translate(128.027 86.8499) rotate(83.2165) scale(23.8377 63.1884)">
<stop offset="0.33" stop-opacity="0"/>
<stop offset="0.655" stop-opacity="0.6"/>
<stop offset="1"/>
</radialGradient>
<radialGradient id="paint2_radial_936_7676" cx="0" cy="0" r="1" gradientUnits="userSpaceOnUse" gradientTransform="translate(250.992 138.565) rotate(135.513) scale(32.1497 91.4275)">
<stop offset="0.33" stop-opacity="0"/>
<stop offset="0.655" stop-opacity="0.6"/>
<stop offset="1"/>
</radialGradient>
<linearGradient id="paint3_linear_936_7676" x1="137.241" y1="107.938" x2="253.333" y2="223.805" gradientUnits="userSpaceOnUse">
<stop stop-color="#D28078" stop-opacity="0"/>
<stop offset="1" stop-color="#DE2210"/>
</linearGradient>
<radialGradient id="paint4_radial_936_7676" cx="0" cy="0" r="1" gradientUnits="userSpaceOnUse" gradientTransform="translate(128.027 86.8499) rotate(83.2165) scale(23.8377 63.1884)">
<stop offset="0.33" stop-opacity="0"/>
<stop offset="0.655" stop-opacity="0.6"/>
<stop offset="1"/>
</radialGradient>
<radialGradient id="paint5_radial_936_7676" cx="0" cy="0" r="1" gradientUnits="userSpaceOnUse" gradientTransform="translate(250.992 138.565) rotate(135.513) scale(32.1497 91.4275)">
<stop offset="0.33" stop-opacity="0"/>
<stop offset="0.655" stop-opacity="0.6"/>
<stop offset="1"/>
</radialGradient>
</defs>
</svg>
