<?xml version="1.0" encoding="UTF-8"?>
<svg id="x" data-name="圖層 26 影像" xmlns="http://www.w3.org/2000/svg" viewBox="0 0 1440 675">
  <defs>
    <style>
      .y {
        fill: #060100;
      }

      .z {
        fill: #050304;
      }

      .aa {
        fill: #228cd9;
      }

      .ab {
        fill: #030302;
      }

      .ac {
        fill: #020202;
      }

      .ad {
        fill: #f397c0;
      }

      .ae {
        fill: #e92a16;
      }

      .af {
        fill: #1cb66b;
      }

      .ag {
        fill: #faf7d0;
      }

      .ah {
        fill: #8cd89f;
      }

      .ai {
        fill: #020000;
      }

      .aj {
        fill: #ed2714;
      }

      .ak {
        fill: #030303;
      }

      .al {
        fill: #db9753;
      }

      .am {
        fill: #fdfad3;
      }

      .an {
        fill: #238bd7;
      }

      .ao {
        fill: #f4f1cb;
      }

      .ap {
        fill: #020101;
      }

      .aq {
        fill: #010305;
      }

      .ar {
        fill: #fefefe;
      }

      .as {
        fill: #eef6f1;
      }

      .at {
        fill: #020102;
      }

      .au {
        fill: #f9f6d0;
      }

      .av {
        fill: #030202;
      }
    </style>
  </defs>
  <path class="am" d="M871,0c-9.19,10.56-14.73,23.96-17.95,37.5-2.71,11.42-2.48,16.47.02,27.83,1.29,5.84,3.79,15.64,5.91,21.06,3.72,9.53,10.62,14.92,16.43,22.53,19.06,24.94,35.18,39.85,60.67,58.25,20.71,14.94,44.62,29.81,67.24,41.69,13.99,7.35,23.77,9.74,37.95,15.03,43.65,16.27,85.91,32.91,130.93,46,17.68,5.14,26.97,6.42,45.3,7.68,31.97,2.2,63.89,3.36,96.03,2.96,14.39-.18,28.56-2.25,42.95-3.96,19.94-2.36,39.96-5.19,58.77-12.21,8.37-3.12,16.45-7.43,24.74-10.75v86.87c-3.02.08-5.57-1.87-8.53-2.05-6.95-.41-11.38,3.73-17.2,5.8-38.64,13.77-77.18,27.57-115.75,41.19-12.77,4.51-27.32,8.08-39.79,13.19-11.04,4.52-21.75,11.41-32.74,16.24-26.79,11.77-54.99,19.8-81.01,32.95-11.47,5.8-21.74,12.75-34,17.98-12.02,5.12-40.95,10.92-39.92,28.84.93,16.23,21.45,43.46,29.49,58.51,14.87,27.84,27.54,56.83,40.28,85.59,5.2,11.73,13.17,23.28,18.17,35.27H509c4.24-9.86,5.56-20.55,8.73-30.72,9.49-30.47,21.38-59.37,29.19-90.68,8.76-35.11,17.61-72.65,24.78-108.06,3.5-17.29,13.91-51.78-12.44-55.88-18.22-2.83-34.14-.7-51.75-1.25-7.96-.25-16.91-2.61-24.96-3.03-26.15-1.35-55.8,4.2-83.09,4.08-65.3-.28-129.68-.7-194.97,3.94-18.85,1.34-36.75-2.15-46.36,18.61-1.75,3.78-2.06,7.74-3.62,11.36-1.8,4.19-5.8,8.32-7.68,12.3-21.91,46.22-40.81,94.25-60.34,141.45-9.94,24.03-18.85,49.18-29,72.89-3.61,8.43-10.75,15.1-9.48,24.98H0v-348.48c2.84,2.38,3.42,5.38,6.5,7.99,3.96,3.35,11.92,6.96,16.83,10.16,3.76,2.45,6.9,6.3,11.34,8.64,7.56,3.99,15.86,4.66,23.32,7.67,4.55,1.84,8.17,5.26,13.21,6.78,7.86,2.37,22.72,4.3,31.41,5.59,52.59,7.77,98.63,5.44,149.39-10.38,84.49-26.34,169.21-89.1,198.27-175.47,18.72-55.64,21.19-94.23,9.44-151.75-2.51-12.28-4.88-23.51-10.71-34.74h422ZM808.01,244.64c-.68-21.99-1.33-44.41-4.15-66.26-1.39-10.75-5.62-47-22.13-43.38-8.37,1.84-2.86,11.52-2.02,16.58,7.1,43.13,1.32,92.34,4.31,136.49.58,8.65,1.73,24.1,13.47,24.31,14.14.25,11.66-16.8,12.63-25.19,1.1-9.43,7.26-21.28,14.39-27.55,5.67,13.54,9.52,50.91,29.03,51.95,11.24.6,20.97-12.97,24.64-22.34,2.47-6.31,4.31-15.11-5.43-12.4-2.86.79-10.57,9.95-11.73,8.73-5.53-26.9-19.07-75.65-53-40.93ZM495,311.04c.46-6.74-.34-13.72,0-20.47,15.96,7.48,33.45,23.02,49.73,28.73,20.21,7.09,33.01-7.27,23.46-26.42-7.92-15.88-27.74-24.45-43.18-31.28-.32-1.4.21-1.64.97-2.51,3.92-4.45,10.67-8.8,15-13.98,41.28-49.36-12.32-93.93-58.47-60.4-5.64-5.27-1.85-20.42-8.45-22.5-6.7-2.11-11.3,2.6-12.07,9.01-1.56,12.94,3.75,28.85,3.82,41.96.03,5.1-1.86,11.87-1.88,16.96-.03,9.33,1.83,20.5,2.12,29.93.24,7.76.95,16.57,1,23.96.08,12.37-4.9,38.55,1.12,47.81,5.58,8.57,19.1,7.64,23.35-1.32,2.8-5.9,1.93-10.6,2.45-16.53.11-1.31,1.01-2.48,1.04-2.96ZM943.74,225.42c1.26-1.31,1.67-5.35,1.11-7.07-2.16-6.59-29.26,1.11-34.86-.14-3.72-5.5-11.57-25.46-20.01-16.03-5.47,6.12,3.11,14.47,2,21.47-.95.99-23.2,4.06-27,5.5-4.45,1.68-6.48,6.04-4.46,10.49,3.8,8.37,28.79,1.68,36.48,2l1.04,26.51c-.1,12.17-5.76,32.52,2.11,42.75,3.77,4.9,10.23,6.62,16.13,5.41,9.96-2.05,30.74-28.48,37.7-37.24,3.61-4.54,14.22-16.08,12.61-21.47-3.08-10.31-19.84,3.67-24.9,7.2-7.08,4.94-13.51,10.95-20.68,15.79l-5.01-44.93c5.36-1.59,24.55-6.92,27.75-10.24ZM629.79,212.98c-8.24.71-41.07,5.82-47.49,8.5-5.64,2.35-7.75,7.03-5.38,12.75,4.11,9.94,32.37,7.51,41.28,6.12s33.08-6.92,30.4-19.72c-1.85-8.85-11.82-8.26-18.82-7.65ZM726.99,286.58c-.12,19.77.54,40.61-3.31,60.09-1.63,8.26-5.26,24.63-15.16,25.8-16.57,1.96-38.47-6.12-50.53-17.49-4.54-4.27-7.44-15.11-13.29-13.32-5.97,1.82-3.41,13.04-1.72,17.33,11.42,28.93,67.7,58.95,93.54,29.44,26.19-29.92,15.27-106.44,18.48-144.28-.81-8.07-4.35-13-12.64-14.14-1.37-.19-3.12,1.03-4.67.55-1.25-.38-2.58-3.57-4.18-4.89-28.97-24.06-57.49,20.37-58.51,46.47-.84,21.58,20.17,28.39,38,21.91,4.99-1.81,9.25-5.26,14.01-7.47ZM604.7,244.84c-6.82,2.05.39,17.48,1.43,22.14,1.87,8.41,3.29,17.46,3.91,26.05.59,8.11-3.25,28.75,8.54,30.45,17.88,2.59,13.49-30.88,11.13-41.1-2.08-9-6.77-19.39-11.89-27.07-2.89-4.33-7.48-12.17-13.11-10.48ZM936.02,460.31c-13.06-18.23-40.43-17.25-52.86,1.67-14.82,22.57-13.65,70.25,15.17,81.39,19.8,7.66,35.85-6.86,46.16-22.1,11.62,7.26,19.23,1.91,18.49-11.51-.52-9.48-3.48-20.09-4.02-29.92-1.67-30.44,1.01-61.54-3.1-91.76-.44-3.22-1.75-14.51-4.52-15.46l-4.7-.03c-3.85,1.33-4.23,24.9-5.63,29.33l-3,57.9-1.98.49ZM747.65,435.71c-12.79-12.81-30.3-8.64-43.13,1.67-26.47,21.28-44.36,86.77-13.43,110.23,26.51,20.11,62.75-2.02,77.33-26.45,3.76-6.3,7.13-12.46,4.57-19.89-8.28.55-11.89,9-17.47,14.01-12.12,10.89-42.03,24.55-48.84,1.79-4.85-16.22,2.82-55.83,15.79-67.74,3.48-3.19,8.87-6.33,13.76-5.78,5.81.65,12.49,8.95,16.62,2.09.83-3.01-3.09-7.8-5.21-9.91ZM1008,481.3c18.9-.15,64.75-25.1,38.47-45.92-24.02-19.02-62.74.24-65.46,30.45-3.91,43.46,26.97,72.48,66.89,44.83,6.57-4.55,22.39-20.37,8.61-25.46-11.3-4.18-44.34,23.81-48.52-3.89ZM825.73,433.6c-13.25,2.21-22.25,23.96-25.45,35.49-4.82,17.33-8.81,48.9,12.03,57.32,25.18,10.17,46.16-26.83,47.67-47.63,1.41-19.46-10.44-49.14-34.25-45.18Z"/>
  <path class="af" d="M449,0c5.83,11.23,8.2,22.46,10.71,34.74,11.75,57.52,9.27,96.1-9.44,151.75-29.06,86.37-113.77,149.13-198.27,175.47-50.76,15.83-96.8,18.15-149.39,10.38-8.69-1.28-23.55-3.22-31.41-5.59-5.04-1.52-8.66-4.94-13.21-6.78-7.46-3.01-15.75-3.68-23.32-7.67-4.44-2.34-7.58-6.19-11.34-8.64-4.91-3.2-12.87-6.81-16.83-10.16-3.08-2.61-3.66-5.6-6.5-7.99v-21.97c0-.18,1.07-1.54,1.07-3.38C1.34,200.12.72,100.04,1,0,150.32-.01,299.68.02,449,0ZM253.76,38.21c-21.26,2.9-34.88,22.58-33.8,43.22,1.8,34.36,31.04,68.07,67.53,64.35,27.54-2.81,40.05-38.99,29.99-61.88-10.08-22.96-36.62-49.39-63.72-45.69ZM158.73,99.08c-13.49,2.74-10.07,25.83,3.53,24.53,18.49-1.77,12.1-27.7-3.53-24.53ZM158,209.69c.21-5.67-1.16-8.88-5-12.98-3.23-7.65-9.64-15.93-15.03-22.44-14.98-18.07-38.73-38.62-61.89-20.91-20.17,15.42-18.38,32.89-9.85,54.6,9.48,24.12,29.88,46.27,58.14,43.55,17.81-1.72,40.38-22.58,33.62-41.81Z"/>
  <path class="aj" d="M1239,0c-6.29,1.74-32.07,9.74-34.51,15-.51,1.1-.78,2.07-.35,3.27,1.35,3.14,4.3,2.96,7.26,2.64,3.96-.43,26.08-9.02,27.57-7.92,2.99,7.14,3.66,28.4,16.32,21.75,10.42-5.48-3.6-31.61-12.29-34.73h197v253.62c-8.29,3.32-16.36,7.62-24.74,10.75-18.81,7.02-38.83,9.85-58.77,12.21-14.39,1.7-28.56,3.78-42.95,3.96-32.14.4-64.06-.76-96.03-2.96-18.34-1.26-27.62-2.54-45.3-7.68-45.02-13.09-87.28-29.73-130.93-46-14.18-5.29-23.96-7.68-37.95-15.03-22.62-11.88-46.54-26.75-67.24-41.69-25.49-18.39-41.61-33.31-60.67-58.25-5.81-7.61-12.72-13-16.43-22.53-2.11-5.42-4.62-15.22-5.91-21.06-2.5-11.36-2.73-16.41-.02-27.83,3.21-13.54,8.75-26.94,17.95-37.5h368ZM1111.76,71.16c-25.95,3.71-42.16,60.63-10.81,63.2,14.22,1.16,33.39-23.31,34.94-36.11,2.08-17.14-5.44-29.75-24.13-27.08ZM1281.81,89.11c-18.93,1.32-29.16,26.98-29.85,43.16-.83,19.63,12.49,31.14,30.92,20.9,13.61-7.56,24.34-35.89,19.6-50.3-2.88-8.76-11.55-14.39-20.68-13.75Z"/>
  <path class="aa" d="M1440,340.5v333.5h-281c-5.01-12-12.98-23.54-18.17-35.27-12.74-28.77-25.41-57.75-40.28-85.59-8.04-15.04-28.56-42.28-29.49-58.51-1.02-17.91,27.91-23.71,39.92-28.84,12.26-5.22,22.53-12.18,34-17.98,26.01-13.15,54.21-21.18,81.01-32.95,10.99-4.83,21.7-11.71,32.74-16.24,12.47-5.11,27.02-8.68,39.79-13.19,38.57-13.62,77.1-27.42,115.75-41.19,5.83-2.08,10.25-6.21,17.2-5.8,2.97.17,5.51,2.13,8.53,2.05ZM1236.06,529.26c38.35,12.03,70.99-37.6,35.27-63.78-34.14-25.02-74.68,13.6-54.15,48.08l11.73,12.99c-3.46,6-7.07,12.46-6.91,19.63-13.82-3.39-32.18,3.19-37.04,17.43-6.7,19.6-1.89,38.89,16.38,49.64,38.65,22.74,72.02-20.01,42.18-55.1-3.05-3.58-13.1-8.82-13.37-9.61-2.58-7.49,4.07-13.09,5.92-19.29ZM1257.64,548.3c-8.99,2.99,10.61,18.77,16.11,19.7,6.25,1.05,20.72-10.87,13.6-17.69-6.25-2.09-11.06,5.07-14.77,4.88-4.35-.22-9.21-8.8-14.94-6.9Z"/>
  <path class="ar" d="M48,674h1392v1H0v-1h48Z"/>
  <path class="y" d="M1243,0c8.69,3.12,22.71,29.24,12.29,34.73-12.66,6.66-13.33-14.61-16.32-21.75-1.49-1.11-23.61,7.49-27.57,7.92-2.96.32-5.92.51-7.26-2.64-.43-1.19-.16-2.16.35-3.27,2.44-5.25,28.22-13.25,34.51-15h4Z"/>
  <path class="ah" d="M0,303.55V0h1c-.28,100.04.34,200.12.07,300.17,0,1.83-1.07,3.2-1.07,3.38Z"/>
  <path class="ad" d="M509,674H48c-1.26-9.88,5.88-16.55,9.48-24.98,10.15-23.71,19.06-48.86,29-72.89,19.53-47.21,38.43-95.23,60.34-141.45,1.89-3.98,5.88-8.11,7.68-12.3,1.56-3.63,1.87-7.59,3.62-11.36,9.61-20.76,27.52-17.27,46.36-18.61,65.28-4.64,129.67-4.22,194.97-3.94,27.29.12,56.94-5.43,83.09-4.08,8.05.41,17,2.78,24.96,3.03,17.61.56,33.54-1.58,51.75,1.25,26.35,4.09,15.94,38.59,12.44,55.88-7.17,35.41-16.03,72.95-24.78,108.06-7.81,31.3-19.7,60.21-29.19,90.68-3.17,10.17-4.49,20.86-8.73,30.72ZM237.63,531.6c13.23,13.03,15.88,17.17,29.89,1.63,8.49-9.42,22.4-31.76,13.92-43.88-8.04-11.48-24.11-3.91-29.96,5.92-1.6.39-9.97-8.39-12.99-8.97-4.89-.94-12.51,1.33-15.48,5.47-10.05,14,5.35,30.69,14.63,39.83ZM416.65,540.85c6.84-6.39,18.77-26.13,20.11-35.34.83-5.67-2.04-12.57-5.91-16.58-7.43-7.69-19.42,1.82-26.22,6.28-16.83-15.85-36.51-5.18-26.67,18.57,1.98,4.77,19.52,27.18,23.66,29.3,4.75,2.44,11.13,1.42,15.03-2.22ZM340,570.17c-1.82,7.17-17.58,10.06-19.56,15.9-4.67,13.81,18.64,3.72,18.62,12.56-.02,6.33-18.76,3.48-20.05,10.01-3.51,17.77,33.56,6.8,33.03-8.99-.21-6.27-6.2-11.71-11.02-15.01,25.08-19.91-1.22-33.2-20.95-17.91-2.22,1.72-5.54,7.33-1.57,7.46,7.24.23,13.55-6.02,21.5-4.02Z"/>
  <path class="ac" d="M495,311.04c-.03.47-.93,1.64-1.04,2.96-.52,5.93.35,10.63-2.45,16.53-4.25,8.96-17.77,9.9-23.35,1.32-6.02-9.26-1.04-35.44-1.12-47.81-.05-7.39-.76-16.2-1-23.96-.29-9.43-2.15-20.6-2.12-29.93.02-5.09,1.91-11.86,1.88-16.96-.07-13.11-5.39-29.02-3.82-41.96.78-6.41,5.37-11.12,12.07-9.01,6.6,2.08,2.81,17.23,8.45,22.5,46.15-33.53,99.75,11.04,58.47,60.4-4.33,5.18-11.08,9.53-15,13.98-.77.87-1.29,1.11-.97,2.51,15.44,6.83,35.26,15.41,43.18,31.28,9.55,19.15-3.25,33.51-23.46,26.42-16.28-5.71-33.76-21.25-49.73-28.73-.34,6.75.46,13.73,0,20.47ZM492,240.65c16.77-.19,54.97-46.06,15.73-38.71-4.01.75-10.23,4.99-12.73,8.25-8.08,10.53-2.35,18.67-3,30.45Z"/>
  <path class="ac" d="M726.99,286.58c-4.76,2.21-9.02,5.66-14.01,7.47-17.83,6.48-38.84-.33-38-21.91,1.02-26.1,29.54-70.53,58.51-46.47,1.6,1.33,2.93,4.51,4.18,4.89,1.55.47,3.3-.74,4.67-.55,8.29,1.14,11.83,6.07,12.64,14.14-3.21,37.85,7.72,114.37-18.48,144.28-25.83,29.51-82.12-.51-93.54-29.44-1.69-4.29-4.25-15.5,1.72-17.33,5.85-1.79,8.76,9.04,13.29,13.32,12.06,11.37,33.96,19.44,50.53,17.49,9.9-1.17,13.53-17.54,15.16-25.8,3.85-19.48,3.2-40.32,3.31-60.09ZM716.71,241.86c-8.1,1.84-16.14,19.86-16.65,27.38-.43,6.32,4.05,4,8.31,2.23,6.73-2.8,20.66-14.84,18.98-22.6-1.21-5.6-4.98-8.31-10.65-7.02Z"/>
  <path class="ac" d="M808.01,244.64c33.92-34.72,47.47,14.04,53,40.93,1.16,1.22,8.87-7.94,11.73-8.73,9.74-2.7,7.9,6.1,5.43,12.4-3.67,9.37-13.39,22.93-24.64,22.34-19.52-1.03-23.37-38.41-29.03-51.95-7.13,6.27-13.3,18.12-14.39,27.55-.97,8.39,1.51,25.44-12.63,25.19-11.74-.21-12.88-15.66-13.47-24.31-2.98-44.15,2.8-93.36-4.31-136.49-.83-5.06-6.35-14.74,2.02-16.58,16.51-3.62,20.74,32.63,22.13,43.38,2.82,21.84,3.48,44.27,4.15,66.26Z"/>
  <path class="ac" d="M936.02,460.31l1.98-.49,3-57.9c1.4-4.44,1.78-28.01,5.63-29.33l4.7.03c2.78.95,4.08,12.23,4.52,15.46,4.11,30.22,1.43,61.32,3.1,91.76.54,9.83,3.5,20.44,4.02,29.92.74,13.42-6.87,18.78-18.49,11.51-10.31,15.24-26.36,29.76-46.16,22.1-28.82-11.14-29.99-58.82-15.17-81.39,12.42-18.92,39.8-19.9,52.86-1.67ZM910.75,467.53c-10.66,1.74-12.35,24.48-11.62,33.1.49,5.86,4.07,20.08,11.43,20.57,8.43.56,23.23-13.76,26.2-21.58-2.58-10.58-12.58-34.29-26.01-32.1Z"/>
  <path class="av" d="M747.65,435.71c2.12,2.12,6.04,6.9,5.21,9.91-4.13,6.86-10.82-1.44-16.62-2.09-4.89-.55-10.28,2.59-13.76,5.78-12.97,11.91-20.64,51.52-15.79,67.74,6.81,22.76,36.72,9.1,48.84-1.79,5.57-5.01,9.19-13.46,17.47-14.01,2.56,7.44-.81,13.6-4.57,19.89-14.59,24.43-50.83,46.56-77.33,26.45-30.92-23.46-13.03-88.95,13.43-110.23,12.82-10.31,30.34-14.48,43.13-1.67Z"/>
  <path class="ac" d="M1008,481.3c4.18,27.7,37.22-.29,48.52,3.89,13.78,5.1-2.04,20.91-8.61,25.46-39.92,27.66-70.81-1.37-66.89-44.83,2.72-30.2,41.44-49.47,65.46-30.45,26.28,20.81-19.58,45.77-38.47,45.92ZM1007,465.31c5.05,1.61,28.94-11.47,28-15.46-10.8-7.15-28.87,2.05-28,15.46Z"/>
  <path class="ab" d="M943.74,225.42c-3.2,3.32-22.39,8.65-27.75,10.24l5.01,44.93c7.17-4.84,13.59-10.85,20.68-15.79,5.06-3.53,21.82-17.51,24.9-7.2,1.61,5.39-9,16.93-12.61,21.47-6.96,8.76-27.74,35.19-37.7,37.24-5.9,1.21-12.36-.51-16.13-5.41-7.87-10.22-2.21-30.58-2.11-42.75l-1.04-26.51c-7.69-.33-32.69,6.37-36.48-2-2.02-4.45,0-8.81,4.46-10.49,3.8-1.44,26.04-4.5,27-5.5,1.11-7-7.47-15.34-2-21.47,8.44-9.44,16.29,10.53,20.01,16.03,5.61,1.26,32.71-6.44,34.86.14.56,1.72.15,5.76-1.11,7.07Z"/>
  <path class="ak" d="M825.73,433.6c23.81-3.96,35.66,25.71,34.25,45.18-1.51,20.8-22.5,57.81-47.67,47.63-20.84-8.42-16.85-39.99-12.03-57.32,3.2-11.52,12.2-33.28,25.45-35.49ZM819.12,506.12c5.43,3.33,15.91-13.26,17.73-17.48,4.11-9.51,5.71-24.85-3.34-32.32-3.78-3.12-10.94-4.2-14.52-.49-3.99,4.13-4.41,47.52.13,50.3Z"/>
  <path class="ak" d="M629.79,212.98c7-.6,16.96-1.2,18.82,7.65,2.68,12.8-21.09,18.27-30.4,19.72s-37.17,3.82-41.28-6.12c-2.37-5.72-.26-10.4,5.38-12.75,6.42-2.68,39.25-7.79,47.49-8.5Z"/>
  <path class="ak" d="M604.7,244.84c5.63-1.69,10.22,6.15,13.11,10.48,5.12,7.68,9.81,18.07,11.89,27.07,2.36,10.22,6.76,43.69-11.13,41.1-11.78-1.71-7.95-22.35-8.54-30.45-.62-8.59-2.05-17.64-3.91-26.05-1.03-4.66-8.25-20.09-1.43-22.14Z"/>
  <path class="as" d="M253.76,38.21c27.11-3.7,53.64,22.73,63.72,45.69,10.05,22.89-2.46,59.07-29.99,61.88-36.49,3.72-65.73-29.99-67.53-64.35-1.08-20.64,12.54-40.32,33.8-43.22ZM288.76,81.15c-13.1,1.88-21.72,12.81-18.46,25.9,3.6,14.45,13.12,24.23,28.96,21.52,6.18-1.06,15.71-10.13,16.68-16.3,2.68-17.21-8.37-33.82-27.18-31.12Z"/>
  <path class="as" d="M153,196.71c-4.86-5.19-14.07-10.97-21.43-9.93-6.14.87-17.82,9.13-19.8,15.19-5.77,17.62,11.28,34.63,28.5,31.45,9.11-1.68,17.4-14.91,17.73-23.73,6.76,19.23-15.81,40.1-33.62,41.81-28.27,2.73-48.66-19.42-58.14-43.55-8.53-21.71-10.33-39.18,9.85-54.6,23.16-17.71,46.9,2.84,61.89,20.91,5.39,6.51,11.8,14.79,15.03,22.44Z"/>
  <path class="ac" d="M158,209.69c-.33,8.82-8.62,22.05-17.73,23.73-17.22,3.18-34.27-13.83-28.5-31.45,1.98-6.06,13.66-14.32,19.8-15.19,7.36-1.04,16.57,4.74,21.43,9.93,3.84,4.1,5.21,7.31,5,12.98Z"/>
  <path class="ae" d="M158.73,99.08c15.63-3.17,22.02,22.76,3.53,24.53-13.6,1.3-17.01-21.79-3.53-24.53Z"/>
  <path class="ai" d="M1281.81,89.11c9.12-.64,17.8,5,20.68,13.75,4.74,14.41-6,42.74-19.6,50.3-18.43,10.24-31.76-1.27-30.92-20.9.69-16.18,10.93-41.83,29.85-43.16Z"/>
  <path class="ai" d="M1111.76,71.16c18.69-2.67,26.21,9.94,24.13,27.08-1.55,12.81-20.72,37.28-34.94,36.11-31.35-2.57-15.15-59.48,10.81-63.2Z"/>
  <path class="al" d="M1236.06,529.26c-1.85,6.2-8.5,11.8-5.92,19.29.27.78,10.33,6.02,13.37,9.61,29.84,35.09-3.53,77.84-42.18,55.1-18.27-10.75-23.08-30.04-16.38-49.64,4.87-14.24,23.22-20.82,37.04-17.43-.16-7.18,3.45-13.64,6.91-19.63l-11.73-12.99c-20.52-34.48,20.01-73.1,54.15-48.08,35.72,26.18,3.08,75.81-35.27,63.78ZM1269.64,473.66c-14.28-13.46-35.72-11.34-46.06,5.72-7.38,12.18-9.96,21.42-.56,33.34,27.1,34.39,77.32-10.13,46.62-39.06ZM1213.67,552.57c-3.11.01-9.71,1.7-12.2,3.58-1.34,1.01-9.97,9.72-10.91,11.08-17.25,25.16,21.43,60.13,46.93,41.87,24.19-17.32,4.55-56.64-23.83-56.53Z"/>
  <path class="aq" d="M1257.64,548.3c5.73-1.91,10.6,6.68,14.94,6.9,3.71.18,8.52-6.97,14.77-4.88,7.12,6.81-7.35,18.74-13.6,17.69-5.5-.92-25.1-16.7-16.11-19.7Z"/>
  <path class="ap" d="M237.63,531.6c-9.28-9.14-24.68-25.83-14.63-39.83,2.97-4.14,10.59-6.41,15.48-5.47,3.02.58,11.39,9.36,12.99,8.97,5.85-9.84,21.93-17.41,29.96-5.92,8.48,12.12-5.42,34.46-13.92,43.88-14.01,15.54-16.66,11.4-29.89-1.63Z"/>
  <path class="at" d="M416.65,540.85c-3.89,3.63-10.28,4.66-15.03,2.22-4.13-2.12-21.68-24.52-23.66-29.3-9.84-23.75,9.83-34.42,26.67-18.57,6.8-4.46,18.79-13.97,26.22-6.28,3.87,4.01,6.74,10.91,5.91,16.58-1.35,9.22-13.27,28.96-20.11,35.34Z"/>
  <path class="z" d="M340,570.17c-7.95-2-14.26,4.25-21.5,4.02-3.97-.13-.65-5.74,1.57-7.46,19.73-15.29,46.03-2,20.95,17.91,4.82,3.3,10.81,8.74,11.02,15.01.53,15.78-36.54,26.76-33.03,8.99,1.29-6.53,20.03-3.68,20.05-10.01.03-8.84-23.29,1.25-18.62-12.56,1.98-5.84,17.73-8.73,19.56-15.9Z"/>
  <path class="ag" d="M492,240.65c.64-11.78-5.08-19.92,3-30.45,2.5-3.26,8.73-7.5,12.73-8.25,39.24-7.36,1.04,38.52-15.73,38.71Z"/>
  <path class="au" d="M716.71,241.86c5.67-1.29,9.44,1.42,10.65,7.02,1.67,7.76-12.26,19.8-18.98,22.6-4.26,1.77-8.74,4.09-8.31-2.23.51-7.53,8.55-25.54,16.65-27.38Z"/>
  <path class="ag" d="M910.75,467.53c13.43-2.19,23.43,21.52,26.01,32.1-2.97,7.82-17.77,22.14-26.2,21.58-7.36-.49-10.93-14.72-11.43-20.57-.73-8.62.96-31.37,11.62-33.1Z"/>
  <path class="ao" d="M1007,465.31c-.88-13.41,17.19-22.61,28-15.46.95,3.98-22.94,17.07-28,15.46Z"/>
  <path class="au" d="M819.12,506.12c-4.54-2.78-4.12-46.17-.13-50.3,3.58-3.71,10.74-2.63,14.52.49,9.05,7.47,7.46,22.81,3.34,32.32-1.82,4.22-12.31,20.81-17.73,17.48Z"/>
  <path class="ac" d="M288.76,81.15c18.81-2.7,29.86,13.92,27.18,31.12-.96,6.17-10.5,15.24-16.68,16.3-15.84,2.71-25.36-7.07-28.96-21.52-3.26-13.09,5.36-24.02,18.46-25.9Z"/>
  <path class="an" d="M1269.64,473.66c30.7,28.93-19.52,73.46-46.62,39.06-9.4-11.93-6.82-21.17.56-33.34,10.34-17.06,31.78-19.18,46.06-5.72ZM1248.72,487.51c-15.79,3.24-19.65,22.36-1.23,20.75,19.34-1.69,18.49-24.29,1.23-20.75Z"/>
  <path class="an" d="M1213.67,552.57c28.38-.11,48.01,39.2,23.83,56.53-25.5,18.27-64.19-16.71-46.93-41.87.93-1.36,9.56-10.06,10.91-11.08,2.49-1.88,9.09-3.57,12.2-3.58ZM1213.74,570.33c-11.63,2.38-1.82,20.43,3.23,25.32,6.53,6.35,16.94,4.22,17.83-5.27.64-6.84-14.3-21.44-21.06-20.05Z"/>
  <path class="aq" d="M1248.72,487.51c17.26-3.54,18.12,19.06-1.23,20.75-18.42,1.61-14.56-17.51,1.23-20.75Z"/>
  <path class="aq" d="M1213.74,570.33c6.76-1.38,21.7,13.21,21.06,20.05-.89,9.49-11.3,11.62-17.83,5.27-5.04-4.9-14.86-22.94-3.23-25.32Z"/>
</svg>