<svg width="190" height="100" viewBox="0 0 190 100" fill="none" xmlns="http://www.w3.org/2000/svg">
<path d="M0 100L65.0653 90.9174L28.4445 70.3325L0 100Z" fill="#B0DAED"/>
<path d="M22.649 29.2132C22.649 13.0792 39.5495 0 60.3973 0H152.252C173.1 0 190 13.0792 190 29.2132V66.2165C190 82.3505 173.099 95.4297 152.252 95.4297H60.3973C39.5495 95.4297 22.649 82.3505 22.649 66.2165V29.2132Z" fill="#B0DAED"/>
<path d="M88.54 27.32V30.22C88.54 30.5667 88.7133 30.74 89.06 30.74H90.24V26.32H89.06C88.7133 26.32 88.54 26.4933 88.54 26.84V27.18L88.72 27.12C89.24 26.9733 89.6 27.3867 89.8 28.36C90.0133 29.32 89.86 29.88 89.34 30.04C89.1533 30.1067 89 29.8133 88.88 29.16L88.54 27.32ZM93.46 27.22V26.82C93.46 26.4867 93.2867 26.32 92.94 26.32H91.7V29.66L92.22 27.82C92.3933 27.1933 92.8067 26.9933 93.46 27.22ZM91.7 30.74H92.94C93.2867 30.74 93.46 30.5667 93.46 30.22V27.88L92.9 29.28C92.6733 29.8667 92.2733 30.0533 91.7 29.84V30.74ZM94.74 36.08C95.2867 36.08 95.56 36.3867 95.56 37C95.56 37.6 95.2867 37.9 94.74 37.9H87.18C86.6333 37.9 86.36 37.6 86.36 37C86.36 36.3867 86.6333 36.08 87.18 36.08H89.9V35.06H87.6C87.0533 35.06 86.78 34.76 86.78 34.16C86.78 33.5467 87.0533 33.24 87.6 33.24H89.9V32.36H87.7C87.06 32.36 86.74 32.0467 86.74 31.42V25.66C86.74 25.02 87.06 24.7 87.7 24.7H94.36C95 24.7 95.32 25.0133 95.32 25.64V31.4C95.32 32.04 95 32.36 94.36 32.36H92.04V33.24H94.46C95.0067 33.24 95.28 33.5467 95.28 34.16C95.28 34.76 95.0067 35.06 94.46 35.06H92.04V36.08H94.74ZM87.8 41.94C87.64 42.46 87.28 42.6 86.72 42.36C86.16 42.1333 86.02 41.76 86.3 41.24C86.5933 40.8267 86.8133 40.18 86.96 39.3C87.0933 38.6867 87.4267 38.48 87.96 38.68C88.4933 38.88 88.68 39.24 88.52 39.76L87.8 41.94ZM89.16 39.8C89.1333 39.2533 89.36 38.9533 89.84 38.9C90.3333 38.8467 90.6 39.0933 90.64 39.64L90.82 41.5C90.86 42.0467 90.62 42.3533 90.1 42.42C89.58 42.4867 89.3067 42.2467 89.28 41.7L89.16 39.8ZM91.36 39.74C91.24 39.2067 91.42 38.9 91.9 38.82C92.38 38.7267 92.6867 38.9467 92.82 39.48L93.26 41.22C93.3933 41.74 93.2067 42.0467 92.7 42.14C92.2067 42.2467 91.9 42.0333 91.78 41.5L91.36 39.74ZM101.46 40.06C101.807 40.06 101.98 39.8867 101.98 39.54V36.32C101.98 35.9733 101.807 35.8 101.46 35.8H98.74C98.3933 35.8 98.22 35.9733 98.22 36.32V39.54C98.22 39.8867 98.3933 40.06 98.74 40.06H101.46ZM104.16 28.28C104.707 28.28 104.98 28.6533 104.98 29.4C104.98 30.1467 104.707 30.52 104.16 30.52H101.04V33.62H103.34C103.98 33.62 104.3 33.94 104.3 34.58V41.26C104.3 41.9 103.98 42.22 103.34 42.22H96.98C96.3533 42.22 96.04 41.9 96.04 41.26V34.58C96.04 33.94 96.36 33.62 97 33.62H98.7V24.94C98.7 24.3933 99.0867 24.12 99.86 24.12C100.647 24.12 101.04 24.3933 101.04 24.94V28.28H104.16ZM95.78 40.68C95.9533 41.16 95.7867 41.5267 95.28 41.78C94.7867 42.0333 94.44 41.9133 94.24 41.42L93.5 39.64C93.3 39.1467 93.4333 38.8133 93.9 38.64C94.38 38.4667 94.8 38.6867 95.16 39.3C95.4533 39.7133 95.66 40.1733 95.78 40.68ZM123.86 27.16C124.167 27.5867 124 28.0267 123.36 28.48C122.72 28.92 122.267 28.94 122 28.54C122.013 28.4867 121.747 28.1467 121.2 27.52C120.653 26.8933 120.293 26.52 120.12 26.4C119.747 26.0267 119.86 25.64 120.46 25.24C121.06 24.8267 121.613 24.8533 122.12 25.32C123.04 26.0933 123.62 26.7067 123.86 27.16ZM121.38 33.3C121.633 32.86 122.107 32.7933 122.8 33.1C123.507 33.3933 123.72 33.78 123.44 34.26C122.84 35.3667 121.873 36.5867 120.54 37.92C121.113 39.56 121.7 40.38 122.3 40.38C122.713 40.38 122.933 39.7467 122.96 38.48C123.027 37.5333 123.387 37.2867 124.04 37.74C124.693 38.1933 124.967 38.7867 124.86 39.52C124.78 40.5067 124.527 41.3 124.1 41.9C123.687 42.5 123.013 42.8 122.08 42.8C120.707 42.8 119.56 41.7467 118.64 39.64C117.507 40.5867 116.513 41.2667 115.66 41.68C115.18 41.9467 114.673 41.76 114.14 41.12C113.62 40.48 113.593 40.0467 114.06 39.82C115.14 39.34 116.393 38.5133 117.82 37.34C117.393 35.78 117.053 33.9933 116.8 31.98H112.74V34.26L115.02 33.84C115.553 33.7467 115.847 34.06 115.9 34.78C115.967 35.5 115.733 35.9133 115.2 36.02L112.74 36.52V39.94C112.74 40.5933 112.66 41.0933 112.5 41.44C112.34 41.8 112.06 42.0733 111.66 42.26C110.993 42.5933 110.153 42.74 109.14 42.7C108.42 42.7133 107.92 42.32 107.64 41.52C107.36 40.72 107.66 40.34 108.54 40.38C109.513 40.4333 110.08 40.3867 110.24 40.24C110.307 40.1867 110.34 40.08 110.34 39.92V37.02L107.56 37.58C107.027 37.6867 106.66 37.34 106.46 36.54C106.273 35.74 106.54 35.2867 107.26 35.18C108.513 34.98 109.54 34.8067 110.34 34.66V31.98H107.38C106.833 31.98 106.56 31.6067 106.56 30.86C106.56 30.1 106.833 29.72 107.38 29.72H110.34V27.44C109.473 27.5867 108.713 27.7 108.06 27.78C107.447 27.8467 107.027 27.5467 106.8 26.88C106.573 26.2133 106.773 25.84 107.4 25.76C109.933 25.4133 112.013 24.9733 113.64 24.44C114.147 24.28 114.667 24.54 115.2 25.22C115.733 25.8867 115.733 26.28 115.2 26.4L112.74 27.02V29.72H116.58C116.447 28.1867 116.367 26.6733 116.34 25.18C116.34 24.5533 116.753 24.24 117.58 24.24C118.42 24.24 118.833 24.5067 118.82 25.04C118.793 26.28 118.867 27.84 119.04 29.72H123.66C124.207 29.72 124.48 30.1 124.48 30.86C124.48 31.6067 124.207 31.98 123.66 31.98H119.28C119.44 33.18 119.633 34.3067 119.86 35.36C120.66 34.4 121.167 33.7133 121.38 33.3ZM76.59 65.984V65.696C76.59 65.4187 76.4513 65.28 76.174 65.28H70.558V65.984H76.59ZM70.558 69.536C70.558 69.8133 70.6967 69.952 70.974 69.952H76.174C76.4513 69.952 76.59 69.8133 76.59 69.536V69.184H70.558V69.536ZM76.59 67.952V67.216H70.558V67.952H76.59ZM79.486 61.52C79.9233 61.52 80.142 61.7813 80.142 62.304C80.142 62.8267 79.9233 63.088 79.486 63.088H71.182L70.798 63.776H77.822C78.334 63.776 78.59 64.032 78.59 64.544V70.656C78.59 71.168 78.334 71.424 77.822 71.424H69.438C68.926 71.424 68.67 71.168 68.67 70.656V66.576C67.87 67.376 67.198 67.9307 66.654 68.24C66.2913 68.4533 65.902 68.2987 65.486 67.776C65.07 67.2427 65.0433 66.8693 65.406 66.656C66.6433 65.9947 67.8113 64.8053 68.91 63.088H66.03C65.5927 63.088 65.374 62.8267 65.374 62.304C65.374 61.7813 65.5927 61.52 66.03 61.52H69.742L70.062 60.816H67.198C66.7607 60.816 66.542 60.5653 66.542 60.064C66.542 59.5627 66.7607 59.312 67.198 59.312H70.59L70.782 58.592C69.3953 58.656 68.254 58.6827 67.358 58.672C66.9313 58.6613 66.654 58.4107 66.526 57.92C66.4087 57.4187 66.6327 57.168 67.198 57.168C71.7527 57.168 75.1927 56.9707 77.518 56.576C77.8487 56.5227 78.206 56.736 78.59 57.216C78.9847 57.6853 79.006 57.952 78.654 58.016C77.4273 58.2187 75.5287 58.384 72.958 58.512L72.718 59.312H78.59C79.0273 59.312 79.246 59.5627 79.246 60.064C79.246 60.5653 79.0273 60.816 78.59 60.816H72.19L71.918 61.52H79.486ZM86.75 59.088C87.1873 59.088 87.406 59.3387 87.406 59.84C87.406 60.3413 87.1873 60.592 86.75 60.592H81.934C81.4967 60.592 81.278 60.3413 81.278 59.84C81.278 59.3387 81.4967 59.088 81.934 59.088H84.03L83.294 57.648C83.102 57.264 83.246 56.9547 83.726 56.72C84.2167 56.4853 84.5687 56.5547 84.782 56.928L85.294 57.84C85.5393 58.288 85.4327 58.6347 84.974 58.88L84.59 59.088H86.75ZM86.238 61.312C86.6753 61.312 86.894 61.552 86.894 62.032C86.894 62.512 86.6753 62.752 86.238 62.752H82.638C82.2007 62.752 81.982 62.512 81.982 62.032C81.982 61.552 82.2007 61.312 82.638 61.312H86.238ZM82.638 64.912C82.2007 64.912 81.982 64.672 81.982 64.192C81.982 63.712 82.2007 63.472 82.638 63.472H86.238C86.6753 63.472 86.894 63.712 86.894 64.192C86.894 64.672 86.6753 64.912 86.238 64.912H82.638ZM84.926 68.976C85.2033 68.976 85.342 68.8373 85.342 68.56V67.6C85.342 67.3227 85.2033 67.184 84.926 67.184H83.966C83.6887 67.184 83.55 67.3227 83.55 67.6V68.56C83.55 68.8373 83.6887 68.976 83.966 68.976H84.926ZM89.422 61.04V61.648C89.422 61.9253 89.5607 62.064 89.838 62.064H90.766V61.04H89.422ZM89.838 58.544C89.5607 58.544 89.422 58.6827 89.422 58.96V59.584H90.766V58.544H89.838ZM93.822 59.584V58.96C93.822 58.6827 93.6833 58.544 93.406 58.544H92.414V59.584H93.822ZM93.406 62.064C93.6833 62.064 93.822 61.9253 93.822 61.648V61.04H92.414V62.064H93.406ZM95.95 65.36C95.95 65.9147 95.7313 66.192 95.294 66.192H93.294C94.1793 67.504 95.0487 68.4213 95.902 68.944C96.2647 69.1787 96.2273 69.5307 95.79 70C95.3633 70.48 94.9953 70.592 94.686 70.336C94.0673 69.8667 93.3473 69.0027 92.526 67.744V70.72C92.526 71.1573 92.2167 71.376 91.598 71.376C90.9793 71.376 90.67 71.1573 90.67 70.72V67.904C89.8167 69.152 89.07 69.9787 88.43 70.384C88.0567 70.6613 87.7153 70.608 87.406 70.224L86.99 69.712C86.99 70.2453 86.734 70.512 86.222 70.512H82.718C82.206 70.512 81.95 70.256 81.95 69.744V66.432C81.95 65.92 82.206 65.664 82.718 65.664H86.222C86.734 65.664 86.99 65.92 86.99 66.432V68.688C86.99 68.9653 87.102 69.0293 87.326 68.88C88.2753 68.2827 89.1287 67.3867 89.886 66.192H87.918C87.4807 66.192 87.262 65.9147 87.262 65.36C87.262 64.7947 87.4807 64.512 87.918 64.512H90.67V63.568H88.494C87.982 63.568 87.726 63.312 87.726 62.8V57.824C87.726 57.312 87.982 57.056 88.494 57.056H94.814C95.326 57.056 95.582 57.312 95.582 57.824V62.8C95.582 63.312 95.326 63.568 94.814 63.568H92.526V64.512H95.294C95.7313 64.512 95.95 64.7947 95.95 65.36ZM109.118 61.04C109.395 61.04 109.534 60.9013 109.534 60.624V59.152C109.534 58.8747 109.395 58.736 109.118 58.736H106.142C105.865 58.736 105.726 58.8747 105.726 59.152V60.624C105.726 60.9013 105.865 61.04 106.142 61.04H109.118ZM110.622 57.136C111.134 57.136 111.39 57.392 111.39 57.904V61.872C111.39 62.384 111.134 62.64 110.622 62.64H104.734C104.222 62.64 103.966 62.384 103.966 61.872V57.904C103.966 57.392 104.222 57.136 104.734 57.136H110.622ZM103.182 64.8C103.481 65.1093 103.449 65.5147 103.086 66.016C102.723 66.5067 102.43 66.5653 102.206 66.192L101.582 65.136V70.72C101.582 71.1573 101.273 71.376 100.654 71.376C100.046 71.376 99.742 71.1573 99.742 70.72V65.632C99.1873 66.9653 98.7127 67.872 98.318 68.352C98.1047 68.6507 97.8487 68.5013 97.55 67.904C97.262 67.296 97.23 66.8533 97.454 66.576C98.1047 65.84 98.782 64.5493 99.486 62.704H98.11C97.6727 62.704 97.454 62.4107 97.454 61.824C97.454 61.2267 97.6727 60.928 98.11 60.928H99.742V59.088C99.166 59.1947 98.7447 59.264 98.478 59.296C98.0193 59.36 97.6993 59.152 97.518 58.672C97.3473 58.1813 97.5287 57.888 98.062 57.792C99.7367 57.5147 100.974 57.1947 101.774 56.832C102.137 56.6827 102.531 56.8533 102.958 57.344C103.385 57.824 103.39 58.128 102.974 58.256L101.582 58.704V60.928H102.638C103.075 60.928 103.294 61.2267 103.294 61.824C103.294 62.4107 103.075 62.704 102.638 62.704H101.582V63.168L103.182 64.8ZM108.606 69.376H111.406C111.843 69.376 112.062 69.6533 112.062 70.208C112.062 70.7627 111.843 71.04 111.406 71.04H103.726C103.289 71.04 103.07 70.7627 103.07 70.208C103.07 69.6533 103.289 69.376 103.726 69.376H106.702V67.904H104.526C104.089 67.904 103.87 67.6373 103.87 67.104C103.87 66.5707 104.089 66.304 104.526 66.304H106.702V65.008C105.859 65.0827 105.161 65.1307 104.606 65.152C104.137 65.1627 103.827 64.928 103.678 64.448C103.529 63.968 103.737 63.712 104.302 63.68C106.926 63.5307 108.851 63.2907 110.078 62.96C110.419 62.8747 110.782 63.072 111.166 63.552C111.55 64.032 111.529 64.3093 111.102 64.384L108.606 64.816V66.304H110.782C111.219 66.304 111.438 66.5707 111.438 67.104C111.438 67.6373 111.219 67.904 110.782 67.904H108.606V69.376ZM127.854 61.728C127.854 62.3787 127.635 62.704 127.198 62.704H122.222C123.374 66.1173 125.166 68.3147 127.598 69.296C128.003 69.4667 127.971 69.8507 127.502 70.448C127.033 71.0453 126.606 71.2427 126.222 71.04C123.929 69.984 122.121 67.824 120.798 64.56C119.795 67.6533 118.009 69.808 115.438 71.024C115.022 71.248 114.574 71.088 114.094 70.544C113.625 70.0107 113.603 69.6427 114.03 69.44C116.729 68.256 118.451 66.0107 119.198 62.704H114.35C113.913 62.704 113.694 62.3787 113.694 61.728C113.694 61.0667 113.913 60.736 114.35 60.736H119.518C119.603 59.968 119.651 58.848 119.662 57.376C119.673 56.768 120.025 56.464 120.718 56.464C121.411 56.464 121.753 56.7413 121.742 57.296C121.731 58.608 121.673 59.7547 121.566 60.736H127.198C127.635 60.736 127.854 61.0667 127.854 61.728ZM129.806 67.904C129.859 67.2747 130.121 66.9973 130.59 67.072C131.059 67.136 131.262 67.472 131.198 68.08C131.113 69.232 130.958 70.112 130.734 70.72C130.638 71.0507 130.361 71.136 129.902 70.976C129.443 70.816 129.267 70.5813 129.374 70.272C129.598 69.76 129.742 68.9707 129.806 67.904ZM131.646 68.048C131.571 67.4613 131.747 67.1307 132.174 67.056C132.601 66.9707 132.857 67.2053 132.942 67.76C133.081 68.528 133.145 69.04 133.134 69.296C133.155 69.712 133.054 70.0373 132.83 70.272C132.617 70.5173 132.286 70.5547 131.838 70.384L131.822 70.208L131.646 68.048ZM133.214 67.488C133.107 67.072 133.251 66.8 133.646 66.672C134.041 66.544 134.297 66.688 134.414 67.104L134.926 68.816C135.043 69.232 134.889 69.5147 134.462 69.664C134.046 69.8027 133.785 69.664 133.678 69.248L133.214 67.488ZM133.262 63.616C133.145 63.2 133.299 62.9387 133.726 62.832C134.153 62.7147 134.451 62.944 134.622 63.52C134.889 64.2987 135.049 64.9547 135.102 65.488C135.166 65.8293 134.974 66.0693 134.526 66.208C134.078 66.3467 133.822 66.1973 133.758 65.76L133.742 65.712C131.523 66.032 130.313 66.2507 130.11 66.368C129.939 66.4213 129.758 66.1867 129.566 65.664C129.385 65.1307 129.395 64.816 129.598 64.72C129.865 64.72 130.483 63.9573 131.454 62.432C130.569 62.528 130.131 62.5973 130.142 62.64C129.865 62.7253 129.635 62.512 129.454 62C129.283 61.4773 129.337 61.1147 129.614 60.912C129.571 61.0507 129.71 60.8587 130.03 60.336C130.233 60.0693 130.515 59.5467 130.878 58.768C131.251 57.9787 131.486 57.408 131.582 57.056C131.721 56.6507 132.062 56.5547 132.606 56.768C133.15 56.9707 133.337 57.2747 133.166 57.68C132.803 58.5867 132.313 59.52 131.694 60.48C131.523 60.7467 131.577 60.8747 131.854 60.864L132.398 60.816L133.118 59.328C133.299 58.9333 133.641 58.8853 134.142 59.184C134.643 59.472 134.793 59.8133 134.59 60.208C133.961 61.488 133.139 62.768 132.126 64.048C131.934 64.2933 131.977 64.4 132.254 64.368L133.438 64.224L133.262 63.616ZM138.222 68.416C137.71 68.416 137.454 68.16 137.454 67.648V64.48C137.454 64.0427 137.609 63.824 137.918 63.824C138.238 63.824 138.398 64.0427 138.398 64.48V66.592C138.398 66.8693 138.59 67.008 138.974 67.008V63.104H137.918C137.481 63.104 137.262 62.8693 137.262 62.4C137.262 61.9307 137.481 61.696 137.918 61.696H139.726L140.19 59.504C140.275 59.0773 140.537 58.9173 140.974 59.024C141.422 59.1307 141.587 59.392 141.47 59.808L140.926 61.696H141.07C141.507 61.696 141.726 61.9307 141.726 62.4C141.726 62.8693 141.507 63.104 141.07 63.104H140.014V67.008H140.606V64.48C140.606 64.0427 140.761 63.824 141.07 63.824C141.39 63.824 141.55 64.0427 141.55 64.48V67.648C141.55 68.16 141.294 68.416 140.782 68.416H138.222ZM137.598 59.84C137.491 59.424 137.614 59.1733 137.966 59.088C138.329 58.992 138.574 59.152 138.702 59.568L139.022 60.592C139.139 61.008 139.006 61.2747 138.622 61.392C138.249 61.4987 138.009 61.344 137.902 60.928L137.598 59.84ZM142.942 57.008C143.454 57.008 143.71 57.264 143.71 57.776V69.408C143.71 69.856 143.657 70.1973 143.55 70.432C143.454 70.6773 143.278 70.864 143.022 70.992C142.638 71.1947 142.11 71.2853 141.438 71.264C140.841 71.2853 140.457 71.0293 140.286 70.496C140.115 69.9733 140.302 69.7227 140.846 69.744C141.134 69.7547 141.454 69.7493 141.806 69.728C142.03 69.728 142.142 69.6213 142.142 69.408V59.088C142.142 58.8107 142.003 58.672 141.726 58.672H137.262C136.985 58.672 136.846 58.8107 136.846 59.088V70.736C136.846 71.1733 136.585 71.392 136.062 71.392C135.55 71.392 135.294 71.1733 135.294 70.736V57.776C135.294 57.264 135.55 57.008 136.062 57.008H142.942ZM152.798 65.888C152.222 65.888 151.918 65.6373 151.886 65.136L151.47 58.816C151.438 58.2933 151.683 58.032 152.206 58.032H153.294C153.817 58.032 154.062 58.288 154.03 58.8L153.614 65.12C153.582 65.632 153.31 65.888 152.798 65.888ZM153.758 69.76C153.491 70.016 153.155 70.144 152.75 70.144C152.345 70.144 152.009 70.016 151.742 69.76C151.475 69.4933 151.342 69.152 151.342 68.736C151.342 68.32 151.475 67.9787 151.742 67.712C152.009 67.4453 152.345 67.312 152.75 67.312C153.155 67.312 153.491 67.4453 153.758 67.712C154.025 67.9787 154.158 68.32 154.158 68.736C154.158 69.152 154.025 69.4933 153.758 69.76Z" fill="black"/>
</svg>
