<svg width="670" height="670" viewBox="0 0 670 670" fill="none" xmlns="http://www.w3.org/2000/svg">
<path fill-rule="evenodd" clip-rule="evenodd" d="M506.829 24.7745C461.802 -8.25815 412.796 -8.25815 367.77 24.7745C300.994 73.7635 300.994 200.167 367.77 249.156C412.796 282.189 461.802 282.189 506.829 249.156C573.605 200.167 573.605 73.7635 506.829 24.7745ZM464.665 73.1238C445.311 63.2689 429.317 63.2689 409.963 73.1238C368.547 94.2134 368.547 179.596 409.963 200.685C429.317 210.54 445.311 210.54 464.665 200.685C506.081 179.596 506.081 94.2134 464.665 73.1238Z" fill="white"/>
<path fill-rule="evenodd" clip-rule="evenodd" d="M113.841 350.222C85.1138 355.012 66.1514 380.937 66.1514 410.061V549.445C66.1514 578.569 85.1138 604.494 113.841 609.284C151.032 615.485 201.413 618.521 232.39 598.414C312.218 546.6 312.218 412.906 232.39 361.092C201.413 340.985 151.032 344.021 113.841 350.222ZM185.574 404.049C157.579 396.101 137.3 426.923 137.3 456.024V503.479C137.3 532.58 157.579 563.402 185.574 555.454C188.218 554.703 190.724 553.703 193.01 552.401C235.191 528.379 235.191 431.124 193.01 407.102C190.724 405.8 188.218 404.8 185.574 404.049Z" fill="white"/>
<path d="M251.795 279.197C296.148 249.007 263.461 220.751 241.12 219.895C218.78 219.04 179.711 248.746 148.96 230.899C96.2783 200.324 97.4396 124.809 150.999 98.3029C188.435 79.7767 191.933 110.225 228.027 101.253C250.368 102.109 249.675 72.1795 243.652 55.27C226.281 6.49768 150.958 15.9864 102.253 38.8537C14.6081 80.003 12.3703 225.521 98.6468 273.331C146.592 299.9 217.309 302.67 251.795 279.197Z" fill="white"/>
<path d="M532.149 597.922L383.873 602.902C361.812 603.643 343.522 585.72 343.522 563.36L343.522 361.551C343.522 341.492 359.568 325.238 379.371 325.238L504.901 325.238C520.22 325.238 532.901 337.312 533.85 352.799C534.874 369.513 521.913 383.698 505.384 383.954L426.635 385.176C413.251 385.383 402.614 396.617 402.968 410.172C403.319 423.633 414.38 434.262 427.669 433.908L479.102 432.537C496.499 432.073 510.979 445.988 511.438 463.61C511.905 481.545 497.686 496.334 479.974 496.334H427.466C414.387 496.334 403.888 507.254 404.233 520.497C404.568 533.337 414.995 543.545 427.674 543.447L531 542.649C545.879 542.535 558.115 554.514 558.508 569.582C558.904 584.764 547.134 597.418 532.149 597.922Z" fill="white"/>
</svg>
