<svg width="190" height="100" viewBox="0 0 190 100" fill="none" xmlns="http://www.w3.org/2000/svg">
<path d="M0 100L65.0653 90.9174L28.4445 70.3325L0 100Z" fill="#B0DAED"/>
<path d="M22.649 29.2132C22.649 13.0792 39.5495 0 60.3973 0H152.252C173.099 0 190 13.0792 190 29.2132V66.2165C190 82.3505 173.099 95.4297 152.252 95.4297H60.3973C39.5495 95.4297 22.649 82.3505 22.649 66.2165V29.2132Z" fill="#B0DAED"/>
<path d="M47.36 32.032C47.7013 32.2987 47.7173 32.5653 47.408 32.832C47.1093 33.0987 46.7893 33.0933 46.448 32.816L46.128 32.56C45.68 32.8907 45.4293 33.0613 45.376 33.072C45.0133 33.264 44.6667 33.2213 44.336 32.944C44.0053 32.656 44.032 32.416 44.416 32.224L45.056 31.888L44.768 31.728C44.384 31.5147 44.3307 31.2853 44.608 31.04C44.896 30.7947 45.232 30.7733 45.616 30.976L46.016 31.184L46.16 31.024C46.448 30.704 46.8 30.608 47.216 30.736C47.632 30.8533 47.696 31.072 47.408 31.392L47.04 31.792L47.36 32.032ZM41.968 35.616L42 36.176H44.592L43.872 35.44C43.872 35.5573 43.8133 35.616 43.696 35.616H41.968ZM41.264 37.552C40.9867 37.552 40.848 37.6907 40.848 37.968V38.8C40.848 39.2373 40.544 39.456 39.936 39.456C39.3387 39.456 39.04 39.2373 39.04 38.8V36.944C39.04 36.432 39.296 36.176 39.808 36.176H40.24L39.984 32.16C39.9627 31.6693 40.1867 31.36 40.656 31.232L42.56 30.688C42.976 30.5813 43.312 30.7147 43.568 31.088C43.8347 31.4507 43.76 31.6853 43.344 31.792L42.176 32.128C41.9093 32.2027 41.7867 32.3947 41.808 32.704H43.184C43.6213 32.704 43.84 32.9013 43.84 33.296C43.84 33.6907 43.6213 33.888 43.184 33.888H41.872L41.904 34.432H43.104C43.616 34.432 43.872 34.704 43.872 35.248L44.992 34.64L44.656 34.432C44.2827 34.2187 44.24 33.9893 44.528 33.744C44.8267 33.488 45.168 33.4613 45.552 33.664L45.984 33.904L46.16 33.712C46.4587 33.392 46.816 33.296 47.232 33.424C47.648 33.5413 47.712 33.76 47.424 34.08L47.008 34.56L47.472 34.912C47.8133 35.168 47.824 35.4347 47.504 35.712C47.184 35.9893 46.8587 35.9893 46.528 35.712L46.096 35.344L44.8 36.176H49.984L50.048 35.616H48.816C48.3787 35.616 48.16 35.4187 48.16 35.024C48.16 34.6293 48.3787 34.432 48.816 34.432H50.16L50.192 33.888H48.896C48.4587 33.888 48.24 33.6907 48.24 33.296C48.24 32.9013 48.4587 32.704 48.896 32.704H50.272L50.304 32.176H48.816C48.3787 32.176 48.16 31.9787 48.16 31.584C48.16 31.1787 48.3787 30.976 48.816 30.976H51.376C51.8987 30.976 52.144 31.264 52.112 31.84C52.048 33.1947 51.952 34.64 51.824 36.176H52.24C52.752 36.176 53.008 36.432 53.008 36.944V38.8C53.008 39.2373 52.6933 39.456 52.064 39.456C51.4347 39.456 51.12 39.2373 51.12 38.8V37.968C51.12 37.6907 50.9813 37.552 50.704 37.552H41.264ZM44.416 45.36C43.8187 45.3707 43.424 45.1093 43.232 44.576C43.04 44.0427 43.264 43.7867 43.904 43.808C44.3627 43.8187 44.672 43.8187 44.832 43.808C45.0027 43.7973 45.1093 43.776 45.152 43.744C45.2053 43.712 45.232 43.648 45.232 43.552V42.464H39.408C38.9707 42.464 38.752 42.2133 38.752 41.712C38.752 41.2107 38.9707 40.96 39.408 40.96H45.232C45.232 40.6507 45.3653 40.4267 45.632 40.288L46.992 39.568H42.496C42.0693 39.568 41.856 39.3493 41.856 38.912C41.856 38.464 42.0747 38.24 42.512 38.24L48.56 38.144C48.9973 38.144 49.392 38.3093 49.744 38.64C50.1067 38.96 50.112 39.2427 49.76 39.488C49.1947 39.904 48.352 40.3947 47.232 40.96H52.56C52.9973 40.96 53.216 41.2107 53.216 41.712C53.216 42.2133 52.9973 42.464 52.56 42.464H47.104V43.616C47.104 44.0533 47.04 44.384 46.912 44.608C46.7947 44.832 46.576 45.008 46.256 45.136C45.7867 45.296 45.1733 45.3707 44.416 45.36ZM57.632 35.248C58.2933 35.0133 58.672 35.1307 58.768 35.6C58.8747 36.0693 58.736 36.3893 58.352 36.56C57.7333 36.8267 56.8533 37.2 55.712 37.68C55.232 37.872 54.8747 37.7013 54.64 37.168C54.416 36.624 54.4053 36.32 54.608 36.256C55.024 36.128 56.032 35.792 57.632 35.248ZM65.648 41.488V40.928C65.648 40.6507 65.5093 40.512 65.232 40.512H58.928C58.6507 40.512 58.512 40.6507 58.512 40.928V41.488H65.648ZM58.512 43.52C58.512 43.7973 58.6507 43.936 58.928 43.936H65.232C65.5093 43.936 65.648 43.7973 65.648 43.52V42.96H58.512V43.52ZM61.296 37.552L62.128 37.664C62.7573 37.7493 62.9227 38.0747 62.624 38.64L62.432 39.008H66.944C67.456 39.008 67.712 39.264 67.712 39.776V44.64C67.712 45.152 67.456 45.408 66.944 45.408H57.312C56.8 45.408 56.544 45.152 56.544 44.64V39.776C56.544 39.264 56.8 39.008 57.312 39.008H60.464L60.816 38.048L59.328 38.256C58.7733 38.2667 58.4107 38.0427 58.24 37.584C58.0693 37.1147 58.2027 36.88 58.64 36.88H59.392C59.5627 36.8907 59.648 36.816 59.648 36.656V33.104C59.648 32.8267 59.5093 32.688 59.232 32.688H56.416C57.28 33.1573 57.7653 33.4667 57.872 33.616C58.1387 33.84 58.1067 34.1653 57.776 34.592C57.4453 35.008 57.1467 35.0933 56.88 34.848C56.688 34.592 56.4747 34.4213 56.24 34.336C55.5253 33.9093 55.3707 33.4507 55.776 32.96L56 32.688H55.392C54.9547 32.688 54.736 32.432 54.736 31.92C54.736 31.408 54.9547 31.152 55.392 31.152H60.64C61.1627 31.152 61.424 31.4133 61.424 31.936L61.296 37.552ZM68.192 31.152C68.704 31.152 68.96 31.408 68.96 31.92V36.624C68.96 37.04 68.9067 37.36 68.8 37.584C68.6933 37.7867 68.4693 37.968 68.128 38.128C67.7867 38.288 67.312 38.3573 66.704 38.336C66.096 38.336 65.7013 38.0853 65.52 37.584C65.3493 37.0827 65.456 36.8427 65.84 36.864C65.872 36.864 66.2027 36.864 66.832 36.864C67.0133 36.8533 67.104 36.768 67.104 36.608V33.104C67.104 32.8267 66.9653 32.688 66.688 32.688H64.576C64.1387 32.688 64.1387 32.8267 64.576 33.104C65.0133 33.3813 65.3227 33.7227 65.504 34.128L65.328 34.48C65.0293 34.8747 64.6933 34.96 64.32 34.736L63.28 34.096C62.832 33.8187 62.7733 33.472 63.104 33.056L63.408 32.688H62.976C62.5387 32.688 62.32 32.432 62.32 31.92C62.32 31.408 62.5387 31.152 62.976 31.152H68.192ZM64.704 35.12C65.5787 34.8213 66.0107 34.6773 66 34.688C66.2773 34.592 66.464 34.784 66.56 35.264C66.656 35.7333 66.4907 36.048 66.064 36.208C65.2853 36.5067 64.56 36.784 63.888 37.04C63.4293 37.2107 63.0293 37.216 62.688 37.056C62.3467 36.8853 62.1707 36.5547 62.16 36.064L62.496 35.856C63.104 35.664 63.84 35.4187 64.704 35.12ZM84.368 35.328C84.8053 35.3173 85.0453 35.5787 85.088 36.112C85.1413 36.6347 84.992 36.928 84.64 36.992C84.8213 36.992 84.6293 36.992 84.064 36.992H82.64C81.8293 36.992 81.2853 36.8427 81.008 36.544C80.7413 36.2453 80.608 35.6907 80.608 34.88V33.872C80.608 33.4347 80.8853 33.216 81.44 33.216C82.0053 33.216 82.288 33.4347 82.288 33.872V34.896C82.288 35.0987 82.3093 35.2373 82.352 35.312C82.3947 35.3867 82.48 35.424 82.608 35.424L84.368 35.328ZM77.712 32.8C77.4347 32.8 77.296 32.9387 77.296 33.216V33.792C77.296 34.2293 77.0027 34.448 76.416 34.448C75.8293 34.448 75.536 34.2293 75.536 33.792V31.952C75.536 31.44 75.7867 31.184 76.288 31.184H84.224C84.736 31.184 84.992 31.44 84.992 31.952V33.696C84.992 34.1333 84.6827 34.352 84.064 34.352C83.4453 34.352 83.136 34.1333 83.136 33.696V33.216C83.136 32.9387 82.9973 32.8 82.72 32.8H77.712ZM78.016 33.952C78.08 33.472 78.4 33.232 78.976 33.232C79.552 33.232 79.8187 33.4773 79.776 33.968C79.7867 34.096 79.7387 34.3627 79.632 34.768C79.5253 35.1627 79.3387 35.5413 79.072 35.904C78.5707 36.5973 77.8507 37.0347 76.912 37.216C76.368 37.3547 75.9413 37.1787 75.632 36.688C75.3227 36.1973 75.4507 35.8987 76.016 35.792C76.6667 35.7173 77.1787 35.4613 77.552 35.024C77.7547 34.7893 77.888 34.544 77.952 34.288L78.016 33.952ZM72.32 39.984L71.648 40.224C71.232 40.3627 70.9493 40.128 70.8 39.52C70.6507 38.912 70.784 38.5493 71.2 38.432L72.32 38.096V35.232H71.456C71.0187 35.232 70.8 34.9387 70.8 34.352C70.8 33.7653 71.0187 33.472 71.456 33.472H72.32V31.104C72.32 30.6667 72.608 30.448 73.184 30.448C73.7707 30.448 74.064 30.6667 74.064 31.104V33.472H74.496C74.9333 33.472 75.152 33.7653 75.152 34.352C75.152 34.9387 74.9333 35.232 74.496 35.232H74.064V37.52L74.448 37.392C74.864 37.2533 75.12 37.4667 75.216 38.032C75.3227 38.5973 75.1733 38.9547 74.768 39.104L74.064 39.376L73.92 44.272C73.8347 44.528 73.6747 44.736 73.44 44.896C73.024 45.152 72.5813 45.2587 72.112 45.216C71.5573 45.2373 71.1947 44.9493 71.024 44.352C70.864 43.7653 71.0027 43.472 71.44 43.472H72.064C72.2347 43.4933 72.32 43.4133 72.32 43.232V39.984ZM84.464 38.384C84.9013 38.384 85.12 38.6667 85.12 39.232C85.12 39.7973 84.9013 40.08 84.464 40.08H82.032L83.632 41.728L84.976 42.672C85.3493 42.8533 85.3173 43.1947 84.88 43.696C84.4533 44.1867 84.064 44.3147 83.712 44.08C82.848 43.5787 81.9307 42.656 80.96 41.312V44.736C80.96 45.1733 80.6453 45.392 80.016 45.392C79.3973 45.392 79.088 45.1733 79.088 44.736V41.488C78.1493 42.864 77.2427 43.776 76.368 44.224C76.016 44.4373 75.6373 44.304 75.232 43.824C74.8267 43.344 74.816 43.008 75.2 42.816C75.4987 42.6987 75.952 42.3787 76.56 41.856L78.112 40.08H76.208C75.7707 40.08 75.552 39.7973 75.552 39.232C75.552 38.6667 75.7707 38.384 76.208 38.384H79.088V37.456C79.088 37.0187 79.3973 36.8 80.016 36.8C80.6453 36.8 80.96 37.0187 80.96 37.456V38.384H84.464ZM94.496 34.016H97.872C97.1467 33.5253 96.528 33.0507 96.016 32.592C95.5467 33.104 95.04 33.5787 94.496 34.016ZM95.152 30.752C95.3867 30.4107 95.808 30.3467 96.416 30.56C97.024 30.7733 97.2267 31.0453 97.024 31.376C98.3253 32.432 99.6053 33.1627 100.864 33.568C101.301 33.7173 101.397 34.096 101.152 34.704C100.907 35.3013 100.576 35.5093 100.16 35.328C99.7653 35.1573 99.2213 34.8533 98.528 34.416L98.512 34.688C98.512 35.2 98.2613 35.456 97.76 35.456H94.576C94.064 35.456 93.808 35.1467 93.808 34.528C93.3813 34.848 93.0613 35.0613 92.848 35.168C92.432 35.392 92.0267 35.296 91.632 34.88C91.248 34.464 91.2427 34.144 91.616 33.92C92.1813 33.5893 92.8533 33.0773 93.632 32.384C94.4213 31.6907 94.928 31.1467 95.152 30.752ZM98.304 37.536C98.0267 37.536 97.888 37.6693 97.888 37.936V38.592C97.888 38.8693 98.0267 39.008 98.304 39.008H98.592C98.8693 39.008 99.008 38.8747 99.008 38.608V37.952C99.008 37.6747 98.8693 37.536 98.592 37.536H98.304ZM97.28 40.272C96.768 40.272 96.512 40.016 96.512 39.504V37.024C96.512 36.512 96.768 36.256 97.28 36.256H99.712C100.224 36.256 100.48 36.512 100.48 37.024V39.504C100.48 40.016 100.224 40.272 99.712 40.272H97.28ZM93.712 37.536C93.4347 37.536 93.296 37.6693 93.296 37.936V38.592C93.296 38.8693 93.4347 39.008 93.712 39.008H93.952C94.2293 39.008 94.368 38.8747 94.368 38.608V37.952C94.368 37.6747 94.2293 37.536 93.952 37.536H93.712ZM92.704 40.272C92.192 40.272 91.936 40.016 91.936 39.504V37.024C91.936 36.512 92.192 36.256 92.704 36.256H95.024C95.536 36.256 95.792 36.512 95.792 37.024V39.504C95.792 40.016 95.536 40.272 95.024 40.272H92.704ZM92.912 41.216C93.0933 40.704 93.4613 40.5067 94.016 40.624C94.5707 40.7413 94.7733 41.008 94.624 41.424L94.496 41.744L95.504 42.512C95.8453 42.768 95.856 43.1093 95.536 43.536C95.216 43.952 94.928 44.032 94.672 43.776C94.672 43.7333 94.3787 43.4933 93.792 43.056C93.1627 44.0373 92.5707 44.6987 92.016 45.04C91.6747 45.3067 91.296 45.2373 90.88 44.832C90.4747 44.4373 90.4587 44.1173 90.832 43.872C91.8987 43.264 92.592 42.3787 92.912 41.216ZM97.424 41.264C97.552 40.7093 97.8987 40.4747 98.464 40.56C99.0293 40.6347 99.2533 40.88 99.136 41.296L98.944 41.968L100.912 43.488C101.253 43.7547 101.237 44.1013 100.864 44.528C100.491 44.9547 100.176 45.04 99.92 44.784C99.728 44.56 99.1787 44.112 98.272 43.44C97.8027 44.2507 97.3813 44.7733 97.008 45.008C96.6773 45.2853 96.304 45.2213 95.888 44.816C95.4827 44.4213 95.4507 44.096 95.792 43.84C96.688 43.296 97.232 42.4373 97.424 41.264ZM91.088 34.128C91.024 34.352 90.8533 34.9493 90.576 35.92C91.2267 36.9227 91.552 37.9893 91.552 39.12C91.552 40.2507 91.3387 40.9867 90.912 41.328C90.6987 41.5093 90.4587 41.6213 90.192 41.664L89.776 41.696C89.3387 41.7173 89.056 41.456 88.928 40.912C88.8 40.3573 88.9867 40.0853 89.488 40.096L89.712 40C89.872 39.8613 89.952 39.5307 89.952 39.008C89.952 37.9307 89.648 36.9653 89.04 36.112C89.2853 35.216 89.504 34.2613 89.696 33.248C89.7707 32.928 89.6693 32.768 89.392 32.768H89.056C88.7893 32.768 88.656 32.9067 88.656 33.184V44.704C88.656 45.1413 88.3893 45.36 87.856 45.36C87.3333 45.36 87.072 45.1413 87.072 44.704V31.84C87.072 31.328 87.328 31.072 87.84 31.072L90.592 31.008L91.152 31.344C91.568 31.5787 91.712 31.92 91.584 32.368C91.4987 32.6773 91.3333 33.264 91.088 34.128ZM108.32 33.36C108.32 33.0827 108.187 32.944 107.92 32.944H105.856C105.579 32.944 105.44 33.0827 105.44 33.36V34.304H108.32V33.36ZM105.44 37.456H107.92C108.187 37.456 108.32 37.3173 108.32 37.04V36H105.44V37.456ZM107.136 40.912C106.923 40.5387 107.088 40.2187 107.632 39.952C108.187 39.6853 108.619 39.8187 108.928 40.352C109.707 41.6 110.224 42.5813 110.48 43.296C110.608 43.584 110.373 43.8827 109.776 44.192C109.189 44.512 108.821 44.4747 108.672 44.08C108.683 44.048 108.571 43.7867 108.336 43.296C106.533 43.8613 105.333 44.2507 104.736 44.464L104.08 44.768C103.685 44.9493 103.365 44.7147 103.12 44.064C102.875 43.424 102.933 42.9547 103.296 42.656C103.424 42.7093 103.488 42.4853 103.488 41.984V32.016C103.488 31.504 103.744 31.248 104.256 31.248H109.456C109.968 31.248 110.224 31.504 110.224 32.016V38.384C110.224 38.896 109.968 39.152 109.456 39.152H105.44V41.888C105.44 42.1653 105.573 42.2667 105.84 42.192L107.568 41.696L107.136 40.912ZM116.08 31.36C116.592 31.36 116.848 31.6213 116.848 32.144L116.704 41.632C116.608 41.888 116.427 42.0907 116.16 42.24C115.797 42.4533 115.333 42.5547 114.768 42.544C114.181 42.5547 113.797 42.2613 113.616 41.664C113.445 41.0667 113.579 40.768 114.016 40.768H114.64C114.864 40.7787 114.976 40.6933 114.976 40.512V33.52C114.976 33.2427 114.837 33.104 114.56 33.104H113.456C113.179 33.104 113.04 33.2427 113.04 33.52V44.736C113.04 45.1733 112.72 45.392 112.08 45.392C111.44 45.392 111.12 45.1733 111.12 44.736V32.128C111.12 31.616 111.376 31.36 111.888 31.36H116.08ZM130.544 33.344C130.683 33.1093 130.613 32.992 130.336 32.992H128.544C128.267 32.992 128.235 33.0933 128.448 33.296C128.821 33.5947 129.205 34 129.6 34.512C130.08 34.032 130.395 33.6427 130.544 33.344ZM132.72 38.608C133.157 38.608 133.376 38.8853 133.376 39.44C133.376 39.9947 133.157 40.272 132.72 40.272H131.584V43.152C131.584 43.632 131.531 44 131.424 44.256C131.317 44.5227 131.115 44.7307 130.816 44.88C130.347 45.0933 129.787 45.1893 129.136 45.168C128.507 45.1893 128.128 44.9707 128 44.512L127.92 44.272C127.739 43.664 127.968 43.3653 128.608 43.376L129.024 43.392C129.44 43.392 129.669 43.376 129.712 43.344C129.755 43.3013 129.776 43.232 129.776 43.136V40.272H124.944C124.507 40.272 124.288 39.9947 124.288 39.44C124.288 38.8853 124.507 38.608 124.944 38.608H124.96L124.704 38.256C124.341 37.7333 124.475 37.3813 125.104 37.2C126.075 36.9867 127.051 36.528 128.032 35.824C128.309 35.6213 128.357 35.4187 128.176 35.216L126.848 33.744C126.165 34.192 125.707 34.4693 125.472 34.576C125.109 34.7467 124.736 34.6453 124.352 34.272C123.979 33.888 123.989 33.6053 124.384 33.424C124.853 33.232 125.472 32.8427 126.24 32.256C127.008 31.6693 127.493 31.2213 127.696 30.912C127.963 30.592 128.405 30.5173 129.024 30.688C129.643 30.848 129.808 31.0933 129.52 31.424L129.248 31.728L131.216 31.664C131.653 31.6533 132.064 31.744 132.448 31.936C132.843 32.1173 132.955 32.4107 132.784 32.816C131.813 35.4293 129.499 37.36 125.84 38.608H129.776V37.328C129.776 36.8907 130.075 36.672 130.672 36.672C131.28 36.672 131.584 36.8907 131.584 37.328V38.608H132.72ZM126.64 34.8C127.067 34.736 127.301 34.912 127.344 35.328C127.387 35.7333 127.195 35.9787 126.768 36.064L125.088 36.4C124.661 36.4853 124.395 36.3093 124.288 35.872C124.192 35.4347 124.357 35.184 124.784 35.12L126.64 34.8ZM125.712 41.168C125.776 40.8373 126.032 40.624 126.48 40.528C126.501 40.3573 126.704 40.464 127.088 40.848C127.696 41.4133 128.064 41.856 128.192 42.176C128.405 42.5387 128.251 42.88 127.728 43.2C127.205 43.5093 126.843 43.4613 126.64 43.056C126.501 42.672 126.336 42.4053 126.144 42.256C125.792 41.8507 125.648 41.488 125.712 41.168ZM122.912 30.464C123.499 30.464 123.792 30.6827 123.792 31.12V44.736C123.792 45.1733 123.499 45.392 122.912 45.392C122.336 45.392 122.048 45.1733 122.048 44.736V39.984H120.976C120.976 42.3413 120.656 43.9947 120.016 44.944C119.845 45.264 119.525 45.2693 119.056 44.96C118.597 44.6507 118.448 44.336 118.608 44.016C119.088 43.312 119.328 41.968 119.328 39.984H119.184C118.747 39.984 118.528 39.712 118.528 39.168C118.528 38.6133 118.747 38.336 119.184 38.336H122.048V36.576H119.936C119.424 36.576 119.168 36.32 119.168 35.808V31.76C119.168 31.3227 119.44 31.104 119.984 31.104C120.539 31.104 120.816 31.3227 120.816 31.76V34.528C120.816 34.8053 120.955 34.944 121.232 34.944H122.048V31.12C122.048 30.6827 122.336 30.464 122.912 30.464ZM139.664 32.832C139.664 32.5547 139.525 32.416 139.248 32.416H137.568C137.291 32.416 137.152 32.5547 137.152 32.832V33.232H139.664V32.832ZM137.152 35.344H139.248C139.525 35.344 139.664 35.2053 139.664 34.928V34.48H137.152V35.344ZM141.456 35.952C141.456 36.464 141.2 36.72 140.688 36.72H137.152V44.736C137.152 45.1733 136.843 45.392 136.224 45.392C135.605 45.392 135.296 45.1733 135.296 44.736V31.824C135.296 31.312 135.552 31.056 136.064 31.056H140.688C141.2 31.056 141.456 31.312 141.456 31.824V35.952ZM141.2 40.24H142.688V39.04H141.2V40.24ZM146.112 41.024C146.112 41.536 145.893 41.792 145.456 41.792H144.352V44.432C144.352 44.8693 144.075 45.088 143.52 45.088C142.965 45.088 142.688 44.8693 142.688 44.432V41.792H141.152C140.917 43.4133 140.4 44.4693 139.6 44.96C139.269 45.2373 138.901 45.1947 138.496 44.832C138.091 44.4693 138.059 44.1547 138.4 43.888C138.923 43.6107 139.296 42.912 139.52 41.792H138.56C138.123 41.792 137.904 41.536 137.904 41.024C137.904 40.5013 138.123 40.24 138.56 40.24H139.584V39.04H138.784C138.347 39.04 138.128 38.7893 138.128 38.288C138.128 37.7867 138.347 37.536 138.784 37.536H145.2C145.637 37.536 145.856 37.7867 145.856 38.288C145.856 38.7893 145.637 39.04 145.2 39.04H144.352V40.24H145.456C145.893 40.24 146.112 40.5013 146.112 41.024ZM144.32 34.96C144.32 35.2373 144.459 35.376 144.736 35.376H146.912V34.48H144.32V34.96ZM146.912 32.832C146.912 32.5547 146.773 32.416 146.496 32.416H144.736C144.459 32.416 144.32 32.5547 144.32 32.832V33.232H146.912V32.832ZM148.016 31.056C148.528 31.056 148.784 31.312 148.784 31.824V43.168C148.784 43.6693 148.725 44.0587 148.608 44.336C148.501 44.6133 148.309 44.8267 148.032 44.976C147.595 45.2213 147.019 45.3333 146.304 45.312C145.707 45.3333 145.312 45.0293 145.12 44.4C144.928 43.7707 145.099 43.4667 145.632 43.488C145.888 43.4987 146.203 43.4933 146.576 43.472C146.8 43.472 146.912 43.3653 146.912 43.152V36.752H143.28C142.768 36.752 142.512 36.496 142.512 35.984V31.824C142.512 31.312 142.768 31.056 143.28 31.056H148.016ZM154.576 35.36L153.424 35.44C153.232 36.3893 153.024 37.2853 152.8 38.128C152.736 38.416 152.805 38.6453 153.008 38.816L153.856 39.536C154.293 38.32 154.533 36.928 154.576 35.36ZM156.976 34.4C156.976 34.9227 156.757 35.1947 156.32 35.216L156.288 35.232C156.245 37.3333 155.909 39.1733 155.28 40.752C156.187 41.5947 156.677 42.0747 156.752 42.192C156.944 42.3947 156.843 42.7467 156.448 43.248C156.064 43.7387 155.728 43.824 155.44 43.504C155.28 43.3013 154.939 42.944 154.416 42.432C153.723 43.552 152.987 44.3893 152.208 44.944C151.856 45.232 151.467 45.1573 151.04 44.72C150.613 44.2933 150.576 43.9467 150.928 43.68C151.685 43.1573 152.411 42.3253 153.104 41.184C152.229 40.3733 151.616 39.824 151.264 39.536C150.955 39.2587 150.853 38.9387 150.96 38.576C151.141 38.0213 151.381 37.0133 151.68 35.552L151.296 35.584C150.859 35.6053 150.608 35.3333 150.544 34.768C150.491 34.2027 150.725 33.9147 151.248 33.904C151.419 33.8933 151.664 33.8773 151.984 33.856C152.197 32.5867 152.32 31.6747 152.352 31.12C152.395 30.736 152.709 30.5653 153.296 30.608C153.883 30.64 154.149 30.8693 154.096 31.296L153.728 33.776L154.592 33.728V33.36C154.592 32.9227 154.875 32.704 155.44 32.704C156.005 32.704 156.288 32.9227 156.288 33.36V33.632L156.336 33.616C156.773 33.6053 156.987 33.8667 156.976 34.4ZM165.488 36.688C165.637 37.04 165.44 37.3653 164.896 37.664C164.352 37.952 164.005 37.8933 163.856 37.488L163.68 37.04C161.003 37.2747 159.301 37.4347 158.576 37.52C157.861 37.5947 157.52 37.648 157.552 37.68C157.232 37.7653 156.971 37.5147 156.768 36.928C156.565 36.3307 156.56 35.9787 156.752 35.872C157.04 35.84 157.632 34.9387 158.528 33.168C158.987 32.2613 159.296 31.5627 159.456 31.072C159.605 30.6667 160.011 30.5547 160.672 30.736C161.333 30.9067 161.573 31.1947 161.392 31.6C160.901 32.7947 160.251 34.0053 159.44 35.232C159.269 35.4987 159.323 35.6267 159.6 35.616L162.384 35.392C162.661 35.3813 162.725 35.264 162.576 35.04L161.904 34C161.669 33.6373 161.803 33.3333 162.304 33.088C162.816 32.832 163.2 32.8747 163.456 33.216C163.755 33.5787 164.149 34.1813 164.64 35.024C165.131 35.856 165.413 36.4107 165.488 36.688ZM162.832 40.784C162.832 40.5067 162.693 40.368 162.416 40.368H159.328C159.051 40.368 158.912 40.5067 158.912 40.784V42.656C158.912 42.9333 159.051 43.072 159.328 43.072H162.416C162.693 43.072 162.832 42.9333 162.832 42.656V40.784ZM157.936 44.752C157.424 44.752 157.168 44.496 157.168 43.984V39.472C157.168 38.96 157.424 38.704 157.936 38.704H163.888C164.4 38.704 164.656 38.96 164.656 39.472V43.984C164.656 44.496 164.4 44.752 163.888 44.752H157.936ZM173.328 41.184C172.88 41.344 172.571 41.2107 172.4 40.784C172.229 40.3573 172.405 40.0373 172.928 39.824C173.675 39.6213 174.085 39.1573 174.16 38.432C174.192 38.2827 174.149 38.2133 174.032 38.224C173.616 38.224 173.259 38.096 172.96 37.84C172.661 37.584 172.512 37.2373 172.512 36.8C172.512 36.3627 172.661 36.016 172.96 35.76C173.269 35.4933 173.669 35.36 174.16 35.36C174.661 35.36 175.061 35.5573 175.36 35.952C175.659 36.336 175.808 36.8693 175.808 37.552C175.808 38.4587 175.525 39.2587 174.96 39.952C174.405 40.6453 173.861 41.056 173.328 41.184ZM40.432 57.056V59.376C40.432 59.6533 40.5707 59.792 40.848 59.792H41.792V56.256H40.848C40.5707 56.256 40.432 56.3947 40.432 56.672V56.944L40.576 56.896C40.992 56.7787 41.28 57.1093 41.44 57.888C41.6107 58.656 41.488 59.104 41.072 59.232C40.9227 59.2853 40.8 59.0507 40.704 58.528L40.432 57.056ZM44.368 56.976V56.656C44.368 56.3893 44.2293 56.256 43.952 56.256H42.96V58.928L43.376 57.456C43.5147 56.9547 43.8453 56.7947 44.368 56.976ZM42.96 59.792H43.952C44.2293 59.792 44.368 59.6533 44.368 59.376V57.504L43.92 58.624C43.7387 59.0933 43.4187 59.2427 42.96 59.072V59.792ZM45.392 64.064C45.8293 64.064 46.048 64.3093 46.048 64.8C46.048 65.28 45.8293 65.52 45.392 65.52H39.344C38.9067 65.52 38.688 65.28 38.688 64.8C38.688 64.3093 38.9067 64.064 39.344 64.064H41.52V63.248H39.68C39.2427 63.248 39.024 63.008 39.024 62.528C39.024 62.0373 39.2427 61.792 39.68 61.792H41.52V61.088H39.76C39.248 61.088 38.992 60.8373 38.992 60.336V55.728C38.992 55.216 39.248 54.96 39.76 54.96H45.088C45.6 54.96 45.856 55.2107 45.856 55.712V60.32C45.856 60.832 45.6 61.088 45.088 61.088H43.232V61.792H45.168C45.6053 61.792 45.824 62.0373 45.824 62.528C45.824 63.008 45.6053 63.248 45.168 63.248H43.232V64.064H45.392ZM39.84 68.752C39.712 69.168 39.424 69.28 38.976 69.088C38.528 68.9067 38.416 68.608 38.64 68.192C38.8747 67.8613 39.0507 67.344 39.168 66.64C39.2747 66.1493 39.5413 65.984 39.968 66.144C40.3947 66.304 40.544 66.592 40.416 67.008L39.84 68.752ZM40.928 67.04C40.9067 66.6027 41.088 66.3627 41.472 66.32C41.8667 66.2773 42.08 66.4747 42.112 66.912L42.256 68.4C42.288 68.8373 42.096 69.0827 41.68 69.136C41.264 69.1893 41.0453 68.9973 41.024 68.56L40.928 67.04ZM42.688 66.992C42.592 66.5653 42.736 66.32 43.12 66.256C43.504 66.1813 43.7493 66.3573 43.856 66.784L44.208 68.176C44.3147 68.592 44.1653 68.8373 43.76 68.912C43.3653 68.9973 43.12 68.8267 43.024 68.4L42.688 66.992ZM50.768 67.248C51.0453 67.248 51.184 67.1093 51.184 66.832V64.256C51.184 63.9787 51.0453 63.84 50.768 63.84H48.592C48.3147 63.84 48.176 63.9787 48.176 64.256V66.832C48.176 67.1093 48.3147 67.248 48.592 67.248H50.768ZM52.928 57.824C53.3653 57.824 53.584 58.1227 53.584 58.72C53.584 59.3173 53.3653 59.616 52.928 59.616H50.432V62.096H52.272C52.784 62.096 53.04 62.352 53.04 62.864V68.208C53.04 68.72 52.784 68.976 52.272 68.976H47.184C46.6827 68.976 46.432 68.72 46.432 68.208V62.864C46.432 62.352 46.688 62.096 47.2 62.096H48.56V55.152C48.56 54.7147 48.8693 54.496 49.488 54.496C50.1173 54.496 50.432 54.7147 50.432 55.152V57.824H52.928ZM46.224 67.744C46.3627 68.128 46.2293 68.4213 45.824 68.624C45.4293 68.8267 45.152 68.7307 44.992 68.336L44.4 66.912C44.24 66.5173 44.3467 66.2507 44.72 66.112C45.104 65.9733 45.44 66.1493 45.728 66.64C45.9627 66.9707 46.128 67.3387 46.224 67.744ZM68.688 56.928C68.9333 57.2693 68.8 57.6213 68.288 57.984C67.776 58.336 67.4133 58.352 67.2 58.032C67.2107 57.9893 66.9973 57.7173 66.56 57.216C66.1227 56.7147 65.8347 56.416 65.696 56.32C65.3973 56.0213 65.488 55.712 65.968 55.392C66.448 55.0613 66.8907 55.0827 67.296 55.456C68.032 56.0747 68.496 56.5653 68.688 56.928ZM66.704 61.84C66.9067 61.488 67.2853 61.4347 67.84 61.68C68.4053 61.9147 68.576 62.224 68.352 62.608C67.872 63.4933 67.0987 64.4693 66.032 65.536C66.4907 66.848 66.96 67.504 67.44 67.504C67.7707 67.504 67.9467 66.9973 67.968 65.984C68.0213 65.2267 68.3093 65.0293 68.832 65.392C69.3547 65.7547 69.5733 66.2293 69.488 66.816C69.424 67.6053 69.2213 68.24 68.88 68.72C68.5493 69.2 68.0107 69.44 67.264 69.44C66.1653 69.44 65.248 68.5973 64.512 66.912C63.6053 67.6693 62.8107 68.2133 62.128 68.544C61.744 68.7573 61.3387 68.608 60.912 68.096C60.496 67.584 60.4747 67.2373 60.848 67.056C61.712 66.672 62.7147 66.0107 63.856 65.072C63.5147 63.824 63.2427 62.3947 63.04 60.784H59.792V62.608L61.616 62.272C62.0427 62.1973 62.2773 62.448 62.32 63.024C62.3733 63.6 62.1867 63.9307 61.76 64.016L59.792 64.416V67.152C59.792 67.6747 59.728 68.0747 59.6 68.352C59.472 68.64 59.248 68.8587 58.928 69.008C58.3947 69.2747 57.7227 69.392 56.912 69.36C56.336 69.3707 55.936 69.056 55.712 68.416C55.488 67.776 55.728 67.472 56.432 67.504C57.2107 67.5467 57.664 67.5093 57.792 67.392C57.8453 67.3493 57.872 67.264 57.872 67.136V64.816L55.648 65.264C55.2213 65.3493 54.928 65.072 54.768 64.432C54.6187 63.792 54.832 63.4293 55.408 63.344C56.4107 63.184 57.232 63.0453 57.872 62.928V60.784H55.504C55.0667 60.784 54.848 60.4853 54.848 59.888C54.848 59.28 55.0667 58.976 55.504 58.976H57.872V57.152C57.1787 57.2693 56.5707 57.36 56.048 57.424C55.5573 57.4773 55.2213 57.2373 55.04 56.704C54.8587 56.1707 55.0187 55.872 55.52 55.808C57.5467 55.5307 59.2107 55.1787 60.512 54.752C60.9173 54.624 61.3333 54.832 61.76 55.376C62.1867 55.9093 62.1867 56.224 61.76 56.32L59.792 56.816V58.976H62.864C62.7573 57.7493 62.6933 56.5387 62.672 55.344C62.672 54.8427 63.0027 54.592 63.664 54.592C64.336 54.592 64.6667 54.8053 64.656 55.232C64.6347 56.224 64.6933 57.472 64.832 58.976H68.528C68.9653 58.976 69.184 59.28 69.184 59.888C69.184 60.4853 68.9653 60.784 68.528 60.784H65.024C65.152 61.744 65.3067 62.6453 65.488 63.488C66.128 62.72 66.5333 62.1707 66.704 61.84ZM81.52 67.36H82.912C83.1573 67.36 83.3173 67.232 83.392 66.976C83.4667 66.7093 83.504 66.4053 83.504 66.064C83.536 65.4667 83.84 65.296 84.416 65.552C84.992 65.808 85.248 66.2293 85.184 66.816C85.152 67.488 84.9813 68.0427 84.672 68.48C84.3627 68.928 83.8347 69.152 83.088 69.152H81.232C80.3573 69.152 79.7707 68.9813 79.472 68.64C79.1733 68.3093 79.024 67.68 79.024 66.752V62.864H76.688C76.592 63.664 76.4587 64.3573 76.288 64.944C76.1173 65.52 75.8613 66.1067 75.52 66.704C74.848 67.8667 73.8613 68.688 72.56 69.168C72.08 69.3813 71.6427 69.2053 71.248 68.64C70.8533 68.0853 70.9067 67.7173 71.408 67.536C72.4427 67.2053 73.232 66.6027 73.776 65.728C74.064 65.2693 74.272 64.8267 74.4 64.4L74.688 62.864H71.568C71.1307 62.864 70.912 62.56 70.912 61.952C70.912 61.3333 71.1307 61.024 71.568 61.024H77.04V58.432H74.288C73.8827 59.3387 73.5787 59.9093 73.376 60.144C73.1627 60.4533 72.7733 60.4693 72.208 60.192C71.6533 59.9147 71.488 59.616 71.712 59.296C71.968 59.008 72.2827 58.3947 72.656 57.456C73.0293 56.5067 73.2587 55.7867 73.344 55.296C73.4507 54.88 73.8293 54.736 74.48 54.864C75.1307 54.992 75.392 55.264 75.264 55.68L74.976 56.608H77.04V55.104C77.04 54.6667 77.36 54.448 78 54.448C78.6507 54.448 78.976 54.6667 78.976 55.104V56.608H83.232C83.6693 56.608 83.888 56.912 83.888 57.52C83.888 58.128 83.6693 58.432 83.232 58.432H78.976V61.024H84.48C84.9173 61.024 85.136 61.3333 85.136 61.952C85.136 62.56 84.9173 62.864 84.48 62.864H80.944V66.752C80.944 67.0187 80.976 67.1893 81.04 67.264C81.1147 67.328 81.2747 67.36 81.52 67.36ZM97.84 63.984V63.696C97.84 63.4187 97.7013 63.28 97.424 63.28H91.808V63.984H97.84ZM91.808 67.536C91.808 67.8133 91.9467 67.952 92.224 67.952H97.424C97.7013 67.952 97.84 67.8133 97.84 67.536V67.184H91.808V67.536ZM97.84 65.952V65.216H91.808V65.952H97.84ZM100.736 59.52C101.173 59.52 101.392 59.7813 101.392 60.304C101.392 60.8267 101.173 61.088 100.736 61.088H92.432L92.048 61.776H99.072C99.584 61.776 99.84 62.032 99.84 62.544V68.656C99.84 69.168 99.584 69.424 99.072 69.424H90.688C90.176 69.424 89.92 69.168 89.92 68.656V64.576C89.12 65.376 88.448 65.9307 87.904 66.24C87.5413 66.4533 87.152 66.2987 86.736 65.776C86.32 65.2427 86.2933 64.8693 86.656 64.656C87.8933 63.9947 89.0613 62.8053 90.16 61.088H87.28C86.8427 61.088 86.624 60.8267 86.624 60.304C86.624 59.7813 86.8427 59.52 87.28 59.52H90.992L91.312 58.816H88.448C88.0107 58.816 87.792 58.5653 87.792 58.064C87.792 57.5627 88.0107 57.312 88.448 57.312H91.84L92.032 56.592C90.6453 56.656 89.504 56.6827 88.608 56.672C88.1813 56.6613 87.904 56.4107 87.776 55.92C87.6587 55.4187 87.8827 55.168 88.448 55.168C93.0027 55.168 96.4427 54.9707 98.768 54.576C99.0987 54.5227 99.456 54.736 99.84 55.216C100.235 55.6853 100.256 55.952 99.904 56.016C98.6773 56.2187 96.7787 56.384 94.208 56.512L93.968 57.312H99.84C100.277 57.312 100.496 57.5627 100.496 58.064C100.496 58.5653 100.277 58.816 99.84 58.816H93.44L93.168 59.52H100.736ZM108 57.088C108.437 57.088 108.656 57.3387 108.656 57.84C108.656 58.3413 108.437 58.592 108 58.592H103.184C102.747 58.592 102.528 58.3413 102.528 57.84C102.528 57.3387 102.747 57.088 103.184 57.088H105.28L104.544 55.648C104.352 55.264 104.496 54.9547 104.976 54.72C105.467 54.4853 105.819 54.5547 106.032 54.928L106.544 55.84C106.789 56.288 106.683 56.6347 106.224 56.88L105.84 57.088H108ZM107.488 59.312C107.925 59.312 108.144 59.552 108.144 60.032C108.144 60.512 107.925 60.752 107.488 60.752H103.888C103.451 60.752 103.232 60.512 103.232 60.032C103.232 59.552 103.451 59.312 103.888 59.312H107.488ZM103.888 62.912C103.451 62.912 103.232 62.672 103.232 62.192C103.232 61.712 103.451 61.472 103.888 61.472H107.488C107.925 61.472 108.144 61.712 108.144 62.192C108.144 62.672 107.925 62.912 107.488 62.912H103.888ZM106.176 66.976C106.453 66.976 106.592 66.8373 106.592 66.56V65.6C106.592 65.3227 106.453 65.184 106.176 65.184H105.216C104.939 65.184 104.8 65.3227 104.8 65.6V66.56C104.8 66.8373 104.939 66.976 105.216 66.976H106.176ZM110.672 59.04V59.648C110.672 59.9253 110.811 60.064 111.088 60.064H112.016V59.04H110.672ZM111.088 56.544C110.811 56.544 110.672 56.6827 110.672 56.96V57.584H112.016V56.544H111.088ZM115.072 57.584V56.96C115.072 56.6827 114.933 56.544 114.656 56.544H113.664V57.584H115.072ZM114.656 60.064C114.933 60.064 115.072 59.9253 115.072 59.648V59.04H113.664V60.064H114.656ZM117.2 63.36C117.2 63.9147 116.981 64.192 116.544 64.192H114.544C115.429 65.504 116.299 66.4213 117.152 66.944C117.515 67.1787 117.477 67.5307 117.04 68C116.613 68.48 116.245 68.592 115.936 68.336C115.317 67.8667 114.597 67.0027 113.776 65.744V68.72C113.776 69.1573 113.467 69.376 112.848 69.376C112.229 69.376 111.92 69.1573 111.92 68.72V65.904C111.067 67.152 110.32 67.9787 109.68 68.384C109.307 68.6613 108.965 68.608 108.656 68.224L108.24 67.712C108.24 68.2453 107.984 68.512 107.472 68.512H103.968C103.456 68.512 103.2 68.256 103.2 67.744V64.432C103.2 63.92 103.456 63.664 103.968 63.664H107.472C107.984 63.664 108.24 63.92 108.24 64.432V66.688C108.24 66.9653 108.352 67.0293 108.576 66.88C109.525 66.2827 110.379 65.3867 111.136 64.192H109.168C108.731 64.192 108.512 63.9147 108.512 63.36C108.512 62.7947 108.731 62.512 109.168 62.512H111.92V61.568H109.744C109.232 61.568 108.976 61.312 108.976 60.8V55.824C108.976 55.312 109.232 55.056 109.744 55.056H116.064C116.576 55.056 116.832 55.312 116.832 55.824V60.8C116.832 61.312 116.576 61.568 116.064 61.568H113.776V62.512H116.544C116.981 62.512 117.2 62.7947 117.2 63.36ZM130.368 59.04C130.645 59.04 130.784 58.9013 130.784 58.624V57.152C130.784 56.8747 130.645 56.736 130.368 56.736H127.392C127.115 56.736 126.976 56.8747 126.976 57.152V58.624C126.976 58.9013 127.115 59.04 127.392 59.04H130.368ZM131.872 55.136C132.384 55.136 132.64 55.392 132.64 55.904V59.872C132.64 60.384 132.384 60.64 131.872 60.64H125.984C125.472 60.64 125.216 60.384 125.216 59.872V55.904C125.216 55.392 125.472 55.136 125.984 55.136H131.872ZM124.432 62.8C124.731 63.1093 124.699 63.5147 124.336 64.016C123.973 64.5067 123.68 64.5653 123.456 64.192L122.832 63.136V68.72C122.832 69.1573 122.523 69.376 121.904 69.376C121.296 69.376 120.992 69.1573 120.992 68.72V63.632C120.437 64.9653 119.963 65.872 119.568 66.352C119.355 66.6507 119.099 66.5013 118.8 65.904C118.512 65.296 118.48 64.8533 118.704 64.576C119.355 63.84 120.032 62.5493 120.736 60.704H119.36C118.923 60.704 118.704 60.4107 118.704 59.824C118.704 59.2267 118.923 58.928 119.36 58.928H120.992V57.088C120.416 57.1947 119.995 57.264 119.728 57.296C119.269 57.36 118.949 57.152 118.768 56.672C118.597 56.1813 118.779 55.888 119.312 55.792C120.987 55.5147 122.224 55.1947 123.024 54.832C123.387 54.6827 123.781 54.8533 124.208 55.344C124.635 55.824 124.64 56.128 124.224 56.256L122.832 56.704V58.928H123.888C124.325 58.928 124.544 59.2267 124.544 59.824C124.544 60.4107 124.325 60.704 123.888 60.704H122.832V61.168L124.432 62.8ZM129.856 67.376H132.656C133.093 67.376 133.312 67.6533 133.312 68.208C133.312 68.7627 133.093 69.04 132.656 69.04H124.976C124.539 69.04 124.32 68.7627 124.32 68.208C124.32 67.6533 124.539 67.376 124.976 67.376H127.952V65.904H125.776C125.339 65.904 125.12 65.6373 125.12 65.104C125.12 64.5707 125.339 64.304 125.776 64.304H127.952V63.008C127.109 63.0827 126.411 63.1307 125.856 63.152C125.387 63.1627 125.077 62.928 124.928 62.448C124.779 61.968 124.987 61.712 125.552 61.68C128.176 61.5307 130.101 61.2907 131.328 60.96C131.669 60.8747 132.032 61.072 132.416 61.552C132.8 62.032 132.779 62.3093 132.352 62.384L129.856 62.816V64.304H132.032C132.469 64.304 132.688 64.5707 132.688 65.104C132.688 65.6373 132.469 65.904 132.032 65.904H129.856V67.376ZM149.104 59.728C149.104 60.3787 148.885 60.704 148.448 60.704H143.472C144.624 64.1173 146.416 66.3147 148.848 67.296C149.253 67.4667 149.221 67.8507 148.752 68.448C148.283 69.0453 147.856 69.2427 147.472 69.04C145.179 67.984 143.371 65.824 142.048 62.56C141.045 65.6533 139.259 67.808 136.688 69.024C136.272 69.248 135.824 69.088 135.344 68.544C134.875 68.0107 134.853 67.6427 135.28 67.44C137.979 66.256 139.701 64.0107 140.448 60.704H135.6C135.163 60.704 134.944 60.3787 134.944 59.728C134.944 59.0667 135.163 58.736 135.6 58.736H140.768C140.853 57.968 140.901 56.848 140.912 55.376C140.923 54.768 141.275 54.464 141.968 54.464C142.661 54.464 143.003 54.7413 142.992 55.296C142.981 56.608 142.923 57.7547 142.816 58.736H148.448C148.885 58.736 149.104 59.0667 149.104 59.728ZM151.056 65.904C151.109 65.2747 151.371 64.9973 151.84 65.072C152.309 65.136 152.512 65.472 152.448 66.08C152.363 67.232 152.208 68.112 151.984 68.72C151.888 69.0507 151.611 69.136 151.152 68.976C150.693 68.816 150.517 68.5813 150.624 68.272C150.848 67.76 150.992 66.9707 151.056 65.904ZM152.896 66.048C152.821 65.4613 152.997 65.1307 153.424 65.056C153.851 64.9707 154.107 65.2053 154.192 65.76C154.331 66.528 154.395 67.04 154.384 67.296C154.405 67.712 154.304 68.0373 154.08 68.272C153.867 68.5173 153.536 68.5547 153.088 68.384L153.072 68.208L152.896 66.048ZM154.464 65.488C154.357 65.072 154.501 64.8 154.896 64.672C155.291 64.544 155.547 64.688 155.664 65.104L156.176 66.816C156.293 67.232 156.139 67.5147 155.712 67.664C155.296 67.8027 155.035 67.664 154.928 67.248L154.464 65.488ZM154.512 61.616C154.395 61.2 154.549 60.9387 154.976 60.832C155.403 60.7147 155.701 60.944 155.872 61.52C156.139 62.2987 156.299 62.9547 156.352 63.488C156.416 63.8293 156.224 64.0693 155.776 64.208C155.328 64.3467 155.072 64.1973 155.008 63.76L154.992 63.712C152.773 64.032 151.563 64.2507 151.36 64.368C151.189 64.4213 151.008 64.1867 150.816 63.664C150.635 63.1307 150.645 62.816 150.848 62.72C151.115 62.72 151.733 61.9573 152.704 60.432C151.819 60.528 151.381 60.5973 151.392 60.64C151.115 60.7253 150.885 60.512 150.704 60C150.533 59.4773 150.587 59.1147 150.864 58.912C150.821 59.0507 150.96 58.8587 151.28 58.336C151.483 58.0693 151.765 57.5467 152.128 56.768C152.501 55.9787 152.736 55.408 152.832 55.056C152.971 54.6507 153.312 54.5547 153.856 54.768C154.4 54.9707 154.587 55.2747 154.416 55.68C154.053 56.5867 153.563 57.52 152.944 58.48C152.773 58.7467 152.827 58.8747 153.104 58.864L153.648 58.816L154.368 57.328C154.549 56.9333 154.891 56.8853 155.392 57.184C155.893 57.472 156.043 57.8133 155.84 58.208C155.211 59.488 154.389 60.768 153.376 62.048C153.184 62.2933 153.227 62.4 153.504 62.368L154.688 62.224L154.512 61.616ZM159.472 66.416C158.96 66.416 158.704 66.16 158.704 65.648V62.48C158.704 62.0427 158.859 61.824 159.168 61.824C159.488 61.824 159.648 62.0427 159.648 62.48V64.592C159.648 64.8693 159.84 65.008 160.224 65.008V61.104H159.168C158.731 61.104 158.512 60.8693 158.512 60.4C158.512 59.9307 158.731 59.696 159.168 59.696H160.976L161.44 57.504C161.525 57.0773 161.787 56.9173 162.224 57.024C162.672 57.1307 162.837 57.392 162.72 57.808L162.176 59.696H162.32C162.757 59.696 162.976 59.9307 162.976 60.4C162.976 60.8693 162.757 61.104 162.32 61.104H161.264V65.008H161.856V62.48C161.856 62.0427 162.011 61.824 162.32 61.824C162.64 61.824 162.8 62.0427 162.8 62.48V65.648C162.8 66.16 162.544 66.416 162.032 66.416H159.472ZM158.848 57.84C158.741 57.424 158.864 57.1733 159.216 57.088C159.579 56.992 159.824 57.152 159.952 57.568L160.272 58.592C160.389 59.008 160.256 59.2747 159.872 59.392C159.499 59.4987 159.259 59.344 159.152 58.928L158.848 57.84ZM164.192 55.008C164.704 55.008 164.96 55.264 164.96 55.776V67.408C164.96 67.856 164.907 68.1973 164.8 68.432C164.704 68.6773 164.528 68.864 164.272 68.992C163.888 69.1947 163.36 69.2853 162.688 69.264C162.091 69.2853 161.707 69.0293 161.536 68.496C161.365 67.9733 161.552 67.7227 162.096 67.744C162.384 67.7547 162.704 67.7493 163.056 67.728C163.28 67.728 163.392 67.6213 163.392 67.408V57.088C163.392 56.8107 163.253 56.672 162.976 56.672H158.512C158.235 56.672 158.096 56.8107 158.096 57.088V68.736C158.096 69.1733 157.835 69.392 157.312 69.392C156.8 69.392 156.544 69.1733 156.544 68.736V55.776C156.544 55.264 156.8 55.008 157.312 55.008H164.192ZM174.048 63.888C173.472 63.888 173.168 63.6373 173.136 63.136L172.72 56.816C172.688 56.2933 172.933 56.032 173.456 56.032H174.544C175.067 56.032 175.312 56.288 175.28 56.8L174.864 63.12C174.832 63.632 174.56 63.888 174.048 63.888ZM175.008 67.76C174.741 68.016 174.405 68.144 174 68.144C173.595 68.144 173.259 68.016 172.992 67.76C172.725 67.4933 172.592 67.152 172.592 66.736C172.592 66.32 172.725 65.9787 172.992 65.712C173.259 65.4453 173.595 65.312 174 65.312C174.405 65.312 174.741 65.4453 175.008 65.712C175.275 65.9787 175.408 66.32 175.408 66.736C175.408 67.152 175.275 67.4933 175.008 67.76Z" fill="black"/>
</svg>
