<svg width="200" height="90" viewBox="0 0 200 90" fill="none" xmlns="http://www.w3.org/2000/svg">
<g clip-path="url(#clip0_1260_4415)">
<rect width="200" height="90" fill="#B8F9D9"/>
<path fill-rule="evenodd" clip-rule="evenodd" d="M-6.18027 85.5257C-5.5206 81.3514 -9.94765 77.2571 -7.65473 73.2393C-4.94813 68.4966 -1.65241 61.9915 7.77154 61.0783C17.9972 60.0873 23.5998 68.8258 33.9785 69.2048C45.8176 69.6371 56.5881 60.196 66.8872 63.2371C76.2425 65.9996 70.121 74.0119 68.9752 79.5387C68.1676 83.4341 61.5364 86.4306 61.2669 90.3457C60.8502 96.3973 75.7689 103.853 67.0229 107.895C58.3557 111.9 45.7383 103.802 34.2527 102.83C27.3162 102.243 20.5655 103.925 13.6182 103.373C4.65786 102.66 -7.2514 103.227 -11.7526 99.1698C-16.3208 95.0519 -6.92748 90.2539 -6.18027 85.5257Z" fill="#49CCBD"/>
<path fill-rule="evenodd" clip-rule="evenodd" d="M28.4743 10.5302C32.6486 10.8717 36.7429 8.58004 40.7607 9.76696C45.5034 11.168 52.0085 12.874 52.9217 17.7523C53.9127 23.0456 45.1742 25.9458 44.7952 31.3183C44.3629 37.4467 53.804 43.0221 50.7629 48.3534C48.0004 53.1961 39.9881 50.0274 34.4613 49.4342C30.5659 49.0162 27.5694 45.5836 23.6543 45.444C17.6027 45.2284 10.1469 52.9509 6.10508 48.4236C2.09968 43.9371 10.1975 37.4057 11.1701 31.4602C11.7575 27.8695 10.0747 24.3751 10.6274 20.7788C11.3402 16.1405 10.7727 9.97575 14.8302 7.64571C18.9481 5.281 23.7461 10.1434 28.4743 10.5302Z" fill="#3D7619"/>
<path fill-rule="evenodd" clip-rule="evenodd" d="M173.474 4.53021C177.649 4.87169 181.743 2.58004 185.761 3.76696C190.503 5.16803 197.008 6.87405 197.922 11.7523C198.913 17.0456 190.174 19.9458 189.795 25.3183C189.363 31.4467 198.804 37.0221 195.763 42.3534C193 47.1961 184.988 44.0274 179.461 43.4342C175.566 43.0162 172.569 39.5836 168.654 39.444C162.603 39.2284 155.147 46.9509 151.105 42.4236C147.1 37.9371 155.198 31.4057 156.17 25.4602C156.757 21.8695 155.075 18.3751 155.627 14.7788C156.34 10.1405 155.773 3.97575 159.83 1.64571C163.948 -0.719004 168.746 4.14342 173.474 4.53021Z" fill="#6EDDA4"/>
<path fill-rule="evenodd" clip-rule="evenodd" d="M117.063 7.20494C131.49 7.9797 144.155 11.9054 154.996 17.5775C166.733 23.7188 176.896 30.8598 179.688 39.9711C183.097 51.0949 184.354 63.7453 171.749 72.2549C158.691 81.0707 136.857 81.4742 117.063 82.2497C95.2362 83.1048 71.8992 84.7511 54.6033 76.8446C35.6156 68.1646 20.8565 53.9771 24.5773 39.9711C28.0889 26.7526 52.1053 19.9805 71.5388 13.0955C85.3864 8.18958 100.98 6.34119 117.063 7.20494Z" fill="#87EDBF"/>
<path fill-rule="evenodd" clip-rule="evenodd" d="M176.618 58.8089C175.515 57.8435 174.393 55.7656 173.735 53.2528C172.775 49.59 173.162 46.3904 174.599 46.1062C175.901 45.8487 177.619 48.0727 178.644 51.217C179.76 49.0059 181.059 47.5961 181.934 47.8216C183.113 48.1259 183.07 51.2917 181.839 54.8927C180.608 58.4936 178.653 61.1661 177.474 60.8618C176.923 60.7197 176.639 59.9529 176.618 58.8089Z" fill="#6ADFA6"/>
<path fill-rule="evenodd" clip-rule="evenodd" d="M176.618 58.8089C175.515 57.8435 174.393 55.7656 173.735 53.2528C172.775 49.59 173.162 46.3904 174.599 46.1062C175.901 45.8487 177.619 48.0727 178.644 51.217C179.76 49.0059 181.059 47.5961 181.934 47.8216C183.113 48.1259 183.07 51.2917 181.839 54.8927C180.608 58.4936 178.653 61.1661 177.474 60.8618C176.923 60.7197 176.639 59.9529 176.618 58.8089Z" fill="url(#paint0_radial_1260_4415)" fill-opacity="0.2"/>
<path d="M161.232 70.5835C161.232 78.5212 168.739 84.956 178 84.956C187.26 84.956 194.768 78.5212 194.768 70.5835C194.768 62.6457 187.26 56.2109 178 56.2109C168.739 56.2109 161.232 62.6457 161.232 70.5835Z" fill="#6ADFA6"/>
<path d="M172.199 73.4141C172.199 73.4141 172.948 77.897 178.111 77.897C183.274 77.897 183.777 73.4141 183.777 73.4141" stroke="black" stroke-width="2" stroke-linecap="round" stroke-linejoin="round"/>
<path d="M171.281 65.0156L175.135 66.6423L171.281 68.7218" stroke="black" stroke-width="2" stroke-linecap="round" stroke-linejoin="round"/>
<path d="M183.775 65.0156L179.922 66.6423L183.775 68.7218" stroke="black" stroke-width="2" stroke-linecap="round" stroke-linejoin="round"/>
<path d="M88.8777 36.9181C88.731 36.9186 88.6141 36.8691 88.5271 36.7694C88.4401 36.6764 88.3963 36.5632 88.3958 36.4299C88.3953 36.2965 88.4383 36.1831 88.5246 36.0894C88.6109 35.9957 88.7274 35.9486 88.8741 35.9481L89.6341 35.9453L89.6321 35.4053C89.6302 34.892 89.7388 34.5282 89.958 34.3141C90.1839 34.0999 90.5902 33.9917 91.1768 33.9896L94.8168 33.9761C95.3968 33.9739 95.8005 34.0791 96.028 34.2916C96.2554 34.5041 96.3701 34.867 96.372 35.3803L96.374 35.9203L97.174 35.9173C97.3207 35.9168 97.4342 35.963 97.5145 36.0561C97.6015 36.1491 97.6453 36.2623 97.6458 36.3956C97.6463 36.5289 97.6034 36.6424 97.517 36.7361C97.4374 36.8364 97.3243 36.8868 97.1776 36.8873L88.8777 36.9181ZM89.0376 31.5075C88.8979 31.5747 88.7512 31.5919 88.5978 31.5591C88.4443 31.5263 88.324 31.4334 88.2368 31.2804C88.1563 31.1474 88.1358 31.0108 88.1752 30.8707C88.2147 30.7238 88.3209 30.6068 88.4939 30.5195C89.1528 30.2037 89.7748 29.8514 90.36 29.4626C90.9452 29.067 91.4538 28.6852 91.8858 28.3169C92.2712 27.9821 92.6306 27.8175 92.964 27.8229C93.304 27.8283 93.6679 27.9869 94.0557 28.2988C94.5305 28.6771 95.0652 29.0451 95.6598 29.4029C96.2612 29.7607 96.8657 30.0818 97.4734 30.3662C97.627 30.4323 97.7307 30.5386 97.7846 30.685C97.8385 30.8315 97.829 30.9782 97.7562 31.1251C97.6702 31.2855 97.5406 31.3893 97.3674 31.4366C97.2009 31.4839 97.0408 31.4678 96.8872 31.3884C96.6 31.2428 96.3027 31.0839 95.9954 30.9117C95.6881 30.7328 95.3874 30.5506 95.0934 30.365C95.1002 30.385 95.1036 30.4216 95.1038 30.475C95.1043 30.6083 95.0581 30.7218 94.9651 30.8155C94.8721 30.9025 94.7556 30.9463 94.6156 30.9468L91.2956 30.9591C91.1489 30.9596 91.0288 30.9167 90.9351 30.8304C90.8414 30.7374 90.7943 30.6243 90.7938 30.491L90.7937 30.461C90.2152 30.8498 89.6298 31.1986 89.0376 31.5075ZM91.6054 33.618C91.2388 33.6193 90.952 33.5871 90.7451 33.5212C90.5448 33.4486 90.4044 33.3291 90.3237 33.1627C90.2431 32.9963 90.2023 32.7698 90.2012 32.4832C90.2001 32.1898 90.2393 31.963 90.3187 31.8027C90.3981 31.6358 90.5377 31.5186 90.7374 31.4512C90.9438 31.3837 91.2304 31.3493 91.597 31.348L94.357 31.3377C94.7237 31.3364 95.0071 31.3687 95.2074 31.4346C95.4143 31.5005 95.5581 31.6166 95.6387 31.783C95.7193 31.9427 95.7601 32.1692 95.7612 32.4626C95.7623 32.7492 95.7231 32.976 95.6437 33.143C95.5643 33.31 95.4214 33.4305 95.215 33.5046C95.0153 33.572 94.7321 33.6064 94.3654 33.6077L91.6054 33.618ZM91.7723 32.7773L94.1923 32.7684C94.3456 32.7678 94.4489 32.7508 94.5021 32.7172C94.5553 32.677 94.5817 32.5936 94.5812 32.4669C94.5808 32.3469 94.5538 32.2704 94.5003 32.2372C94.4469 32.1974 94.3435 32.1778 94.1901 32.1784L91.7701 32.1873C91.6235 32.1879 91.5202 32.2083 91.4604 32.2485C91.4072 32.282 91.3808 32.3588 91.3812 32.4788C91.3817 32.6055 91.4087 32.6887 91.4621 32.7285C91.5223 32.7616 91.6257 32.7779 91.7723 32.7773ZM91.4521 30.0085L94.542 29.9971C94.3348 29.8512 94.1343 29.7086 93.9405 29.5693C93.7466 29.4233 93.5627 29.2807 93.3889 29.1413C93.2217 29.0086 93.0815 28.9425 92.9681 28.9429C92.8548 28.9433 92.7184 29.0105 92.5589 29.1444C92.3994 29.2783 92.2266 29.419 92.0404 29.5663C91.8543 29.707 91.6582 29.8544 91.4521 30.0085ZM92.594 35.9343L93.424 35.9312L93.4202 34.9112L92.5903 34.9143L92.594 35.9343ZM94.434 35.9275L95.284 35.9243L95.2821 35.3943C95.2813 35.1877 95.2441 35.0545 95.1706 34.9948C95.097 34.935 94.9536 34.9056 94.7402 34.9064L94.4302 34.9075L94.434 35.9275ZM90.744 35.9412L91.584 35.9381L91.5803 34.9181L91.2803 34.9192C91.0669 34.92 90.9237 34.9505 90.8506 35.0108C90.7775 35.071 90.7413 35.2045 90.7421 35.4112L90.744 35.9412ZM102.138 36.9989C101.965 37.0463 101.812 37.0368 101.678 36.9707C101.544 36.9111 101.451 36.8015 101.397 36.6417C101.35 36.5019 101.359 36.3718 101.425 36.2516C101.498 36.1313 101.618 36.0475 101.784 36.0003C102.211 35.8787 102.57 35.7207 102.863 35.5263C103.155 35.3252 103.388 35.0776 103.56 34.7837L101.91 34.7898C101.763 34.7903 101.646 34.7441 101.559 34.6511C101.479 34.558 101.439 34.4482 101.438 34.3215C101.438 34.1882 101.477 34.078 101.557 33.9911C101.643 33.8974 101.76 33.8503 101.906 33.8498L103.906 33.8424C103.939 33.7022 103.959 33.5522 103.965 33.3922L103.885 33.3924C103.445 33.3941 103.098 33.3487 102.844 33.2563C102.597 33.1639 102.42 32.9979 102.312 32.7583C102.205 32.5187 102.15 32.1855 102.149 31.7589C102.147 31.2589 102.215 30.8886 102.355 30.6481C102.5 30.4076 102.756 30.2499 103.123 30.1753C103.116 30.1486 103.106 30.122 103.092 30.0954C103.086 30.0621 103.082 30.0287 103.082 29.9954L103.08 29.5354L102.01 29.5394C101.864 29.5399 101.747 29.4937 101.66 29.4007C101.58 29.3076 101.539 29.1978 101.539 29.0711C101.538 28.9378 101.578 28.8276 101.657 28.7407C101.744 28.647 101.86 28.5999 102.007 28.5994L103.077 28.5954L103.076 28.2554C103.075 28.0887 103.128 27.9585 103.234 27.8648C103.347 27.7644 103.477 27.7139 103.624 27.7134C103.77 27.7128 103.897 27.7624 104.004 27.862C104.111 27.9549 104.165 28.0847 104.166 28.2514L104.167 28.5914L104.967 28.5884L104.966 28.2484C104.965 28.0817 105.018 27.9515 105.124 27.8578C105.23 27.7574 105.357 27.707 105.504 27.7064C105.657 27.7058 105.787 27.7554 105.894 27.855C106.001 27.9479 106.055 28.0777 106.056 28.2444L106.057 28.5844L107.197 28.5801C107.344 28.5796 107.457 28.6258 107.537 28.7189C107.618 28.8052 107.658 28.9151 107.659 29.0484C107.659 29.1751 107.619 29.2852 107.54 29.3789C107.46 29.4725 107.347 29.5196 107.2 29.5201L106.06 29.5244L106.062 29.9844C106.062 30.0177 106.059 30.051 106.052 30.0844C106.046 30.1111 106.036 30.1411 106.023 30.1745C106.376 30.2465 106.624 30.4023 106.765 30.6418C106.912 30.8812 106.987 31.2476 106.989 31.7409C106.99 32.1676 106.938 32.5011 106.832 32.7415C106.727 32.9819 106.547 33.1492 106.294 33.2435C106.041 33.3378 105.691 33.3858 105.245 33.3874L105.075 33.388C105.068 33.4614 105.062 33.5381 105.056 33.6181C105.049 33.6915 105.039 33.7648 105.026 33.8382L107.246 33.83C107.393 33.8294 107.507 33.8757 107.587 33.9687C107.674 34.0551 107.718 34.1649 107.718 34.2982C107.719 34.4249 107.676 34.5351 107.589 34.6287C107.51 34.7224 107.396 34.7694 107.25 34.77L105.51 34.7764C105.751 35.0555 106.028 35.2912 106.342 35.4834C106.657 35.6755 106.994 35.8343 107.354 35.9596C107.528 36.019 107.645 36.1085 107.705 36.2283C107.766 36.3481 107.77 36.4814 107.717 36.6283C107.671 36.7751 107.574 36.8788 107.428 36.9393C107.281 37.0065 107.128 37.0138 106.968 36.961C106.521 36.8094 106.083 36.5743 105.655 36.2559C105.227 35.9442 104.876 35.5921 104.601 35.1998C104.151 36.0348 103.33 36.6345 102.138 36.9989ZM100.318 37.0457C100.172 37.0462 100.048 37 99.9477 36.9071C99.8473 36.8141 99.7969 36.6876 99.7963 36.5276L99.7836 33.1176C99.6778 33.3447 99.5686 33.5618 99.4561 33.7689C99.3501 33.9693 99.2508 34.143 99.158 34.29C99.0785 34.4169 98.9654 34.5007 98.8189 34.5412C98.6791 34.5818 98.5423 34.5656 98.4087 34.4928C98.2818 34.4199 98.2014 34.3135 98.1675 34.1736C98.1337 34.0271 98.1599 33.897 98.2461 33.7834C98.3654 33.6029 98.4979 33.3791 98.6436 33.1119C98.796 32.8446 98.9449 32.5641 99.0905 32.2702C99.2361 31.9697 99.3683 31.6825 99.4873 31.4087C99.613 31.1349 99.7088 30.9012 99.7747 30.7077L98.7947 30.7113C98.6414 30.7119 98.5179 30.6623 98.4242 30.5627C98.3305 30.463 98.2834 30.3432 98.2828 30.2032C98.2823 30.0632 98.3285 29.9464 98.4215 29.8527C98.5145 29.7523 98.6376 29.7019 98.791 29.7013L99.771 29.6977L99.7657 28.2777C99.7651 28.111 99.8146 27.9808 99.9143 27.8871C100.014 27.7934 100.137 27.7463 100.284 27.7458C100.437 27.7452 100.561 27.7914 100.654 27.8844C100.755 27.9773 100.805 28.1072 100.806 28.2738L100.811 29.6938L101.511 29.6912C101.664 29.6907 101.784 29.7402 101.872 29.8399C101.965 29.9329 102.012 30.0494 102.013 30.1894C102.013 30.3294 101.967 30.4495 101.874 30.5499C101.788 30.6502 101.668 30.7006 101.515 30.7012L100.815 30.7038L100.817 31.2438C100.91 31.3501 101.031 31.493 101.178 31.6725C101.332 31.8519 101.483 32.028 101.63 32.2008C101.778 32.3669 101.898 32.4965 101.992 32.5895C102.092 32.6958 102.143 32.8222 102.143 32.9689C102.144 33.1156 102.087 33.2391 101.974 33.3395C101.868 33.4399 101.738 33.4837 101.585 33.471C101.438 33.4582 101.318 33.392 101.224 33.2723C101.177 33.2125 101.117 33.136 101.043 33.043C100.976 32.9499 100.903 32.8502 100.822 32.7438L100.836 36.5238C100.837 36.6838 100.787 36.8106 100.688 36.9043C100.595 36.998 100.472 37.0451 100.318 37.0457ZM104.032 32.5819L105.112 32.5779C105.378 32.5769 105.565 32.5495 105.671 32.4958C105.778 32.4421 105.841 32.3119 105.86 32.1051L103.27 32.1147C103.297 32.3213 103.365 32.451 103.471 32.504C103.578 32.5569 103.765 32.5829 104.032 32.5819ZM103.267 31.3747L105.857 31.3651C105.83 31.1719 105.759 31.0522 105.646 31.0059C105.539 30.953 105.359 30.927 105.106 30.9279L104.026 30.9319C103.766 30.9329 103.582 30.9602 103.476 31.0139C103.369 31.061 103.3 31.1813 103.267 31.3747ZM104.153 30.1214L104.993 30.1183C104.979 30.065 104.972 30.0217 104.972 29.9884L104.97 29.5284L104.17 29.5314L104.172 29.9914C104.172 30.0247 104.166 30.0681 104.153 30.1214ZM108.927 36.7038C108.787 36.7043 108.667 36.6547 108.566 36.5551C108.466 36.4555 108.416 36.3357 108.415 36.1957C108.415 36.0557 108.464 35.9355 108.564 35.8351C108.663 35.7348 108.783 35.6843 108.923 35.6838L112.413 35.6709L112.41 34.8309L110.23 34.8389C110.09 34.8395 109.97 34.7932 109.87 34.7003C109.776 34.6006 109.729 34.4808 109.728 34.3408C109.728 34.2008 109.774 34.0806 109.867 33.9803C109.967 33.8799 110.086 33.8295 110.226 33.8289L112.406 33.8209L112.405 33.3309C112.404 33.2642 112.414 33.2008 112.434 33.1408C112.328 33.2945 112.175 33.3717 111.975 33.3725C111.821 33.373 111.688 33.3235 111.574 33.2239C111.467 33.1177 111.413 32.9779 111.413 32.8045L111.406 31.0746L110.666 31.0773C110.615 31.5908 110.493 32.0213 110.301 32.3687C110.109 32.716 109.837 33.0371 109.485 33.3317C109.352 33.4455 109.198 33.5028 109.025 33.5034C108.852 33.504 108.708 33.4312 108.594 33.285C108.494 33.1654 108.45 33.0355 108.463 32.8955C108.476 32.7488 108.545 32.6285 108.672 32.5347C108.944 32.3337 109.15 32.1229 109.289 31.9024C109.435 31.6819 109.531 31.4082 109.576 31.0813L108.866 31.084C108.713 31.0845 108.589 31.035 108.496 30.9353C108.409 30.8357 108.365 30.7158 108.364 30.5758C108.364 30.4425 108.407 30.3257 108.493 30.2253C108.586 30.125 108.709 30.0745 108.862 30.074L109.622 30.0712L109.619 29.1212L109.089 29.1231C108.936 29.1237 108.815 29.0775 108.728 28.9845C108.641 28.8848 108.598 28.7683 108.597 28.6349C108.597 28.5016 108.64 28.3881 108.726 28.2945C108.812 28.1941 108.932 28.1437 109.085 28.1431L112.975 28.1287C113.129 28.1281 113.249 28.1777 113.336 28.2774C113.423 28.3704 113.467 28.4836 113.467 28.6169C113.468 28.7502 113.425 28.8671 113.338 28.9674C113.252 29.061 113.132 29.1081 112.979 29.1087L112.519 29.1104L112.522 30.0604L113.162 30.058C113.316 30.0575 113.436 30.107 113.523 30.2067C113.617 30.3064 113.664 30.4228 113.664 30.5562C113.665 30.6962 113.619 30.8164 113.526 30.9167C113.439 31.017 113.319 31.0675 113.166 31.068L112.526 31.0704L112.533 32.8004C112.533 32.8671 112.523 32.9271 112.503 32.9805C112.616 32.8134 112.786 32.7295 113.012 32.7286C113.179 32.728 113.319 32.7841 113.433 32.8971C113.553 33.0033 113.614 33.1464 113.615 33.3264L113.616 33.8164L115.736 33.8085C115.876 33.808 115.996 33.8576 116.097 33.9572C116.197 34.0568 116.248 34.1766 116.248 34.3166C116.249 34.4566 116.199 34.5768 116.1 34.6772C116 34.7709 115.88 34.818 115.74 34.8185L113.62 34.8264L113.623 35.6664L117.073 35.6536C117.213 35.6531 117.333 35.7026 117.434 35.8022C117.534 35.9019 117.585 36.0217 117.585 36.1617C117.586 36.3017 117.536 36.4219 117.436 36.5222C117.337 36.6226 117.217 36.6731 117.077 36.6736L108.927 36.7038ZM115.525 33.3993C115.358 33.3999 115.218 33.3471 115.104 33.2409C114.99 33.1346 114.93 32.9982 114.923 32.8315C114.915 32.6649 114.955 32.5214 115.041 32.4011C115.127 32.2808 115.26 32.2136 115.44 32.1996C115.667 32.1788 115.813 32.1349 115.88 32.068C115.953 32.001 115.989 31.8542 115.988 31.6276L115.976 28.2876C115.975 28.1143 116.028 27.9774 116.134 27.877C116.247 27.7699 116.38 27.7161 116.534 27.7155C116.694 27.7149 116.827 27.7678 116.934 27.874C117.048 27.9736 117.105 28.1101 117.106 28.2834L117.119 31.8534C117.121 32.42 117.003 32.8205 116.764 33.0547C116.531 33.2822 116.118 33.3971 115.525 33.3993ZM114.441 32.2433C114.294 32.2439 114.164 32.1943 114.05 32.0948C113.943 31.9952 113.889 31.862 113.888 31.6954L113.878 28.8154C113.877 28.642 113.93 28.5052 114.036 28.4048C114.149 28.3044 114.279 28.2539 114.426 28.2533C114.579 28.2528 114.709 28.3023 114.816 28.4019C114.93 28.5015 114.987 28.6379 114.988 28.8113L114.998 31.6912C114.999 31.8579 114.943 31.9915 114.83 32.0919C114.724 32.1923 114.594 32.2427 114.441 32.2433ZM110.702 30.0672L111.402 30.0646L111.399 29.1146L110.699 29.1172L110.702 30.0672Z" fill="#1CB76B"/>
<path d="M72.9161 58.8683C71.7961 58.8725 70.8359 58.8387 70.0357 58.767C69.2461 58.6953 68.5682 58.5538 68.0021 58.3426C67.4467 58.1419 66.9656 57.8557 66.5589 57.4839C66.4206 57.5911 66.2557 57.709 66.0642 57.8377C65.8834 57.9771 65.7079 58.1057 65.5376 58.2237C65.3781 58.3523 65.2505 58.4488 65.1547 58.5131C64.9525 58.6525 64.7181 58.7067 64.4513 58.6757C64.1952 58.6447 63.9974 58.5227 63.8579 58.3099C63.7291 58.0971 63.691 57.8732 63.7434 57.6383C63.8065 57.3928 63.9445 57.2109 64.1574 57.0928C64.3171 57.0069 64.53 56.8887 64.7961 56.7384C65.0622 56.5881 65.3124 56.4485 65.5466 56.3196L65.539 54.2717C65.5381 54.0263 65.4948 53.8611 65.4091 53.7761C65.3341 53.6804 65.1686 53.633 64.9126 53.634L64.4166 53.6358C64.1713 53.6367 63.9736 53.5574 63.8237 53.398C63.6844 53.2279 63.6144 53.0308 63.6135 52.8068C63.6127 52.5828 63.6813 52.3905 63.8194 52.23C63.9681 52.0695 64.1652 51.9887 64.4105 51.9878L65.5305 51.9837C66.6185 51.9796 67.1645 52.5163 67.1685 53.5936L67.1778 56.1056C67.3597 56.2756 67.547 56.4296 67.7395 56.5675C67.9427 56.7054 68.1671 56.8166 68.4127 56.901C68.3374 56.72 68.3314 56.5493 68.3948 56.3891C68.4689 56.2181 68.6071 56.095 68.8095 56.0195C69.7999 55.5999 70.5816 54.9623 71.1544 54.1068L68.0984 54.1182C67.9491 54.1187 67.8209 54.0659 67.7138 53.9596C67.6067 53.8427 67.5529 53.7095 67.5523 53.5602C67.5518 53.4109 67.6046 53.2773 67.7109 53.1596C67.8171 53.0419 67.9449 52.9827 68.0942 52.9822L69.5342 52.9768C69.3633 52.9241 69.2403 52.8233 69.1651 52.6742C69.1005 52.5251 69.0946 52.3758 69.1474 52.2263C69.2108 52.066 69.3171 51.9536 69.4662 51.8891C69.7111 51.7922 69.9614 51.6739 70.2169 51.5343C70.483 51.384 70.7277 51.2124 70.951 51.0196L69.831 51.0237C69.575 51.0247 69.4044 51.0626 69.3194 51.1376C69.245 51.2019 69.2083 51.3727 69.2093 51.65C69.2102 51.8847 69.1362 52.0663 68.9873 52.1949C68.8491 52.3234 68.6733 52.388 68.46 52.3888C68.2573 52.3896 68.0811 52.3262 67.9313 52.1988C67.7815 52.0713 67.7062 51.8903 67.7053 51.6556C67.703 51.0476 67.8188 50.6258 68.0526 50.3903C68.297 50.1441 68.7499 50.0197 69.4112 50.0173L71.8912 50.0081L71.8897 49.6081L71.0257 49.6113C70.2151 49.6143 69.6439 49.4777 69.3122 49.2016C68.9911 48.9148 68.8292 48.3981 68.8265 47.6514L68.824 46.9954C68.8213 46.2488 68.9793 45.7308 69.2983 45.4417C69.6278 45.1418 70.1979 44.9903 71.0086 44.9873L71.2646 44.9864C71.2963 44.9009 71.328 44.8155 71.3596 44.73C71.3913 44.6446 71.423 44.5644 71.4548 44.4897C71.5711 44.2332 71.7305 44.0673 71.9329 43.9919C72.1459 43.9058 72.3752 43.8942 72.6208 43.9573C72.8663 44.0098 73.0428 44.1424 73.1503 44.3554C73.2577 44.5576 73.2585 44.7656 73.1526 44.9794L74.5446 44.9742C75.3659 44.9712 75.9371 45.1184 76.2582 45.4159C76.59 45.7026 76.7572 46.2193 76.76 46.966L76.7624 47.622C76.7652 48.3687 76.6018 48.8866 76.2722 49.1758C75.9532 49.4544 75.383 49.5951 74.5617 49.5982L73.6337 49.6016L73.6352 50.0016L76.2432 49.9919C76.9045 49.9895 77.353 50.1105 77.5885 50.355C77.8347 50.5887 77.959 51.0149 77.9613 51.6336C77.9622 51.8683 77.8882 52.0499 77.7393 52.1784C77.6011 52.3069 77.4253 52.3716 77.212 52.3724C76.988 52.3732 76.8118 52.3099 76.6833 52.1823C76.5452 52.3428 76.3696 52.4555 76.1566 52.5203C75.9434 52.5744 75.6395 52.6022 75.2449 52.6037L74.7489 52.6055C74.1942 52.6076 73.7939 52.5237 73.5479 52.354C73.3019 52.1735 73.1781 51.87 73.1765 51.4433L73.1749 51.0113L72.3909 51.0142C72.1364 51.4205 71.8125 51.7844 71.419 52.1058C71.0361 52.4166 70.5891 52.6903 70.078 52.9268C70.0461 52.9589 70.0089 52.9751 69.9662 52.9752L71.8542 52.9682L71.8525 52.5042C71.8516 52.2696 71.9256 52.088 72.0744 51.9594C72.234 51.8308 72.4204 51.7661 72.6337 51.7653C72.8471 51.7645 73.0286 51.8279 73.1784 51.9553C73.3282 52.0828 73.4036 52.2638 73.4045 52.4985L73.4062 52.9625L77.6141 52.9469C77.7635 52.9463 77.8917 53.0045 77.9988 53.1215C78.1059 53.2384 78.1597 53.3715 78.1603 53.5209C78.1608 53.6702 78.108 53.8037 78.0018 53.9215C77.8955 54.0285 77.7677 54.0823 77.6184 54.0829L72.7704 54.1008C72.7493 54.1649 72.7229 54.229 72.6911 54.2931C72.6593 54.3573 72.6276 54.4214 72.5958 54.4855L74.8038 54.4773C75.3051 54.4755 75.6629 54.6021 75.8772 54.8573C76.1022 55.1125 76.1515 55.475 76.0252 55.9448C75.92 56.3399 75.7718 56.6444 75.5806 56.8584C75.4001 57.0725 75.1553 57.2227 74.8463 57.3092C75.3795 57.2859 75.8915 57.268 76.3821 57.2555C76.8727 57.2323 77.2673 57.2095 77.5659 57.1871C77.8432 57.1754 78.0674 57.2439 78.2386 57.3926C78.4205 57.5306 78.5119 57.7223 78.5128 57.9676C78.5137 58.2129 78.4398 58.4159 78.291 58.5764C78.1529 58.7369 77.9239 58.8178 77.6039 58.819C77.2946 58.8201 76.9266 58.8215 76.4999 58.8231C76.0733 58.8353 75.6307 58.8423 75.172 58.844C74.724 58.8563 74.2974 58.8632 73.8921 58.8647C73.4974 58.8662 73.1721 58.8674 72.9161 58.8683ZM66.5848 47.1957C66.3815 47.0471 66.1302 46.8774 65.8309 46.6865C65.5315 46.4956 65.2642 46.3419 65.0291 46.2255C64.8581 46.1301 64.7456 45.9812 64.6915 45.7787C64.6374 45.5763 64.6634 45.3842 64.7694 45.2024C64.8753 45.01 65.0348 44.8761 65.2479 44.8007C65.4716 44.7252 65.685 44.7404 65.888 44.8463C66.1018 44.9522 66.3637 45.1005 66.6737 45.2914C66.9944 45.4715 67.2563 45.6252 67.4594 45.7525C67.6519 45.8798 67.7646 46.0607 67.7974 46.2952C67.8409 46.5191 67.8043 46.7219 67.6877 46.9036C67.5711 47.0961 67.4009 47.2247 67.1771 47.2895C66.964 47.3543 66.7666 47.3231 66.5848 47.1957ZM65.9245 50.3662C65.7213 50.2176 65.4647 50.0532 65.1547 49.873C64.8553 49.6822 64.5934 49.5338 64.369 49.428C64.1873 49.3326 64.0694 49.1837 64.0154 48.9813C63.9719 48.7788 63.9979 48.5867 64.0932 48.405C64.1992 48.2126 64.3587 48.0787 64.5717 48.0032C64.7955 47.9277 65.0088 47.9376 65.2118 48.0328C65.4256 48.1387 65.6874 48.2817 65.9974 48.4619C66.3181 48.6421 66.58 48.7958 66.7832 48.923C66.9863 49.0396 67.1042 49.2151 67.1371 49.4497C67.1806 49.6735 67.144 49.8817 67.0274 50.0741C66.9108 50.2665 66.7406 50.3952 66.5169 50.46C66.3038 50.5248 66.1063 50.4935 65.9245 50.3662ZM72.9104 57.3484L72.9584 57.3482C72.7874 57.2421 72.6907 57.0665 72.6685 56.8212C72.6571 56.64 72.7152 56.4851 72.8428 56.3566C72.9809 56.2281 73.146 56.1635 73.338 56.1628C73.7007 56.1614 73.946 56.1445 74.0739 56.112C74.2017 56.0796 74.2867 55.9939 74.3289 55.8551C74.3817 55.7162 74.3814 55.6256 74.3279 55.5831C74.2744 55.5299 74.1676 55.5037 74.0076 55.5043L71.8956 55.5121C71.3222 56.2076 70.6043 56.7756 69.7419 57.2161C70.1474 57.2679 70.6062 57.3036 71.1183 57.323C71.6411 57.3424 72.2384 57.3508 72.9104 57.3484ZM70.5219 47.4851L75.0498 47.4684L75.0485 47.1004L70.5205 47.1171L70.5219 47.4851ZM71.6143 48.6811L73.9823 48.6723C74.3129 48.6711 74.5529 48.6489 74.702 48.6056C74.8512 48.5624 74.9521 48.4554 75.0048 48.2845L70.5729 48.301C70.6268 48.4714 70.7286 48.5777 70.8781 48.6198C71.0382 48.6619 71.2836 48.6823 71.6143 48.6811ZM70.5815 46.3009L74.9974 46.2845C74.9435 46.1141 74.8364 46.0131 74.6763 45.9817C74.5268 45.9396 74.2921 45.9192 73.9721 45.9203L71.6041 45.9291C71.2734 45.9303 71.0335 45.9526 70.8843 45.9958C70.7351 46.0283 70.6342 46.13 70.5815 46.3009ZM75.065 51.5643C75.2783 51.5635 75.4223 51.547 75.4968 51.5147C75.582 51.4717 75.6671 51.3968 75.752 51.2898C75.8688 51.14 76.0445 51.0647 76.2792 51.0638C76.1937 51.0215 76.0443 51.0007 75.8309 51.0015L74.4549 51.0066L74.4554 51.1346C74.4561 51.3159 74.4938 51.4331 74.5687 51.4862C74.6436 51.5392 74.809 51.5653 75.065 51.5643ZM90.4026 58.4355C89.5492 58.4387 88.8769 58.3452 88.3855 58.155C87.8942 57.9755 87.5464 57.6621 87.342 57.2149C87.1483 56.7569 87.05 56.1333 87.0471 55.3439L87.0195 47.888C87.0166 47.12 87.1104 46.5116 87.3007 46.0629C87.5017 45.6035 87.8471 45.2769 88.3371 45.0831C88.827 44.8786 89.4986 44.7748 90.3519 44.7716L93.5199 44.7599C93.7759 44.7589 93.9789 44.8435 94.1289 45.0136C94.2788 45.1837 94.3542 45.3861 94.3551 45.6208C94.3559 45.8448 94.282 46.0477 94.1334 46.2296C93.9847 46.4008 93.7823 46.4869 93.5263 46.4879L90.5343 46.499C90.065 46.5007 89.7078 46.5393 89.4628 46.6149C89.2177 46.6798 89.0528 46.8191 88.9683 47.0328C88.8837 47.2357 88.8422 47.5452 88.8437 47.9612L88.8464 48.6812L91.4064 48.6717C92.1637 48.6689 92.703 48.8323 93.0242 49.1617C93.3454 49.4806 93.5074 50.0186 93.5102 50.776L93.5154 52.1839C93.5182 52.9413 93.3603 53.4859 93.0415 53.8177C92.7227 54.1389 92.1846 54.3009 91.4273 54.3037L88.8673 54.3132L88.8706 55.2092C88.8722 55.6252 88.916 55.9397 89.0021 56.1527C89.0882 56.3657 89.2541 56.5144 89.4998 56.5989C89.7454 56.6726 90.1028 56.7086 90.5722 56.7069L93.7081 56.6953C93.9641 56.6943 94.1618 56.7842 94.3012 56.9651C94.4511 57.1352 94.5265 57.3322 94.5273 57.5562C94.5282 57.7909 94.4543 57.9938 94.3056 58.1651C94.1676 58.3362 93.9706 58.4223 93.7146 58.4232L90.4026 58.4355ZM80.595 58.5679C80.3286 58.6435 80.0885 58.6124 79.8746 58.4745C79.6715 58.3366 79.5374 58.1451 79.4725 57.9C79.4075 57.6336 79.4387 57.4042 79.566 57.2117C79.6933 57.0192 79.8901 56.8905 80.1565 56.8255L80.4763 56.7603L80.4579 51.7843C80.4569 51.539 80.5309 51.3467 80.6797 51.2075C80.8392 51.0576 81.0309 50.9822 81.2549 50.9814C81.4682 50.9806 81.6552 51.0546 81.8157 51.2033C81.9762 51.3414 82.0569 51.5331 82.0578 51.7784L82.0749 56.3704C82.1921 56.3379 82.3093 56.3055 82.4265 56.2731C82.5544 56.2406 82.6823 56.2081 82.8101 56.1756L82.7878 50.1597C82.2011 50.1299 81.7367 50.0303 81.3947 49.8609C81.0634 49.6807 80.8223 49.399 80.6716 49.0155C80.5315 48.632 80.4602 48.1096 80.4578 47.4483C80.4551 46.723 80.5384 46.1627 80.7076 45.7674C80.8768 45.3721 81.1691 45.099 81.5845 44.9481C82.0106 44.7972 82.5864 44.7204 83.3117 44.7177C84.0477 44.715 84.624 44.7875 85.0405 44.9353C85.4571 45.0831 85.7514 45.354 85.9235 45.748C86.0956 46.1421 86.1831 46.7017 86.1857 47.4271C86.189 48.3124 86.0581 48.9529 85.7929 49.3485C85.5383 49.7442 85.0699 49.9966 84.3877 50.1058L84.3937 51.7377L85.5297 51.7335C85.7964 51.7325 86.0047 51.8118 86.1546 51.9712C86.3151 52.12 86.3959 52.3277 86.3969 52.5943C86.3978 52.8503 86.3186 53.0586 86.1592 53.2192C86.0104 53.3691 85.8027 53.4445 85.536 53.4455L84.4001 53.4497L84.4085 55.7377C84.6536 55.6728 84.8774 55.608 85.0798 55.5432C85.2929 55.4784 85.4847 55.4244 85.6552 55.3811C85.879 55.3163 86.0924 55.3368 86.2955 55.4427C86.4985 55.5486 86.6271 55.7082 86.6812 55.9213C86.7354 56.1344 86.7148 56.3425 86.6195 56.5455C86.5243 56.7379 86.3701 56.8718 86.157 56.9472C85.8481 57.0444 85.4485 57.1685 84.9584 57.3197C84.479 57.4708 83.9675 57.622 83.4241 57.7734C82.8807 57.9354 82.3586 58.0867 81.8577 58.2272C81.3569 58.3677 80.936 58.4813 80.595 58.5679ZM88.8608 52.5692L90.8608 52.5618C91.1915 52.5606 91.4046 52.5064 91.5002 52.3994C91.6065 52.2924 91.6591 52.0948 91.658 51.8068L91.6556 51.1508C91.6545 50.8628 91.6005 50.6657 91.4934 50.5594C91.397 50.4531 91.1835 50.4006 90.8528 50.4018L88.8528 50.4092L88.8608 52.5692ZM83.3257 48.4937C83.8163 48.4919 84.1308 48.4267 84.269 48.2982C84.4072 48.1697 84.4754 47.8814 84.4738 47.4334C84.4721 46.9854 84.4017 46.6977 84.2626 46.5702C84.1234 46.4427 83.8085 46.3799 83.3179 46.3817C82.8379 46.3835 82.5234 46.4486 82.3746 46.5772C82.2364 46.7057 82.1681 46.994 82.1698 47.442C82.1714 47.89 82.2418 48.1777 82.381 48.3052C82.5308 48.4326 82.8457 48.4955 83.3257 48.4937ZM108.468 58.7366C108.083 58.5993 107.651 58.4143 107.17 58.1814C106.689 57.9485 106.213 57.6889 105.743 57.4027C105.272 57.1164 104.855 56.8353 104.492 56.5593C104.299 56.4107 104.186 56.2244 104.154 56.0005C104.131 55.766 104.189 55.5577 104.327 55.3759C104.444 55.2368 104.572 55.1456 104.71 55.1025L101.382 55.1148C101.446 55.1466 101.511 55.1837 101.575 55.2261C101.639 55.2685 101.692 55.3217 101.735 55.3855C101.885 55.5876 101.934 55.8008 101.882 56.025C101.84 56.2384 101.734 56.4148 101.564 56.5541C101.245 56.8113 100.856 57.0794 100.399 57.3585C99.941 57.6375 99.4673 57.8953 98.9775 58.1317C98.4984 58.3682 98.0565 58.5672 97.6517 58.7287C97.3428 58.8471 97.0656 58.8748 96.82 58.8117C96.5745 58.7593 96.3926 58.6 96.2742 58.3338C96.1667 58.0888 96.1605 57.8542 96.2556 57.6298C96.3508 57.4055 96.5369 57.2448 96.8138 57.1478C97.2186 56.9969 97.6446 56.8193 98.0919 56.615C98.5498 56.4 98.9863 56.1797 99.4014 55.9542C99.8166 55.7179 100.173 55.4926 100.471 55.2782C100.513 55.246 100.556 55.2192 100.599 55.1977C100.652 55.1655 100.7 55.1387 100.742 55.1172L96.3744 55.1334C96.1504 55.1342 95.9581 55.0602 95.7976 54.9115C95.6476 54.7521 95.5723 54.5657 95.5715 54.3523C95.5706 54.1283 95.6446 53.9414 95.7934 53.7915C95.9528 53.6309 96.1445 53.5502 96.3685 53.5494L96.9765 53.5471L96.8254 47.3236C96.813 46.8437 96.8489 46.4595 96.9332 46.1712C97.0281 45.8722 97.2032 45.6369 97.4586 45.4653C97.7139 45.283 98.0813 45.1323 98.5609 45.0132C98.742 44.9592 98.9232 44.9105 99.1043 44.8672C99.2961 44.8131 99.4826 44.7591 99.6637 44.7051C99.8662 44.651 100.058 44.661 100.24 44.735C100.421 44.7983 100.545 44.9365 100.609 45.1496C100.685 45.384 100.675 45.5867 100.58 45.7577C100.495 45.918 100.346 46.0252 100.133 46.0794C99.9943 46.1226 99.8452 46.1711 99.6854 46.225C99.5255 46.2683 99.387 46.3008 99.2697 46.3226C98.9394 46.4091 98.7318 46.5112 98.6469 46.6289C98.5619 46.7359 98.5254 46.9547 98.5373 47.2853L98.5391 47.7813L99.7871 47.7767C100 47.7759 100.177 47.8446 100.316 47.9827C100.466 48.1208 100.541 48.2965 100.542 48.5099C100.543 48.7125 100.469 48.8888 100.32 49.0387C100.182 49.1779 100.006 49.2479 99.7926 49.2487L98.5766 49.2532L98.6137 50.629L99.7977 50.6246C100.011 50.6239 100.187 50.6925 100.326 50.8307C100.476 50.9688 100.552 51.1445 100.552 51.3579C100.553 51.5605 100.479 51.7368 100.33 51.8867C100.192 52.0259 100.016 52.0958 99.8031 52.0966L98.6512 52.1009L98.6885 53.5408L101.072 53.5319L101.062 50.78C101.061 50.556 101.135 50.3797 101.284 50.2511C101.433 50.1119 101.609 50.0419 101.812 50.0412C102.025 50.0404 102.201 50.1091 102.34 50.2472C102.49 50.3747 102.565 50.5504 102.566 50.7744L102.576 53.5264L103.456 53.5231L103.445 50.3391C103.444 50.0298 103.4 49.8326 103.314 49.7476C103.239 49.6519 103.031 49.6047 102.69 49.6059C102.082 49.6082 101.655 49.4978 101.409 49.2747C101.173 49.0409 101.054 48.6093 101.052 47.98L101.041 45.052C101.04 44.8067 101.119 44.609 101.279 44.4591C101.438 44.3092 101.63 44.2338 101.854 44.233C102.078 44.2321 102.27 44.3061 102.431 44.4548C102.602 44.6035 102.688 44.8006 102.689 45.0459L102.692 45.7499L104.356 45.7437C104.548 45.743 104.713 45.8117 104.852 45.9499C104.992 46.0774 105.061 46.2371 105.062 46.4291C105.063 46.6211 104.994 46.7867 104.856 46.9259C104.718 47.0651 104.553 47.135 104.361 47.1357L102.697 47.1419L102.699 47.6219C102.7 47.9099 102.754 48.0963 102.861 48.1813C102.968 48.2555 103.176 48.2921 103.485 48.291C103.986 48.2891 104.355 48.4157 104.59 48.6709C104.837 48.9153 104.961 49.3415 104.963 49.9495L104.976 53.5175L107.296 53.5089L107.323 52.0848L106.123 52.0892C105.92 52.09 105.744 52.0159 105.594 51.8672C105.455 51.7183 105.385 51.5426 105.384 51.3399C105.384 51.1373 105.452 50.9664 105.59 50.8272C105.739 50.6773 105.915 50.602 106.118 50.6012L107.35 50.5967L107.361 49.2206L106.113 49.2252C105.91 49.226 105.734 49.1573 105.584 49.0192C105.445 48.8704 105.375 48.6946 105.374 48.492C105.373 48.2786 105.442 48.1024 105.58 47.9632C105.729 47.824 105.904 47.754 106.107 47.7532L107.387 47.7485L107.401 47.2524C107.411 46.9111 107.356 46.6873 107.239 46.581C107.121 46.4641 106.891 46.4063 106.55 46.4076L105.798 46.4104C105.595 46.4111 105.419 46.3371 105.269 46.1883C105.119 46.0396 105.044 45.8638 105.043 45.6612C105.043 45.4478 105.117 45.2662 105.265 45.1163C105.414 44.9665 105.59 44.8911 105.792 44.8904L106.656 44.8872C107.307 44.8848 107.809 44.9576 108.161 45.1056C108.524 45.2429 108.776 45.482 108.916 45.8228C109.056 46.1636 109.116 46.6327 109.097 47.2302L108.992 53.5026L109.632 53.5002C109.856 53.4994 110.043 53.5787 110.193 53.7381C110.354 53.8869 110.435 54.0732 110.435 54.2972C110.436 54.5106 110.357 54.6975 110.197 54.8581C110.049 55.008 109.862 55.0834 109.638 55.0842L105.238 55.1005C105.292 55.111 105.345 55.1321 105.399 55.1639C105.463 55.1957 105.516 55.2275 105.559 55.2593C105.88 55.4821 106.259 55.7154 106.698 55.9591C107.136 56.1922 107.585 56.4145 108.044 56.6261C108.514 56.827 108.931 56.9908 109.294 57.1175C109.539 57.1912 109.705 57.3346 109.791 57.5477C109.888 57.7713 109.894 58.0006 109.81 58.2356C109.704 58.5346 109.518 58.7113 109.252 58.7657C108.996 58.8306 108.735 58.8209 108.468 58.7366ZM112.538 47.5054L124.554 47.4609L124.561 49.3488L114.497 49.3862L114.533 58.9701L112.581 58.9773L112.538 47.5054ZM123.562 47.4645L125.514 47.4573L125.548 56.6892C125.552 57.7132 125.362 58.2739 124.675 58.5805C123.988 58.887 122.981 58.9228 121.589 58.9279C121.523 58.3682 121.215 57.5053 120.941 56.9783C121.822 57.0231 122.91 57.019 123.213 57.0019C123.501 57.0008 123.597 56.9045 123.596 56.6645L123.562 47.4645ZM115.407 44.5827L118.991 44.5695L118.998 46.2494L115.414 46.2627L115.407 44.5827ZM117.743 44.5741L119.791 44.5665C119.951 48.6779 120.875 52.0505 123.872 53.4954C123.458 53.881 122.805 54.6674 122.503 55.1805C119.344 53.3202 118.274 49.6602 118.051 45.437L117.747 45.4381L117.743 44.5741ZM117.9 47.9335L119.661 48.231C119.129 51.593 117.906 53.9655 115.399 55.3188C115.142 54.8718 114.515 54.0901 114.129 53.7715C116.318 52.7234 117.51 50.687 117.9 47.9335ZM138.402 58.2576C137.549 58.2608 136.877 58.1673 136.385 57.9771C135.894 57.7976 135.546 57.4842 135.342 57.0369C135.148 56.579 135.05 55.9554 135.047 55.166L135.019 47.7101C135.016 46.9421 135.11 46.3337 135.3 45.885C135.501 45.4256 135.847 45.099 136.337 44.9052C136.827 44.7007 137.498 44.5969 138.352 44.5937L141.52 44.582C141.776 44.581 141.979 44.6656 142.129 44.8357C142.278 45.0058 142.354 45.2082 142.355 45.4429C142.356 45.6669 142.282 45.8698 142.133 46.0517C141.984 46.2229 141.782 46.309 141.526 46.3099L138.534 46.321C138.065 46.3228 137.707 46.3614 137.462 46.437C137.217 46.5019 137.053 46.6412 136.968 46.8548C136.883 47.0578 136.842 47.3673 136.843 47.7833L136.846 48.5033L139.406 48.4938C140.163 48.491 140.703 48.6543 141.024 48.9838C141.345 49.3026 141.507 49.8407 141.51 50.598L141.515 52.006C141.518 52.7634 141.36 53.3079 141.041 53.6398C140.722 53.961 140.184 54.123 139.427 54.1258L136.867 54.1353L136.87 55.0313C136.872 55.4473 136.916 55.7618 137.002 55.9748C137.088 56.1878 137.254 56.3365 137.499 56.4209C137.745 56.4947 138.103 56.5307 138.572 56.529L141.708 56.5173C141.964 56.5164 142.161 56.6063 142.301 56.7871C142.451 56.9573 142.526 57.1543 142.527 57.3783C142.528 57.613 142.454 57.8159 142.305 57.9871C142.167 58.1583 141.97 58.2444 141.714 58.2453L138.402 58.2576ZM128.595 58.39C128.328 58.4656 128.088 58.4345 127.874 58.2966C127.671 58.1587 127.537 57.9672 127.472 57.7221C127.407 57.4557 127.438 57.2262 127.566 57.0338C127.693 56.8413 127.89 56.7126 128.156 56.6476L128.476 56.5824L128.458 51.6064C128.457 51.3611 128.531 51.1688 128.679 51.0296C128.839 50.8797 129.031 50.8043 129.255 50.8035C129.468 50.8027 129.655 50.8766 129.815 51.0254C129.976 51.1635 130.057 51.3552 130.058 51.6005L130.075 56.1925C130.192 56.16 130.309 56.1276 130.426 56.0952C130.554 56.0627 130.682 56.0302 130.81 55.9977L130.788 49.9818C130.201 49.952 129.736 49.8523 129.394 49.6829C129.063 49.5028 128.822 49.2211 128.671 48.8376C128.531 48.4541 128.46 47.9317 128.457 47.2704C128.455 46.5451 128.538 45.9848 128.707 45.5895C128.876 45.1942 129.169 44.9211 129.584 44.7702C130.01 44.6193 130.586 44.5425 131.311 44.5398C132.047 44.5371 132.624 44.6096 133.04 44.7574C133.457 44.9052 133.751 45.1761 133.923 45.5701C134.095 45.9642 134.183 46.5238 134.185 47.2492C134.189 48.1345 134.058 48.775 133.793 49.1706C133.538 49.5662 133.07 49.8186 132.387 49.9278L132.393 51.5598L133.529 51.5556C133.796 51.5546 134.004 51.6339 134.154 51.7933C134.315 51.942 134.396 52.1498 134.397 52.4164C134.398 52.6724 134.318 52.8807 134.159 53.0413C134.01 53.1912 133.802 53.2666 133.536 53.2676L132.4 53.2718L132.408 55.5598C132.653 55.4949 132.877 55.4301 133.079 55.3653C133.293 55.3005 133.484 55.2465 133.655 55.2032C133.879 55.1384 134.092 55.1589 134.295 55.2648C134.498 55.3707 134.627 55.5303 134.681 55.7434C134.735 55.9565 134.714 56.1646 134.619 56.3676C134.524 56.56 134.37 56.6939 134.157 56.7693C133.848 56.8665 133.448 56.9906 132.958 57.1418C132.479 57.2929 131.967 57.4441 131.424 57.5955C130.88 57.7575 130.358 57.9088 129.857 58.0493C129.357 58.1898 128.936 58.3034 128.595 58.39ZM136.86 52.3913L138.86 52.3839C139.191 52.3826 139.404 52.3285 139.5 52.2215C139.606 52.1144 139.659 51.9169 139.658 51.6289L139.655 50.9729C139.654 50.6849 139.6 50.4878 139.493 50.3815C139.397 50.2752 139.183 50.2227 138.852 50.2239L136.852 50.2313L136.86 52.3913ZM131.325 48.3158C131.816 48.314 132.13 48.2488 132.269 48.1203C132.407 47.9918 132.475 47.7035 132.473 47.2555C132.472 46.8075 132.401 46.5198 132.262 46.3923C132.123 46.2648 131.808 46.202 131.318 46.2038C130.838 46.2056 130.523 46.2707 130.374 46.3993C130.236 46.5278 130.168 46.8161 130.169 47.264C130.171 47.712 130.242 47.9998 130.381 48.1273C130.53 48.2547 130.845 48.3175 131.325 48.3158Z" fill="black" fill-opacity="0.85"/>
</g>
<defs>
<radialGradient id="paint0_radial_1260_4415" cx="0" cy="0" r="1" gradientUnits="userSpaceOnUse" gradientTransform="translate(177.999 53.4857) rotate(90) scale(7.39975 4.79175)">
<stop offset="0.16" stop-opacity="0"/>
<stop offset="1" stop-color="#1CB76B"/>
</radialGradient>
<clipPath id="clip0_1260_4415">
<rect width="200" height="90" fill="white"/>
</clipPath>
</defs>
</svg>
