<svg width="200" height="90" viewBox="0 0 200 90" fill="none" xmlns="http://www.w3.org/2000/svg">
<g clip-path="url(#clip0_1260_4410)">
<rect width="200" height="90" fill="#FEB79D"/>
<path fill-rule="evenodd" clip-rule="evenodd" d="M-6.18027 85.5257C-5.5206 81.3514 -9.94765 77.2571 -7.65473 73.2393C-4.94813 68.4966 -1.65241 61.9915 7.77154 61.0783C17.9972 60.0873 23.5998 68.8258 33.9785 69.2048C45.8176 69.6371 56.5881 60.196 66.8872 63.2371C76.2425 65.9996 70.121 74.0119 68.9752 79.5387C68.1676 83.4341 61.5364 86.4306 61.2669 90.3457C60.8502 96.3973 75.7689 103.853 67.0229 107.895C58.3557 111.9 45.7383 103.802 34.2527 102.83C27.3162 102.243 20.5655 103.925 13.6182 103.373C4.65786 102.66 -7.2514 103.227 -11.7526 99.1698C-16.3208 95.0519 -6.92748 90.2539 -6.18027 85.5257Z" fill="#FE585B"/>
<path fill-rule="evenodd" clip-rule="evenodd" d="M28.4743 10.5302C32.6486 10.8717 36.7429 8.58004 40.7607 9.76696C45.5034 11.168 52.0085 12.874 52.9217 17.7523C53.9127 23.0456 45.1742 25.9458 44.7952 31.3183C44.3629 37.4467 53.804 43.0221 50.7629 48.3534C48.0004 53.1961 39.9881 50.0274 34.4613 49.4342C30.5659 49.0162 27.5694 45.5836 23.6543 45.444C17.6027 45.2284 10.1469 52.9509 6.10508 48.4236C2.09968 43.9371 10.1975 37.4057 11.1701 31.4602C11.7575 27.8695 10.0747 24.3751 10.6274 20.7788C11.3402 16.1405 10.7727 9.97575 14.8302 7.64571C18.9481 5.281 23.7461 10.1434 28.4743 10.5302Z" fill="#FC7443"/>
<path fill-rule="evenodd" clip-rule="evenodd" d="M173.474 4.53021C177.649 4.87169 181.743 2.58004 185.761 3.76696C190.503 5.16803 197.008 6.87405 197.922 11.7523C198.913 17.0456 190.174 19.9458 189.795 25.3183C189.363 31.4467 198.804 37.0221 195.763 42.3534C193 47.1961 184.988 44.0274 179.461 43.4342C175.566 43.0162 172.569 39.5836 168.654 39.444C162.603 39.2284 155.147 46.9509 151.105 42.4236C147.1 37.9371 155.198 31.4057 156.17 25.4602C156.757 21.8695 155.075 18.3751 155.627 14.7788C156.34 10.1405 155.773 3.97575 159.83 1.64571C163.948 -0.719004 168.746 4.14342 173.474 4.53021Z" fill="#FF8787"/>
<path fill-rule="evenodd" clip-rule="evenodd" d="M117.063 7.20494C131.49 7.9797 144.155 11.9054 154.996 17.5775C166.733 23.7188 176.896 30.8598 179.688 39.9711C183.097 51.0949 184.354 63.7453 171.749 72.2549C158.691 81.0707 136.857 81.4742 117.063 82.2497C95.2362 83.1048 71.8992 84.7511 54.6033 76.8446C35.6156 68.1646 20.8565 53.9771 24.5773 39.9711C28.0889 26.7526 52.1053 19.9805 71.5388 13.0955C85.3864 8.18958 100.98 6.34119 117.063 7.20494Z" fill="#FFAB7A"/>
<ellipse cx="177.989" cy="70.7269" rx="16.7876" ry="14.0511" fill="#F55A57"/>
<ellipse cx="173.713" cy="65.6395" rx="1.21537" ry="2.15126" fill="black"/>
<ellipse cx="182.288" cy="65.6395" rx="1.21537" ry="2.15126" fill="black"/>
<path d="M173.043 72.6445C173.079 74.5722 175.312 76.0937 178.031 76.0428C180.749 75.9919 182.924 74.388 182.888 72.4603C182.852 70.5326 180.67 71.7825 177.952 71.8334C175.233 71.8843 173.007 70.7168 173.043 72.6445Z" fill="black"/>
<path d="M170.798 50.9035C173.679 48.6452 180.102 51.1915 180.102 55.0219C180.103 59.542 168.088 61.6232 165.803 61.9782C165.554 62.0169 165.305 62.044 165.056 62.039C163.427 62.0062 157.617 61.2375 170.798 50.9035Z" fill="#6E5232"/>
<path d="M170.798 50.9035C173.679 48.6452 180.102 51.1915 180.102 55.0219C180.103 59.542 168.088 61.6232 165.803 61.9782C165.554 62.0169 165.305 62.044 165.056 62.039C163.427 62.0062 157.617 61.2375 170.798 50.9035Z" fill="url(#paint0_radial_1260_4410)" fill-opacity="0.15"/>
<path d="M185.204 50.7629C182.323 48.5045 175.9 51.0509 175.9 54.8813C175.899 59.4014 187.914 61.4825 190.199 61.8375C190.448 61.8763 190.697 61.9034 190.946 61.8984C192.575 61.8656 198.385 61.0968 185.204 50.7629Z" fill="#6E5232"/>
<path d="M185.204 50.7629C182.323 48.5045 175.9 51.0509 175.9 54.8813C175.899 59.4014 187.914 61.4825 190.199 61.8375C190.448 61.8763 190.697 61.9034 190.946 61.8984C192.575 61.8656 198.385 61.0968 185.204 50.7629Z" fill="url(#paint1_radial_1260_4410)" fill-opacity="0.15"/>
<path d="M67.3905 36.2435C67.0239 36.2449 66.8398 36.0622 66.8385 35.6956L66.8166 29.7956C66.8153 29.4289 66.9979 29.2449 67.3646 29.2436L67.4146 29.2434C67.7812 29.242 67.9652 29.4247 67.9666 29.7913L67.9749 32.0213L71.1548 32.0095L71.1466 29.7796C71.1452 29.4129 71.3312 29.2289 71.7045 29.2275L71.7645 29.2273C72.1312 29.2259 72.3152 29.4085 72.3166 29.7752L72.3384 35.6752C72.3398 36.0418 72.1572 36.2258 71.7905 36.2272L71.7305 36.2274C71.3572 36.2288 71.1698 36.0462 71.1685 35.6795L71.1588 33.0795L67.9788 33.0913L67.9885 35.6913C67.9898 36.058 67.8072 36.242 67.4405 36.2433L67.3905 36.2435ZM76.0245 36.2115C75.6312 36.213 75.4338 36.017 75.4323 35.6237L75.4125 30.2837L73.8926 30.2894C73.4992 30.2908 73.3019 30.1149 73.3006 29.7616C73.2993 29.4016 73.4953 29.2208 73.8886 29.2194L78.0786 29.2039C78.4786 29.2024 78.6792 29.3816 78.6806 29.7416C78.6819 30.095 78.4825 30.2724 78.0825 30.2738L76.5825 30.2794L76.6023 35.6194C76.6038 36.0127 76.4112 36.2101 76.0245 36.2115ZM80.2622 36.1958C79.8756 36.1972 79.6815 36.0013 79.68 35.608L79.6585 29.788C79.6576 29.5613 79.7137 29.4078 79.8268 29.3274C79.9464 29.2403 80.1196 29.1963 80.3463 29.1954C80.6529 29.1943 80.8868 29.3268 81.0478 29.5928L82.8287 32.5463L84.5678 29.5898C84.6605 29.4228 84.7667 29.3124 84.8865 29.2586C85.013 29.2048 85.1762 29.1775 85.3762 29.1768C85.7696 29.1753 85.967 29.3713 85.9684 29.7646L85.99 35.5846C85.9915 35.9779 85.7955 36.1753 85.4022 36.1768C85.0089 36.1782 84.8115 35.9823 84.81 35.5889L84.7937 31.189L83.3928 33.6342C83.2538 33.908 83.0643 34.0454 82.8243 34.0463C82.5843 34.0472 82.3938 33.9112 82.2528 33.6384L80.8237 31.2037L80.84 35.6037C80.8415 35.997 80.6489 36.1944 80.2622 36.1958ZM87.9968 36.1671C87.6035 36.1686 87.4061 35.9727 87.4046 35.5793L87.383 29.7594C87.3816 29.366 87.5708 29.1687 87.9508 29.1673C88.3375 29.1658 88.5316 29.3618 88.533 29.7551L88.5528 35.0951L91.6128 35.0837C92.0061 35.0823 92.2034 35.2582 92.2048 35.6115C92.2061 35.9715 92.0101 36.1523 91.6168 36.1537L87.9968 36.1671ZM94.6201 36.2026C93.9868 36.2049 93.4426 35.987 92.9876 35.5486C92.8405 35.4092 92.7766 35.2694 92.7961 35.1293C92.8155 34.9826 92.8985 34.8656 93.0448 34.7784C93.1978 34.6845 93.3343 34.654 93.4545 34.6869C93.5746 34.7131 93.7081 34.7826 93.8552 34.8954C93.9622 34.9817 94.0791 35.0513 94.206 35.1041C94.3329 35.157 94.4696 35.1831 94.6163 35.1826C94.9896 35.1812 95.2692 35.0702 95.4551 34.8495C95.6476 34.6221 95.7431 34.3084 95.7416 33.9084C95.74 33.4751 95.6555 33.1621 95.4881 32.9693C95.3274 32.7699 95.1003 32.6708 94.807 32.6719C94.707 32.6722 94.6104 32.6893 94.5172 32.7229C94.4306 32.7499 94.3508 32.7869 94.2776 32.8338C94.1445 32.9077 94.0281 32.9814 93.9284 33.0551C93.8287 33.1222 93.7021 33.156 93.5488 33.1565C93.1821 33.1579 92.9981 32.9619 92.9966 32.5686L92.9861 29.7386C92.9847 29.3453 93.1839 29.1479 93.5839 29.1464L95.9539 29.1376C96.3472 29.1361 96.5445 29.2987 96.5457 29.6254C96.5469 29.9521 96.3509 30.1161 95.9575 30.1176L94.0576 30.1246L94.0644 31.9646C94.1774 31.8842 94.3005 31.8204 94.4337 31.7732C94.5668 31.7194 94.7 31.6923 94.8334 31.6918C95.2067 31.6904 95.5403 31.7725 95.8343 31.9381C96.1349 32.1036 96.3725 32.3494 96.547 32.6754C96.7282 33.0014 96.8198 33.4111 96.8216 33.9044C96.8243 34.6311 96.623 35.1952 96.2178 35.5967C95.8127 35.9982 95.2801 36.2001 94.6201 36.2026ZM102.783 37.0223C102.63 37.0229 102.496 36.9701 102.383 36.8638C102.276 36.7642 102.222 36.6311 102.221 36.4644L102.214 34.5044C102.041 34.7517 101.859 34.9957 101.667 35.2365C101.474 35.4772 101.302 35.6745 101.149 35.8284C101.042 35.9354 100.916 35.9993 100.769 36.0198C100.623 36.0403 100.493 35.9975 100.379 35.8912C100.279 35.7983 100.225 35.6885 100.218 35.5618C100.211 35.4285 100.254 35.3184 100.347 35.2314C100.499 35.0841 100.669 34.9035 100.855 34.6895C101.047 34.4754 101.23 34.2581 101.402 34.0374C101.581 33.8101 101.731 33.6129 101.85 33.4458L100.96 33.4491C100.813 33.4496 100.693 33.4034 100.599 33.3104C100.506 33.2174 100.459 33.1009 100.458 32.9609C100.458 32.8276 100.504 32.7141 100.597 32.6204C100.69 32.5201 100.81 32.4696 100.956 32.4691L102.206 32.4644L102.204 31.7844L100.744 31.7899C100.597 31.7904 100.48 31.7475 100.393 31.6612C100.313 31.5681 100.273 31.4583 100.272 31.3316C100.272 31.1983 100.311 31.0881 100.391 31.0012C100.477 30.9075 100.594 30.8604 100.74 30.8599L101.48 30.8571C101.433 30.744 101.386 30.6308 101.339 30.5176C101.299 30.3978 101.268 30.3079 101.248 30.248C101.201 30.1148 101.204 29.9948 101.257 29.8879C101.31 29.7744 101.399 29.7007 101.526 29.6669L101.556 29.6568L100.946 29.6591C100.806 29.6596 100.692 29.6167 100.605 29.5304C100.525 29.4373 100.485 29.3275 100.484 29.2008C100.484 29.0741 100.523 28.9673 100.603 28.8804C100.689 28.7867 100.802 28.7396 100.942 28.7391L102.162 28.7346L102.16 28.1446C102.16 27.9913 102.213 27.8644 102.319 27.764C102.432 27.6636 102.572 27.6131 102.738 27.6124C102.912 27.6118 103.052 27.6613 103.159 27.7609C103.273 27.8605 103.33 27.9869 103.33 28.1402L103.332 28.7302L104.532 28.7258C104.679 28.7253 104.793 28.7715 104.873 28.8645C104.953 28.9509 104.994 29.0574 104.994 29.1841C104.995 29.3108 104.955 29.4209 104.875 29.5145C104.796 29.6015 104.683 29.6452 104.536 29.6458L103.976 29.6479C104.109 29.6874 104.2 29.7637 104.247 29.8769C104.3 29.9833 104.304 30.1033 104.258 30.2368C104.232 30.3036 104.195 30.3937 104.149 30.5072C104.109 30.6207 104.063 30.7342 104.01 30.8477L104.69 30.8452C104.837 30.8447 104.95 30.8909 105.031 30.984C105.111 31.0703 105.152 31.1802 105.152 31.3135C105.153 31.4402 105.113 31.5503 105.033 31.644C104.954 31.7309 104.84 31.7747 104.694 31.7752L103.314 31.7803L103.316 32.4603L104.446 32.4561C104.6 32.4556 104.72 32.5051 104.807 32.6048C104.9 32.6978 104.948 32.811 104.948 32.9443C104.949 33.0843 104.902 33.2011 104.809 33.2948C104.723 33.3885 104.603 33.4356 104.45 33.4361L103.43 33.4399C103.517 33.5329 103.631 33.6458 103.771 33.7787C103.918 33.9114 104.065 34.0409 104.213 34.167C104.366 34.2865 104.49 34.3793 104.584 34.4456C104.691 34.5319 104.748 34.645 104.755 34.785C104.769 34.925 104.729 35.0451 104.636 35.1455C104.537 35.2525 104.42 35.3096 104.287 35.3168C104.154 35.3172 104.033 35.271 103.926 35.1781C103.766 35.0253 103.565 34.8261 103.324 34.5803L103.331 36.4603C103.332 36.627 103.279 36.7605 103.173 36.8609C103.066 36.968 102.937 37.0218 102.783 37.0223ZM107.883 36.9734C107.73 36.974 107.596 36.9212 107.482 36.8149C107.369 36.7087 107.312 36.5689 107.311 36.3956L107.294 31.9156L106.464 31.9187C106.462 32.9653 106.358 33.8591 106.154 34.5998C105.95 35.3339 105.626 35.9985 105.182 36.5934C105.075 36.7272 104.936 36.8077 104.762 36.835C104.596 36.869 104.443 36.8395 104.302 36.7467C104.182 36.6605 104.108 36.5408 104.081 36.3875C104.06 36.2409 104.096 36.1141 104.189 36.0071C104.468 35.6727 104.69 35.3019 104.855 34.8946C105.027 34.4807 105.149 34.0102 105.22 33.4833C105.291 32.9497 105.326 32.3395 105.323 31.6529L105.318 30.1029C105.316 29.7296 105.358 29.4327 105.444 29.2124C105.537 28.9854 105.683 28.8115 105.882 28.6908C106.089 28.5634 106.358 28.4624 106.691 28.3878C106.951 28.3335 107.247 28.2591 107.58 28.1645C107.92 28.0632 108.223 27.9721 108.489 27.8911C108.669 27.8305 108.829 27.8332 108.969 27.8993C109.11 27.9588 109.203 28.0551 109.25 28.1883C109.304 28.3481 109.305 28.5014 109.252 28.6483C109.199 28.7885 109.093 28.8822 108.933 28.9295C108.647 29.0039 108.354 29.0783 108.054 29.1527C107.754 29.2272 107.458 29.2983 107.165 29.366C106.892 29.4337 106.705 29.5211 106.606 29.6281C106.506 29.7352 106.457 29.9253 106.458 30.1987L106.46 30.8287L109.01 30.8192C109.177 30.8186 109.307 30.8714 109.401 30.9778C109.501 31.0841 109.552 31.2139 109.552 31.3672C109.553 31.5139 109.503 31.6407 109.404 31.7478C109.311 31.8548 109.181 31.9086 109.014 31.9092L108.444 31.9113L108.461 36.3913C108.462 36.5646 108.405 36.7048 108.292 36.8119C108.179 36.919 108.043 36.9728 107.883 36.9734ZM102.49 30.8534L102.99 30.8515C103.043 30.718 103.106 30.5578 103.179 30.3708C103.251 30.1839 103.311 30.0303 103.357 29.9102C103.403 29.7833 103.483 29.6964 103.596 29.6493L101.876 29.6556C101.929 29.6755 101.979 29.7086 102.026 29.7551C102.08 29.7949 102.12 29.8514 102.147 29.9246C102.174 29.9779 102.207 30.0644 102.248 30.1843C102.288 30.2975 102.332 30.4173 102.379 30.5438C102.426 30.6636 102.463 30.7668 102.49 30.8534ZM110.866 35.0324C110.706 35.0863 110.556 35.0802 110.416 35.014C110.276 34.9479 110.182 34.8382 110.135 34.6851C110.094 34.5319 110.107 34.3918 110.173 34.2649C110.239 34.1313 110.356 34.0409 110.522 33.9936C110.615 33.9666 110.715 33.9362 110.822 33.9025C110.935 33.8621 111.055 33.8217 111.181 33.7812L111.172 31.1912L110.622 31.1932C110.475 31.1938 110.351 31.1442 110.251 31.0446C110.151 30.9383 110.1 30.8118 110.1 30.6652C110.099 30.5185 110.149 30.395 110.248 30.2946C110.348 30.1876 110.471 30.1338 110.618 30.1333L111.168 30.1312L111.161 28.3312C111.16 28.1846 111.21 28.061 111.31 27.9607C111.416 27.8603 111.539 27.8098 111.679 27.8093C111.826 27.8088 111.949 27.8583 112.05 27.9579C112.157 28.0575 112.21 28.1807 112.211 28.3273L112.218 30.1273L112.658 30.1257C112.691 30.1256 112.721 30.1288 112.748 30.1354C112.774 30.1419 112.801 30.1518 112.828 30.1651L112.858 30.1349C113.011 29.9877 113.18 29.8038 113.366 29.5831C113.558 29.3557 113.741 29.125 113.913 28.891C114.086 28.6571 114.225 28.4532 114.331 28.2795C114.404 28.1459 114.51 28.0688 114.65 28.0483C114.797 28.0211 114.927 28.0439 115.04 28.1168C115.154 28.1831 115.228 28.2795 115.261 28.406C115.295 28.5326 115.272 28.6627 115.193 28.7963C115.093 28.9433 114.977 29.1138 114.845 29.3076C114.712 29.4947 114.569 29.6853 114.417 29.8792C114.617 29.8384 114.86 29.8175 115.147 29.8165L117.357 29.8083C117.43 29.808 117.5 29.8077 117.567 29.8075C117.633 29.8072 117.7 29.8137 117.767 29.8268C117.539 29.5743 117.351 29.3383 117.204 29.1188C117.124 28.9991 117.05 28.9127 116.983 28.8596C116.923 28.8065 116.849 28.7735 116.763 28.7605C116.676 28.7475 116.556 28.7412 116.403 28.7418L115.943 28.7435C115.823 28.7439 115.719 28.6977 115.632 28.6047C115.545 28.505 115.501 28.3951 115.501 28.2751C115.5 28.1551 115.543 28.0483 115.63 27.9547C115.716 27.8543 115.819 27.804 115.939 27.8035L116.429 27.8017C116.776 27.8004 117.046 27.8227 117.239 27.8687C117.433 27.9146 117.593 28.0007 117.72 28.1269C117.854 28.2464 117.998 28.4226 118.152 28.6553C118.253 28.8083 118.383 28.9711 118.544 29.1439C118.711 29.3166 118.885 29.4859 119.066 29.6519C119.253 29.8112 119.424 29.9539 119.578 30.08C119.691 30.1663 119.752 30.2861 119.759 30.4394C119.773 30.5927 119.73 30.7261 119.63 30.8399C119.544 30.9468 119.434 31.0106 119.301 31.0311C119.174 31.0515 119.051 31.0287 118.931 30.9624C118.938 31.0224 118.941 31.0857 118.942 31.1524C118.948 31.219 118.952 31.289 118.952 31.3624C118.954 31.7624 118.905 32.0759 118.806 32.3029C118.713 32.5299 118.551 32.6905 118.318 32.7847C118.091 32.8789 117.775 32.9267 117.368 32.9282L115.158 32.9364C114.751 32.9379 114.431 32.8925 114.198 32.8C113.964 32.7075 113.8 32.5481 113.706 32.3218C113.612 32.0955 113.564 31.7823 113.562 31.3823C113.562 31.269 113.565 31.169 113.571 31.0823C113.578 30.989 113.587 30.8989 113.6 30.8122C113.441 30.9528 113.271 30.9968 113.091 30.9441C113.044 31.0109 112.985 31.0678 112.911 31.1148C112.838 31.1617 112.755 31.1853 112.662 31.1857L112.222 31.1873L112.23 33.4373C112.336 33.4036 112.436 33.3732 112.53 33.3462C112.623 33.3125 112.706 33.2822 112.779 33.2553C112.926 33.2014 113.059 33.2076 113.179 33.2738C113.3 33.34 113.38 33.4397 113.42 33.5729C113.461 33.7194 113.452 33.8561 113.392 33.983C113.332 34.1032 113.226 34.1903 113.073 34.2442C112.953 34.2846 112.797 34.3419 112.604 34.4159C112.411 34.4833 112.204 34.5574 111.984 34.6382C111.765 34.719 111.555 34.7965 111.355 34.8706C111.156 34.938 110.992 34.9919 110.866 35.0324ZM115.682 36.7545C115.256 36.7561 114.922 36.7107 114.682 36.6182C114.441 36.5325 114.271 36.3831 114.17 36.1701C114.069 35.9638 114.018 35.684 114.017 35.3307L114.015 34.7107C114.013 34.3574 114.062 34.0772 114.162 33.8701C114.261 33.6631 114.43 33.5158 114.67 33.4283C114.91 33.334 115.243 33.2861 115.669 33.2845L116.849 33.2802C117.269 33.2786 117.6 33.3241 117.84 33.4165C118.08 33.5023 118.251 33.6483 118.352 33.8546C118.459 34.0609 118.513 34.3407 118.515 34.694L118.517 35.314C118.518 35.6673 118.466 35.9475 118.36 36.1546C118.261 36.3683 118.091 36.5189 117.852 36.6065C117.612 36.7007 117.282 36.7486 116.862 36.7502L115.682 36.7545ZM116.705 32.0907L117.305 32.0885C117.618 32.0873 117.815 32.0399 117.894 31.9463C117.981 31.8526 118.023 31.6591 118.022 31.3658C118.021 31.0725 117.977 30.8793 117.89 30.7863C117.81 30.6866 117.613 30.6373 117.3 30.6385L116.7 30.6407L116.705 32.0907ZM115.205 32.0963L115.795 32.0941L115.79 30.6441L115.2 30.6463C114.893 30.6474 114.696 30.6948 114.61 30.7885C114.531 30.8821 114.491 31.0789 114.492 31.3789C114.493 31.5789 114.51 31.7322 114.544 31.8387C114.578 31.9386 114.645 32.0083 114.745 32.048C114.852 32.0809 115.005 32.097 115.205 32.0963ZM115.679 35.8945L116.859 35.8902C117.086 35.8893 117.246 35.8587 117.339 35.7984C117.439 35.738 117.491 35.6145 117.497 35.4278L115.037 35.4369C115.051 35.6235 115.105 35.7467 115.199 35.8063C115.292 35.866 115.452 35.8954 115.679 35.8945ZM115.034 34.5869L117.494 34.5778C117.48 34.4045 117.423 34.2881 117.323 34.2284C117.229 34.1621 117.073 34.1294 116.853 34.1302L115.673 34.1345C115.453 34.1354 115.293 34.1693 115.193 34.2363C115.1 34.2967 115.047 34.4135 115.034 34.5869ZM115.475 31.9953C115.375 32.0423 115.268 32.0527 115.155 32.0264C115.048 32.0002 114.968 31.9338 114.914 31.8273C114.88 31.7541 114.84 31.6743 114.793 31.5878C114.746 31.5013 114.696 31.4148 114.642 31.3283C114.588 31.2352 114.578 31.1352 114.611 31.0285C114.651 30.9216 114.724 30.8447 114.83 30.7976C114.943 30.7439 115.05 30.7335 115.15 30.7665C115.257 30.7927 115.34 30.8624 115.401 30.9755C115.434 31.0421 115.478 31.1252 115.532 31.225C115.592 31.3182 115.636 31.3947 115.663 31.4546C115.716 31.561 115.723 31.6643 115.684 31.7645C115.651 31.8646 115.581 31.9415 115.475 31.9953ZM117.015 31.9896C116.914 31.9366 116.844 31.8602 116.804 31.7603C116.77 31.6605 116.776 31.5571 116.823 31.4503C116.856 31.3901 116.899 31.3133 116.952 31.2198C117.005 31.1196 117.051 31.0361 117.091 30.9693C117.144 30.8557 117.223 30.7854 117.33 30.7584C117.443 30.7246 117.553 30.7342 117.66 30.7872C117.76 30.8334 117.827 30.9099 117.861 31.0164C117.901 31.1229 117.895 31.223 117.842 31.3165C117.796 31.4033 117.749 31.4902 117.703 31.577C117.657 31.6638 117.614 31.744 117.574 31.8175C117.528 31.9243 117.448 31.9913 117.335 32.0184C117.221 32.0455 117.115 32.0358 117.015 31.9896ZM125.214 31.8992C124.654 31.9012 124.271 31.806 124.063 31.6134C123.856 31.4209 123.751 31.0879 123.75 30.6146C123.748 30.1346 123.85 29.8009 124.056 29.6134C124.262 29.4193 124.645 29.3213 125.205 29.3192L125.275 29.3189L125.273 28.8189L123.843 28.8242C123.723 28.8247 123.619 28.7851 123.532 28.7054C123.452 28.619 123.412 28.5158 123.411 28.3958C123.411 28.2758 123.451 28.1757 123.53 28.0954C123.617 28.0084 123.72 27.9647 123.84 27.9642L129.14 27.9446C129.26 27.9441 129.363 27.9871 129.45 28.0734C129.537 28.1531 129.581 28.253 129.581 28.3729C129.582 28.4929 129.539 28.5964 129.452 28.6834C129.366 28.7638 129.263 28.8041 129.143 28.8046L127.673 28.81L127.675 29.31L127.785 29.3096C128.345 29.3075 128.728 29.4028 128.936 29.5954C129.143 29.7813 129.248 30.1142 129.25 30.5942C129.251 31.0675 129.149 31.4012 128.943 31.5953C128.737 31.7894 128.354 31.8875 127.794 31.8896L125.214 31.8992ZM122.093 36.9508C121.946 36.9513 121.823 36.9051 121.723 36.8121C121.629 36.7192 121.582 36.596 121.581 36.4427L121.569 33.0527C121.469 33.2597 121.373 33.4567 121.281 33.6438C121.188 33.8241 121.099 33.9811 121.013 34.1148C120.94 34.2417 120.83 34.3221 120.683 34.356C120.537 34.3832 120.403 34.357 120.283 34.2775C120.163 34.2046 120.092 34.1048 120.072 33.9782C120.058 33.845 120.084 33.7182 120.151 33.5979C120.263 33.4175 120.386 33.2004 120.518 32.9466C120.657 32.6927 120.793 32.4289 120.925 32.1551C121.058 31.8746 121.18 31.6041 121.292 31.3437C121.405 31.0833 121.494 30.8529 121.56 30.6527L121.559 30.5327L120.599 30.5363C120.473 30.5367 120.359 30.4905 120.259 30.3975C120.165 30.2979 120.118 30.1847 120.117 30.058C120.117 29.9247 120.163 29.8112 120.256 29.7175C120.356 29.6238 120.469 29.5767 120.596 29.5763L121.556 29.5727L121.55 28.1027C121.55 27.9494 121.596 27.8259 121.689 27.7322C121.789 27.6385 121.912 27.5914 122.058 27.5908C122.198 27.5903 122.319 27.6365 122.419 27.7295C122.519 27.8225 122.57 27.9456 122.57 28.0989L122.576 29.5689L123.236 29.5665C123.369 29.566 123.483 29.6122 123.576 29.7052C123.67 29.7982 123.717 29.9114 123.717 30.0447C123.718 30.1714 123.672 30.2849 123.579 30.3852C123.486 30.4789 123.373 30.526 123.239 30.5265L122.579 30.5289L122.581 31.0489C122.641 31.1287 122.725 31.2384 122.832 31.378C122.94 31.5109 123.05 31.6538 123.164 31.8068C123.285 31.953 123.398 32.0926 123.506 32.2255C123.613 32.3518 123.7 32.4514 123.767 32.5245C123.86 32.6242 123.897 32.7407 123.878 32.8741C123.858 33.0009 123.799 33.1111 123.699 33.2048C123.593 33.2985 123.47 33.339 123.33 33.3262C123.196 33.3133 123.086 33.2537 122.999 33.1474C122.952 33.0742 122.892 32.9878 122.818 32.888C122.744 32.7883 122.667 32.6819 122.587 32.5689L122.601 36.4389C122.602 36.5922 122.552 36.7157 122.453 36.8094C122.353 36.9031 122.233 36.9502 122.093 36.9508ZM125.673 36.8675C125.519 36.8681 125.393 36.8252 125.292 36.7389C125.199 36.6593 125.148 36.5428 125.141 36.3895C125.134 36.2562 125.173 36.1393 125.26 36.039C125.346 35.9387 125.459 35.8816 125.599 35.8678C125.759 35.8538 125.862 35.8268 125.909 35.7866C125.962 35.7397 125.988 35.643 125.988 35.4963L125.983 34.3463L123.883 34.3541C123.77 34.3545 123.67 34.3116 123.583 34.2252C123.503 34.1389 123.462 34.039 123.462 33.9257C123.461 33.8057 123.501 33.7055 123.581 33.6252C123.667 33.5382 123.767 33.4945 123.88 33.4941L129.13 33.4747C129.244 33.4742 129.34 33.5172 129.421 33.6036C129.508 33.6833 129.551 33.7831 129.552 33.9031C129.552 34.0164 129.509 34.1166 129.423 34.2036C129.343 34.2905 129.247 34.3342 129.133 34.3347L127.033 34.3424L127.038 35.6424C127.04 36.0891 126.934 36.4028 126.722 36.5836C126.516 36.771 126.166 36.8657 125.673 36.8675ZM124.379 33.1123C124.266 33.1127 124.165 33.0697 124.078 32.9834C123.998 32.897 123.958 32.7972 123.957 32.6838C123.957 32.5705 123.996 32.4737 124.076 32.3934C124.163 32.3064 124.262 32.2627 124.376 32.2623L128.576 32.2467C128.689 32.2463 128.786 32.2893 128.866 32.3756C128.953 32.4553 128.997 32.5518 128.997 32.6651C128.998 32.7785 128.955 32.8786 128.868 32.9656C128.789 33.0526 128.692 33.0963 128.579 33.0967L124.379 33.1123ZM128.731 36.3362C128.624 36.2632 128.494 36.167 128.34 36.0476C128.193 35.9348 128.042 35.812 127.888 35.6793C127.741 35.5465 127.611 35.427 127.497 35.3207C127.403 35.2277 127.353 35.1146 127.346 34.9813C127.345 34.8413 127.391 34.7244 127.484 34.6308C127.577 34.5304 127.687 34.4733 127.814 34.4595C127.947 34.4457 128.067 34.4853 128.174 34.5782C128.268 34.6512 128.388 34.7474 128.535 34.8669C128.682 34.9863 128.83 35.1024 128.977 35.2152C129.13 35.328 129.257 35.4175 129.358 35.4838C129.471 35.5567 129.535 35.6632 129.549 35.8031C129.569 35.9364 129.543 36.0598 129.47 36.1734C129.391 36.3004 129.281 36.3775 129.141 36.4046C129.001 36.4385 128.864 36.4157 128.731 36.3362ZM124.161 36.3331C124.034 36.4202 123.898 36.4507 123.751 36.4246C123.604 36.4052 123.484 36.3323 123.39 36.206C123.317 36.0929 123.289 35.9697 123.309 35.8363C123.335 35.6962 123.405 35.5892 123.518 35.5155C123.617 35.4484 123.74 35.3613 123.887 35.2541C124.033 35.1402 124.179 35.023 124.325 34.9025C124.472 34.7819 124.591 34.6782 124.684 34.5911C124.784 34.4974 124.904 34.457 125.044 34.4698C125.184 34.4826 125.297 34.5389 125.384 34.6385C125.478 34.7449 125.525 34.8647 125.526 34.998C125.526 35.1247 125.477 35.2349 125.377 35.3286C125.291 35.4156 125.174 35.5227 125.028 35.6499C124.882 35.7704 124.729 35.8943 124.57 36.0216C124.417 36.1421 124.28 36.246 124.161 36.3331ZM126.201 31.0755L126.761 31.0734L126.758 30.1334L126.198 30.1355L126.201 31.0755ZM127.681 31.07L127.781 31.0696C127.988 31.0689 128.124 31.035 128.191 30.9681C128.257 30.9012 128.29 30.7778 128.29 30.5978C128.289 30.4111 128.255 30.2879 128.188 30.2281C128.121 30.1617 127.984 30.1289 127.778 30.1296L127.678 30.13L127.681 31.07ZM125.231 31.0791L125.281 31.0789L125.278 30.1389L125.228 30.1391C125.021 30.1399 124.881 30.1737 124.808 30.2407C124.742 30.3009 124.709 30.4244 124.71 30.611C124.71 30.791 124.744 30.9142 124.811 30.9806C124.885 31.047 125.025 31.0799 125.231 31.0791ZM126.195 29.3155L126.755 29.3134L126.753 28.8134L126.193 28.8155L126.195 29.3155ZM135.933 36.7995C135.806 36.8866 135.666 36.9338 135.513 36.941C135.36 36.9549 135.226 36.8954 135.112 36.7625C135.052 36.6894 135.015 36.6095 135.002 36.5229C134.988 36.4363 134.994 36.3529 135.021 36.2728C134.714 36.314 134.374 36.3552 134.001 36.3966C133.635 36.438 133.261 36.476 132.881 36.5108C132.502 36.5522 132.135 36.5902 131.782 36.6249C131.435 36.6595 131.125 36.6906 130.852 36.7183C130.719 36.7255 130.602 36.6926 130.502 36.6196C130.402 36.5466 130.345 36.4368 130.331 36.2902C130.323 36.1503 130.363 36.0368 130.449 35.9498C130.536 35.8561 130.642 35.8057 130.769 35.7986C130.929 35.7847 131.102 35.7707 131.289 35.7567C131.482 35.7426 131.682 35.7285 131.889 35.7144L131.887 35.2545L130.757 35.2586C130.67 35.259 130.597 35.2292 130.537 35.1695C130.476 35.103 130.446 35.0265 130.446 34.9398C130.445 34.8531 130.475 34.7797 130.535 34.7195C130.595 34.6592 130.668 34.629 130.754 34.6286L131.884 34.6245L131.883 34.3245L130.753 34.3286C130.667 34.329 130.593 34.2992 130.533 34.2395C130.473 34.1797 130.443 34.1065 130.442 34.0198C130.442 33.9265 130.472 33.8497 130.531 33.7895C130.591 33.7292 130.664 33.699 130.751 33.6987L131.881 33.6945L131.88 33.3945L130.75 33.3987C130.663 33.399 130.59 33.3692 130.53 33.3095C130.469 33.2497 130.439 33.1765 130.439 33.0898C130.438 32.9965 130.468 32.9197 130.528 32.8595C130.588 32.7993 130.661 32.769 130.748 32.7687L131.878 32.7645L131.877 32.4745L130.637 32.4791C130.53 32.4795 130.436 32.4398 130.356 32.3601C130.276 32.2804 130.235 32.1872 130.235 32.0806C130.235 31.9672 130.274 31.8704 130.354 31.7901C130.434 31.7098 130.527 31.6695 130.634 31.6691L130.984 31.6678C130.897 31.6014 130.846 31.5083 130.832 31.3883C130.819 31.2684 130.848 31.1649 130.921 31.078C131.021 30.9643 131.127 30.8306 131.24 30.6768C131.353 30.5164 131.459 30.356 131.558 30.1956C131.664 30.0286 131.75 29.8816 131.816 29.7547C131.876 29.6411 131.966 29.5708 132.086 29.5437C132.206 29.5099 132.319 29.5195 132.426 29.5724C132.539 29.6253 132.616 29.7084 132.657 29.8216C132.697 29.9347 132.688 30.0481 132.628 30.1617C132.615 30.1884 132.598 30.2184 132.578 30.2519C132.565 30.2852 132.549 30.3186 132.529 30.352C132.616 30.4051 132.712 30.468 132.819 30.541C132.926 30.6072 133.006 30.6569 133.06 30.6901C133.2 30.7829 133.261 30.9127 133.241 31.0794C133.387 30.8922 133.53 30.6817 133.669 30.4478C133.808 30.2073 133.924 29.9935 134.017 29.8065C134.07 29.693 134.156 29.6193 134.276 29.5856C134.396 29.5518 134.512 29.5613 134.626 29.6143C134.592 29.4811 134.615 29.3576 134.695 29.244C134.854 29.0234 135.006 28.7695 135.152 28.4823C135.304 28.1884 135.433 27.9279 135.539 27.7009C135.598 27.5673 135.691 27.4803 135.818 27.4398C135.951 27.3993 136.078 27.4055 136.198 27.4584C136.331 27.5113 136.418 27.5943 136.459 27.7075C136.506 27.8206 136.503 27.9373 136.45 28.0575C136.437 28.0909 136.42 28.1276 136.401 28.1677C136.387 28.2011 136.374 28.2378 136.361 28.2778L138.981 28.2681C139.101 28.2677 139.201 28.3106 139.281 28.397C139.368 28.4767 139.412 28.5765 139.413 28.6965C139.413 28.8165 139.37 28.92 139.284 29.007C139.204 29.0873 139.104 29.1277 138.984 29.1281L137.564 29.1334C137.578 29.16 137.591 29.1899 137.605 29.2232C137.618 29.2498 137.628 29.2731 137.635 29.2931C137.689 29.4196 137.686 29.5429 137.626 29.6631C137.567 29.7767 137.47 29.8604 137.337 29.9142C137.204 29.9614 137.074 29.9652 136.947 29.9257C136.827 29.8794 136.743 29.7931 136.696 29.6666C136.669 29.5934 136.636 29.5068 136.595 29.407C136.561 29.3004 136.528 29.2105 136.494 29.1373L135.914 29.1395C135.861 29.2397 135.805 29.3366 135.745 29.4301C135.692 29.517 135.639 29.6038 135.586 29.6907C135.513 29.8043 135.41 29.888 135.277 29.9418C135.144 29.989 135.011 29.9795 134.877 29.9133C134.897 29.9999 134.888 30.09 134.848 30.1834L134.798 30.2836C134.905 30.3499 135.029 30.4294 135.169 30.5223C135.31 30.6151 135.41 30.678 135.47 30.7111C135.57 30.7708 135.631 30.8605 135.651 30.9805C135.671 31.0937 135.645 31.2005 135.572 31.3008C135.499 31.4077 135.399 31.4681 135.273 31.4819C135.153 31.489 135.039 31.4594 134.933 31.3931C134.866 31.3534 134.782 31.297 134.682 31.2241C134.582 31.1511 134.485 31.0815 134.391 31.0151C134.265 31.2223 134.136 31.4128 134.003 31.5866C133.983 31.6133 133.96 31.6367 133.934 31.6568L135.963 31.6493C135.943 31.4294 135.925 31.1995 135.911 30.9595C135.903 30.7195 135.896 30.4696 135.888 30.2096C135.888 30.0496 135.934 29.9227 136.027 29.8291C136.126 29.7354 136.25 29.6882 136.396 29.6877C136.536 29.6872 136.656 29.7334 136.757 29.8264C136.864 29.9193 136.918 30.0424 136.918 30.1958C136.926 30.4624 136.933 30.719 136.941 30.9657C136.955 31.2056 136.973 31.4322 136.993 31.6455L139.133 31.6376C139.24 31.6372 139.33 31.6768 139.404 31.7566C139.484 31.8363 139.525 31.9328 139.525 32.0461C139.525 32.1528 139.486 32.2463 139.406 32.3266C139.333 32.4068 139.243 32.4472 139.136 32.4476L138.546 32.4497C138.794 32.5688 138.868 32.7619 138.769 33.0289C138.643 33.3494 138.501 33.6633 138.342 33.9705C138.183 34.2778 138.008 34.5751 137.815 34.8625C137.882 34.9689 137.95 35.0753 138.017 35.1817C138.09 35.2881 138.171 35.3912 138.258 35.4908C138.338 35.5905 138.405 35.6336 138.458 35.6201C138.512 35.6066 138.561 35.5364 138.607 35.4095C138.634 35.3428 138.657 35.2794 138.677 35.2193C138.696 35.1525 138.72 35.0891 138.746 35.029C138.799 34.8888 138.885 34.7952 139.005 34.7481C139.131 34.6943 139.271 34.7004 139.425 34.7665C139.552 34.8194 139.636 34.9091 139.676 35.0356C139.717 35.1554 139.71 35.2821 139.657 35.4157C139.624 35.5024 139.582 35.6159 139.529 35.7561C139.476 35.8897 139.42 36.0199 139.36 36.1468C139.135 36.6143 138.86 36.8653 138.533 36.8998C138.213 36.941 137.906 36.7988 137.611 36.4732C137.518 36.3669 137.427 36.2539 137.34 36.1342C137.253 36.0212 137.169 35.9015 137.089 35.7752C136.744 36.1498 136.358 36.4912 135.933 36.7995ZM133.367 29.9789C133.234 30.0261 133.104 30.0299 132.977 29.9904C132.857 29.9508 132.774 29.8645 132.726 29.7313C132.706 29.6714 132.672 29.5815 132.625 29.4617C132.578 29.3418 132.538 29.2387 132.504 29.1521L131.814 29.1547C131.748 29.2683 131.682 29.3818 131.615 29.4954C131.549 29.6023 131.483 29.7026 131.417 29.7962C131.33 29.9165 131.211 29.9969 131.057 30.0375C130.911 30.078 130.768 30.0552 130.627 29.9691C130.52 29.8961 130.457 29.793 130.436 29.6598C130.416 29.5265 130.445 29.4098 130.525 29.3095C130.704 29.0755 130.88 28.8048 131.052 28.4975C131.231 28.1835 131.376 27.9096 131.489 27.6759C131.548 27.5423 131.641 27.4586 131.768 27.4248C131.901 27.3843 132.028 27.3905 132.148 27.4434C132.275 27.4963 132.358 27.5793 132.399 27.6925C132.439 27.8057 132.433 27.9257 132.38 28.0526C132.367 28.086 132.35 28.1227 132.331 28.1628C132.311 28.2028 132.291 28.2462 132.271 28.293L134.471 28.2848C134.591 28.2844 134.691 28.3273 134.771 28.4137C134.858 28.4934 134.902 28.5932 134.903 28.7132C134.903 28.8332 134.86 28.9367 134.774 29.0237C134.694 29.104 134.594 29.1444 134.474 29.1448L133.574 29.1482C133.621 29.248 133.648 29.3145 133.655 29.3479C133.709 29.481 133.706 29.6077 133.646 29.7279C133.593 29.8414 133.5 29.9251 133.367 29.9789ZM135.788 35.61C135.934 35.4895 136.074 35.3623 136.207 35.2284C136.346 35.0879 136.479 34.9441 136.605 34.797C136.356 34.1512 136.17 33.3719 136.046 32.459L134.347 32.4653L134.348 32.7353L135.487 32.7311C135.581 32.7307 135.658 32.7605 135.718 32.8202C135.778 32.88 135.808 32.9532 135.809 33.0399C135.809 33.1266 135.779 33.2033 135.719 33.2702C135.66 33.3305 135.583 33.3607 135.49 33.3611L134.35 33.3653L134.351 33.6153L135.491 33.6111C135.584 33.6107 135.661 33.6405 135.721 33.7002C135.781 33.76 135.812 33.8366 135.812 33.9299C135.812 34.0166 135.783 34.09 135.723 34.1502C135.663 34.2104 135.586 34.2407 135.493 34.2411L134.353 34.2453L134.354 34.5053L135.494 34.5011C135.587 34.5007 135.664 34.5304 135.724 34.5902C135.785 34.65 135.815 34.7232 135.815 34.8099C135.816 34.8966 135.786 34.9733 135.726 35.0402C135.666 35.1004 135.59 35.1307 135.496 35.1311L134.356 35.1353L134.358 35.4953C134.551 35.4812 134.731 35.4639 134.898 35.4433C135.064 35.4227 135.221 35.4054 135.367 35.3916C135.574 35.3775 135.714 35.4503 135.788 35.61ZM132.898 35.6307L133.348 35.589L133.337 32.4691L132.887 32.4707L132.898 35.6307ZM138.583 31.3796C138.483 31.46 138.37 31.4971 138.243 31.4909C138.116 31.478 138.009 31.4217 137.922 31.3221C137.862 31.2489 137.775 31.1493 137.661 31.023C137.547 30.8901 137.46 30.7904 137.4 30.724C137.32 30.6376 137.283 30.5344 137.289 30.4144C137.302 30.2943 137.355 30.1975 137.448 30.1238C137.548 30.0301 137.657 29.9864 137.777 29.9926C137.897 29.9988 138.004 30.0484 138.098 30.1414C138.158 30.2012 138.248 30.2942 138.369 30.4204C138.489 30.5399 138.583 30.6396 138.65 30.7194C138.744 30.819 138.784 30.9322 138.771 31.0589C138.758 31.1856 138.696 31.2925 138.583 31.3796ZM137.341 33.7442C137.533 33.4102 137.699 33.0662 137.837 32.7124C137.89 32.5855 137.96 32.4986 138.046 32.4516L137.076 32.4552C137.111 32.6951 137.148 32.9216 137.189 33.1348C137.236 33.3479 137.287 33.5511 137.341 33.7442ZM131.594 31.6655L133.244 31.6594C133.15 31.5664 133.109 31.4599 133.122 31.3398C133.043 31.4201 132.946 31.4672 132.833 31.4809C132.726 31.488 132.626 31.4584 132.533 31.392C132.486 31.3589 132.419 31.3125 132.332 31.2528C132.252 31.1864 132.172 31.1234 132.091 31.0637C132.025 31.1506 131.959 31.2408 131.892 31.3344C131.833 31.4213 131.77 31.5015 131.703 31.5751C131.677 31.6152 131.64 31.6453 131.594 31.6655Z" fill="#FE585B"/>
<path d="M73.6047 58.9676C73.3169 59.0113 73.066 58.9642 72.8522 58.8264C72.6384 58.6992 72.5043 58.497 72.4499 58.2198C72.4062 57.9427 72.4641 57.7131 72.6234 57.5312C72.7827 57.3493 72.9956 57.2365 73.2621 57.1928C73.5499 57.1384 73.875 57.0732 74.2374 56.9972C74.6105 56.9212 75.0049 56.845 75.4206 56.7688L75.4137 54.9128C74.9985 55.1384 74.578 55.3479 74.152 55.5415C73.7367 55.7244 73.3266 55.8912 72.9219 56.0421C72.6129 56.1499 72.3463 56.1615 72.122 56.077C71.8977 55.9925 71.7317 55.8225 71.6241 55.5669C71.5379 55.3432 71.5424 55.1245 71.6377 54.9108C71.7328 54.6865 71.9349 54.5204 72.2438 54.4126C73.192 54.0891 74.0759 53.7071 74.8956 53.2667C75.7259 52.8157 76.4495 52.3276 77.0662 51.8027L72.2822 51.8204C72.0689 51.8212 71.8873 51.7472 71.7374 51.5984C71.5875 51.4497 71.5122 51.2686 71.5114 51.0553C71.5106 50.8419 71.5846 50.6603 71.7333 50.5104C71.8821 50.3606 72.0632 50.2852 72.2765 50.2844L78.0205 50.2631L78.0173 49.3991L74.0973 49.4137C73.8946 49.4144 73.7184 49.3404 73.5685 49.1916C73.4186 49.0429 73.3433 48.8671 73.3425 48.6645C73.3418 48.4618 73.4158 48.2909 73.5646 48.1516C73.7134 48.0018 73.8891 47.9264 74.0918 47.9257L78.0118 47.9112L78.0087 47.0792L72.8247 47.0984C72.622 47.0991 72.4458 47.0251 72.2959 46.8763C72.146 46.7276 72.0707 46.5518 72.0699 46.3492C72.0691 46.1358 72.1432 45.9596 72.292 45.8203C72.4407 45.6705 72.6165 45.5951 72.8191 45.5944L78.0031 45.5752L78.001 45.0152C77.9999 44.7165 78.095 44.4815 78.2864 44.3101C78.4777 44.1281 78.7067 44.0366 78.9734 44.0356C79.2507 44.0345 79.4804 44.1244 79.6624 44.305C79.855 44.475 79.9519 44.7093 79.953 45.0079L79.9551 45.5679L85.0911 45.5489C85.3044 45.5481 85.4807 45.6221 85.6199 45.7709C85.7697 45.9091 85.845 46.0848 85.8458 46.2981C85.8466 46.5008 85.7726 46.6771 85.6238 46.8269C85.4857 46.9768 85.31 47.0521 85.0966 47.0529L79.9607 47.0719L79.9637 47.9039L83.8837 47.8894C84.097 47.8886 84.2733 47.9626 84.4125 48.1114C84.5517 48.2496 84.6217 48.42 84.6224 48.6227C84.6232 48.8253 84.5545 49.0016 84.4164 49.1514C84.2783 49.3013 84.1026 49.3766 83.8892 49.3774L79.9693 49.3919L79.9725 50.2559L85.6364 50.2349C85.8498 50.2341 86.0314 50.3081 86.1813 50.4569C86.3311 50.6057 86.4065 50.7867 86.4073 51.0001C86.4081 51.2134 86.3341 51.395 86.1853 51.5449C86.0365 51.6948 85.8554 51.7701 85.6421 51.7709L80.2662 51.7908C80.4702 52.1527 80.6848 52.5039 80.9101 52.8444C81.146 53.1742 81.3871 53.488 81.6336 53.7858C81.889 53.6248 82.1656 53.4425 82.4635 53.2387C82.7721 53.0349 83.0594 52.8365 83.3253 52.6435C83.602 52.4505 83.8147 52.295 83.9636 52.1771C84.155 52.0164 84.3787 51.9409 84.6348 51.9506C84.9014 51.9496 85.1098 52.0555 85.26 52.2683C85.41 52.4704 85.4749 52.6889 85.4544 52.9236C85.4339 53.1584 85.328 53.3507 85.1365 53.5008C84.8812 53.6937 84.5301 53.935 84.0832 54.2247C83.6469 54.5037 83.2265 54.7612 82.8221 54.9974C83.2608 55.3904 83.7262 55.7514 84.2181 56.0802C84.7206 56.3984 85.2444 56.6951 85.7894 56.9704C86.0031 57.0763 86.1531 57.2517 86.2393 57.4967C86.3255 57.7311 86.3051 57.9712 86.178 58.217C86.0403 58.4841 85.8276 58.6449 85.5398 58.6993C85.252 58.7537 84.9745 58.7121 84.7073 58.5744C83.4248 57.8965 82.2643 57.0368 81.2257 55.9953C80.1872 54.9431 79.3668 53.7728 78.7647 52.4844C78.3183 52.9127 77.8238 53.3306 77.2813 53.7379L77.2911 56.3779C77.7388 56.2909 78.1598 56.204 78.5542 56.1172C78.9592 56.0197 79.3055 55.9331 79.5932 55.8574C79.8596 55.7924 80.0944 55.8075 80.2974 55.9027C80.5004 55.998 80.629 56.1682 80.6833 56.4133C80.759 56.701 80.7279 56.9358 80.5899 57.1177C80.4519 57.2888 80.2603 57.4069 80.0152 57.4718C79.6209 57.5799 79.1574 57.699 78.6245 57.829C78.0917 57.9696 77.5269 58.1104 76.9301 58.2512C76.3439 58.3921 75.7631 58.5222 75.1875 58.6417C74.612 58.7612 74.0843 58.8698 73.6047 58.9676ZM95.0294 59.1122C94.7734 59.1131 94.5491 59.0286 94.3564 58.8587C94.1745 58.6887 94.083 58.4597 94.0819 58.1717L94.0763 56.6677L88.2844 56.6891C88.0497 56.69 87.8681 56.6214 87.7396 56.4832C87.611 56.3343 87.5464 56.1585 87.5456 55.9559C87.5449 55.7425 87.6082 55.5663 87.7357 55.4272C87.8632 55.288 88.0442 55.218 88.2789 55.2172L94.0709 55.1957L94.0677 54.3317L92.9317 54.3359C92.2703 54.3384 91.7315 54.303 91.3153 54.2299C90.899 54.1568 90.5732 54.0193 90.3377 53.8175C90.113 53.6157 89.9573 53.3283 89.8705 52.9552C89.7838 52.5822 89.7394 52.1024 89.7372 51.5157C89.735 50.9291 89.7759 50.4542 89.8599 50.0913C89.9439 49.7176 90.0975 49.429 90.3207 49.2255C90.5546 49.022 90.8794 48.8821 91.2952 48.8059C91.7109 48.7297 92.2494 48.6904 92.9107 48.6879L97.0387 48.6726C97.7 48.6702 98.2388 48.7055 98.6551 48.7786C99.0714 48.8518 99.3919 48.9893 99.6167 49.1911C99.8521 49.3929 100.013 49.6803 100.1 50.0533C100.187 50.4157 100.231 50.8902 100.233 51.4768C100.235 52.0635 100.194 52.5436 100.11 52.9173C100.027 53.2909 99.8676 53.5795 99.6337 53.7831C99.4104 53.9866 99.0909 54.1264 98.6752 54.2026C98.2595 54.2788 97.721 54.3181 97.0596 54.3206L95.9397 54.3248L95.9429 55.1887L101.751 55.1672C101.985 55.1663 102.167 55.235 102.296 55.3732C102.424 55.5114 102.489 55.6872 102.49 55.9005C102.49 56.1032 102.427 56.2794 102.299 56.4292C102.172 56.5683 101.991 56.6383 101.756 56.6392L95.9483 56.6607L95.9539 58.1647C95.955 58.4527 95.8651 58.6824 95.6844 58.8537C95.5037 59.0251 95.2854 59.1112 95.0294 59.1122ZM98.2526 48.1081C97.4633 48.1111 96.8658 48.0599 96.46 47.9548C96.0543 47.8496 95.7816 47.6586 95.6419 47.3818C95.5129 47.105 95.4474 46.7105 95.4455 46.1985C95.4436 45.6865 95.5062 45.2916 95.6331 45.0138C95.7708 44.736 96.0421 44.5483 96.4471 44.4508C96.852 44.3426 97.4491 44.2871 98.2385 44.2842C99.0278 44.2812 99.62 44.3324 100.015 44.4376C100.421 44.5321 100.688 44.7178 100.817 44.9946C100.957 45.2714 101.028 45.6658 101.029 46.1778C101.031 46.6898 100.964 47.0847 100.826 47.3626C100.699 47.6404 100.433 47.8334 100.028 47.9416C99.6338 48.0497 99.042 48.1052 98.2526 48.1081ZM91.6927 48.1325C90.9033 48.1354 90.3058 48.0843 89.9001 47.9791C89.505 47.8739 89.2377 47.6829 89.098 47.4061C88.9689 47.1292 88.9035 46.7348 88.9016 46.2228C88.8997 45.7108 88.9622 45.3159 89.0892 45.0381C89.2268 44.7602 89.4928 44.5726 89.8871 44.4751C90.292 44.3669 90.8892 44.3114 91.6785 44.3085C92.4678 44.3056 93.06 44.3567 93.4551 44.4619C93.8501 44.5564 94.1121 44.7421 94.2411 45.019C94.3808 45.2958 94.4516 45.6902 94.4535 46.2022C94.4554 46.7142 94.3876 47.1091 94.2499 47.387C94.123 47.6648 93.8623 47.8577 93.4681 47.9659C93.0738 48.074 92.482 48.1295 91.6927 48.1325ZM98.2478 46.8121C98.7065 46.8104 98.9943 46.772 99.1114 46.6969C99.2391 46.6218 99.3025 46.4509 99.3015 46.1842C99.3005 45.9069 99.2305 45.7365 99.0916 45.673C98.9634 45.6095 98.6806 45.5785 98.2433 45.5802C97.7846 45.5819 97.4914 45.6203 97.3637 45.6954C97.2466 45.7705 97.1886 45.9467 97.1896 46.2241C97.1906 46.4907 97.2499 46.6558 97.3675 46.7194C97.4957 46.7829 97.7892 46.8138 98.2478 46.8121ZM91.6879 46.8365C92.1465 46.8348 92.4344 46.7964 92.5514 46.7213C92.6685 46.6462 92.7265 46.4753 92.7255 46.2086C92.7245 45.9313 92.6599 45.7608 92.5317 45.6973C92.4034 45.6338 92.1206 45.6028 91.6833 45.6045C91.2246 45.6062 90.9314 45.6446 90.8037 45.7197C90.6867 45.7948 90.6287 45.971 90.6297 46.2484C90.6307 46.515 90.6899 46.6802 90.8075 46.7437C90.9358 46.8072 91.2292 46.8382 91.6879 46.8365ZM92.9906 52.9757L94.0626 52.9717L94.0595 52.1237L91.6275 52.1327C91.6502 52.506 91.7524 52.7403 91.9341 52.8356C92.1158 52.9309 92.468 52.9776 92.9906 52.9757ZM95.9346 52.9648L97.0066 52.9608C97.5293 52.9589 97.8758 52.9096 98.0461 52.8129C98.227 52.7163 98.3328 52.4812 98.3635 52.1078L95.9315 52.1168L95.9346 52.9648ZM91.6228 50.8687L94.0548 50.8597L94.0518 50.0437L92.9798 50.0477C92.4571 50.0496 92.1053 50.0989 91.9243 50.1956C91.754 50.2816 91.6535 50.5059 91.6228 50.8687ZM95.9268 50.8528L98.3428 50.8438C98.3094 50.4813 98.2019 50.2577 98.0203 50.173C97.8493 50.0776 97.5077 50.0309 96.9958 50.0328L95.9238 50.0368L95.9268 50.8528ZM110.757 58.8619C110.522 58.9374 110.309 58.9382 110.117 58.8642C109.924 58.8009 109.785 58.6681 109.699 58.4658C109.613 58.2421 109.618 58.0447 109.713 57.8737C109.808 57.7027 109.973 57.5794 110.208 57.5039C110.495 57.4068 110.815 57.2883 111.166 57.1483C111.528 57.0083 111.859 56.8684 112.157 56.7287C111.474 56.6779 110.999 56.5036 110.731 56.2059C110.463 55.9083 110.328 55.4341 110.325 54.7834L110.323 54.1114C110.32 53.3861 110.489 52.8788 110.829 52.5896C111.17 52.2896 111.798 52.138 112.716 52.1346L113.132 52.133L113.13 51.717L109.93 51.7289C109.86 53.0518 109.705 54.2524 109.463 55.3306C109.222 56.4089 108.884 57.3915 108.45 58.2784C108.344 58.4815 108.18 58.6207 107.956 58.6962C107.743 58.7824 107.53 58.7778 107.316 58.6826C107.102 58.5767 106.963 58.4173 106.898 58.2042C106.833 58.0017 106.854 57.799 106.96 57.5959C107.489 56.5806 107.864 55.4592 108.083 54.2317C108.314 53.0042 108.425 51.5531 108.419 49.8785L108.412 47.9585C108.41 47.2865 108.498 46.7635 108.678 46.3895C108.858 46.0048 109.161 45.737 109.587 45.5861C110.013 45.4245 110.594 45.3424 111.33 45.3396L112.674 45.3347L112.672 44.5987C112.671 44.3533 112.755 44.1504 112.925 43.9897C113.106 43.8184 113.319 43.7323 113.565 43.7314C113.81 43.7304 114.018 43.815 114.189 43.985C114.371 44.1444 114.463 44.3467 114.464 44.592L114.466 45.328L117.906 45.3153C118.088 45.3146 118.237 45.378 118.355 45.5056C118.484 45.6331 118.548 45.7876 118.549 45.9689C118.55 46.1502 118.486 46.3051 118.359 46.4336C118.242 46.562 118.093 46.6266 117.911 46.6273L116.231 46.6335L116.234 47.3695L117.626 47.3643C117.818 47.3636 117.962 47.4217 118.059 47.5387C118.166 47.6557 118.22 47.7941 118.22 47.9541C118.221 48.1248 118.168 48.269 118.062 48.3867C117.966 48.5044 117.822 48.5636 117.63 48.5643L116.238 48.5695C116.24 48.9961 116.177 49.3324 116.05 49.5782C115.934 49.8133 115.705 49.9795 115.364 50.0767C115.023 50.174 114.522 50.2238 113.861 50.2263C113.21 50.2287 112.708 50.1826 112.356 50.0879C112.014 49.9931 111.779 49.8287 111.65 49.5945C111.532 49.3496 111.467 49.0138 111.454 48.5872L109.967 48.5927L109.971 49.8727C109.972 49.9794 109.972 50.086 109.972 50.1927C109.973 50.2887 109.968 50.3901 109.958 50.4968L117.974 50.4671C118.144 50.4664 118.288 50.5246 118.406 50.6415C118.524 50.7584 118.583 50.9021 118.584 51.0728C118.584 51.2435 118.526 51.393 118.409 51.5214C118.293 51.6392 118.149 51.6984 117.978 51.699L114.666 51.7113L114.668 52.1273L115.084 52.1258C116.001 52.1224 116.631 52.2694 116.973 52.5668C117.316 52.8535 117.488 53.3595 117.491 54.0849L117.493 54.7569C117.496 55.3969 117.37 55.872 117.115 56.1823C116.86 56.4819 116.391 56.6596 115.709 56.7155C116.008 56.8531 116.334 56.9905 116.686 57.1279C117.049 57.2652 117.375 57.3813 117.663 57.4763C118.176 57.645 118.348 57.9644 118.179 58.4343C118.105 58.6373 117.967 58.7711 117.765 58.8359C117.573 58.9113 117.359 58.9121 117.125 58.8383C116.761 58.7116 116.371 58.5477 115.955 58.3466C115.538 58.1455 115.143 57.9496 114.769 57.759C114.597 57.6636 114.485 57.5307 114.431 57.3602C114.388 57.1897 114.403 57.019 114.477 56.8481C114.509 56.8159 114.53 56.7785 114.541 56.7358L113.309 56.7404C113.33 56.7723 113.352 56.8096 113.373 56.8522C113.459 57.0225 113.481 57.1931 113.439 57.3639C113.397 57.5347 113.286 57.6685 113.105 57.7652C112.743 57.9585 112.349 58.1573 111.923 58.3615C111.507 58.5657 111.119 58.7325 110.757 58.8619ZM104.725 58.9002C104.458 58.9012 104.25 58.8273 104.1 58.6785C103.95 58.5298 103.864 58.3327 103.842 58.0875C103.819 57.8636 103.872 57.666 103.999 57.4949C104.127 57.3238 104.308 57.2218 104.542 57.1889C104.809 57.1559 104.979 57.1019 105.054 57.027C105.128 56.9414 105.165 56.7759 105.164 56.5306L105.151 53.1226C105.034 53.1657 104.917 53.2088 104.8 53.2519C104.693 53.2843 104.597 53.3167 104.512 53.349C104.246 53.446 104.006 53.4415 103.792 53.3356C103.578 53.2298 103.434 53.0543 103.358 52.8092C103.282 52.5535 103.298 52.3295 103.404 52.1371C103.51 51.934 103.701 51.7946 103.978 51.7189C104.149 51.665 104.33 51.611 104.521 51.5569C104.724 51.4922 104.932 51.4274 105.145 51.3626L105.135 48.7546L104.111 48.7584C103.876 48.7593 103.684 48.6853 103.534 48.5366C103.395 48.3771 103.325 48.1853 103.324 47.9613C103.323 47.748 103.392 47.5664 103.53 47.4166C103.679 47.256 103.871 47.1753 104.105 47.1744L105.129 47.1706L105.12 44.7547C105.119 44.5093 105.193 44.3171 105.342 44.1778C105.502 44.0386 105.688 43.9685 105.901 43.9678C106.125 43.9669 106.312 44.0356 106.462 44.1737C106.623 44.3118 106.703 44.5035 106.704 44.7488L106.713 47.1648L107.257 47.1628C107.503 47.1618 107.695 47.2411 107.834 47.4006C107.973 47.5494 108.043 47.7305 108.044 47.9438C108.045 48.1678 107.976 48.3601 107.838 48.5206C107.7 48.6705 107.508 48.7458 107.263 48.7467L106.719 48.7488L106.727 50.8287L107.078 50.6994C107.302 50.6239 107.505 50.6285 107.686 50.7132C107.879 50.7871 108.013 50.9413 108.088 51.1757C108.239 51.6765 108.07 52.0184 107.58 52.2016C107.473 52.2447 107.346 52.2985 107.196 52.363C107.058 52.4169 106.904 52.4761 106.733 52.5407L106.749 56.8927C106.752 57.5754 106.594 58.0773 106.275 58.3985C105.956 58.7303 105.439 58.8976 104.725 58.9002ZM113.05 47.3813L114.634 47.3754L114.631 46.6394L113.047 46.6453L113.05 47.3813ZM109.994 47.3926L111.45 47.3872L111.447 46.6512L111.335 46.6516C110.909 46.6532 110.589 46.7077 110.376 46.8152C110.174 46.9119 110.046 47.1044 109.994 47.3926ZM112.745 55.6385L113.145 55.637L113.142 54.949L111.878 54.9537C111.89 55.2416 111.955 55.4281 112.072 55.513C112.19 55.5979 112.414 55.6397 112.745 55.6385ZM114.681 55.6313L115.081 55.6298C115.411 55.6286 115.635 55.5851 115.752 55.4993C115.869 55.4136 115.932 55.2267 115.942 54.9386L114.678 54.9433L114.681 55.6313ZM113.84 49.1064C114.15 49.1052 114.352 49.0725 114.448 49.0081C114.555 48.9437 114.613 48.7995 114.622 48.5755L113.054 48.5813C113.066 48.8052 113.125 48.949 113.232 49.0126C113.339 49.0762 113.542 49.1075 113.84 49.1064ZM111.874 53.8657L113.138 53.861L113.136 53.237L112.736 53.2385C112.416 53.2397 112.197 53.2832 112.08 53.3689C111.963 53.444 111.894 53.6096 111.874 53.8657ZM114.674 53.8553L115.938 53.8506C115.926 53.5947 115.856 53.4296 115.728 53.3554C115.611 53.2705 115.392 53.2286 115.072 53.2298L114.672 53.2313L114.674 53.8553ZM123.236 58.6396C122.991 58.6832 122.772 58.6413 122.579 58.514C122.387 58.3974 122.274 58.2058 122.241 57.9393C122.208 57.6941 122.261 57.4965 122.399 57.3467C122.548 57.1861 122.739 57.0841 122.974 57.0406L124.525 56.7948L124.514 53.7228L122.45 53.7305C122.242 55.2566 121.815 56.7142 121.17 58.1033C121.064 58.3383 120.878 58.5043 120.612 58.6013C120.356 58.7089 120.1 58.7046 119.844 58.5882C119.609 58.4824 119.459 58.3123 119.394 58.0778C119.329 57.8541 119.349 57.6247 119.455 57.3896C119.974 56.289 120.343 55.1196 120.562 53.8815C120.792 52.6326 120.904 51.1709 120.898 49.4962L120.889 47.2082C120.887 46.4722 120.97 45.9013 121.139 45.4953C121.319 45.0893 121.627 44.8055 122.064 44.6439C122.501 44.4822 123.108 44.4 123.887 44.3971L130.639 44.3721C131.364 44.3694 131.914 44.426 132.288 44.542C132.661 44.6472 132.913 44.8436 133.042 45.1312C133.182 45.4187 133.252 45.8237 133.254 46.3464C133.256 46.8584 133.194 47.264 133.067 47.5631C132.94 47.8516 132.69 48.0605 132.317 48.1899C131.955 48.3086 131.422 48.3692 130.718 48.3718L130.722 49.5558L132.738 49.5483C132.952 49.5475 133.122 49.6162 133.251 49.7544C133.379 49.8926 133.444 50.0577 133.445 50.2497C133.446 50.4524 133.382 50.6233 133.255 50.7624C133.127 50.8909 132.957 50.9555 132.743 50.9563L130.727 50.9638L130.732 52.1318L133.452 52.1217C133.697 52.1208 133.889 52.2001 134.029 52.3596C134.168 52.5084 134.238 52.6895 134.239 52.9028C134.239 53.1161 134.171 53.303 134.033 53.4636C133.895 53.6134 133.703 53.6888 133.458 53.6897L133.058 53.6912C133.143 53.8509 133.171 54.0268 133.14 54.2189C133.119 54.4003 133.034 54.5553 132.885 54.6838C132.747 54.8123 132.529 54.9891 132.231 55.2142C131.933 55.4393 131.651 55.6484 131.386 55.8414C131.728 56.0534 132.086 56.2548 132.46 56.4454C132.834 56.6254 133.229 56.7946 133.646 56.953C133.881 57.0375 134.047 57.1862 134.143 57.3992C134.251 57.6228 134.246 57.8575 134.13 58.1032C134.013 58.349 133.827 58.5097 133.572 58.5853C133.316 58.6716 133.065 58.6618 132.82 58.5561C131.591 58.0486 130.506 57.3967 129.564 56.6001C128.633 55.8036 127.867 54.8411 127.266 53.7126L126.306 53.7162L126.316 56.5162C126.764 56.4398 127.153 56.3744 127.483 56.3198C127.824 56.2653 128.027 56.2325 128.091 56.2216C128.368 56.1779 128.587 56.2198 128.747 56.3472C128.908 56.4639 129.01 56.6289 129.053 56.842C129.086 57.0766 129.049 57.2794 128.943 57.4504C128.848 57.6215 128.673 57.7341 128.417 57.7884C128.353 57.7993 128.188 57.8266 127.921 57.8702C127.655 57.9139 127.335 57.9631 126.962 58.0178C126.588 58.0832 126.194 58.1486 125.778 58.2142C125.373 58.2903 124.984 58.3558 124.611 58.4105C124.249 58.4759 123.939 58.525 123.684 58.5579C123.438 58.6015 123.289 58.6287 123.236 58.6396ZM122.697 46.9615L130.504 46.9326C130.878 46.9312 131.118 46.893 131.224 46.8179C131.33 46.7429 131.383 46.5987 131.382 46.3853C131.382 46.172 131.328 46.0282 131.221 45.9539C131.114 45.8797 130.879 45.8432 130.516 45.8445L124.005 45.8687C123.482 45.8706 123.135 45.9466 122.965 46.0965C122.795 46.2465 122.706 46.5348 122.697 46.9615ZM122.62 52.1618L125.148 52.1525L125.143 50.9845L123.783 50.9895C123.559 50.9904 123.383 50.927 123.255 50.7995C123.126 50.6613 123.062 50.4909 123.061 50.2882C123.06 50.0962 123.124 49.9306 123.251 49.7915C123.379 49.6524 123.554 49.5824 123.778 49.5815L125.138 49.5765L125.134 48.3925L122.702 48.4015L122.706 49.4575C122.709 50.4282 122.681 51.3296 122.62 52.1618ZM126.882 49.57L128.978 49.5623L128.974 48.3783L126.878 48.386L126.882 49.57ZM126.892 52.146L128.988 52.1382L128.983 50.9703L126.887 50.978L126.892 52.146ZM130.102 54.8221C130.314 54.6507 130.554 54.4631 130.82 54.2595C131.096 54.0451 131.33 53.8576 131.522 53.6969L129.138 53.7057C129.416 54.11 129.738 54.4821 130.102 54.8221Z" fill="black" fill-opacity="0.85"/>
</g>
<defs>
<radialGradient id="paint0_radial_1260_4410" cx="0" cy="0" r="1" gradientUnits="userSpaceOnUse" gradientTransform="translate(0.560609 46.8353) rotate(65.4889) scale(3.32531 8.21233)">
<stop offset="0.33" stop-opacity="0"/>
<stop offset="0.655" stop-opacity="0.6"/>
<stop offset="1"/>
</radialGradient>
<radialGradient id="paint1_radial_1260_4410" cx="0" cy="0" r="1" gradientUnits="userSpaceOnUse" gradientTransform="translate(355.3 45.8572) rotate(114.511) scale(3.32531 8.21233)">
<stop offset="0.33" stop-opacity="0"/>
<stop offset="0.655" stop-opacity="0.6"/>
<stop offset="1"/>
</radialGradient>
<clipPath id="clip0_1260_4410">
<rect width="200" height="90" fill="white"/>
</clipPath>
</defs>
</svg>
