<svg width="200" height="90" viewBox="0 0 200 90" fill="none" xmlns="http://www.w3.org/2000/svg">
<g clip-path="url(#clip0_2439_9861)">
<rect width="200" height="90" fill="#BDE3FF"/>
<path fill-rule="evenodd" clip-rule="evenodd" d="M-6.18027 85.5257C-5.5206 81.3514 -9.94765 77.2571 -7.65473 73.2393C-4.94813 68.4966 -1.65241 61.9915 7.77154 61.0783C17.9972 60.0873 23.5998 68.8258 33.9785 69.2048C45.8176 69.6371 56.5881 60.196 66.8872 63.2371C76.2425 65.9996 70.121 74.0119 68.9752 79.5387C68.1676 83.4341 61.5364 86.4306 61.2669 90.3457C60.8502 96.3973 75.7689 103.853 67.0229 107.895C58.3557 111.9 45.7383 103.802 34.2527 102.83C27.3162 102.243 20.5655 103.925 13.6182 103.373C4.65786 102.66 -7.2514 103.227 -11.7526 99.1698C-16.3208 95.0519 -6.92748 90.2539 -6.18027 85.5257Z" fill="#005EA5"/>
<path fill-rule="evenodd" clip-rule="evenodd" d="M28.4743 10.5302C32.6486 10.8717 36.7429 8.58004 40.7607 9.76696C45.5034 11.168 52.0085 12.874 52.9217 17.7523C53.9127 23.0456 45.1742 25.9458 44.7952 31.3183C44.3629 37.4467 53.804 43.0221 50.7629 48.3534C48.0004 53.1961 39.9881 50.0274 34.4613 49.4342C30.5659 49.0162 27.5694 45.5836 23.6543 45.444C17.6027 45.2284 10.1469 52.9509 6.10508 48.4236C2.09968 43.9371 10.1975 37.4057 11.1701 31.4602C11.7575 27.8695 10.0747 24.3751 10.6274 20.7788C11.3402 16.1405 10.7727 9.97575 14.8302 7.64571C18.9481 5.281 23.7461 10.1434 28.4743 10.5302Z" fill="#2382C9"/>
<path fill-rule="evenodd" clip-rule="evenodd" d="M173.474 4.53021C177.649 4.87169 181.743 2.58004 185.761 3.76696C190.503 5.16803 197.008 6.87405 197.922 11.7523C198.913 17.0456 190.174 19.9458 189.795 25.3183C189.363 31.4467 198.804 37.0221 195.763 42.3534C193 47.1961 184.988 44.0274 179.461 43.4342C175.566 43.0162 172.569 39.5836 168.654 39.444C162.603 39.2284 155.147 46.9509 151.105 42.4236C147.1 37.9371 155.198 31.4057 156.17 25.4602C156.757 21.8695 155.075 18.3751 155.627 14.7788C156.34 10.1405 155.773 3.97575 159.83 1.64571C163.948 -0.719004 168.746 4.14342 173.474 4.53021Z" fill="#69BAF5"/>
<path fill-rule="evenodd" clip-rule="evenodd" d="M117.063 7.20494C131.49 7.9797 144.155 11.9054 154.996 17.5775C166.733 23.7188 176.896 30.8598 179.688 39.9711C183.097 51.0949 184.354 63.7453 171.749 72.2549C158.691 81.0707 136.857 81.4742 117.063 82.2497C95.2362 83.1048 71.8992 84.7511 54.6033 76.8446C35.6156 68.1646 20.8565 53.9771 24.5773 39.9711C28.0889 26.7526 52.1053 19.9805 71.5388 13.0955C85.3864 8.18958 100.98 6.34119 117.063 7.20494Z" fill="#C9F4FF"/>
<path d="M177.967 51.2804L196.726 84.9582L159.338 85.0303L177.967 51.2804Z" fill="#228CDA"/>
<path d="M173.373 78.4648H182.74" stroke="black" stroke-width="2" stroke-linecap="round"/>
<ellipse cx="171.472" cy="68.8528" rx="4.64254" ry="4.79533" transform="rotate(-0.110477 171.472 68.8528)" stroke="#FA8F21" stroke-width="2"/>
<ellipse cx="184.669" cy="68.8098" rx="4.64254" ry="4.79533" transform="rotate(-0.110477 184.669 68.8098)" stroke="#FA8F21" stroke-width="2"/>
<path d="M175.55 68.4703C175.55 68.4703 176.816 68.0521 177.654 68.0318C178.594 68.0091 180.025 68.4617 180.025 68.4617" stroke="#FA8F21" stroke-width="2"/>
<ellipse cx="171.471" cy="68.8518" rx="1.89842" ry="1.9609" transform="rotate(-0.110477 171.471 68.8518)" fill="black"/>
<ellipse cx="184.67" cy="68.8283" rx="1.89842" ry="1.9609" transform="rotate(-0.110477 184.67 68.8283)" fill="black"/>
<path d="M64.7594 37.9155C64.7605 38.1888 64.5143 38.3264 64.021 38.3282C63.5276 38.33 63.2805 38.1943 63.2795 37.9209L63.255 31.331C63.254 31.0577 63.5002 30.9201 63.9935 30.9183C64.4868 30.9164 64.734 31.0522 64.735 31.3255L64.7443 33.8355L67.5443 33.8251L67.535 31.3151C67.534 31.0418 67.7768 30.9042 68.2635 30.9024C68.7568 30.9006 69.004 31.0363 69.005 31.3097L69.0294 37.8996C69.0304 38.173 68.7843 38.3105 68.2909 38.3124C67.8043 38.3142 67.5604 38.1784 67.5594 37.9051L67.5491 35.1151L64.7491 35.1255L64.7594 37.9155ZM73.7977 37.882C73.7988 38.1553 73.5526 38.2929 73.0593 38.2947C72.5659 38.2965 72.3188 38.1608 72.3177 37.8874L72.2964 32.1275L70.6264 32.1337C70.3531 32.1347 70.2156 31.9285 70.2141 31.5152C70.2126 31.1019 70.3485 30.8947 70.6218 30.8937L75.4618 30.8757C75.7351 30.8747 75.8725 31.0809 75.8741 31.4942C75.8756 31.9076 75.7397 32.1147 75.4664 32.1157L73.7764 32.122L73.7977 37.882ZM77.7592 38.2773C77.3192 38.2789 77.0987 38.1431 77.0977 37.8697L77.0735 31.3498C77.0724 31.0298 77.2318 30.8692 77.5518 30.868L78.2618 30.8654C78.5618 30.8643 78.7589 31.0035 78.8533 31.2832L80.409 35.5074C80.4629 35.6672 80.5162 35.667 80.569 35.5068L82.0133 31.2715C82.1056 30.9911 82.3017 30.8504 82.6017 30.8493L83.3117 30.8466C83.6317 30.8455 83.7923 31.0049 83.7935 31.3249L83.8177 37.8448C83.8187 38.1182 83.5925 38.2557 83.1392 38.2573C82.6925 38.259 82.4687 38.1232 82.4677 37.8498L82.4577 35.1698C82.4558 34.6565 82.4995 33.8463 82.5887 32.7393L81.0152 37.1752C80.9162 37.4556 80.7167 37.5963 80.4167 37.5974C80.1501 37.5984 79.9729 37.4757 79.8854 37.2294L78.2588 32.7554C78.3635 34.0217 78.4165 34.8315 78.4178 35.1848L78.4277 37.8648C78.4287 38.1381 78.2059 38.2756 77.7592 38.2773ZM86.1143 38.2463C85.7943 38.2475 85.6337 38.0881 85.6326 37.7681L85.6084 31.2481C85.6074 30.9748 85.8535 30.8372 86.3469 30.8354C86.8402 30.8336 87.0874 30.9693 87.0884 31.2427L87.1088 36.7426C87.1094 36.9159 87.1964 37.0023 87.3697 37.0017L89.7097 36.993C89.983 36.992 90.1205 37.1981 90.122 37.6115C90.1235 38.0248 89.9876 38.232 89.7143 38.233L86.1143 38.2463ZM93.266 38.3598C92.2727 38.3635 91.5418 38.1262 91.0734 37.6479C90.866 37.4554 90.8751 37.202 91.1006 36.8878C91.3261 36.5737 91.5559 36.5195 91.79 36.7253C92.0711 37.0176 92.4983 37.1626 93.0716 37.1605C93.4649 37.1591 93.7812 37.0379 94.0203 36.797C94.2594 36.5561 94.3781 36.2223 94.3766 35.7957C94.375 35.369 94.2604 35.0394 94.0329 34.8069C93.8054 34.5744 93.5016 34.4589 93.1216 34.4603L92.5719 34.5524L92.3723 34.6631C92.1328 34.7906 91.8994 34.7815 91.6722 34.6357C91.4517 34.4898 91.3476 34.2802 91.3599 34.0068L91.5099 31.2963C91.522 30.9762 91.6847 30.8156 91.9981 30.8145L95.0781 30.803C95.3514 30.802 95.4888 31.0082 95.4903 31.4215C95.4919 31.8348 95.356 32.042 95.0826 32.043L93.0627 32.0505C92.8893 32.0512 92.7963 32.1382 92.7836 32.3116L92.6875 33.3619C92.6748 33.5353 92.7517 33.6017 92.9183 33.5611L93.5577 33.4087C94.2177 33.4062 94.7618 33.6042 95.1899 34.0026C95.6247 34.401 95.8436 34.9902 95.8465 35.7702C95.8494 36.5502 95.5984 37.1778 95.0934 37.653C94.5952 38.1215 93.986 38.3571 93.266 38.3598ZM99.6435 36.4962C99.7622 36.1624 99.9718 36.0383 100.272 36.1238C100.579 36.2094 100.673 36.4123 100.554 36.7328C100.403 37.1933 100.194 37.6108 99.929 37.9851C99.7965 38.1989 99.5999 38.2163 99.3392 38.0373C99.0785 37.8583 99.0178 37.6651 99.157 37.458C99.3693 37.1772 99.5315 36.8566 99.6435 36.4962ZM102.156 31.6768L100.676 31.6823L100.868 32.2616C100.962 32.5679 100.853 32.765 100.54 32.8528L100.29 32.9237L101.73 32.9184L102.156 31.6768ZM103.267 34.6627C103.54 34.6617 103.677 34.8279 103.679 35.1612C103.68 35.4945 103.544 35.6617 103.27 35.6627L102.13 35.6669L102.141 38.5769C102.142 38.8502 101.949 38.9876 101.563 38.9891C101.183 38.9905 100.992 38.8545 100.991 38.5812L100.98 35.6712L99.5304 35.6766C99.2571 35.6776 99.1198 35.5114 99.1186 35.1781C99.1174 34.8448 99.2534 34.6776 99.5267 34.6766L100.977 34.6712L100.974 33.9012L99.4639 33.9068C99.1906 33.9078 99.0533 33.745 99.0521 33.4183C99.0509 33.0917 99.1869 32.9278 99.4603 32.9268L100.02 32.9247L99.8581 32.3553C99.7703 32.0423 99.8829 31.8486 100.196 31.7741L100.546 31.6828L99.6057 31.6863C99.3323 31.6873 99.1951 31.5278 99.1939 31.2078C99.1927 30.8811 99.3287 30.7173 99.6021 30.7163L100.902 30.7114L100.741 30.302C100.646 30.0491 100.796 29.8752 101.189 29.7804C101.588 29.6789 101.839 29.7546 101.939 30.0076L102.242 30.7065L103.262 30.7027C103.535 30.7017 103.673 30.8645 103.674 31.1912C103.675 31.5112 103.539 31.6717 103.266 31.6727L102.426 31.6758L102.646 31.725C103.039 31.7969 103.16 32.0164 103.008 32.3837L102.79 32.9145L103.42 32.9121C103.694 32.9111 103.831 33.0739 103.832 33.4006C103.833 33.7273 103.697 33.8911 103.424 33.8921L102.124 33.8969L102.127 34.6669L103.267 34.6627ZM107.881 32.9856C108.154 32.9846 108.291 33.1674 108.293 33.5341C108.294 33.9007 108.158 34.0846 107.885 34.0856L107.365 34.0875L107.381 38.5875C107.382 38.8608 107.189 38.9982 106.803 38.9996C106.416 39.0011 106.222 38.8651 106.221 38.5918L106.205 34.0918L105.275 34.0953L105.275 34.2153C105.283 36.4352 105.012 37.9496 104.462 38.7583C104.363 38.9387 104.159 38.9094 103.852 38.6706C103.544 38.4384 103.446 38.1987 103.559 37.9517L103.837 37.3506L103.478 37.582C103.245 37.7228 103.028 37.6036 102.826 37.2244C102.625 36.8451 102.53 36.5155 102.543 36.2354L102.732 36.0847C102.991 35.9437 103.205 36.003 103.373 36.2623C103.533 36.4817 103.658 36.6979 103.745 36.911C103.832 37.0906 103.892 37.1171 103.925 36.9903C104.097 36.4096 104.18 35.486 104.175 34.2193L104.164 31.1194C104.162 30.8127 104.365 30.6219 104.771 30.5471C105.691 30.377 106.4 30.1711 106.899 29.9292C107.092 29.8418 107.339 29.9443 107.64 30.2365C107.948 30.522 107.999 30.7051 107.792 30.7859C107.306 30.9877 106.577 31.1804 105.605 31.364C105.378 31.4049 105.265 31.512 105.266 31.6853L105.271 32.9953L107.881 32.9856ZM111.522 36.0621C111.775 35.9679 111.942 36.1072 112.024 36.4803C112.105 36.8533 112.022 37.0903 111.776 37.1912L109.5 38.1296C109.253 38.2305 109.063 38.0746 108.928 37.6617C108.793 37.2422 108.855 36.992 109.115 36.9111L109.864 36.6583L109.852 33.3583L109.302 33.3603C109.029 33.3613 108.891 33.1685 108.89 32.7819C108.888 32.3952 109.024 32.2014 109.298 32.2003L109.848 32.1983L109.84 30.2483C109.839 29.975 110.032 29.8376 110.419 29.8362C110.806 29.8347 110.999 29.9707 111 30.244L111.008 32.194L111.528 32.1921C111.801 32.1911 111.938 32.3839 111.94 32.7706C111.941 33.1572 111.805 33.3511 111.532 33.3521L111.012 33.354L111.023 36.244L111.522 36.0621ZM116.503 36.4437C116.503 36.2703 116.416 36.184 116.242 36.1846L114.192 36.1922C114.019 36.1929 113.933 36.2799 113.933 36.4532L113.935 36.7632L116.505 36.7537L116.503 36.4437ZM113.939 37.8532C113.939 38.0265 114.026 38.1129 114.2 38.1122L116.25 38.1046C116.423 38.104 116.509 38.017 116.509 37.8437L116.508 37.6237L113.938 37.6332L113.939 37.8532ZM113.283 39.0156C112.963 39.0168 112.802 38.8574 112.801 38.5374L112.791 35.7774C112.79 35.4574 112.949 35.2968 113.269 35.2956L117.199 35.2811C117.519 35.2799 117.68 35.4393 117.681 35.7593L117.691 38.5193C117.692 38.8393 117.533 38.9999 117.213 39.0011L113.283 39.0156ZM113.62 32.9043C113.446 32.5783 113.465 32.3782 113.678 32.3041C113.898 32.2233 114.102 32.3425 114.289 32.6618L114.44 32.9213C114.515 33.1677 114.509 33.371 114.423 33.5314C114.343 33.685 114.16 33.689 113.873 33.5434L113.62 32.9043ZM116.668 32.323C116.928 32.4087 116.992 32.5685 116.86 32.8023L116.453 33.5238C116.32 33.7577 116.157 33.8383 115.963 33.7656C115.77 33.6864 115.726 33.5232 115.832 33.2761L116.129 32.565C116.235 32.318 116.414 32.2373 116.668 32.323ZM117.058 32.2616C117.057 32.0882 116.97 32.0019 116.797 32.0025L115.617 32.0069L115.624 34.0169L116.804 34.0125C116.978 34.0119 117.064 33.9249 117.063 33.7516L117.058 32.2616ZM113.537 32.0146C113.364 32.0153 113.277 32.1023 113.278 32.2756L113.283 33.7656C113.284 33.9389 113.371 34.0253 113.544 34.0246L114.714 34.0203L114.707 32.0103L113.537 32.0146ZM116.894 31.1922L117.624 31.1895C117.944 31.1883 118.105 31.3477 118.106 31.6677L118.116 34.3677C118.117 34.681 117.957 34.8383 117.637 34.8394L112.757 34.8575C112.444 34.8587 112.287 34.7026 112.286 34.3893L112.276 31.6893C112.275 31.3693 112.434 31.2087 112.754 31.2075L113.534 31.2046L113.081 30.4463C112.947 30.2135 113.056 30.0264 113.409 29.8851C113.769 29.7371 114.019 29.7762 114.16 30.0023L114.441 30.4413C114.616 30.7206 114.553 30.9309 114.253 31.072L113.984 31.203L115.634 31.1968L116.22 30.0047C116.339 29.7642 116.615 29.7099 117.049 29.8416C117.489 29.9733 117.633 30.1494 117.481 30.37L116.894 31.1922ZM125.505 31.3903L125.503 30.9403L124.973 30.9422L124.975 31.3922L125.505 31.3903ZM126.929 32.485C126.928 32.3117 126.841 32.2253 126.668 32.226L126.358 32.2271L126.361 32.9771L126.671 32.976C126.844 32.9753 126.93 32.8883 126.93 32.715L126.929 32.485ZM124.978 32.2322L124.981 32.9822L125.511 32.9803L125.508 32.2303L124.978 32.2322ZM123.858 32.2364C123.685 32.237 123.598 32.324 123.599 32.4973L123.6 32.7273C123.6 32.9007 123.687 32.987 123.861 32.9864L124.141 32.9853L124.138 32.2353L123.858 32.2364ZM124.135 31.3953L124.133 30.9453L122.853 30.9501C122.58 30.9511 122.443 30.7949 122.441 30.4816C122.44 30.1683 122.573 30.0111 122.84 30.0101L127.72 29.992C127.993 29.991 128.13 30.1472 128.131 30.4605C128.132 30.7739 127.996 30.931 127.723 30.932L126.353 30.9371L126.355 31.3871L127.475 31.383C127.795 31.3818 127.955 31.5412 127.956 31.8612L127.962 33.3312C127.963 33.6512 127.804 33.8118 127.484 33.8129L123.124 33.8291C122.804 33.8303 122.643 33.6709 122.642 33.3509L122.637 31.8809C122.635 31.5609 122.795 31.4003 123.115 31.3991L124.135 31.3953ZM127.145 34.1642C127.418 34.1632 127.556 34.3127 127.557 34.6127C127.558 34.9127 127.422 35.0632 127.148 35.0642L123.478 35.0778C123.205 35.0788 123.068 34.9293 123.067 34.6293C123.066 34.3293 123.202 34.1788 123.475 34.1778L127.145 34.1642ZM122.477 34.5815C122.584 34.7478 122.521 34.968 122.289 35.2422C122.063 35.5097 121.897 35.5203 121.789 35.2741L121.456 34.5253L121.471 38.5653C121.472 38.8386 121.293 38.9759 120.933 38.9773C120.573 38.9786 120.392 38.8426 120.391 38.5693L120.377 34.8093C120.081 35.8237 119.82 36.5014 119.595 36.8422C119.489 37.0226 119.342 36.9131 119.154 36.5138C118.972 36.1078 118.944 35.8079 119.07 35.6141C119.21 35.4403 119.402 35.0462 119.646 34.432C119.89 33.8111 120.081 33.2037 120.219 32.6099L119.529 32.6124C119.256 32.6134 119.119 32.4306 119.117 32.0639C119.116 31.6973 119.252 31.5134 119.525 31.5124L120.365 31.5093L120.36 30.0593C120.359 29.786 120.538 29.6487 120.898 29.6473C121.258 29.646 121.439 29.782 121.44 30.0553L121.445 31.5053L122.005 31.5032C122.278 31.5022 122.416 31.685 122.417 32.0517C122.419 32.4184 122.283 32.6022 122.009 32.6032L121.449 32.6053L121.451 33.0453C121.571 33.1982 121.773 33.4941 122.054 33.9331C122.342 34.3653 122.483 34.5815 122.477 34.5815ZM123.076 37.0593C123.235 36.7654 123.484 36.6678 123.825 36.7665C124.172 36.8586 124.269 37.0482 124.117 37.3354C123.925 37.7628 123.633 38.1472 123.241 38.4887C123.048 38.6894 122.802 38.6837 122.501 38.4714C122.207 38.2659 122.166 38.0727 122.379 37.8919C122.711 37.6507 122.944 37.3731 123.076 37.0593ZM128.172 35.9304C128.173 36.2371 128.037 36.3909 127.763 36.3919L125.803 36.3992L125.811 38.5492C125.812 38.8225 125.636 38.9598 125.283 38.9611C124.929 38.9624 124.752 38.8264 124.751 38.5531L124.743 36.4031L122.883 36.41C122.61 36.411 122.473 36.2582 122.472 35.9515C122.47 35.6382 122.607 35.481 122.88 35.48L127.76 35.4619C128.033 35.4609 128.17 35.6171 128.172 35.9304ZM126.487 37.4267C126.28 37.1808 126.319 36.984 126.605 36.8362C126.891 36.6885 127.118 36.7177 127.285 36.9237L128.039 37.8509C128.206 38.057 128.137 38.2506 127.831 38.4317C127.525 38.6128 127.305 38.5803 127.17 38.3341C127.07 38.1012 126.842 37.7987 126.487 37.4267ZM136.183 30.9207L135.043 30.9249C134.811 31.2791 134.629 31.5064 134.496 31.6069C134.303 31.801 134.06 31.7819 133.765 31.5496C133.471 31.3174 133.427 31.1109 133.633 30.9301C133.999 30.6621 134.244 30.3412 134.37 29.9674C134.502 29.6602 134.748 29.5527 135.108 29.6447C135.475 29.7366 135.606 29.9061 135.5 30.1532L135.47 30.2033L137.82 30.1946C138.094 30.1936 138.231 30.3131 138.232 30.5531C138.233 30.7931 138.096 30.9136 137.823 30.9146L136.553 30.9193C136.814 31.1383 136.924 31.2413 136.884 31.2281C137.038 31.4142 136.952 31.5812 136.626 31.729C136.3 31.8769 136.047 31.8512 135.866 31.6519C135.618 31.3661 135.677 31.1426 136.043 30.9812L136.183 30.9207ZM136.389 32.5499C136.235 32.3305 136.294 32.1503 136.567 32.0093C136.847 31.8616 137.07 31.8941 137.237 32.1068L137.599 32.5754C137.767 32.7882 137.704 32.9751 137.411 33.1361C137.119 33.2972 136.895 33.2681 136.741 33.0486L136.389 32.5499ZM131.703 30.9473L130.763 30.9508C130.451 31.3386 130.219 31.5928 130.066 31.7134C129.867 31.8874 129.633 31.8416 129.365 31.576C129.104 31.3036 129.087 31.0803 129.313 30.9061C129.725 30.6246 130.017 30.3035 130.189 29.9429C130.355 29.6623 130.611 29.5747 130.958 29.68C131.312 29.7854 131.423 29.9583 131.29 30.1988L131.28 30.2088L133.1 30.2021C133.374 30.2011 133.511 30.3239 133.512 30.5706C133.513 30.8172 133.376 30.9411 133.103 30.9421L132.253 30.9452L132.614 31.2739C132.808 31.4599 132.749 31.6334 132.436 31.7946C132.124 31.9557 131.873 31.94 131.686 31.7474L131.576 31.6378C131.295 31.3588 131.337 31.1286 131.703 30.9473ZM133.938 37.569C134.264 37.5545 134.428 37.6506 134.429 37.8572C134.828 37.5891 135.143 37.3312 135.376 37.0837C135.12 36.3313 134.94 35.4153 134.836 34.3357L133.206 34.3417L133.207 34.7417L134.007 34.7388C134.281 34.7378 134.418 34.8406 134.418 35.0472C134.419 35.2539 134.283 35.3578 134.01 35.3588L133.21 35.3617L133.211 35.7117L133.951 35.709C134.224 35.708 134.361 35.8075 134.362 36.0075C134.363 36.2008 134.226 36.298 133.953 36.299L133.213 36.3017L133.214 36.6517L134.114 36.6484C134.388 36.6474 134.525 36.7535 134.525 36.9669C134.526 37.1735 134.39 37.2774 134.117 37.2784L133.217 37.2817L133.218 37.6217L133.938 37.569ZM131.676 34.3474L131.688 37.7174L132.278 37.6852L132.266 34.3452L131.676 34.3474ZM130.153 33.5331L131.403 33.5284C131.255 33.3156 131.085 33.1196 130.891 32.9403C130.678 33.1611 130.432 33.3587 130.153 33.5331ZM132.282 33.2852C132.148 33.1523 132.015 33.1361 131.882 33.2366L131.513 33.528L132.513 33.5243L132.282 33.2852ZM132.803 33.5232L133.803 33.5195C133.669 33.3533 133.518 33.1872 133.351 33.0212C133.205 33.1951 133.022 33.3624 132.803 33.5232ZM136.848 34.8382C136.933 34.5846 137.13 34.5005 137.437 34.5861C137.75 34.6649 137.858 34.8412 137.759 35.1149C137.548 35.809 137.154 36.5138 136.576 37.2293C136.771 37.6019 136.972 37.7878 137.179 37.787C137.265 37.7867 137.328 37.7198 137.368 37.5863L137.407 37.2962C137.439 37.0227 137.596 36.9722 137.876 37.1444C138.157 37.3167 138.264 37.5763 138.199 37.9233C138.193 38.1366 138.104 38.3436 137.931 38.5443C137.759 38.7449 137.482 38.8459 137.102 38.8473C136.609 38.8492 136.181 38.5774 135.819 38.0321C135.374 38.4137 135.052 38.6516 134.852 38.7457C134.606 38.8999 134.386 38.8607 134.192 38.6281L133.951 38.349C132.125 38.5091 130.672 38.6212 129.592 38.6852C129.365 38.706 129.231 38.5732 129.19 38.2867C129.149 38.0001 129.265 37.8497 129.539 37.8354L130.748 37.7709L130.747 37.3409L129.787 37.3444C129.514 37.3454 129.376 37.2426 129.376 37.036C129.375 36.8226 129.511 36.7155 129.784 36.7144L130.744 36.7109L130.743 36.3309L130.013 36.3336C129.74 36.3346 129.603 36.2384 129.602 36.0451C129.601 35.8451 129.738 35.7446 130.011 35.7436L130.741 35.7409L130.74 35.3809L129.92 35.3839C129.646 35.3849 129.509 35.2854 129.508 35.0854C129.508 34.8788 129.644 34.7749 129.917 34.7739L130.737 34.7709L130.736 34.3509L129.486 34.3555C129.212 34.3565 129.075 34.2204 129.074 33.9471C129.073 33.6737 129.209 33.5365 129.483 33.5355L129.933 33.5339L129.802 33.4043C129.521 33.1187 129.607 32.8517 130.059 32.6034C130.279 32.5692 130.412 32.3854 130.457 32.0519C130.556 31.7915 130.753 31.6808 131.046 31.7197C131.346 31.7586 131.447 31.9249 131.348 32.2186L132.101 32.9458C132.606 32.6706 132.872 32.393 132.897 32.1129C132.99 31.8392 133.183 31.7218 133.476 31.7607C133.77 31.793 133.88 31.9392 133.808 32.1995L133.778 32.2696C134.132 32.555 134.313 32.7243 134.32 32.7776C134.507 32.9969 134.475 33.2004 134.222 33.388L134.053 33.5186L134.763 33.516L134.708 32.3162C134.701 32.0428 134.88 31.9055 135.247 31.9042C135.62 31.9028 135.811 32.0387 135.818 32.312L135.853 33.5119L137.803 33.5047C138.076 33.5037 138.213 33.6398 138.214 33.9132C138.215 34.1865 138.079 34.3237 137.806 34.3247L135.916 34.3317C135.992 35.0314 136.087 35.6177 136.202 36.0906C136.554 35.556 136.769 35.1385 136.848 34.8382Z" fill="#2382C9"/>
<path d="M81.32 53.6271C81.6177 53.3486 82.0285 53.4058 82.5527 53.7985C83.0874 54.1805 83.2059 54.4787 82.908 54.6932C82.4932 55.0147 81.8494 55.4384 80.9767 55.9644C80.6574 56.1575 80.6208 56.3603 80.8669 56.5728C81.6588 57.2525 82.5245 57.7186 83.4641 57.9711C83.902 58.0975 83.9139 58.4388 83.4999 58.995C83.086 59.5619 82.6601 59.7608 82.2221 59.5918C81.0474 59.2121 79.93 58.4642 78.8698 57.3482C77.8203 56.2214 76.983 54.8058 76.358 53.1015C75.7736 53.7116 75.0878 54.3008 74.3006 54.8691L74.3092 57.1891C74.3102 57.4664 74.4439 57.5726 74.7104 57.5076L77.1398 56.8106C77.5554 56.7024 77.8176 56.9307 77.9263 57.4957C78.0351 58.0606 77.7752 58.4402 77.1466 58.6346C75.4311 59.1423 74.2537 59.4986 73.6145 59.7037L72.9276 59.9942C72.5228 60.1557 72.1861 59.9543 71.9173 59.39C71.6593 58.8362 71.711 58.4147 72.0726 58.1254C72.2434 58.1461 72.3277 57.8684 72.3256 57.2924L72.3212 56.1084C71.5441 56.538 71.0011 56.8013 70.6921 56.8985C70.3193 57.0385 69.9239 56.8533 69.506 56.3429C69.0988 55.8324 69.1082 55.507 69.5344 55.3668C71.0154 54.9239 72.5004 54.1131 73.9894 52.9342L70.1014 52.9486C69.6641 52.9503 69.4445 52.6844 69.4425 52.1511C69.4405 51.6071 69.6581 51.3343 70.0954 51.3327L75.5034 51.3126L75.5001 50.4166L71.5641 50.4312C71.1268 50.4328 70.9072 50.183 70.9053 49.6816C70.9034 49.1696 71.1212 48.9128 71.5585 48.9112L75.4945 48.8966L75.4914 48.0646L70.7714 48.0821C70.3341 48.0837 70.1144 47.8179 70.1124 47.2846C70.1104 46.7406 70.3281 46.4678 70.7654 46.4661L75.4854 46.4486L75.4835 45.9526C75.4819 45.5153 75.8011 45.2955 76.4411 45.2931C77.0811 45.2907 77.4019 45.5082 77.4035 45.9455L77.4054 46.4415L82.3173 46.4233C82.7547 46.4217 82.9743 46.6929 82.9764 47.2369C82.9783 47.7702 82.7607 48.0377 82.3233 48.0393L77.4114 48.0575L77.4144 48.8895L81.7024 48.8736C82.1397 48.872 82.3594 49.1272 82.3613 49.6392C82.3631 50.1405 82.1454 50.392 81.708 50.3936L77.4201 50.4095L77.4234 51.3055L82.8794 51.2853C83.3167 51.2836 83.5364 51.5548 83.5384 52.0988C83.5404 52.6322 83.3227 52.8996 82.8854 52.9013L78.1654 52.9188C78.4454 53.6537 78.8588 54.3775 79.4054 55.0902C80.3311 54.4574 80.9693 53.9697 81.32 53.6271ZM96.5469 47.9066C96.8243 47.9056 96.9624 47.7664 96.9614 47.489C96.9601 47.1477 96.8208 46.9776 96.5435 46.9786L95.0875 46.984C94.8102 46.985 94.672 47.1242 94.673 47.4015C94.6743 47.7429 94.8136 47.913 95.0909 47.912L96.5469 47.9066ZM97.9633 45.8373C98.4753 45.8354 98.7322 46.0905 98.7341 46.6025L98.7403 48.2665C98.7422 48.7785 98.4871 49.0354 97.9751 49.0373L93.7672 49.0529C93.2552 49.0548 92.9982 48.7997 92.9963 48.2877L92.9902 46.6238C92.9883 46.1118 93.2433 45.8548 93.7553 45.8529L97.9633 45.8373ZM89.827 47.9315C90.1043 47.9305 90.2425 47.7913 90.2414 47.514C90.2402 47.1726 90.1009 47.0025 89.8235 47.0035L88.4155 47.0087C88.1382 47.0097 88.0001 47.1489 88.0011 47.4263C88.0024 47.7676 88.1417 47.9377 88.419 47.9367L89.827 47.9315ZM91.2593 45.8622C91.7606 45.8603 92.0123 46.1154 92.0142 46.6274L92.0203 48.2914C92.0222 48.8034 91.7725 49.0603 91.2712 49.0621L87.0792 49.0777C86.5672 49.0796 86.3103 48.8245 86.3084 48.3125L86.3022 46.6485C86.3003 46.1366 86.5553 45.8796 87.0673 45.8777L91.2593 45.8622ZM88.7608 53.8235C88.7618 54.1008 88.901 54.239 89.1783 54.2379L91.4663 54.2295L91.4631 53.3655L88.7591 53.3755L88.7608 53.8235ZM89.167 51.166C88.8896 51.167 88.7515 51.3062 88.7525 51.5835L88.7541 52.0155L91.4581 52.0055L91.4549 51.1575L89.167 51.166ZM96.2901 51.9876L96.2885 51.5556C96.2874 51.2782 96.1536 51.1401 95.8869 51.1411L93.4069 51.1502L93.4101 51.9982L96.2901 51.9876ZM95.8983 54.213C96.165 54.212 96.2978 54.0729 96.2968 53.7956L96.2951 53.3476L93.4151 53.3582L93.4183 54.2222L95.8983 54.213ZM98.9948 56.4896C99.4321 56.488 99.6518 56.7591 99.6538 57.3031C99.6558 57.8471 99.4381 58.1199 99.0008 58.1216L93.4328 58.1422L93.4379 59.5182C93.4396 59.9555 93.115 60.1754 92.4644 60.1778C91.8137 60.1802 91.4876 59.9628 91.486 59.5254L91.4809 58.1494L86.0569 58.1695C85.6196 58.1712 85.3999 57.9 85.3979 57.356C85.3959 56.812 85.6135 56.5392 86.0509 56.5375L91.4748 56.5174L91.4717 55.6855L87.6798 55.6995C87.1678 55.7014 86.9108 55.4464 86.9089 54.9344L86.8924 50.4704C86.8905 49.9584 87.1455 49.7014 87.6575 49.6995L97.4654 49.6632C97.9774 49.6613 98.2344 49.9163 98.2363 50.4283L98.2528 54.8923C98.2547 55.4043 97.9997 55.6613 97.4877 55.6632L93.4237 55.6782L93.4268 56.5102L98.9948 56.4896ZM101.066 54.2099C100.936 53.6024 101.084 53.2445 101.51 53.1362L102.901 52.7791L102.891 49.9791L101.755 49.9833C101.317 49.9849 101.098 49.6924 101.095 49.1057C101.093 48.5191 101.311 48.2249 101.748 48.2233L102.884 48.2191L102.875 45.8671C102.874 45.4298 103.172 45.21 103.769 45.2078C104.366 45.2056 104.666 45.4231 104.667 45.8605L104.676 48.2125L105.428 48.2097C105.865 48.208 106.085 48.5006 106.087 49.0872C106.09 49.6739 105.872 49.968 105.435 49.9697L104.683 49.9724L104.691 52.2924L105.283 52.1142C105.698 51.9954 105.95 52.2238 106.037 52.7994C106.125 53.3645 105.96 53.7064 105.545 53.8253L104.698 54.0844L104.572 58.9969C104.488 59.2639 104.323 59.4725 104.078 59.6228C103.695 59.8802 103.248 59.9938 102.736 59.9637C102.17 59.9978 101.801 59.7059 101.628 59.0878C101.455 58.4805 101.588 58.176 102.025 58.1744L102.617 58.1722C102.82 58.1714 102.921 58.0804 102.92 57.899L102.908 54.6191L101.901 54.9268C101.485 55.0457 101.207 54.8067 101.066 54.2099ZM115.971 52.2826C115.973 52.6879 115.755 52.8914 115.318 52.893L108.166 52.9196C108.114 56.2584 107.6 58.543 106.623 59.7733C106.432 60.062 106.123 60.0152 105.694 59.6328C105.277 59.2503 105.18 58.8827 105.402 58.5298C105.774 58.0591 106.054 57.2634 106.242 56.1427C106.429 55.0113 106.521 53.7417 106.515 52.3337L106.496 47.0537C106.494 46.5417 106.749 46.2848 107.261 46.2829L110.621 46.2704L110.556 46.0946C110.427 45.6791 110.66 45.4009 111.257 45.26C111.865 45.1085 112.244 45.2351 112.395 45.6398L112.621 46.263L115.213 46.2534C115.65 46.2518 115.87 46.4803 115.871 46.939C115.873 47.3976 115.655 47.6278 115.218 47.6294L108.562 47.654C108.285 47.6551 108.147 47.7943 108.148 48.0716L108.161 51.6876L115.313 51.6611C115.75 51.6594 115.97 51.8666 115.971 52.2826ZM112.922 49.6539L110.922 49.6613C110.923 50.0346 111.062 50.2208 111.34 50.2198L112.508 50.2154C112.785 50.2144 112.923 50.0272 112.922 49.6539ZM114.556 50.4478C114.558 50.9598 114.303 51.2168 113.791 51.2187L110.143 51.2322C109.631 51.2341 109.374 50.9791 109.373 50.4671L109.37 49.6671C108.751 49.6694 108.441 49.4145 108.439 48.9025C108.438 48.7212 108.528 48.6302 108.71 48.6295L109.366 48.6271L109.366 48.5951C109.364 48.1577 109.619 47.9381 110.131 47.9362C110.654 47.9343 110.916 48.152 110.918 48.5893L110.918 48.6213L112.918 48.6139L112.918 48.5819C112.916 48.1446 113.187 47.9249 113.731 47.9229C114.275 47.9209 114.548 48.1385 114.55 48.5759L114.55 48.6079L115.014 48.6061C115.451 48.6045 115.67 48.7797 115.672 49.1317C115.673 49.473 115.455 49.6445 115.018 49.6461L114.554 49.6479L114.556 50.4478ZM109.889 55.9692L109.89 56.1612C109.891 56.4385 110.03 56.5767 110.307 56.5756L111.091 56.5727L111.089 55.9647L109.889 55.9692ZM110.299 54.3997C110.022 54.4007 109.884 54.5399 109.885 54.8172L109.885 55.0092L111.085 55.0047L111.083 54.3968L110.299 54.3997ZM114.045 54.9938L114.045 54.8018C114.044 54.5244 113.904 54.3863 113.627 54.3873L112.731 54.3906L112.733 54.9986L114.045 54.9938ZM113.635 56.5633C113.912 56.5623 114.051 56.4231 114.05 56.1458L114.049 55.9538L112.737 55.9586L112.739 56.5666L113.635 56.5633ZM115.524 56.8443C115.526 57.3563 115.271 57.6133 114.759 57.6151L109.255 57.6355C108.743 57.6374 108.486 57.3824 108.484 56.8704L108.474 54.1184C108.472 53.6064 108.727 53.3495 109.239 53.3476L114.743 53.3272C115.255 53.3253 115.512 53.5803 115.514 54.0923L115.524 56.8443ZM112.777 58.1505C113.042 57.7975 113.367 57.711 113.752 57.8909L115.467 58.7165C115.852 58.9071 115.89 59.1896 115.582 59.5641C115.274 59.9493 114.933 60.0412 114.559 59.8399L112.972 58.9658C112.587 58.7645 112.522 58.4928 112.777 58.1505ZM109.704 57.9219C110.087 57.7285 110.488 57.8016 110.905 58.1414C111.322 58.4812 111.323 58.7586 110.908 58.9734C110.45 59.2311 109.838 59.5214 109.071 59.8442C108.635 60.0485 108.282 59.9538 108.014 59.5602C107.746 59.1772 107.804 58.8889 108.187 58.6955L109.704 57.9219ZM129.535 55.4484L127.055 55.4576C127.27 55.8194 127.564 56.1757 127.939 56.5263C128.493 56.1936 129.025 55.8343 129.535 55.4484ZM124.613 52.7626L124.617 53.8666L127.001 53.8577L126.997 52.7538L124.613 52.7626ZM124.603 50.0746L124.607 51.1786L126.991 51.1698L126.987 50.0658L124.603 50.0746ZM120.929 47.4162C120.652 47.4172 120.514 47.5564 120.515 47.8337L120.517 48.4737L128.565 48.4439C128.842 48.4429 128.981 48.3037 128.98 48.0264L128.979 47.8024C128.978 47.525 128.839 47.3869 128.561 47.3879L120.929 47.4162ZM130.079 55.4463L130.448 55.701C130.972 56.051 130.947 56.4191 130.372 56.8053C130.351 56.848 130.085 56.9983 129.574 57.2562C129.318 57.3958 129.335 57.5451 129.623 57.7041C130.147 58.0008 130.703 58.1961 131.29 58.2899C131.749 58.3842 131.792 58.6934 131.421 59.2174C131.06 59.7521 130.645 59.9509 130.175 59.814C127.997 59.3101 126.36 57.8602 125.263 55.4642L123.631 55.4702L123.639 57.5502C123.64 57.8276 123.774 57.9391 124.04 57.8847L125.687 57.5586C126.113 57.4824 126.301 57.7057 126.249 58.2286C126.198 58.7514 125.858 59.078 125.229 59.2084C124.057 59.4794 123.225 59.6744 122.735 59.7936L122.384 59.9229C121.968 60.0738 121.642 59.8937 121.406 59.3825C121.18 58.882 121.232 58.4765 121.561 58.1659C121.774 58.1331 121.88 57.7914 121.877 57.1408L121.871 55.4768L121.199 55.4793C120.762 55.4809 120.542 55.215 120.54 54.6817C120.538 54.1484 120.756 53.8809 121.193 53.8793L122.873 53.873L122.869 52.7691L121.525 52.774C121.088 52.7757 120.868 52.5151 120.866 51.9925C120.864 51.4591 121.082 51.1917 121.519 51.19L122.863 51.1851L122.859 50.0811L120.523 50.0897L120.525 50.5537C120.541 54.9164 119.987 57.9638 118.863 59.696C118.704 59.9845 118.341 59.9646 117.775 59.636C117.208 59.3181 117.025 58.9881 117.227 58.646C117.513 58.2289 117.788 57.4653 118.05 56.3549C118.324 55.2339 118.485 54.2626 118.536 53.4411C118.586 52.6089 118.609 51.6488 118.605 50.5608L118.59 46.5929C118.588 46.0809 118.843 45.8239 119.355 45.822L130.123 45.7821C130.635 45.7802 130.892 46.0353 130.894 46.5473L130.904 49.2832C130.906 49.7952 130.651 50.0522 130.139 50.0541L128.747 50.0592L128.751 51.1632L130.399 51.1571C130.837 51.1555 131.056 51.4214 131.058 51.9547C131.06 52.4774 130.842 52.7395 130.405 52.7411L128.757 52.7472L128.761 53.8512L131.097 53.8426C131.535 53.8409 131.754 54.1068 131.756 54.6401C131.758 55.1735 131.54 55.4409 131.103 55.4426L130.079 55.4463Z" fill="black" fill-opacity="0.85"/>
</g>
<defs>
<clipPath id="clip0_2439_9861">
<rect width="200" height="90" fill="white"/>
</clipPath>
</defs>
</svg>
