<svg width="200" height="90" viewBox="0 0 200 90" fill="none" xmlns="http://www.w3.org/2000/svg">
<g clip-path="url(#clip0_1260_4414)">
<rect width="200" height="90" fill="#B8F9D9"/>
<path fill-rule="evenodd" clip-rule="evenodd" d="M-6.18027 85.5257C-5.5206 81.3514 -9.94765 77.2571 -7.65473 73.2393C-4.94813 68.4966 -1.65241 61.9915 7.77154 61.0783C17.9972 60.0873 23.5998 68.8258 33.9785 69.2048C45.8176 69.6371 56.5881 60.196 66.8872 63.2371C76.2425 65.9996 70.121 74.0119 68.9752 79.5387C68.1676 83.4341 61.5364 86.4306 61.2669 90.3457C60.8502 96.3973 75.7689 103.853 67.0229 107.895C58.3557 111.9 45.7383 103.802 34.2527 102.83C27.3162 102.243 20.5655 103.925 13.6182 103.373C4.65786 102.66 -7.2514 103.227 -11.7526 99.1698C-16.3208 95.0519 -6.92748 90.2539 -6.18027 85.5257Z" fill="#49CCBD"/>
<path fill-rule="evenodd" clip-rule="evenodd" d="M28.4743 10.5302C32.6486 10.8717 36.7429 8.58004 40.7607 9.76696C45.5034 11.168 52.0085 12.874 52.9217 17.7523C53.9127 23.0456 45.1742 25.9458 44.7952 31.3183C44.3629 37.4467 53.804 43.0221 50.7629 48.3534C48.0004 53.1961 39.9881 50.0274 34.4613 49.4342C30.5659 49.0162 27.5694 45.5836 23.6543 45.444C17.6027 45.2284 10.1469 52.9509 6.10508 48.4236C2.09968 43.9371 10.1975 37.4057 11.1701 31.4602C11.7575 27.8695 10.0747 24.3751 10.6274 20.7788C11.3402 16.1405 10.7727 9.97575 14.8302 7.64571C18.9481 5.281 23.7461 10.1434 28.4743 10.5302Z" fill="#3D7619"/>
<path fill-rule="evenodd" clip-rule="evenodd" d="M173.474 4.53021C177.649 4.87169 181.743 2.58004 185.761 3.76696C190.503 5.16803 197.008 6.87405 197.922 11.7523C198.913 17.0456 190.174 19.9458 189.795 25.3183C189.363 31.4467 198.804 37.0221 195.763 42.3534C193 47.1961 184.988 44.0274 179.461 43.4342C175.566 43.0162 172.569 39.5836 168.654 39.444C162.603 39.2284 155.147 46.9509 151.105 42.4236C147.1 37.9371 155.198 31.4057 156.17 25.4602C156.757 21.8695 155.075 18.3751 155.627 14.7788C156.34 10.1405 155.773 3.97575 159.83 1.64571C163.948 -0.719004 168.746 4.14342 173.474 4.53021Z" fill="#6EDDA4"/>
<path fill-rule="evenodd" clip-rule="evenodd" d="M117.063 7.20494C131.49 7.9797 144.155 11.9054 154.996 17.5775C166.733 23.7188 176.896 30.8598 179.688 39.9711C183.097 51.0949 184.354 63.7453 171.749 72.2549C158.691 81.0707 136.857 81.4742 117.063 82.2497C95.2362 83.1048 71.8992 84.7511 54.6033 76.8446C35.6156 68.1646 20.8565 53.9771 24.5773 39.9711C28.0889 26.7526 52.1053 19.9805 71.5388 13.0955C85.3864 8.18958 100.98 6.34119 117.063 7.20494Z" fill="#87EDBF"/>
<path fill-rule="evenodd" clip-rule="evenodd" d="M176.618 58.8089C175.515 57.8435 174.393 55.7656 173.735 53.2528C172.775 49.59 173.162 46.3904 174.599 46.1062C175.901 45.8487 177.619 48.0727 178.644 51.217C179.76 49.0059 181.059 47.5961 181.934 47.8216C183.113 48.1259 183.07 51.2917 181.839 54.8927C180.608 58.4936 178.653 61.1661 177.474 60.8618C176.923 60.7197 176.639 59.9529 176.618 58.8089Z" fill="#6ADFA6"/>
<path fill-rule="evenodd" clip-rule="evenodd" d="M176.618 58.8089C175.515 57.8435 174.393 55.7656 173.735 53.2528C172.775 49.59 173.162 46.3904 174.599 46.1062C175.901 45.8487 177.619 48.0727 178.644 51.217C179.76 49.0059 181.059 47.5961 181.934 47.8216C183.113 48.1259 183.07 51.2917 181.839 54.8927C180.608 58.4936 178.653 61.1661 177.474 60.8618C176.923 60.7197 176.639 59.9529 176.618 58.8089Z" fill="url(#paint0_radial_1260_4414)" fill-opacity="0.2"/>
<path d="M161.232 70.5835C161.232 78.5212 168.739 84.956 178 84.956C187.26 84.956 194.768 78.5212 194.768 70.5835C194.768 62.6457 187.26 56.2109 178 56.2109C168.739 56.2109 161.232 62.6457 161.232 70.5835Z" fill="#6ADFA6"/>
<path d="M172.199 73.4141C172.199 73.4141 172.948 77.897 178.111 77.897C183.274 77.897 183.777 73.4141 183.777 73.4141" stroke="black" stroke-width="2" stroke-linecap="round" stroke-linejoin="round"/>
<path d="M171.281 65.0156L175.135 66.6423L171.281 68.7218" stroke="black" stroke-width="2" stroke-linecap="round" stroke-linejoin="round"/>
<path d="M183.775 65.0156L179.922 66.6423L183.775 68.7218" stroke="black" stroke-width="2" stroke-linecap="round" stroke-linejoin="round"/>
<path d="M78.5278 36.9765C78.3743 36.9237 78.2772 36.8274 78.2367 36.6875C78.1962 36.5544 78.2058 36.4243 78.2653 36.2974C78.4239 35.9235 78.5457 35.5064 78.6306 35.0461C78.7156 34.5791 78.7567 33.9923 78.7541 33.2856C78.7539 33.2256 78.7537 33.1756 78.7536 33.1356C78.7534 33.0889 78.7532 33.0489 78.7531 33.0156C78.7529 32.9556 78.7527 32.8989 78.7525 32.8456C78.7523 32.7856 78.752 32.7056 78.7516 32.6056C78.7494 32.0189 78.9481 31.6482 79.3475 31.4934C79.2608 31.4937 79.1807 31.474 79.1073 31.4343C79.0338 31.3879 78.9802 31.3214 78.9465 31.2349C78.8994 31.1217 78.9024 31.015 78.9553 30.9148C79.0083 30.8146 79.0914 30.7477 79.2046 30.7139C79.3444 30.6667 79.4842 30.6162 79.624 30.5624C79.7638 30.5085 79.9036 30.4513 80.0434 30.3908C79.9565 30.3378 79.8664 30.2915 79.7729 30.2518C79.6861 30.2121 79.5993 30.1724 79.5124 30.1328C79.4256 30.0931 79.3687 30.0233 79.3417 29.9234C79.3213 29.8235 79.3343 29.7334 79.3807 29.6532C79.4337 29.5597 79.5068 29.5028 79.6 29.4824L78.84 29.4853C78.7 29.4858 78.5899 29.4428 78.5096 29.3565C78.4292 29.2634 78.3888 29.1536 78.3883 29.0269C78.3879 28.9003 78.4275 28.7934 78.5071 28.7065C78.5868 28.6195 78.6967 28.5758 78.8367 28.5753L80.2267 28.5701L80.2257 28.3101C80.225 28.1368 80.2779 27.9999 80.3842 27.8995C80.4971 27.7991 80.6303 27.7486 80.7836 27.748C80.9369 27.7475 81.0671 27.797 81.1742 27.8966C81.2879 27.9962 81.345 28.1326 81.3457 28.306L81.3466 28.566L82.5666 28.5614C82.64 28.5612 82.7 28.5709 82.7467 28.5908C82.7529 28.4641 82.7959 28.3606 82.8756 28.2803C82.9619 28.1933 83.0751 28.1495 83.2151 28.149L87.2351 28.1341C87.3818 28.1336 87.4953 28.1798 87.5756 28.2729C87.6626 28.3592 87.7063 28.469 87.7068 28.6024C87.7073 28.729 87.6644 28.8392 87.578 28.9329C87.4984 29.0265 87.3852 29.0736 87.2386 29.0741L85.7786 29.0795C85.7456 29.1863 85.7061 29.3065 85.6599 29.44C85.6204 29.5668 85.5808 29.6869 85.5413 29.8004L85.6613 29.8C86.2012 29.798 86.5849 29.8932 86.8123 30.0857C87.0463 30.2715 87.1642 30.5911 87.1659 31.0444L87.1756 33.6744C87.1773 34.121 87.0618 34.4415 86.8292 34.6357C86.6032 34.8298 86.2203 34.9279 85.6803 34.9299L84.7703 34.9333C84.7436 34.9334 84.7169 34.9335 84.6903 34.9336C84.6702 34.927 84.6469 34.9238 84.6202 34.9239C84.7136 34.9435 84.7905 34.9832 84.8507 35.043C84.9444 35.136 84.9914 35.2492 84.9919 35.3825C84.9991 35.5091 84.9562 35.6226 84.8632 35.723C84.6706 35.9304 84.4348 36.1479 84.1556 36.3756C83.8831 36.6099 83.6272 36.8009 83.3877 36.9484C83.2547 37.0356 83.1115 37.0695 82.9581 37.05C82.8047 37.0373 82.6811 36.9611 82.5873 36.8214C82.5135 36.7084 82.4897 36.5784 82.5158 36.4317C82.542 36.2916 82.6116 36.188 82.7247 36.1209C82.871 36.027 83.0306 35.9164 83.2034 35.7891C83.383 35.6618 83.5525 35.5345 83.712 35.4072C83.8782 35.2733 84.0144 35.1528 84.1207 35.0457C84.2204 34.9653 84.3269 34.9216 84.4402 34.9145C84.0201 34.8828 83.7163 34.7705 83.5289 34.5779C83.3482 34.3852 83.2571 34.0889 83.2556 33.6889L83.2459 31.0589C83.2444 30.6656 83.33 30.3719 83.5026 30.178C83.6819 29.984 83.9748 29.8662 84.3813 29.8247C84.4142 29.7113 84.4538 29.5878 84.5 29.4543C84.5461 29.3141 84.5823 29.1906 84.6086 29.0839L83.2186 29.089C83.1386 29.0893 83.0719 29.0762 83.0185 29.0498C83.0122 29.1631 82.9692 29.2633 82.8896 29.3502C82.8099 29.4305 82.7033 29.4709 82.57 29.4714L82.19 29.4728C82.1967 29.4795 82.2034 29.4861 82.2101 29.4928C82.2168 29.4927 82.2234 29.496 82.2301 29.5027C82.2904 29.5758 82.3207 29.6657 82.3211 29.7723C82.3215 29.8723 82.2818 29.9525 82.202 30.0128C82.1222 30.0731 82.0425 30.1334 81.9627 30.1937C81.8829 30.254 81.7965 30.311 81.7033 30.3646C81.7902 30.411 81.8703 30.4607 81.9439 30.5138C82.024 30.5601 82.0976 30.6099 82.1644 30.6629C82.258 30.7293 82.3117 30.8224 82.3255 30.9423C82.3459 31.0556 82.3196 31.159 82.2466 31.2526C82.2135 31.3061 82.157 31.3496 82.0771 31.3833L82.6171 31.3813C82.7571 31.3807 82.8672 31.4237 82.9476 31.51C83.0279 31.5964 83.0683 31.7029 83.0688 31.8296C83.0692 31.9563 83.0296 32.0631 82.9499 32.15C82.8703 32.237 82.7604 32.2807 82.6204 32.2813L82.3704 32.2822C82.3838 32.2955 82.3905 32.3054 82.3905 32.3121C82.4509 32.4052 82.4746 32.5085 82.4617 32.6218C82.4488 32.7286 82.3957 32.8154 82.3027 32.8824C82.1697 32.9763 82.0101 33.0802 81.8238 33.1942C81.6442 33.3015 81.4613 33.4089 81.275 33.5163C81.0887 33.6169 80.919 33.7042 80.766 33.7781C80.6395 33.8386 80.5096 33.8524 80.3761 33.8196C80.2493 33.7801 80.1557 33.6971 80.0952 33.5706C80.0481 33.4641 80.0444 33.3541 80.084 33.2407C80.1302 33.1272 80.2066 33.0469 80.3131 32.9998C80.5128 32.9191 80.7357 32.8116 80.9819 32.6773C81.2347 32.5431 81.4609 32.4122 81.6604 32.2848L80.3204 32.2898C80.1138 32.2905 79.9706 32.3277 79.8909 32.4014C79.8178 32.475 79.7816 32.6084 79.7823 32.8018L79.784 33.2618C79.7867 33.9684 79.749 34.5953 79.671 35.1422C79.593 35.6825 79.4483 36.1997 79.2368 36.6938C79.1772 36.8207 79.0776 36.9111 78.9378 36.9649C78.8046 37.0188 78.668 37.0226 78.5278 36.9765ZM80.3373 36.8498C80.1909 36.9103 80.0576 36.9175 79.9374 36.8712C79.8172 36.825 79.7303 36.7453 79.6765 36.6322C79.6227 36.5057 79.619 36.3857 79.6652 36.2722C79.7181 36.1587 79.8078 36.0784 79.9343 36.0312C80.1607 35.9437 80.4069 35.8362 80.6731 35.7085C80.9393 35.5742 81.2021 35.4332 81.4616 35.2856C81.721 35.1313 81.9471 34.9838 82.1399 34.8431C82.2396 34.7694 82.3496 34.7456 82.4697 34.7718C82.5898 34.7981 82.6833 34.8644 82.7504 34.9708C82.8241 35.0639 82.8511 35.1704 82.8316 35.2905C82.812 35.4106 82.7524 35.5075 82.6527 35.5812C82.4532 35.7352 82.2171 35.8928 81.9444 36.0538C81.6783 36.2148 81.4055 36.3625 81.126 36.4968C80.8466 36.6379 80.5837 36.7555 80.3373 36.8498ZM87.0076 36.915C86.7871 36.7625 86.5397 36.5801 86.2656 36.3678C85.9915 36.1555 85.7574 35.9463 85.5633 35.7404C85.4696 35.6407 85.4258 35.5275 85.432 35.4009C85.4448 35.2675 85.4944 35.154 85.5807 35.0603C85.6737 34.9666 85.7936 34.9228 85.9403 34.929C86.087 34.9351 86.2071 34.9846 86.3008 35.0776C86.4614 35.2237 86.672 35.3929 86.9327 35.5853C87.1934 35.771 87.4373 35.9334 87.6645 36.0726C87.7781 36.1455 87.8452 36.2553 87.8657 36.4018C87.8929 36.5484 87.8701 36.6785 87.7972 36.7921C87.711 36.9324 87.5913 37.0095 87.438 37.0234C87.2848 37.0373 87.1413 37.0012 87.0076 36.915ZM80.5815 35.2688C80.455 35.316 80.3284 35.3231 80.2016 35.2902C80.0814 35.2574 79.9945 35.1777 79.9407 35.0512C79.8936 34.938 79.8865 34.8281 79.9195 34.7213C79.9591 34.6145 80.0421 34.5375 80.1686 34.4904C80.4548 34.376 80.761 34.2248 81.0869 34.037C81.4196 33.8491 81.7122 33.6613 81.9648 33.4737C82.0646 33.4 82.1745 33.3763 82.2946 33.4025C82.4147 33.4287 82.5083 33.495 82.5753 33.6014C82.6423 33.6945 82.666 33.7944 82.6464 33.9012C82.6335 34.0079 82.5805 34.0981 82.4874 34.1718C82.2082 34.3728 81.8923 34.5773 81.5397 34.7853C81.1871 34.9866 80.8677 35.1478 80.5815 35.2688ZM84.9869 34.0225L85.4569 34.0208C85.7102 34.0198 85.8768 33.9892 85.9566 33.9289C86.043 33.8619 86.0858 33.7151 86.0849 33.4884L86.0847 33.4184L84.3547 33.4248L84.3549 33.4948C84.3558 33.7215 84.3963 33.868 84.4766 33.9344C84.5635 33.9941 84.7336 34.0234 84.9869 34.0225ZM84.3517 32.6148L86.0817 32.6084L86.0797 32.0684L84.3497 32.0748L84.3517 32.6148ZM84.3467 31.2649L86.0767 31.2584L86.0766 31.2384C86.0757 31.0118 86.0319 30.8686 85.945 30.8089C85.8647 30.7426 85.698 30.7098 85.4446 30.7108L84.9746 30.7125C84.7213 30.7135 84.5514 30.7474 84.465 30.8144C84.3852 30.8747 84.3458 31.0182 84.3466 31.2449L84.3467 31.2649ZM79.6772 31.4122C79.7305 31.4053 79.7805 31.4018 79.8271 31.4016C79.8805 31.3947 79.9338 31.3912 79.9871 31.391L81.7171 31.3846C81.6704 31.3648 81.6236 31.3416 81.5768 31.3151C81.4766 31.2422 81.3696 31.1692 81.256 31.0963C81.1424 31.0167 81.0221 30.9405 80.8952 30.8676C80.6956 30.975 80.4926 31.0758 80.2863 31.1699C80.0799 31.2573 79.8769 31.3381 79.6772 31.4122ZM80.9217 29.9375C81.0548 29.8637 81.1812 29.7866 81.3009 29.7061C81.4206 29.6257 81.5336 29.5486 81.64 29.4749L79.87 29.4814C79.8834 29.4814 79.8967 29.4847 79.9101 29.4913C79.9234 29.4912 79.9367 29.4945 79.9501 29.5011C80.1036 29.5539 80.2605 29.62 80.4208 29.6994C80.5878 29.7721 80.7547 29.8515 80.9217 29.9375ZM92.5376 36.8945C91.9309 36.8968 91.4341 36.8653 91.0472 36.8001C90.6603 36.7348 90.3566 36.6193 90.1359 36.4534C89.922 36.2876 89.7711 36.0548 89.6834 35.7551C89.6022 35.4554 89.5608 35.0689 89.5591 34.5956L89.5513 32.5056C89.5496 32.0456 89.6149 31.682 89.7473 31.4148C89.8796 31.141 90.0989 30.9469 90.4051 30.8324C90.718 30.7112 91.1378 30.6497 91.6644 30.6477L92.7544 30.6437C92.8207 30.5501 92.8937 30.4498 92.9733 30.3429C93.0529 30.2359 93.1159 30.149 93.1623 30.0822C93.3348 29.8415 93.271 29.7218 92.971 29.7229L91.361 29.7288C90.7032 30.3113 90.0084 30.8205 89.2767 31.2566C89.1237 31.3438 88.9638 31.3777 88.797 31.3584C88.6303 31.339 88.5 31.2595 88.4062 31.1198C88.2989 30.9669 88.2617 30.8103 88.2944 30.6502C88.3272 30.4901 88.4333 30.3597 88.613 30.259C88.9523 30.0644 89.2981 29.8332 89.6504 29.5652C90.0094 29.2972 90.3484 29.0159 90.6673 28.7214C90.9862 28.4269 91.2518 28.1459 91.4642 27.8784C91.5836 27.7247 91.7333 27.6441 91.9133 27.6368C92.0932 27.6228 92.2434 27.6622 92.3637 27.7551C92.4974 27.8546 92.5712 27.981 92.5851 28.1343C92.6057 28.2876 92.5695 28.4277 92.4767 28.5547C92.4501 28.5815 92.4236 28.6116 92.397 28.645C92.3771 28.6717 92.3572 28.6985 92.3373 28.7252L93.5473 28.7207C93.9406 28.7193 94.2376 28.7948 94.4382 28.9474C94.6454 29.0933 94.7527 29.2863 94.7603 29.5262C94.7745 29.7595 94.6888 30.0098 94.5031 30.2772C94.4169 30.4109 94.3307 30.5312 94.2444 30.6382L94.5544 30.637C95.0677 30.6351 95.4646 30.6903 95.745 30.8026C96.0321 30.9082 96.2327 31.0841 96.347 31.3304C96.4612 31.5766 96.5192 31.9131 96.5207 32.3397C96.5223 32.7664 96.4669 33.1066 96.3545 33.3604C96.2421 33.6074 96.0428 33.7882 95.7565 33.9026C95.4769 34.0103 95.0805 34.0651 94.5671 34.067L90.7572 34.0811L90.759 34.5911C90.76 34.8511 90.7808 35.061 90.8214 35.2209C90.862 35.3807 90.9424 35.5038 91.0627 35.59C91.183 35.6695 91.3599 35.7256 91.5934 35.758C91.8335 35.7838 92.1469 35.796 92.5335 35.7945L94.3835 35.7877C94.8768 35.7859 95.2467 35.7578 95.4932 35.7036C95.7463 35.6493 95.926 35.5586 96.0322 35.4316C96.1451 35.3045 96.2278 35.1342 96.2803 34.9206C96.3197 34.7672 96.4193 34.6501 96.579 34.5695C96.7454 34.4889 96.9087 34.475 97.0689 34.5277C97.2424 34.5737 97.366 34.6633 97.4399 34.7963C97.5203 34.9294 97.5442 35.0793 97.5115 35.2461C97.4331 35.6597 97.2909 35.9836 97.0851 36.2177C96.886 36.4584 96.5733 36.6296 96.147 36.7312C95.7207 36.8327 95.1342 36.8849 94.3876 36.8877L92.5376 36.8945ZM90.7534 33.0611L92.4434 33.0549L92.4383 31.6949L91.6683 31.6977C91.3017 31.6991 91.0552 31.7533 90.9289 31.8605C90.8093 31.9676 90.7501 32.1811 90.7513 32.5011L90.7534 33.0611ZM93.6434 33.0504L94.5633 33.047C94.87 33.0459 95.0698 32.9985 95.1628 32.9048C95.2625 32.8111 95.3118 32.6309 95.3108 32.3642C95.3098 32.0909 95.2591 31.9111 95.1588 31.8248C95.0651 31.7318 94.865 31.6859 94.5583 31.687L93.6383 31.6904L93.6434 33.0504ZM106.418 36.9231C106.177 36.8373 105.907 36.7216 105.607 36.5761C105.306 36.4305 105.009 36.2683 104.715 36.0894C104.421 35.9105 104.16 35.7348 103.933 35.5623C103.812 35.4694 103.742 35.353 103.721 35.2131C103.708 35.0664 103.744 34.9363 103.83 34.8227C103.903 34.7357 103.983 34.6788 104.069 34.6518L101.989 34.6595C102.029 34.6793 102.07 34.7025 102.11 34.729C102.15 34.7556 102.183 34.7888 102.21 34.8287C102.304 34.955 102.334 35.0882 102.301 35.2283C102.275 35.3618 102.209 35.472 102.103 35.5591C101.903 35.7198 101.661 35.8874 101.375 36.0618C101.089 36.2362 100.792 36.3973 100.486 36.5451C100.187 36.6928 99.9107 36.8172 99.6577 36.9181C99.4647 36.9922 99.2914 37.0095 99.1379 36.9701C98.9845 36.9373 98.8708 36.8377 98.7968 36.6713C98.7296 36.5182 98.7257 36.3716 98.7852 36.2314C98.8447 36.0911 98.961 35.9907 99.1341 35.9301C99.3871 35.8358 99.6533 35.7248 99.9328 35.5971C100.219 35.4627 100.492 35.325 100.751 35.1841C101.011 35.0364 101.234 34.8956 101.42 34.7616C101.446 34.7415 101.473 34.7247 101.5 34.7113C101.533 34.6912 101.563 34.6744 101.589 34.661L98.8594 34.6711C98.7194 34.6716 98.5992 34.6254 98.4989 34.5324C98.4052 34.4328 98.3581 34.3163 98.3576 34.1829C98.3571 34.0429 98.4033 33.9261 98.4963 33.8324C98.5959 33.7321 98.7157 33.6816 98.8557 33.6811L99.2357 33.6797L99.1413 29.79C99.1335 29.49 99.156 29.2499 99.2086 29.0698C99.2679 28.8829 99.3774 28.7358 99.537 28.6285C99.6966 28.5146 99.9262 28.4204 100.226 28.346C100.339 28.3122 100.452 28.2818 100.566 28.2547C100.686 28.2209 100.802 28.1872 100.915 28.1534C101.042 28.1196 101.162 28.1258 101.275 28.1721C101.389 28.2117 101.466 28.298 101.506 28.4312C101.553 28.5777 101.547 28.7044 101.488 28.8113C101.435 28.9115 101.342 28.9785 101.208 29.0123C101.122 29.0393 101.029 29.0697 100.929 29.1034C100.829 29.1304 100.742 29.1507 100.669 29.1643C100.463 29.2184 100.333 29.2823 100.28 29.3558C100.227 29.4226 100.204 29.5594 100.211 29.766L100.212 30.076L100.992 30.0731C101.126 30.0727 101.236 30.1156 101.323 30.2019C101.417 30.2882 101.464 30.3981 101.464 30.5314C101.465 30.6581 101.418 30.7682 101.325 30.8619C101.239 30.9489 101.129 30.9926 100.996 30.9931L100.236 30.996L100.259 31.8559L100.999 31.8531C101.132 31.8526 101.242 31.8956 101.329 31.9819C101.423 32.0682 101.47 32.1781 101.471 32.3114C101.471 32.4381 101.425 32.5482 101.332 32.6419C101.246 32.7289 101.136 32.7726 101.002 32.7731L100.282 32.7758L100.306 33.6757L101.796 33.6702L101.789 31.9502C101.789 31.8102 101.835 31.7 101.928 31.6197C102.021 31.5327 102.131 31.4889 102.258 31.4885C102.391 31.488 102.501 31.5309 102.588 31.6172C102.682 31.6969 102.729 31.8067 102.729 31.9467L102.736 33.6667L103.286 33.6647L103.278 31.6747C103.278 31.4814 103.25 31.3581 103.197 31.305C103.15 31.2452 103.02 31.2156 102.807 31.2164C102.427 31.2178 102.16 31.1488 102.006 31.0094C101.859 30.8633 101.784 30.5935 101.783 30.2002L101.776 28.3702C101.775 28.2169 101.825 28.0934 101.925 27.9997C102.024 27.906 102.144 27.8589 102.284 27.8583C102.424 27.8578 102.544 27.904 102.645 27.997C102.752 28.0899 102.805 28.2131 102.806 28.3664L102.808 28.8064L103.848 28.8026C103.968 28.8021 104.071 28.8451 104.158 28.9314C104.245 29.0111 104.289 29.1109 104.289 29.2309C104.29 29.3509 104.247 29.4544 104.16 29.5414C104.074 29.6284 103.971 29.6721 103.851 29.6725L102.811 29.6764L102.812 29.9764C102.813 30.1564 102.846 30.2729 102.913 30.326C102.98 30.3724 103.11 30.3953 103.304 30.3946C103.617 30.3934 103.847 30.4726 103.994 30.632C104.148 30.7848 104.226 31.0512 104.227 31.4312L104.236 33.6611L105.686 33.6558L105.702 32.7657L104.952 32.7685C104.826 32.769 104.716 32.7227 104.622 32.6297C104.535 32.5367 104.491 32.4269 104.491 32.3002C104.49 32.1735 104.533 32.0667 104.619 31.9797C104.712 31.886 104.822 31.839 104.949 31.8385L105.719 31.8356L105.726 30.9756L104.946 30.9785C104.819 30.979 104.709 30.936 104.615 30.8497C104.528 30.7567 104.485 30.6469 104.484 30.5202C104.484 30.3869 104.526 30.2767 104.613 30.1897C104.706 30.1027 104.816 30.059 104.942 30.0585L105.742 30.0555L105.751 29.7455C105.757 29.5321 105.723 29.3923 105.65 29.3259C105.576 29.2528 105.433 29.2167 105.219 29.2175L104.749 29.2192C104.623 29.2197 104.512 29.1734 104.419 29.0804C104.325 28.9875 104.278 28.8776 104.277 28.751C104.277 28.6176 104.323 28.5041 104.416 28.4104C104.509 28.3168 104.619 28.2697 104.746 28.2692L105.286 28.2672C105.692 28.2657 106.006 28.3112 106.226 28.4037C106.453 28.4896 106.61 28.639 106.698 28.852C106.785 29.065 106.823 29.3582 106.811 29.7316L106.746 33.6518L107.146 33.6504C107.286 33.6498 107.403 33.6994 107.496 33.7991C107.597 33.892 107.647 34.0085 107.648 34.1485C107.648 34.2818 107.598 34.3987 107.499 34.4991C107.406 34.5927 107.289 34.6398 107.149 34.6404L104.399 34.6505C104.433 34.6571 104.466 34.6703 104.5 34.6902C104.54 34.71 104.573 34.7299 104.6 34.7498C104.8 34.8891 105.037 35.0349 105.311 35.1872C105.585 35.3328 105.866 35.4718 106.153 35.6041C106.447 35.7296 106.707 35.832 106.934 35.9112C107.088 35.9573 107.191 36.0469 107.245 36.18C107.306 36.3198 107.309 36.4631 107.257 36.61C107.191 36.7969 107.074 36.9073 106.908 36.9413C106.748 36.9819 106.585 36.9758 106.418 36.9231ZM110.579 37.1277C110.419 37.1283 110.278 37.0721 110.158 36.9592C110.044 36.853 109.987 36.7132 109.986 36.5399L109.975 33.4299C109.973 33.0099 110.025 32.683 110.131 32.4493C110.244 32.2155 110.43 32.0515 110.689 31.9572C110.956 31.8629 111.319 31.8149 111.779 31.8132L114.229 31.8041C114.689 31.8024 115.049 31.8477 115.309 31.9401C115.576 32.0324 115.764 32.1951 115.871 32.428C115.979 32.6609 116.033 32.9874 116.035 33.4074L116.043 35.5774C116.044 35.9574 115.995 36.2542 115.896 36.4679C115.804 36.6883 115.644 36.8422 115.418 36.9297C115.198 37.0172 114.895 37.0617 114.508 37.0631C114.315 37.0638 114.165 37.011 114.058 36.9048C113.951 36.8052 113.89 36.6721 113.876 36.5054C113.869 36.3588 113.912 36.2253 114.005 36.105C114.098 35.9846 114.224 35.9175 114.384 35.9035C114.611 35.876 114.747 35.8389 114.794 35.792C114.847 35.7452 114.873 35.6384 114.872 35.4717L114.872 35.2917L111.162 35.3055L111.166 36.5355C111.167 36.7088 111.111 36.849 110.998 36.9561C110.885 37.0699 110.745 37.127 110.579 37.1277ZM115.258 31.4903C114.698 31.4924 114.264 31.4506 113.957 31.3651C113.657 31.2729 113.446 31.1137 113.325 30.8874C113.205 30.6546 113.143 30.3248 113.142 29.8981L113.136 28.1981C113.135 28.0248 113.188 27.8879 113.294 27.7875C113.407 27.6871 113.54 27.6366 113.693 27.6361C113.847 27.6355 113.977 27.685 114.084 27.7846C114.191 27.8842 114.245 28.0207 114.245 28.194L114.248 28.914C114.448 28.8266 114.667 28.7291 114.907 28.6216C115.153 28.514 115.386 28.4098 115.606 28.309C115.832 28.2015 116.015 28.1108 116.155 28.0369C116.308 27.9564 116.455 27.9392 116.595 27.9853C116.742 28.0314 116.849 28.121 116.916 28.2541C116.99 28.3938 116.997 28.5305 116.937 28.664C116.884 28.7976 116.788 28.8946 116.648 28.9551C116.455 29.0425 116.216 29.1434 115.929 29.2578C115.643 29.3722 115.35 29.4833 115.051 29.591C114.751 29.6921 114.485 29.7831 114.252 29.864C114.252 30.0173 114.276 30.1372 114.323 30.2237C114.377 30.3102 114.48 30.3698 114.634 30.4026C114.787 30.4287 115.01 30.4412 115.304 30.4401C115.61 30.439 115.84 30.4214 115.994 30.3875C116.154 30.3536 116.267 30.2932 116.333 30.2063C116.406 30.1193 116.462 29.9958 116.502 29.8357C116.548 29.6888 116.641 29.5851 116.78 29.5246C116.92 29.4641 117.067 29.4569 117.22 29.503C117.387 29.549 117.501 29.6353 117.561 29.7617C117.622 29.8882 117.632 30.0315 117.593 30.1916C117.521 30.5186 117.402 30.7757 117.236 30.9629C117.07 31.1502 116.83 31.2845 116.517 31.3656C116.204 31.4468 115.784 31.4883 115.258 31.4903ZM111.869 31.7128C111.715 31.7134 111.582 31.6639 111.468 31.5643C111.361 31.4647 111.307 31.3316 111.306 31.1649L111.306 30.9849C111.106 31.039 110.866 31.0999 110.586 31.1676C110.307 31.2353 110.03 31.2997 109.757 31.3607C109.491 31.4217 109.271 31.4725 109.098 31.5131C108.938 31.547 108.794 31.5276 108.668 31.4547C108.547 31.3818 108.47 31.2621 108.436 31.0956C108.409 30.9423 108.432 30.8089 108.505 30.6953C108.584 30.5817 108.704 30.5112 108.864 30.484C109.064 30.4499 109.314 30.4056 109.613 30.3512C109.913 30.2901 110.216 30.229 110.523 30.1678C110.829 30.1067 111.089 30.0557 111.302 30.0149L111.301 29.5849L109.021 29.5934C108.874 29.5939 108.757 29.5477 108.67 29.4547C108.59 29.3616 108.549 29.2518 108.549 29.1251C108.548 28.9918 108.588 28.8783 108.668 28.7847C108.754 28.691 108.87 28.6439 109.017 28.6434L111.297 28.6349L111.296 28.2049C111.295 28.0316 111.348 27.8947 111.454 27.7944C111.567 27.6939 111.7 27.6434 111.853 27.6429C112.007 27.6423 112.137 27.6918 112.244 27.7914C112.351 27.891 112.405 28.0275 112.406 28.2008L112.416 31.1608C112.417 31.3275 112.364 31.461 112.258 31.5614C112.152 31.6618 112.022 31.7123 111.869 31.7128ZM111.159 34.4555L114.869 34.4417L114.867 33.9917L111.157 34.0055L111.159 34.4555ZM111.164 33.1555L114.854 33.1418C114.84 32.9618 114.779 32.8421 114.673 32.7825C114.566 32.7229 114.379 32.6935 114.112 32.6945L111.902 32.7027C111.642 32.7037 111.459 32.7344 111.353 32.7948C111.246 32.8552 111.183 32.9754 111.164 33.1555ZM118.81 32.0571C118.677 32.0576 118.56 32.0114 118.459 31.9184C118.366 31.8254 118.319 31.7123 118.318 31.5789C118.318 31.4456 118.364 31.3321 118.457 31.2384C118.556 31.1447 118.673 31.0976 118.806 31.0971L122.336 31.084L122.335 30.684L121.645 30.6866C121.218 30.6882 120.881 30.6461 120.634 30.5603C120.394 30.4679 120.223 30.3152 120.123 30.1022C120.022 29.8826 119.971 29.5895 119.969 29.2228C119.968 28.8495 120.017 28.556 120.116 28.3423C120.215 28.1285 120.385 27.9779 120.624 27.8904C120.871 27.7961 121.207 27.7482 121.634 27.7466L124.374 27.7365C124.807 27.7349 125.144 27.7803 125.384 27.8727C125.625 27.9585 125.795 28.1079 125.896 28.3208C125.997 28.5338 126.048 28.8269 126.049 29.2003C126.051 29.5669 126.002 29.8604 125.903 30.0808C125.803 30.2945 125.634 30.4485 125.394 30.5427C125.155 30.6303 124.818 30.6748 124.385 30.6764L123.665 30.6791L123.666 31.0791L127.186 31.0661C127.32 31.0656 127.433 31.1118 127.527 31.2048C127.62 31.2978 127.668 31.4109 127.668 31.5443C127.668 31.6776 127.622 31.7911 127.529 31.8848C127.436 31.9785 127.323 32.0256 127.19 32.0261L118.81 32.0571ZM122.008 37.0253C121.842 37.0259 121.698 36.9764 121.578 36.8769C121.464 36.784 121.404 36.6475 121.396 36.4676C121.389 36.3009 121.435 36.1674 121.535 36.067C121.641 35.9667 121.784 35.9095 121.964 35.8955C122.191 35.8813 122.337 35.8474 122.404 35.7938C122.477 35.7336 122.513 35.6268 122.513 35.4734L122.509 34.5134L121.479 34.5172C121.546 34.557 121.599 34.6068 121.64 34.6666C121.727 34.793 121.76 34.9262 121.741 35.0663C121.728 35.2063 121.665 35.3232 121.552 35.417C121.386 35.5376 121.19 35.6717 120.964 35.8192C120.738 35.9667 120.505 36.1075 120.265 36.2418C120.026 36.3826 119.803 36.5035 119.597 36.6042C119.424 36.6915 119.257 36.7155 119.097 36.6761C118.937 36.6433 118.816 36.5471 118.736 36.3874C118.655 36.2411 118.641 36.0944 118.694 35.9476C118.747 35.8007 118.853 35.6903 119.013 35.6164C119.173 35.5425 119.369 35.4417 119.602 35.3142C119.835 35.1867 120.064 35.0558 120.29 34.9217C120.517 34.7875 120.703 34.6701 120.849 34.5696C120.869 34.5562 120.889 34.5428 120.909 34.5294C120.936 34.5159 120.959 34.5058 120.979 34.4991C120.612 34.4605 120.352 34.3581 120.198 34.192C120.044 34.0259 119.966 33.7795 119.965 33.4528C119.964 33.0795 120.066 32.8091 120.272 32.6417C120.485 32.4676 120.858 32.3795 121.391 32.3776L124.641 32.3655C125.174 32.3635 125.545 32.4488 125.752 32.6214C125.966 32.7873 126.074 33.0569 126.075 33.4302C126.076 33.7635 125.997 34.0172 125.838 34.1911C125.678 34.3583 125.399 34.4594 124.999 34.4942C125.026 34.5008 125.049 34.5107 125.069 34.5239C125.089 34.5305 125.112 34.5404 125.139 34.5537C125.293 34.6531 125.483 34.7691 125.71 34.9016C125.938 35.0274 126.168 35.1499 126.402 35.269C126.636 35.3881 126.839 35.4874 127.013 35.5667C127.146 35.6196 127.237 35.7226 127.284 35.8757C127.338 36.0222 127.328 36.1622 127.256 36.2958C127.183 36.4494 127.067 36.5499 126.907 36.5971C126.747 36.6444 126.59 36.635 126.437 36.5689C126.25 36.4829 126.036 36.3737 125.795 36.2413C125.555 36.1088 125.318 35.973 125.084 35.8339C124.85 35.6881 124.653 35.5555 124.492 35.4361C124.372 35.3432 124.298 35.2235 124.271 35.0769C124.251 34.9303 124.287 34.7968 124.38 34.6765C124.433 34.603 124.506 34.546 124.599 34.5057L123.689 34.5091L123.693 35.659C123.695 36.1457 123.56 36.4929 123.287 36.7006C123.021 36.9082 122.595 37.0165 122.008 37.0253ZM121.606 33.7268L124.436 33.7163C124.603 33.7157 124.709 33.6953 124.756 33.6551C124.809 33.6149 124.835 33.5415 124.835 33.4348C124.835 33.3281 124.808 33.2582 124.754 33.2251C124.707 33.1853 124.601 33.1657 124.434 33.1663L121.604 33.1768C121.437 33.1774 121.327 33.1978 121.274 33.238C121.228 33.2715 121.205 33.3416 121.205 33.4483C121.205 33.5549 121.229 33.6282 121.276 33.668C121.329 33.7078 121.439 33.7274 121.606 33.7268ZM121.178 28.8783L124.848 28.8647C124.821 28.6981 124.757 28.5951 124.657 28.5554C124.557 28.5091 124.38 28.4864 124.127 28.4874L121.887 28.4957C121.64 28.4966 121.467 28.5206 121.367 28.5676C121.267 28.608 121.204 28.7116 121.178 28.8783ZM121.892 29.9357L124.132 29.9274C124.379 29.9265 124.552 29.9058 124.652 29.8654C124.752 29.8184 124.815 29.7148 124.841 29.5547L121.181 29.5683C121.208 29.7282 121.272 29.8313 121.372 29.8776C121.472 29.9172 121.645 29.9366 121.892 29.9357Z" fill="#1CB76B"/>
<path d="M87.8437 58.733C87.598 58.6486 87.4428 58.4945 87.3779 58.2707C87.3132 58.0576 87.3284 57.8496 87.4236 57.6466C87.6774 57.0483 87.8723 56.3809 88.0082 55.6444C88.1441 54.8972 88.21 53.9583 88.2058 52.8276C88.2054 52.7316 88.2051 52.6516 88.2049 52.5876C88.2046 52.513 88.2044 52.449 88.2042 52.3956C88.2038 52.2996 88.2035 52.209 88.2032 52.1236C88.2028 52.0276 88.2023 51.8996 88.2017 51.7396C88.1983 50.801 88.5161 50.2078 89.1552 49.9601C89.0165 49.9606 88.8884 49.9291 88.7708 49.8655C88.6532 49.7913 88.5675 49.6849 88.5136 49.5465C88.4383 49.3654 88.443 49.1947 88.5277 49.0344C88.6125 48.8741 88.7454 48.7669 88.9265 48.7129C89.1503 48.6374 89.374 48.5566 89.5976 48.4704C89.8213 48.3843 90.045 48.2928 90.2686 48.1959C90.1296 48.1111 89.9854 48.037 89.8358 47.9736C89.6969 47.9101 89.558 47.8466 89.4191 47.7831C89.2802 47.7196 89.1891 47.6079 89.1458 47.4481C89.1132 47.2882 89.134 47.1441 89.2082 47.0159C89.293 46.8662 89.41 46.7751 89.5592 46.7426L88.3432 46.7471C88.1192 46.7479 87.943 46.6792 87.8145 46.541C87.6859 46.3922 87.6213 46.2164 87.6205 46.0137C87.6198 45.8111 87.6831 45.6402 87.8106 45.501C87.9381 45.3619 88.1138 45.2919 88.3378 45.2911L90.5618 45.2828L90.5603 44.8668C90.5593 44.5895 90.6438 44.3705 90.8139 44.2099C90.9946 44.0492 91.2076 43.9684 91.453 43.9675C91.6983 43.9666 91.9066 44.0458 92.0778 44.2052C92.2598 44.3645 92.3512 44.5829 92.3523 44.8602L92.3538 45.2762L94.3058 45.269C94.4231 45.2685 94.5192 45.2842 94.594 45.3159C94.6039 45.1132 94.6726 44.9476 94.8001 44.8191C94.9383 44.6799 95.1194 44.6099 95.3434 44.6091L101.775 44.5853C102.01 44.5844 102.192 44.6584 102.32 44.8073C102.459 44.9454 102.529 45.1211 102.53 45.3345C102.531 45.5371 102.462 45.7134 102.324 45.8632C102.197 46.0131 102.016 46.0884 101.781 46.0893L99.4449 46.0979C99.3922 46.2688 99.3289 46.461 99.255 46.6746C99.1918 46.8775 99.1285 47.0698 99.0652 47.2513L99.2572 47.2506C100.121 47.2474 100.735 47.3998 101.099 47.7078C101.473 48.0051 101.662 48.5164 101.665 49.2417L101.68 53.4497C101.683 54.1643 101.498 54.677 101.126 54.9878C100.764 55.2984 100.152 55.4554 99.2876 55.4586L97.8316 55.464C97.7889 55.4641 97.7463 55.4643 97.7036 55.4644C97.6716 55.4539 97.6342 55.4487 97.5916 55.4489C97.741 55.4803 97.8639 55.5438 97.9603 55.6395C98.1102 55.7883 98.1855 55.9693 98.1863 56.1827C98.1977 56.3853 98.129 56.5669 97.9803 56.7274C97.6722 57.0592 97.2948 57.4073 96.8482 57.7716C96.4122 58.1466 96.0027 58.4521 95.6195 58.6882C95.4067 58.8276 95.1776 58.8818 94.9321 58.8507C94.6867 58.8303 94.4889 58.7084 94.3388 58.4849C94.2208 58.304 94.1827 58.0962 94.2245 57.8614C94.2663 57.6372 94.3777 57.4714 94.5586 57.3641C94.7927 57.2139 95.0481 57.037 95.3247 56.8333C95.6119 56.6295 95.8832 56.4259 96.1384 56.2222C96.4043 56.0079 96.6222 55.8151 96.7923 55.6438C96.9518 55.5152 97.1222 55.4453 97.3035 55.4339C96.6313 55.3831 96.1453 55.2035 95.8455 54.8953C95.5563 54.5871 95.4106 54.1129 95.4082 53.4729L95.3926 49.265C95.3903 48.6356 95.5272 48.1658 95.8034 47.8554C96.0902 47.545 96.5589 47.3566 97.2093 47.2902C97.262 47.1087 97.3252 46.9111 97.3991 46.6975C97.473 46.4732 97.5309 46.2757 97.5729 46.1049L95.3489 46.1131C95.2209 46.1136 95.1142 46.0926 95.0287 46.0503C95.0187 46.2317 94.95 46.3919 94.8225 46.5311C94.695 46.6595 94.5245 46.7242 94.3112 46.725L93.7032 46.7272C93.7139 46.7378 93.7246 46.7485 93.7353 46.7591C93.746 46.759 93.7567 46.7643 93.7674 46.775C93.8638 46.8919 93.9123 47.0358 93.913 47.2064C93.9136 47.3664 93.85 47.4947 93.7224 47.5911C93.5948 47.6876 93.4671 47.7841 93.3395 47.8806C93.2118 47.977 93.0735 48.0682 92.9245 48.1541C93.0634 48.2283 93.1917 48.3078 93.3094 48.3927C93.4376 48.4669 93.5553 48.5464 93.6623 48.6314C93.812 48.7375 93.8979 48.8865 93.9199 49.0784C93.9526 49.2596 93.9105 49.4251 93.7938 49.5749C93.7407 49.6604 93.6503 49.7301 93.5225 49.7839L94.3865 49.7807C94.6105 49.7799 94.7868 49.8485 94.9153 49.9867C95.0438 50.1249 95.1084 50.2954 95.1092 50.498C95.1099 50.7007 95.0466 50.8716 94.9191 51.0107C94.7916 51.1499 94.6159 51.2199 94.3919 51.2207L93.9919 51.2222C94.0133 51.2434 94.024 51.2594 94.024 51.27C94.1206 51.419 94.1585 51.5842 94.1379 51.7656C94.1172 51.9364 94.0324 52.0754 93.8834 52.1826C93.6706 52.3327 93.4153 52.499 93.1173 52.6814C92.8299 52.8532 92.5372 53.0249 92.2392 53.1967C91.9411 53.3578 91.6696 53.4975 91.4247 53.6157C91.2224 53.7125 91.0145 53.7346 90.801 53.682C90.5981 53.6188 90.4482 53.486 90.3515 53.2837C90.2762 53.1133 90.2702 52.9373 90.3335 52.7557C90.4075 52.5741 90.5297 52.4457 90.7001 52.3704C91.0196 52.2412 91.3763 52.0692 91.7702 51.8544C92.1747 51.6396 92.5366 51.4302 92.8559 51.2264L90.7119 51.2343C90.3812 51.2356 90.1521 51.2951 90.0245 51.4129C89.9076 51.5306 89.8498 51.7442 89.8509 52.0535L89.8536 52.7895C89.8578 53.9202 89.7976 54.9231 89.6728 55.7982C89.548 56.6627 89.3164 57.4902 88.978 58.2808C88.8827 58.4838 88.7233 58.6284 88.4996 58.7146C88.2866 58.8007 88.0679 58.8068 87.8437 58.733ZM90.7389 58.5303C90.5046 58.6271 90.2913 58.6386 90.0991 58.5646C89.9068 58.4907 89.7676 58.3632 89.6816 58.1822C89.5955 57.9798 89.5895 57.7879 89.6635 57.6063C89.7482 57.4246 89.8917 57.2961 90.0941 57.2207C90.4562 57.0806 90.8503 56.9085 91.2762 56.7043C91.702 56.4894 92.1225 56.2638 92.5377 56.0276C92.9528 55.7807 93.3145 55.5447 93.623 55.3196C93.7826 55.2016 93.9585 55.1637 94.1506 55.2056C94.3428 55.2476 94.4925 55.3537 94.5998 55.5239C94.7177 55.6728 94.761 55.8433 94.7297 56.0355C94.6984 56.2276 94.603 56.3826 94.4434 56.5005C94.1243 56.747 93.7466 56.9991 93.3102 57.2567C92.8845 57.5143 92.4481 57.7506 92.0008 57.9656C91.5537 58.1913 91.133 58.3795 90.7389 58.5303ZM101.411 58.6347C101.058 58.3907 100.663 58.0988 100.224 57.7591C99.7855 57.4194 99.411 57.0848 99.1004 56.7553C98.9505 56.5958 98.8805 56.4148 98.8904 56.212C98.9109 55.9986 98.9903 55.817 99.1284 55.6672C99.2772 55.5173 99.4689 55.4472 99.7036 55.457C99.9383 55.4668 100.131 55.5461 100.28 55.6949C100.537 55.9286 100.874 56.1994 101.292 56.5071C101.709 56.8043 102.099 57.0642 102.462 57.2868C102.644 57.4035 102.751 57.5791 102.784 57.8136C102.828 58.0481 102.791 58.2563 102.675 58.438C102.537 58.6625 102.345 58.7859 102.1 58.8082C101.855 58.8304 101.625 58.7726 101.411 58.6347ZM91.1296 56.0008C90.9272 56.0762 90.7245 56.0876 90.5217 56.0351C90.3295 55.9824 90.1903 55.855 90.1043 55.6526C90.0289 55.4716 90.0176 55.2956 90.0703 55.1247C90.1337 54.9538 90.2665 54.8307 90.4689 54.7553C90.9269 54.5722 91.4167 54.3304 91.9383 54.0298C92.4705 53.7292 92.9387 53.4288 93.3429 53.1286C93.5025 53.0107 93.6784 52.9727 93.8705 53.0146C94.0627 53.0566 94.2124 53.1627 94.3197 53.333C94.4269 53.4819 94.4648 53.6418 94.4335 53.8125C94.4128 53.9833 94.328 54.1276 94.1791 54.2455C93.7323 54.5672 93.2268 54.8944 92.6627 55.2271C92.0986 55.5492 91.5875 55.8071 91.1296 56.0008ZM98.1782 54.0067L98.9302 54.0039C99.3355 54.0024 99.602 53.9534 99.7297 53.8569C99.8679 53.7497 99.9364 53.5148 99.9351 53.1522L99.9346 53.0402L97.1667 53.0504L97.1671 53.1624C97.1684 53.5251 97.2333 53.7595 97.3617 53.8657C97.5007 53.9612 97.7729 54.0082 98.1782 54.0067ZM97.1619 51.7544L99.9298 51.7442L99.9266 50.8802L97.1587 50.8904L97.1619 51.7544ZM97.1539 49.5944L99.9218 49.5842L99.9217 49.5522C99.9204 49.1895 99.8502 48.9604 99.7112 48.865C99.5828 48.7588 99.3159 48.7064 98.9106 48.7079L98.1586 48.7107C97.7533 48.7122 97.4815 48.7666 97.3432 48.8737C97.2155 48.9702 97.1524 49.1998 97.1537 49.5624L97.1539 49.5944ZM89.6827 49.8301C89.768 49.8191 89.8479 49.8135 89.9226 49.8132C90.0079 49.8023 90.0932 49.7966 90.1786 49.7963L92.9465 49.786C92.8717 49.7543 92.7969 49.7173 92.7221 49.6749C92.5617 49.5581 92.3906 49.4414 92.2088 49.3248C92.027 49.1974 91.8346 49.0755 91.6315 48.9589C91.3121 49.1308 90.9874 49.292 90.6572 49.4425C90.3271 49.5824 90.0022 49.7116 89.6827 49.8301ZM91.6739 47.4707C91.8868 47.3526 92.0891 47.2292 92.2806 47.1005C92.4721 46.9718 92.653 46.8484 92.8232 46.7305L89.9912 46.741C90.0126 46.7409 90.0339 46.7461 90.0553 46.7567C90.0766 46.7566 90.098 46.7619 90.1193 46.7725C90.365 46.8569 90.6161 46.9627 90.8725 47.0897C91.1396 47.206 91.4068 47.3331 91.6739 47.4707ZM110.259 58.6019C109.289 58.6055 108.494 58.5551 107.875 58.4508C107.256 58.3464 106.77 58.1615 106.417 57.8962C106.074 57.6308 105.833 57.2583 105.693 56.7788C105.563 56.2993 105.496 55.6809 105.494 54.9236L105.481 51.5796C105.479 50.8436 105.583 50.2619 105.795 49.8344C106.007 49.3963 106.357 49.0857 106.847 48.9025C107.348 48.7086 108.02 48.6102 108.862 48.607L110.606 48.6006C110.712 48.4508 110.829 48.2904 110.956 48.1193C111.084 47.9481 111.185 47.8091 111.259 47.7021C111.535 47.3171 111.433 47.1255 110.953 47.1273L108.377 47.1368C107.324 48.0687 106.213 48.8835 105.042 49.5812C104.797 49.7208 104.541 49.7751 104.274 49.744C104.008 49.713 103.799 49.5858 103.649 49.3624C103.477 49.1177 103.418 48.8672 103.47 48.611C103.523 48.3548 103.693 48.1462 103.98 47.9851C104.523 47.6738 105.076 47.3037 105.64 46.875C106.214 46.4462 106.757 45.9962 107.267 45.5249C107.777 45.0537 108.202 44.6041 108.542 44.1762C108.733 43.9301 108.972 43.8013 109.26 43.7895C109.548 43.7671 109.789 43.8302 109.981 43.9789C110.195 44.1381 110.313 44.3403 110.335 44.5855C110.368 44.8308 110.31 45.055 110.162 45.2582C110.119 45.301 110.077 45.3492 110.034 45.4027C110.003 45.4455 109.971 45.4882 109.939 45.531L111.875 45.5238C112.504 45.5215 112.979 45.6424 113.3 45.8866C113.632 46.12 113.804 46.4287 113.816 46.8127C113.838 47.1859 113.701 47.5864 113.404 48.0142C113.266 48.228 113.128 48.4206 112.99 48.5917L113.486 48.5899C114.308 48.5868 114.943 48.6752 115.391 48.8548C115.851 49.0238 116.172 49.3053 116.354 49.6993C116.537 50.0933 116.63 50.6316 116.632 51.3143C116.635 51.9969 116.546 52.5412 116.366 52.9472C116.187 53.3426 115.868 53.6318 115.41 53.8148C114.962 53.9871 114.328 54.0748 113.507 54.0779L107.411 54.1005L107.414 54.9164C107.415 55.3324 107.448 55.6683 107.513 55.9241C107.578 56.1798 107.707 56.3767 107.9 56.5147C108.092 56.6419 108.375 56.7316 108.749 56.7835C109.133 56.8248 109.634 56.8442 110.253 56.8419L113.213 56.831C114.002 56.828 114.594 56.7832 114.988 56.6964C115.393 56.6095 115.681 56.4645 115.851 56.2612C116.031 56.0578 116.164 55.7854 116.248 55.4437C116.311 55.1981 116.47 55.0109 116.726 54.8819C116.992 54.7529 117.253 54.7306 117.509 54.815C117.787 54.8887 117.985 55.0319 118.103 55.2448C118.232 55.4577 118.27 55.6975 118.218 55.9644C118.092 56.6262 117.865 57.1444 117.535 57.5189C117.217 57.9041 116.716 58.178 116.034 58.3405C115.352 58.503 114.414 58.5865 113.219 58.591L110.259 58.6019ZM107.405 52.4685L110.109 52.4584L110.1 50.2825L108.869 50.287C108.282 50.2892 107.887 50.376 107.685 50.5474C107.494 50.7188 107.399 51.0605 107.401 51.5725L107.405 52.4685ZM112.029 52.4513L113.501 52.4459C113.991 52.444 114.311 52.3682 114.46 52.2183C114.619 52.0684 114.698 51.7801 114.696 51.3534C114.695 50.9161 114.614 50.6284 114.453 50.4903C114.303 50.3415 113.983 50.2681 113.492 50.2699L112.02 50.2753L112.029 52.4513Z" fill="black" fill-opacity="0.85"/>
</g>
<defs>
<radialGradient id="paint0_radial_1260_4414" cx="0" cy="0" r="1" gradientUnits="userSpaceOnUse" gradientTransform="translate(177.999 53.4857) rotate(90) scale(7.39975 4.79175)">
<stop offset="0.16" stop-opacity="0"/>
<stop offset="1" stop-color="#1CB76B"/>
</radialGradient>
<clipPath id="clip0_1260_4414">
<rect width="200" height="90" fill="white"/>
</clipPath>
</defs>
</svg>
