<svg width="381" height="216" viewBox="0 0 381 216" fill="none" xmlns="http://www.w3.org/2000/svg">
<path fill-rule="evenodd" clip-rule="evenodd" d="M50 0C22.3858 0 0 22.3858 0 50V56.7058C0 84.32 22.3858 106.706 50 106.706H105.438C122.639 106.706 138.538 115.87 147.158 130.755C152.331 139.686 161.87 145.185 172.191 145.185H295.664C297.993 145.185 300.014 146.793 300.537 149.062L315.233 212.825C315.967 216.011 320.525 216.006 321.112 212.82L332.82 149.279C333.257 146.907 335.325 145.185 337.737 145.185H360.31C371.356 145.185 380.31 136.231 380.31 125.185V40C380.31 17.9086 362.402 0 340.31 0H50Z" fill="#FF8E2A"/>
</svg>
