<svg width="1347" height="1258" viewBox="0 0 1347 1258" fill="none" xmlns="http://www.w3.org/2000/svg">
<path fill-rule="evenodd" clip-rule="evenodd" d="M1175.59 825.436C1109.81 932.842 943.077 915.449 817.053 957.261C704.626 994.563 608.122 1079.59 487.868 1053.61C353.026 1024.48 232.741 934.113 170.189 817.529C106.715 699.229 115.338 564.099 161.481 445.301C207.09 327.882 294.886 229.702 417.723 180.248C541.031 130.603 683.017 136.534 814.428 182.423C949.517 229.596 1071.56 312.417 1138.74 432.027C1208.32 555.899 1246.12 710.275 1175.59 825.436Z" fill="white" fill-opacity="0.3"/>
<path d="M102.522 934.593C102.522 934.593 99.5151 917.416 89.4954 911.22C81.6206 906.351 74.3039 906.628 63.8947 904.853C54.2088 903.201 46.6698 905.816 38.354 902.23C26.5798 897.152 23.0404 878.805 23.0404 878.805" stroke="#8ECAE6" stroke-width="17" stroke-linecap="round"/>
<path d="M1237 370.937C1237 370.937 1249.7 371.91 1255.91 366.229C1260.8 361.763 1261.94 356.775 1265.1 350.057C1268.04 343.807 1267.57 338.26 1271.63 333.272C1277.38 326.211 1291 327.029 1291 327.029" stroke="#CFAAC7" stroke-width="17" stroke-linecap="round"/>
</svg>
