<svg width="465" height="290" viewBox="0 0 465 290" fill="none" xmlns="http://www.w3.org/2000/svg">
<path d="M67.6644 0.738281H424.076C436.978 0.738281 447.438 11.1979 447.438 24.1006C447.438 37.0032 436.978 47.4628 424.076 47.4628H400.163C392.865 47.4628 386.948 53.3794 386.948 60.6778C386.948 67.9763 392.865 73.8929 400.163 73.8929H438.16C452.583 73.8929 464.275 85.5851 464.275 100.008C464.275 114.431 452.583 126.124 438.16 126.124H427.243C418.598 126.124 411.59 133.132 411.59 141.777C411.59 150.422 404.582 157.431 395.936 157.431H388.803C376.218 157.431 366.016 167.633 366.016 180.218V181.816C366.016 195.283 376.933 206.2 390.401 206.2H406.201C413.891 206.2 420.124 212.434 420.124 220.123C420.124 227.813 426.358 234.046 434.047 234.046H442.2C454.392 234.046 464.275 243.93 464.275 256.122V261.892C464.275 277.271 451.808 289.738 436.429 289.738H45.1213C29.7424 289.738 17.2754 277.271 17.2754 261.892C17.2754 246.513 29.7424 234.046 45.1213 234.046H74.9423C82.6317 234.046 88.8652 227.813 88.8652 220.123C88.8652 212.434 82.6317 206.2 74.9422 206.2H69.5335C58.8568 206.2 50.2017 197.545 50.2017 186.869V181.816C50.2017 168.348 61.1192 157.431 74.5866 157.431H84.3119C92.9571 157.431 99.9654 150.422 99.9654 141.777C99.9654 133.132 92.9571 126.124 84.3119 126.124H43.3908C28.9677 126.124 17.2754 114.431 17.2754 100.008C17.2754 85.5851 28.9677 73.8929 43.3908 73.8929H69.7506C80.3073 73.8929 88.8652 65.335 88.8652 54.7783C88.8652 44.2216 80.3073 35.6637 69.7506 35.6637H67.6644C58.02 35.6637 50.2017 27.8454 50.2017 18.201C50.2017 8.5566 58.02 0.738281 67.6644 0.738281Z" fill="white"/>
<path d="M50.1759 13.7383H412.165C424.478 13.7383 434.46 23.7199 434.46 36.0328C434.46 48.3457 424.478 58.3273 412.165 58.3273H386.016C379.051 58.3273 373.405 63.9734 373.405 70.9383C373.405 77.9032 379.051 83.5493 386.016 83.5493H426.533C440.297 83.5493 451.454 94.7072 451.454 108.471C451.454 122.235 440.297 133.393 426.533 133.393H413.215C404.965 133.393 398.277 140.081 398.277 148.331C398.277 156.581 391.589 163.269 383.339 163.269H375.277C362.574 163.269 352.277 173.701 352.277 186.403C352.277 199.255 362.695 209.81 375.547 209.81H393.604C400.942 209.81 406.891 215.758 406.891 223.096C406.891 230.434 412.839 236.383 420.177 236.383H429.173C441.478 236.383 451.454 246.359 451.454 258.665V262.956C451.454 277.632 439.557 289.529 424.881 289.529H26.8506C12.1746 289.529 0.277344 277.632 0.277344 262.956C0.277344 248.28 12.1746 236.383 26.8506 236.383H59.2495C66.5876 236.383 72.5362 230.434 72.5362 223.096C72.5362 215.758 66.5875 209.81 59.2495 209.81H53.0237C42.2473 209.81 33.5114 201.074 33.5114 190.297V186.539C33.5114 173.688 43.9298 163.269 56.7817 163.269H68.802C77.0521 163.269 83.7401 156.581 83.7401 148.331C83.7401 140.081 77.0521 133.393 68.802 133.393H25.1991C11.4352 133.393 0.277344 122.235 0.277344 108.471C0.277344 94.7072 11.4352 83.5493 25.1992 83.5493H54.2952C64.3694 83.5493 72.5362 75.3826 72.5362 65.3084C72.5362 55.2342 64.3694 47.0674 54.2952 47.0674H50.1759C40.9724 47.0674 33.5114 39.6064 33.5114 30.4029C33.5114 21.1993 40.9723 13.7383 50.1759 13.7383Z" fill="#EF93BC"/>
<path d="M139.584 208.194C139.611 203.114 135.515 198.974 130.435 198.947C125.356 198.921 121.216 203.017 121.189 208.096L121.141 217.169C121.114 222.249 125.21 226.388 130.29 226.415C135.37 226.442 139.509 222.346 139.536 217.266L139.584 208.194Z" fill="white"/>
<path d="M110.586 208.385C110.613 203.305 106.517 199.166 101.437 199.139C96.3573 199.112 92.2177 203.208 92.1908 208.288L92.1429 217.36C92.116 222.44 96.2121 226.58 101.292 226.606C106.371 226.633 110.511 222.537 110.538 217.458L110.586 208.385Z" fill="white"/>
<path d="M136.593 211.367C136.573 215.236 133.078 218.354 128.788 218.331C124.498 218.308 121.037 215.154 121.057 211.285C121.077 207.416 124.572 204.298 128.862 204.321C133.152 204.344 136.614 207.498 136.593 211.367Z" fill="black"/>
<path d="M110.671 211.284C110.651 215.153 107.156 218.271 102.866 218.248C98.5756 218.225 95.1142 215.071 95.1347 211.202C95.1551 207.333 98.6496 204.216 102.94 204.238C107.23 204.261 110.691 207.415 110.671 211.284Z" fill="black"/>
<path d="M91.4279 248.867C91.3449 256.862 97.8679 263.414 105.997 263.502C114.127 263.59 120.784 257.179 120.867 249.184C120.95 241.189 114.427 234.637 106.298 234.549C98.1684 234.462 91.5109 240.872 91.4279 248.867Z" fill="black"/>
</svg>
