<svg width="465" height="290" viewBox="0 0 465 290" fill="none" xmlns="http://www.w3.org/2000/svg">
<path d="M68.3246 0.484375H424.736C437.639 0.484375 448.098 10.944 448.098 23.8466C448.098 36.7493 437.639 47.2089 424.736 47.2089H400.824C393.525 47.2089 387.609 53.1255 387.609 60.4239C387.609 67.7224 393.525 73.639 400.824 73.639H438.82C453.243 73.639 464.936 85.3312 464.936 99.7544C464.936 114.178 453.243 125.87 438.82 125.87H427.904C419.258 125.87 412.25 132.878 412.25 141.523C412.25 150.168 405.242 157.177 396.597 157.177H389.463C376.878 157.177 366.676 167.379 366.676 179.964V181.562C366.676 195.029 377.594 205.947 391.061 205.947H406.861C414.551 205.947 420.784 212.18 420.784 219.87C420.784 227.559 427.018 233.792 434.707 233.792H442.86C455.052 233.792 464.936 243.676 464.936 255.868V261.638C464.936 277.017 452.468 289.484 437.09 289.484H45.7815C30.4026 289.484 17.9355 277.017 17.9355 261.638C17.9355 246.26 30.4026 233.792 45.7815 233.792H75.6024C83.2918 233.792 89.5254 227.559 89.5254 219.87C89.5254 212.18 83.2918 205.947 75.6024 205.947H70.1936C59.517 205.947 50.8619 197.291 50.8619 186.615V181.562C50.8619 168.094 61.7794 157.177 75.2468 157.177H84.972C93.6172 157.177 100.626 150.168 100.626 141.523C100.626 132.878 93.6172 125.87 84.972 125.87H44.051C29.6278 125.87 17.9355 114.178 17.9355 99.7544C17.9355 85.3312 29.6278 73.639 44.051 73.639H70.4108C80.9675 73.639 89.5254 65.0811 89.5254 54.5244C89.5254 43.9677 80.9675 35.4098 70.4108 35.4098H68.3246C58.6802 35.4098 50.8619 27.5915 50.8619 17.9471C50.8619 8.3027 58.6802 0.484375 68.3246 0.484375Z" fill="white"/>
<path d="M50.8361 13.4844H412.825C425.138 13.4844 435.12 23.466 435.12 35.7789C435.12 48.0918 425.138 58.0734 412.825 58.0734H386.676C379.711 58.0734 374.065 63.7195 374.065 70.6844C374.065 77.6493 379.711 83.2954 386.676 83.2954H427.193C440.957 83.2954 452.115 94.4533 452.115 108.217C452.115 121.981 440.957 133.139 427.193 133.139H413.875C405.625 133.139 398.937 139.827 398.937 148.077C398.937 156.327 392.249 163.015 383.999 163.015H375.937C363.234 163.015 352.937 173.447 352.937 186.15C352.937 199.001 363.355 209.556 376.207 209.556H394.264C401.602 209.556 407.551 215.504 407.551 222.842C407.551 230.18 413.499 236.129 420.837 236.129H429.833C442.139 236.129 452.115 246.105 452.115 258.411V262.702C452.115 277.378 440.217 289.276 425.541 289.276H27.5107C12.8347 289.276 0.9375 277.378 0.9375 262.702C0.9375 248.026 12.8347 236.129 27.5107 236.129H59.9097C67.2477 236.129 73.1963 230.18 73.1963 222.842C73.1963 215.504 67.2477 209.556 59.9097 209.556H53.6839C42.9075 209.556 34.1715 200.82 34.1715 190.043V186.285C34.1715 173.434 44.59 163.015 57.4418 163.015H69.4622C77.7122 163.015 84.4002 156.327 84.4002 148.077C84.4002 139.827 77.7122 133.139 69.4622 133.139H25.8593C12.0954 133.139 0.9375 121.981 0.9375 108.217C0.9375 94.4533 12.0954 83.2954 25.8593 83.2954H54.9554C65.0296 83.2954 73.1963 75.1287 73.1963 65.0545C73.1963 54.9803 65.0295 46.8135 54.9554 46.8135H50.8361C41.6325 46.8135 34.1715 39.3525 34.1715 30.1489C34.1715 20.9454 41.6325 13.4844 50.8361 13.4844Z" fill="#005EA5"/>
<path fill-rule="evenodd" clip-rule="evenodd" d="M297.769 47.122C292.185 47.1328 287.461 51.853 287.473 57.9221C287.484 63.9912 292.226 68.6931 297.81 68.6823C303.395 68.6715 308.118 63.9514 308.107 57.8823C308.095 51.8132 303.353 47.1113 297.769 47.122ZM279.973 57.9365C279.954 47.956 287.801 39.6411 297.754 39.6219C307.708 39.6027 315.587 47.8873 315.607 57.8678C315.626 67.8483 307.779 76.1633 297.825 76.1825C287.871 76.2016 279.992 67.9171 279.973 57.9365Z" fill="#FA8F21"/>
<path fill-rule="evenodd" clip-rule="evenodd" d="M337.757 46.997C332.173 47.0078 327.449 51.728 327.461 57.7971C327.473 63.8662 332.214 68.5681 337.799 68.5573C343.383 68.5465 348.107 63.8264 348.095 57.7573C348.083 51.6882 343.342 46.9863 337.757 46.997ZM319.961 57.8115C319.942 47.831 327.789 39.5161 337.743 39.4969C347.696 39.4777 355.576 47.7623 355.595 57.7428C355.614 67.7233 347.767 76.0383 337.813 76.0575C327.86 76.0766 319.98 67.7921 319.961 57.8115Z" fill="#FA8F21"/>
<path fill-rule="evenodd" clip-rule="evenodd" d="M320.34 59.6997C318.952 59.3774 317.543 59.1478 316.619 59.1701C315.794 59.1901 314.541 59.4305 313.311 59.7431C312.735 59.8894 312.229 60.0347 311.868 60.1431C311.688 60.197 311.546 60.2411 311.452 60.2708C311.406 60.2856 311.371 60.2967 311.35 60.3036L311.327 60.3111C311.327 60.311 311.327 60.3109 310.151 56.7501C308.975 53.1892 308.975 53.1891 308.976 53.189L308.983 53.1866L308.996 53.1822L309.04 53.168C309.076 53.1563 309.126 53.1402 309.189 53.1202C309.315 53.0803 309.493 53.0249 309.713 52.959C310.151 52.8278 310.762 52.6524 311.463 52.4741C312.787 52.1377 314.723 51.7136 316.438 51.6722C318.361 51.6257 320.544 52.0474 322.036 52.3938C322.826 52.5773 323.516 52.7625 324.01 52.9021C324.258 52.9721 324.459 53.0314 324.601 53.0742C324.672 53.0957 324.729 53.113 324.769 53.1256L324.819 53.1409L324.834 53.1456L324.842 53.1482C324.842 53.1483 324.843 53.1484 323.712 56.7239C322.581 60.2994 322.581 60.2995 322.581 60.2996L322.555 60.2914C322.531 60.284 322.492 60.2719 322.439 60.256C322.333 60.2241 322.173 60.1768 321.969 60.1193C321.561 60.0039 320.989 59.8504 320.34 59.6997Z" fill="#FA8F21"/>
<path d="M303.544 57.8925C303.55 61.1741 300.98 63.8394 297.803 63.8455C294.626 63.8517 292.045 61.1963 292.039 57.9146C292.032 54.633 294.603 51.9677 297.78 51.9616C300.957 51.9554 303.538 54.6108 303.544 57.8925Z" fill="black"/>
<path d="M343.532 57.8143C343.538 61.096 340.968 63.7613 337.791 63.7674C334.614 63.7735 332.033 61.1182 332.027 57.8365C332.021 54.5548 334.591 51.8896 337.768 51.8834C340.945 51.8773 343.526 54.5327 343.532 57.8143Z" fill="black"/>
<path fill-rule="evenodd" clip-rule="evenodd" d="M309.429 81.7032C309.425 79.6321 311.101 77.9499 313.172 77.9459L322.983 77.927C325.054 77.923 326.736 79.5987 326.74 81.6698C326.744 83.7409 325.069 85.4231 322.998 85.4271L313.186 85.446C311.115 85.45 309.433 83.7743 309.429 81.7032Z" fill="black"/>
</svg>
