<svg width="778" height="301" viewBox="0 0 778 301" fill="none" xmlns="http://www.w3.org/2000/svg">
<rect x="0.820312" y="0.664062" width="743.5" height="300" rx="40" fill="#C4EBFE"/>
<path d="M729.648 216.75C729.648 216.75 751.031 210.503 761.816 216.75C765.809 219.063 769.007 223.47 771.425 227.992C772.983 230.906 777.867 230.228 777.785 226.925C777.525 216.44 775.65 203.199 768.651 195.693C757.718 183.967 729.648 181.266 729.648 181.266V216.75Z" fill="#C4EBFE"/>
<path d="M296.44 179.784C295.88 179.784 295.44 179.611 295.12 179.264C294.827 178.917 294.68 178.504 294.68 178.024C294.68 177.517 294.827 177.104 295.12 176.784C295.44 176.437 295.88 176.264 296.44 176.264H311V174.424H299.76C299.254 174.424 298.854 174.264 298.56 173.944C298.294 173.624 298.16 173.251 298.16 172.824C298.16 172.397 298.294 172.037 298.56 171.744C298.854 171.424 299.254 171.264 299.76 171.264H311V169.584H307.08C305.027 169.584 303.454 169.411 302.36 169.064C301.294 168.691 300.56 168.024 300.16 167.064C299.787 166.104 299.6 164.704 299.6 162.864C299.6 161.051 299.787 159.664 300.16 158.704C300.56 157.744 301.294 157.091 302.36 156.744C303.454 156.371 305.027 156.184 307.08 156.184H311V154.424H296.92C296.387 154.424 295.96 154.251 295.64 153.904C295.347 153.531 295.2 153.117 295.2 152.664C295.2 152.184 295.347 151.771 295.64 151.424C295.96 151.051 296.387 150.864 296.92 150.864H311V149.184C309.32 149.264 307.667 149.331 306.04 149.384C304.414 149.411 302.88 149.424 301.44 149.424C300.774 149.424 300.214 149.264 299.76 148.944C299.307 148.597 299.054 148.104 299 147.464C298.974 146.877 299.16 146.397 299.56 146.024C299.96 145.624 300.48 145.437 301.12 145.464C302.88 145.517 304.814 145.517 306.92 145.464C309.027 145.411 311.16 145.317 313.32 145.184C315.48 145.051 317.52 144.891 319.44 144.704C321.36 144.491 323.014 144.264 324.4 144.024C325.094 143.891 325.694 143.984 326.2 144.304C326.707 144.597 327.014 145.051 327.12 145.664C327.227 146.197 327.107 146.704 326.76 147.184C326.44 147.637 325.92 147.917 325.2 148.024C323.894 148.211 322.427 148.384 320.8 148.544C319.2 148.677 317.52 148.811 315.76 148.944V150.864H329.68C330.214 150.864 330.627 151.051 330.92 151.424C331.24 151.771 331.4 152.184 331.4 152.664C331.4 153.117 331.24 153.531 330.92 153.904C330.627 154.251 330.214 154.424 329.68 154.424H315.76V156.184H319.6C321.654 156.184 323.214 156.371 324.28 156.744C325.374 157.091 326.107 157.744 326.48 158.704C326.88 159.664 327.08 161.051 327.08 162.864C327.08 164.704 326.88 166.104 326.48 167.064C326.107 168.024 325.374 168.691 324.28 169.064C323.214 169.411 321.654 169.584 319.6 169.584H315.76V171.264H327C327.507 171.264 327.894 171.424 328.16 171.744C328.427 172.037 328.56 172.397 328.56 172.824C328.56 173.251 328.427 173.624 328.16 173.944C327.894 174.264 327.507 174.424 327 174.424H315.76V176.264H330.36C330.92 176.264 331.347 176.437 331.64 176.784C331.96 177.104 332.12 177.517 332.12 178.024C332.12 178.504 331.96 178.917 331.64 179.264C331.347 179.611 330.92 179.784 330.36 179.784H296.44ZM307.48 166.344H311V164.384H304.48C304.56 165.211 304.8 165.744 305.2 165.984C305.6 166.224 306.36 166.344 307.48 166.344ZM315.76 166.344H319.2C320.347 166.344 321.12 166.224 321.52 165.984C321.92 165.744 322.16 165.211 322.24 164.384H315.76V166.344ZM304.48 161.304H311V159.424H307.48C306.36 159.424 305.6 159.531 305.2 159.744C304.8 159.957 304.56 160.477 304.48 161.304ZM315.76 161.304H322.24C322.16 160.477 321.907 159.957 321.48 159.744C321.08 159.531 320.32 159.424 319.2 159.424H315.76V161.304ZM336.68 171.984C336.147 172.011 335.694 171.877 335.32 171.584C334.974 171.291 334.774 170.864 334.72 170.304C334.667 169.717 334.8 169.251 335.12 168.904C335.467 168.531 335.88 168.331 336.36 168.304C337.214 168.251 338.214 168.197 339.36 168.144C340.507 168.064 341.694 167.984 342.92 167.904V165.304H337.56C337.054 165.304 336.654 165.144 336.36 164.824C336.067 164.504 335.92 164.117 335.92 163.664C335.92 163.211 336.067 162.824 336.36 162.504C336.654 162.184 337.054 162.024 337.56 162.024H342.92V159.624H341.44C339.307 159.624 337.827 159.237 337 158.464C336.174 157.691 335.76 156.304 335.76 154.304V150.664C335.76 148.637 336.174 147.251 337 146.504C337.827 145.731 339.307 145.344 341.44 145.344H348.28C350.414 145.344 351.894 145.731 352.72 146.504C353.547 147.251 353.96 148.637 353.96 150.664V154.304C353.96 156.304 353.547 157.691 352.72 158.464C351.894 159.237 350.414 159.624 348.28 159.624H346.68V162.024H351.84C352.374 162.024 352.774 162.184 353.04 162.504C353.334 162.824 353.48 163.211 353.48 163.664C353.48 164.117 353.334 164.504 353.04 164.824C352.774 165.144 352.374 165.304 351.84 165.304H346.68V167.664C347.88 167.584 349.027 167.504 350.12 167.424C351.24 167.317 352.214 167.237 353.04 167.184C353.494 167.157 353.867 167.304 354.16 167.624C354.454 167.917 354.614 168.291 354.64 168.744C354.694 169.197 354.574 169.597 354.28 169.944C354.014 170.291 353.64 170.491 353.16 170.544C352.174 170.651 350.974 170.771 349.56 170.904C348.147 171.037 346.654 171.171 345.08 171.304C343.534 171.437 342.027 171.571 340.56 171.704C339.094 171.811 337.8 171.904 336.68 171.984ZM363.12 179.664C361.254 179.664 359.76 179.437 358.64 178.984C357.547 178.557 356.747 177.824 356.24 176.784C355.76 175.717 355.52 174.264 355.52 172.424V170.264C355.52 168.051 355.88 166.411 356.6 165.344C357.32 164.251 358.534 163.557 360.24 163.264V146.264C360.24 145.597 360.44 145.077 360.84 144.704C361.267 144.304 361.774 144.104 362.36 144.104C362.974 144.104 363.48 144.304 363.88 144.704C364.307 145.077 364.52 145.597 364.52 146.264V152.544H370.36C370.974 152.544 371.454 152.744 371.8 153.144C372.174 153.544 372.36 154.024 372.36 154.584C372.36 155.117 372.174 155.584 371.8 155.984C371.454 156.384 370.974 156.584 370.36 156.584H364.52V163.104C366.787 163.237 368.387 163.837 369.32 164.904C370.254 165.971 370.72 167.757 370.72 170.264V172.424C370.72 174.264 370.467 175.717 369.96 176.784C369.48 177.824 368.68 178.557 367.56 178.984C366.467 179.437 364.987 179.664 363.12 179.664ZM363.12 175.744C364.454 175.744 365.334 175.544 365.76 175.144C366.214 174.717 366.44 173.811 366.44 172.424V170.264C366.44 168.931 366.214 168.051 365.76 167.624C365.334 167.171 364.454 166.944 363.12 166.944C361.787 166.944 360.894 167.171 360.44 167.624C360.014 168.051 359.8 168.931 359.8 170.264V172.424C359.8 173.757 360.014 174.651 360.44 175.104C360.894 175.531 361.787 175.744 363.12 175.744ZM335.8 180.464C335.294 180.331 334.92 180.024 334.68 179.544C334.467 179.091 334.454 178.624 334.64 178.144C334.774 177.851 334.92 177.451 335.08 176.944C335.24 176.411 335.4 175.877 335.56 175.344C335.72 174.811 335.84 174.411 335.92 174.144C336.054 173.637 336.334 173.264 336.76 173.024C337.214 172.784 337.694 172.731 338.2 172.864C338.68 172.971 339.054 173.237 339.32 173.664C339.614 174.091 339.694 174.584 339.56 175.144C339.48 175.464 339.36 175.891 339.2 176.424C339.067 176.931 338.92 177.437 338.76 177.944C338.627 178.451 338.507 178.864 338.4 179.184C338.214 179.717 337.867 180.104 337.36 180.344C336.88 180.584 336.36 180.624 335.8 180.464ZM348.24 179.864C347.734 179.971 347.267 179.891 346.84 179.624C346.414 179.384 346.174 179.011 346.12 178.504C346.094 178.211 346.027 177.797 345.92 177.264C345.84 176.704 345.747 176.157 345.64 175.624C345.56 175.064 345.494 174.637 345.44 174.344C345.36 173.891 345.454 173.491 345.72 173.144C346.014 172.771 346.4 172.544 346.88 172.464C347.36 172.411 347.787 172.491 348.16 172.704C348.534 172.917 348.774 173.291 348.88 173.824C348.96 174.091 349.054 174.491 349.16 175.024C349.267 175.531 349.374 176.051 349.48 176.584C349.587 177.091 349.667 177.491 349.72 177.784C349.827 178.371 349.734 178.837 349.44 179.184C349.147 179.557 348.747 179.784 348.24 179.864ZM353.56 178.944C353.08 179.077 352.614 179.037 352.16 178.824C351.734 178.611 351.454 178.264 351.32 177.784C351.24 177.464 351.12 177.051 350.96 176.544C350.8 176.011 350.64 175.491 350.48 174.984C350.347 174.451 350.227 174.037 350.12 173.744C349.987 173.291 350.04 172.864 350.28 172.464C350.52 172.064 350.854 171.811 351.28 171.704C351.734 171.571 352.16 171.597 352.56 171.784C352.96 171.971 353.24 172.291 353.4 172.744C353.507 173.011 353.654 173.411 353.84 173.944C354.027 174.451 354.214 174.957 354.4 175.464C354.587 175.971 354.72 176.371 354.8 176.664C354.96 177.171 354.92 177.637 354.68 178.064C354.44 178.491 354.067 178.784 353.56 178.944ZM343.04 180.424C342.56 180.477 342.107 180.371 341.68 180.104C341.28 179.837 341.067 179.451 341.04 178.944C341.04 178.624 341.014 178.197 340.96 177.664C340.934 177.104 340.894 176.557 340.84 176.024C340.787 175.464 340.747 175.037 340.72 174.744C340.694 174.264 340.827 173.864 341.12 173.544C341.44 173.197 341.827 173.011 342.28 172.984C342.787 172.931 343.214 173.037 343.56 173.304C343.907 173.544 344.12 173.931 344.2 174.464C344.254 174.731 344.307 175.131 344.36 175.664C344.414 176.171 344.467 176.691 344.52 177.224C344.6 177.757 344.654 178.171 344.68 178.464C344.734 179.051 344.6 179.504 344.28 179.824C343.987 180.171 343.574 180.371 343.04 180.424ZM346.68 153.144C346.867 152.771 347.08 152.331 347.32 151.824C347.56 151.291 347.734 150.891 347.84 150.624C347.974 150.277 348.214 150.051 348.56 149.944C348.934 149.837 349.28 149.864 349.6 150.024C349.84 150.157 350.027 150.344 350.16 150.584C350.134 149.731 349.987 149.197 349.72 148.984C349.454 148.744 348.88 148.624 348 148.624H346.68V153.144ZM341.72 156.344H342.92V154.824C342.814 154.931 342.68 155.024 342.52 155.104C342.2 155.264 341.867 155.291 341.52 155.184C341.174 155.077 340.934 154.851 340.8 154.504C340.694 154.184 340.494 153.717 340.2 153.104C339.934 152.491 339.72 152.011 339.56 151.664V154.264C339.56 155.144 339.694 155.717 339.96 155.984C340.227 156.224 340.814 156.344 341.72 156.344ZM346.68 156.344H348C348.907 156.344 349.494 156.224 349.76 155.984C350.027 155.717 350.16 155.144 350.16 154.264V151.784C350.027 152.131 349.8 152.611 349.48 153.224C349.187 153.837 348.974 154.317 348.84 154.664C348.68 154.957 348.427 155.157 348.08 155.264C347.76 155.371 347.44 155.357 347.12 155.224C346.96 155.144 346.814 155.037 346.68 154.904V156.344ZM342.92 152.744V148.624H341.72C340.894 148.624 340.334 148.744 340.04 148.984C339.747 149.197 339.587 149.691 339.56 150.464C339.667 150.251 339.854 150.077 340.12 149.944C340.44 149.784 340.76 149.757 341.08 149.864C341.427 149.944 341.694 150.157 341.88 150.504C342.014 150.744 342.174 151.091 342.36 151.544C342.574 151.971 342.76 152.371 342.92 152.744ZM376.8 180.384C376.294 180.384 375.854 180.197 375.48 179.824C375.134 179.477 374.96 179.051 374.96 178.544C374.96 178.011 375.134 177.571 375.48 177.224C375.854 176.877 376.294 176.704 376.8 176.704H382.44V172.984C382.44 172.291 382.654 171.744 383.08 171.344C383.534 170.917 384.08 170.704 384.72 170.704C385.334 170.704 385.867 170.917 386.32 171.344C386.774 171.744 387 172.291 387 172.984V176.704H391.2V169.824H379.8C379.294 169.824 378.867 169.651 378.52 169.304C378.174 168.931 378 168.504 378 168.024C378 167.517 378.174 167.091 378.52 166.744C378.867 166.371 379.294 166.184 379.8 166.184H382.92V161.784C382.2 162.531 381.4 163.291 380.52 164.064C379.64 164.811 378.84 165.464 378.12 166.024C377.667 166.371 377.147 166.544 376.56 166.544C376 166.517 375.534 166.264 375.16 165.784C374.814 165.384 374.68 164.931 374.76 164.424C374.867 163.917 375.134 163.517 375.56 163.224C375.987 162.931 376.494 162.557 377.08 162.104C377.667 161.624 378.267 161.131 378.88 160.624C379.52 160.091 380.08 159.597 380.56 159.144C379.014 159.091 377.947 158.771 377.36 158.184C376.8 157.571 376.52 156.571 376.52 155.184C376.52 153.691 376.854 152.664 377.52 152.104C378.187 151.517 379.427 151.224 381.24 151.224H382.92V149.904H376.56C376.107 149.904 375.72 149.744 375.4 149.424C375.08 149.077 374.92 148.677 374.92 148.224C374.92 147.771 375.08 147.384 375.4 147.064C375.72 146.717 376.107 146.544 376.56 146.544H382.92V145.424C382.92 144.811 383.107 144.331 383.48 143.984C383.88 143.611 384.36 143.424 384.92 143.424C385.454 143.424 385.907 143.611 386.28 143.984C386.68 144.331 386.88 144.811 386.88 145.424V146.544H393C393.454 146.544 393.84 146.717 394.16 147.064C394.48 147.384 394.64 147.771 394.64 148.224C394.64 148.677 394.48 149.077 394.16 149.424C393.84 149.744 393.454 149.904 393 149.904H386.88V151.224H388.52C390.147 151.224 391.307 151.451 392 151.904C392.72 152.331 393.134 153.117 393.24 154.264C394.094 153.011 394.92 151.571 395.72 149.944C396.547 148.291 397.254 146.717 397.84 145.224C398.107 144.584 398.48 144.171 398.96 143.984C399.467 143.771 400.014 143.771 400.6 143.984C401.134 144.171 401.507 144.504 401.72 144.984C401.96 145.437 401.974 145.931 401.76 146.464C401.654 146.784 401.534 147.117 401.4 147.464C401.267 147.784 401.12 148.131 400.96 148.504H410.04C410.547 148.504 410.974 148.677 411.32 149.024C411.667 149.371 411.84 149.797 411.84 150.304C411.84 150.811 411.667 151.237 411.32 151.584C410.974 151.931 410.547 152.104 410.04 152.104H408.12C407.854 153.357 407.48 154.571 407 155.744C406.547 156.891 405.96 157.984 405.24 159.024C406.787 160.144 408.534 161.077 410.48 161.824C411.04 162.037 411.44 162.411 411.68 162.944C411.92 163.451 411.907 163.997 411.64 164.584C411.374 165.171 410.947 165.571 410.36 165.784C409.8 165.971 409.214 165.931 408.6 165.664C406.334 164.651 404.334 163.451 402.6 162.064C401.774 162.784 400.867 163.451 399.88 164.064C398.894 164.677 397.787 165.237 396.56 165.744C395.947 165.984 395.347 166.011 394.76 165.824C394.174 165.637 393.774 165.291 393.56 164.784C393.32 164.197 393.307 163.651 393.52 163.144C393.734 162.637 394.134 162.277 394.72 162.064C396.694 161.264 398.334 160.317 399.64 159.224C398.707 158.077 397.894 156.864 397.2 155.584C397.04 155.851 396.827 156.157 396.56 156.504C396.24 156.957 395.787 157.264 395.2 157.424C394.64 157.557 394.134 157.464 393.68 157.144C393.574 157.064 393.467 156.984 393.36 156.904C393.28 156.824 393.214 156.731 393.16 156.624C392.974 157.504 392.56 158.131 391.92 158.504C391.307 158.877 390.347 159.091 389.04 159.144C389.574 159.517 390.2 159.931 390.92 160.384C391.64 160.837 392.214 161.211 392.64 161.504C393.094 161.771 393.347 162.171 393.4 162.704C393.454 163.211 393.334 163.664 393.04 164.064C392.72 164.491 392.294 164.744 391.76 164.824C391.254 164.877 390.774 164.757 390.32 164.464C389.867 164.144 389.307 163.731 388.64 163.224C388 162.691 387.414 162.197 386.88 161.744V166.184H406.84C407.347 166.184 407.774 166.371 408.12 166.744C408.467 167.091 408.64 167.517 408.64 168.024C408.64 168.504 408.467 168.931 408.12 169.304C407.774 169.651 407.347 169.824 406.84 169.824H395.76V171.424H404.24C404.694 171.424 405.08 171.597 405.4 171.944C405.747 172.264 405.92 172.664 405.92 173.144C405.92 173.597 405.747 173.997 405.4 174.344C405.08 174.664 404.694 174.824 404.24 174.824H395.76V176.704H409.96C410.467 176.704 410.894 176.877 411.24 177.224C411.614 177.571 411.8 178.011 411.8 178.544C411.8 179.051 411.614 179.477 411.24 179.824C410.894 180.197 410.467 180.384 409.96 180.384H376.8ZM402.24 156.264C402.667 155.624 403.027 154.957 403.32 154.264C403.64 153.571 403.907 152.851 404.12 152.104H399.72C400.36 153.651 401.2 155.037 402.24 156.264ZM381.48 156.344H382.92V154.104H381.48C380.92 154.104 380.534 154.184 380.32 154.344C380.134 154.477 380.04 154.771 380.04 155.224C380.04 155.651 380.134 155.944 380.32 156.104C380.534 156.264 380.92 156.344 381.48 156.344ZM386.88 156.344H388.28C388.84 156.344 389.214 156.264 389.4 156.104C389.614 155.944 389.72 155.651 389.72 155.224C389.72 154.771 389.614 154.477 389.4 154.344C389.214 154.184 388.84 154.104 388.28 154.104H386.88V156.344ZM428.28 179.384C427.694 179.384 427.214 179.184 426.84 178.784C426.494 178.411 426.32 177.957 426.32 177.424C426.32 176.864 426.494 176.397 426.84 176.024C427.214 175.624 427.694 175.424 428.28 175.424H437.76V171.544H432.28C431.694 171.544 431.214 171.357 430.84 170.984C430.494 170.584 430.32 170.117 430.32 169.584C430.32 169.024 430.494 168.557 430.84 168.184C431.214 167.784 431.694 167.584 432.28 167.584H437.76V163.944H436.52C434.2 163.944 432.534 163.504 431.52 162.624C430.507 161.717 430 160.171 430 157.984V151.744C430 149.557 430.507 148.024 431.52 147.144C432.534 146.237 434.2 145.784 436.52 145.784H443.4C445.72 145.784 447.387 146.237 448.4 147.144C449.44 148.024 449.96 149.557 449.96 151.744V157.984C449.96 160.171 449.44 161.717 448.4 162.624C447.387 163.504 445.72 163.944 443.4 163.944H442.2V167.584H448.08C448.694 167.584 449.174 167.784 449.52 168.184C449.894 168.557 450.08 169.024 450.08 169.584C450.08 170.117 449.894 170.584 449.52 170.984C449.174 171.357 448.694 171.544 448.08 171.544H442.2V175.424H450C450.614 175.424 451.094 175.624 451.44 176.024C451.787 176.397 451.96 176.864 451.96 177.424C451.96 177.957 451.787 178.411 451.44 178.784C451.094 179.184 450.614 179.384 450 179.384H428.28ZM417.36 175.624C416.614 175.811 415.974 175.757 415.44 175.464C414.934 175.144 414.6 174.677 414.44 174.064C414.254 173.371 414.32 172.784 414.64 172.304C414.987 171.824 415.507 171.504 416.2 171.344C416.734 171.211 417.307 171.077 417.92 170.944C418.534 170.811 419.16 170.664 419.8 170.504V161.984H417.12C416.48 161.984 415.974 161.784 415.6 161.384C415.227 160.984 415.04 160.504 415.04 159.944C415.04 159.384 415.227 158.904 415.6 158.504C415.974 158.104 416.48 157.904 417.12 157.904H419.8V150.624H416.84C416.2 150.624 415.694 150.424 415.32 150.024C414.947 149.624 414.76 149.131 414.76 148.544C414.76 147.984 414.947 147.504 415.32 147.104C415.694 146.704 416.2 146.504 416.84 146.504H427.2C427.814 146.504 428.307 146.704 428.68 147.104C429.054 147.504 429.24 147.984 429.24 148.544C429.24 149.131 429.054 149.624 428.68 150.024C428.307 150.424 427.814 150.624 427.2 150.624H424.24V157.904H426.6C427.24 157.904 427.747 158.104 428.12 158.504C428.494 158.904 428.68 159.384 428.68 159.944C428.68 160.504 428.494 160.984 428.12 161.384C427.747 161.784 427.24 161.984 426.6 161.984H424.24V169.384C424.774 169.251 425.294 169.117 425.8 168.984C426.307 168.824 426.774 168.677 427.2 168.544C427.814 168.357 428.347 168.384 428.8 168.624C429.254 168.864 429.56 169.264 429.72 169.824C430.067 171.051 429.574 171.891 428.24 172.344C427.334 172.664 426.214 173.037 424.88 173.464C423.574 173.864 422.24 174.264 420.88 174.664C419.52 175.037 418.347 175.357 417.36 175.624ZM442.2 160.304H443C444.04 160.304 444.747 160.144 445.12 159.824C445.494 159.477 445.68 158.851 445.68 157.944V156.584H442.2V160.304ZM437 160.304H437.76V156.584H434.32V157.944C434.32 158.851 434.507 159.477 434.88 159.824C435.254 160.144 435.96 160.304 437 160.304ZM442.2 153.064H445.68V151.784C445.68 150.877 445.494 150.264 445.12 149.944C444.747 149.597 444.04 149.424 443 149.424H442.2V153.064ZM434.32 153.064H437.76V149.424H437C435.96 149.424 435.254 149.597 434.88 149.944C434.507 150.264 434.32 150.877 434.32 151.784V153.064Z" fill="black"/>
</svg>
