<svg width="465" height="290" viewBox="0 0 465 290" fill="none" xmlns="http://www.w3.org/2000/svg">
<path d="M68.3246 0.738281H424.736C437.639 0.738281 448.098 11.1979 448.098 24.1006C448.098 37.0032 437.639 47.4628 424.736 47.4628H400.824C393.525 47.4628 387.609 53.3794 387.609 60.6778C387.609 67.9763 393.525 73.8929 400.824 73.8929H438.82C453.243 73.8929 464.936 85.5851 464.936 100.008C464.936 114.431 453.243 126.124 438.82 126.124H427.904C419.258 126.124 412.25 133.132 412.25 141.777C412.25 150.422 405.242 157.431 396.597 157.431H389.463C376.878 157.431 366.676 167.633 366.676 180.218V181.816C366.676 195.283 377.594 206.2 391.061 206.2H406.861C414.551 206.2 420.784 212.434 420.784 220.123C420.784 227.813 427.018 234.046 434.707 234.046H442.86C455.052 234.046 464.936 243.93 464.936 256.122V261.892C464.936 277.271 452.468 289.738 437.09 289.738H45.7815C30.4026 289.738 17.9355 277.271 17.9355 261.892C17.9355 246.513 30.4026 234.046 45.7815 234.046H75.6024C83.2918 234.046 89.5254 227.813 89.5254 220.123C89.5254 212.434 83.2918 206.2 75.6024 206.2H70.1936C59.517 206.2 50.8619 197.545 50.8619 186.869V181.816C50.8619 168.348 61.7794 157.431 75.2468 157.431H84.972C93.6172 157.431 100.626 150.422 100.626 141.777C100.626 133.132 93.6172 126.124 84.972 126.124H44.051C29.6278 126.124 17.9355 114.431 17.9355 100.008C17.9355 85.5851 29.6278 73.8929 44.051 73.8929H70.4108C80.9675 73.8929 89.5254 65.335 89.5254 54.7783C89.5254 44.2216 80.9675 35.6637 70.4108 35.6637H68.3246C58.6802 35.6637 50.8619 27.8454 50.8619 18.201C50.8619 8.5566 58.6802 0.738281 68.3246 0.738281Z" fill="white"/>
<path d="M50.8361 13.7383H412.825C425.138 13.7383 435.12 23.7199 435.12 36.0328C435.12 48.3457 425.138 58.3273 412.825 58.3273H386.676C379.711 58.3273 374.065 63.9734 374.065 70.9383C374.065 77.9032 379.711 83.5493 386.676 83.5493H427.193C440.957 83.5493 452.115 94.7072 452.115 108.471C452.115 122.235 440.957 133.393 427.193 133.393H413.875C405.625 133.393 398.937 140.081 398.937 148.331C398.937 156.581 392.249 163.269 383.999 163.269H375.937C363.234 163.269 352.937 173.701 352.937 186.403C352.937 199.255 363.355 209.81 376.207 209.81H394.264C401.602 209.81 407.551 215.758 407.551 223.096C407.551 230.434 413.499 236.383 420.837 236.383H429.833C442.139 236.383 452.115 246.359 452.115 258.665V262.956C452.115 277.632 440.217 289.529 425.541 289.529H27.5107C12.8347 289.529 0.9375 277.632 0.9375 262.956C0.9375 248.28 12.8347 236.383 27.5107 236.383H59.9097C67.2477 236.383 73.1963 230.434 73.1963 223.096C73.1963 215.758 67.2477 209.81 59.9097 209.81H53.6839C42.9075 209.81 34.1715 201.074 34.1715 190.297V186.539C34.1715 173.688 44.59 163.269 57.4418 163.269H69.4622C77.7122 163.269 84.4002 156.581 84.4002 148.331C84.4002 140.081 77.7122 133.393 69.4622 133.393H25.8593C12.0954 133.393 0.9375 122.235 0.9375 108.471C0.9375 94.7072 12.0954 83.5493 25.8593 83.5493H54.9554C65.0296 83.5493 73.1963 75.3826 73.1963 65.3084C73.1963 55.2342 65.0295 47.0674 54.9554 47.0674H50.8361C41.6325 47.0674 34.1715 39.6064 34.1715 30.4029C34.1715 21.1993 41.6325 13.7383 50.8361 13.7383Z" fill="#D03E7F"/>
<path d="M140.244 208.194C140.271 203.114 136.175 198.974 131.095 198.947C126.016 198.921 121.876 203.017 121.849 208.096L121.801 217.169C121.774 222.249 125.871 226.388 130.95 226.415C136.03 226.442 140.17 222.346 140.196 217.266L140.244 208.194Z" fill="white"/>
<path d="M111.246 208.385C111.273 203.305 107.177 199.166 102.097 199.139C97.0175 199.112 92.8778 203.208 92.851 208.288L92.803 217.36C92.7762 222.44 96.8723 226.58 101.952 226.606C107.032 226.633 111.171 222.537 111.198 217.458L111.246 208.385Z" fill="white"/>
<path d="M137.254 211.367C137.233 215.236 133.739 218.354 129.448 218.331C125.158 218.308 121.697 215.154 121.717 211.285C121.738 207.416 125.232 204.298 129.522 204.321C133.813 204.344 137.274 207.498 137.254 211.367Z" fill="black"/>
<path d="M111.331 211.284C111.311 215.153 107.816 218.271 103.526 218.248C99.2357 218.225 95.7744 215.071 95.7948 211.202C95.8153 207.333 99.3098 204.216 103.6 204.238C107.89 204.261 111.352 207.415 111.331 211.284Z" fill="black"/>
<path d="M92.0881 248.867C92.0051 256.862 98.528 263.414 106.657 263.502C114.787 263.59 121.444 257.179 121.527 249.184C121.61 241.189 115.087 234.637 106.958 234.549C98.8286 234.462 92.1711 240.872 92.0881 248.867Z" fill="black"/>
</svg>
