<svg width="310" height="175" viewBox="0 0 310 175" fill="none" xmlns="http://www.w3.org/2000/svg">
<path fill-rule="evenodd" clip-rule="evenodd" d="M31.0387 1C8.73725 1 -5.76763 24.4694 4.20589 44.4164L35.1248 106.254C43.5944 123.193 60.9076 133.894 79.8462 133.894H233.186C234.105 133.894 234.906 134.52 235.127 135.413L244.182 171.951C244.684 173.976 247.563 173.976 248.065 171.951L257.251 134.885C257.395 134.302 257.917 133.894 258.517 133.894V133.894C286.131 133.894 308.517 111.508 308.517 83.8936V51C308.517 23.3858 286.131 1 258.517 1H31.0387Z" fill="white"/>
<path d="M4.20589 44.4164L5.10032 43.9692L4.20589 44.4164ZM35.1248 106.254L36.0193 105.807L36.0193 105.807L35.1248 106.254ZM257.251 134.885L258.221 135.125L257.251 134.885ZM244.182 171.951L245.153 171.711L244.182 171.951ZM248.065 171.951L247.094 171.711L248.065 171.951ZM235.127 135.413L234.157 135.653L235.127 135.413ZM5.10032 43.9692C4.34654 42.4616 3.73786 40.9348 3.26603 39.4009L1.35443 39.989C1.8588 41.6286 2.5086 43.2579 3.31146 44.8636L5.10032 43.9692ZM2.03048 29.6966C2.18403 26.3827 2.91442 23.1526 4.1423 20.1368L2.28994 19.3826C0.978543 22.6035 0.196979 26.057 0.0326205 29.604L2.03048 29.6966ZM9.29392 11.8013C11.4422 9.35433 14.0047 7.2565 16.9 5.63715L15.9238 3.89162C12.8248 5.62487 10.0854 7.86838 7.79096 10.4818L9.29392 11.8013ZM26.1324 2.40234C27.7153 2.13841 29.3532 2 31.0387 2V0C29.2435 0 27.4955 0.147447 25.8035 0.429575L26.1324 2.40234ZM31.0387 2H37.3576V0H31.0387V2ZM49.9953 2H62.6329V0H49.9953V2ZM75.2706 2H87.9083V0H75.2706V2ZM100.546 2H113.184V0H100.546V2ZM125.821 2H138.459V0H125.821V2ZM151.097 2H163.735V0H151.097V2ZM176.372 2H189.01V0H176.372V2ZM201.648 2H214.285V0H201.648V2ZM226.923 2H239.561V0H226.923V2ZM252.198 2H258.517V0H252.198V2ZM258.517 2C260.687 2 262.824 2.141 264.918 2.41421L265.177 0.431015C262.997 0.146637 260.774 0 258.517 0V2ZM277.274 5.71775C281.257 7.36945 284.975 9.53163 288.347 12.1229L289.566 10.5371C286.057 7.84052 282.186 5.58988 278.04 3.8703L277.274 5.71775ZM297.394 21.1701C299.986 24.5422 302.148 28.2606 303.799 32.2437L305.647 31.4776C303.927 27.3308 301.677 23.4606 298.98 19.9515L297.394 21.1701ZM307.103 44.5989C307.376 46.6934 307.517 48.83 307.517 51H309.517C309.517 48.7433 309.371 46.5203 309.086 44.3402L307.103 44.5989ZM307.517 51V59.2234H309.517V51H307.517ZM307.517 75.6702V83.8936H309.517V75.6702H307.517ZM307.517 83.8936C307.517 86.0636 307.376 88.2001 307.103 90.2947L309.086 90.5534C309.371 88.3733 309.517 86.1503 309.517 83.8936H307.517ZM303.799 102.65C302.148 106.633 299.986 110.351 297.394 113.723L298.98 114.942C301.677 111.433 303.927 107.563 305.647 103.416L303.799 102.65ZM288.347 122.771C284.975 125.362 281.257 127.524 277.274 129.176L278.04 131.023C282.186 129.304 286.057 127.053 289.566 124.356L288.347 122.771ZM264.918 132.479C262.824 132.753 260.687 132.894 258.517 132.894V134.894C260.774 134.894 262.997 134.747 265.177 134.463L264.918 132.479ZM258.517 132.894C258.257 132.894 258.003 132.937 257.766 133.019L258.418 134.91C258.449 134.899 258.482 134.894 258.517 134.894V132.894ZM256.583 133.945C256.446 134.156 256.343 134.391 256.28 134.644L258.221 135.125C258.23 135.091 258.243 135.06 258.261 135.033L256.583 133.945ZM256.28 134.644L255.132 139.277L257.073 139.758L258.221 135.125L256.28 134.644ZM252.835 148.544L250.539 157.811L252.48 158.292L254.777 149.025L252.835 148.544ZM248.242 167.077L247.094 171.711L249.035 172.192L250.184 167.558L248.242 167.077ZM247.094 171.711C246.843 172.723 245.404 172.723 245.153 171.711L243.212 172.192C243.964 175.23 248.283 175.23 249.035 172.192L247.094 171.711ZM245.153 171.711L244.021 167.143L242.08 167.624L243.212 172.192L245.153 171.711ZM241.757 158.009L239.493 148.874L237.552 149.355L239.816 158.49L241.757 158.009ZM237.23 139.739L236.098 135.172L234.157 135.653L235.288 140.22L237.23 139.739ZM236.098 135.172C235.766 133.834 234.565 132.894 233.186 132.894V134.894C233.646 134.894 234.046 135.207 234.157 135.653L236.098 135.172ZM233.186 132.894H226.797V134.894H233.186V132.894ZM214.018 132.894H201.24V134.894H214.018V132.894ZM188.462 132.894H175.684V134.894H188.462V132.894ZM162.905 132.894H150.127V134.894H162.905V132.894ZM137.349 132.894H124.57V134.894H137.349V132.894ZM111.792 132.894H99.0137V134.894H111.792V132.894ZM86.2354 132.894H79.8462V134.894H86.2354V132.894ZM79.8462 132.894C77.5642 132.894 75.3064 132.735 73.0859 132.426L72.8104 134.407C75.1216 134.729 77.4715 134.894 79.8462 134.894V132.894ZM60.0817 128.731C55.9392 126.905 52.0675 124.512 48.581 121.624L47.3051 123.164C50.9338 126.17 54.9633 128.66 59.2747 130.561L60.0817 128.731ZM39.4606 111.645C38.1913 109.797 37.0398 107.848 36.0193 105.807L34.2304 106.701C35.2924 108.826 36.4908 110.854 37.812 112.777L39.4606 111.645ZM36.0193 105.807L33.4427 100.654L31.6538 101.548L34.2304 106.701L36.0193 105.807ZM28.2895 90.3476L23.1364 80.0413L21.3475 80.9357L26.5007 91.242L28.2895 90.3476ZM17.9832 69.735L12.8301 59.4287L11.0412 60.3231L16.1944 70.6294L17.9832 69.735ZM7.6769 49.1223L5.10032 43.9692L3.31146 44.8636L5.88804 50.0168L7.6769 49.1223Z" fill="#C0BEBE"/>
</svg>
