<svg width="1480" height="1985" viewBox="0 0 1480 1985" fill="none" xmlns="http://www.w3.org/2000/svg">
<path fill-rule="evenodd" clip-rule="evenodd" d="M741.012 6.64026C741.04 3.32667 743.749 0.663378 747.063 0.691629C759.785 0.800101 772.723 1.2006 785.828 1.93921C789.136 2.12568 791.667 4.95888 791.481 8.26734C791.294 11.5758 788.461 14.1067 785.152 13.9202C772.247 13.1928 759.501 12.7981 746.96 12.6912C743.647 12.6629 740.983 9.95385 741.012 6.64026ZM714.566 7.0177C714.687 10.3292 712.1 13.1116 708.788 13.2324C695.728 13.7087 682.966 14.4678 670.562 15.4526C667.258 15.7148 664.368 13.2496 664.106 9.94626C663.843 6.64294 666.309 3.75248 669.612 3.49023C682.179 2.49259 695.111 1.72321 708.351 1.24036C711.663 1.11959 714.445 3.70619 714.566 7.0177ZM817.888 10.4199C818.242 7.12517 821.2 4.74156 824.495 5.09594C837.218 6.46437 850.051 8.1788 862.956 10.2789C866.227 10.8112 868.446 13.8941 867.914 17.1648C867.382 20.4355 864.299 22.6554 861.028 22.1231C848.347 20.0592 835.728 18.3734 823.212 17.0271C819.917 16.6727 817.533 13.7146 817.888 10.4199ZM637.732 12.5886C638.129 15.8785 635.784 18.8673 632.494 19.2643C619.29 20.8579 606.634 22.666 594.612 24.6036C591.34 25.1309 588.261 22.9063 587.734 19.6348C587.206 16.3633 589.431 13.2838 592.702 12.7565C604.872 10.795 617.686 8.96441 631.056 7.35079C634.346 6.95373 637.334 9.29879 637.732 12.5886ZM893.928 22.1611C894.648 18.9266 897.854 16.8882 901.088 17.6082C913.624 20.3987 926.189 23.584 938.747 27.1996C941.931 28.1165 943.769 31.4411 942.852 34.6255C941.935 37.8098 938.611 39.648 935.426 38.7312C923.113 35.1859 910.786 32.0607 898.481 29.3215C895.246 28.6015 893.208 25.3957 893.928 22.1611ZM561.643 24.3685C562.299 27.6166 560.198 30.7815 556.95 31.4375C543.231 34.2081 530.764 37.0377 519.744 39.7365C516.526 40.5247 513.278 38.5546 512.489 35.336C511.701 32.1174 513.671 28.8692 516.89 28.0809C528.058 25.3459 540.685 22.48 554.575 19.6749C557.823 19.019 560.988 21.1203 561.643 24.3685ZM479.279 38.2209C482.455 37.2766 485.795 39.0861 486.74 42.2624C487.684 45.4387 485.874 48.7791 482.698 49.7234C476.881 51.4527 472.396 52.8756 469.375 53.8624C467.865 54.3558 466.721 54.7401 465.96 54.9992C465.776 55.0619 465.614 55.1173 465.475 55.1651C465.327 55.216 465.205 55.2583 465.108 55.2918C465.015 55.3243 464.946 55.3484 464.901 55.3639L464.854 55.3807L464.844 55.3842C464.843 55.3842 464.843 55.3845 464.843 55.3846C464.842 55.3846 464.843 55.3845 464.843 55.3846C461.719 56.489 458.291 54.8523 457.186 51.7285C456.081 48.6044 457.718 45.1761 460.842 44.0712L462.842 49.7278C460.842 44.0712 460.841 44.0713 460.842 44.0712L460.843 44.0707L460.869 44.0617L460.933 44.0391C460.988 44.0198 461.068 43.9918 461.173 43.9555C461.382 43.8829 461.689 43.7769 462.092 43.6396C462.899 43.3649 464.09 42.9649 465.649 42.4557C468.765 41.4374 473.353 39.9824 479.279 38.2209ZM968.042 42.7581C969.163 39.6397 972.6 38.0204 975.718 39.1412C987.824 43.4924 999.89 48.2796 1011.88 53.535C1014.92 54.8651 1016.3 58.4037 1014.97 61.4388C1013.64 64.4738 1010.1 65.8561 1007.07 64.526C995.33 59.383 983.517 54.696 971.659 50.4339C968.541 49.3131 966.921 45.8765 968.042 42.7581ZM1038.81 72.8946C1040.35 69.9607 1043.98 68.831 1046.91 70.3715C1052.64 73.3789 1058.34 76.5037 1064.02 79.7496C1069.64 82.9689 1075.11 86.3156 1080.43 89.7815C1083.2 91.5919 1083.98 95.3094 1082.17 98.0849C1080.36 100.86 1076.65 101.643 1073.87 99.8324C1068.75 96.4937 1063.48 93.2689 1058.06 90.1658C1052.51 86.9925 1046.93 83.9371 1041.33 80.9961C1038.4 79.4557 1037.27 75.8285 1038.81 72.8946ZM1102.84 113.377C1104.97 110.834 1108.75 110.495 1111.29 112.62C1121.26 120.947 1130.56 129.732 1139.24 138.897C1141.52 141.303 1141.42 145.101 1139.01 147.38C1136.61 149.659 1132.81 149.556 1130.53 147.15C1122.16 138.312 1113.2 129.847 1103.6 121.828C1101.06 119.703 1100.72 115.919 1102.84 113.377ZM1155.6 166.99C1158.24 164.991 1162.01 165.512 1164.01 168.155C1171.78 178.426 1178.92 189.02 1185.49 199.847C1187.21 202.681 1186.3 206.371 1183.47 208.089C1180.64 209.808 1176.95 208.905 1175.23 206.072C1168.86 195.575 1161.95 185.322 1154.44 175.395C1152.44 172.752 1152.96 168.989 1155.6 166.99ZM1195.74 230.663C1198.72 229.213 1202.31 230.454 1203.76 233.434C1209.38 244.98 1214.44 256.681 1219 268.44C1220.2 271.53 1218.66 275.006 1215.57 276.204C1212.49 277.403 1209.01 275.87 1207.81 272.78C1203.36 261.309 1198.43 249.913 1192.97 238.683C1191.52 235.703 1192.76 232.112 1195.74 230.663ZM1223.96 300.498C1227.12 299.53 1230.48 301.315 1231.45 304.484C1235.21 316.815 1238.49 329.107 1241.35 341.252C1242.11 344.477 1240.11 347.707 1236.89 348.466C1233.66 349.225 1230.43 347.225 1229.67 344C1226.87 332.091 1223.66 320.052 1219.97 307.989C1219 304.82 1220.79 301.466 1223.96 300.498ZM1242.02 373.662C1245.28 373.093 1248.39 375.278 1248.96 378.543C1251.21 391.453 1253.02 404.051 1254.49 416.192C1254.88 419.482 1252.53 422.47 1249.24 422.866C1245.95 423.262 1242.97 420.916 1242.57 417.626C1241.13 405.676 1239.35 393.288 1237.14 380.603C1236.57 377.338 1238.75 374.231 1242.02 373.662ZM496.149 392.161C489.028 392.161 481.949 392.239 474.919 392.403C471.606 392.48 468.858 389.857 468.781 386.544C468.704 383.232 471.327 380.483 474.64 380.406C481.768 380.24 488.94 380.161 496.149 380.161C503.069 380.161 510.246 380.394 517.617 380.872C520.924 381.086 523.431 383.94 523.217 387.247C523.003 390.554 520.148 393.061 516.842 392.846C509.719 392.385 502.801 392.161 496.149 392.161ZM438.083 388.076C438.347 391.38 435.883 394.271 432.58 394.535C418.291 395.677 404.277 397.262 390.59 399.359C387.315 399.86 384.253 397.612 383.751 394.336C383.249 391.061 385.498 387.999 388.773 387.497C402.775 385.352 417.079 383.735 431.624 382.573C434.928 382.309 437.819 384.773 438.083 388.076ZM553.236 390.952C553.824 387.691 556.944 385.524 560.205 386.112C573.945 388.589 587.962 391.875 601.938 396.038C605.114 396.984 606.921 400.326 605.975 403.502C605.029 406.677 601.687 408.485 598.512 407.539C584.981 403.508 571.398 400.323 558.077 397.922C554.815 397.334 552.648 394.214 553.236 390.952ZM353.611 400.307C354.412 403.523 352.455 406.779 349.24 407.58C335.399 411.03 322.007 415.142 309.128 419.997C306.027 421.165 302.566 419.599 301.397 416.499C300.228 413.398 301.794 409.937 304.895 408.768C318.25 403.734 332.09 399.488 346.338 395.937C349.553 395.135 352.809 397.092 353.611 400.307ZM634.4 413.835C635.726 410.798 639.263 409.411 642.3 410.736C655.436 416.471 668.262 423.093 680.481 430.669C683.297 432.415 684.164 436.114 682.418 438.93C680.672 441.746 676.974 442.614 674.157 440.868C662.47 433.621 650.159 427.26 637.499 421.734C634.462 420.408 633.075 416.872 634.4 413.835ZM273.46 429.267C275.057 432.17 273.998 435.819 271.095 437.416C258.859 444.147 247.246 451.773 236.326 460.389C233.725 462.441 229.952 461.997 227.899 459.395C225.847 456.794 226.292 453.021 228.893 450.968C240.359 441.921 252.528 433.933 265.311 426.902C268.215 425.304 271.863 426.363 273.46 429.267ZM1251.69 448.445C1254.99 448.207 1257.87 450.694 1258.1 453.999C1259.09 467.696 1259.66 480.442 1259.99 491.957C1260.08 495.27 1257.47 498.03 1254.16 498.122C1250.84 498.215 1248.08 495.605 1247.99 492.292C1247.67 480.928 1247.11 468.359 1246.14 454.86C1245.9 451.555 1248.38 448.683 1251.69 448.445ZM706.706 456.939C708.913 454.467 712.706 454.253 715.177 456.461C725.95 466.082 735.814 476.742 744.458 488.507C746.42 491.178 745.846 494.933 743.176 496.895C740.505 498.857 736.75 498.283 734.788 495.612C726.676 484.572 717.386 474.522 707.184 465.411C704.712 463.203 704.498 459.41 706.706 456.939ZM205.557 480.447C208.033 482.649 208.255 486.441 206.053 488.918C197.064 499.025 188.745 510.122 181.163 522.294C179.411 525.106 175.711 525.966 172.898 524.214C170.085 522.462 169.226 518.762 170.978 515.949C178.914 503.208 187.639 491.566 197.086 480.943C199.288 478.467 203.081 478.245 205.557 480.447ZM758.178 523.137C761.227 521.84 764.75 523.26 766.048 526.309C768.853 532.902 771.316 539.748 773.406 546.852C775.45 553.801 777.301 560.561 778.964 567.139C779.776 570.352 777.83 573.615 774.617 574.427C771.405 575.239 768.142 573.293 767.33 570.081C765.706 563.659 763.896 557.048 761.893 550.237C759.936 543.582 757.63 537.174 755.006 531.007C753.708 527.958 755.129 524.434 758.178 523.137ZM1254.36 523.776C1257.67 523.805 1260.34 526.513 1260.31 529.827C1260.28 533.323 1260.24 536.468 1260.21 539.265C1260.16 542.961 1260.12 546.051 1260.12 548.544C1260.12 555.065 1259.76 561.707 1259.05 568.454C1258.7 571.749 1255.75 574.138 1252.45 573.79C1249.16 573.442 1246.77 570.489 1247.11 567.193C1247.79 560.84 1248.12 554.619 1248.12 548.544C1248.12 546.001 1248.16 542.774 1248.21 538.988C1248.24 536.19 1248.28 533.085 1248.31 529.725C1248.34 526.412 1251.05 523.748 1254.36 523.776ZM158.749 551.441C161.792 552.753 163.196 556.283 161.885 559.326C156.591 571.612 151.886 584.766 147.819 598.845C146.899 602.028 143.573 603.864 140.389 602.944C137.206 602.024 135.37 598.698 136.29 595.514C140.489 580.979 145.36 567.35 150.865 554.577C152.176 551.534 155.706 550.13 158.749 551.441ZM1247.31 599.92C1250.5 600.805 1252.38 604.112 1251.49 607.305C1248.12 619.458 1243.8 631.851 1238.6 644.406C1237.33 647.467 1233.82 648.921 1230.76 647.652C1227.7 646.384 1226.25 642.874 1227.51 639.813C1232.55 627.664 1236.7 615.735 1239.93 604.099C1240.81 600.905 1244.12 599.035 1247.31 599.92ZM780.503 603.256C783.781 602.774 786.83 605.041 787.312 608.319C789.532 623.408 790.566 637.418 790.498 650.491C790.481 653.805 787.781 656.478 784.467 656.46C781.154 656.443 778.481 653.743 778.498 650.43C778.562 638.032 777.582 624.63 775.44 610.065C774.958 606.787 777.225 603.738 780.503 603.256ZM133.46 632.851C136.721 633.442 138.886 636.563 138.296 639.824C135.9 653.056 133.981 666.971 132.565 681.601C132.245 684.899 129.313 687.314 126.015 686.995C122.716 686.676 120.301 683.743 120.621 680.445C122.066 665.507 124.03 651.264 126.487 637.687C127.078 634.426 130.2 632.261 133.46 632.851ZM1219.34 671.722C1222.27 673.276 1223.38 676.908 1221.83 679.835C1215.88 691.045 1209.29 702.337 1202.11 713.658C1200.34 716.456 1196.63 717.285 1193.83 715.51C1191.03 713.735 1190.2 710.027 1191.98 707.229C1199.01 696.153 1205.43 685.129 1211.23 674.209C1212.78 671.282 1216.42 670.169 1219.34 671.722ZM781.334 685.706C784.564 686.447 786.581 689.665 785.84 692.895C782.468 707.597 777.338 720.876 770.696 733.073C769.111 735.984 765.467 737.058 762.557 735.473C759.647 733.888 758.573 730.245 760.157 727.334C766.279 716.092 771.018 703.841 774.144 690.212C774.885 686.982 778.104 684.965 781.334 685.706ZM124.132 717.695C127.444 717.791 130.051 720.555 129.955 723.867C129.752 730.823 129.65 737.92 129.65 745.161C129.65 751.337 129.912 757.449 130.426 763.494C130.706 766.796 128.257 769.7 124.955 769.98C121.654 770.261 118.75 767.812 118.469 764.51C117.926 758.128 117.65 751.677 117.65 745.161C117.65 737.807 117.754 730.594 117.96 723.517C118.056 720.205 120.82 717.598 124.132 717.695ZM1178.83 737.477C1181.5 739.431 1182.09 743.185 1180.14 745.861C1172.62 756.153 1164.64 766.434 1156.23 776.666C1154.12 779.225 1150.34 779.594 1147.78 777.49C1145.22 775.385 1144.85 771.604 1146.96 769.045C1155.23 758.983 1163.07 748.884 1170.44 738.784C1172.4 736.108 1176.15 735.523 1178.83 737.477ZM745.236 759.252C747.675 761.495 747.834 765.29 745.591 767.729C736.253 777.883 725.745 787.291 714.345 796.304C711.746 798.359 707.973 797.918 705.918 795.319C703.862 792.719 704.303 788.946 706.903 786.891C717.939 778.164 727.951 769.183 736.758 759.607C739.001 757.168 742.796 757.009 745.236 759.252ZM129.302 795.323C132.509 794.491 135.784 796.417 136.616 799.625C139.689 811.475 143.736 823.039 148.669 834.297C149.999 837.332 148.617 840.871 145.582 842.201C142.547 843.531 139.008 842.149 137.678 839.114C132.5 827.297 128.24 815.131 125 802.637C124.168 799.429 126.094 796.155 129.302 795.323ZM1130.29 797.654C1132.74 799.889 1132.91 803.684 1130.68 806.131C1122.06 815.57 1113.08 824.937 1103.78 834.2C1101.43 836.537 1097.63 836.529 1095.29 834.18C1092.96 831.831 1092.96 828.032 1095.31 825.695C1104.49 816.564 1113.33 807.336 1121.81 798.04C1124.05 795.593 1127.84 795.42 1130.29 797.654ZM681.971 812.472C683.814 815.226 683.076 818.952 680.322 820.795C674.642 824.596 668.826 828.39 662.896 832.206C657.648 835.584 652.187 838.968 646.53 842.358C643.688 844.061 640.003 843.137 638.299 840.295C636.596 837.453 637.52 833.768 640.362 832.064C645.92 828.734 651.272 825.418 656.402 822.116C662.292 818.325 668.046 814.571 673.648 810.822C676.402 808.979 680.129 809.718 681.971 812.472ZM615.581 853.154C617.156 856.069 616.069 859.71 613.153 861.285C602.282 867.157 590.914 873.059 579.135 878.994C576.175 880.485 572.568 879.294 571.077 876.335C569.586 873.376 570.776 869.768 573.735 868.277C585.432 862.384 596.696 856.536 607.45 850.727C610.365 849.152 614.006 850.238 615.581 853.154ZM1075.98 852.543C1078.21 854.995 1078.03 858.789 1075.58 861.018C1066.06 869.668 1056.27 878.195 1046.2 886.573C1043.66 888.694 1039.87 888.348 1037.75 885.801C1035.63 883.255 1035.98 879.472 1038.53 877.351C1048.46 869.084 1058.12 860.671 1067.51 852.14C1069.96 849.91 1073.75 850.091 1075.98 852.543ZM157.604 864.916C160.418 863.167 164.118 864.031 165.867 866.845C172.291 877.181 179.472 887.206 187.33 896.902C189.416 899.476 189.021 903.254 186.447 905.341C183.872 907.427 180.094 907.032 178.007 904.458C169.854 894.397 162.379 883.965 155.675 873.18C153.926 870.365 154.79 866.666 157.604 864.916ZM547.505 887.907C548.94 890.894 547.683 894.478 544.696 895.914C533.437 901.325 521.902 906.767 510.154 912.243C507.151 913.643 503.581 912.343 502.181 909.34C500.781 906.336 502.081 902.767 505.085 901.367C516.8 895.906 528.291 890.484 539.498 885.098C542.485 883.663 546.07 884.92 547.505 887.907ZM1016.92 902.407C1018.93 905.042 1018.42 908.807 1015.79 910.817C1005.55 918.631 995.073 926.281 984.388 933.741C981.671 935.638 977.931 934.973 976.034 932.256C974.137 929.539 974.802 925.798 977.519 923.901C988.065 916.539 998.401 908.989 1008.51 901.276C1011.14 899.266 1014.91 899.773 1016.92 902.407ZM478.371 920.325C479.751 923.338 478.427 926.898 475.414 928.278C463.952 933.527 452.348 938.809 440.657 944.126C437.64 945.498 434.083 944.164 432.711 941.148C431.339 938.132 432.673 934.574 435.689 933.203C447.379 927.886 458.971 922.609 470.418 917.368C473.43 915.988 476.991 917.312 478.371 920.325ZM203.729 924.375C206.062 922.023 209.861 922.007 212.214 924.34C220.897 932.952 230.119 941.239 239.81 949.183C242.372 951.284 242.747 955.065 240.646 957.627C238.545 960.19 234.765 960.564 232.202 958.463C222.235 950.292 212.729 941.752 203.764 932.861C201.411 930.527 201.395 926.728 203.729 924.375ZM953.87 947.041C955.649 949.837 954.826 953.545 952.031 955.325C941.127 962.269 930.034 969.005 918.772 975.511C915.902 977.169 912.232 976.186 910.575 973.317C908.917 970.448 909.9 966.778 912.769 965.12C923.88 958.702 934.825 952.055 945.586 945.203C948.381 943.423 952.09 944.246 953.87 947.041ZM408.873 951.991C410.247 955.006 408.918 958.565 405.902 959.94C394.355 965.205 382.771 970.505 371.197 975.843C368.188 977.231 364.624 975.917 363.236 972.908C361.848 969.899 363.162 966.334 366.171 964.946C377.767 959.598 389.367 954.29 400.924 949.021C403.939 947.646 407.498 948.976 408.873 951.991ZM261.213 973.058C263.092 970.329 266.828 969.639 269.558 971.518C279.706 978.505 290.219 985.154 301.03 991.448C302.225 992.144 303.09 993.19 303.572 994.38C312.831 989.92 322.15 985.49 331.503 981.087C334.501 979.676 338.076 980.963 339.487 983.961C340.898 986.959 339.612 990.534 336.614 991.945C325.071 997.378 313.587 1002.85 302.21 1008.36C299.229 1009.81 295.64 1008.56 294.194 1005.58C293.499 1004.15 293.427 1002.57 293.87 1001.16C283.201 994.917 272.808 988.325 262.753 981.403C260.024 979.523 259.334 975.788 261.213 973.058ZM887.211 986.136C888.74 989.076 887.596 992.699 884.655 994.227C873.159 1000.21 861.511 1005.93 849.728 1011.39C846.721 1012.78 843.155 1011.47 841.763 1008.46C840.371 1005.46 841.68 1001.89 844.687 1000.5C856.299 995.122 867.782 989.475 879.12 983.581C882.06 982.052 885.682 983.196 887.211 986.136ZM325.866 1011.79C327.329 1008.82 330.925 1007.6 333.898 1009.06C345.035 1014.54 356.392 1019.66 367.908 1024.4C370.972 1025.66 372.432 1029.17 371.17 1032.24C369.907 1035.3 366.4 1036.76 363.336 1035.5C351.58 1030.65 339.98 1025.42 328.601 1019.83C325.627 1018.36 324.403 1014.77 325.866 1011.79ZM270.714 1017.17C272.206 1020.13 271.016 1023.74 268.057 1025.23C256.589 1031.01 245.289 1036.84 234.209 1042.71C231.281 1044.26 227.649 1043.15 226.097 1040.22C224.545 1037.29 225.661 1033.66 228.588 1032.11C239.75 1026.19 251.124 1020.33 262.656 1014.52C265.615 1013.02 269.223 1014.21 270.714 1017.17ZM817.327 1019.08C818.573 1022.15 817.095 1025.65 814.024 1026.9C801.991 1031.78 789.839 1036.37 777.587 1040.64C774.458 1041.73 771.038 1040.08 769.947 1036.95C768.857 1033.82 770.51 1030.4 773.639 1029.31C785.696 1025.11 797.659 1020.59 809.51 1015.78C812.581 1014.53 816.08 1016.01 817.327 1019.08ZM395.248 1041.26C396.31 1038.12 399.715 1036.43 402.854 1037.49C414.688 1041.5 426.613 1045.1 438.567 1048.3C441.768 1049.16 443.67 1052.44 442.814 1055.65C441.958 1058.85 438.669 1060.75 435.467 1059.89C423.262 1056.63 411.088 1052.95 399.01 1048.86C395.871 1047.8 394.187 1044.39 395.248 1041.26ZM744.568 1045.05C745.49 1048.23 743.658 1051.56 740.475 1052.48C727.981 1056.11 715.403 1059.38 702.757 1062.29C699.527 1063.03 696.308 1061.01 695.566 1057.78C694.824 1054.55 696.841 1051.33 700.07 1050.59C712.49 1047.74 724.851 1044.52 737.134 1040.96C740.317 1040.04 743.645 1041.87 744.568 1045.05ZM203.167 1052.74C204.797 1055.63 203.779 1059.29 200.894 1060.92C189.621 1067.29 178.662 1073.71 168.08 1080.19C165.254 1081.92 161.56 1081.03 159.83 1078.21C158.099 1075.38 158.987 1071.69 161.813 1069.96C172.529 1063.39 183.611 1056.9 194.992 1050.47C197.877 1048.84 201.537 1049.86 203.167 1052.74ZM467.853 1061.46C468.493 1058.21 471.647 1056.09 474.899 1056.73C487.235 1059.16 499.527 1061.13 511.705 1062.63C514.993 1063.04 517.331 1066.03 516.925 1069.32C516.52 1072.61 513.525 1074.95 510.236 1074.54C497.767 1073 485.191 1070.99 472.582 1068.51C469.331 1067.87 467.214 1064.71 467.853 1061.46ZM669.443 1062.98C669.99 1066.25 667.785 1069.34 664.517 1069.89C651.672 1072.04 638.777 1073.79 625.849 1075.12C622.552 1075.46 619.605 1073.06 619.266 1069.77C618.927 1066.47 621.325 1063.52 624.621 1063.18C637.289 1061.88 649.933 1060.16 662.534 1058.05C665.802 1057.51 668.895 1059.71 669.443 1062.98ZM542.542 1071.48C542.686 1068.17 545.487 1065.61 548.797 1065.75C555.048 1066.02 561.246 1066.16 567.379 1066.16C573.748 1066.16 580.117 1066.05 586.484 1065.82C589.796 1065.71 592.575 1068.3 592.691 1071.61C592.807 1074.92 590.217 1077.7 586.905 1077.82C580.399 1078.05 573.89 1078.16 567.379 1078.16C561.067 1078.16 554.695 1078.02 548.275 1077.74C544.964 1077.6 542.397 1074.79 542.542 1071.48ZM137.845 1092.34C139.706 1095.08 138.993 1098.81 136.251 1100.67C125.458 1108 115.221 1115.4 105.621 1122.86C103.006 1124.9 99.2359 1124.42 97.2016 1121.81C95.1673 1119.19 95.6387 1115.42 98.2544 1113.39C108.084 1105.74 118.534 1098.2 129.51 1090.74C132.252 1088.88 135.983 1089.6 137.845 1092.34ZM77.1909 1138.76C79.4576 1141.18 79.3357 1144.98 76.9185 1147.24C67.326 1156.24 58.7742 1165.31 51.3856 1174.47C49.3046 1177.05 45.5271 1177.45 42.9484 1175.37C40.3696 1173.29 39.966 1169.51 42.047 1166.93C49.8387 1157.28 58.7825 1147.8 68.71 1138.49C71.1271 1136.22 74.9242 1136.35 77.1909 1138.76ZM28.5685 1197.2C31.5342 1198.67 32.7401 1202.28 31.2619 1205.24C28.4855 1210.81 26.1771 1216.4 24.3567 1222.01C22.2271 1228.58 20.4065 1234.88 18.8817 1240.92C18.0714 1244.14 14.8097 1246.08 11.5966 1245.27C8.38352 1244.46 6.43571 1241.2 7.24607 1237.99C8.84107 1231.66 10.737 1225.11 12.9423 1218.31C14.9599 1212.09 17.5007 1205.95 20.522 1199.89C22.0002 1196.92 25.6028 1195.72 28.5685 1197.2ZM7.26271 1271.58C10.5717 1271.75 13.1114 1274.58 12.9352 1277.89C12.1835 1292.01 13.6052 1304.13 16.8245 1314.53C17.8049 1317.69 16.0336 1321.05 12.8682 1322.03C9.70281 1323.01 6.34204 1321.24 5.3617 1318.08C1.65337 1306.1 0.138651 1292.53 0.952216 1277.25C1.12838 1273.94 3.95368 1271.4 7.26271 1271.58ZM605.685 1335.35C594.329 1334.71 581.499 1334.93 567.418 1335.84C564.111 1336.05 561.257 1333.55 561.044 1330.24C560.83 1326.93 563.338 1324.08 566.644 1323.86C581.039 1322.93 594.378 1322.69 606.359 1323.37C609.668 1323.55 612.199 1326.39 612.013 1329.7C611.826 1333 608.993 1335.54 605.685 1335.35ZM534.19 1332.86C534.591 1336.15 532.25 1339.14 528.961 1339.55C516.607 1341.05 503.681 1342.87 490.3 1344.92C487.025 1345.42 483.963 1343.17 483.463 1339.89C482.962 1336.62 485.212 1333.56 488.487 1333.06C501.953 1331 515.003 1329.16 527.508 1327.63C530.797 1327.23 533.789 1329.57 534.19 1332.86ZM638.873 1334.64C640.234 1331.62 643.787 1330.28 646.808 1331.64C653.998 1334.87 660.054 1339.24 664.437 1345.05C668.928 1350.99 671.905 1356.78 673.428 1362.51C674.28 1365.71 672.375 1369 669.173 1369.85C665.97 1370.7 662.684 1368.8 661.832 1365.59C660.794 1361.69 658.643 1357.29 654.861 1352.28C651.97 1348.45 647.706 1345.2 641.88 1342.58C638.859 1341.22 637.512 1337.66 638.873 1334.64ZM456.73 1344.23C457.281 1347.5 455.08 1350.59 451.812 1351.15C439.221 1353.27 426.37 1355.5 413.34 1357.78C410.076 1358.35 406.967 1356.17 406.396 1352.91C405.825 1349.64 408.009 1346.53 411.273 1345.96C424.308 1343.68 437.187 1341.44 449.815 1339.31C453.082 1338.76 456.178 1340.96 456.73 1344.23ZM26.9366 1345.09C29.2351 1342.7 33.0335 1342.63 35.4203 1344.93C43.6667 1352.87 54.0843 1359.2 66.476 1364.11C69.5571 1365.33 71.0661 1368.81 69.8465 1371.89C68.6269 1374.98 65.1404 1376.48 62.0593 1375.27C48.5352 1369.91 36.6937 1362.81 27.0965 1353.57C24.7096 1351.27 24.638 1347.47 26.9366 1345.09ZM379.677 1357.58C380.242 1360.84 378.054 1363.95 374.789 1364.52C361.976 1366.73 349.077 1368.93 336.177 1371.06C332.907 1371.59 329.82 1369.38 329.283 1366.11C328.745 1362.84 330.959 1359.75 334.229 1359.22C347.084 1357.1 359.946 1354.91 372.741 1352.69C376.006 1352.13 379.111 1354.31 379.677 1357.58ZM302.499 1370.33C302.986 1373.6 300.724 1376.66 297.446 1377.14C284.372 1379.09 271.371 1380.89 258.531 1382.48C255.242 1382.89 252.245 1380.56 251.837 1377.27C251.428 1373.98 253.763 1370.98 257.052 1370.57C269.781 1368.99 282.685 1367.2 295.683 1365.27C298.961 1364.79 302.012 1367.05 302.499 1370.33ZM96.071 1378.69C96.6031 1375.42 99.6859 1373.2 102.957 1373.73C114.773 1375.65 127.502 1376.82 140.991 1377.34C144.302 1377.47 146.882 1380.26 146.754 1383.57C146.625 1386.88 143.837 1389.46 140.525 1389.34C126.65 1388.8 113.422 1387.59 101.03 1385.58C97.759 1385.04 95.5389 1381.96 96.071 1378.69ZM224.901 1380.18C225.195 1383.48 222.757 1386.39 219.456 1386.69C206.067 1387.88 192.952 1388.76 180.221 1389.24C176.909 1389.37 174.123 1386.78 173.997 1383.47C173.871 1380.16 176.453 1377.38 179.764 1377.25C192.261 1376.77 205.171 1375.91 218.393 1374.73C221.694 1374.44 224.607 1376.88 224.901 1380.18ZM661.735 1391.35C664.275 1393.48 664.608 1397.26 662.48 1399.8C656.81 1406.56 649.529 1413.18 642.368 1419.69C640.558 1421.34 638.755 1422.98 636.988 1424.61C634.554 1426.86 630.758 1426.71 628.509 1424.27C626.261 1421.84 626.411 1418.04 628.846 1415.79C630.806 1413.98 632.739 1412.22 634.629 1410.5C641.71 1404.06 648.189 1398.17 653.283 1392.09C655.411 1389.55 659.196 1389.22 661.735 1391.35ZM612.949 1440.99C615.723 1442.81 616.503 1446.52 614.69 1449.3C611.743 1453.81 609.411 1458.49 607.882 1463.43C605.83 1470.07 604.124 1476.37 602.748 1482.33C602.003 1485.56 598.781 1487.57 595.552 1486.82C592.324 1486.08 590.31 1482.86 591.056 1479.63C592.504 1473.35 594.288 1466.78 596.417 1459.89C598.335 1453.69 601.206 1448 604.645 1442.73C606.457 1439.96 610.175 1439.18 612.949 1440.99ZM1169.12 1493.17C1169.32 1489.86 1172.16 1487.34 1175.47 1487.53C1182.47 1487.95 1189.2 1488.67 1195.64 1489.74C1202.17 1490.83 1208.55 1492.01 1214.79 1493.28C1218.04 1493.94 1220.14 1497.11 1219.48 1500.35C1218.82 1503.6 1215.65 1505.7 1212.4 1505.04C1206.31 1503.8 1200.06 1502.65 1193.66 1501.58C1187.7 1500.59 1181.39 1499.9 1174.76 1499.51C1171.45 1499.31 1168.93 1496.47 1169.12 1493.17ZM1141.74 1493.62C1141.99 1496.93 1139.5 1499.8 1136.2 1500.04C1123.94 1500.95 1111.05 1502.47 1097.64 1504.49C1094.36 1504.99 1091.3 1502.73 1090.81 1499.45C1090.31 1496.18 1092.57 1493.12 1095.85 1492.63C1109.5 1490.57 1122.7 1489 1135.32 1488.08C1138.62 1487.83 1141.5 1490.32 1141.74 1493.62ZM1063.78 1504.27C1064.43 1507.52 1062.33 1510.68 1059.08 1511.33C1046.58 1513.84 1033.78 1516.64 1020.78 1519.66C1017.55 1520.41 1014.33 1518.4 1013.58 1515.17C1012.83 1511.94 1014.84 1508.72 1018.07 1507.97C1031.16 1504.93 1044.08 1502.1 1056.72 1499.57C1059.97 1498.91 1063.13 1501.02 1063.78 1504.27ZM1245 1506.57C1245.92 1503.39 1249.25 1501.55 1252.43 1502.47C1265.36 1506.2 1277.56 1510.36 1289.09 1514.91C1292.17 1516.13 1293.68 1519.61 1292.46 1522.69C1291.24 1525.78 1287.76 1527.29 1284.68 1526.07C1273.52 1521.66 1261.68 1517.63 1249.1 1514C1245.92 1513.08 1244.08 1509.75 1245 1506.57ZM592.157 1514C595.47 1513.91 598.227 1516.52 598.315 1519.83C598.703 1534.32 602.174 1545.37 607.92 1553.77C609.791 1556.51 609.09 1560.24 606.354 1562.11C603.619 1563.98 599.885 1563.28 598.015 1560.54C590.694 1549.84 586.754 1536.41 586.32 1520.15C586.231 1516.84 588.845 1514.08 592.157 1514ZM986.916 1521.66C987.726 1524.87 985.777 1528.13 982.564 1528.94C969.954 1532.12 957.24 1535.42 944.488 1538.77C941.283 1539.61 938.003 1537.69 937.161 1534.49C936.32 1531.28 938.236 1528 941.441 1527.16C954.213 1523.81 966.969 1520.5 979.631 1517.31C982.844 1516.5 986.106 1518.44 986.916 1521.66ZM1316.38 1533.69C1317.94 1530.76 1321.57 1529.66 1324.49 1531.22C1336.44 1537.59 1347.48 1544.45 1357.68 1551.75C1360.37 1553.68 1360.99 1557.43 1359.06 1560.12C1357.13 1562.82 1353.39 1563.44 1350.69 1561.51C1340.93 1554.52 1330.34 1547.93 1318.85 1541.81C1315.92 1540.25 1314.82 1536.61 1316.38 1533.69ZM910.673 1541.5C911.521 1544.7 909.611 1547.98 906.408 1548.83C893.623 1552.22 880.874 1555.58 868.242 1558.85C865.034 1559.68 861.761 1557.75 860.931 1554.54C860.101 1551.33 862.029 1548.06 865.237 1547.23C877.834 1543.97 890.556 1540.61 903.337 1537.23C906.54 1536.38 909.825 1538.29 910.673 1541.5ZM834.363 1561.24C835.147 1564.46 833.172 1567.71 829.952 1568.49C816.866 1571.67 803.987 1574.67 791.408 1577.39C788.169 1578.09 784.976 1576.03 784.276 1572.79C783.576 1569.55 785.635 1566.36 788.874 1565.66C801.328 1562.97 814.104 1560 827.115 1556.83C830.335 1556.05 833.58 1558.02 834.363 1561.24ZM757.401 1578.07C757.961 1581.33 755.768 1584.44 752.502 1585C738.771 1587.35 725.546 1589.21 712.974 1590.44C709.676 1590.76 706.741 1588.35 706.42 1585.05C706.098 1581.75 708.511 1578.82 711.809 1578.5C724.031 1577.31 736.961 1575.49 750.473 1573.17C753.739 1572.61 756.84 1574.8 757.401 1578.07ZM628.722 1577.69C629.793 1574.55 633.204 1572.88 636.339 1573.95C646.712 1577.5 659.091 1579.43 673.263 1579.96C676.574 1580.08 679.159 1582.86 679.037 1586.17C678.914 1589.49 676.131 1592.07 672.819 1591.95C657.886 1591.4 644.271 1589.34 632.459 1585.31C629.324 1584.24 627.65 1580.83 628.722 1577.69ZM1379.26 1576.89C1381.56 1574.5 1385.36 1574.43 1387.75 1576.73C1397.41 1586.04 1406.07 1595.82 1413.82 1605.97C1415.83 1608.6 1415.32 1612.37 1412.69 1614.38C1410.06 1616.39 1406.29 1615.88 1404.28 1613.25C1396.89 1603.57 1388.64 1594.25 1379.42 1585.37C1377.04 1583.07 1376.97 1579.27 1379.26 1576.89ZM1427.02 1636.38C1429.92 1634.78 1433.57 1635.83 1435.17 1638.73C1441.55 1650.27 1447.01 1662.1 1451.68 1674.11C1452.88 1677.2 1451.36 1680.67 1448.27 1681.88C1445.18 1683.08 1441.7 1681.55 1440.5 1678.46C1436 1666.92 1430.77 1655.57 1424.67 1644.53C1423.07 1641.63 1424.12 1637.98 1427.02 1636.38ZM1456.33 1706.88C1459.53 1706.04 1462.81 1707.96 1463.66 1711.16C1466.98 1723.81 1469.61 1736.51 1471.7 1749.14C1472.24 1752.41 1470.03 1755.5 1466.76 1756.04C1463.49 1756.58 1460.4 1754.36 1459.86 1751.1C1457.83 1738.79 1455.27 1726.46 1452.05 1714.21C1451.21 1711.01 1453.12 1707.73 1456.33 1706.88ZM1470.02 1782.1C1473.32 1781.81 1476.23 1784.24 1476.53 1787.54C1477.72 1800.67 1478.45 1813.57 1478.91 1826.08C1479.03 1829.39 1476.44 1832.18 1473.13 1832.3C1469.82 1832.42 1467.04 1829.83 1466.91 1826.52C1466.47 1814.17 1465.74 1801.49 1464.58 1788.62C1464.28 1785.32 1466.72 1782.4 1470.02 1782.1ZM1473.59 1858.58C1476.9 1858.56 1479.6 1861.24 1479.62 1864.55C1479.65 1871.11 1479.65 1877.49 1479.65 1883.66C1479.65 1890.99 1478.81 1897.81 1477.16 1904.13C1476.33 1907.33 1473.05 1909.26 1469.84 1908.42C1466.64 1907.59 1464.71 1904.31 1465.55 1901.1C1466.91 1895.86 1467.65 1890.06 1467.65 1883.66C1467.65 1877.49 1467.65 1871.13 1467.62 1864.61C1467.6 1861.29 1470.28 1858.6 1473.59 1858.58ZM1455.83 1930.31C1457.96 1932.85 1457.63 1936.63 1455.1 1938.76C1445.3 1947 1433.13 1953.05 1419.51 1957.45C1416.35 1958.47 1412.97 1956.74 1411.95 1953.59C1410.93 1950.44 1412.66 1947.05 1415.82 1946.03C1428.43 1941.96 1439.09 1936.54 1447.38 1929.58C1449.91 1927.44 1453.7 1927.77 1455.83 1930.31ZM1127.65 1944.66C1127.65 1941.35 1130.34 1938.66 1133.65 1938.66C1139.03 1938.66 1145.62 1939.09 1153.1 1939.78C1156.4 1940.09 1158.82 1943.01 1158.51 1946.31C1158.21 1949.61 1155.28 1952.04 1151.98 1951.73C1144.64 1951.05 1138.48 1950.66 1133.65 1950.66C1130.34 1950.66 1127.65 1947.97 1127.65 1944.66ZM1184.54 1949.4C1184.96 1946.11 1187.96 1943.78 1191.24 1944.19C1192.76 1944.38 1194.29 1944.57 1195.83 1944.77C1206.29 1946.08 1217.43 1947.48 1229.04 1948.84C1232.33 1949.23 1234.69 1952.21 1234.3 1955.5C1233.92 1958.79 1230.94 1961.14 1227.65 1960.76C1215.98 1959.4 1204.78 1957.99 1194.32 1956.67L1189.75 1956.1C1186.46 1955.68 1184.13 1952.68 1184.54 1949.4ZM1260.26 1958.24C1260.56 1954.94 1263.48 1952.5 1266.78 1952.8C1279.27 1953.93 1291.95 1954.86 1304.56 1955.46C1307.87 1955.62 1310.43 1958.43 1310.27 1961.74C1310.11 1965.05 1307.3 1967.61 1303.99 1967.45C1291.17 1966.84 1278.32 1965.89 1265.7 1964.75C1262.4 1964.45 1259.96 1961.54 1260.26 1958.24ZM1386.38 1958.85C1386.78 1962.14 1384.45 1965.14 1381.16 1965.54C1368.8 1967.08 1355.79 1967.87 1342.48 1968.11C1339.17 1968.17 1336.43 1965.53 1336.37 1962.22C1336.31 1958.9 1338.95 1956.17 1342.26 1956.11C1355.25 1955.88 1367.83 1955.1 1379.68 1953.64C1382.97 1953.23 1385.97 1955.56 1386.38 1958.85Z" fill="white" fill-opacity="0.5"/>
<path d="M388.047 55.9688L408.808 66.386L385.327 92.7268L388.047 55.9688Z" fill="#C3D2A0"/>
<path d="M511.264 40.9891L431.777 116.739L409.141 67.5901L511.264 40.9891Z" fill="#DDEFB2"/>
<path d="M511.262 40.9863L387.223 56.0775L372.305 25.9587L511.262 40.9863Z" fill="#DDEFB2"/>
<path d="M506.989 41.4845L409.886 67.7773L387.223 56.0759L506.989 41.4845Z" fill="#C3D2A0"/>
<path d="M408.351 68.1841L413.635 80.5347L383.865 93.4706L408.351 68.1841Z" fill="#96A27A"/>
<path d="M1104.16 1923.09L1087.14 1931.63L1106.39 1953.22L1104.16 1923.09Z" fill="#C3D2A0"/>
<path d="M1003.15 1910.8L1068.31 1972.9L1086.87 1932.61L1003.15 1910.8Z" fill="#DDEFB2"/>
<path d="M1003.15 1910.8L1104.84 1923.17L1117.07 1898.48L1003.15 1910.8Z" fill="#DDEFB2"/>
<path d="M1006.65 1911.21L1086.26 1932.76L1104.84 1923.17L1006.65 1911.21Z" fill="#C3D2A0"/>
<path d="M1087.52 1933.1L1083.19 1943.22L1107.59 1953.83L1087.52 1933.1Z" fill="#96A27A"/>
</svg>
