<svg width="554" height="73" viewBox="0 0 554 73" fill="none" xmlns="http://www.w3.org/2000/svg">
<path d="M19.8227 34.25V38.75C20.375 38.75 20.8227 39.1977 20.8227 39.75V43C20.8227 44.9381 21.0127 46.8307 21.3747 48.6608C21.4808 49.1971 21.1367 49.718 20.6042 49.8325C21.3566 53.0627 22.6309 56.0926 24.3334 58.8284C24.7909 58.5328 25.4026 58.6578 25.7067 59.1121C27.8243 62.2751 30.5477 64.9985 33.7106 67.116C34.1649 67.4202 34.29 68.0319 33.9944 68.4894C36.7301 70.1918 39.76 71.4661 42.9903 72.2185C43.1047 71.686 43.6256 71.3419 44.1619 71.448C45.992 71.81 47.8847 72 49.8227 72H55.7477C56.3 72 56.7477 72.4477 56.7477 73H66.5977C66.5977 72.4477 67.0454 72 67.5977 72H79.4477C80 72 80.4477 72.4477 80.4477 73H90.2977C90.2977 72.4477 90.7454 72 91.2977 72H103.148C103.7 72 104.148 72.4477 104.148 73H113.998C113.998 72.4477 114.445 72 114.998 72H126.848C127.4 72 127.848 72.4477 127.848 73H137.698C137.698 72.4477 138.145 72 138.698 72H150.548C151.1 72 151.548 72.4477 151.548 73H161.398C161.398 72.4477 161.845 72 162.398 72H174.248C174.8 72 175.248 72.4477 175.248 73H185.098C185.098 72.4477 185.545 72 186.098 72H197.948C198.5 72 198.948 72.4477 198.948 73H208.798C208.798 72.4477 209.245 72 209.798 72H221.648C222.2 72 222.648 72.4477 222.648 73H232.498C232.498 72.4477 232.945 72 233.498 72H245.348C245.9 72 246.348 72.4477 246.348 73H256.198C256.198 72.4477 256.645 72 257.198 72H269.048C269.6 72 270.048 72.4477 270.048 73H279.898C279.898 72.4477 280.345 72 280.898 72H292.748C293.3 72 293.748 72.4477 293.748 73H303.598C303.598 72.4477 304.046 72 304.598 72H316.448C317 72 317.448 72.4477 317.448 73H327.298C327.298 72.4477 327.746 72 328.298 72H340.148C340.7 72 341.148 72.4477 341.148 73H350.998C350.998 72.4477 351.446 72 351.998 72H363.848C364.4 72 364.848 72.4477 364.848 73H374.698C374.698 72.4477 375.146 72 375.698 72H387.548C388.1 72 388.548 72.4477 388.548 73H398.398C398.398 72.4477 398.846 72 399.398 72H411.248C411.8 72 412.248 72.4477 412.248 73H422.098C422.098 72.4477 422.546 72 423.098 72H434.948C435.5 72 435.948 72.4477 435.948 73H445.798C445.798 72.4477 446.246 72 446.798 72H458.648C459.2 72 459.648 72.4477 459.648 73H469.498C469.498 72.4477 469.946 72 470.498 72H482.348C482.9 72 483.348 72.4477 483.348 73H493.198C493.198 72.4477 493.646 72 494.198 72H506.048C506.6 72 507.048 72.4477 507.048 73H516.898C516.898 72.4477 517.346 72 517.898 72H523.823C525.761 72 527.654 71.81 529.484 71.448C530.02 71.3419 530.541 71.686 530.655 72.2185C533.885 71.4661 536.915 70.1918 539.651 68.4894C539.356 68.0319 539.481 67.4201 539.935 67.116C543.098 64.9985 545.821 62.2751 547.939 59.1122C548.243 58.6578 548.855 58.5328 549.312 58.8283C551.015 56.0926 552.289 53.0627 553.041 49.8325C552.509 49.718 552.165 49.1971 552.271 48.6608C552.633 46.8308 552.823 44.9381 552.823 43V39.75C552.823 39.1977 553.27 38.75 553.823 38.75V34.25C553.27 34.25 552.823 33.8023 552.823 33.25V30C552.823 28.0619 552.633 26.1692 552.271 24.3392C552.165 23.8029 552.509 23.282 553.041 23.1675C552.289 19.9373 551.015 16.9074 549.312 14.1717C548.855 14.4672 548.243 14.3422 547.939 13.8878C545.821 10.7249 543.098 8.00153 539.935 5.88401C539.481 5.57985 539.356 4.96813 539.651 4.51063C536.915 2.80819 533.885 1.53392 530.655 0.781513C530.541 1.31397 530.02 1.6581 529.484 1.55201C527.654 1.18997 525.761 1 523.823 1H517.898C517.345 1 516.898 0.552285 516.898 0H507.048C507.048 0.552285 506.6 1 506.048 1H494.198C493.645 1 493.198 0.552285 493.198 0H483.348C483.348 0.552285 482.9 1 482.348 1H470.498C469.945 1 469.498 0.552285 469.498 0H459.648C459.648 0.552285 459.2 1 458.648 1H446.798C446.245 1 445.798 0.552285 445.798 0H435.948C435.948 0.552285 435.5 1 434.948 1H423.098C422.545 1 422.098 0.552285 422.098 0H412.248C412.248 0.552285 411.8 1 411.248 1H399.398C398.845 1 398.398 0.552285 398.398 0H388.548C388.548 0.552285 388.1 1 387.548 1H375.698C375.145 1 374.698 0.552285 374.698 0H364.848C364.848 0.552285 364.4 1 363.848 1H351.998C351.445 1 350.998 0.552285 350.998 0H341.148C341.148 0.552285 340.7 1 340.148 1H328.298C327.745 1 327.298 0.552285 327.298 0H317.448C317.448 0.552285 317 1 316.448 1H304.598C304.045 1 303.598 0.552285 303.598 0H293.748C293.748 0.552285 293.3 1 292.748 1H280.898C280.345 1 279.898 0.552285 279.898 0H270.048C270.048 0.552285 269.6 1 269.048 1H257.198C256.645 1 256.198 0.552285 256.198 0H246.348C246.348 0.552285 245.9 1 245.348 1H233.498C232.945 1 232.498 0.552285 232.498 0H222.648C222.648 0.552285 222.2 1 221.648 1H209.798C209.245 1 208.798 0.552285 208.798 0H198.948C198.948 0.552285 198.5 1 197.948 1H186.098C185.545 1 185.098 0.552285 185.098 0H175.248C175.248 0.552285 174.8 1 174.248 1H162.398C161.845 1 161.398 0.552285 161.398 0H151.548C151.548 0.552285 151.1 1 150.548 1H138.698C138.145 1 137.698 0.552285 137.698 0H127.848C127.848 0.552285 127.4 1 126.848 1H114.998C114.445 1 113.998 0.552285 113.998 0H104.148C104.148 0.552285 103.7 1 103.148 1H91.2976C90.7453 1 90.2976 0.552285 90.2976 0H80.4476C80.4476 0.552285 79.9999 1 79.4476 1H67.5976C67.0453 1 66.5976 0.552285 66.5976 0H56.7476C56.7476 0.552285 56.2998 1 55.7476 1H49.8227C48.008 1 46.2331 1.16656 44.5122 1.48496C43.9746 1.58442 43.458 1.23387 43.3501 0.700031C40.3557 1.35852 37.5291 2.46434 34.9437 3.94387C35.2222 4.41193 35.0747 5.01863 34.6095 5.30585C33.0907 6.24361 31.6647 7.31769 30.3487 8.51106C30.1614 8.68086 29.9602 8.83415 29.7472 8.96875C29.5091 9.11919 29.2318 9.15671 28.9781 9.09544C28.8365 9.31687 28.6082 9.48244 28.33 9.53754C28.0776 9.58751 27.8185 9.61372 27.5557 9.61372H21.4179C20.8656 9.61372 20.4179 9.166 20.4179 8.61372L10.1425 8.61372C10.1424 9.166 9.69473 9.61372 9.14245 9.61372H3.00471C0.917928 9.61372 0.225717 12.4086 2.07128 13.3825L6.27338 15.6C6.76182 15.8578 6.94883 16.4627 6.69107 16.9512L13.3265 20.4527C13.5842 19.9643 14.1891 19.7773 14.6776 20.035L18.8797 22.2525C19.2683 22.4576 19.6108 22.72 19.9022 23.0247C20.2816 23.4213 20.27 24.049 19.8781 24.4315C20.415 24.3552 20.9169 24.722 21.0051 25.2598C21.0717 25.6657 21.0817 26.0842 21.0314 26.5023C20.9967 26.7915 20.9662 27.082 20.94 27.3738C20.9051 27.7626 20.6521 28.0793 20.3126 28.2143C20.6337 28.3886 20.8473 28.7332 20.8357 29.1234C20.8271 29.4145 20.8227 29.7067 20.8227 30V33.25C20.8227 33.8023 20.375 34.25 19.8227 34.25Z" fill="#C4EBFE" stroke="#C0BEBE" stroke-width="2" stroke-linecap="round" stroke-dasharray="12 12"/>
</svg>
