<svg width="200" height="279" viewBox="0 0 200 279" fill="none" xmlns="http://www.w3.org/2000/svg">
<g filter="url(#filter0_d_936_9547)">
<path d="M157.47 266.844C153.163 269.535 150.071 269.67 145.533 267.364C131.921 260.447 142.739 206.67 142.739 206.67L154.676 206.15C154.676 206.15 170.392 258.771 157.47 266.844Z" fill="#2382C9"/>
</g>
<g filter="url(#filter1_d_936_9547)">
<path d="M65.8553 266.367C61.4031 268.825 58.3081 268.796 53.907 266.253C40.7038 258.624 54.528 205.501 54.528 205.501L66.4763 205.615C66.4763 205.615 79.2119 258.991 65.8553 266.367Z" fill="#2382C9"/>
</g>
<path d="M100.102 28.1844L196.303 227.478L4.66979 227.847L100.102 28.1844Z" fill="#228CDA"/>
<path d="M100.102 28.1844L196.303 227.478L4.66979 227.847L100.102 28.1844Z" fill="url(#paint0_linear_936_9547)"/>
<path fill-rule="evenodd" clip-rule="evenodd" d="M71.3206 82.2823C62.5881 82.2992 55.4959 89.4211 55.5129 98.2228C55.5298 107.024 62.6495 114.119 71.382 114.102C80.1145 114.085 87.2067 106.963 87.1897 98.1617C87.1728 89.3601 80.0531 82.2655 71.3206 82.2823ZM46.5519 98.2401C46.5254 84.5191 57.5922 73.3478 71.3033 73.3213C85.0145 73.2949 96.1243 84.4235 96.1507 98.1444C96.1772 111.865 85.1104 123.037 71.3992 123.063C57.6881 123.09 46.5783 111.961 46.5519 98.2401Z" fill="#FA8F21"/>
<path fill-rule="evenodd" clip-rule="evenodd" d="M129.086 82.1046C120.354 82.1214 113.262 89.2434 113.278 98.0451C113.295 106.847 120.415 113.941 129.148 113.924C137.88 113.908 144.972 106.786 144.955 97.984C144.938 89.1823 137.819 82.0877 129.086 82.1046ZM104.317 98.0623C104.291 84.3414 115.358 73.17 129.069 73.1436C142.78 73.1172 153.89 84.2457 153.916 97.9667C153.943 111.688 142.876 122.859 129.165 122.885C115.454 122.912 104.344 111.783 104.317 98.0623Z" fill="#FA8F21"/>
<path fill-rule="evenodd" clip-rule="evenodd" d="M104.161 99.9574C102.142 99.5022 99.9975 99.1536 98.5214 99.1884C97.2035 99.2194 95.2978 99.5821 93.5089 100.024C92.66 100.234 91.9137 100.442 91.3814 100.597C91.1162 100.674 90.9067 100.737 90.7669 100.78C90.6971 100.802 90.6449 100.818 90.612 100.829L90.5776 100.839L90.5731 100.841C90.5734 100.841 90.5738 100.841 89.2045 96.5745C87.8352 92.3083 87.8356 92.3082 87.836 92.3081L87.8453 92.3051L87.8634 92.2993L87.9233 92.2804C87.9734 92.2646 88.0439 92.2426 88.1328 92.2153C88.3105 92.1607 88.5626 92.0844 88.8743 91.9936C89.4959 91.8124 90.3646 91.5703 91.36 91.3244C93.2596 90.8552 95.9597 90.2852 98.3106 90.2298C100.947 90.1678 103.991 90.733 106.132 91.2158C107.254 91.4689 108.234 91.7244 108.936 91.917C109.288 92.0136 109.572 92.0952 109.773 92.1538C109.873 92.1831 109.952 92.2068 110.009 92.2238L110.076 92.2441L110.097 92.2504L110.107 92.2535C110.108 92.2537 110.108 92.2538 108.792 96.5367C107.476 100.82 107.477 100.82 107.477 100.82L107.472 100.818L107.433 100.806C107.395 100.795 107.336 100.778 107.257 100.755C107.099 100.708 106.862 100.64 106.563 100.558C105.961 100.393 105.118 100.173 104.161 99.9574Z" fill="#FA8F21"/>
<path d="M79.6619 98.1756C79.6707 102.781 75.9578 106.521 71.3687 106.53C66.7797 106.539 63.0523 102.813 63.0434 98.2076C63.0345 93.6024 66.7475 89.862 71.3366 89.8531C75.9256 89.8443 79.653 93.5704 79.6619 98.1756Z" fill="black"/>
<path d="M137.426 98.0662C137.434 102.671 133.721 106.412 129.132 106.421C124.543 106.43 120.816 102.703 120.807 98.0982C120.798 93.493 124.511 89.7526 129.1 89.7437C133.689 89.7349 137.417 93.461 137.426 98.0662Z" fill="black"/>
<path fill-rule="evenodd" clip-rule="evenodd" d="M89.1004 131.561C89.0957 129.086 91.0978 127.076 93.5723 127.071L107.744 127.044C110.219 127.039 112.229 129.041 112.233 131.516C112.238 133.99 110.236 136 107.762 136.005L93.5896 136.032C91.1151 136.037 89.1052 134.035 89.1004 131.561Z" fill="black"/>
<g filter="url(#filter2_d_936_9547)">
<path d="M178.558 98.1416C182.904 98.1371 185.192 99.4079 187.393 103.048C193.997 113.967 161.35 147.311 161.35 147.311L152.515 142.405C152.515 142.405 165.522 98.1551 178.558 98.1416Z" fill="#228CDA"/>
</g>
<g filter="url(#filter3_d_936_9547)">
<path d="M14.2167 184.114C10.2576 182.374 8.71378 180.298 8.25658 176.1C6.88497 163.506 50.7909 146.237 50.7909 146.237L56.751 154.251C56.751 154.251 26.0938 189.332 14.2167 184.114Z" fill="#228CDA"/>
</g>
<path d="M186.064 95.543L190.882 99.1551L178.799 115.27L173.981 111.658L186.064 95.543Z" fill="white"/>
<defs>
<filter id="filter0_d_936_9547" x="130.662" y="204.15" width="35.9062" height="74.8359" filterUnits="userSpaceOnUse" color-interpolation-filters="sRGB">
<feFlood flood-opacity="0" result="BackgroundImageFix"/>
<feColorMatrix in="SourceAlpha" type="matrix" values="0 0 0 0 0 0 0 0 0 0 0 0 0 0 0 0 0 0 127 0" result="hardAlpha"/>
<feOffset dx="-2" dy="4"/>
<feGaussianBlur stdDeviation="3"/>
<feComposite in2="hardAlpha" operator="out"/>
<feColorMatrix type="matrix" values="0 0 0 0 0 0 0 0 0 0 0 0 0 0 0 0 0 0 0.25 0"/>
<feBlend mode="normal" in2="BackgroundImageFix" result="effect1_dropShadow_936_9547"/>
<feBlend mode="normal" in="SourceGraphic" in2="effect1_dropShadow_936_9547" result="shape"/>
</filter>
<filter id="filter1_d_936_9547" x="40.1953" y="203.502" width="35.7617" height="74.6836" filterUnits="userSpaceOnUse" color-interpolation-filters="sRGB">
<feFlood flood-opacity="0" result="BackgroundImageFix"/>
<feColorMatrix in="SourceAlpha" type="matrix" values="0 0 0 0 0 0 0 0 0 0 0 0 0 0 0 0 0 0 127 0" result="hardAlpha"/>
<feOffset dx="-2" dy="4"/>
<feGaussianBlur stdDeviation="3"/>
<feComposite in2="hardAlpha" operator="out"/>
<feColorMatrix type="matrix" values="0 0 0 0 0 0 0 0 0 0 0 0 0 0 0 0 0 0 0.25 0"/>
<feBlend mode="normal" in2="BackgroundImageFix" result="effect1_dropShadow_936_9547"/>
<feBlend mode="normal" in="SourceGraphic" in2="effect1_dropShadow_936_9547" result="shape"/>
</filter>
<filter id="filter2_d_936_9547" x="144.516" y="96.1406" width="47.7598" height="61.1699" filterUnits="userSpaceOnUse" color-interpolation-filters="sRGB">
<feFlood flood-opacity="0" result="BackgroundImageFix"/>
<feColorMatrix in="SourceAlpha" type="matrix" values="0 0 0 0 0 0 0 0 0 0 0 0 0 0 0 0 0 0 127 0" result="hardAlpha"/>
<feOffset dx="-2" dy="4"/>
<feGaussianBlur stdDeviation="3"/>
<feComposite in2="hardAlpha" operator="out"/>
<feColorMatrix type="matrix" values="0 0 0 0 0 0 0 0 0 0 0 0 0 0 0 0 0 0 0.25 0"/>
<feBlend mode="normal" in2="BackgroundImageFix" result="effect1_dropShadow_936_9547"/>
<feBlend mode="normal" in="SourceGraphic" in2="effect1_dropShadow_936_9547" result="shape"/>
</filter>
<filter id="filter3_d_936_9547" x="0.224609" y="144.238" width="60.5273" height="50.4043" filterUnits="userSpaceOnUse" color-interpolation-filters="sRGB">
<feFlood flood-opacity="0" result="BackgroundImageFix"/>
<feColorMatrix in="SourceAlpha" type="matrix" values="0 0 0 0 0 0 0 0 0 0 0 0 0 0 0 0 0 0 127 0" result="hardAlpha"/>
<feOffset dx="-2" dy="4"/>
<feGaussianBlur stdDeviation="3"/>
<feComposite in2="hardAlpha" operator="out"/>
<feColorMatrix type="matrix" values="0 0 0 0 0 0 0 0 0 0 0 0 0 0 0 0 0 0 0.25 0"/>
<feBlend mode="normal" in2="BackgroundImageFix" result="effect1_dropShadow_936_9547"/>
<feBlend mode="normal" in="SourceGraphic" in2="effect1_dropShadow_936_9547" result="shape"/>
</filter>
<linearGradient id="paint0_linear_936_9547" x1="100.102" y1="28.1844" x2="100.486" y2="227.662" gradientUnits="userSpaceOnUse">
<stop stop-color="#2189D6" stop-opacity="0"/>
<stop offset="1" stop-color="#266798" stop-opacity="0.7"/>
</linearGradient>
</defs>
</svg>
