<svg width="183" height="239" viewBox="0 0 183 239" fill="none" xmlns="http://www.w3.org/2000/svg">
<g filter="url(#filter0_d_936_9442)">
<path d="M146.665 226.924C142.689 229.481 139.835 229.609 135.646 227.418C123.081 220.845 133.064 169.753 133.064 169.753L144.082 169.259C144.082 169.259 158.592 219.255 146.665 226.924Z" fill="#228CDA"/>
</g>
<g filter="url(#filter1_d_936_9442)">
<path d="M62.1008 226.467C57.9912 228.803 55.1344 228.774 51.0718 226.358C38.884 219.109 51.6418 168.638 51.6418 168.638L62.6708 168.747C62.6708 168.747 74.4294 219.46 62.1008 226.467Z" fill="#228CDA"/>
</g>
<path d="M93.6984 0.171259L182.508 189.525L5.61934 189.866L93.6984 0.171259Z" fill="#228CDA"/>
<path d="M93.6984 0.171259L182.508 189.525L5.61934 189.866L93.6984 0.171259Z" fill="url(#paint0_linear_936_9442)"/>
<path fill-rule="evenodd" clip-rule="evenodd" d="M67.1385 52.3096C59.6927 52.324 53.3947 58.6174 53.4103 66.7094C53.4259 74.8014 59.7481 81.0705 67.1939 81.0561C74.6397 81.0417 80.9377 74.7483 80.9221 66.6564C80.9065 58.5644 74.5843 52.2953 67.1385 52.3096ZM43.4103 66.7287C43.3846 53.4216 53.8478 42.3353 67.1192 42.3097C80.3906 42.2841 90.8964 53.33 90.9221 66.6371C90.9477 79.9442 80.4846 91.0305 67.2132 91.0561C53.9418 91.0817 43.4359 80.0358 43.4103 66.7287Z" fill="#FA8F21"/>
<path fill-rule="evenodd" clip-rule="evenodd" d="M120.457 52.1436C113.011 52.158 106.713 58.4514 106.729 66.5434C106.744 74.6354 113.066 80.9044 120.512 80.8901C127.958 80.8757 134.256 74.5823 134.24 66.4903C134.225 58.3984 127.903 52.1293 120.457 52.1436ZM96.7286 66.5627C96.703 53.2556 107.166 42.1692 120.438 42.1436C133.709 42.1181 144.215 53.164 144.24 66.4711C144.266 79.7781 133.803 90.8645 120.532 90.8901C107.26 90.9157 96.7543 79.8698 96.7286 66.5627Z" fill="#FA8F21"/>
<path fill-rule="evenodd" clip-rule="evenodd" d="M97.2303 69.0785C95.3797 68.6489 93.5008 68.3427 92.2691 68.3725C91.1688 68.3991 89.4985 68.7196 87.8587 69.1365C87.0912 69.3315 86.4157 69.5253 85.9341 69.6697C85.6943 69.7416 85.5055 69.8004 85.3806 69.8399C85.3182 69.8597 85.272 69.8746 85.2436 69.8838L85.2129 69.8937C85.2133 69.8936 85.2137 69.8935 83.6454 65.1458C82.0772 60.3981 82.0776 60.3979 82.0781 60.3978L82.0878 60.3946L82.1058 60.3887L82.1639 60.3698C82.212 60.3542 82.279 60.3327 82.3632 60.3061C82.5313 60.2529 82.7686 60.179 83.0615 60.0912C83.6449 59.9162 84.4602 59.6823 85.3951 59.4447C87.16 58.996 89.7412 58.4307 92.0275 58.3754C94.5923 58.3134 97.5024 58.8757 99.4916 59.3375C100.546 59.5823 101.466 59.8291 102.124 60.0152C102.454 60.1086 102.722 60.1877 102.912 60.2448C103.007 60.2734 103.082 60.2965 103.137 60.3133L103.202 60.3336L103.222 60.34L103.233 60.3434C103.234 60.3436 103.234 60.3437 101.726 65.1109C100.218 69.8781 100.219 69.8783 100.219 69.8784L100.184 69.8675C100.152 69.8576 100.1 69.8415 100.029 69.8203C99.8877 69.7777 99.6742 69.7146 99.4033 69.638C98.859 69.4841 98.0961 69.2795 97.2303 69.0785Z" fill="#FA8F21"/>
<path d="M74.8358 66.6683C74.8443 71.0438 71.4171 74.5974 67.1811 74.6056C62.945 74.6137 59.5042 71.0733 59.4957 66.6979C59.4873 62.3224 62.9145 58.7688 67.1505 58.7606C71.3866 58.7524 74.8274 62.2928 74.8358 66.6683Z" fill="black"/>
<path d="M128.154 66.5667C128.163 70.9422 124.735 74.4958 120.499 74.504C116.263 74.5122 112.823 70.9718 112.814 66.5963C112.806 62.2208 116.233 58.6672 120.469 58.659C124.705 58.6509 128.146 62.1913 128.154 66.5667Z" fill="black"/>
<path fill-rule="evenodd" clip-rule="evenodd" d="M82.6835 98.3887C82.6781 95.6272 84.9124 93.3844 87.6738 93.379L100.756 93.3538C103.517 93.3485 105.76 95.5827 105.765 98.3442C105.771 101.106 103.536 103.348 100.775 103.354L87.6931 103.379C84.9317 103.384 82.6888 101.15 82.6835 98.3887Z" fill="black"/>
<g filter="url(#filter2_d_936_9442)">
<path d="M178.185 148.008C177.265 151.912 175.603 153.69 171.769 154.87C160.269 158.41 136.39 121.784 136.39 121.784L142.806 114.923C142.806 114.923 180.948 136.297 178.185 148.008Z" fill="#228CDA"/>
</g>
<g filter="url(#filter3_d_936_9442)">
<path d="M14.4317 148.314C10.7771 146.661 9.35194 144.689 8.92969 140.7C7.66294 128.734 48.1906 112.329 48.1906 112.329L53.6926 119.943C53.6926 119.943 25.3955 153.273 14.4317 148.314Z" fill="#228CDA"/>
</g>
<defs>
<filter id="filter0_d_936_9442" x="121.303" y="167.26" width="34.0684" height="71.6992" filterUnits="userSpaceOnUse" color-interpolation-filters="sRGB">
<feFlood flood-opacity="0" result="BackgroundImageFix"/>
<feColorMatrix in="SourceAlpha" type="matrix" values="0 0 0 0 0 0 0 0 0 0 0 0 0 0 0 0 0 0 127 0" result="hardAlpha"/>
<feOffset dx="-2" dy="4"/>
<feGaussianBlur stdDeviation="3"/>
<feComposite in2="hardAlpha" operator="out"/>
<feColorMatrix type="matrix" values="0 0 0 0 0 0 0 0 0 0 0 0 0 0 0 0 0 0 0.25 0"/>
<feBlend mode="normal" in2="BackgroundImageFix" result="effect1_dropShadow_936_9442"/>
<feBlend mode="normal" in="SourceGraphic" in2="effect1_dropShadow_936_9442" result="shape"/>
</filter>
<filter id="filter1_d_936_9442" x="37.7988" y="166.639" width="33.9336" height="71.5566" filterUnits="userSpaceOnUse" color-interpolation-filters="sRGB">
<feFlood flood-opacity="0" result="BackgroundImageFix"/>
<feColorMatrix in="SourceAlpha" type="matrix" values="0 0 0 0 0 0 0 0 0 0 0 0 0 0 0 0 0 0 127 0" result="hardAlpha"/>
<feOffset dx="-2" dy="4"/>
<feGaussianBlur stdDeviation="3"/>
<feComposite in2="hardAlpha" operator="out"/>
<feColorMatrix type="matrix" values="0 0 0 0 0 0 0 0 0 0 0 0 0 0 0 0 0 0 0.25 0"/>
<feBlend mode="normal" in2="BackgroundImageFix" result="effect1_dropShadow_936_9442"/>
<feBlend mode="normal" in="SourceGraphic" in2="effect1_dropShadow_936_9442" result="shape"/>
</filter>
<filter id="filter2_d_936_9442" x="128.391" y="112.924" width="53.9375" height="52.1875" filterUnits="userSpaceOnUse" color-interpolation-filters="sRGB">
<feFlood flood-opacity="0" result="BackgroundImageFix"/>
<feColorMatrix in="SourceAlpha" type="matrix" values="0 0 0 0 0 0 0 0 0 0 0 0 0 0 0 0 0 0 127 0" result="hardAlpha"/>
<feOffset dx="-2" dy="4"/>
<feGaussianBlur stdDeviation="3"/>
<feComposite in2="hardAlpha" operator="out"/>
<feColorMatrix type="matrix" values="0 0 0 0 0 0 0 0 0 0 0 0 0 0 0 0 0 0 0.25 0"/>
<feBlend mode="normal" in2="BackgroundImageFix" result="effect1_dropShadow_936_9442"/>
<feBlend mode="normal" in="SourceGraphic" in2="effect1_dropShadow_936_9442" result="shape"/>
</filter>
<filter id="filter3_d_936_9442" x="0.900391" y="110.33" width="56.793" height="48.4863" filterUnits="userSpaceOnUse" color-interpolation-filters="sRGB">
<feFlood flood-opacity="0" result="BackgroundImageFix"/>
<feColorMatrix in="SourceAlpha" type="matrix" values="0 0 0 0 0 0 0 0 0 0 0 0 0 0 0 0 0 0 127 0" result="hardAlpha"/>
<feOffset dx="-2" dy="4"/>
<feGaussianBlur stdDeviation="3"/>
<feComposite in2="hardAlpha" operator="out"/>
<feColorMatrix type="matrix" values="0 0 0 0 0 0 0 0 0 0 0 0 0 0 0 0 0 0 0.25 0"/>
<feBlend mode="normal" in2="BackgroundImageFix" result="effect1_dropShadow_936_9442"/>
<feBlend mode="normal" in="SourceGraphic" in2="effect1_dropShadow_936_9442" result="shape"/>
</filter>
<linearGradient id="paint0_linear_936_9442" x1="93.6984" y1="0.171259" x2="94.0638" y2="189.695" gradientUnits="userSpaceOnUse">
<stop stop-color="#2189D6" stop-opacity="0"/>
<stop offset="1" stop-color="#266798" stop-opacity="0.7"/>
</linearGradient>
</defs>
</svg>
