<svg width="122" height="112" viewBox="0 0 122 112" fill="none" xmlns="http://www.w3.org/2000/svg">
<g filter="url(#filter0_d_1742_2109)">
<path d="M100.329 90.1916C99.0745 92.3105 97.7753 93.0476 95.3132 93.0374C87.9267 93.0066 80.6392 67.1762 80.6392 67.1762L85.6545 64.3304C85.6545 64.3304 104.091 83.835 100.329 90.1916Z" fill="#1CB76B"/>
<path d="M70.9166 96.8383C69.3284 98.7197 67.925 99.2311 65.4987 98.8125C58.2197 97.5567 55.3187 70.8752 55.3187 70.8752L60.7366 68.9009C60.7366 68.9009 75.6813 91.1939 70.9166 96.8383Z" fill="#1CB76B"/>
<path d="M33.277 89.6663C30.9111 88.9843 29.8715 87.9118 29.2634 85.5259C27.4391 78.3682 50.6133 64.8302 50.6133 64.8302L54.6269 68.9707C54.6269 68.9707 40.3744 91.7124 33.277 89.6663Z" fill="#1CB76B"/>
<path d="M10.9208 62.9556C9.31122 61.0924 9.02585 59.6262 9.81914 57.2953C12.199 50.3027 39.0057 51.6145 39.0057 51.6145L40.1074 57.2747C40.1074 57.2747 15.7497 68.5451 10.9208 62.9556Z" fill="#1CB76B"/>
</g>
<g filter="url(#filter1_d_1742_2109)">
<path fill-rule="evenodd" clip-rule="evenodd" d="M73.69 30.0483C74.1878 29.387 74.6732 28.6804 75.1371 27.9358C78.4496 22.6186 79.4068 17.3728 77.275 16.2192C75.3436 15.1739 71.5391 17.8464 68.3775 22.3127C67.6986 18.2714 66.3358 15.4062 64.844 15.334C62.8313 15.2367 61.3461 20.26 61.5266 26.5539C61.5325 26.7589 61.54 26.9626 61.5492 27.1651C46.2558 26.0024 32.2218 34.029 28.0548 47.4591C23.095 63.4448 33.9929 81.0325 52.396 86.7424C70.7991 92.4523 89.7385 84.1221 94.6984 68.1364C99.3508 53.1414 90.0501 36.7367 73.69 30.0483Z" fill="#1CB76B"/>
</g>
<path d="M59.9913 51.3554C58.8594 55.0037 54.537 56.9048 50.337 55.6017C46.137 54.2986 43.6499 50.2847 44.7818 46.6364C45.9137 42.9881 50.2361 41.087 54.4361 42.3901C58.6361 43.6933 61.1233 47.7072 59.9913 51.3554Z" fill="white"/>
<path d="M81.3706 57.9886C80.2386 61.6369 75.9162 63.538 71.7162 62.2349C67.5162 60.9318 65.0291 56.9179 66.161 53.2696C67.293 49.6213 71.6154 47.7202 75.8154 49.0233C80.0153 50.3264 82.5025 54.3403 81.3706 57.9886Z" fill="white"/>
<path d="M59.9913 51.3554C59.2822 53.641 56.5744 54.8318 53.9432 54.0155C51.312 53.1991 49.7539 50.6845 50.463 48.3989C51.1721 46.1133 53.88 44.9223 56.5112 45.7387C59.1424 46.5551 60.7004 49.0699 59.9913 51.3554Z" fill="black"/>
<path d="M81.4797 57.6369C80.7706 59.9225 78.0627 61.1135 75.4315 60.2971C72.8003 59.4807 71.2422 56.9661 71.9513 54.6806C72.6604 52.395 75.3683 51.204 77.9995 52.0204C80.6307 52.8367 82.1889 55.3513 81.4797 57.6369Z" fill="black"/>
<path fill-rule="evenodd" clip-rule="evenodd" d="M67.3147 66.6985C68.0013 67.2759 68.0898 68.3006 67.5124 68.9873C65.6554 71.1955 62.0712 72.3466 58.8394 71.5533C57.1686 71.1432 55.5655 70.2099 54.3294 68.6263C53.0995 67.0505 52.302 64.9212 52.0695 62.2165C51.9927 61.3227 52.655 60.5358 53.5488 60.459C54.4427 60.3821 55.2296 61.0445 55.3064 61.9383C55.4973 64.1594 56.1277 65.65 56.8905 66.6273C57.6471 67.5967 58.6016 68.1497 59.6138 68.3982C61.7479 68.922 64.031 68.0795 65.026 66.8963C65.6034 66.2097 66.6281 66.1211 67.3147 66.6985Z" fill="black"/>
<rect x="50.4395" y="28.7969" width="42.8521" height="9.1421" transform="rotate(20.403 50.4395 28.7969)" fill="#1CB76B"/>
<defs>
<filter id="filter0_d_1742_2109" x="6.14377" y="50.7054" width="96.3146" height="52.3049" filterUnits="userSpaceOnUse" color-interpolation-filters="sRGB">
<feFlood flood-opacity="0" result="BackgroundImageFix"/>
<feColorMatrix in="SourceAlpha" type="matrix" values="0 0 0 0 0 0 0 0 0 0 0 0 0 0 0 0 0 0 127 0" result="hardAlpha"/>
<feOffset dx="-0.812203" dy="1.62441"/>
<feGaussianBlur stdDeviation="1.2183"/>
<feComposite in2="hardAlpha" operator="out"/>
<feColorMatrix type="matrix" values="0 0 0 0 0 0 0 0 0 0 0 0 0 0 0 0 0 0 0.25 0"/>
<feBlend mode="normal" in2="BackgroundImageFix" result="effect1_dropShadow_1742_2109"/>
<feBlend mode="normal" in="SourceGraphic" in2="effect1_dropShadow_1742_2109" result="shape"/>
</filter>
<filter id="filter1_d_1742_2109" x="20.5222" y="14.2762" width="76.024" height="80.1939" filterUnits="userSpaceOnUse" color-interpolation-filters="sRGB">
<feFlood flood-opacity="0" result="BackgroundImageFix"/>
<feColorMatrix in="SourceAlpha" type="matrix" values="0 0 0 0 0 0 0 0 0 0 0 0 0 0 0 0 0 0 127 0" result="hardAlpha"/>
<feOffset dx="-2.84271" dy="2.43661"/>
<feGaussianBlur stdDeviation="1.74624"/>
<feComposite in2="hardAlpha" operator="out"/>
<feColorMatrix type="matrix" values="0 0 0 0 0 0 0 0 0 0 0 0 0 0 0 0 0 0 0.25 0"/>
<feBlend mode="normal" in2="BackgroundImageFix" result="effect1_dropShadow_1742_2109"/>
<feBlend mode="normal" in="SourceGraphic" in2="effect1_dropShadow_1742_2109" result="shape"/>
</filter>
</defs>
</svg>
