<svg width="317" height="283" viewBox="0 0 317 283" fill="none" xmlns="http://www.w3.org/2000/svg">
<g filter="url(#filter0_d_2452_4290)">
<path d="M306.803 173.385C312.273 177.996 313.762 182.073 312.55 189.124C308.915 210.278 231.389 218.762 231.389 218.762L225.642 203.022C225.642 203.022 290.391 159.551 306.803 173.385Z" fill="#1CB76B"/>
<path d="M186.873 266.792C182.263 272.264 178.186 273.753 171.134 272.543C149.979 268.913 141.481 191.388 141.481 191.388L157.219 185.637C157.219 185.637 200.703 250.378 186.873 266.792Z" fill="#1CB76B"/>
<path d="M77.4799 246.049C70.6034 244.073 67.5796 240.96 65.8065 234.028C60.487 213.234 127.792 173.835 127.792 173.835L139.466 185.856C139.466 185.856 98.1092 251.977 77.4799 246.049Z" fill="#1CB76B"/>
<path d="M12.4484 168.49C7.76625 163.08 6.93321 158.821 9.23239 152.045C16.1299 131.72 94.029 135.463 94.029 135.463L97.2449 151.907C97.2449 151.907 26.4947 184.72 12.4484 168.49Z" fill="#1CB76B"/>
</g>
<g filter="url(#filter1_d_2452_4290)">
<path fill-rule="evenodd" clip-rule="evenodd" d="M194.764 72.7027C196.209 70.7797 197.617 68.7253 198.963 66.5604C208.575 51.1007 211.343 35.855 205.146 32.5081C199.531 29.4757 188.482 37.2517 179.306 50.2385C177.323 38.4967 173.356 30.1739 169.02 29.9681C163.172 29.6905 158.869 44.2913 159.41 62.5799C159.427 63.1754 159.45 63.7675 159.477 64.3557C115.034 61.0164 74.2739 84.3767 62.2001 123.413C47.829 169.878 79.5419 220.956 133.033 237.501C186.524 254.045 241.537 229.79 255.908 183.326C269.389 139.741 242.32 92.096 194.764 72.7027Z" fill="#1CB76B"/>
</g>
<path d="M155.014 134.661C151.734 145.265 139.179 150.801 126.971 147.025C114.763 143.249 107.525 131.592 110.805 120.988C114.085 110.384 126.64 104.848 138.848 108.624C151.056 112.4 158.293 124.057 155.014 134.661Z" fill="white"/>
<path d="M217.155 153.881C213.875 164.485 201.32 170.021 189.112 166.245C176.904 162.469 169.667 150.812 172.946 140.208C176.226 129.603 188.781 124.068 200.989 127.844C213.197 131.62 220.435 143.277 217.155 153.881Z" fill="white"/>
<path d="M155.014 134.661C152.959 141.305 145.093 144.772 137.445 142.407C129.798 140.041 125.263 132.738 127.318 126.095C129.373 119.452 137.238 115.984 144.886 118.349C152.534 120.715 157.068 128.018 155.014 134.661Z" fill="black"/>
<path d="M217.472 152.858C215.417 159.501 207.552 162.969 199.904 160.603C192.256 158.238 187.722 150.935 189.776 144.292C191.831 137.648 199.697 134.18 207.345 136.546C214.992 138.911 219.527 146.214 217.472 152.858Z" fill="black"/>
<path d="M176.079 182.85C171.947 193.757 157.926 198.555 144.763 193.567C131.599 188.579 124.278 175.695 128.411 164.789C132.543 153.883 140.623 164.764 153.786 169.752C166.949 174.739 180.211 171.944 176.079 182.85Z" fill="black"/>
<defs>
<filter id="filter0_d_2452_4290" x="0" y="133.191" width="316.945" height="149.746" filterUnits="userSpaceOnUse" color-interpolation-filters="sRGB">
<feFlood flood-opacity="0" result="BackgroundImageFix"/>
<feColorMatrix in="SourceAlpha" type="matrix" values="0 0 0 0 0 0 0 0 0 0 0 0 0 0 0 0 0 0 127 0" result="hardAlpha"/>
<feOffset dx="-2" dy="4"/>
<feGaussianBlur stdDeviation="3"/>
<feComposite in2="hardAlpha" operator="out"/>
<feColorMatrix type="matrix" values="0 0 0 0 0 0 0 0 0 0 0 0 0 0 0 0 0 0 0.25 0"/>
<feBlend mode="normal" in2="BackgroundImageFix" result="effect1_dropShadow_2452_4290"/>
<feBlend mode="normal" in="SourceGraphic" in2="effect1_dropShadow_2452_4290" result="shape"/>
</filter>
<filter id="filter1_d_2452_4290" x="43.1422" y="27.3648" width="217.825" height="229.934" filterUnits="userSpaceOnUse" color-interpolation-filters="sRGB">
<feFlood flood-opacity="0" result="BackgroundImageFix"/>
<feColorMatrix in="SourceAlpha" type="matrix" values="0 0 0 0 0 0 0 0 0 0 0 0 0 0 0 0 0 0 127 0" result="hardAlpha"/>
<feOffset dx="-7" dy="6"/>
<feGaussianBlur stdDeviation="4.3"/>
<feComposite in2="hardAlpha" operator="out"/>
<feColorMatrix type="matrix" values="0 0 0 0 0 0 0 0 0 0 0 0 0 0 0 0 0 0 0.25 0"/>
<feBlend mode="normal" in2="BackgroundImageFix" result="effect1_dropShadow_2452_4290"/>
<feBlend mode="normal" in="SourceGraphic" in2="effect1_dropShadow_2452_4290" result="shape"/>
</filter>
</defs>
</svg>
