<svg width="251" height="219" viewBox="0 0 251 219" fill="none" xmlns="http://www.w3.org/2000/svg">
<g filter="url(#filter0_d_2452_4286)">
<path d="M8.44791 160.209C9.84567 166.109 12.3607 168.793 18.1571 170.571C35.5465 175.904 71.5848 120.506 71.5848 120.506L61.8756 110.145C61.8756 110.145 4.25461 142.51 8.44791 160.209Z" fill="#1CB76B"/>
<path d="M72.7359 197.362C75.093 202.948 78.0185 205.177 84.0296 205.969C102.063 208.343 128.411 147.734 128.411 147.734L117.117 139.127C117.117 139.127 65.6643 180.604 72.7359 197.362Z" fill="#1CB76B"/>
<path d="M166.482 208.046C172.544 208.174 175.773 206.413 178.949 201.249C188.476 185.755 143.898 136.965 143.898 136.965L131.431 143.762C131.431 143.762 148.297 207.663 166.482 208.046Z" fill="#1CB76B"/>
<path d="M238.593 161.606C243.741 158.403 245.485 155.165 245.326 149.104C244.848 130.922 180.861 114.387 180.861 114.387L174.128 126.889C174.128 126.889 223.149 171.214 238.593 161.606Z" fill="#1CB76B"/>
</g>
<g filter="url(#filter1_d_2452_4286)">
<path fill-rule="evenodd" clip-rule="evenodd" d="M115.096 38.292C114.41 36.3728 113.785 34.3564 113.24 32.2663C109.343 17.3402 110.931 4.30604 116.788 3.15365C122.094 2.10953 129.083 11.1774 133.248 23.9923C137.802 14.9875 143.103 9.2481 146.663 10.1703C151.466 11.4144 151.282 24.312 146.252 38.978C146.088 39.4556 145.921 39.9291 145.751 40.3983C182.559 48.8571 209.681 78 209.65 112.626C209.612 153.841 171.118 187.217 123.67 187.174C76.2223 187.13 37.789 153.684 37.8267 112.469C37.8621 73.8079 71.7357 42.0444 115.096 38.292Z" fill="#1CB76B"/>
</g>
<path d="M131.704 98.4196C131.696 107.826 140.467 115.459 151.295 115.469C162.124 115.479 170.909 107.862 170.918 98.4555C170.927 89.0494 162.155 81.4162 151.327 81.4063C140.498 81.3963 131.713 89.0135 131.704 98.4196Z" fill="white"/>
<path d="M76.5835 98.3688C76.5749 107.775 85.3462 115.408 96.1748 115.418C107.003 115.428 115.789 107.811 115.797 98.4048C115.806 88.9986 107.035 81.3654 96.206 81.3555C85.3774 81.3456 76.5921 88.9627 76.5835 98.3688Z" fill="white"/>
<path d="M131.704 98.4196C131.699 104.312 137.194 109.094 143.978 109.1C150.761 109.106 156.265 104.334 156.271 98.4416C156.276 92.5489 150.781 87.7668 143.997 87.7606C137.213 87.7544 131.71 92.5269 131.704 98.4196Z" fill="black"/>
<path d="M76.5842 97.4621C76.5788 103.355 82.0738 108.137 88.8577 108.143C95.6415 108.149 101.145 103.377 101.151 97.4846C101.156 91.5918 95.6611 86.8098 88.8772 86.8036C82.0934 86.7974 76.5896 91.5693 76.5842 97.4621Z" fill="black"/>
<path fill-rule="evenodd" clip-rule="evenodd" d="M103.257 129.134C101.22 129.989 100.262 132.334 101.117 134.371C103.867 140.922 111.452 146.251 119.631 146.751C123.859 147.01 128.311 145.989 132.377 143.17C136.422 140.365 139.855 135.942 142.381 129.753C143.216 127.708 142.234 125.373 140.189 124.538C138.144 123.704 135.809 124.685 134.974 126.73C132.9 131.813 130.327 134.856 127.818 136.596C125.33 138.321 122.681 138.923 120.119 138.766C114.718 138.436 109.967 134.784 108.493 131.274C107.638 129.237 105.294 128.279 103.257 129.134Z" fill="black"/>
<defs>
<filter id="filter0_d_2452_4286" x="0.230469" y="108.145" width="249.105" height="109.906" filterUnits="userSpaceOnUse" color-interpolation-filters="sRGB">
<feFlood flood-opacity="0" result="BackgroundImageFix"/>
<feColorMatrix in="SourceAlpha" type="matrix" values="0 0 0 0 0 0 0 0 0 0 0 0 0 0 0 0 0 0 127 0" result="hardAlpha"/>
<feOffset dx="-2" dy="4"/>
<feGaussianBlur stdDeviation="3"/>
<feComposite in2="hardAlpha" operator="out"/>
<feColorMatrix type="matrix" values="0 0 0 0 0 0 0 0 0 0 0 0 0 0 0 0 0 0 0.25 0"/>
<feBlend mode="normal" in2="BackgroundImageFix" result="effect1_dropShadow_2452_4286"/>
<feBlend mode="normal" in="SourceGraphic" in2="effect1_dropShadow_2452_4286" result="shape"/>
</filter>
<filter id="filter1_d_2452_4286" x="22.2281" y="0.470312" width="189.02" height="201.302" filterUnits="userSpaceOnUse" color-interpolation-filters="sRGB">
<feFlood flood-opacity="0" result="BackgroundImageFix"/>
<feColorMatrix in="SourceAlpha" type="matrix" values="0 0 0 0 0 0 0 0 0 0 0 0 0 0 0 0 0 0 127 0" result="hardAlpha"/>
<feOffset dx="-7" dy="6"/>
<feGaussianBlur stdDeviation="4.3"/>
<feComposite in2="hardAlpha" operator="out"/>
<feColorMatrix type="matrix" values="0 0 0 0 0 0 0 0 0 0 0 0 0 0 0 0 0 0 0.25 0"/>
<feBlend mode="normal" in2="BackgroundImageFix" result="effect1_dropShadow_2452_4286"/>
<feBlend mode="normal" in="SourceGraphic" in2="effect1_dropShadow_2452_4286" result="shape"/>
</filter>
</defs>
</svg>
