<svg width="497" height="200" viewBox="0 0 497 200" fill="none" xmlns="http://www.w3.org/2000/svg">
<path fill-rule="evenodd" clip-rule="evenodd" d="M213.813 180.835C179.876 177.755 145.273 183.227 113.457 176.178C74.6075 167.569 33.9242 156.832 14.8061 136.74C-5.61376 115.28 -2.23539 89.6325 8.89495 66.2872C20.6008 41.7349 35.5206 12.3574 78.8854 2.33702C122.331 -7.70197 166.563 17.7804 213.813 18.9365C257.403 20.003 298.83 1.10785 340.091 8.72809C386.663 17.329 435.612 35.7381 445.204 61.67C454.78 87.5616 441.721 142.87 423.124 167.307C406.518 189.128 381.078 185.911 342.266 196.937C302.428 208.254 258.256 184.867 213.813 180.835Z" fill="white"/>
<path d="M489.08 167.376C494.571 168.351 499.13 162.714 495.19 159.819L439.418 118.83C436.986 117.043 432.683 117.746 430.647 120.264L408.66 147.455C406.624 149.973 407.929 152.977 411.32 153.579L489.08 167.376Z" fill="white"/>
</svg>
