<svg width="48" height="48" viewBox="0 0 48 48" fill="none" xmlns="http://www.w3.org/2000/svg">
<path d="M3 11C3 6.58172 6.58172 3 11 3H35C39.4183 3 43 6.58172 43 11V35C43 39.4183 39.4183 43 35 43L11 43C6.58173 43 3.00002 39.4183 3.00001 35L3 11Z" fill="white"/>
<path d="M34.6543 23.2183C34.6543 22.2623 34.575 21.5647 34.4032 20.8413H23.2324V25.156H29.7894C29.6572 26.2283 28.9434 27.8431 27.357 28.9282L27.3347 29.0726L30.8667 31.7464L31.1114 31.7703C33.3588 29.7421 34.6543 26.7579 34.6543 23.2183Z" fill="#4285F4"/>
<path d="M23.2324 34.5865C26.4448 34.5865 29.1416 33.553 31.1114 31.7703L27.357 28.9282C26.3523 29.6129 25.0038 30.0908 23.2324 30.0908C20.0861 30.0908 17.4157 28.0627 16.4638 25.2594L16.3243 25.271L12.6516 28.0485L12.6036 28.1789C14.5601 31.9769 18.579 34.5865 23.2324 34.5865Z" fill="#34A853"/>
<path d="M16.4638 25.2594C16.2126 24.536 16.0675 23.7608 16.0675 22.9599C16.0675 22.1589 16.2128 21.3839 16.4508 20.6604L16.4441 20.5064L12.7255 17.6843L12.6038 17.7408C11.7974 19.3169 11.3347 21.0868 11.3347 22.9599C11.3347 24.8331 11.7972 26.6029 12.6036 28.1789L16.4638 25.2594Z" fill="#FBBC05"/>
<path d="M23.2324 15.8289C25.4665 15.8289 26.9736 16.772 27.8329 17.56L31.1907 14.3562C29.1285 12.4831 26.4448 11.3333 23.2324 11.3333C18.579 11.3333 14.5603 13.9428 12.6038 17.7408L16.4508 20.6604C17.4159 17.8571 20.0861 15.8289 23.2324 15.8289Z" fill="#EB4335"/>
</svg>
