<svg width="48" height="49" viewBox="0 0 48 49" fill="none" xmlns="http://www.w3.org/2000/svg">
<path d="M24.3366 10.7224L39.7266 38.3524L9.05333 38.4116L24.3366 10.7224Z" fill="#228CDA"/>
<path fill-rule="evenodd" clip-rule="evenodd" d="M19.0035 22.0245C17.3779 22.0276 16.0177 23.3991 16.0211 25.144C16.0245 26.889 17.3899 28.2552 19.0155 28.252C20.6411 28.2489 22.0013 26.8774 21.9979 25.1325C21.9945 23.3876 20.6291 22.0214 19.0035 22.0245ZM14.3803 25.1472C14.3752 22.5465 16.4188 20.3886 19.0003 20.3837C21.5818 20.3787 23.6337 22.5287 23.6388 25.1293C23.6438 27.73 21.6002 29.8879 19.0187 29.8929C16.4372 29.8978 14.3853 27.7478 14.3803 25.1472Z" fill="#FA8F21"/>
<path fill-rule="evenodd" clip-rule="evenodd" d="M29.8316 21.9893C28.206 21.9925 26.8459 23.3639 26.8492 25.1089C26.8526 26.8538 28.218 28.22 29.8436 28.2169C31.4692 28.2137 32.8294 26.8423 32.826 25.0973C32.8227 23.3524 31.4572 21.9862 29.8316 21.9893ZM25.2084 25.112C25.2034 22.5114 27.247 20.3535 29.8285 20.3485C32.41 20.3435 34.4619 22.4935 34.4669 25.0942C34.4719 27.6948 32.4283 29.8527 29.8468 29.8577C27.2653 29.8627 25.2134 27.7127 25.2084 25.112Z" fill="#FA8F21"/>
<path fill-rule="evenodd" clip-rule="evenodd" d="M25.1582 25.4341C24.7797 25.3463 24.3781 25.2791 24.102 25.2858C23.8555 25.2917 23.4986 25.3616 23.1631 25.4469C23.004 25.4873 22.8641 25.5274 22.7643 25.5573C22.7146 25.5723 22.6753 25.5845 22.6491 25.5928L22.6201 25.6021L22.6137 25.6042L22.6128 25.6044C22.6129 25.6044 22.6129 25.6044 22.3556 24.8254C22.0983 24.0464 22.0983 24.0463 22.0984 24.0463L22.1002 24.0457L22.1036 24.0446L22.1148 24.041L22.154 24.0284C22.1873 24.0179 22.2346 24.0032 22.293 23.9857C22.4095 23.9507 22.5723 23.904 22.7589 23.8566C23.1148 23.7661 23.6212 23.6561 24.0624 23.6454C24.5572 23.6335 25.1281 23.7426 25.5293 23.8358C25.7397 23.8846 25.9234 23.9339 26.0549 23.9711C26.1208 23.9897 26.1741 24.0055 26.2117 24.0168L26.256 24.0303L26.2686 24.0342L26.2725 24.0354L26.2737 24.0358C26.2738 24.0358 26.2746 24.0361 26.0271 24.8183C25.7797 25.6005 25.7798 25.6006 25.7799 25.6006L25.7789 25.6003L25.7715 25.598L25.7387 25.588C25.709 25.5791 25.6646 25.5659 25.6085 25.55C25.4957 25.5182 25.3377 25.4758 25.1582 25.4341Z" fill="#FA8F21"/>
<path d="M20.5654 25.136C20.5671 26.0244 19.8711 26.7461 19.011 26.7477C18.1508 26.7494 17.4521 26.0305 17.4504 25.142C17.4487 24.2535 18.1446 23.5319 19.0048 23.5302C19.8649 23.5285 20.5636 24.2475 20.5654 25.136Z" fill="black"/>
<path d="M31.3954 25.1145C31.3972 26.003 30.7012 26.7246 29.841 26.7262C28.9809 26.7279 28.2822 26.009 28.2804 25.1205C28.2787 24.232 28.9747 23.5104 29.8348 23.5087C30.695 23.5071 31.3937 24.226 31.3954 25.1145Z" fill="black"/>
<path d="M19.9399 32.4913C19.9695 34.0728 21.8016 35.3211 24.0319 35.2793C26.2623 35.2376 28.0464 33.9217 28.0168 32.3402C27.9872 30.7587 26.1977 31.7841 23.9673 31.8258C21.737 31.8676 19.9103 30.9098 19.9399 32.4913Z" fill="black"/>
</svg>
