<svg width="48" height="49" viewBox="0 0 48 49" fill="none" xmlns="http://www.w3.org/2000/svg">
<path d="M10 9.69336H29.484L37.8789 39.9129H18.566L10 9.69336Z" fill="#FF9EC9"/>
<path d="M16.4224 15.7993C16.4157 14.5154 17.451 13.4691 18.7349 13.4623C20.0187 13.4555 21.0651 14.4908 21.0718 15.7747L21.084 18.0678C21.0908 19.3517 20.0555 20.398 18.7716 20.4048C17.4877 20.4116 16.4414 19.3763 16.4346 18.0924L16.4224 15.7993Z" fill="white"/>
<path d="M23.7525 15.8481C23.7457 14.5642 24.781 13.5179 26.0649 13.5111C27.3488 13.5044 28.3951 14.5397 28.4019 15.8236L28.414 18.1167C28.4208 19.4006 27.3855 20.4469 26.1016 20.4536C24.8177 20.4604 23.7714 19.4251 23.7646 18.1412L23.7525 15.8481Z" fill="white"/>
<path d="M17.3403 16.9592C17.3455 17.937 18.2287 18.7251 19.3131 18.7193C20.3975 18.7136 21.2723 17.9163 21.2672 16.9385C21.262 15.9606 20.3787 15.1726 19.2944 15.1783C18.21 15.1841 17.3351 15.9814 17.3403 16.9592Z" fill="black"/>
<path d="M23.9477 16.9592C23.9529 17.937 24.8362 18.7251 25.9205 18.7193C27.0049 18.7136 27.8798 17.9163 27.8746 16.9385C27.8694 15.9606 26.9862 15.1726 25.9018 15.1783C24.8174 15.1841 23.9426 15.9814 23.9477 16.9592Z" fill="black"/>
<path d="M19.828 24.4826C19.8578 26.0746 21.702 27.3311 23.9471 27.2891C26.1922 27.2471 27.9881 25.9225 27.9583 24.3305C27.9285 22.7385 26.1272 23.7707 23.882 23.8128C21.6369 23.8548 19.7982 22.8907 19.828 24.4826Z" fill="black"/>
</svg>
