<svg width="200" height="90" viewBox="0 0 200 90" fill="none" xmlns="http://www.w3.org/2000/svg">
<g clip-path="url(#clip0_2306_6473)">
<rect width="200" height="90" fill="#BDE3FF"/>
<path fill-rule="evenodd" clip-rule="evenodd" d="M-6.18027 85.5257C-5.5206 81.3514 -9.94765 77.2571 -7.65473 73.2393C-4.94813 68.4966 -1.65241 61.9915 7.77154 61.0783C17.9972 60.0873 23.5998 68.8258 33.9785 69.2048C45.8176 69.6371 56.5881 60.196 66.8872 63.2371C76.2425 65.9996 70.121 74.0119 68.9752 79.5387C68.1676 83.4341 61.5364 86.4306 61.2669 90.3457C60.8502 96.3973 75.7689 103.853 67.0229 107.895C58.3557 111.9 45.7383 103.802 34.2527 102.83C27.3162 102.243 20.5655 103.925 13.6182 103.373C4.65786 102.66 -7.2514 103.227 -11.7526 99.1698C-16.3208 95.0519 -6.92748 90.2539 -6.18027 85.5257Z" fill="#005EA5"/>
<path fill-rule="evenodd" clip-rule="evenodd" d="M28.4743 10.5302C32.6486 10.8717 36.7429 8.58004 40.7607 9.76696C45.5034 11.168 52.0085 12.874 52.9217 17.7523C53.9127 23.0456 45.1742 25.9458 44.7952 31.3183C44.3629 37.4467 53.804 43.0221 50.7629 48.3534C48.0004 53.1961 39.9881 50.0274 34.4613 49.4342C30.5659 49.0162 27.5694 45.5836 23.6543 45.444C17.6027 45.2284 10.1469 52.9509 6.10508 48.4236C2.09968 43.9371 10.1975 37.4057 11.1701 31.4602C11.7575 27.8695 10.0747 24.3751 10.6274 20.7788C11.3402 16.1405 10.7727 9.97575 14.8302 7.64571C18.9481 5.281 23.7461 10.1434 28.4743 10.5302Z" fill="#2382C9"/>
<path fill-rule="evenodd" clip-rule="evenodd" d="M173.474 4.53021C177.649 4.87169 181.743 2.58004 185.761 3.76696C190.503 5.16803 197.008 6.87405 197.922 11.7523C198.913 17.0456 190.174 19.9458 189.795 25.3183C189.363 31.4467 198.804 37.0221 195.763 42.3534C193 47.1961 184.988 44.0274 179.461 43.4342C175.566 43.0162 172.569 39.5836 168.654 39.444C162.603 39.2284 155.147 46.9509 151.105 42.4236C147.1 37.9371 155.198 31.4057 156.17 25.4602C156.757 21.8695 155.075 18.3751 155.627 14.7788C156.34 10.1405 155.773 3.97575 159.83 1.64571C163.948 -0.719004 168.746 4.14342 173.474 4.53021Z" fill="#69BAF5"/>
<path fill-rule="evenodd" clip-rule="evenodd" d="M117.063 7.20494C131.49 7.9797 144.155 11.9054 154.996 17.5775C166.733 23.7188 176.896 30.8598 179.688 39.9711C183.097 51.0949 184.354 63.7453 171.749 72.2549C158.691 81.0707 136.857 81.4742 117.063 82.2497C95.2362 83.1048 71.8992 84.7511 54.6033 76.8446C35.6156 68.1646 20.8565 53.9771 24.5773 39.9711C28.0889 26.7526 52.1053 19.9805 71.5388 13.0955C85.3864 8.18958 100.98 6.34119 117.063 7.20494Z" fill="#C9F4FF"/>
<path d="M177.967 51.2804L196.726 84.9582L159.338 85.0303L177.967 51.2804Z" fill="#228CDA"/>
<path d="M173.373 78.4648H182.74" stroke="black" stroke-width="2" stroke-linecap="round"/>
<ellipse cx="171.472" cy="68.8528" rx="4.64254" ry="4.79533" transform="rotate(-0.110477 171.472 68.8528)" stroke="#FA8F21" stroke-width="2"/>
<ellipse cx="184.669" cy="68.8118" rx="4.64254" ry="4.79533" transform="rotate(-0.110477 184.669 68.8118)" stroke="#FA8F21" stroke-width="2"/>
<path d="M175.55 68.4723C175.55 68.4723 176.816 68.054 177.654 68.0337C178.594 68.011 180.025 68.4637 180.025 68.4637" stroke="#FA8F21" stroke-width="2"/>
<ellipse cx="171.471" cy="68.8518" rx="1.89842" ry="1.9609" transform="rotate(-0.110477 171.471 68.8518)" fill="black"/>
<ellipse cx="184.67" cy="68.8264" rx="1.89842" ry="1.9609" transform="rotate(-0.110477 184.67 68.8264)" fill="black"/>
<path d="M64.7594 37.9155C64.7605 38.1888 64.5143 38.3264 64.021 38.3282C63.5276 38.33 63.2805 38.1943 63.2795 37.9209L63.255 31.331C63.254 31.0577 63.5002 30.9201 63.9935 30.9183C64.4868 30.9164 64.734 31.0522 64.735 31.3255L64.7443 33.8355L67.5443 33.8251L67.535 31.3151C67.534 31.0418 67.7768 30.9042 68.2635 30.9024C68.7568 30.9006 69.004 31.0363 69.005 31.3097L69.0294 37.8996C69.0304 38.173 68.7843 38.3105 68.2909 38.3124C67.8043 38.3142 67.5604 38.1784 67.5594 37.9051L67.5491 35.1151L64.7491 35.1255L64.7594 37.9155ZM73.7977 37.882C73.7988 38.1553 73.5526 38.2929 73.0593 38.2947C72.5659 38.2965 72.3188 38.1608 72.3177 37.8874L72.2964 32.1275L70.6264 32.1337C70.3531 32.1347 70.2156 31.9285 70.2141 31.5152C70.2126 31.1019 70.3485 30.8947 70.6218 30.8937L75.4618 30.8757C75.7351 30.8747 75.8725 31.0809 75.8741 31.4942C75.8756 31.9076 75.7397 32.1147 75.4664 32.1157L73.7764 32.122L73.7977 37.882ZM77.7592 38.2773C77.3192 38.2789 77.0987 38.1431 77.0977 37.8697L77.0735 31.3498C77.0724 31.0298 77.2318 30.8692 77.5518 30.868L78.2618 30.8654C78.5618 30.8643 78.7589 31.0035 78.8533 31.2832L80.409 35.5074C80.4629 35.6672 80.5162 35.667 80.569 35.5068L82.0133 31.2715C82.1056 30.9911 82.3017 30.8504 82.6017 30.8493L83.3117 30.8466C83.6317 30.8455 83.7923 31.0049 83.7935 31.3249L83.8177 37.8448C83.8187 38.1182 83.5925 38.2557 83.1392 38.2573C82.6925 38.259 82.4687 38.1232 82.4677 37.8498L82.4577 35.1698C82.4558 34.6565 82.4995 33.8463 82.5887 32.7393L81.0152 37.1752C80.9162 37.4556 80.7167 37.5963 80.4167 37.5974C80.1501 37.5984 79.9729 37.4757 79.8854 37.2294L78.2588 32.7554C78.3635 34.0217 78.4165 34.8315 78.4178 35.1848L78.4277 37.8648C78.4287 38.1381 78.2059 38.2756 77.7592 38.2773ZM86.1143 38.2463C85.7943 38.2475 85.6337 38.0881 85.6326 37.7681L85.6084 31.2481C85.6074 30.9748 85.8535 30.8372 86.3469 30.8354C86.8402 30.8336 87.0874 30.9693 87.0884 31.2427L87.1088 36.7426C87.1094 36.9159 87.1964 37.0023 87.3697 37.0017L89.7097 36.993C89.983 36.992 90.1205 37.1981 90.122 37.6115C90.1235 38.0248 89.9876 38.232 89.7143 38.233L86.1143 38.2463ZM93.266 38.3598C92.2727 38.3635 91.5418 38.1262 91.0734 37.6479C90.866 37.4554 90.8751 37.202 91.1006 36.8878C91.3261 36.5737 91.5559 36.5195 91.79 36.7253C92.0711 37.0176 92.4983 37.1626 93.0716 37.1605C93.4649 37.1591 93.7812 37.0379 94.0203 36.797C94.2594 36.5561 94.3781 36.2223 94.3766 35.7957C94.375 35.369 94.2604 35.0394 94.0329 34.8069C93.8054 34.5744 93.5016 34.4589 93.1216 34.4603L92.5719 34.5524L92.3723 34.6631C92.1328 34.7906 91.8994 34.7815 91.6722 34.6357C91.4517 34.4898 91.3476 34.2802 91.3599 34.0068L91.5099 31.2963C91.522 30.9762 91.6847 30.8156 91.9981 30.8145L95.0781 30.803C95.3514 30.802 95.4888 31.0082 95.4903 31.4215C95.4919 31.8348 95.356 32.042 95.0826 32.043L93.0627 32.0505C92.8893 32.0512 92.7963 32.1382 92.7836 32.3116L92.6875 33.3619C92.6748 33.5353 92.7517 33.6017 92.9183 33.5611L93.5577 33.4087C94.2177 33.4062 94.7618 33.6042 95.1899 34.0026C95.6247 34.401 95.8436 34.9902 95.8465 35.7702C95.8494 36.5502 95.5984 37.1778 95.0934 37.653C94.5952 38.1215 93.986 38.3571 93.266 38.3598ZM99.6435 36.4962C99.7622 36.1624 99.9718 36.0383 100.272 36.1238C100.579 36.2094 100.673 36.4123 100.554 36.7328C100.403 37.1933 100.194 37.6108 99.929 37.9851C99.7965 38.1989 99.5999 38.2163 99.3392 38.0373C99.0785 37.8583 99.0178 37.6651 99.157 37.458C99.3693 37.1772 99.5315 36.8566 99.6435 36.4962ZM102.156 31.6768L100.676 31.6823L100.868 32.2616C100.962 32.5679 100.853 32.765 100.54 32.8528L100.29 32.9237L101.73 32.9184L102.156 31.6768ZM103.267 34.6627C103.54 34.6617 103.677 34.8279 103.679 35.1612C103.68 35.4945 103.544 35.6617 103.27 35.6627L102.13 35.6669L102.141 38.5769C102.142 38.8502 101.949 38.9876 101.563 38.9891C101.183 38.9905 100.992 38.8545 100.991 38.5812L100.98 35.6712L99.5304 35.6766C99.2571 35.6776 99.1198 35.5114 99.1186 35.1781C99.1174 34.8448 99.2534 34.6776 99.5267 34.6766L100.977 34.6712L100.974 33.9012L99.4639 33.9068C99.1906 33.9078 99.0533 33.745 99.0521 33.4183C99.0509 33.0917 99.1869 32.9278 99.4603 32.9268L100.02 32.9247L99.8581 32.3553C99.7703 32.0423 99.8829 31.8486 100.196 31.7741L100.546 31.6828L99.6057 31.6863C99.3323 31.6873 99.1951 31.5278 99.1939 31.2078C99.1927 30.8811 99.3287 30.7173 99.6021 30.7163L100.902 30.7114L100.741 30.302C100.646 30.0491 100.796 29.8752 101.189 29.7804C101.588 29.6789 101.839 29.7546 101.939 30.0076L102.242 30.7065L103.262 30.7027C103.535 30.7017 103.673 30.8645 103.674 31.1912C103.675 31.5112 103.539 31.6717 103.266 31.6727L102.426 31.6758L102.646 31.725C103.039 31.7969 103.16 32.0164 103.008 32.3837L102.79 32.9145L103.42 32.9121C103.694 32.9111 103.831 33.0739 103.832 33.4006C103.833 33.7273 103.697 33.8911 103.424 33.8921L102.124 33.8969L102.127 34.6669L103.267 34.6627ZM107.881 32.9856C108.154 32.9846 108.291 33.1674 108.293 33.5341C108.294 33.9007 108.158 34.0846 107.885 34.0856L107.365 34.0875L107.381 38.5875C107.382 38.8608 107.189 38.9982 106.803 38.9996C106.416 39.0011 106.222 38.8651 106.221 38.5918L106.205 34.0918L105.275 34.0953L105.275 34.2153C105.283 36.4352 105.012 37.9496 104.462 38.7583C104.363 38.9387 104.159 38.9094 103.852 38.6706C103.544 38.4384 103.446 38.1987 103.559 37.9517L103.837 37.3506L103.478 37.582C103.245 37.7228 103.028 37.6036 102.826 37.2244C102.625 36.8451 102.53 36.5155 102.543 36.2354L102.732 36.0847C102.991 35.9437 103.205 36.003 103.373 36.2623C103.533 36.4817 103.658 36.6979 103.745 36.911C103.832 37.0906 103.892 37.1171 103.925 36.9903C104.097 36.4096 104.18 35.486 104.175 34.2193L104.164 31.1194C104.162 30.8127 104.365 30.6219 104.771 30.5471C105.691 30.377 106.4 30.1711 106.899 29.9292C107.092 29.8418 107.339 29.9443 107.64 30.2365C107.948 30.522 107.999 30.7051 107.792 30.7859C107.306 30.9877 106.577 31.1804 105.605 31.364C105.378 31.4049 105.265 31.512 105.266 31.6853L105.271 32.9953L107.881 32.9856ZM111.522 36.0621C111.775 35.9679 111.942 36.1072 112.024 36.4803C112.105 36.8533 112.022 37.0903 111.776 37.1912L109.5 38.1296C109.253 38.2305 109.063 38.0746 108.928 37.6617C108.793 37.2422 108.855 36.992 109.115 36.9111L109.864 36.6583L109.852 33.3583L109.302 33.3603C109.029 33.3613 108.891 33.1685 108.89 32.7819C108.888 32.3952 109.024 32.2014 109.298 32.2003L109.848 32.1983L109.84 30.2483C109.839 29.975 110.032 29.8376 110.419 29.8362C110.806 29.8347 110.999 29.9707 111 30.244L111.008 32.194L111.528 32.1921C111.801 32.1911 111.938 32.3839 111.94 32.7706C111.941 33.1572 111.805 33.3511 111.532 33.3521L111.012 33.354L111.023 36.244L111.522 36.0621ZM116.503 36.4437C116.503 36.2703 116.416 36.184 116.242 36.1846L114.192 36.1922C114.019 36.1929 113.933 36.2799 113.933 36.4532L113.935 36.7632L116.505 36.7537L116.503 36.4437ZM113.939 37.8532C113.939 38.0265 114.026 38.1129 114.2 38.1122L116.25 38.1046C116.423 38.104 116.509 38.017 116.509 37.8437L116.508 37.6237L113.938 37.6332L113.939 37.8532ZM113.283 39.0156C112.963 39.0168 112.802 38.8574 112.801 38.5374L112.791 35.7774C112.79 35.4574 112.949 35.2968 113.269 35.2956L117.199 35.2811C117.519 35.2799 117.68 35.4393 117.681 35.7593L117.691 38.5193C117.692 38.8393 117.533 38.9999 117.213 39.0011L113.283 39.0156ZM113.62 32.9043C113.446 32.5783 113.465 32.3782 113.678 32.3041C113.898 32.2233 114.102 32.3425 114.289 32.6618L114.44 32.9213C114.515 33.1677 114.509 33.371 114.423 33.5314C114.343 33.685 114.16 33.689 113.873 33.5434L113.62 32.9043ZM116.668 32.323C116.928 32.4087 116.992 32.5685 116.86 32.8023L116.453 33.5238C116.32 33.7577 116.157 33.8383 115.963 33.7656C115.77 33.6864 115.726 33.5232 115.832 33.2761L116.129 32.565C116.235 32.318 116.414 32.2373 116.668 32.323ZM117.058 32.2616C117.057 32.0882 116.97 32.0019 116.797 32.0025L115.617 32.0069L115.624 34.0169L116.804 34.0125C116.978 34.0119 117.064 33.9249 117.063 33.7516L117.058 32.2616ZM113.537 32.0146C113.364 32.0153 113.277 32.1023 113.278 32.2756L113.283 33.7656C113.284 33.9389 113.371 34.0253 113.544 34.0246L114.714 34.0203L114.707 32.0103L113.537 32.0146ZM116.894 31.1922L117.624 31.1895C117.944 31.1883 118.105 31.3477 118.106 31.6677L118.116 34.3677C118.117 34.681 117.957 34.8383 117.637 34.8394L112.757 34.8575C112.444 34.8587 112.287 34.7026 112.286 34.3893L112.276 31.6893C112.275 31.3693 112.434 31.2087 112.754 31.2075L113.534 31.2046L113.081 30.4463C112.947 30.2135 113.056 30.0264 113.409 29.8851C113.769 29.7371 114.019 29.7762 114.16 30.0023L114.441 30.4413C114.616 30.7206 114.553 30.9309 114.253 31.072L113.984 31.203L115.634 31.1968L116.22 30.0047C116.339 29.7642 116.615 29.7099 117.049 29.8416C117.489 29.9733 117.633 30.1494 117.481 30.37L116.894 31.1922ZM125.505 31.3903L125.503 30.9403L124.973 30.9422L124.975 31.3922L125.505 31.3903ZM126.929 32.485C126.928 32.3117 126.841 32.2253 126.668 32.226L126.358 32.2271L126.361 32.9771L126.671 32.976C126.844 32.9753 126.93 32.8883 126.93 32.715L126.929 32.485ZM124.978 32.2322L124.981 32.9822L125.511 32.9803L125.508 32.2303L124.978 32.2322ZM123.858 32.2364C123.685 32.237 123.598 32.324 123.599 32.4973L123.6 32.7273C123.6 32.9007 123.687 32.987 123.861 32.9864L124.141 32.9853L124.138 32.2353L123.858 32.2364ZM124.135 31.3953L124.133 30.9453L122.853 30.9501C122.58 30.9511 122.443 30.7949 122.441 30.4816C122.44 30.1683 122.573 30.0111 122.84 30.0101L127.72 29.992C127.993 29.991 128.13 30.1472 128.131 30.4605C128.132 30.7739 127.996 30.931 127.723 30.932L126.353 30.9371L126.355 31.3871L127.475 31.383C127.795 31.3818 127.955 31.5412 127.956 31.8612L127.962 33.3312C127.963 33.6512 127.804 33.8118 127.484 33.8129L123.124 33.8291C122.804 33.8303 122.643 33.6709 122.642 33.3509L122.637 31.8809C122.635 31.5609 122.795 31.4003 123.115 31.3991L124.135 31.3953ZM127.145 34.1642C127.418 34.1632 127.556 34.3127 127.557 34.6127C127.558 34.9127 127.422 35.0632 127.148 35.0642L123.478 35.0778C123.205 35.0788 123.068 34.9293 123.067 34.6293C123.066 34.3293 123.202 34.1788 123.475 34.1778L127.145 34.1642ZM122.477 34.5815C122.584 34.7478 122.521 34.968 122.289 35.2422C122.063 35.5097 121.897 35.5203 121.789 35.2741L121.456 34.5253L121.471 38.5653C121.472 38.8386 121.293 38.9759 120.933 38.9773C120.573 38.9786 120.392 38.8426 120.391 38.5693L120.377 34.8093C120.081 35.8237 119.82 36.5014 119.595 36.8422C119.489 37.0226 119.342 36.9131 119.154 36.5138C118.972 36.1078 118.944 35.8079 119.07 35.6141C119.21 35.4403 119.402 35.0462 119.646 34.432C119.89 33.8111 120.081 33.2037 120.219 32.6099L119.529 32.6124C119.256 32.6134 119.119 32.4306 119.117 32.0639C119.116 31.6973 119.252 31.5134 119.525 31.5124L120.365 31.5093L120.36 30.0593C120.359 29.786 120.538 29.6487 120.898 29.6473C121.258 29.646 121.439 29.782 121.44 30.0553L121.445 31.5053L122.005 31.5032C122.278 31.5022 122.416 31.685 122.417 32.0517C122.419 32.4184 122.283 32.6022 122.009 32.6032L121.449 32.6053L121.451 33.0453C121.571 33.1982 121.773 33.4941 122.054 33.9331C122.342 34.3653 122.483 34.5815 122.477 34.5815ZM123.076 37.0593C123.235 36.7654 123.484 36.6678 123.825 36.7665C124.172 36.8586 124.269 37.0482 124.117 37.3354C123.925 37.7628 123.633 38.1472 123.241 38.4887C123.048 38.6894 122.802 38.6837 122.501 38.4714C122.207 38.2659 122.166 38.0727 122.379 37.8919C122.711 37.6507 122.944 37.3731 123.076 37.0593ZM128.172 35.9304C128.173 36.2371 128.037 36.3909 127.763 36.3919L125.803 36.3992L125.811 38.5492C125.812 38.8225 125.636 38.9598 125.283 38.9611C124.929 38.9624 124.752 38.8264 124.751 38.5531L124.743 36.4031L122.883 36.41C122.61 36.411 122.473 36.2582 122.472 35.9515C122.47 35.6382 122.607 35.481 122.88 35.48L127.76 35.4619C128.033 35.4609 128.17 35.6171 128.172 35.9304ZM126.487 37.4267C126.28 37.1808 126.319 36.984 126.605 36.8362C126.891 36.6885 127.118 36.7177 127.285 36.9237L128.039 37.8509C128.206 38.057 128.137 38.2506 127.831 38.4317C127.525 38.6128 127.305 38.5803 127.17 38.3341C127.07 38.1012 126.842 37.7987 126.487 37.4267ZM136.183 30.9207L135.043 30.9249C134.811 31.2791 134.629 31.5064 134.496 31.6069C134.303 31.801 134.06 31.7819 133.765 31.5496C133.471 31.3174 133.427 31.1109 133.633 30.9301C133.999 30.6621 134.244 30.3412 134.37 29.9674C134.502 29.6602 134.748 29.5527 135.108 29.6447C135.475 29.7366 135.606 29.9061 135.5 30.1532L135.47 30.2033L137.82 30.1946C138.094 30.1936 138.231 30.3131 138.232 30.5531C138.233 30.7931 138.096 30.9136 137.823 30.9146L136.553 30.9193C136.814 31.1383 136.924 31.2413 136.884 31.2281C137.038 31.4142 136.952 31.5812 136.626 31.729C136.3 31.8769 136.047 31.8512 135.866 31.6519C135.618 31.3661 135.677 31.1426 136.043 30.9812L136.183 30.9207ZM136.389 32.5499C136.235 32.3305 136.294 32.1503 136.567 32.0093C136.847 31.8616 137.07 31.8941 137.237 32.1068L137.599 32.5754C137.767 32.7882 137.704 32.9751 137.411 33.1361C137.119 33.2972 136.895 33.2681 136.741 33.0486L136.389 32.5499ZM131.703 30.9473L130.763 30.9508C130.451 31.3386 130.219 31.5928 130.066 31.7134C129.867 31.8874 129.633 31.8416 129.365 31.576C129.104 31.3036 129.087 31.0803 129.313 30.9061C129.725 30.6246 130.017 30.3035 130.189 29.9429C130.355 29.6623 130.611 29.5747 130.958 29.68C131.312 29.7854 131.423 29.9583 131.29 30.1988L131.28 30.2088L133.1 30.2021C133.374 30.2011 133.511 30.3239 133.512 30.5706C133.513 30.8172 133.376 30.9411 133.103 30.9421L132.253 30.9452L132.614 31.2739C132.808 31.4599 132.749 31.6334 132.436 31.7946C132.124 31.9557 131.873 31.94 131.686 31.7474L131.576 31.6378C131.295 31.3588 131.337 31.1286 131.703 30.9473ZM133.938 37.569C134.264 37.5545 134.428 37.6506 134.429 37.8572C134.828 37.5891 135.143 37.3312 135.376 37.0837C135.12 36.3313 134.94 35.4153 134.836 34.3357L133.206 34.3417L133.207 34.7417L134.007 34.7388C134.281 34.7378 134.418 34.8406 134.418 35.0472C134.419 35.2539 134.283 35.3578 134.01 35.3588L133.21 35.3617L133.211 35.7117L133.951 35.709C134.224 35.708 134.361 35.8075 134.362 36.0075C134.363 36.2008 134.226 36.298 133.953 36.299L133.213 36.3017L133.214 36.6517L134.114 36.6484C134.388 36.6474 134.525 36.7535 134.525 36.9669C134.526 37.1735 134.39 37.2774 134.117 37.2784L133.217 37.2817L133.218 37.6217L133.938 37.569ZM131.676 34.3474L131.688 37.7174L132.278 37.6852L132.266 34.3452L131.676 34.3474ZM130.153 33.5331L131.403 33.5284C131.255 33.3156 131.085 33.1196 130.891 32.9403C130.678 33.1611 130.432 33.3587 130.153 33.5331ZM132.282 33.2852C132.148 33.1523 132.015 33.1361 131.882 33.2366L131.513 33.528L132.513 33.5243L132.282 33.2852ZM132.803 33.5232L133.803 33.5195C133.669 33.3533 133.518 33.1872 133.351 33.0212C133.205 33.1951 133.022 33.3624 132.803 33.5232ZM136.848 34.8382C136.933 34.5846 137.13 34.5005 137.437 34.5861C137.75 34.6649 137.858 34.8412 137.759 35.1149C137.548 35.809 137.154 36.5138 136.576 37.2293C136.771 37.6019 136.972 37.7878 137.179 37.787C137.265 37.7867 137.328 37.7198 137.368 37.5863L137.407 37.2962C137.439 37.0227 137.596 36.9722 137.876 37.1444C138.157 37.3167 138.264 37.5763 138.199 37.9233C138.193 38.1366 138.104 38.3436 137.931 38.5443C137.759 38.7449 137.482 38.8459 137.102 38.8473C136.609 38.8492 136.181 38.5774 135.819 38.0321C135.374 38.4137 135.052 38.6516 134.852 38.7457C134.606 38.8999 134.386 38.8607 134.192 38.6281L133.951 38.349C132.125 38.5091 130.672 38.6212 129.592 38.6852C129.365 38.706 129.231 38.5732 129.19 38.2867C129.149 38.0001 129.265 37.8497 129.539 37.8354L130.748 37.7709L130.747 37.3409L129.787 37.3444C129.514 37.3454 129.376 37.2426 129.376 37.036C129.375 36.8226 129.511 36.7155 129.784 36.7144L130.744 36.7109L130.743 36.3309L130.013 36.3336C129.74 36.3346 129.603 36.2384 129.602 36.0451C129.601 35.8451 129.738 35.7446 130.011 35.7436L130.741 35.7409L130.74 35.3809L129.92 35.3839C129.646 35.3849 129.509 35.2854 129.508 35.0854C129.508 34.8788 129.644 34.7749 129.917 34.7739L130.737 34.7709L130.736 34.3509L129.486 34.3555C129.212 34.3565 129.075 34.2204 129.074 33.9471C129.073 33.6737 129.209 33.5365 129.483 33.5355L129.933 33.5339L129.802 33.4043C129.521 33.1187 129.607 32.8517 130.059 32.6034C130.279 32.5692 130.412 32.3854 130.457 32.0519C130.556 31.7915 130.753 31.6808 131.046 31.7197C131.346 31.7586 131.447 31.9249 131.348 32.2186L132.101 32.9458C132.606 32.6706 132.872 32.393 132.897 32.1129C132.99 31.8392 133.183 31.7218 133.476 31.7607C133.77 31.793 133.88 31.9392 133.808 32.1995L133.778 32.2696C134.132 32.555 134.313 32.7243 134.32 32.7776C134.507 32.9969 134.475 33.2004 134.222 33.388L134.053 33.5186L134.763 33.516L134.708 32.3162C134.701 32.0428 134.88 31.9055 135.247 31.9042C135.62 31.9028 135.811 32.0387 135.818 32.312L135.853 33.5119L137.803 33.5047C138.076 33.5037 138.213 33.6398 138.214 33.9132C138.215 34.1865 138.079 34.3237 137.806 34.3247L135.916 34.3317C135.992 35.0314 136.087 35.6177 136.202 36.0906C136.554 35.556 136.769 35.1385 136.848 34.8382Z" fill="#2382C9"/>
<path d="M85.4602 56.8917C85.5218 56.2622 85.8035 55.9891 86.3051 56.0726C86.8174 56.1454 87.0426 56.4805 86.9809 57.0781C86.8996 58.1771 86.7375 59.0417 86.4945 59.6719C86.3997 60.0136 86.1067 60.0947 85.6154 59.9152C85.1347 59.7463 84.9418 59.507 85.0367 59.1973C85.2483 58.7165 85.3894 57.948 85.4602 56.8917ZM87.5566 56.996C87.4691 56.431 87.6546 56.1049 88.1129 56.0179C88.5712 55.9202 88.844 56.1325 88.9313 56.6549C89.094 57.3903 89.176 57.918 89.1772 58.238C89.2108 58.6752 89.1161 59.0222 88.893 59.279C88.67 59.5465 88.3236 59.6118 87.8538 59.4749L87.8049 59.2511L87.5566 56.996ZM89.3145 56.4295C89.2063 56.0138 89.3652 55.7359 89.7914 55.5957C90.2282 55.4554 90.506 55.593 90.6249 56.0086L91.1761 57.9426C91.295 58.3581 91.1307 58.6414 90.6832 58.7924C90.2358 58.9434 89.958 58.8111 89.8498 58.3955L89.3145 56.4295ZM89.156 52.526C89.0265 52.1105 89.1854 51.8326 89.6329 51.6922C90.091 51.5412 90.4224 51.7426 90.6272 52.2966C90.9501 53.0847 91.1552 53.7559 91.2426 54.3103C91.3293 54.662 91.1276 54.9294 90.6376 55.1125C90.1476 55.285 89.8644 55.1527 89.7881 54.7157L89.7557 54.6038C87.2931 54.9756 85.9553 55.2206 85.7424 55.3387C85.5933 55.3926 85.4163 55.1372 85.2116 54.5726C85.0175 54.008 85.0269 53.6827 85.2399 53.5965C85.5279 53.5741 86.2024 52.8143 87.2635 51.317C86.2613 51.4381 85.7656 51.5199 85.7764 51.5625C85.5207 51.6381 85.2958 51.4043 85.1018 50.861C84.9078 50.3177 84.9066 49.9924 85.0982 49.885C85.3328 49.8735 85.8685 49.0822 86.7054 47.5111C87.1291 46.7095 87.3989 46.1218 87.5149 45.748C87.6734 45.3528 88.0358 45.2714 88.602 45.504C89.1788 45.7365 89.372 46.0505 89.1815 46.4459C88.7584 47.4181 88.1807 48.4016 87.4484 49.3963C87.268 49.653 87.3165 49.7755 87.5938 49.7638L88.3295 49.6971L89.156 48.206C89.3573 47.8319 89.7199 47.8092 90.2437 48.1379C90.7676 48.4667 90.913 48.8288 90.6798 49.2243C89.9168 50.5818 89.0148 51.8385 87.9737 52.9944C87.7826 53.2191 87.8256 53.3203 88.1029 53.2979L89.3503 53.1493L89.156 52.526ZM97.249 56.016C97.248 55.7387 97.1088 55.6006 96.8315 55.6016L94.1595 55.6115C93.8821 55.6125 93.744 55.7517 93.745 56.029L93.7507 57.565C93.7517 57.8423 93.8909 57.9805 94.1683 57.9795L96.8402 57.9696C97.1176 57.9685 97.2557 57.8294 97.2547 57.552L97.249 56.016ZM92.7186 59.6969C92.2066 59.6988 91.9497 59.4437 91.9478 58.9317L91.9319 54.6597C91.93 54.1477 92.1851 53.8908 92.6971 53.8889L98.361 53.8679C98.873 53.866 99.13 54.1211 99.1319 54.6331L99.1477 58.905C99.1496 59.417 98.8946 59.674 98.3826 59.6759L92.7186 59.6969ZM99.2323 47.1926C99.6696 47.191 99.8894 47.4889 99.8916 48.0862C99.8938 48.6835 99.6763 48.983 99.2389 48.9846L96.439 48.995L96.4458 50.835L98.8618 50.826C99.2991 50.8244 99.5189 51.1223 99.5211 51.7196C99.5233 52.3063 99.3057 52.6004 98.8684 52.602L92.2764 52.6264C91.8391 52.6281 91.6193 52.3355 91.6171 51.7489C91.6149 51.1516 91.8325 50.8521 92.2698 50.8505L94.4618 50.8423L94.455 49.0023L91.799 49.0122C91.3617 49.0138 91.1419 48.716 91.1397 48.1186C91.1375 47.5213 91.355 47.2218 91.7924 47.2202L94.4483 47.2104L94.4434 45.8664C94.4417 45.429 94.7716 45.2091 95.4329 45.2067C96.0942 45.2042 96.4257 45.4217 96.4273 45.859L96.4323 47.203L99.2323 47.1926ZM106.568 53.5175C106.729 53.7729 106.645 54.1305 106.316 54.5904C105.997 55.0396 105.747 55.0672 105.564 54.6732L104.919 53.2996L104.942 59.4595C104.943 59.8969 104.656 60.1166 104.08 60.1187C103.504 60.1209 103.215 59.9033 103.214 59.466L103.194 54.138C102.751 55.473 102.365 56.3704 102.036 56.8303C101.845 57.1403 101.61 57.0185 101.331 56.4649C101.051 55.9006 101.012 55.4634 101.214 55.1533C101.447 54.8538 101.76 54.2073 102.151 53.2139C102.542 52.2097 102.837 51.222 103.036 50.2506L101.916 50.2547C101.478 50.2563 101.259 49.9638 101.256 49.3771C101.254 48.7905 101.472 48.4963 101.909 48.4947L103.173 48.49L103.163 45.85C103.162 45.4127 103.449 45.193 104.025 45.1908C104.601 45.1887 104.89 45.4063 104.891 45.8436L104.901 48.4836L105.845 48.4801C106.282 48.4785 106.502 48.771 106.504 49.3577C106.507 49.9444 106.289 50.2385 105.852 50.2401L104.908 50.2436L104.91 50.9956C105.125 51.2935 105.457 51.7936 105.908 52.4959C106.369 53.1982 106.589 53.5387 106.568 53.5175ZM112.05 56.2012L113.474 56.1959L113.471 55.4279L112.047 55.4332L112.05 56.2012ZM108.975 55.4446L108.978 56.2126L110.338 56.2075L110.335 55.4395L108.975 55.4446ZM110.328 53.5195L109.384 53.523C109.107 53.5241 108.968 53.6633 108.969 53.9406L108.97 54.2126L110.33 54.2075L110.328 53.5195ZM113.465 53.9239C113.464 53.6466 113.325 53.5084 113.048 53.5095L112.04 53.5132L112.042 54.2012L113.466 54.1959L113.465 53.9239ZM110.297 49.5836L110.3 50.2556L112.06 50.2491L112.057 49.5771L110.297 49.5836ZM110.29 47.6476L110.292 48.3036L112.052 48.2971L112.05 47.6411L110.29 47.6476ZM115.442 56.1886C115.879 56.187 116.099 56.4208 116.1 56.8902C116.102 57.3488 115.884 57.579 115.447 57.5806L115.239 57.5814L115.241 58.2694C115.243 58.6747 115.191 58.9842 115.085 59.198C114.99 59.4223 114.782 59.6097 114.463 59.7603C114.154 59.9107 113.754 59.9762 113.264 59.9567C112.602 59.9805 112.196 59.7633 112.045 59.3052C111.862 58.7619 112.085 58.4944 112.714 58.5027C113.152 58.5011 113.386 58.4842 113.418 58.4521C113.461 58.42 113.482 58.3559 113.481 58.2599L113.479 57.5879L108.983 57.6046L108.989 59.3325C108.991 59.7699 108.704 59.9896 108.128 59.9917C107.562 59.9938 107.279 59.7762 107.277 59.3389L107.271 57.6109L106.951 57.6121C106.514 57.6137 106.294 57.3852 106.292 56.9265C106.291 56.4572 106.508 56.2217 106.946 56.2201L107.266 56.2189L107.254 52.9869C107.252 52.4749 107.507 52.218 108.019 52.2161L110.323 52.2076L110.321 51.5996L107.217 51.6111C106.779 51.6127 106.56 51.3895 106.558 50.9415C106.557 50.4935 106.774 50.2687 107.212 50.2671L108.54 50.2621L108.537 49.5902L107.881 49.5926C107.444 49.5942 107.224 49.3817 107.223 48.955C107.221 48.5284 107.439 48.3142 107.877 48.3126L108.533 48.3102L108.53 47.6542L107.538 47.6578C107.101 47.6595 106.881 47.4416 106.88 47.0043C106.878 46.5669 107.096 46.3475 107.533 46.3459L108.525 46.3422L108.523 45.8302C108.522 45.3928 108.814 45.1731 109.401 45.1709C109.988 45.1687 110.282 45.3863 110.283 45.8237L110.285 46.3357L112.045 46.3291L112.043 45.8171C112.042 45.3798 112.334 45.16 112.921 45.1579C113.518 45.1557 113.818 45.3732 113.819 45.8105L113.821 46.3225L114.957 46.3183C115.395 46.3167 115.614 46.5346 115.616 46.9719C115.617 47.4092 115.399 47.6287 114.962 47.6303L113.826 47.6345L113.828 48.2905L114.708 48.2873C115.146 48.2857 115.365 48.4982 115.367 48.9248C115.368 49.3515 115.151 49.5656 114.713 49.5673L113.833 49.5705L113.836 50.2425L115.26 50.2372C115.697 50.2356 115.917 50.4588 115.918 50.9068C115.92 51.3548 115.702 51.5796 115.265 51.5812L112.033 51.5932L112.035 52.2012L114.451 52.1923C114.963 52.1904 115.22 52.4454 115.222 52.9574L115.234 56.1894L115.442 56.1886Z" fill="black" fill-opacity="0.85"/>
</g>
<defs>
<clipPath id="clip0_2306_6473">
<rect width="200" height="90" fill="white"/>
</clipPath>
</defs>
</svg>
