<svg width="200" height="90" viewBox="0 0 200 90" fill="none" xmlns="http://www.w3.org/2000/svg">
<g clip-path="url(#clip0_2308_6576)">
<rect width="200" height="90" fill="#FEB79D"/>
<path fill-rule="evenodd" clip-rule="evenodd" d="M-6.18027 85.5257C-5.5206 81.3514 -9.94765 77.2571 -7.65473 73.2393C-4.94813 68.4966 -1.65241 61.9915 7.77154 61.0783C17.9972 60.0873 23.5998 68.8258 33.9785 69.2048C45.8176 69.6371 56.5881 60.196 66.8872 63.2371C76.2425 65.9996 70.121 74.0119 68.9752 79.5387C68.1676 83.4341 61.5364 86.4306 61.2669 90.3457C60.8502 96.3973 75.7689 103.853 67.0229 107.895C58.3557 111.9 45.7383 103.802 34.2527 102.83C27.3162 102.243 20.5655 103.925 13.6182 103.373C4.65786 102.66 -7.2514 103.227 -11.7526 99.1698C-16.3208 95.0519 -6.92748 90.2539 -6.18027 85.5257Z" fill="#FE585B"/>
<path fill-rule="evenodd" clip-rule="evenodd" d="M28.4743 10.5302C32.6486 10.8717 36.7429 8.58004 40.7607 9.76696C45.5034 11.168 52.0085 12.874 52.9217 17.7523C53.9127 23.0456 45.1742 25.9458 44.7952 31.3183C44.3629 37.4467 53.804 43.0221 50.7629 48.3534C48.0004 53.1961 39.9881 50.0274 34.4613 49.4342C30.5659 49.0162 27.5694 45.5836 23.6543 45.444C17.6027 45.2284 10.1469 52.9509 6.10508 48.4236C2.09968 43.9371 10.1975 37.4057 11.1701 31.4602C11.7575 27.8695 10.0747 24.3751 10.6274 20.7788C11.3402 16.1405 10.7727 9.97575 14.8302 7.64571C18.9481 5.281 23.7461 10.1434 28.4743 10.5302Z" fill="#FC7443"/>
<path fill-rule="evenodd" clip-rule="evenodd" d="M173.474 4.53021C177.649 4.87169 181.743 2.58004 185.761 3.76696C190.503 5.16803 197.008 6.87405 197.922 11.7523C198.913 17.0456 190.174 19.9458 189.795 25.3183C189.363 31.4467 198.804 37.0221 195.763 42.3534C193 47.1961 184.988 44.0274 179.461 43.4342C175.566 43.0162 172.569 39.5836 168.654 39.444C162.603 39.2284 155.147 46.9509 151.105 42.4236C147.1 37.9371 155.198 31.4057 156.17 25.4602C156.757 21.8695 155.075 18.3751 155.627 14.7788C156.34 10.1405 155.773 3.97575 159.83 1.64571C163.948 -0.719004 168.746 4.14342 173.474 4.53021Z" fill="#FF8787"/>
<path fill-rule="evenodd" clip-rule="evenodd" d="M117.063 7.20494C131.49 7.9797 144.155 11.9054 154.996 17.5775C166.733 23.7188 176.896 30.8598 179.688 39.9711C183.097 51.0949 184.354 63.7453 171.749 72.2549C158.691 81.0707 136.857 81.4742 117.063 82.2497C95.2362 83.1048 71.8992 84.7511 54.6033 76.8446C35.6156 68.1646 20.8565 53.9771 24.5773 39.9711C28.0889 26.7526 52.1053 19.9805 71.5388 13.0955C85.3864 8.18958 100.98 6.34119 117.063 7.20494Z" fill="#FFAB7A"/>
<ellipse cx="177.989" cy="70.7269" rx="16.7876" ry="14.0511" fill="#F55A57"/>
<ellipse cx="173.713" cy="65.6395" rx="1.21537" ry="2.15126" fill="black"/>
<ellipse cx="182.288" cy="65.6395" rx="1.21537" ry="2.15126" fill="black"/>
<path d="M173.043 72.6426C173.079 74.5703 175.312 76.0917 178.031 76.0408C180.749 75.99 182.924 74.386 182.888 72.4584C182.852 70.5307 180.67 71.7806 177.952 71.8314C175.233 71.8823 173.007 70.7149 173.043 72.6426Z" fill="black"/>
<path d="M170.798 50.9035C173.679 48.6452 180.102 51.1915 180.102 55.0219C180.103 59.542 168.088 61.6232 165.803 61.9782C165.554 62.0169 165.305 62.044 165.056 62.039C163.427 62.0062 157.617 61.2375 170.798 50.9035Z" fill="#6E5232"/>
<path d="M170.798 50.9035C173.679 48.6452 180.102 51.1915 180.102 55.0219C180.103 59.542 168.088 61.6232 165.803 61.9782C165.554 62.0169 165.305 62.044 165.056 62.039C163.427 62.0062 157.617 61.2375 170.798 50.9035Z" fill="url(#paint0_radial_2308_6576)" fill-opacity="0.15"/>
<path d="M185.204 50.7629C182.323 48.5045 175.9 51.0509 175.9 54.8813C175.899 59.4014 187.914 61.4825 190.199 61.8375C190.448 61.8763 190.697 61.9034 190.946 61.8984C192.575 61.8656 198.385 61.0968 185.204 50.7629Z" fill="#6E5232"/>
<path d="M185.204 50.7629C182.323 48.5045 175.9 51.0509 175.9 54.8813C175.899 59.4014 187.914 61.4825 190.199 61.8375C190.448 61.8763 190.697 61.9034 190.946 61.8984C192.575 61.8656 198.385 61.0968 185.204 50.7629Z" fill="url(#paint1_radial_2308_6576)" fill-opacity="0.15"/>
<path d="M70.1219 30.8334C69.9486 30.834 69.8623 30.921 69.8629 31.0943L69.8648 31.5943C69.8658 31.8677 69.6696 32.005 69.2763 32.0065C68.8896 32.0079 68.6958 31.872 68.6948 31.5987L68.6895 30.1887C68.6884 29.8753 68.8478 29.7181 69.1678 29.7169L72.4278 29.7048L72.2466 29.3955C72.1058 29.1627 72.2318 28.9855 72.6247 28.8641C73.0242 28.7426 73.3078 28.7982 73.4753 29.0309C73.5757 29.1306 73.6965 29.3534 73.8378 29.6996L76.7977 29.6886C77.1177 29.6874 77.2783 29.8435 77.2795 30.1568L77.2847 31.5668C77.2857 31.8402 77.0796 31.9776 76.6662 31.9791C76.2596 31.9806 76.0557 31.8447 76.0547 31.5714L76.0529 31.0714C76.0522 30.898 75.9652 30.8117 75.7919 30.8123L70.1219 30.8334ZM76.954 34.0781C77.2273 34.077 77.3647 34.2665 77.3661 34.6465C77.3675 35.0199 77.2315 35.207 76.9582 35.2081L73.6382 35.2204L73.6438 36.7304C73.645 37.057 73.5993 37.3072 73.5066 37.4809C73.4139 37.6545 73.2477 37.7852 73.0081 37.8727C72.6685 38.0073 72.2088 38.0723 71.6288 38.0678C71.2555 38.0759 70.9814 37.8769 70.8065 37.4709C70.6317 37.0715 70.6577 36.8748 70.8844 36.8806C71.0711 36.8866 71.4811 36.8884 72.1144 36.886C72.2144 36.8856 72.281 36.8721 72.3142 36.8453C72.3541 36.8185 72.374 36.7717 72.3737 36.7051L72.3682 35.2251L69.0683 35.2373C68.7949 35.2383 68.6576 35.0522 68.6562 34.6788C68.6548 34.2988 68.7907 34.1083 69.0641 34.1073L72.364 34.0951C72.3627 33.7417 72.4785 33.4846 72.7112 33.3238L73.579 32.7406L70.7691 32.751C70.4957 32.752 70.3584 32.5692 70.357 32.2025C70.3556 31.8292 70.4916 31.642 70.7649 31.641L74.6347 31.5666C74.908 31.5656 75.1751 31.668 75.4358 31.8737C75.7033 32.0794 75.7407 32.2825 75.5481 32.4833C75.0965 32.9649 74.4583 33.444 73.6334 33.9204L73.634 34.0904L76.954 34.0781ZM86.4746 28.8127C86.8546 28.8113 87.0451 28.9473 87.0461 29.2206L87.0604 33.0806C87.0615 33.3673 87.0289 33.5874 86.9628 33.741C86.8967 33.8879 86.7705 34.0017 86.5841 34.0824C86.2979 34.2101 85.9548 34.2714 85.5548 34.2662C85.1948 34.2742 84.9542 34.1051 84.8329 33.7589C84.7182 33.4059 84.8743 33.2354 85.301 33.2471C85.6344 33.2659 85.831 33.2485 85.8908 33.1949C85.9174 33.1682 85.9305 33.1248 85.9303 33.0648L85.9161 29.2248C85.9151 28.9515 86.1012 28.8141 86.4746 28.8127ZM84.6363 29.2796C85.0029 29.2782 85.1868 29.4142 85.1878 29.6875L85.1973 32.2475C85.1983 32.5208 85.0155 32.6582 84.6488 32.6595C84.2888 32.6609 84.1083 32.5249 84.1073 32.2515L84.0978 29.6916C84.0968 29.4182 84.2763 29.2809 84.6363 29.2796ZM80.7932 31.1638L81.6332 31.1607L81.6293 30.1107L80.7893 30.1138L80.7932 31.1638ZM83.6235 36.6334L87.0935 36.6205C87.3668 36.6195 87.5042 36.8023 87.5055 37.169C87.5069 37.5356 87.3709 37.7195 87.0976 37.7205L78.9076 37.7508C78.6343 37.7519 78.497 37.569 78.4956 37.2024C78.4942 36.8357 78.6302 36.6519 78.9036 36.6509L82.4035 36.6379L82.4006 35.8379L79.9106 35.8471C79.6373 35.8481 79.4999 35.6686 79.4986 35.3086C79.4973 34.9486 79.6333 34.7681 79.9066 34.7671L82.3966 34.7579L82.3952 34.3879C82.3946 34.2146 82.3076 34.1282 82.1342 34.1289C81.8076 34.1301 81.6436 33.9707 81.6425 33.6507L81.6371 32.2107L80.7171 32.2141C80.5275 33.2015 80.1265 33.8563 79.5144 34.1786C79.275 34.3328 79.0248 34.2737 78.7637 34.0014C78.5027 33.7223 78.5019 33.5023 78.7613 33.3414C79.1407 33.1733 79.416 32.7989 79.5871 32.2183L78.9871 32.2205C78.7138 32.2215 78.5765 32.0487 78.5752 31.702C78.5739 31.3487 78.7099 31.1715 78.9833 31.1705L79.7032 31.1679L79.6994 30.1179L79.3194 30.1193C79.046 30.1203 78.9087 29.9475 78.9074 29.6008C78.9061 29.2541 79.0422 29.0803 79.3155 29.0793L83.0355 29.0655C83.3088 29.0645 83.4461 29.2373 83.4474 29.584C83.4487 29.9306 83.3127 30.1045 83.0393 30.1055L82.7393 30.1066L82.7432 31.1566L83.2732 31.1546C83.5466 31.1536 83.6839 31.3298 83.6852 31.6831C83.6865 32.0298 83.5504 32.2036 83.2771 32.2046L82.7471 32.2066L82.7536 33.9566L83.1336 33.9552C83.4536 33.954 83.6142 34.1134 83.6154 34.4334L83.6166 34.7534L86.0965 34.7442C86.3699 34.7432 86.5072 34.9227 86.5085 35.2827C86.5099 35.6427 86.3739 35.8232 86.1006 35.8242L83.6206 35.8334L83.6235 36.6334ZM93.3128 33.7074L93.3077 32.3474C93.3071 32.1741 93.2201 32.0878 93.0468 32.0884L92.2768 32.0913C91.9568 32.0924 91.7962 31.933 91.795 31.613L91.786 29.1831C91.785 28.9097 91.9511 28.7724 92.2845 28.7712C92.6244 28.7699 92.795 28.906 92.796 29.1793L92.797 29.4493L93.957 29.445C94.2303 29.444 94.3676 29.6068 94.3688 29.9335C94.37 30.2601 94.2339 30.424 93.9606 30.425L92.8006 30.4293L92.8023 30.8993C92.803 31.0726 92.89 31.159 93.0633 31.1583L93.8133 31.1656C94.1333 31.1644 94.2939 31.3238 94.2951 31.6438L94.3027 33.7038C94.3035 33.9104 94.2774 34.0639 94.2245 34.164C94.1782 34.2642 94.0785 34.3513 93.9254 34.4252C93.7724 34.4991 93.5891 34.5331 93.3758 34.5272C93.0025 34.5352 92.7721 34.4194 92.6845 34.1798C92.5969 33.9334 92.6898 33.8097 92.9631 33.8087L93.1431 33.8081C93.2565 33.8143 93.313 33.7808 93.3128 33.7074ZM91.8491 32.7228C91.9148 32.4626 92.0944 32.3586 92.3879 32.4108C92.6814 32.4564 92.8022 32.6693 92.7503 33.0495C92.7251 33.4296 92.6361 33.7199 92.4835 33.9205C92.3843 34.1142 92.2077 34.1349 91.9538 33.9825C91.6998 33.8234 91.6057 33.6138 91.6714 33.3535L91.8491 32.7228ZM95.6161 34.6189L95.6631 33.8087L95.0631 33.8109C94.7898 33.812 94.6525 33.6491 94.6513 33.3225C94.6501 32.9958 94.7862 32.832 95.0595 32.8309L95.6995 32.8286L95.6963 31.9686L95.1263 31.9707C94.853 31.9717 94.7157 31.8089 94.7145 31.4822C94.7133 31.1556 94.8494 30.9917 95.1227 30.9907L95.7527 30.9884L95.7505 30.3884C95.7498 30.215 95.6628 30.1287 95.4895 30.1293L95.0195 30.1311C94.7462 30.1321 94.6089 29.9626 94.6076 29.6226C94.6064 29.2826 94.7424 29.1121 95.0157 29.1111L96.3657 29.1061C96.6857 29.1049 96.8431 29.2843 96.8377 29.6443C96.8506 31.331 96.8168 32.9878 96.7361 34.6147L97.1961 34.613C97.4695 34.612 97.6068 34.7949 97.6082 35.1615C97.6095 35.5282 97.4735 35.712 97.2002 35.713L94.7902 35.722C95.8587 36.218 96.6135 36.6052 97.0546 36.8836C97.2483 36.9962 97.2124 37.203 96.9469 37.504C96.688 37.8116 96.4516 37.8958 96.2378 37.7566C95.6697 37.3654 95.0784 37.0276 94.464 36.7432C94.0365 36.5248 93.9422 36.2584 94.1811 35.9442L94.3502 35.7236L91.3803 35.7346L91.7614 36.0432C92.069 36.2954 92.0466 36.5355 91.6941 36.7634C91.1754 37.1187 90.4634 37.478 89.5581 37.8414C89.2852 37.9624 89.0348 37.8733 88.8071 37.5742C88.586 37.2816 88.6185 37.0782 88.9048 36.9638C89.7103 36.6608 90.4655 36.2513 91.1703 35.7354L88.8503 35.744C88.5769 35.745 88.4396 35.5622 88.4382 35.1955C88.4369 34.8288 88.5729 34.645 88.8462 34.644L89.3362 34.6422L89.1587 29.9328C89.151 29.6328 89.2835 29.429 89.5565 29.3213L90.6748 28.8772C90.9278 28.7829 91.1382 28.8988 91.3061 29.2248C91.4806 29.5442 91.438 29.741 91.1783 29.8153L90.4691 30.0279C90.3093 30.0752 90.2297 30.1822 90.2303 30.3488L90.2627 30.9987L90.9927 30.996C91.266 30.995 91.4033 31.1578 91.4045 31.4845C91.4057 31.8045 91.2696 31.965 90.9963 31.966L90.2963 31.9686L90.3295 32.8285L91.0295 32.8259C91.3028 32.8249 91.4401 32.9877 91.4413 33.3144C91.4425 33.6344 91.3064 33.7949 91.0331 33.7959L90.3631 33.7984L90.3962 34.6382L95.6161 34.6189ZM104.695 31.4752L101.265 31.4879C101.702 32.5463 102.305 33.4674 103.075 34.2512C103.779 33.4686 104.319 32.5433 104.695 31.4752ZM107.15 30.3061C107.424 30.3051 107.561 30.4979 107.562 30.8846C107.564 31.2713 107.428 31.4651 107.155 31.4661L106.035 31.4703C105.54 32.8854 104.858 34.0813 103.988 35.0579C105.024 35.8607 106.139 36.3999 107.334 36.6755C107.627 36.7411 107.642 36.9577 107.376 37.3253C107.111 37.6996 106.835 37.844 106.548 37.7584C105.293 37.4364 104.201 36.8904 103.272 36.1205C103.131 36.001 102.991 35.9982 102.852 36.1121C101.915 36.8889 100.78 37.4631 99.4481 37.8347C99.1618 37.9291 98.8979 37.7901 98.6565 37.4176C98.4152 37.0519 98.441 36.8284 98.7341 36.7474C100.026 36.4226 101.174 35.8683 102.178 35.0846C101.308 34.1345 100.593 32.9371 100.035 31.4925L98.8746 31.4968C98.6013 31.4978 98.4639 31.305 98.4625 30.9183C98.461 30.5317 98.597 30.3378 98.8703 30.3368L102.68 30.3227L102.266 29.2942C102.166 29.0412 102.325 28.854 102.744 28.7324C103.171 28.6042 103.437 28.6632 103.545 28.9095L103.868 29.5983C104.002 29.8978 103.913 30.0981 103.6 30.1993L103.21 30.3207L107.15 30.3061ZM110.122 30.6851C109.948 30.6857 109.862 30.7727 109.863 30.9461L109.864 31.4461C109.865 31.7194 109.669 31.8568 109.276 31.8582C108.889 31.8597 108.696 31.7237 108.694 31.4504L108.689 30.0404C108.688 29.7271 108.848 29.5698 109.168 29.5686L112.428 29.5565L112.246 29.2472C112.105 29.0144 112.231 28.8373 112.624 28.7158C113.024 28.5943 113.307 28.6499 113.475 28.8827C113.575 28.9823 113.696 29.2052 113.837 29.5513L116.797 29.5403C117.117 29.5392 117.278 29.6952 117.279 30.0086L117.284 31.4186C117.285 31.6919 117.079 31.8293 116.666 31.8309C116.259 31.8324 116.055 31.6964 116.054 31.4231L116.053 30.9231C116.052 30.7498 115.965 30.6634 115.792 30.6641L110.122 30.6851ZM116.954 33.9298C117.227 33.9288 117.364 34.1183 117.366 34.4983C117.367 34.8716 117.231 35.0588 116.958 35.0598L113.638 35.0721L113.644 36.5821C113.645 36.9088 113.599 37.1589 113.506 37.3326C113.414 37.5063 113.247 37.6369 113.008 37.7245C112.668 37.859 112.209 37.9241 111.628 37.9196C111.255 37.9276 110.981 37.7286 110.806 37.3226C110.631 36.9233 110.657 36.7265 110.884 36.7323C111.071 36.7383 111.481 36.7401 112.114 36.7378C112.214 36.7374 112.281 36.7238 112.314 36.697C112.354 36.6702 112.374 36.6235 112.373 36.5568L112.368 35.0768L109.068 35.089C108.795 35.0901 108.657 34.9039 108.656 34.5306C108.655 34.1506 108.79 33.9601 109.064 33.959L112.364 33.9468C112.362 33.5935 112.478 33.3364 112.711 33.1755L113.579 32.5923L110.769 32.6027C110.495 32.6037 110.358 32.4209 110.357 32.0542C110.355 31.6809 110.491 31.4937 110.765 31.4927L114.634 31.4184C114.908 31.4174 115.175 31.5197 115.436 31.7254C115.703 31.9311 115.74 32.1343 115.548 32.335C115.096 32.8167 114.458 33.2957 113.633 33.7721L113.634 33.9421L116.954 33.9298ZM121.712 33.5722C121.86 33.7983 121.831 34.0551 121.625 34.3425C121.426 34.6232 121.27 34.6405 121.155 34.3942L120.773 33.5956L120.787 37.4956C120.788 37.7689 120.609 37.9063 120.249 37.9076C119.889 37.909 119.708 37.773 119.707 37.4996L119.695 34.1696C119.418 35.004 119.176 35.5649 118.971 35.8523C118.852 36.0461 118.705 35.97 118.53 35.624C118.355 35.2713 118.331 34.998 118.457 34.8042C118.603 34.617 118.798 34.213 119.043 33.5921C119.287 32.9645 119.471 32.3471 119.596 31.74L118.896 31.7426C118.622 31.7436 118.485 31.5608 118.484 31.1941C118.482 30.8274 118.618 30.6436 118.892 30.6426L119.682 30.6397L119.675 28.9897C119.674 28.7163 119.854 28.579 120.214 28.5777C120.574 28.5763 120.754 28.7123 120.755 28.9857L120.762 30.6357L121.352 30.6335C121.625 30.6325 121.762 30.8153 121.764 31.182C121.765 31.5486 121.629 31.7325 121.356 31.7335L120.766 31.7357L120.767 32.1757L121.712 33.5722ZM122.987 34.9074C123.261 34.9064 123.504 34.9489 123.718 35.0347C123.938 35.1206 123.996 35.327 123.89 35.6541C123.653 36.5217 123.139 37.1469 122.347 37.5298C122.108 37.6774 121.884 37.6249 121.677 37.3723C121.476 37.1197 121.495 36.9297 121.734 36.8021C122.081 36.6608 122.423 36.3062 122.76 35.7383L122.08 35.7408C121.807 35.7418 121.67 35.609 121.669 35.3423C121.668 35.0757 121.804 34.9418 122.078 34.9408L122.987 34.9074ZM126.445 34.2946C126.644 34.1139 126.888 34.133 127.175 34.3519C127.469 34.5642 127.49 34.7641 127.238 34.9517C126.925 35.1795 126.563 35.4242 126.15 35.6857C126.632 36.1773 127.06 36.4857 127.434 36.611C127.687 36.71 127.698 36.9067 127.466 37.2009C127.234 37.4951 127.001 37.5759 126.767 37.4435C126.293 37.2319 125.794 36.7637 125.272 36.039L125.187 37.4093C125.127 37.5495 124.998 37.6667 124.798 37.7608C124.598 37.8615 124.342 37.9058 124.028 37.8936C123.655 37.9083 123.418 37.7525 123.317 37.4262C123.216 37.1066 123.302 36.9463 123.575 36.9453L123.985 36.9438C124.105 36.9433 124.165 36.8964 124.164 36.8031L124.157 34.8531C124.157 34.6798 124.07 34.5934 123.896 34.5941L122.926 34.5977C122.653 34.5987 122.516 34.4659 122.515 34.1992C122.514 33.9259 122.65 33.7887 122.923 33.7877L124.913 33.7803L124.062 33.4735C123.688 33.3415 123.598 33.1685 123.79 32.9545L122.16 32.9605C121.887 32.9615 121.75 32.8187 121.749 32.532C121.748 32.2387 121.884 32.0915 122.157 32.0905L124.127 32.0832L124.126 31.6932L122.796 31.6981C122.522 31.6991 122.385 31.5663 122.384 31.2997C122.383 31.0263 122.519 30.8892 122.793 30.8881L124.122 30.8832L124.121 30.5132L122.431 30.5195C122.158 30.5205 122.021 30.381 122.02 30.101C122.019 29.821 122.155 29.6805 122.428 29.6795L123.078 29.6771L122.816 29.238C122.682 29.0052 122.762 28.8349 123.054 28.7272C123.347 28.6194 123.564 28.6819 123.705 28.9147L123.967 29.3338C124.061 29.4868 124.021 29.6002 123.848 29.6742L125.458 29.6682C125.324 29.6221 125.344 29.4253 125.516 29.078C125.688 28.7307 125.904 28.5933 126.164 28.6656C126.605 28.7907 126.706 29.0136 126.467 29.3345L126.228 29.6654L127.048 29.6624C127.321 29.6613 127.459 29.8008 127.46 30.0808C127.461 30.3608 127.324 30.5013 127.051 30.5024L125.261 30.509L125.262 30.879L126.812 30.8732C127.086 30.8722 127.223 31.0084 127.224 31.2817C127.225 31.5484 127.089 31.6822 126.815 31.6832L125.265 31.689L125.267 32.079L127.227 32.0717C127.5 32.0707 127.637 32.2169 127.639 32.5102C127.64 32.7969 127.503 32.9407 127.23 32.9417L125.56 32.9479C125.287 32.9489 125.297 33.0122 125.591 33.1378C125.885 33.2634 126.082 33.4526 126.183 33.7056L126.083 33.846C125.878 34.0801 125.655 34.1376 125.414 34.0184L125.264 33.939L125.266 34.439L125.628 35.0577L126.445 34.2946ZM133.522 36.0584C133.556 36.4116 133.5 36.6052 133.354 36.639C132.861 36.7475 131.575 37.0223 129.497 37.4633C129.091 37.5582 128.83 37.4058 128.715 37.0062C128.607 36.6066 128.686 36.3863 128.953 36.3453L130.442 36.0998L130.433 33.6898L129.333 33.6939C129.06 33.6949 128.922 33.5054 128.921 33.1254C128.919 32.7388 129.055 32.5449 129.329 32.5439L132.799 32.5311C133.072 32.53 133.209 32.7229 133.211 33.1095C133.212 33.4895 133.076 33.68 132.803 33.6811L131.613 33.6855L131.621 35.8854L133.08 35.6C133.347 35.5524 133.494 35.7052 133.522 36.0584ZM137.06 30.2152C137.333 30.2142 137.471 30.4071 137.472 30.7937C137.474 31.1804 137.338 31.3742 137.064 31.3752L134.764 31.3838C134.877 32.8834 135.078 34.1293 135.368 35.1216C135.659 36.1138 135.98 36.6093 136.334 36.608C136.54 36.6072 136.649 36.2468 136.66 35.5268C136.691 35.0467 136.881 34.9226 137.228 35.1547C137.576 35.3867 137.727 35.6895 137.682 36.063C137.644 36.6098 137.512 37.0436 137.287 37.3645C137.068 37.6919 136.732 37.8565 136.278 37.8582C135.832 37.8599 135.444 37.6913 135.117 37.3525C134.795 37.0204 134.527 36.548 134.311 35.9355C133.9 34.737 133.631 33.2213 133.504 31.3884L128.944 31.4053C128.671 31.4064 128.534 31.2135 128.532 30.8269C128.531 30.4402 128.667 30.2464 128.94 30.2453L133.44 30.2287L133.406 28.9888C133.405 28.7155 133.617 28.578 134.044 28.5764C134.471 28.5748 134.685 28.7107 134.686 28.984L134.7 30.224L136.28 30.2181L135.407 29.4414C135.207 29.2621 135.236 29.0653 135.495 28.851C135.761 28.6301 135.997 28.6058 136.205 28.7784L136.827 29.2961C137.081 29.5152 137.082 29.7352 136.829 29.9561L136.53 30.2172L137.06 30.2152Z" fill="#FE585B"/>
<path d="M74.0372 48.5819L68.5492 48.6023C69.2488 50.2957 70.2143 51.7694 71.4456 53.0236C72.5717 51.7714 73.4355 50.2908 74.0372 48.5819ZM77.9663 46.7113C78.4036 46.7097 78.6234 47.0182 78.6257 47.6369C78.628 48.2556 78.4105 48.5657 77.9732 48.5673L76.1812 48.574C75.3896 50.8383 74.298 52.7516 72.9064 54.3141C74.5645 55.5987 76.3491 56.4614 78.2601 56.9023C78.7298 57.0073 78.7524 57.3538 78.3279 57.9421C77.9035 58.541 77.4616 58.772 77.0025 58.635C74.9952 58.1198 73.248 57.2462 71.7607 56.0144C71.536 55.8232 71.312 55.8187 71.0887 56.0009C69.5893 57.2438 67.774 58.1625 65.6428 58.7571C65.1847 58.9081 64.7626 58.6857 64.3764 58.0898C63.9902 57.5046 64.0315 57.1471 64.5004 57.0173C66.5678 56.4977 68.4045 55.6108 70.0106 54.3569C68.6183 52.8367 67.4751 50.9209 66.5812 48.6096L64.7253 48.6164C64.2879 48.6181 64.0681 48.3095 64.0658 47.6909C64.0635 47.0722 64.281 46.7621 64.7184 46.7604L70.8143 46.7379L70.1522 45.0923C69.9907 44.6876 70.2456 44.3879 70.9169 44.1935C71.5988 43.9883 72.0258 44.0827 72.198 44.4767L72.714 45.5788C72.9292 46.058 72.7863 46.3785 72.2856 46.5404L71.6623 46.7347L77.9663 46.7113ZM82.7206 47.3177C82.4432 47.3188 82.3051 47.4579 82.3061 47.7353L82.3091 48.5353C82.3107 48.9726 81.9968 49.1924 81.3675 49.1948C80.7488 49.197 80.4387 48.9795 80.4371 48.5422L80.4287 46.2862C80.4269 45.7849 80.6819 45.5333 81.1939 45.5314L86.4099 45.512L86.1201 45.0171C85.8947 44.6446 86.0963 44.3612 86.7249 44.1669C87.3642 43.9725 87.8179 44.0615 88.0859 44.4338C88.2465 44.5932 88.4398 44.9498 88.6659 45.5037L93.4018 45.4861C93.9138 45.4842 94.1708 45.7339 94.1726 46.2353L94.181 48.4913C94.1826 48.9286 93.8528 49.1485 93.1914 49.1509C92.5408 49.1533 92.2146 48.9359 92.213 48.4985L92.21 47.6986C92.209 47.4212 92.0698 47.2831 91.7925 47.2841L82.7206 47.3177ZM93.6519 52.5092C94.0892 52.5076 94.309 52.8108 94.3113 53.4188C94.3135 54.0161 94.0959 54.3156 93.6586 54.3172L88.3466 54.3369L88.3556 56.7529C88.3575 57.2756 88.2843 57.6758 88.136 57.9537C87.9877 58.2316 87.7218 58.4406 87.3383 58.5807C86.7951 58.796 86.0595 58.9001 85.1315 58.8929C84.5342 58.9057 84.0957 58.5874 83.8159 57.9377C83.5362 57.2988 83.5777 56.9839 83.9404 56.9933C84.2391 57.0028 84.8952 57.0057 85.9085 57.002C86.0685 57.0014 86.1751 56.9797 86.2282 56.9368C86.2921 56.8939 86.3238 56.8191 86.3234 56.7124L86.3146 54.3445L81.0347 54.364C80.5973 54.3656 80.3776 54.0678 80.3754 53.4705C80.3731 52.8625 80.5906 52.5577 81.028 52.556L86.3079 52.5365C86.3058 51.9711 86.491 51.5598 86.8634 51.3024L88.2519 50.3692L83.7559 50.3859C83.3186 50.3875 83.0989 50.095 83.0967 49.5083C83.0945 48.911 83.312 48.6115 83.7494 48.6099L89.941 48.491C90.3783 48.4893 90.8056 48.6531 91.2228 48.9822C91.6507 49.3113 91.7106 49.6364 91.4024 49.9576C90.6799 50.7282 89.6588 51.4947 88.3389 52.2569L88.3399 52.5289L93.6519 52.5092ZM101.266 51.937C101.502 52.2988 101.455 52.7097 101.126 53.1695C100.808 53.6187 100.557 53.6463 100.375 53.2523L99.7619 51.9746L99.7851 58.2145C99.7867 58.6519 99.4995 58.8716 98.9235 58.8737C98.3475 58.8759 98.0587 58.6583 98.0571 58.221L98.0373 52.893C97.5943 54.228 97.2083 55.1254 96.8793 55.5853C96.6885 55.8953 96.4533 55.7735 96.1739 55.2199C95.8945 54.6556 95.8556 54.2184 96.0571 53.9083C96.2906 53.6088 96.6029 52.9623 96.9939 51.9689C97.3848 50.9647 97.6799 49.977 97.8789 49.0056L96.7589 49.0097C96.3216 49.0113 96.1018 48.7188 96.0997 48.1321C96.0975 47.5455 96.3151 47.2513 96.7524 47.2497L98.0164 47.245L98.0066 44.605C98.005 44.1677 98.2922 43.948 98.8682 43.9458C99.4442 43.9437 99.733 44.1613 99.7346 44.5986L99.7444 47.2386L100.688 47.2351C101.126 47.2335 101.345 47.526 101.348 48.1127C101.35 48.6994 101.132 48.9935 100.695 48.9951L99.7509 48.9986L99.7535 49.7026L101.266 51.937ZM103.306 54.0735C103.743 54.0719 104.133 54.1397 104.475 54.2771C104.827 54.4145 104.919 54.7448 104.75 55.2681C104.371 56.6562 103.548 57.6566 102.281 58.2693C101.898 58.5054 101.541 58.4214 101.208 58.0173C100.887 57.6131 100.918 57.309 101.301 57.1049C101.855 56.8789 102.402 56.3115 102.943 55.4028L101.855 55.4069C101.417 55.4085 101.198 55.196 101.196 54.7693C101.195 54.3426 101.413 54.1285 101.85 54.1269L103.306 54.0735ZM108.838 53.093C109.157 52.8038 109.547 52.8343 110.006 53.1846C110.477 53.5242 110.51 53.8441 110.106 54.1443C109.606 54.5088 109.026 54.9003 108.366 55.3187C109.137 56.1052 109.822 56.5987 110.42 56.7991C110.826 56.9576 110.843 57.2722 110.471 57.7429C110.1 58.2137 109.727 58.343 109.353 58.1311C108.594 57.7926 107.797 57.0435 106.96 55.8839L106.825 58.0765C106.729 58.3008 106.522 58.4882 106.203 58.6388C105.883 58.8 105.473 58.8708 104.971 58.8513C104.374 58.8749 103.995 58.6256 103.833 58.1035C103.671 57.5921 103.809 57.3356 104.246 57.334L104.902 57.3316C105.094 57.3309 105.19 57.2558 105.189 57.1065L105.177 53.9865C105.176 53.7092 105.037 53.571 104.76 53.5721L103.208 53.5778C102.771 53.5795 102.551 53.3669 102.55 52.9403C102.548 52.5029 102.766 52.2835 103.203 52.2818L106.387 52.27L105.025 51.7791C104.427 51.568 104.282 51.2912 104.59 50.9487L101.982 50.9584C101.545 50.96 101.325 50.7315 101.324 50.2728C101.322 49.8035 101.54 49.568 101.977 49.5664L105.129 49.5547L105.127 48.9307L102.999 48.9386C102.561 48.9402 102.342 48.7277 102.34 48.301C102.339 47.8637 102.557 47.6442 102.994 47.6426L105.122 47.6347L105.12 47.0427L102.416 47.0527C101.978 47.0543 101.759 46.8312 101.757 46.3832C101.756 45.9352 101.973 45.7104 102.411 45.7087L103.451 45.7049L103.032 45.0024C102.817 44.6299 102.944 44.3574 103.413 44.185C103.882 44.0126 104.229 44.1126 104.454 44.4851L104.873 45.1556C105.023 45.4004 104.96 45.5819 104.683 45.7003L107.259 45.6908C107.045 45.6169 107.076 45.3021 107.351 44.7464C107.626 44.1907 107.972 43.9708 108.389 44.0866C109.094 44.2866 109.255 44.6434 108.873 45.1568L108.491 45.6862L109.803 45.6813C110.24 45.6797 110.46 45.9029 110.461 46.3509C110.463 46.7989 110.245 47.0237 109.808 47.0253L106.944 47.0359L106.946 47.6279L109.426 47.6187C109.863 47.6171 110.083 47.835 110.084 48.2723C110.086 48.699 109.868 48.9131 109.431 48.9147L106.951 48.9239L106.953 49.5479L110.089 49.5363C110.526 49.5347 110.746 49.7685 110.748 50.2379C110.749 50.6965 110.531 50.9267 110.094 50.9283L107.422 50.9382C106.985 50.9398 107.001 51.0411 107.471 51.242C107.941 51.4429 108.257 51.7458 108.419 52.1505L108.259 52.3751C107.93 52.7497 107.573 52.8416 107.188 52.6511L106.948 52.524L106.951 53.324L107.531 54.3138L108.838 53.093ZM120.161 55.915C120.216 56.4801 120.127 56.7898 119.892 56.844C119.103 57.0176 117.046 57.4572 113.721 58.1629C113.071 58.3146 112.654 58.0708 112.47 57.4315C112.297 56.7922 112.424 56.4397 112.85 56.3741L115.233 55.9813L115.219 52.1253L113.459 52.1318C113.021 52.1334 112.801 51.8303 112.799 51.2223C112.797 50.6036 113.014 50.2935 113.452 50.2918L119.004 50.2713C119.441 50.2696 119.661 50.5782 119.663 51.1968C119.665 51.8048 119.448 52.1096 119.011 52.1112L117.107 52.1183L117.12 55.6383L119.454 55.1816C119.88 55.1054 120.116 55.3498 120.161 55.915ZM125.822 46.566C126.259 46.5643 126.479 46.8729 126.482 47.4915C126.484 48.1102 126.266 48.4203 125.829 48.4219L122.149 48.4356C122.329 50.8349 122.651 52.8284 123.115 54.416C123.58 56.0037 124.095 56.7964 124.66 56.7943C124.991 56.7931 125.165 56.2165 125.182 55.0644C125.232 54.2962 125.535 54.0977 126.091 54.469C126.647 54.8403 126.889 55.3247 126.817 55.9223C126.756 56.7972 126.545 57.4914 126.184 58.0047C125.834 58.5287 125.297 58.792 124.571 58.7947C123.857 58.7973 123.237 58.5276 122.712 57.9856C122.198 57.4541 121.769 56.6984 121.424 55.7183C120.766 53.8008 120.336 51.3757 120.133 48.4431L112.837 48.4701C112.4 48.4717 112.18 48.1632 112.178 47.5445C112.175 46.9259 112.393 46.6157 112.83 46.6141L120.03 46.5874L119.975 44.6036C119.973 44.1663 120.314 43.9464 120.996 43.9438C121.679 43.9413 122.021 44.1587 122.023 44.596L122.046 46.58L124.574 46.5706L123.177 45.3278C122.856 45.0409 122.903 44.7261 123.318 44.3832C123.743 44.0296 124.122 43.9909 124.454 44.267L125.449 45.0953C125.855 45.4458 125.857 45.7978 125.453 46.1513L124.974 46.5691L125.822 46.566ZM128.776 53.6431C128.339 53.6447 128.119 53.3682 128.117 52.8135C128.115 52.2482 128.333 51.9647 128.77 51.9631L131.826 51.9517C132.263 51.9501 132.483 52.232 132.485 52.7973C132.487 53.352 132.27 53.6301 131.832 53.6317L128.776 53.6431ZM135.24 57.3631C134.803 57.3647 134.583 57.0509 134.581 56.4216C134.578 55.7816 134.796 55.4608 135.233 55.4591L137.121 55.4521L137.095 48.3802C137.094 48.1029 136.96 47.9647 136.693 47.9657L135.605 47.9697C135.168 47.9713 134.948 47.7321 134.947 47.2521C134.945 46.7615 135.178 46.4619 135.647 46.3535C136.287 46.2445 136.968 45.9593 137.692 45.498L138.668 45.4943C139.18 45.4924 139.437 45.7475 139.439 46.2595L139.473 55.4434L141.041 55.4376C141.478 55.436 141.698 55.7552 141.7 56.3952C141.703 57.0245 141.485 57.34 141.048 57.3416L135.24 57.3631Z" fill="black" fill-opacity="0.85"/>
</g>
<defs>
<radialGradient id="paint0_radial_2308_6576" cx="0" cy="0" r="1" gradientUnits="userSpaceOnUse" gradientTransform="translate(0.560609 46.8353) rotate(65.4889) scale(3.32531 8.21233)">
<stop offset="0.33" stop-opacity="0"/>
<stop offset="0.655" stop-opacity="0.6"/>
<stop offset="1"/>
</radialGradient>
<radialGradient id="paint1_radial_2308_6576" cx="0" cy="0" r="1" gradientUnits="userSpaceOnUse" gradientTransform="translate(355.3 45.8572) rotate(114.511) scale(3.32531 8.21233)">
<stop offset="0.33" stop-opacity="0"/>
<stop offset="0.655" stop-opacity="0.6"/>
<stop offset="1"/>
</radialGradient>
<clipPath id="clip0_2308_6576">
<rect width="200" height="90" fill="white"/>
</clipPath>
</defs>
</svg>
