<svg width="200" height="90" viewBox="0 0 200 90" fill="none" xmlns="http://www.w3.org/2000/svg">
<g clip-path="url(#clip0_2309_7214)">
<rect width="200" height="90" fill="#FEB79D"/>
<path fill-rule="evenodd" clip-rule="evenodd" d="M-6.18027 85.5257C-5.5206 81.3514 -9.94765 77.2571 -7.65473 73.2393C-4.94813 68.4966 -1.65241 61.9915 7.77154 61.0783C17.9972 60.0873 23.5998 68.8258 33.9785 69.2048C45.8176 69.6371 56.5881 60.196 66.8872 63.2371C76.2425 65.9996 70.121 74.0119 68.9752 79.5387C68.1676 83.4341 61.5364 86.4306 61.2669 90.3457C60.8502 96.3973 75.7689 103.853 67.0229 107.895C58.3557 111.9 45.7383 103.802 34.2527 102.83C27.3162 102.243 20.5655 103.925 13.6182 103.373C4.65786 102.66 -7.2514 103.227 -11.7526 99.1698C-16.3208 95.0519 -6.92748 90.2539 -6.18027 85.5257Z" fill="#FE585B"/>
<path fill-rule="evenodd" clip-rule="evenodd" d="M28.4743 10.5302C32.6486 10.8717 36.7429 8.58004 40.7607 9.76696C45.5034 11.168 52.0085 12.874 52.9217 17.7523C53.9127 23.0456 45.1742 25.9458 44.7952 31.3183C44.3629 37.4467 53.804 43.0221 50.7629 48.3534C48.0004 53.1961 39.9881 50.0274 34.4613 49.4342C30.5659 49.0162 27.5694 45.5836 23.6543 45.444C17.6027 45.2284 10.1469 52.9509 6.10508 48.4236C2.09968 43.9371 10.1975 37.4057 11.1701 31.4602C11.7575 27.8695 10.0747 24.3751 10.6274 20.7788C11.3402 16.1405 10.7727 9.97575 14.8302 7.64571C18.9481 5.281 23.7461 10.1434 28.4743 10.5302Z" fill="#FC7443"/>
<path fill-rule="evenodd" clip-rule="evenodd" d="M173.474 4.53021C177.649 4.87169 181.743 2.58004 185.761 3.76696C190.503 5.16803 197.008 6.87405 197.922 11.7523C198.913 17.0456 190.174 19.9458 189.795 25.3183C189.363 31.4467 198.804 37.0221 195.763 42.3534C193 47.1961 184.988 44.0274 179.461 43.4342C175.566 43.0162 172.569 39.5836 168.654 39.444C162.603 39.2284 155.147 46.9509 151.105 42.4236C147.1 37.9371 155.198 31.4057 156.17 25.4602C156.757 21.8695 155.075 18.3751 155.627 14.7788C156.34 10.1405 155.773 3.97575 159.83 1.64571C163.948 -0.719004 168.746 4.14342 173.474 4.53021Z" fill="#FF8787"/>
<path fill-rule="evenodd" clip-rule="evenodd" d="M117.063 7.20494C131.49 7.9797 144.155 11.9054 154.996 17.5775C166.733 23.7188 176.896 30.8598 179.688 39.9711C183.097 51.0949 184.354 63.7453 171.749 72.2549C158.691 81.0707 136.857 81.4742 117.063 82.2497C95.2362 83.1048 71.8992 84.7511 54.6033 76.8446C35.6156 68.1646 20.8565 53.9771 24.5773 39.9711C28.0889 26.7526 52.1053 19.9805 71.5388 13.0955C85.3864 8.18958 100.98 6.34119 117.063 7.20494Z" fill="#FFAB7A"/>
<ellipse cx="177.989" cy="70.7269" rx="16.7876" ry="14.0511" fill="#F55A57"/>
<ellipse cx="173.713" cy="65.6395" rx="1.21537" ry="2.15126" fill="black"/>
<ellipse cx="182.288" cy="65.6395" rx="1.21537" ry="2.15126" fill="black"/>
<path d="M173.043 72.6426C173.079 74.5703 175.312 76.0917 178.031 76.0408C180.749 75.99 182.924 74.386 182.888 72.4584C182.852 70.5307 180.67 71.7806 177.952 71.8314C175.233 71.8823 173.007 70.7149 173.043 72.6426Z" fill="black"/>
<path d="M170.798 50.9035C173.679 48.6452 180.102 51.1915 180.102 55.0219C180.103 59.542 168.088 61.6232 165.803 61.9782C165.554 62.0169 165.305 62.044 165.056 62.039C163.427 62.0062 157.617 61.2375 170.798 50.9035Z" fill="#6E5232"/>
<path d="M170.798 50.9035C173.679 48.6452 180.102 51.1915 180.102 55.0219C180.103 59.542 168.088 61.6232 165.803 61.9782C165.554 62.0169 165.305 62.044 165.056 62.039C163.427 62.0062 157.617 61.2375 170.798 50.9035Z" fill="url(#paint0_radial_2309_7214)" fill-opacity="0.15"/>
<path d="M185.204 50.7629C182.323 48.5045 175.9 51.0509 175.9 54.8813C175.899 59.4014 187.914 61.4825 190.199 61.8375C190.448 61.8763 190.697 61.9034 190.946 61.8984C192.575 61.8656 198.385 61.0968 185.204 50.7629Z" fill="#6E5232"/>
<path d="M185.204 50.7629C182.323 48.5045 175.9 51.0509 175.9 54.8813C175.899 59.4014 187.914 61.4825 190.199 61.8375C190.448 61.8763 190.697 61.9034 190.946 61.8984C192.575 61.8656 198.385 61.0968 185.204 50.7629Z" fill="url(#paint1_radial_2309_7214)" fill-opacity="0.15"/>
<path d="M83.041 30.7447C83.2143 30.7441 83.3007 30.6571 83.3 30.4838L83.2995 30.3238C83.2988 30.1504 83.2118 30.0641 83.0385 30.0647L82.8985 30.0652C82.7252 30.0659 82.6388 30.1529 82.6395 30.3262L82.64 30.4862C82.6407 30.6595 82.7277 30.7459 82.901 30.7452L83.041 30.7447ZM83.7855 29.262C84.1055 29.2608 84.2661 29.4202 84.2673 29.7402L84.2721 31.0502C84.2733 31.3702 84.1139 31.5308 83.7939 31.5319L82.2139 31.5378C81.8939 31.539 81.7334 31.3796 81.7322 31.0596L81.7273 29.7496C81.7261 29.4296 81.8855 29.269 82.2055 29.2678L83.7855 29.262ZM80.041 30.7558C80.2744 30.755 80.3907 30.6679 80.3901 30.4945L80.3895 30.3345C80.3888 30.1612 80.2718 30.075 80.0385 30.0758C79.8652 30.0765 79.7788 30.1635 79.7795 30.3368L79.7801 30.4968C79.7807 30.6701 79.8677 30.7565 80.041 30.7558ZM80.8755 29.2727C81.1955 29.2716 81.3561 29.431 81.3573 29.751L81.3622 31.0609C81.3634 31.3809 81.2039 31.5415 80.884 31.5427L79.354 31.5484C79.034 31.5496 78.8734 31.3902 78.8722 31.0702L78.8673 29.7602C78.8661 29.4402 79.0256 29.2796 79.3455 29.2784L80.8755 29.2727ZM76.6312 33.4985C76.6251 33.6719 76.7088 33.7582 76.8821 33.7576L78.0521 33.7532C78.3255 33.7522 78.4562 33.9551 78.4444 34.3618C78.4326 34.7685 78.4108 35.1852 78.379 35.612C78.3364 36.6989 78.1956 37.3861 77.9567 37.6736C77.7841 37.8943 77.558 38.0251 77.2781 38.0661C77.0049 38.1071 76.765 38.1214 76.5583 38.1088C76.2316 38.11 76.0109 37.9175 75.8961 37.5313C75.7813 37.145 75.8607 36.9647 76.1341 36.9904C76.2008 36.9968 76.4008 36.9994 76.7341 36.9981C76.8675 36.9976 76.9806 36.9539 77.0737 36.8669C77.2064 36.6997 77.2977 36.146 77.3475 35.2059C77.3664 34.9191 77.2892 34.7761 77.1159 34.7767L76.0659 34.7806C75.7326 34.7818 75.5754 34.6391 75.5943 34.3523C75.6586 33.7054 75.6858 32.9587 75.676 32.112C75.6812 31.7053 75.8438 31.5014 76.1638 31.5002L77.0938 31.4968C77.2671 31.4961 77.3534 31.4091 77.3528 31.2358L77.3506 30.6458C77.35 30.4725 77.263 30.3861 77.0896 30.3868L75.9396 30.391C75.6663 30.3921 75.529 30.2159 75.5277 29.8626C75.5264 29.5092 75.6624 29.3321 75.9357 29.331L77.9557 29.3236C78.2757 29.3224 78.4363 29.4818 78.4375 29.8018L78.4459 32.0718C78.4471 32.3918 78.2877 32.5524 77.9677 32.5535L76.9177 32.5574C76.7444 32.5581 76.658 32.6451 76.6587 32.8184L76.6312 33.4985ZM80.0843 34.3357C80.0849 34.509 80.1719 34.5954 80.3453 34.5947L81.0353 34.5922L81.0334 34.0822L80.0834 34.0857L80.0843 34.3357ZM80.3385 32.7748C80.1652 32.7754 80.0788 32.8624 80.0795 33.0357L80.0804 33.2857L81.0304 33.2822L81.0285 32.7722L80.3385 32.7748ZM83.1004 33.2745L83.0995 33.0245C83.0988 32.8512 83.0118 32.7648 82.8385 32.7655L82.1085 32.7682L82.1104 33.2782L83.1004 33.2745ZM82.8452 34.5855C83.0186 34.5848 83.1049 34.4978 83.1043 34.3245L83.1034 34.0745L82.1134 34.0782L82.1152 34.5882L82.8452 34.5855ZM84.2702 35.9102C84.5435 35.9092 84.6808 36.072 84.682 36.3987C84.6832 36.7253 84.5471 36.8892 84.2738 36.8902L82.1238 36.8982L82.1272 37.8182C82.1282 38.0915 81.9487 38.2288 81.5887 38.2302C81.2287 38.2315 81.0482 38.0955 81.0472 37.8222L81.0438 36.9022L79.0138 36.9097C78.7405 36.9107 78.6032 36.7479 78.602 36.4212C78.6008 36.0946 78.7369 35.9307 79.0102 35.9297L81.0402 35.9222L81.0385 35.4622L79.5385 35.4677C79.2185 35.4689 79.0579 35.3129 79.0568 34.9995L79.0471 32.3995C79.0459 32.0795 79.2053 31.9189 79.5253 31.9178L83.6853 31.9023C84.0053 31.9012 84.1659 32.0572 84.167 32.3706L84.1767 34.9705C84.1779 35.2905 84.0185 35.4511 83.6985 35.4523L82.1185 35.4582L82.1202 35.9182L84.2702 35.9102ZM92.2733 36.7305L94.2232 36.7233C94.4966 36.7223 94.6339 36.9118 94.6354 37.2918C94.6367 37.6651 94.5008 37.8523 94.2274 37.8533L88.8175 37.8734C88.5508 37.8743 88.4168 37.6882 88.4154 37.3148C88.414 36.9348 88.5466 36.7444 88.8133 36.7434L91.0833 36.735L91.0759 34.735L89.5559 34.7406C89.2825 34.7416 89.1452 34.5588 89.1438 34.1921C89.1424 33.8188 89.2784 33.6316 89.5518 33.6306L91.0717 33.625L91.0657 31.985L89.9657 31.9891C89.8209 32.5029 89.6922 32.8468 89.5795 33.0205C89.467 33.2543 89.2338 33.2818 88.8798 33.1031C88.5258 32.9244 88.4083 32.7148 88.5275 32.4744L88.6466 32.254L88.5269 32.3144C88.2274 32.4488 88.027 32.3596 87.9259 32.0466L87.6933 31.3675L87.7171 37.7874C87.7182 38.0608 87.5187 38.1982 87.1187 38.1997C86.7253 38.2011 86.5282 38.0652 86.5272 37.7918L86.5022 31.0519C86.4262 32.1322 86.3091 32.9093 86.1508 33.3832C86.0916 33.5968 85.9151 33.6508 85.6214 33.5452C85.3277 33.4396 85.2138 33.2834 85.2797 33.0764C85.4447 32.6425 85.5494 32.0954 85.5936 31.4353C85.6386 31.0018 85.8246 30.8077 86.1514 30.8532L86.5016 30.9019L86.4956 29.2719C86.4946 28.9986 86.6907 28.8612 87.084 28.8597C87.484 28.8582 87.6846 28.9942 87.6856 29.2675L87.6911 30.7475L87.8408 30.6869C88.127 30.5659 88.3407 30.6517 88.4818 30.9446C88.5623 31.0776 88.6766 31.3505 88.8248 31.7633C89.0688 31.0424 89.223 30.3785 89.2874 29.7716C89.3263 29.4714 89.5392 29.3473 89.9261 29.3992C90.3129 29.4511 90.4835 29.6105 90.4378 29.8773L90.2615 30.868L91.0615 30.865L91.0558 29.315C91.0548 29.0417 91.2509 28.9043 91.6442 28.9028C92.0442 28.9013 92.2447 29.0373 92.2458 29.3106L92.2515 30.8606L93.8815 30.8545C94.1548 30.8535 94.2922 31.0397 94.2936 31.413C94.2949 31.7863 94.159 31.9735 93.8856 31.9745L92.2557 31.9806L92.2617 33.6206L93.6817 33.6153C93.9551 33.6143 94.0924 33.8004 94.0938 34.1738C94.0952 34.5404 93.9592 34.7243 93.6858 34.7253L92.2658 34.7306L92.2733 36.7305ZM97.7991 35.5901C97.6324 35.5907 97.5494 35.6776 97.55 35.851L97.5539 36.901L98.4539 36.8976L98.4491 35.5876L97.7991 35.5901ZM100.449 35.5802L99.5391 35.5836L99.5439 36.8936L100.454 36.8902L100.449 35.5802ZM102.46 35.8328C102.459 35.6594 102.376 35.5731 102.209 35.5737L101.539 35.5762L101.544 36.8862L102.464 36.8828L102.46 35.8328ZM103.136 34.6503C103.456 34.6491 103.616 34.8085 103.617 35.1285L103.624 36.8785L104.114 36.8767C104.387 36.8756 104.525 37.0551 104.526 37.4151C104.527 37.7818 104.391 37.9656 104.118 37.9666L95.918 37.997C95.6446 37.9981 95.5073 37.8152 95.5059 37.4486C95.5046 37.0886 95.6406 36.9081 95.9139 36.9071L96.4439 36.9051L96.4374 35.1551C96.4363 34.8351 96.5957 34.6745 96.9157 34.6733L103.136 34.6503ZM101.601 33.4359C101.774 33.4353 101.861 33.3483 101.86 33.175C101.859 32.975 101.772 32.8753 101.599 32.876L98.3791 32.8879C98.2057 32.8885 98.1194 32.9755 98.12 33.1488C98.1208 33.3488 98.2078 33.4485 98.3811 33.4479L101.601 33.4359ZM97.068 32.5927C97.0668 32.2727 97.2228 32.1122 97.5362 32.111L102.496 32.0926C102.816 32.0914 102.977 32.2508 102.978 32.5708L102.982 33.7208C102.983 34.0408 102.827 34.2014 102.514 34.2026L97.554 34.221C97.234 34.2221 97.0734 34.0627 97.0722 33.7427L97.068 32.5927ZM98.9716 30.8857L101.112 30.8777C100.717 30.6392 100.343 30.3839 99.9888 30.1119C99.6498 30.3998 99.3108 30.6578 98.9716 30.8857ZM99.6345 28.9532C99.8005 28.7726 100.054 28.765 100.394 28.9304C100.742 29.0891 100.836 29.2588 100.676 29.4393C101.171 29.7708 101.802 30.1052 102.57 30.4423C103.345 30.7795 103.959 31.0105 104.413 31.1355C104.666 31.2012 104.654 31.408 104.375 31.7557C104.103 32.0967 103.837 32.221 103.576 32.1286C103.149 31.9835 102.605 31.7255 101.943 31.3547C101.944 31.5813 101.831 31.6951 101.605 31.6959L98.3547 31.708C98.168 31.7087 98.0743 31.6157 98.0736 31.429C97.4882 31.7645 96.9359 32.0299 96.4166 32.2252C96.137 32.3329 95.8733 32.2305 95.6254 31.9181C95.3776 31.599 95.3835 31.3956 95.6432 31.308C96.3423 31.0788 97.1077 30.7192 97.9392 30.2295C98.7707 29.7397 99.3358 29.3143 99.6345 28.9532ZM113.401 30.5622C113.402 30.8355 113.225 30.9728 112.872 30.9742C112.519 30.9755 112.342 30.8395 112.341 30.5661L112.34 30.4261L112.05 30.4272C111.777 30.4282 111.639 30.2687 111.638 29.9487C111.637 29.6287 111.773 29.4682 112.046 29.4672L112.336 29.4661L112.335 29.1861C112.334 28.9128 112.511 28.7755 112.864 28.7742C113.217 28.7729 113.394 28.9089 113.395 29.1822L113.396 29.4622L114.156 29.4594C114.43 29.4584 114.567 29.6179 114.568 29.9379C114.569 30.2579 114.433 30.4184 114.16 30.4194L113.4 30.4222L113.401 30.5622ZM110.172 30.9842C109.825 30.9854 109.652 30.8494 109.651 30.5761L109.65 30.4461L109.06 30.4483C108.787 30.4493 108.649 30.2898 108.648 29.9698C108.647 29.6498 108.783 29.4893 109.057 29.4883L109.647 29.4861L109.645 29.1961C109.644 28.9228 109.817 28.7855 110.164 28.7842C110.517 28.7829 110.694 28.9189 110.695 29.1922L110.697 29.4822L110.997 29.4811C111.27 29.4801 111.407 29.6396 111.408 29.9596C111.409 30.2796 111.273 30.4401 111 30.4411L110.7 30.4422L110.701 30.5722C110.702 30.8455 110.525 30.9829 110.172 30.9842ZM108.772 33.6494C108.873 33.809 108.803 34.0259 108.564 34.3001C108.325 34.5677 108.155 34.575 108.054 34.322L107.711 33.4833L107.727 37.7033C107.728 37.9766 107.548 38.1139 107.188 38.1153C106.828 38.1166 106.648 37.9806 106.647 37.7073L106.634 34.3073C106.371 35.1483 106.153 35.7024 105.981 35.9697C105.875 36.1568 105.727 36.0473 105.539 35.6414C105.351 35.2354 105.32 34.9355 105.446 34.7417C105.579 34.5745 105.764 34.1872 106.002 33.5796C106.239 32.9654 106.43 32.3547 106.575 31.7475L105.895 31.75C105.622 31.751 105.484 31.5682 105.483 31.2015C105.481 30.8282 105.617 30.641 105.891 30.64L106.621 30.6373L106.615 29.1873C106.614 28.914 106.794 28.7767 107.154 28.7753C107.514 28.774 107.694 28.91 107.695 29.1833L107.701 30.6333L108.311 30.6311C108.584 30.63 108.721 30.8162 108.723 31.1895C108.724 31.5562 108.588 31.74 108.315 31.7411L107.705 31.7433L107.706 31.9233C107.84 32.1161 108.051 32.452 108.339 32.931C108.634 33.4032 108.779 33.6427 108.772 33.6494ZM110.17 33.2042L110.171 33.3842C110.172 33.5575 110.259 33.6439 110.432 33.6432L112.652 33.635C112.825 33.6343 112.912 33.5474 112.911 33.374L112.91 33.194L110.17 33.2042ZM110.426 32.0032C110.253 32.0039 110.166 32.0909 110.167 32.2642L110.167 32.4342L112.907 32.424L112.907 32.254C112.906 32.0807 112.819 31.9944 112.646 31.995L110.426 32.0032ZM114.107 35.0296C114.38 35.0286 114.518 35.1914 114.519 35.5181C114.52 35.8447 114.384 36.0086 114.111 36.0096L112.431 36.0158C113.593 36.5715 114.304 36.9356 114.565 37.1079C114.712 37.1874 114.659 37.3642 114.407 37.6385C114.161 37.9194 113.958 38.0068 113.798 37.9008C113.464 37.6753 112.959 37.3939 112.285 37.0564C111.784 36.7916 111.669 36.5153 111.942 36.2276L112.151 36.0169L111.831 36.018C111.633 36.5321 111.301 36.96 110.836 37.3017C110.377 37.6434 109.874 37.8753 109.328 37.9973C109.015 38.0852 108.758 37.9695 108.557 37.6502C108.356 37.3309 108.428 37.1307 108.775 37.0494C109.567 36.8998 110.153 36.5576 110.531 36.0229L108.981 36.0286C108.707 36.0296 108.57 35.8668 108.569 35.5401C108.568 35.2135 108.704 35.0496 108.977 35.0486L110.907 35.0415L110.985 34.4712L109.555 34.4765C109.235 34.4777 109.074 34.3183 109.073 33.9983L109.065 31.6683C109.063 31.3483 109.223 31.1877 109.543 31.1865L113.573 31.1716C113.893 31.1704 114.053 31.3298 114.055 31.6498L114.063 33.9798C114.064 34.2998 113.905 34.4603 113.585 34.4615L112.155 34.4668L112.087 35.0371L114.107 35.0296ZM123.474 28.8348C123.854 28.8334 124.045 28.9694 124.046 29.2427L124.06 33.1027C124.061 33.3894 124.029 33.6095 123.962 33.7631C123.896 33.91 123.77 34.0238 123.584 34.1045C123.298 34.2322 122.954 34.2935 122.554 34.2883C122.194 34.2963 121.954 34.1272 121.833 33.781C121.718 33.428 121.874 33.2575 122.301 33.2692C122.634 33.288 122.831 33.2706 122.89 33.217C122.917 33.1903 122.93 33.1469 122.93 33.0869L122.916 29.2469C122.915 28.9736 123.101 28.8362 123.474 28.8348ZM121.636 29.3017C122.003 29.3003 122.186 29.4363 122.187 29.7096L122.197 32.2696C122.198 32.5429 122.015 32.6803 121.648 32.6816C121.288 32.683 121.108 32.547 121.107 32.2736L121.097 29.7137C121.096 29.4403 121.276 29.303 121.636 29.3017ZM117.793 31.1859L118.633 31.1828L118.629 30.1328L117.789 30.1359L117.793 31.1859ZM120.623 36.6555L124.093 36.6426C124.366 36.6416 124.504 36.8244 124.505 37.1911C124.507 37.5577 124.371 37.7416 124.097 37.7426L115.907 37.773C115.634 37.774 115.497 37.5911 115.495 37.2245C115.494 36.8578 115.63 36.674 115.903 36.673L119.403 36.66L119.4 35.86L116.91 35.8692C116.637 35.8702 116.5 35.6907 116.498 35.3307C116.497 34.9707 116.633 34.7902 116.906 34.7892L119.396 34.78L119.395 34.41C119.394 34.2367 119.307 34.1503 119.134 34.151C118.807 34.1522 118.643 33.9928 118.642 33.6728L118.637 32.2328L117.717 32.2362C117.527 33.2236 117.126 33.8784 116.514 34.2007C116.275 34.3549 116.024 34.2958 115.763 34.0235C115.502 33.7444 115.502 33.5244 115.761 33.3635C116.14 33.1954 116.416 32.821 116.587 32.2404L115.987 32.2426C115.713 32.2436 115.576 32.0708 115.575 31.7241C115.574 31.3708 115.71 31.1936 115.983 31.1926L116.703 31.19L116.699 30.14L116.319 30.1414C116.046 30.1424 115.908 29.9696 115.907 29.6229C115.906 29.2762 116.042 29.1024 116.315 29.1014L120.035 29.0876C120.308 29.0866 120.446 29.2594 120.447 29.6061C120.448 29.9527 120.312 30.1266 120.039 30.1276L119.739 30.1287L119.743 31.1787L120.273 31.1767C120.546 31.1757 120.684 31.3519 120.685 31.7052C120.686 32.0519 120.55 32.2257 120.277 32.2267L119.747 32.2287L119.753 33.9787L120.133 33.9773C120.453 33.9761 120.614 34.1355 120.615 34.4555L120.616 34.7755L123.096 34.7663C123.37 34.7653 123.507 34.9448 123.508 35.3048C123.51 35.6648 123.374 35.8453 123.1 35.8463L120.62 35.8555L120.623 36.6555Z" fill="#FE585B"/>
<path d="M63.3243 51.2243C63.7617 51.2227 63.9815 51.5419 63.9839 52.1819C63.9862 52.8112 63.7687 53.1267 63.3314 53.1283L57.7794 53.1489L57.7937 57.0049C57.7957 57.5489 57.7226 57.9651 57.5743 58.2537C57.4367 58.5422 57.1816 58.7618 56.8088 58.9125C56.191 59.1602 55.3701 59.2699 54.346 59.2417C53.7594 59.2545 53.3262 58.9308 53.0464 58.2705C52.7773 57.6208 53.0002 57.316 53.715 57.356C54.8672 57.4157 55.5338 57.3812 55.7146 57.2526C55.7784 57.199 55.8101 57.1029 55.8095 56.9642L55.7954 53.1562L50.1155 53.1773C49.6781 53.1789 49.4583 52.8651 49.456 52.2357C49.4536 51.5957 49.6711 51.2749 50.1084 51.2733L55.7884 51.2523L55.7827 49.7323C55.781 49.2629 55.9771 48.9315 56.3711 48.7381C56.9887 48.4478 57.8187 47.9114 58.8611 47.1288L51.6772 47.1555C51.2398 47.1571 51.02 46.8432 51.0177 46.2139C51.0153 45.5846 51.2328 45.2691 51.6702 45.2675L60.7737 45.1377C61.2111 45.1361 61.6704 45.3211 62.1518 45.6926C62.6332 46.0535 62.7144 46.3892 62.3955 46.6997C61.2159 47.8881 59.8064 48.9227 58.167 49.8034C57.9009 49.9538 57.7684 50.1676 57.7694 50.4449L57.7724 51.2449L63.3243 51.2243ZM70.5144 52.8617C70.93 52.7321 71.1868 52.9445 71.2848 53.4988C71.3935 54.0424 71.2668 54.3842 70.9046 54.5243C69.8714 54.9227 68.4334 55.4561 66.5905 56.1243C66.0899 56.3074 65.7051 56.0955 65.4361 55.4885C65.1779 54.8815 65.2565 54.5185 65.6721 54.3996L67.2543 53.9138L67.2315 47.7698L66.1116 47.774C65.6742 47.7756 65.4545 47.4831 65.4523 46.8964C65.4501 46.3097 65.6677 46.0156 66.105 46.014L70.265 45.9986C70.7023 45.9969 70.9221 46.2895 70.9243 46.8761C70.9264 47.4628 70.7089 47.7569 70.2715 47.7586L69.1515 47.7627L69.1721 53.3147L70.5144 52.8617ZM73.5734 53.6504L73.5756 54.2583C73.5767 54.5357 73.7158 54.6738 73.9932 54.6728L77.3532 54.6603C77.6305 54.6593 77.7686 54.5201 77.7676 54.2428L77.7654 53.6348L73.5734 53.6504ZM73.5647 51.3144L73.5685 52.3384L77.7605 52.3228L77.7567 51.2988L73.5647 51.3144ZM73.9722 49.0248C73.6949 49.0259 73.5568 49.1651 73.5578 49.4424L73.56 50.0344L77.752 50.0188L77.7498 49.4268C77.7487 49.1495 77.6096 49.0114 77.3322 49.0124L73.9722 49.0248ZM79.6275 55.2759C79.6294 55.7879 79.3743 56.0449 78.8623 56.0468L72.5904 56.07C72.0784 56.0719 71.8214 55.8169 71.8195 55.3049L71.7939 48.3929C71.792 47.8809 72.047 47.624 72.559 47.6221L74.303 47.6156L74.5069 46.5108L71.787 46.5209C71.3496 46.5225 71.13 46.2567 71.128 45.7234C71.126 45.19 71.3437 44.9226 71.781 44.9209L79.525 44.8922C79.9623 44.8906 80.182 45.1565 80.1839 45.6898C80.1859 46.2231 79.9682 46.4906 79.5309 46.4922L76.6509 46.5029L76.255 47.6084L78.831 47.5988C79.343 47.5969 79.5999 47.852 79.6018 48.364L79.6275 55.2759ZM76.692 57.5908C76.1682 57.2728 76.1403 56.9475 76.6084 56.6151C77.0765 56.2721 77.583 56.2488 78.1282 56.5455C79.058 57.0327 79.7209 57.4516 80.1168 57.8021C80.3735 57.9932 80.2519 58.2763 79.752 58.6515C79.252 59.0267 78.8737 59.1081 78.6169 58.8957C78.2315 58.5345 77.5899 58.0995 76.692 57.5908ZM72.9757 56.4206C73.2841 56.1848 73.7057 56.2419 74.2403 56.5919C74.7749 56.9313 74.8773 57.2189 74.5475 57.4548C74.3561 57.6261 73.8772 57.9053 73.1106 58.2921C72.3547 58.6789 71.8169 58.9156 71.4972 59.0021C71.1031 59.1422 70.7132 58.9943 70.3276 58.5584C69.942 58.1332 69.9463 57.8558 70.3405 57.7264C70.5962 57.6507 71.0754 57.441 71.7782 57.097C72.4808 56.7424 72.88 56.5169 72.9757 56.4206ZM84.6404 56.6014C84.6414 56.8787 84.7806 57.0168 85.0579 57.0158L92.1939 56.9894C92.4712 56.9883 92.6094 56.8492 92.6083 56.5718L92.6024 54.9558L84.6344 54.9854L84.6404 56.6014ZM92.5877 50.9879L84.6197 51.0174L84.6272 53.0494L92.5952 53.0198L92.5877 50.9879ZM92.5747 47.4999C92.5737 47.2225 92.4345 47.0844 92.1572 47.0854L85.0212 47.1119C84.7439 47.1129 84.6057 47.2521 84.6068 47.5294L84.6126 49.0974L92.5805 49.0679L92.5747 47.4999ZM82.5207 45.8891C82.5188 45.3771 82.7738 45.1202 83.2858 45.1183L93.9738 45.0787C94.4858 45.0768 94.7427 45.3318 94.7446 45.8438L94.7904 58.1957C94.7923 58.7077 94.5372 58.9647 94.0252 58.9666L83.3373 59.0062C82.8253 59.0081 82.5684 58.753 82.5665 58.2411L82.5207 45.8891ZM106.001 48.1381C106.588 48.1359 106.882 48.3535 106.884 48.7909L106.887 49.7668C106.889 50.2042 106.596 50.4239 106.01 50.4261C105.434 50.4282 105.145 50.2106 105.143 49.7733L105.14 48.7973C105.138 48.36 105.425 48.1403 106.001 48.1381ZM107.978 54.8508C108.415 54.8492 108.635 55.1844 108.638 55.8564C108.64 56.5284 108.466 56.865 108.114 56.8664C108.532 57.4515 108.858 57.7436 109.093 57.7427C109.263 57.7421 109.386 57.683 109.46 57.5654C109.641 57.33 109.755 56.5083 109.803 55.1001C109.833 54.6306 109.71 54.3964 109.432 54.3974L105.88 54.4106L105.882 54.8586L107.978 54.8508ZM105.891 57.3386L106.915 57.2868C106.765 57.0954 106.797 56.9566 107.01 56.8704L105.89 56.8746L105.891 57.3386ZM106.783 56.1193C107.06 56.1182 107.198 55.9471 107.197 55.6057L105.885 55.6106L105.887 56.1226L106.783 56.1193ZM102.941 55.6215C102.942 55.9628 103.081 56.133 103.359 56.132L104.287 56.1285L104.285 55.6165L102.941 55.6215ZM104.28 54.4165L102.984 54.4213L102.49 54.8712L104.282 54.8645L104.28 54.4165ZM100.4 47.9349L100.406 49.5029C100.414 51.4762 100.303 53.2153 100.074 54.7201C101.021 54.194 101.781 53.5831 102.355 52.8877L101.811 52.8897C101.299 52.8916 101.042 52.6365 101.04 52.1245L101.037 51.4205C101.035 50.9085 101.141 50.6522 101.354 50.6514L101.29 50.4756C101.149 49.9641 101.314 49.6755 101.783 49.6098C102.038 49.5662 102.662 49.4465 103.653 49.2508C102.842 49.0298 102.292 48.9092 102.004 48.8889C101.598 48.8264 101.438 48.6617 101.522 48.3947C101.617 48.117 101.878 48.0147 102.305 48.0878L103.442 48.3076C104.072 48.4226 104.297 48.7151 104.117 49.1851C104.522 49.1089 104.731 49.2255 104.742 49.5348C104.754 49.8441 104.547 50.0422 104.121 50.1291L101.786 50.6498L109.434 50.6214C109.872 50.6198 109.738 50.551 109.034 50.4149C108.329 50.2682 107.805 50.0194 107.463 49.6687C107.558 49.391 107.717 49.2624 107.941 49.2829C107.694 48.7718 107.874 48.4245 108.482 48.2409L109.632 47.9007L100.4 47.9349ZM109.418 46.2694C109.417 46.0454 109.278 45.934 109.001 45.935L100.809 45.9653C100.532 45.9664 100.394 46.1056 100.395 46.3829L100.396 46.7189L109.004 46.687C109.281 46.686 109.419 46.5468 109.418 46.2694ZM108.976 52.0951C109.253 52.0941 109.391 51.9549 109.39 51.6776L109.389 51.3896L108.029 51.3946L108.032 52.0986L108.976 52.0951ZM106.592 52.104L106.589 51.4L105.261 51.4049L105.264 52.1089L106.592 52.104ZM103.824 52.1142L103.821 51.4102L102.525 51.415L102.528 52.119L103.824 52.1142ZM103.957 53.3617L110.82 53.3363C111.332 53.3344 111.584 53.6268 111.576 54.2135C111.589 54.9708 111.534 55.819 111.409 56.7581C111.285 57.6866 111.132 58.2578 110.952 58.4718C110.739 58.75 110.43 58.9164 110.025 58.9713C109.759 59.0256 109.53 59.0425 109.338 59.0218C108.836 59.0237 108.547 58.8221 108.471 58.417L108.168 58.5462C107.912 58.6538 107.725 58.5798 107.607 58.3242C105.645 58.4702 103.608 58.6111 101.496 58.7469C101.006 58.7807 100.739 58.5897 100.694 58.1739C100.661 57.7686 100.735 57.5657 100.916 57.565C101.108 57.5537 102.233 57.4962 104.291 57.3925L104.29 56.8805L102.354 56.8877C101.842 56.8896 101.585 56.6345 101.583 56.1226L101.581 55.5466C101.155 55.8255 100.776 55.7895 100.444 55.4388L100.027 55.0883C99.7344 56.7641 99.4028 57.928 99.0318 58.58C98.8837 58.9112 98.5318 58.9232 97.976 58.6159C97.4308 58.3086 97.2271 58.016 97.3647 57.7382C98.1805 56.2312 98.581 53.4937 98.5663 49.5257L98.5515 45.5417C98.5496 45.0297 98.8047 44.7728 99.3167 44.7709L110.517 44.7294C111.018 44.7275 111.27 44.9826 111.271 45.4946L111.277 47.1266C111.279 47.6386 111.024 47.8955 110.512 47.8974L110.176 47.8986C110.455 48.3883 110.387 48.7085 109.972 48.8594C109.78 48.9561 109.119 49.1026 107.989 49.2988C109.003 49.4123 109.654 49.5219 109.943 49.6275C110.412 49.7431 110.547 50.0733 110.346 50.618C110.752 50.6165 110.956 50.9891 110.959 51.7358C110.961 52.4824 110.744 52.8566 110.307 52.8582L104.307 52.8804L103.957 53.3617ZM124.337 56.7102L127.457 56.6987C127.894 56.697 128.114 57.0002 128.116 57.6082C128.119 58.2055 127.901 58.505 127.464 58.5066L118.808 58.5387C118.381 58.5403 118.167 58.2424 118.165 57.6451C118.162 57.0371 118.374 56.7323 118.801 56.7307L122.433 56.7173L122.421 53.5173L119.989 53.5263C119.552 53.5279 119.332 53.2354 119.33 52.6487C119.328 52.0514 119.545 51.7519 119.983 51.7503L122.415 51.7413L122.405 49.1173L120.645 49.1238C120.413 49.946 120.207 50.4961 120.027 50.7742C119.847 51.1482 119.474 51.1922 118.908 50.9063C118.341 50.6204 118.153 50.2851 118.344 49.9004L118.534 49.5477L118.343 49.6444C117.864 49.8595 117.543 49.7167 117.381 49.2159L117.009 48.1293L117.047 58.4012C117.049 58.8386 116.73 59.0584 116.09 59.0608C115.46 59.0631 115.145 58.8456 115.143 58.4083L115.103 47.6244C114.982 49.3528 114.794 50.5962 114.541 51.3545C114.446 51.6962 114.164 51.7826 113.694 51.6136C113.224 51.4447 113.042 51.1947 113.147 50.8637C113.411 50.1693 113.579 49.294 113.65 48.2378C113.722 47.5442 114.019 47.2337 114.542 47.3065L115.102 47.3844L115.093 44.7764C115.091 44.3391 115.405 44.1192 116.034 44.1169C116.674 44.1145 116.995 44.332 116.997 44.7693L117.006 47.1373L117.245 47.0404C117.703 46.8467 118.045 46.9841 118.271 47.4526C118.4 47.6655 118.582 48.1022 118.82 48.7626C119.21 47.6092 119.457 46.5469 119.56 45.5758C119.622 45.0956 119.963 44.897 120.582 44.9801C121.201 45.0631 121.474 45.3181 121.4 45.745L121.118 47.3301L122.398 47.3253L122.389 44.8454C122.387 44.408 122.701 44.1882 123.331 44.1859C123.971 44.1835 124.291 44.401 124.293 44.8383L124.302 47.3183L126.91 47.3086C127.348 47.307 127.567 47.6048 127.57 48.2022C127.572 48.7995 127.354 49.099 126.917 49.1006L124.309 49.1103L124.319 51.7342L126.591 51.7258C127.028 51.7242 127.248 52.0221 127.25 52.6194C127.252 53.2061 127.035 53.5002 126.597 53.5018L124.325 53.5102L124.337 56.7102ZM133.776 53.8592C133.338 53.8608 133.119 53.5843 133.116 53.0296C133.114 52.4643 133.332 52.1808 133.769 52.1792L136.825 52.1679C137.263 52.1663 137.482 52.4481 137.484 53.0135C137.487 53.5681 137.269 53.8463 136.832 53.8479L133.776 53.8592ZM143.24 57.5682C142.803 57.5698 142.583 57.3466 142.582 56.8986C142.58 56.4399 142.776 56.0339 143.169 55.6804C144.488 54.4915 145.566 53.3408 146.404 52.2284C147.254 51.1159 147.677 50.1277 147.674 49.2637C147.671 48.6557 147.515 48.1869 147.204 47.8574C146.894 47.5172 146.456 47.3482 145.89 47.3503C145.186 47.3529 144.654 47.5788 144.293 48.0282C143.91 48.3923 143.505 48.3618 143.077 47.9367C142.648 47.5116 142.604 47.1331 142.944 46.8012C143.178 46.5123 143.582 46.2228 144.157 45.9327C144.732 45.6425 145.409 45.496 146.188 45.4931C147.308 45.489 148.21 45.8217 148.895 46.4911C149.58 47.1499 149.925 48.0286 149.929 49.1273C149.936 50.93 148.77 52.9823 146.432 55.2843C146.156 55.5627 146.156 55.696 146.433 55.6843L147.953 55.5667L149.857 55.5596C150.294 55.558 150.514 55.8879 150.517 56.5492C150.519 57.2105 150.302 57.542 149.864 57.5436L143.24 57.5682Z" fill="black" fill-opacity="0.85"/>
</g>
<defs>
<radialGradient id="paint0_radial_2309_7214" cx="0" cy="0" r="1" gradientUnits="userSpaceOnUse" gradientTransform="translate(0.560609 46.8353) rotate(65.4889) scale(3.32531 8.21233)">
<stop offset="0.33" stop-opacity="0"/>
<stop offset="0.655" stop-opacity="0.6"/>
<stop offset="1"/>
</radialGradient>
<radialGradient id="paint1_radial_2309_7214" cx="0" cy="0" r="1" gradientUnits="userSpaceOnUse" gradientTransform="translate(355.3 45.8572) rotate(114.511) scale(3.32531 8.21233)">
<stop offset="0.33" stop-opacity="0"/>
<stop offset="0.655" stop-opacity="0.6"/>
<stop offset="1"/>
</radialGradient>
<clipPath id="clip0_2309_7214">
<rect width="200" height="90" fill="white"/>
</clipPath>
</defs>
</svg>
