<svg width="200" height="90" viewBox="0 0 200 90" fill="none" xmlns="http://www.w3.org/2000/svg">
<g clip-path="url(#clip0_2306_5987)">
<rect width="200" height="90" fill="#BDE3FF"/>
<path fill-rule="evenodd" clip-rule="evenodd" d="M-6.18027 85.5257C-5.5206 81.3514 -9.94765 77.2571 -7.65473 73.2393C-4.94813 68.4966 -1.65241 61.9915 7.77154 61.0783C17.9972 60.0873 23.5998 68.8258 33.9785 69.2048C45.8176 69.6371 56.5881 60.196 66.8872 63.2371C76.2425 65.9996 70.121 74.0119 68.9752 79.5387C68.1676 83.4341 61.5364 86.4306 61.2669 90.3457C60.8502 96.3973 75.7689 103.853 67.0229 107.895C58.3557 111.9 45.7383 103.802 34.2527 102.83C27.3162 102.243 20.5655 103.925 13.6182 103.373C4.65786 102.66 -7.2514 103.227 -11.7526 99.1698C-16.3208 95.0519 -6.92748 90.2539 -6.18027 85.5257Z" fill="#005EA5"/>
<path fill-rule="evenodd" clip-rule="evenodd" d="M28.4743 10.5302C32.6486 10.8717 36.7429 8.58004 40.7607 9.76696C45.5034 11.168 52.0085 12.874 52.9217 17.7523C53.9127 23.0456 45.1742 25.9458 44.7952 31.3183C44.3629 37.4467 53.804 43.0221 50.7629 48.3534C48.0004 53.1961 39.9881 50.0274 34.4613 49.4342C30.5659 49.0162 27.5694 45.5836 23.6543 45.444C17.6027 45.2284 10.1469 52.9509 6.10508 48.4236C2.09968 43.9371 10.1975 37.4057 11.1701 31.4602C11.7575 27.8695 10.0747 24.3751 10.6274 20.7788C11.3402 16.1405 10.7727 9.97575 14.8302 7.64571C18.9481 5.281 23.7461 10.1434 28.4743 10.5302Z" fill="#2382C9"/>
<path fill-rule="evenodd" clip-rule="evenodd" d="M173.474 4.53021C177.649 4.87169 181.743 2.58004 185.761 3.76696C190.503 5.16803 197.008 6.87405 197.922 11.7523C198.913 17.0456 190.174 19.9458 189.795 25.3183C189.363 31.4467 198.804 37.0221 195.763 42.3534C193 47.1961 184.988 44.0274 179.461 43.4342C175.566 43.0162 172.569 39.5836 168.654 39.444C162.603 39.2284 155.147 46.9509 151.105 42.4236C147.1 37.9371 155.198 31.4057 156.17 25.4602C156.757 21.8695 155.075 18.3751 155.627 14.7788C156.34 10.1405 155.773 3.97575 159.83 1.64571C163.948 -0.719004 168.746 4.14342 173.474 4.53021Z" fill="#69BAF5"/>
<path fill-rule="evenodd" clip-rule="evenodd" d="M117.063 7.20494C131.49 7.9797 144.155 11.9054 154.996 17.5775C166.733 23.7188 176.896 30.8598 179.688 39.9711C183.097 51.0949 184.354 63.7453 171.749 72.2549C158.691 81.0707 136.857 81.4742 117.063 82.2497C95.2362 83.1048 71.8992 84.7511 54.6033 76.8446C35.6156 68.1646 20.8565 53.9771 24.5773 39.9711C28.0889 26.7526 52.1053 19.9805 71.5388 13.0955C85.3864 8.18958 100.98 6.34119 117.063 7.20494Z" fill="#C9F4FF"/>
<path d="M177.967 51.2804L196.726 84.9582L159.338 85.0303L177.967 51.2804Z" fill="#228CDA"/>
<path d="M173.373 78.4648H182.74" stroke="black" stroke-width="2" stroke-linecap="round"/>
<ellipse cx="171.472" cy="68.8528" rx="4.64254" ry="4.79533" transform="rotate(-0.110477 171.472 68.8528)" stroke="#FA8F21" stroke-width="2"/>
<ellipse cx="184.669" cy="68.8118" rx="4.64254" ry="4.79533" transform="rotate(-0.110477 184.669 68.8118)" stroke="#FA8F21" stroke-width="2"/>
<path d="M175.55 68.4723C175.55 68.4723 176.816 68.054 177.654 68.0337C178.594 68.011 180.025 68.4637 180.025 68.4637" stroke="#FA8F21" stroke-width="2"/>
<ellipse cx="171.471" cy="68.8518" rx="1.89842" ry="1.9609" transform="rotate(-0.110477 171.471 68.8518)" fill="black"/>
<ellipse cx="184.67" cy="68.8264" rx="1.89842" ry="1.9609" transform="rotate(-0.110477 184.67 68.8264)" fill="black"/>
<path d="M68.8367 37.9003C68.8377 38.1736 68.5916 38.3112 68.0982 38.313C67.6049 38.3148 67.3577 38.1791 67.3567 37.9058L67.3323 31.3158C67.3313 31.0425 67.5774 30.9049 68.0708 30.9031C68.5641 30.9012 68.8113 31.037 68.8123 31.3103L68.8216 33.8203L71.6216 33.8099L71.6123 31.2999C71.6113 31.0266 71.8541 30.889 72.3407 30.8872C72.8341 30.8854 73.0812 31.0212 73.0823 31.2945L73.1067 37.8845C73.1077 38.1578 72.8615 38.2954 72.3682 38.2972C71.8815 38.299 71.6377 38.1632 71.6367 37.8899L71.6263 35.0999L68.8264 35.1103L68.8367 37.9003ZM77.875 37.8668C77.876 38.1401 77.6299 38.2777 77.1365 38.2795C76.6432 38.2813 76.396 38.1456 76.395 37.8723L76.3737 32.1123L74.7037 32.1185C74.4303 32.1195 74.2929 31.9133 74.2914 31.5C74.2899 31.0867 74.4257 30.8795 74.6991 30.8785L79.539 30.8606C79.8124 30.8595 79.9498 31.0657 79.9513 31.479C79.9529 31.8924 79.817 32.0995 79.5436 32.1006L77.8537 32.1068L77.875 37.8668ZM81.8365 38.2621C81.3965 38.2637 81.176 38.1279 81.175 37.8545L81.1508 31.3346C81.1496 31.0146 81.309 30.854 81.629 30.8528L82.339 30.8502C82.639 30.8491 82.8362 30.9883 82.9306 31.268L84.4862 35.4923C84.5402 35.6521 84.5935 35.6519 84.6462 35.4917L86.0906 31.2563C86.1829 30.9759 86.379 30.8352 86.679 30.8341L87.389 30.8315C87.709 30.8303 87.8696 30.9897 87.8708 31.3097L87.8949 37.8296C87.896 38.103 87.6698 38.2405 87.2165 38.2422C86.7698 38.2438 86.546 38.108 86.5449 37.8346L86.535 35.1547C86.5331 34.6413 86.5768 33.8312 86.666 32.7242L85.0924 37.16C84.9935 37.4404 84.794 37.5811 84.494 37.5822C84.2273 37.5832 84.0502 37.4606 83.9626 37.2142L82.336 32.7402C82.4407 34.0065 82.4937 34.8163 82.495 35.1696L82.505 37.8496C82.506 38.1229 82.2832 38.2604 81.8365 38.2621ZM90.1916 38.2311C89.8716 38.2323 89.711 38.0729 89.7098 37.7529L89.6857 31.233C89.6846 30.9596 89.9308 30.822 90.4241 30.8202C90.9175 30.8184 91.1646 30.9541 91.1656 31.2275L91.186 36.7274C91.1867 36.9008 91.2737 36.9871 91.447 36.9865L93.787 36.9778C94.0603 36.9768 94.1977 37.1829 94.1993 37.5963C94.2008 38.0096 94.0649 38.2168 93.7916 38.2178L90.1916 38.2311ZM100.165 36.2241L101.765 36.2182L101.042 35.3909L98.2224 35.4013L97.5155 36.234L98.9555 36.2286L98.9547 36.0186C98.9537 35.7453 99.1532 35.6079 99.5532 35.6064C99.9598 35.6049 100.164 35.7408 100.165 36.0141L100.165 36.2241ZM98.0172 33.9821L98.0188 34.4321L101.149 34.4205L101.147 33.9705L98.0172 33.9821ZM101.138 31.4405L98.0078 31.4521L98.0094 31.8921L101.139 31.8805L101.138 31.4405ZM98.0124 32.7121L98.0141 33.1521L101.144 33.1405L101.142 32.7005L98.0124 32.7121ZM104.221 34.8991C104.222 35.2191 104.086 35.3796 103.812 35.3806L102.392 35.3859C102.968 35.9038 103.489 36.2385 103.956 36.3901C104.216 36.4891 104.214 36.6925 103.948 37.0001C103.69 37.3078 103.44 37.4054 103.199 37.2929C102.886 37.1541 102.481 36.8622 101.986 36.4174L101.987 36.6774C101.988 36.9974 101.829 37.158 101.509 37.1592L100.169 37.1641L100.171 37.8141L103.041 37.8035C103.308 37.8025 103.442 37.9653 103.443 38.292C103.444 38.6187 103.308 38.7825 103.035 38.7835L96.235 38.8087C95.9617 38.8097 95.8244 38.6469 95.8232 38.3203C95.822 37.9936 95.9581 37.8298 96.2314 37.8287L98.9614 37.8186L98.959 37.1686L97.669 37.1734C97.349 37.1746 97.1884 37.0152 97.1872 36.6952L97.1867 36.5552C96.6816 36.9904 96.2693 37.2753 95.9498 37.4098C95.7169 37.524 95.4733 37.4315 95.2188 37.1325C94.9643 36.8268 94.9669 36.6201 95.2265 36.5125C95.7392 36.3306 96.2811 35.9619 96.8524 35.4064L95.3424 35.412C95.0691 35.413 94.9318 35.2535 94.9307 34.9335C94.9294 34.6069 95.0655 34.443 95.3388 34.442L96.8288 34.4365L96.8178 31.4565L95.8478 31.4601C95.5745 31.4611 95.4372 31.3016 95.436 30.9816C95.4348 30.6616 95.5709 30.5011 95.8442 30.5001L96.8142 30.4965L96.813 30.1565C96.812 29.8832 97.0081 29.7458 97.4014 29.7443C97.8014 29.7429 98.0019 29.8788 98.003 30.1521L98.0042 30.4921L101.134 30.4805L101.133 30.1405C101.132 29.8672 101.335 29.7298 101.741 29.7283C102.148 29.7268 102.352 29.8627 102.353 30.136L102.354 30.476L103.314 30.4724C103.588 30.4714 103.725 30.6309 103.726 30.9509C103.727 31.2709 103.591 31.4314 103.318 31.4324L102.358 31.436L102.369 34.416L103.809 34.4106C104.082 34.4096 104.219 34.5724 104.221 34.8991ZM112.577 33.9681C112.271 33.9693 112.117 33.8332 112.116 33.5598L112.113 32.9298C111.868 33.3307 111.689 33.5714 111.576 33.6518C111.397 33.8258 111.227 33.7865 111.066 33.5337C110.911 33.281 110.927 33.0709 111.113 32.9035C111.406 32.7025 111.697 32.2514 111.988 31.5503L111.608 31.5517C111.335 31.5527 111.198 31.4032 111.197 31.1032C111.195 30.8032 111.332 30.6527 111.605 30.6517L112.105 30.6499L112.103 30.1099C112.102 29.8365 112.255 29.6993 112.561 29.6982C112.875 29.697 113.032 29.8331 113.033 30.1064L113.035 30.6464L113.725 30.6438C113.998 30.6428 114.135 30.7923 114.137 31.0923C114.138 31.3923 114.002 31.5428 113.728 31.5438L113.208 31.5458L114.072 32.5226C114.253 32.7219 114.233 32.9553 114.014 33.2228C113.802 33.4902 113.629 33.5076 113.495 33.2747L113.042 32.4864L113.046 33.5564C113.047 33.8297 112.891 33.967 112.577 33.9681ZM110.176 33.567C110.177 33.8404 110.024 33.9776 109.717 33.9787C109.411 33.9799 109.257 33.8438 109.256 33.5704L109.252 32.6804C108.941 33.1949 108.725 33.4991 108.606 33.5928C108.453 33.7534 108.293 33.704 108.125 33.4446C107.964 33.1786 107.973 32.9618 108.153 32.7945C108.392 32.6203 108.657 32.2093 108.948 31.5616L108.628 31.5627C108.355 31.5638 108.218 31.4143 108.217 31.1143C108.215 30.8143 108.352 30.6638 108.625 30.6628L109.245 30.6605L109.243 30.1205C109.242 29.8471 109.395 29.7099 109.701 29.7088C110.008 29.7076 110.162 29.8437 110.163 30.117L110.165 30.657L110.585 30.6555C110.858 30.6545 110.995 30.804 110.997 31.104C110.998 31.404 110.862 31.5545 110.588 31.5555L110.178 31.557L110.891 32.2644C111.078 32.457 111.079 32.6703 110.893 32.9044C110.707 33.1384 110.541 33.1423 110.393 32.9162L110.172 32.587L110.176 33.567ZM106.928 36.7891C107.101 36.7884 107.187 36.7015 107.187 36.5281L107.179 34.5381C107.179 34.3648 107.092 34.2785 106.918 34.2791L106.418 34.281L106.427 36.5309C106.427 36.7043 106.514 36.7906 106.688 36.79L106.928 36.7891ZM107.98 37.3452C107.981 37.6652 107.821 37.8258 107.501 37.827L106.061 37.8323C105.741 37.8335 105.581 37.6741 105.58 37.3541L105.572 35.2641L105.333 35.595C105.181 35.8156 105.037 35.7061 104.902 35.2666C104.774 34.8204 104.769 34.5071 104.888 34.3266C105.326 33.7383 105.689 32.7036 105.977 31.2226L105.437 31.2246C105.164 31.2256 105.026 31.0461 105.025 30.6861C105.024 30.3261 105.16 30.1456 105.433 30.1446L107.633 30.1364C107.906 30.1354 108.044 30.3149 108.045 30.6749C108.046 31.0349 107.91 31.2154 107.637 31.2164L107.017 31.2187L106.484 33.2407L107.484 33.237C107.804 33.2358 107.965 33.3952 107.966 33.7152L107.98 37.3452ZM111.638 36.9416L111.64 37.5316C111.641 37.705 111.688 37.7981 111.781 37.8111C111.888 37.8174 112.271 37.8193 112.931 37.8168L113.951 37.8031C114.225 37.802 114.305 37.9684 114.193 38.3022C114.088 38.6359 113.898 38.8033 113.625 38.8043L112.205 38.8095C111.525 38.8121 110.958 38.7308 110.504 38.5658C110.05 38.4009 109.669 38.0956 109.361 37.6501C109.15 38.2509 108.921 38.635 108.675 38.8026C108.482 38.99 108.252 38.9575 107.985 38.7052C107.717 38.4595 107.663 38.263 107.823 38.1158C108.335 37.7539 108.629 37.0528 108.705 36.0125C108.75 35.619 108.936 35.4516 109.263 35.5104C109.596 35.5625 109.747 35.7253 109.715 35.9987L109.656 36.419C109.872 36.9382 110.099 37.2573 110.34 37.3764C110.48 37.4559 110.55 37.409 110.549 37.2357L110.542 35.1657L108.572 35.173C108.298 35.174 108.161 35.0145 108.16 34.6945C108.159 34.3745 108.295 34.214 108.568 34.213L113.438 34.1449L113.738 34.2438C114.052 34.336 114.153 34.5323 114.04 34.8327L113.753 35.5638C113.661 35.8175 113.464 35.8949 113.164 35.796C112.864 35.6971 112.769 35.4841 112.882 35.157L111.632 35.1616L111.635 35.9916L113.455 35.9849C113.728 35.9839 113.865 36.1434 113.866 36.4634C113.868 36.7767 113.732 36.9339 113.458 36.9349L111.638 36.9416ZM119.246 33.6034C119.519 33.6024 119.657 33.7886 119.658 34.1619C119.659 34.5352 119.523 34.7224 119.25 34.7234L117.94 34.7283L117.872 35.1385C118.3 35.5503 118.812 36.1084 119.408 36.8128C119.642 37.0853 119.627 37.3887 119.361 37.723C119.096 38.0573 118.903 38.138 118.782 37.9652C118.601 37.6658 118.196 37.1273 117.566 36.3497C117.183 37.4577 116.663 38.2463 116.005 38.7155C115.792 38.8896 115.542 38.8272 115.254 38.5282C114.973 38.2293 114.942 37.9961 115.162 37.8286C116.019 37.2187 116.545 36.1868 116.74 34.7327L115.38 34.7377C115.107 34.7388 114.969 34.5526 114.968 34.1793C114.967 33.8059 115.103 33.6188 115.376 33.6177L116.816 33.6124L116.81 32.0224L116.41 32.0239C116.205 32.558 116.043 32.9019 115.924 33.0557C115.798 33.2628 115.575 33.2537 115.254 33.0282C114.933 32.7961 114.832 32.5898 114.951 32.4093C115.343 31.9012 115.617 31.1668 115.773 30.2063C115.845 29.846 116.071 29.7051 116.452 29.7837C116.832 29.8557 116.993 30.0251 116.934 30.292L116.776 30.9225L119.006 30.9143C119.279 30.9133 119.417 31.0961 119.418 31.4628C119.419 31.8294 119.283 32.0133 119.01 32.0143L118.01 32.018L118.016 33.608L119.246 33.6034ZM121.087 36.5966C121.088 36.7699 121.175 36.8563 121.348 36.8556L122.278 36.8522C122.451 36.8515 122.538 36.7646 122.537 36.5912L122.52 31.8813C122.519 31.7079 122.432 31.6216 122.259 31.6222L121.329 31.6257C121.155 31.6263 121.069 31.7133 121.07 31.8866L121.087 36.5966ZM119.916 30.9909C119.915 30.6709 120.074 30.5103 120.394 30.5091L123.244 30.4986C123.564 30.4974 123.725 30.6568 123.726 30.9768L123.75 37.4967C123.752 37.8101 123.592 37.9673 123.272 37.9685L120.422 37.9791C120.102 37.9803 119.942 37.8242 119.94 37.5109L119.916 30.9909ZM133.828 31.5393C133.936 31.7856 133.837 31.976 133.53 32.1104C133.224 32.2383 133.024 32.1757 132.93 31.9227L132.516 30.8942C132.422 30.6412 132.518 30.4575 132.804 30.3431C133.09 30.2287 133.287 30.2947 133.395 30.5409L133.828 31.5393ZM125.761 34.9293C125.488 34.9303 125.35 34.7841 125.349 34.4908C125.348 34.1908 125.484 34.0403 125.758 34.0393L127.348 34.0334C127.621 34.0324 127.758 34.1819 127.759 34.4819C127.76 34.7752 127.624 34.9224 127.351 34.9234L125.761 34.9293ZM127.343 32.6734C127.616 32.6724 127.753 32.8219 127.754 33.1219C127.755 33.4219 127.619 33.5724 127.346 33.5734L125.756 33.5793C125.483 33.5803 125.345 33.4308 125.344 33.1308C125.343 32.8308 125.479 32.6803 125.753 32.6793L127.343 32.6734ZM126.937 36.5749C126.936 36.4083 126.849 36.3252 126.676 36.3259L126.456 36.3267C126.283 36.3273 126.196 36.411 126.197 36.5777L126.199 37.2477C126.2 37.421 126.287 37.5073 126.46 37.5067L126.68 37.5059C126.854 37.5052 126.94 37.4182 126.939 37.2449L126.937 36.5749ZM127.303 35.4136C127.623 35.4124 127.783 35.5718 127.784 35.8918L127.792 37.9318C127.793 38.2518 127.634 38.4123 127.314 38.4135L125.854 38.4189C125.534 38.4201 125.373 38.2607 125.372 37.9407L125.364 35.9007C125.363 35.5807 125.523 35.4202 125.843 35.419L127.303 35.4136ZM126.945 30.5348C127.086 30.8277 127.006 31.038 126.707 31.1657L126.397 31.2969L127.527 31.2927C127.801 31.2917 127.938 31.4478 127.939 31.7612C127.94 32.0678 127.804 32.2217 127.531 32.2227L125.461 32.2304C125.188 32.2314 125.05 32.0785 125.049 31.7719C125.048 31.4586 125.184 31.3014 125.457 31.3004L126.247 31.2974L125.834 30.339C125.726 30.0927 125.809 29.9191 126.082 29.818C126.362 29.7103 126.562 29.7763 126.683 30.0158L126.945 30.5348ZM130.665 30.5711C130.938 30.57 131.075 30.7229 131.076 31.0295C131.078 31.3295 130.941 31.48 130.668 31.4811L128.528 31.489C128.255 31.49 128.118 31.3405 128.116 31.0405C128.115 30.7338 128.251 30.58 128.525 30.579L129.195 30.5765L129.043 30.2371C128.929 29.9908 129.022 29.8238 129.322 29.736C129.628 29.6482 129.838 29.7275 129.953 29.9737L130.225 30.5727L130.665 30.5711ZM129.247 36.5164C129.247 36.6897 129.334 36.776 129.508 36.7754L130.138 36.7731L130.135 36.1331L129.245 36.1364L129.247 36.5164ZM130.131 34.9931C130.13 34.8197 130.043 34.7334 129.87 34.734L129.5 34.7354C129.327 34.736 129.24 34.823 129.241 34.9964L129.242 35.3564L130.132 35.3531L130.131 34.9931ZM132.968 34.2725C133.061 33.9922 133.257 33.9281 133.558 34.0804C133.858 34.2326 133.959 34.4455 133.86 34.7192C133.669 35.3533 133.335 36.0279 132.858 36.743C132.973 37.2692 133.091 37.5321 133.211 37.5317C133.337 37.5179 133.4 37.3443 133.399 37.011C133.437 36.5642 133.583 36.4503 133.837 36.6693C134.092 36.8884 134.173 37.2181 134.081 37.6584C133.971 38.4722 133.672 38.88 133.186 38.8818C132.759 38.8834 132.401 38.5013 132.111 37.7357C131.706 38.1906 131.377 38.4985 131.125 38.6594C130.912 38.8269 130.692 38.801 130.464 38.5819C130.244 38.3693 130.24 38.1794 130.452 38.0119L130.732 37.8009L130.382 37.8022C130.222 37.8028 130.141 37.723 130.141 37.5631L128.781 37.5681C128.461 37.5693 128.3 37.4099 128.299 37.0899L128.289 34.4199C128.288 34.0999 128.447 33.9393 128.767 33.9381L130.617 33.9313C130.937 33.9301 131.098 34.0895 131.099 34.4095L131.109 37.1695C131.11 37.3428 131.157 37.3826 131.25 37.2889C131.436 37.1082 131.625 36.8775 131.817 36.5968C131.654 35.8308 131.524 34.8212 131.426 33.5683L128.386 33.5795C128.113 33.5805 127.975 33.4144 127.974 33.081C127.973 32.7477 128.109 32.5805 128.382 32.5795L128.562 32.5789L128.45 32.0393C128.396 31.7728 128.502 31.6157 128.768 31.5681C129.035 31.5204 129.199 31.6298 129.26 31.8963L129.422 32.5757L129.772 32.5744L129.91 31.8839C129.955 31.617 130.128 31.5064 130.428 31.5519C130.729 31.5908 130.842 31.7404 130.77 32.0007L130.592 32.5713L131.362 32.5685C131.312 31.7553 131.276 30.9355 131.253 30.1089C131.252 29.7889 131.425 29.6282 131.771 29.627C132.125 29.6256 132.302 29.7317 132.302 29.945C132.304 30.4516 132.334 31.3249 132.392 32.5647L133.702 32.5598C133.975 32.5588 134.113 32.725 134.114 33.0583C134.115 33.3916 133.979 33.5588 133.706 33.5598L132.466 33.5644C132.508 34.1443 132.56 34.6874 132.622 35.1938C132.8 34.7998 132.916 34.4927 132.968 34.2725Z" fill="#2382C9"/>
<path d="M23.9424 48.9288C23.6651 48.9299 23.5269 49.069 23.5279 49.3464L23.5322 50.4824C23.5338 50.9197 23.2199 51.1395 22.5906 51.1419C21.9719 51.1441 21.6618 50.9266 21.6602 50.4893L21.6506 47.9133C21.6487 47.4013 21.9038 47.1444 22.4158 47.1425L27.5837 47.1233L27.261 46.3885C27.0995 45.9944 27.3385 45.7109 27.9779 45.5378C28.6172 45.3541 29.0229 45.4593 29.195 45.8533L29.7757 47.1152L34.5597 47.0975C35.0717 47.0956 35.3286 47.3506 35.3305 47.8626L35.3401 50.4386C35.3417 50.8759 35.0118 51.0958 34.3505 51.0983C33.6998 51.1007 33.3737 50.8832 33.3721 50.4459L33.3679 49.3099C33.3668 49.0326 33.2277 48.8944 32.9503 48.8954L23.9424 48.9288ZM29.504 55.8203L29.5125 58.1242C30.0675 58.1969 31.1023 58.2304 32.6169 58.2247C34.1316 58.2191 35.0915 58.2102 35.4968 58.1981C35.8168 58.1862 35.8606 58.5007 35.6283 59.1416C35.4067 59.7931 35.0773 60.1196 34.64 60.1213L31.312 60.1336C29.6693 60.1397 28.3193 59.9473 27.2618 59.5566C26.215 59.1658 25.3483 58.4277 24.6616 57.3422C24.1224 58.6349 23.5603 59.517 22.9754 59.9885C22.6778 60.2776 22.2669 60.2098 21.7426 59.7851C21.2291 59.371 21.1105 59.0461 21.387 58.8104C22.6635 57.867 23.4147 56.2002 23.6405 53.81C23.7236 53.2123 24.0853 52.9443 24.7255 53.006C25.3764 53.0569 25.6705 53.2745 25.6079 53.6587C25.6085 53.7974 25.5301 54.251 25.373 55.0196C25.8147 56.2126 26.4096 56.9944 27.1577 57.365C27.4035 57.5027 27.5259 57.4329 27.5249 57.1556L27.5063 52.1476L24.7544 52.1578C24.317 52.1595 24.0972 51.8563 24.095 51.2483C24.0927 50.6403 24.3103 50.3355 24.7476 50.3339L32.2356 50.3061C32.6729 50.3045 32.8927 50.6077 32.8949 51.2157C32.8972 51.8237 32.6796 52.1285 32.2423 52.1301L29.4903 52.1403L29.4973 54.0283L33.2253 54.0145C33.6626 54.0128 33.8824 54.3107 33.8846 54.908C33.8868 55.5053 33.6693 55.8048 33.232 55.8064L29.504 55.8203ZM49.0403 55.8599L47.3763 55.866C47.5378 56.2814 47.7044 56.6221 47.8761 56.8882C48.3229 56.5772 48.711 56.2344 49.0403 55.8599ZM42.3311 54.4927L45.0991 54.4824L44.9178 53.0591C44.8629 52.622 45.1394 52.4023 45.7474 52.4C46.3554 52.3978 46.6869 52.6099 46.7418 53.0364L46.9391 54.4756L49.5791 54.4658L48.0881 53.6714C47.5217 53.3748 47.4563 52.9964 47.8919 52.5361L48.2266 52.1828L43.4907 52.2004L43.8761 52.583C44.3151 53.04 44.2202 53.323 43.5912 53.432L42.3281 53.6607L42.3311 54.4927ZM49.3283 55.8588L49.8249 56.0329C50.423 56.2334 50.5255 56.5584 50.1325 57.0078C50.0797 57.1573 49.6544 57.5163 48.8565 58.0845C49.2523 58.3924 49.6529 58.5456 50.0582 58.5441C50.2395 58.5434 50.3672 58.463 50.4413 58.3027L50.5042 57.9984C50.5773 57.5715 50.8436 57.4798 51.3032 57.7235C51.7734 57.9671 51.9509 58.3557 51.8355 58.8895C51.8261 59.2202 51.6725 59.5301 51.3749 59.8192C51.0881 60.119 50.6193 60.27 49.9686 60.2724C48.9446 60.2762 48.0311 59.869 47.2281 59.0506C46.2273 59.5556 45.3592 59.9055 44.6239 60.1002C44.1978 60.2298 43.8291 60.0445 43.5179 59.5443C43.2067 59.0442 43.2749 58.7452 43.7226 58.6476C44.4686 58.4848 45.3155 58.1937 46.2633 57.7742L45.4563 55.8731L42.3363 55.8847L42.3386 56.4927L44.0822 56.3902C44.5194 56.3673 44.7335 56.5692 44.7244 56.9959C44.726 57.4225 44.5082 57.6527 44.071 57.6863L42.3435 57.8367L42.3466 58.6527C42.3481 59.0793 42.2906 59.3942 42.1741 59.5973C42.0682 59.8111 41.8288 59.9826 41.456 60.112C41.0938 60.252 40.5714 60.3179 39.8887 60.3098C39.2701 60.3228 38.8692 60.0842 38.686 59.5943C38.5029 59.1149 38.6461 58.8851 39.1155 58.9047C39.3182 58.9252 39.6862 58.9185 40.2194 58.8846C40.4327 58.8838 40.5391 58.7927 40.5384 58.6114L40.536 57.9714L38.1208 58.1723C37.6835 58.1953 37.4373 57.9669 37.3822 57.4871C37.3377 56.9966 37.5341 56.7452 37.9714 56.7329L40.5309 56.5954L40.5283 55.8914L38.0163 55.9007C37.579 55.9023 37.3595 55.6738 37.3578 55.2151C37.356 54.7458 37.5738 54.5103 38.0112 54.5087L40.5232 54.4994L40.5208 53.8594C39.6784 53.9372 39.0599 53.9822 38.6653 53.9943C38.2386 54.0065 37.9553 53.8263 37.8153 53.4534C37.6858 53.0699 37.8931 52.8611 38.4369 52.8271C40.3459 52.7134 41.9504 52.5048 43.2507 52.2013L38.0347 52.2206C37.5974 52.2222 37.3778 51.9831 37.376 51.5031C37.3742 51.0231 37.592 50.7822 38.0294 50.7806L43.4853 50.7604L43.4831 50.1684L39.5952 50.1828C39.1578 50.1844 38.9383 49.9666 38.9367 49.5293C38.9351 49.0919 39.153 48.8725 39.5903 48.8708L43.4783 48.8564L43.4761 48.2804L38.7402 48.298C38.3028 48.2996 38.0833 48.0657 38.0816 47.5964C38.0798 47.1271 38.2976 46.8916 38.7349 46.89L40.9109 46.8819L40.6374 46.4669C40.412 46.1051 40.5764 45.8378 41.1304 45.6651C41.6844 45.4817 42.1061 45.5655 42.3954 45.9164C42.5451 46.0225 42.7276 46.3419 42.9429 46.8744L46.1589 46.8625L46.5874 45.9169C46.7673 45.5215 47.2094 45.3919 47.914 45.528C48.6184 45.6533 48.8433 45.8925 48.5886 46.2455L48.1429 46.8551L50.2549 46.8473C50.6922 46.8457 50.9117 47.0795 50.9135 47.5489C50.9152 48.0182 50.6974 48.2537 50.2601 48.2553L45.4281 48.2732L45.4302 48.8492L49.4142 48.8344C49.8516 48.8328 50.071 49.0507 50.0726 49.488C50.0743 49.9253 49.8564 50.1448 49.4191 50.1464L45.4351 50.1612L45.4373 50.7532L50.9733 50.7327C51.4106 50.731 51.6302 50.9702 51.6319 51.4502C51.6337 51.9302 51.4159 52.171 50.9786 52.1726L48.4666 52.182C49.5134 52.5834 50.1653 52.901 50.4222 53.1347C50.8071 53.3893 50.8296 53.7092 50.4897 54.0945L50.1551 54.4637L51.0671 54.4603C51.5044 54.4587 51.7239 54.6926 51.7257 55.1619C51.7274 55.6206 51.5096 55.8507 51.0722 55.8523L49.3283 55.8588ZM63.4756 48.1103L63.473 47.3903L62.625 47.3934L62.6276 48.1134L63.4756 48.1103ZM65.7541 49.8619C65.7531 49.5845 65.6139 49.4464 65.3366 49.4474L64.8406 49.4492L64.8451 50.6492L65.341 50.6474C65.6184 50.6464 65.7565 50.5072 65.7555 50.2299L65.7541 49.8619ZM62.6326 49.4574L62.6371 50.6574L63.4851 50.6543L63.4806 49.4543L62.6326 49.4574ZM60.8406 49.4641C60.5633 49.4651 60.4251 49.6043 60.4262 49.8816L60.4275 50.2496C60.4286 50.5269 60.5677 50.6651 60.8451 50.6641L61.2931 50.6624L61.2886 49.4624L60.8406 49.4641ZM61.2836 48.1184L61.281 47.3984L59.233 47.406C58.7957 47.4076 58.5761 47.1578 58.5742 46.6564C58.5724 46.1551 58.7848 45.9037 59.2114 45.9021L67.0194 45.8731C67.4567 45.8715 67.6763 46.1214 67.6781 46.6227C67.68 47.124 67.4623 47.3755 67.0249 47.3771L64.833 47.3853L64.8356 48.1053L66.6276 48.0986C67.1396 48.0967 67.3966 48.3518 67.3985 48.8638L67.4072 51.2157C67.4091 51.7277 67.154 51.9847 66.642 51.9866L59.6661 52.0124C59.1541 52.0143 58.8971 51.7593 58.8952 51.2473L58.8865 48.8953C58.8846 48.3833 59.1397 48.1264 59.6517 48.1245L61.2836 48.1184ZM66.1001 52.5486C66.5374 52.547 66.757 52.7862 66.7588 53.2662C66.7605 53.7462 66.5428 53.987 66.1054 53.9886L60.2335 54.0104C59.7961 54.012 59.5766 53.7728 59.5748 53.2928C59.573 52.8128 59.7908 52.572 60.2281 52.5704L66.1001 52.5486ZM58.6305 53.2163C58.8022 53.4823 58.7022 53.8347 58.3304 54.2734C57.9694 54.7014 57.7028 54.7184 57.5306 54.3244L56.9982 53.1263L57.0221 59.5903C57.0238 60.0276 56.7366 60.2474 56.1606 60.2495C55.5846 60.2516 55.2958 60.034 55.2942 59.5967L55.2719 53.5807C54.7979 55.2038 54.3805 56.2881 54.0199 56.8334C53.8503 57.122 53.615 56.9469 53.3139 56.308C53.0235 55.6584 52.9791 55.1786 53.1806 54.8685C53.4036 54.5903 53.7106 53.9599 54.1016 52.9771C54.4926 51.9836 54.7983 51.0118 55.0188 50.0617L53.9148 50.0657C53.4775 50.0674 53.2577 49.7748 53.2556 49.1882C53.2534 48.6015 53.471 48.3074 53.9083 48.3058L55.2523 48.3008L55.2437 45.9808C55.2421 45.5435 55.5292 45.3237 56.1052 45.3216C56.6812 45.3195 56.9701 45.5371 56.9717 45.9744L56.9803 48.2944L57.8763 48.291C58.3136 48.2894 58.5333 48.5819 58.5355 49.1686C58.5377 49.7553 58.3201 50.0494 57.8828 50.051L56.9868 50.0544L56.9894 50.7584C57.1823 51.003 57.5041 51.4764 57.9547 52.1788C58.4159 52.8704 58.6412 53.2162 58.6305 53.2163ZM59.5892 57.1808C59.8435 56.7105 60.2429 56.5543 60.7875 56.7123C61.3427 56.8596 61.4985 57.163 61.2549 57.6226C60.9481 58.3064 60.481 58.9215 59.8537 59.4678C59.5456 59.7889 59.1509 59.7797 58.6696 59.4402C58.199 59.1113 58.1339 58.8022 58.4742 58.5129C59.0061 58.1269 59.3778 57.6829 59.5892 57.1808ZM67.7426 55.3745C67.7444 55.8652 67.5267 56.1113 67.0893 56.113L63.9533 56.1246L63.9661 59.5646C63.9677 60.0019 63.6859 60.2216 63.1205 60.2237C62.5552 60.2258 62.2717 60.0082 62.2701 59.5708L62.2574 56.1309L59.2814 56.1419C58.844 56.1435 58.6245 55.899 58.6227 55.4083C58.6208 54.907 58.8385 54.6555 59.2759 54.6539L67.0838 54.625C67.5211 54.6233 67.7407 54.8732 67.7426 55.3745ZM65.0474 57.7685C64.7153 57.3751 64.7781 57.0602 65.2359 56.8238C65.6937 56.5875 66.0566 56.6341 66.3245 56.9638L67.53 58.4473C67.7979 58.777 67.687 59.0868 67.1974 59.3766C66.7078 59.6664 66.3556 59.6144 66.1408 59.2205C65.9794 58.8478 65.615 58.3638 65.0474 57.7685ZM81.4192 50.1078L81.4179 49.7718C81.4169 49.5051 81.2778 49.3723 81.0004 49.3733L78.9204 49.3811C78.6431 49.3821 78.5049 49.5159 78.5059 49.7826L78.5072 50.1186L81.4192 50.1078ZM81.4265 52.0758L81.4237 51.3398L78.5117 51.3506L78.5145 52.0866L81.4265 52.0758ZM81.0178 54.0613C81.2951 54.0603 81.4333 53.9211 81.4323 53.6438L81.431 53.2918L78.519 53.3026L78.5203 53.6546C78.5213 53.9319 78.6605 54.07 78.9378 54.069L81.0178 54.0613ZM76.8226 48.8768C76.8207 48.3648 77.0757 48.1079 77.5877 48.106L78.8677 48.1012L79.1365 47.2362L76.9765 47.2442C76.5392 47.2459 76.3197 47.028 76.3181 46.5907C76.3164 46.1427 76.5343 45.9179 76.9716 45.9163L82.9876 45.894C83.4249 45.8923 83.6444 46.1155 83.646 46.5635C83.6477 47.0008 83.4298 47.2203 82.9925 47.2219L80.8485 47.2299L80.4677 48.0953L82.4197 48.0881C82.9317 48.0862 83.1886 48.3412 83.1905 48.8532L83.2118 54.5812C83.2137 55.0932 82.9586 55.3501 82.4466 55.352L77.6146 55.3699C77.1026 55.3718 76.8457 55.1168 76.8438 54.6048L76.8226 48.8768ZM81.5405 56.9554C81.1982 56.69 81.0265 56.4186 81.0255 56.1413C81.0352 55.8639 81.2532 55.6818 81.6795 55.5949C81.6896 55.4455 81.9299 55.5353 82.4005 55.8642C82.9351 56.1929 83.2078 56.4052 83.2189 56.5012C83.4973 56.7988 83.589 57.0865 83.4941 57.3642C83.3991 57.6418 83.1118 57.8402 82.6323 57.9594L82.2633 57.7047C81.9096 57.2367 81.6687 56.9869 81.5405 56.9554ZM77.649 56.0098C77.9784 55.6566 78.3994 55.5644 78.912 55.7331C79.4353 55.8912 79.5323 56.1682 79.2031 56.5641C78.7998 57.1202 78.4331 57.4736 78.103 57.6241C77.6985 57.8603 77.2935 57.9471 76.888 57.8846C76.493 57.8114 76.2254 57.5458 76.085 57.0876L76.3562 56.8786C77.0059 56.5989 77.4368 56.3093 77.649 56.0098ZM73.9229 47.8956L73.9217 47.5596C73.9206 47.2822 73.7815 47.1441 73.5041 47.1451L72.0481 47.1505C71.7708 47.1515 71.6327 47.2907 71.6337 47.5681L71.6349 47.904L73.9229 47.8956ZM73.5143 49.8811C73.7916 49.8801 73.9297 49.7409 73.9287 49.4636L73.9274 49.0956L71.6394 49.104L71.6407 49.472C71.6418 49.7494 71.7809 49.8875 72.0583 49.8865L73.5143 49.8811ZM74.9074 45.8759C75.4194 45.874 75.6764 46.1291 75.6783 46.6411L75.6921 50.385C75.694 50.897 75.439 51.154 74.927 51.1559L70.719 51.1715C70.207 51.1734 69.9501 50.9183 69.9482 50.4063L69.9343 46.6623C69.9324 46.1503 70.1875 45.8934 70.6995 45.8915L74.9074 45.8759ZM73.8095 56.136L73.8149 57.608C73.8159 57.8854 73.9125 58.0503 74.1047 58.103C74.6921 58.2821 75.7804 58.3688 77.3697 58.3629C81.007 58.3494 83.1616 58.3254 83.8335 58.2909C84.0361 58.2795 84.0371 58.5355 83.8364 59.0589C83.6356 59.5823 83.3166 59.8448 82.8793 59.8465L77.3753 59.8669C75.722 59.873 74.4095 59.7392 73.4378 59.4654C72.4768 59.2023 71.6961 58.6612 71.0958 57.8421C70.8543 58.8777 70.5954 59.5346 70.3191 59.813C70.0963 60.1445 69.7974 60.0923 69.4225 59.6563C69.0582 59.231 68.9875 58.8526 69.2103 58.5211C69.391 58.3498 69.5545 57.8638 69.7009 57.0633C69.8472 56.2521 69.9245 55.5158 69.9327 54.8544C69.9521 54.353 70.2126 54.1014 70.7139 54.0995C71.2259 54.0976 71.472 54.3207 71.4524 54.7688C71.4635 54.9074 71.4435 55.2648 71.3923 55.841L72.213 57.102L72.1995 53.454L69.8955 53.4625C69.4582 53.4642 69.2387 53.2356 69.237 52.777C69.2353 52.3183 69.4531 52.0882 69.8904 52.0865L75.7464 52.0648C76.1837 52.0632 76.4032 52.2917 76.4049 52.7504C76.4066 53.2091 76.1888 53.4392 75.7515 53.4408L73.7995 53.4481L73.8044 54.7601L75.4523 54.7539C75.8897 54.7523 76.1092 54.9808 76.1109 55.4395C76.1126 55.8982 75.8948 56.1283 75.4574 56.1299L73.8095 56.136ZM90.7829 51.0971C91.3357 50.6044 91.7566 50.4855 92.0456 50.7404C92.3023 50.9315 92.7679 51.3671 93.4424 52.0472C94.1276 52.7274 94.556 53.1845 94.7275 53.4185C94.9846 53.7055 94.826 54.0955 94.2519 54.5883C93.6883 55.081 93.262 55.1626 92.9728 54.833C92.2226 53.8971 91.4035 53.0575 90.5154 52.3141C90.1408 51.9848 90.23 51.5791 90.7829 51.0971ZM105.731 52.1137C106.146 52.0055 106.393 52.2392 106.469 52.815C106.557 53.38 106.393 53.7166 105.977 53.8248L104.874 54.1489L104.889 58.0849C104.891 58.5542 104.839 58.9117 104.733 59.1574C104.638 59.4138 104.463 59.6065 104.207 59.7354C103.803 59.9716 103.296 60.0801 102.688 60.061C102.102 60.0845 101.717 59.8086 101.533 59.2333C101.36 58.6579 101.471 58.3802 101.866 58.4001C101.887 58.4 102.181 58.3989 102.746 58.3968C102.949 58.3961 103.05 58.2943 103.049 58.0917L103.036 54.6677L101.837 54.9762C101.422 55.0844 101.154 54.8347 101.035 54.2271C100.915 53.6196 101.068 53.267 101.495 53.1694L103.029 52.8117L103.019 49.9317L101.755 49.9364C101.317 49.938 101.098 49.6455 101.095 49.0589C101.093 48.4615 101.311 48.1621 101.748 48.1604L103.012 48.1557L103.003 45.8198C103.002 45.3824 103.305 45.1626 103.913 45.1604C104.532 45.1581 104.842 45.3756 104.843 45.8129L104.852 48.1489L106.02 48.1446L106.019 47.8246C106.017 47.3126 106.272 47.0557 106.784 47.0538L107.728 47.0503L107.723 45.7863C107.722 45.3489 108.036 45.1291 108.665 45.1268C109.294 45.1244 109.61 45.3419 109.611 45.7793L109.616 47.0433L109.984 47.0419C110.421 47.0403 110.641 47.3328 110.643 47.9195C110.645 48.5061 110.428 48.8003 109.991 48.8019L109.623 48.8033L109.625 49.5392C109.627 49.9766 109.313 50.1964 108.684 50.1987C108.054 50.2011 107.739 49.9836 107.737 49.5462L107.735 48.8102L106.391 48.8152L106.392 49.1512C106.394 49.6632 106.139 49.9202 105.627 49.9221L104.859 49.9249L104.868 52.3409L105.731 52.1137ZM110.148 52.4653L108.932 52.4698C108.655 52.4709 108.517 52.61 108.518 52.8874L108.522 54.1674L110.154 54.1613L110.148 52.4653ZM113.562 54.1487L113.558 52.8687C113.557 52.5914 113.417 52.4532 113.14 52.4542L111.844 52.459L111.85 54.155L113.562 54.1487ZM111.863 57.563L113.159 57.5582C113.436 57.5572 113.574 57.418 113.573 57.1407L113.568 55.7647L111.856 55.771L111.863 57.563ZM108.528 55.7834L108.533 57.1593C108.535 57.4367 108.674 57.5748 108.951 57.5738L110.167 57.5693L110.16 55.7773L108.528 55.7834ZM107.597 59.2268C107.085 59.2287 106.828 58.9737 106.826 58.4617L106.801 51.5817C106.799 51.0697 107.054 50.8128 107.566 50.8109L114.606 50.7848C115.107 50.7829 115.359 51.038 115.361 51.55L115.386 58.43C115.388 58.942 115.138 59.1989 114.637 59.2007L107.597 59.2268ZM114.144 46.9785L115.296 46.9742C115.733 46.9726 115.953 47.2651 115.955 47.8518C115.957 48.4384 115.74 48.7326 115.302 48.7342L114.15 48.7385L114.153 49.5065C114.155 49.9438 113.836 50.1636 113.196 50.166C112.566 50.1683 112.251 49.9509 112.249 49.5135L112.246 48.7455L111.83 48.7471C111.393 48.7487 111.173 48.4562 111.171 47.8695C111.169 47.2828 111.386 46.9887 111.824 46.9871L112.24 46.9855L112.235 45.7535C112.234 45.3162 112.547 45.0964 113.177 45.0941C113.817 45.0917 114.138 45.3092 114.139 45.7465L114.144 46.9785ZM130.285 54.8547L131.101 54.7877C131.538 54.7647 131.779 55.0252 131.824 55.569C131.879 56.1128 131.688 56.4175 131.251 56.4831L131.059 56.5318L130.435 56.5342C129.635 56.5371 129.107 56.3791 128.85 56.06C128.592 55.741 128.462 55.1388 128.459 54.2535L128.448 51.2455C128.446 50.8082 128.717 50.5885 129.261 50.5865C129.816 50.5844 130.094 50.8021 130.096 51.2394L130.109 54.7434C130.152 54.8179 130.21 54.855 130.285 54.8547ZM126.454 57.3969C125.825 57.3993 125.51 57.1818 125.508 56.7444L125.482 49.6245L122.618 49.6351C122.18 49.6367 121.961 49.3442 121.958 48.7575C121.956 48.1709 122.174 47.8767 122.611 47.8751L125.475 47.8645L125.468 45.8805C125.466 45.4432 125.78 45.2233 126.409 45.221C127.049 45.2186 127.37 45.4361 127.372 45.8734L127.379 47.8574L129.539 47.8494L128.398 46.5096C128.12 46.18 128.214 45.8757 128.683 45.5966C129.162 45.3175 129.546 45.3374 129.835 45.6563L130.526 46.3898C130.954 46.8575 130.902 47.263 130.37 47.6063L130.003 47.8477L130.979 47.8441C131.416 47.8425 131.636 48.135 131.638 48.7216C131.641 49.3083 131.423 49.6025 130.986 49.6041L127.386 49.6174L127.412 56.7374C127.414 57.1747 127.094 57.3946 126.454 57.3969ZM123.725 50.655C124.269 50.653 124.542 50.8706 124.544 51.308L124.547 52.076C124.555 54.2946 124.065 55.8111 123.076 56.6254C122.789 56.9038 122.421 56.8732 121.971 56.5335C121.533 56.1938 121.462 55.8794 121.76 55.5903C122.547 54.9794 122.937 53.7993 122.931 52.0499L122.928 51.314C122.926 50.8766 123.192 50.657 123.725 50.655ZM120.704 47.0182C120.993 47.3371 120.898 47.6788 120.42 48.0432C119.941 48.397 119.568 48.4091 119.3 48.0794L117.998 46.4842C117.73 46.1545 117.83 45.8448 118.299 45.5551C118.767 45.2653 119.146 45.2799 119.435 45.5989L120.704 47.0182ZM120.165 52.6362C120.602 52.6239 120.97 52.6759 121.269 52.7921C121.579 52.8976 121.692 53.1852 121.609 53.6549C121.505 54.4872 121.242 55.4162 120.819 56.4418C121.28 57.1228 121.911 57.5684 122.712 57.7788C123.523 57.9891 124.644 58.097 126.073 58.1023C128.292 58.0941 130.131 58.018 131.592 57.8739C131.997 57.8297 132.094 58.1014 131.883 58.6888C131.683 59.2762 131.391 59.5813 131.007 59.6041C129.983 59.6825 128.506 59.7253 126.575 59.7325C124.655 59.7396 123.241 59.6168 122.334 59.3642C121.426 59.1116 120.683 58.6183 120.104 57.8845C119.553 58.7825 119.043 59.3711 118.575 59.6501C118.234 59.9181 117.861 59.8395 117.454 59.4143C117.047 58.9891 117.008 58.6639 117.338 58.4387C118.488 57.7731 119.278 56.5222 119.708 54.6859C119.803 54.3229 119.712 54.1419 119.434 54.1429L118.506 54.1464L118.043 54.1801C117.691 54.32 117.413 54.1344 117.208 53.6232C117.015 53.1119 117.104 52.7649 117.477 52.5822L117.732 52.3412C118.008 52.0735 118.396 51.5708 118.894 50.8329C119.128 50.4907 119.106 50.3201 118.828 50.3211L117.884 50.3246C117.447 50.3263 117.227 50.0764 117.225 49.5751C117.224 49.0631 117.441 48.8063 117.879 48.8047L120.439 48.7952L120.534 48.7628C120.972 48.6972 121.286 48.76 121.479 48.9513C121.683 49.1426 121.62 49.4735 121.291 49.944C120.559 51.0347 119.981 51.8529 119.556 52.3985C119.418 52.5803 119.488 52.6654 119.765 52.6537L120.165 52.6362ZM140.998 53.055L140.99 50.879C140.989 50.6017 140.85 50.4635 140.573 50.4645L139.341 50.4691C138.829 50.471 138.572 50.216 138.57 49.704L138.556 45.816C138.554 45.3787 138.82 45.159 139.353 45.157C139.897 45.155 140.17 45.3727 140.172 45.81L140.173 46.242L142.029 46.2351C142.467 46.2335 142.686 46.494 142.688 47.0167C142.69 47.5393 142.472 47.8015 142.035 47.8031L140.179 47.81L140.182 48.562C140.183 48.8393 140.322 48.9775 140.599 48.9764L141.799 48.988C142.311 48.9861 142.568 49.2411 142.57 49.7531L142.582 53.0491C142.584 53.3798 142.542 53.6253 142.457 53.7856C142.383 53.9459 142.224 54.0851 141.979 54.2034C141.734 54.3216 141.441 54.376 141.099 54.3666C140.502 54.3795 140.133 54.1942 139.993 53.8107C139.853 53.4166 140.002 53.2187 140.439 53.2171L140.727 53.216C140.908 53.226 140.999 53.1723 140.998 53.055ZM138.657 51.4797C138.762 51.0633 139.049 50.8969 139.519 50.9805C139.988 51.0534 140.182 51.394 140.099 52.0023C140.058 52.6105 139.916 53.075 139.672 53.3959C139.513 53.7058 139.23 53.7389 138.824 53.495C138.418 53.2406 138.267 52.9051 138.372 52.4887L138.657 51.4797ZM144.684 54.5133L144.759 53.217L143.799 53.2206C143.362 53.2222 143.142 52.9617 143.14 52.439C143.138 51.9164 143.356 51.6542 143.793 51.6526L144.817 51.6488L144.812 50.2728L143.9 50.2762C143.463 50.2778 143.243 50.0173 143.241 49.4946C143.239 48.972 143.457 48.7098 143.894 48.7082L144.902 48.7045L144.899 47.7445C144.898 47.4672 144.759 47.329 144.481 47.33L143.729 47.3328C143.292 47.3344 143.072 47.0633 143.07 46.5193C143.068 45.9753 143.286 45.7025 143.723 45.7008L145.883 45.6928C146.395 45.6909 146.647 45.978 146.638 46.554C146.659 49.2526 146.605 51.9035 146.476 54.5067L147.212 54.504C147.649 54.5023 147.869 54.7949 147.871 55.3815C147.873 55.9682 147.656 56.2623 147.218 56.264L143.362 56.2782C145.072 57.0719 146.28 57.6914 146.985 58.1368C147.295 58.317 147.238 58.6479 146.813 59.1295C146.399 59.6217 146.021 59.7564 145.679 59.5337C144.77 58.9077 143.824 58.3672 142.841 57.9122C142.157 57.5627 142.006 57.1366 142.388 56.6339L142.658 56.2809L137.906 56.2985L138.516 56.7922C139.008 57.1957 138.973 57.5799 138.409 57.9446C137.579 58.513 136.439 59.0879 134.991 59.6693C134.554 59.8629 134.154 59.7204 133.789 59.2417C133.436 58.7737 133.488 58.4482 133.946 58.2652C135.235 57.7804 136.443 57.1252 137.57 56.2997L133.859 56.3135C133.421 56.3151 133.201 56.0226 133.199 55.4359C133.197 54.8492 133.415 54.5551 133.852 54.5535L134.636 54.5506L134.352 47.0156C134.34 46.5356 134.552 46.2095 134.988 46.0372L136.778 45.3266C137.183 45.1757 137.519 45.3612 137.788 45.8828C138.067 46.3938 137.999 46.7087 137.583 46.8276L136.449 47.1678C136.193 47.2434 136.066 47.4146 136.067 47.6812L136.118 48.721L137.286 48.7167C137.724 48.7151 137.943 48.9756 137.945 49.4983C137.947 50.0103 137.729 50.2671 137.292 50.2687L136.172 50.2729L136.225 51.6487L137.345 51.6445C137.783 51.6429 138.002 51.9034 138.004 52.4261C138.006 52.9381 137.788 53.1949 137.351 53.1965L136.279 53.2005L136.332 54.5443L144.684 54.5133ZM152.955 45.7466C153.393 45.745 153.612 45.9788 153.614 46.4482C153.616 46.9068 153.398 47.137 152.961 47.1386L150.177 47.1489C149.739 47.1505 149.52 46.922 149.518 46.4634C149.516 45.994 149.734 45.7586 150.172 45.7569L152.955 45.7466ZM153.119 55.3781L153.12 55.6981C153.121 55.9647 153.261 56.0976 153.538 56.0965L159.634 56.0739C159.911 56.0729 160.049 55.9391 160.048 55.6724L160.047 55.3524L153.119 55.3781ZM153.113 53.6181L153.115 54.3061L160.043 54.2804L160.041 53.5924L153.113 53.6181ZM153.522 51.8566C153.245 51.8576 153.107 51.9968 153.108 52.2741L153.109 52.5461L160.037 52.5204L160.036 52.2484C160.035 51.9711 159.895 51.8329 159.618 51.834L153.522 51.8566ZM161.987 56.4172C161.989 56.9292 161.734 57.1862 161.222 57.1881L159.654 57.1939C161.352 57.8169 162.522 58.2872 163.163 58.6049C163.484 58.753 163.357 58.9988 162.782 59.3423C162.218 59.6857 161.759 59.7621 161.407 59.5714C160.594 59.0944 159.745 58.7082 158.858 58.4128C158.132 58.1275 158.013 57.7866 158.503 57.3901L158.742 57.1972L154.23 57.214L154.759 57.452C155.336 57.7165 155.348 58.0152 154.794 58.3479C154.049 58.8413 152.904 59.2989 151.359 59.7206C150.88 59.8717 150.405 59.7135 149.934 59.2459C149.462 58.789 149.477 58.5116 149.978 58.4137C151.3 58.1635 152.504 57.7644 153.59 57.2163L152.054 57.222C151.542 57.2239 151.285 56.9689 151.283 56.4569L151.265 51.4969C151.263 50.9849 151.518 50.728 152.03 50.7261L161.198 50.6921C161.71 50.6902 161.967 50.9452 161.969 51.4572L161.987 56.4172ZM159.185 47.2915L159.187 47.7875C159.99 48.5739 161.261 49.0012 163 49.0694C163.608 49.1098 163.737 49.3867 163.387 49.9C163.037 50.4026 162.6 50.6176 162.077 50.5448C160.775 50.4003 159.638 49.9032 158.664 49.0535C157.963 49.8774 156.743 50.3833 155.005 50.571C154.366 50.6588 153.922 50.5057 153.676 50.112L153.402 49.665L149.818 49.6783C149.381 49.6799 149.161 49.4407 149.159 48.9607C149.158 48.47 149.375 48.2239 149.813 48.2223L153.221 48.2096C153.733 48.2078 153.99 48.4628 153.991 48.9748C153.992 49.1135 154.088 49.1718 154.28 49.1497C155.549 49.017 156.412 48.7845 156.87 48.4521C157.253 48.1734 157.443 47.8687 157.442 47.538L157.441 47.298L156.481 47.3016C156.131 47.8575 155.903 48.173 155.797 48.2481C155.51 48.5372 155.131 48.5226 154.661 48.2043C154.19 47.8754 154.104 47.5664 154.401 47.2773C154.944 46.8593 155.315 46.3139 155.515 45.6411C155.716 45.1177 156.094 44.919 156.649 45.0449C157.204 45.1602 157.392 45.4528 157.212 45.9228L162.044 45.8249L162.428 45.9515C163.037 46.1306 163.182 46.4927 162.864 47.0379L162.197 48.1924C161.985 48.5665 161.633 48.6638 161.142 48.4843C160.65 48.3048 160.516 48.0279 160.739 47.6538C160.887 47.4079 160.823 47.2855 160.545 47.2865L159.185 47.2915ZM168.925 46.2474C169.3 46.4594 169.29 46.8221 168.897 47.3355C168.515 47.8383 168.143 47.973 167.779 47.7397L166.271 46.7373C165.908 46.5039 165.906 46.1626 166.267 45.7133C166.628 45.2533 166.996 45.1292 167.37 45.3412L168.925 46.2474ZM168.157 50.4743C168.531 50.6862 168.527 51.0489 168.145 51.5624C167.774 52.0757 167.406 52.2211 167.043 51.9984L165.535 51.044C165.172 50.8107 165.165 50.4694 165.515 50.0201C165.876 49.5601 166.249 49.4307 166.634 49.6319L168.157 50.4743ZM167.147 54.2541C167.337 53.7414 167.689 53.6601 168.202 54.0102C168.726 54.3496 168.898 54.7596 168.719 55.2403C168.265 56.5753 167.758 57.8518 167.197 59.0699C167.028 59.4652 166.649 59.488 166.061 59.1381C165.484 58.7989 165.285 58.4583 165.465 58.1163C166.059 57.0155 166.619 55.728 167.147 54.2541ZM172.177 55.9634C172.389 55.4613 172.772 55.2892 173.328 55.4472C173.894 55.6051 174.065 55.9351 173.843 56.4373C173.537 57.1851 173.155 57.8638 172.699 58.4735C172.465 58.8157 172.097 58.8331 171.595 58.5256C171.103 58.2288 170.985 57.9092 171.239 57.5669C171.654 57.0641 171.966 56.5296 172.177 55.9634ZM173.892 52.3091L173.894 52.7891C173.895 53.0664 174.034 53.2045 174.311 53.2035L177.175 53.1929C177.453 53.1919 177.591 53.0527 177.59 52.7754L177.588 52.2954L173.892 52.3091ZM174.3 50.1475C174.023 50.1486 173.884 50.2877 173.885 50.5651L173.887 51.0291L177.583 51.0154L177.581 50.5514C177.58 50.274 177.441 50.1359 177.164 50.1369L174.3 50.1475ZM179.353 53.7768C179.355 54.2888 179.1 54.5458 178.588 54.5477L176.556 54.5552L176.429 59.0037C176.334 59.2387 176.153 59.4154 175.887 59.5337C175.461 59.738 174.986 59.8251 174.464 59.795C173.898 59.8078 173.529 59.5425 173.357 58.9991C173.195 58.4557 173.332 58.1832 173.77 58.1816L174.506 58.1788C174.676 58.1889 174.761 58.1192 174.761 57.9699L174.748 54.5619L172.988 54.5684C172.476 54.5703 172.219 54.3153 172.217 53.8033L172.202 49.5633C172.2 49.0513 172.455 48.7944 172.967 48.7925L174.327 48.7874L174.722 47.4259L172.05 47.4359C171.773 47.4369 171.634 47.5761 171.635 47.8534L171.644 50.1414C171.66 54.5787 171.032 57.6744 169.758 59.4284C169.578 59.7171 169.221 59.6918 168.686 59.3524C168.151 59.013 167.996 58.6776 168.218 58.3461C168.547 57.9182 168.865 57.1437 169.17 56.0226C169.475 54.8908 169.658 53.9034 169.719 53.0605C169.78 52.2176 169.808 51.2469 169.804 50.1482L169.79 46.5002C169.788 45.9882 170.044 45.7313 170.556 45.7294L179.115 45.6977C179.553 45.696 179.773 45.9832 179.775 46.5592C179.777 47.1245 179.559 47.408 179.122 47.4096L175.106 47.4245L175.938 47.5814C176.568 47.6858 176.724 48.0159 176.406 48.5717L176.279 48.7802L178.567 48.7717C179.079 48.7698 179.336 49.0249 179.338 49.5369L179.353 53.7768ZM177.782 57.2227C177.546 56.7329 177.491 56.2957 177.617 55.9113C177.755 55.5268 178.047 55.3283 178.495 55.316C178.601 55.113 178.815 55.3255 179.138 55.9536C179.664 56.9117 179.916 57.3961 179.895 57.4068C180.002 57.6304 179.934 57.86 179.689 58.0956C179.456 58.3205 179.062 58.4873 178.507 58.596L178.283 58.3888C178.142 57.952 177.975 57.5633 177.782 57.2227Z" fill="black" fill-opacity="0.85"/>
</g>
<defs>
<clipPath id="clip0_2306_5987">
<rect width="200" height="90" fill="white"/>
</clipPath>
</defs>
</svg>
