<svg width="200" height="90" viewBox="0 0 200 90" fill="none" xmlns="http://www.w3.org/2000/svg">
<g clip-path="url(#clip0_2306_6031)">
<rect width="200" height="90" fill="#BDE3FF"/>
<path fill-rule="evenodd" clip-rule="evenodd" d="M-6.18027 85.5257C-5.5206 81.3514 -9.94765 77.2571 -7.65473 73.2393C-4.94813 68.4966 -1.65241 61.9915 7.77154 61.0783C17.9972 60.0873 23.5998 68.8258 33.9785 69.2048C45.8176 69.6371 56.5881 60.196 66.8872 63.2371C76.2425 65.9996 70.121 74.0119 68.9752 79.5387C68.1676 83.4341 61.5364 86.4306 61.2669 90.3457C60.8502 96.3973 75.7689 103.853 67.0229 107.895C58.3557 111.9 45.7383 103.802 34.2527 102.83C27.3162 102.243 20.5655 103.925 13.6182 103.373C4.65786 102.66 -7.2514 103.227 -11.7526 99.1698C-16.3208 95.0519 -6.92748 90.2539 -6.18027 85.5257Z" fill="#005EA5"/>
<path fill-rule="evenodd" clip-rule="evenodd" d="M28.4743 10.5302C32.6486 10.8717 36.7429 8.58004 40.7607 9.76696C45.5034 11.168 52.0085 12.874 52.9217 17.7523C53.9127 23.0456 45.1742 25.9458 44.7952 31.3183C44.3629 37.4467 53.804 43.0221 50.7629 48.3534C48.0004 53.1961 39.9881 50.0274 34.4613 49.4342C30.5659 49.0162 27.5694 45.5836 23.6543 45.444C17.6027 45.2284 10.1469 52.9509 6.10508 48.4236C2.09968 43.9371 10.1975 37.4057 11.1701 31.4602C11.7575 27.8695 10.0747 24.3751 10.6274 20.7788C11.3402 16.1405 10.7727 9.97575 14.8302 7.64571C18.9481 5.281 23.7461 10.1434 28.4743 10.5302Z" fill="#2382C9"/>
<path fill-rule="evenodd" clip-rule="evenodd" d="M173.474 4.53021C177.649 4.87169 181.743 2.58004 185.761 3.76696C190.503 5.16803 197.008 6.87405 197.922 11.7523C198.913 17.0456 190.174 19.9458 189.795 25.3183C189.363 31.4467 198.804 37.0221 195.763 42.3534C193 47.1961 184.988 44.0274 179.461 43.4342C175.566 43.0162 172.569 39.5836 168.654 39.444C162.603 39.2284 155.147 46.9509 151.105 42.4236C147.1 37.9371 155.198 31.4057 156.17 25.4602C156.757 21.8695 155.075 18.3751 155.627 14.7788C156.34 10.1405 155.773 3.97575 159.83 1.64571C163.948 -0.719004 168.746 4.14342 173.474 4.53021Z" fill="#69BAF5"/>
<path fill-rule="evenodd" clip-rule="evenodd" d="M117.063 7.20494C131.49 7.9797 144.155 11.9054 154.996 17.5775C166.733 23.7188 176.896 30.8598 179.688 39.9711C183.097 51.0949 184.354 63.7453 171.749 72.2549C158.691 81.0707 136.857 81.4742 117.063 82.2497C95.2362 83.1048 71.8992 84.7511 54.6033 76.8446C35.6156 68.1646 20.8565 53.9771 24.5773 39.9711C28.0889 26.7526 52.1053 19.9805 71.5388 13.0955C85.3864 8.18958 100.98 6.34119 117.063 7.20494Z" fill="#C9F4FF"/>
<path d="M177.967 51.2804L196.726 84.9582L159.338 85.0303L177.967 51.2804Z" fill="#228CDA"/>
<path d="M173.373 78.4648H182.74" stroke="black" stroke-width="2" stroke-linecap="round"/>
<ellipse cx="171.472" cy="68.8528" rx="4.64254" ry="4.79533" transform="rotate(-0.110477 171.472 68.8528)" stroke="#FA8F21" stroke-width="2"/>
<ellipse cx="184.669" cy="68.8118" rx="4.64254" ry="4.79533" transform="rotate(-0.110477 184.669 68.8118)" stroke="#FA8F21" stroke-width="2"/>
<path d="M175.55 68.4723C175.55 68.4723 176.816 68.054 177.654 68.0337C178.594 68.011 180.025 68.4637 180.025 68.4637" stroke="#FA8F21" stroke-width="2"/>
<ellipse cx="171.471" cy="68.8518" rx="1.89842" ry="1.9609" transform="rotate(-0.110477 171.471 68.8518)" fill="black"/>
<ellipse cx="184.67" cy="68.8264" rx="1.89842" ry="1.9609" transform="rotate(-0.110477 184.67 68.8264)" fill="black"/>
<path d="M87.1946 32.6122L83.7646 32.6249C84.2019 33.6833 84.8053 34.6044 85.5749 35.3882C86.2787 34.6056 86.8186 33.6803 87.1946 32.6122ZM89.6503 31.4431C89.9236 31.4421 90.061 31.6349 90.0624 32.0216C90.0639 32.4082 89.9279 32.6021 89.6546 32.6031L88.5346 32.6072C88.0398 34.0224 87.3576 35.2183 86.4879 36.1948C87.5242 36.9977 88.6395 37.5369 89.8339 37.8125C90.1275 37.878 90.1416 38.0946 89.8763 38.4623C89.611 38.8366 89.3349 38.981 89.0479 38.8954C87.7934 38.5734 86.7014 38.0274 85.7718 37.2575C85.6314 37.138 85.4914 37.1352 85.3518 37.2491C84.4147 38.0259 83.2801 38.6001 81.9482 38.9717C81.6618 39.0661 81.398 38.9271 81.1566 38.5546C80.9152 38.1888 80.9411 37.9654 81.2341 37.8843C82.5263 37.5595 83.6742 37.0053 84.678 36.2216C83.8078 35.2714 83.0933 34.0741 82.5346 32.6295L81.3747 32.6338C81.1013 32.6348 80.9639 32.442 80.9625 32.0553C80.9611 31.6686 81.097 31.4748 81.3704 31.4738L85.1803 31.4597L84.7665 30.4312C84.6656 30.1782 84.8249 29.991 85.2444 29.8694C85.6706 29.7412 85.9375 29.8002 86.0451 30.0464L86.3677 30.7352C86.5021 31.0348 86.4128 31.2351 86.0999 31.3362L85.7103 31.4577L89.6503 31.4431ZM96.1379 36.1791L97.9179 36.1725C97.2078 35.2418 96.6104 34.1473 96.1257 32.8891L96.1379 36.1791ZM93.0379 36.1906L94.8779 36.1837L94.7957 32.894C94.3536 34.129 93.7677 35.2279 93.0379 36.1906ZM99.8935 32.2751C99.8949 32.6751 99.759 32.8756 99.4857 32.8766L97.3757 32.8845C97.7051 33.6299 98.1144 34.3217 98.6034 34.9599C99.0924 35.5981 99.5174 36.0365 99.8783 36.2752C100.092 36.4211 100.043 36.6679 99.731 37.0158C99.419 37.3636 99.1659 37.4445 98.9719 37.2586L98.1991 36.5114L98.2006 36.9014C98.2018 37.2214 98.0424 37.382 97.7224 37.3832L96.1424 37.3891L96.1471 38.6691C96.1481 38.9424 95.9386 39.0798 95.5187 39.0814C95.0987 39.0829 94.8882 38.9471 94.8871 38.6737L94.8824 37.3937L93.2624 37.3997C92.9424 37.4009 92.7818 37.2415 92.7806 36.9215L92.7791 36.5115C92.4539 36.9061 92.1849 37.1837 91.9722 37.3445C91.7595 37.5253 91.5059 37.4563 91.2114 37.1373C90.9235 36.8117 90.8793 36.5719 91.0787 36.4178C91.4445 36.1765 91.8695 35.7249 92.3537 35.0631C92.8446 34.3946 93.2486 33.6731 93.5657 32.8986L91.5257 32.9061C91.2524 32.9072 91.115 32.7077 91.1135 32.3077C91.112 31.901 91.2479 31.6972 91.5213 31.6962L94.8612 31.6838L94.8556 30.1638C94.8546 29.8905 95.0641 29.753 95.4841 29.7515C95.9041 29.7499 96.1146 29.8858 96.1156 30.1591L96.1212 31.6791L99.4812 31.6667C99.7545 31.6656 99.8919 31.8685 99.8935 32.2751ZM108.347 33.3338C108.347 33.1605 108.26 33.0741 108.086 33.0748L106.446 33.0808C106.824 34.2528 107.461 35.0838 108.356 35.5738L108.347 33.3338ZM102.967 33.0937C102.793 33.0944 102.707 33.1814 102.707 33.3547L102.716 35.7047C103.668 35.1745 104.311 34.3021 104.646 33.0875L102.967 33.0937ZM109.082 31.9111C109.402 31.9099 109.563 32.0693 109.564 32.3893L109.583 37.6392C109.585 37.9726 109.546 38.2261 109.466 38.3997C109.387 38.58 109.221 38.7273 108.968 38.8415C108.715 38.9625 108.292 39.0207 107.698 39.0162C107.305 39.0244 107.041 38.8287 106.906 38.4292C106.778 38.0296 106.827 37.8328 107.054 37.8386C107.194 37.8448 107.551 37.8468 108.124 37.8447C108.284 37.8441 108.364 37.7704 108.363 37.6238L108.357 35.8338C108.078 36.1415 107.938 36.3087 107.939 36.3353C107.773 36.5826 107.556 36.6201 107.289 36.4477C106.567 36.0437 105.981 35.2292 105.53 34.0042C105.081 35.2859 104.458 36.1316 103.659 36.5412C103.393 36.7022 103.166 36.6597 102.979 36.4137L102.718 36.0747L102.727 38.6447C102.728 38.918 102.525 39.0554 102.119 39.0569C101.719 39.0584 101.518 38.9225 101.517 38.6492L101.494 32.4192C101.493 32.0992 101.652 31.9386 101.972 31.9374L105.032 31.9261L104.98 31.4163C104.966 31.243 104.873 31.1567 104.699 31.1573L103.679 31.1611C103.406 31.1621 103.269 30.9893 103.267 30.6426C103.266 30.2959 103.402 30.1221 103.675 30.1211L105.515 30.1143C105.829 30.1131 105.999 30.2691 106.027 30.5824L106.162 31.9219L109.082 31.9111ZM112.551 31.6182C112.378 31.6188 112.291 31.7058 112.292 31.8792L112.294 32.3092C112.295 32.5825 112.095 32.7199 111.695 32.7214C111.302 32.7228 111.105 32.5869 111.104 32.3136L111.099 30.9936C111.098 30.6736 111.257 30.513 111.577 30.5118L114.887 30.4995L114.756 30.21C114.642 29.9638 114.801 29.7932 115.234 29.6982C115.667 29.6033 115.941 29.679 116.055 29.9252L116.317 30.4942L119.407 30.4828C119.727 30.4816 119.888 30.641 119.889 30.961L119.894 32.281C119.895 32.5543 119.685 32.6918 119.265 32.6933C118.845 32.6949 118.635 32.559 118.634 32.2857L118.632 31.8557C118.631 31.6823 118.544 31.596 118.371 31.5966L112.551 31.6182ZM116.455 32.7437C116.235 32.5979 116.261 32.4078 116.533 32.1734C116.812 31.9391 117.062 31.8915 117.283 32.0307C117.53 32.1631 117.901 32.405 118.395 32.7566C118.897 33.108 119.194 33.3403 119.288 33.4532C119.462 33.6059 119.399 33.8128 119.1 34.0739C118.801 34.3351 118.568 34.3893 118.401 34.2365C118.314 34.1235 118.026 33.8813 117.538 33.5097C117.057 33.1382 116.696 32.8829 116.455 32.7437ZM113.373 32.1152C113.539 31.9145 113.815 31.8802 114.203 32.0121C114.59 32.1373 114.704 32.3069 114.544 32.5208C114.379 32.7614 114.057 33.0893 113.578 33.5044C113.106 33.9195 112.737 34.1975 112.471 34.3385C112.252 34.466 112.001 34.3736 111.72 34.0613C111.446 33.749 111.428 33.5357 111.668 33.4215C111.881 33.334 112.197 33.1295 112.616 32.808C113.034 32.4931 113.287 32.2621 113.373 32.1152ZM113.936 35.7631L117.276 35.7507C116.615 35.3065 116.093 34.8851 115.712 34.4865C115.598 34.3669 115.485 34.3707 115.372 34.4978C115.04 34.8857 114.561 35.3074 113.936 35.7631ZM113.744 37.6838C113.744 37.8572 113.831 37.9435 114.005 37.9429L117.005 37.9317C117.178 37.9311 117.264 37.8441 117.264 37.6708L117.26 36.8308L113.74 36.8438L113.744 37.6838ZM115.057 33.0989C115.202 32.8717 115.452 32.8341 115.806 32.9861C116.16 33.1382 116.284 33.2977 116.178 33.4648C117.155 34.4812 118.388 35.2599 119.877 35.8011C120.177 35.9066 120.201 36.1299 119.949 36.4708C119.697 36.8118 119.448 36.9293 119.2 36.8236C119.1 36.7773 118.873 36.6615 118.519 36.4761L118.527 38.5161C118.528 38.8361 118.368 38.9967 118.048 38.9979L113.029 39.0165C112.709 39.0177 112.548 38.8583 112.547 38.5383L112.54 36.6283C112.18 36.8096 111.941 36.9238 111.821 36.9709C111.568 37.0786 111.311 36.9695 111.05 36.6438C110.795 36.3114 110.801 36.0981 111.067 36.0037C111.8 35.7544 112.568 35.3415 113.373 34.7652C114.191 34.1888 114.752 33.6334 115.057 33.0989Z" fill="#2382C9"/>
<path d="M71.4756 48.0806L71.4729 47.3606L70.6249 47.3638L70.6276 48.0838L71.4756 48.0806ZM73.7541 49.8322C73.7531 49.5549 73.6139 49.4167 73.3365 49.4178L72.8406 49.4196L72.845 50.6196L73.341 50.6177C73.6183 50.6167 73.7565 50.4775 73.7555 50.2002L73.7541 49.8322ZM70.6326 49.4278L70.637 50.6278L71.485 50.6246L71.4806 49.4246L70.6326 49.4278ZM68.8406 49.4344C68.5632 49.4354 68.4251 49.5746 68.4261 49.852L68.4275 50.22C68.4285 50.4973 68.5677 50.6354 68.845 50.6344L69.293 50.6327L69.2886 49.4328L68.8406 49.4344ZM69.2836 48.0888L69.2809 47.3688L67.2329 47.3764C66.7956 47.378 66.576 47.1281 66.5742 46.6268C66.5723 46.1255 66.7847 45.874 67.2114 45.8724L75.0193 45.8435C75.4566 45.8419 75.6762 46.0917 75.6781 46.5931C75.68 47.0944 75.4622 47.3459 75.0249 47.3475L72.8329 47.3556L72.8356 48.0756L74.6276 48.069C75.1396 48.0671 75.3965 48.3221 75.3984 48.8341L75.4071 51.1861C75.409 51.6981 75.154 51.955 74.642 51.9569L67.666 51.9828C67.154 51.9847 66.8971 51.7296 66.8952 51.2176L66.8865 48.8657C66.8846 48.3537 67.1396 48.0967 67.6516 48.0948L69.2836 48.0888ZM74.1 52.5189C74.5374 52.5173 74.7569 52.7565 74.7587 53.2365C74.7605 53.7165 74.5427 53.9573 74.1054 53.9589L68.2334 53.9807C67.7961 53.9823 67.5765 53.7431 67.5748 53.2631C67.573 52.7831 67.7908 52.5423 68.2281 52.5407L74.1 52.5189ZM66.6305 53.1866C66.8021 53.4527 66.7021 53.805 66.3304 54.2438C65.9693 54.6718 65.7027 54.6887 65.5306 54.2947L64.9981 53.0967L65.0221 59.5606C65.0237 59.998 64.7365 60.2177 64.1605 60.2198C63.5845 60.222 63.2957 60.0044 63.2941 59.567L63.2718 53.5511C62.7978 55.1742 62.3805 56.2584 62.0198 56.8037C61.8502 57.0924 61.6149 56.9172 61.3139 56.2784C61.0235 55.6288 60.979 55.1489 61.1806 54.8388C61.4035 54.5607 61.7105 53.9302 62.1016 52.9474C62.4925 51.954 62.7983 50.9822 63.0188 50.032L61.9148 50.0361C61.4774 50.0377 61.2577 49.7452 61.2555 49.1585C61.2533 48.5719 61.4709 48.2777 61.9082 48.2761L63.2522 48.2711L63.2436 45.9511C63.242 45.5138 63.5292 45.2941 64.1052 45.2919C64.6812 45.2898 64.97 45.5074 64.9716 45.9447L64.9802 48.2647L65.8762 48.2614C66.3135 48.2598 66.5333 48.5523 66.5355 49.139C66.5376 49.7256 66.3201 50.0198 65.8827 50.0214L64.9867 50.0247L64.9893 50.7287C65.1823 50.9733 65.504 51.4468 65.9546 52.1491C66.4159 52.8408 66.6411 53.1866 66.6305 53.1866ZM67.5892 57.1511C67.8434 56.6808 68.2429 56.5247 68.7874 56.6827C69.3427 56.8299 69.4985 57.1334 69.2548 57.5929C68.948 58.2767 68.481 58.8918 67.8537 59.4381C67.5455 59.7593 67.1508 59.7501 66.6695 59.4105C66.199 59.0816 66.1338 58.7725 66.4741 58.4832C67.006 58.0973 67.3777 57.6532 67.5892 57.1511ZM75.7425 55.3449C75.7444 55.8355 75.5266 56.0817 75.0893 56.0833L71.9533 56.0949L71.966 59.5349C71.9677 59.9722 71.6858 60.1919 71.1205 60.194C70.5551 60.1961 70.2717 59.9785 70.27 59.5412L70.2573 56.1012L67.2813 56.1122C66.844 56.1139 66.6244 55.8693 66.6226 55.3787C66.6207 54.8773 66.8385 54.6259 67.2758 54.6243L75.0838 54.5953C75.5211 54.5937 75.7407 54.8435 75.7425 55.3449ZM73.0474 57.7389C72.7153 57.3454 72.7781 57.0305 73.2359 56.7942C73.6937 56.5578 74.0565 56.6045 74.3244 56.9341L75.5299 58.4177C75.7978 58.7474 75.687 59.0571 75.1974 59.3469C74.7078 59.6367 74.3556 59.5847 74.1408 59.1908C73.9794 58.8181 73.6149 58.3341 73.0474 57.7389ZM89.4191 50.0781L89.4179 49.7421C89.4169 49.4755 89.2777 49.3427 89.0004 49.3437L86.9204 49.3514C86.6431 49.3524 86.5049 49.4863 86.5059 49.7529L86.5071 50.0889L89.4191 50.0781ZM89.4264 52.0461L89.4237 51.3101L86.5117 51.3209L86.5144 52.0569L89.4264 52.0461ZM89.0178 54.0317C89.2951 54.0306 89.4332 53.8915 89.4322 53.6141L89.4309 53.2621L86.5189 53.2729L86.5202 53.6249C86.5213 53.9022 86.6604 54.0404 86.9378 54.0394L89.0178 54.0317ZM84.8225 48.8472C84.8206 48.3352 85.0757 48.0782 85.5877 48.0763L86.8677 48.0716L87.1364 47.2066L84.9765 47.2146C84.5391 47.2162 84.3197 46.9984 84.318 46.561C84.3164 46.113 84.5342 45.8882 84.9715 45.8866L90.9875 45.8643C91.4248 45.8627 91.6443 46.0859 91.646 46.5339C91.6476 46.9712 91.4298 47.1907 90.9924 47.1923L88.8484 47.2002L88.4676 48.0657L90.4196 48.0584C90.9316 48.0565 91.1886 48.3116 91.1905 48.8236L91.2117 54.5515C91.2136 55.0635 90.9585 55.3205 90.4466 55.3224L85.6146 55.3403C85.1026 55.3422 84.8456 55.0871 84.8437 54.5751L84.8225 48.8472ZM89.5405 56.9257C89.1982 56.6603 89.0265 56.389 89.0255 56.1116C89.0351 55.8343 89.2531 55.6521 89.6794 55.5652C89.6896 55.4158 89.9299 55.5056 90.4004 55.8345C90.935 56.1632 91.2078 56.3756 91.2188 56.4715C91.4973 56.7692 91.589 57.0568 91.494 57.3345C91.399 57.6122 91.1118 57.8106 90.6322 57.9297L90.2633 57.6751C89.9095 57.207 89.6686 56.9573 89.5405 56.9257ZM85.649 55.9802C85.9783 55.6269 86.3993 55.5347 86.9119 55.7035C87.4352 55.8615 87.5322 56.1385 87.203 56.5344C86.7997 57.0906 86.4331 57.4439 86.1029 57.5945C85.6985 57.8307 85.2935 57.9175 84.8879 57.855C84.493 57.7818 84.2253 57.5161 84.0849 57.058L84.3562 56.849C85.0058 56.5692 85.4367 56.2796 85.649 55.9802ZM81.9229 47.8659L81.9216 47.5299C81.9206 47.2526 81.7814 47.1144 81.5041 47.1155L80.0481 47.1209C79.7707 47.1219 79.6326 47.2611 79.6336 47.5384L79.6349 47.8744L81.9229 47.8659ZM81.5142 49.8514C81.7915 49.8504 81.9297 49.7112 81.9287 49.4339L81.9273 49.0659L79.6393 49.0744L79.6407 49.4424C79.6417 49.7197 79.7809 49.8579 80.0582 49.8568L81.5142 49.8514ZM82.9074 45.8463C83.4194 45.8444 83.6763 46.0994 83.6782 46.6114L83.6921 50.3554C83.694 50.8674 83.4389 51.1243 82.9269 51.1262L78.719 51.1418C78.207 51.1437 77.95 50.8887 77.9481 50.3767L77.9343 46.6327C77.9324 46.1207 78.1874 45.8637 78.6994 45.8618L82.9074 45.8463ZM81.8094 56.1064L81.8149 57.5784C81.8159 57.8557 81.9125 58.0207 82.1047 58.0733C82.692 58.2525 83.7804 58.3391 85.3697 58.3332C89.007 58.3197 91.1616 58.2957 91.8335 58.2613C92.0361 58.2498 92.037 58.5058 91.8363 59.0292C91.6356 59.5527 91.3165 59.8152 90.8792 59.8168L85.3753 59.8372C83.7219 59.8433 82.4094 59.7095 81.4377 59.4358C80.4768 59.1727 79.6961 58.6316 79.0957 57.8125C78.8542 58.848 78.5953 59.505 78.319 59.7834C78.0962 60.1148 77.7974 60.0626 77.4224 59.6267C77.0582 59.2014 76.9874 58.823 77.2102 58.4915C77.3909 58.3201 77.5544 57.8342 77.7008 57.0336C77.8471 56.2224 77.9244 55.4861 77.9326 54.8248C77.9521 54.3233 78.2125 54.0717 78.7138 54.0699C79.2258 54.068 79.472 54.291 79.4523 54.7391C79.4635 54.8777 79.4435 55.2352 79.3923 55.8113L80.213 57.0723L80.1994 53.4243L77.8955 53.4329C77.4581 53.4345 77.2386 53.206 77.2369 52.7473C77.2352 52.2887 77.453 52.0585 77.8904 52.0569L83.7463 52.0352C84.1837 52.0336 84.4032 52.2621 84.4049 52.7207C84.4066 53.1794 84.1888 53.4096 83.7514 53.4112L81.7994 53.4184L81.8043 54.7304L83.4523 54.7243C83.8896 54.7227 84.1091 54.9512 84.1108 55.4099C84.1125 55.8685 83.8947 56.0987 83.4574 56.1003L81.8094 56.1064ZM100.999 53.2032L100.991 51.0273C100.99 50.7499 100.85 50.6118 100.573 50.6128L99.3412 50.6174C98.8292 50.6193 98.5722 50.3642 98.5703 49.8522L98.5559 45.9643C98.5543 45.5269 98.8202 45.3073 99.3535 45.3053C99.8975 45.3033 100.17 45.5209 100.172 45.9583L100.174 46.3903L102.029 46.3834C102.467 46.3818 102.686 46.6423 102.688 47.1649C102.69 47.6876 102.473 47.9497 102.035 47.9514L100.179 47.9582L100.182 48.7102C100.183 48.9876 100.322 49.1257 100.6 49.1247L101.8 49.1362C102.312 49.1344 102.569 49.3894 102.571 49.9014L102.583 53.1974C102.584 53.528 102.542 53.7735 102.457 53.9338C102.383 54.0941 102.224 54.2334 101.979 54.3516C101.734 54.4699 101.441 54.5243 101.1 54.5149C100.502 54.5278 100.134 54.3425 99.9936 53.959C99.8534 53.5648 100.002 53.3669 100.439 53.3653L100.727 53.3643C100.909 53.3742 100.999 53.3206 100.999 53.2032ZM98.6569 51.6279C98.762 51.2115 99.0494 51.0451 99.5191 51.1287C99.9887 51.2016 100.182 51.5423 100.099 52.1506C100.058 52.7587 99.9162 53.2233 99.672 53.5442C99.5132 53.8541 99.2306 53.8871 98.8244 53.6433C98.4181 53.3888 98.2675 53.0534 98.3727 52.637L98.6569 51.6279ZM104.684 54.6616L104.759 53.3653L103.799 53.3689C103.362 53.3705 103.142 53.11 103.141 52.5873C103.139 52.0646 103.356 51.8025 103.794 51.8009L104.818 51.7971L104.812 50.4211L103.9 50.4245C103.463 50.4261 103.244 50.1656 103.242 49.6429C103.24 49.1202 103.457 48.8581 103.895 48.8565L104.903 48.8527L104.899 47.8928C104.898 47.6154 104.759 47.4773 104.482 47.4783L103.73 47.4811C103.292 47.4827 103.073 47.2115 103.071 46.6675C103.069 46.1235 103.286 45.8507 103.724 45.8491L105.884 45.8411C106.396 45.8392 106.647 46.1263 106.639 46.7023C106.659 49.4009 106.605 52.0518 106.476 54.655L107.212 54.6522C107.65 54.6506 107.869 54.9431 107.871 55.5298C107.874 56.1165 107.656 56.4106 107.219 56.4122L103.363 56.4265C105.072 57.2202 106.28 57.8397 106.986 58.2851C107.296 58.4653 107.238 58.7962 106.813 59.2777C106.399 59.7699 106.021 59.9047 105.679 59.6819C104.77 59.056 103.824 58.5155 102.841 58.0605C102.157 57.711 102.006 57.2849 102.388 56.7821L102.659 56.4291L97.9068 56.4467L98.5166 56.9405C99.0088 57.344 98.9729 57.7281 98.4089 58.0929C97.579 58.6613 96.4398 59.2362 94.9912 59.8176C94.5546 60.0112 94.1541 59.8687 93.7897 59.39C93.4359 58.922 93.488 58.5965 93.946 58.4134C95.2349 57.9286 96.4432 57.2735 97.5708 56.448L93.8588 56.4617C93.4215 56.4634 93.2017 56.1708 93.1995 55.5842C93.1974 54.9975 93.4149 54.7034 93.8523 54.7017L94.6363 54.6988L94.3523 47.1638C94.3399 46.6839 94.552 46.3578 94.9887 46.1855L96.7781 45.4748C97.1829 45.324 97.5196 45.5094 97.7882 46.0311C98.0674 46.5421 97.9992 46.857 97.5837 46.9759L96.4489 47.3161C96.1932 47.3917 96.0658 47.5628 96.0668 47.8295L96.1187 48.8693L97.2867 48.865C97.724 48.8634 97.9436 49.1239 97.9456 49.6465C97.9475 50.1585 97.7297 50.4153 97.2924 50.417L96.1724 50.4211L96.2255 51.7969L97.3455 51.7928C97.7828 51.7912 98.0025 52.0517 98.0044 52.5743C98.0063 53.0863 97.7886 53.3431 97.3513 53.3448L96.2793 53.3487L96.3323 54.6926L104.684 54.6616ZM112.031 55.3864C113.054 55.2546 113.955 55.1286 114.734 55.0083C115.213 54.9319 115.47 55.1656 115.504 55.7095C115.538 56.2534 115.342 56.5581 114.916 56.6237L112.037 57.1304L112.045 59.0663C112.046 59.5037 111.743 59.7235 111.135 59.7257C110.527 59.728 110.222 59.5104 110.221 59.0731L110.214 57.4251L109.879 57.4904C109.442 57.556 109.174 57.2903 109.076 56.6933C108.978 56.0964 109.147 55.7704 109.584 55.7154L110.208 55.6331L110.177 47.3772C110.175 46.8972 110.452 46.5762 111.006 46.4141C112.071 46.1008 113.035 45.6972 113.897 45.2034C114.259 45.01 114.692 45.1578 115.195 45.6466C115.698 46.1247 115.768 46.4445 115.406 46.6058C114.65 46.9286 113.686 47.2682 112.514 47.6245C112.173 47.7218 112.003 47.9091 112.004 48.1864L112.007 48.8424L114.583 48.8329C115.02 48.8312 115.24 49.1078 115.242 49.6624C115.244 50.2064 115.026 50.4792 114.589 50.4809L112.013 50.4904L112.019 52.0904L114.547 52.081C114.984 52.0794 115.204 52.3559 115.206 52.9106C115.208 53.4546 114.99 53.7274 114.553 53.729L112.025 53.7384L112.031 55.3864ZM120.699 54.2342C120.826 53.9671 120.751 53.834 120.473 53.8351L117.993 53.8443C118.348 54.6429 118.836 55.3718 119.457 56.0308C120.063 55.4099 120.477 54.8111 120.699 54.2342ZM121.971 52.1815L122.42 52.3398C122.9 52.4874 123.072 52.8281 122.936 53.3619C122.663 54.6856 121.985 55.9521 120.902 57.1615C121.757 57.7237 122.574 58.078 123.354 58.2244C123.834 58.3293 123.878 58.6545 123.485 59.1999C123.093 59.7454 122.667 59.9443 122.207 59.7967C121.332 59.5759 120.429 59.1099 119.498 58.3987C118.53 59.1063 117.524 59.6007 116.48 59.8819C116.011 60.033 115.615 59.8371 115.293 59.2943C114.971 58.7515 115.034 58.4259 115.482 58.3176C116.324 58.1438 117.218 57.7458 118.165 57.1236C117.458 56.2623 116.981 55.512 116.733 54.8729C116.507 54.3511 116.655 54.0252 117.177 53.8953L117.369 53.8466L116.473 53.8499C116.036 53.8515 115.816 53.5857 115.814 53.0523C115.812 52.519 115.998 52.2516 116.371 52.2503C115.986 51.8144 115.814 51.639 115.857 51.7242C115.365 51.3206 115.39 50.9046 115.933 50.4759L116.49 49.6098C116.722 49.0329 116.837 48.3872 116.834 47.6725L116.83 46.4725C116.828 45.9605 117.083 45.7036 117.595 45.7017L121.131 45.6886C121.643 45.6867 121.9 45.9417 121.902 46.4537L121.915 49.9257C121.979 50.0108 122.059 50.0532 122.155 50.0528L123.019 49.9856C123.456 49.9627 123.697 50.1964 123.742 50.6869C123.797 51.1667 123.627 51.4447 123.233 51.5208L122.897 51.5221L121.985 51.5254C121.259 51.5281 120.773 51.3753 120.527 51.0668C120.291 50.7477 120.172 50.1988 120.169 49.4202L120.163 47.7242C120.162 47.4468 120.022 47.3087 119.745 47.3097L118.993 47.3125C118.726 47.3135 118.594 47.4473 118.595 47.714C118.602 49.794 117.936 51.3058 116.595 52.2494L121.971 52.1815ZM136.34 47.9842C136.341 48.4215 136.033 48.6414 135.414 48.6437C134.795 48.6459 134.485 48.4284 134.484 47.9911L134.482 47.5751L133.554 47.5785C133.117 47.5802 132.897 47.3036 132.895 46.749C132.893 46.1943 133.111 45.9162 133.548 45.9146L134.476 45.9111L134.475 45.7031C134.474 45.2658 134.782 45.046 135.401 45.0437C136.019 45.0414 136.33 45.2589 136.331 45.6962L136.332 45.9042L138.908 45.8947C139.345 45.8931 139.565 46.1696 139.567 46.7242C139.569 47.2789 139.351 47.5571 138.914 47.5587L136.338 47.5682L136.34 47.9842ZM130.436 48.0061C130.437 48.4434 130.129 48.6632 129.51 48.6655C128.891 48.6678 128.581 48.4503 128.58 48.013L128.578 47.613L126.05 47.6224C125.613 47.624 125.393 47.3475 125.391 46.7928C125.389 46.2381 125.607 45.96 126.044 45.9584L128.572 45.949L128.571 45.725C128.57 45.2877 128.878 45.0679 129.497 45.0656C130.115 45.0633 130.426 45.2808 130.427 45.7181L130.428 45.9421L131.42 45.9384C131.857 45.9368 132.077 46.2133 132.079 46.768C132.081 47.3227 131.864 47.6008 131.426 47.6024L130.434 47.6061L130.436 48.0061ZM126.555 50.0205C126.192 49.7978 126.19 49.4725 126.552 49.0445C126.913 48.6058 127.28 48.4925 127.654 48.7044L129.29 49.6104C129.664 49.8223 129.665 50.169 129.294 50.6504C128.922 51.1211 128.549 51.2451 128.175 51.0225L126.555 50.0205ZM128.309 52.798C128.684 53.0206 128.68 53.3726 128.297 53.8541C127.915 54.3248 127.542 54.4435 127.179 54.2102L125.559 53.1602C125.195 52.9269 125.199 52.5962 125.571 52.1682C125.943 51.7401 126.316 51.6321 126.69 51.844L128.309 52.798ZM127.182 59.3782C126.853 59.7848 126.458 59.7436 125.997 59.2546C125.548 58.7656 125.471 58.3712 125.769 58.0715C126.428 57.4504 127.188 56.5942 128.047 55.503C128.366 55.0965 128.707 55.1219 129.072 55.5792C129.447 56.0365 129.507 56.4363 129.252 56.7785C128.637 57.6342 127.947 58.5007 127.182 59.3782ZM131.502 54.9782L138.094 54.9538C136.791 54.6173 135.648 54.1948 134.665 53.6865C133.749 54.1592 132.695 54.5898 131.502 54.9782ZM132.279 57.4553C132.28 57.7327 132.419 57.8708 132.696 57.8698L136.12 57.8571C136.398 57.8561 136.536 57.7169 136.535 57.4396L136.532 56.8156C136.531 56.5382 136.392 56.4001 136.115 56.4011L132.275 56.4153L132.279 57.4553ZM135.903 50.9779C136.105 50.8064 136.067 50.7212 135.79 50.7223L133.31 50.7315C133.032 50.7325 132.985 50.818 133.167 50.988C133.413 51.2111 133.883 51.508 134.578 51.8788C135.227 51.503 135.669 51.2027 135.903 50.9779ZM130.479 55.286C130.052 55.3942 129.684 55.1983 129.373 54.6981C129.061 54.1872 129.119 53.8884 129.545 53.8014C130.515 53.6165 131.655 53.2443 132.965 52.6848L131.729 51.6813C131.262 52.1524 130.927 52.463 130.725 52.6131C130.384 52.881 129.995 52.8291 129.556 52.4574C129.117 52.075 129.079 51.7552 129.441 51.4978C130.526 50.7791 131.381 49.9119 132.007 48.8963C132.283 48.4793 132.725 48.3336 133.333 48.4594C133.942 48.5744 134.124 48.8084 133.88 49.1613L133.737 49.3539L137.176 49.2611C137.614 49.2595 138.036 49.3806 138.442 49.6244C138.848 49.8683 138.929 50.156 138.685 50.4875C138.303 51.1183 137.533 51.8465 136.373 52.6721C137.527 53.0839 138.578 53.3626 139.528 53.5084C139.998 53.5814 140.047 53.8799 139.675 54.4039C139.315 54.9279 138.921 55.148 138.494 55.0643L138.398 55.0326L138.411 58.5366C138.413 59.0486 138.158 59.3056 137.646 59.3075L131.262 59.3311C130.75 59.333 130.493 59.078 130.491 58.566L130.479 55.286Z" fill="black" fill-opacity="0.85"/>
</g>
<defs>
<clipPath id="clip0_2306_6031">
<rect width="200" height="90" fill="white"/>
</clipPath>
</defs>
</svg>
