<svg width="304" height="515" viewBox="0 0 304 515" fill="none" xmlns="http://www.w3.org/2000/svg">
<path d="M304 48C304 74.2335 235.947 95.5 152 95.5C68.0527 95.5 0 74.2335 0 48C0 21.7665 68.0527 0.5 152 0.5C235.947 0.5 304 21.7665 304 48Z" fill="#3B365D" fill-opacity="0.9"/>
<path fill-rule="evenodd" clip-rule="evenodd" d="M88 5.57626L88 501.998C88 508.902 93.5965 514.498 100.5 514.498C107.404 514.498 113 508.901 113 501.998L113 2.65625C104.3 3.40119 95.941 4.38369 88 5.57626Z" fill="#C3825A"/>
<path fill-rule="evenodd" clip-rule="evenodd" d="M211 4.82031L211 422.002C211 428.906 216.596 434.502 223.5 434.502C230.404 434.502 236 428.906 236 422.002L236 9.14022C228.209 7.46774 219.842 6.01595 211 4.82031Z" fill="#C3825A"/>
<path d="M111.5 391.488L206.5 332.488C209.167 330.988 215.7 328.888 220.5 332.488C225.3 336.088 222.5 343.321 220.5 346.488L111.5 414.488V391.488Z" fill="#C77E57"/>
<path d="M111.5 292.488L206.5 233.488C209.167 231.988 215.7 229.888 220.5 233.488C225.3 237.088 222.5 244.321 220.5 247.488L111.5 315.488V292.488Z" fill="#C77E57"/>
<path d="M111.5 193.488L206.5 134.488C209.167 132.988 215.7 130.888 220.5 134.488C225.3 138.088 222.5 145.321 220.5 148.488L111.5 216.488V193.488Z" fill="#C77E57"/>
<path d="M111.5 94.4877L206.5 35.4877C209.167 33.9877 215.7 31.8877 220.5 35.4877C225.3 39.0877 222.5 46.3211 220.5 49.4878L111.5 117.488V94.4877Z" fill="#C77E57"/>
</svg>
