<svg width="200" height="90" viewBox="0 0 200 90" fill="none" xmlns="http://www.w3.org/2000/svg">
<g clip-path="url(#clip0_1260_3864)">
<rect width="200" height="90" fill="#FEB79D"/>
<path fill-rule="evenodd" clip-rule="evenodd" d="M-6.18027 85.5257C-5.5206 81.3514 -9.94765 77.2571 -7.65473 73.2393C-4.94813 68.4966 -1.65241 61.9915 7.77154 61.0783C17.9972 60.0873 23.5998 68.8258 33.9785 69.2048C45.8176 69.6371 56.5881 60.196 66.8872 63.2371C76.2425 65.9996 70.121 74.0119 68.9752 79.5387C68.1676 83.4341 61.5364 86.4306 61.2669 90.3457C60.8502 96.3973 75.7689 103.853 67.0229 107.895C58.3557 111.9 45.7383 103.802 34.2527 102.83C27.3162 102.243 20.5655 103.925 13.6182 103.373C4.65786 102.66 -7.2514 103.227 -11.7526 99.1698C-16.3208 95.0519 -6.92748 90.2539 -6.18027 85.5257Z" fill="#FE585B"/>
<path fill-rule="evenodd" clip-rule="evenodd" d="M28.4743 10.5302C32.6486 10.8717 36.7429 8.58004 40.7607 9.76696C45.5034 11.168 52.0085 12.874 52.9217 17.7523C53.9127 23.0456 45.1742 25.9458 44.7952 31.3183C44.3629 37.4467 53.804 43.0221 50.7629 48.3534C48.0004 53.1961 39.9881 50.0274 34.4613 49.4342C30.5659 49.0162 27.5694 45.5836 23.6543 45.444C17.6027 45.2284 10.1469 52.9509 6.10508 48.4236C2.09968 43.9371 10.1975 37.4057 11.1701 31.4602C11.7575 27.8695 10.0747 24.3751 10.6274 20.7788C11.3402 16.1405 10.7727 9.97575 14.8302 7.64571C18.9481 5.281 23.7461 10.1434 28.4743 10.5302Z" fill="#FC7443"/>
<path fill-rule="evenodd" clip-rule="evenodd" d="M173.474 4.53021C177.649 4.87169 181.743 2.58004 185.761 3.76696C190.503 5.16803 197.008 6.87405 197.922 11.7523C198.913 17.0456 190.174 19.9458 189.795 25.3183C189.363 31.4467 198.804 37.0221 195.763 42.3534C193 47.1961 184.988 44.0274 179.461 43.4342C175.566 43.0162 172.569 39.5836 168.654 39.444C162.603 39.2284 155.147 46.9509 151.105 42.4236C147.1 37.9371 155.198 31.4057 156.17 25.4602C156.757 21.8695 155.075 18.3751 155.627 14.7788C156.34 10.1405 155.773 3.97575 159.83 1.64571C163.948 -0.719004 168.746 4.14342 173.474 4.53021Z" fill="#FF8787"/>
<path fill-rule="evenodd" clip-rule="evenodd" d="M117.063 7.20494C131.49 7.9797 144.155 11.9054 154.996 17.5775C166.733 23.7188 176.896 30.8598 179.688 39.9711C183.097 51.0949 184.354 63.7453 171.749 72.2549C158.691 81.0707 136.857 81.4742 117.063 82.2497C95.2362 83.1048 71.8992 84.7511 54.6033 76.8446C35.6156 68.1646 20.8565 53.9771 24.5773 39.9711C28.0889 26.7526 52.1053 19.9805 71.5388 13.0955C85.3864 8.18958 100.98 6.34119 117.063 7.20494Z" fill="#FFAB7A"/>
<ellipse cx="177.987" cy="70.7269" rx="16.7876" ry="14.0511" fill="#F55A57"/>
<ellipse cx="173.711" cy="65.6395" rx="1.21537" ry="2.15126" fill="black"/>
<ellipse cx="182.286" cy="65.6395" rx="1.21537" ry="2.15126" fill="black"/>
<path d="M173.043 72.6445C173.079 74.5722 175.312 76.0937 178.031 76.0428C180.749 75.9919 182.924 74.388 182.888 72.4603C182.852 70.5326 180.67 71.7825 177.952 71.8334C175.233 71.8843 173.007 70.7168 173.043 72.6445Z" fill="black"/>
<path d="M170.796 50.9035C173.677 48.6452 180.1 51.1915 180.1 55.0219C180.101 59.542 168.086 61.6232 165.801 61.9782C165.552 62.0169 165.303 62.044 165.054 62.039C163.425 62.0062 157.615 61.2375 170.796 50.9035Z" fill="#6E5232"/>
<path d="M170.796 50.9035C173.677 48.6452 180.1 51.1915 180.1 55.0219C180.101 59.542 168.086 61.6232 165.801 61.9782C165.552 62.0169 165.303 62.044 165.054 62.039C163.425 62.0062 157.615 61.2375 170.796 50.9035Z" fill="url(#paint0_radial_1260_3864)" fill-opacity="0.15"/>
<path d="M185.2 50.7629C182.319 48.5045 175.896 51.0509 175.896 54.8813C175.896 59.4014 187.91 61.4825 190.195 61.8375C190.445 61.8763 190.693 61.9034 190.942 61.8984C192.571 61.8656 198.381 61.0968 185.2 50.7629Z" fill="#6E5232"/>
<path d="M185.2 50.7629C182.319 48.5045 175.896 51.0509 175.896 54.8813C175.896 59.4014 187.91 61.4825 190.195 61.8375C190.445 61.8763 190.693 61.9034 190.942 61.8984C192.571 61.8656 198.381 61.0968 185.2 50.7629Z" fill="url(#paint1_radial_1260_3864)" fill-opacity="0.15"/>
<path d="M84.3161 36.9608C84.0697 37.035 83.873 37.0324 83.7261 36.953C83.5791 36.8802 83.472 36.7572 83.4047 36.5842C83.3508 36.4244 83.3635 36.2643 83.4429 36.104C83.5223 35.9437 83.6619 35.8399 83.8618 35.7925C84.5677 35.6032 85.1936 35.3708 85.7392 35.0955C86.2849 34.8201 86.767 34.5083 87.1857 34.1601C86.7706 33.675 86.412 33.1397 86.1098 32.5541C85.8143 31.9619 85.5685 31.3194 85.3726 30.6268L83.9126 30.6322C83.766 30.6328 83.6391 30.5799 83.5321 30.4736C83.425 30.3674 83.3712 30.2409 83.3706 30.0942C83.3701 29.9476 83.423 29.824 83.5293 29.7236C83.6355 29.6166 83.762 29.5628 83.9087 29.5622L87.3387 29.5495L87.3342 28.3495C87.3335 28.1562 87.3962 27.9993 87.5225 27.8788C87.6487 27.7584 87.8018 27.6978 87.9818 27.6971C88.1618 27.6965 88.3153 27.7559 88.4425 27.8754C88.5696 27.995 88.6335 28.1514 88.6342 28.3447L88.6386 29.5447L92.0486 29.5321C92.1953 29.5315 92.3188 29.5844 92.4192 29.6907C92.5263 29.7903 92.58 29.9134 92.5806 30.0601C92.5811 30.2068 92.5283 30.3336 92.422 30.4407C92.3224 30.5477 92.1993 30.6015 92.0526 30.6021L90.6726 30.6072C90.4885 31.3012 90.2475 31.9421 89.9497 32.5299C89.6586 33.1176 89.3072 33.6556 88.8957 34.1438C89.3237 34.4955 89.8148 34.807 90.3692 35.0783C90.9235 35.3496 91.551 35.5773 92.2517 35.7614C92.4519 35.8073 92.5889 35.9101 92.6629 36.0698C92.7368 36.2296 92.744 36.3895 92.6846 36.5498C92.6253 36.7233 92.5191 36.847 92.366 36.9209C92.2196 36.9948 92.0263 36.9989 91.7861 36.9331C90.2711 36.492 89.0254 35.8533 88.0489 35.0169C87.5638 35.4321 87.0118 35.8008 86.393 36.1231C85.7809 36.4453 85.0886 36.7246 84.3161 36.9608ZM88.0425 33.2769C88.3411 32.9025 88.5962 32.4916 88.8079 32.0441C89.0196 31.5966 89.1978 31.1193 89.3426 30.6121L86.6926 30.6219C86.8478 31.128 87.0329 31.604 87.2479 32.0499C87.4696 32.4957 87.7344 32.9047 88.0425 33.2769ZM98.0163 36.99C97.8496 36.9906 97.7094 36.9378 97.5957 36.8316C97.482 36.7253 97.4248 36.5822 97.4241 36.4022L97.4198 35.2322L96.2098 35.2367C96.0631 35.2372 95.9329 35.1844 95.8192 35.0781C95.7121 34.9652 95.6583 34.8354 95.6578 34.6887C95.6572 34.5354 95.71 34.4052 95.8163 34.2981C95.9293 34.191 96.0591 34.1372 96.2057 34.1367L97.4157 34.1322L97.4068 31.7322C97.135 32.1399 96.8298 32.551 96.4914 32.9656C96.1529 33.3802 95.7944 33.7749 95.4158 34.1496C95.0438 34.5243 94.6717 34.8624 94.2995 35.1638C94.1666 35.2709 94.0101 35.3282 93.8301 35.3355C93.6501 35.3362 93.5032 35.2667 93.3894 35.1271C93.2822 34.9942 93.2417 34.8477 93.2677 34.6876C93.3005 34.5275 93.3867 34.3971 93.5263 34.2966C93.9252 33.9951 94.3305 33.6436 94.7424 33.2421C95.1609 32.8339 95.556 32.4091 95.9277 31.9677C96.2994 31.5197 96.6144 31.0952 96.873 30.6942L93.963 30.705C93.8163 30.7055 93.6895 30.6527 93.5824 30.5464C93.4753 30.4401 93.4215 30.3137 93.421 30.167C93.4204 30.0137 93.4733 29.8868 93.5796 29.7864C93.6858 29.6793 93.8123 29.6255 93.959 29.625L97.399 29.6122L97.3939 28.2422C97.3932 28.0689 97.4494 27.9287 97.5623 27.8216C97.6752 27.7079 97.815 27.6507 97.9817 27.6501C98.1417 27.6495 98.2786 27.7056 98.3923 27.8185C98.506 27.9248 98.5632 28.0646 98.5639 28.2379L98.5689 29.6079L102.009 29.5951C102.162 29.5946 102.289 29.6474 102.39 29.7537C102.497 29.8533 102.55 29.9798 102.551 30.1331C102.551 30.2798 102.499 30.4067 102.392 30.5137C102.293 30.6208 102.166 30.6746 102.013 30.6751L99.1329 30.6858C99.4011 31.0982 99.7261 31.5236 100.108 31.9622C100.489 32.3941 100.894 32.8093 101.322 33.2077C101.75 33.6061 102.168 33.9613 102.576 34.2731C102.703 34.3659 102.767 34.4924 102.768 34.6524C102.775 34.8123 102.732 34.9492 102.639 35.0629C102.533 35.1899 102.397 35.2671 102.23 35.2944C102.063 35.3217 101.91 35.2789 101.77 35.1661C101.408 34.8674 101.037 34.5321 100.656 34.1602C100.274 33.7883 99.9063 33.393 99.5514 32.9743C99.1965 32.5489 98.8716 32.1168 98.5766 31.6779L98.5857 34.1279L99.8357 34.1232C99.989 34.1227 100.119 34.1755 100.226 34.2818C100.333 34.3881 100.387 34.5179 100.388 34.6712C100.388 34.8179 100.335 34.9481 100.229 35.0618C100.123 35.1688 99.9931 35.2227 99.8398 35.2232L98.5898 35.2279L98.5941 36.3979C98.5948 36.5779 98.5386 36.7214 98.4257 36.8285C98.3128 36.9356 98.1763 36.9894 98.0163 36.99ZM103.96 29.8479L111.47 29.8201L111.474 31.0001L105.184 31.0234L105.206 37.0133L103.986 37.0179L103.96 29.8479ZM110.85 29.8224L112.07 29.8179L112.091 35.5878C112.094 36.2278 111.975 36.5783 111.546 36.7699C111.116 36.9614 110.486 36.9838 109.616 36.987C109.575 36.6372 109.383 36.0979 109.212 35.7685C109.762 35.7965 110.442 35.7939 110.632 35.7832C110.812 35.7826 110.872 35.7223 110.871 35.5723L110.85 29.8224ZM105.753 28.0213L107.993 28.013L107.997 29.063L105.757 29.0713L105.753 28.0213ZM107.213 28.0158L108.493 28.0111C108.593 30.5808 109.17 32.6886 111.044 33.5917C110.785 33.8327 110.377 34.3242 110.188 34.6449C108.213 33.4822 107.545 31.1946 107.405 28.5551L107.215 28.5558L107.213 28.0158ZM107.311 30.1155L108.412 30.3014C108.079 32.4027 107.315 33.8855 105.748 34.7313C105.587 34.4519 105.195 33.9634 104.954 33.7643C106.322 33.1092 107.067 31.8364 107.311 30.1155ZM117.396 36.8982C116.896 36.9 116.496 36.8482 116.196 36.7426C115.895 36.6437 115.678 36.4679 115.544 36.215C115.409 35.9622 115.341 35.6124 115.34 35.1658C115.338 34.7191 115.403 34.3689 115.536 34.115C115.668 33.8612 115.884 33.6837 116.184 33.5826C116.483 33.4749 116.883 33.42 117.383 33.4182L118.663 33.4134C119.163 33.4116 119.563 33.4634 119.864 33.569C120.164 33.6679 120.381 33.8437 120.516 34.0966C120.65 34.3494 120.718 34.6992 120.72 35.1458C120.721 35.5925 120.656 35.9427 120.524 36.1966C120.391 36.4504 120.175 36.6279 119.875 36.729C119.576 36.8368 119.176 36.8916 118.676 36.8934L117.396 36.8982ZM114.184 30.95C114.024 30.9506 113.887 30.9011 113.773 30.8016C113.666 30.7019 113.613 30.5655 113.612 30.3921L113.611 30.0721C113.609 29.5522 113.731 29.185 113.977 28.9708C114.229 28.7498 114.659 28.6383 115.265 28.636L117.335 28.6283L117.333 28.0383C117.333 27.845 117.392 27.6981 117.512 27.5977C117.638 27.4972 117.784 27.4467 117.951 27.446C118.124 27.4454 118.271 27.4949 118.392 27.5944C118.519 27.6939 118.583 27.8404 118.583 28.0337L118.585 28.6237L120.725 28.6158C121.332 28.6135 121.759 28.7219 122.007 28.941C122.261 29.1534 122.389 29.5196 122.391 30.0396L122.392 30.3596C122.393 30.5329 122.336 30.6698 122.223 30.7702C122.11 30.8707 121.974 30.9212 121.814 30.9217C121.654 30.9223 121.517 30.8762 121.403 30.7833C121.29 30.6904 121.233 30.5572 121.232 30.3839L121.231 30.1139C121.23 29.9272 121.183 29.7941 121.089 29.7144C121.003 29.6347 120.836 29.5954 120.589 29.5963L115.409 29.6155C115.162 29.6164 114.993 29.657 114.9 29.7374C114.807 29.8177 114.76 29.9512 114.761 30.1379L114.762 30.4079C114.763 30.5812 114.706 30.7148 114.594 30.8085C114.481 30.9023 114.344 30.9494 114.184 30.95ZM114.188 34.71C114.022 34.804 113.858 34.8346 113.698 34.8019C113.538 34.7691 113.411 34.6763 113.317 34.5233C113.23 34.3703 113.213 34.2237 113.266 34.0835C113.318 33.9433 113.428 33.8295 113.594 33.7422C113.974 33.5475 114.363 33.3227 114.762 33.0679C115.161 32.8064 115.55 32.535 115.929 32.2536C116.314 31.9655 116.663 31.6842 116.976 31.4097C117.295 31.1218 117.614 30.9773 117.934 30.9761C118.261 30.9749 118.588 31.1037 118.916 31.3625C119.223 31.6014 119.567 31.8501 119.948 32.1087C120.336 32.3672 120.74 32.6157 121.161 32.8542C121.582 33.0926 121.993 33.3078 122.394 33.4996C122.547 33.5724 122.658 33.6853 122.725 33.8384C122.792 33.9848 122.783 34.1382 122.697 34.2985C122.61 34.4655 122.478 34.576 122.298 34.63C122.125 34.6773 121.948 34.6546 121.767 34.5619C121.393 34.3567 121.003 34.1281 120.595 33.8763C120.187 33.6245 119.793 33.3659 119.412 33.1007C119.038 32.8287 118.7 32.5666 118.399 32.3144C118.245 32.1817 118.105 32.1188 117.978 32.126C117.858 32.1264 117.722 32.1936 117.569 32.3275C117.27 32.5819 116.931 32.8532 116.552 33.1413C116.18 33.4227 115.791 33.7008 115.385 33.9756C114.98 34.2438 114.58 34.4886 114.188 34.71ZM117.392 35.8382L118.672 35.8334C119.032 35.8321 119.265 35.7846 119.372 35.6908C119.485 35.5971 119.541 35.4169 119.54 35.1502C119.539 34.8769 119.481 34.6971 119.368 34.6108C119.261 34.5179 119.027 34.4721 118.667 34.4734L117.387 34.4782C117.02 34.4795 116.781 34.5271 116.668 34.6209C116.561 34.7079 116.509 34.8881 116.51 35.1614C116.511 35.4281 116.565 35.6079 116.672 35.7008C116.785 35.7938 117.026 35.8395 117.392 35.8382ZM115.248 32.0361C115.102 32.13 114.945 32.1739 114.779 32.1678C114.619 32.1618 114.482 32.0823 114.368 31.9294C114.287 31.8163 114.257 31.6864 114.276 31.5397C114.302 31.3863 114.382 31.266 114.515 31.1788C114.788 31.0045 115.067 30.8034 115.353 30.5757C115.645 30.3479 115.894 30.1337 116.1 29.9329C116.213 29.8125 116.346 29.752 116.5 29.7514C116.66 29.7508 116.796 29.807 116.91 29.9199C117.024 30.0262 117.078 30.1526 117.072 30.2993C117.065 30.4393 117.009 30.5662 116.903 30.68C116.657 30.9342 116.395 31.1752 116.116 31.4029C115.843 31.6306 115.554 31.8416 115.248 32.0361ZM120.678 31.906C120.511 31.7999 120.32 31.6773 120.106 31.5381C119.892 31.3989 119.682 31.2563 119.475 31.1104C119.274 30.9578 119.1 30.8218 118.953 30.7024C118.833 30.6028 118.766 30.4797 118.752 30.3331C118.745 30.1865 118.791 30.0596 118.89 29.9526C118.983 29.8389 119.103 29.7785 119.25 29.7712C119.403 29.7573 119.536 29.7969 119.65 29.8898C119.804 30.0092 119.981 30.1385 120.182 30.2778C120.382 30.4104 120.583 30.5396 120.783 30.6656C120.99 30.7848 121.181 30.8874 121.354 30.9735C121.488 31.0396 121.568 31.146 121.595 31.2926C121.629 31.4391 121.61 31.5792 121.537 31.7128C121.451 31.8664 121.324 31.9602 121.158 31.9942C120.991 32.0215 120.831 31.9921 120.678 31.906Z" fill="#FE585B"/>
<path d="M61.5068 58.8844C61.1125 59.0032 60.7978 58.999 60.5627 58.8719C60.3276 58.7554 60.1562 58.5587 60.0485 58.2818C59.9622 58.0261 59.9826 57.7701 60.1097 57.5136C60.2367 57.2571 60.4601 57.0909 60.7798 57.0151C61.9094 56.7122 62.9107 56.3405 63.7837 55.9C64.6567 55.4594 65.4282 54.9605 66.0982 54.4034C65.434 53.6272 64.8601 52.7706 64.3766 51.8337C63.9038 50.8861 63.5106 49.8583 63.1972 48.7501L60.8612 48.7587C60.6266 48.7596 60.4236 48.675 60.2523 48.505C60.081 48.335 59.9949 48.1326 59.994 47.8979C59.9932 47.6633 60.0778 47.4656 60.2478 47.305C60.4179 47.1337 60.6202 47.0476 60.8549 47.0467L66.3428 47.0264L66.3357 45.1064C66.3346 44.7971 66.435 44.546 66.6369 44.3533C66.8389 44.1605 67.0839 44.0636 67.3719 44.0626C67.6599 44.0615 67.9055 44.1566 68.1089 44.3478C68.3123 44.5391 68.4146 44.7894 68.4157 45.0987L68.4228 47.0187L73.8788 46.9985C74.1134 46.9976 74.3111 47.0822 74.4717 47.2523C74.643 47.4116 74.7291 47.6087 74.7299 47.8433C74.7308 48.078 74.6462 48.281 74.4762 48.4523C74.3168 48.6235 74.1198 48.7096 73.8851 48.7105L71.6771 48.7186C71.3826 49.8291 70.9971 50.8545 70.5205 51.795C70.0547 52.7354 69.4925 53.5961 68.8341 54.3772C69.5189 54.94 70.3047 55.4384 71.1917 55.8725C72.0786 56.3065 73.0826 56.6708 74.2037 56.9653C74.524 57.0388 74.7433 57.2033 74.8616 57.4589C74.9798 57.7145 74.9915 57.9704 74.8964 58.2268C74.8014 58.5045 74.6315 58.7024 74.3866 58.8207C74.1524 58.9389 73.8431 58.9454 73.4587 58.8401C71.0347 58.1344 69.0416 57.1125 67.4793 55.7743C66.7031 56.4385 65.8199 57.0284 64.8298 57.5441C63.8504 58.0597 62.7427 58.5065 61.5068 58.8844ZM67.4689 52.9903C67.9467 52.3912 68.355 51.7336 68.6936 51.0177C69.0323 50.3018 69.3175 49.5381 69.5492 48.7265L65.3092 48.7422C65.5575 49.552 65.8537 50.3136 66.1977 51.027C66.5523 51.7403 66.9761 52.3948 67.4689 52.9903ZM81.6038 59.1299C81.3265 59.131 81.0861 59.0412 80.8828 58.8606C80.6901 58.68 80.5933 58.4457 80.5922 58.1577C80.5913 57.9123 80.6865 57.6986 80.8778 57.5166C81.0691 57.3346 81.3141 57.2376 81.6127 57.2259C82.3167 57.2019 82.8175 57.0614 83.1152 56.8043C83.4235 56.5365 83.5765 56.0826 83.5741 55.4426C83.5728 55.0799 83.5236 54.7494 83.4265 54.4511L76.8025 54.4757C76.5465 54.4766 76.3382 54.3974 76.1776 54.238C76.0277 54.0679 75.9523 53.8655 75.9514 53.6308C75.9505 53.3962 76.0244 53.1986 76.1732 53.038C76.3326 52.8774 76.5403 52.7966 76.7963 52.7957L82.1243 52.7759C81.9744 52.6272 81.8777 52.4409 81.8342 52.217C81.8014 51.9931 81.8699 51.7849 82.0399 51.5923C82.2098 51.389 82.4173 51.2655 82.6625 51.2219C82.9077 51.1784 83.1586 51.2361 83.4151 51.3952C83.4579 51.4163 83.4953 51.4429 83.5274 51.4747C83.5702 51.4959 83.613 51.5224 83.6557 51.5543L84.5497 50.9909C84.7306 50.8836 84.8049 50.7767 84.7725 50.6701C84.7507 50.5635 84.6385 50.5106 84.4359 50.5114L79.9879 50.5279C79.7212 50.5288 79.5076 50.4496 79.347 50.2902C79.1971 50.1201 79.1216 49.9177 79.1208 49.6831C79.1199 49.4484 79.1938 49.2508 79.3426 49.0902C79.5019 48.919 79.715 48.8329 79.9816 48.8319L85.5816 48.8111C86.0402 48.8094 86.4086 48.904 86.6866 49.095C86.9754 49.2859 87.1629 49.5253 87.2493 49.8129C87.3357 50.1006 87.3155 50.4047 87.1887 50.7252C87.0725 51.0349 86.8389 51.3131 86.4878 51.5598C86.2963 51.6991 86.0409 51.8708 85.7217 52.0746C85.4131 52.2784 85.1045 52.4822 84.7959 52.686L84.8442 52.7659L89.9962 52.7468C90.2522 52.7458 90.4552 52.8251 90.6051 52.9845C90.7657 53.1439 90.8464 53.341 90.8473 53.5756C90.8481 53.8103 90.7689 54.0132 90.6095 54.1845C90.4608 54.3451 90.2584 54.4258 90.0024 54.4268L85.5065 54.4434C85.5718 54.7952 85.6051 55.1631 85.6066 55.5471C85.6111 56.7737 85.2838 57.6763 84.6246 58.2547C83.9761 58.8331 82.9691 59.1249 81.6038 59.1299ZM77.5067 50.217C77.2401 50.218 77.0051 50.1336 76.8018 49.9637C76.6092 49.7937 76.5123 49.5594 76.5112 49.2607L76.5082 48.4447C76.5049 47.5594 76.7266 46.9346 77.1732 46.5703C77.6305 46.2059 78.3925 46.0217 79.4592 46.0178L82.2592 46.0074L82.2552 44.9354C82.254 44.6154 82.3544 44.3644 82.5564 44.1823C82.7691 44.0002 83.0247 43.9085 83.3234 43.9074C83.6221 43.9063 83.8731 43.9961 84.0764 44.1767C84.2904 44.3572 84.398 44.6075 84.3992 44.9275L84.4032 45.9995L87.3151 45.9887C88.3925 45.9847 89.1558 46.1632 89.6051 46.5242C90.0545 46.8852 90.2808 47.5083 90.2841 48.3937L90.2871 49.2097C90.2882 49.5083 90.1931 49.7434 90.0017 49.9147C89.821 50.0861 89.592 50.1723 89.3147 50.1733C89.048 50.1743 88.813 50.0951 88.6098 49.9359C88.4172 49.7766 88.3203 49.5476 88.3192 49.249L88.3163 48.449C88.3151 48.1396 88.2343 47.9213 88.0738 47.7939C87.924 47.6557 87.6411 47.5875 87.2251 47.589L79.5611 47.6174C79.1558 47.6189 78.8734 47.6893 78.7139 47.8286C78.5544 47.9571 78.4752 48.1761 78.4763 48.4854L78.4793 49.2854C78.4804 49.5841 78.3852 49.8138 78.1938 49.9745C78.0131 50.1352 77.7841 50.216 77.5067 50.217ZM100.515 58.8678C100.259 58.8688 100.061 58.8002 99.9222 58.662C99.783 58.5239 99.7077 58.3481 99.6962 58.1349C99.6848 57.9216 99.7481 57.7347 99.8862 57.5741C100.024 57.4243 100.221 57.3436 100.477 57.332C100.755 57.3096 100.93 57.2716 101.005 57.218C101.079 57.1537 101.116 57.0149 101.115 56.8016L101.106 54.2896C101.105 53.9909 101.056 53.8045 100.96 53.7301C100.864 53.6452 100.666 53.6032 100.367 53.6043L98.5755 53.611C98.4048 53.6116 98.2552 53.5428 98.1267 53.4046C97.9982 53.2664 97.9336 53.112 97.933 52.9414C97.9323 52.76 97.9957 52.5998 98.1232 52.4606C98.2507 52.3215 98.3998 52.2516 98.5704 52.251L100.49 52.2439C100.661 52.2432 100.816 52.248 100.954 52.2582C101.093 52.2683 101.221 52.2838 101.339 52.3047C101.104 52.1989 100.863 52.1038 100.618 52.0194C100.372 51.9243 100.148 51.8398 99.9446 51.7659C99.7738 51.7132 99.6508 51.623 99.5756 51.4953C99.5005 51.3675 99.4786 51.2289 99.5101 51.0795L97.4141 51.0873C97.2328 51.0879 97.0725 51.0245 96.9334 50.897C96.8049 50.7589 96.7403 50.5938 96.7396 50.4018C96.7389 50.2204 96.8023 50.0655 96.9298 49.9371C97.068 49.7979 97.2277 49.7279 97.4091 49.7273L100.817 49.7146L100.815 49.0906L98.3987 49.0996C98.2174 49.1003 98.0625 49.0368 97.934 48.9093C97.8056 48.7818 97.741 48.6274 97.7403 48.446C97.7396 48.2647 97.8031 48.1098 97.9306 47.9813C98.0581 47.8422 98.2125 47.7723 98.3938 47.7716L100.81 47.7627L100.808 47.1707L97.6716 47.1823C97.4903 47.183 97.3354 47.1195 97.2069 46.992C97.0784 46.8645 97.0139 46.7101 97.0132 46.5287C97.0125 46.3474 97.076 46.1978 97.2035 46.08C97.3311 45.9515 97.4855 45.887 97.6668 45.8863L99.5068 45.8795L99.4908 45.8635C99.4156 45.7251 99.3243 45.5708 99.217 45.4005C99.1097 45.2196 99.0239 45.0813 98.9595 44.9855C98.8736 44.8365 98.857 44.6659 98.9096 44.4737C98.9729 44.2814 99.1004 44.137 99.292 44.0403C99.473 43.9543 99.6596 43.9322 99.8518 43.9742C100.044 44.0161 100.199 44.1276 100.317 44.3085C100.392 44.4255 100.478 44.5692 100.575 44.7395C100.682 44.9098 100.762 45.0481 100.816 45.1546C100.956 45.4101 100.946 45.6501 100.787 45.8747L101.987 45.8703C102.05 45.7314 102.13 45.5551 102.225 45.3414C102.32 45.1277 102.41 44.93 102.495 44.7484C102.579 44.5561 102.632 44.4385 102.653 44.3958C102.738 44.1822 102.887 44.0429 103.1 43.9781C103.313 43.9027 103.521 43.9072 103.724 43.9918C103.927 44.0657 104.066 44.1986 104.141 44.3903C104.217 44.582 104.207 44.774 104.111 44.9664C104.09 45.0198 104.027 45.1374 103.921 45.3191C103.825 45.5008 103.73 45.6825 103.635 45.8642L105.875 45.8559C106.056 45.8552 106.211 45.9186 106.339 46.0461C106.468 46.163 106.532 46.3121 106.533 46.4934C106.534 46.6748 106.47 46.8297 106.343 46.9581C106.215 47.0866 106.061 47.1512 105.88 47.1519L102.472 47.1645L102.474 47.7565L105.018 47.7471C105.199 47.7464 105.354 47.8151 105.483 47.9533C105.611 48.0809 105.676 48.2353 105.676 48.4166C105.677 48.598 105.614 48.7529 105.486 48.8813C105.358 49.0098 105.204 49.0744 105.023 49.075L102.479 49.0845L102.481 49.7085L106.177 49.6948C106.369 49.6941 106.529 49.7628 106.658 49.901C106.797 50.0285 106.867 50.1829 106.867 50.3642C106.868 50.5562 106.799 50.7218 106.661 50.861C106.534 50.9895 106.374 51.0541 106.182 51.0548L101.686 51.0714C101.846 51.1242 102.001 51.1823 102.151 51.2457C102.311 51.3091 102.445 51.3673 102.551 51.4202C102.712 51.4943 102.813 51.6113 102.857 51.7711C102.911 51.9309 102.895 52.0963 102.811 52.2673C102.758 52.3955 102.667 52.4918 102.54 52.5563C102.422 52.61 102.3 52.6318 102.172 52.6216C102.375 52.7916 102.515 53.015 102.59 53.2921C102.697 53.4304 102.805 53.5793 102.912 53.7389C103.03 53.8878 103.158 54.0367 103.298 54.1855C103.457 54.0676 103.649 53.9228 103.872 53.7513C104.095 53.5692 104.313 53.3924 104.526 53.2209C104.739 53.0495 104.898 52.9155 105.005 52.8191C105.175 52.6692 105.366 52.6098 105.58 52.641C105.804 52.6722 105.98 52.7729 106.109 52.943C106.238 53.1132 106.292 53.305 106.271 53.5185C106.251 53.7212 106.155 53.8869 105.985 54.0155C105.804 54.1442 105.544 54.3318 105.203 54.5784C104.863 54.8143 104.554 55.0235 104.277 55.2059C105.016 55.8858 105.759 56.4537 106.508 56.9096C106.7 57.0156 106.813 57.1858 106.846 57.4204C106.889 57.6442 106.842 57.847 106.704 58.0289C106.555 58.2321 106.358 58.3448 106.113 58.3671C105.879 58.3893 105.66 58.3314 105.456 58.1935C104.975 57.8433 104.494 57.4451 104.012 56.9989C103.541 56.5419 103.102 56.0582 102.695 55.5477L102.7 56.9717C102.702 57.6544 102.539 58.1403 102.209 58.4295C101.88 58.7188 101.315 58.8649 100.515 58.8678ZM94.8032 58.937C94.5898 58.9378 94.4029 58.8638 94.2424 58.7151C94.0925 58.577 94.0171 58.3906 94.0163 58.1559L93.9958 52.6199C93.8582 52.9191 93.7206 53.2076 93.583 53.4855C93.4453 53.7633 93.3183 54.0145 93.2018 54.2389C93.0958 54.4313 92.9363 54.5599 92.7232 54.6247C92.5207 54.6788 92.3179 54.6528 92.1149 54.5469C91.9332 54.4516 91.8153 54.308 91.7613 54.1162C91.7179 53.9137 91.7492 53.7269 91.8552 53.5559C92.0355 53.2672 92.2262 52.9252 92.4274 52.5298C92.6286 52.1343 92.8297 51.7176 93.0308 51.2795C93.2318 50.8308 93.4115 50.3981 93.57 49.9815C93.7391 49.5542 93.8763 49.1804 93.9818 48.86L92.6538 48.8649C92.4085 48.8658 92.2109 48.7919 92.061 48.6431C91.9218 48.4943 91.8518 48.3079 91.8509 48.0839C91.8501 47.8599 91.9187 47.6729 92.0569 47.5231C92.2056 47.3732 92.4027 47.2978 92.648 47.2969L93.976 47.292L93.9669 44.828C93.966 44.5827 94.0399 44.3904 94.1887 44.2512C94.3482 44.1119 94.5346 44.0419 94.748 44.0411C94.9613 44.0403 95.1429 44.109 95.2927 44.2471C95.4532 44.3852 95.534 44.5769 95.5349 44.8222L95.544 47.2862L96.312 47.2833C96.5573 47.2824 96.7496 47.3564 96.8888 47.5052C97.0387 47.654 97.1141 47.8404 97.1149 48.0644C97.1157 48.2884 97.0418 48.4753 96.893 48.6252C96.7549 48.775 96.5631 48.8504 96.3178 48.8513L95.5498 48.8542L95.5524 49.5422C95.6917 49.723 95.8578 49.941 96.0508 50.1963C96.2544 50.4409 96.4633 50.6855 96.6775 50.93C96.8917 51.1639 97.0738 51.3659 97.2238 51.536C97.3736 51.6848 97.4436 51.8605 97.4337 52.0632C97.4345 52.2659 97.3551 52.4368 97.1956 52.5761C97.0361 52.7153 96.8551 52.7853 96.6524 52.7861C96.4497 52.7762 96.284 52.6861 96.1554 52.5159C96.0803 52.4096 95.9892 52.2926 95.8821 52.165C95.7856 52.0266 95.6784 51.883 95.5605 51.7341L95.5843 58.1501C95.5851 58.3848 95.5058 58.5717 95.3463 58.711C95.1976 58.8609 95.0165 58.9362 94.8032 58.937ZM97.4256 58.4953C97.234 58.6027 97.0261 58.6301 96.8019 58.5776C96.5777 58.5251 96.4065 58.3977 96.2884 58.1955C96.181 57.9932 96.159 57.796 96.2222 57.6037C96.2962 57.4115 96.4343 57.2669 96.6366 57.1702C96.8496 57.0627 97.0837 56.9285 97.3392 56.7676C97.5946 56.6066 97.8446 56.435 98.0893 56.2528C98.3446 56.0705 98.5573 55.9044 98.7274 55.7544C98.855 55.6366 98.8973 55.5405 98.8543 55.466C98.822 55.3807 98.7045 55.3385 98.5019 55.3393L97.3019 55.3437C97.1312 55.3443 96.9816 55.2809 96.8532 55.1534C96.7354 55.0258 96.6761 54.8767 96.6755 54.706C96.6749 54.5354 96.733 54.3858 96.8498 54.2574C96.9774 54.1289 97.1265 54.0644 97.2971 54.0637L99.1691 54.0568C99.6385 54.055 100.001 54.155 100.258 54.3567C100.526 54.5584 100.665 54.8192 100.677 55.1392C100.7 55.4485 100.578 55.7689 100.313 56.1006C99.9518 56.5712 99.5267 57.0048 99.0375 57.4013C98.5483 57.7871 98.011 58.1518 97.4256 58.4953ZM118.846 57.5519C118.171 56.7544 117.549 55.658 116.978 54.2628C116.407 52.8675 115.98 51.1091 115.694 48.9875L108.974 49.0124C108.708 49.0134 108.489 48.9289 108.318 48.7588C108.157 48.5781 108.076 48.3597 108.075 48.1037C108.074 47.8584 108.153 47.6501 108.313 47.4788C108.483 47.2969 108.701 47.2054 108.968 47.2044L115.496 47.1802C115.473 46.8176 115.45 46.4444 115.428 46.0605C115.416 45.6765 115.398 45.2872 115.375 44.8926C115.374 44.594 115.464 44.359 115.645 44.1876C115.836 44.0056 116.065 43.9141 116.332 43.9131C116.598 43.9121 116.823 43.9966 117.005 44.1666C117.197 44.3259 117.294 44.5602 117.295 44.8695C117.286 45.2642 117.287 45.6536 117.3 46.0375C117.322 46.4214 117.345 46.8 117.368 47.1733L121.8 47.1569C122.077 47.1558 122.296 47.2457 122.457 47.4264C122.617 47.5965 122.698 47.8042 122.699 48.0495C122.7 48.3055 122.621 48.5245 122.461 48.7064C122.302 48.8777 122.084 48.9638 121.806 48.9648L117.566 48.9806C117.807 50.6863 118.165 52.157 118.639 53.3926C119.123 54.6175 119.66 55.5328 120.249 56.1387C120.41 56.3087 120.543 56.3829 120.65 56.3612C120.767 56.3287 120.873 56.2163 120.969 56.024C121.021 55.9065 121.085 55.7729 121.159 55.6233C121.233 55.463 121.291 55.3295 121.334 55.2226C121.439 54.9769 121.604 54.8163 121.828 54.7408C122.062 54.6546 122.297 54.6591 122.532 54.7542C122.778 54.8599 122.944 55.0247 123.03 55.2483C123.126 55.4613 123.138 55.68 123.064 55.9042C122.99 56.1285 122.906 56.3421 122.811 56.5452C122.726 56.7482 122.625 56.9725 122.509 57.2183C122.223 57.8167 121.873 58.218 121.457 58.4222C121.042 58.6371 120.605 58.6654 120.146 58.5071C119.697 58.3594 119.264 58.041 118.846 57.5519ZM109.329 58.1952C109.03 58.2389 108.784 58.1865 108.592 58.0379C108.399 57.8999 108.276 57.6924 108.222 57.4153C108.178 57.1381 108.23 56.9139 108.379 56.7427C108.538 56.5607 108.762 56.4479 109.05 56.4042C109.125 56.3932 109.364 56.355 109.769 56.2895C110.175 56.224 110.654 56.1476 111.209 56.0602L111.196 52.6042L109.276 52.6113C109.009 52.6123 108.796 52.5278 108.635 52.3577C108.485 52.1876 108.41 51.9852 108.409 51.7505C108.408 51.5052 108.482 51.3022 108.63 51.1417C108.79 50.9704 109.003 50.8843 109.269 50.8833L114.837 50.8627C115.104 50.8617 115.312 50.9463 115.462 51.1164C115.612 51.2758 115.688 51.4782 115.689 51.7235C115.689 51.9582 115.616 52.1611 115.467 52.3324C115.318 52.5036 115.11 52.5897 114.844 52.5907L113.18 52.5968L113.191 55.7328C113.756 55.6454 114.252 55.5636 114.679 55.4873C115.116 55.411 115.387 55.3673 115.494 55.3563C115.771 55.3019 115.995 55.3331 116.166 55.4498C116.348 55.5664 116.461 55.7527 116.504 56.0085C116.559 56.2643 116.522 56.4831 116.395 56.665C116.278 56.8361 116.097 56.9487 115.852 57.003C115.756 57.0247 115.543 57.0681 115.213 57.1333C114.882 57.1879 114.482 57.2587 114.013 57.3458C113.544 57.4329 113.054 57.52 112.542 57.6072C112.031 57.7051 111.54 57.7976 111.071 57.8847C110.613 57.9717 110.224 58.0425 109.904 58.097C109.595 58.1515 109.403 58.1842 109.329 58.1952ZM120.807 46.9365C120.615 47.0972 120.392 47.1674 120.136 47.147C119.89 47.1266 119.677 47.0261 119.495 46.8454C119.42 46.7603 119.312 46.6541 119.173 46.5266C119.034 46.3884 118.895 46.2556 118.756 46.1281C118.617 46.0006 118.504 45.8997 118.419 45.8254C118.248 45.6767 118.161 45.485 118.161 45.2503C118.17 45.0156 118.26 44.8126 118.43 44.6413C118.6 44.4594 118.797 44.3573 119.021 44.3351C119.256 44.3129 119.469 44.3868 119.662 44.5568C119.758 44.6311 119.887 44.7426 120.047 44.8913C120.208 45.0294 120.363 45.1675 120.513 45.3056C120.673 45.4437 120.791 45.5552 120.866 45.6403C121.048 45.821 121.129 46.0393 121.109 46.2954C121.099 46.5408 120.998 46.7545 120.807 46.9365ZM129.783 54.2793C129.548 54.2802 129.345 54.2009 129.174 54.0416C129.013 53.8715 128.932 53.6691 128.931 53.4345C128.931 53.1998 129.01 53.0022 129.169 52.8416C129.339 52.6703 129.542 52.5842 129.776 52.5833L133.68 52.5689C133.915 52.568 134.113 52.6526 134.273 52.8227C134.444 52.982 134.53 53.179 134.531 53.4137C134.532 53.6484 134.448 53.8514 134.278 54.0226C134.118 54.1832 133.921 54.264 133.687 54.2648L129.783 54.2793ZM143.838 57.3312C143.262 57.3334 142.973 57.0198 142.97 56.3904L142.94 48.3105L141.791 49.0668C141.259 49.4314 140.843 49.3689 140.542 48.8794C140.231 48.3899 140.342 47.9788 140.874 47.6462L142.789 46.439C142.981 46.321 143.167 46.2403 143.349 46.197C143.53 46.143 143.738 46.1155 143.972 46.1147C144.42 46.113 144.645 46.4268 144.648 47.0562L144.682 56.3841C144.685 57.0134 144.403 57.3291 143.838 57.3312Z" fill="black" fill-opacity="0.85"/>
</g>
<defs>
<radialGradient id="paint0_radial_1260_3864" cx="0" cy="0" r="1" gradientUnits="userSpaceOnUse" gradientTransform="translate(0.558656 46.8353) rotate(65.4889) scale(3.32531 8.21233)">
<stop offset="0.33" stop-opacity="0"/>
<stop offset="0.655" stop-opacity="0.6"/>
<stop offset="1"/>
</radialGradient>
<radialGradient id="paint1_radial_1260_3864" cx="0" cy="0" r="1" gradientUnits="userSpaceOnUse" gradientTransform="translate(355.296 45.8572) rotate(114.511) scale(3.32531 8.21233)">
<stop offset="0.33" stop-opacity="0"/>
<stop offset="0.655" stop-opacity="0.6"/>
<stop offset="1"/>
</radialGradient>
<clipPath id="clip0_1260_3864">
<rect width="200" height="90" fill="white"/>
</clipPath>
</defs>
</svg>
