<svg width="200" height="90" viewBox="0 0 200 90" fill="none" xmlns="http://www.w3.org/2000/svg">
<g clip-path="url(#clip0_2308_7119)">
<rect width="200" height="90" fill="#FEB79D"/>
<path fill-rule="evenodd" clip-rule="evenodd" d="M-6.18027 85.5257C-5.5206 81.3514 -9.94765 77.2571 -7.65473 73.2393C-4.94813 68.4966 -1.65241 61.9915 7.77154 61.0783C17.9972 60.0873 23.5998 68.8258 33.9785 69.2048C45.8176 69.6371 56.5881 60.196 66.8872 63.2371C76.2425 65.9996 70.121 74.0119 68.9752 79.5387C68.1676 83.4341 61.5364 86.4306 61.2669 90.3457C60.8502 96.3973 75.7689 103.853 67.0229 107.895C58.3557 111.9 45.7383 103.802 34.2527 102.83C27.3162 102.243 20.5655 103.925 13.6182 103.373C4.65786 102.66 -7.2514 103.227 -11.7526 99.1698C-16.3208 95.0519 -6.92748 90.2539 -6.18027 85.5257Z" fill="#FE585B"/>
<path fill-rule="evenodd" clip-rule="evenodd" d="M28.4743 10.5302C32.6486 10.8717 36.7429 8.58004 40.7607 9.76696C45.5034 11.168 52.0085 12.874 52.9217 17.7523C53.9127 23.0456 45.1742 25.9458 44.7952 31.3183C44.3629 37.4467 53.804 43.0221 50.7629 48.3534C48.0004 53.1961 39.9881 50.0274 34.4613 49.4342C30.5659 49.0162 27.5694 45.5836 23.6543 45.444C17.6027 45.2284 10.1469 52.9509 6.10508 48.4236C2.09968 43.9371 10.1975 37.4057 11.1701 31.4602C11.7575 27.8695 10.0747 24.3751 10.6274 20.7788C11.3402 16.1405 10.7727 9.97575 14.8302 7.64571C18.9481 5.281 23.7461 10.1434 28.4743 10.5302Z" fill="#FC7443"/>
<path fill-rule="evenodd" clip-rule="evenodd" d="M173.474 4.53021C177.649 4.87169 181.743 2.58004 185.761 3.76696C190.503 5.16803 197.008 6.87405 197.922 11.7523C198.913 17.0456 190.174 19.9458 189.795 25.3183C189.363 31.4467 198.804 37.0221 195.763 42.3534C193 47.1961 184.988 44.0274 179.461 43.4342C175.566 43.0162 172.569 39.5836 168.654 39.444C162.603 39.2284 155.147 46.9509 151.105 42.4236C147.1 37.9371 155.198 31.4057 156.17 25.4602C156.757 21.8695 155.075 18.3751 155.627 14.7788C156.34 10.1405 155.773 3.97575 159.83 1.64571C163.948 -0.719004 168.746 4.14342 173.474 4.53021Z" fill="#FF8787"/>
<path fill-rule="evenodd" clip-rule="evenodd" d="M117.063 7.20494C131.49 7.9797 144.155 11.9054 154.996 17.5775C166.733 23.7188 176.896 30.8598 179.688 39.9711C183.097 51.0949 184.354 63.7453 171.749 72.2549C158.691 81.0707 136.857 81.4742 117.063 82.2497C95.2362 83.1048 71.8992 84.7511 54.6033 76.8446C35.6156 68.1646 20.8565 53.9771 24.5773 39.9711C28.0889 26.7526 52.1053 19.9805 71.5388 13.0955C85.3864 8.18958 100.98 6.34119 117.063 7.20494Z" fill="#FFAB7A"/>
<ellipse cx="177.989" cy="70.7269" rx="16.7876" ry="14.0511" fill="#F55A57"/>
<ellipse cx="173.713" cy="65.6395" rx="1.21537" ry="2.15126" fill="black"/>
<ellipse cx="182.288" cy="65.6395" rx="1.21537" ry="2.15126" fill="black"/>
<path d="M173.043 72.6426C173.079 74.5703 175.312 76.0917 178.031 76.0408C180.749 75.99 182.924 74.386 182.888 72.4584C182.852 70.5307 180.67 71.7806 177.952 71.8314C175.233 71.8823 173.007 70.7149 173.043 72.6426Z" fill="black"/>
<path d="M170.798 50.9035C173.679 48.6452 180.102 51.1915 180.102 55.0219C180.103 59.542 168.088 61.6232 165.803 61.9782C165.554 62.0169 165.305 62.044 165.056 62.039C163.427 62.0062 157.617 61.2375 170.798 50.9035Z" fill="#6E5232"/>
<path d="M170.798 50.9035C173.679 48.6452 180.102 51.1915 180.102 55.0219C180.103 59.542 168.088 61.6232 165.803 61.9782C165.554 62.0169 165.305 62.044 165.056 62.039C163.427 62.0062 157.617 61.2375 170.798 50.9035Z" fill="url(#paint0_radial_2308_7119)" fill-opacity="0.15"/>
<path d="M185.204 50.7629C182.323 48.5045 175.9 51.0509 175.9 54.8813C175.899 59.4014 187.914 61.4825 190.199 61.8375C190.448 61.8763 190.697 61.9034 190.946 61.8984C192.575 61.8656 198.385 61.0968 185.204 50.7629Z" fill="#6E5232"/>
<path d="M185.204 50.7629C182.323 48.5045 175.9 51.0509 175.9 54.8813C175.899 59.4014 187.914 61.4825 190.199 61.8375C190.448 61.8763 190.697 61.9034 190.946 61.8984C192.575 61.8656 198.385 61.0968 185.204 50.7629Z" fill="url(#paint1_radial_2308_7119)" fill-opacity="0.15"/>
<path d="M83.404 34.2434L83.4067 34.9734L86.5567 34.9617L86.554 34.2317L83.404 34.2434ZM86.5418 30.9517L83.3918 30.9634L83.3941 31.5834L86.5441 31.5717L86.5418 30.9517ZM83.3978 32.5734L83.4003 33.2434L86.5503 33.2317L86.5478 32.5617L83.3978 32.5734ZM89.4787 35.5009C89.48 35.8609 89.344 36.0414 89.0707 36.0424L83.5507 36.0629L84.0321 36.4411C84.3464 36.6866 84.3205 36.91 83.9546 37.1114C83.3825 37.4535 82.6004 37.7731 81.6082 38.0701C81.3285 38.1645 81.0581 38.0655 80.797 37.7731C80.5426 37.4807 80.5386 37.3007 80.785 37.2331C81.0514 37.1588 81.4742 37.0006 82.0533 36.7584C82.6391 36.5163 83.1082 36.2845 83.4607 36.0632L80.9507 36.0725C80.6774 36.0735 80.5401 35.894 80.5387 35.534C80.5374 35.1674 80.6734 34.9835 80.9467 34.9825L82.2267 34.9778L82.2118 30.9678L81.2318 30.9714C80.9585 30.9724 80.8212 30.793 80.8198 30.433C80.8185 30.0663 80.9545 29.8824 81.2278 29.8814L82.2078 29.8778L82.2057 29.3178C82.2047 29.0445 82.4009 28.9071 82.7942 28.9056C83.1875 28.9042 83.3847 29.0401 83.3857 29.3134L83.3878 29.8734L86.5378 29.8618L86.5357 29.3018C86.5347 29.0284 86.7342 28.891 87.1342 28.8895C87.5408 28.888 87.7447 29.0239 87.7457 29.2973L87.7478 29.8573L88.7977 29.8534C89.0711 29.8524 89.2084 30.0352 89.2098 30.4019C89.2111 30.7619 89.0751 30.9424 88.8018 30.9434L87.7518 30.9473L87.7667 34.9572L89.0666 34.9524C89.34 34.9514 89.4773 35.1342 89.4787 35.5009ZM85.9843 37.0339C85.6706 36.915 85.6532 36.7351 85.9323 36.494C86.2181 36.2463 86.5245 36.1818 86.8516 36.3006C87.7928 36.6105 88.5806 36.9309 89.2152 37.2619C89.4289 37.3611 89.3462 37.5347 88.9671 37.7828C88.5881 38.0375 88.2916 38.102 88.0778 37.9761C87.4966 37.6383 86.7988 37.3242 85.9843 37.0339ZM92.2756 29.2605C92.3746 29.0001 92.611 28.9292 92.9848 29.0479C93.3586 29.1665 93.4959 29.3493 93.3968 29.5963C93.2384 30.0303 92.9606 30.618 92.5634 31.3594L92.587 37.7494C92.5881 38.0227 92.3986 38.1601 92.0186 38.1615C91.6386 38.1629 91.4481 38.0269 91.447 37.7536L91.4299 33.1236C91.2574 33.3443 91.1479 33.478 91.1014 33.5249C90.9089 33.7456 90.7018 33.6497 90.4803 33.2372C90.2654 32.8246 90.2443 32.528 90.417 32.3474C90.7027 32.073 91.0476 31.6051 91.4518 30.9435C91.856 30.2754 92.1306 29.7144 92.2756 29.2605ZM95.8143 37.0074L97.9043 36.9997C98.1976 36.9986 98.3906 36.9112 98.4833 36.7375C98.576 36.5638 98.622 36.377 98.6213 36.177C98.6532 35.8102 98.8428 35.6995 99.19 35.8449C99.5439 35.9903 99.6948 36.243 99.6428 36.6032C99.6243 37.0033 99.4956 37.3438 99.2566 37.6247C99.0244 37.9122 98.6049 38.0571 97.9982 38.0593L95.7282 38.0677C95.0282 38.0703 94.5545 37.9521 94.3069 37.713C94.0594 37.4806 93.9343 37.0177 93.9318 36.3244L93.9214 33.5244L93.5419 33.6758C93.289 33.7768 93.0852 33.6542 92.9306 33.3081C92.7826 32.9553 92.8351 32.7318 93.0881 32.6375L93.9169 32.3044L93.9096 30.3544C93.9086 30.0811 94.0948 29.9437 94.4681 29.9424C94.8414 29.941 95.0286 30.077 95.0296 30.3503L95.0352 31.8503L96.0337 31.4566L96.0257 29.2766C96.0246 29.0033 96.2008 28.8659 96.5541 28.8646C96.9141 28.8633 97.0946 28.9993 97.0956 29.2726L97.1022 31.0326L98.54 30.4373L98.9905 30.5756C99.2841 30.6612 99.4015 30.8574 99.3427 31.1643L99.3132 31.3044C99.3059 32.9378 99.2206 34.2148 99.0574 35.1354C99.0248 35.3422 98.845 35.3995 98.518 35.3074C98.191 35.2153 98.0372 35.0758 98.0565 34.8891C98.1344 34.3355 98.1877 33.4286 98.2164 32.1685C98.2288 31.9151 98.1551 31.8187 97.9953 31.8793L97.1067 32.2526L97.1183 35.3826C97.1193 35.6559 96.9398 35.7932 96.5798 35.7946C96.2265 35.7959 96.0493 35.6599 96.0483 35.3865L96.0382 32.6666L95.0397 33.0803L95.0518 36.3202C95.0528 36.6136 95.0969 36.8034 95.1839 36.8898C95.2775 36.9694 95.4876 37.0086 95.8143 37.0074ZM105.813 31.2803C106.18 31.279 106.364 31.4149 106.365 31.6883L106.367 32.2983C106.368 32.5716 106.185 32.709 105.818 32.7103C105.458 32.7116 105.278 32.5756 105.277 32.3023L105.275 31.6923C105.274 31.419 105.453 31.2817 105.813 31.2803ZM107.049 35.4758C107.322 35.4748 107.459 35.6842 107.461 36.1042C107.463 36.5242 107.353 36.7346 107.133 36.7355C107.395 37.1012 107.599 37.2837 107.745 37.2832C107.852 37.2828 107.929 37.2459 107.975 37.1723C108.088 37.0253 108.159 36.5117 108.189 35.6315C108.208 35.3381 108.131 35.1918 107.958 35.1924L105.738 35.2006L105.739 35.4806L107.049 35.4758ZM105.744 37.0306L106.384 36.9982C106.291 36.8786 106.31 36.7918 106.443 36.738L105.743 36.7406L105.744 37.0306ZM106.302 36.2685C106.475 36.2679 106.561 36.1609 106.56 35.9476L105.74 35.9506L105.742 36.2706L106.302 36.2685ZM103.9 35.9574C103.901 36.1708 103.988 36.2771 104.162 36.2765L104.742 36.2743L104.74 35.9543L103.9 35.9574ZM104.738 35.2043L103.928 35.2073L103.619 35.4885L104.739 35.4843L104.738 35.2043ZM102.313 31.1533L102.316 32.1333C102.321 33.3666 102.252 34.4535 102.108 35.3941C102.7 35.0652 103.176 34.6835 103.534 34.2488L103.194 34.25C102.874 34.2512 102.714 34.0918 102.712 33.7718L102.711 33.3318C102.71 33.0118 102.776 32.8516 102.909 32.8511L102.869 32.7412C102.781 32.4216 102.883 32.2412 103.177 32.2001C103.336 32.1728 103.726 32.0981 104.346 31.9758C103.839 31.8376 103.495 31.7622 103.315 31.7496C103.061 31.7105 102.961 31.6076 103.014 31.4407C103.073 31.2671 103.236 31.2032 103.503 31.2489L104.214 31.3862C104.607 31.4581 104.748 31.6409 104.636 31.9347C104.889 31.8871 105.019 31.9599 105.026 32.1532C105.034 32.3465 104.904 32.4704 104.638 32.5247L103.179 32.8501L107.959 32.8324C108.232 32.8314 108.149 32.7883 107.708 32.7033C107.268 32.6116 106.941 32.4561 106.727 32.2369C106.786 32.0634 106.886 31.983 107.026 31.9958C106.871 31.6764 106.984 31.4593 107.363 31.3446L108.083 31.1319L102.313 31.1533ZM107.949 30.1124C107.948 29.9724 107.861 29.9027 107.688 29.9034L102.568 29.9223C102.395 29.923 102.308 30.01 102.309 30.1833L102.31 30.3933L107.69 30.3734C107.863 30.3727 107.949 30.2857 107.949 30.1124ZM107.672 33.7534C107.846 33.7528 107.932 33.6658 107.931 33.4925L107.931 33.3125L107.081 33.3156L107.082 33.7556L107.672 33.7534ZM106.182 33.759L106.181 33.319L105.351 33.322L105.352 33.762L106.182 33.759ZM104.452 33.7654L104.451 33.3254L103.641 33.3284L103.642 33.7684L104.452 33.7654ZM104.535 34.5451L108.825 34.5292C109.145 34.528 109.303 34.7107 109.297 35.0774C109.306 35.5507 109.271 36.0809 109.193 36.6678C109.115 37.2481 109.02 37.6051 108.907 37.7389C108.774 37.9127 108.581 38.0168 108.328 38.051C108.162 38.085 108.018 38.0955 107.898 38.0826C107.585 38.0838 107.405 37.9578 107.357 37.7046L107.167 37.7853C107.008 37.8526 106.891 37.8064 106.817 37.6466C105.59 37.7379 104.317 37.8259 102.998 37.9108C102.691 37.9319 102.524 37.8126 102.496 37.5527C102.475 37.2994 102.522 37.1726 102.635 37.1721C102.755 37.165 103.458 37.1291 104.745 37.0643L104.743 36.7443L103.533 36.7488C103.213 36.75 103.053 36.5906 103.052 36.2706L103.05 35.9106C102.784 36.0849 102.548 36.0625 102.34 35.8432L102.079 35.6242C101.896 36.6715 101.689 37.399 101.457 37.8065C101.365 38.0135 101.145 38.021 100.797 37.829C100.457 37.6369 100.329 37.454 100.415 37.2804C100.925 36.3385 101.176 34.6275 101.166 32.1475L101.157 29.6576C101.156 29.3376 101.315 29.177 101.635 29.1758L108.635 29.1498C108.949 29.1487 109.106 29.3081 109.107 29.6281L109.111 30.6481C109.112 30.9681 108.953 31.1287 108.633 31.1299L108.423 31.1306C108.597 31.4367 108.554 31.6368 108.295 31.7311C108.175 31.7916 107.762 31.8831 107.056 32.0057C107.689 32.0767 108.096 32.1452 108.277 32.2112C108.57 32.2834 108.654 32.4898 108.529 32.8303C108.782 32.8293 108.91 33.0622 108.912 33.5289C108.913 33.9955 108.777 34.2294 108.504 34.2304L104.754 34.2443L104.535 34.5451ZM117.273 36.6379L119.223 36.6307C119.496 36.6296 119.634 36.8191 119.635 37.1991C119.637 37.5725 119.501 37.7596 119.227 37.7606L113.817 37.7807C113.551 37.7817 113.417 37.5955 113.415 37.2222C113.414 36.8422 113.546 36.6517 113.813 36.6507L116.083 36.6423L116.076 34.6423L114.556 34.6479C114.282 34.649 114.145 34.4661 114.144 34.0995C114.142 33.7261 114.278 33.539 114.552 33.5379L116.072 33.5323L116.065 31.8923L114.965 31.8964C114.821 32.4103 114.692 32.7541 114.579 32.9278C114.467 33.1616 114.234 33.1891 113.88 33.0104C113.526 32.8317 113.408 32.6222 113.527 32.3817L113.646 32.1613L113.527 32.2217C113.227 32.3562 113.027 32.2669 112.926 31.954L112.693 31.2748L112.717 37.6948C112.718 37.9681 112.518 38.1055 112.118 38.107C111.725 38.1085 111.528 37.9725 111.527 37.6992L111.502 30.9592C111.426 32.0395 111.309 32.8166 111.151 33.2906C111.091 33.5041 110.915 33.5581 110.621 33.4525C110.328 33.3469 110.214 33.1907 110.279 32.9838C110.445 32.5498 110.549 32.0028 110.593 31.3426C110.638 30.9091 110.824 30.7151 111.151 30.7605L111.501 30.8092L111.495 29.1792C111.494 28.9059 111.691 28.7685 112.084 28.7671C112.484 28.7656 112.684 28.9015 112.685 29.1748L112.691 30.6548L112.841 30.5943C113.127 30.4732 113.341 30.5591 113.482 30.8519C113.562 30.9849 113.676 31.2578 113.825 31.6706C114.069 30.9497 114.223 30.2858 114.287 29.6789C114.326 29.3788 114.539 29.2546 114.926 29.3065C115.313 29.3584 115.483 29.5178 115.438 29.7846L115.261 30.7753L116.061 30.7723L116.056 29.2223C116.055 28.949 116.251 28.8116 116.644 28.8102C117.044 28.8087 117.245 28.9446 117.246 29.2179L117.251 30.7679L118.881 30.7619C119.155 30.7609 119.292 30.947 119.293 31.3204C119.295 31.6937 119.159 31.8809 118.885 31.8819L117.255 31.8879L117.262 33.5279L118.682 33.5226C118.955 33.5216 119.092 33.7078 119.094 34.0811C119.095 34.4478 118.959 34.6316 118.686 34.6326L117.266 34.6379L117.273 36.6379Z" fill="#FE585B"/>
<path d="M98.2734 47.9748C98.6465 47.9094 98.8552 48.0899 98.8994 48.5164C98.9437 48.943 98.7846 49.1889 98.4221 49.2542C98.5502 49.2644 98.3315 49.2706 97.7662 49.2727L96.0382 49.2791C95.3769 49.2815 94.9337 49.1551 94.7088 48.9C94.4838 48.6341 94.3702 48.1866 94.3678 47.5572L94.3658 47.0132L89.3418 47.0319C88.8298 47.0338 88.573 46.8054 88.5713 46.3467L88.2055 46.9401C87.9298 47.3891 87.5781 47.4651 87.1503 47.168L85.8029 46.245C85.45 46.0009 85.422 45.649 85.719 45.1893C86.0159 44.7188 86.3515 44.5949 86.7256 44.8175L88.217 45.74C88.4522 45.8778 88.5693 45.808 88.5683 45.5307L92.4402 45.5164L92.2951 45.2129C92.123 44.8189 92.3246 44.5461 92.9001 44.3947C93.4755 44.2432 93.86 44.3644 94.0534 44.7584L94.4242 45.509L98.5362 45.4938C98.9735 45.4921 99.1931 45.742 99.195 46.2433C99.1968 46.7447 98.9791 46.9961 98.5418 46.9978L96.0138 47.0071L96.0159 47.5671C96.0165 47.7378 96.0383 47.855 96.0812 47.9189C96.124 47.9721 96.2201 47.9984 96.3695 47.9978L97.6975 47.9929C98.2201 47.991 98.4121 47.9849 98.2734 47.9748ZM87.3686 49.9352C87.7427 50.1471 87.7814 50.5203 87.4847 51.0548C87.1881 51.5892 86.8579 51.7398 86.4944 51.5064L84.9869 50.552C84.6233 50.3187 84.5847 49.9668 84.8709 49.4964C85.1678 49.0153 85.5033 48.8808 85.8775 49.0927L87.3686 49.9352ZM91.1324 50.9613L91.1348 51.6172C91.1359 51.8946 91.2697 52.0327 91.5364 52.0318L95.6324 52.0166C95.9097 52.0156 96.0478 51.8764 96.0468 51.599L96.0459 51.359C96.0449 51.0817 95.9057 50.9436 95.6284 50.9446L91.1324 50.9613ZM97.5438 54.0095C97.8201 53.7311 98.1934 53.7404 98.6639 54.0374C99.145 54.3342 99.2154 54.6326 98.8752 54.9326C98.5138 55.2753 98.0884 55.6075 97.5989 55.9293C97.3116 56.1224 97.307 56.3304 97.5852 56.5534C98.0774 56.9569 98.5744 57.227 99.0762 57.3639C99.4928 57.5116 99.4992 57.8103 99.0955 58.2598C98.7026 58.7199 98.2977 58.8601 97.8811 58.6803C96.0011 57.9726 94.5877 56.5058 93.6407 54.28C93.5009 53.9605 93.3353 53.9024 93.1441 54.1058C92.8572 54.4162 92.4053 54.7859 91.7882 55.2148L91.7935 56.6388C91.7945 56.9162 91.9283 57.033 92.1948 56.9894L94.1294 56.6302C94.5559 56.5646 94.7646 56.7718 94.7558 57.2519C94.7575 57.7319 94.4014 58.0425 93.6872 58.1838C91.9392 58.553 90.9269 58.8287 90.6503 59.0111C90.4799 59.0971 90.2872 58.9111 90.0722 58.4532C89.8679 58.006 89.8824 57.6166 90.1158 57.2851L90.1938 56.7408L90.1915 56.1008C89.7229 56.3158 89.462 56.4288 89.4087 56.4397C88.9507 56.612 88.5876 56.5121 88.3196 56.1397L87.9659 55.677C87.7947 55.5497 87.6511 55.6355 87.5348 55.9346C87.2496 56.693 86.9218 57.4462 86.5512 58.1943C86.3608 58.6217 86.0248 58.6336 85.5433 58.23C85.0619 57.8371 84.9112 57.4697 85.0912 57.1277C85.674 56.0802 86.2348 54.8568 86.7736 53.4574C86.9744 52.9553 87.2836 52.9009 87.701 53.294C88.1185 53.6871 88.2638 54.0492 88.1371 54.3804C88.1477 54.359 88.0262 54.6795 87.7726 55.3417C89.3068 54.856 90.5631 54.2167 91.5415 53.4238L90.4536 53.4278C89.9416 53.4297 89.6846 53.1746 89.6827 52.6626L89.672 49.7827L89.4002 49.8317C88.9631 49.8973 88.6104 49.7119 88.3421 49.2756C88.0739 48.8392 88.2543 48.5932 88.8834 48.5376C89.7793 48.4916 90.3973 48.3133 90.7374 48.0027L90.7852 47.9385C90.9864 47.5324 91.359 47.3284 91.9029 47.3264C92.4469 47.3244 92.6611 47.5582 92.5456 48.028C92.578 48.1452 92.4402 48.3804 92.1322 48.7335L90.6312 49.5551L96.7912 49.5323C97.3032 49.5304 97.5601 49.7854 97.562 50.2974L97.5706 52.6174C97.5725 53.1401 97.3122 53.4024 96.7895 53.4043L94.9975 53.4109L96.1563 55.2307C96.9008 54.6412 97.3633 54.2342 97.5438 54.0095ZM105.518 55.788L105.521 56.604C106.183 56.5588 107.11 56.4807 108.305 56.3696C108.888 55.5568 109.306 54.5952 109.558 53.485C109.81 52.3747 109.965 51.0408 110.023 49.4832L109.335 49.4858C108.823 49.4877 108.566 49.2326 108.564 48.7206L108.562 48.2406L105.49 48.252L105.493 48.876L107.557 48.8684C108.069 48.8665 108.326 49.1162 108.328 49.6175L108.34 53.0415C108.342 53.5535 108.087 53.8104 107.575 53.8123L105.511 53.82L105.513 54.444L107.753 54.4357C108.191 54.434 108.41 54.6572 108.412 55.1052C108.414 55.5532 108.196 55.778 107.758 55.7797L105.518 55.788ZM102.529 52.247C102.53 52.5137 102.669 52.6465 102.947 52.6455L103.779 52.6424L103.776 51.9224L102.528 51.927L102.529 52.247ZM106.752 51.9114L105.504 51.916L105.507 52.636L106.339 52.6329C106.616 52.6319 106.754 52.498 106.753 52.2314L106.752 51.9114ZM105.5 50.78L106.748 50.7754L106.747 50.4874C106.746 50.21 106.607 50.0719 106.329 50.0729L105.497 50.076L105.5 50.78ZM102.937 50.0855C102.66 50.0865 102.522 50.2257 102.523 50.503L102.524 50.791L103.772 50.7864L103.769 50.0824L102.937 50.0855ZM111.873 47.7324L114.337 47.7232C114.859 47.7213 115.116 47.859 115.106 48.1364C115.097 48.5524 115.079 49.5178 115.053 51.0326C115.027 52.814 114.964 54.3609 114.862 55.6733C114.771 56.9857 114.593 57.8343 114.327 58.2193C114.062 58.6043 113.653 58.8565 113.098 58.9759C112.779 59.0411 112.411 59.0638 111.995 59.044C111.408 59.0462 111.017 58.7436 110.823 58.1363C110.64 57.529 110.777 57.2458 111.236 57.2868C111.364 57.297 111.673 57.3012 112.164 57.2993C112.399 57.2985 112.58 57.2071 112.707 57.0253C113.015 56.6295 113.199 54.3622 113.258 50.2232C113.267 49.7219 113.138 49.4717 112.871 49.4727L111.831 49.4765C111.722 51.8343 111.41 53.7928 110.893 55.352C110.376 56.9113 109.692 58.0125 108.841 58.6557C108.437 59.0198 108.08 58.9945 107.769 58.5796C107.801 58.5475 107.581 58.335 107.11 57.9421C104.04 58.2735 102.056 58.4728 101.161 58.5401C100.905 58.5731 100.738 58.323 100.662 57.79C100.585 57.2569 100.765 56.9789 101.203 56.956L103.794 56.7544L103.79 55.7944L101.63 55.8024C101.193 55.804 100.974 55.5808 100.972 55.1328C100.97 54.6848 101.188 54.46 101.625 54.4584L103.785 54.4504L103.783 53.8264L101.799 53.8337C101.287 53.8356 101.03 53.5859 101.028 53.0846L101.016 49.6606C101.014 49.1486 101.269 48.8917 101.781 48.8898L103.765 48.8824L103.762 48.2584L101.267 48.2677C100.829 48.2693 100.61 48.0408 100.608 47.5821C100.606 47.1234 100.824 46.8933 101.261 46.8917L103.757 46.8824L103.755 46.2424C102.721 46.3209 102.011 46.3662 101.628 46.3783C101.244 46.3797 100.981 46.1567 100.841 45.7092C100.701 45.2617 100.897 45.021 101.43 44.987C103.819 44.8502 105.664 44.6407 106.964 44.3585C107.337 44.2718 107.663 44.4679 107.942 44.9469C108.221 45.4152 108.148 45.6821 107.721 45.7477L105.482 46.092L105.485 46.876L107.789 46.8675C108.301 46.8656 108.558 47.158 108.561 47.7446L110.065 47.7391L110.071 45.051C110.069 44.6137 110.372 44.3939 110.98 44.3916C111.588 44.3894 111.893 44.6069 111.895 45.0443L111.873 47.7324Z" fill="black" fill-opacity="0.85"/>
</g>
<defs>
<radialGradient id="paint0_radial_2308_7119" cx="0" cy="0" r="1" gradientUnits="userSpaceOnUse" gradientTransform="translate(0.560609 46.8353) rotate(65.4889) scale(3.32531 8.21233)">
<stop offset="0.33" stop-opacity="0"/>
<stop offset="0.655" stop-opacity="0.6"/>
<stop offset="1"/>
</radialGradient>
<radialGradient id="paint1_radial_2308_7119" cx="0" cy="0" r="1" gradientUnits="userSpaceOnUse" gradientTransform="translate(355.3 45.8572) rotate(114.511) scale(3.32531 8.21233)">
<stop offset="0.33" stop-opacity="0"/>
<stop offset="0.655" stop-opacity="0.6"/>
<stop offset="1"/>
</radialGradient>
<clipPath id="clip0_2308_7119">
<rect width="200" height="90" fill="white"/>
</clipPath>
</defs>
</svg>
