<svg width="200" height="90" viewBox="0 0 200 90" fill="none" xmlns="http://www.w3.org/2000/svg">
<g clip-path="url(#clip0_1720_2070)">
<rect width="200" height="90" fill="#FEB79D"/>
<path fill-rule="evenodd" clip-rule="evenodd" d="M-6.18027 85.5257C-5.5206 81.3514 -9.94765 77.2571 -7.65473 73.2393C-4.94813 68.4966 -1.65241 61.9915 7.77154 61.0783C17.9972 60.0873 23.5998 68.8258 33.9785 69.2048C45.8176 69.6371 56.5881 60.196 66.8872 63.2371C76.2425 65.9996 70.121 74.0119 68.9752 79.5387C68.1676 83.4341 61.5364 86.4306 61.2669 90.3457C60.8502 96.3973 75.7689 103.853 67.0229 107.895C58.3557 111.9 45.7383 103.802 34.2527 102.83C27.3162 102.243 20.5655 103.925 13.6182 103.373C4.65786 102.66 -7.2514 103.227 -11.7526 99.1698C-16.3208 95.0519 -6.92748 90.2539 -6.18027 85.5257Z" fill="#FE585B"/>
<path fill-rule="evenodd" clip-rule="evenodd" d="M28.4743 10.5302C32.6486 10.8717 36.7429 8.58004 40.7607 9.76696C45.5034 11.168 52.0085 12.874 52.9217 17.7523C53.9127 23.0456 45.1742 25.9458 44.7952 31.3183C44.3629 37.4467 53.804 43.0221 50.7629 48.3534C48.0004 53.1961 39.9881 50.0274 34.4613 49.4342C30.5659 49.0162 27.5694 45.5836 23.6543 45.444C17.6027 45.2284 10.1469 52.9509 6.10508 48.4236C2.09968 43.9371 10.1975 37.4057 11.1701 31.4602C11.7575 27.8695 10.0747 24.3751 10.6274 20.7788C11.3402 16.1405 10.7727 9.97575 14.8302 7.64571C18.9481 5.281 23.7461 10.1434 28.4743 10.5302Z" fill="#FC7443"/>
<path fill-rule="evenodd" clip-rule="evenodd" d="M173.474 4.53021C177.649 4.87169 181.743 2.58004 185.761 3.76696C190.503 5.16803 197.008 6.87405 197.922 11.7523C198.913 17.0456 190.174 19.9458 189.795 25.3183C189.363 31.4467 198.804 37.0221 195.763 42.3534C193 47.1961 184.988 44.0274 179.461 43.4342C175.566 43.0162 172.569 39.5836 168.654 39.444C162.603 39.2284 155.147 46.9509 151.105 42.4236C147.1 37.9371 155.198 31.4057 156.17 25.4602C156.757 21.8695 155.075 18.3751 155.627 14.7788C156.34 10.1405 155.773 3.97575 159.83 1.64571C163.948 -0.719004 168.746 4.14342 173.474 4.53021Z" fill="#FF8787"/>
<path fill-rule="evenodd" clip-rule="evenodd" d="M117.063 7.20494C131.49 7.9797 144.155 11.9054 154.996 17.5775C166.733 23.7188 176.896 30.8598 179.688 39.9711C183.097 51.0949 184.354 63.7453 171.749 72.2549C158.691 81.0707 136.857 81.4742 117.063 82.2497C95.2362 83.1048 71.8992 84.7511 54.6033 76.8446C35.6156 68.1646 20.8565 53.9771 24.5773 39.9711C28.0889 26.7526 52.1053 19.9805 71.5388 13.0955C85.3864 8.18958 100.98 6.34119 117.063 7.20494Z" fill="#FFAB7A"/>
<ellipse cx="177.987" cy="70.7269" rx="16.7876" ry="14.0511" fill="#F55A57"/>
<ellipse cx="173.711" cy="65.6395" rx="1.21537" ry="2.15126" fill="black"/>
<ellipse cx="182.286" cy="65.6395" rx="1.21537" ry="2.15126" fill="black"/>
<path d="M173.043 72.6445C173.079 74.5722 175.312 76.0937 178.031 76.0428C180.749 75.9919 182.924 74.388 182.888 72.4603C182.852 70.5326 180.67 71.7825 177.952 71.8334C175.233 71.8843 173.007 70.7168 173.043 72.6445Z" fill="black"/>
<path d="M170.796 50.9035C173.677 48.6452 180.1 51.1915 180.1 55.0219C180.101 59.542 168.086 61.6232 165.801 61.9782C165.552 62.0169 165.303 62.044 165.054 62.039C163.425 62.0062 157.615 61.2375 170.796 50.9035Z" fill="#6E5232"/>
<path d="M170.796 50.9035C173.677 48.6452 180.1 51.1915 180.1 55.0219C180.101 59.542 168.086 61.6232 165.801 61.9782C165.552 62.0169 165.303 62.044 165.054 62.039C163.425 62.0062 157.615 61.2375 170.796 50.9035Z" fill="url(#paint0_radial_1720_2070)" fill-opacity="0.15"/>
<path d="M185.2 50.7629C182.319 48.5045 175.896 51.0509 175.896 54.8813C175.896 59.4014 187.91 61.4825 190.195 61.8375C190.445 61.8763 190.693 61.9034 190.942 61.8984C192.571 61.8656 198.381 61.0968 185.2 50.7629Z" fill="#6E5232"/>
<path d="M185.2 50.7629C182.319 48.5045 175.896 51.0509 175.896 54.8813C175.896 59.4014 187.91 61.4825 190.195 61.8375C190.445 61.8763 190.693 61.9034 190.942 61.8984C192.571 61.8656 198.381 61.0968 185.2 50.7629Z" fill="url(#paint1_radial_1720_2070)" fill-opacity="0.15"/>
<path d="M43.9602 30.0332L51.4702 30.0054L51.4745 31.1854L45.1846 31.2087L45.2068 37.1987L43.9868 37.2032L43.9602 30.0332ZM50.8502 30.0077L52.0702 30.0032L52.0916 35.7731C52.0939 36.4131 51.9752 36.7636 51.5459 36.9552C51.1166 37.1468 50.4867 37.1691 49.6167 37.1723C49.5754 36.8225 49.3834 36.2832 49.2122 35.9538C49.7623 35.9818 50.4423 35.9793 50.6323 35.9686C50.8123 35.9679 50.872 35.9077 50.8715 35.7577L50.8502 30.0077ZM45.7535 28.2066L47.9934 28.1983L47.9973 29.2483L45.7574 29.2566L45.7535 28.2066ZM47.2135 28.2012L48.4934 28.1964C48.593 30.7661 49.1708 32.874 51.0441 33.777C50.785 34.018 50.3769 34.5095 50.188 34.8302C48.2137 33.6675 47.5452 31.38 47.4055 28.7405L47.2155 28.7412L47.2135 28.2012ZM47.3112 30.3008L48.4119 30.4867C48.0797 32.588 47.3152 34.0708 45.7483 34.9167C45.5873 34.6372 45.1955 34.1487 44.9547 33.9496C46.3223 33.2945 47.0676 32.0217 47.3112 30.3008ZM55.8765 37.0891C55.4231 37.0908 55.0763 37.0488 54.836 36.963C54.5957 36.8839 54.4285 36.7378 54.3344 36.5248C54.2469 36.3185 54.2025 36.0253 54.2011 35.6453L54.1899 32.6353L53.7099 32.6371C53.5633 32.6377 53.4464 32.5914 53.3594 32.4984C53.2724 32.4054 53.2287 32.2956 53.2282 32.1689C53.2277 32.0356 53.2706 31.9221 53.3569 31.8284C53.4433 31.7348 53.5598 31.6877 53.7064 31.6871L54.1864 31.6854L54.1842 31.0954C54.1836 30.9287 54.2365 30.7985 54.3428 30.7048C54.4557 30.6043 54.5856 30.5539 54.7322 30.5533C54.8856 30.5528 55.0157 30.6023 55.1228 30.7019C55.2298 30.7948 55.2836 30.9246 55.2842 31.0913L55.2864 31.6813L56.4164 31.6771L56.4142 31.0871C56.4136 30.9204 56.4664 30.7902 56.5728 30.6965C56.6857 30.5961 56.8155 30.5456 56.9622 30.5451C57.1155 30.5445 57.2457 30.594 57.3528 30.6936C57.4598 30.7865 57.5136 30.9164 57.5142 31.083L57.5164 31.673L57.8564 31.6718C58.0031 31.6712 58.1166 31.7175 58.1969 31.8105C58.2839 31.9035 58.3277 32.0167 58.3282 32.15C58.3286 32.2767 58.2857 32.3868 58.1994 32.4805C58.1197 32.5741 58.0066 32.6212 57.8599 32.6217L57.5199 32.623L57.5311 35.633C57.5325 36.013 57.4902 36.3065 57.4043 36.5135C57.3185 36.7271 57.1557 36.8744 56.916 36.9553C56.6763 37.0428 56.3298 37.0874 55.8765 37.0891ZM58.5058 36.9194C58.3728 37.0065 58.2296 37.0437 58.0763 37.031C57.9229 37.0182 57.7959 36.942 57.6954 36.8024C57.6083 36.6827 57.5745 36.5528 57.594 36.4128C57.6201 36.2727 57.693 36.1657 57.8128 36.0919C58.2518 35.8236 58.5907 35.5291 58.8295 35.2082C59.075 34.8873 59.2437 34.53 59.3355 34.1363C59.4341 33.7426 59.4824 33.3024 59.4806 32.8157L59.4798 32.5857L59.3298 32.5863C59.2571 32.7732 59.1778 32.9569 59.0918 33.1372C59.0125 33.3175 58.9264 33.4845 58.8337 33.6381C58.7608 33.7651 58.6511 33.8522 58.5046 33.8994C58.3648 33.9465 58.2281 33.9371 58.0945 33.8709C57.9676 33.8047 57.8806 33.705 57.8334 33.5718C57.7929 33.4387 57.8091 33.3119 57.882 33.1917C58.0808 32.8509 58.256 32.4703 58.4078 32.0497C58.5662 31.6291 58.6947 31.2253 58.7933 30.8383C58.8327 30.6848 58.909 30.5778 59.0221 30.5174C59.1352 30.4503 59.2651 30.4332 59.4119 30.466C59.5587 30.4988 59.669 30.5684 59.7427 30.6748C59.8164 30.7745 59.8369 30.9011 59.8041 31.0545C59.7778 31.1546 59.7515 31.2547 59.7252 31.3548C59.7056 31.4549 59.6793 31.555 59.6463 31.6551L61.2963 31.649C61.7497 31.6473 62.0601 31.7695 62.2277 32.0156C62.4019 32.2549 62.3997 32.5649 62.2211 32.9456C62.1749 33.0524 62.122 33.166 62.0624 33.2862C62.0028 33.3997 61.9366 33.5233 61.8638 33.6569C61.7976 33.7838 61.6946 33.8742 61.5548 33.9281C61.415 33.9819 61.275 33.9791 61.1347 33.9196C61.0079 33.8601 60.9175 33.7671 60.8637 33.6406C60.8165 33.5075 60.8294 33.3807 60.9023 33.2605C60.9752 33.1469 61.0315 33.0467 61.0712 32.9598C61.1507 32.8195 61.1736 32.7228 61.1401 32.6696C61.1132 32.6097 61.0164 32.58 60.8498 32.5807L60.4798 32.582L60.4806 32.812C60.4819 33.1654 60.4632 33.5021 60.4244 33.8222C60.6394 34.2748 60.9109 34.6805 61.2389 35.0392C61.5736 35.398 61.948 35.7033 62.3623 35.9551C62.5093 36.0412 62.5964 36.1609 62.6236 36.3141C62.6576 36.474 62.6247 36.6141 62.5252 36.7345C62.4257 36.8682 62.2993 36.9453 62.146 36.9659C61.9994 36.9864 61.8593 36.9536 61.7257 36.8674C61.4182 36.6553 61.1206 36.3997 60.8328 36.1007C60.545 35.7951 60.2938 35.4694 60.0792 35.1235C59.9271 35.4708 59.7217 35.7949 59.4628 36.0958C59.2106 36.3901 58.8916 36.6646 58.5058 36.9194ZM55.8314 30.3292C55.2847 30.3313 54.8944 30.2361 54.6603 30.0436C54.4263 29.8445 54.3083 29.5016 54.3065 29.0149L54.3051 28.6349C54.3045 28.4616 54.3606 28.3247 54.4736 28.2243C54.5865 28.1172 54.723 28.0633 54.883 28.0627C55.0497 28.0621 55.1899 28.1149 55.3036 28.2212C55.4173 28.3208 55.4745 28.4572 55.4751 28.6306L55.476 28.8806C55.4768 29.0872 55.5206 29.2237 55.6075 29.2901C55.7011 29.3564 55.8846 29.389 56.1579 29.388L57.4079 29.3834L57.4038 28.2834C57.4032 28.1101 57.4593 27.9732 57.5723 27.8728C57.6852 27.7657 57.8217 27.7119 57.9817 27.7113C58.1417 27.7107 58.2786 27.7635 58.3923 27.8697C58.506 27.9693 58.5632 28.1058 58.5638 28.2791L58.5679 29.3791L59.8379 29.3744C60.1112 29.3734 60.2911 29.3394 60.3775 29.2724C60.4706 29.2054 60.5168 29.0685 60.516 28.8619L60.5151 28.6119C60.5144 28.4385 60.5706 28.3017 60.6835 28.2012C60.7965 28.0942 60.9363 28.0403 61.1029 28.0397C61.2629 28.0391 61.3998 28.0919 61.5135 28.1982C61.6272 28.2978 61.6844 28.4342 61.6851 28.6075L61.6865 28.9875C61.6883 29.4742 61.5729 29.818 61.3403 30.0188C61.1077 30.213 60.718 30.3111 60.1714 30.3132L55.8314 30.3292ZM55.8727 36.0791C56.106 36.0783 56.2559 36.0477 56.3224 35.9875C56.3955 35.9205 56.4316 35.7771 56.4308 35.5571L56.4277 34.7171L55.2977 34.7213L55.3008 35.5613C55.3016 35.7812 55.3388 35.9244 55.4124 35.9908C55.4859 36.0506 55.6394 36.08 55.8727 36.0791ZM55.2943 33.8013L56.4243 33.7971L56.4199 32.6271L55.2899 32.6313L55.2943 33.8013ZM66.1048 36.6112C65.9785 36.7183 65.832 36.7622 65.6652 36.7428C65.4985 36.7301 65.3583 36.6606 65.2445 36.5344C65.144 36.4148 65.0101 36.2686 64.8428 36.0959C64.6755 35.9165 64.5015 35.7405 64.3209 35.5678C64.1469 35.3885 63.993 35.2424 63.8592 35.1295C63.7522 35.0299 63.6884 34.9035 63.6678 34.7502C63.6539 34.5903 63.7001 34.4534 63.8063 34.3397C63.9192 34.226 64.049 34.1621 64.1956 34.1483C64.3489 34.1344 64.489 34.1739 64.6161 34.2667C64.7631 34.3795 64.9337 34.5255 65.1277 34.7048C65.3283 34.8841 65.5224 35.07 65.7098 35.2627C65.9038 35.4486 66.0577 35.6114 66.1716 35.751C66.2854 35.8772 66.3359 36.0237 66.3232 36.1904C66.3105 36.3571 66.2377 36.4974 66.1048 36.6112ZM74.2066 34.3912C74.0666 34.3917 73.9464 34.3455 73.8461 34.2525C73.7524 34.1528 73.7053 34.0364 73.7048 33.903C73.7042 33.763 73.7505 33.6462 73.8435 33.5525C73.9431 33.4521 74.0629 33.4017 74.2029 33.4012L75.0229 33.3981L75.0179 32.0481L73.8279 32.0526C73.6946 32.053 73.5777 32.0068 73.4774 31.9139C73.377 31.8142 73.3266 31.6977 73.3261 31.5644C73.3256 31.4244 73.3751 31.3076 73.4748 31.2139C73.5744 31.1135 73.6909 31.0631 73.8242 31.0626L75.0142 31.0582L75.0103 29.9882C74.9306 30.0818 74.8509 30.1721 74.7713 30.259C74.6983 30.346 74.6252 30.4263 74.5522 30.4999C74.4326 30.6203 74.2895 30.6942 74.123 30.7215C73.9631 30.742 73.8162 30.6926 73.6824 30.5731C73.5687 30.4802 73.5083 30.3537 73.501 30.1938C73.5004 30.0338 73.5533 29.9036 73.6596 29.8032C73.819 29.6426 73.9916 29.4486 74.1774 29.2212C74.3699 28.9939 74.5491 28.7632 74.7149 28.5292C74.8873 28.2953 75.0232 28.0948 75.1226 27.9277C75.2154 27.7674 75.3384 27.6736 75.4916 27.6464C75.6515 27.6124 75.7982 27.6386 75.9319 27.7247C76.0722 27.8109 76.1593 27.9239 76.1931 28.0638C76.227 28.2036 76.2042 28.3404 76.1247 28.474C76.0982 28.5208 76.0683 28.5676 76.0352 28.6143C76.002 28.6611 75.9689 28.7113 75.9357 28.7647L81.6557 28.7435C81.789 28.743 81.9025 28.7926 81.9963 28.8923C82.0966 28.9852 82.147 29.0984 82.1475 29.2317C82.148 29.3717 82.0985 29.4919 81.9988 29.5923C81.9059 29.6859 81.7927 29.733 81.6594 29.7335L80.9994 29.736L81.0042 31.0359L82.1542 31.0317C82.2942 31.0312 82.411 31.0807 82.5047 31.1804C82.6051 31.2733 82.6555 31.3898 82.656 31.5298C82.6565 31.6632 82.607 31.78 82.5073 31.8804C82.4143 31.9741 82.2979 32.0212 82.1579 32.0217L81.0079 32.0259L81.0129 33.3759L81.8629 33.3728C81.9962 33.3723 82.113 33.4219 82.2134 33.5215C82.3138 33.6144 82.3642 33.7309 82.3647 33.8709C82.3652 34.0043 82.3156 34.1211 82.216 34.2215C82.1164 34.3152 81.9999 34.3623 81.8665 34.3628L74.2066 34.3912ZM82.1256 36.8118C81.9859 36.899 81.836 36.9229 81.6759 36.8835C81.5224 36.8441 81.4054 36.7578 81.3249 36.6248C81.2578 36.5117 81.1639 36.3654 81.0433 36.1858C80.9226 36.013 80.7987 35.8401 80.6714 35.6672C80.5507 35.4943 80.4468 35.3514 80.3598 35.2384C80.2727 35.1254 80.2389 35.0021 80.2584 34.8687C80.2845 34.7286 80.3541 34.615 80.4671 34.528C80.5868 34.4409 80.72 34.4037 80.8667 34.4165C81.0134 34.4226 81.137 34.4821 81.2374 34.5951C81.3378 34.7081 81.455 34.8543 81.589 35.0338C81.723 35.2066 81.8536 35.3828 81.981 35.5624C82.1083 35.7352 82.2088 35.8782 82.2826 35.9912C82.3764 36.1309 82.407 36.2775 82.3742 36.4309C82.3481 36.591 82.2653 36.718 82.1256 36.8118ZM73.8157 36.8626C73.6887 36.7698 73.6183 36.6434 73.6043 36.4834C73.5904 36.3235 73.6366 36.1866 73.7428 36.0729C73.8291 35.9792 73.9287 35.8555 74.0414 35.7018C74.1609 35.548 74.277 35.3909 74.3897 35.2305C74.5024 35.0701 74.5953 34.9331 74.6682 34.8195C74.7477 34.6858 74.8607 34.6021 75.0072 34.5682C75.1604 34.5276 75.3005 34.5438 75.4274 34.6166C75.5677 34.6895 75.6581 34.8025 75.6987 34.9556C75.7392 35.1022 75.7197 35.2422 75.6402 35.3759C75.5674 35.4961 75.4746 35.6431 75.3619 35.8169C75.2492 35.9906 75.1331 36.1611 75.0138 36.3282C74.8944 36.4953 74.7882 36.6324 74.6953 36.7394C74.5891 36.8664 74.4527 36.9436 74.2861 36.9709C74.1196 37.0048 73.9628 36.9688 73.8157 36.8626ZM79.386 36.912C79.2194 36.9526 79.0694 36.9332 78.9357 36.8537C78.8021 36.7808 78.7184 36.6711 78.6845 36.5246C78.6641 36.418 78.6336 36.2848 78.593 36.1249C78.5524 35.9584 78.5118 35.7952 78.4712 35.6354C78.4306 35.4689 78.3934 35.3357 78.3597 35.2358C78.3125 35.076 78.3286 34.9359 78.4082 34.8156C78.4877 34.6886 78.6007 34.6049 78.7473 34.5643C78.9004 34.5238 79.0438 34.5366 79.1774 34.6027C79.311 34.6622 79.4014 34.7752 79.4487 34.9417C79.4823 35.035 79.5195 35.1681 79.5601 35.3413C79.6074 35.5078 79.6547 35.6743 79.702 35.8408C79.7493 36.0073 79.7831 36.1405 79.8035 36.2404C79.8374 36.4003 79.8146 36.5437 79.7351 36.6707C79.6622 36.7976 79.5458 36.8781 79.386 36.912ZM77.2963 37.0097C77.1364 37.0437 76.9897 37.0209 76.8561 36.9414C76.7224 36.8619 76.6453 36.7455 76.6248 36.5922C76.6111 36.4989 76.5872 36.3657 76.5533 36.1925C76.526 36.0259 76.4954 35.8594 76.4614 35.6928C76.4341 35.5263 76.4103 35.3963 76.39 35.3031C76.3627 35.1432 76.3889 35.0031 76.4684 34.8828C76.5546 34.7625 76.671 34.6887 76.8176 34.6615C76.9775 34.6276 77.1209 34.647 77.2478 34.7199C77.3747 34.7861 77.4585 34.9058 77.4992 35.079C77.5261 35.1655 77.5566 35.2954 77.5906 35.4686C77.6246 35.6418 77.6552 35.8151 77.6825 35.9883C77.7165 36.1548 77.7403 36.2847 77.754 36.378C77.7813 36.5446 77.7518 36.6814 77.6655 36.7884C77.5792 36.902 77.4562 36.9758 77.2963 37.0097ZM76.0429 33.3944L76.6829 33.392L76.6779 32.042L76.0379 32.0444L76.0429 33.3944ZM79.3529 33.3821L79.9929 33.3797L79.9879 32.0297L79.3479 32.0321L79.3529 33.3821ZM77.7029 33.3882L78.3329 33.3859L78.3279 32.0359L77.6979 32.0382L77.7029 33.3882ZM76.0342 31.0544L76.6742 31.052L76.6694 29.752L76.0294 29.7544L76.0342 31.0544ZM79.3442 31.0421L79.9842 31.0397L79.9794 29.7397L79.3394 29.7421L79.3442 31.0421ZM77.6942 31.0482L78.3242 31.0459L78.3194 29.7459L77.6894 29.7482L77.6942 31.0482ZM87.5812 32.9116C87.4345 32.9121 87.3143 32.8659 87.2207 32.7729C87.127 32.6733 87.0799 32.5534 87.0793 32.4134C87.0788 32.2734 87.1251 32.1566 87.218 32.0629C87.311 31.9626 87.4308 31.9121 87.5775 31.9116L88.3575 31.9087C88.3903 31.7686 88.4297 31.5984 88.4756 31.3983C88.5282 31.1981 88.5774 30.9845 88.6232 30.7577L88.0532 30.7598C87.9065 30.7604 87.7897 30.7141 87.7027 30.6211C87.6157 30.5281 87.5719 30.4183 87.5715 30.2916C87.571 30.1583 87.6139 30.0448 87.7002 29.9511C87.7865 29.8575 87.903 29.8104 88.0497 29.8098L88.8297 29.8069C88.8625 29.6535 88.8919 29.5134 88.9181 29.3866C88.9443 29.2532 88.9672 29.1398 88.9869 29.0463L87.7369 29.051C87.5902 29.0515 87.4734 29.0053 87.3864 28.9123C87.306 28.8192 87.2656 28.7061 87.2651 28.5727C87.2646 28.4394 87.3042 28.3292 87.3839 28.2423C87.4702 28.1486 87.5867 28.1015 87.7334 28.101L92.0133 28.0851C92.16 28.0846 92.2768 28.1308 92.3638 28.2238C92.4508 28.3102 92.4946 28.42 92.4951 28.5533C92.4956 28.6867 92.4526 28.8002 92.3663 28.8938C92.28 28.9875 92.1635 29.0346 92.0169 29.0351L90.1269 29.0421C90.1072 29.1422 90.0843 29.2556 90.0581 29.3824C90.0319 29.5091 90.0024 29.6493 89.9697 29.8027L90.2797 29.8016C90.7997 29.7996 91.1567 29.8916 91.3507 30.0776C91.5447 30.2569 91.6426 30.5898 91.6444 31.0765L91.6475 31.8965L92.2774 31.8942C92.4308 31.8936 92.551 31.9432 92.638 32.0428C92.7317 32.1358 92.7788 32.2523 92.7793 32.3923C92.7798 32.5323 92.7336 32.6525 92.6406 32.7528C92.5543 32.8465 92.4345 32.8936 92.2812 32.8942L87.5812 32.9116ZM89.9553 36.7028C89.4419 36.7047 89.0384 36.6595 88.7447 36.5673C88.4511 36.4817 88.2438 36.3225 88.123 36.0896C88.0021 35.85 87.9408 35.5169 87.9393 35.0903C87.9377 34.6569 87.9964 34.3267 88.1156 34.0996C88.2347 33.8658 88.4408 33.7051 88.7338 33.6173C89.0268 33.5229 89.43 33.4747 89.9433 33.4728C90.4633 33.4709 90.8668 33.5161 91.1538 33.6083C91.4474 33.6939 91.6547 33.8532 91.7756 34.086C91.8964 34.3123 91.9576 34.642 91.9592 35.0754C91.9608 35.502 91.9021 35.8356 91.7829 36.076C91.6638 36.3098 91.4577 36.4706 91.1647 36.5583C90.8784 36.6527 90.4753 36.7009 89.9553 36.7028ZM85.4054 36.7397C84.992 36.7412 84.6652 36.6958 84.4248 36.6033C84.1912 36.5108 84.0239 36.3548 83.9231 36.1352C83.829 35.9155 83.7812 35.619 83.7798 35.2457C83.7784 34.8657 83.824 34.5689 83.9165 34.3552C84.0157 34.1348 84.1818 33.9809 84.4148 33.8933C84.6545 33.7991 84.9809 33.7512 85.3943 33.7497C85.8143 33.7481 86.1411 33.7936 86.3748 33.8861C86.6151 33.9718 86.7823 34.1246 86.8765 34.3442C86.9706 34.5572 87.0184 34.8537 87.0198 35.2337C87.0212 35.607 86.9756 35.9038 86.8831 36.1242C86.7906 36.3445 86.6245 36.5018 86.3848 36.596C86.1519 36.6902 85.8254 36.7381 85.4054 36.7397ZM83.6921 30.466C83.5521 30.4665 83.4386 30.4236 83.3516 30.3372C83.2713 30.2442 83.2309 30.1344 83.2304 30.0077C83.2299 29.881 83.2695 29.7742 83.3492 29.6872C83.4355 29.5936 83.5487 29.5465 83.6887 29.546L86.9087 29.5341C87.0487 29.5335 87.1588 29.5798 87.2392 29.6728C87.3262 29.7592 87.3699 29.8657 87.3704 29.9923C87.3708 30.119 87.3279 30.2292 87.2416 30.3228C87.1619 30.4098 87.0521 30.4535 86.9121 30.454L83.6921 30.466ZM84.1969 29.0641C84.0502 29.0646 83.9334 29.0184 83.8464 28.9254C83.7594 28.8324 83.7156 28.7192 83.7151 28.5859C83.7146 28.4526 83.7576 28.3424 83.8439 28.2554C83.9302 28.1617 84.0467 28.1147 84.1934 28.1141L86.4534 28.1057C86.6 28.1052 86.7135 28.1514 86.7939 28.2445C86.8809 28.3308 86.9246 28.4407 86.9251 28.574C86.9256 28.7073 86.8827 28.8208 86.7964 28.9145C86.7167 29.0081 86.6036 29.0552 86.4569 29.0557L84.1969 29.0641ZM84.1925 33.2841C84.0459 33.2847 83.9324 33.2418 83.8521 33.1554C83.7717 33.0624 83.7313 32.9525 83.7308 32.8259C83.7303 32.6925 83.7699 32.5824 83.8496 32.4954C83.9293 32.4018 84.0424 32.3547 84.1891 32.3542L86.4791 32.3457C86.6257 32.3451 86.7393 32.3914 86.8196 32.4844C86.8999 32.5708 86.9403 32.6806 86.9408 32.814C86.9413 32.9406 86.9017 33.0508 86.822 33.1444C86.7424 33.2314 86.6292 33.2751 86.4825 33.2757L84.1925 33.2841ZM84.1873 31.8742C84.0407 31.8747 83.9272 31.8318 83.8468 31.7454C83.7665 31.6524 83.7261 31.5425 83.7256 31.4159C83.7251 31.2825 83.7647 31.1724 83.8444 31.0854C83.9241 30.9985 84.0372 30.9547 84.1839 30.9542L86.4739 30.9457C86.6206 30.9451 86.7341 30.988 86.8144 31.0744C86.8947 31.1608 86.9351 31.2706 86.9356 31.404C86.9361 31.5306 86.8965 31.6408 86.8168 31.7344C86.7371 31.8214 86.624 31.8651 86.4773 31.8657L84.1873 31.8742ZM89.9614 35.6728C90.2014 35.6719 90.3814 35.6612 90.5013 35.6408C90.6279 35.6136 90.711 35.5567 90.7507 35.4699C90.797 35.383 90.8199 35.2529 90.8192 35.0796C90.8186 34.9129 90.7948 34.7897 90.7479 34.7099C90.7076 34.6233 90.624 34.567 90.4972 34.5408C90.3771 34.5079 90.1971 34.4919 89.9571 34.4928C89.5904 34.4941 89.3506 34.535 89.2375 34.6155C89.1311 34.6892 89.0784 34.8427 89.0792 35.076C89.0799 35.2494 89.1037 35.3793 89.1507 35.4658C89.1977 35.5523 89.2845 35.6086 89.4113 35.6348C89.5381 35.661 89.7214 35.6737 89.9614 35.6728ZM85.402 35.8197C85.6353 35.8188 85.7885 35.7816 85.8615 35.708C85.9346 35.6277 85.9707 35.4709 85.9698 35.2376C85.969 35.0109 85.9317 34.8577 85.8581 34.778C85.7845 34.6983 85.631 34.6588 85.3977 34.6597C85.171 34.6605 85.0178 34.7011 84.9381 34.7814C84.8651 34.8617 84.829 35.0151 84.8298 35.2418C84.8307 35.4751 84.8679 35.6317 84.9415 35.7114C85.0218 35.7844 85.1753 35.8205 85.402 35.8197ZM89.5075 31.9044L90.5575 31.9005L90.5552 31.2905C90.5544 31.0706 90.5172 30.9274 90.4436 30.861C90.3767 30.7879 90.2265 30.7518 89.9932 30.7526L89.7632 30.7535C89.7174 30.9803 89.6715 31.1938 89.6256 31.394C89.5797 31.5942 89.5403 31.7643 89.5075 31.9044ZM93.8238 30.9084C93.6905 30.9089 93.5836 30.866 93.5033 30.7796C93.4297 30.6932 93.3926 30.59 93.3922 30.47C93.3917 30.35 93.428 30.2466 93.501 30.1596C93.5807 30.0727 93.6872 30.0289 93.8205 30.0284L95.9705 30.0205L95.8295 29.741C95.7892 29.6678 95.7723 29.5945 95.7787 29.5212C95.7917 29.4411 95.8181 29.371 95.8579 29.3109L94.4779 29.316C94.3446 29.3165 94.2377 29.2736 94.1574 29.1872C94.0771 29.0941 94.0367 28.9876 94.0362 28.8676C94.0358 28.7476 94.0754 28.6441 94.1551 28.5572C94.2347 28.4636 94.3412 28.4165 94.4746 28.416L97.3746 28.4053L97.3734 28.0853C97.3727 27.9119 97.4289 27.775 97.5418 27.6746C97.6614 27.5675 97.8046 27.5137 97.9712 27.513C98.1446 27.5124 98.2914 27.5652 98.4118 27.6714C98.5322 27.771 98.5927 27.9074 98.5934 28.0807L98.5945 28.4007L101.535 28.3898C101.675 28.3893 101.781 28.4356 101.855 28.5286C101.935 28.615 101.976 28.7182 101.976 28.8382C101.977 28.9582 101.937 29.065 101.857 29.1586C101.784 29.2456 101.678 29.2893 101.538 29.2898L100.018 29.2955C100.051 29.3553 100.072 29.4219 100.079 29.4952C100.092 29.5685 100.082 29.6419 100.049 29.7153C100.03 29.7488 100.006 29.7922 99.9799 29.8456C99.9601 29.899 99.9336 29.9524 99.9005 30.0059L102.16 29.9975C102.294 29.997 102.397 30.04 102.471 30.1264C102.551 30.2127 102.592 30.3159 102.592 30.4359C102.593 30.5559 102.553 30.6594 102.473 30.7464C102.4 30.8333 102.297 30.877 102.164 30.8775L93.8238 30.9084ZM98.9207 35.4596C98.8144 35.5466 98.6945 35.5904 98.5612 35.5909C98.4345 35.5847 98.3243 35.5284 98.2306 35.4221C98.1971 35.3823 98.1402 35.3258 98.0599 35.2528C97.9796 35.1731 97.8993 35.0934 97.819 35.0137C97.7454 34.9339 97.6885 34.8775 97.6484 34.8443C97.5681 34.7712 97.5278 34.6814 97.5274 34.5747C97.5337 34.468 97.57 34.3712 97.6363 34.2843L96.9663 34.2868C96.4597 34.2887 96.0695 34.2435 95.7958 34.1511C95.5221 34.0522 95.3315 33.8895 95.224 33.6633C95.1232 33.437 95.0721 33.1372 95.0707 32.7638C95.0693 32.3838 95.1182 32.0836 95.2174 31.8633C95.3232 31.6362 95.5126 31.4755 95.7856 31.3812C96.0585 31.2802 96.4483 31.2287 96.955 31.2268L99.045 31.2191C99.5583 31.2172 99.9518 31.2657 100.226 31.3647C100.499 31.457 100.69 31.6163 100.797 31.8426C100.905 32.0622 100.959 32.362 100.961 32.742C100.962 33.1153 100.91 33.4155 100.804 33.6426C100.698 33.8696 100.509 34.0337 100.236 34.1347C99.9628 34.229 99.5697 34.2772 99.0563 34.2791L98.4463 34.2813C98.5199 34.3477 98.6136 34.4374 98.7273 34.5503C98.8411 34.6632 98.9214 34.7429 98.9682 34.7894C99.0619 34.889 99.1057 35.0022 99.0995 35.1289C99.0933 35.2556 99.0337 35.3658 98.9207 35.4596ZM98.2259 36.8622C97.6659 36.8642 97.2258 36.8225 96.9054 36.737C96.5918 36.6582 96.368 36.519 96.2339 36.3195C96.0998 36.12 96.0321 35.8403 96.0308 35.4803L96.029 35.0003C96.0284 34.8336 96.0812 34.7001 96.1875 34.5997C96.3005 34.4993 96.4303 34.4488 96.5769 34.4483C96.7303 34.4477 96.8571 34.4972 96.9575 34.5968C97.0645 34.6964 97.1184 34.8296 97.119 34.9962L97.1201 35.2962C97.1207 35.4562 97.1445 35.5795 97.1915 35.666C97.2384 35.7458 97.3386 35.8021 97.4921 35.8349C97.6522 35.8676 97.8956 35.8834 98.2223 35.8822C98.5156 35.8811 98.7422 35.8669 98.9021 35.8396C99.062 35.8124 99.1818 35.7619 99.2616 35.6883C99.3413 35.6147 99.4109 35.5044 99.4703 35.3575C99.5232 35.224 99.6128 35.1337 99.7393 35.0865C99.8658 35.0327 99.9991 35.0289 100.139 35.0751C100.286 35.1212 100.39 35.2008 100.45 35.3139C100.517 35.427 100.531 35.5569 100.492 35.7037C100.419 35.9907 100.304 36.2178 100.144 36.385C99.9848 36.559 99.7519 36.6798 99.4455 36.7476C99.1458 36.8221 98.7392 36.8603 98.2259 36.8622ZM93.7352 36.6888C93.6216 36.6092 93.5545 36.4961 93.534 36.3495C93.5135 36.2096 93.5463 36.0862 93.6326 35.9792C93.7123 35.8922 93.8085 35.7752 93.9213 35.6281C94.0407 35.4743 94.1568 35.3206 94.2696 35.1668C94.3823 35.0064 94.4685 34.8761 94.5281 34.7758C94.601 34.6489 94.7074 34.5718 94.8473 34.5447C94.9872 34.5108 95.1206 34.5303 95.2475 34.6032C95.3811 34.6827 95.4615 34.7924 95.4887 34.9323C95.5226 35.0722 95.5031 35.2056 95.4302 35.3325C95.364 35.4528 95.2745 35.5931 95.1618 35.7535C95.0557 35.9139 94.9463 36.0676 94.8335 36.2147C94.7274 36.3618 94.6378 36.4788 94.5648 36.5657C94.4586 36.6861 94.3255 36.7566 94.1656 36.7772C94.0123 36.8044 93.8689 36.775 93.7352 36.6888ZM102.434 36.4266C102.321 36.5136 102.191 36.5508 102.045 36.538C101.898 36.5252 101.778 36.4623 101.684 36.3493C101.61 36.2563 101.51 36.14 101.383 36.0004C101.256 35.8543 101.125 35.7114 100.991 35.5719C100.857 35.4257 100.747 35.3128 100.66 35.2331C100.566 35.1401 100.526 35.027 100.539 34.8936C100.551 34.7602 100.604 34.65 100.697 34.563C100.797 34.4693 100.917 34.4222 101.057 34.4216C101.197 34.4211 101.32 34.4707 101.427 34.5703C101.514 34.65 101.625 34.7595 101.759 34.899C101.899 35.0385 102.04 35.178 102.18 35.3175C102.321 35.457 102.428 35.5699 102.501 35.6563C102.602 35.7693 102.642 35.9024 102.623 36.0559C102.61 36.2092 102.547 36.3328 102.434 36.4266ZM97.0335 33.5066L99.0434 33.4991C99.3034 33.4981 99.4867 33.4741 99.5932 33.4271C99.6997 33.38 99.7659 33.2731 99.792 33.1063L96.282 33.1193C96.3093 33.2859 96.3764 33.3923 96.4832 33.4386C96.59 33.4849 96.7735 33.5075 97.0335 33.5066ZM97.2005 30.0159L98.6605 30.0105C98.7068 29.917 98.7631 29.8001 98.8292 29.6599C98.8954 29.5196 98.9449 29.4061 98.978 29.3193L98.9979 29.2992L96.8679 29.3071C96.8746 29.3138 96.8779 29.3204 96.878 29.3271C96.878 29.3271 96.8813 29.3304 96.888 29.3371C96.9283 29.4236 96.9787 29.5367 97.0393 29.6765C97.1064 29.8096 97.1602 29.9227 97.2005 30.0159ZM96.2794 32.4093L99.7894 32.3963C99.7621 32.2431 99.6918 32.1434 99.5783 32.0971C99.4714 32.0442 99.2913 32.0182 99.038 32.0191L97.028 32.0266C96.7746 32.0275 96.5947 32.0548 96.4883 32.1086C96.3818 32.1556 96.3122 32.2559 96.2794 32.4093ZM108.328 31.9247C107.768 31.9268 107.384 31.8315 107.177 31.6389C106.969 31.4464 106.865 31.1134 106.863 30.6401C106.861 30.1601 106.963 29.8264 107.169 29.639C107.375 29.4449 107.758 29.3468 108.318 29.3447L108.388 29.3444L108.386 28.8444L106.956 28.8497C106.836 28.8502 106.733 28.8106 106.646 28.7309C106.566 28.6445 106.525 28.5413 106.525 28.4213C106.524 28.3013 106.564 28.2012 106.644 28.1209C106.73 28.0339 106.833 27.9902 106.953 27.9897L112.253 27.9701C112.373 27.9697 112.477 28.0126 112.564 28.099C112.65 28.1786 112.694 28.2785 112.695 28.3985C112.695 28.5185 112.652 28.622 112.566 28.7089C112.479 28.7893 112.376 28.8297 112.256 28.8301L110.786 28.8355L110.788 29.3355L110.898 29.3351C111.458 29.3331 111.842 29.4283 112.049 29.6209C112.257 29.8068 112.361 30.1397 112.363 30.6197C112.365 31.093 112.263 31.4268 112.057 31.6209C111.851 31.815 111.468 31.913 110.908 31.9151L108.328 31.9247ZM105.206 36.9763C105.06 36.9768 104.936 36.9306 104.836 36.8377C104.742 36.7447 104.695 36.6215 104.694 36.4682L104.682 33.0782C104.583 33.2852 104.487 33.4823 104.394 33.6693C104.301 33.8496 104.212 34.0066 104.126 34.1403C104.053 34.2672 103.943 34.3476 103.797 34.3815C103.65 34.4087 103.517 34.3825 103.396 34.303C103.276 34.2301 103.206 34.1303 103.185 34.0038C103.172 33.8705 103.198 33.7437 103.264 33.6235C103.377 33.443 103.499 33.2259 103.632 32.9721C103.771 32.7182 103.906 32.4544 104.039 32.1806C104.171 31.9001 104.293 31.6296 104.406 31.3692C104.518 31.1088 104.607 30.8785 104.673 30.6782L104.673 30.5582L103.713 30.5618C103.586 30.5622 103.472 30.516 103.372 30.423C103.278 30.3234 103.231 30.2102 103.231 30.0836C103.23 29.9502 103.277 29.8367 103.37 29.743C103.469 29.6493 103.582 29.6023 103.709 29.6018L104.669 29.5982L104.664 28.1282C104.663 27.9749 104.709 27.8514 104.802 27.7577C104.902 27.664 105.025 27.6169 105.172 27.6163C105.312 27.6158 105.432 27.662 105.532 27.755C105.633 27.848 105.683 27.9711 105.684 28.1245L105.689 29.5944L106.349 29.592C106.482 29.5915 106.596 29.6377 106.69 29.7307C106.783 29.8237 106.83 29.9369 106.831 30.0702C106.831 30.1969 106.785 30.3104 106.692 30.4107C106.599 30.5044 106.486 30.5515 106.353 30.552L105.693 30.5544L105.695 31.0744C105.755 31.1542 105.839 31.2639 105.946 31.4035C106.053 31.5364 106.163 31.6794 106.277 31.8323C106.398 31.9785 106.512 32.1181 106.619 32.251C106.726 32.3773 106.813 32.477 106.88 32.55C106.974 32.6497 107.011 32.7662 106.991 32.8996C106.972 33.0264 106.912 33.1366 106.813 33.2303C106.706 33.324 106.583 33.3645 106.443 33.3517C106.31 33.3388 106.199 33.2792 106.112 33.1729C106.065 33.0997 106.005 33.0133 105.931 32.9136C105.858 32.8138 105.781 32.7075 105.7 32.5944L105.714 36.4644C105.715 36.6177 105.666 36.7412 105.566 36.8349C105.466 36.9287 105.346 36.9758 105.206 36.9763ZM108.786 36.893C108.633 36.8936 108.506 36.8507 108.406 36.7644C108.312 36.6848 108.262 36.5683 108.254 36.415C108.247 36.2817 108.287 36.1649 108.373 36.0645C108.459 35.9642 108.572 35.9071 108.712 35.8933C108.872 35.8794 108.976 35.8523 109.022 35.8121C109.075 35.7653 109.102 35.6685 109.101 35.5218L109.097 34.3718L106.997 34.3796C106.883 34.38 106.783 34.3371 106.696 34.2507C106.616 34.1644 106.576 34.0645 106.575 33.9512C106.575 33.8312 106.614 33.731 106.694 33.6507C106.78 33.5638 106.88 33.5201 106.994 33.5196L112.244 33.5002C112.357 33.4998 112.454 33.5427 112.534 33.6291C112.621 33.7088 112.665 33.8086 112.665 33.9286C112.666 34.0419 112.623 34.1421 112.536 34.2291C112.457 34.3161 112.36 34.3597 112.247 34.3602L110.147 34.368L110.152 35.6679C110.153 36.1146 110.048 36.4283 109.835 36.6091C109.629 36.7966 109.279 36.8912 108.786 36.893ZM107.492 33.1378C107.379 33.1382 107.279 33.0952 107.192 33.0089C107.111 32.9225 107.071 32.8227 107.071 32.7093C107.07 32.596 107.11 32.4992 107.189 32.4189C107.276 32.3319 107.376 32.2882 107.489 32.2878L111.689 32.2722C111.802 32.2718 111.899 32.3148 111.979 32.4011C112.066 32.4808 112.11 32.5773 112.111 32.6907C112.111 32.804 112.068 32.9042 111.982 32.9911C111.902 33.0781 111.805 33.1218 111.692 33.1222L107.492 33.1378ZM111.844 36.3617C111.737 36.2887 111.607 36.1926 111.453 36.0731C111.306 35.9603 111.156 35.8376 111.002 35.7048C110.855 35.572 110.724 35.4525 110.61 35.3462C110.517 35.2533 110.466 35.1401 110.459 35.0068C110.459 34.8668 110.505 34.75 110.598 34.6563C110.691 34.5559 110.801 34.4989 110.927 34.4851C111.06 34.4712 111.181 34.5108 111.288 34.6037C111.381 34.6767 111.502 34.7729 111.649 34.8924C111.796 35.0118 111.943 35.128 112.09 35.2408C112.244 35.3535 112.371 35.4431 112.471 35.5093C112.585 35.5823 112.648 35.6887 112.662 35.8286C112.683 35.9619 112.656 36.0853 112.584 36.1989C112.504 36.3259 112.394 36.403 112.254 36.4302C112.115 36.464 111.978 36.4412 111.844 36.3617ZM107.274 36.3586C107.148 36.4458 107.011 36.4763 106.864 36.4501C106.718 36.4307 106.597 36.3578 106.504 36.2315C106.43 36.1184 106.403 35.9952 106.422 35.8618C106.448 35.7217 106.518 35.6147 106.631 35.541C106.731 35.474 106.854 35.3868 107 35.2796C107.146 35.1657 107.293 35.0485 107.439 34.928C107.585 34.8075 107.705 34.7037 107.798 34.6167C107.897 34.523 108.017 34.4825 108.157 34.4953C108.297 34.5081 108.411 34.5644 108.498 34.6641C108.592 34.7704 108.639 34.8902 108.639 35.0235C108.64 35.1502 108.59 35.2604 108.49 35.3541C108.404 35.4411 108.288 35.5482 108.142 35.6754C107.995 35.7959 107.842 35.9198 107.683 36.0471C107.53 36.1677 107.394 36.2715 107.274 36.3586ZM109.315 31.101L109.875 31.0989L109.871 30.1589L109.311 30.161L109.315 31.101ZM110.795 31.0955L110.895 31.0952C111.101 31.0944 111.238 31.0606 111.304 30.9936C111.371 30.9267 111.404 30.8033 111.403 30.6233C111.402 30.4366 111.368 30.3134 111.301 30.2536C111.235 30.1872 111.098 30.1544 110.891 30.1552L110.791 30.1555L110.795 31.0955ZM108.345 31.1046L108.395 31.1044L108.391 30.1644L108.341 30.1646C108.134 30.1654 107.995 30.1992 107.922 30.2662C107.855 30.3264 107.822 30.4499 107.823 30.6365C107.824 30.8165 107.857 30.9397 107.924 31.0062C107.998 31.0726 108.138 31.1054 108.345 31.1046ZM109.308 29.341L109.868 29.339L109.866 28.839L109.306 28.841L109.308 29.341ZM119.046 36.825C118.92 36.9121 118.78 36.9593 118.626 36.9665C118.473 36.9804 118.34 36.9209 118.226 36.788C118.165 36.7149 118.129 36.6351 118.115 36.5484C118.101 36.4618 118.108 36.3785 118.134 36.2984C117.827 36.3395 117.488 36.3808 117.114 36.4221C116.748 36.4635 116.375 36.5016 115.995 36.5363C115.615 36.5777 115.248 36.6157 114.895 36.6504C114.549 36.685 114.239 36.7161 113.966 36.7438C113.832 36.751 113.715 36.7181 113.615 36.6451C113.515 36.5722 113.458 36.4624 113.444 36.3157C113.437 36.1758 113.476 36.0623 113.563 35.9753C113.649 35.8816 113.756 35.8313 113.882 35.8241C114.042 35.8102 114.215 35.7962 114.402 35.7822C114.595 35.7681 114.795 35.7541 115.002 35.74L115 35.28L113.87 35.2842C113.783 35.2845 113.71 35.2548 113.65 35.195C113.59 35.1285 113.559 35.052 113.559 34.9653C113.559 34.8786 113.588 34.8052 113.648 34.745C113.708 34.6848 113.781 34.6545 113.868 34.6542L114.998 34.65L114.997 34.35L113.867 34.3542C113.78 34.3545 113.707 34.3248 113.646 34.265C113.586 34.2052 113.556 34.132 113.556 34.0453C113.555 33.952 113.585 33.8752 113.645 33.815C113.704 33.7548 113.778 33.7245 113.864 33.7242L114.994 33.72L114.993 33.42L113.863 33.4242C113.777 33.4245 113.703 33.3948 113.643 33.335C113.583 33.2752 113.552 33.202 113.552 33.1153C113.552 33.022 113.581 32.9452 113.641 32.885C113.701 32.8248 113.774 32.7945 113.861 32.7942L114.991 32.79L114.99 32.5L113.75 32.5046C113.643 32.505 113.55 32.4653 113.469 32.3856C113.389 32.3059 113.349 32.2127 113.348 32.1061C113.348 31.9927 113.388 31.8959 113.467 31.8156C113.547 31.7353 113.64 31.695 113.747 31.6946L114.097 31.6933C114.01 31.6269 113.96 31.5338 113.946 31.4139C113.932 31.2939 113.962 31.1905 114.035 31.1035C114.134 30.9898 114.24 30.8561 114.353 30.7023C114.466 30.5419 114.572 30.3815 114.671 30.2212C114.777 30.0541 114.864 29.9071 114.93 29.7802C114.989 29.6666 115.079 29.5963 115.199 29.5692C115.319 29.5354 115.432 29.545 115.539 29.5979C115.653 29.6508 115.73 29.7339 115.77 29.8471C115.81 29.9603 115.801 30.0736 115.741 30.1872C115.728 30.2139 115.711 30.244 115.692 30.2774C115.678 30.3108 115.662 30.3442 115.642 30.3776C115.729 30.4306 115.826 30.4935 115.933 30.5665C116.04 30.6328 116.12 30.6825 116.173 30.7156C116.314 30.8084 116.374 30.9382 116.355 31.1049C116.501 30.9177 116.643 30.7072 116.782 30.4733C116.921 30.2328 117.037 30.019 117.13 29.832C117.183 29.7185 117.269 29.6449 117.389 29.6111C117.509 29.5773 117.626 29.5869 117.739 29.6398C117.705 29.5066 117.728 29.3832 117.808 29.2695C117.967 29.0489 118.119 28.795 118.265 28.5078C118.417 28.2139 118.546 27.9534 118.652 27.7264C118.712 27.5928 118.805 27.5058 118.931 27.4653C119.064 27.4249 119.191 27.431 119.311 27.4839C119.445 27.5368 119.532 27.6198 119.572 27.733C119.619 27.8461 119.616 27.9628 119.564 28.083C119.55 28.1164 119.534 28.1531 119.514 28.1932C119.501 28.2266 119.488 28.2633 119.474 28.3033L122.094 28.2936C122.214 28.2932 122.314 28.3361 122.395 28.4225C122.482 28.5022 122.525 28.602 122.526 28.722C122.526 28.842 122.483 28.9455 122.397 29.0325C122.317 29.1128 122.217 29.1532 122.097 29.1536L120.678 29.1589C120.691 29.1855 120.704 29.2155 120.718 29.2487C120.731 29.2754 120.741 29.2986 120.748 29.3186C120.802 29.4451 120.799 29.5684 120.739 29.6887C120.68 29.8022 120.584 29.8859 120.45 29.9397C120.317 29.9869 120.187 29.9907 120.06 29.9512C119.94 29.905 119.857 29.8186 119.809 29.6921C119.783 29.6189 119.749 29.5323 119.709 29.4325C119.675 29.3259 119.641 29.2361 119.608 29.1629L119.028 29.165C118.975 29.2652 118.918 29.3621 118.859 29.4556C118.806 29.5425 118.753 29.6294 118.7 29.7162C118.627 29.8298 118.524 29.9135 118.39 29.9674C118.257 30.0145 118.124 30.005 117.99 29.9388C118.011 30.0254 118.001 30.1155 117.961 30.209L117.912 30.3091C118.019 30.3754 118.142 30.455 118.283 30.5478C118.423 30.6406 118.523 30.7035 118.583 30.7367C118.684 30.7963 118.744 30.8861 118.764 31.006C118.785 31.1192 118.758 31.226 118.686 31.3263C118.613 31.4332 118.513 31.4936 118.386 31.5074C118.266 31.5145 118.153 31.4849 118.046 31.4187C117.979 31.3789 117.896 31.3225 117.795 31.2496C117.695 31.1766 117.598 31.107 117.504 31.0407C117.379 31.2478 117.249 31.4383 117.117 31.6121C117.097 31.6388 117.073 31.6623 117.047 31.6824L119.077 31.6748C119.056 31.4549 119.038 31.225 119.024 30.985C119.017 30.7451 119.009 30.4951 119.001 30.2351C119.001 30.0751 119.047 29.9483 119.14 29.8546C119.24 29.7609 119.363 29.7138 119.51 29.7132C119.65 29.7127 119.77 29.7589 119.87 29.8519C119.977 29.9448 120.031 30.068 120.031 30.2213C120.039 30.4879 120.047 30.7446 120.054 30.9912C120.069 31.2312 120.086 31.4578 120.107 31.671L122.247 31.6631C122.353 31.6627 122.444 31.7024 122.517 31.7821C122.598 31.8618 122.638 31.9583 122.638 32.0716C122.639 32.1783 122.599 32.2718 122.519 32.3521C122.446 32.4324 122.356 32.4727 122.25 32.4731L121.66 32.4753C121.907 32.5944 121.981 32.7874 121.882 33.0544C121.756 33.3749 121.614 33.6888 121.455 33.996C121.297 34.3033 121.121 34.6006 120.929 34.888C120.996 34.9944 121.063 35.1008 121.13 35.2072C121.204 35.3136 121.284 35.4167 121.371 35.5164C121.451 35.6161 121.518 35.6591 121.572 35.6456C121.625 35.6321 121.675 35.5619 121.721 35.4351C121.747 35.3683 121.77 35.3049 121.79 35.2448C121.81 35.1781 121.833 35.1146 121.859 35.0545C121.912 34.9143 121.999 34.8207 122.118 34.7736C122.245 34.7198 122.385 34.7259 122.538 34.792C122.665 34.8449 122.749 34.9346 122.789 35.0611C122.83 35.1809 122.824 35.3076 122.771 35.4412C122.738 35.528 122.695 35.6415 122.642 35.7816C122.589 35.9152 122.533 36.0454 122.474 36.1723C122.249 36.6398 121.973 36.8908 121.646 36.9253C121.326 36.9665 121.019 36.8243 120.725 36.4988C120.631 36.3924 120.541 36.2794 120.453 36.1598C120.366 36.0468 120.283 35.9271 120.202 35.8007C119.857 36.1753 119.471 36.5167 119.046 36.825ZM116.481 30.0044C116.347 30.0516 116.217 30.0554 116.091 30.0159C115.971 29.9763 115.887 29.89 115.84 29.7568C115.819 29.6969 115.786 29.607 115.739 29.4872C115.692 29.3674 115.651 29.2642 115.618 29.1776L114.928 29.1802C114.861 29.2938 114.795 29.4074 114.729 29.5209C114.663 29.6278 114.596 29.7281 114.53 29.8217C114.444 29.942 114.324 30.0224 114.171 30.063C114.024 30.1036 113.881 30.0807 113.741 29.9946C113.634 29.9217 113.57 29.8186 113.549 29.6853C113.529 29.5521 113.558 29.4353 113.638 29.335C113.817 29.101 113.993 28.8303 114.165 28.523C114.344 28.209 114.49 27.9351 114.602 27.7014C114.662 27.5678 114.755 27.4842 114.881 27.4504C115.014 27.4099 115.141 27.4161 115.261 27.4689C115.388 27.5218 115.472 27.6048 115.512 27.718C115.553 27.8312 115.546 27.9512 115.493 28.0781C115.48 28.1115 115.464 28.1482 115.444 28.1883C115.424 28.2284 115.404 28.2718 115.384 28.3185L117.584 28.3103C117.704 28.3099 117.804 28.3529 117.885 28.4392C117.972 28.5189 118.015 28.6187 118.016 28.7387C118.016 28.8587 117.973 28.9622 117.887 29.0492C117.807 29.1295 117.708 29.1699 117.588 29.1703L116.688 29.1737C116.735 29.2735 116.761 29.3401 116.768 29.3734C116.822 29.5065 116.819 29.6332 116.76 29.7534C116.707 29.8669 116.614 29.9506 116.481 30.0044ZM118.902 35.6355C119.048 35.515 119.187 35.3878 119.32 35.254C119.46 35.1134 119.592 34.9696 119.718 34.8225C119.469 34.1767 119.283 33.3974 119.16 32.4845L117.46 32.4908L117.461 32.7608L118.601 32.7566C118.694 32.7563 118.771 32.786 118.831 32.8458C118.891 32.9055 118.922 32.9788 118.922 33.0654C118.922 33.1521 118.893 33.2289 118.833 33.2958C118.773 33.356 118.696 33.3863 118.603 33.3866L117.463 33.3908L117.464 33.6408L118.604 33.6366C118.697 33.6363 118.774 33.666 118.834 33.7257C118.895 33.7855 118.925 33.8621 118.925 33.9554C118.926 34.0421 118.896 34.1155 118.836 34.1757C118.776 34.236 118.7 34.2663 118.606 34.2666L117.466 34.2708L117.467 34.5308L118.607 34.5266C118.701 34.5262 118.777 34.556 118.838 34.6157C118.898 34.6755 118.928 34.7487 118.929 34.8354C118.929 34.9221 118.899 34.9989 118.839 35.0657C118.78 35.126 118.703 35.1562 118.61 35.1566L117.47 35.1608L117.471 35.5208C117.664 35.5068 117.844 35.4894 118.011 35.4688C118.177 35.4482 118.334 35.4309 118.481 35.4171C118.687 35.403 118.828 35.4758 118.902 35.6355ZM116.012 35.6562L116.461 35.6146L116.45 32.4946L116 32.4962L116.012 35.6562ZM121.696 31.4051C121.596 31.4855 121.483 31.5226 121.356 31.5164C121.23 31.5035 121.123 31.4473 121.036 31.3476C120.975 31.2745 120.888 31.1748 120.775 31.0485C120.661 30.9156 120.574 30.8159 120.513 30.7495C120.433 30.6631 120.396 30.5599 120.402 30.4399C120.415 30.3199 120.468 30.223 120.561 30.1493C120.661 30.0556 120.771 30.0119 120.891 30.0181C121.011 30.0243 121.118 30.0739 121.211 30.1669C121.271 30.2267 121.362 30.3197 121.482 30.4459C121.603 30.5655 121.696 30.6651 121.763 30.7449C121.857 30.8445 121.898 30.9577 121.885 31.0844C121.872 31.2111 121.809 31.318 121.696 31.4051ZM120.455 33.7697C120.647 33.4357 120.812 33.0917 120.951 32.7379C121.004 32.611 121.073 32.5241 121.16 32.4771L120.19 32.4807C120.224 32.7206 120.262 32.9471 120.302 33.1603C120.35 33.3735 120.401 33.5766 120.455 33.7697ZM114.707 31.691L116.357 31.6849C116.263 31.5919 116.223 31.4854 116.236 31.3654C116.156 31.4457 116.059 31.4927 115.946 31.5064C115.84 31.5135 115.739 31.4839 115.646 31.4176C115.599 31.3844 115.532 31.338 115.445 31.2783C115.365 31.2119 115.285 31.1489 115.205 31.0892C115.138 31.1761 115.072 31.2663 115.006 31.3599C114.946 31.4468 114.883 31.527 114.817 31.6006C114.79 31.6407 114.753 31.6709 114.707 31.691ZM131.416 36.7191C131.175 36.6334 130.905 36.5177 130.604 36.3721C130.304 36.2266 130.006 36.0644 129.713 35.8854C129.419 35.7065 129.158 35.5308 128.931 35.3583C128.81 35.2654 128.74 35.149 128.719 35.0091C128.705 34.8625 128.742 34.7324 128.828 34.6187C128.901 34.5318 128.981 34.4748 129.067 34.4478L126.987 34.4555C127.027 34.4754 127.067 34.4986 127.107 34.5251C127.148 34.5516 127.181 34.5848 127.208 34.6247C127.302 34.751 127.332 34.8843 127.299 35.0244C127.273 35.1578 127.207 35.2681 127.101 35.3551C126.901 35.5159 126.658 35.6834 126.372 35.8578C126.086 36.0322 125.79 36.1933 125.484 36.3411C125.185 36.4889 124.908 36.6133 124.656 36.7142C124.462 36.7882 124.289 36.8056 124.136 36.7661C123.982 36.7334 123.869 36.6338 123.795 36.4674C123.727 36.3143 123.724 36.1676 123.783 36.0274C123.842 35.8872 123.959 35.7868 124.132 35.7261C124.385 35.6319 124.651 35.5209 124.931 35.3932C125.217 35.2588 125.49 35.1211 125.749 34.9801C126.009 34.8325 126.231 34.6917 126.418 34.5576C126.444 34.5375 126.471 34.5208 126.497 34.5074C126.531 34.4872 126.561 34.4704 126.587 34.457L123.857 34.4671C123.717 34.4677 123.597 34.4214 123.497 34.3285C123.403 34.2288 123.356 34.1123 123.355 33.979C123.355 33.839 123.401 33.7222 123.494 33.6285C123.594 33.5281 123.714 33.4777 123.854 33.4771L124.234 33.4757L124.139 29.5861C124.131 29.2861 124.154 29.046 124.206 28.8658C124.266 28.6789 124.375 28.5318 124.535 28.4246C124.694 28.3107 124.924 28.2165 125.224 28.142C125.337 28.1083 125.45 28.0779 125.563 28.0508C125.683 28.017 125.8 27.9832 125.913 27.9495C126.04 27.9157 126.16 27.9219 126.273 27.9681C126.387 28.0077 126.464 28.0941 126.504 28.2273C126.551 28.3738 126.545 28.5005 126.486 28.6074C126.433 28.7076 126.339 28.7746 126.206 28.8084C126.12 28.8354 126.026 28.8657 125.927 28.8994C125.827 28.9265 125.74 28.9468 125.667 28.9604C125.46 29.0145 125.331 29.0783 125.278 29.1518C125.224 29.2187 125.202 29.3555 125.209 29.5621L125.21 29.8721L125.99 29.8692C126.124 29.8687 126.234 29.9116 126.321 29.998C126.414 30.0843 126.461 30.1941 126.462 30.3275C126.462 30.4541 126.416 30.5643 126.323 30.658C126.237 30.745 126.127 30.7887 125.994 30.7892L125.234 30.792L125.257 31.6519L125.997 31.6492C126.13 31.6487 126.24 31.6916 126.327 31.778C126.421 31.8643 126.468 31.9741 126.468 32.1074C126.469 32.2341 126.423 32.3443 126.33 32.438C126.243 32.5249 126.134 32.5687 126 32.5692L125.28 32.5718L125.304 33.4718L126.794 33.4662L126.787 31.7463C126.787 31.6063 126.833 31.4961 126.926 31.4157C127.019 31.3287 127.129 31.285 127.255 31.2845C127.389 31.284 127.499 31.3269 127.586 31.4133C127.68 31.4929 127.727 31.6028 127.727 31.7428L127.734 33.4628L128.284 33.4607L128.276 31.4707C128.275 31.2774 128.248 31.1542 128.195 31.101C128.148 31.0412 128.018 31.0117 127.804 31.0125C127.424 31.0139 127.158 30.9449 127.004 30.8054C126.856 30.6593 126.782 30.3896 126.781 29.9963L126.774 28.1663C126.773 28.0129 126.823 27.8894 126.922 27.7957C127.022 27.702 127.142 27.6549 127.282 27.6544C127.422 27.6539 127.542 27.7001 127.642 27.7931C127.75 27.886 127.803 28.0091 127.804 28.1625L127.805 28.6025L128.845 28.5986C128.965 28.5982 129.069 28.6411 129.156 28.7275C129.243 28.8071 129.287 28.907 129.287 29.027C129.288 29.147 129.245 29.2505 129.158 29.3375C129.072 29.4244 128.969 29.4682 128.849 29.4686L127.809 29.4725L127.81 29.7725C127.81 29.9525 127.844 30.069 127.911 30.1221C127.978 30.1685 128.108 30.1913 128.301 30.1906C128.615 30.1895 128.845 30.2686 128.992 30.4281C129.146 30.5808 129.224 30.8472 129.225 31.2272L129.233 33.4572L130.683 33.4518L130.7 32.5618L129.95 32.5645C129.824 32.565 129.713 32.5187 129.62 32.4258C129.533 32.3328 129.489 32.2229 129.488 32.0962C129.488 31.9696 129.531 31.8628 129.617 31.7758C129.71 31.6821 129.82 31.635 129.947 31.6345L130.717 31.6317L130.724 30.7717L129.944 30.7746C129.817 30.775 129.707 30.7321 129.613 30.6458C129.526 30.5528 129.482 30.4429 129.482 30.3163C129.481 30.1829 129.524 30.0728 129.611 29.9858C129.704 29.8988 129.813 29.855 129.94 29.8546L130.74 29.8516L130.749 29.5416C130.755 29.3282 130.721 29.1883 130.647 29.1219C130.574 29.0489 130.43 29.0127 130.217 29.0135L129.747 29.0153C129.62 29.0157 129.51 28.9695 129.417 28.8765C129.323 28.7835 129.276 28.6737 129.275 28.547C129.275 28.4137 129.321 28.3002 129.414 28.2065C129.507 28.1128 129.617 28.0657 129.744 28.0653L130.284 28.0633C130.69 28.0618 131.004 28.1073 131.224 28.1998C131.451 28.2856 131.608 28.435 131.696 28.648C131.783 28.8611 131.821 29.1542 131.809 29.5276L131.743 33.4479L132.143 33.4464C132.283 33.4459 132.4 33.4955 132.494 33.5951C132.594 33.6881 132.645 33.8046 132.645 33.9446C132.646 34.0779 132.596 34.1947 132.497 34.2951C132.404 34.3888 132.287 34.4359 132.147 34.4364L129.397 34.4466C129.431 34.4531 129.464 34.4664 129.497 34.4862C129.537 34.5061 129.571 34.526 129.598 34.5459C129.798 34.6851 130.035 34.8309 130.309 34.9832C130.583 35.1289 130.864 35.2678 131.151 35.4001C131.445 35.5257 131.705 35.6281 131.932 35.7072C132.085 35.7533 132.189 35.8429 132.243 35.9761C132.303 36.1158 132.307 36.2592 132.254 36.406C132.188 36.5929 132.072 36.7034 131.906 36.7373C131.746 36.7779 131.582 36.7719 131.416 36.7191ZM137.136 36.7579C136.963 36.8052 136.809 36.7958 136.676 36.7296C136.542 36.6701 136.448 36.5605 136.394 36.4007C136.347 36.2609 136.357 36.1308 136.423 36.0106C136.496 35.8903 136.616 35.8065 136.782 35.7592C137.208 35.6377 137.568 35.4797 137.86 35.2852C138.153 35.0842 138.385 34.8366 138.558 34.5426L136.908 34.5488C136.761 34.5493 136.644 34.5031 136.557 34.4101C136.477 34.317 136.436 34.2072 136.436 34.0805C136.435 33.9472 136.475 33.837 136.555 33.7501C136.641 33.6564 136.757 33.6093 136.904 33.6088L138.904 33.6014C138.937 33.4612 138.956 33.3112 138.962 33.1511L138.882 33.1514C138.442 33.1531 138.096 33.1077 137.842 33.0153C137.595 32.9229 137.418 32.7569 137.31 32.5173C137.203 32.2777 137.148 31.9445 137.146 31.5179C137.145 31.0179 137.213 30.6476 137.352 30.4071C137.498 30.1665 137.754 30.0089 138.12 29.9342C138.114 29.9076 138.104 29.881 138.09 29.8543C138.083 29.821 138.08 29.7877 138.08 29.7544L138.078 29.2944L137.008 29.2984C136.861 29.2989 136.745 29.2527 136.658 29.1597C136.577 29.0666 136.537 28.9568 136.536 28.8301C136.536 28.6968 136.575 28.5866 136.655 28.4997C136.741 28.406 136.858 28.3589 137.005 28.3584L138.075 28.3544L138.073 28.0144C138.073 27.8477 138.126 27.7175 138.232 27.6238C138.345 27.5234 138.475 27.4729 138.621 27.4724C138.768 27.4718 138.895 27.5213 139.002 27.621C139.109 27.7139 139.163 27.8437 139.163 28.0104L139.165 28.3504L139.965 28.3474L139.963 28.0074C139.963 27.8407 140.016 27.7105 140.122 27.6168C140.228 27.5164 140.355 27.4659 140.501 27.4654C140.655 27.4648 140.785 27.5143 140.892 27.6139C140.999 27.7069 141.053 27.8367 141.053 28.0034L141.055 28.3434L142.195 28.3391C142.341 28.3386 142.455 28.3848 142.535 28.4779C142.615 28.5642 142.656 28.6741 142.656 28.8074C142.657 28.9341 142.617 29.0442 142.538 29.1379C142.458 29.2315 142.345 29.2786 142.198 29.2791L141.058 29.2833L141.06 29.7433C141.06 29.7767 141.057 29.81 141.05 29.8434C141.044 29.8701 141.034 29.9001 141.021 29.9335C141.374 30.0055 141.621 30.1613 141.762 30.4007C141.91 30.6402 141.985 31.0066 141.986 31.4999C141.988 31.9266 141.936 32.2601 141.83 32.5005C141.724 32.7409 141.545 32.9082 141.292 33.0025C141.039 33.0968 140.689 33.1447 140.242 33.1464L140.072 33.147C140.066 33.2204 140.06 33.2971 140.053 33.3771C140.047 33.4505 140.037 33.5238 140.024 33.5972L142.244 33.589C142.391 33.5884 142.504 33.6347 142.585 33.7277C142.672 33.8141 142.715 33.9239 142.716 34.0572C142.716 34.1839 142.673 34.2941 142.587 34.3877C142.507 34.4813 142.394 34.5284 142.248 34.529L140.508 34.5354C140.749 34.8145 141.026 35.0502 141.34 35.2423C141.654 35.4345 141.992 35.5933 142.352 35.7186C142.526 35.7779 142.643 35.8675 142.703 35.9873C142.763 36.1071 142.767 36.2404 142.714 36.3873C142.668 36.5341 142.572 36.6378 142.426 36.6983C142.279 36.7655 142.126 36.7728 141.966 36.72C141.518 36.5684 141.081 36.3333 140.653 36.0149C140.225 35.7031 139.874 35.3511 139.599 34.9588C139.149 35.7938 138.328 36.3935 137.136 36.7579ZM135.316 36.8047C135.169 36.8052 135.046 36.759 134.945 36.6661C134.845 36.5731 134.795 36.4466 134.794 36.2866L134.781 32.8766C134.676 33.1037 134.566 33.3208 134.454 33.5279C134.348 33.7282 134.249 33.9019 134.156 34.049C134.076 34.1759 133.963 34.2597 133.817 34.3002C133.677 34.3407 133.54 34.3246 133.406 34.2517C133.28 34.1789 133.199 34.0725 133.165 33.9326C133.131 33.7861 133.158 33.656 133.244 33.5423C133.363 33.3619 133.496 33.1381 133.641 32.8709C133.794 32.6036 133.943 32.3231 134.088 32.0292C134.234 31.7287 134.366 31.4415 134.485 31.1677C134.611 30.8939 134.707 30.6602 134.772 30.4667L133.792 30.4703C133.639 30.4709 133.516 30.4213 133.422 30.3217C133.328 30.222 133.281 30.1022 133.281 29.9622C133.28 29.8222 133.326 29.7053 133.419 29.6117C133.512 29.5113 133.635 29.4609 133.789 29.4603L134.769 29.4567L134.763 28.0367C134.763 27.87 134.812 27.7398 134.912 27.6461C135.012 27.5524 135.135 27.5053 135.281 27.5047C135.435 27.5042 135.558 27.5504 135.652 27.6434C135.752 27.7363 135.803 27.8661 135.803 28.0328L135.809 29.4528L136.509 29.4502C136.662 29.4496 136.782 29.4992 136.869 29.5989C136.963 29.6919 137.01 29.8084 137.011 29.9484C137.011 30.0883 136.965 30.2085 136.872 30.3089C136.786 30.4092 136.666 30.4596 136.512 30.4602L135.812 30.4628L135.814 31.0028C135.908 31.1091 136.029 31.252 136.176 31.4315C136.33 31.6109 136.481 31.787 136.628 31.9598C136.775 32.1259 136.896 32.2555 136.989 32.3484C137.09 32.4547 137.14 32.5812 137.141 32.7279C137.141 32.8746 137.085 32.9981 136.972 33.0985C136.866 33.1989 136.736 33.2427 136.583 33.23C136.436 33.2172 136.316 33.1509 136.222 33.0313C136.175 32.9715 136.115 32.895 136.041 32.802C135.974 32.7089 135.9 32.6092 135.82 32.5028L135.834 36.2828C135.835 36.4428 135.785 36.5696 135.685 36.6633C135.592 36.757 135.469 36.8041 135.316 36.8047ZM139.029 32.3409L140.109 32.3369C140.376 32.3359 140.563 32.3085 140.669 32.2548C140.776 32.2011 140.838 32.0708 140.858 31.8641L138.268 31.8737C138.295 32.0803 138.362 32.21 138.469 32.263C138.576 32.3159 138.763 32.3419 139.029 32.3409ZM138.265 31.1337L140.855 31.1241C140.828 30.9309 140.757 30.8111 140.644 30.7649C140.537 30.712 140.357 30.686 140.103 30.6869L139.023 30.6909C138.763 30.6919 138.58 30.7192 138.474 30.7729C138.367 30.82 138.298 30.9403 138.265 31.1337ZM139.15 29.8804L139.99 29.8773C139.977 29.824 139.97 29.7807 139.97 29.7474L139.968 29.2874L139.168 29.2903L139.17 29.7503C139.17 29.7837 139.163 29.827 139.15 29.8804ZM147.444 36.3897C147.284 36.3903 147.158 36.3408 147.064 36.2411C146.97 36.1415 146.923 36.0183 146.923 35.8717C146.922 35.7317 146.968 35.6115 147.061 35.5111C147.154 35.4108 147.281 35.3603 147.441 35.3597L148.111 35.3572L148.089 29.5373C148.088 29.124 148.143 28.7971 148.255 28.5567C148.368 28.3162 148.554 28.1456 148.814 28.0446C149.073 27.937 149.42 27.8823 149.853 27.8807L150.193 27.8795C150.633 27.8778 150.98 27.9299 151.234 28.0356C151.494 28.1347 151.681 28.304 151.795 28.5435C151.91 28.7831 151.968 29.1096 151.969 29.5229L151.991 35.3429L152.381 35.3414C152.541 35.3408 152.667 35.3904 152.761 35.49C152.855 35.5897 152.902 35.7095 152.903 35.8495C152.903 35.9962 152.857 36.1197 152.764 36.22C152.671 36.3203 152.544 36.3708 152.384 36.3714L147.444 36.3897ZM145.606 36.7665C145.453 36.7671 145.322 36.7176 145.215 36.618C145.115 36.5184 145.064 36.3852 145.064 36.2185L145.05 32.5986C144.837 32.626 144.637 32.6534 144.451 32.6808C144.264 32.7015 144.104 32.7187 143.971 32.7326C143.804 32.7532 143.661 32.7204 143.541 32.6342C143.427 32.5413 143.363 32.4115 143.349 32.2449C143.335 32.0916 143.371 31.9615 143.458 31.8545C143.551 31.7408 143.68 31.6803 143.847 31.673C143.894 31.6662 143.944 31.6627 143.997 31.6625C144.057 31.6622 144.117 31.6587 144.177 31.6518C144.27 31.5315 144.376 31.3877 144.495 31.2206C144.621 31.0468 144.754 30.8663 144.893 30.6791C144.773 30.5863 144.629 30.4834 144.462 30.3707C144.295 30.2514 144.135 30.1386 143.981 30.0325C143.834 29.9197 143.717 29.8368 143.63 29.7838C143.503 29.7043 143.426 29.5946 143.399 29.4547C143.378 29.3147 143.408 29.1813 143.487 29.0543C143.573 28.9207 143.69 28.8403 143.836 28.813C143.983 28.7792 144.12 28.8053 144.247 28.8915L144.327 28.9412C144.393 28.8276 144.473 28.694 144.565 28.5403C144.658 28.3867 144.744 28.2397 144.824 28.0994C144.91 27.9591 144.969 27.8522 145.003 27.7787C145.075 27.6451 145.185 27.558 145.332 27.5175C145.485 27.4703 145.628 27.4831 145.762 27.5559C145.889 27.6221 145.969 27.7251 146.003 27.865C146.037 28.0049 146.017 28.1383 145.944 28.2652C145.891 28.3588 145.815 28.4824 145.716 28.6361C145.623 28.7898 145.524 28.9468 145.417 29.1072C145.318 29.2676 145.229 29.4046 145.149 29.5182L145.52 29.7868C145.673 29.5796 145.809 29.3857 145.928 29.2053C146.054 29.0248 146.153 28.8778 146.226 28.7642C146.319 28.6305 146.439 28.5501 146.585 28.5229C146.732 28.4956 146.869 28.5251 146.996 28.6113C147.129 28.6908 147.21 28.8039 147.237 28.9504C147.264 29.097 147.235 29.2338 147.148 29.3608C147.036 29.5145 146.886 29.7151 146.701 29.9624C146.522 30.2098 146.329 30.4705 146.124 30.7446C145.918 31.0187 145.722 31.2794 145.536 31.5268C145.723 31.5127 145.906 31.4954 146.086 31.4747C146.266 31.4541 146.429 31.4368 146.576 31.4229L146.475 31.1933C146.421 31.0668 146.424 30.9435 146.484 30.8232C146.55 30.6963 146.646 30.6093 146.773 30.5622C146.906 30.5083 147.033 30.5079 147.153 30.5608C147.28 30.607 147.377 30.6966 147.444 30.8297C147.491 30.9162 147.551 31.046 147.625 31.219C147.699 31.3854 147.773 31.5551 147.847 31.7282C147.921 31.8946 147.975 32.0277 148.009 32.1276C148.063 32.2674 148.066 32.3974 148.02 32.5176C147.974 32.6377 147.874 32.7281 147.721 32.7887C147.575 32.8425 147.435 32.8431 147.301 32.7902C147.168 32.7374 147.074 32.6444 147.02 32.5113C147.013 32.4846 147.003 32.4547 146.99 32.4214C146.976 32.3881 146.963 32.3548 146.949 32.3215C146.843 32.3419 146.72 32.3624 146.58 32.3829C146.44 32.4034 146.293 32.424 146.14 32.4445L146.154 36.2145C146.154 36.3812 146.102 36.5147 145.995 36.6151C145.889 36.7155 145.759 36.766 145.606 36.7665ZM143.742 35.6634C143.615 35.6172 143.518 35.5376 143.451 35.4245C143.39 35.3047 143.387 35.1814 143.44 35.0546C143.492 34.921 143.552 34.7541 143.618 34.5539C143.69 34.347 143.756 34.14 143.815 33.9332C143.875 33.7263 143.921 33.5494 143.953 33.4026C143.986 33.2692 144.059 33.1689 144.172 33.1018C144.292 33.0347 144.422 33.0176 144.562 33.0504C144.696 33.0766 144.796 33.1462 144.863 33.2593C144.93 33.3724 144.947 33.4956 144.914 33.6291C144.881 33.7825 144.835 33.966 144.776 34.1796C144.717 34.3865 144.654 34.5934 144.589 34.8003C144.523 35.0005 144.463 35.1741 144.411 35.321C144.358 35.4545 144.265 35.5548 144.132 35.622C144.005 35.6891 143.875 35.7029 143.742 35.6634ZM149.241 35.3531L150.811 35.3472L150.805 33.8672L149.235 33.8731L149.241 35.3531ZM149.231 32.8131L150.801 32.8073L150.796 31.4173L149.226 31.4231L149.231 32.8131ZM149.222 30.3631L150.792 30.3573L150.789 29.5873C150.788 29.3406 150.738 29.1775 150.637 29.0978C150.544 29.0115 150.357 28.9689 150.077 28.9699L149.927 28.9705C149.647 28.9715 149.457 29.0155 149.357 29.1026C149.264 29.1829 149.218 29.3464 149.219 29.5931L149.222 30.3631ZM147.39 35.0499C147.243 35.0971 147.106 35.0943 146.979 35.0414C146.859 34.9819 146.776 34.8855 146.728 34.7524C146.695 34.6525 146.651 34.526 146.597 34.3728C146.543 34.213 146.493 34.0566 146.445 33.9034C146.398 33.7436 146.361 33.6137 146.334 33.5138C146.3 33.3806 146.316 33.2572 146.382 33.1436C146.455 33.03 146.558 32.9596 146.692 32.9325C146.825 32.8987 146.945 32.9115 147.052 32.9712C147.165 33.0307 147.242 33.1238 147.283 33.2503C147.31 33.3435 147.35 33.4634 147.404 33.6099C147.458 33.7563 147.512 33.9028 147.566 34.0493C147.62 34.1957 147.663 34.3156 147.697 34.4088C147.751 34.5419 147.748 34.6686 147.689 34.7888C147.629 34.909 147.529 34.9961 147.39 35.0499ZM160.185 36.4225C159.598 36.4247 159.128 36.3698 158.774 36.2577C158.427 36.1457 158.176 35.9499 158.022 35.6705C157.874 35.3844 157.799 34.9913 157.798 34.4913L157.774 28.2014C157.774 28.0147 157.833 27.8678 157.953 27.7607C158.072 27.6469 158.215 27.5897 158.382 27.5891C158.549 27.5885 158.689 27.6446 158.803 27.7576C158.923 27.8638 158.984 28.0102 158.984 28.1969L158.994 30.8669C159.267 30.7325 159.55 30.5915 159.843 30.4437C160.135 30.296 160.411 30.1483 160.671 30.0007C160.937 29.853 161.16 29.7188 161.339 29.5982C161.492 29.5043 161.659 29.4637 161.839 29.4763C162.019 29.489 162.153 29.5718 162.24 29.7248C162.327 29.8712 162.354 30.0277 162.322 30.1945C162.289 30.3547 162.203 30.4816 162.063 30.5755C161.77 30.7566 161.444 30.9411 161.085 31.1291C160.732 31.3104 160.376 31.4851 160.017 31.6531C159.658 31.8144 159.318 31.959 158.999 32.0869L159.007 34.3969C159.008 34.6102 159.039 34.7767 159.099 34.8965C159.166 35.0163 159.283 35.0992 159.45 35.1452C159.623 35.1912 159.87 35.2137 160.19 35.2125C160.484 35.2114 160.713 35.1872 160.88 35.1399C161.053 35.0859 161.179 34.9955 161.259 34.8685C161.345 34.7415 161.408 34.5646 161.447 34.3378C161.48 34.1577 161.566 34.024 161.705 33.9368C161.845 33.843 162.005 33.8124 162.185 33.8451C162.365 33.8711 162.502 33.9472 162.596 34.0735C162.696 34.1998 162.734 34.353 162.708 34.5331C162.624 35.2001 162.389 35.681 162.003 35.9758C161.617 36.2705 161.011 36.4194 160.185 36.4225ZM155.676 36.6792C155.509 36.6798 155.369 36.627 155.255 36.5208C155.141 36.4145 155.084 36.2714 155.083 36.0914L155.066 31.4314C154.92 31.612 154.774 31.7859 154.628 31.9531C154.489 32.1136 154.353 32.2608 154.22 32.3946C154.113 32.5083 153.977 32.5721 153.81 32.5861C153.65 32.5934 153.51 32.5439 153.39 32.4377C153.276 32.3381 153.212 32.2116 153.198 32.0584C153.185 31.8984 153.231 31.7649 153.337 31.6578C153.576 31.4103 153.818 31.1294 154.064 30.8151C154.316 30.4942 154.558 30.1633 154.79 29.8224C155.029 29.4749 155.241 29.1374 155.426 28.8101C155.619 28.4827 155.774 28.1855 155.893 27.9183C155.966 27.7647 156.076 27.661 156.222 27.6071C156.375 27.5532 156.525 27.5593 156.672 27.6255C156.826 27.6916 156.926 27.7979 156.973 27.9443C157.02 28.0842 157.011 28.2309 156.945 28.3845C156.859 28.5914 156.753 28.8085 156.627 29.0356C156.508 29.2561 156.382 29.4799 156.25 29.707L156.273 36.087C156.274 36.267 156.215 36.4105 156.095 36.5177C155.982 36.6247 155.842 36.6786 155.676 36.6792Z" fill="#FE585B"/>
<path d="M64.933 54.7968C64.709 54.7977 64.5167 54.7237 64.3562 54.575C64.2062 54.4155 64.1309 54.2291 64.1301 54.0158C64.1293 53.7918 64.2032 53.6049 64.352 53.455C64.5114 53.2944 64.7031 53.2137 64.9271 53.2128L66.2391 53.208L66.2311 51.048L64.3271 51.0551C64.1138 51.0558 63.9268 50.9819 63.7663 50.8331C63.6057 50.6737 63.525 50.4874 63.5242 50.274C63.5234 50.05 63.6027 49.8631 63.7621 49.7131C63.9215 49.5525 64.1079 49.4719 64.3212 49.4711L66.2252 49.464L66.2189 47.752C66.0914 47.9018 65.964 48.0463 65.8365 48.1854C65.7197 48.3245 65.6028 48.453 65.4859 48.5707C65.2946 48.7635 65.0657 48.8816 64.7992 48.9253C64.5433 48.9582 64.3084 48.8791 64.0943 48.6879C63.9124 48.5392 63.8157 48.3369 63.8041 48.081C63.8031 47.825 63.8877 47.6167 64.0578 47.456C64.3128 47.1991 64.589 46.8887 64.8863 46.525C65.1943 46.1611 65.4809 45.7921 65.7462 45.4178C66.0222 45.0434 66.2397 44.7226 66.3987 44.4553C66.547 44.1988 66.7438 44.0487 66.989 44.0051C67.2448 43.9509 67.4796 43.9927 67.6935 44.1305C67.918 44.2684 68.0573 44.4492 68.1115 44.673C68.1656 44.8968 68.1291 45.1156 68.0019 45.3294C67.9595 45.4042 67.9118 45.4791 67.8587 45.5539C67.8057 45.6288 67.7527 45.709 67.6996 45.7945L76.8516 45.7606C77.0649 45.7598 77.2465 45.8391 77.3965 45.9986C77.557 46.1473 77.6377 46.3284 77.6385 46.5417C77.6393 46.7657 77.56 46.958 77.4006 47.1186C77.2518 47.2685 77.0708 47.3438 76.8574 47.3446L75.8015 47.3485L75.8092 49.4285L77.6491 49.4217C77.8731 49.4208 78.0601 49.5001 78.21 49.6596C78.3706 49.8083 78.4513 49.9947 78.4521 50.2187C78.4529 50.432 78.3736 50.619 78.2142 50.7796C78.0654 50.9295 77.879 51.0048 77.655 51.0057L75.815 51.0125L75.823 53.1725L77.183 53.1674C77.3964 53.1666 77.5833 53.2459 77.7439 53.4053C77.9045 53.5541 77.9852 53.7405 77.986 53.9644C77.9868 54.1778 77.9075 54.3647 77.7481 54.5253C77.5886 54.6753 77.4022 54.7506 77.1889 54.7514L64.933 54.7968ZM77.6034 58.6699C77.3799 58.8094 77.1401 58.8476 76.8838 58.7846C76.6383 58.7215 76.4511 58.5835 76.3223 58.3706C76.215 58.1897 76.0648 57.9556 75.8717 57.6683C75.6787 57.3917 75.4803 57.1151 75.2766 56.8385C75.0836 56.5619 74.9174 56.3332 74.7781 56.1524C74.6387 55.9715 74.5847 55.7744 74.6159 55.561C74.6577 55.3368 74.769 55.155 74.9499 55.0157C75.1413 54.8763 75.3545 54.8169 75.5892 54.8373C75.8239 54.8471 76.0216 54.9424 76.1823 55.1231C76.3429 55.3039 76.5305 55.5379 76.7449 55.8251C76.9592 56.1016 77.1683 56.3835 77.372 56.6707C77.5757 56.9473 77.7366 57.1761 77.8546 57.357C78.0047 57.5804 78.0536 57.8149 78.0012 58.0604C77.9595 58.3166 77.8269 58.5197 77.6034 58.6699ZM64.3076 58.7512C64.1044 58.6026 63.9917 58.4004 63.9694 58.1444C63.9471 57.8885 64.021 57.6696 64.191 57.4876C64.3291 57.3378 64.4883 57.1398 64.6688 56.8938C64.8598 56.6478 65.0456 56.3964 65.226 56.1398C65.4063 55.8831 65.5549 55.6639 65.6715 55.4821C65.7987 55.2683 65.9796 55.1343 66.214 55.0801C66.4591 55.0152 66.6832 55.041 66.8863 55.1576C67.1108 55.2741 67.2554 55.4549 67.3203 55.7C67.3852 55.9344 67.354 56.1585 67.2268 56.3723C67.1102 56.5648 66.9618 56.8 66.7815 57.078C66.6011 57.356 66.4155 57.6287 66.2245 57.8961C66.0335 58.1634 65.8636 58.3827 65.7149 58.554C65.545 58.7573 65.3268 58.8807 65.0603 58.9244C64.7938 58.9787 64.5429 58.921 64.3076 58.7512ZM73.22 58.8301C72.9536 58.8951 72.7134 58.864 72.4996 58.7368C72.2859 58.6203 72.1519 58.4448 72.0977 58.2103C72.0651 58.0398 72.0163 57.8266 71.9513 57.5708C71.8863 57.3044 71.8214 57.0433 71.7564 56.7876C71.6914 56.5211 71.632 56.308 71.578 56.1482C71.5024 55.8925 71.5283 55.6684 71.6555 55.4759C71.7828 55.2728 71.9636 55.1388 72.1981 55.0739C72.4432 55.009 72.6726 55.0295 72.8863 55.1354C73.1 55.2306 73.2447 55.4114 73.3203 55.6778C73.3742 55.8269 73.4337 56.04 73.4987 56.3171C73.5743 56.5835 73.65 56.8499 73.7256 57.1163C73.8013 57.3826 73.8554 57.5958 73.888 57.7557C73.9423 58.0115 73.9058 58.2409 73.7786 58.4441C73.662 58.6472 73.4758 58.7759 73.22 58.8301ZM69.8765 58.9865C69.6207 59.0408 69.3859 59.0044 69.1721 58.8772C68.9583 58.7499 68.835 58.5637 68.8021 58.3185C68.7802 58.1693 68.7421 57.9561 68.6877 57.6789C68.644 57.4124 68.595 57.1459 68.5407 56.8795C68.4971 56.613 68.459 56.4051 68.4264 56.2559C68.3828 56.0001 68.4246 55.7759 68.5519 55.5834C68.6899 55.3909 68.8761 55.2729 69.1106 55.2294C69.3664 55.1751 69.5959 55.2062 69.799 55.3228C70.002 55.4287 70.1361 55.6202 70.2011 55.8973C70.2443 56.0358 70.293 56.2436 70.3474 56.5208C70.4018 56.7979 70.4508 57.0751 70.4945 57.3522C70.5488 57.6187 70.5869 57.8266 70.6088 57.9758C70.6525 58.2423 70.6053 58.4612 70.4672 58.6323C70.3292 58.8142 70.1323 58.9323 69.8765 58.9865ZM67.8711 53.2019L68.8951 53.1981L68.8871 51.0382L67.8631 51.0419L67.8711 53.2019ZM73.1671 53.1823L74.191 53.1785L74.183 51.0185L73.1591 51.0223L73.1671 53.1823ZM70.5271 53.1921L71.5351 53.1884L71.5271 51.0284L70.5191 51.0321L70.5271 53.1921ZM67.8572 49.458L68.8812 49.4542L68.8735 47.3742L67.8495 47.378L67.8572 49.458ZM73.1532 49.4383L74.1772 49.4345L74.1695 47.3545L73.1455 47.3583L73.1532 49.4383ZM70.5132 49.4481L71.5212 49.4444L71.5135 47.3644L70.5055 47.3681L70.5132 49.4481ZM86.3324 52.4295C86.0977 52.4304 85.9054 52.3564 85.7555 52.2076C85.6056 52.0482 85.5302 51.8565 85.5294 51.6325C85.5286 51.4085 85.6025 51.2215 85.7513 51.0716C85.9001 50.9111 86.0918 50.8304 86.3264 50.8295L87.5744 50.8249C87.6269 50.6007 87.6899 50.3285 87.7634 50.0082C87.8475 49.6879 87.9263 49.3462 87.9996 48.9833L87.0876 48.9867C86.8529 48.9875 86.666 48.9136 86.5268 48.7648C86.3876 48.6159 86.3176 48.4402 86.3168 48.2375C86.316 48.0242 86.3847 47.8426 86.5228 47.6928C86.6609 47.5429 86.8473 47.4676 87.082 47.4667L88.33 47.4621C88.3824 47.2165 88.4296 46.9924 88.4715 46.7895C88.5133 46.576 88.55 46.3946 88.5814 46.2451L86.5815 46.2525C86.3468 46.2534 86.1599 46.1794 86.0206 46.0306C85.8921 45.8818 85.8274 45.7007 85.8266 45.4873C85.8258 45.274 85.8892 45.0978 86.0167 44.9586C86.1548 44.8088 86.3412 44.7334 86.5758 44.7325L93.4238 44.7072C93.6584 44.7063 93.8454 44.7803 93.9846 44.9291C94.1238 45.0672 94.1938 45.243 94.1946 45.4563C94.1954 45.6696 94.1267 45.8512 93.9886 46.0011C93.8505 46.1509 93.6641 46.2263 93.4294 46.2272L90.4054 46.2384C90.374 46.3985 90.3374 46.58 90.2955 46.7828C90.2535 46.9856 90.2064 47.2098 90.1539 47.4553L90.6499 47.4535C91.4819 47.4504 92.0532 47.5976 92.3636 47.8951C92.674 48.182 92.8306 48.7147 92.8335 49.4934L92.8384 50.8054L93.8464 50.8016C94.0917 50.8007 94.284 50.88 94.4233 51.0395C94.5731 51.1883 94.6485 51.3747 94.6493 51.5987C94.6502 51.8227 94.5762 52.0149 94.4275 52.1755C94.2894 52.3253 94.0976 52.4007 93.8523 52.4016L86.3324 52.4295ZM90.1309 58.4955C89.3095 58.4985 88.6639 58.4262 88.194 58.2786C87.7242 58.1417 87.3926 57.8869 87.1992 57.5143C87.0058 57.131 86.9078 56.5981 86.9053 55.9154C86.9027 55.2221 86.9968 54.6937 87.1874 54.3303C87.378 53.9563 87.7077 53.6991 88.1766 53.5587C88.6453 53.4076 89.2904 53.3305 90.1117 53.3275C90.9437 53.3244 91.5893 53.3967 92.0485 53.5443C92.5184 53.6812 92.85 53.936 93.0434 54.3086C93.2367 54.6706 93.3347 55.1982 93.3372 55.8916C93.3398 56.5742 93.2457 57.1079 93.0552 57.4926C92.8646 57.8667 92.5348 58.1239 92.066 58.2643C91.6079 58.4153 90.9629 58.4924 90.1309 58.4955ZM82.851 58.5544C82.1897 58.5569 81.6668 58.4842 81.2822 58.3363C80.9083 58.1883 80.6407 57.9386 80.4794 57.5872C80.3288 57.2358 80.2524 56.7614 80.2502 56.1641C80.2479 55.5561 80.3208 55.0811 80.4689 54.7393C80.6276 54.3867 80.8933 54.1403 81.2661 54.0003C81.6496 53.8495 82.172 53.7729 82.8333 53.7705C83.5053 53.768 84.0282 53.8407 84.4021 53.9887C84.7866 54.1259 85.0542 54.3703 85.2048 54.7217C85.3554 55.0625 85.4319 55.5369 85.4341 56.1449C85.4363 56.7422 85.3634 57.2171 85.2154 57.5697C85.0674 57.9222 84.8016 58.1739 84.4182 58.3246C84.0454 58.4754 83.523 58.552 82.851 58.5544ZM80.1098 48.5165C79.8858 48.5174 79.7042 48.4487 79.565 48.3106C79.4365 48.1617 79.3718 47.9859 79.3711 47.7833C79.3703 47.5806 79.4337 47.4097 79.5612 47.2706C79.6993 47.1207 79.8804 47.0454 80.1044 47.0445L85.2563 47.0255C85.4803 47.0246 85.6566 47.0986 85.7851 47.2475C85.9243 47.3856 85.9943 47.5561 85.995 47.7587C85.9958 47.9614 85.9271 48.1376 85.789 48.2875C85.6615 48.4266 85.4858 48.4966 85.2618 48.4974L80.1098 48.5165ZM80.9175 46.2735C80.6828 46.2744 80.4959 46.2004 80.3567 46.0516C80.2175 45.9028 80.1475 45.7217 80.1467 45.5084C80.1459 45.295 80.2145 45.1188 80.3527 44.9796C80.4908 44.8298 80.6772 44.7544 80.9119 44.7535L84.5278 44.7401C84.7625 44.7393 84.9441 44.8133 85.0727 44.9621C85.2118 45.1003 85.2818 45.276 85.2826 45.4893C85.2834 45.7027 85.2148 45.8843 85.0766 46.0341C84.9492 46.1839 84.7681 46.2593 84.5335 46.2601L80.9175 46.2735ZM80.9105 53.0256C80.6759 53.0265 80.4943 52.9578 80.3658 52.8196C80.2372 52.6708 80.1726 52.495 80.1718 52.2923C80.171 52.079 80.2344 51.9028 80.3618 51.7636C80.4893 51.6138 80.6703 51.5385 80.905 51.5376L84.569 51.524C84.8037 51.5232 84.9853 51.5972 85.1138 51.746C85.2423 51.8842 85.307 52.06 85.3078 52.2733C85.3085 52.476 85.2452 52.6522 85.1177 52.802C84.9902 52.9411 84.8092 53.0112 84.5745 53.012L80.9105 53.0256ZM80.9022 50.7696C80.6675 50.7705 80.4859 50.7018 80.3574 50.5636C80.2288 50.4148 80.1642 50.239 80.1634 50.0364C80.1627 49.823 80.226 49.6468 80.3535 49.5076C80.481 49.3685 80.662 49.2985 80.8967 49.2976L84.5607 49.284C84.7954 49.2832 84.9769 49.3518 85.1055 49.49C85.234 49.6282 85.2986 49.804 85.2994 50.0173C85.3002 50.22 85.2368 50.3962 85.1094 50.546C84.9819 50.6852 84.8008 50.7552 84.5661 50.756L80.9022 50.7696ZM90.1408 56.8474C90.5248 56.846 90.8127 56.8289 91.0046 56.7962C91.2071 56.7528 91.3401 56.6616 91.4036 56.5227C91.4777 56.3838 91.5143 56.1757 91.5132 55.8983C91.5123 55.6317 91.4742 55.4345 91.3991 55.3067C91.3345 55.1683 91.2009 55.0781 90.9981 55.0362C90.8059 54.9836 90.5178 54.958 90.1338 54.9594C89.5471 54.9616 89.1633 55.027 88.9825 55.1557C88.8122 55.2737 88.7278 55.5193 88.7292 55.8926C88.7302 56.17 88.7683 56.3778 88.8435 56.5162C88.9187 56.6546 89.0577 56.7448 89.2605 56.7867C89.4634 56.8286 89.7568 56.8488 90.1408 56.8474ZM82.8456 57.0825C83.2189 57.0811 83.464 57.0215 83.5809 56.9037C83.6978 56.7753 83.7555 56.5244 83.7541 56.1511C83.7528 55.7884 83.6932 55.5433 83.5754 55.4157C83.4576 55.2882 83.212 55.2251 82.8387 55.2265C82.476 55.2278 82.2309 55.2927 82.1034 55.4212C81.9866 55.5496 81.9288 55.7952 81.9301 56.1578C81.9315 56.5312 81.9911 56.7816 82.1089 56.9092C82.2374 57.026 82.4829 57.0838 82.8456 57.0825ZM89.4144 50.8181L91.0944 50.8118L91.0908 49.8358C91.0895 49.4838 91.03 49.2547 90.9122 49.1485C90.8051 49.0316 90.5649 48.9738 90.1916 48.9752L89.8236 48.9765C89.7503 49.3395 89.6769 49.6811 89.6034 50.0014C89.5299 50.3216 89.4669 50.5939 89.4144 50.8181ZM96.3205 49.2245C96.1072 49.2252 95.9363 49.1565 95.8078 49.0184C95.6899 48.8801 95.6307 48.715 95.6299 48.523C95.6292 48.331 95.6873 48.1655 95.8041 48.0264C95.9316 47.8872 96.102 47.8173 96.3153 47.8165L99.7553 47.8037L99.5296 47.3566C99.4652 47.2395 99.4381 47.1222 99.4483 47.0048C99.4692 46.8768 99.5114 46.7646 99.5751 46.6684L97.3671 46.6766C97.1538 46.6774 96.9829 46.6087 96.8543 46.4705C96.7258 46.3216 96.6612 46.1512 96.6604 45.9592C96.6597 45.7672 96.7231 45.6016 96.8506 45.4625C96.9781 45.3127 97.1484 45.2374 97.3618 45.2366L102.002 45.2194L102 44.7074C101.999 44.43 102.089 44.211 102.269 44.0504C102.461 43.879 102.69 43.7928 102.956 43.7918C103.234 43.7908 103.469 43.8753 103.661 44.0452C103.854 44.2045 103.951 44.4228 103.952 44.7001L103.954 45.2121L108.658 45.1947C108.882 45.1939 109.053 45.2679 109.171 45.4168C109.299 45.555 109.364 45.7201 109.364 45.9121C109.365 46.1041 109.302 46.275 109.174 46.4248C109.057 46.5639 108.887 46.6339 108.663 46.6347L106.231 46.6437C106.285 46.7395 106.317 46.8461 106.328 46.9633C106.35 47.0806 106.334 47.198 106.282 47.3155C106.25 47.369 106.213 47.4384 106.17 47.5239C106.139 47.6094 106.096 47.6949 106.043 47.7804L109.659 47.767C109.873 47.7662 110.038 47.8349 110.156 47.9732C110.285 48.1114 110.349 48.2765 110.35 48.4685C110.351 48.6605 110.287 48.826 110.16 48.9652C110.043 49.1043 109.878 49.1742 109.664 49.175L96.3205 49.2245ZM104.476 56.5063C104.305 56.6456 104.114 56.7156 103.9 56.7164C103.698 56.7065 103.521 56.6165 103.371 56.4464C103.318 56.3826 103.227 56.2922 103.098 56.1754C102.97 56.0479 102.841 55.9203 102.713 55.7928C102.595 55.6652 102.504 55.5749 102.44 55.5218C102.311 55.405 102.247 55.2612 102.246 55.0905C102.256 54.9198 102.314 54.7649 102.421 54.6259L101.349 54.6299C100.538 54.6329 99.9137 54.5605 99.4758 54.4128C99.0379 54.2544 98.7329 53.9942 98.5609 53.6322C98.3996 53.2701 98.3178 52.7904 98.3156 52.1931C98.3133 51.5851 98.3915 51.1048 98.5502 50.7522C98.7195 50.3889 99.0226 50.1318 99.4594 49.9808C99.8961 49.8192 100.52 49.7369 101.33 49.7339L104.674 49.7215C105.496 49.7185 106.125 49.7961 106.563 49.9545C107.001 50.1022 107.306 50.3571 107.478 50.7191C107.65 51.0705 107.737 51.5502 107.739 52.1582C107.742 52.7555 107.658 53.2358 107.489 53.5991C107.32 53.9624 107.016 54.2248 106.58 54.3865C106.143 54.5374 105.514 54.6144 104.693 54.6175L103.717 54.6211C103.834 54.7273 103.984 54.8708 104.166 55.0514C104.348 55.2321 104.477 55.3596 104.552 55.434C104.702 55.5934 104.772 55.7745 104.762 55.9772C104.752 56.1799 104.656 56.3563 104.476 56.5063ZM103.364 58.7504C102.468 58.7537 101.764 58.687 101.251 58.5502C100.749 58.4241 100.391 58.2014 100.177 57.8822C99.9621 57.563 99.8538 57.1154 99.8517 56.5394L99.8488 55.7714C99.8478 55.5048 99.9324 55.2911 100.102 55.1305C100.283 54.9698 100.491 54.889 100.726 54.8882C100.971 54.8873 101.174 54.9665 101.334 55.1259C101.506 55.2853 101.592 55.4983 101.593 55.765L101.595 56.245C101.596 56.501 101.634 56.6982 101.709 56.8365C101.784 56.9643 101.944 57.0543 102.19 57.1068C102.446 57.1591 102.835 57.1844 103.358 57.1824C103.827 57.1807 104.19 57.158 104.446 57.1144C104.702 57.0708 104.893 56.9901 105.021 56.8723C105.149 56.7545 105.26 56.578 105.355 56.343C105.44 56.1294 105.583 55.9848 105.785 55.9094C105.988 55.8233 106.201 55.8172 106.425 55.8911C106.66 55.9648 106.826 56.0922 106.923 56.2732C107.03 56.4541 107.052 56.6621 106.989 56.897C106.873 57.3561 106.688 57.7194 106.433 57.987C106.178 58.2653 105.806 58.4587 105.315 58.5672C104.836 58.6863 104.185 58.7474 103.364 58.7504ZM96.1788 58.473C95.997 58.3457 95.8897 58.1648 95.8568 57.9302C95.824 57.7064 95.8766 57.5088 96.0146 57.3376C96.1421 57.1985 96.2961 57.0113 96.4765 56.7759C96.6676 56.5299 96.8534 56.2839 97.0338 56.0379C97.2142 55.7812 97.3521 55.5727 97.4475 55.4123C97.5641 55.2092 97.7343 55.0859 97.9581 55.0424C98.1819 54.9883 98.3954 55.0195 98.5985 55.1361C98.8123 55.2633 98.9409 55.4388 98.9844 55.6626C99.0386 55.8864 99.0074 56.0999 98.8908 56.303C98.7848 56.4954 98.6417 56.7199 98.4613 56.9766C98.2916 57.2332 98.1165 57.4792 97.936 57.7145C97.7662 57.9498 97.6229 58.137 97.5061 58.2761C97.3361 58.4688 97.1232 58.5815 96.8674 58.6145C96.6222 58.6581 96.3927 58.6109 96.1788 58.473ZM110.097 58.0535C109.917 58.1928 109.709 58.2522 109.474 58.2318C109.239 58.2113 109.047 58.1107 108.897 57.9299C108.779 57.781 108.618 57.5949 108.415 57.3717C108.211 57.1378 108.002 56.9092 107.788 56.686C107.574 56.4521 107.397 56.2715 107.258 56.144C107.108 55.9952 107.044 55.8141 107.064 55.6007C107.085 55.3873 107.169 55.211 107.318 55.0717C107.478 54.9218 107.669 54.8464 107.893 54.8456C108.117 54.8448 108.315 54.924 108.486 55.0834C108.625 55.2109 108.802 55.3862 109.016 55.6094C109.241 55.8326 109.466 56.0558 109.691 56.2789C109.916 56.5021 110.087 56.6828 110.205 56.821C110.365 57.0018 110.43 57.2149 110.399 57.4603C110.379 57.7057 110.278 57.9035 110.097 58.0535ZM101.456 53.3815L104.672 53.3695C105.088 53.368 105.381 53.3296 105.552 53.2543C105.722 53.179 105.828 53.0079 105.87 52.7411L100.254 52.7619C100.297 53.0284 100.405 53.1987 100.576 53.2727C100.747 53.3467 101.04 53.383 101.456 53.3815ZM101.723 47.7964L104.059 47.7878C104.133 47.6382 104.223 47.4512 104.329 47.2268C104.435 47.0024 104.514 46.8207 104.567 46.6819L104.599 46.6498L101.191 46.6624C101.202 46.673 101.207 46.6837 101.207 46.6943C101.207 46.6943 101.213 46.6996 101.223 46.7103C101.288 46.8487 101.368 47.0297 101.465 47.2534C101.573 47.4663 101.659 47.6473 101.723 47.7964ZM100.249 51.6259L105.865 51.6051C105.822 51.3599 105.709 51.2003 105.528 51.1263C105.357 51.0416 105.069 51 104.663 51.0015L101.447 51.0135C101.042 51.015 100.754 51.0587 100.584 51.1447C100.413 51.22 100.302 51.3804 100.249 51.6259ZM119.527 50.8505C118.631 50.8538 118.017 50.7014 117.685 50.3933C117.353 50.0852 117.186 49.5525 117.183 48.7951C117.18 48.0271 117.344 47.4932 117.673 47.1933C118.003 46.8827 118.615 46.7258 119.511 46.7225L119.623 46.7221L119.62 45.9221L117.332 45.9306C117.14 45.9313 116.975 45.8679 116.836 45.7404C116.707 45.6022 116.643 45.4371 116.642 45.2451C116.641 45.0531 116.705 44.8929 116.832 44.7644C116.97 44.6252 117.135 44.5553 117.327 44.5546L125.807 44.5231C125.999 44.5224 126.165 44.5911 126.304 44.7293C126.443 44.8568 126.513 45.0165 126.514 45.2085C126.515 45.4005 126.446 45.5661 126.308 45.7053C126.17 45.8338 126.004 45.8984 125.812 45.8991L123.46 45.9078L123.463 46.7078L123.639 46.7072C124.535 46.7039 125.149 46.8563 125.481 47.1644C125.813 47.4618 125.98 47.9945 125.983 48.7625C125.986 49.5198 125.822 50.0538 125.493 50.3643C125.163 50.6749 124.551 50.8318 123.655 50.8352L119.527 50.8505ZM114.533 58.933C114.298 58.9339 114.1 58.86 113.94 58.7112C113.79 58.5624 113.715 58.3654 113.714 58.1201L113.694 52.6961C113.535 53.0273 113.381 53.3426 113.233 53.6418C113.085 53.9304 112.942 54.1816 112.804 54.3954C112.687 54.5985 112.512 54.7271 112.277 54.7814C112.043 54.8249 111.829 54.783 111.637 54.6557C111.444 54.5391 111.332 54.3795 111.299 54.177C111.277 53.9637 111.319 53.7609 111.425 53.5685C111.605 53.2798 111.801 52.9324 112.013 52.5263C112.235 52.1202 112.452 51.698 112.664 51.2599C112.876 50.8111 113.072 50.3784 113.251 49.9617C113.431 49.545 113.574 49.1765 113.679 48.8561L113.679 48.6641L112.143 48.6698C111.94 48.6706 111.758 48.5966 111.598 48.4478C111.448 48.2884 111.373 48.1073 111.372 47.9047C111.371 47.6913 111.445 47.5097 111.594 47.3598C111.753 47.2099 111.934 47.1346 112.137 47.1338L113.673 47.1281L113.664 44.7761C113.663 44.5308 113.737 44.3332 113.886 44.1833C114.045 44.0334 114.242 43.958 114.477 43.9571C114.701 43.9563 114.893 44.0302 115.054 44.179C115.215 44.3277 115.295 44.5248 115.296 44.7701L115.305 47.1221L116.361 47.1182C116.574 47.1174 116.756 47.1914 116.906 47.3401C117.056 47.4889 117.131 47.67 117.132 47.8833C117.132 48.086 117.058 48.2676 116.91 48.4281C116.761 48.578 116.58 48.6534 116.367 48.6542L115.311 48.6581L115.314 49.4901C115.41 49.6177 115.544 49.7932 115.716 50.0166C115.887 50.2293 116.064 50.458 116.246 50.7026C116.439 50.9366 116.621 51.1599 116.793 51.3726C116.964 51.5746 117.103 51.7341 117.21 51.851C117.36 52.0105 117.42 52.1969 117.388 52.4104C117.357 52.6132 117.262 52.7895 117.102 52.9395C116.932 53.0894 116.735 53.1542 116.511 53.1336C116.298 53.1131 116.121 53.0178 115.982 52.8476C115.907 52.7306 115.81 52.5922 115.693 52.4327C115.575 52.2731 115.451 52.1029 115.323 51.922L115.346 58.114C115.347 58.3593 115.267 58.557 115.108 58.7069C114.948 58.8568 114.757 58.9322 114.533 58.933ZM120.26 58.7998C120.015 58.8007 119.812 58.7321 119.651 58.594C119.502 58.4666 119.421 58.2802 119.409 58.0349C119.398 57.8216 119.461 57.6347 119.599 57.4742C119.737 57.3137 119.918 57.2224 120.142 57.2002C120.398 57.1779 120.563 57.1347 120.638 57.0704C120.723 56.9954 120.765 56.8406 120.764 56.6059L120.757 54.7659L117.397 54.7784C117.216 54.779 117.056 54.7103 116.917 54.5722C116.788 54.434 116.723 54.2742 116.723 54.0929C116.722 53.9009 116.785 53.7406 116.913 53.6122C117.051 53.473 117.211 53.4031 117.392 53.4024L125.792 53.3712C125.973 53.3706 126.128 53.4393 126.257 53.5775C126.396 53.705 126.466 53.8648 126.467 54.0568C126.467 54.2381 126.399 54.3983 126.26 54.5375C126.133 54.6767 125.979 54.7466 125.797 54.7472L122.437 54.7597L122.445 56.8397C122.448 57.5543 122.279 58.0563 121.939 58.3456C121.609 58.6455 121.05 58.7969 120.26 58.7998ZM118.19 52.7914C118.009 52.7921 117.848 52.7234 117.709 52.5852C117.581 52.447 117.516 52.2873 117.515 52.1059C117.515 51.9246 117.578 51.7697 117.706 51.6412C117.844 51.502 118.004 51.4321 118.185 51.4314L124.905 51.4065C125.086 51.4059 125.241 51.4746 125.37 51.6128C125.509 51.7403 125.579 51.8947 125.579 52.076C125.58 52.2574 125.511 52.4176 125.373 52.5568C125.246 52.6959 125.091 52.7658 124.91 52.7665L118.19 52.7914ZM125.153 57.9496C124.982 57.8329 124.773 57.6791 124.527 57.488C124.292 57.3075 124.051 57.1111 123.805 56.8986C123.57 56.6862 123.361 56.4949 123.179 56.325C123.029 56.1762 122.948 55.9951 122.937 55.7818C122.936 55.5578 123.01 55.3709 123.159 55.221C123.308 55.0605 123.483 54.9692 123.686 54.9471C123.899 54.9249 124.091 54.9882 124.263 55.1369C124.412 55.2537 124.605 55.4077 124.84 55.5988C125.076 55.7899 125.311 55.9757 125.546 56.1562C125.792 56.3366 125.996 56.4798 126.156 56.5859C126.338 56.7026 126.44 56.8729 126.462 57.0968C126.495 57.31 126.453 57.5075 126.336 57.6893C126.209 57.8924 126.033 58.0157 125.809 58.0592C125.586 58.1134 125.367 58.0769 125.153 57.9496ZM117.841 57.9448C117.639 58.0842 117.42 58.133 117.186 58.0912C116.951 58.0601 116.758 57.9434 116.608 57.7413C116.49 57.5604 116.447 57.3632 116.478 57.1498C116.52 56.9256 116.631 56.7546 116.812 56.6366C116.972 56.5293 117.169 56.3899 117.403 56.2184C117.637 56.0362 117.871 55.8486 118.105 55.6558C118.338 55.4629 118.53 55.2968 118.679 55.1576C118.838 55.0077 119.03 54.943 119.254 54.9635C119.478 54.984 119.66 55.074 119.799 55.2335C119.949 55.4036 120.024 55.5953 120.025 55.8086C120.026 56.0113 119.947 56.1876 119.787 56.3375C119.649 56.4767 119.463 56.6481 119.229 56.8516C118.995 57.0445 118.75 57.2427 118.495 57.4463C118.251 57.6392 118.033 57.8054 117.841 57.9448ZM121.106 49.5326L122.002 49.5293L121.996 48.0253L121.1 48.0286L121.106 49.5326ZM123.474 49.5238L123.634 49.5232C123.965 49.522 124.183 49.4679 124.289 49.3608C124.396 49.2537 124.448 49.0562 124.447 48.7682C124.446 48.4695 124.392 48.2724 124.285 48.1768C124.178 48.0705 123.959 48.018 123.628 48.0192L123.468 48.0198L123.474 49.5238ZM119.554 49.5383L119.634 49.538L119.628 48.0341L119.548 48.0344C119.218 48.0356 118.994 48.0897 118.877 48.1968C118.771 48.2932 118.718 48.4908 118.719 48.7894C118.72 49.0774 118.774 49.2746 118.881 49.3808C118.999 49.4871 119.223 49.5396 119.554 49.5383ZM121.095 46.7166L121.991 46.7133L121.988 45.9133L121.092 45.9166L121.095 46.7166ZM136.676 58.6909C136.474 58.8304 136.25 58.9059 136.005 58.9174C135.759 58.9397 135.546 58.8445 135.364 58.6318C135.267 58.5148 135.208 58.387 135.186 58.2485C135.164 58.1099 135.175 57.9765 135.217 57.8483C134.726 57.9142 134.183 57.9802 133.586 58.0464C132.999 58.1126 132.402 58.1734 131.794 58.229C131.186 58.2953 130.6 58.3561 130.035 58.4116C129.48 58.4669 128.985 58.5168 128.547 58.5611C128.334 58.5725 128.147 58.5199 127.987 58.4031C127.826 58.2864 127.735 58.1107 127.713 57.8762C127.701 57.6522 127.765 57.4706 127.903 57.3315C128.041 57.1816 128.211 57.101 128.414 57.0896C128.67 57.0673 128.947 57.0449 129.246 57.0225C129.555 57 129.875 56.9775 130.205 56.9549L130.203 56.2189L128.395 56.2256C128.256 56.2261 128.139 56.1786 128.042 56.0829C127.946 55.9766 127.897 55.8541 127.897 55.7155C127.896 55.5768 127.944 55.4593 128.04 55.3629C128.135 55.2666 128.252 55.2181 128.391 55.2176L130.199 55.2109L130.197 54.7309L128.389 54.7376C128.251 54.7381 128.133 54.6906 128.037 54.5949C127.94 54.4993 127.892 54.3821 127.891 54.2435C127.891 54.0941 127.938 53.9713 128.034 53.8749C128.13 53.7786 128.247 53.7302 128.385 53.7296L130.193 53.7229L130.192 53.2429L128.384 53.2496C128.245 53.2502 128.128 53.2026 128.031 53.1069C127.935 53.0113 127.886 52.8941 127.886 52.7555C127.885 52.6062 127.933 52.4833 128.028 52.387C128.124 52.2906 128.241 52.2422 128.38 52.2416L130.188 52.2349L130.186 51.771L128.202 51.7783C128.032 51.7789 127.882 51.7155 127.754 51.588C127.625 51.4604 127.56 51.3113 127.56 51.1407C127.559 50.9593 127.623 50.8044 127.75 50.676C127.878 50.5475 128.027 50.4829 128.197 50.4823L128.757 50.4802C128.618 50.3741 128.538 50.2251 128.516 50.0331C128.494 49.8412 128.541 49.6757 128.658 49.5366C128.817 49.3547 128.987 49.1407 129.168 48.8947C129.348 48.638 129.518 48.3814 129.677 48.1248C129.846 47.8575 129.984 47.6223 130.09 47.4193C130.185 47.2376 130.329 47.1251 130.521 47.0817C130.713 47.0276 130.894 47.043 131.065 47.1277C131.247 47.2123 131.37 47.3452 131.434 47.5263C131.499 47.7074 131.484 47.8888 131.389 48.0705C131.367 48.1132 131.341 48.1613 131.309 48.2148C131.288 48.2682 131.261 48.3216 131.23 48.3751C131.369 48.4599 131.524 48.5606 131.695 48.6773C131.866 48.7834 131.994 48.8629 132.08 48.9159C132.304 49.0644 132.401 49.2721 132.37 49.5388C132.604 49.2393 132.832 48.9025 133.054 48.5283C133.277 48.1435 133.462 47.8014 133.61 47.5022C133.695 47.3206 133.833 47.2027 134.025 47.1487C134.217 47.0946 134.404 47.11 134.585 47.1946C134.531 46.9815 134.568 46.784 134.695 46.6022C134.95 46.2493 135.194 45.843 135.427 45.3835C135.67 44.9132 135.877 44.4965 136.046 44.1332C136.141 43.9195 136.29 43.7803 136.492 43.7155C136.705 43.6507 136.908 43.6606 137.101 43.7453C137.314 43.8298 137.453 43.9626 137.518 44.1437C137.593 44.3248 137.589 44.5115 137.504 44.7038C137.483 44.7572 137.456 44.816 137.425 44.8801C137.404 44.9335 137.382 44.9922 137.361 45.0563L141.553 45.0408C141.745 45.0401 141.906 45.1088 142.034 45.247C142.173 45.3745 142.243 45.5342 142.244 45.7262C142.245 45.9182 142.176 46.0838 142.038 46.223C141.91 46.3515 141.75 46.4161 141.558 46.4168L139.286 46.4252C139.308 46.4678 139.329 46.5157 139.351 46.5689C139.372 46.6115 139.389 46.6488 139.399 46.6808C139.485 46.8831 139.481 47.0805 139.386 47.2728C139.29 47.4545 139.136 47.5884 138.923 47.6745C138.71 47.75 138.502 47.7561 138.299 47.6929C138.107 47.6189 137.973 47.4807 137.898 47.2783C137.855 47.1612 137.801 47.0227 137.736 46.8629C137.682 46.6925 137.628 46.5487 137.574 46.4315L136.646 46.435C136.562 46.5953 136.472 46.7503 136.376 46.9C136.291 47.039 136.207 47.1779 136.122 47.3169C136.005 47.4987 135.84 47.6326 135.627 47.7188C135.414 47.7942 135.201 47.779 134.987 47.6731C135.02 47.8117 135.004 47.9557 134.941 48.1053L134.861 48.2656C135.032 48.3716 135.23 48.4989 135.455 48.6474C135.679 48.7959 135.84 48.8966 135.936 48.9496C136.096 49.045 136.193 49.1887 136.225 49.3805C136.258 49.5618 136.216 49.7326 136.099 49.893C135.983 50.0641 135.823 50.1607 135.62 50.1828C135.428 50.1942 135.247 50.1468 135.076 50.0408C134.969 49.9772 134.835 49.887 134.675 49.7703C134.514 49.6536 134.359 49.5421 134.21 49.436C134.008 49.7674 133.801 50.0722 133.589 50.3503C133.557 50.3931 133.52 50.4306 133.477 50.4627L136.725 50.4507C136.692 50.0988 136.664 49.7309 136.641 49.347C136.629 48.9631 136.617 48.5631 136.605 48.1471C136.604 47.8911 136.678 47.6882 136.827 47.5383C136.986 47.3884 137.183 47.313 137.418 47.3121C137.642 47.3113 137.834 47.3852 137.995 47.534C138.166 47.6827 138.252 47.8797 138.253 48.125C138.265 48.5517 138.277 48.9623 138.289 49.3569C138.312 49.7408 138.34 50.1034 138.373 50.4446L141.797 50.4319C141.968 50.4313 142.112 50.4947 142.23 50.6223C142.359 50.7498 142.423 50.9043 142.424 51.0856C142.424 51.2563 142.361 51.4058 142.233 51.5343C142.117 51.6627 141.973 51.7273 141.802 51.7279L140.858 51.7314C141.254 51.9219 141.372 52.2308 141.214 52.6581C141.013 53.1708 140.785 53.673 140.531 54.1646C140.277 54.6562 139.996 55.1319 139.688 55.5918C139.796 55.762 139.903 55.9323 140.01 56.1026C140.128 56.2728 140.257 56.4377 140.396 56.5971C140.525 56.7567 140.632 56.8256 140.717 56.804C140.802 56.7823 140.882 56.67 140.956 56.4671C140.998 56.3602 141.035 56.2588 141.067 56.1627C141.098 56.0559 141.135 55.9544 141.177 55.8582C141.262 55.6339 141.4 55.4841 141.592 55.4087C141.794 55.3226 142.018 55.3325 142.264 55.4382C142.467 55.5228 142.601 55.6663 142.665 55.8687C142.73 56.0605 142.72 56.2632 142.636 56.4768C142.583 56.6157 142.514 56.7973 142.43 57.0216C142.345 57.2353 142.255 57.4436 142.16 57.6466C141.8 58.3946 141.359 58.7963 140.837 58.8515C140.325 58.9174 139.833 58.6899 139.362 58.169C139.212 57.9989 139.067 57.8181 138.928 57.6266C138.789 57.4458 138.655 57.2543 138.526 57.0521C137.973 57.6515 137.357 58.1978 136.676 58.6909ZM132.571 47.7781C132.358 47.8535 132.15 47.8596 131.947 47.7964C131.755 47.7331 131.621 47.5949 131.546 47.3819C131.514 47.286 131.46 47.1422 131.384 46.9505C131.309 46.7588 131.244 46.5937 131.191 46.4552L130.087 46.4593C129.981 46.641 129.875 46.8227 129.769 47.0045C129.663 47.1755 129.556 47.3359 129.45 47.4856C129.312 47.6782 129.121 47.8069 128.876 47.8718C128.641 47.9367 128.412 47.9002 128.187 47.7623C128.016 47.6456 127.914 47.4807 127.882 47.2675C127.849 47.0542 127.896 46.8674 128.023 46.7069C128.31 46.3325 128.591 45.8995 128.867 45.4078C129.153 44.9054 129.386 44.4672 129.566 44.0932C129.661 43.8795 129.81 43.7456 130.012 43.6915C130.225 43.6267 130.428 43.6367 130.62 43.7213C130.823 43.8059 130.957 43.9387 131.022 44.1198C131.087 44.3009 131.077 44.4929 130.992 44.6959C130.971 44.7493 130.944 44.8081 130.913 44.8722C130.881 44.9363 130.849 45.0058 130.817 45.0806L134.337 45.0675C134.529 45.0668 134.69 45.1355 134.818 45.2737C134.957 45.4012 135.027 45.561 135.028 45.753C135.029 45.945 134.96 46.1106 134.822 46.2497C134.694 46.3782 134.534 46.4428 134.342 46.4435L132.903 46.4488C132.978 46.6086 133.021 46.7151 133.032 46.7684C133.118 46.9814 133.113 47.1841 133.018 47.3764C132.933 47.5581 132.784 47.692 132.571 47.7781ZM136.445 56.7878C136.679 56.5949 136.902 56.3914 137.115 56.1773C137.338 55.9525 137.55 55.7224 137.752 55.4869C137.354 54.4537 137.056 53.2068 136.858 51.7462L134.138 51.7563L134.14 52.1883L135.964 52.1815C136.113 52.181 136.236 52.2285 136.332 52.3242C136.429 52.4198 136.477 52.537 136.478 52.6756C136.478 52.8143 136.431 52.9371 136.335 53.0442C136.239 53.1405 136.117 53.189 135.968 53.1895L134.144 53.1963L134.145 53.5963L135.969 53.5895C136.118 53.589 136.241 53.6365 136.338 53.7322C136.434 53.8278 136.482 53.9503 136.483 54.0996C136.483 54.2383 136.436 54.3558 136.34 54.4522C136.245 54.5485 136.122 54.597 135.973 54.5975L134.149 54.6043L134.15 55.0203L135.974 55.0135C136.124 55.013 136.246 55.0605 136.343 55.1562C136.439 55.2518 136.488 55.369 136.488 55.5076C136.489 55.6463 136.441 55.7691 136.345 55.8761C136.25 55.9725 136.127 56.021 135.978 56.0215L134.154 56.0283L134.156 56.6043C134.465 56.5818 134.753 56.5541 135.02 56.5211C135.286 56.4881 135.537 56.4605 135.772 56.4383C136.102 56.4157 136.327 56.5322 136.445 56.7878ZM131.821 56.8209L132.541 56.7543L132.522 51.7623L131.802 51.765L131.821 56.8209ZM140.916 50.0192C140.756 50.1478 140.575 50.2071 140.372 50.1972C140.17 50.1766 139.999 50.0866 139.859 49.9271C139.763 49.8101 139.624 49.6506 139.442 49.4486C139.26 49.236 139.12 49.0765 139.024 48.9702C138.895 48.832 138.836 48.6669 138.846 48.4748C138.867 48.2828 138.951 48.1278 139.1 48.0099C139.26 47.86 139.436 47.79 139.628 47.7999C139.82 47.8099 139.991 47.8893 140.14 48.038C140.237 48.1337 140.381 48.2825 140.574 48.4844C140.767 48.6757 140.917 48.8352 141.024 48.9628C141.174 49.1222 141.238 49.3033 141.218 49.506C141.197 49.7088 141.097 49.8798 140.916 50.0192ZM138.93 53.8026C139.237 53.2681 139.502 52.7178 139.724 52.1516C139.808 51.9486 139.92 51.8095 140.058 51.7344L138.506 51.7401C138.561 52.1239 138.621 52.4864 138.686 52.8275C138.762 53.1685 138.843 53.4935 138.93 53.8026ZM129.733 50.4766L132.373 50.4668C132.224 50.3181 132.159 50.1476 132.18 49.9556C132.052 50.084 131.898 50.1593 131.716 50.1813C131.546 50.1926 131.386 50.1452 131.236 50.039C131.161 49.986 131.054 49.9117 130.915 49.8162C130.787 49.71 130.658 49.6092 130.53 49.5137C130.424 49.6527 130.318 49.7971 130.211 49.9468C130.116 50.0859 130.015 50.2142 129.909 50.332C129.866 50.3961 129.808 50.4443 129.733 50.4766Z" fill="black" fill-opacity="0.85"/>
</g>
<defs>
<radialGradient id="paint0_radial_1720_2070" cx="0" cy="0" r="1" gradientUnits="userSpaceOnUse" gradientTransform="translate(0.558656 46.8353) rotate(65.4889) scale(3.32531 8.21233)">
<stop offset="0.33" stop-opacity="0"/>
<stop offset="0.655" stop-opacity="0.6"/>
<stop offset="1"/>
</radialGradient>
<radialGradient id="paint1_radial_1720_2070" cx="0" cy="0" r="1" gradientUnits="userSpaceOnUse" gradientTransform="translate(355.296 45.8572) rotate(114.511) scale(3.32531 8.21233)">
<stop offset="0.33" stop-opacity="0"/>
<stop offset="0.655" stop-opacity="0.6"/>
<stop offset="1"/>
</radialGradient>
<clipPath id="clip0_1720_2070">
<rect width="200" height="90" fill="white"/>
</clipPath>
</defs>
</svg>
