<svg width="200" height="90" viewBox="0 0 200 90" fill="none" xmlns="http://www.w3.org/2000/svg">
<g clip-path="url(#clip0_2306_6009)">
<rect width="200" height="90" fill="#BDE3FF"/>
<path fill-rule="evenodd" clip-rule="evenodd" d="M-6.18027 85.5257C-5.5206 81.3514 -9.94765 77.2571 -7.65473 73.2393C-4.94813 68.4966 -1.65241 61.9915 7.77154 61.0783C17.9972 60.0873 23.5998 68.8258 33.9785 69.2048C45.8176 69.6371 56.5881 60.196 66.8872 63.2371C76.2425 65.9996 70.121 74.0119 68.9752 79.5387C68.1676 83.4341 61.5364 86.4306 61.2669 90.3457C60.8502 96.3973 75.7689 103.853 67.0229 107.895C58.3557 111.9 45.7383 103.802 34.2527 102.83C27.3162 102.243 20.5655 103.925 13.6182 103.373C4.65786 102.66 -7.2514 103.227 -11.7526 99.1698C-16.3208 95.0519 -6.92748 90.2539 -6.18027 85.5257Z" fill="#005EA5"/>
<path fill-rule="evenodd" clip-rule="evenodd" d="M28.4743 10.5302C32.6486 10.8717 36.7429 8.58004 40.7607 9.76696C45.5034 11.168 52.0085 12.874 52.9217 17.7523C53.9127 23.0456 45.1742 25.9458 44.7952 31.3183C44.3629 37.4467 53.804 43.0221 50.7629 48.3534C48.0004 53.1961 39.9881 50.0274 34.4613 49.4342C30.5659 49.0162 27.5694 45.5836 23.6543 45.444C17.6027 45.2284 10.1469 52.9509 6.10508 48.4236C2.09968 43.9371 10.1975 37.4057 11.1701 31.4602C11.7575 27.8695 10.0747 24.3751 10.6274 20.7788C11.3402 16.1405 10.7727 9.97575 14.8302 7.64571C18.9481 5.281 23.7461 10.1434 28.4743 10.5302Z" fill="#2382C9"/>
<path fill-rule="evenodd" clip-rule="evenodd" d="M173.474 4.53021C177.649 4.87169 181.743 2.58004 185.761 3.76696C190.503 5.16803 197.008 6.87405 197.922 11.7523C198.913 17.0456 190.174 19.9458 189.795 25.3183C189.363 31.4467 198.804 37.0221 195.763 42.3534C193 47.1961 184.988 44.0274 179.461 43.4342C175.566 43.0162 172.569 39.5836 168.654 39.444C162.603 39.2284 155.147 46.9509 151.105 42.4236C147.1 37.9371 155.198 31.4057 156.17 25.4602C156.757 21.8695 155.075 18.3751 155.627 14.7788C156.34 10.1405 155.773 3.97575 159.83 1.64571C163.948 -0.719004 168.746 4.14342 173.474 4.53021Z" fill="#69BAF5"/>
<path fill-rule="evenodd" clip-rule="evenodd" d="M117.063 7.20494C131.49 7.9797 144.155 11.9054 154.996 17.5775C166.733 23.7188 176.896 30.8598 179.688 39.9711C183.097 51.0949 184.354 63.7453 171.749 72.2549C158.691 81.0707 136.857 81.4742 117.063 82.2497C95.2362 83.1048 71.8992 84.7511 54.6033 76.8446C35.6156 68.1646 20.8565 53.9771 24.5773 39.9711C28.0889 26.7526 52.1053 19.9805 71.5388 13.0955C85.3864 8.18958 100.98 6.34119 117.063 7.20494Z" fill="#C9F4FF"/>
<path d="M177.967 51.2804L196.726 84.9582L159.338 85.0303L177.967 51.2804Z" fill="#228CDA"/>
<path d="M173.373 78.4648H182.74" stroke="black" stroke-width="2" stroke-linecap="round"/>
<ellipse cx="171.472" cy="68.8528" rx="4.64254" ry="4.79533" transform="rotate(-0.110477 171.472 68.8528)" stroke="#FA8F21" stroke-width="2"/>
<ellipse cx="184.669" cy="68.8118" rx="4.64254" ry="4.79533" transform="rotate(-0.110477 184.669 68.8118)" stroke="#FA8F21" stroke-width="2"/>
<path d="M175.55 68.4723C175.55 68.4723 176.816 68.054 177.654 68.0337C178.594 68.011 180.025 68.4637 180.025 68.4637" stroke="#FA8F21" stroke-width="2"/>
<ellipse cx="171.471" cy="68.8518" rx="1.89842" ry="1.9609" transform="rotate(-0.110477 171.471 68.8518)" fill="black"/>
<ellipse cx="184.67" cy="68.8264" rx="1.89842" ry="1.9609" transform="rotate(-0.110477 184.67 68.8264)" fill="black"/>
<path d="M68.8367 37.9003C68.8377 38.1736 68.5916 38.3112 68.0982 38.313C67.6049 38.3148 67.3577 38.1791 67.3567 37.9058L67.3323 31.3158C67.3313 31.0425 67.5774 30.9049 68.0708 30.9031C68.5641 30.9012 68.8113 31.037 68.8123 31.3103L68.8216 33.8203L71.6216 33.8099L71.6123 31.2999C71.6113 31.0266 71.8541 30.889 72.3407 30.8872C72.8341 30.8854 73.0812 31.0212 73.0823 31.2945L73.1067 37.8845C73.1077 38.1578 72.8615 38.2954 72.3682 38.2972C71.8815 38.299 71.6377 38.1632 71.6367 37.8899L71.6263 35.0999L68.8264 35.1103L68.8367 37.9003ZM77.875 37.8668C77.876 38.1401 77.6299 38.2777 77.1365 38.2795C76.6432 38.2813 76.396 38.1456 76.395 37.8723L76.3737 32.1123L74.7037 32.1185C74.4303 32.1195 74.2929 31.9133 74.2914 31.5C74.2899 31.0867 74.4257 30.8795 74.6991 30.8785L79.539 30.8606C79.8124 30.8595 79.9498 31.0657 79.9513 31.479C79.9529 31.8924 79.817 32.0995 79.5436 32.1006L77.8537 32.1068L77.875 37.8668ZM81.8365 38.2621C81.3965 38.2637 81.176 38.1279 81.175 37.8545L81.1508 31.3346C81.1496 31.0146 81.309 30.854 81.629 30.8528L82.339 30.8502C82.639 30.8491 82.8362 30.9883 82.9306 31.268L84.4862 35.4923C84.5402 35.6521 84.5935 35.6519 84.6462 35.4917L86.0906 31.2563C86.1829 30.9759 86.379 30.8352 86.679 30.8341L87.389 30.8315C87.709 30.8303 87.8696 30.9897 87.8708 31.3097L87.8949 37.8296C87.896 38.103 87.6698 38.2405 87.2165 38.2422C86.7698 38.2438 86.546 38.108 86.5449 37.8346L86.535 35.1547C86.5331 34.6413 86.5768 33.8312 86.666 32.7242L85.0924 37.16C84.9935 37.4404 84.794 37.5811 84.494 37.5822C84.2273 37.5832 84.0502 37.4606 83.9626 37.2142L82.336 32.7402C82.4407 34.0065 82.4937 34.8163 82.495 35.1696L82.505 37.8496C82.506 38.1229 82.2832 38.2604 81.8365 38.2621ZM90.1916 38.2311C89.8716 38.2323 89.711 38.0729 89.7098 37.7529L89.6857 31.233C89.6846 30.9596 89.9308 30.822 90.4241 30.8202C90.9175 30.8184 91.1646 30.9541 91.1656 31.2275L91.186 36.7274C91.1867 36.9008 91.2737 36.9871 91.447 36.9865L93.787 36.9778C94.0603 36.9768 94.1977 37.1829 94.1993 37.5963C94.2008 38.0096 94.0649 38.2168 93.7916 38.2178L90.1916 38.2311ZM100.165 36.2241L101.765 36.2182L101.042 35.3909L98.2224 35.4013L97.5155 36.234L98.9555 36.2286L98.9547 36.0186C98.9537 35.7453 99.1532 35.6079 99.5532 35.6064C99.9598 35.6049 100.164 35.7408 100.165 36.0141L100.165 36.2241ZM98.0172 33.9821L98.0188 34.4321L101.149 34.4205L101.147 33.9705L98.0172 33.9821ZM101.138 31.4405L98.0078 31.4521L98.0094 31.8921L101.139 31.8805L101.138 31.4405ZM98.0124 32.7121L98.0141 33.1521L101.144 33.1405L101.142 32.7005L98.0124 32.7121ZM104.221 34.8991C104.222 35.2191 104.086 35.3796 103.812 35.3806L102.392 35.3859C102.968 35.9038 103.489 36.2385 103.956 36.3901C104.216 36.4891 104.214 36.6925 103.948 37.0001C103.69 37.3078 103.44 37.4054 103.199 37.2929C102.886 37.1541 102.481 36.8622 101.986 36.4174L101.987 36.6774C101.988 36.9974 101.829 37.158 101.509 37.1592L100.169 37.1641L100.171 37.8141L103.041 37.8035C103.308 37.8025 103.442 37.9653 103.443 38.292C103.444 38.6187 103.308 38.7825 103.035 38.7835L96.235 38.8087C95.9617 38.8097 95.8244 38.6469 95.8232 38.3203C95.822 37.9936 95.9581 37.8298 96.2314 37.8287L98.9614 37.8186L98.959 37.1686L97.669 37.1734C97.349 37.1746 97.1884 37.0152 97.1872 36.6952L97.1867 36.5552C96.6816 36.9904 96.2693 37.2753 95.9498 37.4098C95.7169 37.524 95.4733 37.4315 95.2188 37.1325C94.9643 36.8268 94.9669 36.6201 95.2265 36.5125C95.7392 36.3306 96.2811 35.9619 96.8524 35.4064L95.3424 35.412C95.0691 35.413 94.9318 35.2535 94.9307 34.9335C94.9294 34.6069 95.0655 34.443 95.3388 34.442L96.8288 34.4365L96.8178 31.4565L95.8478 31.4601C95.5745 31.4611 95.4372 31.3016 95.436 30.9816C95.4348 30.6616 95.5709 30.5011 95.8442 30.5001L96.8142 30.4965L96.813 30.1565C96.812 29.8832 97.0081 29.7458 97.4014 29.7443C97.8014 29.7429 98.0019 29.8788 98.003 30.1521L98.0042 30.4921L101.134 30.4805L101.133 30.1405C101.132 29.8672 101.335 29.7298 101.741 29.7283C102.148 29.7268 102.352 29.8627 102.353 30.136L102.354 30.476L103.314 30.4724C103.588 30.4714 103.725 30.6309 103.726 30.9509C103.727 31.2709 103.591 31.4314 103.318 31.4324L102.358 31.436L102.369 34.416L103.809 34.4106C104.082 34.4096 104.219 34.5724 104.221 34.8991ZM112.577 33.9681C112.271 33.9693 112.117 33.8332 112.116 33.5598L112.113 32.9298C111.868 33.3307 111.689 33.5714 111.576 33.6518C111.397 33.8258 111.227 33.7865 111.066 33.5337C110.911 33.281 110.927 33.0709 111.113 32.9035C111.406 32.7025 111.697 32.2514 111.988 31.5503L111.608 31.5517C111.335 31.5527 111.198 31.4032 111.197 31.1032C111.195 30.8032 111.332 30.6527 111.605 30.6517L112.105 30.6499L112.103 30.1099C112.102 29.8365 112.255 29.6993 112.561 29.6982C112.875 29.697 113.032 29.8331 113.033 30.1064L113.035 30.6464L113.725 30.6438C113.998 30.6428 114.135 30.7923 114.137 31.0923C114.138 31.3923 114.002 31.5428 113.728 31.5438L113.208 31.5458L114.072 32.5226C114.253 32.7219 114.233 32.9553 114.014 33.2228C113.802 33.4902 113.629 33.5076 113.495 33.2747L113.042 32.4864L113.046 33.5564C113.047 33.8297 112.891 33.967 112.577 33.9681ZM110.176 33.567C110.177 33.8404 110.024 33.9776 109.717 33.9787C109.411 33.9799 109.257 33.8438 109.256 33.5704L109.252 32.6804C108.941 33.1949 108.725 33.4991 108.606 33.5928C108.453 33.7534 108.293 33.704 108.125 33.4446C107.964 33.1786 107.973 32.9618 108.153 32.7945C108.392 32.6203 108.657 32.2093 108.948 31.5616L108.628 31.5627C108.355 31.5638 108.218 31.4143 108.217 31.1143C108.215 30.8143 108.352 30.6638 108.625 30.6628L109.245 30.6605L109.243 30.1205C109.242 29.8471 109.395 29.7099 109.701 29.7088C110.008 29.7076 110.162 29.8437 110.163 30.117L110.165 30.657L110.585 30.6555C110.858 30.6545 110.995 30.804 110.997 31.104C110.998 31.404 110.862 31.5545 110.588 31.5555L110.178 31.557L110.891 32.2644C111.078 32.457 111.079 32.6703 110.893 32.9044C110.707 33.1384 110.541 33.1423 110.393 32.9162L110.172 32.587L110.176 33.567ZM106.928 36.7891C107.101 36.7884 107.187 36.7015 107.187 36.5281L107.179 34.5381C107.179 34.3648 107.092 34.2785 106.918 34.2791L106.418 34.281L106.427 36.5309C106.427 36.7043 106.514 36.7906 106.688 36.79L106.928 36.7891ZM107.98 37.3452C107.981 37.6652 107.821 37.8258 107.501 37.827L106.061 37.8323C105.741 37.8335 105.581 37.6741 105.58 37.3541L105.572 35.2641L105.333 35.595C105.181 35.8156 105.037 35.7061 104.902 35.2666C104.774 34.8204 104.769 34.5071 104.888 34.3266C105.326 33.7383 105.689 32.7036 105.977 31.2226L105.437 31.2246C105.164 31.2256 105.026 31.0461 105.025 30.6861C105.024 30.3261 105.16 30.1456 105.433 30.1446L107.633 30.1364C107.906 30.1354 108.044 30.3149 108.045 30.6749C108.046 31.0349 107.91 31.2154 107.637 31.2164L107.017 31.2187L106.484 33.2407L107.484 33.237C107.804 33.2358 107.965 33.3952 107.966 33.7152L107.98 37.3452ZM111.638 36.9416L111.64 37.5316C111.641 37.705 111.688 37.7981 111.781 37.8111C111.888 37.8174 112.271 37.8193 112.931 37.8168L113.951 37.8031C114.225 37.802 114.305 37.9684 114.193 38.3022C114.088 38.6359 113.898 38.8033 113.625 38.8043L112.205 38.8095C111.525 38.8121 110.958 38.7308 110.504 38.5658C110.05 38.4009 109.669 38.0956 109.361 37.6501C109.15 38.2509 108.921 38.635 108.675 38.8026C108.482 38.99 108.252 38.9575 107.985 38.7052C107.717 38.4595 107.663 38.263 107.823 38.1158C108.335 37.7539 108.629 37.0528 108.705 36.0125C108.75 35.619 108.936 35.4516 109.263 35.5104C109.596 35.5625 109.747 35.7253 109.715 35.9987L109.656 36.419C109.872 36.9382 110.099 37.2573 110.34 37.3764C110.48 37.4559 110.55 37.409 110.549 37.2357L110.542 35.1657L108.572 35.173C108.298 35.174 108.161 35.0145 108.16 34.6945C108.159 34.3745 108.295 34.214 108.568 34.213L113.438 34.1449L113.738 34.2438C114.052 34.336 114.153 34.5323 114.04 34.8327L113.753 35.5638C113.661 35.8175 113.464 35.8949 113.164 35.796C112.864 35.6971 112.769 35.4841 112.882 35.157L111.632 35.1616L111.635 35.9916L113.455 35.9849C113.728 35.9839 113.865 36.1434 113.866 36.4634C113.868 36.7767 113.732 36.9339 113.458 36.9349L111.638 36.9416ZM119.246 33.6034C119.519 33.6024 119.657 33.7886 119.658 34.1619C119.659 34.5352 119.523 34.7224 119.25 34.7234L117.94 34.7283L117.872 35.1385C118.3 35.5503 118.812 36.1084 119.408 36.8128C119.642 37.0853 119.627 37.3887 119.361 37.723C119.096 38.0573 118.903 38.138 118.782 37.9652C118.601 37.6658 118.196 37.1273 117.566 36.3497C117.183 37.4577 116.663 38.2463 116.005 38.7155C115.792 38.8896 115.542 38.8272 115.254 38.5282C114.973 38.2293 114.942 37.9961 115.162 37.8286C116.019 37.2187 116.545 36.1868 116.74 34.7327L115.38 34.7377C115.107 34.7388 114.969 34.5526 114.968 34.1793C114.967 33.8059 115.103 33.6188 115.376 33.6177L116.816 33.6124L116.81 32.0224L116.41 32.0239C116.205 32.558 116.043 32.9019 115.924 33.0557C115.798 33.2628 115.575 33.2537 115.254 33.0282C114.933 32.7961 114.832 32.5898 114.951 32.4093C115.343 31.9012 115.617 31.1668 115.773 30.2063C115.845 29.846 116.071 29.7051 116.452 29.7837C116.832 29.8557 116.993 30.0251 116.934 30.292L116.776 30.9225L119.006 30.9143C119.279 30.9133 119.417 31.0961 119.418 31.4628C119.419 31.8294 119.283 32.0133 119.01 32.0143L118.01 32.018L118.016 33.608L119.246 33.6034ZM121.087 36.5966C121.088 36.7699 121.175 36.8563 121.348 36.8556L122.278 36.8522C122.451 36.8515 122.538 36.7646 122.537 36.5912L122.52 31.8813C122.519 31.7079 122.432 31.6216 122.259 31.6222L121.329 31.6257C121.155 31.6263 121.069 31.7133 121.07 31.8866L121.087 36.5966ZM119.916 30.9909C119.915 30.6709 120.074 30.5103 120.394 30.5091L123.244 30.4986C123.564 30.4974 123.725 30.6568 123.726 30.9768L123.75 37.4967C123.752 37.8101 123.592 37.9673 123.272 37.9685L120.422 37.9791C120.102 37.9803 119.942 37.8242 119.94 37.5109L119.916 30.9909ZM133.828 31.5393C133.936 31.7856 133.837 31.976 133.53 32.1104C133.224 32.2383 133.024 32.1757 132.93 31.9227L132.516 30.8942C132.422 30.6412 132.518 30.4575 132.804 30.3431C133.09 30.2287 133.287 30.2947 133.395 30.5409L133.828 31.5393ZM125.761 34.9293C125.488 34.9303 125.35 34.7841 125.349 34.4908C125.348 34.1908 125.484 34.0403 125.758 34.0393L127.348 34.0334C127.621 34.0324 127.758 34.1819 127.759 34.4819C127.76 34.7752 127.624 34.9224 127.351 34.9234L125.761 34.9293ZM127.343 32.6734C127.616 32.6724 127.753 32.8219 127.754 33.1219C127.755 33.4219 127.619 33.5724 127.346 33.5734L125.756 33.5793C125.483 33.5803 125.345 33.4308 125.344 33.1308C125.343 32.8308 125.479 32.6803 125.753 32.6793L127.343 32.6734ZM126.937 36.5749C126.936 36.4083 126.849 36.3252 126.676 36.3259L126.456 36.3267C126.283 36.3273 126.196 36.411 126.197 36.5777L126.199 37.2477C126.2 37.421 126.287 37.5073 126.46 37.5067L126.68 37.5059C126.854 37.5052 126.94 37.4182 126.939 37.2449L126.937 36.5749ZM127.303 35.4136C127.623 35.4124 127.783 35.5718 127.784 35.8918L127.792 37.9318C127.793 38.2518 127.634 38.4123 127.314 38.4135L125.854 38.4189C125.534 38.4201 125.373 38.2607 125.372 37.9407L125.364 35.9007C125.363 35.5807 125.523 35.4202 125.843 35.419L127.303 35.4136ZM126.945 30.5348C127.086 30.8277 127.006 31.038 126.707 31.1657L126.397 31.2969L127.527 31.2927C127.801 31.2917 127.938 31.4478 127.939 31.7612C127.94 32.0678 127.804 32.2217 127.531 32.2227L125.461 32.2304C125.188 32.2314 125.05 32.0785 125.049 31.7719C125.048 31.4586 125.184 31.3014 125.457 31.3004L126.247 31.2974L125.834 30.339C125.726 30.0927 125.809 29.9191 126.082 29.818C126.362 29.7103 126.562 29.7763 126.683 30.0158L126.945 30.5348ZM130.665 30.5711C130.938 30.57 131.075 30.7229 131.076 31.0295C131.078 31.3295 130.941 31.48 130.668 31.4811L128.528 31.489C128.255 31.49 128.118 31.3405 128.116 31.0405C128.115 30.7338 128.251 30.58 128.525 30.579L129.195 30.5765L129.043 30.2371C128.929 29.9908 129.022 29.8238 129.322 29.736C129.628 29.6482 129.838 29.7275 129.953 29.9737L130.225 30.5727L130.665 30.5711ZM129.247 36.5164C129.247 36.6897 129.334 36.776 129.508 36.7754L130.138 36.7731L130.135 36.1331L129.245 36.1364L129.247 36.5164ZM130.131 34.9931C130.13 34.8197 130.043 34.7334 129.87 34.734L129.5 34.7354C129.327 34.736 129.24 34.823 129.241 34.9964L129.242 35.3564L130.132 35.3531L130.131 34.9931ZM132.968 34.2725C133.061 33.9922 133.257 33.9281 133.558 34.0804C133.858 34.2326 133.959 34.4455 133.86 34.7192C133.669 35.3533 133.335 36.0279 132.858 36.743C132.973 37.2692 133.091 37.5321 133.211 37.5317C133.337 37.5179 133.4 37.3443 133.399 37.011C133.437 36.5642 133.583 36.4503 133.837 36.6693C134.092 36.8884 134.173 37.2181 134.081 37.6584C133.971 38.4722 133.672 38.88 133.186 38.8818C132.759 38.8834 132.401 38.5013 132.111 37.7357C131.706 38.1906 131.377 38.4985 131.125 38.6594C130.912 38.8269 130.692 38.801 130.464 38.5819C130.244 38.3693 130.24 38.1794 130.452 38.0119L130.732 37.8009L130.382 37.8022C130.222 37.8028 130.141 37.723 130.141 37.5631L128.781 37.5681C128.461 37.5693 128.3 37.4099 128.299 37.0899L128.289 34.4199C128.288 34.0999 128.447 33.9393 128.767 33.9381L130.617 33.9313C130.937 33.9301 131.098 34.0895 131.099 34.4095L131.109 37.1695C131.11 37.3428 131.157 37.3826 131.25 37.2889C131.436 37.1082 131.625 36.8775 131.817 36.5968C131.654 35.8308 131.524 34.8212 131.426 33.5683L128.386 33.5795C128.113 33.5805 127.975 33.4144 127.974 33.081C127.973 32.7477 128.109 32.5805 128.382 32.5795L128.562 32.5789L128.45 32.0393C128.396 31.7728 128.502 31.6157 128.768 31.5681C129.035 31.5204 129.199 31.6298 129.26 31.8963L129.422 32.5757L129.772 32.5744L129.91 31.8839C129.955 31.617 130.128 31.5064 130.428 31.5519C130.729 31.5908 130.842 31.7404 130.77 32.0007L130.592 32.5713L131.362 32.5685C131.312 31.7553 131.276 30.9355 131.253 30.1089C131.252 29.7889 131.425 29.6282 131.771 29.627C132.125 29.6256 132.302 29.7317 132.302 29.945C132.304 30.4516 132.334 31.3249 132.392 32.5647L133.702 32.5598C133.975 32.5588 134.113 32.725 134.114 33.0583C134.115 33.3916 133.979 33.5588 133.706 33.5598L132.466 33.5644C132.508 34.1443 132.56 34.6874 132.622 35.1938C132.8 34.7998 132.916 34.4927 132.968 34.2725Z" fill="#2382C9"/>
<path d="M32.117 52.8506C32.0753 53.1174 32.1931 53.2503 32.4705 53.2492L36.7424 53.2334C37.2651 53.2315 37.5167 53.4919 37.4973 54.0146L37.482 54.1907C37.3599 55.7805 37.215 56.9864 37.0474 57.8083C36.8904 58.6302 36.6579 59.2124 36.3499 59.5549C36.0418 59.9081 35.5306 60.118 34.8162 60.1846C34.3151 60.2505 33.7658 60.2685 33.1684 60.2387C32.603 60.2301 32.1964 59.8956 31.9487 59.2352C31.7115 58.5748 31.7797 58.2598 32.1532 58.2905C32.4306 58.3214 33.0547 58.3351 34.0253 58.3315C34.356 58.3303 34.5904 58.2708 34.7287 58.1529C35.0371 57.9064 35.2474 57.0843 35.3595 55.6866C35.4112 55.2277 35.2983 54.9988 35.021 54.9998L30.717 55.0158C30.077 55.0181 29.8199 54.7098 29.9456 54.0906C30.208 52.9483 30.4063 51.7582 30.5403 50.5204C30.6128 49.9228 30.8997 49.623 31.401 49.6212L35.049 49.6077C35.3263 49.6066 35.4645 49.4675 35.4634 49.1901L35.4598 48.1981C35.4587 47.9208 35.3196 47.7827 35.0422 47.7837L30.8983 47.799C30.4609 47.8007 30.2412 47.5081 30.239 46.9215C30.2368 46.3241 30.4543 46.0247 30.8917 46.0231L36.5556 46.0021C37.0676 46.0002 37.3246 46.2552 37.3265 46.7672L37.3407 50.6072C37.3426 51.1192 37.0876 51.3761 36.5756 51.378L32.7676 51.3921C32.4903 51.3932 32.3307 51.5271 32.2891 51.7939L32.117 52.8506ZM40.4927 46.2755C40.4911 45.8381 40.8102 45.6183 41.4502 45.6159C42.1009 45.6135 42.427 45.831 42.4287 46.2683L42.4783 59.6602C42.4799 60.0975 42.1554 60.3174 41.5047 60.3198C40.8647 60.3222 40.5439 60.1047 40.5423 59.6674L40.4927 46.2755ZM53.6247 53.8108L57.0007 53.7983L56.9934 51.8303L53.6174 51.8429L53.6247 53.8108ZM48.6487 53.8293L51.7047 53.818L51.6974 51.85L48.6894 51.8611L48.6487 53.8293ZM51.684 48.218L49.092 48.2276C48.8146 48.2286 48.6765 48.3678 48.6775 48.6451L48.6829 50.0851L51.6908 50.074L51.684 48.218ZM56.9868 50.0544L56.9815 48.6144C56.9804 48.337 56.8412 48.1989 56.5639 48.1999L53.6039 48.2109L53.6108 50.0669L56.9868 50.0544ZM58.0932 46.3862C58.6052 46.3843 58.8621 46.6394 58.864 47.1514L58.9043 57.9993C58.9062 58.5113 58.8436 58.9062 58.7166 59.184C58.5897 59.4725 58.3665 59.6866 58.047 59.8265C57.5573 60.0736 56.8377 60.183 55.8882 60.1545C55.2803 60.1674 54.8738 59.8703 54.6689 59.263C54.464 58.6558 54.5056 58.3569 54.7936 58.3665C54.9003 58.3768 55.503 58.3799 56.6016 58.3758C56.751 58.3753 56.8575 58.3482 56.9213 58.2947C56.9851 58.2304 57.0167 58.129 57.0162 57.9903L57.0073 55.5903L53.6313 55.6028L53.6455 59.4108C53.6471 59.8481 53.3279 60.068 52.6879 60.0704C52.0479 60.0727 51.7271 59.8553 51.7255 59.4179L51.7113 55.6099L48.4474 55.622C48.1138 57.7033 47.5644 59.14 46.7993 59.9322C46.5658 60.2317 46.1976 60.1744 45.6947 59.7603C45.1919 59.3568 45.0732 58.9946 45.3387 58.6736C45.8911 58.0849 46.2875 57.1074 46.5278 55.7412C46.7157 54.6418 46.8073 53.4414 46.8025 52.1401L46.7841 47.1962C46.7822 46.6842 47.0373 46.4272 47.5493 46.4253L58.0932 46.3862ZM66.9062 49.8736C66.9584 49.5641 66.8458 49.4098 66.5685 49.4108L64.5685 49.4183L64.1249 50.6039C65.3774 51.8153 66.0679 52.49 66.1964 52.6282C66.5237 51.7204 66.7603 50.8021 66.9062 49.8736ZM65.1538 47.6081L67.2335 47.5364C67.6709 47.5347 68.1138 47.5971 68.5622 47.7234C69.0214 47.8497 69.2094 48.217 69.1263 48.8254C68.5285 54.4489 66.5475 58.1416 63.1833 59.9035C62.8428 60.1074 62.4048 59.9437 61.8695 59.4123C61.3342 58.881 61.2688 58.5132 61.6734 58.309C63.1536 57.6316 64.3863 56.3736 65.3715 54.5353C64.9321 53.9823 64.2413 53.2275 63.2991 52.271C63.0341 52.7306 62.8856 52.9658 62.8537 52.9766C62.6203 53.3188 62.2361 53.2883 61.7013 52.8849C61.1665 52.4815 61.0106 52.1461 61.2336 51.8786C62.3276 50.6266 63.0939 48.7144 63.5323 46.1421C63.6475 45.5656 64.0253 45.3349 64.6658 45.4499C65.3062 45.5542 65.5792 45.8198 65.4847 46.2468L65.1538 47.6081ZM75.8954 53.4243C76.0454 53.5944 75.8492 53.8991 75.3068 54.3385C74.7751 54.7671 74.4288 54.8751 74.268 54.6623C74.0319 54.2899 73.25 53.4021 71.9221 51.999L71.9501 59.551C71.9517 59.9883 71.6165 60.2082 70.9445 60.2107C70.2725 60.2132 69.9357 59.9958 69.9341 59.5584L69.8836 45.9265C69.882 45.4892 70.2171 45.2693 70.8891 45.2668C71.5611 45.2643 71.8979 45.4817 71.8996 45.9191L71.9168 50.575C72.3849 50.232 72.8973 50.3421 73.4541 50.9053C74.7708 52.1805 75.5846 53.0201 75.8954 53.4243ZM83.1859 56.2453C83.1849 55.968 83.0457 55.8298 82.7684 55.8308L80.1604 55.8405C79.8831 55.8415 79.7449 55.9807 79.7459 56.258L79.7501 57.378C79.7511 57.6554 79.8903 57.7935 80.1676 57.7925L82.7756 57.7828C83.0529 57.7818 83.1911 57.6426 83.1901 57.3653L83.1859 56.2453ZM78.7338 59.4458C78.2218 59.4477 77.9648 59.1927 77.9629 58.6807L77.949 54.9207C77.9471 54.4087 78.2021 54.1517 78.7141 54.1499L84.2981 54.1292C84.8101 54.1273 85.067 54.3823 85.0689 54.8943L85.0829 58.6543C85.0848 59.1663 84.8297 59.4232 84.3177 59.4251L78.7338 59.4458ZM82.8379 48.6945L80.118 48.7046C80.5045 49.3965 80.7197 49.9077 80.7636 50.2382C80.9148 50.739 80.7454 51.0596 80.2552 51.2001L80.0314 51.2649L81.9514 51.2578L82.8379 48.6945ZM83.4459 48.6923L83.7982 48.771C84.4281 48.9073 84.6214 49.2693 84.3783 49.8568L83.7754 51.2511L85.0074 51.2465C85.4447 51.2449 85.6645 51.5321 85.6666 52.1081C85.6687 52.6841 85.4511 52.9729 85.0138 52.9745L77.8619 53.001C77.4245 53.0026 77.2048 52.7154 77.2027 52.1394C77.2005 51.5634 77.4181 51.2746 77.8555 51.273L79.2474 51.2679L78.6979 49.7819C78.5254 49.2812 78.6949 48.9659 79.2064 48.836L79.734 48.706L78.262 48.7115C77.8246 48.7131 77.6049 48.4313 77.6028 47.8659C77.6007 47.2899 77.8183 47.0011 78.2556 46.9995L80.6076 46.9908L80.3167 46.2079C80.1659 45.8031 80.3781 45.5196 80.9535 45.3575C81.5396 45.1847 81.9133 45.3006 82.0748 45.7053L82.6076 46.9834L84.6556 46.9758C85.0929 46.9742 85.3126 47.2613 85.3148 47.8373C85.3169 48.4027 85.0992 48.6861 84.6619 48.6878L83.4459 48.6923ZM90.6196 45.8817L91.3252 46.3111C91.7421 46.5655 91.8344 47.0185 91.6022 47.67C91.0533 49.2401 90.6044 50.4204 90.2553 51.2111C90.1919 51.3713 90.2567 51.5737 90.4496 51.8183C91.2742 52.7113 91.689 53.8351 91.6941 55.1897C91.6984 56.3631 91.4187 57.1481 90.8548 57.5449C90.3761 57.9093 89.9073 58.0551 89.4484 57.9821C88.8617 57.9736 88.5088 57.7402 88.3898 57.282C88.1952 56.5681 88.3592 56.2101 88.8818 56.2082C89.1806 56.2284 89.4151 56.1849 89.5853 56.0776C89.8301 55.9273 89.9514 55.5589 89.9492 54.9722C89.9451 53.8629 89.6005 52.9788 88.9154 52.32C88.5618 51.8947 88.4378 51.5378 88.5434 51.2494C88.7442 50.7367 89.0605 49.7435 89.4924 48.2699C89.6189 47.8641 89.5435 47.6617 89.2662 47.6627L88.3062 47.6663C88.0288 47.6673 87.8907 47.8065 87.8917 48.0838L87.9338 59.4277C87.9354 59.865 87.6589 60.0847 87.1042 60.0868C86.5495 60.0889 86.2714 59.8712 86.2698 59.4339L86.2227 46.73C86.2208 46.218 86.4758 45.961 86.9878 45.9591L90.6196 45.8817ZM96.9559 45.9542C97.3932 45.9526 97.6127 46.1864 97.6145 46.6557C97.6162 47.1144 97.3984 47.3446 96.961 47.3462L94.1771 47.3565C93.7397 47.3581 93.5202 47.1296 93.5185 46.6709C93.5168 46.2016 93.7346 45.9661 94.1719 45.9645L96.9559 45.9542ZM97.1196 55.5856L97.1208 55.9056C97.1217 56.1723 97.2609 56.3051 97.5382 56.3041L103.634 56.2815C103.912 56.2805 104.05 56.1466 104.049 55.88L104.048 55.56L97.1196 55.5856ZM97.113 53.8257L97.1156 54.5136L104.044 54.488L104.041 53.8L97.113 53.8257ZM97.5225 52.0641C97.2452 52.0652 97.107 52.2043 97.1081 52.4817L97.1091 52.7537L104.037 52.728L104.036 52.456C104.035 52.1787 103.896 52.0405 103.618 52.0415L97.5225 52.0641ZM105.987 56.6248C105.989 57.1368 105.734 57.3937 105.222 57.3956L103.654 57.4014C105.353 58.0245 106.522 58.4948 107.164 58.8124C107.484 58.9606 107.357 59.2064 106.782 59.5499C106.218 59.8933 105.76 59.9696 105.407 59.779C104.595 59.302 103.745 58.9158 102.859 58.6204C102.132 58.3351 102.014 57.9942 102.503 57.5977L102.742 57.4048L98.2304 57.4215L98.7593 57.6596C99.3363 57.9241 99.348 58.2227 98.7946 58.5555C98.0497 59.0489 96.9048 59.5065 95.3597 59.9282C94.8802 60.0793 94.405 59.9211 93.9339 59.4535C93.4629 58.9966 93.4778 58.7192 93.9788 58.6213C95.3006 58.3711 96.5044 57.9719 97.5904 57.4239L96.0544 57.4296C95.5424 57.4315 95.2855 57.1765 95.2836 56.6645L95.2652 51.7045C95.2633 51.1925 95.5183 50.9355 96.0303 50.9336L105.198 50.8997C105.71 50.8978 105.967 51.1528 105.969 51.6648L105.987 56.6248ZM103.186 47.4991L103.187 47.9951C103.99 48.7815 105.261 49.2088 107 49.277C107.608 49.3174 107.737 49.5942 107.387 50.1075C107.037 50.6102 106.601 50.8251 106.078 50.7524C104.776 50.6079 103.638 50.1108 102.664 49.261C101.963 50.085 100.744 50.5908 99.0058 50.7786C98.3661 50.8663 97.9229 50.7133 97.6761 50.3195L97.4024 49.8726L93.8184 49.8858C93.3811 49.8875 93.1615 49.6483 93.1598 49.1683C93.1579 48.6776 93.3757 48.4315 93.813 48.4298L97.221 48.4172C97.733 48.4153 97.9899 48.6704 97.9918 49.1824C97.9924 49.321 98.0886 49.3793 98.2805 49.3573C99.5493 49.2246 100.412 48.9921 100.87 48.6597C101.253 48.3809 101.444 48.0762 101.443 47.7456L101.442 47.5056L100.482 47.5091C100.132 48.0651 99.9036 48.3806 99.7972 48.4557C99.5102 48.7447 99.1315 48.7301 98.661 48.4119C98.1904 48.083 98.104 47.7739 98.4016 47.4848C98.944 47.0668 99.3153 46.5214 99.5155 45.8487C99.7162 45.3253 100.094 45.1265 100.649 45.2525C101.204 45.3678 101.392 45.6604 101.213 46.1304L106.044 46.0325L106.429 46.1591C107.037 46.3381 107.183 46.7003 106.865 47.2455L106.197 48.3999C105.985 48.7741 105.633 48.8714 105.142 48.6919C104.651 48.5123 104.516 48.2355 104.739 47.8613C104.887 47.6155 104.823 47.493 104.546 47.4941L103.186 47.4991ZM112.926 46.455C113.3 46.6669 113.291 47.0296 112.898 47.5431C112.516 48.0459 112.143 48.1806 111.779 47.9473L110.272 46.9448C109.908 46.7115 109.907 46.3702 110.268 45.9208C110.629 45.4608 110.996 45.3368 111.37 45.5487L112.926 46.455ZM112.157 50.6819C112.532 50.8938 112.528 51.2565 112.146 51.7699C111.774 52.2833 111.407 52.4287 111.043 52.206L109.536 51.2516C109.172 51.0183 109.165 50.677 109.516 50.2277C109.877 49.7676 110.25 49.6383 110.634 49.8395L112.157 50.6819ZM111.148 54.4616C111.338 53.9489 111.689 53.8676 112.203 54.2177C112.727 54.5571 112.899 54.9672 112.719 55.4478C112.265 56.7828 111.758 58.0594 111.197 59.2775C111.028 59.6728 110.65 59.6955 110.062 59.3457C109.484 59.0065 109.286 58.6659 109.466 58.3239C110.059 57.223 110.62 55.9356 111.148 54.4616ZM116.178 56.171C116.389 55.6689 116.773 55.4968 117.328 55.6547C117.894 55.8126 118.066 56.1427 117.844 56.6448C117.537 57.3926 117.156 58.0714 116.699 58.6811C116.466 59.0233 116.098 59.0407 115.595 58.7332C115.104 58.4363 114.985 58.1168 115.24 57.7745C115.654 57.2716 115.967 56.7371 116.178 56.171ZM117.892 52.5166L117.894 52.9966C117.895 53.274 118.034 53.4121 118.312 53.4111L121.176 53.4005C121.453 53.3994 121.591 53.2603 121.59 52.9829L121.588 52.5029L117.892 52.5166ZM118.3 50.3551C118.023 50.3561 117.885 50.4953 117.886 50.7726L117.888 51.2366L121.584 51.2229L121.582 50.7589C121.581 50.4816 121.442 50.3435 121.164 50.3445L118.3 50.3551ZM123.354 53.9844C123.356 54.4964 123.101 54.7533 122.589 54.7552L120.557 54.7628L120.429 59.2113C120.334 59.4463 120.153 59.623 119.887 59.7413C119.461 59.9455 118.987 60.0326 118.464 60.0026C117.899 60.0153 117.53 59.75 117.357 59.2067C117.195 58.6633 117.333 58.3907 117.77 58.3891L118.506 58.3864C118.677 58.3964 118.762 58.3268 118.761 58.1774L118.749 54.7695L116.989 54.776C116.477 54.7779 116.22 54.5228 116.218 54.0108L116.202 49.7709C116.2 49.2589 116.455 49.0019 116.967 49L118.327 48.995L118.722 47.6335L116.05 47.6434C115.773 47.6444 115.635 47.7836 115.636 48.061L115.644 50.3489C115.661 54.7862 115.032 57.8819 113.759 59.636C113.578 59.9247 113.221 59.8993 112.686 59.56C112.152 59.2206 111.996 58.8852 112.219 58.5537C112.548 58.1258 112.865 57.3513 113.17 56.2302C113.475 55.0983 113.658 54.111 113.719 53.2681C113.78 52.4252 113.808 51.4544 113.804 50.3558L113.791 46.7078C113.789 46.1958 114.044 45.9388 114.556 45.9369L123.116 45.9052C123.553 45.9036 123.773 46.1908 123.775 46.7668C123.777 47.3321 123.56 47.6156 123.122 47.6172L119.106 47.6321L119.939 47.789C120.569 47.8933 120.724 48.2234 120.407 48.7793L120.279 48.9878L122.567 48.9793C123.079 48.9774 123.336 49.2324 123.338 49.7444L123.354 53.9844ZM121.783 57.4302C121.546 56.9404 121.491 56.5033 121.618 56.1188C121.755 55.7343 122.048 55.5359 122.496 55.5236C122.601 55.3205 122.816 55.5331 123.138 56.1612C123.664 57.1193 123.917 57.6037 123.895 57.6144C124.003 57.838 123.934 58.0676 123.69 58.3032C123.456 58.528 123.062 58.6948 122.508 58.8036L122.283 58.5964C122.143 58.1596 121.976 57.7709 121.783 57.4302ZM132.999 53.0846L132.99 50.9087C132.989 50.6313 132.85 50.4932 132.573 50.4942L131.341 50.4988C130.829 50.5007 130.572 50.2456 130.57 49.7336L130.556 45.8456C130.554 45.4083 130.82 45.1887 131.353 45.1867C131.897 45.1847 132.17 45.4023 132.172 45.8397L132.173 46.2716L134.029 46.2648C134.467 46.2631 134.686 46.5237 134.688 47.0463C134.69 47.569 134.472 47.8311 134.035 47.8328L132.179 47.8396L132.182 48.5916C132.183 48.869 132.322 49.0071 132.599 49.0061L133.799 49.0176C134.311 49.0157 134.568 49.2708 134.57 49.7828L134.583 53.0788C134.584 53.4094 134.542 53.6549 134.457 53.8152C134.383 53.9755 134.224 54.1148 133.979 54.233C133.734 54.3513 133.441 54.4057 133.099 54.3963C132.502 54.4092 132.133 54.2239 131.993 53.8404C131.853 53.4462 132.002 53.2483 132.439 53.2467L132.727 53.2456C132.909 53.2556 132.999 53.202 132.999 53.0846ZM130.657 51.5093C130.762 51.0929 131.049 50.9265 131.519 51.0101C131.988 51.083 132.182 51.4237 132.099 52.032C132.058 52.6401 131.916 53.1046 131.672 53.4256C131.513 53.7355 131.23 53.7685 130.824 53.5247C130.418 53.2702 130.267 52.9348 130.372 52.5184L130.657 51.5093ZM136.684 54.543L136.759 53.2467L135.799 53.2503C135.362 53.2519 135.142 52.9914 135.14 52.4687C135.138 51.946 135.356 51.6839 135.793 51.6823L136.817 51.6785L136.812 50.3025L135.9 50.3059C135.463 50.3075 135.243 50.047 135.241 49.5243C135.239 49.0016 135.457 48.7395 135.894 48.7379L136.902 48.7341L136.899 47.7741C136.898 47.4968 136.759 47.3587 136.481 47.3597L135.729 47.3625C135.292 47.3641 135.072 47.0929 135.07 46.5489C135.068 46.0049 135.286 45.7321 135.723 45.7305L137.883 45.7225C138.395 45.7206 138.647 46.0077 138.638 46.5837C138.659 49.2823 138.605 51.9332 138.476 54.5363L139.212 54.5336C139.649 54.532 139.869 54.8245 139.871 55.4112C139.873 55.9978 139.656 56.292 139.218 56.2936L135.363 56.3079C137.072 57.1016 138.28 57.7211 138.985 58.1665C139.295 58.3467 139.238 58.6775 138.813 59.1591C138.399 59.6513 138.021 59.7861 137.679 59.5633C136.77 58.9374 135.824 58.3969 134.841 57.9418C134.157 57.5924 134.006 57.1663 134.388 56.6635L134.659 56.3105L129.907 56.3281L130.516 56.8219C131.009 57.2254 130.973 57.6095 130.409 57.9743C129.579 58.5427 128.44 59.1176 126.991 59.6989C126.554 59.8926 126.154 59.7501 125.789 59.2714C125.436 58.8034 125.488 58.4778 125.946 58.2948C127.235 57.81 128.443 57.1549 129.571 56.3294L125.859 56.3431C125.421 56.3447 125.201 56.0522 125.199 55.4656C125.197 54.8789 125.415 54.5848 125.852 54.5831L126.636 54.5802L126.352 47.0452C126.34 46.5653 126.552 46.2392 126.988 46.0669L128.778 45.3562C129.183 45.2054 129.519 45.3908 129.788 45.9125C130.067 46.4235 129.999 46.7384 129.583 46.8573L128.449 47.1975C128.193 47.2731 128.066 47.4442 128.067 47.7109L128.118 48.7507L129.286 48.7464C129.724 48.7447 129.943 49.0053 129.945 49.5279C129.947 50.0399 129.73 50.2967 129.292 50.2984L128.172 50.3025L128.225 51.6783L129.345 51.6742C129.783 51.6725 130.002 51.9331 130.004 52.4557C130.006 52.9677 129.788 53.2245 129.351 53.2262L128.279 53.2301L128.332 54.5739L136.684 54.543ZM152.956 50.1146C152.955 49.8373 152.815 49.6992 152.538 49.7002L151.29 49.7048L151.293 50.4888L152.957 50.4826L152.956 50.1146ZM152.549 52.5162C152.826 52.5151 152.964 52.376 152.963 52.0986L152.962 51.6986L151.298 51.7048L151.301 52.5208L152.549 52.5162ZM147.827 52.1177C147.828 52.395 147.967 52.5332 148.245 52.5321L149.445 52.5277L149.442 51.7117L147.826 51.7177L147.827 52.1177ZM148.234 49.7161C147.957 49.7172 147.819 49.8563 147.82 50.1337L147.821 50.5017L149.437 50.4957L149.434 49.7117L148.234 49.7161ZM149.429 48.3997L149.427 47.6637L146.083 47.6761C145.645 47.6777 145.426 47.4225 145.424 46.9105C145.422 46.3985 145.64 46.1417 146.077 46.1401L149.421 46.1277L149.419 45.6477C149.417 45.2104 149.726 44.9906 150.345 44.9883C150.963 44.986 151.273 45.2035 151.275 45.6408L151.277 46.1208L154.813 46.1077C155.25 46.1061 155.47 46.3613 155.472 46.8733C155.474 47.3853 155.256 47.6421 154.819 47.6437L151.283 47.6568L151.285 48.3928L154.005 48.3827C154.517 48.3808 154.774 48.6359 154.776 49.1479L154.791 53.0519C154.792 53.5639 154.537 53.8208 154.025 53.8227L151.305 53.8328L151.308 54.6168L155.02 54.603C155.458 54.6014 155.677 54.8619 155.679 55.3846C155.681 55.8966 155.463 56.1534 155.026 56.155L151.314 56.1688L151.317 56.9528C151.319 57.3901 151.01 57.6099 150.391 57.6122C149.773 57.6145 149.463 57.397 149.461 56.9596L149.458 56.1756L146.146 56.1879C145.709 56.1895 145.489 55.9344 145.487 55.4224C145.485 54.8997 145.703 54.6376 146.14 54.6359L149.452 54.6237L149.449 53.8397L146.857 53.8493C146.345 53.8512 146.089 53.5961 146.087 53.0841L146.072 49.1802C146.07 48.6682 146.325 48.4112 146.837 48.4093L149.429 48.3997ZM144.576 46.9137C144.854 47.2433 144.744 47.5797 144.243 47.9229C143.754 48.2661 143.381 48.2621 143.123 47.9111L141.966 46.3794C141.708 46.0283 141.814 45.7132 142.282 45.4342C142.761 45.1551 143.14 45.1803 143.419 45.51L144.576 46.9137ZM144.021 52.5478C144.458 52.5355 144.805 52.5875 145.061 52.7039C145.328 52.8096 145.425 53.1026 145.352 53.5828C145.27 54.3405 145.06 55.1999 144.722 56.1612C145.152 56.917 145.777 57.416 146.6 57.6583C147.422 57.8899 148.58 58.0083 150.073 58.0134C152.292 58.0052 154.131 57.929 155.592 57.7849C155.997 57.7408 156.1 58.0124 155.899 58.5998C155.699 59.1872 155.385 59.4924 154.959 59.5153C153.721 59.5945 152.191 59.6375 150.367 59.6443C148.554 59.651 147.188 59.5228 146.27 59.2595C145.362 59.0069 144.613 58.4923 144.024 57.7158C143.537 58.6563 143.07 59.2767 142.623 59.577C142.304 59.8555 141.935 59.7822 141.518 59.3571C141.1 58.9426 141.046 58.6175 141.354 58.3817C142.397 57.6845 143.107 56.4232 143.484 54.5978C143.579 54.2348 143.488 54.0538 143.21 54.0548L142.49 54.0575L142.058 54.0911C141.696 54.2311 141.413 54.0401 141.208 53.5182C141.004 52.9963 141.093 52.644 141.476 52.4612L141.731 52.2203C141.965 51.9954 142.342 51.5087 142.862 50.7601C143.106 50.4072 143.089 50.2312 142.812 50.2322L141.852 50.2358C141.415 50.2374 141.195 49.9876 141.193 49.4862C141.191 48.9742 141.409 48.7174 141.846 48.7158L144.342 48.7066L144.502 48.674C144.939 48.5977 145.254 48.6552 145.447 48.8465C145.64 49.0378 145.577 49.3687 145.259 49.8392C144.548 50.9085 143.97 51.7266 143.524 52.2936C143.386 52.4861 143.455 52.5765 143.733 52.5648L144.021 52.5478ZM157.46 56.578C157.521 55.9484 157.803 55.6754 158.305 55.7589C158.817 55.8316 159.042 56.1668 158.98 56.7644C158.899 57.8633 158.737 58.7279 158.494 59.3582C158.399 59.6999 158.106 59.781 157.615 59.6014C157.134 59.4326 156.941 59.1933 157.036 58.8836C157.248 58.4028 157.389 57.6343 157.46 56.578ZM159.556 56.6822C159.469 56.1172 159.654 55.7912 160.112 55.7042C160.571 55.6065 160.844 55.8188 160.931 56.3411C161.094 57.0765 161.175 57.6042 161.177 57.9242C161.21 58.3614 161.116 58.7085 160.893 58.9653C160.67 59.2328 160.323 59.2981 159.853 59.1611L159.804 58.9373L159.556 56.6822ZM161.314 56.1157C161.206 55.7001 161.365 55.4222 161.791 55.2819C162.228 55.1416 162.506 55.2793 162.624 55.6948L163.176 57.6288C163.294 58.0444 163.13 58.3277 162.683 58.4786C162.235 58.6296 161.957 58.4973 161.849 58.0817L161.314 56.1157ZM161.156 52.2123C161.026 51.7967 161.185 51.5188 161.632 51.3785C162.091 51.2275 162.422 51.4289 162.627 51.9828C162.95 52.771 163.155 53.4422 163.242 53.9965C163.329 54.3482 163.127 54.6156 162.637 54.7988C162.147 54.9713 161.864 54.839 161.788 54.4019L161.755 54.2901C159.293 54.6619 157.955 54.9068 157.742 55.0249C157.593 55.0788 157.416 54.8235 157.211 54.2589C157.017 53.6943 157.026 53.3689 157.239 53.2828C157.527 53.2604 158.202 52.5005 159.263 51.0033C158.261 51.1243 157.765 51.2062 157.776 51.2488C157.52 51.3244 157.295 51.0906 157.101 50.5473C156.907 50.004 156.906 49.6787 157.098 49.5713C157.332 49.5598 157.868 48.7684 158.705 47.1973C159.129 46.3957 159.398 45.8081 159.514 45.4343C159.673 45.039 160.035 44.9577 160.601 45.1903C161.178 45.4228 161.372 45.7368 161.181 46.1321C160.758 47.1044 160.18 48.0879 159.448 49.0826C159.268 49.3392 159.316 49.4617 159.593 49.45L160.329 49.3833L161.155 47.8922C161.357 47.5182 161.719 47.4955 162.243 47.8242C162.767 48.1529 162.912 48.5151 162.679 48.9106C161.916 50.2681 161.014 51.5248 159.973 52.6807C159.782 52.9054 159.825 53.0065 160.102 52.9842L161.35 52.8355L161.156 52.2123ZM169.249 55.7023C169.247 55.425 169.108 55.2868 168.831 55.2878L166.159 55.2977C165.882 55.2988 165.743 55.4379 165.745 55.7153L165.75 57.2513C165.751 57.5286 165.89 57.6668 166.168 57.6657L168.84 57.6558C169.117 57.6548 169.255 57.5156 169.254 57.2383L169.249 55.7023ZM164.718 59.3831C164.206 59.385 163.949 59.13 163.947 58.618L163.931 54.346C163.93 53.834 164.185 53.577 164.697 53.5751L170.361 53.5542C170.873 53.5523 171.129 53.8073 171.131 54.3193L171.147 58.5913C171.149 59.1033 170.894 59.3602 170.382 59.3621L164.718 59.3831ZM171.232 46.8789C171.669 46.8773 171.889 47.1751 171.891 47.7724C171.893 48.3698 171.676 48.6692 171.238 48.6709L168.438 48.6812L168.445 50.5212L170.861 50.5123C171.299 50.5107 171.518 50.8085 171.521 51.4058C171.523 51.9925 171.305 52.2866 170.868 52.2883L164.276 52.3127C163.839 52.3143 163.619 52.0218 163.617 51.4351C163.614 50.8378 163.832 50.5383 164.269 50.5367L166.461 50.5286L166.454 48.6886L163.799 48.6984C163.361 48.7001 163.141 48.4022 163.139 47.8049C163.137 47.2076 163.355 46.9081 163.792 46.9065L166.448 46.8966L166.443 45.5526C166.441 45.1153 166.771 44.8954 167.432 44.8929C168.094 44.8905 168.425 45.1079 168.427 45.5453L168.432 46.8893L171.232 46.8789Z" fill="black" fill-opacity="0.85"/>
</g>
<defs>
<clipPath id="clip0_2306_6009">
<rect width="200" height="90" fill="white"/>
</clipPath>
</defs>
</svg>
