<svg width="24" height="24" viewBox="0 0 24 24" fill="none" xmlns="http://www.w3.org/2000/svg">
<path fill-rule="evenodd" clip-rule="evenodd" d="M4.81997 3.79203C7.07094 2.16005 10.2654 2.59209 11.9672 4.78549L12.0014 4.82959L12.0356 4.78549C13.7373 2.59209 16.9318 2.16005 19.1828 3.79203C21.4536 5.43841 21.9281 8.57835 20.2102 10.7925L12.7915 20.3546C12.602 20.5987 12.3104 20.7416 12.0014 20.7416C11.6924 20.7416 11.4007 20.5987 11.2113 20.3546L3.79255 10.7925C2.0747 8.57835 2.54914 5.43841 4.81997 3.79203ZM10.387 6.01147C9.35723 4.68421 7.38495 4.40273 5.99392 5.41125C4.62274 6.40536 4.35908 8.26002 5.37273 9.56652L12.0014 18.1102L18.63 9.56652C19.6437 8.26002 19.38 6.40536 18.0088 5.41125C16.6178 4.40273 14.6455 4.68421 13.6158 6.01147L12.7915 7.07392C12.602 7.31807 12.3104 7.46093 12.0014 7.46093C11.6924 7.46093 11.4007 7.31807 11.2113 7.07392L10.387 6.01147Z" fill="black"/>
</svg>
