<svg width="200" height="90" viewBox="0 0 200 90" fill="none" xmlns="http://www.w3.org/2000/svg">
<g clip-path="url(#clip0_2306_6097)">
<rect width="200" height="90" fill="#BDE3FF"/>
<path fill-rule="evenodd" clip-rule="evenodd" d="M-6.18027 85.5257C-5.5206 81.3514 -9.94765 77.2571 -7.65473 73.2393C-4.94813 68.4966 -1.65241 61.9915 7.77154 61.0783C17.9972 60.0873 23.5998 68.8258 33.9785 69.2048C45.8176 69.6371 56.5881 60.196 66.8872 63.2371C76.2425 65.9996 70.121 74.0119 68.9752 79.5387C68.1676 83.4341 61.5364 86.4306 61.2669 90.3457C60.8502 96.3973 75.7689 103.853 67.0229 107.895C58.3557 111.9 45.7383 103.802 34.2527 102.83C27.3162 102.243 20.5655 103.925 13.6182 103.373C4.65786 102.66 -7.2514 103.227 -11.7526 99.1698C-16.3208 95.0519 -6.92748 90.2539 -6.18027 85.5257Z" fill="#005EA5"/>
<path fill-rule="evenodd" clip-rule="evenodd" d="M28.4743 10.5302C32.6486 10.8717 36.7429 8.58004 40.7607 9.76696C45.5034 11.168 52.0085 12.874 52.9217 17.7523C53.9127 23.0456 45.1742 25.9458 44.7952 31.3183C44.3629 37.4467 53.804 43.0221 50.7629 48.3534C48.0004 53.1961 39.9881 50.0274 34.4613 49.4342C30.5659 49.0162 27.5694 45.5836 23.6543 45.444C17.6027 45.2284 10.1469 52.9509 6.10508 48.4236C2.09968 43.9371 10.1975 37.4057 11.1701 31.4602C11.7575 27.8695 10.0747 24.3751 10.6274 20.7788C11.3402 16.1405 10.7727 9.97575 14.8302 7.64571C18.9481 5.281 23.7461 10.1434 28.4743 10.5302Z" fill="#2382C9"/>
<path fill-rule="evenodd" clip-rule="evenodd" d="M173.474 4.53021C177.649 4.87169 181.743 2.58004 185.761 3.76696C190.503 5.16803 197.008 6.87405 197.922 11.7523C198.913 17.0456 190.174 19.9458 189.795 25.3183C189.363 31.4467 198.804 37.0221 195.763 42.3534C193 47.1961 184.988 44.0274 179.461 43.4342C175.566 43.0162 172.569 39.5836 168.654 39.444C162.603 39.2284 155.147 46.9509 151.105 42.4236C147.1 37.9371 155.198 31.4057 156.17 25.4602C156.757 21.8695 155.075 18.3751 155.627 14.7788C156.34 10.1405 155.773 3.97575 159.83 1.64571C163.948 -0.719004 168.746 4.14342 173.474 4.53021Z" fill="#69BAF5"/>
<path fill-rule="evenodd" clip-rule="evenodd" d="M117.063 7.20494C131.49 7.9797 144.155 11.9054 154.996 17.5775C166.733 23.7188 176.896 30.8598 179.688 39.9711C183.097 51.0949 184.354 63.7453 171.749 72.2549C158.691 81.0707 136.857 81.4742 117.063 82.2497C95.2362 83.1048 71.8992 84.7511 54.6033 76.8446C35.6156 68.1646 20.8565 53.9771 24.5773 39.9711C28.0889 26.7526 52.1053 19.9805 71.5388 13.0955C85.3864 8.18958 100.98 6.34119 117.063 7.20494Z" fill="#C9F4FF"/>
<path d="M177.967 51.2804L196.726 84.9582L159.338 85.0303L177.967 51.2804Z" fill="#228CDA"/>
<path d="M173.373 78.4648H182.74" stroke="black" stroke-width="2" stroke-linecap="round"/>
<ellipse cx="171.472" cy="68.8528" rx="4.64254" ry="4.79533" transform="rotate(-0.110477 171.472 68.8528)" stroke="#FA8F21" stroke-width="2"/>
<ellipse cx="184.669" cy="68.8118" rx="4.64254" ry="4.79533" transform="rotate(-0.110477 184.669 68.8118)" stroke="#FA8F21" stroke-width="2"/>
<path d="M175.55 68.4723C175.55 68.4723 176.816 68.054 177.654 68.0337C178.594 68.011 180.025 68.4637 180.025 68.4637" stroke="#FA8F21" stroke-width="2"/>
<ellipse cx="171.471" cy="68.8518" rx="1.89842" ry="1.9609" transform="rotate(-0.110477 171.471 68.8518)" fill="black"/>
<ellipse cx="184.67" cy="68.8264" rx="1.89842" ry="1.9609" transform="rotate(-0.110477 184.67 68.8264)" fill="black"/>
<path d="M87.1946 32.6122L83.7646 32.6249C84.2019 33.6833 84.8053 34.6044 85.5749 35.3882C86.2787 34.6056 86.8186 33.6803 87.1946 32.6122ZM89.6503 31.4431C89.9236 31.4421 90.061 31.6349 90.0624 32.0216C90.0639 32.4082 89.9279 32.6021 89.6546 32.6031L88.5346 32.6072C88.0398 34.0224 87.3576 35.2183 86.4879 36.1948C87.5242 36.9977 88.6395 37.5369 89.8339 37.8125C90.1275 37.878 90.1416 38.0946 89.8763 38.4623C89.611 38.8366 89.3349 38.981 89.0479 38.8954C87.7934 38.5734 86.7014 38.0274 85.7718 37.2575C85.6314 37.138 85.4914 37.1352 85.3518 37.2491C84.4147 38.0259 83.2801 38.6001 81.9482 38.9717C81.6618 39.0661 81.398 38.9271 81.1566 38.5546C80.9152 38.1888 80.9411 37.9654 81.2341 37.8843C82.5263 37.5595 83.6742 37.0053 84.678 36.2216C83.8078 35.2714 83.0933 34.0741 82.5346 32.6295L81.3747 32.6338C81.1013 32.6348 80.9639 32.442 80.9625 32.0553C80.9611 31.6686 81.097 31.4748 81.3704 31.4738L85.1803 31.4597L84.7665 30.4312C84.6656 30.1782 84.8249 29.991 85.2444 29.8694C85.6706 29.7412 85.9375 29.8002 86.0451 30.0464L86.3677 30.7352C86.5021 31.0348 86.4128 31.2351 86.0999 31.3362L85.7103 31.4577L89.6503 31.4431ZM96.1379 36.1791L97.9179 36.1725C97.2078 35.2418 96.6104 34.1473 96.1257 32.8891L96.1379 36.1791ZM93.0379 36.1906L94.8779 36.1837L94.7957 32.894C94.3536 34.129 93.7677 35.2279 93.0379 36.1906ZM99.8935 32.2751C99.8949 32.6751 99.759 32.8756 99.4857 32.8766L97.3757 32.8845C97.7051 33.6299 98.1144 34.3217 98.6034 34.9599C99.0924 35.5981 99.5174 36.0365 99.8783 36.2752C100.092 36.4211 100.043 36.6679 99.731 37.0158C99.419 37.3636 99.1659 37.4445 98.9719 37.2586L98.1991 36.5114L98.2006 36.9014C98.2018 37.2214 98.0424 37.382 97.7224 37.3832L96.1424 37.3891L96.1471 38.6691C96.1481 38.9424 95.9386 39.0798 95.5187 39.0814C95.0987 39.0829 94.8882 38.9471 94.8871 38.6737L94.8824 37.3937L93.2624 37.3997C92.9424 37.4009 92.7818 37.2415 92.7806 36.9215L92.7791 36.5115C92.4539 36.9061 92.1849 37.1837 91.9722 37.3445C91.7595 37.5253 91.5059 37.4563 91.2114 37.1373C90.9235 36.8117 90.8793 36.5719 91.0787 36.4178C91.4445 36.1765 91.8695 35.7249 92.3537 35.0631C92.8446 34.3946 93.2486 33.6731 93.5657 32.8986L91.5257 32.9061C91.2524 32.9072 91.115 32.7077 91.1135 32.3077C91.112 31.901 91.2479 31.6972 91.5213 31.6962L94.8612 31.6838L94.8556 30.1638C94.8546 29.8905 95.0641 29.753 95.4841 29.7515C95.9041 29.7499 96.1146 29.8858 96.1156 30.1591L96.1212 31.6791L99.4812 31.6667C99.7545 31.6656 99.8919 31.8685 99.8935 32.2751ZM108.347 33.3338C108.347 33.1605 108.26 33.0741 108.086 33.0748L106.446 33.0808C106.824 34.2528 107.461 35.0838 108.356 35.5738L108.347 33.3338ZM102.967 33.0937C102.793 33.0944 102.707 33.1814 102.707 33.3547L102.716 35.7047C103.668 35.1745 104.311 34.3021 104.646 33.0875L102.967 33.0937ZM109.082 31.9111C109.402 31.9099 109.563 32.0693 109.564 32.3893L109.583 37.6392C109.585 37.9726 109.546 38.2261 109.466 38.3997C109.387 38.58 109.221 38.7273 108.968 38.8415C108.715 38.9625 108.292 39.0207 107.698 39.0162C107.305 39.0244 107.041 38.8287 106.906 38.4292C106.778 38.0296 106.827 37.8328 107.054 37.8386C107.194 37.8448 107.551 37.8468 108.124 37.8447C108.284 37.8441 108.364 37.7704 108.363 37.6238L108.357 35.8338C108.078 36.1415 107.938 36.3087 107.939 36.3353C107.773 36.5826 107.556 36.6201 107.289 36.4477C106.567 36.0437 105.981 35.2292 105.53 34.0042C105.081 35.2859 104.458 36.1316 103.659 36.5412C103.393 36.7022 103.166 36.6597 102.979 36.4137L102.718 36.0747L102.727 38.6447C102.728 38.918 102.525 39.0554 102.119 39.0569C101.719 39.0584 101.518 38.9225 101.517 38.6492L101.494 32.4192C101.493 32.0992 101.652 31.9386 101.972 31.9374L105.032 31.9261L104.98 31.4163C104.966 31.243 104.873 31.1567 104.699 31.1573L103.679 31.1611C103.406 31.1621 103.269 30.9893 103.267 30.6426C103.266 30.2959 103.402 30.1221 103.675 30.1211L105.515 30.1143C105.829 30.1131 105.999 30.2691 106.027 30.5824L106.162 31.9219L109.082 31.9111ZM112.551 31.6182C112.378 31.6188 112.291 31.7058 112.292 31.8792L112.294 32.3092C112.295 32.5825 112.095 32.7199 111.695 32.7214C111.302 32.7228 111.105 32.5869 111.104 32.3136L111.099 30.9936C111.098 30.6736 111.257 30.513 111.577 30.5118L114.887 30.4995L114.756 30.21C114.642 29.9638 114.801 29.7932 115.234 29.6982C115.667 29.6033 115.941 29.679 116.055 29.9252L116.317 30.4942L119.407 30.4828C119.727 30.4816 119.888 30.641 119.889 30.961L119.894 32.281C119.895 32.5543 119.685 32.6918 119.265 32.6933C118.845 32.6949 118.635 32.559 118.634 32.2857L118.632 31.8557C118.631 31.6823 118.544 31.596 118.371 31.5966L112.551 31.6182ZM116.455 32.7437C116.235 32.5979 116.261 32.4078 116.533 32.1734C116.812 31.9391 117.062 31.8915 117.283 32.0307C117.53 32.1631 117.901 32.405 118.395 32.7566C118.897 33.108 119.194 33.3403 119.288 33.4532C119.462 33.6059 119.399 33.8128 119.1 34.0739C118.801 34.3351 118.568 34.3893 118.401 34.2365C118.314 34.1235 118.026 33.8813 117.538 33.5097C117.057 33.1382 116.696 32.8829 116.455 32.7437ZM113.373 32.1152C113.539 31.9145 113.815 31.8802 114.203 32.0121C114.59 32.1373 114.704 32.3069 114.544 32.5208C114.379 32.7614 114.057 33.0893 113.578 33.5044C113.106 33.9195 112.737 34.1975 112.471 34.3385C112.252 34.466 112.001 34.3736 111.72 34.0613C111.446 33.749 111.428 33.5357 111.668 33.4215C111.881 33.334 112.197 33.1295 112.616 32.808C113.034 32.4931 113.287 32.2621 113.373 32.1152ZM113.936 35.7631L117.276 35.7507C116.615 35.3065 116.093 34.8851 115.712 34.4865C115.598 34.3669 115.485 34.3707 115.372 34.4978C115.04 34.8857 114.561 35.3074 113.936 35.7631ZM113.744 37.6838C113.744 37.8572 113.831 37.9435 114.005 37.9429L117.005 37.9317C117.178 37.9311 117.264 37.8441 117.264 37.6708L117.26 36.8308L113.74 36.8438L113.744 37.6838ZM115.057 33.0989C115.202 32.8717 115.452 32.8341 115.806 32.9861C116.16 33.1382 116.284 33.2977 116.178 33.4648C117.155 34.4812 118.388 35.2599 119.877 35.8011C120.177 35.9066 120.201 36.1299 119.949 36.4708C119.697 36.8118 119.448 36.9293 119.2 36.8236C119.1 36.7773 118.873 36.6615 118.519 36.4761L118.527 38.5161C118.528 38.8361 118.368 38.9967 118.048 38.9979L113.029 39.0165C112.709 39.0177 112.548 38.8583 112.547 38.5383L112.54 36.6283C112.18 36.8096 111.941 36.9238 111.821 36.9709C111.568 37.0786 111.311 36.9695 111.05 36.6438C110.795 36.3114 110.801 36.0981 111.067 36.0037C111.8 35.7544 112.568 35.3415 113.373 34.7652C114.191 34.1888 114.752 33.6334 115.057 33.0989Z" fill="#2382C9"/>
<path d="M75.0195 45.8915C75.4568 45.8899 75.6766 46.1824 75.6787 46.7691C75.6916 47.3557 75.4793 47.6498 75.042 47.6514L68.3061 47.6764C67.8687 47.678 67.649 47.3855 67.6468 46.7988C67.6446 46.2122 67.8622 45.918 68.2995 45.9164L75.0195 45.8915ZM72.9966 52.667C73.2739 52.666 73.4121 52.5268 73.411 52.2495L73.4062 50.9535C73.4052 50.6762 73.266 50.538 72.9887 50.539L70.2847 50.5491C70.0074 50.5501 69.8692 50.6893 69.8703 50.9666L69.8751 52.2626C69.8761 52.5399 70.0153 52.6781 70.2926 52.6771L72.9966 52.667ZM74.4865 48.8695C74.9985 48.8676 75.2555 49.1226 75.2574 49.6346L75.2719 53.5546C75.2738 54.0666 75.0187 54.3236 74.5067 54.3254L68.8908 54.3463C68.3788 54.3482 68.1218 54.0931 68.1199 53.5811L68.1054 49.6611C68.1035 49.1491 68.3586 48.8922 68.8706 48.8903L74.4865 48.8695ZM70.8206 56.9791C70.9501 57.3947 70.7325 57.6835 70.1678 57.8456C69.603 58.0076 69.2824 57.8488 69.206 57.3691C69.1723 56.8999 69.0048 56.3405 68.7038 55.691C68.5314 55.2436 68.7117 54.9496 69.2445 54.809C69.7773 54.6576 70.1084 54.7898 70.238 55.2053L70.8206 56.9791ZM65.3347 53.2394L65.2416 54.0398C65.4666 54.295 65.9971 54.965 66.8331 56.0499C67.2618 56.5923 67.2744 57.1309 66.8711 57.6658C66.4677 58.1899 66.1747 58.2977 65.9923 57.989C65.8204 57.659 65.4127 57.0152 64.7691 56.0576C64.2527 57.7448 63.5798 58.9473 62.7505 59.6651C62.4529 59.9648 62.09 59.9022 61.6618 59.4771C61.2335 59.052 61.1628 58.6949 61.4498 58.4059C62.6193 57.3775 63.3383 55.6575 63.6067 53.2458L61.7347 53.2528C61.2974 53.2544 61.0776 52.9725 61.0755 52.4072C61.0734 51.8419 61.2911 51.5584 61.7284 51.5568L63.7124 51.5494L63.703 49.0215L63.239 49.0232C62.9544 49.9416 62.7485 50.497 62.6212 50.6895C62.473 51.01 62.1584 51.0059 61.6771 50.677C61.1959 50.3374 61.0294 50.018 61.1776 49.7188C61.644 48.9278 61.9543 47.7533 62.1085 46.1953C62.1916 45.5977 62.5214 45.3511 63.0978 45.4557C63.6742 45.5602 63.9258 45.8259 63.8528 46.2529L63.6647 47.3256L66.5447 47.3149C66.982 47.3133 67.2017 47.5951 67.2038 48.1605C67.2059 48.7258 66.9883 49.0093 66.551 49.0109L65.447 49.015L65.4564 51.543L66.6724 51.5385C67.1097 51.5368 67.3294 51.8187 67.3315 52.384C67.3336 52.9494 67.116 53.2328 66.6786 53.2345L65.3347 53.2394ZM73.6727 58.1046L75.3207 58.0985C75.7581 58.0968 75.9778 58.3894 75.98 58.976C75.9822 59.5627 75.7646 59.8568 75.3273 59.8584L67.7273 59.8866C67.29 59.8882 67.0702 59.5957 67.0681 59.0091C67.0659 58.4224 67.2835 58.1282 67.7208 58.1266L71.8968 58.1111C72.3619 56.9787 72.6835 55.9802 72.8617 55.1156C72.9773 54.6671 73.3448 54.5111 73.9639 54.6475C74.5937 54.7731 74.803 55.1244 74.5918 55.7011C74.2224 56.7479 73.916 57.549 73.6727 58.1046ZM82.4833 47.9918C82.9207 47.9902 83.1403 48.2507 83.1422 48.7734C83.1442 49.2961 82.9265 49.5582 82.4891 49.5598L77.3852 49.5787C76.9478 49.5804 76.7282 49.3198 76.7263 48.7972C76.7243 48.2745 76.942 48.0124 77.3794 48.0108L79.6033 48.0025L78.7977 46.4855C78.6043 46.1022 78.7631 45.7923 79.2743 45.5557C79.7854 45.3085 80.1429 45.3765 80.347 45.7597L80.8947 46.7337C81.1523 47.1808 81.0523 47.5278 80.5945 47.7748L80.1793 48.0004L82.4833 47.9918ZM81.9159 50.314C82.3533 50.3123 82.5729 50.5622 82.5747 51.0635C82.5765 51.5542 82.3588 51.8003 81.9214 51.8019L78.1295 51.816C77.6921 51.8176 77.4726 51.5731 77.4707 51.0824C77.4689 50.5811 77.6866 50.3296 78.124 50.328L81.9159 50.314ZM78.1377 54.04C77.7004 54.0416 77.4808 53.7971 77.479 53.3064C77.4771 52.8051 77.6949 52.5536 78.1322 52.552L81.9242 52.5379C82.3615 52.5363 82.5811 52.7862 82.583 53.2875C82.5848 53.7782 82.367 54.0243 81.9297 54.0259L78.1377 54.04ZM80.9961 56.8294C80.995 56.5521 80.8559 56.4139 80.5785 56.415L79.5385 56.4188C79.2612 56.4198 79.1231 56.559 79.1241 56.8364L79.1279 57.8763C79.129 58.1537 79.2681 58.2918 79.5455 58.2908L80.5855 58.2869C80.8628 58.2859 81.001 58.1467 80.9999 57.8694L80.9961 56.8294ZM81.9167 54.826C82.4286 54.8241 82.6856 55.0791 82.6875 55.5911L82.7004 59.0791C82.7023 59.5911 82.4473 59.8481 81.9353 59.85L78.2393 59.8637C77.7273 59.8655 77.4704 59.6105 77.4685 59.0985L77.4555 55.6105C77.4536 55.0985 77.7087 54.8416 78.2207 54.8397L81.9167 54.826ZM89.4435 56.6541C89.4425 56.3768 89.3033 56.2386 89.0259 56.2396L85.986 56.2509C85.7086 56.2519 85.5705 56.3911 85.5715 56.6685L85.5767 58.0764C85.5778 58.3538 85.7169 58.4919 85.9943 58.4909L89.0342 58.4796C89.3116 58.4786 89.4497 58.3394 89.4487 58.0621L89.4435 56.6541ZM84.5125 60.1764C84.0005 60.1783 83.7436 59.9232 83.7417 59.4113L83.7265 55.3313C83.7246 54.8193 83.9797 54.5623 84.4917 54.5604L90.6036 54.5378C91.1156 54.5359 91.3726 54.7909 91.3745 55.3029L91.3896 59.3829C91.3915 59.8949 91.1365 60.1518 90.6245 60.1537L84.5125 60.1764ZM89.0055 50.7197C89.0045 50.4424 88.8653 50.3042 88.5879 50.3052L87.116 50.3107L86.7547 52.12L89.0106 52.1117L89.0055 50.7197ZM90.8506 52.1049L91.6026 52.1021C92.04 52.1004 92.2596 52.3716 92.2616 52.9156C92.2637 53.4596 92.046 53.7324 91.6087 53.7341L83.5447 53.7639C83.1074 53.7656 82.8877 53.4944 82.8857 52.9504C82.8837 52.4064 83.1013 52.1336 83.5387 52.132L84.8507 52.1271L85.196 50.3178L84.364 50.3209C83.9266 50.3225 83.707 50.0567 83.705 49.5233C83.703 48.99 83.9207 48.7225 84.358 48.7209L85.478 48.7167L85.6495 47.4841L83.9375 47.4904C83.5001 47.4921 83.2805 47.2209 83.2785 46.6769C83.2764 46.1329 83.4941 45.8601 83.9314 45.8585L91.1474 45.8317C91.5847 45.8301 91.8044 46.1013 91.8064 46.6453C91.8084 47.1893 91.5908 47.4621 91.1534 47.4637L87.6015 47.4769L87.382 48.7097L90.07 48.6997C90.582 48.6978 90.8389 48.9529 90.8408 49.4649L90.8506 52.1049ZM98.0171 51.6783L98.0181 51.9503C98.7033 52.6304 99.3513 53.348 99.9621 54.1031C100.294 54.4965 100.28 54.9606 99.9193 55.4953C99.5585 56.0193 99.2602 56.1004 99.0242 55.7386L98.0264 54.1903L98.0459 59.4382C98.0475 59.8756 97.7283 60.0954 97.0883 60.0978C96.4483 60.1002 96.1275 59.8827 96.1259 59.4454L96.1072 54.4054C95.3988 56.0934 94.7683 57.237 94.2159 57.8364C93.9929 58.1039 93.7203 57.9396 93.3981 57.3434C93.0758 56.7473 93.0422 56.3048 93.2971 56.0158C94.1578 55.1166 94.9365 53.6737 95.6331 51.6871L93.9051 51.6935C93.4678 51.6951 93.248 51.4026 93.2459 50.816C93.2437 50.2293 93.4613 49.9352 93.8986 49.9335L96.0906 49.9254L96.0829 47.8454C95.3154 47.9763 94.7663 48.0636 94.4358 48.1075C94.0094 48.1625 93.7099 47.9449 93.5374 47.4549C93.3649 46.9542 93.5398 46.6655 94.0622 46.5889C95.9919 46.3151 97.4946 45.9629 98.5703 45.5322C98.9538 45.3814 99.3491 45.556 99.7563 46.0558C100.174 46.5449 100.175 46.8489 99.7596 46.9678L98.0015 47.4703L98.0106 49.9183L99.6746 49.9121C100.112 49.9105 100.332 50.203 100.334 50.7897C100.336 51.3764 100.118 51.6705 99.6811 51.6721L98.0171 51.6783ZM102.64 55.8212C102.642 56.0985 102.781 56.2367 103.058 56.2356L104.786 56.2292C105.063 56.2282 105.201 56.089 105.2 55.8117L105.175 48.8837C105.174 48.6064 105.035 48.4683 104.757 48.4693L103.029 48.4757C102.752 48.4767 102.614 48.6159 102.615 48.8932L102.64 55.8212ZM100.737 47.4282C100.735 46.9162 100.991 46.6592 101.503 46.6573L106.366 46.6393C106.878 46.6374 107.135 46.8925 107.137 47.4045L107.174 57.2764C107.176 57.7884 106.921 58.0453 106.409 58.0472L101.545 58.0653C101.033 58.0672 100.776 57.8121 100.774 57.3001L100.737 47.4282ZM114.483 47.8732C114.92 47.8716 115.14 48.1321 115.142 48.6548C115.144 49.1775 114.926 49.4396 114.489 49.4412L109.385 49.4601C108.948 49.4618 108.728 49.2012 108.726 48.6786C108.724 48.1559 108.942 47.8938 109.379 47.8921L111.603 47.8839L110.797 46.3669C110.604 45.9836 110.763 45.6737 111.274 45.4371C111.785 45.1899 112.143 45.2579 112.347 45.6411L112.894 46.6151C113.152 47.0622 113.052 47.4092 112.594 47.6562L112.179 47.8818L114.483 47.8732ZM113.916 50.1953C114.353 50.1937 114.573 50.4436 114.574 50.9449C114.576 51.4356 114.359 51.6817 113.921 51.6833L110.129 51.6974C109.692 51.699 109.472 51.4545 109.471 50.9638C109.469 50.4625 109.686 50.211 110.124 50.2094L113.916 50.1953ZM110.137 53.9214C109.7 53.923 109.481 53.6785 109.479 53.1878C109.477 52.6865 109.695 52.435 110.132 52.4334L113.924 52.4193C114.361 52.4177 114.581 52.6676 114.583 53.1689C114.585 53.6596 114.367 53.9057 113.929 53.9073L110.137 53.9214ZM112.996 56.7108C112.995 56.4335 112.856 56.2953 112.578 56.2963L111.538 56.3002C111.261 56.3012 111.123 56.4404 111.124 56.7177L111.128 57.7577C111.129 58.0351 111.268 58.1732 111.545 58.1722L112.585 58.1683C112.863 58.1673 113.001 58.0281 113 57.7508L112.996 56.7108ZM113.916 54.7074C114.428 54.7055 114.685 54.9605 114.687 55.4725L114.7 58.9605C114.702 59.4725 114.447 59.7294 113.935 59.7313L110.239 59.745C109.727 59.7469 109.47 59.4919 109.468 58.9799L109.455 55.4919C109.453 54.9799 109.708 54.723 110.22 54.7211L113.916 54.7074ZM121.443 56.5355C121.442 56.2582 121.303 56.12 121.026 56.121L117.986 56.1323C117.708 56.1333 117.57 56.2725 117.571 56.5498L117.577 57.9578C117.578 58.2352 117.717 58.3733 117.994 58.3723L121.034 58.361C121.311 58.36 121.45 58.2208 121.448 57.9435L121.443 56.5355ZM116.512 60.0578C116 60.0597 115.743 59.8046 115.741 59.2926L115.726 55.2127C115.724 54.7007 115.979 54.4437 116.491 54.4418L122.603 54.4192C123.115 54.4173 123.372 54.6723 123.374 55.1843L123.389 59.2643C123.391 59.7763 123.136 60.0332 122.624 60.0351L116.512 60.0578ZM121.005 50.6011C121.004 50.3237 120.865 50.1856 120.588 50.1866L119.116 50.1921L118.754 52.0014L121.01 51.9931L121.005 50.6011ZM122.85 51.9862L123.602 51.9835C124.04 51.9818 124.259 52.253 124.261 52.797C124.263 53.341 124.046 53.6138 123.608 53.6154L115.545 53.6453C115.107 53.647 114.888 53.3758 114.885 52.8318C114.883 52.2878 115.101 52.015 115.538 52.0133L116.85 52.0085L117.196 50.1992L116.364 50.2023C115.926 50.2039 115.707 49.938 115.705 49.4047C115.703 48.8714 115.92 48.6039 116.358 48.6023L117.478 48.5981L117.649 47.3655L115.937 47.3718C115.5 47.3735 115.28 47.1023 115.278 46.5583C115.276 46.0143 115.494 45.7415 115.931 45.7398L123.147 45.7131C123.584 45.7115 123.804 45.9827 123.806 46.5267C123.808 47.0707 123.591 47.3435 123.153 47.3451L119.601 47.3583L119.382 48.5911L122.07 48.5811C122.582 48.5792 122.839 48.8343 122.841 49.3463L122.85 51.9862ZM137.04 55.5337L135.376 55.5398C135.537 55.9552 135.704 56.296 135.875 56.562C136.322 56.251 136.71 55.9082 137.04 55.5337ZM130.331 54.1665L133.099 54.1563L132.917 52.7329C132.862 52.2958 133.139 52.0761 133.747 52.0739C134.355 52.0716 134.686 52.2837 134.741 52.7102L134.939 54.1495L137.578 54.1397L136.088 53.3452C135.521 53.0486 135.456 52.6702 135.891 52.2099L136.226 51.8567L131.49 51.8742L131.875 52.2568C132.315 52.7138 132.22 52.9969 131.591 53.1059L130.327 53.3345L130.331 54.1665ZM137.328 55.5326L137.824 55.7068C138.422 55.9072 138.525 56.2322 138.132 56.6816C138.079 56.8312 137.654 57.1901 136.856 57.7584C137.252 58.0662 137.652 58.2194 138.058 58.2179C138.239 58.2172 138.367 58.1368 138.441 57.9765L138.504 57.6723C138.577 57.2453 138.843 57.1537 139.303 57.3973C139.773 57.6409 139.95 58.0296 139.835 58.5633C139.825 58.894 139.672 59.2039 139.374 59.493C139.087 59.7928 138.619 59.9439 137.968 59.9463C136.944 59.9501 136.031 59.5428 135.227 58.7244C134.227 59.2295 133.359 59.5793 132.623 59.7741C132.197 59.9037 131.828 59.7184 131.517 59.2182C131.206 58.718 131.274 58.4191 131.722 58.3214C132.468 58.1586 133.315 57.8675 134.263 57.448L133.456 55.547L130.336 55.5585L130.338 56.1665L132.082 56.0641C132.519 56.0411 132.733 56.243 132.724 56.6697C132.725 57.0963 132.508 57.3265 132.07 57.3601L130.343 57.5105L130.346 58.3265C130.348 58.7532 130.29 59.0681 130.173 59.2712C130.068 59.4849 129.828 59.6564 129.455 59.7858C129.093 59.9258 128.571 59.9918 127.888 59.9836C127.269 59.9966 126.869 59.7581 126.685 59.2681C126.502 58.7888 126.645 58.5589 127.115 58.5785C127.318 58.5991 127.686 58.5924 128.219 58.5584C128.432 58.5576 128.538 58.4665 128.538 58.2852L128.535 57.6452L126.12 57.8462C125.683 57.8691 125.437 57.6407 125.382 57.1609C125.337 56.6704 125.534 56.419 125.971 56.4067L128.53 56.2692L128.528 55.5652L126.016 55.5745C125.578 55.5762 125.359 55.3476 125.357 54.889C125.355 54.4196 125.573 54.1842 126.011 54.1825L128.523 54.1732L128.52 53.5332C127.678 53.611 127.059 53.656 126.665 53.6681C126.238 53.6804 125.955 53.5001 125.815 53.1273C125.685 52.7437 125.892 52.535 126.436 52.501C128.345 52.3872 129.95 52.1786 131.25 51.8751L126.034 51.8944C125.597 51.8961 125.377 51.6569 125.375 51.1769C125.374 50.6969 125.591 50.4561 126.029 50.4545L131.485 50.4342L131.483 49.8422L127.595 49.8566C127.157 49.8583 126.938 49.6404 126.936 49.2031C126.934 48.7658 127.152 48.5463 127.59 48.5447L131.478 48.5302L131.476 47.9542L126.74 47.9718C126.302 47.9734 126.083 47.7396 126.081 47.2702C126.079 46.8009 126.297 46.5654 126.734 46.5638L128.91 46.5557L128.637 46.1408C128.411 45.7789 128.576 45.5116 129.13 45.3389C129.684 45.1555 130.105 45.2393 130.395 45.5902C130.544 45.6963 130.727 46.0157 130.942 46.5482L134.158 46.5363L134.587 45.5907C134.767 45.1954 135.209 45.0657 135.913 45.2018C136.618 45.3272 136.843 45.5663 136.588 45.9193L136.142 46.5289L138.254 46.5211C138.692 46.5195 138.911 46.7533 138.913 47.2227C138.915 47.692 138.697 47.9275 138.259 47.9291L133.428 47.947L133.43 48.523L137.414 48.5082C137.851 48.5066 138.07 48.7245 138.072 49.1618C138.074 49.5991 137.856 49.8186 137.418 49.8202L133.435 49.835L133.437 50.427L138.973 50.4065C139.41 50.4049 139.63 50.644 139.631 51.124C139.633 51.604 139.415 51.8448 138.978 51.8465L136.466 51.8558C137.513 52.2572 138.165 52.5748 138.422 52.8085C138.807 53.0631 138.829 53.383 138.489 53.7683L138.154 54.1375L139.066 54.1342C139.504 54.1325 139.723 54.3664 139.725 54.8357C139.727 55.2944 139.509 55.5245 139.072 55.5261L137.328 55.5326Z" fill="black" fill-opacity="0.85"/>
</g>
<defs>
<clipPath id="clip0_2306_6097">
<rect width="200" height="90" fill="white"/>
</clipPath>
</defs>
</svg>
