<svg width="200" height="90" viewBox="0 0 200 90" fill="none" xmlns="http://www.w3.org/2000/svg">
<g clip-path="url(#clip0_2308_6841)">
<rect width="200" height="90" fill="#FEB79D"/>
<path fill-rule="evenodd" clip-rule="evenodd" d="M-6.18027 85.5257C-5.5206 81.3514 -9.94765 77.2571 -7.65473 73.2393C-4.94813 68.4966 -1.65241 61.9915 7.77154 61.0783C17.9972 60.0873 23.5998 68.8258 33.9785 69.2048C45.8176 69.6371 56.5881 60.196 66.8872 63.2371C76.2425 65.9996 70.121 74.0119 68.9752 79.5387C68.1676 83.4341 61.5364 86.4306 61.2669 90.3457C60.8502 96.3973 75.7689 103.853 67.0229 107.895C58.3557 111.9 45.7383 103.802 34.2527 102.83C27.3162 102.243 20.5655 103.925 13.6182 103.373C4.65786 102.66 -7.2514 103.227 -11.7526 99.1698C-16.3208 95.0519 -6.92748 90.2539 -6.18027 85.5257Z" fill="#FE585B"/>
<path fill-rule="evenodd" clip-rule="evenodd" d="M28.4743 10.5302C32.6486 10.8717 36.7429 8.58004 40.7607 9.76696C45.5034 11.168 52.0085 12.874 52.9217 17.7523C53.9127 23.0456 45.1742 25.9458 44.7952 31.3183C44.3629 37.4467 53.804 43.0221 50.7629 48.3534C48.0004 53.1961 39.9881 50.0274 34.4613 49.4342C30.5659 49.0162 27.5694 45.5836 23.6543 45.444C17.6027 45.2284 10.1469 52.9509 6.10508 48.4236C2.09968 43.9371 10.1975 37.4057 11.1701 31.4602C11.7575 27.8695 10.0747 24.3751 10.6274 20.7788C11.3402 16.1405 10.7727 9.97575 14.8302 7.64571C18.9481 5.281 23.7461 10.1434 28.4743 10.5302Z" fill="#FC7443"/>
<path fill-rule="evenodd" clip-rule="evenodd" d="M173.474 4.53021C177.649 4.87169 181.743 2.58004 185.761 3.76696C190.503 5.16803 197.008 6.87405 197.922 11.7523C198.913 17.0456 190.174 19.9458 189.795 25.3183C189.363 31.4467 198.804 37.0221 195.763 42.3534C193 47.1961 184.988 44.0274 179.461 43.4342C175.566 43.0162 172.569 39.5836 168.654 39.444C162.603 39.2284 155.147 46.9509 151.105 42.4236C147.1 37.9371 155.198 31.4057 156.17 25.4602C156.757 21.8695 155.075 18.3751 155.627 14.7788C156.34 10.1405 155.773 3.97575 159.83 1.64571C163.948 -0.719004 168.746 4.14342 173.474 4.53021Z" fill="#FF8787"/>
<path fill-rule="evenodd" clip-rule="evenodd" d="M117.063 7.20494C131.49 7.9797 144.155 11.9054 154.996 17.5775C166.733 23.7188 176.896 30.8598 179.688 39.9711C183.097 51.0949 184.354 63.7453 171.749 72.2549C158.691 81.0707 136.857 81.4742 117.063 82.2497C95.2362 83.1048 71.8992 84.7511 54.6033 76.8446C35.6156 68.1646 20.8565 53.9771 24.5773 39.9711C28.0889 26.7526 52.1053 19.9805 71.5388 13.0955C85.3864 8.18958 100.98 6.34119 117.063 7.20494Z" fill="#FFAB7A"/>
<ellipse cx="177.989" cy="70.7269" rx="16.7876" ry="14.0511" fill="#F55A57"/>
<ellipse cx="173.713" cy="65.6395" rx="1.21537" ry="2.15126" fill="black"/>
<ellipse cx="182.288" cy="65.6395" rx="1.21537" ry="2.15126" fill="black"/>
<path d="M173.043 72.6426C173.079 74.5703 175.312 76.0917 178.031 76.0408C180.749 75.99 182.924 74.386 182.888 72.4584C182.852 70.5307 180.67 71.7806 177.952 71.8314C175.233 71.8823 173.007 70.7149 173.043 72.6426Z" fill="black"/>
<path d="M170.798 50.9035C173.679 48.6452 180.102 51.1915 180.102 55.0219C180.103 59.542 168.088 61.6232 165.803 61.9782C165.554 62.0169 165.305 62.044 165.056 62.039C163.427 62.0062 157.617 61.2375 170.798 50.9035Z" fill="#6E5232"/>
<path d="M170.798 50.9035C173.679 48.6452 180.102 51.1915 180.102 55.0219C180.103 59.542 168.088 61.6232 165.803 61.9782C165.554 62.0169 165.305 62.044 165.056 62.039C163.427 62.0062 157.617 61.2375 170.798 50.9035Z" fill="url(#paint0_radial_2308_6841)" fill-opacity="0.15"/>
<path d="M185.204 50.7629C182.323 48.5045 175.9 51.0509 175.9 54.8813C175.899 59.4014 187.914 61.4825 190.199 61.8375C190.448 61.8763 190.697 61.9034 190.946 61.8984C192.575 61.8656 198.385 61.0968 185.204 50.7629Z" fill="#6E5232"/>
<path d="M185.204 50.7629C182.323 48.5045 175.9 51.0509 175.9 54.8813C175.899 59.4014 187.914 61.4825 190.199 61.8375C190.448 61.8763 190.697 61.9034 190.946 61.8984C192.575 61.8656 198.385 61.0968 185.204 50.7629Z" fill="url(#paint1_radial_2308_6841)" fill-opacity="0.15"/>
<path d="M102.249 30.1143C102.523 30.1133 102.66 30.2928 102.661 30.6528C102.663 31.0128 102.527 31.1933 102.254 31.1943L98.6635 31.2076L97.9887 32.6001L99.0387 32.5962L99.0361 31.9062C99.0351 31.6329 99.2279 31.4955 99.6146 31.4941C100.008 31.4926 100.205 31.6285 100.206 31.9019L100.209 32.5919L101.849 32.5858C102.175 32.5846 102.336 32.7473 102.33 33.074L102.272 36.1642C102.219 36.3111 102.116 36.4281 101.963 36.5154C101.744 36.6295 101.497 36.6838 101.224 36.6781C100.871 36.6861 100.643 36.5169 100.542 36.1706C100.447 35.8243 100.537 35.6507 100.81 35.6497L101.08 35.6486C101.167 35.6483 101.21 35.6115 101.21 35.5382L101.204 33.9082C101.203 33.7348 101.116 33.6485 100.943 33.6491L100.213 33.6519L100.227 37.5718C100.228 37.8452 100.032 37.9826 99.6386 37.984C99.252 37.9854 99.0581 37.8495 99.0571 37.5762L99.0426 33.6562L98.1326 33.6596L98.1426 36.3495C98.1436 36.6229 97.9574 36.7602 97.5841 36.7616C97.2174 36.763 97.0336 36.627 97.0326 36.3537L97.0238 33.9737C96.7914 34.2479 96.6885 34.3616 96.715 34.3148C96.4294 34.5825 96.1826 34.5701 95.9749 34.2776C95.8205 34.0048 95.6833 33.8386 95.563 33.7791L95.5771 37.5791C95.5781 37.8524 95.3886 37.9898 95.0086 37.9912C94.6353 37.9926 94.4481 37.8566 94.4471 37.5832L94.4297 32.8833C94.2108 33.1708 94.0747 33.3379 94.0216 33.3848C93.8423 33.5855 93.6453 33.4829 93.4304 33.077C93.2222 32.6644 93.2045 32.3678 93.3771 32.1872C93.6561 31.9128 93.9944 31.4416 94.3919 30.7734C94.7961 30.1052 95.074 29.5442 95.2257 29.0903C95.3247 28.8299 95.5611 28.7591 95.9349 28.8777C96.3153 28.9963 96.456 29.1791 96.3569 29.4261C96.2052 29.8533 95.9372 30.4177 95.5532 31.1191L95.5626 33.6691C96.2871 33.0797 96.8974 32.2608 97.3935 31.2123L96.4735 31.2157C96.2002 31.2167 96.0629 31.0372 96.0615 30.6772C96.0602 30.3172 96.1962 30.1367 96.4695 30.1357L97.8295 30.1307L98.1354 29.0095C98.2077 28.7492 98.4374 28.6551 98.8243 28.727C99.2112 28.7922 99.3685 28.9549 99.2961 29.2152L99.0495 30.1261L102.249 30.1143ZM108.611 36.0307C108.785 36.0301 108.871 35.9431 108.871 35.7698L108.869 35.3998C108.868 35.2264 108.782 35.1401 108.608 35.1407L107.398 35.1452C107.225 35.1459 107.139 35.2329 107.139 35.4062L107.141 36.0362L108.611 36.0307ZM110.33 30.3343C110.33 30.161 110.243 30.0746 110.069 30.0753L105.849 30.0909C105.676 30.0916 105.59 30.1786 105.59 30.3519L105.593 30.9519L110.073 30.9353C110.246 30.9346 110.332 30.8477 110.332 30.6743L110.33 30.3343ZM105.596 31.9519L105.599 32.5919L111.779 32.569C112.105 32.5678 112.259 32.7872 112.241 33.2273C112.219 34.4274 112.169 35.3875 112.092 36.1078C112.014 36.8215 111.893 37.2819 111.727 37.4892C111.568 37.7031 111.335 37.834 111.028 37.8818C110.729 37.9362 110.479 37.9538 110.279 37.9346C109.925 37.9359 109.715 37.79 109.647 37.4969L109.505 36.9674L107.145 36.9762L107.146 37.1562C107.147 37.4295 106.964 37.5669 106.597 37.5682C106.23 37.5696 106.047 37.4336 106.046 37.1603L106.036 34.6903C106.035 34.3703 106.195 34.2097 106.515 34.2085L109.505 34.1974C109.818 34.1963 109.975 34.3557 109.976 34.6757L109.984 36.5957C109.984 36.769 110.071 36.8553 110.245 36.8547L110.375 36.8542C110.508 36.8604 110.618 36.8133 110.704 36.713C110.877 36.5123 110.983 35.6286 111.024 34.0618C111.036 33.7551 110.956 33.602 110.782 33.6027L105.493 33.6223C105.312 35.3896 104.957 36.6343 104.426 37.3563C104.281 37.5968 104.084 37.6075 103.836 37.3884L103.736 37.2988C103.409 37.08 103.324 36.8437 103.484 36.5897C103.842 36.1084 104.095 35.3208 104.245 34.2269C104.362 33.3865 104.418 32.4896 104.415 31.5363L104.408 29.5763C104.406 29.2563 104.562 29.0957 104.876 29.0945L111.036 29.0717C111.356 29.0705 111.516 29.2299 111.517 29.5499L111.525 31.4499C111.526 31.7699 111.366 31.9305 111.046 31.9317L105.596 31.9519Z" fill="#FE585B"/>
<path d="M79.1442 47.507C78.8669 47.508 78.7288 47.6472 78.7298 47.9245L78.734 49.0605C78.7356 49.4978 78.4218 49.7177 77.7924 49.72C77.1738 49.7223 76.8636 49.5048 76.862 49.0675L76.8525 46.4915C76.8506 45.9795 77.1056 45.7225 77.6176 45.7206L82.7856 45.7015L82.4628 44.9667C82.3014 44.5726 82.5403 44.289 83.1797 44.116C83.819 43.9323 84.2247 44.0375 84.3969 44.4315L84.9776 45.6933L89.7615 45.6756C90.2735 45.6737 90.5305 45.9288 90.5324 46.4408L90.5419 49.0167C90.5435 49.4541 90.2137 49.674 89.5524 49.6764C88.9017 49.6788 88.5755 49.4614 88.5739 49.024L88.5697 47.888C88.5687 47.6107 88.4295 47.4726 88.1522 47.4736L79.1442 47.507ZM84.7058 54.3984L84.7144 56.7024C85.2693 56.775 86.3041 56.8085 87.8188 56.8029C89.3334 56.7973 90.2934 56.7884 90.6987 56.7762C91.0186 56.7644 91.0625 57.0789 90.8302 57.7197C90.6086 58.3712 90.2791 58.6978 89.8418 58.6994L86.5138 58.7117C84.8712 58.7178 83.5211 58.5255 82.4637 58.1348C81.4169 57.744 80.5501 57.0058 79.8634 55.9204C79.3242 57.213 78.7621 58.0951 78.1772 58.5666C77.8796 58.8557 77.4687 58.7879 76.9445 58.3632C76.4309 57.9491 76.3124 57.6242 76.5888 57.3885C77.8654 56.4451 78.6165 54.7783 78.8423 52.3881C78.9254 51.7905 79.2871 51.5225 79.9274 51.5841C80.5782 51.635 80.8724 51.8526 80.8098 52.2368C80.8103 52.3755 80.732 52.8291 80.5748 53.5977C81.0166 54.7908 81.6115 55.5726 82.3595 55.9431C82.6054 56.0809 82.7278 56.0111 82.7268 55.7338L82.7082 50.7258L79.9562 50.736C79.5189 50.7376 79.2991 50.4344 79.2968 49.8264C79.2946 49.2184 79.5121 48.9136 79.9495 48.912L87.4374 48.8843C87.8747 48.8826 88.0945 49.1858 88.0968 49.7938C88.099 50.4018 87.8815 50.7066 87.4442 50.7082L84.6922 50.7184L84.6992 52.6064L88.4272 52.5926C88.8645 52.591 89.0843 52.8888 89.0865 53.4862C89.0887 54.0835 88.8711 54.383 88.4338 54.3846L84.7058 54.3984ZM97.4966 47.567C97.4943 46.9483 97.7118 46.6382 98.1491 46.6365L101.237 46.6251L100.702 44.7871C100.583 44.3715 100.822 44.0879 101.419 43.9364C102.027 43.7848 102.4 43.9114 102.541 44.3162L102.913 45.4029C103.074 45.8929 102.905 46.2082 102.404 46.3488L101.477 46.6242L105.749 46.6084C106.186 46.6067 106.406 46.9153 106.409 47.5339C106.411 48.1419 106.193 48.4467 105.756 48.4484L98.156 48.4765C97.7186 48.4781 97.4988 48.175 97.4966 47.567ZM101.137 54.1775C101.181 54.572 101.06 54.9298 100.773 55.2509C100.486 55.5613 100.071 55.7068 99.5267 55.6875L99.3493 55.3041C99.2259 53.6833 99.0123 52.1694 98.7084 50.7625C98.6214 50.2935 98.7 49.9145 98.9442 49.6256C99.1885 49.326 99.5613 49.202 100.063 49.2535L100.32 49.6685C100.754 51.5016 101.026 53.0046 101.137 54.1775ZM95.5977 44.63C95.7562 44.2241 96.1345 44.116 96.7325 44.3058C97.3305 44.4849 97.545 44.7934 97.3759 45.2314C97.1013 45.9684 96.6938 46.8286 96.1535 47.8119L96.192 58.2119C96.1937 58.6492 95.8745 58.869 95.2345 58.8714C94.5945 58.8738 94.2737 58.6563 94.272 58.219L94.2446 50.811C93.873 51.2711 93.6659 51.5172 93.6233 51.5493C93.3684 51.849 93.0691 51.6687 92.7253 51.0087C92.3815 50.3486 92.3478 49.8741 92.624 49.585C93.0704 49.146 93.617 48.392 94.2637 47.3229C94.9104 46.2539 95.355 45.3562 95.5977 44.63ZM104.265 56.4059L106.329 56.3983C106.767 56.3967 106.987 56.7052 106.989 57.3238C106.991 57.9318 106.774 58.2366 106.336 58.2383L97.6163 58.2706C97.1789 58.2722 96.9591 57.969 96.9569 57.361C96.9546 56.7424 97.1721 56.4322 97.6094 56.4306L102.521 56.4124C103.131 54.0421 103.534 51.7739 103.728 49.6079C103.78 49.149 104.137 48.9717 104.798 49.0759C105.46 49.1695 105.749 49.4564 105.665 49.9367C105.311 52.1567 104.844 54.3131 104.265 56.4059ZM112.776 53.7024C112.339 53.704 112.119 53.4275 112.117 52.8728C112.115 52.3075 112.333 52.024 112.77 52.0224L115.826 52.011C116.264 52.0094 116.483 52.2913 116.485 52.8566C116.487 53.4113 116.27 53.6894 115.832 53.691L112.776 53.7024ZM122.241 57.4113C121.804 57.4129 121.584 57.1897 121.583 56.7417C121.581 56.2831 121.777 55.877 122.17 55.5236C123.488 54.3347 124.567 53.184 125.405 52.0715C126.255 50.9591 126.678 49.9708 126.674 49.1068C126.672 48.4988 126.516 48.0301 126.205 47.7005C125.895 47.3604 125.457 47.1913 124.891 47.1934C124.187 47.196 123.655 47.422 123.294 47.8713C122.911 48.2354 122.506 48.2049 122.077 47.7798C121.649 47.3548 121.605 46.9763 121.945 46.6443C122.179 46.3555 122.583 46.066 123.158 45.7758C123.733 45.4857 124.41 45.3392 125.188 45.3363C126.308 45.3322 127.211 45.6648 127.896 46.3343C128.581 46.9931 128.926 47.8718 128.93 48.9705C128.937 50.7731 127.771 52.8254 125.433 55.1275C125.156 55.4058 125.157 55.5392 125.434 55.5275L126.954 55.4098L128.858 55.4028C129.295 55.4011 129.515 55.731 129.517 56.3923C129.52 57.0537 129.302 57.3851 128.865 57.3868L122.241 57.4113Z" fill="black" fill-opacity="0.85"/>
</g>
<defs>
<radialGradient id="paint0_radial_2308_6841" cx="0" cy="0" r="1" gradientUnits="userSpaceOnUse" gradientTransform="translate(0.560609 46.8353) rotate(65.4889) scale(3.32531 8.21233)">
<stop offset="0.33" stop-opacity="0"/>
<stop offset="0.655" stop-opacity="0.6"/>
<stop offset="1"/>
</radialGradient>
<radialGradient id="paint1_radial_2308_6841" cx="0" cy="0" r="1" gradientUnits="userSpaceOnUse" gradientTransform="translate(355.3 45.8572) rotate(114.511) scale(3.32531 8.21233)">
<stop offset="0.33" stop-opacity="0"/>
<stop offset="0.655" stop-opacity="0.6"/>
<stop offset="1"/>
</radialGradient>
<clipPath id="clip0_2308_6841">
<rect width="200" height="90" fill="white"/>
</clipPath>
</defs>
</svg>
