<svg width="200" height="90" viewBox="0 0 200 90" fill="none" xmlns="http://www.w3.org/2000/svg">
<g clip-path="url(#clip0_2306_6141)">
<rect width="200" height="90" fill="#BDE3FF"/>
<path fill-rule="evenodd" clip-rule="evenodd" d="M-6.18027 85.5257C-5.5206 81.3514 -9.94765 77.2571 -7.65473 73.2393C-4.94813 68.4966 -1.65241 61.9915 7.77154 61.0783C17.9972 60.0873 23.5998 68.8258 33.9785 69.2048C45.8176 69.6371 56.5881 60.196 66.8872 63.2371C76.2425 65.9996 70.121 74.0119 68.9752 79.5387C68.1676 83.4341 61.5364 86.4306 61.2669 90.3457C60.8502 96.3973 75.7689 103.853 67.0229 107.895C58.3557 111.9 45.7383 103.802 34.2527 102.83C27.3162 102.243 20.5655 103.925 13.6182 103.373C4.65786 102.66 -7.2514 103.227 -11.7526 99.1698C-16.3208 95.0519 -6.92748 90.2539 -6.18027 85.5257Z" fill="#005EA5"/>
<path fill-rule="evenodd" clip-rule="evenodd" d="M28.4743 10.5302C32.6486 10.8717 36.7429 8.58004 40.7607 9.76696C45.5034 11.168 52.0085 12.874 52.9217 17.7523C53.9127 23.0456 45.1742 25.9458 44.7952 31.3183C44.3629 37.4467 53.804 43.0221 50.7629 48.3534C48.0004 53.1961 39.9881 50.0274 34.4613 49.4342C30.5659 49.0162 27.5694 45.5836 23.6543 45.444C17.6027 45.2284 10.1469 52.9509 6.10508 48.4236C2.09968 43.9371 10.1975 37.4057 11.1701 31.4602C11.7575 27.8695 10.0747 24.3751 10.6274 20.7788C11.3402 16.1405 10.7727 9.97575 14.8302 7.64571C18.9481 5.281 23.7461 10.1434 28.4743 10.5302Z" fill="#2382C9"/>
<path fill-rule="evenodd" clip-rule="evenodd" d="M173.474 4.53021C177.649 4.87169 181.743 2.58004 185.761 3.76696C190.503 5.16803 197.008 6.87405 197.922 11.7523C198.913 17.0456 190.174 19.9458 189.795 25.3183C189.363 31.4467 198.804 37.0221 195.763 42.3534C193 47.1961 184.988 44.0274 179.461 43.4342C175.566 43.0162 172.569 39.5836 168.654 39.444C162.603 39.2284 155.147 46.9509 151.105 42.4236C147.1 37.9371 155.198 31.4057 156.17 25.4602C156.757 21.8695 155.075 18.3751 155.627 14.7788C156.34 10.1405 155.773 3.97575 159.83 1.64571C163.948 -0.719004 168.746 4.14342 173.474 4.53021Z" fill="#69BAF5"/>
<path fill-rule="evenodd" clip-rule="evenodd" d="M117.063 7.20494C131.49 7.9797 144.155 11.9054 154.996 17.5775C166.733 23.7188 176.896 30.8598 179.688 39.9711C183.097 51.0949 184.354 63.7453 171.749 72.2549C158.691 81.0707 136.857 81.4742 117.063 82.2497C95.2362 83.1048 71.8992 84.7511 54.6033 76.8446C35.6156 68.1646 20.8565 53.9771 24.5773 39.9711C28.0889 26.7526 52.1053 19.9805 71.5388 13.0955C85.3864 8.18958 100.98 6.34119 117.063 7.20494Z" fill="#C9F4FF"/>
<path d="M177.967 51.2804L196.726 84.9582L159.338 85.0303L177.967 51.2804Z" fill="#228CDA"/>
<path d="M173.373 78.4648H182.74" stroke="black" stroke-width="2" stroke-linecap="round"/>
<ellipse cx="171.472" cy="68.8528" rx="4.64254" ry="4.79533" transform="rotate(-0.110477 171.472 68.8528)" stroke="#FA8F21" stroke-width="2"/>
<ellipse cx="184.669" cy="68.8118" rx="4.64254" ry="4.79533" transform="rotate(-0.110477 184.669 68.8118)" stroke="#FA8F21" stroke-width="2"/>
<path d="M175.55 68.4723C175.55 68.4723 176.816 68.054 177.654 68.0337C178.594 68.011 180.025 68.4637 180.025 68.4637" stroke="#FA8F21" stroke-width="2"/>
<ellipse cx="171.471" cy="68.8518" rx="1.89842" ry="1.9609" transform="rotate(-0.110477 171.471 68.8518)" fill="black"/>
<ellipse cx="184.67" cy="68.8264" rx="1.89842" ry="1.9609" transform="rotate(-0.110477 184.67 68.8264)" fill="black"/>
<path d="M87.1946 32.6122L83.7646 32.6249C84.2019 33.6833 84.8053 34.6044 85.5749 35.3882C86.2787 34.6056 86.8186 33.6803 87.1946 32.6122ZM89.6503 31.4431C89.9236 31.4421 90.061 31.6349 90.0624 32.0216C90.0639 32.4082 89.9279 32.6021 89.6546 32.6031L88.5346 32.6072C88.0398 34.0224 87.3576 35.2183 86.4879 36.1948C87.5242 36.9977 88.6395 37.5369 89.8339 37.8125C90.1275 37.878 90.1416 38.0946 89.8763 38.4623C89.611 38.8366 89.3349 38.981 89.0479 38.8954C87.7934 38.5734 86.7014 38.0274 85.7718 37.2575C85.6314 37.138 85.4914 37.1352 85.3518 37.2491C84.4147 38.0259 83.2801 38.6001 81.9482 38.9717C81.6618 39.0661 81.398 38.9271 81.1566 38.5546C80.9152 38.1888 80.9411 37.9654 81.2341 37.8843C82.5263 37.5595 83.6742 37.0053 84.678 36.2216C83.8078 35.2714 83.0933 34.0741 82.5346 32.6295L81.3747 32.6338C81.1013 32.6348 80.9639 32.442 80.9625 32.0553C80.9611 31.6686 81.097 31.4748 81.3704 31.4738L85.1803 31.4597L84.7665 30.4312C84.6656 30.1782 84.8249 29.991 85.2444 29.8694C85.6706 29.7412 85.9375 29.8002 86.0451 30.0464L86.3677 30.7352C86.5021 31.0348 86.4128 31.2351 86.0999 31.3362L85.7103 31.4577L89.6503 31.4431ZM96.1379 36.1791L97.9179 36.1725C97.2078 35.2418 96.6104 34.1473 96.1257 32.8891L96.1379 36.1791ZM93.0379 36.1906L94.8779 36.1837L94.7957 32.894C94.3536 34.129 93.7677 35.2279 93.0379 36.1906ZM99.8935 32.2751C99.8949 32.6751 99.759 32.8756 99.4857 32.8766L97.3757 32.8845C97.7051 33.6299 98.1144 34.3217 98.6034 34.9599C99.0924 35.5981 99.5174 36.0365 99.8783 36.2752C100.092 36.4211 100.043 36.6679 99.731 37.0158C99.419 37.3636 99.1659 37.4445 98.9719 37.2586L98.1991 36.5114L98.2006 36.9014C98.2018 37.2214 98.0424 37.382 97.7224 37.3832L96.1424 37.3891L96.1471 38.6691C96.1481 38.9424 95.9386 39.0798 95.5187 39.0814C95.0987 39.0829 94.8882 38.9471 94.8871 38.6737L94.8824 37.3937L93.2624 37.3997C92.9424 37.4009 92.7818 37.2415 92.7806 36.9215L92.7791 36.5115C92.4539 36.9061 92.1849 37.1837 91.9722 37.3445C91.7595 37.5253 91.5059 37.4563 91.2114 37.1373C90.9235 36.8117 90.8793 36.5719 91.0787 36.4178C91.4445 36.1765 91.8695 35.7249 92.3537 35.0631C92.8446 34.3946 93.2486 33.6731 93.5657 32.8986L91.5257 32.9061C91.2524 32.9072 91.115 32.7077 91.1135 32.3077C91.112 31.901 91.2479 31.6972 91.5213 31.6962L94.8612 31.6838L94.8556 30.1638C94.8546 29.8905 95.0641 29.753 95.4841 29.7515C95.9041 29.7499 96.1146 29.8858 96.1156 30.1591L96.1212 31.6791L99.4812 31.6667C99.7545 31.6656 99.8919 31.8685 99.8935 32.2751ZM108.347 33.3338C108.347 33.1605 108.26 33.0741 108.086 33.0748L106.446 33.0808C106.824 34.2528 107.461 35.0838 108.356 35.5738L108.347 33.3338ZM102.967 33.0937C102.793 33.0944 102.707 33.1814 102.707 33.3547L102.716 35.7047C103.668 35.1745 104.311 34.3021 104.646 33.0875L102.967 33.0937ZM109.082 31.9111C109.402 31.9099 109.563 32.0693 109.564 32.3893L109.583 37.6392C109.585 37.9726 109.546 38.2261 109.466 38.3997C109.387 38.58 109.221 38.7273 108.968 38.8415C108.715 38.9625 108.292 39.0207 107.698 39.0162C107.305 39.0244 107.041 38.8287 106.906 38.4292C106.778 38.0296 106.827 37.8328 107.054 37.8386C107.194 37.8448 107.551 37.8468 108.124 37.8447C108.284 37.8441 108.364 37.7704 108.363 37.6238L108.357 35.8338C108.078 36.1415 107.938 36.3087 107.939 36.3353C107.773 36.5826 107.556 36.6201 107.289 36.4477C106.567 36.0437 105.981 35.2292 105.53 34.0042C105.081 35.2859 104.458 36.1316 103.659 36.5412C103.393 36.7022 103.166 36.6597 102.979 36.4137L102.718 36.0747L102.727 38.6447C102.728 38.918 102.525 39.0554 102.119 39.0569C101.719 39.0584 101.518 38.9225 101.517 38.6492L101.494 32.4192C101.493 32.0992 101.652 31.9386 101.972 31.9374L105.032 31.9261L104.98 31.4163C104.966 31.243 104.873 31.1567 104.699 31.1573L103.679 31.1611C103.406 31.1621 103.269 30.9893 103.267 30.6426C103.266 30.2959 103.402 30.1221 103.675 30.1211L105.515 30.1143C105.829 30.1131 105.999 30.2691 106.027 30.5824L106.162 31.9219L109.082 31.9111ZM112.551 31.6182C112.378 31.6188 112.291 31.7058 112.292 31.8792L112.294 32.3092C112.295 32.5825 112.095 32.7199 111.695 32.7214C111.302 32.7228 111.105 32.5869 111.104 32.3136L111.099 30.9936C111.098 30.6736 111.257 30.513 111.577 30.5118L114.887 30.4995L114.756 30.21C114.642 29.9638 114.801 29.7932 115.234 29.6982C115.667 29.6033 115.941 29.679 116.055 29.9252L116.317 30.4942L119.407 30.4828C119.727 30.4816 119.888 30.641 119.889 30.961L119.894 32.281C119.895 32.5543 119.685 32.6918 119.265 32.6933C118.845 32.6949 118.635 32.559 118.634 32.2857L118.632 31.8557C118.631 31.6823 118.544 31.596 118.371 31.5966L112.551 31.6182ZM116.455 32.7437C116.235 32.5979 116.261 32.4078 116.533 32.1734C116.812 31.9391 117.062 31.8915 117.283 32.0307C117.53 32.1631 117.901 32.405 118.395 32.7566C118.897 33.108 119.194 33.3403 119.288 33.4532C119.462 33.6059 119.399 33.8128 119.1 34.0739C118.801 34.3351 118.568 34.3893 118.401 34.2365C118.314 34.1235 118.026 33.8813 117.538 33.5097C117.057 33.1382 116.696 32.8829 116.455 32.7437ZM113.373 32.1152C113.539 31.9145 113.815 31.8802 114.203 32.0121C114.59 32.1373 114.704 32.3069 114.544 32.5208C114.379 32.7614 114.057 33.0893 113.578 33.5044C113.106 33.9195 112.737 34.1975 112.471 34.3385C112.252 34.466 112.001 34.3736 111.72 34.0613C111.446 33.749 111.428 33.5357 111.668 33.4215C111.881 33.334 112.197 33.1295 112.616 32.808C113.034 32.4931 113.287 32.2621 113.373 32.1152ZM113.936 35.7631L117.276 35.7507C116.615 35.3065 116.093 34.8851 115.712 34.4865C115.598 34.3669 115.485 34.3707 115.372 34.4978C115.04 34.8857 114.561 35.3074 113.936 35.7631ZM113.744 37.6838C113.744 37.8572 113.831 37.9435 114.005 37.9429L117.005 37.9317C117.178 37.9311 117.264 37.8441 117.264 37.6708L117.26 36.8308L113.74 36.8438L113.744 37.6838ZM115.057 33.0989C115.202 32.8717 115.452 32.8341 115.806 32.9861C116.16 33.1382 116.284 33.2977 116.178 33.4648C117.155 34.4812 118.388 35.2599 119.877 35.8011C120.177 35.9066 120.201 36.1299 119.949 36.4708C119.697 36.8118 119.448 36.9293 119.2 36.8236C119.1 36.7773 118.873 36.6615 118.519 36.4761L118.527 38.5161C118.528 38.8361 118.368 38.9967 118.048 38.9979L113.029 39.0165C112.709 39.0177 112.548 38.8583 112.547 38.5383L112.54 36.6283C112.18 36.8096 111.941 36.9238 111.821 36.9709C111.568 37.0786 111.311 36.9695 111.05 36.6438C110.795 36.3114 110.801 36.0981 111.067 36.0037C111.8 35.7544 112.568 35.3415 113.373 34.7652C114.191 34.1888 114.752 33.6334 115.057 33.0989Z" fill="#2382C9"/>
<path d="M43.5975 46.504C43.5953 45.9066 43.8129 45.6072 44.2502 45.6055L46.8262 45.596C47.3062 45.5942 47.627 45.8224 47.7887 46.2804L49.3347 48.9627C50.1385 49.9944 50.8878 50.685 51.5824 51.0344C51.9671 51.2356 51.9366 51.6304 51.4908 52.2187C51.045 52.8071 50.6456 52.9792 50.2927 52.7352C50.2393 52.7141 50.0092 52.5282 49.6026 52.1777C49.5263 54.61 49.4261 56.3438 49.3019 57.3789C49.1777 58.4034 48.9775 59.0761 48.7014 59.3971C48.3829 59.825 47.8986 60.0828 47.2482 60.1705C46.7685 60.247 46.2459 60.2702 45.6805 60.2403C45.1151 60.2318 44.7246 59.9079 44.5089 59.2687C44.3038 58.6294 44.4254 58.325 44.8735 58.3553C45.1616 58.3756 45.6416 58.3845 46.3136 58.382C46.6123 58.3809 46.8253 58.3054 46.9528 58.1556C47.2502 57.8345 47.4422 56.3778 47.5286 53.7854C47.5587 53.2947 47.4352 53.0498 47.1578 53.0508L44.4219 53.0609C44.3183 53.9147 44.1665 54.6672 43.9662 55.3187C43.766 55.9701 43.4644 56.6272 43.0615 57.29C42.2345 58.6478 41.0967 59.5853 39.6479 60.1027C39.1261 60.3286 38.7417 60.2341 38.4949 59.819L38.3177 59.5156C37.8357 58.9627 37.9462 58.557 38.6492 58.2984C39.6721 58.0066 40.5283 57.3367 41.2178 56.2888C41.5572 55.7756 41.806 55.2733 41.9642 54.7821L42.3419 53.0687L40.4059 53.0758C39.8939 53.0777 39.6369 52.8227 39.635 52.3107L39.634 52.0227C39.3046 52.3866 39.0762 52.6168 38.9485 52.7132C38.6083 53.0238 38.1707 52.9455 37.6356 52.4781C37.1006 52.0107 36.9979 51.6485 37.3276 51.3912C37.8915 51.0051 38.5129 50.3042 39.1918 49.2883C39.8814 48.2617 40.3367 47.3534 40.5577 46.5632C40.7055 46.136 41.1103 46.0012 41.7723 46.1587C42.4448 46.3162 42.7019 46.6139 42.5436 47.0519C42.1113 48.4081 41.3591 49.7976 40.287 51.2203L48.1589 51.1911C48.4363 51.1901 48.4786 51.0886 48.2858 50.8866C47.4718 49.9936 46.8174 48.9667 46.3224 47.8059C46.204 47.5183 46.0061 47.375 45.7288 47.3761L44.2568 47.3815C43.8195 47.3831 43.5997 47.0906 43.5975 46.504ZM57.3073 45.8771L57.9006 46.2109C58.3281 46.4547 58.447 46.8809 58.2573 47.4896C57.9096 48.6429 57.5826 49.6361 57.2763 50.4693C57.213 50.6615 57.2672 50.8853 57.4388 51.1407C58.0497 51.9171 58.3572 52.8653 58.3614 53.9853C58.3655 55.0946 58.1282 55.8315 57.6496 56.1959C57.4262 56.3781 57.1707 56.4911 56.8828 56.5348L56.3709 56.5687C55.9337 56.5916 55.6447 56.3314 55.504 55.7879C55.3633 55.2337 55.5117 54.9665 55.9491 54.9862L55.965 54.9702C56.1463 54.9695 56.3115 54.9156 56.4604 54.8083C56.6093 54.7011 56.6829 54.3968 56.681 53.8955C56.6772 52.8502 56.4503 52.083 56.0005 51.594C55.711 51.1791 55.6083 50.8275 55.6926 50.5392C55.8086 50.1974 56.0085 49.4446 56.2922 48.2809C56.3973 47.8539 56.3112 47.6408 56.0338 47.6419L55.6178 47.6434C55.3405 47.6444 55.2024 47.7836 55.2034 48.061L55.2461 59.5809C55.2477 60.0182 54.9712 60.2379 54.4165 60.24C53.8725 60.242 53.5997 60.0243 53.5981 59.587L53.5504 46.7231C53.5485 46.2111 53.8036 45.9541 54.3156 45.9522L57.3073 45.8771ZM64.7843 55.8335C65.2216 55.8319 65.441 56.0391 65.4426 56.4551C65.4441 56.8711 65.2262 57.0799 64.7889 57.0815L63.9729 57.0845L63.9807 59.1965C63.9823 59.6338 63.7218 59.8535 63.1992 59.8554C62.6765 59.8573 62.4144 59.6396 62.4127 59.2023L62.4049 57.0903L61.5889 57.0933C61.1516 57.095 60.9321 56.8878 60.9306 56.4718C60.9291 56.0558 61.147 55.847 61.5843 55.8454L61.9363 55.8441L61.324 54.6943C61.1199 54.3111 61.2043 54.0441 61.5771 53.8934C61.9605 53.7426 62.2596 53.8535 62.4743 54.226L62.7802 54.7529C63.0486 55.2106 62.9432 55.547 62.464 55.7621L62.2723 55.8428L63.3283 55.8389L64.0105 54.2684C64.1797 53.8731 64.4779 53.7599 64.9052 53.929C65.3432 54.0981 65.4562 54.3697 65.2442 54.7438L64.6403 55.834L64.7843 55.8335ZM66.7384 52.0982C67.2504 52.0963 67.5074 52.3514 67.5093 52.8634L67.5303 58.5273C67.5317 58.9113 67.4955 59.2101 67.4216 59.4237C67.3478 59.648 67.1778 59.8353 66.9117 59.9856C66.6456 60.1466 66.3365 60.2171 65.9845 60.1971C65.4085 60.2205 65.0503 59.9765 64.9097 59.4651C64.7692 58.9536 64.9176 58.697 65.3549 58.6954L65.6589 58.6943C65.8082 58.6937 65.8826 58.6294 65.8822 58.5014L65.8651 53.9095C65.8641 53.6321 65.7249 53.494 65.4476 53.495L60.8716 53.512C60.5943 53.513 60.4562 53.6522 60.4572 53.9295L60.4782 59.5935C60.4798 60.0308 60.2086 60.2505 59.6646 60.2525C59.1313 60.2545 58.8638 60.0368 58.8622 59.5995L58.8373 52.8955C58.8354 52.3835 59.0905 52.1266 59.6025 52.1247L66.7384 52.0982ZM64.8436 50.2652C65.121 50.2642 65.2591 50.125 65.2581 49.8477C65.2568 49.5064 65.1175 49.3362 64.8402 49.3372L61.4162 49.3499C61.1389 49.351 61.0007 49.4901 61.0018 49.7675C61.003 50.1088 61.1423 50.279 61.4197 50.2779L64.8436 50.2652ZM66.1955 48.0682C66.7075 48.0663 66.9644 48.3214 66.9663 48.8334L66.9735 50.7693C66.9754 51.2813 66.7204 51.5383 66.2084 51.5402L60.1764 51.5625C59.6644 51.5644 59.4075 51.3094 59.4056 50.7974L59.3984 48.8614C59.3965 48.3494 59.6515 48.0925 60.1635 48.0906L66.1955 48.0682ZM59.3614 47.5175C58.9241 47.5192 58.7044 47.2533 58.7024 46.72C58.7005 46.1866 58.9181 45.9192 59.3555 45.9175L67.0834 45.8889C67.5208 45.8873 67.7404 46.1531 67.7424 46.6865C67.7444 47.2198 67.5267 47.4873 67.0894 47.4889L59.3614 47.5175ZM74.783 51.1564C75.3358 50.6637 75.7567 50.5448 76.0457 50.7997C76.3024 50.9908 76.768 51.4264 77.4425 52.1066C78.1277 52.7867 78.5561 53.2438 78.7276 53.4778C78.9847 53.7648 78.8261 54.1548 78.252 54.6476C77.6885 55.1403 77.2621 55.2219 76.9729 54.8923C76.2227 53.9564 75.4036 53.1168 74.5155 52.3734C74.141 52.0441 74.2301 51.6385 74.783 51.1564ZM92.1215 58.2762L92.1029 53.2522L91.3509 53.255L91.3702 58.471L91.9462 58.4688C92.0636 58.4684 92.122 58.4042 92.1215 58.2762ZM89.3926 51.5503L90.1286 51.5475L90.1136 47.4996L89.3776 47.5023L89.3926 51.5503ZM87.4726 51.5574L88.1766 51.5548L88.1616 47.5068L87.8736 47.5079C87.5962 47.5089 87.4581 47.6481 87.4591 47.9254L87.4726 51.5574ZM92.0965 51.5402L92.0831 47.9083C92.0821 47.6309 91.9429 47.4928 91.6655 47.4938L91.3295 47.495L91.3445 51.543L92.0965 51.5402ZM92.9394 45.8251C93.4514 45.8232 93.7083 46.0782 93.7102 46.5902L93.7285 51.5342L93.9045 51.5335C94.3419 51.5319 94.5616 51.8191 94.5637 52.3951C94.5658 52.9604 94.3482 53.2439 93.9109 53.2455L93.7349 53.2462L93.7537 58.3181C93.7564 59.0435 93.5981 59.5241 93.279 59.7599C92.9599 60.0064 92.7522 60.0925 92.656 60.0182C92.0908 60.0736 91.7541 59.8776 91.6458 59.43C91.5909 59.0142 91.4993 58.7638 91.371 58.679L91.3726 59.111C91.3742 59.5483 91.1724 59.7677 90.767 59.7692C90.3617 59.7707 90.1582 59.5528 90.1566 59.1155L90.1349 53.2595L89.3989 53.2622L89.4207 59.1502C89.4224 59.5875 89.2205 59.8069 88.8152 59.8085C88.4098 59.81 88.2064 59.592 88.2047 59.1547L88.1829 53.2667L87.4789 53.2694L87.502 59.4933C87.5036 59.9306 87.2431 60.1503 86.7204 60.1522C86.1978 60.1542 85.9356 59.9365 85.934 59.4991L85.9109 53.2752L85.6869 53.276C85.2496 53.2776 85.0299 52.9958 85.0278 52.4304C85.0257 51.8544 85.2433 51.5656 85.6806 51.564L85.9046 51.5632L85.8863 46.6192C85.8844 46.1072 86.1394 45.8503 86.6514 45.8484L92.9394 45.8251ZM94.8186 47.7701C94.817 47.3328 95.0882 47.1131 95.6322 47.1111C96.1761 47.1091 96.449 47.3267 96.4506 47.7641L96.4791 55.46C96.4807 55.8973 96.2095 56.117 95.6655 56.119C95.1215 56.1211 94.8487 55.9034 94.8471 55.4661L94.8186 47.7701ZM97.6126 46.1437C97.611 45.7064 97.8981 45.4867 98.4741 45.4846C99.0608 45.4824 99.3549 45.7 99.3566 46.1373L99.4003 57.9292C99.4021 58.4305 99.3449 58.8147 99.2285 59.0818C99.1229 59.3596 98.9317 59.5683 98.6549 59.708C98.1864 59.9551 97.5895 60.0693 96.8641 60.0506C96.2775 60.0741 95.8871 59.7769 95.6928 59.159C95.5092 58.5516 95.6148 58.2579 96.0095 58.2778C96.1695 58.2772 96.6122 58.2755 97.3375 58.2729C97.4655 58.2617 97.5507 58.2347 97.5932 58.1919C97.6357 58.1491 97.6568 58.0637 97.6563 57.9357L97.6126 46.1437ZM105.307 45.6992L105.9 46.033C106.328 46.2661 106.452 46.6817 106.273 47.2797L105.324 50.3072C105.261 50.5101 105.31 50.7339 105.471 50.9787C106.028 51.7233 106.32 52.6982 106.345 53.9034C106.349 54.9488 106.117 55.6536 105.649 56.018C105.415 56.2002 105.16 56.3132 104.882 56.3569L104.403 56.3907C103.965 56.4136 103.676 56.1533 103.536 55.6099C103.406 55.0557 103.607 54.7829 104.141 54.7916L104.412 54.6626C104.593 54.5233 104.682 54.2029 104.681 53.7016C104.655 52.635 104.445 51.8731 104.048 51.4159C103.791 51.0115 103.704 50.6545 103.788 50.3449C103.915 49.9497 104.099 49.1971 104.34 48.0868C104.434 47.6705 104.343 47.4628 104.066 47.4638L103.634 47.4654C103.356 47.4665 103.218 47.6003 103.219 47.867L103.262 59.3869C103.263 59.8242 102.987 60.0439 102.432 60.046C101.877 60.048 101.599 59.8304 101.598 59.3931L101.55 46.5452C101.548 46.0332 101.803 45.7762 102.315 45.7743L105.307 45.6992ZM107.409 55.8995C107.642 55.408 108.036 55.2412 108.591 55.3991C109.146 55.5464 109.313 55.8551 109.09 56.3253C108.731 57.1586 108.216 57.9392 107.547 58.667C107.26 58.9987 106.882 58.9948 106.411 58.6552C105.94 58.305 105.854 57.98 106.151 57.6802C106.715 57.1768 107.134 56.5832 107.409 55.8995ZM108.858 49.7021C108.635 49.8843 108.662 49.9748 108.939 49.9738L113.291 49.9577C113.568 49.9566 113.595 49.8712 113.37 49.7014C112.621 49.1175 111.856 48.3843 111.074 47.5019C110.373 48.3685 109.634 49.1019 108.858 49.7021ZM115.142 52.8948C115.579 52.8932 115.799 53.1804 115.801 53.7564C115.803 54.3324 115.585 54.6212 115.148 54.6228L112.204 54.6337L112.217 58.0737C112.219 58.5217 112.167 58.8686 112.061 59.1143C111.955 59.36 111.764 59.5581 111.487 59.7084C111.05 59.9234 110.539 60.0213 109.952 60.0021C109.376 60.0256 108.98 59.7497 108.765 59.1745C108.56 58.5993 108.799 58.3264 109.482 58.3558C109.951 58.3754 110.218 58.3584 110.282 58.3049C110.346 58.2406 110.377 58.1552 110.377 58.0485L110.364 54.6405L107.212 54.6522C106.775 54.6538 106.555 54.3667 106.553 53.7907C106.551 53.2147 106.768 52.9259 107.206 52.9242L110.358 52.9126L110.353 51.6006L108.545 51.6073C108.033 51.6092 107.776 51.3541 107.774 50.8421L107.773 50.5061L107.677 50.5705C107.305 50.8065 106.909 50.6907 106.492 50.2229C106.085 49.755 106.067 49.4244 106.44 49.2311C107.058 48.9301 107.813 48.3726 108.706 47.5586C109.599 46.734 110.188 46.0385 110.474 45.4721C110.697 45.1086 111.07 45.0272 111.593 45.2279C112.127 45.4286 112.283 45.716 112.06 46.0902L112.013 46.1704C113.255 47.4884 114.464 48.428 115.639 48.989C116.035 49.1795 116.025 49.5369 115.611 50.0611C115.197 50.5746 114.808 50.7147 114.445 50.4814L114.236 50.3382L114.238 50.8182C114.24 51.3302 113.985 51.5871 113.473 51.589L112.193 51.5937L112.198 52.9057L115.142 52.8948ZM113.187 56.4541C112.833 55.9861 112.891 55.6339 113.359 55.3974C113.827 55.161 114.244 55.2662 114.608 55.7128C115.219 56.3826 115.567 56.8559 115.653 57.133C115.836 57.4736 115.848 57.7989 115.689 58.1088C115.53 58.4188 115.195 58.6227 114.683 58.7206L114.474 58.4973L113.187 56.4541ZM124.999 53.1143L124.991 50.9383C124.99 50.661 124.85 50.5228 124.573 50.5238L123.341 50.5284C122.829 50.5303 122.572 50.2753 122.57 49.7633L122.556 45.8753C122.554 45.438 122.82 45.2183 123.353 45.2163C123.897 45.2143 124.17 45.432 124.172 45.8693L124.173 46.3013L126.029 46.2944C126.467 46.2928 126.686 46.5533 126.688 47.076C126.69 47.5986 126.472 47.8608 126.035 47.8624L124.179 47.8693L124.182 48.6213C124.183 48.8986 124.322 49.0368 124.599 49.0357L125.8 49.0473C126.312 49.0454 126.568 49.3004 126.57 49.8124L126.583 53.1084C126.584 53.4391 126.542 53.6846 126.457 53.8449C126.383 54.0052 126.224 54.1444 125.979 54.2627C125.734 54.3809 125.441 54.4353 125.099 54.4259C124.502 54.4388 124.133 54.2535 123.993 53.87C123.853 53.4759 124.002 53.278 124.439 53.2764L124.727 53.2753C124.909 53.2853 124.999 53.2316 124.999 53.1143ZM122.657 51.539C122.762 51.1226 123.049 50.9562 123.519 51.0398C123.989 51.1127 124.182 51.4533 124.099 52.0616C124.058 52.6698 123.916 53.1343 123.672 53.4552C123.513 53.7651 123.23 53.7982 122.824 53.5544C122.418 53.2999 122.267 52.9644 122.372 52.548L122.657 51.539ZM128.684 54.5726L128.759 53.2764L127.799 53.2799C127.362 53.2815 127.142 53.021 127.14 52.4983C127.138 51.9757 127.356 51.7135 127.793 51.7119L128.817 51.7081L128.812 50.3321L127.9 50.3355C127.463 50.3371 127.243 50.0766 127.241 49.554C127.239 49.0313 127.457 48.7691 127.895 48.7675L128.903 48.7638L128.899 47.8038C128.898 47.5265 128.759 47.3883 128.481 47.3893L127.729 47.3921C127.292 47.3937 127.072 47.1226 127.07 46.5786C127.068 46.0346 127.286 45.7618 127.723 45.7601L129.883 45.7521C130.395 45.7502 130.647 46.0373 130.639 46.6133C130.659 49.3119 130.605 51.9628 130.476 54.566L131.212 54.5633C131.649 54.5616 131.869 54.8542 131.871 55.4408C131.873 56.0275 131.656 56.3216 131.219 56.3233L127.363 56.3375C129.072 57.1312 130.28 57.7507 130.985 58.1961C131.295 58.3763 131.238 58.7072 130.813 59.1888C130.399 59.681 130.021 59.8157 129.679 59.593C128.77 58.967 127.824 58.4265 126.841 57.9715C126.157 57.622 126.006 57.1959 126.388 56.6932L126.659 56.3402L121.907 56.3578L122.516 56.8515C123.009 57.255 122.973 57.6392 122.409 58.0039C121.579 58.5723 120.44 59.1472 118.991 59.7286C118.554 59.9222 118.154 59.7797 117.789 59.3011C117.436 58.833 117.488 58.5075 117.946 58.3245C119.235 57.8397 120.443 57.1845 121.571 56.359L117.859 56.3728C117.421 56.3744 117.202 56.0819 117.199 55.4952C117.197 54.9086 117.415 54.6144 117.852 54.6128L118.636 54.6099L118.352 47.0749C118.34 46.5949 118.552 46.2688 118.989 46.0965L120.778 45.3859C121.183 45.235 121.519 45.4205 121.788 45.9421C122.067 46.4531 121.999 46.768 121.583 46.8869L120.449 47.2271C120.193 47.3027 120.066 47.4739 120.067 47.7405L120.119 48.7803L121.286 48.776C121.724 48.7744 121.943 49.0349 121.945 49.5576C121.947 50.0696 121.73 50.3264 121.292 50.328L120.172 50.3322L120.225 51.708L121.345 51.7038C121.783 51.7022 122.002 51.9627 122.004 52.4854C122.006 52.9974 121.788 53.2542 121.351 53.2558L120.279 53.2598L120.332 54.6036L128.684 54.5726ZM137.027 52.1577C137.443 52.0388 137.689 52.2726 137.766 52.859C137.853 53.4453 137.689 53.7979 137.274 53.9168L136.475 54.1758L136.489 57.9677C136.492 58.8104 136.281 59.3605 135.855 59.6181C135.461 59.8862 135.014 59.9999 134.512 59.9591C133.947 59.9825 133.578 59.7012 133.405 59.1152C133.243 58.5291 133.38 58.2353 133.818 58.2336L134.41 58.2314C134.612 58.2307 134.713 58.145 134.713 57.9743L134.701 54.6943L133.853 54.9535C133.438 55.0724 133.16 54.8227 133.019 54.2046C132.878 53.5864 133.015 53.2232 133.431 53.115L134.693 52.7904L134.683 49.8944L133.707 49.898C133.269 49.8996 133.05 49.6018 133.047 49.0044C133.045 48.4071 133.263 48.1076 133.7 48.106L134.676 48.1024L134.667 45.6864C134.666 45.2491 134.958 45.0293 135.545 45.0271C136.142 45.0249 136.442 45.2425 136.443 45.6798L136.452 48.0958L137.06 48.0935C137.497 48.0919 137.717 48.3898 137.719 48.9871C137.722 49.5844 137.504 49.8839 137.067 49.8855L136.459 49.8878L136.468 52.3198L137.027 52.1577ZM140.354 56.0814L140.359 57.3774C140.36 57.6547 140.499 57.7929 140.776 57.7918L142.232 57.7864L142.211 52.0425L140.725 52.576C140.469 52.6623 140.342 52.8441 140.343 53.1214L140.348 54.4974L141.1 54.4946C141.537 54.493 141.757 54.7589 141.759 55.2922C141.761 55.8148 141.543 56.077 141.106 56.0786L140.354 56.0814ZM144.056 57.7797L145.576 57.7741C145.853 57.773 145.992 57.6338 145.99 57.3565L145.986 56.0445L145.154 56.0476C144.716 56.0492 144.497 55.7834 144.495 55.25C144.493 54.7167 144.71 54.4492 145.148 54.4476L145.98 54.4445L145.976 53.3565C145.975 53.0792 145.835 52.9411 145.558 52.9421L145.094 52.9438C144.657 52.9454 144.437 52.6742 144.435 52.1302C144.433 51.5862 144.651 51.3134 145.088 51.3118L147.008 51.3047C147.52 51.3028 147.777 51.5578 147.779 52.0698L147.803 58.6458C147.805 59.1578 147.55 59.4147 147.038 59.4166L139.278 59.4454C138.766 59.4473 138.509 59.1923 138.507 58.6803L138.484 52.4723C138.483 51.9923 138.705 51.6661 139.153 51.4938L140.287 51.0256C140.724 50.8533 141.113 50.9212 141.456 51.2293L142.21 51.9145L142.203 50.0425L138.827 50.055C138.39 50.0566 138.17 49.7748 138.168 49.2094C138.166 48.6335 138.384 48.3446 138.821 48.343L142.197 48.3305L142.193 47.2105L139.489 47.2205C139.052 47.2222 138.832 46.9403 138.83 46.375C138.828 45.799 139.045 45.5102 139.483 45.5086L146.698 45.4818C147.136 45.4802 147.356 45.7674 147.358 46.3434C147.36 46.9087 147.142 47.1922 146.705 47.1938L144.017 47.2038L144.021 48.3237L147.397 48.3112C147.834 48.3096 148.054 48.5968 148.056 49.1728C148.058 49.7381 147.841 50.0216 147.403 50.0232L144.027 50.0357L144.056 57.7797ZM152.176 46.8375C152.173 46.1869 152.391 45.8607 152.828 45.8591L156.94 45.8438C157.452 45.8419 157.714 46.1716 157.728 46.8329C157.736 51.9103 159.653 55.5672 163.48 57.8037C163.876 58.0369 163.819 58.4318 163.309 58.9883C162.799 59.5449 162.357 59.7012 161.982 59.4573C159.513 57.9944 157.728 55.4943 156.627 51.9571C155.424 55.6095 153.641 58.1335 151.279 59.5289C150.927 59.7649 150.458 59.6226 149.869 59.1021C149.291 58.5923 149.188 58.2407 149.561 58.0473C152.34 56.6396 154.106 54.0571 154.86 50.2996C155.007 49.659 155.337 49.3805 155.849 49.4639L156.057 49.5111L155.877 48.1998C155.844 47.9226 155.688 47.7845 155.411 47.7855L152.835 47.7951C152.398 47.7967 152.178 47.4775 152.176 46.8375Z" fill="black" fill-opacity="0.85"/>
</g>
<defs>
<clipPath id="clip0_2306_6141">
<rect width="200" height="90" fill="white"/>
</clipPath>
</defs>
</svg>
