<svg width="200" height="90" viewBox="0 0 200 90" fill="none" xmlns="http://www.w3.org/2000/svg">
<g clip-path="url(#clip0_2306_6427)">
<rect width="200" height="90" fill="#BDE3FF"/>
<path fill-rule="evenodd" clip-rule="evenodd" d="M-6.18027 85.5257C-5.5206 81.3514 -9.94765 77.2571 -7.65473 73.2393C-4.94813 68.4966 -1.65241 61.9915 7.77154 61.0783C17.9972 60.0873 23.5998 68.8258 33.9785 69.2048C45.8176 69.6371 56.5881 60.196 66.8872 63.2371C76.2425 65.9996 70.121 74.0119 68.9752 79.5387C68.1676 83.4341 61.5364 86.4306 61.2669 90.3457C60.8502 96.3973 75.7689 103.853 67.0229 107.895C58.3557 111.9 45.7383 103.802 34.2527 102.83C27.3162 102.243 20.5655 103.925 13.6182 103.373C4.65786 102.66 -7.2514 103.227 -11.7526 99.1698C-16.3208 95.0519 -6.92748 90.2539 -6.18027 85.5257Z" fill="#005EA5"/>
<path fill-rule="evenodd" clip-rule="evenodd" d="M28.4743 10.5302C32.6486 10.8717 36.7429 8.58004 40.7607 9.76696C45.5034 11.168 52.0085 12.874 52.9217 17.7523C53.9127 23.0456 45.1742 25.9458 44.7952 31.3183C44.3629 37.4467 53.804 43.0221 50.7629 48.3534C48.0004 53.1961 39.9881 50.0274 34.4613 49.4342C30.5659 49.0162 27.5694 45.5836 23.6543 45.444C17.6027 45.2284 10.1469 52.9509 6.10508 48.4236C2.09968 43.9371 10.1975 37.4057 11.1701 31.4602C11.7575 27.8695 10.0747 24.3751 10.6274 20.7788C11.3402 16.1405 10.7727 9.97575 14.8302 7.64571C18.9481 5.281 23.7461 10.1434 28.4743 10.5302Z" fill="#2382C9"/>
<path fill-rule="evenodd" clip-rule="evenodd" d="M173.474 4.53021C177.649 4.87169 181.743 2.58004 185.761 3.76696C190.503 5.16803 197.008 6.87405 197.922 11.7523C198.913 17.0456 190.174 19.9458 189.795 25.3183C189.363 31.4467 198.804 37.0221 195.763 42.3534C193 47.1961 184.988 44.0274 179.461 43.4342C175.566 43.0162 172.569 39.5836 168.654 39.444C162.603 39.2284 155.147 46.9509 151.105 42.4236C147.1 37.9371 155.198 31.4057 156.17 25.4602C156.757 21.8695 155.075 18.3751 155.627 14.7788C156.34 10.1405 155.773 3.97575 159.83 1.64571C163.948 -0.719004 168.746 4.14342 173.474 4.53021Z" fill="#69BAF5"/>
<path fill-rule="evenodd" clip-rule="evenodd" d="M117.063 7.20494C131.49 7.9797 144.155 11.9054 154.996 17.5775C166.733 23.7188 176.896 30.8598 179.688 39.9711C183.097 51.0949 184.354 63.7453 171.749 72.2549C158.691 81.0707 136.857 81.4742 117.063 82.2497C95.2362 83.1048 71.8992 84.7511 54.6033 76.8446C35.6156 68.1646 20.8565 53.9771 24.5773 39.9711C28.0889 26.7526 52.1053 19.9805 71.5388 13.0955C85.3864 8.18958 100.98 6.34119 117.063 7.20494Z" fill="#C9F4FF"/>
<path d="M177.967 51.2804L196.726 84.9582L159.338 85.0303L177.967 51.2804Z" fill="#228CDA"/>
<path d="M173.373 78.4648H182.74" stroke="black" stroke-width="2" stroke-linecap="round"/>
<ellipse cx="171.472" cy="68.8528" rx="4.64254" ry="4.79533" transform="rotate(-0.110477 171.472 68.8528)" stroke="#FA8F21" stroke-width="2"/>
<ellipse cx="184.669" cy="68.8118" rx="4.64254" ry="4.79533" transform="rotate(-0.110477 184.669 68.8118)" stroke="#FA8F21" stroke-width="2"/>
<path d="M175.55 68.4723C175.55 68.4723 176.816 68.054 177.654 68.0337C178.594 68.011 180.025 68.4637 180.025 68.4637" stroke="#FA8F21" stroke-width="2"/>
<ellipse cx="171.471" cy="68.8518" rx="1.89842" ry="1.9609" transform="rotate(-0.110477 171.471 68.8518)" fill="black"/>
<ellipse cx="184.67" cy="68.8264" rx="1.89842" ry="1.9609" transform="rotate(-0.110477 184.67 68.8264)" fill="black"/>
<path d="M48.3468 33.5567C48.3461 33.3833 48.2591 33.297 48.0858 33.2976L46.4458 33.3037C46.8235 34.4756 47.4599 35.3066 48.3551 35.7966L48.3468 33.5567ZM42.9658 33.3166C42.7925 33.3172 42.7062 33.4042 42.7068 33.5776L42.7155 35.9275C43.6669 35.3973 44.3103 34.525 44.6458 33.3104L42.9658 33.3166ZM49.0815 32.1339C49.4015 32.1327 49.5621 32.2921 49.5633 32.6121L49.5827 37.8621C49.584 38.1954 49.5449 38.4489 49.4655 38.6225C49.3862 38.8028 49.2201 38.9501 48.9672 39.0644C48.7143 39.1853 48.2912 39.2436 47.6978 39.2391C47.3045 39.2472 47.0405 39.0515 46.9056 38.652C46.7775 38.2525 46.8268 38.0556 47.0534 38.0615C47.1935 38.0676 47.5501 38.0696 48.1235 38.0675C48.2835 38.0669 48.3632 37.9933 48.3627 37.8466L48.356 36.0566C48.0772 36.3643 47.9378 36.5315 47.9379 36.5582C47.7721 36.8055 47.5556 36.8429 47.2883 36.6706C46.5668 36.2666 45.9804 35.4521 45.5292 34.2271C45.0806 35.5088 44.4571 36.3544 43.6586 36.764C43.3925 36.925 43.1657 36.8825 42.9781 36.6366L42.7169 36.2975L42.7264 38.8675C42.7274 39.1409 42.5246 39.2783 42.1179 39.2798C41.7179 39.2813 41.5174 39.1453 41.5164 38.872L41.4933 32.642C41.4921 32.322 41.6515 32.1615 41.9715 32.1603L45.0315 32.1489L44.9796 31.6391C44.9657 31.4658 44.872 31.3795 44.6987 31.3802L43.6787 31.3839C43.4053 31.385 43.268 31.2121 43.2667 30.8655C43.2655 30.5188 43.4015 30.345 43.6748 30.3439L45.5148 30.3371C45.8281 30.336 45.9987 30.492 46.0265 30.8052L46.1615 32.1447L49.0815 32.1339ZM59.6641 35.5047C59.6115 35.7182 59.4384 35.7889 59.1448 35.7166C58.8512 35.6444 58.7273 35.4749 58.773 35.208L58.9202 34.4675C58.9463 34.3007 58.8726 34.2176 58.6993 34.2183L56.9893 34.2246C56.7788 34.9854 56.5973 35.4761 56.4447 35.6966C56.3388 35.8904 56.1288 35.8912 55.8148 35.699C55.5007 35.5068 55.3967 35.3205 55.5027 35.1401C55.8342 34.6456 56.0548 33.9014 56.1644 32.9077C56.2164 32.5341 56.4224 32.3767 56.7827 32.4354C57.1495 32.494 57.3102 32.6568 57.2645 32.9236L57.2156 33.2138L59.6159 33.3149C59.9427 33.327 60.0668 33.5532 59.9885 33.9935C59.904 34.5805 59.7958 35.0842 59.6641 35.5047ZM58.3359 30.5996C58.3349 30.3263 58.5443 30.1888 58.9643 30.1873C59.3843 30.1857 59.5948 30.3216 59.5959 30.5949L59.6001 31.7449C59.6013 32.0649 59.4419 32.2255 59.1219 32.2267L51.932 32.2534C51.6186 32.2545 51.4614 32.0951 51.4602 31.7751L51.4559 30.6251C51.4549 30.3518 51.6544 30.2144 52.0544 30.2129C52.4611 30.2114 52.6649 30.3473 52.6659 30.6206L52.6673 31.0006C52.668 31.174 52.7549 31.2603 52.9283 31.2597L54.8583 31.2525L54.8547 30.2925C54.8537 30.0192 55.0565 29.8818 55.4632 29.8802C55.8765 29.8787 56.0837 30.0146 56.0847 30.2879L56.0883 31.2479L58.0782 31.2406C58.2516 31.2399 58.3379 31.1529 58.3373 30.9796L58.3359 30.5996ZM53.9539 35.4759L53.9505 34.5559L52.6805 34.5606L52.6839 35.4806L53.9539 35.4759ZM52.6901 37.1406C52.6907 37.3139 52.7777 37.4003 52.951 37.3996L53.701 37.3968C53.8744 37.3962 53.9607 37.3092 53.9601 37.1359L53.9575 36.4359L52.6875 36.4406L52.6901 37.1406ZM55.2366 33.4911C55.5099 33.4901 55.6472 33.6663 55.6485 34.0196C55.6498 34.3729 55.5138 34.5501 55.2405 34.5511L55.0605 34.5518L55.0731 37.9617C55.0743 38.2817 54.9149 38.4423 54.5949 38.4435L52.0549 38.4529C51.7349 38.4541 51.5743 38.2947 51.5732 37.9747L51.5605 34.5647L51.3105 34.5657C51.0372 34.5667 50.8999 34.3905 50.8986 34.0372C50.8972 33.6839 51.0333 33.5067 51.3066 33.5057L51.5566 33.5048L51.5548 33.0148C51.5538 32.7414 51.7399 32.6041 52.1132 32.6027C52.4866 32.6013 52.6738 32.7373 52.6748 33.0106L52.6766 33.5006L53.9466 33.4959L53.9448 33.0059C53.9437 32.7326 54.1266 32.5952 54.4932 32.5939C54.8666 32.5925 55.0537 32.7285 55.0547 33.0018L55.0566 33.4918L55.2366 33.4911ZM57.1521 34.984C57.1514 34.7907 57.3477 34.6933 57.741 34.6918C58.1344 34.6904 58.3314 34.7963 58.3322 35.0096C58.3335 35.3496 58.3047 35.6864 58.246 36.02C58.4345 36.5193 58.6962 36.975 59.031 37.3871C59.3659 37.7925 59.6301 38.0382 59.8238 38.1241C60.0576 38.2566 60.0417 38.47 59.7761 38.7643C59.5106 39.0653 59.2709 39.1429 59.057 38.997C58.6294 38.7519 58.1942 38.2335 57.7512 37.4418C57.3738 38.1299 56.9323 38.6382 56.4269 38.9667C56.1942 39.1409 55.924 39.1053 55.6165 38.8597C55.3089 38.6209 55.2748 38.4243 55.5143 38.2701C55.654 38.1963 55.8567 38.0222 56.1223 37.7479C56.388 37.4669 56.587 37.2128 56.7195 36.9856C56.852 36.7518 56.951 36.4914 57.0166 36.2045C57.0889 35.9176 57.1281 35.6974 57.1342 35.5441C57.147 35.3907 57.1529 35.204 57.1521 34.984ZM64.4268 33.547C64.7724 33.2391 65.0354 33.1648 65.216 33.3241C65.3765 33.4435 65.6675 33.7158 66.089 34.1409C66.5173 34.566 66.785 34.8517 66.8922 34.9979C67.0529 35.1773 66.9538 35.421 66.5949 35.729C66.2427 36.037 65.9763 36.088 65.7955 35.882C65.3267 35.2971 64.8147 34.7723 64.2597 34.3077C64.0256 34.1019 64.0813 33.8483 64.4268 33.547ZM77.6742 35.508L77.6695 34.238L76.9195 34.2407L76.9242 35.5107L77.6742 35.508ZM73.4795 34.2535L73.4842 35.5235L74.1642 35.521L74.1595 34.251L73.4795 34.2535ZM75.9295 34.2444L75.1495 34.2473L75.1542 35.5173L75.9342 35.5144L75.9295 34.2444ZM79.3355 33.1718C79.6089 33.1708 79.7462 33.3469 79.7475 33.7003C79.7488 34.0536 79.6128 34.2308 79.3395 34.2318L78.7695 34.2339L78.7742 35.5039L79.5642 35.501C79.8375 35.4999 79.9748 35.6761 79.9761 36.0294C79.9775 36.3828 79.8414 36.5599 79.5681 36.5609L71.4682 36.591C71.1948 36.592 71.0575 36.4158 71.0562 36.0625C71.0549 35.7092 71.1909 35.532 71.4642 35.531L72.4242 35.5274L72.4195 34.2574L71.7595 34.2599C71.4862 34.2609 71.3489 34.0847 71.3476 33.7314C71.3463 33.3781 71.4823 33.2009 71.7556 33.1999L72.4156 33.1974L72.4138 32.7074C72.4128 32.4341 72.5889 32.2968 72.9423 32.2955C73.2956 32.2942 73.4728 32.4302 73.4738 32.7035L73.4756 33.1935L74.1556 33.191L74.1538 32.701C74.1528 32.4277 74.3156 32.2904 74.6422 32.2892C74.9756 32.2879 75.1427 32.424 75.1438 32.6973L75.1456 33.1873L75.9256 33.1844L75.9238 32.6944C75.9227 32.4211 76.0856 32.2838 76.4122 32.2826C76.7456 32.2814 76.9127 32.4174 76.9137 32.6908L76.9156 33.1808L77.6656 33.178L77.6637 32.688C77.6627 32.4146 77.8456 32.2773 78.2122 32.2759C78.5789 32.2746 78.7627 32.4106 78.7637 32.6839L78.7656 33.1739L79.3355 33.1718ZM79.6789 31.3805C79.6802 31.7272 79.5442 31.901 79.2708 31.902L72.6109 31.9267C72.1793 32.4083 71.8804 32.7061 71.7142 32.82C71.5347 32.9674 71.3311 32.8815 71.1032 32.5623C70.8754 32.2431 70.8645 32.0065 71.0706 31.8524C71.2768 31.7183 71.5624 31.4439 71.9276 31.0292C72.2993 30.6078 72.5348 30.287 72.634 30.0666C72.7598 29.8261 72.9929 29.7619 73.3333 29.874C73.6804 29.9861 73.7877 30.159 73.6552 30.3928L73.387 30.8738L79.2669 30.852C79.5403 30.851 79.6776 31.0272 79.6789 31.3805ZM72.3864 38.8076C72.2207 39.0749 71.9442 39.1292 71.557 38.9707C71.1698 38.8188 71.069 38.6091 71.2547 38.3418C71.5267 38.0074 71.7486 37.6166 71.9203 37.1693C72.0327 36.9155 72.2791 36.838 72.6595 36.9366C73.0465 37.0351 73.1838 37.2179 73.0715 37.485C72.88 37.9924 72.6517 38.4333 72.3864 38.8076ZM73.8219 37.5923C73.7942 37.319 73.9636 37.1617 74.3301 37.1204C74.7033 37.079 74.9071 37.1916 74.9414 37.4581L75.0954 38.5275C75.1297 38.7941 74.9503 38.9547 74.5572 39.0095C74.1707 39.071 73.9636 38.9651 73.936 38.6918L73.8219 37.5923ZM75.9217 37.5445C75.8474 37.2847 75.9968 37.1242 76.3699 37.0628C76.7431 37.0014 76.9969 37.1371 77.1315 37.47C77.2927 37.8161 77.3973 38.1457 77.4451 38.4588C77.4994 38.6986 77.3266 38.8559 76.9269 38.9308C76.5338 39.0122 76.3035 38.9231 76.2359 38.6633L75.9217 37.5445ZM78.3836 38.0353C78.2159 37.756 78.1716 37.4995 78.2507 37.2658C78.3365 37.0255 78.5293 36.8881 78.8292 36.8537C78.8954 36.7401 79.0325 36.8363 79.2403 37.1422C79.5753 37.6009 79.7631 37.8969 79.8036 38.0301C79.9043 38.2364 79.8817 38.4331 79.7357 38.6203C79.5898 38.8075 79.3436 38.9385 78.9972 39.0131L78.8066 38.8638C78.6854 38.5309 78.5444 38.2548 78.3836 38.0353ZM84.2394 31.5136C84.5128 31.5126 84.65 31.6754 84.6512 32.0021C84.6525 32.3287 84.5164 32.4926 84.2431 32.4936L81.0531 32.5054C80.7798 32.5064 80.6425 32.3436 80.6413 32.0169C80.6401 31.6903 80.7761 31.5264 81.0495 31.5254L82.4394 31.5203L81.9359 30.5721C81.815 30.3326 81.9143 30.1389 82.2338 29.991C82.5532 29.8365 82.7767 29.879 82.9043 30.1185L83.2465 30.7273C83.4075 31.0067 83.345 31.2236 83.0589 31.378L82.7994 31.5189L84.2394 31.5136ZM83.8848 32.9649C84.1581 32.9639 84.2954 33.1201 84.2966 33.4334C84.2977 33.7401 84.1616 33.8939 83.8883 33.8949L81.5183 33.9037C81.2449 33.9047 81.1077 33.7519 81.1066 33.4452C81.1054 33.1319 81.2415 32.9747 81.5148 32.9737L83.8848 32.9649ZM81.5234 35.2937C81.2501 35.2947 81.1129 35.1419 81.1117 34.8352C81.1106 34.5219 81.2466 34.3647 81.52 34.3637L83.89 34.3549C84.1633 34.3539 84.3005 34.5101 84.3017 34.8234C84.3028 35.1301 84.1667 35.2839 83.8934 35.2849L81.5234 35.2937ZM83.3099 37.0371C83.3093 36.8637 83.2223 36.7774 83.0489 36.778L82.3989 36.7805C82.2256 36.7811 82.1393 36.8681 82.1399 37.0414L82.1423 37.6914C82.143 37.8647 82.2299 37.9511 82.4033 37.9504L83.0533 37.948C83.2266 37.9474 83.313 37.8604 83.3123 37.6871L83.3099 37.0371ZM83.8853 35.7849C84.2053 35.7838 84.3659 35.9432 84.367 36.2632L84.3751 38.4431C84.3763 38.7631 84.2169 38.9237 83.8969 38.9249L81.5869 38.9335C81.2669 38.9347 81.1063 38.7753 81.1051 38.4553L81.0971 36.2753C81.0959 35.9553 81.2553 35.7947 81.5753 35.7935L83.8853 35.7849ZM88.5895 36.9275C88.5889 36.7542 88.5019 36.6678 88.3286 36.6685L86.4286 36.6755C86.2553 36.6762 86.1689 36.7631 86.1695 36.9365L86.1728 37.8165C86.1735 37.9898 86.2604 38.0762 86.4338 38.0755L88.3338 38.0685C88.5071 38.0678 88.5934 37.9808 88.5928 37.8075L88.5895 36.9275ZM85.5077 39.129C85.1877 39.1301 85.0271 38.9707 85.0259 38.6507L85.0164 36.1007C85.0153 35.7808 85.1747 35.6202 85.4947 35.619L89.3146 35.6048C89.6346 35.6036 89.7952 35.763 89.7964 36.083L89.8059 38.633C89.807 38.953 89.6476 39.1136 89.3276 39.1148L85.5077 39.129ZM88.3158 33.2185C88.3151 33.0452 88.2282 32.9588 88.0548 32.9595L87.1348 32.9629L86.909 34.0937L88.319 34.0885L88.3158 33.2185ZM89.469 34.0842L89.939 34.0825C90.2123 34.0815 90.3496 34.251 90.3509 34.591C90.3521 34.931 90.2161 35.1015 89.9428 35.1025L84.9028 35.1212C84.6295 35.1222 84.4922 34.9527 84.4909 34.6127C84.4897 34.2727 84.6257 34.1022 84.899 34.1012L85.719 34.0981L85.9348 32.9673L85.4148 32.9693C85.1415 32.9703 85.0042 32.8041 85.003 32.4708C85.0018 32.1374 85.1378 31.9703 85.4111 31.9693L86.1111 31.9667L86.2183 31.1963L85.1483 31.2002C84.8749 31.2012 84.7377 31.0317 84.7364 30.6918C84.7351 30.3518 84.8712 30.1812 85.1445 30.1802L89.6545 30.1635C89.9278 30.1625 90.0651 30.332 90.0664 30.672C90.0676 31.012 89.9316 31.1825 89.6582 31.1835L87.4383 31.1917L87.3011 31.9623L88.9811 31.956C89.3011 31.9548 89.4617 32.1142 89.4629 32.4342L89.469 34.0842ZM96.7884 31.2171L94.1884 31.2267L94.471 31.9257L96.511 31.9181L96.7884 31.2171ZM99.421 31.9073C99.6943 31.9063 99.8316 32.0591 99.8327 32.3658C99.8338 32.6725 99.6977 32.8263 99.4244 32.8273L91.5945 32.8563C91.3211 32.8574 91.1839 32.7045 91.1828 32.3979C91.1816 32.0912 91.3177 31.9374 91.5911 31.9364L93.271 31.9301C93.1363 31.564 93.2355 31.3469 93.5686 31.279L93.8184 31.2281L92.0785 31.2345C91.8051 31.2356 91.6679 31.0827 91.6668 30.7761C91.6656 30.4694 91.8017 30.3156 92.075 30.3145L94.905 30.3041L94.8747 30.2242C94.7804 29.9645 94.9265 29.8006 95.3129 29.7325C95.6993 29.6578 95.9463 29.7469 96.0539 29.9998L96.185 30.2993L98.895 30.2893C99.1617 30.2883 99.2956 30.4411 99.2967 30.7478C99.2978 31.0544 99.1617 31.2083 98.8884 31.2093L97.2484 31.2154L97.4586 31.2546C97.8521 31.3198 97.943 31.5395 97.731 31.9136L99.421 31.9073ZM97.5801 34.3642L97.5795 34.1942C97.5788 34.0208 97.4918 33.9345 97.3185 33.9351L93.6985 33.9486C93.5252 33.9492 93.4388 34.0362 93.4395 34.2095L93.4401 34.3795L97.5801 34.3642ZM97.3243 35.4951C97.4976 35.4945 97.584 35.4075 97.5833 35.2342L97.5827 35.0642L93.4427 35.0795L93.4433 35.2495C93.444 35.4228 93.531 35.5092 93.7043 35.5085L97.3243 35.4951ZM98.2758 33.1916C98.5957 33.1904 98.7563 33.3498 98.7575 33.6698L98.7653 35.7598C98.7665 36.0798 98.6071 36.2404 98.2871 36.2416L95.7071 36.2511L96.4187 36.6985C96.6459 36.8376 96.6366 37.031 96.3909 37.2786C96.1518 37.5195 95.942 37.5669 95.7614 37.4209C95.574 37.2216 95.3702 37.0824 95.1499 37.0032C94.689 36.7716 94.5947 36.5219 94.8671 36.2542L92.8071 36.2619C92.4871 36.2631 92.3265 36.1037 92.3253 35.7837L92.3176 33.6937C92.3164 33.3737 92.4758 33.2131 92.7958 33.2119L98.2758 33.1916ZM92.2055 38.5441C92.013 38.7448 91.7496 38.7491 91.4156 38.557C91.0882 38.3649 91.0375 38.1651 91.2634 37.9576C91.5426 37.7432 91.7747 37.4157 91.9597 36.975C92.092 36.7012 92.3218 36.637 92.649 36.7825C92.9829 36.9279 93.0737 37.1476 92.9215 37.4415C92.6834 37.9757 92.4448 38.3432 92.2055 38.5441ZM95.0736 38.0235L96.4536 38.0184C96.6403 38.0177 96.7601 37.9706 96.8131 37.877L96.8625 37.7069C96.9079 37.3733 97.0975 37.2693 97.4313 37.3947C97.7718 37.5135 97.9093 37.7463 97.8439 38.0932C97.8447 38.2932 97.7487 38.4869 97.5561 38.6743C97.3701 38.8683 97.0405 38.9662 96.5671 38.968L94.9572 38.9739C94.3372 38.9762 93.9202 38.8911 93.7062 38.7186C93.4922 38.546 93.3844 38.2231 93.3826 37.7498L93.3802 37.1098C93.3792 36.8364 93.5721 36.699 93.9587 36.6976C94.3454 36.6962 94.5392 36.8321 94.5402 37.1055L94.5426 37.7355C94.543 37.8621 94.5733 37.942 94.6335 37.9751C94.7002 38.0082 94.847 38.0243 95.0736 38.0235ZM98.4225 37.7011C98.2282 37.4485 98.1507 37.2121 98.1898 36.9919C98.2357 36.7718 98.4019 36.6445 98.6884 36.6101C98.7214 36.5033 98.8584 36.5928 99.0994 36.8786C99.4542 37.2572 99.6384 37.4999 99.6521 37.6065C99.7596 37.8128 99.7503 38.0062 99.6243 38.1866C99.5049 38.3604 99.2787 38.4712 98.9455 38.5191L98.7949 38.3697C98.6938 38.0567 98.5696 37.8339 98.4225 37.7011ZM107.359 31.4579L107.358 31.0079L106.828 31.0099L106.829 31.4599L107.359 31.4579ZM108.783 32.5526C108.783 32.3793 108.696 32.293 108.522 32.2936L108.212 32.2947L108.215 33.0447L108.525 33.0436C108.699 33.0429 108.785 32.956 108.784 32.7826L108.783 32.5526ZM106.833 32.2999L106.835 33.0499L107.365 33.0479L107.363 32.2979L106.833 32.2999ZM105.713 32.304C105.539 32.3047 105.453 32.3916 105.453 32.565L105.454 32.795C105.455 32.9683 105.542 33.0546 105.715 33.054L105.995 33.053L105.993 32.303L105.713 32.304ZM105.989 31.463L105.988 31.013L104.708 31.0177C104.434 31.0187 104.297 30.8626 104.296 30.5493C104.295 30.2359 104.428 30.0788 104.694 30.0778L109.574 30.0597C109.848 30.0587 109.985 30.2148 109.986 30.5282C109.987 30.8415 109.851 30.9987 109.578 30.9997L108.208 31.0048L108.209 31.4548L109.329 31.4506C109.649 31.4494 109.81 31.6088 109.811 31.9288L109.817 33.3988C109.818 33.7188 109.658 33.8794 109.338 33.8806L104.978 33.8967C104.658 33.8979 104.498 33.7385 104.497 33.4185L104.491 31.9485C104.49 31.6285 104.649 31.4679 104.969 31.4668L105.989 31.463ZM109 34.2318C109.273 34.2308 109.41 34.3803 109.411 34.6803C109.412 34.9803 109.276 35.1308 109.003 35.1318L105.333 35.1454C105.06 35.1465 104.922 34.997 104.921 34.697C104.92 34.397 105.056 34.2465 105.33 34.2454L109 34.2318ZM104.331 34.6491C104.438 34.8154 104.376 35.0357 104.144 35.3098C103.918 35.5774 103.751 35.588 103.644 35.3417L103.311 34.5929L103.326 38.6329C103.327 38.9062 103.147 39.0436 102.787 39.0449C102.427 39.0462 102.247 38.9102 102.246 38.6369L102.232 34.8769C101.936 35.8914 101.675 36.569 101.45 36.9098C101.344 37.0902 101.196 36.9808 101.008 36.5815C100.827 36.1755 100.799 35.8756 100.925 35.6818C101.064 35.5079 101.256 35.1139 101.501 34.4996C101.745 33.8787 101.936 33.2714 102.074 32.6775L101.384 32.6801C101.111 32.6811 100.973 32.4982 100.972 32.1316C100.97 31.7649 101.106 31.5811 101.38 31.5801L102.22 31.577L102.214 30.127C102.213 29.8536 102.393 29.7163 102.753 29.715C103.113 29.7136 103.293 29.8496 103.294 30.123L103.3 31.573L103.86 31.5709C104.133 31.5699 104.27 31.7527 104.272 32.1194C104.273 32.486 104.137 32.6699 103.864 32.6709L103.304 32.6729L103.305 33.1129C103.426 33.2658 103.627 33.5618 103.909 34.0007C104.197 34.433 104.338 34.6491 104.331 34.6491ZM104.93 37.1269C105.089 36.833 105.339 36.7354 105.679 36.8342C106.026 36.9262 106.124 37.1159 105.971 37.4031C105.78 37.8305 105.488 38.2149 105.096 38.5563C104.903 38.7571 104.656 38.7513 104.356 38.5391C104.062 38.3335 104.021 38.1403 104.233 37.9595C104.566 37.7183 104.798 37.4408 104.93 37.1269ZM110.026 35.998C110.027 36.3047 109.891 36.4586 109.618 36.4596L107.658 36.4668L107.666 38.6168C107.667 38.8901 107.491 39.0275 107.137 39.0288C106.784 39.0301 106.607 38.8941 106.606 38.6207L106.598 36.4708L104.738 36.4777C104.465 36.4787 104.327 36.3258 104.326 36.0192C104.325 35.7058 104.461 35.5487 104.735 35.5477L109.614 35.5296C109.888 35.5286 110.025 35.6847 110.026 35.998ZM108.342 37.4943C108.134 37.2484 108.173 37.0516 108.46 36.9039C108.746 36.7561 108.972 36.7853 109.14 36.9913L109.893 37.9186C110.061 38.1246 109.991 38.3182 109.686 38.4993C109.38 38.6805 109.159 38.6479 109.025 38.4018C108.924 38.1688 108.696 37.8663 108.342 37.4943ZM118.038 30.9883L116.898 30.9925C116.666 31.3467 116.483 31.5741 116.35 31.6746C116.158 31.8686 115.914 31.8495 115.62 31.6173C115.326 31.385 115.282 31.1785 115.488 30.9978C115.853 30.7297 116.099 30.4088 116.224 30.035C116.356 29.7279 116.603 29.6203 116.963 29.7123C117.33 29.8043 117.461 29.9738 117.355 30.2208L117.325 30.271L119.675 30.2622C119.948 30.2612 120.085 30.3807 120.086 30.6207C120.087 30.8607 119.951 30.9812 119.678 30.9822L118.408 30.9869C118.669 31.206 118.779 31.3089 118.739 31.2957C118.893 31.4818 118.807 31.6488 118.481 31.7967C118.155 31.9446 117.901 31.9188 117.72 31.7195C117.473 31.4338 117.532 31.2102 117.898 31.0488L118.038 30.9883ZM118.244 32.6176C118.09 32.3981 118.149 32.2179 118.422 32.0769C118.701 31.9292 118.925 31.9617 119.092 32.1744L119.454 32.6431C119.621 32.8558 119.559 33.0427 119.266 33.2038C118.973 33.3649 118.75 33.3357 118.596 33.1163L118.244 32.6176ZM113.558 31.0149L112.618 31.0184C112.306 31.4062 112.074 31.6604 111.921 31.781C111.721 31.9551 111.488 31.9093 111.22 31.6436C110.959 31.3712 110.942 31.148 111.168 30.9738C111.58 30.6923 111.872 30.3712 112.044 30.0105C112.21 29.7299 112.466 29.6423 112.813 29.7477C113.167 29.853 113.277 30.026 113.145 30.2664L113.135 30.2765L114.955 30.2697C115.228 30.2687 115.365 30.3916 115.366 30.6382C115.367 30.8849 115.231 31.0087 114.958 31.0097L114.108 31.0129L114.469 31.3415C114.663 31.5275 114.604 31.7011 114.291 31.8622C113.978 32.0234 113.728 32.0076 113.541 31.815L113.43 31.7054C113.149 31.4264 113.192 31.1963 113.558 31.0149ZM115.792 37.6367C116.119 37.6221 116.283 37.7182 116.283 37.9249C116.682 37.6567 116.998 37.3989 117.231 37.1514C116.974 36.399 116.794 35.483 116.69 34.4033L115.06 34.4094L115.062 34.8094L115.862 34.8064C116.135 34.8054 116.272 34.9082 116.273 35.1149C116.274 35.3216 116.137 35.4254 115.864 35.4264L115.064 35.4294L115.065 35.7794L115.805 35.7766C116.079 35.7756 116.216 35.8751 116.217 36.0751C116.217 36.2684 116.081 36.3656 115.808 36.3666L115.068 36.3694L115.069 36.7194L115.969 36.716C116.242 36.715 116.379 36.8212 116.38 37.0345C116.381 37.2412 116.245 37.345 115.971 37.346L115.071 37.3494L115.073 37.6894L115.792 37.6367ZM113.53 34.415L113.543 37.785L114.133 37.7528L114.12 34.4129L113.53 34.415ZM112.007 33.6007L113.257 33.5961C113.11 33.3833 112.939 33.1872 112.745 33.008C112.533 33.2287 112.287 33.4263 112.007 33.6007ZM114.136 33.3528C114.003 33.22 113.869 33.2038 113.736 33.3043L113.367 33.5956L114.367 33.5919L114.136 33.3528ZM114.657 33.5909L115.657 33.5872C115.523 33.421 115.373 33.2549 115.205 33.0888C115.059 33.2627 114.877 33.4301 114.657 33.5909ZM118.702 34.9059C118.788 34.6522 118.984 34.5682 119.291 34.6537C119.605 34.7325 119.712 34.9088 119.613 35.1825C119.403 35.8766 119.008 36.5814 118.431 37.2969C118.626 37.6695 118.827 37.8554 119.033 37.8547C119.12 37.8544 119.183 37.7875 119.222 37.654L119.261 37.3638C119.294 37.0904 119.45 37.0398 119.731 37.2121C120.011 37.3844 120.119 37.644 120.054 37.9909C120.048 38.2043 119.959 38.4113 119.786 38.6119C119.613 38.8125 119.337 38.9136 118.957 38.915C118.464 38.9168 118.036 38.645 117.674 38.0997C117.229 38.4814 116.906 38.7192 116.707 38.8133C116.461 38.9676 116.24 38.9284 116.046 38.6958L115.805 38.4166C113.979 38.5767 112.526 38.6888 111.446 38.7528C111.22 38.7736 111.086 38.6408 111.045 38.3543C111.004 38.0678 111.12 37.9173 111.393 37.903L112.603 37.8385L112.601 37.4085L111.641 37.4121C111.368 37.4131 111.231 37.3103 111.23 37.1036C111.23 36.8903 111.366 36.7831 111.639 36.7821L112.599 36.7785L112.598 36.3985L111.868 36.4012C111.594 36.4022 111.457 36.3061 111.457 36.1127C111.456 35.9127 111.592 35.8122 111.866 35.8112L112.596 35.8085L112.594 35.4485L111.774 35.4516C111.501 35.4526 111.364 35.3531 111.363 35.1531C111.362 34.9464 111.499 34.8426 111.772 34.8416L112.592 34.8385L112.59 34.4185L111.34 34.4232C111.067 34.4242 110.93 34.288 110.929 34.0147C110.928 33.7414 111.064 33.6042 111.337 33.6032L111.787 33.6015L111.657 33.472C111.376 33.1864 111.461 32.9194 111.914 32.671C112.134 32.6369 112.266 32.4531 112.312 32.1196C112.411 31.8592 112.607 31.7485 112.901 31.7874C113.201 31.8263 113.301 31.9925 113.202 32.2863L113.955 33.0135C114.461 32.7383 114.726 32.4606 114.752 32.1805C114.844 31.9068 115.037 31.7894 115.331 31.8284C115.624 31.8606 115.735 32.0069 115.662 32.2671L115.633 32.3372C115.987 32.6226 116.168 32.7919 116.175 32.8452C116.362 33.0645 116.329 33.268 116.077 33.4556L115.907 33.5862L116.617 33.5836L116.563 32.3838C116.555 32.1105 116.735 31.9732 117.101 31.9718C117.475 31.9704 117.665 32.1064 117.673 32.3797L117.707 33.5796L119.657 33.5723C119.931 33.5713 120.068 33.7075 120.069 33.9808C120.07 34.2541 119.934 34.3913 119.66 34.3923L117.77 34.3993C117.846 35.0991 117.942 35.6854 118.057 36.1583C118.408 35.6236 118.623 35.2062 118.702 34.9059ZM125.811 34.6595L125.806 33.2995C125.806 33.1262 125.719 33.0399 125.545 33.0405L124.775 33.0434C124.455 33.0445 124.295 32.8851 124.294 32.5651L124.285 30.1352C124.284 29.8618 124.45 29.7245 124.783 29.7233C125.123 29.722 125.294 29.8581 125.295 30.1314L125.296 30.4014L126.456 30.3971C126.729 30.3961 126.866 30.5589 126.867 30.8856C126.869 31.2123 126.733 31.3761 126.459 31.3771L125.299 31.3814L125.301 31.8514C125.302 32.0247 125.389 32.1111 125.562 32.1104L126.312 32.1177C126.632 32.1165 126.793 32.2759 126.794 32.5959L126.801 34.6559C126.802 34.8625 126.776 35.016 126.723 35.1162C126.677 35.2163 126.577 35.3034 126.424 35.3773C126.271 35.4512 126.088 35.4852 125.874 35.4793C125.501 35.4874 125.271 35.3715 125.183 35.1319C125.096 34.8855 125.188 34.7618 125.462 34.7608L125.642 34.7602C125.755 34.7664 125.812 34.7329 125.811 34.6595ZM124.348 33.6749C124.413 33.4147 124.593 33.3107 124.887 33.363C125.18 33.4085 125.301 33.6214 125.249 34.0016C125.224 34.3817 125.135 34.672 124.982 34.8726C124.883 35.0663 124.706 35.087 124.452 34.9346C124.198 34.7755 124.104 34.5659 124.17 34.3056L124.348 33.6749ZM128.115 35.571L128.162 34.7608L127.562 34.763C127.288 34.7641 127.151 34.6012 127.15 34.2746C127.149 33.9479 127.285 33.7841 127.558 33.7831L128.198 33.7807L128.195 32.9207L127.625 32.9228C127.352 32.9238 127.214 32.761 127.213 32.4343C127.212 32.1077 127.348 31.9438 127.621 31.9428L128.251 31.9405L128.249 31.3405C128.248 31.1671 128.161 31.0808 127.988 31.0814L127.518 31.0832C127.245 31.0842 127.108 30.9147 127.106 30.5747C127.105 30.2347 127.241 30.0642 127.514 30.0632L128.864 30.0582C129.184 30.057 129.342 30.2364 129.336 30.5964C129.349 32.2831 129.315 33.9399 129.235 35.5668L129.695 35.5651C129.968 35.5641 130.105 35.747 130.107 36.1136C130.108 36.4803 129.972 36.6641 129.699 36.6651L127.289 36.6741C128.357 37.1701 129.112 37.5573 129.553 37.8357C129.747 37.9483 129.711 38.1551 129.445 38.4561C129.187 38.7637 128.95 38.8479 128.736 38.7087C128.168 38.3175 127.577 37.9797 126.963 37.6953C126.535 37.4769 126.441 37.2105 126.68 36.8963L126.849 36.6757L123.879 36.6867L124.26 36.9953C124.568 37.2475 124.545 37.4876 124.193 37.7156C123.674 38.0708 122.962 38.4301 122.057 38.7935C121.784 38.9145 121.533 38.8254 121.306 38.5263C121.085 38.2337 121.117 38.0303 121.403 37.9159C122.209 37.6129 122.964 37.2034 123.669 36.6875L121.349 36.6961C121.076 36.6971 120.938 36.5143 120.937 36.1476C120.936 35.7809 121.071 35.5971 121.345 35.5961L121.835 35.5943L121.657 30.8849C121.65 30.5849 121.782 30.3811 122.055 30.2734L123.173 29.8293C123.426 29.735 123.637 29.8509 123.805 30.1769C123.979 30.4963 123.937 30.6931 123.677 30.7674L122.968 30.98C122.808 31.0273 122.728 31.1343 122.729 31.3009L122.761 31.9508L123.491 31.9481C123.765 31.9471 123.902 32.1099 123.903 32.4366C123.904 32.7566 123.768 32.9171 123.495 32.9181L122.795 32.9207L122.828 33.7806L123.528 33.778C123.801 33.777 123.939 33.9398 123.94 34.2665C123.941 34.5865 123.805 34.747 123.532 34.748L122.862 34.7505L122.895 35.5903L128.115 35.571ZM138.899 31.381C138.9 31.6543 138.724 31.7916 138.371 31.793C138.018 31.7943 137.84 31.6583 137.839 31.3849L137.839 31.2449L137.549 31.246C137.275 31.247 137.138 31.0875 137.137 30.7675C137.136 30.4475 137.272 30.287 137.545 30.286L137.835 30.2849L137.834 30.0049C137.833 29.7316 138.009 29.5943 138.363 29.593C138.716 29.5917 138.893 29.7277 138.894 30.001L138.895 30.281L139.655 30.2782C139.929 30.2772 140.066 30.4367 140.067 30.7567C140.068 31.0767 139.932 31.2372 139.659 31.2382L138.899 31.241L138.899 31.381ZM135.671 31.803C135.324 31.8043 135.15 31.6682 135.149 31.3949L135.149 31.2649L134.559 31.2671C134.286 31.2681 134.148 31.1086 134.147 30.7886C134.146 30.4686 134.282 30.3081 134.555 30.3071L135.145 30.3049L135.144 30.0149C135.143 29.7416 135.316 29.6043 135.663 29.603C136.016 29.6017 136.193 29.7377 136.194 30.011L136.195 30.301L136.495 30.2999C136.769 30.2989 136.906 30.4584 136.907 30.7784C136.908 31.0984 136.772 31.2589 136.499 31.2599L136.199 31.261L136.199 31.391C136.2 31.6643 136.024 31.8017 135.671 31.803ZM134.271 34.4682C134.371 34.6278 134.302 34.8447 134.063 35.1189C133.824 35.3865 133.654 35.3938 133.553 35.1408L133.21 34.3021L133.226 38.5221C133.227 38.7954 133.047 38.9327 132.687 38.9341C132.327 38.9354 132.147 38.7994 132.146 38.5261L132.133 35.1261C131.87 35.9671 131.652 36.5212 131.479 36.7885C131.373 36.9756 131.226 36.8661 131.038 36.4602C130.85 36.0542 130.819 35.7543 130.945 35.5605C131.077 35.3934 131.263 35.006 131.5 34.3984C131.738 33.7842 131.929 33.1735 132.074 32.5663L131.394 32.5688C131.12 32.5698 130.983 32.387 130.982 32.0203C130.98 31.647 131.116 31.4598 131.39 31.4588L132.12 31.4561L132.114 30.0061C132.113 29.7328 132.293 29.5955 132.653 29.5941C133.013 29.5928 133.193 29.7288 133.194 30.0021L133.2 31.4521L133.81 31.4499C134.083 31.4489 134.22 31.635 134.222 32.0083C134.223 32.375 134.087 32.5588 133.814 32.5599L133.204 32.5621L133.204 32.7421C133.338 32.935 133.55 33.2708 133.838 33.7498C134.133 34.222 134.277 34.4615 134.271 34.4682ZM135.669 34.023L135.67 34.203C135.67 34.3763 135.757 34.4627 135.931 34.462L138.151 34.4538C138.324 34.4532 138.41 34.3662 138.41 34.1928L138.409 34.0128L135.669 34.023ZM135.925 32.822C135.751 32.8227 135.665 32.9097 135.666 33.083L135.666 33.253L138.406 33.2428L138.406 33.0728C138.405 32.8995 138.318 32.8132 138.145 32.8138L135.925 32.822ZM139.606 35.8484C139.879 35.8474 140.016 36.0102 140.018 36.3369C140.019 36.6636 139.883 36.8274 139.61 36.8284L137.93 36.8346C139.092 37.3903 139.803 37.7544 140.064 37.9267C140.211 38.0062 140.158 38.183 139.906 38.4573C139.66 38.7382 139.457 38.8256 139.297 38.7196C138.962 38.4941 138.458 38.2127 137.783 37.8752C137.282 37.6104 137.168 37.3341 137.44 37.0464L137.65 36.8357L137.33 36.8369C137.131 37.3509 136.8 37.7788 136.334 38.1206C135.876 38.4623 135.373 38.6941 134.827 38.8161C134.514 38.904 134.257 38.7883 134.056 38.469C133.854 38.1497 133.927 37.9495 134.273 37.8682C135.066 37.7186 135.652 37.3764 136.03 36.8417L134.48 36.8474C134.206 36.8484 134.069 36.6856 134.068 36.3589C134.067 36.0323 134.203 35.8684 134.476 35.8674L136.406 35.8603L136.484 35.29L135.054 35.2953C134.734 35.2965 134.573 35.1371 134.572 34.8171L134.563 32.4871C134.562 32.1671 134.722 32.0065 135.042 32.0053L139.072 31.9904C139.392 31.9892 139.552 32.1486 139.553 32.4686L139.562 34.7986C139.563 35.1186 139.404 35.2792 139.084 35.2803L137.654 35.2856L137.586 35.8559L139.606 35.8484ZM144.893 35.1288C144.947 35.3553 144.818 35.5224 144.505 35.6302C144.199 35.7381 144.015 35.6287 143.954 35.3023C142.894 35.4662 142.202 35.5788 141.875 35.64L141.595 35.721C141.336 35.7887 141.142 35.646 141.014 35.2932C140.886 34.9337 140.915 34.7102 141.101 34.6229C141.135 34.6627 141.314 34.4921 141.639 34.1109L142.306 33.2984L141.357 33.4519C141.197 33.4992 141.057 33.3563 140.935 33.0235C140.814 32.6839 140.853 32.4538 141.053 32.333L141.282 32.0722C141.481 31.8114 141.71 31.4372 141.968 30.9496C142.233 30.462 142.401 30.1047 142.474 29.8777C142.573 29.6307 142.796 29.5799 143.143 29.7253C143.497 29.8706 143.611 30.0735 143.485 30.334C143.194 30.9617 142.84 31.5564 142.422 32.1179C142.309 32.2717 142.34 32.3449 142.513 32.3376L142.993 32.2958L143.519 31.3439C143.652 31.11 143.882 31.0992 144.209 31.3113C144.543 31.5167 144.637 31.7397 144.492 31.9803C144.028 32.782 143.451 33.5675 142.76 34.3367C142.634 34.4772 142.658 34.5371 142.831 34.5164L143.711 34.4032L143.589 34.0536C143.508 33.7939 143.611 33.6169 143.897 33.5225C144.19 33.4281 144.397 33.5506 144.519 33.8902C144.707 34.3495 144.832 34.7624 144.893 35.1288ZM141.179 36.7326C141.211 36.3391 141.387 36.1685 141.707 36.2206C142.034 36.2727 142.182 36.4789 142.15 36.839C142.119 37.4658 142.024 37.9895 141.865 38.4101C141.8 38.637 141.61 38.6943 141.296 38.5822C140.989 38.4766 140.865 38.3238 140.924 38.1235C141.057 37.823 141.141 37.3594 141.179 36.7326ZM142.55 36.8275C142.495 36.4544 142.617 36.2373 142.917 36.1761C143.224 36.115 143.407 36.2643 143.469 36.6241C143.564 37.1037 143.608 37.4069 143.602 37.5336C143.623 37.7735 143.557 37.9671 143.404 38.1143C143.258 38.2682 143.028 38.3157 142.715 38.2569L142.684 38.117L142.55 36.8275ZM143.728 36.4531C143.661 36.1934 143.77 36.0163 144.056 35.9219C144.343 35.8275 144.526 35.9102 144.607 36.1699L144.86 36.9689C144.934 37.2287 144.818 37.4124 144.512 37.5202C144.206 37.628 144.019 37.5521 143.951 37.2923L143.728 36.4531ZM146.317 36.1435L146.323 37.6535L148.403 37.6458L148.397 36.1358L146.317 36.1435ZM148.379 31.3859C148.379 31.2125 148.292 31.1262 148.118 31.1268L146.558 31.1326C146.385 31.1332 146.299 31.2202 146.299 31.3936L146.304 32.5736L148.384 32.5659L148.379 31.3859ZM148.393 35.0858L148.388 33.6358L146.308 33.6436L146.313 35.0935L148.393 35.0858ZM149.533 37.6416L149.753 37.6408C150.026 37.6398 150.163 37.816 150.165 38.1693C150.166 38.5293 150.03 38.7098 149.757 38.7108L144.877 38.7289C144.61 38.7299 144.476 38.5504 144.475 38.1904C144.473 37.837 144.609 37.6599 144.883 37.6589L145.243 37.6575L145.216 30.5476C145.215 30.2276 145.374 30.067 145.694 30.0658L149.024 30.0535C149.344 30.0523 149.505 30.2117 149.506 30.5317L149.533 37.6416ZM153.144 29.9482C153.25 29.6945 153.486 29.6303 153.853 29.7556C154.227 29.8742 154.358 30.057 154.245 30.3041C154.094 30.6847 153.829 31.1957 153.451 31.8371L153.476 38.457C153.477 38.7304 153.287 38.8677 152.907 38.8691C152.534 38.8705 152.347 38.7345 152.346 38.4612L152.327 33.4812C151.989 33.9092 151.756 34.18 151.63 34.2938C151.457 34.4611 151.264 34.3385 151.049 33.926C150.841 33.5134 150.83 33.2235 151.016 33.0561C151.341 32.7816 151.733 32.3101 152.19 31.6417C152.648 30.9734 152.966 30.4089 153.144 29.9482ZM156.922 37.5742L158.382 37.5688C158.629 37.5679 158.792 37.4373 158.871 37.177C158.95 36.9167 158.999 36.5499 159.017 36.0765C159.042 35.6897 159.228 35.579 159.576 35.7444C159.93 35.9097 160.091 36.1758 160.059 36.5426C160.028 37.1761 159.903 37.6799 159.684 38.054C159.466 38.4282 159.063 38.6163 158.476 38.6185L156.806 38.6247C156.193 38.6269 155.776 38.5052 155.555 38.2593C155.334 38.0135 155.222 37.5505 155.22 36.8705L155.195 30.1206C155.194 29.8473 155.383 29.7099 155.763 29.7085C156.15 29.707 156.344 29.843 156.345 30.1163L156.353 32.2463L159.423 32.2349C159.696 32.2339 159.833 32.4234 159.835 32.8034C159.836 33.1834 159.7 33.3739 159.427 33.3749L156.357 33.3863L156.37 36.8863C156.371 37.1863 156.402 37.3762 156.462 37.4559C156.529 37.5357 156.682 37.5751 156.922 37.5742Z" fill="#2382C9"/>
<path d="M71.9789 54.4316L71.9714 52.3997L70.7714 52.4041L70.7789 54.4361L71.9789 54.4316ZM65.2675 52.4245L65.275 54.4565L66.363 54.4525L66.3554 52.4205L65.2675 52.4245ZM69.1874 52.41L67.9394 52.4146L67.947 54.4466L69.195 54.442L69.1874 52.41ZM74.6371 50.6938C75.0744 50.6921 75.2941 50.974 75.2962 51.5393C75.2983 52.1047 75.0807 52.3881 74.6434 52.3898L73.7314 52.3931L73.7389 54.4251L75.0029 54.4204C75.4403 54.4188 75.66 54.7007 75.6621 55.266C75.6642 55.8313 75.4465 56.1148 75.0092 56.1164L62.0493 56.1645C61.612 56.1661 61.3923 55.8842 61.3902 55.3189C61.3881 54.7536 61.6057 54.4701 62.043 54.4685L63.579 54.4628L63.5715 52.4308L62.5155 52.4347C62.0781 52.4363 61.8584 52.1545 61.8563 51.5891C61.8542 51.0238 62.0719 50.7403 62.5092 50.7387L63.5652 50.7348L63.5623 49.9508C63.5607 49.5135 63.8425 49.2938 64.4078 49.2917C64.9732 49.2896 65.2566 49.5072 65.2583 49.9445L65.2612 50.7285L66.3492 50.7245L66.3463 49.9405C66.3446 49.5032 66.6052 49.2835 67.1278 49.2816C67.6611 49.2796 67.9286 49.4973 67.9302 49.9346L67.9332 50.7186L69.1811 50.714L69.1782 49.93C69.1766 49.4927 69.4371 49.273 69.9598 49.2711C70.4931 49.2691 70.7606 49.4868 70.7622 49.9241L70.7651 50.7081L71.9651 50.7037L71.9622 49.9197C71.9606 49.4823 72.2531 49.2626 72.8398 49.2604C73.4264 49.2582 73.7206 49.4758 73.7222 49.9132L73.7251 50.6971L74.6371 50.6938ZM75.1865 47.8277C75.1885 48.3824 74.9709 48.6605 74.5336 48.6621L63.8776 48.7016C63.1872 49.4722 62.7089 49.9486 62.4429 50.131C62.1558 50.3667 61.83 50.2292 61.4654 49.7186C61.1008 49.2079 61.0834 48.8293 61.4132 48.5828C61.7431 48.3682 62.2001 47.9292 62.7843 47.2657C63.3792 46.5915 63.7559 46.0781 63.9146 45.7255C64.1159 45.3407 64.4888 45.238 65.0335 45.4173C65.5888 45.5966 65.7605 45.8733 65.5486 46.2474L65.1194 47.017L74.5273 46.9821C74.9647 46.9805 75.1844 47.2624 75.1865 47.8277ZM63.5185 59.711C63.2534 60.1387 62.811 60.2257 62.1914 59.972C61.5718 59.7289 61.4106 59.3935 61.7077 58.9657C62.143 58.4308 62.498 57.8055 62.7727 57.0898C62.9526 56.6838 63.3468 56.5597 63.9554 56.7174C64.5746 56.8751 64.7944 57.1676 64.6146 57.595C64.3083 58.4068 63.9429 59.1121 63.5185 59.711ZM65.8153 57.7665C65.771 57.3293 66.042 57.0777 66.6285 57.0115C67.2256 56.9453 67.5516 57.1254 67.6065 57.5519L67.8528 59.263C67.9077 59.6894 67.6207 59.9465 66.9917 60.0342C66.3734 60.1325 66.0421 59.963 65.9978 59.5259L65.8153 57.7665ZM69.175 57.6901C69.0561 57.2745 69.2952 57.0176 69.8921 56.9194C70.4891 56.8212 70.8953 57.0383 71.1106 57.5709C71.3686 58.1246 71.5359 58.652 71.6124 59.153C71.6992 59.5367 71.4228 59.7884 70.7832 59.9081C70.1544 60.0384 69.7858 59.8958 69.6776 59.4802L69.175 57.6901ZM73.1139 58.4755C72.8456 58.0285 72.7748 57.6181 72.9014 57.2442C73.0386 56.8597 73.3471 56.6399 73.8269 56.5848C73.9329 56.4031 74.1522 56.5569 74.4846 57.0464C75.0207 57.7804 75.3211 58.254 75.3859 58.467C75.5471 58.7971 75.511 59.1119 75.2774 59.4115C75.0439 59.711 74.65 59.9205 74.0957 60.0398L73.7909 59.801C73.5969 59.2683 73.3712 58.8265 73.1139 58.4755ZM82.4833 48.0407C82.9207 48.039 83.1403 48.2996 83.1422 48.8222C83.1442 49.3449 82.9265 49.607 82.4891 49.6087L77.3852 49.6276C76.9478 49.6292 76.7282 49.3687 76.7263 48.846C76.7243 48.3233 76.942 48.0612 77.3794 48.0596L79.6033 48.0513L78.7977 46.5343C78.6043 46.151 78.7631 45.8411 79.2743 45.6045C79.7854 45.3573 80.1429 45.4253 80.347 45.8086L80.8947 46.7825C81.1523 47.2296 81.0523 47.5766 80.5945 47.8237L80.1793 48.0492L82.4833 48.0407ZM81.9159 50.3628C82.3533 50.3612 82.5729 50.611 82.5747 51.1123C82.5765 51.603 82.3588 51.8492 81.9214 51.8508L78.1295 51.8648C77.6921 51.8665 77.4726 51.6219 77.4707 51.1313C77.4689 50.6299 77.6866 50.3785 78.124 50.3768L81.9159 50.3628ZM78.1377 54.0888C77.7004 54.0904 77.4808 53.8459 77.479 53.3553C77.4771 52.8539 77.6949 52.6024 78.1322 52.6008L81.9242 52.5868C82.3615 52.5851 82.5811 52.835 82.583 53.3363C82.5848 53.827 82.367 54.0731 81.9297 54.0748L78.1377 54.0888ZM80.9961 56.8782C80.995 56.6009 80.8559 56.4628 80.5785 56.4638L79.5385 56.4676C79.2612 56.4687 79.1231 56.6078 79.1241 56.8852L79.1279 57.9252C79.129 58.2025 79.2681 58.3407 79.5455 58.3396L80.5855 58.3358C80.8628 58.3347 81.001 58.1956 80.9999 57.9182L80.9961 56.8782ZM81.9167 54.8748C82.4286 54.8729 82.6856 55.128 82.6875 55.64L82.7004 59.1279C82.7023 59.6399 82.4473 59.8969 81.9353 59.8988L78.2393 59.9125C77.7273 59.9144 77.4704 59.6593 77.4685 59.1473L77.4555 55.6594C77.4536 55.1474 77.7087 54.8904 78.2207 54.8885L81.9167 54.8748ZM89.4435 56.7029C89.4425 56.4256 89.3033 56.2874 89.0259 56.2885L85.986 56.2997C85.7086 56.3008 85.5705 56.4399 85.5715 56.7173L85.5767 58.1253C85.5778 58.4026 85.7169 58.5408 85.9943 58.5397L89.0342 58.5285C89.3116 58.5274 89.4497 58.3883 89.4487 58.1109L89.4435 56.7029ZM84.5125 60.2252C84.0005 60.2271 83.7436 59.9721 83.7417 59.4601L83.7265 55.3801C83.7246 54.8681 83.9797 54.6112 84.4917 54.6093L90.6036 54.5866C91.1156 54.5847 91.3726 54.8398 91.3745 55.3518L91.3896 59.4317C91.3915 59.9437 91.1365 60.2007 90.6245 60.2026L84.5125 60.2252ZM89.0055 50.7685C89.0045 50.4912 88.8653 50.353 88.5879 50.3541L87.116 50.3595L86.7547 52.1689L89.0106 52.1605L89.0055 50.7685ZM90.8506 52.1537L91.6026 52.1509C92.04 52.1493 92.2596 52.4205 92.2616 52.9645C92.2637 53.5085 92.046 53.7813 91.6087 53.7829L83.5447 53.8128C83.1074 53.8144 82.8877 53.5432 82.8857 52.9992C82.8837 52.4552 83.1013 52.1824 83.5387 52.1808L84.8507 52.1759L85.196 50.3666L84.364 50.3697C83.9266 50.3713 83.707 50.1055 83.705 49.5721C83.703 49.0388 83.9207 48.7713 84.358 48.7697L85.478 48.7656L85.6495 47.5329L83.9375 47.5393C83.5001 47.5409 83.2805 47.2697 83.2785 46.7257C83.2764 46.1817 83.4941 45.9089 83.9314 45.9073L91.1474 45.8805C91.5847 45.8789 91.8044 46.1501 91.8064 46.6941C91.8084 47.2381 91.5908 47.5109 91.1534 47.5125L87.6015 47.5257L87.382 48.7585L90.07 48.7486C90.582 48.7467 90.8389 49.0017 90.8408 49.5137L90.8506 52.1537ZM102.562 47.5662L98.4017 47.5817L98.8539 48.7L102.118 48.6879L102.562 47.5662ZM106.774 48.6706C107.211 48.669 107.431 48.9135 107.433 49.4042C107.434 49.8949 107.217 50.141 106.779 50.1426L94.2514 50.1891C93.814 50.1907 93.5945 49.9462 93.5926 49.4555C93.5908 48.9648 93.8086 48.7187 94.2459 48.7171L96.9339 48.7071C96.7184 48.1212 96.8771 47.774 97.41 47.6653L97.8097 47.5839L95.0258 47.5942C94.5884 47.5958 94.3689 47.3513 94.367 46.8606C94.3652 46.3699 94.583 46.1238 95.0203 46.1222L99.5483 46.1054L99.4998 45.9776C99.3489 45.5621 99.5826 45.2999 100.201 45.191C100.819 45.0714 101.214 45.2139 101.386 45.6186L101.596 46.0978L105.932 46.0817C106.359 46.0802 106.573 46.3247 106.575 46.8154C106.577 47.306 106.359 47.5522 105.922 47.5538L103.298 47.5635L103.634 47.6263C104.264 47.7306 104.409 48.0821 104.07 48.6807L106.774 48.6706ZM103.828 52.6016L103.827 52.3296C103.826 52.0523 103.687 51.9141 103.41 51.9151L97.6179 51.9366C97.3405 51.9376 97.2024 52.0768 97.2034 52.3541L97.2044 52.6261L103.828 52.6016ZM103.419 54.4111C103.696 54.4101 103.835 54.2709 103.834 53.9936L103.833 53.7216L97.2086 53.7461L97.2096 54.0181C97.2106 54.2955 97.3498 54.4336 97.6271 54.4326L103.419 54.4111ZM104.941 50.7254C105.453 50.7235 105.71 50.9786 105.712 51.4906L105.725 54.8346C105.727 55.3466 105.472 55.6035 104.96 55.6054L100.832 55.6207L101.97 56.3365C102.334 56.5591 102.319 56.8685 101.926 57.2647C101.543 57.6501 101.207 57.726 100.918 57.4924C100.619 57.1735 100.292 56.9507 99.94 56.824C99.2026 56.4534 99.0518 56.054 99.4876 55.6257L96.1916 55.6379C95.6796 55.6398 95.4226 55.3848 95.4207 54.8728L95.4083 51.5288C95.4064 51.0168 95.6615 50.7598 96.1735 50.7579L104.941 50.7254ZM95.2291 59.2895C94.921 59.6106 94.4997 59.6175 93.9652 59.3102C93.4414 59.0028 93.3602 58.6831 93.7216 58.3511C94.1683 58.0081 94.5397 57.484 94.8358 56.7789C95.0475 56.3408 95.4151 56.2381 95.9387 56.4709C96.4729 56.7035 96.6182 57.055 96.3746 57.5252C95.9937 58.38 95.6119 58.9681 95.2291 59.2895ZM99.8181 58.4565L102.026 58.4483C102.325 58.4472 102.516 58.3718 102.601 58.2222L102.68 57.9499C102.753 57.4163 103.056 57.2498 103.59 57.4505C104.135 57.6405 104.355 58.013 104.25 58.5681C104.252 58.8881 104.098 59.198 103.79 59.4978C103.492 59.8082 102.965 59.9648 102.208 59.9676L99.6317 59.9772C98.6397 59.9809 97.9725 59.8447 97.6302 59.5686C97.2878 59.2925 97.1152 58.7758 97.1124 58.0185L97.1086 56.9945C97.107 56.5572 97.4155 56.3374 98.0342 56.3351C98.6528 56.3328 98.963 56.5503 98.9646 56.9876L98.9683 57.9956C98.9691 58.1983 99.0176 58.3261 99.1138 58.3791C99.2206 58.432 99.4554 58.4578 99.8181 58.4565ZM105.176 57.9406C104.865 57.5364 104.741 57.1582 104.804 56.806C104.877 56.4537 105.143 56.2501 105.602 56.195C105.654 56.0242 105.874 56.1674 106.259 56.6246C106.827 57.2305 107.122 57.6187 107.144 57.7893C107.316 58.1194 107.301 58.4288 107.099 58.7175C106.908 58.9955 106.546 59.1729 106.013 59.2495L105.772 59.0104C105.61 58.5097 105.412 58.1531 105.176 57.9406ZM119.475 47.9516L119.473 47.2316L118.625 47.2347L118.627 47.9547L119.475 47.9516ZM121.754 49.7031C121.753 49.4258 121.614 49.2876 121.336 49.2887L120.84 49.2905L120.845 50.4905L121.341 50.4887C121.618 50.4876 121.756 50.3484 121.755 50.0711L121.754 49.7031ZM118.632 49.2987L118.637 50.4987L119.485 50.4955L119.48 49.2955L118.632 49.2987ZM116.84 49.3053C116.563 49.3064 116.425 49.4455 116.426 49.7229L116.427 50.0909C116.428 50.3682 116.567 50.5063 116.845 50.5053L117.293 50.5037L117.288 49.3037L116.84 49.3053ZM117.283 47.9597L117.281 47.2397L115.233 47.2473C114.795 47.2489 114.576 46.999 114.574 46.4977C114.572 45.9964 114.784 45.7449 115.211 45.7433L123.019 45.7144C123.456 45.7128 123.676 45.9626 123.678 46.464C123.68 46.9653 123.462 47.2168 123.025 47.2184L120.833 47.2265L120.835 47.9465L122.627 47.9399C123.139 47.938 123.396 48.193 123.398 48.705L123.407 51.057C123.409 51.569 123.154 51.8259 122.642 51.8278L115.666 51.8537C115.154 51.8556 114.897 51.6005 114.895 51.0886L114.886 48.7366C114.884 48.2246 115.139 47.9676 115.651 47.9657L117.283 47.9597ZM122.1 52.3899C122.537 52.3882 122.757 52.6274 122.758 53.1074C122.76 53.5874 122.542 53.8282 122.105 53.8298L116.233 53.8516C115.796 53.8532 115.576 53.614 115.574 53.134C115.573 52.6541 115.79 52.4132 116.228 52.4116L122.1 52.3899ZM114.63 53.0575C114.802 53.3236 114.702 53.676 114.33 54.1147C113.969 54.5427 113.702 54.5597 113.53 54.1656L112.998 52.9676L113.022 59.4316C113.023 59.8689 112.736 60.0886 112.16 60.0908C111.584 60.0929 111.295 59.8753 111.294 59.438L111.271 53.422C110.797 55.0451 110.38 56.1293 110.02 56.6747C109.85 56.9633 109.615 56.7882 109.314 56.1493C109.023 55.4997 108.979 55.0198 109.18 54.7098C109.403 54.4316 109.71 53.8011 110.101 52.8183C110.492 51.8249 110.798 50.8531 111.018 49.9029L109.914 49.907C109.477 49.9086 109.257 49.6161 109.255 49.0294C109.253 48.4428 109.471 48.1486 109.908 48.147L111.252 48.142L111.243 45.8221C111.242 45.3847 111.529 45.165 112.105 45.1629C112.681 45.1607 112.97 45.3783 112.971 45.8156L112.98 48.1356L113.876 48.1323C114.313 48.1307 114.533 48.4232 114.535 49.0099C114.537 49.5965 114.32 49.8907 113.882 49.8923L112.986 49.8956L112.989 50.5996C113.182 50.8442 113.504 51.3177 113.954 52.02C114.416 52.7117 114.641 53.0575 114.63 53.0575ZM115.589 57.022C115.843 56.5517 116.243 56.3956 116.787 56.5536C117.342 56.7009 117.498 57.0043 117.254 57.4639C116.948 58.1477 116.481 58.7627 115.853 59.3091C115.545 59.6302 115.15 59.621 114.669 59.2814C114.199 58.9525 114.134 58.6434 114.474 58.3542C115.006 57.9682 115.377 57.5241 115.589 57.022ZM123.742 55.2158C123.744 55.7065 123.526 55.9526 123.089 55.9542L119.953 55.9658L119.966 59.4058C119.967 59.8431 119.685 60.0629 119.12 60.065C118.555 60.067 118.271 59.8494 118.27 59.4121L118.257 55.9721L115.281 55.9832C114.844 55.9848 114.624 55.7403 114.622 55.2496C114.62 54.7483 114.838 54.4968 115.275 54.4952L123.083 54.4662C123.521 54.4646 123.74 54.7145 123.742 55.2158ZM121.047 57.6098C120.715 57.2164 120.778 56.9015 121.236 56.6651C121.693 56.4287 122.056 56.4754 122.324 56.8051L123.53 58.2886C123.797 58.6183 123.687 58.928 123.197 59.2178C122.707 59.5077 122.355 59.4556 122.14 59.0618C121.979 58.689 121.615 58.205 121.047 57.6098ZM136.561 47.2002L134.737 47.207C134.365 47.7737 134.073 48.1374 133.861 48.2982C133.552 48.6087 133.163 48.5782 132.692 48.2066C132.222 47.835 132.151 47.5046 132.481 47.2153C133.066 46.7865 133.458 46.273 133.659 45.675C133.87 45.1835 134.264 45.0114 134.841 45.1586C135.428 45.3057 135.637 45.577 135.468 45.9723L135.42 46.0524L139.18 46.0385C139.618 46.0369 139.837 46.2281 139.838 46.6121C139.84 46.9961 139.622 47.1889 139.185 47.1905L137.153 47.198C137.57 47.5485 137.746 47.7132 137.682 47.6921C137.929 47.9898 137.791 48.257 137.269 48.4936C136.748 48.7302 136.342 48.689 136.053 48.3701C135.657 47.9129 135.751 47.5552 136.337 47.2971L136.561 47.2002ZM136.89 49.807C136.644 49.4559 136.739 49.1676 137.175 48.942C137.622 48.7056 137.98 48.7576 138.248 49.098L138.826 49.8478C139.094 50.1882 138.994 50.4872 138.526 50.745C138.057 51.0027 137.7 50.956 137.453 50.6049L136.89 49.807ZM129.393 47.2428L127.889 47.2484C127.39 47.8689 127.018 48.2756 126.773 48.4685C126.454 48.747 126.081 48.6737 125.652 48.2487C125.235 47.8129 125.207 47.4556 125.568 47.177C126.228 46.7265 126.696 46.2128 126.971 45.6358C127.236 45.1868 127.646 45.0466 128.201 45.2152C128.767 45.3838 128.944 45.6604 128.732 46.0452L128.716 46.0613L131.628 46.0505C132.066 46.0489 132.285 46.2454 132.286 46.6401C132.288 47.0347 132.07 47.2329 131.633 47.2345L130.273 47.2395L130.851 47.7654C131.161 48.0629 131.066 48.3406 130.566 48.5985C130.065 48.8563 129.665 48.8311 129.365 48.5229L129.189 48.3476C128.739 47.9012 128.807 47.533 129.393 47.2428ZM132.968 57.8376C133.491 57.8143 133.752 57.968 133.754 58.2987C134.392 57.8697 134.897 57.4571 135.269 57.0611C134.859 55.8573 134.571 54.3916 134.405 52.6642L131.797 52.6739L131.799 53.3139L133.079 53.3092C133.517 53.3075 133.736 53.4721 133.737 53.8027C133.738 54.1334 133.52 54.2995 133.083 54.3012L131.803 54.3059L131.805 54.8659L132.989 54.8615C133.426 54.8599 133.646 55.0191 133.647 55.3391C133.648 55.6484 133.43 55.8039 132.992 55.8055L131.808 55.8099L131.811 56.3699L133.251 56.3646C133.688 56.3629 133.907 56.5328 133.908 56.8741C133.91 57.2048 133.692 57.3709 133.254 57.3725L131.814 57.3779L131.816 57.9219L132.968 57.8376ZM129.349 52.683L129.369 58.075L130.313 58.0235L130.293 52.6795L129.349 52.683ZM126.912 51.38L128.912 51.3726C128.676 51.0321 128.403 50.7185 128.093 50.4316C127.752 50.7849 127.359 51.101 126.912 51.38ZM130.319 50.9834C130.104 50.7708 129.891 50.745 129.678 50.9058L129.088 51.3719L130.688 51.366L130.319 50.9834ZM131.152 51.3643L132.752 51.3584C132.538 51.0925 132.297 50.8267 132.029 50.561C131.795 50.8392 131.503 51.107 131.152 51.3643ZM137.624 53.4683C137.761 53.0625 138.075 52.928 138.566 53.0648C139.068 53.191 139.24 53.473 139.081 53.9109C138.744 55.0215 138.114 56.1492 137.19 57.294C137.502 57.8901 137.823 58.1876 138.153 58.1864C138.292 58.1859 138.393 58.0788 138.456 57.8653L138.518 57.401C138.57 56.9635 138.82 56.8826 139.27 57.1582C139.719 57.4339 139.891 57.8493 139.786 58.4043C139.777 58.7457 139.634 59.0769 139.358 59.3979C139.082 59.719 138.64 59.8806 138.032 59.8829C137.242 59.8858 136.558 59.451 135.979 58.5785C135.266 59.1891 134.75 59.5697 134.431 59.7202C134.037 59.967 133.685 59.9043 133.374 59.5321L132.989 59.0855C130.067 59.3417 127.742 59.521 126.015 59.6234C125.652 59.6567 125.438 59.4442 125.372 58.9858C125.306 58.5273 125.492 58.2867 125.93 58.2637L127.865 58.1605L127.863 57.4725L126.327 57.4782C125.889 57.4798 125.67 57.3153 125.669 56.9847C125.668 56.6433 125.886 56.4719 126.323 56.4702L127.859 56.4645L127.857 55.8565L126.689 55.8609C126.251 55.8625 126.032 55.7086 126.031 55.3993C126.03 55.0793 126.248 54.9185 126.685 54.9169L127.853 54.9125L127.851 54.3366L126.539 54.3414C126.102 54.343 125.882 54.1838 125.881 53.8639C125.88 53.5332 126.098 53.367 126.535 53.3654L127.847 53.3606L127.845 52.6886L125.845 52.696C125.408 52.6976 125.188 52.4797 125.186 52.0424C125.185 51.6051 125.403 51.3856 125.84 51.384L126.56 51.3813L126.351 51.1741C125.902 50.7171 126.039 50.2899 126.762 49.8926C127.114 49.8379 127.327 49.5438 127.399 49.0102C127.558 48.5936 127.872 48.4164 128.341 48.4787C128.821 48.5409 128.982 48.807 128.824 49.2769L130.029 50.4405C130.838 50.0001 131.263 49.5559 131.304 49.1077C131.451 48.6698 131.76 48.482 132.23 48.5443C132.699 48.5959 132.876 48.8299 132.76 49.2463L132.713 49.3585C133.28 49.8151 133.569 50.086 133.58 50.1713C133.88 50.5222 133.827 50.8477 133.423 51.1479L133.152 51.3569L134.288 51.3527L134.201 49.433C134.189 48.9957 134.476 48.776 135.062 48.7738C135.66 48.7716 135.965 48.9891 135.977 49.4264L136.032 51.3462L139.152 51.3346C139.589 51.333 139.809 51.5509 139.81 51.9882C139.812 52.4255 139.594 52.645 139.157 52.6466L136.133 52.6578C136.254 53.7774 136.407 54.7155 136.591 55.4722C137.153 54.6167 137.498 53.9488 137.624 53.4683Z" fill="black" fill-opacity="0.85"/>
</g>
<defs>
<clipPath id="clip0_2306_6427">
<rect width="200" height="90" fill="white"/>
</clipPath>
</defs>
</svg>
