<svg width="720" height="207" viewBox="0 0 720 207" fill="none" xmlns="http://www.w3.org/2000/svg">
<path d="M196 145C196 176.204 152.124 201.5 98 201.5C43.8761 201.5 0 176.204 0 145C0 113.796 43.8761 88.5 98 88.5C152.124 88.5 196 113.796 196 145Z" fill="white"/>
<path d="M582 167C582 188.815 612.892 206.5 651 206.5C689.108 206.5 720 188.815 720 167C720 145.185 689.108 127.5 651 127.5C612.892 127.5 582 145.185 582 167Z" fill="white"/>
<path d="M278 71C278 102.204 234.124 127.5 180 127.5C125.876 127.5 82 102.204 82 71C82 39.7959 125.876 14.5 180 14.5C234.124 14.5 278 39.7959 278 71Z" fill="white"/>
<path d="M525 115C525 136.815 555.668 154.5 593.5 154.5C631.332 154.5 662 136.815 662 115C662 93.1848 631.332 75.5 593.5 75.5C555.668 75.5 525 93.1848 525 115Z" fill="white"/>
<path d="M356 143C356 174.204 312.124 199.5 258 199.5C203.876 199.5 160 174.204 160 143C160 111.796 203.876 86.5 258 86.5C312.124 86.5 356 111.796 356 143Z" fill="white"/>
<path d="M513 165.5C513 187.591 534.043 205.5 560 205.5C585.957 205.5 607 187.591 607 165.5C607 143.409 585.957 125.5 560 125.5C534.043 125.5 513 143.409 513 165.5Z" fill="white"/>
<path d="M349 57C349 88.2041 322.137 113.5 289 113.5C255.863 113.5 229 88.2041 229 57C229 25.7959 255.863 0.5 289 0.5C322.137 0.5 349 25.7959 349 57Z" fill="white"/>
<path d="M475 105C475 126.815 493.804 144.5 517 144.5C540.196 144.5 559 126.815 559 105C559 83.1848 540.196 65.5 517 65.5C493.804 65.5 475 83.1848 475 105Z" fill="white"/>
</svg>
