<svg width="200" height="90" viewBox="0 0 200 90" fill="none" xmlns="http://www.w3.org/2000/svg">
<g clip-path="url(#clip0_1720_1890)">
<rect width="200" height="90" fill="#FEB79D"/>
<path fill-rule="evenodd" clip-rule="evenodd" d="M-6.18027 85.5257C-5.5206 81.3514 -9.94765 77.2571 -7.65473 73.2393C-4.94813 68.4966 -1.65241 61.9915 7.77154 61.0783C17.9972 60.0873 23.5998 68.8258 33.9785 69.2048C45.8176 69.6371 56.5881 60.196 66.8872 63.2371C76.2425 65.9996 70.121 74.0119 68.9752 79.5387C68.1676 83.4341 61.5364 86.4306 61.2669 90.3457C60.8502 96.3973 75.7689 103.853 67.0229 107.895C58.3557 111.9 45.7383 103.802 34.2527 102.83C27.3162 102.243 20.5655 103.925 13.6182 103.373C4.65786 102.66 -7.2514 103.227 -11.7526 99.1698C-16.3208 95.0519 -6.92748 90.2539 -6.18027 85.5257Z" fill="#FE585B"/>
<path fill-rule="evenodd" clip-rule="evenodd" d="M28.4743 10.5302C32.6486 10.8717 36.7429 8.58004 40.7607 9.76696C45.5034 11.168 52.0085 12.874 52.9217 17.7523C53.9127 23.0456 45.1742 25.9458 44.7952 31.3183C44.3629 37.4467 53.804 43.0221 50.7629 48.3534C48.0004 53.1961 39.9881 50.0274 34.4613 49.4342C30.5659 49.0162 27.5694 45.5836 23.6543 45.444C17.6027 45.2284 10.1469 52.9509 6.10508 48.4236C2.09968 43.9371 10.1975 37.4057 11.1701 31.4602C11.7575 27.8695 10.0747 24.3751 10.6274 20.7788C11.3402 16.1405 10.7727 9.97575 14.8302 7.64571C18.9481 5.281 23.7461 10.1434 28.4743 10.5302Z" fill="#FC7443"/>
<path fill-rule="evenodd" clip-rule="evenodd" d="M173.474 4.53021C177.649 4.87169 181.743 2.58004 185.761 3.76696C190.503 5.16803 197.008 6.87405 197.922 11.7523C198.913 17.0456 190.174 19.9458 189.795 25.3183C189.363 31.4467 198.804 37.0221 195.763 42.3534C193 47.1961 184.988 44.0274 179.461 43.4342C175.566 43.0162 172.569 39.5836 168.654 39.444C162.603 39.2284 155.147 46.9509 151.105 42.4236C147.1 37.9371 155.198 31.4057 156.17 25.4602C156.757 21.8695 155.075 18.3751 155.627 14.7788C156.34 10.1405 155.773 3.97575 159.83 1.64571C163.948 -0.719004 168.746 4.14342 173.474 4.53021Z" fill="#FF8787"/>
<path fill-rule="evenodd" clip-rule="evenodd" d="M117.063 7.20494C131.49 7.9797 144.155 11.9054 154.996 17.5775C166.733 23.7188 176.896 30.8598 179.688 39.9711C183.097 51.0949 184.354 63.7453 171.749 72.2549C158.691 81.0707 136.857 81.4742 117.063 82.2497C95.2362 83.1048 71.8992 84.7511 54.6033 76.8446C35.6156 68.1646 20.8565 53.9771 24.5773 39.9711C28.0889 26.7526 52.1053 19.9805 71.5388 13.0955C85.3864 8.18958 100.98 6.34119 117.063 7.20494Z" fill="#FFAB7A"/>
<ellipse cx="177.987" cy="70.7269" rx="16.7876" ry="14.0511" fill="#F55A57"/>
<ellipse cx="173.711" cy="65.6395" rx="1.21537" ry="2.15126" fill="black"/>
<ellipse cx="182.286" cy="65.6395" rx="1.21537" ry="2.15126" fill="black"/>
<path d="M173.043 72.6445C173.079 74.5722 175.312 76.0937 178.031 76.0428C180.749 75.9919 182.924 74.388 182.888 72.4603C182.852 70.5326 180.67 71.7825 177.952 71.8334C175.233 71.8843 173.007 70.7168 173.043 72.6445Z" fill="black"/>
<path d="M170.796 50.9035C173.677 48.6452 180.1 51.1915 180.1 55.0219C180.101 59.542 168.086 61.6232 165.801 61.9782C165.552 62.0169 165.303 62.044 165.054 62.039C163.425 62.0062 157.615 61.2375 170.796 50.9035Z" fill="#6E5232"/>
<path d="M170.796 50.9035C173.677 48.6452 180.1 51.1915 180.1 55.0219C180.101 59.542 168.086 61.6232 165.801 61.9782C165.552 62.0169 165.303 62.044 165.054 62.039C163.425 62.0062 157.615 61.2375 170.796 50.9035Z" fill="url(#paint0_radial_1720_1890)" fill-opacity="0.15"/>
<path d="M185.2 50.7629C182.319 48.5045 175.896 51.0509 175.896 54.8813C175.896 59.4014 187.91 61.4825 190.195 61.8375C190.445 61.8763 190.693 61.9034 190.942 61.8984C192.571 61.8656 198.381 61.0968 185.2 50.7629Z" fill="#6E5232"/>
<path d="M185.2 50.7629C182.319 48.5045 175.896 51.0509 175.896 54.8813C175.896 59.4014 187.91 61.4825 190.195 61.8375C190.445 61.8763 190.693 61.9034 190.942 61.8984C192.571 61.8656 198.381 61.0968 185.2 50.7629Z" fill="url(#paint1_radial_1720_1890)" fill-opacity="0.15"/>
<path d="M79.5669 37.2154C79.1138 37.2571 78.8565 37.0947 78.7951 36.7283C78.7678 36.5551 78.8073 36.4016 78.9134 36.2679C79.0263 36.1341 79.186 36.0602 79.3926 36.0461C80.0457 35.9903 80.6887 35.8913 81.3215 35.7489C81.961 35.6066 82.5637 35.431 83.1296 35.2222C83.0626 35.1425 82.9923 35.0594 82.9187 34.973C82.845 34.8866 82.7881 34.8202 82.7479 34.7736C82.5805 34.5809 82.5498 34.381 82.6557 34.174C82.0834 34.4561 81.5142 34.6849 80.9482 34.8603C80.7418 34.9277 80.5585 34.9284 80.3982 34.8624C80.2446 34.7896 80.1375 34.6667 80.0769 34.4935C80.0162 34.3204 80.0323 34.1637 80.1251 34.0234C80.2246 33.8763 80.3709 33.7758 80.564 33.7217C80.917 33.6271 81.2898 33.4957 81.6826 33.3276C82.0752 33.1528 82.4645 32.958 82.8504 32.7432C83.2362 32.5218 83.5954 32.2938 83.9279 32.0593C84.267 31.818 84.5494 31.5803 84.7752 31.3461C84.928 31.1922 85.0877 31.1149 85.2544 31.1143C85.4277 31.1137 85.5746 31.1698 85.695 31.2827C85.8154 31.4022 85.8726 31.5387 85.8665 31.6921C85.8671 31.8454 85.8109 31.9789 85.698 32.0927C85.5718 32.2198 85.4389 32.3437 85.2994 32.4642L86.0194 32.4615C86.346 32.4603 86.6096 32.5193 86.81 32.6386C87.0105 32.7512 87.1443 32.9007 87.2117 33.0871C87.2857 33.2735 87.2898 33.4768 87.224 33.697C87.1648 33.9106 87.0355 34.1177 86.8363 34.3185C86.4577 34.7066 86.0023 35.0616 85.4702 35.3836C84.9381 35.7055 84.3524 35.991 83.7134 36.2401C83.0809 36.4891 82.4117 36.6949 81.7056 36.8575C81.0063 37.0268 80.2934 37.1461 79.5669 37.2154ZM79.3435 33.5963C79.1504 33.6436 78.977 33.6343 78.8234 33.5682C78.6698 33.5021 78.5661 33.3825 78.5121 33.2093C78.4648 33.0428 78.4843 32.8928 78.5704 32.7591C78.6566 32.6188 78.7996 32.5249 78.9994 32.4775C79.5123 32.3623 80.0117 32.2138 80.4977 32.032C80.9904 31.8501 81.453 31.6518 81.8855 31.4368L81.4841 31.0383C81.3101 30.8656 81.2561 30.6791 81.322 30.4789C81.0959 30.6264 80.8664 30.7673 80.6336 30.9015C80.4074 31.029 80.1811 31.1498 79.9549 31.264C79.7685 31.3513 79.5886 31.3787 79.4152 31.346C79.2484 31.3133 79.1281 31.227 79.0542 31.0873C78.967 30.9343 78.9531 30.781 79.0125 30.6275C79.0719 30.4672 79.1848 30.3502 79.3512 30.2762C79.7838 30.0746 80.2196 29.833 80.6585 29.5514C81.0975 29.2697 81.5064 28.9715 81.8852 28.6568C82.2707 28.342 82.593 28.0475 82.852 27.7732C82.9848 27.6394 83.1312 27.5688 83.2912 27.5616C83.4578 27.5476 83.6013 27.5938 83.7217 27.7C83.8354 27.8062 83.8959 27.9327 83.9031 28.0793C83.917 28.2259 83.8708 28.3561 83.7646 28.4698C83.7447 28.4966 83.7214 28.5233 83.6949 28.5501C83.6749 28.5702 83.655 28.5902 83.6351 28.6103L84.4851 28.6072C84.8651 28.6058 85.1554 28.698 85.3561 28.8839C85.5634 29.0632 85.6576 29.2928 85.6387 29.5729C85.6197 29.853 85.4641 30.1369 85.1718 30.4246C84.4744 31.1139 83.64 31.7303 82.6687 32.2739C81.704 32.8108 80.5956 33.2516 79.3435 33.5963ZM84.3975 34.6675C84.6504 34.5333 84.8832 34.3991 85.096 34.2649C85.3155 34.1241 85.5083 33.9801 85.6745 33.8328C85.8073 33.7123 85.8603 33.6154 85.8334 33.5422C85.8064 33.469 85.7063 33.4327 85.533 33.4333L83.973 33.4391C83.8865 33.4927 83.7967 33.5497 83.7036 33.6101C83.6105 33.6638 83.5173 33.7174 83.4242 33.7711C83.5643 33.7906 83.6879 33.8602 83.795 33.9798C83.8619 34.0595 83.9557 34.1692 84.0762 34.3087C84.2034 34.4416 84.3105 34.5612 84.3975 34.6675ZM83.073 30.7524C83.492 30.4709 83.8543 30.1862 84.1599 29.8984C84.2861 29.7779 84.3357 29.6844 84.3088 29.6178C84.2819 29.5446 84.1817 29.5083 84.0084 29.5089L82.6584 29.5139C82.5654 29.5876 82.4656 29.6647 82.3593 29.745C82.2596 29.8254 82.1565 29.9025 82.0501 29.9762C82.1968 29.9823 82.3304 30.0418 82.4508 30.1547C82.5244 30.2211 82.6214 30.3141 82.7418 30.4336C82.8689 30.5532 82.9793 30.6594 83.073 30.7524ZM94.5665 37.0699C94.4132 37.0704 94.2796 37.0176 94.1659 36.9113C94.0589 36.8117 94.0051 36.6786 94.0044 36.5119L93.9986 34.9419C93.733 35.2296 93.4307 35.5141 93.0918 35.7953C92.7595 36.0765 92.4371 36.3211 92.1245 36.5289C91.9781 36.6161 91.8283 36.6533 91.6749 36.6406C91.5215 36.6345 91.4013 36.5682 91.3142 36.4419C91.2271 36.3289 91.1933 36.2023 91.2128 36.0623C91.2389 35.9155 91.3118 35.8052 91.4315 35.7315C91.6577 35.5973 91.8905 35.4398 92.1298 35.2589C92.3758 35.0713 92.6084 34.8804 92.8277 34.6863C93.0536 34.4854 93.2496 34.298 93.4156 34.1241L92.0956 34.129C91.9556 34.1295 91.8354 34.0833 91.7351 33.9903C91.6414 33.8907 91.5943 33.7708 91.5937 33.6308C91.5932 33.4975 91.6395 33.384 91.7325 33.2903C91.8321 33.19 91.9519 33.1395 92.0919 33.139L93.9919 33.132L93.9897 32.542C93.6163 32.5167 93.3294 32.4544 93.129 32.3551C92.9287 32.2559 92.7914 32.1097 92.7174 31.9167C92.6433 31.7169 92.6057 31.4604 92.6045 31.1471L92.599 29.6471L92.049 29.6491C91.9223 29.6496 91.8088 29.6034 91.7085 29.5104C91.6148 29.4174 91.5677 29.3042 91.5672 29.1709C91.5667 29.0376 91.613 28.9241 91.706 28.8304C91.8056 28.7367 91.9188 28.6896 92.0454 28.6891L92.5954 28.6871L92.5939 28.2671C92.5932 28.0938 92.6461 27.9602 92.7524 27.8665C92.8587 27.7661 92.9852 27.7156 93.1318 27.7151C93.2852 27.7145 93.4153 27.7641 93.5224 27.8637C93.6294 27.9566 93.6832 28.0897 93.6839 28.2631L93.6854 28.6831L95.4054 28.6767L95.4039 28.2667C95.4032 28.0934 95.4561 27.9565 95.5624 27.8561C95.6753 27.7557 95.8085 27.7052 95.9618 27.7046C96.1151 27.704 96.2453 27.7536 96.3524 27.8532C96.4661 27.9527 96.5232 28.0892 96.5239 28.2625L96.5254 28.6725L97.1154 28.6703C97.2487 28.6699 97.3622 28.7161 97.4559 28.8091C97.5496 28.9021 97.5967 29.0152 97.5972 29.1486C97.5977 29.2819 97.5514 29.3954 97.4584 29.4891C97.3654 29.5828 97.2523 29.6298 97.119 29.6303L96.529 29.6325L96.5345 31.1325C96.5357 31.4525 96.4967 31.7127 96.4174 31.913C96.3448 32.1066 96.2053 32.2537 95.999 32.3545C95.7927 32.4486 95.4963 32.5097 95.1097 32.5378L95.1119 33.1278L97.1819 33.1201C97.3152 33.1196 97.4287 33.1692 97.5224 33.2689C97.6228 33.3618 97.6732 33.475 97.6737 33.6083C97.6742 33.7483 97.6247 33.8685 97.525 33.9689C97.4321 34.0625 97.3189 34.1096 97.1856 34.1101L95.7556 34.1154C95.9095 34.2682 96.0868 34.4342 96.2874 34.6135C96.4947 34.786 96.7054 34.9552 96.9193 35.1211C97.1399 35.2803 97.3471 35.4195 97.5409 35.5388C97.6678 35.6183 97.7449 35.7381 97.7722 35.898C97.7994 36.0512 97.7666 36.188 97.6737 36.3083C97.5675 36.4421 97.4345 36.5192 97.2746 36.5398C97.1213 36.5604 96.9778 36.5209 96.8441 36.4214C96.5567 36.2091 96.2558 35.9636 95.9414 35.6847C95.6337 35.4059 95.3593 35.1269 95.1183 34.8478L95.1244 36.5078C95.125 36.6744 95.0689 36.808 94.9559 36.9084C94.8496 37.0155 94.7198 37.0693 94.5665 37.0699ZM88.7152 36.7215C88.5948 36.6153 88.5343 36.4889 88.5338 36.3422C88.5332 36.1955 88.5861 36.072 88.6924 35.9716C89.1773 35.5031 89.5722 35.005 89.8769 34.4772C89.8368 34.4507 89.7967 34.4275 89.7566 34.4077C89.7232 34.3811 89.6864 34.3546 89.6463 34.3281C89.3589 34.1291 89.1416 33.9499 88.9943 33.7905C88.8537 33.6243 88.773 33.4346 88.7522 33.2214C88.7381 33.0014 88.767 32.718 88.8391 32.371C88.8915 32.1442 88.9373 31.9107 88.9765 31.6705C89.0222 31.4304 89.068 31.1869 89.1138 30.94L88.6938 30.9416C88.5604 30.9421 88.4436 30.8925 88.3432 30.7929C88.2495 30.6866 88.2024 30.5667 88.2019 30.4334C88.2014 30.3001 88.2476 30.1832 88.3406 30.0829C88.4402 29.9758 88.5566 29.9221 88.69 29.9216L89.27 29.9194C89.3089 29.6326 89.3445 29.3525 89.3769 29.079C89.4158 28.8056 89.4449 28.5521 89.464 28.3187C89.4834 28.1386 89.5462 28.0117 89.6526 27.938C89.7657 27.8642 89.8956 27.8338 90.0423 27.8466C90.189 27.8593 90.3092 27.9156 90.4029 28.0152C90.5033 28.1149 90.5405 28.2547 90.5145 28.4348C90.4886 28.6482 90.4561 28.8817 90.4171 29.1352C90.378 29.3887 90.339 29.6488 90.3 29.9156C90.8467 29.9203 91.2304 30.0288 91.4512 30.2414C91.6786 30.4538 91.7767 30.8435 91.7455 31.4103C91.7208 31.937 91.6593 32.4273 91.561 32.881C91.4693 33.328 91.3475 33.7484 91.1956 34.1423C91.3226 34.2285 91.4363 34.3114 91.5366 34.3911C91.6435 34.4707 91.7338 34.5437 91.8074 34.6101C91.9411 34.7162 92.0049 34.8493 91.9989 35.0094C91.9928 35.1627 91.9333 35.3029 91.8204 35.43C91.7208 35.5371 91.5944 35.5942 91.441 35.6014C91.2944 35.602 91.1642 35.5491 91.0505 35.4429C90.9969 35.3897 90.9401 35.3366 90.8799 35.2835C90.8196 35.2237 90.7628 35.1706 90.7093 35.1241C90.5503 35.3914 90.3746 35.652 90.1822 35.9061C89.9898 36.1601 89.7774 36.4076 89.5449 36.6485C89.4387 36.7689 89.3056 36.836 89.1457 36.8499C88.9857 36.8705 88.8422 36.8277 88.7152 36.7215ZM90.3134 33.5356C90.4255 33.2152 90.5143 32.8815 90.5797 32.5346C90.6451 32.1877 90.6904 31.8208 90.7156 31.4341C90.7282 31.2274 90.6977 31.0942 90.6241 31.0344C90.5572 30.968 90.4137 30.9352 90.1937 30.936L90.1337 30.9362C90.0815 31.2431 90.0293 31.54 89.977 31.8268C89.9248 32.1137 89.8757 32.3672 89.8299 32.5874C89.7971 32.7542 89.7843 32.8875 89.7913 32.9875C89.7984 33.0808 89.8353 33.164 89.9023 33.2371C89.9759 33.3035 90.0862 33.3864 90.2332 33.4859L90.3134 33.5356ZM93.691 30.193L95.411 30.1867L95.409 29.6367L93.689 29.6431L93.691 30.193ZM94.5562 31.5999C94.8096 31.5989 94.9962 31.5882 95.1161 31.5678C95.2427 31.5406 95.3225 31.4903 95.3556 31.4169C95.3953 31.3367 95.4148 31.2233 95.4143 31.0767L95.4142 31.0467L93.6942 31.053L93.6943 31.083C93.6949 31.2297 93.7119 31.343 93.7456 31.4229C93.7858 31.496 93.866 31.5457 93.9861 31.572C94.1129 31.5915 94.3029 31.6008 94.5562 31.5999ZM99.4363 37.0118C99.3097 37.0123 99.1995 36.9693 99.1058 36.883C99.0122 36.8034 98.9651 36.6902 98.9646 36.5435L98.9508 32.8336C98.9504 32.7202 98.96 32.6202 98.9797 32.5335C98.9531 32.5402 98.9264 32.547 98.8998 32.5538C98.8798 32.5538 98.8565 32.5539 98.8298 32.554C98.7031 32.5545 98.593 32.5149 98.4994 32.4352C98.4057 32.3489 98.3586 32.2324 98.3581 32.0858L98.3557 31.4358C98.3547 31.1824 98.394 30.989 98.4735 30.8553C98.5597 30.7217 98.6993 30.6312 98.8925 30.5838L98.8866 28.9938C98.8851 28.6005 98.9675 28.3235 99.1335 28.1629C99.2996 27.9956 99.5759 27.9112 99.9626 27.9098L100.953 27.9061C101.346 27.9047 101.623 27.987 101.784 28.153C101.944 28.3124 102.025 28.5888 102.027 28.9821L102.033 30.5921C102.206 30.6382 102.33 30.7277 102.404 30.8608C102.484 30.9938 102.525 31.1803 102.526 31.4203L102.528 32.0703C102.529 32.217 102.482 32.3338 102.389 32.4208C102.296 32.5012 102.183 32.5416 102.05 32.5421C102.023 32.5422 102 32.5423 101.98 32.5423C101.96 32.5358 101.936 32.5292 101.91 32.5226C101.923 32.5692 101.93 32.6192 101.93 32.6725C101.93 32.7192 101.931 32.7692 101.931 32.8225L101.942 35.9225C101.944 36.2625 101.865 36.5195 101.705 36.6934C101.546 36.8673 101.293 36.9616 100.946 36.9762C100.8 36.9834 100.673 36.9506 100.566 36.8776C100.466 36.8047 100.405 36.7015 100.385 36.5683C100.364 36.4417 100.384 36.3283 100.443 36.2281C100.51 36.1278 100.603 36.0675 100.723 36.047C100.843 36.0332 100.923 36.003 100.962 35.9561C101.002 35.9093 101.022 35.8259 101.022 35.7059L101.019 35.0659L99.8891 35.0701L99.8946 36.5401C99.8951 36.6868 99.8522 36.8003 99.7658 36.8806C99.6795 36.9676 99.5697 37.0113 99.4363 37.0118ZM102.836 36.7892C102.709 36.7897 102.609 36.7467 102.535 36.6603C102.461 36.5806 102.424 36.4841 102.424 36.3707C102.424 36.2574 102.46 36.1606 102.533 36.0803C102.606 35.9934 102.706 35.9497 102.832 35.9492L103.902 35.9452C103.869 35.852 103.832 35.7588 103.791 35.6656C103.758 35.5724 103.727 35.4992 103.701 35.446C103.667 35.3528 103.663 35.2628 103.69 35.176C103.723 35.0826 103.779 35.0124 103.859 34.9654C103.592 34.9331 103.402 34.8438 103.288 34.6975C103.174 34.5446 103.116 34.3115 103.115 33.9981C103.114 33.6315 103.19 33.3745 103.342 33.2273C103.502 33.08 103.765 33.0057 104.132 33.0044L106.071 32.9972C106.438 32.9958 106.698 33.0682 106.852 33.2143C107.013 33.3604 107.094 33.6167 107.095 33.9834C107.096 34.2967 107.041 34.5303 106.928 34.684C106.815 34.8311 106.629 34.9218 106.369 34.9561C106.429 35.0092 106.473 35.0757 106.499 35.1556C106.526 35.2288 106.523 35.3122 106.49 35.4056C106.477 35.4524 106.451 35.5258 106.411 35.6259C106.372 35.7261 106.332 35.8296 106.292 35.9364L107.312 35.9326C107.446 35.9321 107.546 35.9751 107.613 36.0615C107.686 36.1412 107.724 36.2377 107.724 36.3511C107.724 36.4644 107.688 36.5612 107.615 36.6415C107.549 36.7284 107.449 36.7721 107.315 36.7726L102.836 36.7892ZM104.116 31.4944C103.629 31.4962 103.289 31.4075 103.095 31.2282C102.908 31.0489 102.813 30.7259 102.811 30.2592L102.809 29.7292C102.808 29.2693 102.9 28.9489 103.086 28.7682C103.278 28.5875 103.611 28.4963 104.085 28.4945L104.083 27.9445C104.082 27.8245 104.119 27.7344 104.192 27.6741C104.265 27.6072 104.355 27.5735 104.461 27.5731C104.561 27.5727 104.648 27.6058 104.722 27.6721C104.795 27.7319 104.832 27.8217 104.833 27.9417L104.835 28.4817L105.285 28.4801L105.283 27.9401C105.282 27.8201 105.319 27.7299 105.392 27.6697C105.465 27.6027 105.551 27.5691 105.651 27.5687C105.758 27.5683 105.848 27.6013 105.922 27.6677C105.995 27.7274 106.032 27.8173 106.033 27.9373L106.035 28.4773C106.521 28.4821 106.858 28.5742 107.046 28.7535C107.24 28.9262 107.338 29.2458 107.339 29.7125L107.341 30.2425C107.343 30.7091 107.248 31.0328 107.055 31.2135C106.869 31.3942 106.529 31.4855 106.036 31.4873L104.116 31.4944ZM102.96 32.6687C102.834 32.6692 102.733 32.6296 102.66 32.5498C102.586 32.4634 102.549 32.3636 102.549 32.2502C102.548 32.1369 102.585 32.0401 102.658 31.9598C102.731 31.8729 102.83 31.8292 102.957 31.8287L107.187 31.813C107.32 31.8125 107.424 31.8555 107.498 31.9419C107.571 32.0216 107.608 32.1181 107.609 32.2315C107.609 32.3448 107.573 32.4449 107.5 32.5319C107.427 32.6122 107.324 32.6525 107.19 32.653L102.96 32.6687ZM104.426 34.3033L105.786 34.2982C105.9 34.2978 105.98 34.2775 106.026 34.2374C106.079 34.1972 106.106 34.1137 106.105 33.9871C106.105 33.8537 106.078 33.7705 106.024 33.7374C105.977 33.6975 105.897 33.6778 105.784 33.6783L104.424 33.6833C104.304 33.6837 104.221 33.704 104.174 33.7442C104.128 33.7777 104.105 33.8611 104.105 33.9945C104.106 34.1211 104.129 34.2044 104.176 34.2442C104.223 34.284 104.306 34.3037 104.426 34.3033ZM99.7123 30.5407L100.092 30.5393L100.09 29.9793C100.089 29.6593 100.148 29.4424 100.268 29.3287C100.394 29.2082 100.617 29.1474 100.937 29.1462L101.197 29.1452C101.197 28.9719 101.163 28.862 101.096 28.8156C101.036 28.7625 100.916 28.7363 100.736 28.7369L100.176 28.739C99.989 28.7397 99.8625 28.7702 99.796 28.8304C99.7362 28.884 99.7067 29.0074 99.7074 29.2007L99.7123 30.5407ZM99.2977 31.9923C99.3842 31.9386 99.4874 31.9016 99.6073 31.8811C99.7272 31.854 99.8638 31.8402 100.017 31.8396L100.867 31.8365C101.02 31.8359 101.157 31.8487 101.277 31.8749C101.397 31.8945 101.501 31.9308 101.588 31.9838L101.587 31.7638C101.586 31.5838 101.559 31.4739 101.506 31.4341C101.452 31.3876 101.332 31.3647 101.145 31.3654L99.7454 31.3706C99.5588 31.3713 99.4355 31.3951 99.3757 31.442C99.3225 31.4889 99.2963 31.6056 99.297 31.7923L99.2977 31.9923ZM104.812 35.9419L105.342 35.9399C105.382 35.8264 105.428 35.6896 105.481 35.5294C105.534 35.3625 105.573 35.2357 105.599 35.1489C105.613 35.1156 105.626 35.0855 105.639 35.0588C105.659 35.0254 105.682 34.9986 105.709 34.9785L104.439 34.9832C104.499 35.0364 104.546 35.1028 104.58 35.1827C104.613 35.2626 104.65 35.3625 104.691 35.4823C104.731 35.6022 104.765 35.7087 104.792 35.8019C104.805 35.8286 104.812 35.8519 104.812 35.8719C104.812 35.8919 104.812 35.9152 104.812 35.9419ZM99.8865 34.3601L101.016 34.3559L101.015 33.8359L99.8846 33.8401L99.8865 34.3601ZM99.8819 33.1301L101.012 33.1259L101.011 33.0059C101.011 32.8326 100.984 32.726 100.93 32.6862C100.883 32.6464 100.777 32.6268 100.61 32.6274L100.28 32.6286C100.12 32.6292 100.013 32.6496 99.9603 32.6898C99.9071 32.73 99.8809 32.8368 99.8815 33.0101L99.8819 33.1301ZM100.792 30.5367L101.212 30.5352L101.21 29.8152L101.05 29.8158C100.95 29.8161 100.88 29.8364 100.84 29.8765C100.807 29.91 100.79 29.9767 100.791 30.0767L100.792 30.5367ZM104.843 30.7917L105.293 30.79L105.291 30.3001L104.841 30.3017L104.843 30.7917ZM104.839 29.6617L105.289 29.6601L105.287 29.1801L104.837 29.1817L104.839 29.6617ZM106.043 30.7873C106.237 30.7866 106.363 30.7561 106.423 30.6959C106.483 30.629 106.512 30.4989 106.512 30.3055L106.511 30.2955L106.041 30.2973L106.043 30.7873ZM106.039 29.6573L106.509 29.6555C106.502 29.4622 106.468 29.3357 106.408 29.2759C106.347 29.2161 106.224 29.1833 106.037 29.1773L106.039 29.6573ZM104.093 30.7945L104.092 30.3045L103.642 30.3062L103.642 30.3162C103.642 30.5028 103.673 30.6294 103.733 30.6958C103.793 30.7556 103.913 30.7885 104.093 30.7945ZM103.639 29.6662L104.089 29.6645L104.087 29.1845C103.907 29.1918 103.787 29.2256 103.728 29.2858C103.675 29.346 103.645 29.4728 103.639 29.6662ZM108.96 29.8665L116.47 29.8386L116.474 31.0186L110.184 31.0419L110.206 37.0319L108.986 37.0364L108.96 29.8665ZM115.85 29.8409L117.07 29.8364L117.091 35.6064C117.094 36.2463 116.975 36.5968 116.546 36.7884C116.116 36.98 115.486 37.0023 114.616 37.0055C114.575 36.6557 114.383 36.1164 114.212 35.787C114.762 35.815 115.442 35.8125 115.632 35.8018C115.812 35.8011 115.872 35.7409 115.871 35.5909L115.85 29.8409ZM110.753 28.0398L112.993 28.0315L112.997 29.0815L110.757 29.0898L110.753 28.0398ZM112.213 28.0344L113.493 28.0296C113.593 30.5993 114.17 32.7072 116.044 33.6102C115.785 33.8512 115.377 34.3427 115.188 34.6634C113.213 33.5007 112.545 31.2132 112.405 28.5737L112.215 28.5744L112.213 28.0344ZM112.311 30.134L113.412 30.32C113.079 32.4212 112.315 33.904 110.748 34.7499C110.587 34.4705 110.195 33.9819 109.954 33.7828C111.322 33.1277 112.067 31.8549 112.311 30.134ZM122.396 36.9167C121.896 36.9186 121.496 36.8667 121.196 36.7611C120.895 36.6623 120.678 36.4864 120.544 36.2336C120.409 35.9807 120.341 35.631 120.34 35.1843C120.338 34.7376 120.403 34.3874 120.536 34.1336C120.668 33.8797 120.884 33.7023 121.184 33.6012C121.483 33.4934 121.883 33.4386 122.383 33.4367L123.663 33.432C124.163 33.4301 124.563 33.482 124.864 33.5875C125.164 33.6864 125.382 33.8623 125.516 34.1151C125.65 34.368 125.718 34.7177 125.72 35.1644C125.721 35.611 125.656 35.9613 125.524 36.2151C125.391 36.4689 125.175 36.6464 124.876 36.7475C124.576 36.8553 124.176 36.9101 123.676 36.912L122.396 36.9167ZM119.184 30.9686C119.024 30.9692 118.887 30.9197 118.774 30.8201C118.666 30.7205 118.613 30.584 118.612 30.4107L118.611 30.0907C118.609 29.5707 118.731 29.2036 118.977 28.9893C119.229 28.7684 119.659 28.6568 120.265 28.6545L122.335 28.6469L122.333 28.0569C122.333 27.8635 122.392 27.7167 122.512 27.6162C122.638 27.5157 122.784 27.4652 122.951 27.4646C123.124 27.4639 123.271 27.5134 123.392 27.6129C123.519 27.7125 123.583 27.8589 123.583 28.0522L123.585 28.6422L125.725 28.6343C126.332 28.6321 126.759 28.7405 127.007 28.9596C127.261 29.1719 127.389 29.5381 127.391 30.0581L127.392 30.3781C127.393 30.5515 127.336 30.6883 127.223 30.7888C127.11 30.8892 126.974 30.9397 126.814 30.9403C126.654 30.9409 126.517 30.8947 126.403 30.8018C126.29 30.7089 126.233 30.5758 126.232 30.4024L126.231 30.1324C126.23 29.9458 126.183 29.8126 126.09 29.733C126.003 29.6533 125.836 29.6139 125.589 29.6148L120.409 29.634C120.162 29.6349 119.993 29.6756 119.9 29.7559C119.807 29.8362 119.76 29.9698 119.761 30.1564L119.762 30.4264C119.763 30.5997 119.707 30.7333 119.594 30.827C119.481 30.9208 119.344 30.968 119.184 30.9686ZM119.188 34.7286C119.022 34.8225 118.858 34.8531 118.698 34.8204C118.538 34.7877 118.411 34.6948 118.317 34.5418C118.23 34.3888 118.213 34.2422 118.266 34.102C118.318 33.9618 118.428 33.8481 118.594 33.7608C118.974 33.566 119.363 33.3413 119.762 33.0864C120.161 32.825 120.55 32.5535 120.929 32.2721C121.315 31.984 121.663 31.7027 121.976 31.4282C122.295 31.1404 122.614 30.9958 122.934 30.9947C123.261 30.9935 123.588 31.1222 123.916 31.381C124.223 31.6199 124.567 31.8686 124.948 32.1272C125.336 32.3858 125.74 32.6343 126.161 32.8727C126.582 33.1112 126.993 33.3263 127.394 33.5182C127.547 33.5909 127.658 33.7038 127.725 33.8569C127.792 34.0033 127.783 34.1567 127.697 34.317C127.61 34.484 127.478 34.5945 127.298 34.6485C127.125 34.6958 126.948 34.6731 126.768 34.5805C126.393 34.3752 126.003 34.1466 125.595 33.8948C125.187 33.643 124.793 33.3845 124.412 33.1192C124.038 32.8473 123.7 32.5852 123.399 32.3329C123.245 32.2002 123.105 32.1374 122.978 32.1445C122.858 32.145 122.722 32.2121 122.569 32.346C122.27 32.6005 121.931 32.8717 121.552 33.1598C121.18 33.4412 120.791 33.7193 120.385 33.9941C119.98 34.2623 119.581 34.5071 119.188 34.7286ZM122.392 35.8567L123.672 35.852C124.032 35.8506 124.265 35.8031 124.372 35.7094C124.485 35.6156 124.541 35.4354 124.54 35.1687C124.539 34.8954 124.481 34.7156 124.368 34.6294C124.261 34.5364 124.027 34.4906 123.667 34.492L122.387 34.4967C122.021 34.4981 121.781 34.5456 121.668 34.6394C121.561 34.7264 121.509 34.9066 121.51 35.18C121.511 35.4466 121.565 35.6264 121.672 35.7194C121.785 35.8123 122.026 35.8581 122.392 35.8567ZM120.248 32.0546C120.102 32.1485 119.945 32.1924 119.779 32.1864C119.619 32.1803 119.482 32.1008 119.368 31.9479C119.287 31.8349 119.257 31.705 119.276 31.5582C119.302 31.4048 119.382 31.2845 119.515 31.1973C119.788 31.023 120.067 30.822 120.353 30.5942C120.645 30.3665 120.894 30.1522 121.1 29.9515C121.213 29.831 121.346 29.7705 121.5 29.77C121.66 29.7694 121.797 29.8255 121.91 29.9385C122.024 30.0447 122.078 30.1712 122.072 30.3179C122.066 30.4579 122.009 30.5848 121.903 30.6985C121.657 30.9527 121.395 31.1937 121.116 31.4214C120.843 31.6491 120.554 31.8602 120.248 32.0546ZM125.678 31.9245C125.511 31.8185 125.32 31.6958 125.106 31.5566C124.892 31.4174 124.682 31.2749 124.475 31.129C124.274 30.9764 124.1 30.8403 123.953 30.7209C123.833 30.6213 123.766 30.4982 123.752 30.3516C123.745 30.205 123.791 30.0781 123.89 29.9711C123.983 29.8574 124.103 29.797 124.25 29.7898C124.403 29.7759 124.536 29.8154 124.65 29.9083C124.804 30.0277 124.981 30.1571 125.182 30.2963C125.382 30.4289 125.583 30.5582 125.783 30.6841C125.99 30.8033 126.181 30.906 126.354 30.992C126.488 31.0582 126.568 31.1645 126.595 31.3111C126.629 31.4576 126.61 31.5977 126.537 31.7313C126.451 31.885 126.325 31.9788 126.158 32.0127C125.991 32.04 125.831 32.0106 125.678 31.9245Z" fill="#FE585B"/>
<path d="M68.7878 58.6763C67.9025 58.6796 67.1609 58.6183 66.5631 58.4925C65.9653 58.3774 65.4845 58.1605 65.1207 57.8419C64.7675 57.5338 64.5099 57.0974 64.3478 56.5327C64.1857 55.968 64.103 55.2429 64.0998 54.3576L64.0787 48.6777C64.0754 47.7923 64.1527 47.0667 64.3106 46.5008C64.4685 45.9349 64.7229 45.4966 65.0738 45.1859C65.4353 44.8646 65.9144 44.6442 66.5113 44.5246C67.1082 44.3944 67.8493 44.3276 68.7346 44.3244L73.2306 44.3077C74.1159 44.3044 74.8521 44.3657 75.4393 44.4915C76.037 44.6066 76.5178 44.8235 76.8817 45.1422C77.2455 45.4502 77.5031 45.8865 77.6546 46.4513C77.8166 47.0161 77.8993 47.7411 77.9026 48.6264L77.9237 54.3064C77.9269 55.1917 77.8496 55.9173 77.6917 56.4833C77.5445 57.0491 77.2901 57.4874 76.9286 57.7981C76.5671 58.1194 76.0879 58.3399 75.491 58.4594C74.9049 58.5896 74.1691 58.6563 73.2838 58.6596L68.7878 58.6763ZM68.7822 57.1563L73.2781 57.1396C74.0675 57.1367 74.6752 57.0704 75.1014 56.9409C75.5276 56.8006 75.8199 56.5329 75.9784 56.1376C76.137 55.7423 76.2148 55.15 76.2119 54.3607L76.1904 48.5848C76.1875 47.7954 76.1053 47.2037 75.9439 46.8097C75.7824 46.4156 75.4881 46.1553 75.061 46.0289C74.6338 45.8918 74.0255 45.8248 73.2362 45.8277L68.7402 45.8444C67.9509 45.8473 67.3378 45.9189 66.901 46.0592C66.4748 46.1888 66.1825 46.4512 66.0239 46.8464C65.8654 47.2417 65.7876 47.834 65.7905 48.6233L65.8119 54.3993C65.8149 55.1886 65.897 55.7803 66.0585 56.1744C66.22 56.5684 66.5143 56.834 66.9415 56.9711C67.3793 57.0975 67.9928 57.1592 68.7822 57.1563ZM69.3396 56.4502C68.4542 56.4535 67.8297 56.3171 67.466 56.0412C67.113 55.7545 66.9351 55.2431 66.9323 54.5071L66.9275 53.2111C66.9248 52.4858 67.099 51.9785 67.4499 51.6892C67.8115 51.3998 68.435 51.2535 69.3203 51.2502L72.6323 51.238C73.5176 51.2347 74.1474 51.3764 74.5218 51.663C74.8962 51.9496 75.0848 52.4556 75.0875 53.1809L75.0923 54.4769C75.095 55.2129 74.9102 55.7256 74.538 56.0149C74.1657 56.2937 73.5369 56.4347 72.6515 56.4379L69.3396 56.4502ZM66.6466 50.7962C66.4652 50.7968 66.321 50.7387 66.2139 50.6218C66.1175 50.4941 66.0689 50.3503 66.0683 50.1903C66.0677 50.0303 66.1152 49.8914 66.2108 49.7738C66.317 49.6454 66.4607 49.5808 66.6421 49.5802L70.098 49.5674L70.0962 49.0714L69.0562 49.0752C68.4056 49.0776 67.9519 48.994 67.6953 48.8243C67.4493 48.6545 67.3254 48.319 67.3235 47.8176C67.3217 47.3163 67.4431 46.9798 67.6878 46.8083C67.9432 46.6367 68.3962 46.5496 69.0468 46.5472L72.9028 46.5329C73.5535 46.5305 74.0071 46.6142 74.2638 46.7839C74.5204 46.9536 74.6496 47.2891 74.6515 47.7905C74.6534 48.2918 74.5266 48.6283 74.2712 48.7999C74.0159 48.9715 73.5629 49.0585 72.9122 49.0609L71.8722 49.0648L71.874 49.5608L75.346 49.5479C75.5273 49.5472 75.6662 49.6107 75.7627 49.7384C75.8698 49.8553 75.9237 49.9938 75.9243 50.1538C75.9249 50.3138 75.8721 50.458 75.7659 50.5863C75.6703 50.704 75.5319 50.7632 75.3505 50.7639L66.6466 50.7962ZM69.5116 55.3936L72.4716 55.3826C72.8556 55.3812 73.1274 55.3215 73.287 55.2036C73.4572 55.0749 73.5416 54.8346 73.5403 54.4826L73.5355 53.1866C73.5342 52.8453 73.448 52.6163 73.2769 52.4996C73.1165 52.3722 72.8442 52.3092 72.4602 52.3106L69.5003 52.3216C69.1269 52.323 68.8605 52.388 68.701 52.5165C68.5521 52.6344 68.4783 52.864 68.4795 53.2054L68.4843 54.5014C68.4856 54.8534 68.5612 55.0931 68.711 55.2205C68.8714 55.3373 69.1383 55.3949 69.5116 55.3936ZM70.566 54.9577C70.086 54.9594 69.7444 54.886 69.5412 54.7374C69.3486 54.5782 69.2515 54.2852 69.2499 53.8585C69.2483 53.4212 69.3432 53.1275 69.5347 52.9775C69.7368 52.8274 70.0779 52.7514 70.5578 52.7497L71.4538 52.7463C71.9232 52.7446 72.2541 52.818 72.4467 52.9667C72.6499 53.1152 72.7523 53.4082 72.7539 53.8455C72.7555 54.2722 72.6659 54.5659 72.4852 54.7265C72.3044 54.8765 71.974 54.9524 71.494 54.9542L70.566 54.9577ZM69.3247 48.1142L72.6366 48.1019C72.786 48.1014 72.8872 48.085 72.9405 48.0528C73.0043 48.0206 73.036 47.9351 73.0355 47.7964C73.035 47.6578 73.0027 47.5726 72.9386 47.5408C72.8851 47.4983 72.7837 47.4774 72.6343 47.4779L69.3223 47.4902C69.1837 47.4907 69.0824 47.5124 69.0186 47.5553C68.9547 47.5876 68.923 47.673 68.9235 47.8117C68.924 47.9504 68.9564 48.0356 69.0205 48.0673C69.0846 48.0991 69.186 48.1147 69.3247 48.1142ZM70.8512 54.2046L71.1552 54.2035C71.3259 54.2028 71.4432 54.1811 71.507 54.1382C71.5708 54.0846 71.6024 53.9885 71.6019 53.8498C71.6014 53.7005 71.569 53.6046 71.5049 53.5622C71.4407 53.5197 71.3233 53.4988 71.1526 53.4995L70.8486 53.5006C70.6886 53.5012 70.5714 53.523 70.4969 53.5659C70.433 53.6088 70.4014 53.7049 70.4019 53.8543C70.4025 53.9929 70.4348 54.0888 70.499 54.1419C70.5738 54.1843 70.6912 54.2052 70.8512 54.2046ZM88.1332 59.0206C87.8985 59.0214 87.6903 58.9529 87.5084 58.8149C87.3373 58.6768 87.2406 58.4852 87.2183 58.24C87.1961 57.9947 87.2646 57.7864 87.424 57.6152C87.5941 57.4546 87.8018 57.3685 88.047 57.3569C88.5269 57.3231 88.8572 57.2152 89.0379 57.0332C89.2185 56.8405 89.3077 56.4455 89.3055 55.8482C88.8798 56.1271 88.4062 56.4115 87.8846 56.7015C87.3737 56.9914 86.852 57.26 86.3196 57.5073C85.7979 57.7652 85.292 57.9751 84.8019 58.1369C84.5675 58.2124 84.3489 58.2186 84.146 58.1553C83.9537 58.0921 83.8145 57.9432 83.7283 57.7089C83.6529 57.5065 83.6575 57.3198 83.7422 57.1488C83.8376 56.9778 84.0025 56.8545 84.2369 56.779C84.7269 56.6172 85.2648 56.4018 85.8505 56.133C86.4468 55.8641 87.0271 55.574 87.5913 55.2625C88.1661 54.9404 88.6716 54.6345 89.1079 54.3449C89.0646 54.1851 89 54.02 88.9141 53.8496C88.5523 54.107 88.1266 54.3699 87.637 54.6384C87.158 54.9068 86.6576 55.1593 86.1358 55.3959C85.614 55.6325 85.1081 55.8371 84.618 56.0096C84.4263 56.0743 84.2343 56.075 84.042 56.0117C83.8605 55.9484 83.7319 55.8102 83.6565 55.5971C83.5918 55.4054 83.6018 55.2293 83.6865 55.069C83.7712 54.898 83.9254 54.7748 84.1492 54.6993C84.8417 54.4834 85.55 54.2034 86.2741 53.8594C87.0088 53.5154 87.6582 53.161 88.2221 52.7962C88.1686 52.7431 88.1151 52.6846 88.0615 52.6208C88.0079 52.557 87.9544 52.4985 87.9008 52.4454C87.4112 52.7352 86.9003 53.0091 86.3679 53.2671C85.8355 53.5144 85.2976 53.7297 84.7543 53.9131C84.5305 53.9886 84.3226 53.9947 84.1303 53.9314C83.9487 53.8574 83.8149 53.7192 83.7288 53.5169C83.6534 53.3145 83.6527 53.1225 83.7266 52.9409C83.8113 52.7485 83.9761 52.6146 84.2212 52.539C84.7219 52.3772 85.2385 52.1832 85.771 51.9573C86.3141 51.7206 86.8146 51.4734 87.2723 51.2157C86.6216 51.2181 86.1201 51.1613 85.7676 51.0453C85.4152 50.9186 85.1691 50.7168 85.0294 50.44C84.8897 50.1525 84.8189 49.7635 84.8171 49.2728C84.8167 49.1768 84.8164 49.0861 84.816 49.0008C84.8157 48.9155 84.8208 48.8354 84.8312 48.7607L84.7674 48.825C84.5867 48.9856 84.379 49.0717 84.1444 49.0833C83.9097 49.0842 83.7013 48.9889 83.5193 48.7976C83.38 48.6274 83.3099 48.4357 83.3092 48.2224C83.3083 47.9984 83.393 47.8114 83.5631 47.6614C83.8927 47.3722 84.2434 47.0242 84.6152 46.6175C84.987 46.2108 85.3375 45.7935 85.6666 45.3656C86.0063 44.9377 86.2769 44.5527 86.4783 44.2106C86.6268 43.986 86.8236 43.852 87.0688 43.8084C87.314 43.7648 87.5435 43.812 87.7573 43.9499C87.9712 44.0877 88.0945 44.2686 88.1274 44.4925C88.1708 44.7057 88.1289 44.9138 88.0017 45.117L89.5857 45.1111C90.3857 45.1081 90.9038 45.3195 91.14 45.7453C91.3762 46.1605 91.3141 46.662 90.9536 47.25L90.9217 47.2822L91.3217 47.2807C91.983 47.2782 92.4953 47.3403 92.8584 47.467C93.2215 47.583 93.4729 47.7847 93.6127 48.0722C93.7524 48.349 93.8231 48.7381 93.825 49.2394C93.8268 49.7301 93.7589 50.1197 93.6213 50.4082C93.4837 50.6967 93.2338 50.9056 92.8716 51.0349C92.5094 51.1536 91.9976 51.2142 91.3363 51.2166L89.6083 51.223C89.4701 51.3516 89.3106 51.4802 89.1297 51.6088C89.3759 51.8426 89.6008 52.0817 89.8044 52.3263C90.008 52.5709 90.185 52.8316 90.3353 53.1084C90.6757 52.8618 91.0481 52.5884 91.4523 52.2882C91.8565 51.9881 92.1756 51.7362 92.4095 51.5327C92.5903 51.3827 92.798 51.3072 93.0327 51.3064C93.278 51.3054 93.4757 51.3954 93.6257 51.5762C93.7757 51.7676 93.8458 51.9753 93.836 52.1994C93.8261 52.4128 93.7307 52.5891 93.5499 52.7284C93.3053 52.9214 92.9702 53.1679 92.5447 53.4682C92.1297 53.7577 91.7361 54.0258 91.3636 54.2726C91.6525 54.4955 91.968 54.7397 92.3104 55.0051C92.6633 55.2704 93.011 55.5251 93.3532 55.7692C93.6954 56.0133 94.0002 56.2148 94.2674 56.3738C94.4706 56.5011 94.5939 56.6873 94.6375 56.9324C94.6811 57.167 94.6285 57.3805 94.4799 57.573C94.3313 57.7763 94.1344 57.8943 93.8892 57.9272C93.6547 57.9601 93.4305 57.9076 93.2166 57.7697C92.9172 57.5575 92.5695 57.2868 92.1736 56.9576C91.7777 56.6284 91.3925 56.2991 91.0179 55.9699C91.022 57.0685 90.7849 57.8481 90.3066 58.3085C89.839 58.7796 89.1145 59.0169 88.1332 59.0206ZM82.4213 59.0577C82.1866 59.0586 81.9837 58.974 81.8124 58.804C81.6411 58.634 81.555 58.4316 81.5541 58.1969L81.5264 50.725C81.4098 50.9281 81.2879 51.1206 81.1606 51.3024C81.0439 51.4735 80.9271 51.6392 80.8104 51.7997C80.6618 52.0029 80.4596 52.1263 80.2038 52.1699C79.9586 52.2135 79.7291 52.1663 79.5152 52.0285C79.3121 51.8905 79.1887 51.7097 79.1452 51.4858C79.1124 51.2513 79.1649 51.0324 79.3028 50.8292C79.6106 50.4121 79.9182 49.9416 80.2256 49.4178C80.5329 48.8833 80.8242 48.3329 81.0994 47.7666C81.3853 47.1895 81.6392 46.6286 81.8612 46.0837C82.0832 45.5389 82.2627 45.0422 82.3997 44.5937C82.4841 44.3481 82.6435 44.1715 82.8777 44.0639C83.112 43.9457 83.3572 43.9288 83.6136 44.0132C83.8592 44.0976 84.0358 44.2463 84.1432 44.4593C84.2507 44.6722 84.2622 44.9015 84.1778 45.1471C84.0617 45.4996 83.9191 45.8734 83.7499 46.2687C83.5913 46.6533 83.4221 47.0486 83.2423 47.4546L83.2821 58.1905C83.283 58.4252 83.1984 58.6282 83.0284 58.7995C82.869 58.9707 82.6666 59.0568 82.4213 59.0577ZM87.2831 49.8237L88.4511 49.8193L88.447 48.6993L87.279 48.7037C87.0123 48.7047 86.8311 48.7427 86.7354 48.8177C86.6396 48.882 86.5922 49.0315 86.593 49.2662C86.5939 49.5009 86.6425 49.6554 86.7388 49.7297C86.835 49.7933 87.0165 49.8246 87.2831 49.8237ZM86.2501 47.3795C86.3993 47.3576 86.5592 47.341 86.7299 47.3297C86.9111 47.3077 87.1084 47.2963 87.3217 47.2955L88.8897 47.2897C88.9215 47.2362 88.9533 47.1828 88.9851 47.1293C89.0169 47.0759 89.0488 47.0278 89.0806 46.985C89.25 46.6537 89.1481 46.4887 88.7748 46.4901L86.9988 46.4967C86.882 46.6465 86.7599 46.7962 86.6324 46.946C86.505 47.0852 86.3775 47.2297 86.2501 47.3795ZM90.2431 49.8127L91.3631 49.8085C91.6404 49.8075 91.8216 49.7748 91.9067 49.7105C92.0025 49.6355 92.0499 49.4807 92.049 49.246C92.0481 49.0113 91.9996 48.8622 91.9033 48.7985C91.8177 48.7242 91.6363 48.6875 91.3589 48.6885L90.2389 48.6927L90.2431 49.8127ZM108.468 58.6252C108.083 58.488 107.651 58.3029 107.17 58.07C106.689 57.8371 106.213 57.5775 105.743 57.2913C105.273 57.005 104.855 56.7239 104.492 56.4479C104.299 56.2993 104.187 56.113 104.154 55.8892C104.132 55.6546 104.189 55.4464 104.327 55.2645C104.444 55.1254 104.572 55.0343 104.71 54.9911L101.382 55.0034C101.447 55.0352 101.511 55.0723 101.575 55.1147C101.639 55.1571 101.693 55.2103 101.735 55.2741C101.886 55.4762 101.934 55.6894 101.882 55.9136C101.84 56.1271 101.734 56.3035 101.564 56.4428C101.245 56.7 100.856 56.9681 100.399 57.2471C99.9411 57.5261 99.4674 57.7839 98.9776 58.0204C98.4985 58.2568 98.0565 58.4558 97.6518 58.6173C97.3429 58.7358 97.0657 58.7635 96.8201 58.7004C96.5746 58.6479 96.3926 58.4886 96.2743 58.2224C96.1667 57.9774 96.1605 57.7428 96.2557 57.5185C96.3509 57.2941 96.5369 57.1334 96.8139 57.0364C97.2187 56.8855 97.6447 56.708 98.092 56.5036C98.5498 56.2886 98.9863 56.0683 99.4015 55.8428C99.8166 55.6066 100.173 55.3812 100.471 55.1668C100.514 55.1347 100.556 55.1078 100.599 55.0863C100.652 55.0541 100.7 55.0273 100.742 55.0058L96.3744 55.022C96.1504 55.0228 95.9582 54.9489 95.7976 54.8001C95.6477 54.6407 95.5723 54.4543 95.5715 54.241C95.5707 54.017 95.6447 53.83 95.7935 53.6801C95.9529 53.5195 96.1446 53.4388 96.3686 53.438L96.9766 53.4358L96.8255 47.2123C96.8131 46.7323 96.849 46.3482 96.9332 46.0599C97.0281 45.7608 97.2033 45.5255 97.4586 45.3539C97.7139 45.1716 98.0814 45.0209 98.561 44.9018C98.7421 44.8478 98.9232 44.7991 99.1044 44.7558C99.2962 44.7018 99.4827 44.6477 99.6638 44.5937C99.8663 44.5396 100.058 44.5496 100.24 44.6236C100.422 44.6869 100.545 44.8251 100.609 45.0382C100.685 45.2726 100.675 45.4753 100.58 45.6463C100.495 45.8067 100.346 45.9139 100.133 45.968C99.9944 46.0112 99.8453 46.0597 99.6855 46.1137C99.5256 46.1569 99.3871 46.1894 99.2698 46.2112C98.9395 46.2978 98.7318 46.3999 98.6469 46.5175C98.562 46.6245 98.5255 46.8433 98.5374 47.1739L98.5392 47.6699L99.7872 47.6653C100.001 47.6645 100.177 47.7332 100.316 47.8713C100.466 48.0094 100.541 48.1852 100.542 48.3985C100.543 48.6012 100.469 48.7774 100.32 48.9273C100.182 49.0665 100.006 49.1365 99.7927 49.1373L98.5767 49.1418L98.6138 50.5177L99.7978 50.5133C100.011 50.5125 100.187 50.5812 100.327 50.7193C100.476 50.8574 100.552 51.0331 100.552 51.2465C100.553 51.4491 100.479 51.6254 100.33 51.7753C100.192 51.9145 100.017 51.9845 99.8032 51.9853L98.6512 51.9895L98.6886 53.4294L101.073 53.4206L101.062 50.6686C101.062 50.4446 101.136 50.2683 101.284 50.1398C101.433 50.0005 101.609 49.9306 101.812 49.9298C102.025 49.929 102.201 49.9977 102.34 50.1358C102.49 50.2633 102.566 50.439 102.566 50.663L102.577 53.415L103.457 53.4117L103.445 50.2278C103.444 49.9184 103.4 49.7212 103.315 49.6362C103.24 49.5405 103.031 49.4933 102.69 49.4945C102.082 49.4968 101.655 49.3864 101.409 49.1633C101.173 48.9295 101.054 48.4979 101.052 47.8686L101.041 44.9406C101.04 44.6953 101.119 44.4977 101.279 44.3477C101.438 44.1978 101.63 44.1224 101.854 44.1216C102.078 44.1208 102.27 44.1947 102.431 44.3435C102.602 44.4922 102.688 44.6892 102.689 44.9345L102.692 45.6385L104.356 45.6323C104.548 45.6316 104.713 45.7004 104.852 45.8385C104.992 45.966 105.062 46.1257 105.062 46.3177C105.063 46.5097 104.994 46.6753 104.856 46.8145C104.718 46.9537 104.553 47.0236 104.361 47.0243L102.697 47.0305L102.699 47.5105C102.7 47.7985 102.754 47.985 102.861 48.0699C102.968 48.1442 103.176 48.1807 103.485 48.1796C103.986 48.1777 104.355 48.3044 104.591 48.5595C104.837 48.8039 104.961 49.2301 104.963 49.8381L104.977 53.4061L107.297 53.3975L107.323 51.9734L106.123 51.9778C105.921 51.9786 105.744 51.9046 105.594 51.7558C105.455 51.607 105.385 51.4312 105.384 51.2286C105.384 51.0259 105.452 50.855 105.591 50.7158C105.739 50.5659 105.915 50.4906 106.118 50.4898L107.35 50.4853L107.361 49.1092L106.113 49.1139C105.91 49.1146 105.734 49.0459 105.584 48.9078C105.445 48.759 105.375 48.5833 105.374 48.3806C105.373 48.1673 105.442 47.991 105.58 47.8518C105.729 47.7126 105.904 47.6426 106.107 47.6419L107.387 47.6371L107.401 47.1411C107.411 46.7997 107.357 46.5759 107.239 46.4697C107.121 46.3528 106.892 46.295 106.55 46.2962L105.798 46.299C105.596 46.2998 105.419 46.2257 105.269 46.077C105.119 45.9282 105.044 45.7525 105.043 45.5498C105.043 45.3365 105.117 45.1549 105.265 45.005C105.414 44.8551 105.59 44.7798 105.793 44.779L106.657 44.7758C107.307 44.7734 107.809 44.8462 108.161 44.9942C108.525 45.1316 108.776 45.3706 108.916 45.7114C109.056 46.0523 109.116 46.5214 109.097 47.1188L108.992 53.3912L109.632 53.3888C109.856 53.388 110.043 53.4673 110.193 53.6268C110.354 53.7755 110.435 53.9619 110.435 54.1859C110.436 54.3992 110.357 54.5862 110.198 54.7468C110.049 54.8966 109.862 54.972 109.638 54.9728L105.238 54.9891C105.292 54.9996 105.345 55.0207 105.399 55.0525C105.463 55.0843 105.516 55.1161 105.559 55.148C105.88 55.3708 106.259 55.604 106.698 55.8477C107.136 56.0808 107.585 56.3031 108.044 56.5147C108.514 56.7157 108.931 56.8795 109.294 57.0061C109.539 57.0799 109.705 57.2233 109.791 57.4363C109.888 57.6599 109.895 57.8892 109.81 58.1242C109.704 58.4233 109.518 58.6 109.252 58.6543C108.996 58.7192 108.735 58.7095 108.468 58.6252ZM116.787 58.4984C115.902 58.5016 115.161 58.4404 114.563 58.3146C113.965 58.1995 113.484 57.9826 113.12 57.6639C112.767 57.3559 112.51 56.9195 112.347 56.3548C112.185 55.7901 112.103 55.065 112.099 54.1797L112.078 48.4997C112.075 47.6144 112.152 46.8888 112.31 46.3229C112.468 45.7569 112.723 45.3187 113.073 45.008C113.435 44.6867 113.914 44.4662 114.511 44.3467C115.108 44.2165 115.849 44.1497 116.734 44.1465L121.23 44.1298C122.116 44.1265 122.852 44.1878 123.439 44.3136C124.037 44.4287 124.518 44.6456 124.881 44.9643C125.245 45.2722 125.503 45.7086 125.654 46.2734C125.816 46.8381 125.899 47.5632 125.902 48.4485L125.923 54.1285C125.927 55.0138 125.849 55.7394 125.691 56.3053C125.544 56.8712 125.29 57.3095 124.928 57.6202C124.567 57.9415 124.088 58.162 123.491 58.2815C122.905 58.4117 122.169 58.4784 121.283 58.4817L116.787 58.4984ZM116.782 56.9784L121.278 56.9617C122.067 56.9588 122.675 56.8925 123.101 56.7629C123.527 56.6227 123.82 56.3549 123.978 55.9597C124.137 55.5644 124.214 54.9721 124.212 54.1828L124.19 48.4068C124.187 47.6175 124.105 47.0258 123.944 46.6317C123.782 46.2377 123.488 45.9774 123.061 45.851C122.633 45.7139 122.025 45.6469 121.236 45.6498L116.74 45.6664C115.951 45.6694 115.338 45.741 114.901 45.8813C114.475 46.0108 114.182 46.2733 114.024 46.6685C113.865 47.0638 113.787 47.6561 113.79 48.4454L113.812 54.2214C113.815 55.0107 113.897 55.6024 114.058 55.9965C114.22 56.3905 114.514 56.6561 114.941 56.7932C115.379 56.9196 115.993 56.9813 116.782 56.9784ZM117.339 56.2723C116.454 56.2756 115.829 56.1392 115.466 55.8632C115.113 55.5765 114.935 55.0652 114.932 54.3292L114.927 53.0332C114.925 52.3079 115.099 51.8006 115.45 51.5113C115.811 51.2219 116.435 51.0756 117.32 51.0723L120.632 51.0601C121.517 51.0568 122.147 51.1984 122.522 51.4851C122.896 51.7717 123.084 52.2776 123.087 53.003L123.092 54.299C123.095 55.035 122.91 55.5476 122.538 55.837C122.165 56.1157 121.537 56.2567 120.651 56.26L117.339 56.2723ZM114.646 50.6182C114.465 50.6189 114.321 50.5608 114.214 50.4438C114.117 50.3162 114.069 50.1724 114.068 50.0124C114.067 49.8524 114.115 49.7135 114.21 49.5958C114.317 49.4675 114.46 49.4029 114.642 49.4022L118.098 49.3894L118.096 48.8934L117.056 48.8973C116.405 48.8997 115.952 48.8161 115.695 48.6463C115.449 48.4766 115.325 48.141 115.323 47.6397C115.321 47.1384 115.443 46.8019 115.687 46.6304C115.943 46.4587 116.396 46.3717 117.047 46.3693L120.902 46.355C121.553 46.3526 122.007 46.4363 122.263 46.606C122.52 46.7757 122.649 47.1112 122.651 47.6125C122.653 48.1139 122.526 48.4503 122.271 48.622C122.016 48.7936 121.563 48.8806 120.912 48.883L119.872 48.8869L119.874 49.3829L123.346 49.37C123.527 49.3693 123.666 49.4328 123.762 49.5604C123.869 49.6774 123.923 49.8158 123.924 49.9758C123.925 50.1358 123.872 50.28 123.766 50.4084C123.67 50.5261 123.532 50.5853 123.35 50.586L114.646 50.6182ZM117.511 55.2156L120.471 55.2047C120.855 55.2033 121.127 55.1436 121.287 55.0257C121.457 54.897 121.541 54.6567 121.54 54.3047L121.535 53.0087C121.534 52.6674 121.448 52.4384 121.277 52.3217C121.116 52.1943 120.844 52.1313 120.46 52.1327L117.5 52.1437C117.127 52.1451 116.86 52.21 116.701 52.3386C116.552 52.4565 116.478 52.6861 116.479 53.0275L116.484 54.3235C116.485 54.6754 116.561 54.9152 116.711 55.0426C116.871 55.1594 117.138 55.217 117.511 55.2156ZM118.566 54.7797C118.086 54.7815 117.744 54.7081 117.541 54.5595C117.348 54.4002 117.251 54.1073 117.25 53.6806C117.248 53.2433 117.343 52.9496 117.534 52.7995C117.736 52.6495 118.078 52.5735 118.558 52.5718L119.454 52.5684C119.923 52.5667 120.254 52.6401 120.446 52.7888C120.65 52.9373 120.752 53.2303 120.754 53.6676C120.755 54.0943 120.666 54.388 120.485 54.5486C120.304 54.6986 119.974 54.7745 119.494 54.7763L118.566 54.7797ZM117.324 47.9363L120.636 47.924C120.786 47.9235 120.887 47.9071 120.94 47.8749C121.004 47.8427 121.036 47.7572 121.035 47.6185C121.035 47.4799 121.002 47.3947 120.938 47.3629C120.885 47.3204 120.783 47.2995 120.634 47.3L117.322 47.3123C117.183 47.3128 117.082 47.3345 117.018 47.3774C116.954 47.4097 116.923 47.4951 116.923 47.6338C116.924 47.7724 116.956 47.8577 117.02 47.8894C117.084 47.9212 117.186 47.9368 117.324 47.9363ZM118.851 54.0267L119.155 54.0255C119.326 54.0249 119.443 54.0031 119.507 53.9602C119.57 53.9067 119.602 53.8106 119.602 53.6719C119.601 53.5226 119.569 53.4267 119.505 53.3842C119.44 53.3418 119.323 53.3209 119.152 53.3216L118.848 53.3227C118.688 53.3233 118.571 53.345 118.497 53.388C118.433 53.4309 118.401 53.527 118.402 53.6763C118.402 53.815 118.434 53.9109 118.499 53.964C118.574 54.0064 118.691 54.0273 118.851 54.0267ZM130.053 58.7852C129.818 58.7861 129.615 58.7121 129.444 58.5634C129.283 58.4147 129.202 58.207 129.201 57.9403L129.173 50.1964C129.109 50.3033 129.04 50.4102 128.966 50.5172C128.902 50.6241 128.839 50.731 128.775 50.8379C128.648 51.0303 128.456 51.1644 128.201 51.24C127.956 51.3049 127.715 51.2525 127.48 51.0827C127.298 50.966 127.186 50.7904 127.142 50.5559C127.099 50.3214 127.146 50.1026 127.284 49.8994C127.613 49.4182 127.941 48.8623 128.269 48.2317C128.608 47.6011 128.915 46.96 129.19 46.3083C129.476 45.6566 129.698 45.0584 129.856 44.5138C129.94 44.2575 130.083 44.0863 130.286 44.0002C130.499 43.9141 130.723 43.9079 130.958 43.9817C131.193 44.0449 131.369 44.1775 131.487 44.3798C131.605 44.5713 131.622 44.7953 131.538 45.0516C131.527 45.0943 131.517 45.137 131.506 45.1797C131.496 45.2224 131.48 45.2705 131.459 45.3239C131.522 45.2063 131.613 45.11 131.73 45.0349C131.857 44.9491 132.007 44.9059 132.177 44.9052L136.833 44.888C137.089 44.887 137.292 44.9716 137.442 45.1417C137.603 45.3011 137.683 45.4981 137.684 45.7328C137.685 45.9675 137.606 46.1651 137.446 46.3257C137.298 46.4862 137.095 46.567 136.839 46.5679L134.599 46.5763C134.569 46.875 134.532 47.1738 134.491 47.4727C134.449 47.7608 134.402 48.0437 134.35 48.3212L135.054 48.3186C135.779 48.3159 136.281 48.4847 136.56 48.825C136.849 49.1653 136.936 49.6983 136.822 50.424C136.561 52.0677 136.081 53.5255 135.382 54.7974C134.693 56.0586 133.828 57.1552 132.786 58.0871C132.584 58.2585 132.355 58.35 132.099 58.3616C131.843 58.3839 131.619 58.2887 131.426 58.0761C131.276 57.906 131.206 57.6982 131.216 57.4529C131.225 57.2182 131.315 57.0312 131.486 56.8919C132.549 55.9813 133.404 54.8847 134.049 53.6023C133.878 53.4856 133.664 53.3478 133.408 53.1887C133.162 53.019 132.937 52.8705 132.734 52.7432C132.692 52.818 132.644 52.8929 132.591 52.9677C132.549 53.0426 132.501 53.1227 132.448 53.2083C132.321 53.4114 132.14 53.5401 131.905 53.5943C131.682 53.6378 131.463 53.6013 131.249 53.4847C131.035 53.3682 130.912 53.1926 130.879 52.9581L130.897 57.9341C130.898 58.2007 130.814 58.409 130.644 58.559C130.484 58.7089 130.287 58.7843 130.053 58.7852ZM139.156 58.5914C138.9 58.5924 138.681 58.5132 138.499 58.3539C138.317 58.1946 138.22 57.9816 138.209 57.715C138.197 57.4697 138.271 57.2561 138.43 57.0741C138.59 56.8922 138.813 56.7954 139.101 56.7836C139.549 56.75 139.837 56.6689 139.964 56.5404C140.092 56.412 140.155 56.1451 140.153 55.7397L140.113 44.7798C140.112 44.5238 140.191 44.3208 140.351 44.1709C140.521 44.021 140.723 43.9455 140.958 43.9447C141.192 43.9438 141.39 44.0177 141.551 44.1665C141.711 44.3152 141.792 44.5176 141.793 44.7736L141.835 56.0695C141.838 56.9975 141.638 57.6489 141.234 58.0237C140.83 58.3986 140.137 58.5878 139.156 58.5914ZM138.406 54.8022C138.171 54.8031 137.974 54.7291 137.813 54.5804C137.653 54.4317 137.572 54.2293 137.571 53.9733L137.544 46.8373C137.543 46.5813 137.623 46.3784 137.782 46.2285C137.942 46.0785 138.139 46.0031 138.373 46.0023C138.608 46.0014 138.806 46.0753 138.966 46.2241C139.127 46.3728 139.207 46.5752 139.208 46.8312L139.235 53.9671C139.236 54.2231 139.157 54.4261 138.997 54.576C138.838 54.7259 138.641 54.8013 138.406 54.8022ZM130.878 52.6381C130.899 52.5207 130.941 52.4085 131.005 52.3016C131.503 51.5104 131.916 50.6182 132.243 49.625C132.58 48.6211 132.801 47.6069 132.903 46.5825L132.183 46.5852C131.927 46.5862 131.724 46.5069 131.575 46.3475C131.425 46.188 131.349 45.991 131.348 45.7563C131.348 45.6923 131.353 45.6443 131.364 45.6122C131.29 45.8152 131.211 46.0288 131.126 46.2531C131.042 46.4668 130.952 46.6858 130.857 46.9101L130.878 52.6381ZM134.731 51.8878C134.858 51.5033 134.952 51.1083 135.015 50.7027C135.067 50.4572 135.056 50.2866 134.981 50.1909C134.906 50.0951 134.73 50.0478 134.452 50.0488L133.908 50.0508C133.845 50.2431 133.782 50.4353 133.718 50.6275C133.655 50.8091 133.581 50.9907 133.496 51.1724C133.667 51.2677 133.871 51.3843 134.106 51.5221C134.352 51.6599 134.56 51.7818 134.731 51.8878Z" fill="black" fill-opacity="0.85"/>
</g>
<defs>
<radialGradient id="paint0_radial_1720_1890" cx="0" cy="0" r="1" gradientUnits="userSpaceOnUse" gradientTransform="translate(0.558656 46.8353) rotate(65.4889) scale(3.32531 8.21233)">
<stop offset="0.33" stop-opacity="0"/>
<stop offset="0.655" stop-opacity="0.6"/>
<stop offset="1"/>
</radialGradient>
<radialGradient id="paint1_radial_1720_1890" cx="0" cy="0" r="1" gradientUnits="userSpaceOnUse" gradientTransform="translate(355.296 45.8572) rotate(114.511) scale(3.32531 8.21233)">
<stop offset="0.33" stop-opacity="0"/>
<stop offset="0.655" stop-opacity="0.6"/>
<stop offset="1"/>
</radialGradient>
<clipPath id="clip0_1720_1890">
<rect width="200" height="90" fill="white"/>
</clipPath>
</defs>
</svg>
