<svg width="200" height="90" viewBox="0 0 200 90" fill="none" xmlns="http://www.w3.org/2000/svg">
<g clip-path="url(#clip0_2306_6229)">
<rect width="200" height="90" fill="#BDE3FF"/>
<path fill-rule="evenodd" clip-rule="evenodd" d="M-6.18027 85.5257C-5.5206 81.3514 -9.94765 77.2571 -7.65473 73.2393C-4.94813 68.4966 -1.65241 61.9915 7.77154 61.0783C17.9972 60.0873 23.5998 68.8258 33.9785 69.2048C45.8176 69.6371 56.5881 60.196 66.8872 63.2371C76.2425 65.9996 70.121 74.0119 68.9752 79.5387C68.1676 83.4341 61.5364 86.4306 61.2669 90.3457C60.8502 96.3973 75.7689 103.853 67.0229 107.895C58.3557 111.9 45.7383 103.802 34.2527 102.83C27.3162 102.243 20.5655 103.925 13.6182 103.373C4.65786 102.66 -7.2514 103.227 -11.7526 99.1698C-16.3208 95.0519 -6.92748 90.2539 -6.18027 85.5257Z" fill="#005EA5"/>
<path fill-rule="evenodd" clip-rule="evenodd" d="M28.4743 10.5302C32.6486 10.8717 36.7429 8.58004 40.7607 9.76696C45.5034 11.168 52.0085 12.874 52.9217 17.7523C53.9127 23.0456 45.1742 25.9458 44.7952 31.3183C44.3629 37.4467 53.804 43.0221 50.7629 48.3534C48.0004 53.1961 39.9881 50.0274 34.4613 49.4342C30.5659 49.0162 27.5694 45.5836 23.6543 45.444C17.6027 45.2284 10.1469 52.9509 6.10508 48.4236C2.09968 43.9371 10.1975 37.4057 11.1701 31.4602C11.7575 27.8695 10.0747 24.3751 10.6274 20.7788C11.3402 16.1405 10.7727 9.97575 14.8302 7.64571C18.9481 5.281 23.7461 10.1434 28.4743 10.5302Z" fill="#2382C9"/>
<path fill-rule="evenodd" clip-rule="evenodd" d="M173.474 4.53021C177.649 4.87169 181.743 2.58004 185.761 3.76696C190.503 5.16803 197.008 6.87405 197.922 11.7523C198.913 17.0456 190.174 19.9458 189.795 25.3183C189.363 31.4467 198.804 37.0221 195.763 42.3534C193 47.1961 184.988 44.0274 179.461 43.4342C175.566 43.0162 172.569 39.5836 168.654 39.444C162.603 39.2284 155.147 46.9509 151.105 42.4236C147.1 37.9371 155.198 31.4057 156.17 25.4602C156.757 21.8695 155.075 18.3751 155.627 14.7788C156.34 10.1405 155.773 3.97575 159.83 1.64571C163.948 -0.719004 168.746 4.14342 173.474 4.53021Z" fill="#69BAF5"/>
<path fill-rule="evenodd" clip-rule="evenodd" d="M117.063 7.20494C131.49 7.9797 144.155 11.9054 154.996 17.5775C166.733 23.7188 176.896 30.8598 179.688 39.9711C183.097 51.0949 184.354 63.7453 171.749 72.2549C158.691 81.0707 136.857 81.4742 117.063 82.2497C95.2362 83.1048 71.8992 84.7511 54.6033 76.8446C35.6156 68.1646 20.8565 53.9771 24.5773 39.9711C28.0889 26.7526 52.1053 19.9805 71.5388 13.0955C85.3864 8.18958 100.98 6.34119 117.063 7.20494Z" fill="#C9F4FF"/>
<path d="M177.967 51.2804L196.726 84.9582L159.338 85.0303L177.967 51.2804Z" fill="#228CDA"/>
<path d="M173.373 78.4648H182.74" stroke="black" stroke-width="2" stroke-linecap="round"/>
<ellipse cx="171.472" cy="68.8528" rx="4.64254" ry="4.79533" transform="rotate(-0.110477 171.472 68.8528)" stroke="#FA8F21" stroke-width="2"/>
<ellipse cx="184.669" cy="68.8118" rx="4.64254" ry="4.79533" transform="rotate(-0.110477 184.669 68.8118)" stroke="#FA8F21" stroke-width="2"/>
<path d="M175.55 68.4723C175.55 68.4723 176.816 68.054 177.654 68.0337C178.594 68.011 180.025 68.4637 180.025 68.4637" stroke="#FA8F21" stroke-width="2"/>
<ellipse cx="171.471" cy="68.8518" rx="1.89842" ry="1.9609" transform="rotate(-0.110477 171.471 68.8518)" fill="black"/>
<ellipse cx="184.67" cy="68.8264" rx="1.89842" ry="1.9609" transform="rotate(-0.110477 184.67 68.8264)" fill="black"/>
<path d="M83.0948 35.3674C83.1943 35.2204 83.1573 35.1472 82.984 35.1478L80.894 35.1556L80.3653 35.4975C81.02 35.8618 81.5212 36.1999 81.869 36.512C82.4343 36.1365 82.8429 35.755 83.0948 35.3674ZM81.6512 31.7127C81.7708 31.5856 81.7439 31.5224 81.5705 31.523L79.4406 31.5309L79.0715 31.7923C79.686 32.11 80.1471 32.3983 80.4547 32.6572C80.9869 32.3285 81.3857 32.0137 81.6512 31.7127ZM83.6902 34.1152C83.9635 34.1075 84.2337 34.1732 84.5009 34.3122C84.7681 34.4445 84.8421 34.6443 84.7231 34.9114C84.2608 36.0864 83.3443 37.0432 81.9737 37.7816C81.3084 38.1374 80.6061 38.4233 79.8669 38.6394C79.1344 38.8554 78.4583 39.0046 77.8386 39.0869C77.5521 39.1347 77.3248 38.9755 77.1568 38.6094C76.9888 38.2501 77.058 38.0531 77.3646 38.0187C78.5974 37.8874 79.743 37.5832 80.8012 37.1059C80.42 36.7673 79.9287 36.4192 79.3273 36.0614C78.8948 36.2763 78.552 36.4276 78.299 36.5152C78.0327 36.6162 77.7757 36.5138 77.5279 36.2081C77.2867 35.9023 77.3193 35.7022 77.6257 35.6077C79.124 35.1488 80.3279 34.421 81.2376 33.4243C79.9807 34.2556 78.5828 34.8275 77.0439 35.1398C76.7508 35.2009 76.5103 35.0618 76.3224 34.7225C76.1411 34.3832 76.1904 34.1897 76.4702 34.142C77.4296 33.9851 78.4118 33.6748 79.4168 33.211C79.0023 32.8992 78.5546 32.6142 78.0736 32.356C77.7276 32.5373 77.4747 32.6582 77.3149 32.7188C77.0553 32.8264 76.7917 32.7341 76.5239 32.4417C76.2562 32.1494 76.2754 31.9527 76.5817 31.8515C77.9268 31.4199 78.9113 30.8262 79.5351 30.0706C79.7144 29.8699 80.0175 29.8154 80.4445 29.9072C80.8782 29.9923 81.002 30.1318 80.8161 30.3258L80.6169 30.5466L82.4067 30.4899C82.68 30.4889 82.9437 30.5613 83.1975 30.707C83.4514 30.8527 83.5121 31.0392 83.3796 31.2663C83.0553 31.9009 82.4377 32.5532 81.5268 33.2232L82.1474 33.3709C82.5344 33.4561 82.5918 33.6459 82.3195 33.9403L82.1103 34.1611L83.6902 34.1152ZM90.4502 36.8202C90.576 36.5864 90.7791 36.5189 91.0595 36.6179C91.3399 36.7169 91.4238 36.8899 91.3114 37.137C91.2587 37.3038 91.0998 37.5878 90.8346 37.9887C90.5694 38.3831 90.3869 38.6104 90.2871 38.6708C90.1077 38.8448 89.8876 38.7956 89.6265 38.5232C89.3722 38.2575 89.3448 38.0476 89.5442 37.8935C89.6174 37.8666 89.7802 37.6993 90.0324 37.3917C90.2912 37.0841 90.4305 36.8936 90.4502 36.8202ZM91.2767 33.1771L91.2778 33.4571C91.2784 33.6304 91.3654 33.7167 91.5387 33.7161L92.7987 33.7114C92.9721 33.7108 93.0584 33.6238 93.0578 33.4505L93.0567 33.1705L91.2767 33.1771ZM93.0516 31.7805L91.2716 31.7871L91.2735 32.3071L93.0535 32.3005L93.0516 31.7805ZM88.0955 32.8489L87.4257 32.9013C87.2756 33.7886 87.158 34.4223 87.0727 34.8027C87.0465 34.9294 87.0937 35.0526 87.2141 35.1721L87.6556 35.5805C87.9261 34.8128 88.0727 33.9023 88.0955 32.8489ZM94.5945 35.2648C94.8678 35.2638 95.0051 35.4299 95.0064 35.7633C95.0076 36.0966 94.8715 36.2638 94.5982 36.2648L92.8382 36.2713L92.8472 38.6813C92.8482 38.9546 92.6553 39.092 92.2687 39.0934C91.882 39.0949 91.6882 38.9589 91.6872 38.6856L91.6782 36.2756L89.8082 36.2825C89.5349 36.2835 89.3976 36.1174 89.3964 35.7841C89.3952 35.4507 89.5312 35.2836 89.8045 35.2825L91.6745 35.2756L91.6723 34.6656L90.6723 34.6693C90.3589 34.6705 90.2017 34.5111 90.2005 34.1911L90.1916 31.7911L89.9016 31.7922C89.6283 31.7932 89.491 31.627 89.4897 31.2937C89.4885 30.9604 89.6246 30.7932 89.8979 30.7922L90.1879 30.7911L90.1856 30.1711C90.1846 29.8978 90.3641 29.7604 90.7241 29.7591C91.0841 29.7578 91.2646 29.8938 91.2656 30.1671L91.2679 30.7871L93.0479 30.7805L93.0456 30.1605C93.0446 29.8872 93.2307 29.7498 93.604 29.7484C93.984 29.747 94.1745 29.883 94.1756 30.1563L94.1779 30.7763L94.5379 30.775C94.8112 30.774 94.9485 30.9401 94.9497 31.2734C94.9509 31.6068 94.8149 31.7739 94.5416 31.775L94.1816 31.7763L94.1905 34.1763C94.1916 34.4963 94.0322 34.6569 93.7122 34.6581L92.8323 34.6613L92.8345 35.2713L94.5945 35.2648ZM93.3821 37.3193C93.1675 36.9868 93.2034 36.7633 93.4896 36.6489C93.7758 36.5278 94.0363 36.6402 94.2709 36.986C94.7064 37.5844 94.931 37.9169 94.9446 37.9835C95.0318 38.1365 95.019 38.2799 94.9062 38.4137C94.7934 38.5541 94.577 38.6449 94.2572 38.6861L94.1568 38.5764L93.3821 37.3193ZM89.0814 31.7452C89.3547 31.7309 89.492 31.8937 89.4932 32.2337C89.4945 32.5737 89.3585 32.7542 89.0852 32.7752C89.0505 34.1953 88.8349 35.3928 88.4385 36.3676C88.907 36.8392 89.1814 37.1349 89.2618 37.2546C89.4025 37.4207 89.3567 37.6576 89.1245 37.9651C88.8923 38.2659 88.7125 38.3333 88.5852 38.1671C88.5516 38.0939 88.3373 37.8313 87.9423 37.3795C87.5579 38.0009 87.183 38.4589 86.8174 38.7536C86.6114 38.9411 86.3813 38.9119 86.127 38.6662C85.8795 38.4271 85.862 38.2138 86.0747 38.0264C86.4868 37.6915 86.8683 37.2101 87.2193 36.5821C86.9316 36.2899 86.6338 35.9943 86.326 35.6954C86.0784 35.443 85.9842 35.1934 86.0433 34.9465C86.155 34.5261 86.2826 33.8656 86.4259 32.965L86.316 32.9755C86.0427 32.9898 85.8854 32.8204 85.8441 32.4672C85.8094 32.1073 85.9287 31.9202 86.202 31.9059L86.5819 31.8845L86.7458 30.2438C86.7715 29.9771 86.951 29.8497 87.2844 29.8618C87.6245 29.8739 87.7817 30.0133 87.756 30.2801L87.5818 31.8408L88.1016 31.8088L88.1008 31.5888C88.0998 31.3155 88.2626 31.1782 88.5893 31.177C88.916 31.1758 89.0798 31.3119 89.0808 31.5852L89.0814 31.7452ZM103.981 31.67L103.98 31.46C103.98 31.2933 103.893 31.2103 103.72 31.2109L103.45 31.2119L103.451 31.6719L103.981 31.67ZM103.726 32.8609C103.899 32.8603 103.985 32.7733 103.985 32.6L103.984 32.39L103.454 32.3919L103.456 32.8619L103.726 32.8609ZM101.024 32.4009L101.025 32.6109C101.025 32.7843 101.112 32.8706 101.286 32.87L101.536 32.869L101.534 32.399L101.024 32.4009ZM101.28 31.22C101.106 31.2206 101.02 31.3043 101.02 31.4709L101.021 31.6809L101.531 31.6791L101.53 31.2191L101.28 31.22ZM102.734 32.3946L102.254 32.3964L102.256 32.8664L102.736 32.8646L102.734 32.3946ZM102.251 31.6764L102.731 31.6746L102.73 31.2146L102.25 31.2164L102.251 31.6764ZM104.417 30.4283C104.737 30.4272 104.897 30.5832 104.898 30.8966L104.907 33.1566C104.908 33.4765 104.749 33.6371 104.429 33.6383L100.629 33.6524C100.309 33.6536 100.148 33.4975 100.147 33.1842L100.138 30.9242C100.137 30.6042 100.297 30.4436 100.617 30.4424L101.317 30.4398L101.316 30.1398C101.315 29.8665 101.467 29.7293 101.774 29.7281C102.081 29.727 102.235 29.8631 102.236 30.1364L102.237 30.4364L102.677 30.4348L102.676 30.1348C102.675 29.8615 102.827 29.7242 103.134 29.7231C103.447 29.7219 103.605 29.858 103.606 30.1314L103.607 30.4314L104.417 30.4283ZM104.69 33.9774C104.963 33.9763 105.1 34.1192 105.101 34.4058C105.102 34.6858 104.966 34.8263 104.693 34.8274L100.413 34.8432C100.14 34.8442 100.002 34.7047 100.001 34.4247C100 34.1381 100.136 33.9942 100.41 33.9932L104.69 33.9774ZM97.3761 35.6945L97.3772 35.9945C97.3783 36.2811 97.3694 36.5878 97.3506 36.9146L98.5486 36.3501L98.5469 35.9101L98.4673 36.0004C98.2548 36.2346 98.0282 36.2487 97.7874 36.043L97.3761 35.6945ZM97.4683 30.8841C97.295 30.8847 97.2086 30.9717 97.2092 31.1451L97.2157 32.8951L97.6057 32.8936L97.6016 31.7736C97.6004 31.4536 97.7598 31.293 98.0798 31.2918L98.5698 31.29L98.5692 31.14C98.5686 30.9667 98.4816 30.8803 98.3083 30.881L97.4683 30.8841ZM98.2057 32.8914L98.5757 32.89L98.5723 31.96L98.4623 31.9604C98.2889 31.9611 98.2026 32.0447 98.2032 32.2114L98.2057 32.8914ZM98.8102 34.0892C98.9835 34.0885 99.0698 34.0015 99.0692 33.8282C99.0689 33.7349 98.982 33.6885 98.8087 33.6892L97.0387 33.6957C96.8654 33.6964 96.779 33.7833 96.7797 33.9567C96.78 34.05 96.8669 34.0964 97.0402 34.0957L98.8102 34.0892ZM97.373 34.8645L97.3751 35.4345C97.601 35.207 97.8375 35.1794 98.0848 35.3519L98.5461 35.6801L98.543 34.8601L97.373 34.8645ZM99.9697 33.9549C99.9709 34.2749 99.8215 34.4354 99.5215 34.4365L99.4567 38.5568C99.4105 38.6836 99.3076 38.7907 99.1479 38.8779C98.9883 38.9719 98.7984 39.0126 98.5784 39C98.2118 39.0147 97.9812 38.8756 97.8868 38.5826C97.7991 38.2963 97.8919 38.1526 98.1652 38.1516L98.4252 38.1506C98.5119 38.157 98.5551 38.1168 98.5548 38.0301L98.5514 37.1201L98.0027 37.4822C97.7234 37.6565 97.5132 37.594 97.372 37.2945L97.3216 37.1847C97.2247 38.0184 97.0834 38.5589 96.8976 38.8063C96.7851 39.0067 96.5884 39.0108 96.3077 38.8185C96.0337 38.6328 95.9463 38.4465 96.0456 38.2594C96.2976 37.9052 96.4215 37.1447 96.4172 35.978L96.4115 34.448C96.0848 34.4493 95.9209 34.2899 95.9197 33.9699L95.9172 33.2799C95.9162 33.0265 96.0424 32.8994 96.2957 32.8985L96.287 30.5285C96.2858 30.2085 96.4452 30.0479 96.7652 30.0467L99.0552 30.0382C99.3752 30.037 99.5357 30.1964 99.5369 30.5164L99.5457 32.8864C99.8257 32.8854 99.9663 33.0449 99.9675 33.3649L99.9697 33.9549ZM103.241 37.1128L101.761 37.1182L102.105 38.037L102.915 38.034L103.241 37.1128ZM101.687 35.8885C101.514 35.8891 101.427 35.9761 101.428 36.1495C101.428 36.3228 101.515 36.4091 101.689 36.4085L103.339 36.4024C103.512 36.4017 103.598 36.3148 103.598 36.1414C103.597 35.9681 103.51 35.8817 103.337 35.8824L101.687 35.8885ZM103.895 38.0303L104.785 38.027C105.058 38.026 105.195 38.1688 105.196 38.4555C105.197 38.7422 105.061 38.886 104.788 38.887L100.328 38.9036C100.055 38.9046 99.9175 38.7617 99.9164 38.4751C99.9154 38.1884 100.052 38.0446 100.325 38.0436L101.095 38.0407L100.994 37.7711C100.879 37.4648 100.979 37.2645 101.292 37.17L101.451 37.1194L100.881 37.1215C100.561 37.1227 100.401 36.9633 100.4 36.6433L100.396 35.6433C100.395 35.33 100.554 35.1727 100.874 35.1715L104.214 35.1591C104.534 35.1579 104.695 35.3174 104.696 35.6373L104.7 36.6373C104.701 36.9507 104.541 37.1079 104.221 37.1091L103.561 37.1116L103.752 37.1709C104.139 37.2694 104.229 37.4891 104.024 37.8299L103.895 38.0303ZM113.347 33.3153C113.347 33.1419 113.26 33.0556 113.086 33.0562L111.446 33.0623C111.824 34.2343 112.461 35.0652 113.356 35.5553L113.347 33.3153ZM107.966 33.0752C107.793 33.0759 107.707 33.1628 107.707 33.3362L107.716 35.6862C108.668 35.156 109.311 34.2836 109.646 33.069L107.966 33.0752ZM114.082 31.8925C114.402 31.8913 114.563 32.0508 114.564 32.3708L114.583 37.6207C114.585 37.954 114.546 38.2075 114.466 38.3812C114.387 38.5614 114.221 38.7087 113.968 38.823C113.715 38.9439 113.292 39.0022 112.698 38.9977C112.305 39.0058 112.041 38.8101 111.906 38.4106C111.778 38.0111 111.827 37.8143 112.054 37.8201C112.194 37.8262 112.551 37.8282 113.124 37.8261C113.284 37.8255 113.364 37.7519 113.363 37.6052L113.357 35.8152C113.078 36.123 112.938 36.2901 112.939 36.3168C112.773 36.5641 112.556 36.6016 112.289 36.4292C111.567 36.0252 110.981 35.2107 110.53 33.9857C110.081 35.2674 109.458 36.113 108.659 36.5227C108.393 36.6837 108.166 36.6412 107.979 36.3952L107.718 36.0562L107.727 38.6261C107.728 38.8995 107.525 39.0369 107.119 39.0384C106.719 39.0399 106.518 38.904 106.517 38.6306L106.494 32.4007C106.493 32.0807 106.652 31.9201 106.972 31.9189L110.032 31.9075L109.98 31.3977C109.966 31.2245 109.873 31.1381 109.699 31.1388L108.679 31.1426C108.406 31.1436 108.269 30.9707 108.267 30.6241C108.266 30.2774 108.402 30.1036 108.675 30.1026L110.515 30.0957C110.829 30.0946 110.999 30.2506 111.027 30.5638L111.162 31.9034L114.082 31.8925ZM117.551 31.5997C117.378 31.6003 117.291 31.6873 117.292 31.8606L117.294 32.2906C117.295 32.564 117.095 32.7014 116.695 32.7029C116.302 32.7043 116.105 32.5684 116.104 32.295L116.099 30.9751C116.098 30.6551 116.257 30.4945 116.577 30.4933L119.887 30.481L119.756 30.1915C119.642 29.9452 119.801 29.7747 120.234 29.6797C120.667 29.5848 120.941 29.6604 121.055 29.9067L121.317 30.4757L124.407 30.4643C124.727 30.4631 124.888 30.6225 124.889 30.9425L124.894 32.2625C124.895 32.5358 124.685 32.6732 124.265 32.6748C123.845 32.6764 123.635 32.5405 123.634 32.2671L123.632 31.8371C123.631 31.6638 123.544 31.5775 123.371 31.5781L117.551 31.5997ZM121.455 32.7252C121.235 32.5794 121.261 32.3893 121.533 32.1549C121.812 31.9205 122.062 31.873 122.283 32.0121C122.53 32.1446 122.901 32.3865 123.395 32.738C123.897 33.0895 124.194 33.3217 124.288 33.4347C124.462 33.5874 124.399 33.7943 124.1 34.0554C123.801 34.3165 123.568 34.3707 123.401 34.218C123.314 34.105 123.026 33.8627 122.538 33.4912C122.057 33.1196 121.696 32.8643 121.455 32.7252ZM118.373 32.0966C118.539 31.896 118.815 31.8617 119.203 31.9936C119.59 32.1188 119.704 32.2884 119.544 32.5023C119.379 32.7429 119.057 33.0708 118.578 33.4859C118.106 33.901 117.737 34.179 117.471 34.32C117.252 34.4475 117.001 34.3551 116.72 34.0428C116.446 33.7305 116.428 33.5172 116.668 33.403C116.881 33.3155 117.197 33.111 117.615 32.7894C118.034 32.4746 118.287 32.2436 118.373 32.0966ZM118.936 35.7446L122.276 35.7322C121.615 35.288 121.093 34.8666 120.712 34.468C120.598 34.3484 120.485 34.3522 120.372 34.4792C120.04 34.8671 119.561 35.2889 118.936 35.7446ZM118.744 37.6653C118.744 37.8386 118.831 37.925 119.005 37.9243L122.005 37.9132C122.178 37.9126 122.264 37.8256 122.264 37.6522L122.26 36.8123L118.74 36.8253L118.744 37.6653ZM120.057 33.0804C120.202 32.8532 120.452 32.8156 120.806 32.9676C121.16 33.1196 121.284 33.2792 121.178 33.4462C122.155 34.4626 123.388 35.2414 124.877 35.7825C125.177 35.8881 125.201 36.1113 124.949 36.4523C124.697 36.7932 124.447 36.9108 124.2 36.8051C124.1 36.7588 123.873 36.6429 123.519 36.4576L123.527 38.4976C123.528 38.8176 123.368 38.9782 123.048 38.9793L118.028 38.998C117.709 38.9991 117.548 38.8397 117.547 38.5197L117.54 36.6098C117.18 36.7911 116.941 36.9053 116.821 36.9524C116.568 37.06 116.311 36.951 116.05 36.6253C115.795 36.2929 115.801 36.0795 116.067 35.9852C116.8 35.7358 117.568 35.323 118.373 34.7466C119.191 34.1703 119.752 33.6149 120.057 33.0804Z" fill="#2382C9"/>
<path d="M83.1624 54.2294C83.0784 54.571 82.8015 54.684 82.3317 54.5684C81.8619 54.4529 81.6636 54.1816 81.7367 53.7546L81.9723 52.5698C82.014 52.3029 81.8961 52.17 81.6188 52.1711L78.8828 52.1812C78.546 53.3985 78.2556 54.1836 78.0116 54.5365C77.842 54.8464 77.506 54.8477 77.0036 54.5402C76.5011 54.2327 76.3346 53.9347 76.5042 53.646C77.0346 52.8547 77.3876 51.6641 77.563 50.0741C77.6461 49.4764 77.9759 49.2246 78.5522 49.3184C79.1392 49.4122 79.3962 49.6726 79.3231 50.0996L79.2448 50.5639L83.0855 50.7256C83.6082 50.745 83.8069 51.107 83.6815 51.8114C83.5463 52.7506 83.3733 53.5566 83.1624 54.2294ZM81.0373 46.3812C81.0357 45.9439 81.3709 45.7239 82.0429 45.7215C82.7149 45.719 83.0517 45.9364 83.0533 46.3737L83.0602 48.2137C83.062 48.7257 82.807 48.9826 82.295 48.9845L70.7911 49.0272C70.2898 49.029 70.0381 48.774 70.0362 48.262L70.0294 46.422C70.0278 45.9847 70.347 45.7648 70.987 45.7624C71.6376 45.76 71.9638 45.9775 71.9654 46.4148L71.9677 47.0228C71.9687 47.3001 72.1079 47.4383 72.3852 47.4373L75.4732 47.4258L75.4675 45.8898C75.4659 45.4525 75.7904 45.2326 76.441 45.2302C77.1024 45.2278 77.4339 45.4452 77.4355 45.8825L77.4412 47.4185L80.6251 47.4067C80.9025 47.4057 81.0406 47.2665 81.0396 46.9892L81.0373 46.3812ZM74.0262 54.1832L74.0208 52.7112L71.9888 52.7188L71.9942 54.1908L74.0262 54.1832ZM72.0041 56.8467C72.0051 57.1241 72.1443 57.2622 72.4216 57.2612L73.6216 57.2567C73.8989 57.2557 74.0371 57.1165 74.0361 56.8392L74.0319 55.7192L71.9999 55.7267L72.0041 56.8467ZM76.0785 51.0076C76.5158 51.006 76.7355 51.2878 76.7376 51.8532C76.7397 52.4185 76.5221 52.702 76.0847 52.7036L75.7967 52.7047L75.817 58.1606C75.8189 58.6726 75.5638 58.9296 75.0518 58.9315L70.9878 58.9465C70.4759 58.9484 70.2189 58.6934 70.217 58.1814L70.1968 52.7254L69.7968 52.7269C69.3595 52.7285 69.1397 52.4467 69.1376 51.8813C69.1356 51.316 69.3532 51.0325 69.7905 51.0309L70.1905 51.0294L70.1876 50.2454C70.186 49.8081 70.4838 49.5883 71.0812 49.5861C71.6785 49.5839 71.978 49.8015 71.9796 50.2388L71.9825 51.0228L74.0145 51.0152L74.0116 50.2313C74.0099 49.7939 74.3025 49.5742 74.8891 49.572C75.4865 49.5698 75.7859 49.7873 75.7876 50.2247L75.7905 51.0087L76.0785 51.0076ZM79.1433 53.3963C79.1422 53.0869 79.4563 52.9311 80.0856 52.9288C80.7149 52.9264 81.0302 53.0959 81.0315 53.4373C81.0335 53.9813 80.9875 54.5201 80.8935 55.0538C81.1951 55.8527 81.6138 56.5818 82.1496 57.2411C82.6853 57.8898 83.1081 58.2829 83.418 58.4204C83.7921 58.6324 83.7667 58.9738 83.3418 59.4447C82.9169 59.9263 82.5334 60.0504 82.1912 59.817C81.507 59.4249 80.8106 58.5954 80.1019 57.3287C79.498 58.4296 78.7917 59.2429 77.9829 59.7686C77.6106 60.0473 77.1784 59.9903 76.6863 59.5974C76.1942 59.2152 76.1397 58.9008 76.5228 58.654C76.7464 58.5358 77.0707 58.2573 77.4957 57.8184C77.9207 57.3688 78.2392 56.9623 78.4512 56.5988C78.6631 56.2247 78.8216 55.8081 78.9266 55.3491C79.0422 54.89 79.1049 54.5377 79.1147 54.2924C79.1351 54.047 79.1446 53.7483 79.1433 53.3963ZM88.176 47.0747C88.1736 46.4241 88.391 46.0979 88.8283 46.0963L92.9403 46.0811C93.4523 46.0792 93.7149 46.4089 93.728 47.0702C93.7361 52.1475 95.6537 55.8044 99.4807 58.0409C99.8762 58.2741 99.819 58.669 99.3091 59.2256C98.7991 59.7821 98.357 59.9384 97.9828 59.6945C95.5134 58.2316 93.7281 55.7315 92.627 52.1943C91.4245 55.8468 89.6418 58.3707 87.279 59.7661C86.9279 60.0021 86.458 59.8599 85.8694 59.3394C85.2915 58.8295 85.1889 58.4779 85.5615 58.2845C88.3403 56.8769 90.1067 54.2943 90.8608 50.5368C91.0078 49.8963 91.3374 49.6177 91.8497 49.7011L92.0579 49.7484L91.877 48.437C91.844 48.1598 91.6888 48.0217 91.4115 48.0227L88.8355 48.0323C88.3982 48.0339 88.1783 47.7147 88.176 47.0747ZM113.054 50.9345C113.053 50.6572 112.914 50.5191 112.637 50.5201L110.013 50.5298C110.617 52.4049 111.635 53.7345 113.068 54.5185L113.054 50.9345ZM104.445 50.5505C104.168 50.5515 104.029 50.6907 104.031 50.968L104.044 54.728C105.567 53.8797 106.596 52.4838 107.133 50.5405L104.445 50.5505ZM114.23 48.6582C114.742 48.6563 114.999 48.9113 115.001 49.4233L115.032 57.8233C115.034 58.3566 114.971 58.7622 114.844 59.04C114.718 59.3284 114.452 59.5641 114.047 59.7469C113.642 59.9404 112.966 60.0336 112.016 60.0265C111.387 60.0395 110.964 59.7264 110.749 59.0871C110.544 58.4479 110.622 58.1329 110.985 58.1423C111.209 58.1521 111.78 58.1553 112.697 58.1519C112.953 58.151 113.081 58.0332 113.08 57.7985L113.069 54.9345C112.623 55.4268 112.4 55.6943 112.4 55.737C112.135 56.1327 111.789 56.1926 111.361 55.9169C110.206 55.2705 109.268 53.9673 108.546 52.0073C107.829 54.0579 106.831 55.411 105.553 56.0664C105.128 56.324 104.765 56.256 104.465 55.8624L104.047 55.32L104.062 59.4319C104.063 59.8693 103.739 60.0891 103.088 60.0915C102.448 60.0939 102.128 59.8764 102.126 59.4391L102.089 49.4712C102.087 48.9592 102.342 48.7022 102.854 48.7003L107.75 48.6822L107.667 47.8665C107.645 47.5892 107.495 47.4511 107.217 47.4522L105.586 47.4582C105.148 47.4598 104.928 47.1833 104.926 46.6286C104.924 46.074 105.142 45.7958 105.579 45.7942L108.523 45.7833C109.025 45.7814 109.298 46.0311 109.342 46.5323L109.558 48.6755L114.23 48.6582ZM119.78 48.1896C119.503 48.1906 119.365 48.3298 119.366 48.6071L119.368 49.2951C119.37 49.7325 119.051 49.9523 118.411 49.9547C117.782 49.957 117.466 49.7395 117.464 49.3022L117.457 47.1902C117.455 46.6782 117.71 46.4213 118.222 46.4194L123.518 46.3997L123.308 45.9365C123.125 45.5425 123.38 45.2696 124.073 45.1177C124.766 44.9658 125.204 45.0868 125.386 45.4808L125.806 46.3913L130.75 46.3729C131.262 46.371 131.519 46.6261 131.52 47.1381L131.528 49.2501C131.53 49.6874 131.195 49.9073 130.523 49.9098C129.851 49.9123 129.514 49.6949 129.512 49.2575L129.51 48.5695C129.509 48.2922 129.37 48.1541 129.092 48.1551L119.78 48.1896ZM126.027 49.9905C125.674 49.7571 125.716 49.4529 126.152 49.078C126.598 48.703 126.998 48.6268 127.351 48.8495C127.746 49.0614 128.34 49.4485 129.131 50.011C129.933 50.5733 130.409 50.9449 130.559 51.1257C130.838 51.37 130.737 51.701 130.259 52.1188C129.78 52.5366 129.407 52.6233 129.14 52.3789C129.001 52.1981 128.54 51.8105 127.76 51.216C126.989 50.6216 126.412 50.213 126.027 49.9905ZM121.095 48.9847C121.361 48.6637 121.803 48.6088 122.423 48.8198C123.042 49.0202 123.224 49.2915 122.97 49.6338C122.704 50.0188 122.189 50.5434 121.424 51.2075C120.669 51.8717 120.078 52.3165 119.652 52.5421C119.301 52.7461 118.901 52.5982 118.451 52.0986C118.012 51.5988 117.984 51.2576 118.367 51.0749C118.708 50.9349 119.213 50.6077 119.883 50.0932C120.554 49.5894 120.957 49.2199 121.095 48.9847ZM121.997 54.8214L127.341 54.8016C126.282 54.0909 125.448 53.4166 124.837 52.7789C124.655 52.5876 124.474 52.5936 124.293 52.7969C123.762 53.4175 122.997 54.0924 121.997 54.8214ZM121.688 57.8946C121.689 58.1719 121.829 58.3101 122.106 58.309L126.906 58.2913C127.183 58.2902 127.321 58.151 127.32 57.8737L127.315 56.5297L121.683 56.5506L121.688 57.8946ZM123.789 50.5588C124.022 50.1952 124.422 50.1351 124.988 50.3783C125.555 50.6215 125.753 50.8768 125.583 51.1441C127.147 52.7703 129.119 54.0164 131.501 54.8822C131.982 55.0511 132.02 55.4083 131.617 55.9538C131.214 56.4993 130.815 56.6874 130.419 56.5182C130.259 56.4441 129.896 56.2588 129.329 55.9623L129.341 59.2262C129.343 59.7382 129.088 59.9952 128.576 59.9971L120.544 60.0268C120.032 60.0287 119.775 59.7737 119.773 59.2617L119.762 56.2057C119.187 56.4959 118.804 56.6786 118.612 56.754C118.207 56.9262 117.796 56.7517 117.378 56.2306C116.971 55.6987 116.98 55.3574 117.406 55.2064C118.578 54.8074 119.808 54.1469 121.095 53.2248C122.404 52.3026 123.302 51.4139 123.789 50.5588Z" fill="black" fill-opacity="0.85"/>
</g>
<defs>
<clipPath id="clip0_2306_6229">
<rect width="200" height="90" fill="white"/>
</clipPath>
</defs>
</svg>
