<svg width="192" height="240" viewBox="0 0 192 240" fill="none" xmlns="http://www.w3.org/2000/svg">
<path d="M147.832 237.835C143.664 240.517 140.673 240.651 136.283 238.353C123.113 231.459 133.576 177.869 133.576 177.869L145.125 177.352C145.125 177.352 160.333 229.79 147.832 237.835Z" fill="#228CDA"/>
<path d="M59.198 237.355C54.8908 239.805 51.8965 239.776 47.6384 237.241C34.8643 229.638 48.2359 176.7 48.2359 176.7L59.7955 176.814C59.7955 176.814 72.1198 230.006 59.198 237.355Z" fill="#228CDA"/>
<path d="M92.3165 0L185.399 198.608L0 198.965L92.3165 0Z" fill="#228CDA"/>
<path d="M92.3165 0L185.399 198.608L0 198.965L92.3165 0Z" fill="url(#paint0_linear_1878_1712)"/>
<path fill-rule="evenodd" clip-rule="evenodd" d="M96.7076 61.6974C99.9234 51.533 109.187 44.0478 120.344 44.0262C134.254 43.9994 145.265 55.5851 145.292 69.5426C145.319 83.5 134.352 95.1282 120.442 95.155C107.389 95.1802 96.8877 84.9784 95.6222 72.187C93.8144 71.7846 92.0229 71.5078 90.8202 71.5369C90.3967 71.5472 89.8926 71.599 89.3391 71.6821C88.3904 84.749 77.8103 95.3036 64.5588 95.3291C50.649 95.356 39.6377 83.7702 39.6108 69.8128C39.5839 55.8553 50.5505 44.2272 64.4603 44.2004C75.4329 44.1792 84.6018 51.3841 87.9981 61.279C88.859 61.1567 89.7318 61.0715 90.5669 61.0513C92.598 61.0022 94.8357 61.3268 96.7076 61.6974ZM120.364 54.5149C112.56 54.53 105.959 61.131 105.975 69.6184C105.992 78.1059 112.618 84.6814 120.422 84.6663C128.226 84.6512 134.827 78.0502 134.811 69.5628C134.794 61.0753 128.168 54.4999 120.364 54.5149ZM64.4805 54.6891C56.6765 54.7041 50.0755 61.3051 50.0919 69.7926C50.1083 78.28 56.7346 84.8555 64.5386 84.8404C72.3427 84.8254 78.9436 78.2244 78.9273 69.7369C78.9109 61.2495 72.2846 54.674 64.4805 54.6891Z" fill="#FA8F21"/>
<path d="M72.5479 69.7477C72.5568 74.337 68.9647 78.0644 64.5249 78.0729C60.0851 78.0815 56.4787 74.3681 56.4698 69.7788C56.461 65.1895 60.053 61.4621 64.4929 61.4536C68.9327 61.445 72.5391 65.1584 72.5479 69.7477Z" fill="black"/>
<path d="M128.432 69.6398C128.44 74.2291 124.848 77.9565 120.409 77.965C115.969 77.9736 112.362 74.2602 112.353 69.6709C112.345 65.0816 115.937 61.3542 120.376 61.3457C124.816 61.3371 128.423 65.0505 128.432 69.6398Z" fill="black"/>
<path fill-rule="evenodd" clip-rule="evenodd" d="M80.7718 103.016C80.7663 100.12 83.108 97.767 86.0023 97.7615L99.7134 97.735C102.608 97.7294 104.958 100.073 104.964 102.969C104.97 105.866 102.628 108.218 99.7336 108.224L86.0225 108.25C83.1282 108.256 80.7774 105.912 80.7718 103.016Z" fill="black"/>
<path d="M180.868 155.06C179.903 159.155 178.161 161.019 174.143 162.257C162.089 165.97 137.062 127.554 137.062 127.554L143.787 120.358C143.787 120.358 183.763 142.776 180.868 155.06Z" fill="#228CDA"/>
<path d="M9.23691 155.381C5.4065 153.647 3.91273 151.578 3.47016 147.395C2.14247 134.843 44.6198 117.637 44.6198 117.637L50.3866 125.623C50.3866 125.623 20.7281 160.582 9.23691 155.381Z" fill="#228CDA"/>
<path d="M156.3 9.56737C157.427 6.52174 161.735 6.52173 162.862 9.56736L165.655 17.1157C166.009 18.0733 166.764 18.8283 167.721 19.1826L175.271 21.9758C178.316 23.1027 178.316 27.4103 175.271 28.5372L167.722 31.3305C166.764 31.6848 166.009 32.4397 165.655 33.3972L162.862 40.9462C161.735 43.9917 157.427 43.9917 156.3 40.9462L153.507 33.3972C153.153 32.4397 152.398 31.6848 151.44 31.3305L143.891 28.5372C140.846 27.4103 140.846 23.1027 143.891 21.9758L151.441 19.1825C152.398 18.8282 153.153 18.0732 153.507 17.1156L156.3 9.56737Z" fill="#FFFA72"/>
<path fill-rule="evenodd" clip-rule="evenodd" d="M152.169 21.1509L144.62 23.9442C143.402 24.395 143.401 26.118 144.62 26.5688L152.169 29.362C153.701 29.9289 154.909 31.1368 155.475 32.6689L158.269 40.2178C158.719 41.436 160.443 41.436 160.893 40.2178L163.687 32.6689C164.253 31.1368 165.461 29.9289 166.993 29.362L174.542 26.5688C175.76 26.1181 175.76 24.395 174.542 23.9443L166.993 21.151C165.461 20.5841 164.253 19.3762 163.686 17.8441L160.893 10.2957C160.443 9.07744 158.719 9.07743 158.269 10.2957L155.476 17.8439C154.909 19.376 153.701 20.584 152.169 21.1509ZM162.862 9.56736C161.735 6.52173 157.427 6.52174 156.3 9.56737L153.507 17.1156C153.153 18.0732 152.398 18.8282 151.441 19.1825L143.891 21.9758C140.846 23.1027 140.846 27.4103 143.891 28.5372L151.44 31.3305C152.398 31.6848 153.153 32.4397 153.507 33.3972L156.3 40.9462C157.427 43.9917 161.735 43.9917 162.862 40.9462L165.655 33.3972C166.009 32.4397 166.764 31.6848 167.722 31.3305L175.271 28.5372C178.316 27.4103 178.316 23.1027 175.271 21.9758L167.721 19.1826C166.764 18.8283 166.009 18.0733 165.655 17.1157L162.862 9.56736Z" fill="#EBE08F"/>
<path d="M177.459 38.0227C178.135 36.1953 180.72 36.1953 181.396 38.0227L183.554 43.8572C183.767 44.4318 184.22 44.8848 184.795 45.0974L190.629 47.2564C192.457 47.9325 192.457 50.5171 190.63 51.1932L184.795 53.3522C184.22 53.5648 183.767 54.0177 183.555 54.5923L181.396 60.4271C180.719 62.2545 178.135 62.2545 177.459 60.4271L175.3 54.5923C175.087 54.0177 174.634 53.5648 174.06 53.3522L168.225 51.1932C166.398 50.517 166.398 47.9325 168.225 47.2563L174.06 45.0973C174.634 44.8847 175.087 44.4317 175.3 43.8572L177.459 38.0227Z" fill="#FFFA72"/>
<path fill-rule="evenodd" clip-rule="evenodd" d="M174.788 47.0657L168.953 49.2248L174.788 51.3838C175.937 51.8089 176.843 52.7149 177.268 53.8639L179.427 59.6988L181.586 53.8639C182.011 52.7149 182.917 51.8089 184.066 51.3838L189.901 49.2248L184.066 47.0658C182.917 46.6406 182.011 45.7346 181.586 44.5856L179.427 38.751L177.268 44.5855C176.843 45.7346 175.937 46.6405 174.788 47.0657ZM181.396 38.0227C180.72 36.1953 178.135 36.1953 177.459 38.0227L175.3 43.8572C175.087 44.4317 174.634 44.8847 174.06 45.0973L168.225 47.2563C166.398 47.9325 166.398 50.517 168.225 51.1932L174.06 53.3522C174.634 53.5648 175.087 54.0177 175.3 54.5923L177.459 60.4271C178.135 62.2545 180.719 62.2545 181.396 60.4271L183.555 54.5923C183.767 54.0177 184.22 53.5648 184.795 53.3522L190.63 51.1932C192.457 50.5171 192.457 47.9325 190.629 47.2564L184.795 45.0974C184.22 44.8848 183.767 44.4318 183.554 43.8572L181.396 38.0227Z" fill="#EBE08F"/>
<path fill-rule="evenodd" clip-rule="evenodd" d="M160.884 15.5681C161.174 15.5529 161.421 15.7751 161.436 16.0645C161.491 17.1076 161.824 18.7406 162.638 20.2004C163.447 21.6514 164.706 22.8922 166.612 23.2734C166.896 23.3302 167.08 23.6067 167.023 23.8908C166.967 24.175 166.69 24.3593 166.406 24.3024C164.114 23.844 162.632 22.3447 161.722 20.7115C160.816 19.0872 160.45 17.2921 160.388 16.1197C160.373 15.8303 160.595 15.5833 160.884 15.5681Z" fill="white"/>
<path fill-rule="evenodd" clip-rule="evenodd" d="M180.104 43.9041C180.393 43.8779 180.648 44.0906 180.674 44.3792C180.725 44.9453 180.963 45.8337 181.5 46.6008C182.026 47.3529 182.831 47.9802 184.052 48.1023C184.34 48.1311 184.55 48.3882 184.521 48.6766C184.493 48.9649 184.235 49.1753 183.947 49.1465C182.37 48.9887 181.309 48.1585 180.64 47.2024C179.981 46.2612 179.694 45.1906 179.629 44.4742C179.603 44.1856 179.815 43.9303 180.104 43.9041Z" fill="white"/>
<defs>
<linearGradient id="paint0_linear_1878_1712" x1="95.6036" y1="0.00169193" x2="96.1423" y2="239.755" gradientUnits="userSpaceOnUse">
<stop stop-color="#2189D6" stop-opacity="0"/>
<stop offset="1" stop-color="#266798" stop-opacity="0.7"/>
</linearGradient>
</defs>
</svg>
