<svg width="200" height="90" viewBox="0 0 200 90" fill="none" xmlns="http://www.w3.org/2000/svg">
<g clip-path="url(#clip0_1720_2107)">
<rect width="200" height="90" fill="#FEB79D"/>
<path fill-rule="evenodd" clip-rule="evenodd" d="M-6.18027 85.5257C-5.5206 81.3514 -9.94765 77.2571 -7.65473 73.2393C-4.94813 68.4966 -1.65241 61.9915 7.77154 61.0783C17.9972 60.0873 23.5998 68.8258 33.9785 69.2048C45.8176 69.6371 56.5881 60.196 66.8872 63.2371C76.2425 65.9996 70.121 74.0119 68.9752 79.5387C68.1676 83.4341 61.5364 86.4306 61.2669 90.3457C60.8502 96.3973 75.7689 103.853 67.0229 107.895C58.3557 111.9 45.7383 103.802 34.2527 102.83C27.3162 102.243 20.5655 103.925 13.6182 103.373C4.65786 102.66 -7.2514 103.227 -11.7526 99.1698C-16.3208 95.0519 -6.92748 90.2539 -6.18027 85.5257Z" fill="#FE585B"/>
<path fill-rule="evenodd" clip-rule="evenodd" d="M28.4743 10.5302C32.6486 10.8717 36.7429 8.58004 40.7607 9.76696C45.5034 11.168 52.0085 12.874 52.9217 17.7523C53.9127 23.0456 45.1742 25.9458 44.7952 31.3183C44.3629 37.4467 53.804 43.0221 50.7629 48.3534C48.0004 53.1961 39.9881 50.0274 34.4613 49.4342C30.5659 49.0162 27.5694 45.5836 23.6543 45.444C17.6027 45.2284 10.1469 52.9509 6.10508 48.4236C2.09968 43.9371 10.1975 37.4057 11.1701 31.4602C11.7575 27.8695 10.0747 24.3751 10.6274 20.7788C11.3402 16.1405 10.7727 9.97575 14.8302 7.64571C18.9481 5.281 23.7461 10.1434 28.4743 10.5302Z" fill="#FC7443"/>
<path fill-rule="evenodd" clip-rule="evenodd" d="M173.474 4.53021C177.649 4.87169 181.743 2.58004 185.761 3.76696C190.503 5.16803 197.008 6.87405 197.922 11.7523C198.913 17.0456 190.174 19.9458 189.795 25.3183C189.363 31.4467 198.804 37.0221 195.763 42.3534C193 47.1961 184.988 44.0274 179.461 43.4342C175.566 43.0162 172.569 39.5836 168.654 39.444C162.603 39.2284 155.147 46.9509 151.105 42.4236C147.1 37.9371 155.198 31.4057 156.17 25.4602C156.757 21.8695 155.075 18.3751 155.627 14.7788C156.34 10.1405 155.773 3.97575 159.83 1.64571C163.948 -0.719004 168.746 4.14342 173.474 4.53021Z" fill="#FF8787"/>
<path fill-rule="evenodd" clip-rule="evenodd" d="M117.063 7.20494C131.49 7.9797 144.155 11.9054 154.996 17.5775C166.733 23.7188 176.896 30.8598 179.688 39.9711C183.097 51.0949 184.354 63.7453 171.749 72.2549C158.691 81.0707 136.857 81.4742 117.063 82.2497C95.2362 83.1048 71.8992 84.7511 54.6033 76.8446C35.6156 68.1646 20.8565 53.9771 24.5773 39.9711C28.0889 26.7526 52.1053 19.9805 71.5388 13.0955C85.3864 8.18958 100.98 6.34119 117.063 7.20494Z" fill="#FFAB7A"/>
<ellipse cx="177.987" cy="70.7269" rx="16.7876" ry="14.0511" fill="#F55A57"/>
<ellipse cx="173.711" cy="65.6395" rx="1.21537" ry="2.15126" fill="black"/>
<ellipse cx="182.286" cy="65.6395" rx="1.21537" ry="2.15126" fill="black"/>
<path d="M173.043 72.6445C173.079 74.5722 175.312 76.0937 178.031 76.0428C180.749 75.9919 182.924 74.388 182.888 72.4603C182.852 70.5326 180.67 71.7825 177.952 71.8334C175.233 71.8843 173.007 70.7168 173.043 72.6445Z" fill="black"/>
<path d="M170.796 50.9035C173.677 48.6452 180.1 51.1915 180.1 55.0219C180.101 59.542 168.086 61.6232 165.801 61.9782C165.552 62.0169 165.303 62.044 165.054 62.039C163.425 62.0062 157.615 61.2375 170.796 50.9035Z" fill="#6E5232"/>
<path d="M170.796 50.9035C173.677 48.6452 180.1 51.1915 180.1 55.0219C180.101 59.542 168.086 61.6232 165.801 61.9782C165.552 62.0169 165.303 62.044 165.054 62.039C163.425 62.0062 157.615 61.2375 170.796 50.9035Z" fill="url(#paint0_radial_1720_2107)" fill-opacity="0.15"/>
<path d="M185.2 50.7629C182.319 48.5045 175.896 51.0509 175.896 54.8813C175.896 59.4014 187.91 61.4825 190.195 61.8375C190.445 61.8763 190.693 61.9034 190.942 61.8984C192.571 61.8656 198.381 61.0968 185.2 50.7629Z" fill="#6E5232"/>
<path d="M185.2 50.7629C182.319 48.5045 175.896 51.0509 175.896 54.8813C175.896 59.4014 187.91 61.4825 190.195 61.8375C190.445 61.8763 190.693 61.9034 190.942 61.8984C192.571 61.8656 198.381 61.0968 185.2 50.7629Z" fill="url(#paint1_radial_1720_2107)" fill-opacity="0.15"/>
<path d="M67.3887 36.2917C67.022 36.2931 66.838 36.1104 66.8366 35.7437L66.8147 29.8438C66.8134 29.4771 66.996 29.2931 67.3627 29.2917L67.4127 29.2916C67.7794 29.2902 67.9634 29.4729 67.9647 29.8395L67.973 32.0695L71.153 32.0577L71.1447 29.8277C71.1434 29.4611 71.3293 29.277 71.7027 29.2757L71.7627 29.2754C72.1293 29.2741 72.3134 29.4567 72.3147 29.8234L72.3366 35.7234C72.3379 36.09 72.1553 36.274 71.7886 36.2754L71.7286 36.2756C71.3553 36.277 71.1679 36.0944 71.1666 35.7277L71.157 33.1277L67.977 33.1395L67.9866 35.7395C67.988 36.1061 67.8053 36.2902 67.4387 36.2915L67.3887 36.2917ZM76.0227 36.2597C75.6293 36.2612 75.4319 36.0652 75.4305 35.6719L75.4107 30.3319L73.8907 30.3376C73.4974 30.339 73.3 30.1631 73.2987 29.8098C73.2974 29.4498 73.4934 29.269 73.8867 29.2676L78.0767 29.252C78.4767 29.2506 78.6774 29.4298 78.6787 29.7898C78.68 30.1431 78.4807 30.3205 78.0807 30.322L76.5807 30.3276L76.6005 35.6676C76.6019 36.0609 76.4093 36.2583 76.0227 36.2597ZM80.2604 36.244C79.8737 36.2454 79.6796 36.0495 79.6782 35.6561L79.6566 29.8362C79.6558 29.6095 79.7119 29.456 79.8249 29.3756C79.9446 29.2884 80.1178 29.2445 80.3444 29.2436C80.6511 29.2425 80.8849 29.375 81.0459 29.641L82.8269 32.5945L84.5659 29.638C84.6586 29.471 84.7649 29.3606 84.8847 29.3068C85.0111 29.253 85.1744 29.2257 85.3744 29.225C85.7677 29.2235 85.9651 29.4195 85.9666 29.8128L85.9881 35.6328C85.9896 36.0261 85.7937 36.2235 85.4003 36.2249C85.007 36.2264 84.8096 36.0305 84.8081 35.6371L84.7918 31.2372L83.3909 33.6824C83.2519 33.9562 83.0624 34.0936 82.8224 34.0945C82.5824 34.0954 82.3919 33.9594 82.2509 33.6866L80.8219 31.2519L80.8382 35.6518C80.8396 36.0452 80.647 36.2426 80.2604 36.244ZM87.9949 36.2153C87.6016 36.2168 87.4042 36.0208 87.4027 35.6275L87.3812 29.8076C87.3797 29.4142 87.569 29.2169 87.949 29.2154C88.3356 29.214 88.5297 29.41 88.5312 29.8033L88.5509 35.1433L91.6109 35.1319C92.0043 35.1305 92.2016 35.3064 92.2029 35.6597C92.2042 36.0197 92.0082 36.2004 91.6149 36.2019L87.9949 36.2153ZM94.6182 36.2508C93.9849 36.2531 93.4407 36.0351 92.9858 35.5968C92.8386 35.4574 92.7747 35.3176 92.7942 35.1775C92.8137 35.0308 92.8966 34.9138 93.0429 34.8266C93.1959 34.7327 93.3325 34.7022 93.4526 34.7351C93.5727 34.7613 93.7063 34.8308 93.8534 34.9436C93.9604 35.0299 94.0773 35.0994 94.2041 35.1523C94.331 35.2052 94.4678 35.2313 94.6144 35.2308C94.9878 35.2294 95.2674 35.1184 95.4532 34.8977C95.6457 34.6703 95.7412 34.3566 95.7397 33.9566C95.7381 33.5233 95.6536 33.2102 95.4862 33.0175C95.3255 32.8181 95.0985 32.719 94.8051 32.7201C94.7051 32.7204 94.6085 32.7375 94.5153 32.7711C94.4288 32.7981 94.3489 32.8351 94.2757 32.882C94.1427 32.9558 94.0263 33.0296 93.9265 33.1033C93.8268 33.1704 93.7003 33.2042 93.5469 33.2047C93.1803 33.2061 92.9962 33.0101 92.9947 32.6168L92.9842 29.7868C92.9828 29.3935 93.1821 29.196 93.5821 29.1946L95.952 29.1858C96.3454 29.1843 96.5426 29.3469 96.5439 29.6736C96.5451 30.0003 96.349 30.1643 95.9557 30.1658L94.0557 30.1728L94.0625 32.0128C94.1755 31.9324 94.2986 31.8686 94.4318 31.8214C94.5649 31.7676 94.6982 31.7404 94.8315 31.74C95.2048 31.7386 95.5385 31.8207 95.8324 31.9862C96.133 32.1518 96.3706 32.3976 96.5452 32.7236C96.7264 33.0496 96.8179 33.4593 96.8197 33.9526C96.8224 34.6793 96.6212 35.2433 96.216 35.6448C95.8108 36.0464 95.2782 36.2483 94.6182 36.2508ZM102.781 37.0705C102.628 37.0711 102.494 37.0183 102.381 36.912C102.274 36.8124 102.22 36.6793 102.219 36.5126L102.212 34.5526C102.04 34.7999 101.857 35.0439 101.665 35.2846C101.472 35.5254 101.3 35.7227 101.147 35.8766C101.041 35.9836 100.914 36.0474 100.768 36.068C100.621 36.0885 100.491 36.0457 100.377 35.9394C100.277 35.8465 100.223 35.7367 100.216 35.61C100.209 35.4767 100.252 35.3666 100.345 35.2795C100.497 35.1323 100.667 34.9517 100.853 34.7377C101.045 34.5236 101.228 34.3063 101.4 34.0856C101.579 33.8583 101.729 33.6611 101.848 33.494L100.958 33.4973C100.811 33.4978 100.691 33.4516 100.598 33.3586C100.504 33.2656 100.457 33.1491 100.456 33.0091C100.456 32.8758 100.502 32.7623 100.595 32.6686C100.688 32.5683 100.808 32.5178 100.954 32.5173L102.204 32.5126L102.202 31.8326L100.742 31.838C100.595 31.8386 100.478 31.7957 100.391 31.7093C100.311 31.6163 100.271 31.5065 100.27 31.3798C100.27 31.2465 100.309 31.1363 100.389 31.0493C100.475 30.9557 100.592 30.9086 100.738 30.9081L101.478 30.9053C101.431 30.7921 101.384 30.679 101.337 30.5658C101.297 30.446 101.266 30.3561 101.246 30.2962C101.199 30.163 101.202 30.043 101.255 29.9361C101.308 29.8226 101.398 29.7489 101.524 29.7151L101.554 29.705L100.944 29.7073C100.804 29.7078 100.691 29.6649 100.604 29.5785C100.523 29.4855 100.483 29.3757 100.482 29.249C100.482 29.1223 100.521 29.0155 100.601 28.9285C100.687 28.8349 100.801 28.7878 100.941 28.7873L102.161 28.7828L102.158 28.1928C102.158 28.0394 102.211 27.9126 102.317 27.8122C102.43 27.7118 102.57 27.6612 102.736 27.6606C102.91 27.66 103.05 27.7095 103.157 27.8091C103.271 27.9086 103.328 28.0351 103.328 28.1884L103.331 28.7784L104.531 28.774C104.677 28.7734 104.791 28.8197 104.871 28.9127C104.951 28.9991 104.992 29.1056 104.992 29.2323C104.993 29.3589 104.953 29.4691 104.874 29.5627C104.794 29.6497 104.681 29.6934 104.534 29.694L103.974 29.6961C104.107 29.7356 104.198 29.8119 104.245 29.925C104.299 30.0315 104.302 30.1515 104.256 30.285C104.23 30.3518 104.193 30.4419 104.147 30.5554C104.108 30.6689 104.061 30.7824 104.008 30.8959L104.688 30.8934C104.835 30.8929 104.949 30.9391 105.029 31.0322C105.109 31.1185 105.15 31.2284 105.15 31.3617C105.151 31.4884 105.111 31.5985 105.031 31.6921C104.952 31.7791 104.839 31.8229 104.692 31.8234L103.312 31.8285L103.314 32.5085L104.444 32.5043C104.598 32.5038 104.718 32.5533 104.805 32.653C104.899 32.746 104.946 32.8591 104.946 32.9925C104.947 33.1325 104.9 33.2493 104.808 33.343C104.721 33.4366 104.601 33.4838 104.448 33.4843L103.428 33.4881C103.515 33.5811 103.629 33.694 103.769 33.8268C103.916 33.9596 104.064 34.0891 104.211 34.2152C104.365 34.3346 104.488 34.4275 104.582 34.4938C104.689 34.5801 104.746 34.6932 104.753 34.8332C104.767 34.9731 104.727 35.0933 104.634 35.1936C104.535 35.3007 104.418 35.3578 104.285 35.3649C104.152 35.3654 104.031 35.3192 103.924 35.2263C103.764 35.0735 103.563 34.8743 103.322 34.6285L103.329 36.5085C103.33 36.6752 103.277 36.8087 103.171 36.9091C103.064 37.0161 102.935 37.07 102.781 37.0705ZM107.881 37.0216C107.728 37.0222 107.594 36.9693 107.481 36.8631C107.367 36.7569 107.31 36.6171 107.309 36.4437L107.292 31.9638L106.462 31.9668C106.46 33.0135 106.356 33.9073 106.152 34.648C105.948 35.3821 105.624 36.0466 105.18 36.6416C105.074 36.7754 104.934 36.8559 104.761 36.8832C104.594 36.9171 104.441 36.8877 104.3 36.7949C104.18 36.7087 104.106 36.5889 104.079 36.4357C104.058 36.2891 104.095 36.1623 104.188 36.0553C104.466 35.7209 104.688 35.3501 104.853 34.9428C105.025 34.5289 105.147 34.0584 105.218 33.5315C105.29 32.9979 105.324 32.3877 105.321 31.7011L105.316 30.1511C105.314 29.7778 105.357 29.4809 105.442 29.2606C105.535 29.0336 105.681 28.8597 105.88 28.739C106.087 28.6115 106.356 28.5105 106.689 28.436C106.949 28.3817 107.246 28.3072 107.579 28.2127C107.918 28.1114 108.221 28.0203 108.488 27.9393C108.667 27.8786 108.827 27.8814 108.968 27.9475C109.108 28.007 109.201 28.1033 109.249 28.2365C109.303 28.3963 109.303 28.5496 109.25 28.6965C109.198 28.8367 109.091 28.9304 108.931 28.9777C108.645 29.0521 108.352 29.1265 108.052 29.2009C107.752 29.2754 107.456 29.3465 107.163 29.4142C106.89 29.4819 106.704 29.5693 106.604 29.6763C106.504 29.7833 106.455 29.9735 106.456 30.2469L106.458 30.8769L109.008 30.8674C109.175 30.8668 109.305 30.9196 109.399 31.026C109.499 31.1322 109.55 31.2621 109.55 31.4154C109.551 31.5621 109.501 31.6889 109.402 31.7959C109.309 31.903 109.179 31.9568 109.012 31.9574L108.442 31.9595L108.459 36.4395C108.46 36.6128 108.404 36.753 108.291 36.8601C108.178 36.9672 108.041 37.021 107.881 37.0216ZM102.488 30.9016L102.988 30.8997C103.041 30.7662 103.104 30.6059 103.177 30.419C103.249 30.2321 103.309 30.0785 103.355 29.9583C103.401 29.8315 103.481 29.7445 103.594 29.6975L101.874 29.7038C101.927 29.7236 101.978 29.7568 102.024 29.8033C102.078 29.8431 102.118 29.8996 102.145 29.9728C102.172 30.0261 102.206 30.1126 102.246 30.2325C102.286 30.3456 102.33 30.4655 102.377 30.592C102.424 30.7118 102.461 30.815 102.488 30.9016ZM110.864 35.0806C110.704 35.1345 110.554 35.1284 110.414 35.0622C110.274 34.9961 110.18 34.8864 110.133 34.7333C110.092 34.5801 110.105 34.44 110.171 34.3131C110.237 34.1795 110.354 34.0891 110.52 34.0418C110.613 34.0148 110.713 33.9844 110.82 33.9507C110.933 33.9103 111.053 33.8698 111.179 33.8294L111.17 31.2394L110.62 31.2414C110.473 31.242 110.35 31.1924 110.249 31.0928C110.149 30.9865 110.098 30.86 110.098 30.7134C110.097 30.5667 110.147 30.4432 110.246 30.3428C110.346 30.2358 110.469 30.182 110.616 30.1814L111.166 30.1794L111.159 28.3794C111.159 28.2327 111.208 28.1092 111.308 28.0089C111.414 27.9085 111.537 27.858 111.677 27.8575C111.824 27.8569 111.947 27.9065 112.048 28.0061C112.155 28.1057 112.209 28.2289 112.209 28.3755L112.216 30.1755L112.656 30.1739C112.689 30.1738 112.719 30.177 112.746 30.1835C112.773 30.1901 112.799 30.2 112.826 30.2132L112.856 30.1831C113.009 30.0359 113.178 29.8519 113.364 29.6312C113.556 29.4039 113.739 29.1732 113.911 28.9392C114.084 28.7052 114.223 28.5014 114.329 28.3277C114.402 28.1941 114.508 28.117 114.648 28.0965C114.795 28.0693 114.925 28.0921 115.038 28.165C115.152 28.2313 115.226 28.3277 115.259 28.4542C115.293 28.5808 115.27 28.7108 115.191 28.8445C115.091 28.9915 114.975 29.1619 114.843 29.3558C114.71 29.5429 114.568 29.7335 114.415 29.9274C114.615 29.8866 114.858 29.8657 115.145 29.8646L117.355 29.8565C117.428 29.8562 117.498 29.8559 117.565 29.8557C117.631 29.8554 117.698 29.8619 117.765 29.8749C117.537 29.6224 117.35 29.3865 117.202 29.167C117.122 29.0473 117.048 28.9609 116.981 28.9078C116.921 28.8547 116.848 28.8217 116.761 28.8087C116.674 28.7956 116.554 28.7894 116.401 28.79L115.941 28.7917C115.821 28.7921 115.717 28.7459 115.63 28.6528C115.543 28.5532 115.499 28.4433 115.499 28.3233C115.499 28.2033 115.541 28.0965 115.628 28.0028C115.714 27.9025 115.817 27.8521 115.937 27.8517L116.427 27.8499C116.774 27.8486 117.044 27.8709 117.237 27.9169C117.431 27.9628 117.591 28.0489 117.718 28.1751C117.852 28.2946 117.996 28.4707 118.15 28.7035C118.251 28.8565 118.382 29.0193 118.542 29.192C118.71 29.3648 118.883 29.5341 119.064 29.7001C119.251 29.8594 119.422 30.0021 119.576 30.1282C119.689 30.2145 119.75 30.3342 119.757 30.4876C119.771 30.6408 119.728 30.7743 119.629 30.888C119.542 30.995 119.432 31.0588 119.299 31.0793C119.173 31.0997 119.049 31.0769 118.929 31.0106C118.936 31.0706 118.939 31.1339 118.94 31.2006C118.947 31.2672 118.95 31.3372 118.95 31.4106C118.952 31.8105 118.903 32.1241 118.804 32.3511C118.711 32.5781 118.549 32.7387 118.316 32.8329C118.089 32.9271 117.773 32.9749 117.366 32.9764L115.156 32.9846C114.75 32.9861 114.429 32.9407 114.196 32.8482C113.962 32.7557 113.798 32.5963 113.704 32.37C113.61 32.1437 113.562 31.8305 113.56 31.4305C113.56 31.3172 113.563 31.2172 113.569 31.1305C113.576 31.0371 113.585 30.9471 113.598 30.8604C113.439 31.001 113.269 31.0449 113.089 30.9923C113.042 31.0591 112.983 31.116 112.909 31.1629C112.836 31.2099 112.753 31.2335 112.66 31.2339L112.22 31.2355L112.228 33.4855C112.335 33.4518 112.435 33.4214 112.528 33.3944C112.621 33.3607 112.704 33.3304 112.777 33.3034C112.924 33.2496 113.057 33.2557 113.177 33.322C113.298 33.3882 113.378 33.4879 113.419 33.6211C113.459 33.7676 113.45 33.9043 113.39 34.0312C113.331 34.1514 113.224 34.2385 113.071 34.2924C112.951 34.3328 112.795 34.3901 112.602 34.4641C112.409 34.5315 112.202 34.6056 111.983 34.6864C111.763 34.7672 111.553 34.8447 111.353 34.9187C111.154 34.9861 110.991 35.0401 110.864 35.0806ZM115.68 36.8027C115.254 36.8043 114.92 36.7589 114.68 36.6664C114.44 36.5806 114.269 36.4313 114.168 36.2183C114.067 36.012 114.016 35.7322 114.015 35.3789L114.013 34.7589C114.012 34.4055 114.06 34.1254 114.16 33.9183C114.259 33.7113 114.428 33.564 114.668 33.4764C114.908 33.3822 115.241 33.3343 115.668 33.3327L116.848 33.3284C117.268 33.3268 117.598 33.3722 117.838 33.4647C118.078 33.5505 118.249 33.6965 118.35 33.9028C118.457 34.1091 118.511 34.3889 118.513 34.7422L118.515 35.3622C118.516 35.7155 118.464 35.9957 118.358 36.2028C118.259 36.4165 118.09 36.5671 117.85 36.6547C117.61 36.7489 117.28 36.7968 116.86 36.7983L115.68 36.8027ZM116.703 32.1389L117.303 32.1367C117.616 32.1355 117.813 32.0881 117.893 31.9945C117.979 31.9008 118.022 31.7073 118.02 31.414C118.019 31.1207 117.975 30.9275 117.888 30.8345C117.808 30.7348 117.611 30.6855 117.298 30.6867L116.698 30.6889L116.703 32.1389ZM115.203 32.1444L115.793 32.1423L115.788 30.6923L115.198 30.6945C114.891 30.6956 114.695 30.743 114.608 30.8366C114.529 30.9303 114.489 31.1271 114.49 31.4271C114.491 31.6271 114.508 31.7804 114.542 31.8869C114.576 31.9868 114.643 32.0565 114.743 32.0962C114.85 32.1291 115.003 32.1452 115.203 32.1444ZM115.677 35.9427L116.857 35.9383C117.084 35.9375 117.244 35.9069 117.337 35.8466C117.437 35.7862 117.49 35.6627 117.496 35.476L115.036 35.4851C115.05 35.6717 115.103 35.7948 115.197 35.8545C115.29 35.9141 115.451 35.9436 115.677 35.9427ZM115.032 34.6351L117.492 34.626C117.478 34.4527 117.421 34.3362 117.321 34.2766C117.227 34.2103 117.071 34.1775 116.851 34.1784L115.671 34.1827C115.451 34.1835 115.291 34.2175 115.191 34.2845C115.098 34.3449 115.045 34.4617 115.032 34.6351ZM115.473 32.0434C115.373 32.0905 115.266 32.1009 115.153 32.0746C115.046 32.0484 114.966 31.982 114.912 31.8755C114.879 31.8023 114.838 31.7225 114.791 31.636C114.744 31.5495 114.694 31.463 114.64 31.3765C114.587 31.2834 114.576 31.1834 114.609 31.0766C114.649 30.9698 114.722 30.8929 114.828 30.8458C114.941 30.7921 115.048 30.7817 115.148 30.8146C115.255 30.8409 115.339 30.9106 115.399 31.0237C115.433 31.0903 115.476 31.1734 115.53 31.2732C115.59 31.3663 115.634 31.4428 115.661 31.5027C115.714 31.6092 115.722 31.7125 115.682 31.8127C115.649 31.9128 115.579 31.9897 115.473 32.0434ZM117.013 32.0377C116.913 31.9848 116.842 31.9084 116.802 31.8085C116.768 31.7086 116.774 31.6053 116.821 31.4984C116.854 31.4383 116.897 31.3615 116.95 31.268C117.003 31.1678 117.049 31.0843 117.089 31.0174C117.142 30.9039 117.222 30.8336 117.328 30.8066C117.441 30.7728 117.551 30.7824 117.658 30.8353C117.758 30.8816 117.825 30.9581 117.859 31.0646C117.9 31.1711 117.893 31.2711 117.84 31.3647C117.794 31.4515 117.748 31.5383 117.701 31.6252C117.655 31.712 117.612 31.7922 117.572 31.8657C117.526 31.9725 117.446 32.0395 117.333 32.0666C117.22 32.0936 117.113 32.084 117.013 32.0377ZM125.212 31.9473C124.652 31.9494 124.269 31.8542 124.061 31.6616C123.854 31.469 123.749 31.1361 123.748 30.6628C123.746 30.1828 123.848 29.8491 124.054 29.6616C124.26 29.4675 124.643 29.3694 125.203 29.3674L125.273 29.3671L125.271 28.8671L123.841 28.8724C123.721 28.8729 123.618 28.8332 123.531 28.7536C123.45 28.6672 123.41 28.564 123.409 28.444C123.409 28.324 123.449 28.2239 123.528 28.1436C123.615 28.0566 123.718 28.0129 123.838 28.0124L129.138 27.9928C129.258 27.9923 129.361 28.0353 129.448 28.1216C129.535 28.2013 129.579 28.3011 129.579 28.4211C129.58 28.5411 129.537 28.6446 129.451 28.7316C129.364 28.8119 129.261 28.8523 129.141 28.8528L127.671 28.8582L127.673 29.3582L127.783 29.3578C128.343 29.3557 128.727 29.451 128.934 29.6435C129.141 29.8294 129.246 30.1624 129.248 30.6424C129.249 31.1157 129.147 31.4494 128.941 31.6435C128.735 31.8376 128.352 31.9357 127.792 31.9378L125.212 31.9473ZM122.091 36.9989C121.945 36.9995 121.821 36.9533 121.721 36.8603C121.627 36.7673 121.58 36.6442 121.579 36.4908L121.567 33.1009C121.467 33.3079 121.372 33.5049 121.279 33.6919C121.186 33.8723 121.097 34.0293 121.011 34.1629C120.938 34.2899 120.828 34.3703 120.682 34.4042C120.535 34.4314 120.402 34.4052 120.281 34.3256C120.161 34.2528 120.091 34.153 120.07 34.0264C120.056 33.8931 120.083 33.7664 120.149 33.6461C120.261 33.4657 120.384 33.2486 120.516 32.9948C120.655 32.7409 120.791 32.4771 120.923 32.2032C121.056 31.9228 121.178 31.6523 121.29 31.3919C121.403 31.1315 121.492 30.9011 121.558 30.7009L121.557 30.5809L120.597 30.5844C120.471 30.5849 120.357 30.5387 120.257 30.4457C120.163 30.346 120.116 30.2329 120.116 30.1062C120.115 29.9729 120.161 29.8594 120.254 29.7657C120.354 29.672 120.467 29.6249 120.594 29.6244L121.554 29.6209L121.548 28.1509C121.548 27.9976 121.594 27.8741 121.687 27.7804C121.787 27.6867 121.91 27.6396 122.056 27.639C122.196 27.6385 122.317 27.6847 122.417 27.7777C122.517 27.8706 122.568 27.9938 122.568 28.1471L122.574 29.6171L123.234 29.6147C123.367 29.6142 123.481 29.6604 123.574 29.7534C123.668 29.8464 123.715 29.9595 123.716 30.0929C123.716 30.2195 123.67 30.3331 123.577 30.4334C123.484 30.5271 123.371 30.5742 123.237 30.5747L122.577 30.5771L122.579 31.0971C122.64 31.1769 122.723 31.2866 122.831 31.4262C122.938 31.5591 123.048 31.702 123.162 31.8549C123.283 32.0012 123.397 32.1407 123.504 32.2737C123.611 32.4 123.698 32.4996 123.765 32.5727C123.858 32.6724 123.896 32.7889 123.876 32.9223C123.857 33.049 123.797 33.1593 123.697 33.253C123.591 33.3467 123.468 33.3872 123.328 33.3743C123.194 33.3615 123.084 33.3019 122.997 33.1956C122.95 33.1224 122.89 33.036 122.816 32.9362C122.742 32.8365 122.665 32.7301 122.585 32.6171L122.599 36.4871C122.6 36.6404 122.55 36.7639 122.451 36.8576C122.351 36.9513 122.231 36.9984 122.091 36.9989ZM125.671 36.9157C125.518 36.9162 125.391 36.8734 125.29 36.7871C125.197 36.7074 125.146 36.591 125.139 36.4376C125.132 36.3043 125.172 36.1875 125.258 36.0872C125.344 35.9869 125.457 35.9298 125.597 35.9159C125.757 35.902 125.86 35.875 125.907 35.8348C125.96 35.7879 125.986 35.6912 125.986 35.5445L125.982 34.3945L123.882 34.4023C123.768 34.4027 123.668 34.3598 123.581 34.2734C123.501 34.187 123.46 34.0872 123.46 33.9739C123.46 33.8539 123.499 33.7537 123.579 33.6734C123.665 33.5864 123.765 33.5427 123.878 33.5423L129.128 33.5228C129.242 33.5224 129.339 33.5654 129.419 33.6518C129.506 33.7314 129.549 33.8313 129.55 33.9513C129.55 34.0646 129.507 34.1648 129.421 34.2518C129.341 34.3387 129.245 34.3824 129.132 34.3828L127.032 34.3906L127.036 35.6906C127.038 36.1373 126.933 36.451 126.72 36.6318C126.514 36.8192 126.164 36.9139 125.671 36.9157ZM124.377 33.1605C124.264 33.1609 124.163 33.1179 124.076 33.0316C123.996 32.9452 123.956 32.8453 123.955 32.732C123.955 32.6187 123.995 32.5219 124.074 32.4416C124.161 32.3546 124.26 32.3109 124.374 32.3105L128.574 32.2949C128.687 32.2945 128.784 32.3374 128.864 32.4238C128.951 32.5035 128.995 32.6 128.995 32.7133C128.996 32.8267 128.953 32.9268 128.866 33.0138C128.787 33.1008 128.69 33.1445 128.577 33.1449L124.377 33.1605ZM128.729 36.3843C128.622 36.3114 128.492 36.2152 128.338 36.0958C128.191 35.983 128.04 35.8602 127.887 35.7275C127.739 35.5947 127.609 35.4752 127.495 35.3689C127.401 35.2759 127.351 35.1628 127.344 35.0295C127.343 34.8895 127.39 34.7726 127.483 34.6789C127.576 34.5786 127.685 34.5215 127.812 34.5077C127.945 34.4939 128.065 34.5335 128.172 34.6264C128.266 34.6994 128.386 34.7956 128.534 34.9151C128.681 35.0345 128.828 35.1506 128.975 35.2634C129.129 35.3762 129.256 35.4657 129.356 35.532C129.469 35.6049 129.533 35.7114 129.547 35.8513C129.567 35.9846 129.541 36.108 129.468 36.2216C129.389 36.3486 129.279 36.4256 129.139 36.4528C128.999 36.4867 128.863 36.4638 128.729 36.3843ZM124.159 36.3813C124.033 36.4684 123.896 36.4989 123.749 36.4728C123.603 36.4533 123.482 36.3805 123.388 36.2541C123.315 36.1411 123.288 36.0178 123.307 35.8844C123.333 35.7443 123.403 35.6374 123.516 35.5637C123.616 35.4966 123.739 35.4095 123.885 35.3023C124.031 35.1884 124.177 35.0712 124.324 34.9507C124.47 34.8301 124.589 34.7263 124.682 34.6393C124.782 34.5456 124.902 34.5052 125.042 34.518C125.182 34.5308 125.296 34.5871 125.383 34.6867C125.476 34.7931 125.523 34.9129 125.524 35.0462C125.524 35.1729 125.475 35.2831 125.375 35.3768C125.289 35.4638 125.173 35.5709 125.026 35.6981C124.88 35.8186 124.727 35.9425 124.568 36.0698C124.415 36.1903 124.279 36.2942 124.159 36.3813ZM126.199 31.1237L126.759 31.1216L126.756 30.1816L126.196 30.1837L126.199 31.1237ZM127.679 31.1182L127.779 31.1178C127.986 31.1171 128.123 31.0832 128.189 31.0163C128.255 30.9494 128.288 30.8259 128.288 30.6459C128.287 30.4593 128.253 30.3361 128.186 30.2763C128.119 30.2099 127.983 30.1771 127.776 30.1778L127.676 30.1782L127.679 31.1182ZM125.229 31.1273L125.279 31.1271L125.276 30.1871L125.226 30.1873C125.019 30.188 124.879 30.2219 124.806 30.2888C124.74 30.3491 124.707 30.4725 124.708 30.6592C124.708 30.8392 124.742 30.9624 124.809 31.0288C124.883 31.0952 125.023 31.128 125.229 31.1273ZM126.193 29.3637L126.753 29.3616L126.751 28.8616L126.191 28.8637L126.193 29.3637ZM135.931 36.8477C135.804 36.9348 135.665 36.982 135.511 36.9892C135.358 37.0031 135.224 36.9436 135.111 36.8107C135.05 36.7376 135.013 36.6577 135 36.5711C134.986 36.4845 134.992 36.4011 135.019 36.321C134.712 36.3622 134.372 36.4034 133.999 36.4448C133.633 36.4862 133.259 36.5242 132.88 36.559C132.5 36.6004 132.133 36.6384 131.78 36.673C131.434 36.7077 131.124 36.7388 130.85 36.7665C130.717 36.7736 130.6 36.7407 130.5 36.6678C130.4 36.5948 130.343 36.485 130.329 36.3384C130.322 36.1984 130.361 36.085 130.448 35.998C130.534 35.9043 130.64 35.8539 130.767 35.8468C130.927 35.8329 131.1 35.8189 131.287 35.8049C131.48 35.7908 131.68 35.7767 131.887 35.7626L131.885 35.3026L130.755 35.3068C130.668 35.3071 130.595 35.2774 130.535 35.2176C130.474 35.1512 130.444 35.0746 130.444 34.988C130.443 34.9013 130.473 34.8279 130.533 34.7676C130.593 34.7074 130.666 34.6772 130.753 34.6768L131.883 34.6726L131.882 34.3726L130.752 34.3768C130.665 34.3772 130.591 34.3474 130.531 34.2876C130.471 34.2279 130.441 34.1546 130.44 34.068C130.44 33.9746 130.47 33.8979 130.53 33.8377C130.589 33.7774 130.663 33.7472 130.749 33.7468L131.879 33.7426L131.878 33.4426L130.748 33.4468C130.661 33.4472 130.588 33.4174 130.528 33.3577C130.468 33.2979 130.437 33.2247 130.437 33.138C130.437 33.0447 130.466 32.9679 130.526 32.9077C130.586 32.8474 130.659 32.8172 130.746 32.8168L131.876 32.8127L131.875 32.5227L130.635 32.5273C130.528 32.5276 130.435 32.488 130.354 32.4083C130.274 32.3286 130.234 32.2354 130.233 32.1287C130.233 32.0154 130.272 31.9186 130.352 31.8383C130.432 31.758 130.525 31.7177 130.632 31.7173L130.982 31.716C130.895 31.6496 130.844 31.5565 130.831 31.4365C130.817 31.3166 130.846 31.2131 130.919 31.1262C131.019 31.0125 131.125 30.8788 131.238 30.725C131.351 30.5646 131.457 30.4042 131.556 30.2438C131.662 30.0768 131.748 29.9298 131.815 29.8029C131.874 29.6893 131.964 29.619 132.084 29.5919C132.204 29.5581 132.317 29.5677 132.424 29.6206C132.537 29.6735 132.614 29.7566 132.655 29.8697C132.695 29.9829 132.686 30.0963 132.626 30.2099C132.613 30.2366 132.596 30.2666 132.576 30.3C132.563 30.3334 132.547 30.3668 132.527 30.4002C132.614 30.4532 132.711 30.5162 132.817 30.5891C132.924 30.6554 133.005 30.7051 133.058 30.7383C133.198 30.8311 133.259 30.9608 133.239 31.1276C133.385 30.9404 133.528 30.7298 133.667 30.496C133.806 30.2555 133.922 30.0417 134.015 29.8547C134.068 29.7412 134.154 29.6675 134.274 29.6337C134.394 29.6 134.511 29.6095 134.624 29.6624C134.59 29.5292 134.613 29.4058 134.693 29.2922C134.852 29.0716 135.004 28.8177 135.15 28.5305C135.302 28.2366 135.431 27.9761 135.537 27.749C135.596 27.6155 135.69 27.5285 135.816 27.488C135.949 27.4475 136.076 27.4537 136.196 27.5066C136.33 27.5594 136.417 27.6425 136.457 27.7556C136.504 27.8688 136.501 27.9855 136.448 28.1057C136.435 28.1391 136.419 28.1758 136.399 28.2159C136.386 28.2492 136.372 28.286 136.359 28.326L138.979 28.3163C139.099 28.3158 139.199 28.3588 139.28 28.4452C139.367 28.5249 139.41 28.6247 139.411 28.7447C139.411 28.8647 139.368 28.9682 139.282 29.0552C139.202 29.1355 139.102 29.1758 138.982 29.1763L137.562 29.1816C137.576 29.2082 137.589 29.2381 137.603 29.2714C137.616 29.298 137.626 29.3213 137.633 29.3413C137.687 29.4678 137.684 29.5911 137.624 29.7113C137.565 29.8249 137.468 29.9086 137.335 29.9624C137.202 30.0096 137.072 30.0134 136.945 29.9738C136.825 29.9276 136.741 29.8413 136.694 29.7148C136.667 29.6415 136.634 29.555 136.593 29.4551C136.56 29.3486 136.526 29.2587 136.492 29.1855L135.912 29.1877C135.859 29.2879 135.803 29.3847 135.743 29.4783C135.69 29.5652 135.637 29.652 135.584 29.7389C135.511 29.8525 135.408 29.9362 135.275 29.99C135.142 30.0372 135.009 30.0277 134.875 29.9615C134.896 30.0481 134.886 30.1381 134.846 30.2316L134.797 30.3318C134.903 30.3981 135.027 30.4776 135.167 30.5704C135.308 30.6633 135.408 30.7262 135.468 30.7593C135.568 30.819 135.629 30.9087 135.649 31.0287C135.67 31.1419 135.643 31.2487 135.57 31.3489C135.497 31.4559 135.398 31.5163 135.271 31.5301C135.151 31.5372 135.038 31.5076 134.931 31.4413C134.864 31.4016 134.78 31.3452 134.68 31.2722C134.58 31.1993 134.483 31.1296 134.389 31.0633C134.263 31.2705 134.134 31.4609 134.001 31.6348C133.981 31.6615 133.958 31.6849 133.932 31.705L135.962 31.6975C135.941 31.4776 135.923 31.2476 135.909 31.0077C135.902 30.7677 135.894 30.5177 135.886 30.2578C135.886 30.0978 135.932 29.9709 136.025 29.8773C136.125 29.7836 136.248 29.7364 136.394 29.7359C136.534 29.7354 136.655 29.7816 136.755 29.8745C136.862 29.9675 136.916 30.0906 136.916 30.244C136.924 30.5106 136.932 30.7672 136.939 31.0139C136.953 31.2538 136.971 31.4804 136.992 31.6937L139.132 31.6858C139.238 31.6854 139.328 31.725 139.402 31.8048C139.482 31.8845 139.523 31.981 139.523 32.0943C139.524 32.201 139.484 32.2945 139.404 32.3747C139.331 32.455 139.241 32.4954 139.135 32.4957L138.545 32.4979C138.792 32.617 138.866 32.8101 138.767 33.0771C138.641 33.3976 138.499 33.7114 138.34 34.0187C138.181 34.326 138.006 34.6233 137.814 34.9107C137.881 35.0171 137.948 35.1235 138.015 35.2299C138.088 35.3363 138.169 35.4393 138.256 35.539C138.336 35.6387 138.403 35.6818 138.456 35.6683C138.51 35.6548 138.559 35.5846 138.606 35.4577C138.632 35.391 138.655 35.3275 138.675 35.2675C138.695 35.2007 138.718 35.1373 138.744 35.0772C138.797 34.937 138.883 34.8434 139.003 34.7962C139.13 34.7424 139.27 34.7486 139.423 34.8147C139.55 34.8676 139.634 34.9572 139.674 35.0838C139.715 35.2036 139.708 35.3303 139.656 35.4638C139.623 35.5506 139.58 35.6641 139.527 35.8043C139.474 35.9378 139.418 36.0681 139.358 36.1949C139.133 36.6624 138.858 36.9135 138.531 36.948C138.211 36.9892 137.904 36.847 137.61 36.5214C137.516 36.4151 137.425 36.3021 137.338 36.1824C137.251 36.0694 137.167 35.9497 137.087 35.8234C136.742 36.198 136.356 36.5394 135.931 36.8477ZM133.365 30.0271C133.232 30.0743 133.102 30.0781 132.975 30.0386C132.855 29.999 132.772 29.9126 132.724 29.7795C132.704 29.7196 132.671 29.6297 132.623 29.5099C132.576 29.39 132.536 29.2868 132.502 29.2003L131.812 29.2029C131.746 29.3164 131.68 29.43 131.614 29.5436C131.547 29.6505 131.481 29.7508 131.415 29.8443C131.329 29.9647 131.209 30.0451 131.056 30.0857C130.909 30.1262 130.766 30.1034 130.625 30.0173C130.518 29.9443 130.455 29.8412 130.434 29.708C130.414 29.5747 130.443 29.4579 130.523 29.3576C130.702 29.1236 130.878 28.853 131.05 28.5457C131.229 28.2317 131.374 27.9578 131.487 27.7241C131.546 27.5905 131.639 27.5068 131.766 27.473C131.899 27.4325 132.026 27.4387 132.146 27.4916C132.273 27.5445 132.357 27.6275 132.397 27.7407C132.437 27.8539 132.431 27.9739 132.378 28.1008C132.365 28.1341 132.349 28.1709 132.329 28.2109C132.309 28.251 132.289 28.2944 132.269 28.3412L134.469 28.333C134.589 28.3326 134.689 28.3755 134.77 28.4619C134.857 28.5416 134.9 28.6414 134.901 28.7614C134.901 28.8814 134.858 28.9849 134.772 29.0719C134.692 29.1522 134.592 29.1926 134.472 29.193L133.572 29.1963C133.619 29.2962 133.646 29.3627 133.653 29.396C133.707 29.5292 133.704 29.6559 133.644 29.7761C133.592 29.8896 133.499 29.9733 133.365 30.0271ZM135.786 35.6582C135.933 35.5376 136.072 35.4105 136.205 35.2766C136.344 35.1361 136.477 34.9923 136.603 34.8451C136.354 34.1994 136.168 33.4201 136.045 32.5072L134.345 32.5135L134.346 32.7835L135.486 32.7793C135.579 32.7789 135.656 32.8086 135.716 32.8684C135.776 32.9282 135.806 33.0014 135.807 33.0881C135.807 33.1748 135.777 33.2515 135.718 33.3184C135.658 33.3786 135.581 33.4089 135.488 33.4093L134.348 33.4135L134.349 33.6635L135.489 33.6593C135.582 33.6589 135.659 33.6886 135.719 33.7484C135.779 33.8082 135.81 33.8847 135.81 33.9781C135.81 34.0647 135.781 34.1382 135.721 34.1984C135.661 34.2586 135.585 34.2889 135.491 34.2893L134.351 34.2935L134.352 34.5535L135.492 34.5493C135.586 34.5489 135.662 34.5786 135.723 34.6384C135.783 34.6982 135.813 34.7714 135.813 34.8581C135.814 34.9447 135.784 35.0215 135.724 35.0884C135.664 35.1486 135.588 35.1789 135.495 35.1793L134.355 35.1835L134.356 35.5435C134.549 35.5294 134.729 35.5121 134.896 35.4915C135.062 35.4709 135.219 35.4536 135.365 35.4397C135.572 35.4256 135.712 35.4985 135.786 35.6582ZM132.896 35.6789L133.346 35.6372L133.335 32.5172L132.885 32.5189L132.896 35.6789ZM138.581 31.4278C138.481 31.5082 138.368 31.5452 138.241 31.5391C138.114 31.5262 138.007 31.4699 137.92 31.3702C137.86 31.2971 137.773 31.1975 137.659 31.0712C137.545 30.9383 137.458 30.8386 137.398 30.7722C137.318 30.6858 137.281 30.5826 137.287 30.4626C137.3 30.3425 137.353 30.2457 137.446 30.172C137.546 30.0783 137.655 30.0345 137.775 30.0408C137.896 30.047 138.002 30.0966 138.096 30.1896C138.156 30.2494 138.247 30.3424 138.367 30.4686C138.488 30.5881 138.581 30.6878 138.648 30.7675C138.742 30.8672 138.782 30.9804 138.769 31.1071C138.757 31.2338 138.694 31.3407 138.581 31.4278ZM137.339 33.7924C137.531 33.4584 137.697 33.1144 137.836 32.7606C137.888 32.6337 137.958 32.5468 138.045 32.4998L137.075 32.5034C137.109 32.7433 137.146 32.9698 137.187 33.183C137.235 33.3961 137.285 33.5993 137.339 33.7924ZM131.592 31.7137L133.242 31.7076C133.148 31.6146 133.108 31.5081 133.12 31.388C133.041 31.4683 132.944 31.5154 132.831 31.5291C132.724 31.5362 132.624 31.5065 132.531 31.4402C132.484 31.4071 132.417 31.3606 132.33 31.301C132.25 31.2346 132.17 31.1716 132.089 31.1119C132.023 31.1988 131.957 31.289 131.89 31.3826C131.831 31.4695 131.768 31.5497 131.701 31.6233C131.675 31.6634 131.638 31.6935 131.592 31.7137Z" fill="#FE585B"/>
<path d="M97.5088 58.8775C97.2635 58.8784 97.0498 58.7939 96.8679 58.6239C96.6966 58.4645 96.6105 58.2515 96.6095 57.9848L96.6002 55.4728C96.1752 55.9331 95.6916 56.3882 95.1492 56.8382C94.6176 57.2882 94.1017 57.6795 93.6016 58.012C93.3674 58.1515 93.1276 58.2111 92.8822 58.1906C92.6369 58.1809 92.4445 58.0749 92.3051 57.8728C92.1657 57.692 92.1116 57.4895 92.1428 57.2654C92.1846 57.0306 92.3013 56.8541 92.4928 56.7361C92.8547 56.5214 93.2271 56.2693 93.61 55.9799C94.0036 55.6798 94.3758 55.3744 94.7267 55.0638C95.0881 54.7424 95.4017 54.4426 95.6673 54.1643L93.5553 54.1721C93.3313 54.1729 93.1391 54.099 92.9785 53.9503C92.8286 53.7908 92.7532 53.5991 92.7524 53.3751C92.7516 53.1618 92.8256 52.9801 92.9744 52.8303C93.1338 52.6697 93.3255 52.589 93.5495 52.5881L96.5895 52.5769L96.586 51.6329C95.9885 51.5924 95.5294 51.4928 95.2088 51.334C94.8882 51.1752 94.6687 50.9413 94.5502 50.6324C94.4317 50.3128 94.3715 49.9024 94.3697 49.4011L94.3608 47.0011L93.4808 47.0043C93.2781 47.0051 93.0965 46.9311 92.9359 46.7824C92.7861 46.6336 92.7107 46.4525 92.7099 46.2392C92.7091 46.0259 92.7831 45.8443 92.9319 45.6944C93.0914 45.5444 93.2724 45.4691 93.4751 45.4684L94.3551 45.4651L94.3526 44.7931C94.3516 44.5158 94.4361 44.3021 94.6062 44.1522C94.7763 43.9915 94.9787 43.9108 95.2133 43.9099C95.4586 43.909 95.6669 43.9882 95.8382 44.1476C96.0094 44.2963 96.0955 44.5093 96.0966 44.7866L96.0991 45.4586L98.851 45.4484L98.8486 44.7924C98.8476 44.5151 98.9321 44.2961 99.1022 44.1355C99.2829 43.9748 99.496 43.894 99.7413 43.8931C99.9866 43.8922 100.195 43.9714 100.366 44.1308C100.548 44.2901 100.64 44.5085 100.641 44.7858L100.643 45.4418L101.587 45.4383C101.8 45.4375 101.982 45.5115 102.132 45.6603C102.282 45.809 102.357 45.9901 102.358 46.2034C102.359 46.4168 102.285 46.5984 102.136 46.7483C101.987 46.8981 101.806 46.9735 101.593 46.9743L100.649 46.9778L100.658 49.3778C100.66 49.8898 100.597 50.306 100.47 50.6265C100.354 50.9362 100.131 51.1717 99.8009 51.3329C99.4708 51.4835 98.9964 51.5813 98.3779 51.6262L98.3814 52.5702L101.693 52.5579C101.907 52.5572 102.088 52.6365 102.238 52.7959C102.399 52.9447 102.48 53.1257 102.48 53.339C102.481 53.563 102.402 53.7553 102.242 53.9159C102.094 54.0658 101.913 54.1411 101.699 54.1419L99.4113 54.1504C99.6575 54.3948 99.9412 54.6605 100.262 54.9473C100.594 55.2234 100.931 55.4941 101.273 55.7595C101.626 56.0142 101.958 56.237 102.268 56.4278C102.471 56.5551 102.594 56.7466 102.638 57.0025C102.681 57.2476 102.629 57.4665 102.48 57.6591C102.31 57.873 102.098 57.9965 101.842 58.0294C101.596 58.0623 101.367 57.9992 101.153 57.84C100.693 57.5004 100.212 57.1075 99.7086 56.6613C99.2163 56.2152 98.7773 55.7688 98.3916 55.3222L98.4015 57.9782C98.4025 58.2448 98.3126 58.4585 98.1319 58.6192C97.9618 58.7905 97.7541 58.8766 97.5088 58.8775ZM88.1467 58.3202C87.9541 58.1502 87.8573 57.9479 87.8564 57.7133C87.8556 57.4786 87.9402 57.281 88.1102 57.1203C88.8861 56.3708 89.5178 55.5738 90.0054 54.7293C89.9412 54.6869 89.8771 54.6498 89.813 54.618C89.7595 54.5755 89.7007 54.5331 89.6365 54.4906C89.1766 54.1723 88.8289 53.8856 88.5933 53.6305C88.3683 53.3647 88.2392 53.0611 88.2059 52.7199C88.1833 52.368 88.2296 51.9145 88.3449 51.3594C88.4289 50.9964 88.5022 50.6228 88.5647 50.2386C88.638 49.8543 88.7112 49.4647 88.7844 49.0698L88.1124 49.0723C87.8991 49.073 87.7121 48.9937 87.5515 48.8343C87.4016 48.6642 87.3262 48.4725 87.3254 48.2592C87.3246 48.0458 87.3986 47.8589 87.5473 47.6983C87.7067 47.5271 87.893 47.4411 88.1064 47.4403L89.0343 47.4368C89.0966 46.9779 89.1537 46.5297 89.2054 46.0922C89.2677 45.6546 89.3142 45.2491 89.3449 44.8757C89.3758 44.5875 89.4764 44.3845 89.6466 44.2665C89.8275 44.1485 90.0353 44.0998 90.2701 44.1202C90.5048 44.1407 90.6971 44.2306 90.8471 44.3901C91.0077 44.5495 91.0672 44.7733 91.0256 45.0614C90.9842 45.4029 90.9322 45.7764 90.8697 46.182C90.8072 46.5876 90.7448 47.0038 90.6823 47.4307C91.557 47.4381 92.171 47.6119 92.5243 47.9519C92.8882 48.2919 93.0452 48.9153 92.9952 49.8222C92.9557 50.665 92.8572 51.4494 92.6999 52.1753C92.5533 52.8905 92.3584 53.5632 92.1154 54.1935C92.3186 54.3314 92.5004 54.464 92.6609 54.5914C92.832 54.7188 92.9765 54.8356 93.0942 54.9418C93.3082 55.1117 93.4103 55.3247 93.4006 55.5807C93.3908 55.8261 93.2956 56.0504 93.1151 56.2538C92.9557 56.425 92.7534 56.5164 92.5081 56.528C92.2734 56.5289 92.0651 56.4443 91.8831 56.2743C91.7975 56.1893 91.7065 56.1043 91.6102 56.0193C91.5138 55.9237 91.4228 55.8387 91.3372 55.7644C91.0828 56.192 90.8017 56.609 90.4939 57.0155C90.186 57.422 89.8462 57.8179 89.4743 58.2033C89.3043 58.3959 89.0914 58.5034 88.8354 58.5256C88.5796 58.5586 88.35 58.4901 88.1467 58.3202ZM90.7038 53.2227C90.8832 52.71 91.0253 52.1761 91.1299 51.6211C91.2345 51.066 91.307 50.4791 91.3473 49.8603C91.3675 49.5295 91.3187 49.3164 91.201 49.2208C91.0939 49.1145 90.8644 49.0621 90.5124 49.0634L90.4164 49.0637C90.3329 49.5547 90.2493 50.0297 90.1657 50.4887C90.082 50.9476 90.0035 51.3533 89.9302 51.7055C89.8778 51.9724 89.8573 52.1858 89.8685 52.3458C89.8798 52.4951 89.9389 52.6282 90.046 52.7451C90.1638 52.8513 90.3403 52.984 90.5755 53.1432L90.7038 53.2227ZM96.108 47.8746L98.86 47.8644L98.8567 46.9844L96.1048 46.9946L96.108 47.8746ZM97.4924 50.1255C97.8977 50.124 98.1963 50.1069 98.3882 50.0742C98.5907 50.0308 98.7184 49.9503 98.7713 49.8328C98.8348 49.7045 98.8661 49.5231 98.8653 49.2884L98.8651 49.2404L96.1131 49.2506L96.1133 49.2986C96.1142 49.5333 96.1415 49.7145 96.1953 49.8423C96.2597 49.9594 96.388 50.0389 96.5802 50.0809C96.783 50.1121 97.087 50.127 97.4924 50.1255ZM105.301 58.7846C105.098 58.7854 104.922 58.7167 104.772 58.5786C104.622 58.4511 104.547 58.2701 104.546 58.0354L104.524 52.0994C104.523 51.9181 104.538 51.7581 104.57 51.6193C104.527 51.6301 104.485 51.6409 104.442 51.6517C104.41 51.6519 104.373 51.652 104.33 51.6522C104.127 51.6529 103.951 51.5896 103.801 51.4621C103.652 51.324 103.576 51.1376 103.575 50.903L103.571 49.863C103.57 49.4576 103.633 49.1481 103.76 48.9343C103.898 48.7204 104.121 48.5756 104.43 48.4998L104.421 45.9558C104.419 45.3265 104.55 44.8833 104.816 44.6263C105.082 44.3587 105.524 44.2237 106.143 44.2214L107.727 44.2155C108.356 44.2132 108.799 44.3449 109.056 44.6106C109.313 44.8656 109.443 45.3078 109.445 45.9372L109.454 48.5131C109.732 48.5868 109.93 48.7301 110.048 48.943C110.177 49.1558 110.242 49.4542 110.243 49.8382L110.247 50.8782C110.248 51.1129 110.174 51.2998 110.025 51.4391C109.876 51.5676 109.695 51.6323 109.482 51.6331C109.439 51.6332 109.402 51.6334 109.37 51.6335C109.338 51.6229 109.301 51.6124 109.258 51.6019C109.28 51.6765 109.29 51.7564 109.291 51.8418C109.291 51.9164 109.291 51.9964 109.292 52.0818L109.31 57.0417C109.312 57.5857 109.186 57.9969 108.931 58.2752C108.676 58.5534 108.271 58.7043 107.716 58.7277C107.482 58.7392 107.279 58.6866 107.108 58.5699C106.947 58.4532 106.851 58.2882 106.818 58.075C106.785 57.8724 106.816 57.691 106.912 57.5306C107.018 57.3702 107.167 57.2737 107.359 57.241C107.551 57.2189 107.679 57.1705 107.742 57.0956C107.806 57.0207 107.838 56.8872 107.837 56.6952L107.833 55.6712L106.025 55.6779L106.034 58.0299C106.035 58.2646 105.966 58.4461 105.828 58.5747C105.69 58.7138 105.514 58.7838 105.301 58.7846ZM110.739 58.4285C110.537 58.4292 110.376 58.3605 110.258 58.2222C110.141 58.0947 110.081 57.9402 110.081 57.7589C110.08 57.5776 110.138 57.4227 110.255 57.2942C110.372 57.1551 110.532 57.0852 110.734 57.0845L112.446 57.0781C112.392 56.929 112.333 56.7799 112.269 56.6308C112.215 56.4816 112.166 56.3645 112.123 56.2793C112.069 56.1302 112.064 55.9862 112.106 55.8474C112.158 55.6978 112.249 55.5855 112.376 55.5104C111.95 55.4586 111.645 55.3157 111.463 55.0817C111.281 54.8371 111.189 54.4641 111.187 53.9628C111.185 53.3761 111.306 52.965 111.55 52.7294C111.805 52.4938 112.226 52.3749 112.813 52.3727L115.917 52.3612C116.503 52.359 116.92 52.4748 117.166 52.7086C117.423 52.9423 117.552 53.3525 117.555 53.9392C117.557 54.4405 117.467 54.8142 117.287 55.0602C117.106 55.2955 116.808 55.4406 116.392 55.4955C116.489 55.5805 116.558 55.6869 116.602 55.8147C116.645 55.9319 116.64 56.0652 116.587 56.2148C116.566 56.2895 116.524 56.407 116.46 56.5672C116.397 56.7275 116.334 56.893 116.27 57.0639L117.902 57.0579C118.116 57.0571 118.276 57.1258 118.383 57.2641C118.501 57.3917 118.56 57.5461 118.561 57.7275C118.561 57.9088 118.503 58.0637 118.386 58.1921C118.28 58.3312 118.121 58.4011 117.907 58.4019L110.739 58.4285ZM112.788 49.9568C112.009 49.9597 111.465 49.8177 111.154 49.5309C110.855 49.244 110.703 48.7272 110.701 47.9805L110.697 47.1325C110.695 46.3965 110.842 45.884 111.14 45.5949C111.448 45.3057 111.981 45.1598 112.738 45.157L112.735 44.277C112.734 44.085 112.792 43.9407 112.909 43.8443C113.026 43.7372 113.17 43.6833 113.341 43.6827C113.501 43.6821 113.639 43.7349 113.757 43.8412C113.875 43.9367 113.934 44.0805 113.935 44.2725L113.938 45.1365L114.658 45.1338L114.655 44.2698C114.654 44.0778 114.712 43.9336 114.829 43.8372C114.946 43.7301 115.085 43.6762 115.245 43.6757C115.415 43.675 115.559 43.7278 115.677 43.8341C115.795 43.9296 115.854 44.0734 115.855 44.2654L115.858 45.1294C116.637 45.1372 117.176 45.2845 117.476 45.5714C117.786 45.8476 117.943 46.359 117.945 47.1057L117.948 47.9537C117.951 48.7003 117.798 49.2182 117.49 49.5074C117.193 49.7965 116.649 49.9425 115.86 49.9454L112.788 49.9568ZM110.939 51.8357C110.736 51.8364 110.576 51.773 110.458 51.6455C110.34 51.5072 110.281 51.3474 110.28 51.1661C110.28 50.9848 110.338 50.8299 110.455 50.7015C110.571 50.5624 110.731 50.4924 110.934 50.4917L117.702 50.4666C117.915 50.4658 118.081 50.5345 118.199 50.6728C118.316 50.8003 118.376 50.9548 118.376 51.1361C118.377 51.3174 118.319 51.4776 118.202 51.6167C118.085 51.7452 117.92 51.8098 117.707 51.8106L110.939 51.8357ZM113.285 54.451L115.46 54.4429C115.642 54.4423 115.77 54.4098 115.844 54.3455C115.929 54.2812 115.971 54.1477 115.971 53.945C115.97 53.7317 115.927 53.5985 115.841 53.5455C115.766 53.4818 115.638 53.4503 115.457 53.4509L113.281 53.459C113.089 53.4597 112.956 53.4922 112.881 53.5565C112.807 53.6101 112.77 53.7436 112.771 53.9569C112.771 54.1596 112.809 54.2928 112.884 54.3565C112.959 54.4202 113.093 54.4517 113.285 54.451ZM105.742 48.4309L106.35 48.4287L106.347 47.5327C106.345 47.0207 106.44 46.6736 106.631 46.4916C106.833 46.2988 107.19 46.2015 107.702 46.1996L108.118 46.1981C108.117 45.9208 108.063 45.745 107.956 45.6707C107.86 45.5857 107.667 45.5438 107.379 45.5448L106.483 45.5481C106.185 45.5492 105.982 45.598 105.876 45.6944C105.78 45.7801 105.733 45.9776 105.734 46.2869L105.742 48.4309ZM105.079 50.7534C105.217 50.6675 105.382 50.6083 105.574 50.5755C105.766 50.5322 105.985 50.51 106.23 50.5091L107.59 50.5041C107.835 50.5032 108.054 50.5237 108.246 50.5656C108.438 50.5969 108.604 50.655 108.743 50.7398L108.741 50.3878C108.74 50.0998 108.697 49.924 108.611 49.8603C108.526 49.7859 108.334 49.7493 108.035 49.7504L105.795 49.7587C105.496 49.7598 105.299 49.7979 105.203 49.8729C105.118 49.9479 105.076 50.1347 105.078 50.4334L105.079 50.7534ZM113.902 57.0727L114.75 57.0696C114.814 56.888 114.887 56.6691 114.972 56.4128C115.056 56.1458 115.119 55.9429 115.162 55.804C115.183 55.7506 115.204 55.7026 115.225 55.6598C115.257 55.6064 115.294 55.5636 115.337 55.5314L113.305 55.5389C113.401 55.6239 113.476 55.7303 113.53 55.8581C113.584 55.9859 113.643 56.1457 113.708 56.3374C113.772 56.5292 113.826 56.6997 113.869 56.8488C113.891 56.8914 113.902 56.9287 113.902 56.9607C113.902 56.9927 113.902 57.0301 113.902 57.0727ZM106.021 54.5419L107.829 54.5352L107.826 53.7032L106.018 53.7099L106.021 54.5419ZM106.014 52.5739L107.821 52.5672L107.821 52.3752C107.82 52.0979 107.776 51.9274 107.691 51.8637C107.616 51.8 107.445 51.7686 107.179 51.7696L106.651 51.7716C106.395 51.7725 106.224 51.8051 106.139 51.8695C106.054 51.9338 106.012 52.1046 106.013 52.3819L106.014 52.5739ZM107.47 48.4245L108.142 48.422L108.138 47.27L107.882 47.271C107.722 47.2716 107.61 47.304 107.546 47.3682C107.493 47.4217 107.467 47.5285 107.467 47.6885L107.47 48.4245ZM113.952 48.8325L114.672 48.8298L114.669 48.0458L113.949 48.0485L113.952 48.8325ZM113.945 47.0245L114.665 47.0218L114.662 46.2538L113.942 46.2565L113.945 47.0245ZM115.872 48.8254C116.181 48.8242 116.383 48.7755 116.479 48.6791C116.575 48.5721 116.622 48.3639 116.621 48.0546L116.621 48.0386L115.869 48.0414L115.872 48.8254ZM115.865 47.0174L116.617 47.0146C116.605 46.7053 116.551 46.5028 116.455 46.4072C116.358 46.3115 116.161 46.2589 115.862 46.2494L115.865 47.0174ZM112.752 48.8369L112.749 48.0529L112.029 48.0556L112.029 48.0716C112.03 48.3703 112.079 48.5728 112.175 48.6791C112.271 48.7747 112.464 48.8273 112.752 48.8369ZM112.025 47.0316L112.745 47.0289L112.742 46.2609C112.454 46.2727 112.262 46.3267 112.167 46.4231C112.082 46.5194 112.035 46.7222 112.025 47.0316Z" fill="black" fill-opacity="0.85"/>
</g>
<defs>
<radialGradient id="paint0_radial_1720_2107" cx="0" cy="0" r="1" gradientUnits="userSpaceOnUse" gradientTransform="translate(0.558656 46.8353) rotate(65.4889) scale(3.32531 8.21233)">
<stop offset="0.33" stop-opacity="0"/>
<stop offset="0.655" stop-opacity="0.6"/>
<stop offset="1"/>
</radialGradient>
<radialGradient id="paint1_radial_1720_2107" cx="0" cy="0" r="1" gradientUnits="userSpaceOnUse" gradientTransform="translate(355.296 45.8572) rotate(114.511) scale(3.32531 8.21233)">
<stop offset="0.33" stop-opacity="0"/>
<stop offset="0.655" stop-opacity="0.6"/>
<stop offset="1"/>
</radialGradient>
<clipPath id="clip0_1720_2107">
<rect width="200" height="90" fill="white"/>
</clipPath>
</defs>
</svg>
