<svg width="200" height="90" viewBox="0 0 200 90" fill="none" xmlns="http://www.w3.org/2000/svg">
<g clip-path="url(#clip0_2306_6383)">
<rect width="200" height="90" fill="#BDE3FF"/>
<path fill-rule="evenodd" clip-rule="evenodd" d="M-6.18027 85.5257C-5.5206 81.3514 -9.94765 77.2571 -7.65473 73.2393C-4.94813 68.4966 -1.65241 61.9915 7.77154 61.0783C17.9972 60.0873 23.5998 68.8258 33.9785 69.2048C45.8176 69.6371 56.5881 60.196 66.8872 63.2371C76.2425 65.9996 70.121 74.0119 68.9752 79.5387C68.1676 83.4341 61.5364 86.4306 61.2669 90.3457C60.8502 96.3973 75.7689 103.853 67.0229 107.895C58.3557 111.9 45.7383 103.802 34.2527 102.83C27.3162 102.243 20.5655 103.925 13.6182 103.373C4.65786 102.66 -7.2514 103.227 -11.7526 99.1698C-16.3208 95.0519 -6.92748 90.2539 -6.18027 85.5257Z" fill="#005EA5"/>
<path fill-rule="evenodd" clip-rule="evenodd" d="M28.4743 10.5302C32.6486 10.8717 36.7429 8.58004 40.7607 9.76696C45.5034 11.168 52.0085 12.874 52.9217 17.7523C53.9127 23.0456 45.1742 25.9458 44.7952 31.3183C44.3629 37.4467 53.804 43.0221 50.7629 48.3534C48.0004 53.1961 39.9881 50.0274 34.4613 49.4342C30.5659 49.0162 27.5694 45.5836 23.6543 45.444C17.6027 45.2284 10.1469 52.9509 6.10508 48.4236C2.09968 43.9371 10.1975 37.4057 11.1701 31.4602C11.7575 27.8695 10.0747 24.3751 10.6274 20.7788C11.3402 16.1405 10.7727 9.97575 14.8302 7.64571C18.9481 5.281 23.7461 10.1434 28.4743 10.5302Z" fill="#2382C9"/>
<path fill-rule="evenodd" clip-rule="evenodd" d="M173.474 4.53021C177.649 4.87169 181.743 2.58004 185.761 3.76696C190.503 5.16803 197.008 6.87405 197.922 11.7523C198.913 17.0456 190.174 19.9458 189.795 25.3183C189.363 31.4467 198.804 37.0221 195.763 42.3534C193 47.1961 184.988 44.0274 179.461 43.4342C175.566 43.0162 172.569 39.5836 168.654 39.444C162.603 39.2284 155.147 46.9509 151.105 42.4236C147.1 37.9371 155.198 31.4057 156.17 25.4602C156.757 21.8695 155.075 18.3751 155.627 14.7788C156.34 10.1405 155.773 3.97575 159.83 1.64571C163.948 -0.719004 168.746 4.14342 173.474 4.53021Z" fill="#69BAF5"/>
<path fill-rule="evenodd" clip-rule="evenodd" d="M117.063 7.20494C131.49 7.9797 144.155 11.9054 154.996 17.5775C166.733 23.7188 176.896 30.8598 179.688 39.9711C183.097 51.0949 184.354 63.7453 171.749 72.2549C158.691 81.0707 136.857 81.4742 117.063 82.2497C95.2362 83.1048 71.8992 84.7511 54.6033 76.8446C35.6156 68.1646 20.8565 53.9771 24.5773 39.9711C28.0889 26.7526 52.1053 19.9805 71.5388 13.0955C85.3864 8.18958 100.98 6.34119 117.063 7.20494Z" fill="#C9F4FF"/>
<path d="M177.967 51.2804L196.726 84.9582L159.338 85.0303L177.967 51.2804Z" fill="#228CDA"/>
<path d="M173.373 78.4648H182.74" stroke="black" stroke-width="2" stroke-linecap="round"/>
<ellipse cx="171.472" cy="68.8528" rx="4.64254" ry="4.79533" transform="rotate(-0.110477 171.472 68.8528)" stroke="#FA8F21" stroke-width="2"/>
<ellipse cx="184.669" cy="68.8118" rx="4.64254" ry="4.79533" transform="rotate(-0.110477 184.669 68.8118)" stroke="#FA8F21" stroke-width="2"/>
<path d="M175.55 68.4723C175.55 68.4723 176.816 68.054 177.654 68.0337C178.594 68.011 180.025 68.4637 180.025 68.4637" stroke="#FA8F21" stroke-width="2"/>
<ellipse cx="171.471" cy="68.8518" rx="1.89842" ry="1.9609" transform="rotate(-0.110477 171.471 68.8518)" fill="black"/>
<ellipse cx="184.67" cy="68.8264" rx="1.89842" ry="1.9609" transform="rotate(-0.110477 184.67 68.8264)" fill="black"/>
<path d="M79.459 33.8109C79.505 33.6307 79.4413 33.5409 79.268 33.5416L78.048 33.5461L77.6808 34.3075C78.3423 34.7117 78.7934 35 79.0341 35.1725C79.2389 34.6717 79.3805 34.2178 79.459 33.8109ZM76.4699 31.3619C76.1966 31.363 76.0592 31.1801 76.0579 30.8135C76.0565 30.4401 76.1925 30.253 76.4658 30.2519L80.5858 30.2367C80.8591 30.2357 80.9965 30.4218 80.9978 30.7952C80.9992 31.1618 80.8632 31.3457 80.5899 31.3467L78.8199 31.3532L78.474 32.4545L79.6839 32.42C79.9572 32.419 80.2173 32.4581 80.4643 32.5371C80.7179 32.6162 80.8186 32.8092 80.7664 33.116C80.578 34.4234 80.1691 35.6249 79.5398 36.7206C78.9172 37.8096 78.2466 38.5554 77.5281 38.9581C77.3086 39.1056 77.0483 39.0332 76.7473 38.741C76.4529 38.4554 76.4221 38.2455 76.6549 38.1113C77.327 37.7621 77.9446 37.1298 78.5079 36.2144C78.2003 35.9489 77.7357 35.6139 77.1142 35.2096C76.9219 35.4836 76.8124 35.624 76.7857 35.6308C76.6064 35.8181 76.373 35.7857 76.0854 35.5334C75.8044 35.2744 75.7503 35.0546 75.9229 34.874C76.1953 34.6263 76.4936 34.1652 76.8178 33.4907C77.1486 32.8161 77.406 32.1051 77.5899 31.3578L76.4699 31.3619ZM81.8482 30.902C82.2416 30.9005 82.4387 31.0365 82.4398 31.3098L82.4571 35.9798C82.4581 36.2531 82.2619 36.3905 81.8686 36.392C81.4819 36.3934 81.2881 36.2574 81.2871 35.9841L81.2698 31.3141C81.2688 31.0408 81.4616 30.9034 81.8482 30.902ZM83.5963 30.3855C83.5953 30.1122 83.7915 29.9748 84.1848 29.9733C84.5781 29.9719 84.7753 30.1078 84.7763 30.3811L84.8035 37.7111C84.8048 38.0511 84.7657 38.3079 84.6864 38.4815C84.607 38.6618 84.4675 38.7957 84.2678 38.8831C83.9351 39.051 83.4787 39.126 82.8987 39.1082C82.5254 39.1162 82.2713 38.9205 82.1365 38.521C82.0084 38.1281 82.0643 37.9346 82.3043 37.9404C82.4644 37.9464 82.8144 37.9485 83.3544 37.9465C83.5343 37.9391 83.624 37.8588 83.6235 37.7055L83.5963 30.3855ZM93.5134 34.9688C93.6994 34.7948 93.9562 34.8305 94.2838 35.0759C94.618 35.3147 94.692 35.5011 94.5059 35.6351C94.2466 35.8361 93.8443 36.1009 93.2988 36.4296C93.0993 36.5503 93.0764 36.6771 93.2302 36.8099C93.7251 37.2347 94.2662 37.526 94.8535 37.6838C95.1271 37.7628 95.1346 37.9761 94.8758 38.3238C94.6172 38.6781 94.3509 38.8024 94.0772 38.6967C93.343 38.4594 92.6446 37.992 91.982 37.2945C91.3261 36.5902 90.8028 35.7055 90.4122 34.6403C90.0469 35.0216 89.6183 35.3899 89.1262 35.7451L89.1316 37.195C89.1323 37.3684 89.2158 37.4347 89.3824 37.3941L90.9008 36.9585C91.1605 36.8909 91.3244 37.0336 91.3923 37.3867C91.4603 37.7398 91.2979 37.977 90.905 38.0985C89.8328 38.4158 89.097 38.6385 88.6974 38.7667L88.2681 38.9483C88.0151 39.0492 87.8047 38.9233 87.6367 38.5706C87.4754 38.2245 87.5078 37.9611 87.7338 37.7802C87.8405 37.7932 87.8932 37.6196 87.8918 37.2596L87.8891 36.5197C87.4034 36.7881 87.064 36.9527 86.8709 37.0134C86.6379 37.101 86.3908 36.9852 86.1296 36.6662C85.8751 36.3471 85.881 36.1438 86.1474 36.0561C87.073 35.7793 88.0011 35.2726 88.9318 34.5358L86.5018 34.5448C86.2284 34.5458 86.0912 34.3796 86.0899 34.0463C86.0887 33.7063 86.2247 33.5358 86.498 33.5348L89.878 33.5223L89.8759 32.9623L87.4159 32.9714C87.1426 32.9724 87.0054 32.8162 87.0042 32.5029C87.003 32.1829 87.1391 32.0224 87.4124 32.0214L89.8724 32.0123L89.8705 31.4923L86.9205 31.5032C86.6472 31.5042 86.5099 31.3381 86.5087 31.0047C86.5074 30.6647 86.6434 30.4942 86.9168 30.4932L89.8667 30.4823L89.8656 30.1723C89.8646 29.8989 90.0641 29.7615 90.4641 29.7601C90.8641 29.7586 91.0646 29.8945 91.0656 30.1678L91.0667 30.4778L94.1367 30.4665C94.41 30.4654 94.5473 30.6349 94.5486 30.9749C94.5498 31.3083 94.4138 31.4754 94.1405 31.4764L91.0705 31.4878L91.0724 32.0078L93.7524 31.9979C94.0257 31.9969 94.163 32.1564 94.1642 32.4764C94.1653 32.7897 94.0292 32.9469 93.7559 32.9479L91.0759 32.9578L91.078 33.5178L94.488 33.5052C94.7613 33.5042 94.8986 33.6736 94.8999 34.0136C94.9011 34.347 94.7651 34.5142 94.4917 34.5152L91.5417 34.5261C91.7168 34.9855 91.9751 35.4378 92.3168 35.8832C92.8953 35.4878 93.2942 35.1829 93.5134 34.9688ZM100.813 34.7517L100.808 33.3917C100.807 33.2184 100.72 33.1321 100.547 33.1327L99.7766 33.1356C99.4566 33.1368 99.2961 32.9773 99.2949 32.6573L99.2859 30.2274C99.2848 29.954 99.451 29.8167 99.7843 29.8155C100.124 29.8143 100.295 29.9503 100.296 30.2236L100.297 30.4936L101.457 30.4893C101.73 30.4883 101.867 30.6511 101.869 30.9778C101.87 31.3045 101.734 31.4683 101.46 31.4693L100.3 31.4736L100.302 31.9436C100.303 32.1169 100.39 32.2033 100.563 32.2026L101.313 32.2099C101.633 32.2087 101.794 32.3681 101.795 32.6881L101.803 34.7481C101.803 34.9547 101.777 35.1082 101.724 35.2084C101.678 35.3085 101.578 35.3956 101.425 35.4695C101.272 35.5434 101.089 35.5774 100.876 35.5715C100.502 35.5796 100.272 35.4637 100.184 35.2241C100.097 34.9777 100.19 34.854 100.463 34.853L100.643 34.8524C100.756 34.8586 100.813 34.8251 100.813 34.7517ZM99.349 33.7672C99.4147 33.5069 99.5943 33.4029 99.8878 33.4552C100.181 33.5007 100.302 33.7136 100.25 34.0938C100.225 34.4739 100.136 34.7642 99.9834 34.9648C99.8841 35.1585 99.7076 35.1792 99.4537 35.0268C99.1997 34.8677 99.1056 34.6581 99.1713 34.3978L99.349 33.7672ZM103.116 35.6632L103.163 34.853L102.563 34.8552C102.29 34.8563 102.152 34.6934 102.151 34.3668C102.15 34.0401 102.286 33.8763 102.559 33.8753L103.199 33.8729L103.196 33.0129L102.626 33.015C102.353 33.016 102.216 32.8532 102.214 32.5265C102.213 32.1999 102.349 32.036 102.623 32.035L103.253 32.0327L103.25 31.4327C103.25 31.2593 103.163 31.173 102.989 31.1736L102.519 31.1754C102.246 31.1764 102.109 31.0069 102.108 30.6669C102.106 30.3269 102.242 30.1564 102.516 30.1554L103.866 30.1504C104.186 30.1492 104.343 30.3286 104.338 30.6886C104.351 32.3753 104.317 34.0321 104.236 35.6591L104.696 35.6573C104.969 35.6563 105.107 35.8392 105.108 36.2058C105.109 36.5725 104.973 36.7563 104.7 36.7573L102.29 36.7663C103.359 37.2623 104.113 37.6495 104.554 37.9279C104.748 38.0405 104.712 38.2473 104.447 38.5483C104.188 38.8559 103.952 38.9401 103.738 38.8009C103.17 38.4097 102.578 38.0719 101.964 37.7875C101.536 37.5691 101.442 37.3028 101.681 36.9885L101.85 36.7679L98.8801 36.7789L99.2613 37.0875C99.5689 37.3397 99.5464 37.5798 99.194 37.8078C98.6753 38.163 97.9633 38.5223 97.0579 38.8857C96.7851 39.0067 96.5347 38.9176 96.3069 38.6185C96.0859 38.3259 96.1184 38.1225 96.4047 38.0081C97.2102 37.7051 97.9654 37.2956 98.6701 36.7797L96.3502 36.7883C96.0768 36.7893 95.9395 36.6065 95.9381 36.2398C95.9368 35.8732 96.0728 35.6893 96.3461 35.6883L96.8361 35.6865L96.6586 30.9771C96.6508 30.6771 96.7834 30.4733 97.0564 30.3656L98.1747 29.9215C98.4277 29.8272 98.6381 29.9431 98.806 30.2691C98.9805 30.5885 98.9379 30.7853 98.6782 30.8596L97.969 31.0723C97.8092 31.1195 97.7296 31.2265 97.7302 31.3931L97.7626 32.043L98.4926 32.0403C98.7659 32.0393 98.9032 32.2021 98.9044 32.5288C98.9056 32.8488 98.7695 33.0093 98.4962 33.0103L97.7962 33.0129L97.8294 33.8728L98.5294 33.8702C98.8027 33.8692 98.94 34.032 98.9412 34.3587C98.9424 34.6787 98.8063 34.8392 98.533 34.8402L97.863 34.8427L97.8961 35.6826L103.116 35.6632ZM108.396 35.5536L108.397 35.8436C108.397 36.017 108.484 36.1033 108.658 36.1027L112.388 36.0888C112.561 36.0882 112.647 36.0012 112.647 35.8279L112.646 35.5379L108.396 35.5536ZM108.39 34.1436L108.392 34.6936L112.642 34.6779L112.64 34.1279L108.39 34.1436ZM108.645 32.7427C108.472 32.7433 108.386 32.8303 108.386 33.0037L108.387 33.2937L112.637 33.2779L112.636 32.9879C112.636 32.8146 112.549 32.7282 112.375 32.7289L108.645 32.7427ZM113.959 36.513C113.96 36.833 113.801 36.9936 113.481 36.9948L112.031 37.0002C113.219 37.4091 114.127 37.7657 114.755 38.0701C114.975 38.1693 114.889 38.3496 114.497 38.611C114.105 38.8792 113.802 38.9536 113.588 38.8344C113 38.4966 112.366 38.2123 111.685 37.9815C111.231 37.8098 111.153 37.5934 111.452 37.3323L111.821 37.0009L109.161 37.0108L109.562 37.3293C109.877 37.5748 109.854 37.7949 109.495 37.9896C108.943 38.3116 108.174 38.6111 107.188 38.8881C106.902 38.9825 106.621 38.8769 106.347 38.5713C106.072 38.2656 106.075 38.0756 106.355 38.0012C107.161 37.7982 107.976 37.4685 108.801 37.0121L107.641 37.0164C107.321 37.0176 107.16 36.8582 107.159 36.5382L107.144 32.3183C107.142 31.9983 107.302 31.8377 107.622 31.8365L109.682 31.8288L109.79 31.2284L106.69 31.2399C106.416 31.2409 106.279 31.0614 106.278 30.7015C106.276 30.3415 106.412 30.1609 106.686 30.1599L114.226 30.132C114.499 30.131 114.636 30.3105 114.638 30.6705C114.639 31.0305 114.503 31.211 114.23 31.212L111.17 31.2233L110.972 31.8241L113.462 31.8148C113.782 31.8136 113.942 31.9731 113.944 32.293L113.959 36.513ZM123.284 37.8285C123.458 37.8278 123.544 37.7408 123.543 37.5675L123.529 33.7875C123.529 33.6142 123.442 33.5279 123.268 33.5285L122.378 33.5318L122.394 37.8318L123.284 37.8285ZM117.658 33.5493C117.485 33.5499 117.399 33.6369 117.399 33.8103L117.413 37.5902C117.414 37.7636 117.501 37.8499 117.674 37.8493L118.514 37.8461L118.498 33.5462L117.658 33.5493ZM121.251 34.266L121.248 33.536L119.618 33.542L119.621 34.272L121.251 34.266ZM119.631 37.052L119.634 37.842L121.264 37.836L121.261 37.046L119.631 37.052ZM121.258 36.056L121.255 35.256L119.625 35.262L119.628 36.062L121.258 36.056ZM125.288 30.801C125.29 31.1943 125.154 31.3915 124.88 31.3925L121.06 31.4067L120.774 32.3677L124.324 32.3546C124.644 32.3534 124.805 32.5128 124.806 32.8328L124.827 38.4928C124.828 38.8061 124.668 38.9633 124.348 38.9645L116.678 38.993C116.358 38.9941 116.198 38.8347 116.197 38.5147L116.176 32.8548C116.175 32.5414 116.334 32.3842 116.654 32.383L119.444 32.3727L119.61 31.412L116.15 31.4249C115.877 31.4259 115.74 31.2297 115.738 30.8364C115.737 30.4364 115.873 30.2359 116.146 30.2349L124.876 30.2025C125.149 30.2015 125.287 30.401 125.288 30.801Z" fill="#2382C9"/>
<path d="M81.2345 47.7725L80.1945 47.7763L78.9526 49.4289C78.7934 49.6429 78.8525 49.7493 79.1298 49.7483L81.4658 49.7396L80.8554 49.1019C80.4914 48.7299 80.5061 48.3778 80.8995 48.0457L81.2345 47.7725ZM82.5942 51.9915L82.5926 51.5755C82.5916 51.2981 82.4524 51.16 82.1751 51.161L80.2551 51.1681C79.9778 51.1691 79.8396 51.3083 79.8406 51.5857L79.8422 52.0017L82.5942 51.9915ZM79.8497 54.0336L82.1857 54.025C82.463 54.024 82.6012 53.8848 82.6001 53.6074L82.5992 53.3514L79.8472 53.3616L79.8497 54.0336ZM81.6357 56.731C81.3997 56.3692 81.5319 56.0754 82.0324 55.8496C82.5329 55.6237 82.9601 55.7661 83.314 56.2768C84.0109 57.2342 84.4831 57.9898 84.7305 58.5436C84.8808 58.8204 84.6952 59.0931 84.1735 59.3617C83.6625 59.6302 83.3049 59.5729 83.1008 59.1896L82.7946 58.5988C80.0984 59.2701 78.6652 59.6647 78.495 59.7827C78.3672 59.8472 78.1584 59.6346 77.8686 59.145C77.5895 58.6554 77.5986 58.25 77.8961 57.9289C78.0454 57.9177 78.1189 57.6081 78.1167 57.0001L78.0907 49.9921C77.7046 49.4176 77.4955 49.1357 77.4636 49.1465C77.1529 48.7849 77.2101 48.4007 77.6353 47.9938C78.2734 47.4688 78.7719 46.7203 79.131 45.7482C79.3107 45.3209 79.7103 45.2021 80.3297 45.3918C80.9597 45.5708 81.2006 45.8312 81.0526 46.1731L83.7406 46.1632C84.1779 46.1615 84.3975 46.4274 84.3995 46.9607C84.4015 47.4941 84.1838 47.7615 83.7465 47.7632L81.9705 47.7697L82.5647 48.3595C82.9287 48.7209 82.914 49.0676 82.5205 49.3997L82.1218 49.7372L83.5938 49.7317C84.1058 49.7298 84.3627 49.9849 84.3646 50.4969L84.3802 54.6889C84.382 55.1902 84.1269 55.4418 83.615 55.4437L79.855 55.4576L79.8614 57.1856C79.8624 57.463 79.9962 57.5745 80.2626 57.5201L81.9093 57.146L81.6357 56.731ZM85.8178 49.7235L88.6177 49.7131L87.895 48.9638C87.5416 48.5918 87.5669 48.2397 87.9711 47.9075L88.1625 47.7468L86.9625 47.7512L85.8178 49.7235ZM91.1485 46.1357C91.5858 46.1341 91.8055 46.3999 91.8075 46.9333C91.8094 47.4666 91.5918 47.7341 91.1544 47.7357L89.1384 47.7432L89.5881 48.1895C89.9522 48.5615 89.9375 48.9135 89.544 49.2457L89.0017 49.7117L90.5217 49.7061C91.0337 49.7042 91.2907 49.9592 91.2926 50.4712L91.3143 56.3272C91.316 56.7858 91.264 57.1434 91.1583 57.3997C91.0525 57.6455 90.8505 57.8382 90.5524 57.978C90.1478 58.1822 89.5935 58.2802 88.8895 58.2722C88.2922 58.285 87.9018 58.0038 87.7183 57.4285C87.5348 56.8425 87.7258 56.5591 88.2912 56.5784C88.5366 56.5881 88.7979 56.5872 89.0752 56.5755C89.3631 56.5637 89.5068 56.4672 89.5061 56.2859L89.4897 51.8539C89.4887 51.5766 89.3495 51.4384 89.0721 51.4394L87.4082 51.4456C87.1308 51.4466 86.9927 51.5858 86.9937 51.8631L87.0218 59.4471C87.0234 59.8844 86.7256 60.1042 86.1283 60.1064C85.5309 60.1086 85.2314 59.8911 85.2298 59.4537L85.1958 50.2698C84.671 49.6957 84.3873 49.4195 84.3447 49.4409C83.9809 49.133 83.9902 48.7596 84.3726 48.3208C84.9465 47.7747 85.3754 46.9304 85.6592 45.7881C85.8068 45.3182 86.2009 45.162 86.8414 45.3197C87.4927 45.4773 87.7551 45.7536 87.6285 46.1488L91.1485 46.1357ZM105.054 50.9642C105.053 50.6869 104.914 50.5487 104.637 50.5497L102.013 50.5595C102.617 52.4346 103.636 53.7641 105.068 54.5482L105.054 50.9642ZM96.445 50.5801C96.1677 50.5811 96.0295 50.7203 96.0306 50.9976L96.0445 54.7576C97.5667 53.9093 98.5962 52.5135 99.133 50.5701L96.445 50.5801ZM106.23 48.6878C106.742 48.6859 106.999 48.941 107.001 49.453L107.032 57.8529C107.034 58.3862 106.972 58.7918 106.845 59.0696C106.718 59.3581 106.452 59.5937 106.047 59.7766C105.643 59.9701 104.966 60.0633 104.016 60.0561C103.387 60.0691 102.964 59.756 102.749 59.1168C102.544 58.4776 102.622 58.1626 102.985 58.1719C103.209 58.1818 103.78 58.185 104.697 58.1816C104.953 58.1806 105.081 58.0628 105.08 57.8282L105.069 54.9642C104.623 55.4565 104.4 55.724 104.4 55.7667C104.135 56.1623 103.789 56.2223 103.361 55.9465C102.207 55.3001 101.268 53.9969 100.546 52.0369C99.8287 54.0876 98.831 55.4406 97.5535 56.096C97.1278 56.3536 96.7648 56.2856 96.4647 55.8921L96.0467 55.3496L96.0619 59.4616C96.0636 59.8989 95.739 60.1188 95.0884 60.1212C94.4484 60.1236 94.1276 59.9061 94.1259 59.4688L94.089 49.5008C94.0871 48.9888 94.3421 48.7319 94.8541 48.73L99.7501 48.7118L99.6671 47.8961C99.6447 47.6189 99.4949 47.4808 99.2175 47.4818L97.5856 47.4879C97.1482 47.4895 96.9285 47.213 96.9265 46.6583C96.9244 46.1036 97.1421 45.8255 97.5794 45.8239L100.523 45.813C101.025 45.8111 101.298 46.0608 101.342 46.5619L101.558 48.7051L106.23 48.6878ZM111.78 48.2192C111.503 48.2203 111.365 48.3595 111.366 48.6368L111.368 49.3248C111.37 49.7621 111.051 49.982 110.411 49.9843C109.782 49.9867 109.466 49.7692 109.464 49.3318L109.457 47.2199C109.455 46.7079 109.71 46.4509 110.222 46.449L115.518 46.4294L115.308 45.9662C115.125 45.5722 115.38 45.2992 116.073 45.1473C116.766 44.9954 117.204 45.1165 117.386 45.5105L117.806 46.4209L122.75 46.4026C123.262 46.4007 123.519 46.6557 123.521 47.1677L123.528 49.2797C123.53 49.717 123.195 49.937 122.523 49.9394C121.851 49.9419 121.514 49.7245 121.512 49.2872L121.51 48.5992C121.509 48.3219 121.37 48.1837 121.092 48.1847L111.78 48.2192ZM118.027 50.0201C117.674 49.7867 117.716 49.4826 118.152 49.1076C118.598 48.7326 118.998 48.6565 119.351 48.8792C119.746 49.0911 120.34 49.4782 121.131 50.0406C121.933 50.603 122.409 50.9745 122.559 51.1553C122.838 51.3996 122.737 51.7307 122.259 52.1484C121.781 52.5662 121.408 52.6529 121.14 52.4086C121.001 52.2278 120.541 51.8401 119.76 51.2457C118.989 50.6512 118.412 50.2427 118.027 50.0201ZM113.095 49.0144C113.361 48.6934 113.803 48.6384 114.423 48.8495C115.042 49.0498 115.224 49.3212 114.97 49.6634C114.705 50.0484 114.189 50.573 113.424 51.2372C112.669 51.9013 112.078 52.3462 111.653 52.5718C111.301 52.7757 110.901 52.6279 110.451 52.1282C110.012 51.6285 109.984 51.2873 110.367 51.1045C110.708 50.9646 111.213 50.6374 111.883 50.1229C112.554 49.6191 112.958 49.2496 113.095 49.0144ZM113.997 54.8511L119.341 54.8313C118.282 54.1205 117.448 53.4463 116.837 52.8085C116.655 52.6172 116.474 52.6232 116.293 52.8266C115.762 53.4472 114.997 54.122 113.997 54.8511ZM113.688 57.9242C113.689 58.2016 113.829 58.3397 114.106 58.3387L118.906 58.3209C119.183 58.3199 119.321 58.1807 119.32 57.9034L119.315 56.5594L113.683 56.5803L113.688 57.9242ZM115.789 50.5884C116.022 50.2249 116.422 50.1647 116.989 50.408C117.555 50.6512 117.753 50.9065 117.583 51.1738C119.147 52.8 121.119 54.046 123.501 54.9119C123.982 55.0807 124.021 55.4379 123.617 55.9834C123.214 56.5289 122.815 56.7171 122.419 56.5479C122.259 56.4738 121.896 56.2885 121.329 55.9919L121.341 59.2559C121.343 59.7679 121.088 60.0248 120.576 60.0267L112.544 60.0565C112.032 60.0584 111.775 59.8033 111.773 59.2914L111.762 56.2354C111.187 56.5255 110.804 56.7083 110.612 56.7836C110.207 56.9558 109.796 56.7813 109.378 56.2602C108.971 55.7284 108.98 55.387 109.406 55.2361C110.578 54.8371 111.808 54.1765 113.095 53.2544C114.404 52.3322 115.302 51.4436 115.789 50.5884Z" fill="black" fill-opacity="0.85"/>
</g>
<defs>
<clipPath id="clip0_2306_6383">
<rect width="200" height="90" fill="white"/>
</clipPath>
</defs>
</svg>
