<svg width="200" height="90" viewBox="0 0 200 90" fill="none" xmlns="http://www.w3.org/2000/svg">
<g clip-path="url(#clip0_1260_3810)">
<rect width="200" height="90" fill="#FEB79D"/>
<path fill-rule="evenodd" clip-rule="evenodd" d="M-6.18027 85.5257C-5.5206 81.3514 -9.94765 77.2571 -7.65473 73.2393C-4.94813 68.4966 -1.65241 61.9915 7.77154 61.0783C17.9972 60.0873 23.5998 68.8258 33.9785 69.2048C45.8176 69.6371 56.5881 60.196 66.8872 63.2371C76.2425 65.9996 70.121 74.0119 68.9752 79.5387C68.1676 83.4341 61.5364 86.4306 61.2669 90.3457C60.8502 96.3973 75.7689 103.853 67.0229 107.895C58.3557 111.9 45.7383 103.802 34.2527 102.83C27.3162 102.243 20.5655 103.925 13.6182 103.373C4.65786 102.66 -7.2514 103.227 -11.7526 99.1698C-16.3208 95.0519 -6.92748 90.2539 -6.18027 85.5257Z" fill="#FE585B"/>
<path fill-rule="evenodd" clip-rule="evenodd" d="M28.4743 10.5302C32.6486 10.8717 36.7429 8.58004 40.7607 9.76696C45.5034 11.168 52.0085 12.874 52.9217 17.7523C53.9127 23.0456 45.1742 25.9458 44.7952 31.3183C44.3629 37.4467 53.804 43.0221 50.7629 48.3534C48.0004 53.1961 39.9881 50.0274 34.4613 49.4342C30.5659 49.0162 27.5694 45.5836 23.6543 45.444C17.6027 45.2284 10.1469 52.9509 6.10508 48.4236C2.09968 43.9371 10.1975 37.4057 11.1701 31.4602C11.7575 27.8695 10.0747 24.3751 10.6274 20.7788C11.3402 16.1405 10.7727 9.97575 14.8302 7.64571C18.9481 5.281 23.7461 10.1434 28.4743 10.5302Z" fill="#FC7443"/>
<path fill-rule="evenodd" clip-rule="evenodd" d="M173.474 4.53021C177.649 4.87169 181.743 2.58004 185.761 3.76696C190.503 5.16803 197.008 6.87405 197.922 11.7523C198.913 17.0456 190.174 19.9458 189.795 25.3183C189.363 31.4467 198.804 37.0221 195.763 42.3534C193 47.1961 184.988 44.0274 179.461 43.4342C175.566 43.0162 172.569 39.5836 168.654 39.444C162.603 39.2284 155.147 46.9509 151.105 42.4236C147.1 37.9371 155.198 31.4057 156.17 25.4602C156.757 21.8695 155.075 18.3751 155.627 14.7788C156.34 10.1405 155.773 3.97575 159.83 1.64571C163.948 -0.719004 168.746 4.14342 173.474 4.53021Z" fill="#FF8787"/>
<path fill-rule="evenodd" clip-rule="evenodd" d="M117.063 7.20494C131.49 7.9797 144.155 11.9054 154.996 17.5775C166.733 23.7188 176.896 30.8598 179.688 39.9711C183.097 51.0949 184.354 63.7453 171.749 72.2549C158.691 81.0707 136.857 81.4742 117.063 82.2497C95.2362 83.1048 71.8992 84.7511 54.6033 76.8446C35.6156 68.1646 20.8565 53.9771 24.5773 39.9711C28.0889 26.7526 52.1053 19.9805 71.5388 13.0955C85.3864 8.18958 100.98 6.34119 117.063 7.20494Z" fill="#FFAB7A"/>
<ellipse cx="177.987" cy="70.7269" rx="16.7876" ry="14.0511" fill="#F55A57"/>
<ellipse cx="173.711" cy="65.6395" rx="1.21537" ry="2.15126" fill="black"/>
<ellipse cx="182.286" cy="65.6395" rx="1.21537" ry="2.15126" fill="black"/>
<path d="M173.043 72.6445C173.079 74.5722 175.312 76.0937 178.031 76.0428C180.749 75.9919 182.924 74.388 182.888 72.4603C182.852 70.5326 180.67 71.7825 177.952 71.8334C175.233 71.8843 173.007 70.7168 173.043 72.6445Z" fill="black"/>
<path d="M170.796 50.9035C173.677 48.6452 180.1 51.1915 180.1 55.0219C180.101 59.542 168.086 61.6232 165.801 61.9782C165.552 62.0169 165.303 62.044 165.054 62.039C163.425 62.0062 157.615 61.2375 170.796 50.9035Z" fill="#6E5232"/>
<path d="M170.796 50.9035C173.677 48.6452 180.1 51.1915 180.1 55.0219C180.101 59.542 168.086 61.6232 165.801 61.9782C165.552 62.0169 165.303 62.044 165.054 62.039C163.425 62.0062 157.615 61.2375 170.796 50.9035Z" fill="url(#paint0_radial_1260_3810)" fill-opacity="0.15"/>
<path d="M185.2 50.7629C182.319 48.5045 175.896 51.0509 175.896 54.8813C175.896 59.4014 187.91 61.4825 190.195 61.8375C190.445 61.8763 190.693 61.9034 190.942 61.8984C192.571 61.8656 198.381 61.0968 185.2 50.7629Z" fill="#6E5232"/>
<path d="M185.2 50.7629C182.319 48.5045 175.896 51.0509 175.896 54.8813C175.896 59.4014 187.91 61.4825 190.195 61.8375C190.445 61.8763 190.693 61.9034 190.942 61.8984C192.571 61.8656 198.381 61.0968 185.2 50.7629Z" fill="url(#paint1_radial_1260_3810)" fill-opacity="0.15"/>
<path d="M84.3161 36.9608C84.0697 37.035 83.873 37.0324 83.7261 36.953C83.5791 36.8802 83.472 36.7572 83.4047 36.5842C83.3508 36.4244 83.3635 36.2643 83.4429 36.104C83.5223 35.9437 83.6619 35.8399 83.8618 35.7925C84.5677 35.6032 85.1936 35.3708 85.7392 35.0955C86.2849 34.8201 86.767 34.5083 87.1857 34.1601C86.7706 33.675 86.412 33.1397 86.1098 32.5541C85.8143 31.9619 85.5685 31.3194 85.3726 30.6268L83.9126 30.6322C83.766 30.6328 83.6391 30.5799 83.5321 30.4736C83.425 30.3674 83.3712 30.2409 83.3706 30.0942C83.3701 29.9476 83.423 29.824 83.5293 29.7236C83.6355 29.6166 83.762 29.5628 83.9087 29.5622L87.3387 29.5495L87.3342 28.3495C87.3335 28.1562 87.3962 27.9993 87.5225 27.8788C87.6487 27.7584 87.8018 27.6978 87.9818 27.6971C88.1618 27.6965 88.3153 27.7559 88.4425 27.8754C88.5696 27.995 88.6335 28.1514 88.6342 28.3447L88.6386 29.5447L92.0486 29.5321C92.1953 29.5315 92.3188 29.5844 92.4192 29.6907C92.5263 29.7903 92.58 29.9134 92.5806 30.0601C92.5811 30.2068 92.5283 30.3336 92.422 30.4407C92.3224 30.5477 92.1993 30.6015 92.0526 30.6021L90.6726 30.6072C90.4885 31.3012 90.2475 31.9421 89.9497 32.5299C89.6586 33.1176 89.3072 33.6556 88.8957 34.1438C89.3237 34.4955 89.8148 34.807 90.3692 35.0783C90.9235 35.3496 91.551 35.5773 92.2517 35.7614C92.4519 35.8073 92.5889 35.9101 92.6629 36.0698C92.7368 36.2296 92.744 36.3895 92.6846 36.5498C92.6253 36.7233 92.5191 36.847 92.366 36.9209C92.2196 36.9948 92.0263 36.9989 91.7861 36.9331C90.2711 36.492 89.0254 35.8533 88.0489 35.0169C87.5638 35.4321 87.0118 35.8008 86.393 36.1231C85.7809 36.4453 85.0886 36.7246 84.3161 36.9608ZM88.0425 33.2769C88.3411 32.9025 88.5962 32.4916 88.8079 32.0441C89.0196 31.5966 89.1978 31.1193 89.3426 30.6121L86.6926 30.6219C86.8478 31.128 87.0329 31.604 87.2479 32.0499C87.4696 32.4957 87.7344 32.9047 88.0425 33.2769ZM98.0163 36.99C97.8496 36.9906 97.7094 36.9378 97.5957 36.8316C97.482 36.7253 97.4248 36.5822 97.4241 36.4022L97.4198 35.2322L96.2098 35.2367C96.0631 35.2372 95.9329 35.1844 95.8192 35.0781C95.7121 34.9652 95.6583 34.8354 95.6578 34.6887C95.6572 34.5354 95.71 34.4052 95.8163 34.2981C95.9293 34.191 96.0591 34.1372 96.2057 34.1367L97.4157 34.1322L97.4068 31.7322C97.135 32.1399 96.8298 32.551 96.4914 32.9656C96.1529 33.3802 95.7944 33.7749 95.4158 34.1496C95.0438 34.5243 94.6717 34.8624 94.2995 35.1638C94.1666 35.2709 94.0101 35.3282 93.8301 35.3355C93.6501 35.3362 93.5032 35.2667 93.3894 35.1271C93.2822 34.9942 93.2417 34.8477 93.2677 34.6876C93.3005 34.5275 93.3867 34.3971 93.5263 34.2966C93.9252 33.9951 94.3305 33.6436 94.7424 33.2421C95.1609 32.8339 95.556 32.4091 95.9277 31.9677C96.2994 31.5197 96.6144 31.0952 96.873 30.6942L93.963 30.705C93.8163 30.7055 93.6895 30.6527 93.5824 30.5464C93.4753 30.4401 93.4215 30.3137 93.421 30.167C93.4204 30.0137 93.4733 29.8868 93.5796 29.7864C93.6858 29.6793 93.8123 29.6255 93.959 29.625L97.399 29.6122L97.3939 28.2422C97.3932 28.0689 97.4494 27.9287 97.5623 27.8216C97.6752 27.7079 97.815 27.6507 97.9817 27.6501C98.1417 27.6495 98.2786 27.7056 98.3923 27.8185C98.506 27.9248 98.5632 28.0646 98.5639 28.2379L98.5689 29.6079L102.009 29.5951C102.162 29.5946 102.289 29.6474 102.39 29.7537C102.497 29.8533 102.55 29.9798 102.551 30.1331C102.551 30.2798 102.499 30.4067 102.392 30.5137C102.293 30.6208 102.166 30.6746 102.013 30.6751L99.1329 30.6858C99.4011 31.0982 99.7261 31.5236 100.108 31.9622C100.489 32.3941 100.894 32.8093 101.322 33.2077C101.75 33.6061 102.168 33.9613 102.576 34.2731C102.703 34.3659 102.767 34.4924 102.768 34.6524C102.775 34.8123 102.732 34.9492 102.639 35.0629C102.533 35.1899 102.397 35.2671 102.23 35.2944C102.063 35.3217 101.91 35.2789 101.77 35.1661C101.408 34.8674 101.037 34.5321 100.656 34.1602C100.274 33.7883 99.9063 33.393 99.5514 32.9743C99.1965 32.5489 98.8716 32.1168 98.5766 31.6779L98.5857 34.1279L99.8357 34.1232C99.989 34.1227 100.119 34.1755 100.226 34.2818C100.333 34.3881 100.387 34.5179 100.388 34.6712C100.388 34.8179 100.335 34.9481 100.229 35.0618C100.123 35.1688 99.9931 35.2227 99.8398 35.2232L98.5898 35.2279L98.5941 36.3979C98.5948 36.5779 98.5386 36.7214 98.4257 36.8285C98.3128 36.9356 98.1763 36.9894 98.0163 36.99ZM103.96 29.8479L111.47 29.8201L111.474 31.0001L105.184 31.0234L105.206 37.0133L103.986 37.0179L103.96 29.8479ZM110.85 29.8224L112.07 29.8179L112.091 35.5878C112.094 36.2278 111.975 36.5783 111.546 36.7699C111.116 36.9614 110.486 36.9838 109.616 36.987C109.575 36.6372 109.383 36.0979 109.212 35.7685C109.762 35.7965 110.442 35.7939 110.632 35.7832C110.812 35.7826 110.872 35.7223 110.871 35.5723L110.85 29.8224ZM105.753 28.0213L107.993 28.013L107.997 29.063L105.757 29.0713L105.753 28.0213ZM107.213 28.0158L108.493 28.0111C108.593 30.5808 109.17 32.6886 111.044 33.5917C110.785 33.8327 110.377 34.3242 110.188 34.6449C108.213 33.4822 107.545 31.1946 107.405 28.5551L107.215 28.5558L107.213 28.0158ZM107.311 30.1155L108.412 30.3014C108.079 32.4027 107.315 33.8855 105.748 34.7313C105.587 34.4519 105.195 33.9634 104.954 33.7643C106.322 33.1092 107.067 31.8364 107.311 30.1155ZM117.396 36.8982C116.896 36.9 116.496 36.8482 116.196 36.7426C115.895 36.6437 115.678 36.4679 115.544 36.215C115.409 35.9622 115.341 35.6124 115.34 35.1658C115.338 34.7191 115.403 34.3689 115.536 34.115C115.668 33.8612 115.884 33.6837 116.184 33.5826C116.483 33.4749 116.883 33.42 117.383 33.4182L118.663 33.4134C119.163 33.4116 119.563 33.4634 119.864 33.569C120.164 33.6679 120.381 33.8437 120.516 34.0966C120.65 34.3494 120.718 34.6992 120.72 35.1458C120.721 35.5925 120.656 35.9427 120.524 36.1966C120.391 36.4504 120.175 36.6279 119.875 36.729C119.576 36.8368 119.176 36.8916 118.676 36.8934L117.396 36.8982ZM114.184 30.95C114.024 30.9506 113.887 30.9011 113.773 30.8016C113.666 30.7019 113.613 30.5655 113.612 30.3921L113.611 30.0721C113.609 29.5522 113.731 29.185 113.977 28.9708C114.229 28.7498 114.659 28.6383 115.265 28.636L117.335 28.6283L117.333 28.0383C117.333 27.845 117.392 27.6981 117.512 27.5977C117.638 27.4972 117.784 27.4467 117.951 27.446C118.124 27.4454 118.271 27.4949 118.392 27.5944C118.519 27.6939 118.583 27.8404 118.583 28.0337L118.585 28.6237L120.725 28.6158C121.332 28.6135 121.759 28.7219 122.007 28.941C122.261 29.1534 122.389 29.5196 122.391 30.0396L122.392 30.3596C122.393 30.5329 122.336 30.6698 122.223 30.7702C122.11 30.8707 121.974 30.9212 121.814 30.9217C121.654 30.9223 121.517 30.8762 121.403 30.7833C121.29 30.6904 121.233 30.5572 121.232 30.3839L121.231 30.1139C121.23 29.9272 121.183 29.7941 121.089 29.7144C121.003 29.6347 120.836 29.5954 120.589 29.5963L115.409 29.6155C115.162 29.6164 114.993 29.657 114.9 29.7374C114.807 29.8177 114.76 29.9512 114.761 30.1379L114.762 30.4079C114.763 30.5812 114.706 30.7148 114.594 30.8085C114.481 30.9023 114.344 30.9494 114.184 30.95ZM114.188 34.71C114.022 34.804 113.858 34.8346 113.698 34.8019C113.538 34.7691 113.411 34.6763 113.317 34.5233C113.23 34.3703 113.213 34.2237 113.266 34.0835C113.318 33.9433 113.428 33.8295 113.594 33.7422C113.974 33.5475 114.363 33.3227 114.762 33.0679C115.161 32.8064 115.55 32.535 115.929 32.2536C116.314 31.9655 116.663 31.6842 116.976 31.4097C117.295 31.1218 117.614 30.9773 117.934 30.9761C118.261 30.9749 118.588 31.1037 118.916 31.3625C119.223 31.6014 119.567 31.8501 119.948 32.1087C120.336 32.3672 120.74 32.6157 121.161 32.8542C121.582 33.0926 121.993 33.3078 122.394 33.4996C122.547 33.5724 122.658 33.6853 122.725 33.8384C122.792 33.9848 122.783 34.1382 122.697 34.2985C122.61 34.4655 122.478 34.576 122.298 34.63C122.125 34.6773 121.948 34.6546 121.767 34.5619C121.393 34.3567 121.003 34.1281 120.595 33.8763C120.187 33.6245 119.793 33.3659 119.412 33.1007C119.038 32.8287 118.7 32.5666 118.399 32.3144C118.245 32.1817 118.105 32.1188 117.978 32.126C117.858 32.1264 117.722 32.1936 117.569 32.3275C117.27 32.5819 116.931 32.8532 116.552 33.1413C116.18 33.4227 115.791 33.7008 115.385 33.9756C114.98 34.2438 114.58 34.4886 114.188 34.71ZM117.392 35.8382L118.672 35.8334C119.032 35.8321 119.265 35.7846 119.372 35.6908C119.485 35.5971 119.541 35.4169 119.54 35.1502C119.539 34.8769 119.481 34.6971 119.368 34.6108C119.261 34.5179 119.027 34.4721 118.667 34.4734L117.387 34.4782C117.02 34.4795 116.781 34.5271 116.668 34.6209C116.561 34.7079 116.509 34.8881 116.51 35.1614C116.511 35.4281 116.565 35.6079 116.672 35.7008C116.785 35.7938 117.026 35.8395 117.392 35.8382ZM115.248 32.0361C115.102 32.13 114.945 32.1739 114.779 32.1678C114.619 32.1618 114.482 32.0823 114.368 31.9294C114.287 31.8163 114.257 31.6864 114.276 31.5397C114.302 31.3863 114.382 31.266 114.515 31.1788C114.788 31.0045 115.067 30.8034 115.353 30.5757C115.645 30.3479 115.894 30.1337 116.1 29.9329C116.213 29.8125 116.346 29.752 116.5 29.7514C116.66 29.7508 116.796 29.807 116.91 29.9199C117.024 30.0262 117.078 30.1526 117.072 30.2993C117.065 30.4393 117.009 30.5662 116.903 30.68C116.657 30.9342 116.395 31.1752 116.116 31.4029C115.843 31.6306 115.554 31.8416 115.248 32.0361ZM120.678 31.906C120.511 31.7999 120.32 31.6773 120.106 31.5381C119.892 31.3989 119.682 31.2563 119.475 31.1104C119.274 30.9578 119.1 30.8218 118.953 30.7024C118.833 30.6028 118.766 30.4797 118.752 30.3331C118.745 30.1865 118.791 30.0596 118.89 29.9526C118.983 29.8389 119.103 29.7785 119.25 29.7712C119.403 29.7573 119.536 29.7969 119.65 29.8898C119.804 30.0092 119.981 30.1385 120.182 30.2778C120.382 30.4104 120.583 30.5396 120.783 30.6656C120.99 30.7848 121.181 30.8874 121.354 30.9735C121.488 31.0396 121.568 31.146 121.595 31.2926C121.629 31.4391 121.61 31.5792 121.537 31.7128C121.451 31.8664 121.324 31.9602 121.158 31.9942C120.991 32.0215 120.831 31.9921 120.678 31.906Z" fill="#FE585B"/>
<path d="M63.8586 58.4277C63.6766 58.247 63.5905 58.0287 63.6002 57.7726C63.61 57.5273 63.7212 57.3135 63.9338 57.1314C64.6994 56.4672 65.2887 55.7557 65.7019 54.9968C66.1151 54.2273 66.373 53.2983 66.4756 52.2099L64.3956 52.2177C64.161 52.2185 63.958 52.1393 63.7867 51.9799C63.6261 51.8205 63.5454 51.6235 63.5445 51.3888C63.5437 51.1541 63.6229 50.9565 63.7824 50.7959C63.9524 50.6246 64.1547 50.5385 64.3894 50.5377L66.5174 50.5298L66.5085 48.1458L65.8846 48.1481C65.6835 48.5755 65.477 48.9763 65.265 49.3504C65.1271 49.5643 64.9357 49.709 64.6906 49.7845C64.4455 49.8495 64.2054 49.8237 63.9703 49.7072C63.7566 49.5907 63.6173 49.4205 63.5524 49.1968C63.4876 48.973 63.5188 48.7595 63.6461 48.5564C63.8475 48.2357 64.0488 47.8616 64.2499 47.4342C64.4616 46.996 64.652 46.5527 64.821 46.104C65.0006 45.6554 65.1325 45.2495 65.2165 44.8866C65.2901 44.609 65.4334 44.4111 65.6463 44.293C65.8698 44.1748 66.1151 44.1526 66.382 44.2262C66.6276 44.3 66.8041 44.4327 66.9115 44.6243C67.0189 44.8159 67.0304 45.0505 66.9461 45.3282C66.9041 45.499 66.8514 45.6805 66.7881 45.8727C66.7248 46.0543 66.6615 46.2412 66.5982 46.4335L69.2382 46.4237C69.4835 46.4228 69.6865 46.5073 69.8471 46.6774C70.0184 46.8368 70.1045 47.0391 70.1054 47.2845C70.1063 47.5191 70.0217 47.7221 69.8516 47.8934C69.6922 48.054 69.4899 48.1347 69.2445 48.1357L68.2525 48.1393L68.2614 50.5233L69.6214 50.5183C69.856 50.5174 70.0537 50.602 70.2143 50.7721C70.3856 50.9314 70.4716 51.1285 70.4725 51.3631C70.4734 51.5978 70.3888 51.7954 70.2187 51.9561C70.0593 52.1167 69.8623 52.1974 69.6276 52.1983L68.2196 52.2035L68.2042 52.3635C68.376 52.6722 68.5799 53.0075 68.8159 53.3693C69.0626 53.7204 69.3145 54.0608 69.5717 54.3905C69.8396 54.7202 70.0913 55.0072 70.3269 55.2517C70.5089 55.4217 70.5897 55.6347 70.5693 55.8908C70.5489 56.1469 70.4484 56.3606 70.2677 56.5319C70.1613 56.6177 70.0549 56.6767 69.9483 56.7091L72.5723 56.6994C72.4335 56.6786 72.3054 56.631 72.1878 56.5568C72.0702 56.4826 71.9791 56.3762 71.9146 56.2378C71.8393 56.0781 71.7426 55.8918 71.6245 55.6789C71.517 55.466 71.4096 55.253 71.3021 55.0401C71.1947 54.8271 71.098 54.6515 71.0122 54.5131C70.9047 54.3002 70.8826 54.087 70.9458 53.8734C71.009 53.6492 71.147 53.4833 71.36 53.3759C71.5835 53.2577 71.8074 53.2249 72.0316 53.2774C72.2558 53.3192 72.4322 53.4465 72.561 53.6594C72.6576 53.819 72.765 54.016 72.8832 54.2502C73.0014 54.4738 73.1142 54.6974 73.2217 54.921C73.3398 55.1339 73.4311 55.3042 73.4956 55.432C73.6138 55.6555 73.6359 55.8794 73.5621 56.1037C73.4882 56.3173 73.3395 56.4832 73.1159 56.6014C73.0308 56.6443 72.9295 56.6767 72.8123 56.6985L74.1243 56.6936C74.2407 56.4585 74.3783 56.154 74.5369 55.7801C74.7062 55.4061 74.8648 55.0322 75.0127 54.6583C75.1714 54.2844 75.2876 53.9906 75.3615 53.777C75.4565 53.51 75.6158 53.3281 75.8395 53.2312C76.0737 53.1237 76.3244 53.1121 76.5913 53.1965C76.8263 53.2809 76.9976 53.435 77.1051 53.6586C77.2125 53.8715 77.2134 54.1115 77.1077 54.3786C77.0443 54.5388 76.9491 54.7525 76.8221 55.0196C76.7058 55.2867 76.5735 55.5699 76.4252 55.8691C76.2876 56.1576 76.1553 56.4301 76.0283 56.6866L77.6283 56.6806C77.8629 56.6798 78.0606 56.7644 78.2212 56.9344C78.3818 57.0939 78.4625 57.2909 78.4634 57.5256C78.4643 57.7602 78.385 57.9578 78.2256 58.1184C78.0662 58.279 77.8692 58.3598 77.6345 58.3606L69.8585 58.3895C69.6239 58.3903 69.4262 58.3111 69.2657 58.1516C69.1051 57.9922 69.0243 57.7952 69.0235 57.5605C69.0228 57.3792 69.0755 57.2137 69.1816 57.064C69.2877 56.9142 69.4207 56.8124 69.5805 56.7585C69.3137 56.7381 69.0893 56.6216 68.9072 56.409C68.7251 56.1963 68.5268 55.9464 68.3124 55.6592C68.1086 55.3612 67.9048 55.0527 67.701 54.7334C67.4583 55.449 67.1301 56.1062 66.7163 56.7051C66.3132 57.3039 65.8299 57.8604 65.2665 58.3745C65.0645 58.5566 64.8302 58.6588 64.5636 58.6811C64.297 58.7141 64.0621 58.6296 63.8586 58.4277ZM73.5018 52.7919C72.7978 52.7945 72.2429 52.7219 71.837 52.5741C71.4417 52.4155 71.1634 52.1552 71.0021 51.7932C70.8407 51.4204 70.7588 50.9141 70.7565 50.2741C70.7541 49.6341 70.8322 49.1324 70.9909 48.7692C71.1495 48.4059 71.4259 48.1489 71.82 47.9981C72.2248 47.8366 72.7791 47.7546 73.4831 47.7519L74.5871 47.7479C75.3018 47.7452 75.8568 47.8231 76.252 47.9817C76.6472 48.1296 76.9255 48.3845 77.0868 48.7466C77.2482 49.1087 77.33 49.6097 77.3324 50.2497C77.3348 50.8897 77.2567 51.3966 77.0981 51.7706C76.9394 52.1338 76.663 52.3962 76.269 52.5577C75.8749 52.7084 75.3205 52.7852 74.6058 52.7878L73.5018 52.7919ZM70.5511 46.6748C70.3271 46.6756 70.1348 46.5963 69.9742 46.4369C69.8136 46.2775 69.7329 46.0858 69.7321 45.8618C69.7313 45.6378 69.8106 45.4455 69.97 45.2849C70.1294 45.1244 70.3211 45.0436 70.5451 45.0428L77.281 45.0178C77.505 45.017 77.6973 45.0963 77.8579 45.2557C78.0185 45.4151 78.0992 45.6068 78.1 45.8308C78.1009 46.0548 78.0216 46.2471 77.8622 46.4077C77.7028 46.5683 77.5111 46.649 77.2871 46.6498L70.5511 46.6748ZM73.5278 51.1758L74.5678 51.1719C74.9732 51.1704 75.2343 51.1108 75.3512 50.993C75.4681 50.8753 75.5258 50.6297 75.5244 50.2564C75.5231 49.8831 75.4635 49.6433 75.3458 49.5371C75.228 49.4202 74.9664 49.3625 74.5611 49.364L73.5211 49.3678C73.1265 49.3693 72.8707 49.4289 72.7538 49.5467C72.6368 49.6538 72.5791 49.894 72.5805 50.2673C72.5818 50.6406 72.6414 50.8858 72.7592 51.0026C72.8769 51.1195 73.1332 51.1773 73.5278 51.1758ZM86.3324 52.3923C86.0978 52.3932 85.9055 52.3193 85.7556 52.1705C85.6057 52.011 85.5303 51.8193 85.5295 51.5953C85.5286 51.3713 85.6026 51.1844 85.7514 51.0345C85.9001 50.8739 86.0918 50.7932 86.3265 50.7924L87.5745 50.7877C87.627 50.5635 87.69 50.2913 87.7635 49.971C87.8476 49.6507 87.9263 49.3091 87.9997 48.9461L87.0877 48.9495C86.853 48.9504 86.6661 48.8764 86.5268 48.7276C86.3876 48.5788 86.3176 48.403 86.3169 48.2004C86.3161 47.987 86.3848 47.8055 86.5229 47.6556C86.661 47.5058 86.8474 47.4304 87.082 47.4295L88.33 47.4249C88.3825 47.1794 88.4296 46.9552 88.4715 46.7524C88.5134 46.5389 88.5501 46.3574 88.5815 46.208L86.5815 46.2154C86.3469 46.2163 86.1599 46.1423 86.0207 45.9935C85.8922 45.8446 85.8275 45.6635 85.8267 45.4502C85.8259 45.2368 85.8892 45.0606 86.0167 44.9215C86.1548 44.7716 86.3412 44.6963 86.5759 44.6954L93.4239 44.67C93.6585 44.6691 93.8455 44.7431 93.9847 44.8919C94.1239 45.0301 94.1938 45.2058 94.1946 45.4192C94.1954 45.6325 94.1268 45.8141 93.9887 45.9639C93.8505 46.1138 93.6642 46.1891 93.4295 46.19L90.4055 46.2012C90.3741 46.3613 90.3374 46.5428 90.2955 46.7456C90.2536 46.9484 90.2064 47.1726 90.154 47.4181L90.65 47.4163C91.482 47.4132 92.0532 47.5604 92.3637 47.858C92.6741 48.1448 92.8307 48.6776 92.8336 49.4562L92.8385 50.7682L93.8464 50.7645C94.0918 50.7636 94.2841 50.8429 94.4233 51.0023C94.5732 51.1511 94.6486 51.3375 94.6494 51.5615C94.6502 51.7855 94.5763 51.9778 94.4275 52.1383C94.2894 52.2882 94.0977 52.3636 93.8524 52.3645L86.3324 52.3923ZM90.1309 58.4583C89.3096 58.4614 88.664 58.3891 88.1941 58.2415C87.7243 58.1046 87.3927 57.8498 87.1993 57.4772C87.0059 57.0939 86.9079 56.5609 86.9053 55.8782C86.9028 55.1849 86.9968 54.6566 87.1875 54.2932C87.3781 53.9192 87.7078 53.6619 88.1766 53.5215C88.6454 53.3704 89.2905 53.2934 90.1118 53.2903C90.9438 53.2873 91.5894 53.3595 92.0486 53.5072C92.5184 53.6441 92.8501 53.8989 93.0434 54.2715C93.2368 54.6334 93.3347 55.1611 93.3373 55.8544C93.3398 56.5371 93.2458 57.0708 93.0552 57.4555C92.8646 57.8295 92.5349 58.0867 92.0661 58.2271C91.608 58.3782 90.9629 58.4552 90.1309 58.4583ZM82.8511 58.5173C82.1898 58.5197 81.6668 58.447 81.2823 58.2991C80.9084 58.1512 80.6408 57.9015 80.4795 57.5501C80.3289 57.1986 80.2524 56.7242 80.2502 56.1269C80.248 55.5189 80.3209 55.044 80.4689 54.7021C80.6276 54.3495 80.8934 54.1032 81.2662 53.9631C81.6497 53.8124 82.172 53.7358 82.8334 53.7333C83.5054 53.7308 84.0283 53.8036 84.4022 53.9515C84.7867 54.0888 85.0543 54.3331 85.2049 54.6845C85.3555 55.0253 85.4319 55.4997 85.4342 56.1077C85.4364 56.705 85.3635 57.18 85.2155 57.5325C85.0674 57.8851 84.8017 58.1367 84.4183 58.2875C84.0455 58.4382 83.5231 58.5148 82.8511 58.5173ZM80.1099 48.4794C79.8859 48.4802 79.7043 48.4116 79.5651 48.2734C79.4366 48.1245 79.3719 47.9488 79.3712 47.7461C79.3704 47.5435 79.4338 47.3726 79.5613 47.2334C79.6994 47.0836 79.8804 47.0082 80.1044 47.0074L85.2564 46.9883C85.4804 46.9875 85.6567 47.0615 85.7852 47.2103C85.9244 47.3485 85.9944 47.5189 85.9951 47.7216C85.9959 47.9242 85.9272 48.1005 85.7891 48.2503C85.6616 48.3895 85.4858 48.4595 85.2618 48.4603L80.1099 48.4794ZM80.9176 46.2364C80.6829 46.2372 80.496 46.1633 80.3567 46.0145C80.2175 45.8656 80.1475 45.6846 80.1467 45.4712C80.1459 45.2579 80.2146 45.0816 80.3528 44.9425C80.4909 44.7926 80.6773 44.7173 80.9119 44.7164L84.5279 44.703C84.7626 44.7021 84.9442 44.7761 85.0727 44.925C85.2119 45.0631 85.2819 45.2389 85.2827 45.4522C85.2835 45.6655 85.2148 45.8471 85.0767 45.997C84.9493 46.1468 84.7682 46.2221 84.5335 46.223L80.9176 46.2364ZM80.9106 52.9884C80.6759 52.9893 80.4943 52.9207 80.3658 52.7825C80.2373 52.6336 80.1726 52.4578 80.1719 52.2552C80.1711 52.0419 80.2344 51.8656 80.3619 51.7265C80.4894 51.5767 80.6704 51.5013 80.9051 51.5005L84.5691 51.4869C84.8037 51.486 84.9853 51.56 85.1139 51.7089C85.2424 51.8471 85.307 52.0228 85.3078 52.2361C85.3086 52.4388 85.2452 52.615 85.1178 52.7649C84.9903 52.904 84.8092 52.974 84.5746 52.9749L80.9106 52.9884ZM80.9022 50.7325C80.6676 50.7333 80.486 50.6647 80.3575 50.5265C80.2289 50.3776 80.1643 50.2019 80.1635 49.9992C80.1627 49.7859 80.2261 49.6096 80.3536 49.4705C80.481 49.3313 80.6621 49.2613 80.8968 49.2605L84.5608 49.2469C84.7954 49.246 84.977 49.3147 85.1055 49.4529C85.234 49.5911 85.2987 49.7668 85.2995 49.9802C85.3002 50.1828 85.2369 50.3591 85.1094 50.5089C84.9819 50.648 84.8009 50.718 84.5662 50.7189L80.9022 50.7325ZM90.1408 56.8103C90.5248 56.8088 90.8128 56.7918 91.0046 56.7591C91.2071 56.7156 91.3401 56.6245 91.4036 56.4856C91.4778 56.3466 91.5143 56.1385 91.5133 55.8612C91.5123 55.5945 91.4743 55.3973 91.3991 55.2696C91.3346 55.1312 91.2009 55.041 90.9981 54.9991C90.8059 54.9465 90.5178 54.9209 90.1338 54.9223C89.5472 54.9245 89.1634 54.9899 88.9825 55.1185C88.8123 55.2365 88.7279 55.4822 88.7293 55.8555C88.7303 56.1328 88.7684 56.3407 88.8436 56.4791C88.9188 56.6175 89.0578 56.7076 89.2606 56.7495C89.4634 56.7914 89.7568 56.8117 90.1408 56.8103ZM82.8456 57.0453C83.219 57.0439 83.4641 56.9843 83.581 56.8666C83.6978 56.7381 83.7556 56.4873 83.7542 56.1139C83.7529 55.7513 83.6933 55.5062 83.5755 55.3786C83.4577 55.251 83.2121 55.1879 82.8388 55.1893C82.4761 55.1907 82.231 55.2556 82.1035 55.384C81.9866 55.5125 81.9289 55.758 81.9302 56.1207C81.9316 56.494 81.9912 56.7445 82.109 56.872C82.2374 56.9889 82.483 57.0466 82.8456 57.0453ZM89.4145 50.7809L91.0945 50.7747L91.0908 49.7987C91.0895 49.4467 91.03 49.2176 90.9123 49.1114C90.8052 48.9944 90.565 48.9366 90.1916 48.938L89.8237 48.9394C89.7503 49.3023 89.6769 49.6439 89.6034 49.9642C89.53 50.2845 89.467 50.5567 89.4145 50.7809ZM106.75 57.2127C105.588 57.217 104.766 57.0067 104.284 56.5818C103.813 56.1462 103.576 55.4218 103.572 54.4085L103.551 48.7445C103.547 47.7312 103.779 47.0103 104.247 46.5819C104.725 46.1535 105.546 45.9371 106.709 45.9328C107.871 45.9285 108.688 46.1388 109.159 46.5637C109.641 46.9886 109.883 47.7077 109.887 48.721L109.908 54.401C109.912 55.4036 109.674 56.1245 109.196 56.5636C108.728 56.992 107.913 57.2084 106.75 57.2127ZM99.7644 58.8226C99.5084 58.8236 99.2894 58.739 99.1074 58.569C98.9361 58.4097 98.85 58.186 98.8489 57.898L98.8324 53.434C98.5779 53.851 98.3181 54.2519 98.0528 54.6369C97.7982 55.0112 97.5647 55.3267 97.3523 55.5835C97.1824 55.7868 96.9642 55.9103 96.6977 55.954C96.4419 55.9976 96.207 55.9451 95.9931 55.7966C95.7899 55.648 95.6665 55.4511 95.6229 55.2059C95.59 54.9607 95.6585 54.7418 95.8285 54.5492C96.0409 54.303 96.2798 54.0035 96.5452 53.6505C96.8105 53.2869 97.0811 52.9018 97.3569 52.4955C97.6327 52.0891 97.8872 51.6882 98.1204 51.2926C98.3643 50.8971 98.5657 50.5443 98.7245 50.2344L96.5645 50.2424C96.3085 50.2434 96.1002 50.1588 95.9396 49.9887C95.7896 49.8186 95.7142 49.6162 95.7133 49.3816C95.7124 49.1362 95.7863 48.9333 95.9351 48.7727C96.0944 48.6015 96.3021 48.5154 96.5581 48.5144L98.8141 48.5061L98.808 46.8581C98.5096 46.9232 98.2165 46.9829 97.9287 47.0373C97.6515 47.0917 97.3904 47.1407 97.1452 47.1842C96.8787 47.2279 96.6439 47.1914 96.4408 47.0748C96.2377 46.9583 96.1036 46.7614 96.0386 46.4843C95.995 46.2392 96.0316 46.0257 96.1482 45.8439C96.2648 45.6515 96.4458 45.5388 96.691 45.5059C97.0321 45.462 97.4212 45.3965 97.8583 45.3096C98.3059 45.2119 98.7588 45.1036 99.2171 44.9845C99.686 44.8655 100.128 44.7412 100.544 44.6116C100.97 44.482 101.327 44.3634 101.614 44.2556C101.859 44.1694 102.094 44.1739 102.318 44.269C102.543 44.3535 102.698 44.5183 102.784 44.7633C102.871 45.019 102.871 45.2483 102.787 45.4513C102.713 45.6543 102.553 45.7988 102.308 45.8851C101.872 46.036 101.318 46.2034 100.646 46.3873L100.654 48.4992L102.318 48.4931C102.585 48.4921 102.793 48.5766 102.943 48.7468C103.104 48.9062 103.184 49.1085 103.185 49.3539C103.186 49.5885 103.107 49.7915 102.948 49.9627C102.799 50.134 102.591 50.2201 102.324 50.2211L100.66 50.2272L100.662 50.6432C100.844 50.8452 101.08 51.0897 101.369 51.3766C101.658 51.6635 101.947 51.9398 102.236 52.2054C102.525 52.471 102.755 52.6781 102.926 52.8268C103.129 52.9861 103.242 53.1937 103.264 53.4496C103.287 53.7055 103.213 53.9298 103.043 54.1224C102.873 54.3151 102.66 54.4118 102.404 54.4128C102.159 54.4137 101.94 54.3292 101.747 54.1592C101.608 54.0317 101.442 53.8724 101.249 53.6811C101.067 53.4791 100.874 53.2611 100.671 53.0272L100.689 57.8912C100.69 58.1792 100.6 58.4035 100.419 58.5642C100.249 58.7355 100.031 58.8216 99.7644 58.8226ZM106.744 55.4207C107.277 55.4187 107.618 55.3321 107.767 55.1609C107.926 54.9897 108.005 54.664 108.003 54.184L107.984 48.9361C107.982 48.4561 107.901 48.131 107.74 47.961C107.59 47.7909 107.249 47.7068 106.715 47.7088C106.193 47.7107 105.852 47.7973 105.692 47.9686C105.543 48.1398 105.47 48.4654 105.472 48.9454L105.491 54.1933C105.493 54.6733 105.569 54.9984 105.719 55.1685C105.879 55.3386 106.221 55.4227 106.744 55.4207ZM118.332 52.2737C118.098 52.2746 117.905 52.2007 117.755 52.0519C117.605 51.8924 117.53 51.7007 117.529 51.4767C117.528 51.2527 117.602 51.0658 117.751 50.9159C117.9 50.7553 118.092 50.6746 118.326 50.6738L119.574 50.6691C119.627 50.4449 119.69 50.1727 119.763 49.8524C119.847 49.5321 119.926 49.1905 119.999 48.8275L119.087 48.8309C118.853 48.8318 118.666 48.7578 118.527 48.609C118.387 48.4602 118.317 48.2844 118.317 48.0818C118.316 47.8684 118.385 47.6868 118.523 47.537C118.661 47.3872 118.847 47.3118 119.082 47.3109L120.33 47.3063C120.382 47.0608 120.429 46.8366 120.471 46.6338C120.513 46.4203 120.55 46.2388 120.581 46.0894L118.581 46.0968C118.347 46.0976 118.16 46.0237 118.02 45.8748C117.892 45.726 117.827 45.5449 117.826 45.3316C117.826 45.1182 117.889 44.942 118.017 44.8029C118.155 44.653 118.341 44.5777 118.576 44.5768L125.424 44.5514C125.658 44.5505 125.845 44.6245 125.984 44.7733C126.124 44.9115 126.194 45.0872 126.194 45.3005C126.195 45.5139 126.127 45.6955 125.988 45.8453C125.85 45.9952 125.664 46.0705 125.429 46.0714L122.405 46.0826C122.374 46.2427 122.337 46.4242 122.295 46.627C122.253 46.8298 122.206 47.054 122.154 47.2995L122.65 47.2977C123.482 47.2946 124.053 47.4418 124.363 47.7394C124.674 48.0262 124.83 48.559 124.833 49.3376L124.838 50.6496L125.846 50.6459C126.092 50.645 126.284 50.7243 126.423 50.8837C126.573 51.0325 126.648 51.2189 126.649 51.4429C126.65 51.6669 126.576 51.8592 126.427 52.0197C126.289 52.1696 126.097 52.245 125.852 52.2459L118.332 52.2737ZM122.131 58.3397C121.309 58.3427 120.664 58.2705 120.194 58.1229C119.724 57.986 119.392 57.7312 119.199 57.3586C119.006 56.9753 118.908 56.4423 118.905 55.7596C118.903 55.0663 118.997 54.538 119.187 54.1746C119.378 53.8005 119.708 53.5433 120.176 53.4029C120.645 53.2518 121.29 53.1748 122.112 53.1717C122.944 53.1687 123.589 53.2409 124.048 53.3886C124.518 53.5255 124.85 53.7803 125.043 54.1529C125.237 54.5148 125.335 55.0425 125.337 55.7358C125.34 56.4185 125.246 56.9521 125.055 57.3369C124.864 57.7109 124.535 57.9681 124.066 58.1085C123.608 58.2596 122.963 58.3366 122.131 58.3397ZM114.851 58.3987C114.19 58.4011 113.667 58.3284 113.282 58.1805C112.908 58.0326 112.641 57.7829 112.479 57.4315C112.329 57.08 112.252 56.6056 112.25 56.0083C112.248 55.4003 112.321 54.9254 112.469 54.5835C112.627 54.2309 112.893 53.9846 113.266 53.8445C113.649 53.6938 114.172 53.6172 114.833 53.6147C115.505 53.6122 116.028 53.685 116.402 53.8329C116.786 53.9701 117.054 54.2145 117.205 54.5659C117.355 54.9067 117.432 55.3811 117.434 55.9891C117.436 56.5864 117.363 57.0614 117.215 57.4139C117.067 57.7665 116.801 58.0181 116.418 58.1689C116.045 58.3196 115.523 58.3962 114.851 58.3987ZM112.11 48.3608C111.886 48.3616 111.704 48.2929 111.565 48.1548C111.436 48.0059 111.372 47.8302 111.371 47.6275C111.37 47.4248 111.434 47.2539 111.561 47.1148C111.699 46.965 111.88 46.8896 112.104 46.8888L117.256 46.8697C117.48 46.8689 117.656 46.9429 117.785 47.0917C117.924 47.2299 117.994 47.4003 117.995 47.603C117.996 47.8056 117.927 47.9819 117.789 48.1317C117.661 48.2709 117.486 48.3408 117.262 48.3417L112.11 48.3608ZM112.917 46.1178C112.683 46.1186 112.496 46.0447 112.357 45.8958C112.217 45.747 112.147 45.566 112.147 45.3526C112.146 45.1393 112.214 44.963 112.353 44.8239C112.491 44.674 112.677 44.5986 112.912 44.5978L116.528 44.5844C116.762 44.5835 116.944 44.6575 117.073 44.8064C117.212 44.9445 117.282 45.1203 117.282 45.3336C117.283 45.5469 117.215 45.7285 117.076 45.8783C116.949 46.0282 116.768 46.1035 116.533 46.1044L112.917 46.1178ZM112.91 52.8698C112.676 52.8707 112.494 52.802 112.366 52.6639C112.237 52.515 112.172 52.3392 112.172 52.1366C112.171 51.9232 112.234 51.747 112.362 51.6079C112.489 51.4581 112.67 51.3827 112.905 51.3818L116.569 51.3683C116.804 51.3674 116.985 51.4414 117.114 51.5903C117.242 51.7284 117.307 51.9042 117.308 52.1175C117.308 52.3202 117.245 52.4964 117.118 52.6462C116.99 52.7854 116.809 52.8554 116.574 52.8563L112.91 52.8698ZM112.902 50.6139C112.667 50.6147 112.486 50.5461 112.357 50.4079C112.229 50.259 112.164 50.0833 112.163 49.8806C112.163 49.6673 112.226 49.491 112.353 49.3519C112.481 49.2127 112.662 49.1427 112.897 49.1419L116.561 49.1283C116.795 49.1274 116.977 49.1961 117.105 49.3343C117.234 49.4725 117.298 49.6482 117.299 49.8616C117.3 50.0642 117.237 50.2405 117.109 50.3903C116.982 50.5294 116.801 50.5994 116.566 50.6003L112.902 50.6139ZM122.141 56.6917C122.525 56.6902 122.813 56.6732 123.004 56.6405C123.207 56.597 123.34 56.5059 123.403 56.367C123.478 56.228 123.514 56.0199 123.513 55.7426C123.512 55.4759 123.474 55.2787 123.399 55.151C123.334 55.0126 123.201 54.9224 122.998 54.8805C122.806 54.8278 122.518 54.8022 122.134 54.8037C121.547 54.8058 121.163 54.8713 120.982 54.9999C120.812 55.1179 120.728 55.3635 120.729 55.7369C120.73 56.0142 120.768 56.2221 120.843 56.3605C120.919 56.4988 121.058 56.589 121.26 56.6309C121.463 56.6728 121.757 56.6931 122.141 56.6917ZM114.845 56.9267C115.219 56.9253 115.464 56.8657 115.581 56.748C115.698 56.6195 115.755 56.3687 115.754 55.9953C115.753 55.6327 115.693 55.3875 115.575 55.26C115.457 55.1324 115.212 55.0693 114.839 55.0707C114.476 55.0721 114.231 55.137 114.103 55.2654C113.986 55.3939 113.929 55.6394 113.93 56.0021C113.931 56.3754 113.991 56.6259 114.109 56.7534C114.237 56.8703 114.483 56.928 114.845 56.9267ZM121.414 50.6623L123.094 50.6561L123.091 49.6801C123.089 49.3281 123.03 49.099 122.912 48.9927C122.805 48.8758 122.565 48.818 122.191 48.8194L121.823 48.8208C121.75 49.1837 121.677 49.5253 121.603 49.8456C121.53 50.1659 121.467 50.4381 121.414 50.6623ZM128.32 49.0687C128.107 49.0695 127.936 49.0008 127.808 48.8626C127.69 48.7244 127.631 48.5592 127.63 48.3673C127.629 48.1753 127.687 48.0097 127.804 47.8706C127.931 47.7315 128.102 47.6615 128.315 47.6607L131.755 47.648L131.529 47.2008C131.465 47.0837 131.438 46.9665 131.448 46.8491C131.469 46.721 131.511 46.6089 131.575 46.5126L129.367 46.5208C129.154 46.5216 128.983 46.4529 128.854 46.3147C128.726 46.1658 128.661 45.9954 128.66 45.8034C128.66 45.6114 128.723 45.4458 128.85 45.3067C128.978 45.1569 129.148 45.0816 129.362 45.0808L134.002 45.0636L134 44.5516C133.999 44.2743 134.089 44.0553 134.269 43.8946C134.461 43.7232 134.69 43.637 134.956 43.6361C135.234 43.635 135.469 43.7195 135.661 43.8894C135.854 44.0487 135.951 44.267 135.952 44.5444L135.954 45.0564L140.658 45.0389C140.882 45.0381 141.052 45.1121 141.17 45.261C141.299 45.3992 141.363 45.5643 141.364 45.7563C141.365 45.9483 141.302 46.1192 141.174 46.269C141.057 46.4081 140.887 46.4781 140.663 46.4789L138.231 46.4879C138.285 46.5837 138.317 46.6903 138.328 46.8076C138.35 46.9248 138.334 47.0422 138.281 47.1598C138.25 47.2132 138.213 47.2827 138.17 47.3682C138.138 47.4536 138.096 47.5391 138.043 47.6246L141.659 47.6112C141.872 47.6105 142.038 47.6792 142.156 47.8174C142.284 47.9556 142.349 48.1207 142.35 48.3127C142.35 48.5047 142.287 48.6703 142.16 48.8094C142.043 48.9485 141.878 49.0184 141.664 49.0192L128.32 49.0687ZM136.475 56.3505C136.305 56.4898 136.114 56.5599 135.9 56.5607C135.698 56.5507 135.521 56.4607 135.371 56.2906C135.318 56.2268 135.227 56.1365 135.098 56.0196C134.97 55.8921 134.841 55.7646 134.713 55.637C134.595 55.5095 134.504 55.4192 134.44 55.3661C134.311 55.2492 134.247 55.1054 134.246 54.9348C134.256 54.7641 134.314 54.6092 134.42 54.4701L133.348 54.4741C132.538 54.4771 131.914 54.4047 131.476 54.257C131.038 54.0987 130.733 53.8385 130.561 53.4764C130.399 53.1144 130.318 52.6347 130.315 52.0373C130.313 51.4293 130.391 50.949 130.55 50.5964C130.719 50.2331 131.022 49.976 131.459 49.8251C131.896 49.6634 132.52 49.5811 133.33 49.5781L136.674 49.5657C137.496 49.5627 138.125 49.6404 138.563 49.7987C139.001 49.9464 139.306 50.2013 139.478 50.5633C139.65 50.9147 139.737 51.3944 139.739 52.0024C139.742 52.5997 139.658 53.08 139.489 53.4433C139.319 53.8066 139.016 54.0691 138.58 54.2307C138.143 54.3817 137.514 54.4587 136.692 54.4617L135.716 54.4653C135.834 54.5715 135.984 54.715 136.166 54.8957C136.348 55.0763 136.477 55.2038 136.551 55.2782C136.701 55.4377 136.771 55.6188 136.761 55.8215C136.752 56.0242 136.656 56.2005 136.475 56.3505ZM135.364 58.5947C134.468 58.598 133.764 58.5313 133.251 58.3945C132.749 58.2683 132.391 58.0457 132.177 57.7265C131.962 57.4073 131.854 56.9597 131.852 56.3837L131.849 55.6157C131.848 55.349 131.932 55.1353 132.102 54.9747C132.283 54.814 132.491 54.7333 132.725 54.7324C132.971 54.7315 133.174 54.8107 133.334 54.9702C133.506 55.1295 133.592 55.3425 133.593 55.6092L133.594 56.0892C133.595 56.3452 133.633 56.5424 133.709 56.6808C133.784 56.8085 133.944 56.8986 134.19 56.951C134.446 57.0034 134.835 57.0286 135.358 57.0267C135.827 57.0249 136.19 57.0022 136.446 56.9586C136.702 56.915 136.893 56.8343 137.021 56.7165C137.148 56.5987 137.26 56.4223 137.355 56.1873C137.439 55.9736 137.583 55.8291 137.785 55.7537C137.988 55.6676 138.201 55.6615 138.425 55.7353C138.66 55.8091 138.826 55.9365 138.923 56.1174C139.03 56.2984 139.052 56.5063 138.989 56.7412C138.873 57.2003 138.688 57.5637 138.433 57.8313C138.178 58.1096 137.805 58.3029 137.315 58.4114C136.836 58.5305 136.185 58.5916 135.364 58.5947ZM128.179 58.3173C127.997 58.19 127.89 58.009 127.857 57.7745C127.824 57.5506 127.876 57.3531 128.014 57.1819C128.142 57.0427 128.296 56.8555 128.476 56.6202C128.667 56.3741 128.853 56.1281 129.034 55.8821C129.214 55.6254 129.352 55.4169 129.447 55.2566C129.564 55.0535 129.734 54.9302 129.958 54.8867C130.182 54.8325 130.395 54.8637 130.598 54.9803C130.812 55.1075 130.941 55.283 130.984 55.5069C131.038 55.7307 131.007 55.9441 130.891 56.1472C130.785 56.3396 130.642 56.5641 130.461 56.8208C130.291 57.0774 130.116 57.3234 129.936 57.5588C129.766 57.7941 129.623 57.9813 129.506 58.1204C129.336 58.313 129.123 58.4258 128.867 58.4587C128.622 58.5023 128.393 58.4552 128.179 58.3173ZM142.097 57.8977C141.916 58.037 141.709 58.0965 141.474 58.076C141.239 58.0555 141.047 57.9549 140.897 57.7741C140.779 57.6252 140.618 57.4392 140.415 57.2159C140.211 56.982 140.002 56.7534 139.788 56.5302C139.574 56.2964 139.397 56.1157 139.258 55.9882C139.108 55.8394 139.044 55.6583 139.064 55.4449C139.085 55.2315 139.169 55.0552 139.318 54.916C139.478 54.766 139.669 54.6907 139.893 54.6898C140.117 54.689 140.315 54.7683 140.486 54.9276C140.625 55.0551 140.802 55.2305 141.016 55.4537C141.241 55.6769 141.466 55.9 141.691 56.1232C141.915 56.3464 142.087 56.5271 142.205 56.6653C142.365 56.846 142.43 57.0591 142.399 57.3046C142.379 57.55 142.278 57.7477 142.097 57.8977ZM133.456 53.2257L136.672 53.2138C137.088 53.2122 137.381 53.1738 137.551 53.0985C137.722 53.0232 137.828 52.8521 137.869 52.5853L132.254 52.6061C132.297 52.8726 132.404 53.0429 132.575 53.117C132.746 53.191 133.04 53.2272 133.456 53.2257ZM133.723 47.6407L136.059 47.632C136.133 47.4824 136.223 47.2954 136.329 47.071C136.435 46.8466 136.514 46.665 136.567 46.5261L136.599 46.494L133.191 46.5066C133.202 46.5173 133.207 46.5279 133.207 46.5386C133.207 46.5386 133.212 46.5439 133.223 46.5545C133.288 46.6929 133.368 46.874 133.465 47.0976C133.573 47.3105 133.659 47.4916 133.723 47.6407ZM132.249 51.4701L137.865 51.4493C137.822 51.2042 137.709 51.0446 137.528 50.9706C137.357 50.8859 137.068 50.8443 136.663 50.8458L133.447 50.8577C133.042 50.8592 132.754 50.9029 132.584 50.9889C132.413 51.0642 132.302 51.2246 132.249 51.4701Z" fill="black" fill-opacity="0.85"/>
</g>
<defs>
<radialGradient id="paint0_radial_1260_3810" cx="0" cy="0" r="1" gradientUnits="userSpaceOnUse" gradientTransform="translate(0.558656 46.8353) rotate(65.4889) scale(3.32531 8.21233)">
<stop offset="0.33" stop-opacity="0"/>
<stop offset="0.655" stop-opacity="0.6"/>
<stop offset="1"/>
</radialGradient>
<radialGradient id="paint1_radial_1260_3810" cx="0" cy="0" r="1" gradientUnits="userSpaceOnUse" gradientTransform="translate(355.296 45.8572) rotate(114.511) scale(3.32531 8.21233)">
<stop offset="0.33" stop-opacity="0"/>
<stop offset="0.655" stop-opacity="0.6"/>
<stop offset="1"/>
</radialGradient>
<clipPath id="clip0_1260_3810">
<rect width="200" height="90" fill="white"/>
</clipPath>
</defs>
</svg>
