<svg width="200" height="90" viewBox="0 0 200 90" fill="none" xmlns="http://www.w3.org/2000/svg">
<g clip-path="url(#clip0_2306_6449)">
<rect width="200" height="90" fill="#BDE3FF"/>
<path fill-rule="evenodd" clip-rule="evenodd" d="M-6.18027 85.5257C-5.5206 81.3514 -9.94765 77.2571 -7.65473 73.2393C-4.94813 68.4966 -1.65241 61.9915 7.77154 61.0783C17.9972 60.0873 23.5998 68.8258 33.9785 69.2048C45.8176 69.6371 56.5881 60.196 66.8872 63.2371C76.2425 65.9996 70.121 74.0119 68.9752 79.5387C68.1676 83.4341 61.5364 86.4306 61.2669 90.3457C60.8502 96.3973 75.7689 103.853 67.0229 107.895C58.3557 111.9 45.7383 103.802 34.2527 102.83C27.3162 102.243 20.5655 103.925 13.6182 103.373C4.65786 102.66 -7.2514 103.227 -11.7526 99.1698C-16.3208 95.0519 -6.92748 90.2539 -6.18027 85.5257Z" fill="#005EA5"/>
<path fill-rule="evenodd" clip-rule="evenodd" d="M28.4743 10.5302C32.6486 10.8717 36.7429 8.58004 40.7607 9.76696C45.5034 11.168 52.0085 12.874 52.9217 17.7523C53.9127 23.0456 45.1742 25.9458 44.7952 31.3183C44.3629 37.4467 53.804 43.0221 50.7629 48.3534C48.0004 53.1961 39.9881 50.0274 34.4613 49.4342C30.5659 49.0162 27.5694 45.5836 23.6543 45.444C17.6027 45.2284 10.1469 52.9509 6.10508 48.4236C2.09968 43.9371 10.1975 37.4057 11.1701 31.4602C11.7575 27.8695 10.0747 24.3751 10.6274 20.7788C11.3402 16.1405 10.7727 9.97575 14.8302 7.64571C18.9481 5.281 23.7461 10.1434 28.4743 10.5302Z" fill="#2382C9"/>
<path fill-rule="evenodd" clip-rule="evenodd" d="M173.474 4.53021C177.649 4.87169 181.743 2.58004 185.761 3.76696C190.503 5.16803 197.008 6.87405 197.922 11.7523C198.913 17.0456 190.174 19.9458 189.795 25.3183C189.363 31.4467 198.804 37.0221 195.763 42.3534C193 47.1961 184.988 44.0274 179.461 43.4342C175.566 43.0162 172.569 39.5836 168.654 39.444C162.603 39.2284 155.147 46.9509 151.105 42.4236C147.1 37.9371 155.198 31.4057 156.17 25.4602C156.757 21.8695 155.075 18.3751 155.627 14.7788C156.34 10.1405 155.773 3.97575 159.83 1.64571C163.948 -0.719004 168.746 4.14342 173.474 4.53021Z" fill="#69BAF5"/>
<path fill-rule="evenodd" clip-rule="evenodd" d="M117.063 7.20494C131.49 7.9797 144.155 11.9054 154.996 17.5775C166.733 23.7188 176.896 30.8598 179.688 39.9711C183.097 51.0949 184.354 63.7453 171.749 72.2549C158.691 81.0707 136.857 81.4742 117.063 82.2497C95.2362 83.1048 71.8992 84.7511 54.6033 76.8446C35.6156 68.1646 20.8565 53.9771 24.5773 39.9711C28.0889 26.7526 52.1053 19.9805 71.5388 13.0955C85.3864 8.18958 100.98 6.34119 117.063 7.20494Z" fill="#C9F4FF"/>
<path d="M177.967 51.2804L196.726 84.9582L159.338 85.0303L177.967 51.2804Z" fill="#228CDA"/>
<path d="M173.373 78.4648H182.74" stroke="black" stroke-width="2" stroke-linecap="round"/>
<ellipse cx="171.472" cy="68.8528" rx="4.64254" ry="4.79533" transform="rotate(-0.110477 171.472 68.8528)" stroke="#FA8F21" stroke-width="2"/>
<ellipse cx="184.669" cy="68.8118" rx="4.64254" ry="4.79533" transform="rotate(-0.110477 184.669 68.8118)" stroke="#FA8F21" stroke-width="2"/>
<path d="M175.55 68.4723C175.55 68.4723 176.816 68.054 177.654 68.0337C178.594 68.011 180.025 68.4637 180.025 68.4637" stroke="#FA8F21" stroke-width="2"/>
<ellipse cx="171.471" cy="68.8518" rx="1.89842" ry="1.9609" transform="rotate(-0.110477 171.471 68.8518)" fill="black"/>
<ellipse cx="184.67" cy="68.8264" rx="1.89842" ry="1.9609" transform="rotate(-0.110477 184.67 68.8264)" fill="black"/>
<path d="M48.3477 33.5563C48.3471 33.3829 48.2601 33.2966 48.0867 33.2972L46.4468 33.3033C46.8244 34.4753 47.4608 35.3062 48.356 35.7962L48.3477 33.5563ZM42.9668 33.3162C42.7934 33.3168 42.7071 33.4038 42.7077 33.5772L42.7164 35.9272C43.6678 35.397 44.3113 34.5246 44.6468 33.31L42.9668 33.3162ZM49.0824 32.1335C49.4024 32.1323 49.563 32.2918 49.5642 32.6117L49.5837 37.8617C49.5849 38.195 49.5458 38.4485 49.4665 38.6222C49.3872 38.8024 49.221 38.9497 48.9681 39.064C48.7152 39.1849 48.2921 39.2432 47.6988 39.2387C47.3055 39.2468 47.0414 39.0511 46.9066 38.6516C46.7784 38.2521 46.8277 38.0553 47.0544 38.0611C47.1944 38.0672 47.5511 38.0692 48.1244 38.0671C48.2844 38.0665 48.3641 37.9929 48.3636 37.8462L48.357 36.0562C48.0781 36.3639 47.9387 36.5311 47.9388 36.5578C47.7731 36.8051 47.5565 36.8426 47.2892 36.6702C46.5677 36.2662 45.9814 35.4517 45.5302 34.2267C45.0816 35.5084 44.458 36.354 43.6596 36.7637C43.3935 36.9247 43.1667 36.8822 42.9791 36.6362L42.7178 36.2972L42.7273 38.8671C42.7284 39.1405 42.5255 39.2779 42.1189 39.2794C41.7189 39.2809 41.5184 39.1449 41.5174 38.8716L41.4943 32.6417C41.4931 32.3217 41.6525 32.1611 41.9725 32.1599L45.0325 32.1485L44.9806 31.6387C44.9666 31.4654 44.8729 31.3791 44.6996 31.3798L43.6796 31.3836C43.4063 31.3846 43.269 31.2117 43.2677 30.8651C43.2664 30.5184 43.4024 30.3446 43.6758 30.3436L45.5157 30.3367C45.8291 30.3356 45.9997 30.4916 46.0275 30.8048L46.1625 32.1444L49.0824 32.1335ZM59.665 35.5043C59.6125 35.7179 59.4394 35.7885 59.1458 35.7163C58.8522 35.644 58.7282 35.4745 58.7739 35.2076L58.9212 34.4671C58.9472 34.3003 58.8736 34.2173 58.7002 34.2179L56.9902 34.2242C56.7797 34.985 56.5982 35.4757 56.4457 35.6963C56.3397 35.89 56.1297 35.8908 55.8157 35.6986C55.5016 35.5064 55.3976 35.3201 55.5036 35.1398C55.8351 34.6452 56.0557 33.901 56.1653 32.9073C56.2173 32.5338 56.4234 32.3763 56.7836 32.435C57.1505 32.4936 57.3111 32.6564 57.2654 32.9232L57.2165 33.2134L59.6169 33.3145C59.9436 33.3266 60.0678 33.5528 59.9894 33.9931C59.9049 34.5801 59.7968 35.0838 59.665 35.5043ZM58.3368 30.5992C58.3358 30.3259 58.5453 30.1884 58.9653 30.1869C59.3853 30.1853 59.5958 30.3212 59.5968 30.5945L59.6011 31.7445C59.6022 32.0645 59.4428 32.2251 59.1228 32.2263L51.9329 32.253C51.6196 32.2541 51.4623 32.0947 51.4611 31.7747L51.4569 30.6247C51.4558 30.3514 51.6553 30.214 52.0553 30.2125C52.462 30.211 52.6658 30.3469 52.6668 30.6202L52.6683 31.0002C52.6689 31.1736 52.7559 31.2599 52.9292 31.2593L54.8592 31.2521L54.8556 30.2921C54.8546 30.0188 55.0575 29.8814 55.4641 29.8799C55.8775 29.8783 56.0846 30.0142 56.0856 30.2876L56.0892 31.2476L58.0792 31.2402C58.2525 31.2395 58.3389 31.1525 58.3382 30.9792L58.3368 30.5992ZM53.9549 35.4755L53.9514 34.5555L52.6815 34.5602L52.6849 35.4802L53.9549 35.4755ZM52.691 37.1402C52.6917 37.3135 52.7786 37.3999 52.952 37.3992L53.702 37.3964C53.8753 37.3958 53.9616 37.3088 53.961 37.1355L53.9584 36.4355L52.6884 36.4402L52.691 37.1402ZM55.2375 33.4907C55.5108 33.4897 55.6482 33.6659 55.6495 34.0192C55.6508 34.3725 55.5148 34.5497 55.2414 34.5507L55.0614 34.5514L55.0741 37.9614C55.0753 38.2814 54.9159 38.442 54.5959 38.4431L52.0559 38.4526C51.7359 38.4537 51.5753 38.2943 51.5741 37.9743L51.5615 34.5644L51.3115 34.5653C51.0381 34.5663 50.9008 34.3901 50.8995 34.0368C50.8982 33.6835 51.0342 33.5063 51.3075 33.5053L51.5575 33.5044L51.5557 33.0144C51.5547 32.741 51.7409 32.6037 52.1142 32.6023C52.4875 32.6009 52.6747 32.7369 52.6757 33.0102L52.6775 33.5002L53.9475 33.4955L53.9457 33.0055C53.9447 32.7322 54.1275 32.5948 54.4942 32.5935C54.8675 32.5921 55.0547 32.7281 55.0557 33.0014L55.0575 33.4914L55.2375 33.4907ZM57.1531 34.9836C57.1523 34.7903 57.3486 34.6929 57.742 34.6915C58.1353 34.69 58.3324 34.7959 58.3332 35.0093C58.3344 35.3493 58.3057 35.686 58.2469 36.0196C58.4354 36.5189 58.6971 36.9746 59.032 37.3867C59.3668 37.7921 59.6311 38.0378 59.8247 38.1238C60.0585 38.2562 60.0427 38.4696 59.7771 38.7639C59.5115 39.0649 59.2718 39.1425 59.0579 38.9966C58.6304 38.7515 58.1951 38.2331 57.7522 37.4414C57.3747 38.1295 56.9333 38.6378 56.4278 38.9664C56.1951 39.1405 55.925 39.1049 55.6174 38.8594C55.3099 38.6205 55.2758 38.424 55.5152 38.2697C55.6549 38.1959 55.8576 38.0218 56.1233 37.7475C56.3889 37.4665 56.588 37.2124 56.7205 36.9853C56.8529 36.7514 56.952 36.4911 57.0176 36.2041C57.0898 35.9172 57.129 35.6971 57.1351 35.5437C57.1479 35.3903 57.1539 35.2036 57.1531 34.9836ZM64.4278 33.5467C64.7733 33.2387 65.0364 33.1644 65.217 33.3237C65.3774 33.4431 65.6684 33.7154 66.09 34.1405C66.5182 34.5656 66.786 34.8513 66.8932 34.9975C67.0538 35.1769 66.9547 35.4206 66.5959 35.7286C66.2437 36.0366 65.9772 36.0876 65.7964 35.8816C65.3276 35.2967 64.8157 34.7719 64.2606 34.3073C64.0265 34.1015 64.0822 33.8479 64.4278 33.5467ZM77.6751 35.5076L77.6704 34.2376L76.9204 34.2404L76.9251 35.5104L77.6751 35.5076ZM73.4805 34.2531L73.4852 35.5231L74.1652 35.5206L74.1605 34.2506L73.4805 34.2531ZM75.9304 34.244L75.1504 34.2469L75.1552 35.5169L75.9351 35.514L75.9304 34.244ZM79.3365 33.1714C79.6098 33.1704 79.7471 33.3465 79.7484 33.6999C79.7498 34.0532 79.6137 34.2304 79.3404 34.2314L78.7704 34.2335L78.7751 35.5035L79.5651 35.5006C79.8385 35.4996 79.9758 35.6757 79.9771 36.029C79.9784 36.3824 79.8424 36.5595 79.5691 36.5606L71.4691 36.5906C71.1958 36.5916 71.0585 36.4154 71.0571 36.0621C71.0558 35.7088 71.1918 35.5316 71.4652 35.5306L72.4252 35.527L72.4205 34.257L71.7605 34.2595C71.4871 34.2605 71.3498 34.0843 71.3485 33.731C71.3472 33.3777 71.4832 33.2005 71.7565 33.1995L72.4165 33.197L72.4147 32.7071C72.4137 32.4337 72.5899 32.2964 72.9432 32.2951C73.2965 32.2938 73.4737 32.4298 73.4747 32.7031L73.4765 33.1931L74.1565 33.1906L74.1547 32.7006C74.1537 32.4273 74.3165 32.29 74.6432 32.2888C74.9765 32.2876 75.1437 32.4236 75.1447 32.6969L75.1465 33.1869L75.9265 33.184L75.9247 32.694C75.9237 32.4207 76.0865 32.2834 76.4132 32.2822C76.7465 32.281 76.9137 32.417 76.9147 32.6904L76.9165 33.1804L77.6665 33.1776L77.6647 32.6876C77.6637 32.4143 77.8465 32.2769 78.2132 32.2756C78.5798 32.2742 78.7637 32.4102 78.7647 32.6835L78.7665 33.1735L79.3365 33.1714ZM79.6799 31.3801C79.6811 31.7268 79.5451 31.9006 79.2718 31.9016L72.6118 31.9263C72.1803 32.4079 71.8814 32.7057 71.7151 32.8196C71.5357 32.967 71.332 32.8811 71.1042 32.5619C70.8763 32.2428 70.8654 32.0061 71.0715 31.852C71.2777 31.7179 71.5634 31.4435 71.9285 31.0288C72.3003 30.6075 72.5357 30.2866 72.6349 30.0662C72.7607 29.8258 72.9938 29.7616 73.3342 29.8736C73.6813 29.9857 73.7886 30.1586 73.6561 30.3924L73.3879 30.8734L79.2679 30.8516C79.5412 30.8506 79.6785 31.0268 79.6799 31.3801ZM72.3873 38.8072C72.2217 39.0745 71.9452 39.1288 71.5579 38.9703C71.1707 38.8184 71.0699 38.6087 71.2556 38.3414C71.5277 38.007 71.7496 37.6162 71.9213 37.1689C72.0336 36.9152 72.28 36.8376 72.6604 36.9362C73.0474 37.0347 73.1848 37.2176 73.0724 37.4846C72.881 37.992 72.6526 38.4329 72.3873 38.8072ZM73.8228 37.5919C73.7952 37.3186 73.9646 37.1613 74.3311 37.12C74.7043 37.0786 74.908 37.1912 74.9423 37.4577L75.0963 38.5272C75.1306 38.7937 74.9512 38.9544 74.5581 39.0092C74.1717 39.0706 73.9646 38.9647 73.9369 38.6915L73.8228 37.5919ZM75.9227 37.5441C75.8484 37.2844 75.9978 37.1238 76.3709 37.0624C76.744 37.001 76.9978 37.1368 77.1324 37.4696C77.2937 37.8157 77.3982 38.1453 77.4461 38.4584C77.5003 38.6982 77.3275 38.8556 76.9278 38.9304C76.5348 39.0118 76.3045 38.9227 76.2368 38.6629L75.9227 37.5441ZM78.3845 38.035C78.2168 37.7556 78.1725 37.4991 78.2517 37.2654C78.3374 37.0251 78.5303 36.8877 78.8301 36.8533C78.8964 36.7397 79.0334 36.8359 79.2412 37.1418C79.5762 37.6005 79.764 37.8965 79.8045 38.0297C79.9053 38.236 79.8827 38.4327 79.7367 38.62C79.5907 38.8072 79.3445 38.9381 78.9981 39.0127L78.8076 38.8634C78.6863 38.5305 78.5453 38.2544 78.3845 38.035ZM84.2404 31.5132C84.5137 31.5122 84.651 31.675 84.6522 32.0017C84.6534 32.3284 84.5173 32.4922 84.244 32.4932L81.054 32.505C80.7807 32.506 80.6434 32.3432 80.6422 32.0166C80.641 31.6899 80.7771 31.526 81.0504 31.525L82.4404 31.5199L81.9369 30.5717C81.816 30.3322 81.9153 30.1385 82.2347 29.9906C82.5541 29.8361 82.7776 29.8786 82.9052 30.1182L83.2475 30.7269C83.4085 31.0063 83.346 31.2232 83.0599 31.3776L82.8004 31.5185L84.2404 31.5132ZM83.8858 32.9645C84.1591 32.9635 84.2963 33.1197 84.2975 33.433C84.2986 33.7397 84.1625 33.8935 83.8892 33.8945L81.5192 33.9033C81.2459 33.9043 81.1086 33.7515 81.1075 33.4448C81.1064 33.1315 81.2424 32.9743 81.5158 32.9733L83.8858 32.9645ZM81.5244 35.2933C81.251 35.2943 81.1138 35.1415 81.1127 34.8348C81.1115 34.5215 81.2476 34.3643 81.5209 34.3633L83.8909 34.3545C84.1642 34.3535 84.3015 34.5097 84.3026 34.823C84.3038 35.1297 84.1677 35.2835 83.8944 35.2845L81.5244 35.2933ZM83.3108 37.0367C83.3102 36.8634 83.2232 36.777 83.0499 36.7777L82.3999 36.7801C82.2266 36.7807 82.1402 36.8677 82.1408 37.041L82.1433 37.691C82.1439 37.8644 82.2309 37.9507 82.4042 37.9501L83.0542 37.9477C83.2275 37.947 83.3139 37.86 83.3133 37.6867L83.3108 37.0367ZM83.8862 35.7846C84.2062 35.7834 84.3668 35.9428 84.368 36.2628L84.3761 38.4428C84.3772 38.7628 84.2178 38.9233 83.8978 38.9245L81.5879 38.9331C81.2679 38.9343 81.1073 38.7749 81.1061 38.4549L81.098 36.2749C81.0968 35.9549 81.2562 35.7943 81.5762 35.7931L83.8862 35.7846ZM88.5905 36.9271C88.5898 36.7538 88.5028 36.6674 88.3295 36.6681L86.4295 36.6751C86.2562 36.6758 86.1698 36.7628 86.1705 36.9361L86.1738 37.8161C86.1744 37.9894 86.2614 38.0758 86.4347 38.0751L88.3347 38.0681C88.508 38.0674 88.5944 37.9805 88.5937 37.8071L88.5905 36.9271ZM85.5086 39.1286C85.1886 39.1298 85.028 38.9703 85.0268 38.6503L85.0174 36.1004C85.0162 35.7804 85.1756 35.6198 85.4956 35.6186L89.3156 35.6044C89.6356 35.6032 89.7962 35.7626 89.7974 36.0826L89.8068 38.6326C89.808 38.9526 89.6486 39.1132 89.3286 39.1144L85.5086 39.1286ZM88.3167 33.2181C88.3161 33.0448 88.2291 32.9584 88.0558 32.9591L87.1358 32.9625L86.91 34.0933L88.3199 34.0881L88.3167 33.2181ZM89.4699 34.0838L89.9399 34.0821C90.2133 34.0811 90.3506 34.2506 90.3518 34.5906C90.3531 34.9306 90.217 35.1011 89.9437 35.1021L84.9038 35.1208C84.6304 35.1218 84.4931 34.9523 84.4919 34.6123C84.4906 34.2723 84.6266 34.1018 84.9 34.1008L85.72 34.0977L85.9358 32.9669L85.4158 32.9689C85.1424 32.9699 85.0052 32.8037 85.0039 32.4704C85.0027 32.1371 85.1387 31.9699 85.4121 31.9689L86.1121 31.9663L86.2192 31.1959L85.1492 31.1998C84.8759 31.2009 84.7386 31.0314 84.7373 30.6914C84.7361 30.3514 84.8721 30.1809 85.1454 30.1798L89.6554 30.1631C89.9287 30.1621 90.066 30.3316 90.0673 30.6716C90.0686 31.0116 89.9325 31.1821 89.6592 31.1831L87.4392 31.1914L87.3021 31.9619L88.982 31.9556C89.302 31.9545 89.4626 32.1139 89.4638 32.4339L89.4699 34.0838ZM96.7894 31.2167L94.1894 31.2263L94.472 31.9253L96.512 31.9177L96.7894 31.2167ZM99.4219 31.9069C99.6953 31.9059 99.8325 32.0588 99.8336 32.3654C99.8348 32.6721 99.6987 32.8259 99.4253 32.8269L91.5954 32.856C91.3221 32.857 91.1848 32.7041 91.1837 32.3975C91.1826 32.0908 91.3187 31.937 91.592 31.936L93.272 31.9297C93.1373 31.5636 93.2365 31.3465 93.5696 31.2786L93.8194 31.2277L92.0794 31.2342C91.8061 31.2352 91.6688 31.0823 91.6677 30.7757C91.6666 30.469 91.8027 30.3152 92.076 30.3142L94.906 30.3037L94.8757 30.2238C94.7814 29.9641 94.9274 29.8003 95.3138 29.7322C95.7002 29.6574 95.9472 29.7465 96.0548 29.9994L96.186 30.2989L98.8959 30.2889C99.1626 30.2879 99.2965 30.4407 99.2976 30.7474C99.2988 31.0541 99.1627 31.2079 98.8893 31.2089L97.2494 31.215L97.4595 31.2542C97.8531 31.3194 97.9439 31.5391 97.732 31.9132L99.4219 31.9069ZM97.581 34.3638L97.5804 34.1938C97.5798 34.0205 97.4928 33.9341 97.3194 33.9348L93.6995 33.9482C93.5261 33.9488 93.4398 34.0358 93.4404 34.2091L93.4411 34.3791L97.581 34.3638ZM97.3252 35.4947C97.4986 35.4941 97.5849 35.4071 97.5843 35.2338L97.5836 35.0638L93.4437 35.0791L93.4443 35.2491C93.4449 35.4225 93.5319 35.5088 93.7052 35.5082L97.3252 35.4947ZM98.2767 33.1912C98.5967 33.19 98.7573 33.3494 98.7585 33.6694L98.7662 35.7594C98.7674 36.0794 98.608 36.24 98.288 36.2412L95.708 36.2507L96.4197 36.6981C96.6469 36.8373 96.6376 37.0306 96.3918 37.2782C96.1527 37.5191 95.9429 37.5665 95.7624 37.4205C95.5749 37.2212 95.3711 37.082 95.1508 37.0028C94.6899 36.7712 94.5957 36.5215 94.868 36.2539L92.808 36.2615C92.488 36.2627 92.3274 36.1033 92.3263 35.7833L92.3185 33.6933C92.3173 33.3733 92.4767 33.2127 92.7967 33.2115L98.2767 33.1912ZM92.2065 38.5437C92.0139 38.7444 91.7506 38.7488 91.4165 38.5567C91.0892 38.3645 91.0384 38.1647 91.2643 37.9572C91.5435 37.7429 91.7756 37.4153 91.9607 36.9746C92.093 36.7008 92.3228 36.6366 92.65 36.7821C92.9838 36.9275 93.0747 37.1472 92.9224 37.4411C92.6844 37.9753 92.4457 38.3428 92.2065 38.5437ZM95.0746 38.0231L96.4546 38.018C96.6412 38.0173 96.7611 37.9702 96.814 37.8767L96.8634 37.7065C96.9088 37.373 97.0985 37.2689 97.4323 37.3944C97.7727 37.5131 97.9102 37.7459 97.8449 38.0928C97.8456 38.2928 97.7496 38.4865 97.557 38.6739C97.3711 38.8679 97.0414 38.9658 96.5681 38.9676L94.9581 38.9735C94.3381 38.9758 93.9211 38.8907 93.7071 38.7182C93.4932 38.5456 93.3853 38.2227 93.3836 37.7494L93.3812 37.1094C93.3802 36.836 93.573 36.6987 93.9597 36.6972C94.3463 36.6958 94.5402 36.8317 94.5412 37.1051L94.5435 37.7351C94.544 37.8617 94.5743 37.9416 94.6344 37.9747C94.7012 38.0078 94.8479 38.0239 95.0746 38.0231ZM98.4234 37.7007C98.2291 37.4481 98.1516 37.2117 98.1908 36.9915C98.2366 36.7714 98.4028 36.6441 98.6894 36.6097C98.7223 36.5029 98.8593 36.5924 99.1004 36.8782C99.4551 37.2569 99.6393 37.4995 99.6531 37.6061C99.7605 37.8124 99.7512 38.0058 99.6252 38.1862C99.5059 38.36 99.2796 38.4709 98.9464 38.5188L98.7959 38.3693C98.6947 38.0563 98.5706 37.8335 98.4234 37.7007ZM107.36 31.4575L107.359 31.0075L106.829 31.0095L106.83 31.4595L107.36 31.4575ZM108.784 32.5522C108.784 32.3789 108.697 32.2926 108.523 32.2932L108.213 32.2944L108.216 33.0444L108.526 33.0432C108.7 33.0426 108.786 32.9556 108.785 32.7822L108.784 32.5522ZM106.833 32.2995L106.836 33.0495L107.366 33.0475L107.363 32.2975L106.833 32.2995ZM105.713 32.3036C105.54 32.3043 105.454 32.3913 105.454 32.5646L105.455 32.7946C105.456 32.9679 105.543 33.0543 105.716 33.0536L105.996 33.0526L105.993 32.3026L105.713 32.3036ZM105.99 31.4626L105.989 31.0126L104.709 31.0173C104.435 31.0184 104.298 30.8622 104.297 30.5489C104.296 30.2355 104.429 30.0784 104.695 30.0774L109.575 30.0593C109.848 30.0583 109.986 30.2144 109.987 30.5278C109.988 30.8411 109.852 30.9983 109.579 30.9993L108.209 31.0044L108.21 31.4544L109.33 31.4502C109.65 31.449 109.811 31.6084 109.812 31.9284L109.818 33.3984C109.819 33.7184 109.659 33.879 109.339 33.8802L104.979 33.8964C104.659 33.8975 104.499 33.7381 104.498 33.4181L104.492 31.9482C104.491 31.6282 104.65 31.4676 104.97 31.4664L105.99 31.4626ZM109.001 34.2315C109.274 34.2304 109.411 34.3799 109.412 34.6799C109.413 34.9799 109.277 35.1304 109.004 35.1315L105.334 35.1451C105.061 35.1461 104.923 34.9966 104.922 34.6966C104.921 34.3966 105.057 34.2461 105.331 34.2451L109.001 34.2315ZM104.332 34.6488C104.439 34.815 104.377 35.0353 104.145 35.3095C103.919 35.577 103.752 35.5876 103.645 35.3413L103.312 34.5925L103.327 38.6325C103.328 38.9058 103.148 39.0432 102.788 39.0445C102.428 39.0458 102.248 38.9099 102.247 38.6365L102.233 34.8765C101.937 35.891 101.676 36.5686 101.45 36.9095C101.344 37.0899 101.197 36.9804 101.009 36.5811C100.828 36.1751 100.8 35.8752 100.926 35.6814C101.065 35.5075 101.257 35.1135 101.502 34.4993C101.746 33.8783 101.937 33.271 102.075 32.6771L101.385 32.6797C101.111 32.6807 100.974 32.4979 100.973 32.1312C100.971 31.7645 101.107 31.5807 101.381 31.5797L102.221 31.5766L102.215 30.1266C102.214 29.8532 102.394 29.7159 102.754 29.7146C103.114 29.7132 103.294 29.8492 103.295 30.1226L103.301 31.5726L103.861 31.5705C104.134 31.5695 104.271 31.7523 104.273 32.119C104.274 32.4856 104.138 32.6695 103.865 32.6705L103.305 32.6726L103.306 33.1126C103.427 33.2654 103.628 33.5614 103.91 34.0003C104.198 34.4326 104.339 34.6487 104.332 34.6488ZM104.931 37.1266C105.09 36.8326 105.34 36.735 105.68 36.8338C106.027 36.9258 106.125 37.1155 105.972 37.4027C105.781 37.8301 105.489 38.2145 105.097 38.556C104.904 38.7567 104.657 38.7509 104.357 38.5387C104.062 38.3331 104.022 38.1399 104.234 37.9591C104.567 37.7179 104.799 37.4404 104.931 37.1266ZM110.027 35.9977C110.028 36.3043 109.892 36.4582 109.619 36.4592L107.659 36.4664L107.667 38.6164C107.668 38.8898 107.492 39.0271 107.138 39.0284C106.785 39.0297 106.608 38.8937 106.607 38.6204L106.599 36.4704L104.739 36.4773C104.466 36.4783 104.328 36.3255 104.327 36.0188C104.326 35.7055 104.462 35.5483 104.735 35.5473L109.615 35.5292C109.889 35.5282 110.026 35.6843 110.027 35.9977ZM108.343 37.4939C108.135 37.248 108.174 37.0512 108.461 36.9035C108.747 36.7557 108.973 36.7849 109.141 36.991L109.894 37.9182C110.062 38.1242 109.992 38.3178 109.686 38.4989C109.38 38.6801 109.16 38.6476 109.026 38.4014C108.925 38.1684 108.697 37.8659 108.343 37.4939ZM118.039 30.9879L116.899 30.9922C116.667 31.3464 116.484 31.5737 116.351 31.6742C116.159 31.8682 115.915 31.8491 115.621 31.6169C115.327 31.3847 115.283 31.1782 115.489 30.9974C115.854 30.7294 116.1 30.4084 116.225 30.0346C116.357 29.7275 116.604 29.6199 116.964 29.7119C117.331 29.8039 117.462 29.9734 117.356 30.2205L117.326 30.2706L119.676 30.2619C119.949 30.2608 120.086 30.3803 120.087 30.6203C120.088 30.8603 119.952 30.9808 119.679 30.9819L118.409 30.9866C118.669 31.2056 118.78 31.3085 118.74 31.2953C118.894 31.4814 118.808 31.6484 118.482 31.7963C118.156 31.9442 117.902 31.9184 117.721 31.7191C117.474 31.4334 117.533 31.2098 117.899 31.0485L118.039 30.9879ZM118.245 32.6172C118.091 32.3978 118.15 32.2175 118.423 32.0765C118.702 31.9288 118.926 31.9613 119.093 32.174L119.455 32.6427C119.622 32.8554 119.56 33.0423 119.267 33.2034C118.974 33.3645 118.751 33.3353 118.597 33.1159L118.245 32.6172ZM113.559 31.0145L112.619 31.018C112.307 31.4058 112.074 31.66 111.922 31.7806C111.722 31.9547 111.489 31.9089 111.221 31.6432C110.96 31.3708 110.943 31.1476 111.169 30.9734C111.581 30.6919 111.873 30.3708 112.045 30.0101C112.211 29.7295 112.467 29.6419 112.814 29.7473C113.168 29.8526 113.278 30.0256 113.146 30.2661L113.136 30.2761L114.956 30.2694C115.229 30.2683 115.366 30.3912 115.367 30.6378C115.368 30.8845 115.232 31.0083 114.959 31.0093L114.109 31.0125L114.47 31.3412C114.664 31.5271 114.605 31.7007 114.292 31.8618C113.979 32.023 113.729 32.0072 113.542 31.8146L113.431 31.705C113.15 31.4261 113.193 31.1959 113.559 31.0145ZM115.793 37.6363C116.12 37.6218 116.284 37.7178 116.284 37.9245C116.683 37.6563 116.999 37.3985 117.231 37.151C116.975 36.3986 116.795 35.4826 116.691 34.403L115.061 34.409L115.063 34.809L115.863 34.806C116.136 34.805 116.273 34.9078 116.274 35.1145C116.275 35.3212 116.138 35.425 115.865 35.426L115.065 35.429L115.066 35.779L115.806 35.7762C116.08 35.7752 116.217 35.8747 116.218 36.0747C116.218 36.2681 116.082 36.3652 115.809 36.3662L115.069 36.369L115.07 36.719L115.97 36.7156C116.243 36.7146 116.38 36.8208 116.381 37.0341C116.382 37.2408 116.246 37.3446 115.972 37.3456L115.072 37.349L115.073 37.689L115.793 37.6363ZM113.531 34.4147L113.544 37.7846L114.134 37.7525L114.121 34.4125L113.531 34.4147ZM112.008 33.6003L113.258 33.5957C113.111 33.3829 112.94 33.1868 112.746 33.0076C112.534 33.2284 112.288 33.4259 112.008 33.6003ZM114.137 33.3524C114.004 33.2196 113.87 33.2034 113.737 33.3039L113.368 33.5953L114.368 33.5916L114.137 33.3524ZM114.658 33.5905L115.658 33.5868C115.524 33.4206 115.374 33.2545 115.206 33.0884C115.06 33.2623 114.878 33.4297 114.658 33.5905ZM118.703 34.9055C118.789 34.6518 118.985 34.5678 119.292 34.6533C119.606 34.7322 119.713 34.9084 119.614 35.1821C119.403 35.8762 119.009 36.581 118.432 37.2965C118.627 37.6691 118.827 37.8551 119.034 37.8543C119.121 37.854 119.184 37.7871 119.223 37.6536L119.262 37.3634C119.295 37.09 119.451 37.0394 119.732 37.2117C120.012 37.384 120.12 37.6436 120.055 37.9905C120.049 38.2039 119.96 38.4109 119.787 38.6115C119.614 38.8121 119.338 38.9132 118.958 38.9146C118.465 38.9164 118.037 38.6447 117.675 38.0993C117.23 38.481 116.907 38.7188 116.708 38.8129C116.462 38.9672 116.241 38.928 116.047 38.6954L115.806 38.4163C113.98 38.5764 112.527 38.6884 111.447 38.7524C111.221 38.7733 111.087 38.6404 111.046 38.3539C111.005 38.0674 111.121 37.917 111.394 37.9026L112.604 37.8381L112.602 37.4081L111.642 37.4117C111.369 37.4127 111.232 37.3099 111.231 37.1032C111.23 36.8899 111.367 36.7827 111.64 36.7817L112.6 36.7781L112.599 36.3981L111.869 36.4008C111.595 36.4019 111.458 36.3057 111.458 36.1124C111.457 35.9124 111.593 35.8119 111.866 35.8108L112.596 35.8081L112.595 35.4481L111.775 35.4512C111.502 35.4522 111.365 35.3527 111.364 35.1527C111.363 34.946 111.5 34.8422 111.773 34.8412L112.593 34.8381L112.591 34.4181L111.341 34.4228C111.068 34.4238 110.931 34.2876 110.93 34.0143C110.929 33.741 111.065 33.6038 111.338 33.6028L111.788 33.6011L111.658 33.4716C111.377 33.186 111.462 32.919 111.915 32.6706C112.135 32.6365 112.267 32.4527 112.313 32.1192C112.412 31.8588 112.608 31.7481 112.902 31.787C113.202 31.8259 113.302 31.9922 113.203 32.2859L113.956 33.0131C114.462 32.7379 114.727 32.4602 114.753 32.1801C114.845 31.9064 115.038 31.7891 115.332 31.828C115.625 31.8602 115.736 32.0065 115.663 32.2667L115.634 32.3369C115.988 32.6222 116.169 32.7915 116.176 32.8449C116.363 33.0642 116.33 33.2676 116.078 33.4552L115.908 33.5858L116.618 33.5832L116.564 32.3834C116.556 32.1101 116.736 31.9728 117.102 31.9714C117.476 31.97 117.666 32.106 117.674 32.3793L117.708 33.5792L119.658 33.5719C119.932 33.5709 120.069 33.7071 120.07 33.9804C120.071 34.2538 119.935 34.3909 119.661 34.3919L117.771 34.3989C117.847 35.0987 117.943 35.685 118.058 36.1579C118.409 35.6233 118.624 35.2058 118.703 34.9055ZM125.812 34.6591L125.807 33.2992C125.807 33.1258 125.72 33.0395 125.546 33.0401L124.776 33.043C124.456 33.0442 124.296 32.8848 124.295 32.5648L124.286 30.1348C124.285 29.8614 124.451 29.7242 124.784 29.7229C125.124 29.7217 125.295 29.8577 125.296 30.131L125.297 30.401L126.457 30.3967C126.73 30.3957 126.867 30.5585 126.868 30.8852C126.87 31.2119 126.733 31.3757 126.46 31.3767L125.3 31.381L125.302 31.851C125.303 32.0244 125.39 32.1107 125.563 32.1101L126.313 32.1173C126.633 32.1161 126.793 32.2755 126.795 32.5955L126.802 34.6555C126.803 34.8621 126.777 35.0156 126.724 35.1158C126.678 35.2159 126.578 35.303 126.425 35.3769C126.272 35.4508 126.089 35.4848 125.875 35.4789C125.502 35.487 125.272 35.3712 125.184 35.1315C125.096 34.8851 125.189 34.7615 125.463 34.7604L125.643 34.7598C125.756 34.766 125.813 34.7325 125.812 34.6591ZM124.349 33.6746C124.414 33.4143 124.594 33.3103 124.888 33.3626C125.181 33.4081 125.302 33.621 125.25 34.0012C125.225 34.3813 125.136 34.6717 124.983 34.8722C124.884 35.0659 124.707 35.0866 124.453 34.9342C124.199 34.7751 124.105 34.5655 124.171 34.3052L124.349 33.6746ZM128.116 35.5706L128.163 34.7604L127.563 34.7627C127.289 34.7637 127.152 34.6008 127.151 34.2742C127.15 33.9475 127.286 33.7837 127.559 33.7827L128.199 33.7803L128.196 32.9203L127.626 32.9224C127.353 32.9234 127.215 32.7606 127.214 32.4339C127.213 32.1073 127.349 31.9434 127.622 31.9424L128.252 31.9401L128.25 31.3401C128.249 31.1668 128.162 31.0804 127.989 31.0811L127.519 31.0828C127.246 31.0838 127.108 30.9143 127.107 30.5743C127.106 30.2343 127.242 30.0638 127.515 30.0628L128.865 30.0578C129.185 30.0566 129.343 30.236 129.337 30.5961C129.35 32.2827 129.316 33.9395 129.236 35.5665L129.696 35.5648C129.969 35.5637 130.106 35.7466 130.108 36.1132C130.109 36.4799 129.973 36.6637 129.7 36.6648L127.29 36.6737C128.358 37.1697 129.113 37.5569 129.554 37.8353C129.748 37.9479 129.712 38.1547 129.446 38.4557C129.188 38.7633 128.951 38.8475 128.737 38.7083C128.169 38.3171 127.578 37.9793 126.964 37.6949C126.536 37.4765 126.442 37.2102 126.681 36.8959L126.85 36.6753L123.88 36.6863L124.261 36.9949C124.569 37.2471 124.546 37.4872 124.194 37.7152C123.675 38.0704 122.963 38.4297 122.058 38.7931C121.785 38.9141 121.534 38.825 121.307 38.5259C121.086 38.2334 121.118 38.0299 121.404 37.9155C122.21 37.6125 122.965 37.2031 123.67 36.6871L121.35 36.6957C121.077 36.6967 120.939 36.5139 120.938 36.1472C120.936 35.7806 121.072 35.5967 121.346 35.5957L121.836 35.5939L121.658 30.8845C121.651 30.5845 121.783 30.3807 122.056 30.273L123.174 29.8289C123.427 29.7346 123.638 29.8505 123.806 30.1766C123.98 30.4959 123.938 30.6927 123.678 30.767L122.969 30.9797C122.809 31.0269 122.729 31.1339 122.73 31.3005L122.762 31.9504L123.492 31.9477C123.766 31.9467 123.903 32.1095 123.904 32.4362C123.905 32.7562 123.769 32.9167 123.496 32.9177L122.796 32.9203L122.829 33.7802L123.529 33.7776C123.802 33.7766 123.94 33.9394 123.941 34.2661C123.942 34.5861 123.806 34.7466 123.533 34.7476L122.863 34.7501L122.896 35.59L128.116 35.5706ZM138.9 31.3806C138.901 31.6539 138.725 31.7913 138.372 31.7926C138.018 31.7939 137.841 31.6579 137.84 31.3845L137.84 31.2445L137.55 31.2456C137.276 31.2466 137.139 31.0871 137.138 30.7671C137.137 30.4471 137.273 30.2866 137.546 30.2856L137.836 30.2845L137.835 30.0046C137.834 29.7312 138.01 29.5939 138.364 29.5926C138.717 29.5913 138.894 29.7273 138.895 30.0006L138.896 30.2806L139.656 30.2778C139.93 30.2768 140.067 30.4363 140.068 30.7563C140.069 31.0763 139.933 31.2368 139.66 31.2378L138.9 31.2406L138.9 31.3806ZM135.672 31.8026C135.325 31.8039 135.151 31.6678 135.15 31.3945L135.15 31.2645L134.56 31.2667C134.286 31.2677 134.149 31.1082 134.148 30.7882C134.147 30.4682 134.283 30.3077 134.556 30.3067L135.146 30.3045L135.145 30.0145C135.144 29.7412 135.317 29.6039 135.664 29.6026C136.017 29.6013 136.194 29.7373 136.195 30.0106L136.196 30.3006L136.496 30.2995C136.77 30.2985 136.907 30.458 136.908 30.778C136.909 31.098 136.773 31.2585 136.5 31.2595L136.2 31.2606L136.2 31.3906C136.201 31.664 136.025 31.8013 135.672 31.8026ZM134.272 34.4678C134.372 34.6274 134.303 34.8443 134.064 35.1186C133.825 35.3861 133.655 35.3934 133.554 35.1405L133.211 34.3017L133.227 38.5217C133.228 38.795 133.048 38.9324 132.688 38.9337C132.328 38.935 132.148 38.799 132.147 38.5257L132.134 35.1257C131.871 35.9667 131.653 36.5208 131.48 36.7882C131.374 36.9752 131.227 36.8658 131.039 36.4598C130.851 36.0538 130.82 35.7539 130.946 35.5601C131.078 35.393 131.264 35.0056 131.501 34.3981C131.739 33.7838 131.93 33.1731 132.075 32.5659L131.395 32.5684C131.121 32.5695 130.984 32.3866 130.983 32.02C130.981 31.6466 131.117 31.4595 131.39 31.4584L132.12 31.4557L132.115 30.0058C132.114 29.7324 132.294 29.5951 132.654 29.5938C133.014 29.5924 133.194 29.7284 133.195 30.0017L133.2 31.4517L133.81 31.4495C134.084 31.4485 134.221 31.6346 134.223 32.008C134.224 32.3746 134.088 32.5585 133.815 32.5595L133.205 32.5617L133.205 32.7417C133.339 32.9346 133.551 33.2705 133.839 33.7494C134.134 34.2216 134.278 34.4611 134.272 34.4678ZM135.67 34.0226L135.671 34.2026C135.671 34.3759 135.758 34.4623 135.932 34.4616L138.152 34.4534C138.325 34.4528 138.411 34.3658 138.411 34.1924L138.41 34.0124L135.67 34.0226ZM135.926 32.8216C135.752 32.8223 135.666 32.9093 135.667 33.0826L135.667 33.2526L138.407 33.2425L138.407 33.0725C138.406 32.8991 138.319 32.8128 138.146 32.8134L135.926 32.8216ZM139.607 35.848C139.88 35.847 140.017 36.0098 140.019 36.3365C140.02 36.6632 139.884 36.827 139.61 36.828L137.93 36.8342C139.093 37.3899 139.804 37.754 140.065 37.9263C140.211 38.0058 140.159 38.1827 139.906 38.4569C139.661 38.7378 139.458 38.8253 139.297 38.7192C138.963 38.4938 138.459 38.2123 137.784 37.8748C137.283 37.61 137.169 37.3337 137.441 37.0461L137.65 36.8353L137.33 36.8365C137.132 37.3505 136.801 37.7784 136.335 38.1202C135.876 38.4619 135.374 38.6937 134.828 38.8158C134.515 38.9036 134.258 38.7879 134.056 38.4686C133.855 38.1494 133.928 37.9491 134.274 37.8678C135.067 37.7182 135.652 37.376 136.03 36.8413L134.48 36.847C134.207 36.848 134.07 36.6852 134.069 36.3586C134.067 36.0319 134.204 35.8681 134.477 35.867L136.407 35.8599L136.485 35.2896L135.055 35.2949C134.735 35.2961 134.574 35.1367 134.573 34.8167L134.564 32.4867C134.563 32.1667 134.723 32.0061 135.043 32.0049L139.073 31.99C139.393 31.9888 139.553 32.1482 139.554 32.4682L139.563 34.7982C139.564 35.1182 139.405 35.2788 139.085 35.28L137.655 35.2853L137.587 35.8555L139.607 35.848ZM144.894 35.1284C144.948 35.3549 144.819 35.522 144.506 35.6299C144.2 35.7377 144.016 35.6283 143.955 35.3019C142.895 35.4658 142.203 35.5784 141.876 35.6396L141.596 35.7206C141.337 35.7883 141.143 35.6457 141.015 35.2928C140.887 34.9333 140.916 34.7098 141.102 34.6225C141.136 34.6623 141.315 34.4917 141.64 34.1105L142.307 33.298L141.358 33.4515C141.198 33.4988 141.058 33.356 140.936 33.0231C140.815 32.6835 140.854 32.4534 141.054 32.3326L141.283 32.0718C141.482 31.811 141.71 31.4369 141.969 30.9492C142.234 30.4616 142.402 30.1043 142.475 29.8774C142.574 29.6303 142.797 29.5795 143.144 29.7249C143.498 29.8702 143.612 30.0731 143.486 30.3336C143.195 30.9614 142.841 31.556 142.423 32.1176C142.31 32.2713 142.341 32.3445 142.514 32.3372L142.994 32.2954L143.52 31.3435C143.653 31.1097 143.883 31.0988 144.21 31.3109C144.544 31.5164 144.638 31.7393 144.493 31.9799C144.029 32.7816 143.452 33.5671 142.761 34.3363C142.635 34.4768 142.659 34.5367 142.832 34.5161L143.711 34.4028L143.59 34.0532C143.509 33.7935 143.612 33.6165 143.898 33.5221C144.191 33.4277 144.398 33.5502 144.52 33.8898C144.708 34.3491 144.833 34.762 144.894 35.1284ZM141.18 36.7322C141.212 36.3387 141.388 36.1681 141.708 36.2202C142.035 36.2724 142.183 36.4785 142.151 36.8386C142.12 37.4654 142.025 37.9891 141.866 38.4097C141.801 38.6366 141.611 38.6939 141.297 38.5818C140.99 38.4762 140.866 38.3234 140.925 38.1232C141.057 37.8227 141.142 37.359 141.18 36.7322ZM142.55 36.8271C142.496 36.454 142.618 36.2369 142.918 36.1758C143.225 36.1146 143.408 36.2639 143.47 36.6237C143.565 37.1034 143.609 37.4065 143.603 37.5332C143.624 37.7731 143.558 37.9667 143.405 38.114C143.259 38.2678 143.029 38.3154 142.716 38.2565L142.685 38.1166L142.55 36.8271ZM143.729 36.4527C143.661 36.193 143.771 36.0159 144.057 35.9215C144.343 35.8271 144.527 35.9098 144.608 36.1695L144.861 36.9686C144.935 37.2283 144.819 37.412 144.513 37.5199C144.207 37.6277 144.02 37.5517 143.952 37.2919L143.729 36.4527ZM146.318 36.1432L146.324 37.6531L148.404 37.6454L148.398 36.1354L146.318 36.1432ZM148.38 31.3855C148.38 31.2121 148.293 31.1258 148.119 31.1264L146.559 31.1322C146.386 31.1329 146.3 31.2199 146.3 31.3932L146.305 32.5732L148.385 32.5655L148.38 31.3855ZM148.394 35.0854L148.389 33.6355L146.309 33.6432L146.314 35.0932L148.394 35.0854ZM149.534 37.6412L149.754 37.6404C150.027 37.6394 150.164 37.8156 150.165 38.1689C150.167 38.5289 150.031 38.7094 149.758 38.7104L144.878 38.7285C144.611 38.7295 144.477 38.55 144.476 38.19C144.474 37.8367 144.61 37.6595 144.884 37.6585L145.244 37.6571L145.217 30.5472C145.216 30.2272 145.375 30.0666 145.695 30.0654L149.025 30.0531C149.345 30.0519 149.506 30.2113 149.507 30.5313L149.534 37.6412ZM153.145 29.9478C153.251 29.6941 153.487 29.6299 153.854 29.7552C154.228 29.8738 154.359 30.0566 154.246 30.3037C154.094 30.6843 153.83 31.1953 153.452 31.8367L153.477 38.4566C153.478 38.73 153.288 38.8673 152.908 38.8687C152.535 38.8701 152.348 38.7342 152.347 38.4608L152.328 33.4809C151.99 33.9088 151.757 34.1796 151.631 34.2934C151.458 34.4608 151.265 34.3381 151.05 33.9256C150.842 33.513 150.831 33.2231 151.017 33.0557C151.342 32.7812 151.734 32.3097 152.191 31.6413C152.649 30.973 152.967 30.4085 153.145 29.9478ZM156.923 37.5739L158.383 37.5684C158.63 37.5675 158.793 37.4369 158.872 37.1766C158.951 36.9163 159 36.5495 159.018 36.0761C159.043 35.6893 159.229 35.5786 159.577 35.744C159.931 35.9094 160.092 36.1754 160.06 36.5422C160.029 37.1757 159.904 37.6795 159.685 38.0536C159.467 38.4278 159.064 38.6159 158.477 38.6181L156.807 38.6243C156.194 38.6266 155.777 38.5048 155.556 38.2589C155.335 38.0131 155.223 37.5502 155.221 36.8702L155.196 30.1202C155.195 29.8469 155.384 29.7095 155.764 29.7081C156.151 29.7067 156.345 29.8426 156.346 30.1159L156.354 32.2459L159.424 32.2345C159.697 32.2335 159.834 32.423 159.836 32.803C159.837 33.183 159.701 33.3735 159.428 33.3745L156.358 33.3859L156.371 36.8859C156.372 37.1859 156.403 37.3758 156.463 37.4556C156.53 37.5353 156.683 37.5747 156.923 37.5739Z" fill="#2382C9"/>
<path d="M64.8582 49.9281C65.1355 49.927 65.2737 49.7878 65.2727 49.5105L65.2672 48.0385C65.2662 47.7612 65.127 47.623 64.8497 47.6241L61.8737 47.6351C61.5964 47.6361 61.4582 47.7753 61.4592 48.0526L61.4647 49.5246C61.4657 49.802 61.6049 49.9401 61.8822 49.9391L64.8582 49.9281ZM66.3477 46.0185C66.8597 46.0166 67.1167 46.2717 67.1186 46.7837L67.1333 50.7516C67.1352 51.2636 66.8801 51.5206 66.3681 51.5225L60.4802 51.5443C59.9682 51.5462 59.7112 51.2911 59.7093 50.7791L59.6946 46.8112C59.6927 46.2992 59.9478 46.0422 60.4598 46.0403L66.3477 46.0185ZM58.9362 53.71C59.236 54.0183 59.2055 54.4237 58.8447 54.9264C58.4838 55.4184 58.1907 55.4781 57.9653 55.1056L57.3374 54.052L57.3581 59.6359C57.3598 60.0733 57.0512 60.2931 56.4326 60.2954C55.8246 60.2976 55.5198 60.0801 55.5181 59.6427L55.4993 54.5548C54.9496 55.8902 54.4783 56.7986 54.0854 57.28C53.8732 57.5795 53.6166 57.4311 53.3157 56.8349C53.0255 56.228 52.9918 55.7854 53.2148 55.5073C53.8627 54.7688 54.5353 53.4757 55.2324 51.6277L53.8564 51.6328C53.4191 51.6345 53.1994 51.3419 53.1972 50.7553C53.195 50.158 53.4125 49.8585 53.8499 49.8569L55.4819 49.8508L55.475 48.0108C54.8994 48.1196 54.4784 48.1905 54.2118 48.2235C53.7534 48.2892 53.4326 48.0824 53.2495 47.6031C53.077 47.113 53.2573 46.819 53.7902 46.7211C55.4639 46.4375 56.7 46.1129 57.4987 45.7473C57.8608 45.5966 58.2561 45.7658 58.6845 46.2549C59.113 46.7333 59.1195 47.0373 58.7039 47.1668L57.3136 47.62L57.3218 49.844L58.3778 49.8401C58.8152 49.8385 59.0349 50.1363 59.0372 50.7336C59.0393 51.3203 58.8217 51.6144 58.3844 51.6161L57.3284 51.62L57.3301 52.084L58.9362 53.71ZM64.3771 58.2659L67.1771 58.2555C67.6144 58.2539 67.8341 58.5304 67.8362 59.0851C67.8382 59.6397 67.6206 59.9179 67.1833 59.9195L59.5033 59.948C59.066 59.9496 58.8463 59.6731 58.8442 59.1184C58.8422 58.5637 59.0598 58.2856 59.4971 58.284L62.4731 58.273L62.4677 56.801L60.2917 56.809C59.8543 56.8106 59.6347 56.5448 59.6327 56.0115C59.6307 55.4781 59.8484 55.2107 60.2857 55.209L62.4617 55.201L62.4569 53.905C61.6145 53.9828 60.9161 54.0334 60.3615 54.0568C59.8922 54.0692 59.582 53.8356 59.4309 53.3562C59.2798 52.8768 59.4868 52.62 60.052 52.5859C62.6755 52.4268 64.5999 52.1797 65.8253 51.8445C66.1663 51.7579 66.5297 51.9539 66.9155 52.4324C67.3013 52.911 67.281 53.1884 66.8546 53.2647L64.3602 53.7059L64.3657 55.1939L66.5417 55.1859C66.979 55.1842 67.1987 55.4501 67.2007 55.9834C67.2026 56.5167 66.985 56.7842 66.5476 56.7858L64.3717 56.7939L64.3771 58.2659ZM77.3338 57.3379C77.3892 57.903 77.2997 58.2127 77.0652 58.2669C76.2765 58.4405 74.2195 58.8801 70.894 59.5857C70.2439 59.7375 69.827 59.4937 69.6433 58.8544C69.4703 58.215 69.597 57.8625 70.0234 57.797L72.406 57.4041L72.3917 53.5482L70.6317 53.5547C70.1944 53.5563 69.9746 53.2531 69.9723 52.6451C69.97 52.0265 70.1875 51.7163 70.6249 51.7147L76.1768 51.6941C76.6142 51.6925 76.834 52.001 76.8363 52.6197C76.8385 53.2277 76.621 53.5325 76.1837 53.5341L74.2797 53.5412L74.2927 57.0611L76.627 56.6045C77.0534 56.5282 77.289 56.7727 77.3338 57.3379ZM82.9951 47.9888C83.4325 47.9872 83.6523 48.2957 83.6546 48.9144C83.6569 49.533 83.4394 49.8432 83.002 49.8448L79.322 49.8584C79.5016 52.2578 79.8237 54.2513 80.2882 55.8389C80.7528 57.4265 81.2677 58.2193 81.833 58.2172C82.1637 58.216 82.3376 57.6393 82.3546 56.4872C82.4051 55.7191 82.7084 55.5206 83.2644 55.8919C83.8205 56.2631 84.0623 56.7476 83.9898 57.3452C83.9291 58.2201 83.7183 58.9142 83.3575 59.4276C83.0075 59.9515 82.4698 60.2148 81.7445 60.2175C81.0298 60.2202 80.4101 59.9505 79.8854 59.4084C79.3715 58.877 78.942 58.1212 78.597 57.1412C77.9393 55.2236 77.5089 52.7985 77.3061 49.8659L70.0101 49.893C69.5728 49.8946 69.353 49.5861 69.3507 48.9674C69.3484 48.3487 69.5659 48.0386 70.0032 48.037L77.2032 48.0103L77.1478 46.0265C77.1462 45.5891 77.4867 45.3692 78.1694 45.3667C78.8521 45.3642 79.1942 45.5816 79.1958 46.0189L79.2192 48.0028L81.7472 47.9934L80.3505 46.7506C80.0295 46.4638 80.0763 46.149 80.491 45.8061C80.9164 45.4525 81.2949 45.4138 81.6266 45.6899L82.6217 46.5182C83.0283 46.8687 83.0296 47.2207 82.6256 47.5742L82.1471 47.992L82.9951 47.9888ZM90.0172 51.7548L90.0182 52.0268C90.7034 52.7069 91.3513 53.4245 91.9622 54.1796C92.2943 54.5731 92.28 55.0371 91.9193 55.5718C91.5586 56.0958 91.2602 56.1769 91.0242 55.8151L90.0265 54.2668L90.0459 59.5148C90.0475 59.9521 89.7283 60.1719 89.0884 60.1743C88.4484 60.1767 88.1275 59.9592 88.1259 59.5219L88.1072 54.4819C87.3988 56.1699 86.7684 57.3136 86.2159 57.9129C85.9929 58.1804 85.7203 58.0161 85.3981 57.42C85.0759 56.8238 85.0423 56.3813 85.2972 56.0923C86.1579 55.1931 86.9365 53.7502 87.6332 51.7637L85.9052 51.7701C85.4678 51.7717 85.2481 51.4792 85.2459 50.8925C85.2437 50.3058 85.4613 50.0117 85.8987 50.0101L88.0906 50.0019L88.0829 47.922C87.3154 48.0528 86.7664 48.1402 86.4359 48.1841C86.0094 48.239 85.7099 48.0214 85.5375 47.5314C85.3649 47.0307 85.5399 46.742 86.0623 46.6654C87.9919 46.3916 89.4946 46.0394 90.5704 45.6087C90.9538 45.458 91.3491 45.6325 91.7563 46.1323C92.1741 46.6215 92.1753 46.9254 91.7597 47.0443L90.0016 47.5468L90.0106 49.9948L91.6746 49.9887C92.1119 49.987 92.3317 50.2796 92.3339 50.8662C92.336 51.4529 92.1185 51.747 91.6811 51.7486L90.0172 51.7548ZM94.6405 55.8977C94.6416 56.175 94.7807 56.3132 95.0581 56.3122L96.7861 56.3058C97.0634 56.3047 97.2015 56.1655 97.2005 55.8882L97.1748 48.9603C97.1738 48.6829 97.0346 48.5448 96.7573 48.5458L95.0293 48.5522C94.752 48.5532 94.6138 48.6924 94.6149 48.9698L94.6405 55.8977ZM92.7374 47.5047C92.7355 46.9927 92.9906 46.7358 93.5026 46.7339L98.3665 46.7158C98.8785 46.7139 99.1355 46.969 99.1374 47.481L99.174 57.3529C99.1759 57.8649 98.9208 58.1219 98.4088 58.1238L93.5448 58.1418C93.0329 58.1437 92.7759 57.8886 92.774 57.3766L92.7374 47.5047ZM113.94 48.0341C113.941 48.4714 113.659 48.6912 113.094 48.6933C112.529 48.6954 112.245 48.4777 112.244 48.0404L112.243 47.8164L111.779 47.8181C111.341 47.8197 111.122 47.5646 111.12 47.0526C111.118 46.5406 111.336 46.2838 111.773 46.2821L112.237 46.2804L112.235 45.8324C112.234 45.3951 112.516 45.1754 113.081 45.1733C113.646 45.1712 113.93 45.3888 113.931 45.8261L113.933 46.2741L115.149 46.2696C115.586 46.268 115.806 46.5232 115.808 47.0352C115.81 47.5472 115.592 47.804 115.155 47.8056L113.939 47.8101L113.94 48.0341ZM108.774 48.7093C108.219 48.7113 107.941 48.4937 107.94 48.0564L107.939 47.8484L106.995 47.8519C106.557 47.8535 106.338 47.5983 106.336 47.0863C106.334 46.5743 106.552 46.3175 106.989 46.3159L107.933 46.3124L107.931 45.8484C107.93 45.411 108.206 45.1914 108.761 45.1893C109.326 45.1872 109.61 45.4048 109.611 45.8421L109.613 46.3061L110.093 46.3044C110.53 46.3027 110.75 46.5579 110.752 47.0699C110.754 47.5819 110.536 47.8387 110.099 47.8404L109.619 47.8421L109.62 48.0501C109.621 48.4875 109.339 48.7072 108.774 48.7093ZM106.534 52.9736C106.695 53.229 106.584 53.5761 106.202 54.0148C105.819 54.4429 105.547 54.4546 105.386 54.0499L104.837 52.7079L104.862 59.4598C104.863 59.8972 104.576 60.1169 104 60.119C103.424 60.1212 103.135 59.9036 103.134 59.4663L103.114 54.0263C102.692 55.3719 102.343 56.2585 102.068 56.6862C101.898 56.9855 101.663 56.8104 101.362 56.1608C101.06 55.5112 101.011 55.0314 101.212 54.7213C101.425 54.4539 101.721 53.8341 102.101 52.862C102.482 51.8793 102.787 50.9021 103.018 49.9306L101.93 49.9346C101.493 49.9363 101.273 49.6437 101.271 49.0571C101.269 48.4598 101.487 48.1603 101.924 48.1587L103.092 48.1543L103.083 45.8343C103.082 45.397 103.369 45.1773 103.945 45.1751C104.521 45.173 104.81 45.3906 104.811 45.8279L104.82 48.1479L105.796 48.1443C106.233 48.1427 106.453 48.4405 106.455 49.0379C106.457 49.6245 106.24 49.9187 105.802 49.9203L104.826 49.9239L104.828 50.2119C105.042 50.5204 105.38 51.0579 105.842 51.8242C106.314 52.5797 106.544 52.9629 106.534 52.9736ZM108.771 52.2613L108.772 52.5493C108.773 52.8266 108.912 52.9648 109.19 52.9638L112.742 52.9506C113.019 52.9496 113.157 52.8104 113.156 52.5331L113.155 52.2451L108.771 52.2613ZM109.18 50.3398C108.903 50.3408 108.765 50.48 108.766 50.7573L108.767 51.0293L113.151 51.0131L113.15 50.7411C113.149 50.4637 113.009 50.3256 112.732 50.3266L109.18 50.3398ZM115.07 55.182C115.507 55.1804 115.727 55.4409 115.729 55.9635C115.731 56.4862 115.513 56.7483 115.076 56.75L112.388 56.7599C114.247 57.649 115.385 58.2315 115.802 58.5073C116.037 58.6344 115.953 58.9174 115.55 59.3562C115.156 59.8057 114.832 59.9456 114.575 59.7758C114.04 59.4152 113.233 58.9648 112.154 58.4248C111.352 58.0011 111.169 57.5591 111.605 57.0988L111.94 56.7616L111.428 56.7635C111.111 57.586 110.58 58.2706 109.835 58.8174C109.101 59.3641 108.298 59.7351 107.424 59.9304C106.923 60.0709 106.511 59.8857 106.19 59.3749C105.868 58.8641 105.984 58.5437 106.538 58.4136C107.806 58.1743 108.743 57.6268 109.348 56.7712L106.868 56.7804C106.431 56.782 106.211 56.5215 106.209 55.9988C106.207 55.4762 106.425 55.214 106.862 55.2124L109.95 55.201L110.075 54.2885L107.787 54.297C107.275 54.2989 107.018 54.0438 107.016 53.5318L107.002 49.8038C107 49.2918 107.255 49.0349 107.767 49.033L114.215 49.0091C114.727 49.0072 114.984 49.2623 114.986 49.7743L115 53.5022C115.002 54.0142 114.747 54.2712 114.235 54.2731L111.947 54.2815L111.838 55.194L115.07 55.182ZM123.53 54.0306C123.616 54.393 123.409 54.6604 122.909 54.8329C122.419 55.0054 122.125 54.8305 122.027 54.3082C120.332 54.5705 119.223 54.7506 118.701 54.8485L118.253 54.9782C117.838 55.0864 117.528 54.8582 117.323 54.2936C117.118 53.7184 117.165 53.3609 117.463 53.2211C117.516 53.2849 117.803 53.0118 118.324 52.4019L119.391 51.1019L117.872 51.3476C117.616 51.4232 117.391 51.1947 117.197 50.6621C117.003 50.1188 117.066 49.7505 117.385 49.5574L117.752 49.14C118.07 48.7228 118.436 48.1241 118.849 47.3439C119.273 46.5637 119.543 45.992 119.659 45.6289C119.817 45.2336 120.174 45.1523 120.73 45.3849C121.296 45.6175 121.478 45.9422 121.277 46.3589C120.812 47.3633 120.245 48.3148 119.576 49.2132C119.396 49.4592 119.444 49.5764 119.721 49.5647L120.489 49.4979L121.331 47.9747C121.543 47.6006 121.911 47.5832 122.435 47.9226C122.97 48.2513 123.12 48.6081 122.887 48.993C122.145 50.2757 121.222 51.5325 120.117 52.7633C119.915 52.988 119.953 53.0839 120.23 53.0508L121.638 52.8696L121.443 52.3103C121.314 51.8948 121.478 51.6115 121.936 51.4605C122.405 51.3094 122.736 51.5055 122.93 52.0488C123.232 52.7837 123.432 53.4443 123.53 54.0306ZM117.587 56.5967C117.638 55.9671 117.92 55.6941 118.432 55.7775C118.955 55.8609 119.191 56.1907 119.14 56.7669C119.09 57.7698 118.939 58.6077 118.685 59.2806C118.58 59.6437 118.276 59.7355 117.774 59.556C117.283 59.3871 117.085 59.1425 117.18 58.8222C117.391 58.3414 117.527 57.5996 117.587 56.5967ZM119.78 56.7485C119.692 56.1515 119.888 55.8041 120.368 55.7063C120.858 55.6085 121.153 55.8474 121.251 56.4231C121.403 57.1905 121.474 57.6756 121.464 57.8783C121.497 58.2622 121.392 58.5719 121.148 58.8075C120.914 59.0537 120.546 59.1297 120.044 59.0356L119.996 58.8117L119.78 56.7485ZM121.666 56.1495C121.557 55.7339 121.732 55.4506 122.191 55.2996C122.649 55.1486 122.942 55.2808 123.072 55.6963L123.477 56.9748C123.596 57.3904 123.41 57.6844 122.92 57.8569C122.43 58.0294 122.131 57.9078 122.023 57.4922L121.666 56.1495ZM125.808 55.6542L125.817 58.0702L129.145 58.0578L129.136 55.6418L125.808 55.6542ZM129.108 48.0419C129.107 47.7646 128.967 47.6264 128.69 47.6274L126.194 47.6367C125.917 47.6377 125.779 47.7769 125.78 48.0542L125.787 49.9422L129.115 49.9299L129.108 48.0419ZM129.13 53.9619L129.121 51.6419L125.793 51.6542L125.802 53.9742L129.13 53.9619ZM130.953 58.0511L131.305 58.0498C131.742 58.0482 131.962 58.3301 131.964 58.8954C131.966 59.4714 131.748 59.7602 131.311 59.7618L123.503 59.7908C123.077 59.7923 122.862 59.5051 122.86 58.9291C122.858 58.3638 123.075 58.0803 123.513 58.0787L124.089 58.0766L124.047 46.7006C124.045 46.1887 124.3 45.9317 124.812 45.9298L130.14 45.9101C130.652 45.9082 130.909 46.1632 130.911 46.6752L130.953 58.0511ZM136.731 45.7416C136.9 45.3357 137.279 45.2329 137.866 45.4334C138.464 45.6232 138.673 45.9158 138.493 46.3111C138.25 46.92 137.827 47.7376 137.222 48.7638L137.262 59.3558C137.263 59.7931 136.96 60.0129 136.352 60.0151C135.755 60.0173 135.455 59.7998 135.454 59.3625L135.424 51.3945C134.883 52.0792 134.511 52.5126 134.309 52.6947C134.033 52.9623 133.723 52.7662 133.379 52.1061C133.046 51.446 133.028 50.9821 133.326 50.7143C133.847 50.275 134.473 49.5207 135.205 48.4513C135.937 47.3819 136.446 46.4787 136.731 45.7416ZM142.776 57.9433L145.112 57.9346C145.507 57.9332 145.768 57.7242 145.894 57.3077C146.021 56.8913 146.098 56.3043 146.128 55.5469C146.168 54.928 146.466 54.7509 147.022 55.0155C147.588 55.2801 147.846 55.7058 147.794 56.2927C147.745 57.3062 147.545 58.1123 147.195 58.7109C146.846 59.3096 146.201 59.6106 145.263 59.6141L142.591 59.624C141.609 59.6276 140.942 59.4328 140.588 59.0394C140.235 58.6461 140.056 57.9054 140.052 56.8174L140.012 46.0175C140.011 45.5801 140.314 45.3603 140.922 45.3581C141.54 45.3558 141.851 45.5733 141.852 46.0106L141.865 49.4186L146.777 49.4004C147.214 49.3988 147.434 49.702 147.436 50.31C147.438 50.918 147.221 51.2228 146.784 51.2244L141.872 51.2426L141.892 56.8426C141.894 57.3226 141.943 57.6264 142.04 57.754C142.147 57.8816 142.392 57.9447 142.776 57.9433Z" fill="black" fill-opacity="0.85"/>
</g>
<defs>
<clipPath id="clip0_2306_6449">
<rect width="200" height="90" fill="white"/>
</clipPath>
</defs>
</svg>
