<svg width="200" height="90" viewBox="0 0 200 90" fill="none" xmlns="http://www.w3.org/2000/svg">
<g clip-path="url(#clip0_2306_6163)">
<rect width="200" height="90" fill="#BDE3FF"/>
<path fill-rule="evenodd" clip-rule="evenodd" d="M-6.18027 85.5257C-5.5206 81.3514 -9.94765 77.2571 -7.65473 73.2393C-4.94813 68.4966 -1.65241 61.9915 7.77154 61.0783C17.9972 60.0873 23.5998 68.8258 33.9785 69.2048C45.8176 69.6371 56.5881 60.196 66.8872 63.2371C76.2425 65.9996 70.121 74.0119 68.9752 79.5387C68.1676 83.4341 61.5364 86.4306 61.2669 90.3457C60.8502 96.3973 75.7689 103.853 67.0229 107.895C58.3557 111.9 45.7383 103.802 34.2527 102.83C27.3162 102.243 20.5655 103.925 13.6182 103.373C4.65786 102.66 -7.2514 103.227 -11.7526 99.1698C-16.3208 95.0519 -6.92748 90.2539 -6.18027 85.5257Z" fill="#005EA5"/>
<path fill-rule="evenodd" clip-rule="evenodd" d="M28.4743 10.5302C32.6486 10.8717 36.7429 8.58004 40.7607 9.76696C45.5034 11.168 52.0085 12.874 52.9217 17.7523C53.9127 23.0456 45.1742 25.9458 44.7952 31.3183C44.3629 37.4467 53.804 43.0221 50.7629 48.3534C48.0004 53.1961 39.9881 50.0274 34.4613 49.4342C30.5659 49.0162 27.5694 45.5836 23.6543 45.444C17.6027 45.2284 10.1469 52.9509 6.10508 48.4236C2.09968 43.9371 10.1975 37.4057 11.1701 31.4602C11.7575 27.8695 10.0747 24.3751 10.6274 20.7788C11.3402 16.1405 10.7727 9.97575 14.8302 7.64571C18.9481 5.281 23.7461 10.1434 28.4743 10.5302Z" fill="#2382C9"/>
<path fill-rule="evenodd" clip-rule="evenodd" d="M173.474 4.53021C177.649 4.87169 181.743 2.58004 185.761 3.76696C190.503 5.16803 197.008 6.87405 197.922 11.7523C198.913 17.0456 190.174 19.9458 189.795 25.3183C189.363 31.4467 198.804 37.0221 195.763 42.3534C193 47.1961 184.988 44.0274 179.461 43.4342C175.566 43.0162 172.569 39.5836 168.654 39.444C162.603 39.2284 155.147 46.9509 151.105 42.4236C147.1 37.9371 155.198 31.4057 156.17 25.4602C156.757 21.8695 155.075 18.3751 155.627 14.7788C156.34 10.1405 155.773 3.97575 159.83 1.64571C163.948 -0.719004 168.746 4.14342 173.474 4.53021Z" fill="#69BAF5"/>
<path fill-rule="evenodd" clip-rule="evenodd" d="M117.063 7.20494C131.49 7.9797 144.155 11.9054 154.996 17.5775C166.733 23.7188 176.896 30.8598 179.688 39.9711C183.097 51.0949 184.354 63.7453 171.749 72.2549C158.691 81.0707 136.857 81.4742 117.063 82.2497C95.2362 83.1048 71.8992 84.7511 54.6033 76.8446C35.6156 68.1646 20.8565 53.9771 24.5773 39.9711C28.0889 26.7526 52.1053 19.9805 71.5388 13.0955C85.3864 8.18958 100.98 6.34119 117.063 7.20494Z" fill="#C9F4FF"/>
<path d="M177.967 51.2804L196.726 84.9582L159.338 85.0303L177.967 51.2804Z" fill="#228CDA"/>
<path d="M173.373 78.4648H182.74" stroke="black" stroke-width="2" stroke-linecap="round"/>
<ellipse cx="171.472" cy="68.8528" rx="4.64254" ry="4.79533" transform="rotate(-0.110477 171.472 68.8528)" stroke="#FA8F21" stroke-width="2"/>
<ellipse cx="184.669" cy="68.8118" rx="4.64254" ry="4.79533" transform="rotate(-0.110477 184.669 68.8118)" stroke="#FA8F21" stroke-width="2"/>
<path d="M175.55 68.4723C175.55 68.4723 176.816 68.054 177.654 68.0337C178.594 68.011 180.025 68.4637 180.025 68.4637" stroke="#FA8F21" stroke-width="2"/>
<ellipse cx="171.471" cy="68.8518" rx="1.89842" ry="1.9609" transform="rotate(-0.110477 171.471 68.8518)" fill="black"/>
<ellipse cx="184.67" cy="68.8264" rx="1.89842" ry="1.9609" transform="rotate(-0.110477 184.67 68.8264)" fill="black"/>
<path d="M87.1946 32.6122L83.7646 32.6249C84.2019 33.6833 84.8053 34.6044 85.5749 35.3882C86.2787 34.6056 86.8186 33.6803 87.1946 32.6122ZM89.6503 31.4431C89.9236 31.4421 90.061 31.6349 90.0624 32.0216C90.0639 32.4082 89.9279 32.6021 89.6546 32.6031L88.5346 32.6072C88.0398 34.0224 87.3576 35.2183 86.4879 36.1948C87.5242 36.9977 88.6395 37.5369 89.8339 37.8125C90.1275 37.878 90.1416 38.0946 89.8763 38.4623C89.611 38.8366 89.3349 38.981 89.0479 38.8954C87.7934 38.5734 86.7014 38.0274 85.7718 37.2575C85.6314 37.138 85.4914 37.1352 85.3518 37.2491C84.4147 38.0259 83.2801 38.6001 81.9482 38.9717C81.6618 39.0661 81.398 38.9271 81.1566 38.5546C80.9152 38.1888 80.9411 37.9654 81.2341 37.8843C82.5263 37.5595 83.6742 37.0053 84.678 36.2216C83.8078 35.2714 83.0933 34.0741 82.5346 32.6295L81.3747 32.6338C81.1013 32.6348 80.9639 32.442 80.9625 32.0553C80.9611 31.6686 81.097 31.4748 81.3704 31.4738L85.1803 31.4597L84.7665 30.4312C84.6656 30.1782 84.8249 29.991 85.2444 29.8694C85.6706 29.7412 85.9375 29.8002 86.0451 30.0464L86.3677 30.7352C86.5021 31.0348 86.4128 31.2351 86.0999 31.3362L85.7103 31.4577L89.6503 31.4431ZM96.1379 36.1791L97.9179 36.1725C97.2078 35.2418 96.6104 34.1473 96.1257 32.8891L96.1379 36.1791ZM93.0379 36.1906L94.8779 36.1837L94.7957 32.894C94.3536 34.129 93.7677 35.2279 93.0379 36.1906ZM99.8935 32.2751C99.8949 32.6751 99.759 32.8756 99.4857 32.8766L97.3757 32.8845C97.7051 33.6299 98.1144 34.3217 98.6034 34.9599C99.0924 35.5981 99.5174 36.0365 99.8783 36.2752C100.092 36.4211 100.043 36.6679 99.731 37.0158C99.419 37.3636 99.1659 37.4445 98.9719 37.2586L98.1991 36.5114L98.2006 36.9014C98.2018 37.2214 98.0424 37.382 97.7224 37.3832L96.1424 37.3891L96.1471 38.6691C96.1481 38.9424 95.9386 39.0798 95.5187 39.0814C95.0987 39.0829 94.8882 38.9471 94.8871 38.6737L94.8824 37.3937L93.2624 37.3997C92.9424 37.4009 92.7818 37.2415 92.7806 36.9215L92.7791 36.5115C92.4539 36.9061 92.1849 37.1837 91.9722 37.3445C91.7595 37.5253 91.5059 37.4563 91.2114 37.1373C90.9235 36.8117 90.8793 36.5719 91.0787 36.4178C91.4445 36.1765 91.8695 35.7249 92.3537 35.0631C92.8446 34.3946 93.2486 33.6731 93.5657 32.8986L91.5257 32.9061C91.2524 32.9072 91.115 32.7077 91.1135 32.3077C91.112 31.901 91.2479 31.6972 91.5213 31.6962L94.8612 31.6838L94.8556 30.1638C94.8546 29.8905 95.0641 29.753 95.4841 29.7515C95.9041 29.7499 96.1146 29.8858 96.1156 30.1591L96.1212 31.6791L99.4812 31.6667C99.7545 31.6656 99.8919 31.8685 99.8935 32.2751ZM108.347 33.3338C108.347 33.1605 108.26 33.0741 108.086 33.0748L106.446 33.0808C106.824 34.2528 107.461 35.0838 108.356 35.5738L108.347 33.3338ZM102.967 33.0937C102.793 33.0944 102.707 33.1814 102.707 33.3547L102.716 35.7047C103.668 35.1745 104.311 34.3021 104.646 33.0875L102.967 33.0937ZM109.082 31.9111C109.402 31.9099 109.563 32.0693 109.564 32.3893L109.583 37.6392C109.585 37.9726 109.546 38.2261 109.466 38.3997C109.387 38.58 109.221 38.7273 108.968 38.8415C108.715 38.9625 108.292 39.0207 107.698 39.0162C107.305 39.0244 107.041 38.8287 106.906 38.4292C106.778 38.0296 106.827 37.8328 107.054 37.8386C107.194 37.8448 107.551 37.8468 108.124 37.8447C108.284 37.8441 108.364 37.7704 108.363 37.6238L108.357 35.8338C108.078 36.1415 107.938 36.3087 107.939 36.3353C107.773 36.5826 107.556 36.6201 107.289 36.4477C106.567 36.0437 105.981 35.2292 105.53 34.0042C105.081 35.2859 104.458 36.1316 103.659 36.5412C103.393 36.7022 103.166 36.6597 102.979 36.4137L102.718 36.0747L102.727 38.6447C102.728 38.918 102.525 39.0554 102.119 39.0569C101.719 39.0584 101.518 38.9225 101.517 38.6492L101.494 32.4192C101.493 32.0992 101.652 31.9386 101.972 31.9374L105.032 31.9261L104.98 31.4163C104.966 31.243 104.873 31.1567 104.699 31.1573L103.679 31.1611C103.406 31.1621 103.269 30.9893 103.267 30.6426C103.266 30.2959 103.402 30.1221 103.675 30.1211L105.515 30.1143C105.829 30.1131 105.999 30.2691 106.027 30.5824L106.162 31.9219L109.082 31.9111ZM112.551 31.6182C112.378 31.6188 112.291 31.7058 112.292 31.8792L112.294 32.3092C112.295 32.5825 112.095 32.7199 111.695 32.7214C111.302 32.7228 111.105 32.5869 111.104 32.3136L111.099 30.9936C111.098 30.6736 111.257 30.513 111.577 30.5118L114.887 30.4995L114.756 30.21C114.642 29.9638 114.801 29.7932 115.234 29.6982C115.667 29.6033 115.941 29.679 116.055 29.9252L116.317 30.4942L119.407 30.4828C119.727 30.4816 119.888 30.641 119.889 30.961L119.894 32.281C119.895 32.5543 119.685 32.6918 119.265 32.6933C118.845 32.6949 118.635 32.559 118.634 32.2857L118.632 31.8557C118.631 31.6823 118.544 31.596 118.371 31.5966L112.551 31.6182ZM116.455 32.7437C116.235 32.5979 116.261 32.4078 116.533 32.1734C116.812 31.9391 117.062 31.8915 117.283 32.0307C117.53 32.1631 117.901 32.405 118.395 32.7566C118.897 33.108 119.194 33.3403 119.288 33.4532C119.462 33.6059 119.399 33.8128 119.1 34.0739C118.801 34.3351 118.568 34.3893 118.401 34.2365C118.314 34.1235 118.026 33.8813 117.538 33.5097C117.057 33.1382 116.696 32.8829 116.455 32.7437ZM113.373 32.1152C113.539 31.9145 113.815 31.8802 114.203 32.0121C114.59 32.1373 114.704 32.3069 114.544 32.5208C114.379 32.7614 114.057 33.0893 113.578 33.5044C113.106 33.9195 112.737 34.1975 112.471 34.3385C112.252 34.466 112.001 34.3736 111.72 34.0613C111.446 33.749 111.428 33.5357 111.668 33.4215C111.881 33.334 112.197 33.1295 112.616 32.808C113.034 32.4931 113.287 32.2621 113.373 32.1152ZM113.936 35.7631L117.276 35.7507C116.615 35.3065 116.093 34.8851 115.712 34.4865C115.598 34.3669 115.485 34.3707 115.372 34.4978C115.04 34.8857 114.561 35.3074 113.936 35.7631ZM113.744 37.6838C113.744 37.8572 113.831 37.9435 114.005 37.9429L117.005 37.9317C117.178 37.9311 117.264 37.8441 117.264 37.6708L117.26 36.8308L113.74 36.8438L113.744 37.6838ZM115.057 33.0989C115.202 32.8717 115.452 32.8341 115.806 32.9861C116.16 33.1382 116.284 33.2977 116.178 33.4648C117.155 34.4812 118.388 35.2599 119.877 35.8011C120.177 35.9066 120.201 36.1299 119.949 36.4708C119.697 36.8118 119.448 36.9293 119.2 36.8236C119.1 36.7773 118.873 36.6615 118.519 36.4761L118.527 38.5161C118.528 38.8361 118.368 38.9967 118.048 38.9979L113.029 39.0165C112.709 39.0177 112.548 38.8583 112.547 38.5383L112.54 36.6283C112.18 36.8096 111.941 36.9238 111.821 36.9709C111.568 37.0786 111.311 36.9695 111.05 36.6438C110.795 36.3114 110.801 36.0981 111.067 36.0037C111.8 35.7544 112.568 35.3415 113.373 34.7652C114.191 34.1888 114.752 33.6334 115.057 33.0989Z" fill="#2382C9"/>
<path d="M49.9497 55.1685L49.9575 57.2805C49.9586 57.5578 50.0552 57.7281 50.2474 57.7914C50.7921 57.9707 51.7844 58.0577 53.2244 58.0524C53.7471 58.0611 54.8724 58.0569 56.6004 58.0398C58.3283 58.0228 59.3736 58.0082 59.7363 57.9962C60.0135 57.9739 60.0306 58.2778 59.7876 58.908C59.5553 59.5382 59.2205 59.8541 58.7831 59.8558L53.2312 59.8763C51.6312 59.8823 50.356 59.7323 49.4055 59.4265C48.455 59.1314 47.6796 58.5582 47.0791 57.7071C46.9015 58.7211 46.728 59.3991 46.5586 59.7411C46.4213 60.1149 46.0962 60.1641 45.5832 59.8887C45.0808 59.6132 44.9036 59.2939 45.0516 58.9307C45.2636 58.5672 45.4315 57.8252 45.5554 56.7048C45.6792 55.5736 45.739 54.4587 45.735 53.3601C45.7437 52.848 46.0255 52.6123 46.5804 52.6529C47.1351 52.6829 47.4078 52.8739 47.3985 53.2259C47.4097 53.3859 47.3958 53.9353 47.3566 54.8741L48.2589 56.5668L48.2411 51.7828L45.8892 51.7915C45.4518 51.7931 45.2321 51.5166 45.2301 50.9619C45.228 50.3966 45.4456 50.1131 45.8829 50.1115L47.9309 50.1039L47.9255 48.6319L46.2455 48.6382C45.8081 48.6398 45.5885 48.3686 45.5865 47.8246C45.5844 47.2699 45.802 46.9918 46.2394 46.9902L47.9194 46.9839L47.9158 46.024C47.9142 45.5866 48.2067 45.3669 48.7934 45.3647C49.38 45.3625 49.6742 45.5801 49.6758 46.0174L49.6793 46.9774L51.2953 46.9714C51.7327 46.9698 51.9524 47.2463 51.9544 47.801C51.9564 48.345 51.7388 48.6178 51.3014 48.6194L49.6854 48.6254L49.6909 50.0974L51.8349 50.0895C52.1016 50.0885 52.2354 50.2213 52.2364 50.488C53.226 49.855 53.857 48.8606 54.1293 47.5049L53.0733 47.5088C52.636 47.5105 52.4164 47.2499 52.4144 46.7273C52.4125 46.194 52.6301 45.9265 53.0675 45.9249L58.6994 45.904C59.2114 45.9021 59.4632 46.2052 59.4548 46.8132C59.4682 47.5598 59.4126 48.3654 59.2878 49.2298C59.1736 50.0836 59.0209 50.6175 58.8297 50.8315C58.5961 51.1204 58.2447 51.2977 57.7757 51.3634C57.3172 51.4291 56.9706 51.4518 56.7359 51.4313C56.2345 51.4225 55.9029 51.1517 55.7409 50.619C55.5896 50.0862 55.7167 49.8404 56.1221 49.8816C56.0901 49.8817 56.3195 49.8808 56.8101 49.879C57.0128 49.8783 57.1673 49.8244 57.2735 49.7173L57.5548 47.8922C57.5858 47.6255 57.4626 47.4926 57.1853 47.4936L55.9053 47.4983C55.55 49.4837 54.8455 50.793 53.7919 51.4262C53.4195 51.6943 53.0461 51.6796 52.6717 51.3824L52.2384 51.032C52.2402 51.5226 51.9851 51.7689 51.4731 51.7708L49.9371 51.7765L49.9436 53.5205L51.3996 53.5151C51.8369 53.5135 52.0566 53.79 52.0587 54.3447C52.0607 54.8886 51.843 55.1615 51.4057 55.1631L49.9497 55.1685ZM55.0318 53.5656C54.7545 53.5667 54.6163 53.7058 54.6173 53.9832L54.6216 55.1352C54.6226 55.4125 54.7618 55.5506 55.0391 55.5496L56.8151 55.543C57.0925 55.542 57.2306 55.4028 57.2296 55.1255L57.2253 53.9735C57.2243 53.6962 57.0851 53.558 56.8078 53.559L55.0318 53.5656ZM53.6207 57.0589C53.1087 57.0608 52.8518 56.8057 52.8499 56.2937L52.837 52.8058C52.8351 52.2938 53.0901 52.0368 53.6021 52.0349L58.3381 52.0174C58.8501 52.0155 59.107 52.2705 59.1089 52.7825L59.1218 56.2705C59.1237 56.7825 58.8687 57.0394 58.3567 57.0413L53.6207 57.0589ZM72.9562 50.4112C72.9552 50.1338 72.816 49.9957 72.5387 49.9967L71.2907 50.0013L71.2936 50.7853L72.9576 50.7792L72.9562 50.4112ZM72.5491 52.8127C72.8265 52.8117 72.9646 52.6725 72.9636 52.3952L72.9621 51.9952L71.2981 52.0013L71.3011 52.8173L72.5491 52.8127ZM67.8276 52.4142C67.8286 52.6915 67.9678 52.8297 68.2452 52.8286L69.4451 52.8242L69.4421 52.0082L67.8261 52.0142L67.8276 52.4142ZM68.2347 50.0127C67.9574 50.0137 67.8192 50.1529 67.8203 50.4302L67.8216 50.7982L69.4376 50.7922L69.4347 50.0082L68.2347 50.0127ZM69.4298 48.6962L69.4271 47.9602L66.0831 47.9726C65.6458 47.9742 65.4262 47.7191 65.4243 47.2071C65.4224 46.6951 65.6401 46.4383 66.0774 46.4366L69.4214 46.4242L69.4196 45.9442C69.418 45.5069 69.7265 45.2871 70.3452 45.2848C70.9639 45.2825 71.274 45.5 71.2756 45.9374L71.2774 46.4174L74.8134 46.4043C75.2507 46.4026 75.4703 46.6578 75.4722 47.1698C75.4741 47.6818 75.2564 47.9386 74.8191 47.9402L71.2831 47.9534L71.2858 48.6893L74.0058 48.6793C74.5178 48.6774 74.7748 48.9324 74.7767 49.4444L74.7911 53.3484C74.793 53.8604 74.538 54.1173 74.026 54.1192L71.306 54.1293L71.3089 54.9133L75.0209 54.8995C75.4582 54.8979 75.6778 55.1584 75.6798 55.6811C75.6817 56.1931 75.464 56.4499 75.0266 56.4515L71.3147 56.4653L71.3176 57.2493C71.3192 57.6866 71.0107 57.9064 70.392 57.9087C69.7733 57.911 69.4632 57.6935 69.4616 57.2562L69.4587 56.4722L66.1467 56.4844C65.7094 56.4861 65.4897 56.2309 65.4878 55.7189C65.4859 55.1962 65.7036 54.9341 66.1409 54.9325L69.4529 54.9202L69.45 54.1362L66.858 54.1458C66.346 54.1477 66.0891 53.8926 66.0872 53.3806L66.0727 49.4767C66.0708 48.9647 66.3259 48.7077 66.8379 48.7058L69.4298 48.6962ZM64.5763 47.2102C64.8549 47.5398 64.7441 47.8763 64.244 48.2194C63.7546 48.5626 63.3813 48.5586 63.124 48.2076L61.9663 46.6759C61.709 46.3248 61.8145 46.0098 62.2828 45.7307C62.7618 45.4516 63.1405 45.4768 63.4191 45.8065L64.5763 47.2102ZM64.0212 52.8443C64.4585 52.832 64.8053 52.8841 65.0618 53.0004C65.3288 53.1061 65.4259 53.3991 65.353 53.8794C65.2705 54.637 65.0604 55.4965 64.7226 56.4577C65.1521 57.2135 65.7779 57.7125 66.6001 57.9548C67.4223 58.1864 68.5801 58.3048 70.0735 58.3099C72.2921 58.3017 74.1319 58.2255 75.5927 58.0814C75.9978 58.0373 76.1002 58.3089 75.8997 58.8963C75.6992 59.4837 75.3857 59.7889 74.9591 59.8118C73.722 59.8911 72.1915 59.9341 70.3675 59.9408C68.5542 59.9475 67.1884 59.8193 66.2701 59.556C65.3625 59.3034 64.6139 58.7888 64.0243 58.0123C63.5372 58.9528 63.0701 59.5732 62.6232 59.8735C62.3043 60.1521 61.936 60.0787 61.5184 59.6536C61.1009 59.2392 61.0463 58.914 61.3548 58.6782C62.3975 57.981 63.1075 56.7197 63.4848 54.8943C63.5794 54.5313 63.4881 54.3503 63.2108 54.3513L62.4908 54.354L62.0589 54.3876C61.6967 54.5276 61.4134 54.3366 61.2088 53.8147C61.0042 53.2928 61.0935 52.9405 61.4768 52.7577L61.732 52.5168C61.9658 52.2919 62.3427 51.8052 62.8625 51.0566C63.1066 50.7037 63.0899 50.5277 62.8126 50.5288L61.8526 50.5323C61.4153 50.5339 61.1957 50.2841 61.1938 49.7828C61.1919 49.2708 61.4096 49.014 61.847 49.0123L64.3429 49.0031L64.5028 48.9705C64.9399 48.8942 65.2548 48.9517 65.4475 49.143C65.6402 49.3343 65.5774 49.6652 65.2592 50.1357C64.5484 51.205 63.9701 52.0232 63.5242 52.5901C63.3863 52.7827 63.456 52.8731 63.7332 52.8614L64.0212 52.8443ZM77.4602 56.8745C77.5219 56.245 77.8035 55.9719 78.3052 56.0554C78.8175 56.1281 79.0427 56.4633 78.9809 57.0609C78.8997 58.1599 78.7375 59.0245 78.4945 59.6547C78.3998 59.9964 78.1068 60.0775 77.6154 59.898C77.1348 59.7291 76.9419 59.4898 77.0368 59.1801C77.2483 58.6993 77.3895 57.9308 77.4602 56.8745ZM79.5566 56.9787C79.4692 56.4137 79.6546 56.0877 80.113 56.0007C80.5713 55.903 80.8441 56.1153 80.9314 56.6377C81.0941 57.3731 81.176 57.9008 81.1772 58.2208C81.2109 58.658 81.1161 59.005 80.8931 59.2618C80.6701 59.5293 80.3236 59.5946 79.8538 59.4577L79.805 59.2338L79.5566 56.9787ZM81.3145 56.4122C81.2063 55.9966 81.3653 55.7187 81.7914 55.5785C82.2283 55.4382 82.5061 55.5758 82.625 55.9914L83.1761 57.9253C83.295 58.3409 83.1307 58.6242 82.6833 58.7752C82.2359 58.9262 81.958 58.7939 81.8498 58.3783L81.3145 56.4122ZM81.1561 52.5088C81.0265 52.0933 81.1855 51.8153 81.633 51.675C82.0911 51.524 82.4225 51.7254 82.6272 52.2793C82.9501 53.0675 83.1553 53.7387 83.2427 54.2931C83.3293 54.6447 83.1276 54.9122 82.6377 55.0953C82.1476 55.2678 81.8645 55.1355 81.7882 54.6985L81.7558 54.5866C79.2931 54.9584 77.9554 55.2033 77.7425 55.3215C77.5933 55.3753 77.4164 55.12 77.2116 54.5554C77.0175 53.9908 77.027 53.6654 77.24 53.5793C77.5279 53.5569 78.2024 52.7971 79.2636 51.2998C78.2613 51.4208 77.7656 51.5027 77.7765 51.5453C77.5207 51.6209 77.2959 51.3871 77.1019 50.8438C76.9078 50.3005 76.9066 49.9752 77.0982 49.8678C77.3329 49.8563 77.8686 49.065 78.7055 47.4938C79.1292 46.6923 79.399 46.1046 79.5149 45.7308C79.6735 45.3356 80.0358 45.2542 80.602 45.4868C81.1789 45.7193 81.3721 46.0333 81.1815 46.4287C80.7585 47.4009 80.1808 48.3844 79.4484 49.3791C79.2681 49.6358 79.3165 49.7583 79.5938 49.7466L80.3296 49.6798L81.156 48.1888C81.3573 47.8147 81.7199 47.792 82.2438 48.1207C82.7677 48.4495 82.913 48.8116 82.6798 49.2071C81.9169 50.5646 81.0148 51.8213 79.9738 52.9772C79.7826 53.2019 79.8257 53.3031 80.1029 53.2807L81.3504 53.1321L81.1561 52.5088ZM89.2491 55.9988C89.248 55.7215 89.1088 55.5833 88.8315 55.5844L86.1595 55.5943C85.8822 55.5953 85.744 55.7345 85.7451 56.0118L85.7508 57.5478C85.7518 57.8251 85.891 57.9633 86.1683 57.9622L88.8403 57.9523C89.1176 57.9513 89.2558 57.8121 89.2547 57.5348L89.2491 55.9988ZM84.7187 59.6796C84.2067 59.6815 83.9497 59.4265 83.9478 58.9145L83.932 54.6425C83.9301 54.1305 84.1851 53.8736 84.6971 53.8717L90.3611 53.8507C90.8731 53.8488 91.13 54.1038 91.1319 54.6158L91.1478 58.8878C91.1497 59.3998 90.8946 59.6567 90.3826 59.6586L84.7187 59.6796ZM91.2324 47.1754C91.6697 47.1738 91.8895 47.4716 91.8917 48.069C91.8939 48.6663 91.6763 48.9658 91.239 48.9674L88.439 48.9778L88.4458 50.8178L90.8618 50.8088C91.2992 50.8072 91.5189 51.105 91.5211 51.7024C91.5233 52.289 91.3057 52.5832 90.8684 52.5848L84.2765 52.6092C83.8391 52.6108 83.6194 52.3183 83.6172 51.7317C83.615 51.1343 83.8325 50.8349 84.2699 50.8332L86.4619 50.8251L86.455 48.9851L83.7991 48.995C83.3617 48.9966 83.1419 48.6987 83.1397 48.1014C83.1375 47.5041 83.3551 47.2046 83.7924 47.203L86.4484 47.1931L86.4434 45.8491C86.4418 45.4118 86.7716 45.1919 87.433 45.1895C88.0943 45.187 88.4258 45.4045 88.4274 45.8418L88.4324 47.1858L91.2324 47.1754ZM98.0171 51.6783L98.0181 51.9503C98.7033 52.6304 99.3513 53.348 99.9621 54.1031C100.294 54.4965 100.28 54.9606 99.9193 55.4953C99.5585 56.0193 99.2602 56.1004 99.0242 55.7386L98.0264 54.1903L98.0459 59.4382C98.0475 59.8756 97.7283 60.0954 97.0883 60.0978C96.4483 60.1002 96.1275 59.8827 96.1259 59.4454L96.1072 54.4054C95.3988 56.0934 94.7683 57.237 94.2159 57.8364C93.9929 58.1039 93.7203 57.9396 93.3981 57.3434C93.0758 56.7473 93.0422 56.3048 93.2971 56.0158C94.1578 55.1166 94.9365 53.6737 95.6331 51.6871L93.9051 51.6935C93.4678 51.6951 93.248 51.4026 93.2459 50.816C93.2437 50.2293 93.4613 49.9352 93.8986 49.9335L96.0906 49.9254L96.0829 47.8454C95.3154 47.9763 94.7663 48.0636 94.4358 48.1075C94.0094 48.1625 93.7099 47.9449 93.5374 47.4549C93.3649 46.9542 93.5398 46.6655 94.0622 46.5889C95.9919 46.3151 97.4946 45.9629 98.5703 45.5322C98.9538 45.3814 99.3491 45.556 99.7563 46.0558C100.174 46.5449 100.175 46.8489 99.7596 46.9678L98.0015 47.4703L98.0106 49.9183L99.6746 49.9121C100.112 49.9105 100.332 50.203 100.334 50.7897C100.336 51.3764 100.118 51.6705 99.6811 51.6721L98.0171 51.6783ZM102.64 55.8212C102.642 56.0985 102.781 56.2367 103.058 56.2356L104.786 56.2292C105.063 56.2282 105.201 56.089 105.2 55.8117L105.175 48.8837C105.174 48.6064 105.035 48.4683 104.757 48.4693L103.029 48.4757C102.752 48.4767 102.614 48.6159 102.615 48.8932L102.64 55.8212ZM100.737 47.4282C100.735 46.9162 100.991 46.6592 101.503 46.6573L106.366 46.6393C106.878 46.6374 107.135 46.8925 107.137 47.4045L107.174 57.2764C107.176 57.7884 106.921 58.0453 106.409 58.0472L101.545 58.0653C101.033 58.0672 100.776 57.8121 100.774 57.3001L100.737 47.4282ZM112.509 46.1845C112.702 46.5678 112.527 46.8298 111.984 46.9705C111.451 47.1005 111.093 46.9685 110.91 46.5745L110.685 46.1113C110.502 45.7173 110.671 45.466 111.194 45.3574C111.727 45.2381 112.09 45.3701 112.283 45.7534L112.509 46.1845ZM120.745 49.514C120.744 49.194 120.605 49.0345 120.327 49.0356L116.567 49.0495C116.29 49.0505 116.152 49.2111 116.153 49.531L120.745 49.514ZM120.75 50.826L120.748 50.314L116.156 50.331L116.158 50.843L120.75 50.826ZM120.339 52.1396C120.616 52.1385 120.754 51.9673 120.753 51.626L116.161 51.643C116.162 51.9844 116.302 52.1545 116.579 52.1535L120.339 52.1396ZM120.365 54.9075L120.367 55.5155L123.055 55.5055C123.493 55.5039 123.712 55.7431 123.714 56.2231C123.716 56.6924 123.498 56.9279 123.061 56.9295L120.373 56.9395L120.377 58.1875C120.379 58.6354 120.322 58.9717 120.205 59.1961C120.099 59.4312 119.865 59.624 119.503 59.7747C119.141 59.9254 118.587 59.9968 117.84 59.9889C117.221 60.0018 116.81 59.7367 116.605 59.1934C116.411 58.6502 116.506 58.3885 116.89 58.4084C117.029 58.4079 117.477 58.4062 118.234 58.4034C118.447 58.3919 118.554 58.3115 118.553 58.1622L118.549 56.9462L113.877 56.9635L115.033 58.0153C115.354 58.3021 115.286 58.6383 114.828 59.024C114.371 59.4097 114.025 59.459 113.789 59.1719C113.596 58.8739 113.36 58.6401 113.082 58.4705C112.419 57.9396 112.375 57.4384 112.949 56.967L109.957 56.9781C109.519 56.9797 109.3 56.7458 109.298 56.2765C109.296 55.7965 109.514 55.5557 109.952 55.5541L118.543 55.5222L118.541 54.9302L117.997 54.9323C116.493 54.9378 115.336 54.8248 114.524 54.5931C113.723 54.3614 113.076 53.8838 112.583 53.1603C111.935 54.0267 111.345 54.5996 110.813 54.8789C110.451 55.1042 110.11 55.0042 109.788 54.5787C109.477 54.1425 109.513 53.817 109.896 53.6023C110.674 53.2367 111.29 52.6211 111.745 51.7554C111.926 51.4561 111.877 51.3069 111.6 51.3079L111.056 51.31L110.576 51.3597C110.235 51.4997 109.973 51.3353 109.79 50.8666C109.607 50.398 109.713 50.0723 110.107 49.8895L110.282 49.7448L110.999 48.9742C111.18 48.7708 111.131 48.6697 110.854 48.6707L110.31 48.6727C109.873 48.6743 109.653 48.4298 109.651 47.9391C109.649 47.4485 109.867 47.2023 110.305 47.2007L112.529 47.1925L112.848 47.0633L113.137 47.2222C113.382 47.3386 113.505 47.2582 113.504 46.9809C113.502 46.6075 113.688 46.4202 114.062 46.4188L115.79 46.4124L115.564 45.9652C115.371 45.5819 115.524 45.3254 116.025 45.1955C116.526 45.055 116.878 45.1763 117.083 45.5596L117.55 46.4059L119.502 46.3986L119.883 45.6292C120.063 45.2339 120.451 45.0884 121.049 45.1929C121.647 45.2867 121.829 45.5153 121.596 45.8789L121.262 46.3921L122.926 46.3859C123.363 46.3843 123.582 46.5968 123.584 47.0235C123.586 47.4502 123.368 47.6643 122.93 47.6659L119.282 47.6794L119.044 48.1923L121.62 48.1828C122.132 48.1809 122.389 48.4359 122.391 48.9479L122.403 52.1959C122.405 52.7079 122.15 52.9648 121.638 52.9667L115.366 52.99C114.854 52.9919 114.597 52.7368 114.595 52.2248L114.583 48.9769C114.581 48.4649 114.836 48.2079 115.348 48.206L117.38 48.1985L117.522 47.686L113.794 47.6998L112.233 49.5296C112.063 49.7329 112.117 49.8287 112.394 49.817L112.762 49.7996C113.2 49.7873 113.52 49.8608 113.723 50.0201C113.937 50.1793 113.965 50.4832 113.806 50.9318C113.743 51.188 113.563 51.578 113.267 52.1018C113.664 52.6763 114.214 53.0476 114.919 53.2157C115.624 53.3837 116.909 53.4643 118.776 53.4574C120.653 53.4504 122.226 53.3752 123.495 53.2319C123.922 53.1876 124.04 53.4378 123.85 53.9826C123.67 54.5166 123.341 54.7951 122.861 54.8182C122.157 54.8528 121.325 54.8826 120.365 54.9075ZM127.402 49.7774L127.403 50.0174C127.404 50.2947 127.543 50.4328 127.821 50.4318L128.541 50.4291L128.538 49.7731L127.402 49.7774ZM128.527 46.6212L127.807 46.6238C127.529 46.6249 127.391 46.8067 127.393 47.1694L128.529 47.1652L128.527 46.6212ZM129.991 48.7758C130.268 48.7747 130.406 48.6355 130.405 48.3582L130.404 48.1662L127.396 48.1774L127.399 48.7854L129.991 48.7758ZM131.805 50.417C132.242 50.4154 132.461 50.5959 132.463 50.9586C132.464 51.3106 132.246 51.4874 131.809 51.489L126.545 51.5085C126.043 51.5104 125.792 51.2553 125.79 50.7433L125.773 46.3114C125.771 45.7994 126.027 45.5424 126.539 45.5405L131.659 45.5216C132.096 45.5199 132.315 45.7005 132.317 46.0631C132.318 46.4258 132.1 46.6079 131.663 46.6095L130.015 46.6157L130.017 47.1596L131.217 47.1552C131.729 47.1533 131.986 47.4084 131.987 47.9203L131.991 48.9923C131.993 49.5043 131.738 49.7613 131.226 49.7632L130.026 49.7676L130.029 50.4236L131.805 50.417ZM134.73 49.8142C134.453 49.8152 134.315 49.9544 134.316 50.2317C134.317 50.4984 134.456 50.6312 134.733 50.6302L134.925 50.6295L134.922 49.8135L134.73 49.8142ZM135.85 49.81L135.853 50.626L136.509 50.6236L136.506 49.8076L135.85 49.81ZM137.434 49.8042L137.437 50.6202L137.661 50.6193C137.939 50.6183 138.077 50.4791 138.076 50.2018C138.075 49.9351 137.936 49.8023 137.658 49.8033L137.434 49.8042ZM133.825 51.4976C133.313 51.4995 133.056 51.2444 133.054 50.7324L133.05 49.7244C133.048 49.2124 133.303 48.9555 133.815 48.9536L138.631 48.9357C139.143 48.9338 139.4 49.1889 139.402 49.7009L139.406 50.7089C139.408 51.2209 139.153 51.4778 138.641 51.4797L133.825 51.4976ZM129.265 55.8185C129.266 56.1705 129.405 56.346 129.683 56.3449L135.283 56.3242C135.56 56.3232 135.698 56.1467 135.697 55.7947L129.265 55.8185ZM129.259 54.3785L129.261 54.8905L135.693 54.8667L135.691 54.3547L129.259 54.3785ZM129.67 52.937C129.393 52.938 129.255 53.1092 129.256 53.4505L135.688 53.4267C135.687 53.0853 135.547 52.9152 135.27 52.9162L129.67 52.937ZM135.802 58.3703L137.738 58.3631C137.983 58.3622 138.149 58.2923 138.233 58.1533L138.297 57.945C138.369 57.4221 138.667 57.2503 139.191 57.4297C139.714 57.6091 139.923 57.971 139.819 58.5154C139.83 58.7927 139.693 59.0705 139.406 59.3489C139.13 59.638 138.639 59.7838 137.935 59.7864L135.567 59.7952C134.629 59.7986 133.999 59.673 133.678 59.4182C133.357 59.1633 133.195 58.6733 133.193 57.948L133.19 57.308L131.43 57.3145C131.177 58.1154 130.651 58.7147 129.853 59.1123C129.054 59.5206 127.999 59.7859 126.688 59.9081C126.123 59.9742 125.701 59.7624 125.421 59.2728C125.153 58.7938 125.301 58.5372 125.867 58.5031C126.794 58.457 127.573 58.3475 128.201 58.1745C128.841 57.9907 129.272 57.7065 129.494 57.3217L128.23 57.3263C127.718 57.3282 127.461 57.0732 127.459 56.5612L127.445 52.7372C127.443 52.2252 127.698 51.9683 128.21 51.9664L136.786 51.9346C137.298 51.9327 137.555 52.1877 137.557 52.6997L137.571 56.5237C137.573 57.0357 137.318 57.2927 136.806 57.2946L135.03 57.3011L135.033 57.9251C135.033 58.1171 135.076 58.2396 135.162 58.2927C135.258 58.3456 135.471 58.3715 135.802 58.3703ZM132.564 48.1262C132.179 47.7863 132.183 47.4343 132.576 47.0702C133.034 46.7058 133.352 46.2353 133.531 45.6586C133.711 45.2526 134.073 45.0913 134.617 45.1746C135.162 45.2579 135.36 45.4812 135.212 45.8444L138.972 45.8304C139.409 45.8288 139.628 46.0253 139.63 46.42C139.631 46.8147 139.413 47.0128 138.976 47.0144L134.576 47.0307L134.258 47.4799L138.258 47.4651C138.695 47.4635 138.914 47.6387 138.916 47.9907C138.917 48.332 138.699 48.5035 138.262 48.5051L134.758 48.5181C134.246 48.52 133.989 48.2863 133.987 47.8169L133.62 48.1703C133.312 48.4701 132.96 48.4554 132.564 48.1262ZM146.832 51.4013C146.906 51.1131 146.804 50.9695 146.527 50.9705L144.575 50.9777L143.987 52.1959C145.046 52.8426 145.767 53.304 146.152 53.5799C146.48 52.7787 146.707 52.0525 146.832 51.4013ZM142.05 47.483C141.613 47.4847 141.393 47.1921 141.391 46.6055C141.388 46.0082 141.606 45.7087 142.043 45.7071L148.635 45.6826C149.073 45.681 149.292 45.9789 149.295 46.5762C149.297 47.1629 149.079 47.457 148.642 47.4586L145.81 47.4691L145.256 49.2312L147.192 49.176C147.629 49.1744 148.046 49.2368 148.441 49.3634C148.847 49.4899 149.008 49.7986 148.924 50.2896C148.623 52.3814 147.969 54.3038 146.962 56.0569C145.965 57.7993 144.893 58.9926 143.743 59.6369C143.392 59.8728 142.975 59.757 142.494 59.2895C142.023 58.8326 141.973 58.4967 142.346 58.282C143.421 57.7234 144.409 56.7117 145.311 55.247C144.818 54.8222 144.075 54.2863 143.081 53.6393C142.773 54.0777 142.598 54.3024 142.555 54.3132C142.268 54.613 141.895 54.561 141.435 54.1574C140.985 53.743 140.898 53.3914 141.175 53.1023C141.611 52.706 142.088 51.9683 142.606 50.889C143.136 49.8097 143.548 48.6722 143.842 47.4764L142.05 47.483ZM150.655 46.7471C151.285 46.7448 151.6 46.9623 151.602 47.3996L151.629 54.8716C151.631 55.3089 151.317 55.5288 150.688 55.5311C150.069 55.5334 149.759 55.3159 149.757 54.8785L149.73 47.4066C149.728 46.9693 150.037 46.7494 150.655 46.7471ZM153.452 45.9208C153.451 45.4834 153.764 45.2636 154.394 45.2613C155.023 45.2589 155.339 45.4764 155.34 45.9138L155.384 57.6417C155.386 58.1857 155.323 58.5966 155.196 58.8744C155.069 59.1629 154.846 59.377 154.527 59.5169C153.994 59.7855 153.264 59.9056 152.336 59.877C151.739 59.8899 151.332 59.5767 151.116 58.9375C150.911 58.3089 151.001 57.9993 151.385 58.0085C151.641 58.0182 152.201 58.0215 153.065 58.0183C153.353 58.0066 153.496 57.878 153.496 57.6327L153.452 45.9208Z" fill="black" fill-opacity="0.85"/>
</g>
<defs>
<clipPath id="clip0_2306_6163">
<rect width="200" height="90" fill="white"/>
</clipPath>
</defs>
</svg>
