<svg width="200" height="90" viewBox="0 0 200 90" fill="none" xmlns="http://www.w3.org/2000/svg">
<g clip-path="url(#clip0_1720_2106)">
<rect width="200" height="90" fill="#FEB79D"/>
<path fill-rule="evenodd" clip-rule="evenodd" d="M-6.18027 85.5257C-5.5206 81.3514 -9.94765 77.2571 -7.65473 73.2393C-4.94813 68.4966 -1.65241 61.9915 7.77154 61.0783C17.9972 60.0873 23.5998 68.8258 33.9785 69.2048C45.8176 69.6371 56.5881 60.196 66.8872 63.2371C76.2425 65.9996 70.121 74.0119 68.9752 79.5387C68.1676 83.4341 61.5364 86.4306 61.2669 90.3457C60.8502 96.3973 75.7689 103.853 67.0229 107.895C58.3557 111.9 45.7383 103.802 34.2527 102.83C27.3162 102.243 20.5655 103.925 13.6182 103.373C4.65786 102.66 -7.2514 103.227 -11.7526 99.1698C-16.3208 95.0519 -6.92748 90.2539 -6.18027 85.5257Z" fill="#FE585B"/>
<path fill-rule="evenodd" clip-rule="evenodd" d="M28.4743 10.5302C32.6486 10.8717 36.7429 8.58004 40.7607 9.76696C45.5034 11.168 52.0085 12.874 52.9217 17.7523C53.9127 23.0456 45.1742 25.9458 44.7952 31.3183C44.3629 37.4467 53.804 43.0221 50.7629 48.3534C48.0004 53.1961 39.9881 50.0274 34.4613 49.4342C30.5659 49.0162 27.5694 45.5836 23.6543 45.444C17.6027 45.2284 10.1469 52.9509 6.10508 48.4236C2.09968 43.9371 10.1975 37.4057 11.1701 31.4602C11.7575 27.8695 10.0747 24.3751 10.6274 20.7788C11.3402 16.1405 10.7727 9.97575 14.8302 7.64571C18.9481 5.281 23.7461 10.1434 28.4743 10.5302Z" fill="#FC7443"/>
<path fill-rule="evenodd" clip-rule="evenodd" d="M173.474 4.53021C177.649 4.87169 181.743 2.58004 185.761 3.76696C190.503 5.16803 197.008 6.87405 197.922 11.7523C198.913 17.0456 190.174 19.9458 189.795 25.3183C189.363 31.4467 198.804 37.0221 195.763 42.3534C193 47.1961 184.988 44.0274 179.461 43.4342C175.566 43.0162 172.569 39.5836 168.654 39.444C162.603 39.2284 155.147 46.9509 151.105 42.4236C147.1 37.9371 155.198 31.4057 156.17 25.4602C156.757 21.8695 155.075 18.3751 155.627 14.7788C156.34 10.1405 155.773 3.97575 159.83 1.64571C163.948 -0.719004 168.746 4.14342 173.474 4.53021Z" fill="#FF8787"/>
<path fill-rule="evenodd" clip-rule="evenodd" d="M117.063 7.20494C131.49 7.9797 144.155 11.9054 154.996 17.5775C166.733 23.7188 176.896 30.8598 179.688 39.9711C183.097 51.0949 184.354 63.7453 171.749 72.2549C158.691 81.0707 136.857 81.4742 117.063 82.2497C95.2362 83.1048 71.8992 84.7511 54.6033 76.8446C35.6156 68.1646 20.8565 53.9771 24.5773 39.9711C28.0889 26.7526 52.1053 19.9805 71.5388 13.0955C85.3864 8.18958 100.98 6.34119 117.063 7.20494Z" fill="#FFAB7A"/>
<ellipse cx="177.987" cy="70.7269" rx="16.7876" ry="14.0511" fill="#F55A57"/>
<ellipse cx="173.711" cy="65.6395" rx="1.21537" ry="2.15126" fill="black"/>
<ellipse cx="182.286" cy="65.6395" rx="1.21537" ry="2.15126" fill="black"/>
<path d="M173.043 72.6445C173.079 74.5722 175.312 76.0937 178.031 76.0428C180.749 75.9919 182.924 74.388 182.888 72.4603C182.852 70.5326 180.67 71.7825 177.952 71.8334C175.233 71.8843 173.007 70.7168 173.043 72.6445Z" fill="black"/>
<path d="M170.796 50.9035C173.677 48.6452 180.1 51.1915 180.1 55.0219C180.101 59.542 168.086 61.6232 165.801 61.9782C165.552 62.0169 165.303 62.044 165.054 62.039C163.425 62.0062 157.615 61.2375 170.796 50.9035Z" fill="#6E5232"/>
<path d="M170.796 50.9035C173.677 48.6452 180.1 51.1915 180.1 55.0219C180.101 59.542 168.086 61.6232 165.801 61.9782C165.552 62.0169 165.303 62.044 165.054 62.039C163.425 62.0062 157.615 61.2375 170.796 50.9035Z" fill="url(#paint0_radial_1720_2106)" fill-opacity="0.15"/>
<path d="M185.2 50.7629C182.319 48.5045 175.896 51.0509 175.896 54.8813C175.896 59.4014 187.91 61.4825 190.195 61.8375C190.445 61.8763 190.693 61.9034 190.942 61.8984C192.571 61.8656 198.381 61.0968 185.2 50.7629Z" fill="#6E5232"/>
<path d="M185.2 50.7629C182.319 48.5045 175.896 51.0509 175.896 54.8813C175.896 59.4014 187.91 61.4825 190.195 61.8375C190.445 61.8763 190.693 61.9034 190.942 61.8984C192.571 61.8656 198.381 61.0968 185.2 50.7629Z" fill="url(#paint1_radial_1720_2106)" fill-opacity="0.15"/>
<path d="M67.3887 36.2917C67.022 36.2931 66.838 36.1104 66.8366 35.7437L66.8147 29.8438C66.8134 29.4771 66.996 29.2931 67.3627 29.2917L67.4127 29.2916C67.7794 29.2902 67.9634 29.4729 67.9647 29.8395L67.973 32.0695L71.153 32.0577L71.1447 29.8277C71.1434 29.4611 71.3293 29.277 71.7027 29.2757L71.7627 29.2754C72.1293 29.2741 72.3134 29.4567 72.3147 29.8234L72.3366 35.7234C72.3379 36.09 72.1553 36.274 71.7886 36.2754L71.7286 36.2756C71.3553 36.277 71.1679 36.0944 71.1666 35.7277L71.157 33.1277L67.977 33.1395L67.9866 35.7395C67.988 36.1061 67.8053 36.2902 67.4387 36.2915L67.3887 36.2917ZM76.0227 36.2597C75.6293 36.2612 75.4319 36.0652 75.4305 35.6719L75.4107 30.3319L73.8907 30.3376C73.4974 30.339 73.3 30.1631 73.2987 29.8098C73.2974 29.4498 73.4934 29.269 73.8867 29.2676L78.0767 29.252C78.4767 29.2506 78.6774 29.4298 78.6787 29.7898C78.68 30.1431 78.4807 30.3205 78.0807 30.322L76.5807 30.3276L76.6005 35.6676C76.6019 36.0609 76.4093 36.2583 76.0227 36.2597ZM80.2604 36.244C79.8737 36.2454 79.6796 36.0495 79.6782 35.6561L79.6566 29.8362C79.6558 29.6095 79.7119 29.456 79.8249 29.3756C79.9446 29.2884 80.1178 29.2445 80.3444 29.2436C80.6511 29.2425 80.8849 29.375 81.0459 29.641L82.8269 32.5945L84.5659 29.638C84.6586 29.471 84.7649 29.3606 84.8847 29.3068C85.0111 29.253 85.1744 29.2257 85.3744 29.225C85.7677 29.2235 85.9651 29.4195 85.9666 29.8128L85.9881 35.6328C85.9896 36.0261 85.7937 36.2235 85.4003 36.2249C85.007 36.2264 84.8096 36.0305 84.8081 35.6371L84.7918 31.2372L83.3909 33.6824C83.2519 33.9562 83.0624 34.0936 82.8224 34.0945C82.5824 34.0954 82.3919 33.9594 82.2509 33.6866L80.8219 31.2519L80.8382 35.6518C80.8396 36.0452 80.647 36.2426 80.2604 36.244ZM87.9949 36.2153C87.6016 36.2168 87.4042 36.0208 87.4027 35.6275L87.3812 29.8076C87.3797 29.4142 87.569 29.2169 87.949 29.2154C88.3356 29.214 88.5297 29.41 88.5312 29.8033L88.5509 35.1433L91.6109 35.1319C92.0043 35.1305 92.2016 35.3064 92.2029 35.6597C92.2042 36.0197 92.0082 36.2004 91.6149 36.2019L87.9949 36.2153ZM94.6182 36.2508C93.9849 36.2531 93.4407 36.0351 92.9858 35.5968C92.8386 35.4574 92.7747 35.3176 92.7942 35.1775C92.8137 35.0308 92.8966 34.9138 93.0429 34.8266C93.1959 34.7327 93.3325 34.7022 93.4526 34.7351C93.5727 34.7613 93.7063 34.8308 93.8534 34.9436C93.9604 35.0299 94.0773 35.0994 94.2041 35.1523C94.331 35.2052 94.4678 35.2313 94.6144 35.2308C94.9878 35.2294 95.2674 35.1184 95.4532 34.8977C95.6457 34.6703 95.7412 34.3566 95.7397 33.9566C95.7381 33.5233 95.6536 33.2102 95.4862 33.0175C95.3255 32.8181 95.0985 32.719 94.8051 32.7201C94.7051 32.7204 94.6085 32.7375 94.5153 32.7711C94.4288 32.7981 94.3489 32.8351 94.2757 32.882C94.1427 32.9558 94.0263 33.0296 93.9265 33.1033C93.8268 33.1704 93.7003 33.2042 93.5469 33.2047C93.1803 33.2061 92.9962 33.0101 92.9947 32.6168L92.9842 29.7868C92.9828 29.3935 93.1821 29.196 93.5821 29.1946L95.952 29.1858C96.3454 29.1843 96.5426 29.3469 96.5439 29.6736C96.5451 30.0003 96.349 30.1643 95.9557 30.1658L94.0557 30.1728L94.0625 32.0128C94.1755 31.9324 94.2986 31.8686 94.4318 31.8214C94.5649 31.7676 94.6982 31.7404 94.8315 31.74C95.2048 31.7386 95.5385 31.8207 95.8324 31.9862C96.133 32.1518 96.3706 32.3976 96.5452 32.7236C96.7264 33.0496 96.8179 33.4593 96.8197 33.9526C96.8224 34.6793 96.6212 35.2433 96.216 35.6448C95.8108 36.0464 95.2782 36.2483 94.6182 36.2508ZM102.781 37.0705C102.628 37.0711 102.494 37.0183 102.381 36.912C102.274 36.8124 102.22 36.6793 102.219 36.5126L102.212 34.5526C102.04 34.7999 101.857 35.0439 101.665 35.2846C101.472 35.5254 101.3 35.7227 101.147 35.8766C101.041 35.9836 100.914 36.0474 100.768 36.068C100.621 36.0885 100.491 36.0457 100.377 35.9394C100.277 35.8465 100.223 35.7367 100.216 35.61C100.209 35.4767 100.252 35.3666 100.345 35.2795C100.497 35.1323 100.667 34.9517 100.853 34.7377C101.045 34.5236 101.228 34.3063 101.4 34.0856C101.579 33.8583 101.729 33.6611 101.848 33.494L100.958 33.4973C100.811 33.4978 100.691 33.4516 100.598 33.3586C100.504 33.2656 100.457 33.1491 100.456 33.0091C100.456 32.8758 100.502 32.7623 100.595 32.6686C100.688 32.5683 100.808 32.5178 100.954 32.5173L102.204 32.5126L102.202 31.8326L100.742 31.838C100.595 31.8386 100.478 31.7957 100.391 31.7093C100.311 31.6163 100.271 31.5065 100.27 31.3798C100.27 31.2465 100.309 31.1363 100.389 31.0493C100.475 30.9557 100.592 30.9086 100.738 30.9081L101.478 30.9053C101.431 30.7921 101.384 30.679 101.337 30.5658C101.297 30.446 101.266 30.3561 101.246 30.2962C101.199 30.163 101.202 30.043 101.255 29.9361C101.308 29.8226 101.398 29.7489 101.524 29.7151L101.554 29.705L100.944 29.7073C100.804 29.7078 100.691 29.6649 100.604 29.5785C100.523 29.4855 100.483 29.3757 100.482 29.249C100.482 29.1223 100.521 29.0155 100.601 28.9285C100.687 28.8349 100.801 28.7878 100.941 28.7873L102.161 28.7828L102.158 28.1928C102.158 28.0394 102.211 27.9126 102.317 27.8122C102.43 27.7118 102.57 27.6612 102.736 27.6606C102.91 27.66 103.05 27.7095 103.157 27.8091C103.271 27.9086 103.328 28.0351 103.328 28.1884L103.331 28.7784L104.531 28.774C104.677 28.7734 104.791 28.8197 104.871 28.9127C104.951 28.9991 104.992 29.1056 104.992 29.2323C104.993 29.3589 104.953 29.4691 104.874 29.5627C104.794 29.6497 104.681 29.6934 104.534 29.694L103.974 29.6961C104.107 29.7356 104.198 29.8119 104.245 29.925C104.299 30.0315 104.302 30.1515 104.256 30.285C104.23 30.3518 104.193 30.4419 104.147 30.5554C104.108 30.6689 104.061 30.7824 104.008 30.8959L104.688 30.8934C104.835 30.8929 104.949 30.9391 105.029 31.0322C105.109 31.1185 105.15 31.2284 105.15 31.3617C105.151 31.4884 105.111 31.5985 105.031 31.6921C104.952 31.7791 104.839 31.8229 104.692 31.8234L103.312 31.8285L103.314 32.5085L104.444 32.5043C104.598 32.5038 104.718 32.5533 104.805 32.653C104.899 32.746 104.946 32.8591 104.946 32.9925C104.947 33.1325 104.9 33.2493 104.808 33.343C104.721 33.4366 104.601 33.4838 104.448 33.4843L103.428 33.4881C103.515 33.5811 103.629 33.694 103.769 33.8268C103.916 33.9596 104.064 34.0891 104.211 34.2152C104.365 34.3346 104.488 34.4275 104.582 34.4938C104.689 34.5801 104.746 34.6932 104.753 34.8332C104.767 34.9731 104.727 35.0933 104.634 35.1936C104.535 35.3007 104.418 35.3578 104.285 35.3649C104.152 35.3654 104.031 35.3192 103.924 35.2263C103.764 35.0735 103.563 34.8743 103.322 34.6285L103.329 36.5085C103.33 36.6752 103.277 36.8087 103.171 36.9091C103.064 37.0161 102.935 37.07 102.781 37.0705ZM107.881 37.0216C107.728 37.0222 107.594 36.9693 107.481 36.8631C107.367 36.7569 107.31 36.6171 107.309 36.4437L107.292 31.9638L106.462 31.9668C106.46 33.0135 106.356 33.9073 106.152 34.648C105.948 35.3821 105.624 36.0466 105.18 36.6416C105.074 36.7754 104.934 36.8559 104.761 36.8832C104.594 36.9171 104.441 36.8877 104.3 36.7949C104.18 36.7087 104.106 36.5889 104.079 36.4357C104.058 36.2891 104.095 36.1623 104.188 36.0553C104.466 35.7209 104.688 35.3501 104.853 34.9428C105.025 34.5289 105.147 34.0584 105.218 33.5315C105.29 32.9979 105.324 32.3877 105.321 31.7011L105.316 30.1511C105.314 29.7778 105.357 29.4809 105.442 29.2606C105.535 29.0336 105.681 28.8597 105.88 28.739C106.087 28.6115 106.356 28.5105 106.689 28.436C106.949 28.3817 107.246 28.3072 107.579 28.2127C107.918 28.1114 108.221 28.0203 108.488 27.9393C108.667 27.8786 108.827 27.8814 108.968 27.9475C109.108 28.007 109.201 28.1033 109.249 28.2365C109.303 28.3963 109.303 28.5496 109.25 28.6965C109.198 28.8367 109.091 28.9304 108.931 28.9777C108.645 29.0521 108.352 29.1265 108.052 29.2009C107.752 29.2754 107.456 29.3465 107.163 29.4142C106.89 29.4819 106.704 29.5693 106.604 29.6763C106.504 29.7833 106.455 29.9735 106.456 30.2469L106.458 30.8769L109.008 30.8674C109.175 30.8668 109.305 30.9196 109.399 31.026C109.499 31.1322 109.55 31.2621 109.55 31.4154C109.551 31.5621 109.501 31.6889 109.402 31.7959C109.309 31.903 109.179 31.9568 109.012 31.9574L108.442 31.9595L108.459 36.4395C108.46 36.6128 108.404 36.753 108.291 36.8601C108.178 36.9672 108.041 37.021 107.881 37.0216ZM102.488 30.9016L102.988 30.8997C103.041 30.7662 103.104 30.6059 103.177 30.419C103.249 30.2321 103.309 30.0785 103.355 29.9583C103.401 29.8315 103.481 29.7445 103.594 29.6975L101.874 29.7038C101.927 29.7236 101.978 29.7568 102.024 29.8033C102.078 29.8431 102.118 29.8996 102.145 29.9728C102.172 30.0261 102.206 30.1126 102.246 30.2325C102.286 30.3456 102.33 30.4655 102.377 30.592C102.424 30.7118 102.461 30.815 102.488 30.9016ZM110.864 35.0806C110.704 35.1345 110.554 35.1284 110.414 35.0622C110.274 34.9961 110.18 34.8864 110.133 34.7333C110.092 34.5801 110.105 34.44 110.171 34.3131C110.237 34.1795 110.354 34.0891 110.52 34.0418C110.613 34.0148 110.713 33.9844 110.82 33.9507C110.933 33.9103 111.053 33.8698 111.179 33.8294L111.17 31.2394L110.62 31.2414C110.473 31.242 110.35 31.1924 110.249 31.0928C110.149 30.9865 110.098 30.86 110.098 30.7134C110.097 30.5667 110.147 30.4432 110.246 30.3428C110.346 30.2358 110.469 30.182 110.616 30.1814L111.166 30.1794L111.159 28.3794C111.159 28.2327 111.208 28.1092 111.308 28.0089C111.414 27.9085 111.537 27.858 111.677 27.8575C111.824 27.8569 111.947 27.9065 112.048 28.0061C112.155 28.1057 112.209 28.2289 112.209 28.3755L112.216 30.1755L112.656 30.1739C112.689 30.1738 112.719 30.177 112.746 30.1835C112.773 30.1901 112.799 30.2 112.826 30.2132L112.856 30.1831C113.009 30.0359 113.178 29.8519 113.364 29.6312C113.556 29.4039 113.739 29.1732 113.911 28.9392C114.084 28.7052 114.223 28.5014 114.329 28.3277C114.402 28.1941 114.508 28.117 114.648 28.0965C114.795 28.0693 114.925 28.0921 115.038 28.165C115.152 28.2313 115.226 28.3277 115.259 28.4542C115.293 28.5808 115.27 28.7108 115.191 28.8445C115.091 28.9915 114.975 29.1619 114.843 29.3558C114.71 29.5429 114.568 29.7335 114.415 29.9274C114.615 29.8866 114.858 29.8657 115.145 29.8646L117.355 29.8565C117.428 29.8562 117.498 29.8559 117.565 29.8557C117.631 29.8554 117.698 29.8619 117.765 29.8749C117.537 29.6224 117.35 29.3865 117.202 29.167C117.122 29.0473 117.048 28.9609 116.981 28.9078C116.921 28.8547 116.848 28.8217 116.761 28.8087C116.674 28.7956 116.554 28.7894 116.401 28.79L115.941 28.7917C115.821 28.7921 115.717 28.7459 115.63 28.6528C115.543 28.5532 115.499 28.4433 115.499 28.3233C115.499 28.2033 115.541 28.0965 115.628 28.0028C115.714 27.9025 115.817 27.8521 115.937 27.8517L116.427 27.8499C116.774 27.8486 117.044 27.8709 117.237 27.9169C117.431 27.9628 117.591 28.0489 117.718 28.1751C117.852 28.2946 117.996 28.4707 118.15 28.7035C118.251 28.8565 118.382 29.0193 118.542 29.192C118.71 29.3648 118.883 29.5341 119.064 29.7001C119.251 29.8594 119.422 30.0021 119.576 30.1282C119.689 30.2145 119.75 30.3342 119.757 30.4876C119.771 30.6408 119.728 30.7743 119.629 30.888C119.542 30.995 119.432 31.0588 119.299 31.0793C119.173 31.0997 119.049 31.0769 118.929 31.0106C118.936 31.0706 118.939 31.1339 118.94 31.2006C118.947 31.2672 118.95 31.3372 118.95 31.4106C118.952 31.8105 118.903 32.1241 118.804 32.3511C118.711 32.5781 118.549 32.7387 118.316 32.8329C118.089 32.9271 117.773 32.9749 117.366 32.9764L115.156 32.9846C114.75 32.9861 114.429 32.9407 114.196 32.8482C113.962 32.7557 113.798 32.5963 113.704 32.37C113.61 32.1437 113.562 31.8305 113.56 31.4305C113.56 31.3172 113.563 31.2172 113.569 31.1305C113.576 31.0371 113.585 30.9471 113.598 30.8604C113.439 31.001 113.269 31.0449 113.089 30.9923C113.042 31.0591 112.983 31.116 112.909 31.1629C112.836 31.2099 112.753 31.2335 112.66 31.2339L112.22 31.2355L112.228 33.4855C112.335 33.4518 112.435 33.4214 112.528 33.3944C112.621 33.3607 112.704 33.3304 112.777 33.3034C112.924 33.2496 113.057 33.2557 113.177 33.322C113.298 33.3882 113.378 33.4879 113.419 33.6211C113.459 33.7676 113.45 33.9043 113.39 34.0312C113.331 34.1514 113.224 34.2385 113.071 34.2924C112.951 34.3328 112.795 34.3901 112.602 34.4641C112.409 34.5315 112.202 34.6056 111.983 34.6864C111.763 34.7672 111.553 34.8447 111.353 34.9187C111.154 34.9861 110.991 35.0401 110.864 35.0806ZM115.68 36.8027C115.254 36.8043 114.92 36.7589 114.68 36.6664C114.44 36.5806 114.269 36.4313 114.168 36.2183C114.067 36.012 114.016 35.7322 114.015 35.3789L114.013 34.7589C114.012 34.4055 114.06 34.1254 114.16 33.9183C114.259 33.7113 114.428 33.564 114.668 33.4764C114.908 33.3822 115.241 33.3343 115.668 33.3327L116.848 33.3284C117.268 33.3268 117.598 33.3722 117.838 33.4647C118.078 33.5505 118.249 33.6965 118.35 33.9028C118.457 34.1091 118.511 34.3889 118.513 34.7422L118.515 35.3622C118.516 35.7155 118.464 35.9957 118.358 36.2028C118.259 36.4165 118.09 36.5671 117.85 36.6547C117.61 36.7489 117.28 36.7968 116.86 36.7983L115.68 36.8027ZM116.703 32.1389L117.303 32.1367C117.616 32.1355 117.813 32.0881 117.893 31.9945C117.979 31.9008 118.022 31.7073 118.02 31.414C118.019 31.1207 117.975 30.9275 117.888 30.8345C117.808 30.7348 117.611 30.6855 117.298 30.6867L116.698 30.6889L116.703 32.1389ZM115.203 32.1444L115.793 32.1423L115.788 30.6923L115.198 30.6945C114.891 30.6956 114.695 30.743 114.608 30.8366C114.529 30.9303 114.489 31.1271 114.49 31.4271C114.491 31.6271 114.508 31.7804 114.542 31.8869C114.576 31.9868 114.643 32.0565 114.743 32.0962C114.85 32.1291 115.003 32.1452 115.203 32.1444ZM115.677 35.9427L116.857 35.9383C117.084 35.9375 117.244 35.9069 117.337 35.8466C117.437 35.7862 117.49 35.6627 117.496 35.476L115.036 35.4851C115.05 35.6717 115.103 35.7948 115.197 35.8545C115.29 35.9141 115.451 35.9436 115.677 35.9427ZM115.032 34.6351L117.492 34.626C117.478 34.4527 117.421 34.3362 117.321 34.2766C117.227 34.2103 117.071 34.1775 116.851 34.1784L115.671 34.1827C115.451 34.1835 115.291 34.2175 115.191 34.2845C115.098 34.3449 115.045 34.4617 115.032 34.6351ZM115.473 32.0434C115.373 32.0905 115.266 32.1009 115.153 32.0746C115.046 32.0484 114.966 31.982 114.912 31.8755C114.879 31.8023 114.838 31.7225 114.791 31.636C114.744 31.5495 114.694 31.463 114.64 31.3765C114.587 31.2834 114.576 31.1834 114.609 31.0766C114.649 30.9698 114.722 30.8929 114.828 30.8458C114.941 30.7921 115.048 30.7817 115.148 30.8146C115.255 30.8409 115.339 30.9106 115.399 31.0237C115.433 31.0903 115.476 31.1734 115.53 31.2732C115.59 31.3663 115.634 31.4428 115.661 31.5027C115.714 31.6092 115.722 31.7125 115.682 31.8127C115.649 31.9128 115.579 31.9897 115.473 32.0434ZM117.013 32.0377C116.913 31.9848 116.842 31.9084 116.802 31.8085C116.768 31.7086 116.774 31.6053 116.821 31.4984C116.854 31.4383 116.897 31.3615 116.95 31.268C117.003 31.1678 117.049 31.0843 117.089 31.0174C117.142 30.9039 117.222 30.8336 117.328 30.8066C117.441 30.7728 117.551 30.7824 117.658 30.8353C117.758 30.8816 117.825 30.9581 117.859 31.0646C117.9 31.1711 117.893 31.2711 117.84 31.3647C117.794 31.4515 117.748 31.5383 117.701 31.6252C117.655 31.712 117.612 31.7922 117.572 31.8657C117.526 31.9725 117.446 32.0395 117.333 32.0666C117.22 32.0936 117.113 32.084 117.013 32.0377ZM125.212 31.9473C124.652 31.9494 124.269 31.8542 124.061 31.6616C123.854 31.469 123.749 31.1361 123.748 30.6628C123.746 30.1828 123.848 29.8491 124.054 29.6616C124.26 29.4675 124.643 29.3694 125.203 29.3674L125.273 29.3671L125.271 28.8671L123.841 28.8724C123.721 28.8729 123.618 28.8332 123.531 28.7536C123.45 28.6672 123.41 28.564 123.409 28.444C123.409 28.324 123.449 28.2239 123.528 28.1436C123.615 28.0566 123.718 28.0129 123.838 28.0124L129.138 27.9928C129.258 27.9923 129.361 28.0353 129.448 28.1216C129.535 28.2013 129.579 28.3011 129.579 28.4211C129.58 28.5411 129.537 28.6446 129.451 28.7316C129.364 28.8119 129.261 28.8523 129.141 28.8528L127.671 28.8582L127.673 29.3582L127.783 29.3578C128.343 29.3557 128.727 29.451 128.934 29.6435C129.141 29.8294 129.246 30.1624 129.248 30.6424C129.249 31.1157 129.147 31.4494 128.941 31.6435C128.735 31.8376 128.352 31.9357 127.792 31.9378L125.212 31.9473ZM122.091 36.9989C121.945 36.9995 121.821 36.9533 121.721 36.8603C121.627 36.7673 121.58 36.6442 121.579 36.4908L121.567 33.1009C121.467 33.3079 121.372 33.5049 121.279 33.6919C121.186 33.8723 121.097 34.0293 121.011 34.1629C120.938 34.2899 120.828 34.3703 120.682 34.4042C120.535 34.4314 120.402 34.4052 120.281 34.3256C120.161 34.2528 120.091 34.153 120.07 34.0264C120.056 33.8931 120.083 33.7664 120.149 33.6461C120.261 33.4657 120.384 33.2486 120.516 32.9948C120.655 32.7409 120.791 32.4771 120.923 32.2032C121.056 31.9228 121.178 31.6523 121.29 31.3919C121.403 31.1315 121.492 30.9011 121.558 30.7009L121.557 30.5809L120.597 30.5844C120.471 30.5849 120.357 30.5387 120.257 30.4457C120.163 30.346 120.116 30.2329 120.116 30.1062C120.115 29.9729 120.161 29.8594 120.254 29.7657C120.354 29.672 120.467 29.6249 120.594 29.6244L121.554 29.6209L121.548 28.1509C121.548 27.9976 121.594 27.8741 121.687 27.7804C121.787 27.6867 121.91 27.6396 122.056 27.639C122.196 27.6385 122.317 27.6847 122.417 27.7777C122.517 27.8706 122.568 27.9938 122.568 28.1471L122.574 29.6171L123.234 29.6147C123.367 29.6142 123.481 29.6604 123.574 29.7534C123.668 29.8464 123.715 29.9595 123.716 30.0929C123.716 30.2195 123.67 30.3331 123.577 30.4334C123.484 30.5271 123.371 30.5742 123.237 30.5747L122.577 30.5771L122.579 31.0971C122.64 31.1769 122.723 31.2866 122.831 31.4262C122.938 31.5591 123.048 31.702 123.162 31.8549C123.283 32.0012 123.397 32.1407 123.504 32.2737C123.611 32.4 123.698 32.4996 123.765 32.5727C123.858 32.6724 123.896 32.7889 123.876 32.9223C123.857 33.049 123.797 33.1593 123.697 33.253C123.591 33.3467 123.468 33.3872 123.328 33.3743C123.194 33.3615 123.084 33.3019 122.997 33.1956C122.95 33.1224 122.89 33.036 122.816 32.9362C122.742 32.8365 122.665 32.7301 122.585 32.6171L122.599 36.4871C122.6 36.6404 122.55 36.7639 122.451 36.8576C122.351 36.9513 122.231 36.9984 122.091 36.9989ZM125.671 36.9157C125.518 36.9162 125.391 36.8734 125.29 36.7871C125.197 36.7074 125.146 36.591 125.139 36.4376C125.132 36.3043 125.172 36.1875 125.258 36.0872C125.344 35.9869 125.457 35.9298 125.597 35.9159C125.757 35.902 125.86 35.875 125.907 35.8348C125.96 35.7879 125.986 35.6912 125.986 35.5445L125.982 34.3945L123.882 34.4023C123.768 34.4027 123.668 34.3598 123.581 34.2734C123.501 34.187 123.46 34.0872 123.46 33.9739C123.46 33.8539 123.499 33.7537 123.579 33.6734C123.665 33.5864 123.765 33.5427 123.878 33.5423L129.128 33.5228C129.242 33.5224 129.339 33.5654 129.419 33.6518C129.506 33.7314 129.549 33.8313 129.55 33.9513C129.55 34.0646 129.507 34.1648 129.421 34.2518C129.341 34.3387 129.245 34.3824 129.132 34.3828L127.032 34.3906L127.036 35.6906C127.038 36.1373 126.933 36.451 126.72 36.6318C126.514 36.8192 126.164 36.9139 125.671 36.9157ZM124.377 33.1605C124.264 33.1609 124.163 33.1179 124.076 33.0316C123.996 32.9452 123.956 32.8453 123.955 32.732C123.955 32.6187 123.995 32.5219 124.074 32.4416C124.161 32.3546 124.26 32.3109 124.374 32.3105L128.574 32.2949C128.687 32.2945 128.784 32.3374 128.864 32.4238C128.951 32.5035 128.995 32.6 128.995 32.7133C128.996 32.8267 128.953 32.9268 128.866 33.0138C128.787 33.1008 128.69 33.1445 128.577 33.1449L124.377 33.1605ZM128.729 36.3843C128.622 36.3114 128.492 36.2152 128.338 36.0958C128.191 35.983 128.04 35.8602 127.887 35.7275C127.739 35.5947 127.609 35.4752 127.495 35.3689C127.401 35.2759 127.351 35.1628 127.344 35.0295C127.343 34.8895 127.39 34.7726 127.483 34.6789C127.576 34.5786 127.685 34.5215 127.812 34.5077C127.945 34.4939 128.065 34.5335 128.172 34.6264C128.266 34.6994 128.386 34.7956 128.534 34.9151C128.681 35.0345 128.828 35.1506 128.975 35.2634C129.129 35.3762 129.256 35.4657 129.356 35.532C129.469 35.6049 129.533 35.7114 129.547 35.8513C129.567 35.9846 129.541 36.108 129.468 36.2216C129.389 36.3486 129.279 36.4256 129.139 36.4528C128.999 36.4867 128.863 36.4638 128.729 36.3843ZM124.159 36.3813C124.033 36.4684 123.896 36.4989 123.749 36.4728C123.603 36.4533 123.482 36.3805 123.388 36.2541C123.315 36.1411 123.288 36.0178 123.307 35.8844C123.333 35.7443 123.403 35.6374 123.516 35.5637C123.616 35.4966 123.739 35.4095 123.885 35.3023C124.031 35.1884 124.177 35.0712 124.324 34.9507C124.47 34.8301 124.589 34.7263 124.682 34.6393C124.782 34.5456 124.902 34.5052 125.042 34.518C125.182 34.5308 125.296 34.5871 125.383 34.6867C125.476 34.7931 125.523 34.9129 125.524 35.0462C125.524 35.1729 125.475 35.2831 125.375 35.3768C125.289 35.4638 125.173 35.5709 125.026 35.6981C124.88 35.8186 124.727 35.9425 124.568 36.0698C124.415 36.1903 124.279 36.2942 124.159 36.3813ZM126.199 31.1237L126.759 31.1216L126.756 30.1816L126.196 30.1837L126.199 31.1237ZM127.679 31.1182L127.779 31.1178C127.986 31.1171 128.123 31.0832 128.189 31.0163C128.255 30.9494 128.288 30.8259 128.288 30.6459C128.287 30.4593 128.253 30.3361 128.186 30.2763C128.119 30.2099 127.983 30.1771 127.776 30.1778L127.676 30.1782L127.679 31.1182ZM125.229 31.1273L125.279 31.1271L125.276 30.1871L125.226 30.1873C125.019 30.188 124.879 30.2219 124.806 30.2888C124.74 30.3491 124.707 30.4725 124.708 30.6592C124.708 30.8392 124.742 30.9624 124.809 31.0288C124.883 31.0952 125.023 31.128 125.229 31.1273ZM126.193 29.3637L126.753 29.3616L126.751 28.8616L126.191 28.8637L126.193 29.3637ZM135.931 36.8477C135.804 36.9348 135.665 36.982 135.511 36.9892C135.358 37.0031 135.224 36.9436 135.111 36.8107C135.05 36.7376 135.013 36.6577 135 36.5711C134.986 36.4845 134.992 36.4011 135.019 36.321C134.712 36.3622 134.372 36.4034 133.999 36.4448C133.633 36.4862 133.259 36.5242 132.88 36.559C132.5 36.6004 132.133 36.6384 131.78 36.673C131.434 36.7077 131.124 36.7388 130.85 36.7665C130.717 36.7736 130.6 36.7407 130.5 36.6678C130.4 36.5948 130.343 36.485 130.329 36.3384C130.322 36.1984 130.361 36.085 130.448 35.998C130.534 35.9043 130.64 35.8539 130.767 35.8468C130.927 35.8329 131.1 35.8189 131.287 35.8049C131.48 35.7908 131.68 35.7767 131.887 35.7626L131.885 35.3026L130.755 35.3068C130.668 35.3071 130.595 35.2774 130.535 35.2176C130.474 35.1512 130.444 35.0746 130.444 34.988C130.443 34.9013 130.473 34.8279 130.533 34.7676C130.593 34.7074 130.666 34.6772 130.753 34.6768L131.883 34.6726L131.882 34.3726L130.752 34.3768C130.665 34.3772 130.591 34.3474 130.531 34.2876C130.471 34.2279 130.441 34.1546 130.44 34.068C130.44 33.9746 130.47 33.8979 130.53 33.8377C130.589 33.7774 130.663 33.7472 130.749 33.7468L131.879 33.7426L131.878 33.4426L130.748 33.4468C130.661 33.4472 130.588 33.4174 130.528 33.3577C130.468 33.2979 130.437 33.2247 130.437 33.138C130.437 33.0447 130.466 32.9679 130.526 32.9077C130.586 32.8474 130.659 32.8172 130.746 32.8168L131.876 32.8127L131.875 32.5227L130.635 32.5273C130.528 32.5276 130.435 32.488 130.354 32.4083C130.274 32.3286 130.234 32.2354 130.233 32.1287C130.233 32.0154 130.272 31.9186 130.352 31.8383C130.432 31.758 130.525 31.7177 130.632 31.7173L130.982 31.716C130.895 31.6496 130.844 31.5565 130.831 31.4365C130.817 31.3166 130.846 31.2131 130.919 31.1262C131.019 31.0125 131.125 30.8788 131.238 30.725C131.351 30.5646 131.457 30.4042 131.556 30.2438C131.662 30.0768 131.748 29.9298 131.815 29.8029C131.874 29.6893 131.964 29.619 132.084 29.5919C132.204 29.5581 132.317 29.5677 132.424 29.6206C132.537 29.6735 132.614 29.7566 132.655 29.8697C132.695 29.9829 132.686 30.0963 132.626 30.2099C132.613 30.2366 132.596 30.2666 132.576 30.3C132.563 30.3334 132.547 30.3668 132.527 30.4002C132.614 30.4532 132.711 30.5162 132.817 30.5891C132.924 30.6554 133.005 30.7051 133.058 30.7383C133.198 30.8311 133.259 30.9608 133.239 31.1276C133.385 30.9404 133.528 30.7298 133.667 30.496C133.806 30.2555 133.922 30.0417 134.015 29.8547C134.068 29.7412 134.154 29.6675 134.274 29.6337C134.394 29.6 134.511 29.6095 134.624 29.6624C134.59 29.5292 134.613 29.4058 134.693 29.2922C134.852 29.0716 135.004 28.8177 135.15 28.5305C135.302 28.2366 135.431 27.9761 135.537 27.749C135.596 27.6155 135.69 27.5285 135.816 27.488C135.949 27.4475 136.076 27.4537 136.196 27.5066C136.33 27.5594 136.417 27.6425 136.457 27.7556C136.504 27.8688 136.501 27.9855 136.448 28.1057C136.435 28.1391 136.419 28.1758 136.399 28.2159C136.386 28.2492 136.372 28.286 136.359 28.326L138.979 28.3163C139.099 28.3158 139.199 28.3588 139.28 28.4452C139.367 28.5249 139.41 28.6247 139.411 28.7447C139.411 28.8647 139.368 28.9682 139.282 29.0552C139.202 29.1355 139.102 29.1758 138.982 29.1763L137.562 29.1816C137.576 29.2082 137.589 29.2381 137.603 29.2714C137.616 29.298 137.626 29.3213 137.633 29.3413C137.687 29.4678 137.684 29.5911 137.624 29.7113C137.565 29.8249 137.468 29.9086 137.335 29.9624C137.202 30.0096 137.072 30.0134 136.945 29.9738C136.825 29.9276 136.741 29.8413 136.694 29.7148C136.667 29.6415 136.634 29.555 136.593 29.4551C136.56 29.3486 136.526 29.2587 136.492 29.1855L135.912 29.1877C135.859 29.2879 135.803 29.3847 135.743 29.4783C135.69 29.5652 135.637 29.652 135.584 29.7389C135.511 29.8525 135.408 29.9362 135.275 29.99C135.142 30.0372 135.009 30.0277 134.875 29.9615C134.896 30.0481 134.886 30.1381 134.846 30.2316L134.797 30.3318C134.903 30.3981 135.027 30.4776 135.167 30.5704C135.308 30.6633 135.408 30.7262 135.468 30.7593C135.568 30.819 135.629 30.9087 135.649 31.0287C135.67 31.1419 135.643 31.2487 135.57 31.3489C135.497 31.4559 135.398 31.5163 135.271 31.5301C135.151 31.5372 135.038 31.5076 134.931 31.4413C134.864 31.4016 134.78 31.3452 134.68 31.2722C134.58 31.1993 134.483 31.1296 134.389 31.0633C134.263 31.2705 134.134 31.4609 134.001 31.6348C133.981 31.6615 133.958 31.6849 133.932 31.705L135.962 31.6975C135.941 31.4776 135.923 31.2476 135.909 31.0077C135.902 30.7677 135.894 30.5177 135.886 30.2578C135.886 30.0978 135.932 29.9709 136.025 29.8773C136.125 29.7836 136.248 29.7364 136.394 29.7359C136.534 29.7354 136.655 29.7816 136.755 29.8745C136.862 29.9675 136.916 30.0906 136.916 30.244C136.924 30.5106 136.932 30.7672 136.939 31.0139C136.953 31.2538 136.971 31.4804 136.992 31.6937L139.132 31.6858C139.238 31.6854 139.328 31.725 139.402 31.8048C139.482 31.8845 139.523 31.981 139.523 32.0943C139.524 32.201 139.484 32.2945 139.404 32.3747C139.331 32.455 139.241 32.4954 139.135 32.4957L138.545 32.4979C138.792 32.617 138.866 32.8101 138.767 33.0771C138.641 33.3976 138.499 33.7114 138.34 34.0187C138.181 34.326 138.006 34.6233 137.814 34.9107C137.881 35.0171 137.948 35.1235 138.015 35.2299C138.088 35.3363 138.169 35.4393 138.256 35.539C138.336 35.6387 138.403 35.6818 138.456 35.6683C138.51 35.6548 138.559 35.5846 138.606 35.4577C138.632 35.391 138.655 35.3275 138.675 35.2675C138.695 35.2007 138.718 35.1373 138.744 35.0772C138.797 34.937 138.883 34.8434 139.003 34.7962C139.13 34.7424 139.27 34.7486 139.423 34.8147C139.55 34.8676 139.634 34.9572 139.674 35.0838C139.715 35.2036 139.708 35.3303 139.656 35.4638C139.623 35.5506 139.58 35.6641 139.527 35.8043C139.474 35.9378 139.418 36.0681 139.358 36.1949C139.133 36.6624 138.858 36.9135 138.531 36.948C138.211 36.9892 137.904 36.847 137.61 36.5214C137.516 36.4151 137.425 36.3021 137.338 36.1824C137.251 36.0694 137.167 35.9497 137.087 35.8234C136.742 36.198 136.356 36.5394 135.931 36.8477ZM133.365 30.0271C133.232 30.0743 133.102 30.0781 132.975 30.0386C132.855 29.999 132.772 29.9126 132.724 29.7795C132.704 29.7196 132.671 29.6297 132.623 29.5099C132.576 29.39 132.536 29.2868 132.502 29.2003L131.812 29.2029C131.746 29.3164 131.68 29.43 131.614 29.5436C131.547 29.6505 131.481 29.7508 131.415 29.8443C131.329 29.9647 131.209 30.0451 131.056 30.0857C130.909 30.1262 130.766 30.1034 130.625 30.0173C130.518 29.9443 130.455 29.8412 130.434 29.708C130.414 29.5747 130.443 29.4579 130.523 29.3576C130.702 29.1236 130.878 28.853 131.05 28.5457C131.229 28.2317 131.374 27.9578 131.487 27.7241C131.546 27.5905 131.639 27.5068 131.766 27.473C131.899 27.4325 132.026 27.4387 132.146 27.4916C132.273 27.5445 132.357 27.6275 132.397 27.7407C132.437 27.8539 132.431 27.9739 132.378 28.1008C132.365 28.1341 132.349 28.1709 132.329 28.2109C132.309 28.251 132.289 28.2944 132.269 28.3412L134.469 28.333C134.589 28.3326 134.689 28.3755 134.77 28.4619C134.857 28.5416 134.9 28.6414 134.901 28.7614C134.901 28.8814 134.858 28.9849 134.772 29.0719C134.692 29.1522 134.592 29.1926 134.472 29.193L133.572 29.1963C133.619 29.2962 133.646 29.3627 133.653 29.396C133.707 29.5292 133.704 29.6559 133.644 29.7761C133.592 29.8896 133.499 29.9733 133.365 30.0271ZM135.786 35.6582C135.933 35.5376 136.072 35.4105 136.205 35.2766C136.344 35.1361 136.477 34.9923 136.603 34.8451C136.354 34.1994 136.168 33.4201 136.045 32.5072L134.345 32.5135L134.346 32.7835L135.486 32.7793C135.579 32.7789 135.656 32.8086 135.716 32.8684C135.776 32.9282 135.806 33.0014 135.807 33.0881C135.807 33.1748 135.777 33.2515 135.718 33.3184C135.658 33.3786 135.581 33.4089 135.488 33.4093L134.348 33.4135L134.349 33.6635L135.489 33.6593C135.582 33.6589 135.659 33.6886 135.719 33.7484C135.779 33.8082 135.81 33.8847 135.81 33.9781C135.81 34.0647 135.781 34.1382 135.721 34.1984C135.661 34.2586 135.585 34.2889 135.491 34.2893L134.351 34.2935L134.352 34.5535L135.492 34.5493C135.586 34.5489 135.662 34.5786 135.723 34.6384C135.783 34.6982 135.813 34.7714 135.813 34.8581C135.814 34.9447 135.784 35.0215 135.724 35.0884C135.664 35.1486 135.588 35.1789 135.495 35.1793L134.355 35.1835L134.356 35.5435C134.549 35.5294 134.729 35.5121 134.896 35.4915C135.062 35.4709 135.219 35.4536 135.365 35.4397C135.572 35.4256 135.712 35.4985 135.786 35.6582ZM132.896 35.6789L133.346 35.6372L133.335 32.5172L132.885 32.5189L132.896 35.6789ZM138.581 31.4278C138.481 31.5082 138.368 31.5452 138.241 31.5391C138.114 31.5262 138.007 31.4699 137.92 31.3702C137.86 31.2971 137.773 31.1975 137.659 31.0712C137.545 30.9383 137.458 30.8386 137.398 30.7722C137.318 30.6858 137.281 30.5826 137.287 30.4626C137.3 30.3425 137.353 30.2457 137.446 30.172C137.546 30.0783 137.655 30.0345 137.775 30.0408C137.896 30.047 138.002 30.0966 138.096 30.1896C138.156 30.2494 138.247 30.3424 138.367 30.4686C138.488 30.5881 138.581 30.6878 138.648 30.7675C138.742 30.8672 138.782 30.9804 138.769 31.1071C138.757 31.2338 138.694 31.3407 138.581 31.4278ZM137.339 33.7924C137.531 33.4584 137.697 33.1144 137.836 32.7606C137.888 32.6337 137.958 32.5468 138.045 32.4998L137.075 32.5034C137.109 32.7433 137.146 32.9698 137.187 33.183C137.235 33.3961 137.285 33.5993 137.339 33.7924ZM131.592 31.7137L133.242 31.7076C133.148 31.6146 133.108 31.5081 133.12 31.388C133.041 31.4683 132.944 31.5154 132.831 31.5291C132.724 31.5362 132.624 31.5065 132.531 31.4402C132.484 31.4071 132.417 31.3606 132.33 31.301C132.25 31.2346 132.17 31.1716 132.089 31.1119C132.023 31.1988 131.957 31.289 131.89 31.3826C131.831 31.4695 131.768 31.5497 131.701 31.6233C131.675 31.6634 131.638 31.6935 131.592 31.7137Z" fill="#FE585B"/>
<path d="M91.1246 58.8372C90.89 58.838 90.687 58.7641 90.5158 58.6154C90.3552 58.4667 90.2745 58.2643 90.2735 58.0083L90.2518 52.1363C89.9213 52.1802 89.6014 52.2241 89.2923 52.2679C88.983 52.3011 88.7058 52.3287 88.4606 52.351C88.2047 52.3839 87.9858 52.3367 87.804 52.2094C87.6328 52.0714 87.5361 51.8744 87.5138 51.6185C87.4916 51.3732 87.5549 51.1757 87.7036 51.0258C87.8524 50.8652 88.0547 50.7791 88.3107 50.7675C88.364 50.7673 88.4227 50.7671 88.4867 50.7669C88.5613 50.7559 88.6306 50.7503 88.6946 50.7501C88.8752 50.5361 89.0663 50.2901 89.2679 50.012C89.4802 49.7339 89.7031 49.4344 89.9366 49.1135C89.7547 48.9755 89.5408 48.8216 89.2949 48.6519C89.0488 48.4714 88.8082 48.3017 88.573 48.1425C88.3483 47.9727 88.1665 47.8454 88.0275 47.7606C87.8457 47.6332 87.7331 47.463 87.6896 47.2498C87.6462 47.0366 87.6828 46.8392 87.7995 46.6574C87.9161 46.465 88.0863 46.347 88.3101 46.3035C88.5339 46.2493 88.7421 46.2859 88.9346 46.4132L89.0628 46.4927C89.1688 46.311 89.2907 46.0919 89.4284 45.8354C89.5768 45.5681 89.7198 45.3116 89.8576 45.0658C89.9953 44.8199 90.0959 44.6275 90.1594 44.4886C90.2547 44.2856 90.4035 44.1517 90.6059 44.087C90.8083 44.0116 91.011 44.0215 91.2141 44.1167C91.4277 44.2013 91.5616 44.3448 91.6157 44.5472C91.6697 44.7497 91.6491 44.9471 91.5539 45.1395C91.4479 45.3319 91.3154 45.5617 91.1564 45.829C90.9974 46.0962 90.833 46.3635 90.6634 46.6308C90.5044 46.898 90.3612 47.1279 90.2339 47.3204C90.3516 47.4053 90.4639 47.4902 90.5709 47.5751C90.6885 47.6494 90.7901 47.7183 90.8756 47.782C91.109 47.4398 91.3212 47.119 91.5121 46.8196C91.7136 46.5096 91.878 46.2529 92.0052 46.0498C92.1218 45.8467 92.292 45.7127 92.5157 45.6479C92.7395 45.5831 92.9476 45.609 93.14 45.7256C93.3432 45.8528 93.4612 46.0284 93.494 46.2523C93.5375 46.4761 93.5009 46.6789 93.3842 46.8607C93.1721 47.1815 92.9121 47.5558 92.6044 47.9836C92.2966 48.4114 91.973 48.8553 91.6333 49.3152C91.3043 49.7644 90.9806 50.1923 90.6621 50.5988C90.9713 50.5763 91.2699 50.5486 91.5578 50.5155C91.8563 50.4824 92.1336 50.4547 92.3895 50.4324L92.1959 50.0171C92.1099 49.8361 92.1039 49.6548 92.1779 49.4732C92.2519 49.2916 92.3741 49.1631 92.5445 49.0878C92.7362 49.0018 92.9282 48.9957 93.1204 49.0697C93.3127 49.133 93.4571 49.2551 93.5538 49.4361C93.6398 49.6064 93.7473 49.83 93.8763 50.1069C94.0159 50.3731 94.1503 50.6446 94.2793 50.9214C94.4083 51.1983 94.5105 51.4272 94.5858 51.6083C94.6719 51.8106 94.6726 52.0026 94.588 52.1843C94.514 52.3659 94.3705 52.4998 94.1575 52.5859C93.9551 52.6613 93.7524 52.662 93.5495 52.5881C93.3572 52.5142 93.2287 52.3813 93.164 52.1896C93.1424 52.1256 93.1155 52.0564 93.0832 51.9819C93.0509 51.8966 93.0186 51.8168 92.9863 51.7422C92.8371 51.7641 92.6718 51.7914 92.4906 51.824C92.3094 51.8461 92.1228 51.8734 91.9309 51.9061L91.9535 58.0021C91.9545 58.2581 91.8699 58.4611 91.6998 58.611C91.5403 58.761 91.3486 58.8363 91.1246 58.8372ZM98.3388 58.3464C97.5069 58.3495 96.8505 58.2613 96.3699 58.0817C95.8892 57.9022 95.5467 57.5941 95.3424 57.1575C95.1488 56.7209 95.0506 56.1293 95.0478 55.3826C95.045 54.6253 95.1388 54.0329 95.3293 53.6055C95.5303 53.1675 95.8705 52.8569 96.3498 52.6738C96.8291 52.4906 97.4848 52.3975 98.3168 52.3945C99.1594 52.3913 99.8158 52.4796 100.286 52.6592C100.766 52.8387 101.104 53.1468 101.297 53.5834C101.501 54.0093 101.605 54.601 101.608 55.3583C101.611 56.1049 101.511 56.6973 101.31 57.1354C101.12 57.5734 100.785 57.884 100.306 58.0671C99.8372 58.2502 99.1815 58.3433 98.3388 58.3464ZM95.3047 51.3016C95.0594 51.3025 94.8618 51.2286 94.7119 51.0798C94.562 50.9204 94.4866 50.7286 94.4858 50.5046C94.4849 50.2806 94.5589 50.0937 94.7077 49.9438C94.8564 49.7833 95.0535 49.7025 95.2988 49.7016L97.3628 49.694L97.3565 48.014L94.7646 48.0236C94.5192 48.0245 94.3216 47.9452 94.1717 47.7858C94.0218 47.6263 93.9464 47.4346 93.9455 47.2106C93.9447 46.9866 94.0187 46.7943 94.1674 46.6338C94.3161 46.4732 94.5132 46.3925 94.7585 46.3916L97.3505 46.382L97.3453 44.974C97.3442 44.6967 97.4341 44.4723 97.6148 44.301C97.7955 44.1297 98.0138 44.0435 98.2698 44.0426C98.5258 44.0416 98.7448 44.1261 98.9268 44.2961C99.1087 44.4661 99.2002 44.6898 99.2013 44.9671L99.2065 46.3751L101.75 46.3657C102.006 46.3647 102.209 46.444 102.359 46.6034C102.509 46.7629 102.585 46.9546 102.585 47.1786C102.586 47.4026 102.512 47.5949 102.364 47.7554C102.215 47.916 102.013 47.9967 101.757 47.9977L99.2125 48.0071L99.2188 49.6871L101.347 49.6792C101.592 49.6783 101.79 49.7576 101.94 49.917C102.09 50.0658 102.165 50.2522 102.166 50.4762C102.167 50.7002 102.093 50.8925 101.944 51.053C101.795 51.2029 101.598 51.2783 101.353 51.2792L95.3047 51.3016ZM98.3327 56.6824C98.7273 56.681 99.0259 56.6479 99.2283 56.5831C99.4414 56.5183 99.5849 56.3898 99.6589 56.1975C99.7328 56.0052 99.7692 55.7278 99.7678 55.3651C99.7665 55.0024 99.7281 54.7306 99.6528 54.5495C99.5774 54.3578 99.4329 54.2303 99.2194 54.1671C99.0164 54.0932 98.7176 54.057 98.323 54.0584C97.7363 54.0606 97.3473 54.1527 97.156 54.3348C96.9753 54.5061 96.8859 54.8478 96.8878 55.3598C96.8891 55.7224 96.9275 55.9996 97.0029 56.1914C97.0889 56.383 97.2334 56.5158 97.4363 56.5898C97.6499 56.653 97.9487 56.6839 98.3327 56.6824ZM88.1259 57.0243C87.9229 56.9503 87.7731 56.8282 87.6765 56.6579C87.5905 56.4769 87.5898 56.2796 87.6743 56.0659C87.7695 55.8416 87.8698 55.5745 87.9754 55.2648C88.0809 54.9551 88.181 54.64 88.2759 54.3197C88.3706 53.9887 88.4442 53.7004 88.4967 53.4549C88.5492 53.2413 88.6553 53.0809 88.8149 52.9737C88.9851 52.8557 89.1716 52.8177 89.3744 52.8596C89.5666 52.9016 89.7216 53.0023 89.8396 53.1619C89.9575 53.3214 89.9902 53.5187 89.9378 53.7535C89.8854 54.0204 89.8065 54.3247 89.7011 54.6664C89.6064 55.0081 89.5063 55.3445 89.4009 55.6755C89.2954 56.0066 89.2005 56.2896 89.116 56.5246C89.0421 56.7275 88.9093 56.8774 88.7177 56.9741C88.5367 57.0707 88.3394 57.0875 88.1259 57.0243ZM94.0916 56.4101C93.8786 56.4856 93.6759 56.4757 93.4835 56.3804C93.2912 56.2851 93.1626 56.1363 93.0979 55.9338C93.0438 55.742 92.9683 55.513 92.8713 55.2467C92.785 54.9696 92.6986 54.6926 92.6122 54.4156C92.5259 54.1386 92.4557 53.9095 92.4017 53.7284C92.3369 53.5046 92.3575 53.3072 92.4635 53.1362C92.5695 52.9544 92.7237 52.8419 92.9262 52.7984C93.1287 52.7444 93.3155 52.7703 93.4865 52.8764C93.6576 52.9717 93.7755 53.126 93.8403 53.3391C93.8943 53.5309 93.9645 53.7599 94.0508 54.0263C94.1478 54.2819 94.2394 54.5376 94.3257 54.7933C94.4226 55.0382 94.5033 55.2459 94.568 55.4164C94.654 55.6187 94.6494 55.8161 94.5542 56.0084C94.4589 56.2008 94.3047 56.3347 94.0916 56.4101ZM110.341 58.8299C110.106 58.8308 109.898 58.7516 109.716 58.5922C109.545 58.4435 109.459 58.2359 109.458 57.9692L109.451 56.1292L108.715 56.1319C108.523 56.1327 108.357 56.0639 108.218 55.9258C108.089 55.7876 108.025 55.6225 108.024 55.4305C108.023 55.2385 108.087 55.0783 108.214 54.9498C108.352 54.8106 108.518 54.7407 108.71 54.74L109.446 54.7372L109.439 53.0252C109.437 52.4919 109.516 52.0703 109.675 51.7604C109.833 51.4504 110.099 51.2308 110.472 51.1014C110.845 50.9613 111.357 50.8901 112.007 50.8877L112.535 50.8857L112.533 50.2937L108.997 50.3069C108.805 50.3076 108.64 50.2442 108.5 50.1167C108.372 49.9785 108.307 49.8187 108.307 49.6374C108.306 49.4454 108.369 49.2852 108.497 49.1567C108.635 49.0175 108.8 48.9476 108.992 48.9469L110.88 48.9399L110.878 48.2839L109.79 48.2879C109.619 48.2885 109.469 48.2304 109.341 48.1136C109.223 47.986 109.164 47.8369 109.163 47.6662C109.163 47.4849 109.221 47.3353 109.338 47.2176C109.465 47.0891 109.614 47.0245 109.785 47.0239L110.873 47.0199L110.871 46.4119L109.207 46.4181C109.036 46.4187 108.886 46.3606 108.758 46.2437C108.64 46.1161 108.581 45.967 108.58 45.7964C108.58 45.615 108.638 45.4655 108.755 45.3477C108.882 45.2299 109.031 45.1707 109.202 45.1701L110.866 45.1639L110.864 44.6839C110.863 44.4279 110.943 44.2249 111.102 44.075C111.272 43.9144 111.474 43.8336 111.709 43.8328C111.944 43.8319 112.141 43.9112 112.302 44.0706C112.473 44.2193 112.559 44.4216 112.56 44.6776L112.562 45.1576L114.146 45.1517L114.144 44.6717C114.143 44.4157 114.223 44.2128 114.382 44.0629C114.552 43.9022 114.754 43.8215 114.989 43.8206C115.224 43.8197 115.421 43.899 115.582 44.0584C115.753 44.2071 115.839 44.4095 115.84 44.6655L115.842 45.1454L117.634 45.1388C117.815 45.1381 117.965 45.1962 118.083 45.3131C118.2 45.43 118.26 45.5792 118.26 45.7605C118.261 45.9312 118.203 46.0807 118.086 46.2091C117.969 46.3269 117.82 46.3861 117.639 46.3868L115.847 46.3934L115.849 47.0014L117.289 46.9961C117.47 46.9954 117.62 47.0589 117.738 47.1864C117.866 47.3033 117.931 47.4524 117.931 47.6337C117.932 47.8044 117.868 47.954 117.741 48.0824C117.624 48.2002 117.475 48.2594 117.294 48.2601L115.854 48.2654L115.856 48.9214L117.776 48.9143C117.968 48.9136 118.128 48.9823 118.257 49.1205C118.396 49.248 118.466 49.4078 118.467 49.5998C118.467 49.7811 118.399 49.9413 118.26 50.0805C118.133 50.209 117.973 50.2736 117.781 50.2743L114.213 50.2875L114.215 50.8795L114.743 50.8776C115.405 50.8751 115.922 50.9425 116.296 51.0798C116.67 51.2064 116.932 51.4241 117.082 51.7329C117.244 52.0416 117.325 52.4627 117.327 52.996L117.333 54.708L118.085 54.7052C118.277 54.7045 118.438 54.7732 118.566 54.9114C118.705 55.0389 118.775 55.1986 118.776 55.3906C118.777 55.5826 118.708 55.7482 118.57 55.8874C118.442 56.0266 118.283 56.0965 118.091 56.0972L117.339 56.1L117.34 56.596C117.343 57.3853 117.148 57.9354 116.755 58.2462C116.372 58.5676 115.743 58.7299 114.868 58.7332C114.634 58.734 114.436 58.6654 114.276 58.5273C114.126 58.3892 114.045 58.1975 114.033 57.9522C114.022 57.7069 114.091 57.5147 114.239 57.3755C114.399 57.2255 114.596 57.1448 114.83 57.1333C115.15 57.1108 115.358 57.0673 115.454 57.003C115.55 56.9279 115.597 56.7731 115.596 56.5384L115.595 56.1064L111.195 56.1228L111.202 57.9627C111.203 58.2294 111.118 58.4377 110.948 58.5877C110.788 58.7483 110.586 58.829 110.341 58.8299ZM106.501 58.8282C106.266 58.829 106.068 58.7551 105.908 58.6064C105.758 58.4576 105.683 58.2605 105.682 58.0152L105.662 52.5752C105.503 52.9065 105.349 53.2217 105.201 53.5209C105.053 53.8095 104.91 54.066 104.772 54.2905C104.655 54.4936 104.474 54.617 104.229 54.6606C103.995 54.7041 103.787 54.6675 103.605 54.5509C103.423 54.4235 103.31 54.2586 103.267 54.0561C103.234 53.8429 103.276 53.6454 103.393 53.4637C103.584 53.1856 103.785 52.8435 103.997 52.4374C104.209 52.0313 104.421 51.5985 104.632 51.139C104.854 50.6795 105.05 50.2362 105.219 49.8089C105.399 49.3815 105.542 49.013 105.647 48.7033L105.647 48.5593L104.159 48.5648C103.945 48.5656 103.758 48.4916 103.598 48.3429C103.448 48.1834 103.373 47.997 103.372 47.7837C103.371 47.5704 103.445 47.3887 103.594 47.2389C103.753 47.0889 103.94 47.0136 104.153 47.0128L105.641 47.0073L105.633 44.7513C105.632 44.506 105.706 44.3083 105.854 44.1585C106.014 44.0085 106.211 43.9331 106.445 43.9323C106.669 43.9314 106.862 44.0054 107.022 44.1541C107.183 44.3029 107.264 44.4999 107.264 44.7452L107.273 47.0012L108.249 46.9976C108.462 46.9968 108.644 47.0708 108.794 47.2196C108.944 47.3684 109.019 47.5494 109.02 47.7628C109.02 47.9761 108.947 48.163 108.798 48.3236C108.649 48.4735 108.468 48.5488 108.255 48.5496L107.279 48.5532L107.283 49.7372C107.422 49.9287 107.61 50.184 107.846 50.5031C108.092 50.8115 108.333 51.1147 108.569 51.4124C108.816 51.7102 109.009 51.9388 109.148 52.0983C109.298 52.2578 109.368 52.4495 109.358 52.6735C109.348 52.8869 109.258 53.0686 109.088 53.2185C108.918 53.3578 108.721 53.4226 108.497 53.4127C108.273 53.3922 108.091 53.2916 107.952 53.1108C107.876 53.0044 107.78 52.8714 107.662 52.7118C107.544 52.5416 107.421 52.3607 107.292 52.1692L107.314 58.0091C107.315 58.2545 107.235 58.4521 107.076 58.602C106.916 58.752 106.725 58.8273 106.501 58.8282ZM112.576 48.9336L114.16 48.9277L114.158 48.2717L112.574 48.2776L112.576 48.9336ZM112.569 47.0136L114.153 47.0077L114.151 46.3997L112.567 46.4056L112.569 47.0136ZM111.19 54.7308L112.55 54.7257L112.547 54.0377L111.187 54.0428L111.19 54.7308ZM114.23 54.7195L115.59 54.7145L115.587 54.0265L114.227 54.0315L114.23 54.7195ZM114.222 52.8155L115.582 52.8105C115.56 52.5652 115.48 52.3948 115.341 52.2994C115.212 52.2038 114.999 52.1566 114.7 52.1577L114.22 52.1595L114.222 52.8155ZM111.198 52.8267L112.542 52.8217L112.54 52.1657L112.076 52.1675C111.777 52.1686 111.559 52.2174 111.421 52.3139C111.293 52.4104 111.219 52.5813 111.198 52.8267Z" fill="black" fill-opacity="0.85"/>
</g>
<defs>
<radialGradient id="paint0_radial_1720_2106" cx="0" cy="0" r="1" gradientUnits="userSpaceOnUse" gradientTransform="translate(0.558656 46.8353) rotate(65.4889) scale(3.32531 8.21233)">
<stop offset="0.33" stop-opacity="0"/>
<stop offset="0.655" stop-opacity="0.6"/>
<stop offset="1"/>
</radialGradient>
<radialGradient id="paint1_radial_1720_2106" cx="0" cy="0" r="1" gradientUnits="userSpaceOnUse" gradientTransform="translate(355.296 45.8572) rotate(114.511) scale(3.32531 8.21233)">
<stop offset="0.33" stop-opacity="0"/>
<stop offset="0.655" stop-opacity="0.6"/>
<stop offset="1"/>
</radialGradient>
<clipPath id="clip0_1720_2106">
<rect width="200" height="90" fill="white"/>
</clipPath>
</defs>
</svg>
