<svg width="200" height="90" viewBox="0 0 200 90" fill="none" xmlns="http://www.w3.org/2000/svg">
<g clip-path="url(#clip0_1720_2034)">
<rect width="200" height="90" fill="#FEB79D"/>
<path fill-rule="evenodd" clip-rule="evenodd" d="M-6.18027 85.5257C-5.5206 81.3514 -9.94765 77.2571 -7.65473 73.2393C-4.94813 68.4966 -1.65241 61.9915 7.77154 61.0783C17.9972 60.0873 23.5998 68.8258 33.9785 69.2048C45.8176 69.6371 56.5881 60.196 66.8872 63.2371C76.2425 65.9996 70.121 74.0119 68.9752 79.5387C68.1676 83.4341 61.5364 86.4306 61.2669 90.3457C60.8502 96.3973 75.7689 103.853 67.0229 107.895C58.3557 111.9 45.7383 103.802 34.2527 102.83C27.3162 102.243 20.5655 103.925 13.6182 103.373C4.65786 102.66 -7.2514 103.227 -11.7526 99.1698C-16.3208 95.0519 -6.92748 90.2539 -6.18027 85.5257Z" fill="#FE585B"/>
<path fill-rule="evenodd" clip-rule="evenodd" d="M28.4743 10.5302C32.6486 10.8717 36.7429 8.58004 40.7607 9.76696C45.5034 11.168 52.0085 12.874 52.9217 17.7523C53.9127 23.0456 45.1742 25.9458 44.7952 31.3183C44.3629 37.4467 53.804 43.0221 50.7629 48.3534C48.0004 53.1961 39.9881 50.0274 34.4613 49.4342C30.5659 49.0162 27.5694 45.5836 23.6543 45.444C17.6027 45.2284 10.1469 52.9509 6.10508 48.4236C2.09968 43.9371 10.1975 37.4057 11.1701 31.4602C11.7575 27.8695 10.0747 24.3751 10.6274 20.7788C11.3402 16.1405 10.7727 9.97575 14.8302 7.64571C18.9481 5.281 23.7461 10.1434 28.4743 10.5302Z" fill="#FC7443"/>
<path fill-rule="evenodd" clip-rule="evenodd" d="M173.474 4.53021C177.649 4.87169 181.743 2.58004 185.761 3.76696C190.503 5.16803 197.008 6.87405 197.922 11.7523C198.913 17.0456 190.174 19.9458 189.795 25.3183C189.363 31.4467 198.804 37.0221 195.763 42.3534C193 47.1961 184.988 44.0274 179.461 43.4342C175.566 43.0162 172.569 39.5836 168.654 39.444C162.603 39.2284 155.147 46.9509 151.105 42.4236C147.1 37.9371 155.198 31.4057 156.17 25.4602C156.757 21.8695 155.075 18.3751 155.627 14.7788C156.34 10.1405 155.773 3.97575 159.83 1.64571C163.948 -0.719004 168.746 4.14342 173.474 4.53021Z" fill="#FF8787"/>
<path fill-rule="evenodd" clip-rule="evenodd" d="M117.063 7.20494C131.49 7.9797 144.155 11.9054 154.996 17.5775C166.733 23.7188 176.896 30.8598 179.688 39.9711C183.097 51.0949 184.354 63.7453 171.749 72.2549C158.691 81.0707 136.857 81.4742 117.063 82.2497C95.2362 83.1048 71.8992 84.7511 54.6033 76.8446C35.6156 68.1646 20.8565 53.9771 24.5773 39.9711C28.0889 26.7526 52.1053 19.9805 71.5388 13.0955C85.3864 8.18958 100.98 6.34119 117.063 7.20494Z" fill="#FFAB7A"/>
<ellipse cx="177.987" cy="70.7269" rx="16.7876" ry="14.0511" fill="#F55A57"/>
<ellipse cx="173.711" cy="65.6395" rx="1.21537" ry="2.15126" fill="black"/>
<ellipse cx="182.286" cy="65.6395" rx="1.21537" ry="2.15126" fill="black"/>
<path d="M173.043 72.6445C173.079 74.5722 175.312 76.0937 178.031 76.0428C180.749 75.9919 182.924 74.388 182.888 72.4603C182.852 70.5326 180.67 71.7825 177.952 71.8334C175.233 71.8843 173.007 70.7168 173.043 72.6445Z" fill="black"/>
<path d="M170.796 50.9035C173.677 48.6452 180.1 51.1915 180.1 55.0219C180.101 59.542 168.086 61.6232 165.801 61.9782C165.552 62.0169 165.303 62.044 165.054 62.039C163.425 62.0062 157.615 61.2375 170.796 50.9035Z" fill="#6E5232"/>
<path d="M170.796 50.9035C173.677 48.6452 180.1 51.1915 180.1 55.0219C180.101 59.542 168.086 61.6232 165.801 61.9782C165.552 62.0169 165.303 62.044 165.054 62.039C163.425 62.0062 157.615 61.2375 170.796 50.9035Z" fill="url(#paint0_radial_1720_2034)" fill-opacity="0.15"/>
<path d="M185.2 50.7629C182.319 48.5045 175.896 51.0509 175.896 54.8813C175.896 59.4014 187.91 61.4825 190.195 61.8375C190.445 61.8763 190.693 61.9034 190.942 61.8984C192.571 61.8656 198.381 61.0968 185.2 50.7629Z" fill="#6E5232"/>
<path d="M185.2 50.7629C182.319 48.5045 175.896 51.0509 175.896 54.8813C175.896 59.4014 187.91 61.4825 190.195 61.8375C190.445 61.8763 190.693 61.9034 190.942 61.8984C192.571 61.8656 198.381 61.0968 185.2 50.7629Z" fill="url(#paint1_radial_1720_2034)" fill-opacity="0.15"/>
<path d="M79.4556 36.8776C79.2893 36.9715 79.1227 36.9988 78.9559 36.9594C78.7958 36.92 78.6754 36.8271 78.5949 36.6807C78.5143 36.5344 78.4938 36.3944 78.5333 36.261C78.5795 36.1208 78.6757 36.0071 78.8221 35.9199C79.3077 35.6448 79.7299 35.3399 80.0887 35.0052C80.4541 34.6638 80.766 34.2927 81.0245 33.8917C80.931 33.8254 80.8107 33.7492 80.6637 33.6631C80.5167 33.5769 80.3697 33.4908 80.2227 33.4047C80.0757 33.3119 79.9488 33.2357 79.8419 33.1761C79.7756 33.2697 79.7059 33.3599 79.6329 33.4469C79.5665 33.5338 79.4969 33.624 79.4239 33.7176C79.3177 33.8447 79.188 33.9152 79.0347 33.9291C78.8814 33.943 78.7346 33.9002 78.5942 33.8007C78.4739 33.7145 78.4068 33.5947 78.3929 33.4415C78.3856 33.2882 78.4251 33.158 78.5114 33.051C78.9362 32.5494 79.2908 31.9748 79.575 31.3271C79.866 30.6793 80.0669 30.0186 80.1777 29.3448L78.9477 29.3494C78.7877 29.35 78.6608 29.3004 78.5671 29.2008C78.4734 29.1011 78.4263 28.978 78.4258 28.8313C78.4252 28.6846 78.4714 28.5611 78.5644 28.4608C78.6574 28.3605 78.7838 28.31 78.9438 28.3094L83.0238 28.2943C83.1838 28.2937 83.3107 28.3432 83.4044 28.4429C83.4981 28.5425 83.5452 28.6657 83.5457 28.8123C83.5463 28.959 83.5001 29.0825 83.4071 29.1829C83.3141 29.2832 83.1877 29.3337 83.0277 29.3343L81.3077 29.3406C81.2883 29.5074 81.2623 29.6775 81.2296 29.8509C81.1969 30.0244 81.1575 30.1979 81.1115 30.3714L81.7715 30.3689C82.3048 30.3669 82.6653 30.5023 82.853 30.7749C83.0474 31.0475 83.0921 31.4374 82.9873 31.9444C82.7582 33.0786 82.3352 34.0535 81.7182 34.8692C81.1078 35.6781 80.3536 36.3476 79.4556 36.8776ZM85.2762 37.036C85.1029 37.0366 84.956 36.9772 84.8356 36.8576C84.7218 36.738 84.6579 36.5949 84.644 36.4283C84.6367 36.255 84.6828 36.1082 84.7823 35.9878C84.8886 35.8674 85.035 35.7969 85.2216 35.7762C85.4215 35.7554 85.5747 35.7282 85.6813 35.6945C85.7878 35.6607 85.8576 35.6005 85.8906 35.5137C85.9302 35.4202 85.9498 35.2868 85.9491 35.1135L85.9245 28.4735C85.9239 28.3002 85.98 28.16 86.0929 28.0529C86.2059 27.9458 86.3423 27.892 86.5023 27.8914C86.6623 27.8908 86.7992 27.9436 86.9129 28.0498C87.0267 28.1561 87.0838 28.2959 87.0845 28.4692L87.11 35.3392C87.1122 35.9458 86.9738 36.3797 86.6948 36.6407C86.4224 36.9017 85.9496 37.0335 85.2762 37.036ZM84.3885 34.9493C84.2285 34.9498 84.0916 34.897 83.9779 34.7908C83.8708 34.6845 83.817 34.548 83.8164 34.3814L83.7979 29.3814C83.7972 29.2081 83.85 29.0712 83.9563 28.9708C84.0693 28.8637 84.2057 28.8099 84.3657 28.8093C84.5191 28.8087 84.6526 28.8616 84.7663 28.9678C84.88 29.0674 84.9372 29.2038 84.9378 29.3772L84.9564 34.3771C84.957 34.5438 84.9008 34.6807 84.7879 34.7878C84.675 34.8949 84.5418 34.9487 84.3885 34.9493ZM81.5408 32.8798C81.6003 32.7329 81.653 32.5827 81.6991 32.4292C81.7452 32.2757 81.788 32.1222 81.8274 31.9687C81.88 31.7685 81.8728 31.6286 81.8059 31.5488C81.7456 31.469 81.6154 31.4295 81.4154 31.4303L80.7654 31.4327C80.7126 31.5662 80.6564 31.6997 80.5969 31.8333C80.5441 31.9602 80.4812 32.0871 80.4083 32.214C80.5085 32.267 80.6288 32.3365 80.7691 32.4227C80.9094 32.5021 81.0497 32.5849 81.19 32.6711C81.3303 32.7506 81.4472 32.8201 81.5408 32.8798ZM89.6265 37.1099C89.4466 37.1372 89.2899 37.1078 89.1562 37.0216C89.0226 36.9421 88.9388 36.8157 88.9048 36.6425C88.8775 36.4693 88.9136 36.3258 89.0132 36.2121C89.1128 36.0984 89.2459 36.0279 89.4124 36.0006C89.5923 35.9666 89.7955 35.9259 90.022 35.8784C90.2551 35.8308 90.5016 35.7833 90.7615 35.7356L90.7572 34.5756C90.4977 34.7166 90.2348 34.8476 89.9686 34.9686C89.709 35.0829 89.4527 35.1872 89.1998 35.2814C89.0067 35.3488 88.84 35.3561 88.6998 35.3033C88.5596 35.2505 88.4559 35.1442 88.3886 34.9844C88.3348 34.8446 88.3376 34.7079 88.3971 34.5744C88.4566 34.4342 88.5829 34.3304 88.776 34.263C89.3686 34.0608 89.921 33.8221 90.4333 33.5468C90.9523 33.2649 91.4045 32.9599 91.79 32.6318L88.8 32.6429C88.6666 32.6434 88.5531 32.5971 88.4595 32.5041C88.3658 32.4112 88.3187 32.298 88.3182 32.1647C88.3177 32.0313 88.3639 31.9178 88.4569 31.8242C88.5499 31.7305 88.6631 31.6834 88.7964 31.6829L92.3864 31.6696L92.3844 31.1296L89.9344 31.1387C89.8077 31.1391 89.6976 31.0929 89.6039 30.9999C89.5102 30.9069 89.4631 30.7971 89.4627 30.6704C89.4622 30.5438 89.5085 30.4369 89.6015 30.3499C89.6945 30.2562 89.8043 30.2091 89.931 30.2087L92.3809 30.1996L92.379 29.6796L89.139 29.6916C89.0124 29.6921 88.9022 29.6458 88.8085 29.5528C88.7148 29.4598 88.6678 29.35 88.6673 29.2234C88.6668 29.09 88.7131 28.9799 88.8061 28.8928C88.8991 28.7992 89.0089 28.7521 89.1356 28.7516L92.3755 28.7396L92.3742 28.3896C92.3735 28.2029 92.433 28.0561 92.5526 27.9489C92.6722 27.8352 92.8153 27.778 92.982 27.7774C93.1553 27.7767 93.2988 27.8328 93.4126 27.9458C93.533 28.052 93.5935 28.1984 93.5942 28.3851L93.5955 28.7351L96.8055 28.7232C96.9388 28.7227 97.049 28.769 97.136 28.862C97.2297 28.9483 97.2767 29.0581 97.2772 29.1914C97.2777 29.3181 97.2315 29.4283 97.1385 29.522C97.0521 29.6156 96.9423 29.6627 96.809 29.6632L93.599 29.6751L93.6009 30.1951L96.0509 30.186C96.1842 30.1855 96.2944 30.2318 96.3814 30.3248C96.4684 30.4111 96.5121 30.5176 96.5126 30.6443C96.5131 30.771 96.4702 30.8811 96.3838 30.9748C96.2975 31.0684 96.1877 31.1155 96.0544 31.116L93.6044 31.1251L93.6064 31.6651L97.1464 31.6519C97.2797 31.6514 97.3932 31.6977 97.4869 31.7907C97.5806 31.8837 97.6276 31.9968 97.6281 32.1302C97.6286 32.2635 97.5824 32.377 97.4894 32.4707C97.3964 32.5644 97.2832 32.6114 97.1499 32.6119L93.7899 32.6244C93.9174 32.8506 94.0516 33.0701 94.1924 33.2829C94.3398 33.489 94.4905 33.6851 94.6446 33.8712C94.8042 33.7706 94.9771 33.6567 95.1633 33.5293C95.3562 33.4019 95.5357 33.2779 95.7019 33.1573C95.8748 33.0367 96.0078 32.9395 96.1009 32.8658C96.2205 32.7654 96.3603 32.7182 96.5203 32.7243C96.687 32.7237 96.8172 32.7898 96.9111 32.9228C97.0049 33.0491 97.0454 33.1857 97.0326 33.3324C97.0198 33.4791 96.9536 33.5993 96.8339 33.6931C96.6744 33.8137 96.4549 33.9645 96.1756 34.1456C95.9029 34.3199 95.6402 34.4809 95.3874 34.6285C95.6616 34.8741 95.9525 35.0997 96.2599 35.3053C96.574 35.5041 96.9013 35.6895 97.242 35.8616C97.3755 35.9278 97.4693 36.0374 97.5232 36.1906C97.5771 36.337 97.5643 36.4871 97.4849 36.6407C97.3988 36.8077 97.2658 36.9082 97.086 36.9422C96.9061 36.9762 96.7327 36.9502 96.5657 36.8641C95.7641 36.4404 95.0388 35.9031 94.3897 35.2522C93.7406 34.5946 93.2279 33.8632 92.8515 33.0579C92.5725 33.3256 92.2635 33.5867 91.9244 33.8413L91.9306 35.4913C92.2104 35.4369 92.4735 35.3826 92.72 35.3284C92.9731 35.2674 93.1895 35.2133 93.3694 35.166C93.5359 35.1254 93.6826 35.1348 93.8095 35.1943C93.9364 35.2539 94.0167 35.3602 94.0506 35.5134C94.098 35.6933 94.0785 35.84 93.9923 35.9537C93.906 36.0607 93.7863 36.1344 93.6331 36.175C93.3867 36.2426 93.097 36.317 92.7639 36.3982C92.4309 36.4861 92.0779 36.5741 91.7049 36.6621C91.3385 36.7502 90.9755 36.8315 90.6158 36.9062C90.2561 36.9809 89.9263 37.0487 89.6265 37.1099ZM106.416 36.9376C106.176 36.8518 105.905 36.7362 105.605 36.5906C105.304 36.4451 105.007 36.2828 104.713 36.1039C104.419 35.925 104.158 35.7493 103.931 35.5768C103.811 35.4839 103.74 35.3675 103.72 35.2276C103.706 35.081 103.742 34.9509 103.828 34.8372C103.901 34.7503 103.981 34.6933 104.068 34.6663L101.988 34.674C102.028 34.6939 102.068 34.7171 102.108 34.7436C102.148 34.7701 102.181 34.8033 102.208 34.8432C102.302 34.9695 102.333 35.1027 102.3 35.2429C102.274 35.3763 102.207 35.4865 102.101 35.5736C101.902 35.7343 101.659 35.9019 101.373 36.0763C101.087 36.2507 100.791 36.4118 100.485 36.5596C100.185 36.7074 99.9089 36.8317 99.6559 36.9327C99.4629 37.0067 99.2896 37.024 99.1361 36.9846C98.9827 36.9518 98.869 36.8523 98.795 36.6859C98.7278 36.5328 98.7239 36.3861 98.7834 36.2459C98.8429 36.1057 98.9592 36.0053 99.1323 35.9446C99.3853 35.8503 99.6515 35.7394 99.9311 35.6116C100.217 35.4773 100.49 35.3396 100.75 35.1986C101.009 35.051 101.232 34.9102 101.418 34.7761C101.445 34.756 101.471 34.7393 101.498 34.7258C101.531 34.7057 101.561 34.6889 101.588 34.6755L98.8576 34.6856C98.7176 34.6861 98.5974 34.6399 98.4971 34.547C98.4034 34.4473 98.3563 34.3308 98.3558 34.1975C98.3553 34.0575 98.4015 33.9406 98.4945 33.847C98.5941 33.7466 98.7139 33.6961 98.8539 33.6956L99.2339 33.6942L99.1395 29.8045C99.1317 29.5046 99.1542 29.2645 99.2069 29.0843C99.2662 28.8974 99.3756 28.7503 99.5352 28.6431C99.6948 28.5291 99.9245 28.435 100.224 28.3605C100.337 28.3268 100.451 28.2963 100.564 28.2693C100.684 28.2355 100.8 28.2017 100.913 28.168C101.04 28.1342 101.16 28.1404 101.274 28.1866C101.387 28.2262 101.464 28.3126 101.505 28.4458C101.552 28.5923 101.546 28.719 101.486 28.8258C101.433 28.926 101.34 28.993 101.207 29.0269C101.12 29.0539 101.027 29.0842 100.927 29.1179C100.827 29.145 100.74 29.1653 100.667 29.1789C100.461 29.233 100.331 29.2968 100.278 29.3703C100.225 29.4372 100.202 29.5739 100.209 29.7806L100.211 30.0906L100.991 30.0877C101.124 30.0872 101.234 30.1301 101.321 30.2165C101.415 30.3028 101.462 30.4126 101.462 30.5459C101.463 30.6726 101.416 30.7828 101.324 30.8765C101.237 30.9634 101.127 31.0072 100.994 31.0077L100.234 31.0105L100.257 31.8704L100.997 31.8677C101.131 31.8672 101.241 31.9101 101.328 31.9964C101.421 32.0828 101.468 32.1926 101.469 32.3259C101.469 32.4526 101.423 32.5628 101.33 32.6564C101.244 32.7434 101.134 32.7872 101.001 32.7877L100.281 32.7903L100.304 33.6903L101.794 33.6847L101.788 31.9647C101.787 31.8247 101.833 31.7146 101.926 31.6342C102.019 31.5472 102.129 31.5035 102.256 31.503C102.389 31.5025 102.499 31.5454 102.586 31.6318C102.68 31.7114 102.727 31.8213 102.728 31.9613L102.734 33.6812L103.284 33.6792L103.277 31.6892C103.276 31.4959 103.249 31.3727 103.195 31.3195C103.148 31.2597 103.018 31.2302 102.805 31.231C102.425 31.2324 102.158 31.1634 102.004 31.0239C101.857 30.8778 101.783 30.6081 101.781 30.2148L101.774 28.3848C101.774 28.2314 101.823 28.1079 101.923 28.0142C102.023 27.9205 102.142 27.8734 102.282 27.8729C102.422 27.8724 102.543 27.9186 102.643 28.0115C102.75 28.1045 102.804 28.2276 102.804 28.3809L102.806 28.8209L103.846 28.8171C103.966 28.8166 104.069 28.8596 104.156 28.9459C104.243 29.0256 104.287 29.1255 104.287 29.2455C104.288 29.3655 104.245 29.469 104.159 29.5559C104.072 29.6429 103.969 29.6866 103.849 29.6871L102.809 29.6909L102.81 29.9909C102.811 30.1709 102.845 30.2875 102.912 30.3406C102.978 30.387 103.108 30.4098 103.302 30.4091C103.615 30.408 103.845 30.4871 103.993 30.6466C104.147 30.7993 104.224 31.0657 104.226 31.4457L104.234 33.6757L105.684 33.6703L105.701 32.7802L104.951 32.783C104.824 32.7835 104.714 32.7372 104.62 32.6442C104.533 32.5512 104.489 32.4414 104.489 32.3147C104.488 32.1881 104.531 32.0812 104.618 31.9943C104.711 31.9006 104.82 31.8535 104.947 31.853L105.717 31.8502L105.724 30.9901L104.944 30.993C104.817 30.9935 104.707 30.9506 104.613 30.8643C104.526 30.7712 104.483 30.6614 104.482 30.5347C104.482 30.4014 104.525 30.2913 104.611 30.2043C104.704 30.1173 104.814 30.0735 104.941 30.073L105.741 30.0701L105.749 29.76C105.755 29.5467 105.721 29.4068 105.648 29.3404C105.574 29.2674 105.431 29.2312 105.217 29.232L104.747 29.2338C104.621 29.2342 104.511 29.188 104.417 29.095C104.323 29.002 104.276 28.8922 104.276 28.7655C104.275 28.6322 104.321 28.5187 104.414 28.425C104.507 28.3313 104.617 28.2842 104.744 28.2838L105.284 28.2818C105.691 28.2803 106.004 28.3258 106.224 28.4183C106.451 28.5041 106.609 28.6535 106.696 28.8665C106.784 29.0795 106.821 29.3727 106.809 29.7461L106.744 33.6664L107.144 33.6649C107.284 33.6644 107.401 33.714 107.494 33.8136C107.595 33.9066 107.645 34.023 107.646 34.163C107.646 34.2964 107.597 34.4132 107.497 34.5136C107.404 34.6073 107.288 34.6544 107.148 34.6549L104.398 34.6651C104.431 34.6716 104.464 34.6848 104.498 34.7047C104.538 34.7246 104.571 34.7444 104.598 34.7643C104.798 34.9036 105.036 35.0494 105.31 35.2017C105.583 35.3474 105.864 35.4863 106.151 35.6186C106.445 35.7442 106.705 35.8465 106.932 35.9257C107.086 35.9718 107.189 36.0614 107.243 36.1946C107.304 36.3343 107.308 36.4776 107.255 36.6245C107.189 36.8114 107.073 36.9219 106.906 36.9558C106.746 36.9964 106.583 36.9903 106.416 36.9376ZM109.536 36.9661C109.35 37.0201 109.183 37.0174 109.036 36.9579C108.889 36.9051 108.789 36.8022 108.735 36.649C108.668 36.4959 108.667 36.3459 108.733 36.199C108.799 36.0588 108.926 35.965 109.112 35.9176C109.425 35.8298 109.772 35.7152 110.151 35.5738C110.537 35.4323 110.88 35.2877 111.179 35.14C110.819 35.088 110.539 34.9957 110.338 34.8631C110.145 34.7238 110.007 34.5276 109.926 34.2746C109.852 34.0149 109.814 33.6783 109.812 33.265L109.807 31.685C109.805 31.1984 109.857 30.8182 109.962 30.5444C110.068 30.2707 110.264 30.0733 110.55 29.9523C110.843 29.8312 111.259 29.763 111.799 29.7476C111.832 29.6542 111.872 29.5373 111.918 29.3972C111.964 29.257 112.004 29.1302 112.037 29.0167L108.937 29.0282C108.79 29.0288 108.67 28.9825 108.576 28.8896C108.489 28.7899 108.445 28.6734 108.445 28.54C108.444 28.4067 108.487 28.2932 108.574 28.1996C108.667 28.0992 108.786 28.0488 108.933 28.0482L117.023 28.0182C117.176 28.0177 117.297 28.0672 117.384 28.1669C117.477 28.2599 117.524 28.3731 117.525 28.5064C117.525 28.6397 117.479 28.7566 117.386 28.8569C117.3 28.9506 117.18 28.9977 117.027 28.9982L113.417 29.0116C113.377 29.1318 113.334 29.2586 113.288 29.3921C113.249 29.5256 113.209 29.6424 113.169 29.7425L113.869 29.7399C114.343 29.7382 114.729 29.7668 115.03 29.8256C115.33 29.8779 115.564 29.977 115.731 30.123C115.898 30.2624 116.012 30.4587 116.073 30.7118C116.141 30.9582 116.175 31.2747 116.177 31.6614L116.182 33.2414C116.184 33.6547 116.145 33.9915 116.066 34.2518C115.994 34.5054 115.858 34.7026 115.658 34.8434C115.465 34.9774 115.186 35.0718 114.819 35.1265C115.127 35.272 115.47 35.4141 115.851 35.5526C116.238 35.6912 116.589 35.8032 116.902 35.8887C117.089 35.9347 117.213 36.0276 117.273 36.1674C117.34 36.3138 117.344 36.4638 117.285 36.6173C117.225 36.7709 117.123 36.8746 116.976 36.9285C116.836 36.989 116.67 36.993 116.476 36.9403C116.216 36.8613 115.932 36.7623 115.625 36.6435C115.318 36.5246 115.021 36.3957 114.734 36.2568C114.453 36.1245 114.213 35.9987 114.012 35.8795C113.885 35.7999 113.811 35.6969 113.791 35.5703C113.771 35.4437 113.793 35.3169 113.86 35.19L113.87 35.17L112.14 35.1764L112.15 35.1964C112.223 35.3228 112.247 35.4493 112.221 35.5761C112.201 35.7028 112.125 35.8065 111.992 35.8869C111.799 36.0077 111.56 36.1352 111.274 36.2696C110.994 36.4106 110.701 36.5417 110.395 36.6629C110.089 36.784 109.803 36.8851 109.536 36.9661ZM110.991 32.7506L115 32.7358L114.998 32.1658L110.988 32.1806L110.991 32.7506ZM112.086 34.2166L113.916 34.2098C114.203 34.2087 114.419 34.1979 114.566 34.1774C114.719 34.1502 114.826 34.0964 114.885 34.0162C114.945 33.9293 114.981 33.7992 114.994 33.6258L111.004 33.6406C111.018 33.8139 111.055 33.9437 111.115 34.0302C111.176 34.11 111.282 34.1629 111.436 34.189C111.589 34.2084 111.806 34.2176 112.086 34.2166ZM110.995 31.2906L114.985 31.2758C114.971 31.1025 114.931 30.976 114.864 30.8963C114.803 30.8165 114.697 30.7636 114.543 30.7375C114.396 30.7113 114.183 30.6988 113.903 30.6998L112.073 30.7066C111.793 30.7076 111.576 30.7218 111.423 30.749C111.277 30.7762 111.17 30.83 111.104 30.9102C111.044 30.9904 111.008 31.1172 110.995 31.2906ZM121.535 36.7116C120.835 36.7142 120.285 36.6429 119.884 36.4977C119.484 36.3525 119.2 36.0969 119.032 35.7309C118.864 35.3581 118.778 34.8351 118.776 34.1618L118.77 32.6518C118.768 31.9785 118.849 31.4582 119.014 31.0909C119.18 30.7169 119.462 30.4559 119.862 30.3077C120.261 30.1596 120.811 30.0842 121.511 30.0816L121.961 30.08C122.014 29.9464 122.073 29.7862 122.139 29.5993C122.205 29.4124 122.261 29.2455 122.307 29.0987L118.787 29.1117C118.634 29.1123 118.51 29.0594 118.417 28.9531C118.329 28.8467 118.286 28.7269 118.285 28.5936C118.285 28.4536 118.328 28.3334 118.414 28.2331C118.507 28.1261 118.63 28.0723 118.783 28.0717L127.193 28.0405C127.347 28.04 127.467 28.0929 127.554 28.1992C127.647 28.2989 127.695 28.4187 127.695 28.5587C127.696 28.692 127.649 28.8122 127.556 28.9192C127.47 29.0262 127.35 29.08 127.197 29.0805L123.687 29.0936C123.634 29.2404 123.572 29.404 123.499 29.5843C123.433 29.7645 123.37 29.9281 123.311 30.075L124.461 30.0707C125.167 30.0681 125.718 30.1394 126.111 30.2846C126.512 30.4298 126.796 30.6887 126.964 31.0614C127.132 31.4275 127.218 31.9472 127.22 32.6205L127.226 34.1305C127.228 34.8038 127.147 35.3274 126.982 35.7014C126.816 36.0687 126.534 36.3264 126.134 36.4745C125.742 36.6227 125.192 36.698 124.485 36.7006L121.535 36.7116ZM124.911 35.6291C125.231 35.6079 125.471 35.5537 125.631 35.4664C125.797 35.3724 125.906 35.2254 125.959 35.0252C126.018 34.8183 126.047 34.5348 126.046 34.1748L126.04 32.5749C126.039 32.2082 126.008 31.925 125.947 31.7252C125.893 31.5254 125.782 31.3825 125.615 31.2964C125.455 31.2037 125.215 31.1512 124.895 31.1391L124.911 35.6291ZM121.091 35.6432L121.075 31.1532C120.761 31.1677 120.522 31.222 120.355 31.3159C120.196 31.4032 120.086 31.5502 120.027 31.7571C119.974 31.9573 119.949 32.2374 119.95 32.5974L119.956 34.1974C119.957 34.5574 119.985 34.8406 120.039 35.0471C120.1 35.2469 120.21 35.3931 120.371 35.4859C120.538 35.5719 120.778 35.6244 121.091 35.6432ZM122.261 35.6489L123.741 35.6434L123.738 34.7234L122.258 34.7289L122.261 35.6489ZM122.255 33.8089L123.735 33.8034L123.731 32.9234L122.251 32.9289L122.255 33.8089ZM122.248 32.0089L123.728 32.0034L123.725 31.1334L122.245 31.1389L122.248 32.0089Z" fill="#FE585B"/>
<path d="M80.5472 58.399C80.2701 58.464 80.03 58.4382 79.8269 58.3217C79.6238 58.2158 79.4951 58.0349 79.4409 57.7791C79.3866 57.5233 79.4231 57.3098 79.5505 57.1387C79.6885 56.9675 79.8908 56.8601 80.1573 56.8164C80.2426 56.7948 80.3385 56.7731 80.4451 56.7514C80.5517 56.7296 80.6583 56.7132 80.7649 56.7022L80.743 50.7982C80.74 49.9769 80.9405 49.3948 81.3445 49.052C81.7486 48.7091 82.436 48.5359 83.4066 48.5323L83.8226 48.5308C83.6303 48.4462 83.4965 48.3133 83.4211 48.1323C83.3672 47.9725 83.2971 47.7647 83.2108 47.509C83.1245 47.2534 83.0491 47.0403 82.9845 46.8699L82.1685 46.8729C82.0094 47.1188 81.8502 47.3541 81.6911 47.5787C81.5319 47.7926 81.3833 47.9905 81.2453 48.1723C81.0754 48.3756 80.8679 48.5257 80.6229 48.6226C80.3886 48.7195 80.1432 48.6831 79.8865 48.5134C79.6833 48.3755 79.5547 48.1893 79.5005 47.9548C79.4569 47.7203 79.5042 47.5175 79.6422 47.3463C79.8545 47.0788 80.088 46.758 80.3426 46.3837C80.6079 45.9987 80.8572 45.6244 81.0905 45.2609C81.3238 44.8867 81.4986 44.5767 81.615 44.3309C81.7421 44.0745 81.9175 43.9032 82.1411 43.817C82.3755 43.7308 82.5995 43.7406 82.8132 43.8465C83.0591 43.9736 83.2197 44.1437 83.2951 44.3567C83.3812 44.5591 83.3713 44.7671 83.2655 44.9808C83.2337 45.0449 83.202 45.1144 83.1702 45.1892C83.1385 45.264 83.0961 45.3388 83.0431 45.4137L86.211 45.4019C86.4137 45.4012 86.5846 45.4699 86.7238 45.608C86.863 45.7462 86.933 45.9219 86.9338 46.1352C86.9345 46.3379 86.8658 46.5088 86.7277 46.648C86.5895 46.7872 86.4191 46.8572 86.2164 46.8579L84.8404 46.863L85.0988 47.5021C85.185 47.7364 85.1698 47.9498 85.0532 48.1422C84.9472 48.3346 84.7877 48.4739 84.5747 48.56C85.3216 48.6212 85.845 48.822 86.145 49.1622C86.4449 49.5024 86.5962 50.0405 86.599 50.7765L86.6033 51.9445C86.6063 52.7658 86.4165 53.3479 86.0338 53.6906C85.651 54.0334 84.969 54.2066 83.9877 54.2102L82.5317 54.2156L82.5394 56.3116C82.8166 56.2572 83.0884 56.1976 83.3548 56.1326C83.6319 56.0675 83.8877 56.0079 84.1221 55.9537C84.0793 55.9006 84.0364 55.8474 83.9935 55.7942C83.9613 55.7303 83.9238 55.6771 83.8809 55.6346C83.763 55.4644 83.725 55.2779 83.7669 55.075C83.8087 54.8616 83.9202 54.7011 84.1011 54.5938C84.3033 54.4757 84.5058 54.427 84.7086 54.4475C84.9113 54.4681 85.0823 54.5688 85.2217 54.7496C85.361 54.9198 85.5379 55.1591 85.7523 55.4677C85.9774 55.7655 86.1972 56.0687 86.4117 56.3772C86.6262 56.6858 86.7978 56.9412 86.9266 57.1433C87.0554 57.3562 87.0935 57.5641 87.0409 57.7669C86.999 57.9804 86.8717 58.1569 86.6588 58.2963C86.4566 58.4144 86.2327 58.4473 85.9872 58.3948C85.7524 58.353 85.5759 58.231 85.4578 58.0288C85.4041 57.9223 85.3343 57.8053 85.2485 57.6776C85.1734 57.5498 85.0929 57.4168 85.007 57.2785C84.698 57.3649 84.341 57.4569 83.9361 57.5544C83.5311 57.6626 83.1155 57.7708 82.6893 57.8791C82.2737 57.9873 81.874 58.0847 81.4903 58.1715C81.1174 58.2689 80.803 58.3447 80.5472 58.399ZM88.6452 58.929C88.3999 58.9299 88.1862 58.8454 88.0042 58.6754C87.8223 58.516 87.7308 58.2977 87.7298 58.0204L87.7038 51.0124C87.7014 50.3511 87.7795 49.8441 87.9382 49.4915C88.1075 49.1282 88.3999 48.8765 88.8154 48.7363C89.2309 48.5854 89.8172 48.5086 90.5746 48.5058C90.3929 48.4104 90.2697 48.2776 90.2051 48.1071C90.1512 47.9473 90.0811 47.7396 89.9948 47.4839C89.9085 47.2282 89.833 47.0152 89.7684 46.8447L88.8564 46.8481C88.7186 47.0726 88.5807 47.2918 88.4428 47.5057C88.3049 47.7088 88.1723 47.896 88.0449 48.0671C87.8751 48.2811 87.6623 48.4312 87.4066 48.5175C87.1615 48.5931 86.916 48.5513 86.6701 48.3922C86.4669 48.2543 86.3436 48.0681 86.3001 47.8336C86.2565 47.5991 86.3038 47.3963 86.4418 47.2251C86.6329 46.979 86.8398 46.6796 87.0625 46.3268C87.2851 45.9633 87.4971 45.5998 87.6984 45.2364C87.9104 44.8623 88.0745 44.5417 88.1909 44.2746C88.3072 44.0075 88.4879 43.8415 88.733 43.7766C88.9888 43.7116 89.2342 43.7374 89.4693 43.8538C89.7044 43.9596 89.8596 44.119 89.9351 44.3321C90.0106 44.5452 89.9953 44.7586 89.8895 44.9723C89.8577 45.0471 89.8207 45.1165 89.7782 45.1807C89.7465 45.2448 89.7147 45.3143 89.683 45.389L93.635 45.3744C93.8377 45.3736 94.0086 45.4423 94.1478 45.5805C94.2869 45.7187 94.3569 45.8944 94.3577 46.1077C94.3585 46.3104 94.2898 46.4813 94.1516 46.6205C94.0135 46.7597 93.843 46.8296 93.6404 46.8304L91.6724 46.8377C91.7261 46.9442 91.7745 47.056 91.8176 47.1731C91.8607 47.2797 91.8984 47.3755 91.9307 47.4607C92.0169 47.6951 92.0071 47.9138 91.9011 48.1168C91.7952 48.3092 91.6357 48.4485 91.4227 48.5346C91.9562 48.5753 92.3673 48.6858 92.6559 48.8661C92.9552 49.0356 93.1642 49.2908 93.2828 49.6317C93.4014 49.9726 93.4617 50.4257 93.4638 50.9911L93.4797 55.279C93.4826 56.0684 93.2981 56.6504 92.9262 57.0251C92.5648 57.3891 91.9736 57.5833 91.1523 57.6077C90.8964 57.6193 90.6668 57.5562 90.4636 57.4182C90.2711 57.2696 90.1636 57.0513 90.1412 56.7634C90.1082 56.5075 90.1714 56.2886 90.3307 56.1067C90.5007 55.9141 90.7296 55.8012 91.0175 55.7682C91.2947 55.7245 91.4758 55.6598 91.5608 55.5742C91.6458 55.4885 91.6878 55.3124 91.6868 55.0457L91.6718 50.9977C91.6704 50.6244 91.6002 50.3846 91.4611 50.2785C91.3327 50.1616 91.0445 50.104 90.5965 50.1057C90.1485 50.1074 89.8554 50.1671 89.7172 50.285C89.5896 50.3921 89.5264 50.6323 89.5278 51.0057L89.5538 58.0136C89.5548 58.2909 89.465 58.5099 89.2842 58.6706C89.1142 58.8419 88.9012 58.928 88.6452 58.929ZM82.5263 52.7756L83.9823 52.7702C84.3663 52.7688 84.6168 52.7199 84.7338 52.6234C84.8507 52.5163 84.9086 52.3028 84.9074 51.9828L82.5234 51.9916L82.5263 52.7756ZM82.5187 50.7116L84.9027 50.7028C84.9015 50.3935 84.8368 50.191 84.7084 50.0955C84.5907 50 84.3452 49.9529 83.9719 49.9542L83.4119 49.9563C83.0599 49.9576 82.8254 50.0065 82.7084 50.1029C82.5915 50.1994 82.5282 50.4023 82.5187 50.7116ZM96.5385 47.3956L108.554 47.3511L108.561 49.2391L98.4975 49.2764L98.533 58.8603L96.581 58.8676L96.5385 47.3956ZM107.562 47.3548L109.514 47.3476L109.549 56.5795C109.552 57.6035 109.362 58.1642 108.676 58.4707C107.989 58.7773 106.981 58.813 105.589 58.8182C105.523 58.2584 105.216 57.3956 104.942 56.8686C105.822 56.9133 106.91 56.9093 107.214 56.8921C107.502 56.8911 107.597 56.7947 107.597 56.5547L107.562 47.3548ZM99.4077 44.473L102.992 44.4597L102.998 46.1397L99.4139 46.153L99.4077 44.473ZM101.744 44.4643L103.792 44.4567C103.951 48.5682 104.875 51.9408 107.873 53.3857C107.458 53.7712 106.805 54.5576 106.503 55.0708C103.344 53.2105 102.275 49.5504 102.051 45.3272L101.747 45.3283L101.744 44.4643ZM101.9 47.8238L103.661 48.1213C103.13 51.4832 101.906 53.8558 99.3995 55.2091C99.1418 54.7621 98.5149 53.9804 98.1297 53.6618C100.318 52.6137 101.51 50.5772 101.9 47.8238ZM118.036 58.676C117.236 58.679 116.596 58.596 116.116 58.4272C115.635 58.2689 115.287 57.9876 115.072 57.583C114.858 57.1785 114.749 56.6189 114.746 55.9042C114.744 55.1896 114.848 54.6292 115.06 54.223C115.272 53.8169 115.617 53.533 116.097 53.3712C116.576 53.1988 117.216 53.111 118.016 53.1081L120.064 53.1005C120.864 53.0975 121.504 53.1805 121.985 53.3494C122.465 53.5076 122.813 53.789 123.028 54.1935C123.243 54.5981 123.351 55.1577 123.354 55.8723C123.357 56.587 123.252 57.1474 123.04 57.5535C122.829 57.9596 122.483 58.2436 122.003 58.4053C121.524 58.5778 120.884 58.6655 120.084 58.6685L118.036 58.676ZM112.897 49.159C112.641 49.16 112.422 49.0808 112.24 48.9215C112.069 48.7621 111.983 48.5437 111.982 48.2664L111.98 47.7544C111.977 46.9224 112.172 46.335 112.565 45.9922C112.969 45.6387 113.657 45.4602 114.627 45.4566L117.939 45.4443L117.936 44.5003C117.935 44.191 118.03 43.956 118.221 43.7953C118.423 43.6345 118.658 43.5536 118.924 43.5526C119.202 43.5516 119.437 43.6308 119.629 43.79C119.833 43.9493 119.935 44.1836 119.936 44.4929L119.939 45.4369L123.363 45.4242C124.334 45.4206 125.017 45.5941 125.413 45.9446C125.82 46.2844 126.025 46.8704 126.028 47.7023L126.03 48.2143C126.031 48.4917 125.941 48.7107 125.76 48.8713C125.579 49.032 125.361 49.1128 125.105 49.1138C124.849 49.1147 124.63 49.0409 124.448 48.8922C124.266 48.7436 124.175 48.5306 124.174 48.2532L124.172 47.8212C124.171 47.5226 124.096 47.3095 123.946 47.1821C123.807 47.0546 123.54 46.9916 123.145 46.993L114.857 47.0237C114.463 47.0252 114.191 47.0902 114.042 47.2188C113.893 47.3473 113.819 47.5609 113.82 47.8596L113.822 48.2916C113.823 48.5689 113.733 48.7826 113.552 48.9326C113.372 49.0826 113.153 49.1581 112.897 49.159ZM112.903 55.175C112.637 55.3254 112.376 55.3743 112.12 55.322C111.864 55.2696 111.661 55.121 111.51 54.8762C111.371 54.6314 111.343 54.3968 111.428 54.1725C111.512 53.9482 111.688 53.7662 111.954 53.6266C112.561 53.315 113.183 52.9553 113.822 52.5476C114.46 52.1293 115.083 51.6949 115.689 51.2447C116.306 50.7837 116.864 50.3337 117.364 49.8945C117.874 49.4339 118.385 49.2027 118.897 49.2008C119.42 49.1989 119.943 49.4049 120.468 49.819C120.96 50.2012 121.511 50.5991 122.12 51.0129C122.74 51.4266 123.387 51.8242 124.061 52.2057C124.734 52.5872 125.391 52.9314 126.032 53.2384C126.278 53.3548 126.455 53.5355 126.562 53.7804C126.67 54.0147 126.655 54.2601 126.517 54.5166C126.379 54.7838 126.167 54.9606 125.879 55.047C125.602 55.1226 125.319 55.0864 125.031 54.9381C124.432 54.6096 123.807 54.244 123.155 53.841C122.502 53.4381 121.872 53.0245 121.262 52.6C120.663 52.1649 120.123 51.7456 119.641 51.342C119.395 51.1296 119.171 51.0291 118.968 51.0405C118.776 51.0413 118.558 51.1487 118.313 51.363C117.835 51.7701 117.292 52.2041 116.686 52.665C116.09 53.1152 115.468 53.5602 114.819 53.9999C114.17 54.429 113.531 54.8207 112.903 55.175ZM118.03 56.9801L120.078 56.9725C120.654 56.9703 121.027 56.8943 121.197 56.7443C121.378 56.5943 121.468 56.306 121.466 55.8793C121.464 55.442 121.373 55.1543 121.191 55.0163C121.02 54.8676 120.646 54.7943 120.07 54.7965L118.022 54.8041C117.435 54.8062 117.052 54.8823 116.871 55.0323C116.701 55.1716 116.617 55.46 116.618 55.8973C116.62 56.3239 116.706 56.6116 116.877 56.7603C117.059 56.909 117.444 56.9822 118.03 56.9801ZM114.6 50.8967C114.365 51.0469 114.115 51.1172 113.848 51.1075C113.592 51.0978 113.373 50.9706 113.191 50.7259C113.062 50.5451 113.014 50.3373 113.045 50.1025C113.086 49.857 113.214 49.6645 113.427 49.5251C113.863 49.2461 114.31 48.9245 114.767 48.5601C115.235 48.1957 115.634 47.8529 115.963 47.5317C116.144 47.339 116.357 47.2422 116.602 47.2413C116.858 47.2403 117.077 47.3302 117.259 47.5108C117.441 47.6808 117.527 47.8832 117.517 48.1179C117.507 48.3419 117.418 48.5449 117.248 48.7269C116.854 49.1337 116.435 49.5193 115.988 49.8836C115.552 50.2479 115.089 50.5856 114.6 50.8967ZM123.287 50.6885C123.02 50.5189 122.715 50.3226 122.373 50.0999C122.031 49.8772 121.694 49.6491 121.362 49.4157C121.041 49.1715 120.763 48.9539 120.528 48.7627C120.335 48.6035 120.228 48.4065 120.206 48.1719C120.194 47.9373 120.268 47.7344 120.427 47.5631C120.576 47.3812 120.768 47.2845 121.002 47.273C121.247 47.2507 121.461 47.3139 121.643 47.4626C121.889 47.6537 122.172 47.8606 122.493 48.0835C122.814 48.2956 123.135 48.5024 123.456 48.7039C123.787 48.8947 124.092 49.0589 124.369 49.1965C124.583 49.3024 124.712 49.4726 124.755 49.7071C124.809 49.9415 124.778 50.1657 124.662 50.3794C124.524 50.6253 124.322 50.7754 124.055 50.8297C123.789 50.8733 123.533 50.8263 123.287 50.6885Z" fill="black" fill-opacity="0.85"/>
</g>
<defs>
<radialGradient id="paint0_radial_1720_2034" cx="0" cy="0" r="1" gradientUnits="userSpaceOnUse" gradientTransform="translate(0.558656 46.8353) rotate(65.4889) scale(3.32531 8.21233)">
<stop offset="0.33" stop-opacity="0"/>
<stop offset="0.655" stop-opacity="0.6"/>
<stop offset="1"/>
</radialGradient>
<radialGradient id="paint1_radial_1720_2034" cx="0" cy="0" r="1" gradientUnits="userSpaceOnUse" gradientTransform="translate(355.296 45.8572) rotate(114.511) scale(3.32531 8.21233)">
<stop offset="0.33" stop-opacity="0"/>
<stop offset="0.655" stop-opacity="0.6"/>
<stop offset="1"/>
</radialGradient>
<clipPath id="clip0_1720_2034">
<rect width="200" height="90" fill="white"/>
</clipPath>
</defs>
</svg>
