<svg width="200" height="90" viewBox="0 0 200 90" fill="none" xmlns="http://www.w3.org/2000/svg">
<g clip-path="url(#clip0_1720_1908)">
<rect width="200" height="90" fill="#FEB79D"/>
<path fill-rule="evenodd" clip-rule="evenodd" d="M-6.18027 85.5257C-5.5206 81.3514 -9.94765 77.2571 -7.65473 73.2393C-4.94813 68.4966 -1.65241 61.9915 7.77154 61.0783C17.9972 60.0873 23.5998 68.8258 33.9785 69.2048C45.8176 69.6371 56.5881 60.196 66.8872 63.2371C76.2425 65.9996 70.121 74.0119 68.9752 79.5387C68.1676 83.4341 61.5364 86.4306 61.2669 90.3457C60.8502 96.3973 75.7689 103.853 67.0229 107.895C58.3557 111.9 45.7383 103.802 34.2527 102.83C27.3162 102.243 20.5655 103.925 13.6182 103.373C4.65786 102.66 -7.2514 103.227 -11.7526 99.1698C-16.3208 95.0519 -6.92748 90.2539 -6.18027 85.5257Z" fill="#FE585B"/>
<path fill-rule="evenodd" clip-rule="evenodd" d="M28.4743 10.5302C32.6486 10.8717 36.7429 8.58004 40.7607 9.76696C45.5034 11.168 52.0085 12.874 52.9217 17.7523C53.9127 23.0456 45.1742 25.9458 44.7952 31.3183C44.3629 37.4467 53.804 43.0221 50.7629 48.3534C48.0004 53.1961 39.9881 50.0274 34.4613 49.4342C30.5659 49.0162 27.5694 45.5836 23.6543 45.444C17.6027 45.2284 10.1469 52.9509 6.10508 48.4236C2.09968 43.9371 10.1975 37.4057 11.1701 31.4602C11.7575 27.8695 10.0747 24.3751 10.6274 20.7788C11.3402 16.1405 10.7727 9.97575 14.8302 7.64571C18.9481 5.281 23.7461 10.1434 28.4743 10.5302Z" fill="#FC7443"/>
<path fill-rule="evenodd" clip-rule="evenodd" d="M173.474 4.53021C177.649 4.87169 181.743 2.58004 185.761 3.76696C190.503 5.16803 197.008 6.87405 197.922 11.7523C198.913 17.0456 190.174 19.9458 189.795 25.3183C189.363 31.4467 198.804 37.0221 195.763 42.3534C193 47.1961 184.988 44.0274 179.461 43.4342C175.566 43.0162 172.569 39.5836 168.654 39.444C162.603 39.2284 155.147 46.9509 151.105 42.4236C147.1 37.9371 155.198 31.4057 156.17 25.4602C156.757 21.8695 155.075 18.3751 155.627 14.7788C156.34 10.1405 155.773 3.97575 159.83 1.64571C163.948 -0.719004 168.746 4.14342 173.474 4.53021Z" fill="#FF8787"/>
<path fill-rule="evenodd" clip-rule="evenodd" d="M117.063 7.20494C131.49 7.9797 144.155 11.9054 154.996 17.5775C166.733 23.7188 176.896 30.8598 179.688 39.9711C183.097 51.0949 184.354 63.7453 171.749 72.2549C158.691 81.0707 136.857 81.4742 117.063 82.2497C95.2362 83.1048 71.8992 84.7511 54.6033 76.8446C35.6156 68.1646 20.8565 53.9771 24.5773 39.9711C28.0889 26.7526 52.1053 19.9805 71.5388 13.0955C85.3864 8.18958 100.98 6.34119 117.063 7.20494Z" fill="#FFAB7A"/>
<ellipse cx="177.987" cy="70.7269" rx="16.7876" ry="14.0511" fill="#F55A57"/>
<ellipse cx="173.711" cy="65.6395" rx="1.21537" ry="2.15126" fill="black"/>
<ellipse cx="182.286" cy="65.6395" rx="1.21537" ry="2.15126" fill="black"/>
<path d="M173.043 72.6445C173.079 74.5722 175.312 76.0937 178.031 76.0428C180.749 75.9919 182.924 74.388 182.888 72.4603C182.852 70.5326 180.67 71.7825 177.952 71.8334C175.233 71.8843 173.007 70.7168 173.043 72.6445Z" fill="black"/>
<path d="M170.796 50.9035C173.677 48.6452 180.1 51.1915 180.1 55.0219C180.101 59.542 168.086 61.6232 165.801 61.9782C165.552 62.0169 165.303 62.044 165.054 62.039C163.425 62.0062 157.615 61.2375 170.796 50.9035Z" fill="#6E5232"/>
<path d="M170.796 50.9035C173.677 48.6452 180.1 51.1915 180.1 55.0219C180.101 59.542 168.086 61.6232 165.801 61.9782C165.552 62.0169 165.303 62.044 165.054 62.039C163.425 62.0062 157.615 61.2375 170.796 50.9035Z" fill="url(#paint0_radial_1720_1908)" fill-opacity="0.15"/>
<path d="M185.2 50.7629C182.319 48.5045 175.896 51.0509 175.896 54.8813C175.896 59.4014 187.91 61.4825 190.195 61.8375C190.445 61.8763 190.693 61.9034 190.942 61.8984C192.571 61.8656 198.381 61.0968 185.2 50.7629Z" fill="#6E5232"/>
<path d="M185.2 50.7629C182.319 48.5045 175.896 51.0509 175.896 54.8813C175.896 59.4014 187.91 61.4825 190.195 61.8375C190.445 61.8763 190.693 61.9034 190.942 61.8984C192.571 61.8656 198.381 61.0968 185.2 50.7629Z" fill="url(#paint1_radial_1720_1908)" fill-opacity="0.15"/>
<path d="M79.5669 37.2154C79.1138 37.2571 78.8565 37.0947 78.7951 36.7283C78.7678 36.5551 78.8073 36.4016 78.9134 36.2679C79.0263 36.1341 79.186 36.0602 79.3926 36.0461C80.0457 35.9903 80.6887 35.8913 81.3215 35.7489C81.961 35.6066 82.5637 35.431 83.1296 35.2222C83.0626 35.1425 82.9923 35.0594 82.9187 34.973C82.845 34.8866 82.7881 34.8202 82.7479 34.7736C82.5805 34.5809 82.5498 34.381 82.6557 34.174C82.0834 34.4561 81.5142 34.6849 80.9482 34.8603C80.7418 34.9277 80.5585 34.9284 80.3982 34.8624C80.2446 34.7896 80.1375 34.6667 80.0769 34.4935C80.0162 34.3204 80.0323 34.1637 80.1251 34.0234C80.2246 33.8763 80.3709 33.7758 80.564 33.7217C80.917 33.6271 81.2898 33.4957 81.6826 33.3276C82.0752 33.1528 82.4645 32.958 82.8504 32.7432C83.2362 32.5218 83.5954 32.2938 83.9279 32.0593C84.267 31.818 84.5494 31.5803 84.7752 31.3461C84.928 31.1922 85.0877 31.1149 85.2544 31.1143C85.4277 31.1137 85.5746 31.1698 85.695 31.2827C85.8154 31.4022 85.8726 31.5387 85.8665 31.6921C85.8671 31.8454 85.8109 31.9789 85.698 32.0927C85.5718 32.2198 85.4389 32.3437 85.2994 32.4642L86.0194 32.4615C86.346 32.4603 86.6096 32.5193 86.81 32.6386C87.0105 32.7512 87.1443 32.9007 87.2117 33.0871C87.2857 33.2735 87.2898 33.4768 87.224 33.697C87.1648 33.9106 87.0355 34.1177 86.8363 34.3185C86.4577 34.7066 86.0023 35.0616 85.4702 35.3836C84.9381 35.7055 84.3524 35.991 83.7134 36.2401C83.0809 36.4891 82.4117 36.6949 81.7056 36.8575C81.0063 37.0268 80.2934 37.1461 79.5669 37.2154ZM79.3435 33.5963C79.1504 33.6436 78.977 33.6343 78.8234 33.5682C78.6698 33.5021 78.5661 33.3825 78.5121 33.2093C78.4648 33.0428 78.4843 32.8928 78.5704 32.7591C78.6566 32.6188 78.7996 32.5249 78.9994 32.4775C79.5123 32.3623 80.0117 32.2138 80.4977 32.032C80.9904 31.8501 81.453 31.6518 81.8855 31.4368L81.4841 31.0383C81.3101 30.8656 81.2561 30.6791 81.322 30.4789C81.0959 30.6264 80.8664 30.7673 80.6336 30.9015C80.4074 31.029 80.1811 31.1498 79.9549 31.264C79.7685 31.3513 79.5886 31.3787 79.4152 31.346C79.2484 31.3133 79.1281 31.227 79.0542 31.0873C78.967 30.9343 78.9531 30.781 79.0125 30.6275C79.0719 30.4672 79.1848 30.3502 79.3512 30.2762C79.7838 30.0746 80.2196 29.833 80.6585 29.5514C81.0975 29.2697 81.5064 28.9715 81.8852 28.6568C82.2707 28.342 82.593 28.0475 82.852 27.7732C82.9848 27.6394 83.1312 27.5688 83.2912 27.5616C83.4578 27.5476 83.6013 27.5938 83.7217 27.7C83.8354 27.8062 83.8959 27.9327 83.9031 28.0793C83.917 28.2259 83.8708 28.3561 83.7646 28.4698C83.7447 28.4966 83.7214 28.5233 83.6949 28.5501C83.6749 28.5702 83.655 28.5902 83.6351 28.6103L84.4851 28.6072C84.8651 28.6058 85.1554 28.698 85.3561 28.8839C85.5634 29.0632 85.6576 29.2928 85.6387 29.5729C85.6197 29.853 85.4641 30.1369 85.1718 30.4246C84.4744 31.1139 83.64 31.7303 82.6687 32.2739C81.704 32.8108 80.5956 33.2516 79.3435 33.5963ZM84.3975 34.6675C84.6504 34.5333 84.8832 34.3991 85.096 34.2649C85.3155 34.1241 85.5083 33.9801 85.6745 33.8328C85.8073 33.7123 85.8603 33.6154 85.8334 33.5422C85.8064 33.469 85.7063 33.4327 85.533 33.4333L83.973 33.4391C83.8865 33.4927 83.7967 33.5497 83.7036 33.6101C83.6105 33.6638 83.5173 33.7174 83.4242 33.7711C83.5643 33.7906 83.6879 33.8602 83.795 33.9798C83.8619 34.0595 83.9557 34.1692 84.0762 34.3087C84.2034 34.4416 84.3105 34.5612 84.3975 34.6675ZM83.073 30.7524C83.492 30.4709 83.8543 30.1862 84.1599 29.8984C84.2861 29.7779 84.3357 29.6844 84.3088 29.6178C84.2819 29.5446 84.1817 29.5083 84.0084 29.5089L82.6584 29.5139C82.5654 29.5876 82.4656 29.6647 82.3593 29.745C82.2596 29.8254 82.1565 29.9025 82.0501 29.9762C82.1968 29.9823 82.3304 30.0418 82.4508 30.1547C82.5244 30.2211 82.6214 30.3141 82.7418 30.4336C82.8689 30.5532 82.9793 30.6594 83.073 30.7524ZM94.5665 37.0699C94.4132 37.0704 94.2796 37.0176 94.1659 36.9113C94.0589 36.8117 94.0051 36.6786 94.0044 36.5119L93.9986 34.9419C93.733 35.2296 93.4307 35.5141 93.0918 35.7953C92.7595 36.0765 92.4371 36.3211 92.1245 36.5289C91.9781 36.6161 91.8283 36.6533 91.6749 36.6406C91.5215 36.6345 91.4013 36.5682 91.3142 36.4419C91.2271 36.3289 91.1933 36.2023 91.2128 36.0623C91.2389 35.9155 91.3118 35.8052 91.4315 35.7315C91.6577 35.5973 91.8905 35.4398 92.1298 35.2589C92.3758 35.0713 92.6084 34.8804 92.8277 34.6863C93.0536 34.4854 93.2496 34.298 93.4156 34.1241L92.0956 34.129C91.9556 34.1295 91.8354 34.0833 91.7351 33.9903C91.6414 33.8907 91.5943 33.7708 91.5937 33.6308C91.5932 33.4975 91.6395 33.384 91.7325 33.2903C91.8321 33.19 91.9519 33.1395 92.0919 33.139L93.9919 33.132L93.9897 32.542C93.6163 32.5167 93.3294 32.4544 93.129 32.3551C92.9287 32.2559 92.7914 32.1097 92.7174 31.9167C92.6433 31.7169 92.6057 31.4604 92.6045 31.1471L92.599 29.6471L92.049 29.6491C91.9223 29.6496 91.8088 29.6034 91.7085 29.5104C91.6148 29.4174 91.5677 29.3042 91.5672 29.1709C91.5667 29.0376 91.613 28.9241 91.706 28.8304C91.8056 28.7367 91.9188 28.6896 92.0454 28.6891L92.5954 28.6871L92.5939 28.2671C92.5932 28.0938 92.6461 27.9602 92.7524 27.8665C92.8587 27.7661 92.9852 27.7156 93.1318 27.7151C93.2852 27.7145 93.4153 27.7641 93.5224 27.8637C93.6294 27.9566 93.6832 28.0897 93.6839 28.2631L93.6854 28.6831L95.4054 28.6767L95.4039 28.2667C95.4032 28.0934 95.4561 27.9565 95.5624 27.8561C95.6753 27.7557 95.8085 27.7052 95.9618 27.7046C96.1151 27.704 96.2453 27.7536 96.3524 27.8532C96.4661 27.9527 96.5232 28.0892 96.5239 28.2625L96.5254 28.6725L97.1154 28.6703C97.2487 28.6699 97.3622 28.7161 97.4559 28.8091C97.5496 28.9021 97.5967 29.0152 97.5972 29.1486C97.5977 29.2819 97.5514 29.3954 97.4584 29.4891C97.3654 29.5828 97.2523 29.6298 97.119 29.6303L96.529 29.6325L96.5345 31.1325C96.5357 31.4525 96.4967 31.7127 96.4174 31.913C96.3448 32.1066 96.2053 32.2537 95.999 32.3545C95.7927 32.4486 95.4963 32.5097 95.1097 32.5378L95.1119 33.1278L97.1819 33.1201C97.3152 33.1196 97.4287 33.1692 97.5224 33.2689C97.6228 33.3618 97.6732 33.475 97.6737 33.6083C97.6742 33.7483 97.6247 33.8685 97.525 33.9689C97.4321 34.0625 97.3189 34.1096 97.1856 34.1101L95.7556 34.1154C95.9095 34.2682 96.0868 34.4342 96.2874 34.6135C96.4947 34.786 96.7054 34.9552 96.9193 35.1211C97.1399 35.2803 97.3471 35.4195 97.5409 35.5388C97.6678 35.6183 97.7449 35.7381 97.7722 35.898C97.7994 36.0512 97.7666 36.188 97.6737 36.3083C97.5675 36.4421 97.4345 36.5192 97.2746 36.5398C97.1213 36.5604 96.9778 36.5209 96.8441 36.4214C96.5567 36.2091 96.2558 35.9636 95.9414 35.6847C95.6337 35.4059 95.3593 35.1269 95.1183 34.8478L95.1244 36.5078C95.125 36.6744 95.0689 36.808 94.9559 36.9084C94.8496 37.0155 94.7198 37.0693 94.5665 37.0699ZM88.7152 36.7215C88.5948 36.6153 88.5343 36.4889 88.5338 36.3422C88.5332 36.1955 88.5861 36.072 88.6924 35.9716C89.1773 35.5031 89.5722 35.005 89.8769 34.4772C89.8368 34.4507 89.7967 34.4275 89.7566 34.4077C89.7232 34.3811 89.6864 34.3546 89.6463 34.3281C89.3589 34.1291 89.1416 33.9499 88.9943 33.7905C88.8537 33.6243 88.773 33.4346 88.7522 33.2214C88.7381 33.0014 88.767 32.718 88.8391 32.371C88.8915 32.1442 88.9373 31.9107 88.9765 31.6705C89.0222 31.4304 89.068 31.1869 89.1138 30.94L88.6938 30.9416C88.5604 30.9421 88.4436 30.8925 88.3432 30.7929C88.2495 30.6866 88.2024 30.5667 88.2019 30.4334C88.2014 30.3001 88.2476 30.1832 88.3406 30.0829C88.4402 29.9758 88.5566 29.9221 88.69 29.9216L89.27 29.9194C89.3089 29.6326 89.3445 29.3525 89.3769 29.079C89.4158 28.8056 89.4449 28.5521 89.464 28.3187C89.4834 28.1386 89.5462 28.0117 89.6526 27.938C89.7657 27.8642 89.8956 27.8338 90.0423 27.8466C90.189 27.8593 90.3092 27.9156 90.4029 28.0152C90.5033 28.1149 90.5405 28.2547 90.5145 28.4348C90.4886 28.6482 90.4561 28.8817 90.4171 29.1352C90.378 29.3887 90.339 29.6488 90.3 29.9156C90.8467 29.9203 91.2304 30.0288 91.4512 30.2414C91.6786 30.4538 91.7767 30.8435 91.7455 31.4103C91.7208 31.937 91.6593 32.4273 91.561 32.881C91.4693 33.328 91.3475 33.7484 91.1956 34.1423C91.3226 34.2285 91.4363 34.3114 91.5366 34.3911C91.6435 34.4707 91.7338 34.5437 91.8074 34.6101C91.9411 34.7162 92.0049 34.8493 91.9989 35.0094C91.9928 35.1627 91.9333 35.3029 91.8204 35.43C91.7208 35.5371 91.5944 35.5942 91.441 35.6014C91.2944 35.602 91.1642 35.5491 91.0505 35.4429C90.9969 35.3897 90.9401 35.3366 90.8799 35.2835C90.8196 35.2237 90.7628 35.1706 90.7093 35.1241C90.5503 35.3914 90.3746 35.652 90.1822 35.9061C89.9898 36.1601 89.7774 36.4076 89.5449 36.6485C89.4387 36.7689 89.3056 36.836 89.1457 36.8499C88.9857 36.8705 88.8422 36.8277 88.7152 36.7215ZM90.3134 33.5356C90.4255 33.2152 90.5143 32.8815 90.5797 32.5346C90.6451 32.1877 90.6904 31.8208 90.7156 31.4341C90.7282 31.2274 90.6977 31.0942 90.6241 31.0344C90.5572 30.968 90.4137 30.9352 90.1937 30.936L90.1337 30.9362C90.0815 31.2431 90.0293 31.54 89.977 31.8268C89.9248 32.1137 89.8757 32.3672 89.8299 32.5874C89.7971 32.7542 89.7843 32.8875 89.7913 32.9875C89.7984 33.0808 89.8353 33.164 89.9023 33.2371C89.9759 33.3035 90.0862 33.3864 90.2332 33.4859L90.3134 33.5356ZM93.691 30.193L95.411 30.1867L95.409 29.6367L93.689 29.6431L93.691 30.193ZM94.5562 31.5999C94.8096 31.5989 94.9962 31.5882 95.1161 31.5678C95.2427 31.5406 95.3225 31.4903 95.3556 31.4169C95.3953 31.3367 95.4148 31.2233 95.4143 31.0767L95.4142 31.0467L93.6942 31.053L93.6943 31.083C93.6949 31.2297 93.7119 31.343 93.7456 31.4229C93.7858 31.496 93.866 31.5457 93.9861 31.572C94.1129 31.5915 94.3029 31.6008 94.5562 31.5999ZM99.4363 37.0118C99.3097 37.0123 99.1995 36.9693 99.1058 36.883C99.0122 36.8034 98.9651 36.6902 98.9646 36.5435L98.9508 32.8336C98.9504 32.7202 98.96 32.6202 98.9797 32.5335C98.9531 32.5402 98.9264 32.547 98.8998 32.5538C98.8798 32.5538 98.8565 32.5539 98.8298 32.554C98.7031 32.5545 98.593 32.5149 98.4994 32.4352C98.4057 32.3489 98.3586 32.2324 98.3581 32.0858L98.3557 31.4358C98.3547 31.1824 98.394 30.989 98.4735 30.8553C98.5597 30.7217 98.6993 30.6312 98.8925 30.5838L98.8866 28.9938C98.8851 28.6005 98.9675 28.3235 99.1335 28.1629C99.2996 27.9956 99.5759 27.9112 99.9626 27.9098L100.953 27.9061C101.346 27.9047 101.623 27.987 101.784 28.153C101.944 28.3124 102.025 28.5888 102.027 28.9821L102.033 30.5921C102.206 30.6382 102.33 30.7277 102.404 30.8608C102.484 30.9938 102.525 31.1803 102.526 31.4203L102.528 32.0703C102.529 32.217 102.482 32.3338 102.389 32.4208C102.296 32.5012 102.183 32.5416 102.05 32.5421C102.023 32.5422 102 32.5423 101.98 32.5423C101.96 32.5358 101.936 32.5292 101.91 32.5226C101.923 32.5692 101.93 32.6192 101.93 32.6725C101.93 32.7192 101.931 32.7692 101.931 32.8225L101.942 35.9225C101.944 36.2625 101.865 36.5195 101.705 36.6934C101.546 36.8673 101.293 36.9616 100.946 36.9762C100.8 36.9834 100.673 36.9506 100.566 36.8776C100.466 36.8047 100.405 36.7015 100.385 36.5683C100.364 36.4417 100.384 36.3283 100.443 36.2281C100.51 36.1278 100.603 36.0675 100.723 36.047C100.843 36.0332 100.923 36.003 100.962 35.9561C101.002 35.9093 101.022 35.8259 101.022 35.7059L101.019 35.0659L99.8891 35.0701L99.8946 36.5401C99.8951 36.6868 99.8522 36.8003 99.7658 36.8806C99.6795 36.9676 99.5697 37.0113 99.4363 37.0118ZM102.836 36.7892C102.709 36.7897 102.609 36.7467 102.535 36.6603C102.461 36.5806 102.424 36.4841 102.424 36.3707C102.424 36.2574 102.46 36.1606 102.533 36.0803C102.606 35.9934 102.706 35.9497 102.832 35.9492L103.902 35.9452C103.869 35.852 103.832 35.7588 103.791 35.6656C103.758 35.5724 103.727 35.4992 103.701 35.446C103.667 35.3528 103.663 35.2628 103.69 35.176C103.723 35.0826 103.779 35.0124 103.859 34.9654C103.592 34.9331 103.402 34.8438 103.288 34.6975C103.174 34.5446 103.116 34.3115 103.115 33.9981C103.114 33.6315 103.19 33.3745 103.342 33.2273C103.502 33.08 103.765 33.0057 104.132 33.0044L106.071 32.9972C106.438 32.9958 106.698 33.0682 106.852 33.2143C107.013 33.3604 107.094 33.6167 107.095 33.9834C107.096 34.2967 107.041 34.5303 106.928 34.684C106.815 34.8311 106.629 34.9218 106.369 34.9561C106.429 35.0092 106.473 35.0757 106.499 35.1556C106.526 35.2288 106.523 35.3122 106.49 35.4056C106.477 35.4524 106.451 35.5258 106.411 35.6259C106.372 35.7261 106.332 35.8296 106.292 35.9364L107.312 35.9326C107.446 35.9321 107.546 35.9751 107.613 36.0615C107.686 36.1412 107.724 36.2377 107.724 36.3511C107.724 36.4644 107.688 36.5612 107.615 36.6415C107.549 36.7284 107.449 36.7721 107.315 36.7726L102.836 36.7892ZM104.116 31.4944C103.629 31.4962 103.289 31.4075 103.095 31.2282C102.908 31.0489 102.813 30.7259 102.811 30.2592L102.809 29.7292C102.808 29.2693 102.9 28.9489 103.086 28.7682C103.278 28.5875 103.611 28.4963 104.085 28.4945L104.083 27.9445C104.082 27.8245 104.119 27.7344 104.192 27.6741C104.265 27.6072 104.355 27.5735 104.461 27.5731C104.561 27.5727 104.648 27.6058 104.722 27.6721C104.795 27.7319 104.832 27.8217 104.833 27.9417L104.835 28.4817L105.285 28.4801L105.283 27.9401C105.282 27.8201 105.319 27.7299 105.392 27.6697C105.465 27.6027 105.551 27.5691 105.651 27.5687C105.758 27.5683 105.848 27.6013 105.922 27.6677C105.995 27.7274 106.032 27.8173 106.033 27.9373L106.035 28.4773C106.521 28.4821 106.858 28.5742 107.046 28.7535C107.24 28.9262 107.338 29.2458 107.339 29.7125L107.341 30.2425C107.343 30.7091 107.248 31.0328 107.055 31.2135C106.869 31.3942 106.529 31.4855 106.036 31.4873L104.116 31.4944ZM102.96 32.6687C102.834 32.6692 102.733 32.6296 102.66 32.5498C102.586 32.4634 102.549 32.3636 102.549 32.2502C102.548 32.1369 102.585 32.0401 102.658 31.9598C102.731 31.8729 102.83 31.8292 102.957 31.8287L107.187 31.813C107.32 31.8125 107.424 31.8555 107.498 31.9419C107.571 32.0216 107.608 32.1181 107.609 32.2315C107.609 32.3448 107.573 32.4449 107.5 32.5319C107.427 32.6122 107.324 32.6525 107.19 32.653L102.96 32.6687ZM104.426 34.3033L105.786 34.2982C105.9 34.2978 105.98 34.2775 106.026 34.2374C106.079 34.1972 106.106 34.1137 106.105 33.9871C106.105 33.8537 106.078 33.7705 106.024 33.7374C105.977 33.6975 105.897 33.6778 105.784 33.6783L104.424 33.6833C104.304 33.6837 104.221 33.704 104.174 33.7442C104.128 33.7777 104.105 33.8611 104.105 33.9945C104.106 34.1211 104.129 34.2044 104.176 34.2442C104.223 34.284 104.306 34.3037 104.426 34.3033ZM99.7123 30.5407L100.092 30.5393L100.09 29.9793C100.089 29.6593 100.148 29.4424 100.268 29.3287C100.394 29.2082 100.617 29.1474 100.937 29.1462L101.197 29.1452C101.197 28.9719 101.163 28.862 101.096 28.8156C101.036 28.7625 100.916 28.7363 100.736 28.7369L100.176 28.739C99.989 28.7397 99.8625 28.7702 99.796 28.8304C99.7362 28.884 99.7067 29.0074 99.7074 29.2007L99.7123 30.5407ZM99.2977 31.9923C99.3842 31.9386 99.4874 31.9016 99.6073 31.8811C99.7272 31.854 99.8638 31.8402 100.017 31.8396L100.867 31.8365C101.02 31.8359 101.157 31.8487 101.277 31.8749C101.397 31.8945 101.501 31.9308 101.588 31.9838L101.587 31.7638C101.586 31.5838 101.559 31.4739 101.506 31.4341C101.452 31.3876 101.332 31.3647 101.145 31.3654L99.7454 31.3706C99.5588 31.3713 99.4355 31.3951 99.3757 31.442C99.3225 31.4889 99.2963 31.6056 99.297 31.7923L99.2977 31.9923ZM104.812 35.9419L105.342 35.9399C105.382 35.8264 105.428 35.6896 105.481 35.5294C105.534 35.3625 105.573 35.2357 105.599 35.1489C105.613 35.1156 105.626 35.0855 105.639 35.0588C105.659 35.0254 105.682 34.9986 105.709 34.9785L104.439 34.9832C104.499 35.0364 104.546 35.1028 104.58 35.1827C104.613 35.2626 104.65 35.3625 104.691 35.4823C104.731 35.6022 104.765 35.7087 104.792 35.8019C104.805 35.8286 104.812 35.8519 104.812 35.8719C104.812 35.8919 104.812 35.9152 104.812 35.9419ZM99.8865 34.3601L101.016 34.3559L101.015 33.8359L99.8846 33.8401L99.8865 34.3601ZM99.8819 33.1301L101.012 33.1259L101.011 33.0059C101.011 32.8326 100.984 32.726 100.93 32.6862C100.883 32.6464 100.777 32.6268 100.61 32.6274L100.28 32.6286C100.12 32.6292 100.013 32.6496 99.9603 32.6898C99.9071 32.73 99.8809 32.8368 99.8815 33.0101L99.8819 33.1301ZM100.792 30.5367L101.212 30.5352L101.21 29.8152L101.05 29.8158C100.95 29.8161 100.88 29.8364 100.84 29.8765C100.807 29.91 100.79 29.9767 100.791 30.0767L100.792 30.5367ZM104.843 30.7917L105.293 30.79L105.291 30.3001L104.841 30.3017L104.843 30.7917ZM104.839 29.6617L105.289 29.6601L105.287 29.1801L104.837 29.1817L104.839 29.6617ZM106.043 30.7873C106.237 30.7866 106.363 30.7561 106.423 30.6959C106.483 30.629 106.512 30.4989 106.512 30.3055L106.511 30.2955L106.041 30.2973L106.043 30.7873ZM106.039 29.6573L106.509 29.6555C106.502 29.4622 106.468 29.3357 106.408 29.2759C106.347 29.2161 106.224 29.1833 106.037 29.1773L106.039 29.6573ZM104.093 30.7945L104.092 30.3045L103.642 30.3062L103.642 30.3162C103.642 30.5028 103.673 30.6294 103.733 30.6958C103.793 30.7556 103.913 30.7885 104.093 30.7945ZM103.639 29.6662L104.089 29.6645L104.087 29.1845C103.907 29.1918 103.787 29.2256 103.728 29.2858C103.675 29.346 103.645 29.4728 103.639 29.6662ZM108.96 29.8665L116.47 29.8386L116.474 31.0186L110.184 31.0419L110.206 37.0319L108.986 37.0364L108.96 29.8665ZM115.85 29.8409L117.07 29.8364L117.091 35.6064C117.094 36.2463 116.975 36.5968 116.546 36.7884C116.116 36.98 115.486 37.0023 114.616 37.0055C114.575 36.6557 114.383 36.1164 114.212 35.787C114.762 35.815 115.442 35.8125 115.632 35.8018C115.812 35.8011 115.872 35.7409 115.871 35.5909L115.85 29.8409ZM110.753 28.0398L112.993 28.0315L112.997 29.0815L110.757 29.0898L110.753 28.0398ZM112.213 28.0344L113.493 28.0296C113.593 30.5993 114.17 32.7072 116.044 33.6102C115.785 33.8512 115.377 34.3427 115.188 34.6634C113.213 33.5007 112.545 31.2132 112.405 28.5737L112.215 28.5744L112.213 28.0344ZM112.311 30.134L113.412 30.32C113.079 32.4212 112.315 33.904 110.748 34.7499C110.587 34.4705 110.195 33.9819 109.954 33.7828C111.322 33.1277 112.067 31.8549 112.311 30.134ZM122.396 36.9167C121.896 36.9186 121.496 36.8667 121.196 36.7611C120.895 36.6623 120.678 36.4864 120.544 36.2336C120.409 35.9807 120.341 35.631 120.34 35.1843C120.338 34.7376 120.403 34.3874 120.536 34.1336C120.668 33.8797 120.884 33.7023 121.184 33.6012C121.483 33.4934 121.883 33.4386 122.383 33.4367L123.663 33.432C124.163 33.4301 124.563 33.482 124.864 33.5875C125.164 33.6864 125.382 33.8623 125.516 34.1151C125.65 34.368 125.718 34.7177 125.72 35.1644C125.721 35.611 125.656 35.9613 125.524 36.2151C125.391 36.4689 125.175 36.6464 124.876 36.7475C124.576 36.8553 124.176 36.9101 123.676 36.912L122.396 36.9167ZM119.184 30.9686C119.024 30.9692 118.887 30.9197 118.774 30.8201C118.666 30.7205 118.613 30.584 118.612 30.4107L118.611 30.0907C118.609 29.5707 118.731 29.2036 118.977 28.9893C119.229 28.7684 119.659 28.6568 120.265 28.6545L122.335 28.6469L122.333 28.0569C122.333 27.8635 122.392 27.7167 122.512 27.6162C122.638 27.5157 122.784 27.4652 122.951 27.4646C123.124 27.4639 123.271 27.5134 123.392 27.6129C123.519 27.7125 123.583 27.8589 123.583 28.0522L123.585 28.6422L125.725 28.6343C126.332 28.6321 126.759 28.7405 127.007 28.9596C127.261 29.1719 127.389 29.5381 127.391 30.0581L127.392 30.3781C127.393 30.5515 127.336 30.6883 127.223 30.7888C127.11 30.8892 126.974 30.9397 126.814 30.9403C126.654 30.9409 126.517 30.8947 126.403 30.8018C126.29 30.7089 126.233 30.5758 126.232 30.4024L126.231 30.1324C126.23 29.9458 126.183 29.8126 126.09 29.733C126.003 29.6533 125.836 29.6139 125.589 29.6148L120.409 29.634C120.162 29.6349 119.993 29.6756 119.9 29.7559C119.807 29.8362 119.76 29.9698 119.761 30.1564L119.762 30.4264C119.763 30.5997 119.707 30.7333 119.594 30.827C119.481 30.9208 119.344 30.968 119.184 30.9686ZM119.188 34.7286C119.022 34.8225 118.858 34.8531 118.698 34.8204C118.538 34.7877 118.411 34.6948 118.317 34.5418C118.23 34.3888 118.213 34.2422 118.266 34.102C118.318 33.9618 118.428 33.8481 118.594 33.7608C118.974 33.566 119.363 33.3413 119.762 33.0864C120.161 32.825 120.55 32.5535 120.929 32.2721C121.315 31.984 121.663 31.7027 121.976 31.4282C122.295 31.1404 122.614 30.9958 122.934 30.9947C123.261 30.9935 123.588 31.1222 123.916 31.381C124.223 31.6199 124.567 31.8686 124.948 32.1272C125.336 32.3858 125.74 32.6343 126.161 32.8727C126.582 33.1112 126.993 33.3263 127.394 33.5182C127.547 33.5909 127.658 33.7038 127.725 33.8569C127.792 34.0033 127.783 34.1567 127.697 34.317C127.61 34.484 127.478 34.5945 127.298 34.6485C127.125 34.6958 126.948 34.6731 126.768 34.5805C126.393 34.3752 126.003 34.1466 125.595 33.8948C125.187 33.643 124.793 33.3845 124.412 33.1192C124.038 32.8473 123.7 32.5852 123.399 32.3329C123.245 32.2002 123.105 32.1374 122.978 32.1445C122.858 32.145 122.722 32.2121 122.569 32.346C122.27 32.6005 121.931 32.8717 121.552 33.1598C121.18 33.4412 120.791 33.7193 120.385 33.9941C119.98 34.2623 119.581 34.5071 119.188 34.7286ZM122.392 35.8567L123.672 35.852C124.032 35.8506 124.265 35.8031 124.372 35.7094C124.485 35.6156 124.541 35.4354 124.54 35.1687C124.539 34.8954 124.481 34.7156 124.368 34.6294C124.261 34.5364 124.027 34.4906 123.667 34.492L122.387 34.4967C122.021 34.4981 121.781 34.5456 121.668 34.6394C121.561 34.7264 121.509 34.9066 121.51 35.18C121.511 35.4466 121.565 35.6264 121.672 35.7194C121.785 35.8123 122.026 35.8581 122.392 35.8567ZM120.248 32.0546C120.102 32.1485 119.945 32.1924 119.779 32.1864C119.619 32.1803 119.482 32.1008 119.368 31.9479C119.287 31.8349 119.257 31.705 119.276 31.5582C119.302 31.4048 119.382 31.2845 119.515 31.1973C119.788 31.023 120.067 30.822 120.353 30.5942C120.645 30.3665 120.894 30.1522 121.1 29.9515C121.213 29.831 121.346 29.7705 121.5 29.77C121.66 29.7694 121.797 29.8255 121.91 29.9385C122.024 30.0447 122.078 30.1712 122.072 30.3179C122.066 30.4579 122.009 30.5848 121.903 30.6985C121.657 30.9527 121.395 31.1937 121.116 31.4214C120.843 31.6491 120.554 31.8602 120.248 32.0546ZM125.678 31.9245C125.511 31.8185 125.32 31.6958 125.106 31.5566C124.892 31.4174 124.682 31.2749 124.475 31.129C124.274 30.9764 124.1 30.8403 123.953 30.7209C123.833 30.6213 123.766 30.4982 123.752 30.3516C123.745 30.205 123.791 30.0781 123.89 29.9711C123.983 29.8574 124.103 29.797 124.25 29.7898C124.403 29.7759 124.536 29.8154 124.65 29.9083C124.804 30.0277 124.981 30.1571 125.182 30.2963C125.382 30.4289 125.583 30.5582 125.783 30.6841C125.99 30.8033 126.181 30.906 126.354 30.992C126.488 31.0582 126.568 31.1645 126.595 31.3111C126.629 31.4576 126.61 31.5977 126.537 31.7313C126.451 31.885 126.325 31.9788 126.158 32.0127C125.991 32.04 125.831 32.0106 125.678 31.9245Z" fill="#FE585B"/>
<path d="M64.2637 51.093C64.0397 51.0938 63.8474 51.0145 63.6868 50.8551C63.5262 50.6957 63.4455 50.504 63.4446 50.28C63.4438 50.0454 63.523 49.8477 63.6824 49.6871C63.8419 49.5265 64.0336 49.4458 64.2576 49.445L67.6335 49.4325C67.5583 49.2834 67.4831 49.1344 67.4079 48.9853C67.3433 48.8362 67.2842 48.7031 67.2304 48.586C67.1228 48.341 67.1006 48.0904 67.1636 47.8342C67.2267 47.578 67.3913 47.3907 67.6575 47.2724L65.2255 47.2814C65.0122 47.2822 64.8253 47.2082 64.6647 47.0595C64.5148 46.9 64.4394 46.7136 64.4386 46.5003C64.4379 46.287 64.5118 46.1054 64.6606 45.9555C64.82 45.7949 65.0064 45.7142 65.2197 45.7134L69.9397 45.6959L69.9367 44.8799C69.9355 44.5706 70.0359 44.3195 70.2379 44.1268C70.4505 43.934 70.7008 43.8371 70.9888 43.836C71.2768 43.8349 71.5225 43.93 71.7259 44.1213C71.9399 44.3125 72.0475 44.5628 72.0487 44.8721L72.0517 45.6881L76.7237 45.6708C76.937 45.67 77.1186 45.7493 77.2685 45.9087C77.4291 46.0575 77.5098 46.2385 77.5106 46.4519C77.5113 46.6652 77.432 46.8521 77.2726 47.0127C77.1239 47.1626 76.9428 47.238 76.7295 47.2388L74.4415 47.2472C74.6873 47.3743 74.8373 47.5604 74.8916 47.8056C74.9458 48.0507 74.92 48.2908 74.8142 48.5259C74.7613 48.6434 74.6978 48.7823 74.6238 48.9426C74.5497 49.0922 74.4756 49.2471 74.4015 49.4074L77.7135 49.3951C77.9481 49.3943 78.1458 49.4735 78.3063 49.6329C78.4669 49.7923 78.5477 49.9894 78.5485 50.224C78.5494 50.448 78.4701 50.6403 78.3107 50.8009C78.1513 50.9615 77.9542 51.0422 77.7196 51.0431L64.2637 51.093ZM69.7163 58.8168C68.8417 58.8201 68.1533 58.732 67.6513 58.5525C67.16 58.3836 66.8123 58.0863 66.608 57.6603C66.4145 57.2451 66.3164 56.6747 66.3137 55.9494L66.3093 54.7814C66.3066 54.0454 66.4005 53.4691 66.5909 53.0524C66.7921 52.6356 67.1376 52.341 67.6277 52.1685C68.1283 51.9853 68.816 51.8921 69.6907 51.8889L72.3626 51.879C73.248 51.8757 73.931 51.9638 74.4116 52.1434C74.9029 52.3122 75.2453 52.6043 75.4389 53.0196C75.6431 53.4348 75.7466 54.0104 75.7493 54.7464L75.7536 55.9144C75.7563 56.6398 75.6571 57.2108 75.456 57.6275C75.2655 58.0549 74.9253 58.3549 74.4353 58.5273C73.956 58.7104 73.2736 58.8036 72.3883 58.8069L69.7163 58.8168ZM69.7135 49.4248L72.3215 49.4151C72.4272 49.1587 72.5382 48.8756 72.6544 48.5659C72.7705 48.2561 72.8761 47.9677 72.9711 47.7007C73.0451 47.5191 73.1673 47.3693 73.3375 47.2513L68.6495 47.2687C68.8419 47.3747 68.9758 47.5288 69.0512 47.7312C69.1481 47.9762 69.2559 48.2585 69.3744 48.578C69.5036 48.8975 69.6166 49.1798 69.7135 49.4248ZM69.6944 57.2169L72.3824 57.2069C72.9157 57.205 73.2728 57.1343 73.4536 56.995C73.6344 56.845 73.7293 56.5406 73.7382 56.0819L68.3463 56.1019C68.3586 56.5605 68.4557 56.8642 68.6376 57.0128C68.8195 57.1508 69.1717 57.2188 69.6944 57.2169ZM68.3406 54.5819L73.7326 54.5619C73.7202 54.1033 73.6178 53.805 73.4253 53.667C73.2434 53.5291 72.8912 53.461 72.3685 53.463L69.6805 53.4729C69.1579 53.4749 68.8061 53.5455 68.6253 53.6848C68.4551 53.8241 68.3603 54.1232 68.3406 54.5819ZM79.6896 47.2598L84.6815 47.2413L84.6881 49.0173L79.6961 49.0358L79.6896 47.2598ZM81.5333 43.9409L83.2613 43.9345L83.3169 58.9584L81.589 58.9648L81.5333 43.9409ZM81.5341 48.469L82.5914 48.833C82.1688 51.3626 81.3004 54.4859 80.2024 56.1219C80.0245 55.6106 79.6058 54.8761 79.3321 54.4132C80.3189 53.0175 81.1896 50.5022 81.5341 48.469ZM83.1867 49.7108C83.5243 50.1416 84.8119 52.2008 85.0856 52.6478L84.1466 53.9953C83.8071 53.0686 82.8562 51.2001 82.4534 50.4496L83.1867 49.7108ZM86.5339 54.8985L92.7259 54.8755L92.7307 56.1875L86.5388 56.2105L86.5339 54.8985ZM86.3979 57.043L92.9578 57.0187L92.963 58.4107L86.403 58.435L86.3979 57.043ZM88.6212 43.9147L90.4452 43.9079L90.4576 47.2519L88.6336 47.2586L88.6212 43.9147ZM88.7368 53.5143L90.3688 53.5082L90.3846 57.7642L88.7526 57.7703L88.7368 53.5143ZM84.9024 46.4085L94.3104 46.3736L94.3209 49.2056L92.5449 49.2121L92.5398 47.8522L86.6039 47.8742L86.6089 49.2341L84.9129 49.2404L84.9024 46.4085ZM85.2777 52.6951L93.9657 52.6629L93.9888 58.9029L92.1488 58.9097L92.1309 54.0617L87.0269 54.0806L87.0449 58.9446L85.3009 58.9511L85.2777 52.6951ZM88.0354 49.9009L88.0388 50.8129L91.2068 50.8011L91.2034 49.8891L88.0354 49.9009ZM86.3827 48.627L92.9586 48.6026L92.9716 52.0906L86.3956 52.115L86.3827 48.627ZM85.4237 44.5985L86.9578 44.0648C87.36 44.6553 87.795 45.4697 87.9571 46.0291L86.3272 46.6112C86.1812 46.0677 85.794 45.2211 85.4237 44.5985ZM92.0456 43.998L93.8235 44.5194C93.3784 45.289 92.9492 46.0586 92.599 46.5559L91.1413 46.0813C91.4591 45.5041 91.8399 44.6227 92.0456 43.998ZM108.468 58.6252C108.083 58.488 107.651 58.3029 107.17 58.07C106.689 57.8371 106.213 57.5775 105.743 57.2913C105.273 57.005 104.855 56.7239 104.492 56.4479C104.299 56.2993 104.187 56.113 104.154 55.8892C104.132 55.6546 104.189 55.4464 104.327 55.2645C104.444 55.1254 104.572 55.0343 104.71 54.9911L101.382 55.0034C101.447 55.0352 101.511 55.0723 101.575 55.1147C101.639 55.1571 101.693 55.2103 101.735 55.2741C101.886 55.4762 101.934 55.6894 101.882 55.9136C101.84 56.1271 101.734 56.3035 101.564 56.4428C101.245 56.7 100.856 56.9681 100.399 57.2471C99.9411 57.5261 99.4674 57.7839 98.9776 58.0204C98.4985 58.2568 98.0565 58.4558 97.6518 58.6173C97.3429 58.7358 97.0657 58.7635 96.8201 58.7004C96.5746 58.6479 96.3926 58.4886 96.2743 58.2224C96.1667 57.9774 96.1605 57.7428 96.2557 57.5185C96.3509 57.2941 96.5369 57.1334 96.8139 57.0364C97.2187 56.8855 97.6447 56.708 98.092 56.5036C98.5498 56.2886 98.9863 56.0683 99.4015 55.8428C99.8166 55.6066 100.173 55.3812 100.471 55.1668C100.514 55.1347 100.556 55.1078 100.599 55.0863C100.652 55.0541 100.7 55.0273 100.742 55.0058L96.3744 55.022C96.1504 55.0228 95.9582 54.9489 95.7976 54.8001C95.6477 54.6407 95.5723 54.4543 95.5715 54.241C95.5707 54.017 95.6447 53.83 95.7935 53.6801C95.9529 53.5195 96.1446 53.4388 96.3686 53.438L96.9766 53.4358L96.8255 47.2123C96.8131 46.7323 96.849 46.3482 96.9332 46.0599C97.0281 45.7608 97.2033 45.5255 97.4586 45.3539C97.7139 45.1716 98.0814 45.0209 98.561 44.9018C98.7421 44.8478 98.9232 44.7991 99.1044 44.7558C99.2962 44.7018 99.4827 44.6477 99.6638 44.5937C99.8663 44.5396 100.058 44.5496 100.24 44.6236C100.422 44.6869 100.545 44.8251 100.609 45.0382C100.685 45.2726 100.675 45.4753 100.58 45.6463C100.495 45.8067 100.346 45.9139 100.133 45.968C99.9944 46.0112 99.8453 46.0597 99.6855 46.1137C99.5256 46.1569 99.3871 46.1894 99.2698 46.2112C98.9395 46.2978 98.7318 46.3999 98.6469 46.5175C98.562 46.6245 98.5255 46.8433 98.5374 47.1739L98.5392 47.6699L99.7872 47.6653C100.001 47.6645 100.177 47.7332 100.316 47.8713C100.466 48.0094 100.541 48.1852 100.542 48.3985C100.543 48.6012 100.469 48.7774 100.32 48.9273C100.182 49.0665 100.006 49.1365 99.7927 49.1373L98.5767 49.1418L98.6138 50.5177L99.7978 50.5133C100.011 50.5125 100.187 50.5812 100.327 50.7193C100.476 50.8574 100.552 51.0331 100.552 51.2465C100.553 51.4491 100.479 51.6254 100.33 51.7753C100.192 51.9145 100.017 51.9845 99.8032 51.9853L98.6512 51.9895L98.6886 53.4294L101.073 53.4206L101.062 50.6686C101.062 50.4446 101.136 50.2683 101.284 50.1398C101.433 50.0005 101.609 49.9306 101.812 49.9298C102.025 49.929 102.201 49.9977 102.34 50.1358C102.49 50.2633 102.566 50.439 102.566 50.663L102.577 53.415L103.457 53.4117L103.445 50.2278C103.444 49.9184 103.4 49.7212 103.315 49.6362C103.24 49.5405 103.031 49.4933 102.69 49.4945C102.082 49.4968 101.655 49.3864 101.409 49.1633C101.173 48.9295 101.054 48.4979 101.052 47.8686L101.041 44.9406C101.04 44.6953 101.119 44.4977 101.279 44.3477C101.438 44.1978 101.63 44.1224 101.854 44.1216C102.078 44.1208 102.27 44.1947 102.431 44.3435C102.602 44.4922 102.688 44.6892 102.689 44.9345L102.692 45.6385L104.356 45.6323C104.548 45.6316 104.713 45.7004 104.852 45.8385C104.992 45.966 105.062 46.1257 105.062 46.3177C105.063 46.5097 104.994 46.6753 104.856 46.8145C104.718 46.9537 104.553 47.0236 104.361 47.0243L102.697 47.0305L102.699 47.5105C102.7 47.7985 102.754 47.985 102.861 48.0699C102.968 48.1442 103.176 48.1807 103.485 48.1796C103.986 48.1777 104.355 48.3044 104.591 48.5595C104.837 48.8039 104.961 49.2301 104.963 49.8381L104.977 53.4061L107.297 53.3975L107.323 51.9734L106.123 51.9778C105.921 51.9786 105.744 51.9046 105.594 51.7558C105.455 51.607 105.385 51.4312 105.384 51.2286C105.384 51.0259 105.452 50.855 105.591 50.7158C105.739 50.5659 105.915 50.4906 106.118 50.4898L107.35 50.4853L107.361 49.1092L106.113 49.1139C105.91 49.1146 105.734 49.0459 105.584 48.9078C105.445 48.759 105.375 48.5833 105.374 48.3806C105.373 48.1673 105.442 47.991 105.58 47.8518C105.729 47.7126 105.904 47.6426 106.107 47.6419L107.387 47.6371L107.401 47.1411C107.411 46.7997 107.357 46.5759 107.239 46.4697C107.121 46.3528 106.892 46.295 106.55 46.2962L105.798 46.299C105.596 46.2998 105.419 46.2257 105.269 46.077C105.119 45.9282 105.044 45.7525 105.043 45.5498C105.043 45.3365 105.117 45.1549 105.265 45.005C105.414 44.8551 105.59 44.7798 105.793 44.779L106.657 44.7758C107.307 44.7734 107.809 44.8462 108.161 44.9942C108.525 45.1316 108.776 45.3706 108.916 45.7114C109.056 46.0523 109.116 46.5214 109.097 47.1188L108.992 53.3912L109.632 53.3888C109.856 53.388 110.043 53.4673 110.193 53.6268C110.354 53.7755 110.435 53.9619 110.435 54.1859C110.436 54.3992 110.357 54.5862 110.198 54.7468C110.049 54.8966 109.862 54.972 109.638 54.9728L105.238 54.9891C105.292 54.9996 105.345 55.0207 105.399 55.0525C105.463 55.0843 105.516 55.1161 105.559 55.148C105.88 55.3708 106.259 55.604 106.698 55.8477C107.136 56.0808 107.585 56.3031 108.044 56.5147C108.514 56.7157 108.931 56.8795 109.294 57.0061C109.539 57.0799 109.705 57.2233 109.791 57.4363C109.888 57.6599 109.895 57.8892 109.81 58.1242C109.704 58.4233 109.518 58.6 109.252 58.6543C108.996 58.7192 108.735 58.7095 108.468 58.6252ZM112.166 50.6114C111.964 50.6122 111.787 50.5435 111.637 50.4054C111.498 50.2566 111.428 50.0808 111.427 49.8782C111.427 49.6755 111.501 49.5046 111.65 49.3653C111.798 49.2154 111.985 49.1401 112.209 49.1393L115.217 49.1281L115.215 48.6001C114.532 48.6026 113.999 48.5353 113.614 48.398C113.24 48.2501 112.978 48.0111 112.827 47.681C112.687 47.3401 112.616 46.8871 112.614 46.3217C112.612 45.7457 112.68 45.2975 112.817 44.977C112.965 44.6564 113.226 44.4315 113.599 44.3021C113.982 44.1727 114.515 44.1067 115.198 44.1041L116.942 44.0977C117.635 44.0951 118.164 44.1572 118.527 44.2838C118.901 44.4104 119.157 44.6335 119.297 44.953C119.448 45.2724 119.524 45.7201 119.526 46.2961C119.528 46.8614 119.455 47.3097 119.307 47.6409C119.17 47.9721 118.92 48.213 118.558 48.3637C118.196 48.5037 117.673 48.5803 116.991 48.5935L116.993 49.1215L119.921 49.1107C120.102 49.11 120.262 49.1841 120.402 49.3329C120.541 49.471 120.611 49.6415 120.611 49.8441C120.612 50.0468 120.543 50.223 120.405 50.3729C120.267 50.5121 120.091 50.5821 119.878 50.5828L112.166 50.6114ZM114.885 58.8734C114.608 58.8744 114.378 58.806 114.196 58.668C114.025 58.5299 113.933 58.3276 113.922 58.061C113.91 57.837 113.974 57.6394 114.112 57.4683C114.26 57.297 114.457 57.2003 114.703 57.1781C114.958 57.1558 115.129 57.1072 115.214 57.0322C115.299 56.9572 115.341 56.8024 115.34 56.5677L115.333 54.4717L114.949 54.4731C114.106 54.4763 113.529 54.3557 113.219 54.1116C112.909 53.8674 112.753 53.4253 112.75 52.7853C112.748 52.1346 112.901 51.686 113.209 51.4396C113.518 51.1931 114.093 51.0683 114.936 51.0652L117.384 51.0561C118.227 51.053 118.803 51.1735 119.113 51.4177C119.423 51.6619 119.58 52.1093 119.582 52.76C119.585 53.4 119.432 53.8432 119.123 54.0897C118.815 54.3361 118.239 54.4609 117.397 54.4641L117.045 54.4654L117.053 56.8654C117.056 57.5694 116.887 58.0766 116.547 58.3872C116.207 58.7085 115.653 58.8706 114.885 58.8734ZM121.155 58.2582C120.857 58.4086 120.574 58.4577 120.307 58.4053C120.051 58.3636 119.853 58.2257 119.714 57.9915C119.66 57.9064 119.622 57.8052 119.6 57.6879C119.451 57.7418 119.291 57.7531 119.121 57.7217C118.95 57.6903 118.795 57.6109 118.656 57.4834C118.559 57.3771 118.425 57.2389 118.254 57.0689C118.094 56.8988 117.933 56.7288 117.772 56.5587C117.612 56.378 117.478 56.2291 117.371 56.1122C117.231 55.9314 117.156 55.7343 117.144 55.521C117.144 55.297 117.223 55.1101 117.382 54.9601C117.531 54.8102 117.718 54.7295 117.941 54.7181C118.165 54.7066 118.352 54.7805 118.502 54.94C118.631 55.0675 118.781 55.2163 118.952 55.3863C119.123 55.5563 119.295 55.721 119.466 55.8804C119.637 56.0291 119.776 56.1566 119.883 56.2629C120.022 56.3797 120.108 56.5127 120.141 56.6619C120.716 56.3824 121.28 56.039 121.833 55.6316C122.386 55.2136 122.902 54.7583 123.38 54.2659C123.869 53.7627 124.288 53.2492 124.638 52.7252C124.797 52.4793 125.015 52.3345 125.293 52.2908C125.57 52.2364 125.821 52.2942 126.045 52.464C126.259 52.6232 126.372 52.8308 126.383 53.0867C126.395 53.332 126.327 53.5616 126.178 53.7755C125.807 54.3529 125.35 54.9253 124.808 55.4926C124.266 56.06 123.682 56.5795 123.054 57.0511C122.437 57.5227 121.804 57.9251 121.155 58.2582ZM121.871 52.8795C121.637 53.0403 121.386 53.1159 121.12 53.1063C120.853 53.0859 120.634 52.9534 120.462 52.7087C120.301 52.4853 120.242 52.2455 120.283 51.9894C120.336 51.7332 120.484 51.5299 120.729 51.3797C121.112 51.1223 121.522 50.8114 121.958 50.4471C122.404 50.0828 122.83 49.7079 123.234 49.3224C123.637 48.9369 123.972 48.589 124.238 48.2787C124.418 48.0647 124.636 47.9519 124.892 47.9402C125.148 47.918 125.378 47.9971 125.581 48.1777C125.795 48.3476 125.897 48.5605 125.888 48.8166C125.889 49.0726 125.804 49.3022 125.634 49.5055C125.337 49.8586 124.976 50.2439 124.55 50.6615C124.125 51.0791 123.679 51.4808 123.211 51.8665C122.743 52.2522 122.296 52.5899 121.871 52.8795ZM121.822 48.3516C121.588 48.5125 121.337 48.5881 121.071 48.5784C120.815 48.5687 120.596 48.4468 120.413 48.2128C120.253 48.0001 120.193 47.771 120.235 47.5255C120.287 47.2693 120.43 47.0661 120.665 46.9159C120.962 46.7121 121.298 46.4602 121.67 46.1602C122.053 45.8601 122.425 45.544 122.786 45.212C123.148 44.88 123.451 44.5802 123.695 44.3127C123.865 44.12 124.083 44.0179 124.35 44.0062C124.627 43.9839 124.857 44.063 125.039 44.2437C125.231 44.4243 125.328 44.6373 125.329 44.8826C125.341 45.1172 125.261 45.3309 125.091 45.5235C124.826 45.8125 124.496 46.1337 124.103 46.4872C123.72 46.8406 123.327 47.1834 122.923 47.5155C122.519 47.8477 122.152 48.1264 121.822 48.3516ZM112.049 57.9079C111.878 57.7805 111.771 57.6103 111.727 57.3971C111.695 57.1839 111.747 56.9917 111.885 56.8205C112.002 56.6707 112.14 56.4889 112.299 56.275C112.469 56.0503 112.628 55.8311 112.777 55.6172C112.936 55.3926 113.058 55.2055 113.143 55.0558C113.259 54.8527 113.419 54.7188 113.621 54.6541C113.834 54.5893 114.042 54.6098 114.245 54.7158C114.459 54.8216 114.593 54.9758 114.647 55.1783C114.712 55.3807 114.691 55.5834 114.585 55.7865C114.437 56.0857 114.225 56.4225 113.949 56.7969C113.684 57.1605 113.45 57.4601 113.248 57.6955C113.1 57.8774 112.914 57.99 112.69 58.0335C112.466 58.0877 112.252 58.0458 112.049 57.9079ZM115.024 53.2089L117.296 53.2004C117.509 53.1996 117.653 53.1671 117.727 53.1028C117.802 53.0386 117.839 52.9211 117.838 52.7504C117.838 52.5798 117.8 52.4626 117.725 52.3988C117.65 52.3351 117.506 52.3036 117.293 52.3044L115.021 52.3129C114.807 52.3137 114.663 52.3462 114.589 52.4105C114.514 52.4747 114.478 52.5922 114.478 52.7629C114.479 52.9335 114.517 53.0507 114.592 53.1145C114.666 53.1782 114.811 53.2096 115.024 53.2089ZM114.292 45.8195L117.828 45.8064C117.785 45.5719 117.694 45.4282 117.555 45.3754C117.427 45.3226 117.203 45.2967 116.883 45.2979L115.251 45.304C114.931 45.3051 114.701 45.3327 114.563 45.3865C114.424 45.4404 114.334 45.5847 114.292 45.8195ZM115.258 47.4159L116.89 47.4099C117.2 47.4088 117.418 47.3759 117.546 47.3115C117.684 47.2363 117.775 47.0973 117.816 46.8945L114.312 46.9074C114.356 47.11 114.447 47.2483 114.586 47.3224C114.725 47.3859 114.949 47.4171 115.258 47.4159ZM138.052 58.7235C137.764 58.7246 137.519 58.6295 137.315 58.4383C137.112 58.247 137.01 58.0021 137.009 57.7034L136.997 54.4394C136.994 53.8741 136.886 53.4958 136.672 53.3046C136.469 53.1134 136.058 53.0189 135.439 53.0212L131.759 53.0348C131.614 54.07 131.367 55.0043 131.018 55.8376C130.679 56.6602 130.229 57.4459 129.666 58.1946C129.497 58.4299 129.263 58.5748 128.964 58.6292C128.666 58.6943 128.383 58.6367 128.115 58.4564C127.891 58.2972 127.762 58.0843 127.729 57.8178C127.696 57.5512 127.764 57.311 127.934 57.097C128.401 56.4766 128.783 55.8405 129.079 55.1888C129.386 54.5263 129.613 53.7948 129.759 52.9942C129.906 52.1937 129.977 51.2761 129.973 50.2414L129.953 44.9615C129.952 44.6628 130.047 44.4224 130.239 44.2404C130.43 44.0584 130.659 43.9668 130.926 43.9659C131.203 43.9648 131.433 44.0546 131.615 44.2353C131.807 44.4159 131.904 44.6556 131.905 44.9542L131.915 47.6422L135.643 47.6284L135.633 44.7644C135.632 44.4551 135.732 44.204 135.934 44.0113C136.136 43.8185 136.381 43.7216 136.669 43.7206C136.957 43.7195 137.203 43.8146 137.406 44.0058C137.609 44.1971 137.712 44.4474 137.713 44.7567L137.723 47.6207L141.275 47.6075C141.531 47.6066 141.745 47.6964 141.916 47.8771C142.098 48.0578 142.19 48.2761 142.191 48.5321C142.192 48.7881 142.102 49.0071 141.921 49.1891C141.751 49.3711 141.538 49.4626 141.282 49.4635L131.922 49.4982L131.925 50.2342C131.926 50.4049 131.926 50.5702 131.927 50.7302C131.927 50.8902 131.923 51.0449 131.913 51.1942L135.432 51.1812C136.168 51.1785 136.771 51.2242 137.241 51.3185C137.721 51.402 138.095 51.5607 138.363 51.7943C138.63 52.028 138.813 52.358 138.91 52.7843C139.019 53.2106 139.074 53.7597 139.077 54.4317L139.089 57.6957C139.09 57.9944 138.989 58.2401 138.787 58.4328C138.585 58.6256 138.34 58.7225 138.052 58.7235Z" fill="black" fill-opacity="0.85"/>
</g>
<defs>
<radialGradient id="paint0_radial_1720_1908" cx="0" cy="0" r="1" gradientUnits="userSpaceOnUse" gradientTransform="translate(0.558656 46.8353) rotate(65.4889) scale(3.32531 8.21233)">
<stop offset="0.33" stop-opacity="0"/>
<stop offset="0.655" stop-opacity="0.6"/>
<stop offset="1"/>
</radialGradient>
<radialGradient id="paint1_radial_1720_1908" cx="0" cy="0" r="1" gradientUnits="userSpaceOnUse" gradientTransform="translate(355.296 45.8572) rotate(114.511) scale(3.32531 8.21233)">
<stop offset="0.33" stop-opacity="0"/>
<stop offset="0.655" stop-opacity="0.6"/>
<stop offset="1"/>
</radialGradient>
<clipPath id="clip0_1720_1908">
<rect width="200" height="90" fill="white"/>
</clipPath>
</defs>
</svg>
