<svg width="200" height="90" viewBox="0 0 200 90" fill="none" xmlns="http://www.w3.org/2000/svg">
<g clip-path="url(#clip0_2308_6881)">
<rect width="200" height="90" fill="#FEB79D"/>
<path fill-rule="evenodd" clip-rule="evenodd" d="M-6.18027 85.5257C-5.5206 81.3514 -9.94765 77.2571 -7.65473 73.2393C-4.94813 68.4966 -1.65241 61.9915 7.77154 61.0783C17.9972 60.0873 23.5998 68.8258 33.9785 69.2048C45.8176 69.6371 56.5881 60.196 66.8872 63.2371C76.2425 65.9996 70.121 74.0119 68.9752 79.5387C68.1676 83.4341 61.5364 86.4306 61.2669 90.3457C60.8502 96.3973 75.7689 103.853 67.0229 107.895C58.3557 111.9 45.7383 103.802 34.2527 102.83C27.3162 102.243 20.5655 103.925 13.6182 103.373C4.65786 102.66 -7.2514 103.227 -11.7526 99.1698C-16.3208 95.0519 -6.92748 90.2539 -6.18027 85.5257Z" fill="#FE585B"/>
<path fill-rule="evenodd" clip-rule="evenodd" d="M28.4743 10.5302C32.6486 10.8717 36.7429 8.58004 40.7607 9.76696C45.5034 11.168 52.0085 12.874 52.9217 17.7523C53.9127 23.0456 45.1742 25.9458 44.7952 31.3183C44.3629 37.4467 53.804 43.0221 50.7629 48.3534C48.0004 53.1961 39.9881 50.0274 34.4613 49.4342C30.5659 49.0162 27.5694 45.5836 23.6543 45.444C17.6027 45.2284 10.1469 52.9509 6.10508 48.4236C2.09968 43.9371 10.1975 37.4057 11.1701 31.4602C11.7575 27.8695 10.0747 24.3751 10.6274 20.7788C11.3402 16.1405 10.7727 9.97575 14.8302 7.64571C18.9481 5.281 23.7461 10.1434 28.4743 10.5302Z" fill="#FC7443"/>
<path fill-rule="evenodd" clip-rule="evenodd" d="M173.474 4.53021C177.649 4.87169 181.743 2.58004 185.761 3.76696C190.503 5.16803 197.008 6.87405 197.922 11.7523C198.913 17.0456 190.174 19.9458 189.795 25.3183C189.363 31.4467 198.804 37.0221 195.763 42.3534C193 47.1961 184.988 44.0274 179.461 43.4342C175.566 43.0162 172.569 39.5836 168.654 39.444C162.603 39.2284 155.147 46.9509 151.105 42.4236C147.1 37.9371 155.198 31.4057 156.17 25.4602C156.757 21.8695 155.075 18.3751 155.627 14.7788C156.34 10.1405 155.773 3.97575 159.83 1.64571C163.948 -0.719004 168.746 4.14342 173.474 4.53021Z" fill="#FF8787"/>
<path fill-rule="evenodd" clip-rule="evenodd" d="M117.063 7.20494C131.49 7.9797 144.155 11.9054 154.996 17.5775C166.733 23.7188 176.896 30.8598 179.688 39.9711C183.097 51.0949 184.354 63.7453 171.749 72.2549C158.691 81.0707 136.857 81.4742 117.063 82.2497C95.2362 83.1048 71.8992 84.7511 54.6033 76.8446C35.6156 68.1646 20.8565 53.9771 24.5773 39.9711C28.0889 26.7526 52.1053 19.9805 71.5388 13.0955C85.3864 8.18958 100.98 6.34119 117.063 7.20494Z" fill="#FFAB7A"/>
<ellipse cx="177.989" cy="70.7269" rx="16.7876" ry="14.0511" fill="#F55A57"/>
<ellipse cx="173.713" cy="65.6395" rx="1.21537" ry="2.15126" fill="black"/>
<ellipse cx="182.288" cy="65.6395" rx="1.21537" ry="2.15126" fill="black"/>
<path d="M173.043 72.6426C173.079 74.5703 175.312 76.0917 178.031 76.0408C180.749 75.99 182.924 74.386 182.888 72.4584C182.852 70.5307 180.67 71.7806 177.952 71.8314C175.233 71.8823 173.007 70.7149 173.043 72.6426Z" fill="black"/>
<path d="M170.798 50.9035C173.679 48.6452 180.102 51.1915 180.102 55.0219C180.103 59.542 168.088 61.6232 165.803 61.9782C165.554 62.0169 165.305 62.044 165.056 62.039C163.427 62.0062 157.617 61.2375 170.798 50.9035Z" fill="#6E5232"/>
<path d="M170.798 50.9035C173.679 48.6452 180.102 51.1915 180.102 55.0219C180.103 59.542 168.088 61.6232 165.803 61.9782C165.554 62.0169 165.305 62.044 165.056 62.039C163.427 62.0062 157.617 61.2375 170.798 50.9035Z" fill="url(#paint0_radial_2308_6881)" fill-opacity="0.15"/>
<path d="M185.204 50.7629C182.323 48.5045 175.9 51.0509 175.9 54.8813C175.899 59.4014 187.914 61.4825 190.199 61.8375C190.448 61.8763 190.697 61.9034 190.946 61.8984C192.575 61.8656 198.385 61.0968 185.204 50.7629Z" fill="#6E5232"/>
<path d="M185.204 50.7629C182.323 48.5045 175.9 51.0509 175.9 54.8813C175.899 59.4014 187.914 61.4825 190.199 61.8375C190.448 61.8763 190.697 61.9034 190.946 61.8984C192.575 61.8656 198.385 61.0968 185.204 50.7629Z" fill="url(#paint1_radial_2308_6881)" fill-opacity="0.15"/>
<path d="M80.6206 36.0437C80.6592 35.6503 80.8219 35.4763 81.1087 35.5219C81.3955 35.5675 81.5196 35.7704 81.481 36.1305C81.4433 36.7507 81.3552 37.2677 81.2167 37.6815C81.1575 37.9084 80.9878 37.9724 80.7074 37.8734C80.4337 37.7811 80.3265 37.6382 80.3858 37.4446C80.5047 37.1442 80.583 36.6772 80.6206 36.0437ZM81.8207 36.0493C81.7795 35.7361 81.8888 35.5457 82.1485 35.4781C82.4083 35.4104 82.5553 35.5099 82.5897 35.7764L82.7644 37.0558C82.7987 37.3223 82.676 37.4928 82.3963 37.5672C82.1232 37.6415 81.9762 37.5387 81.9551 37.2588C81.9541 36.9655 81.9092 36.5623 81.8207 36.0493ZM82.9195 35.7252C82.8518 35.4655 82.9379 35.2951 83.1776 35.2142C83.4173 35.1267 83.5776 35.2128 83.6585 35.4725L84.0026 36.5612C84.0769 36.8209 83.9842 37.0013 83.7246 37.1022C83.4716 37.2032 83.3113 37.1238 83.2437 36.864L82.9195 35.7252ZM86.8389 35.5607L87.7087 35.5075C87.982 35.4998 88.1291 35.6292 88.1501 35.8958C88.1778 36.1624 88.055 36.3062 87.7817 36.3272L87.5718 36.358L86.7319 36.3611C86.3252 36.3626 86.0516 36.2836 85.911 36.1241C85.777 35.958 85.7093 35.6649 85.7077 35.2449L85.7055 34.6549C85.5122 34.6556 85.415 34.5093 85.4139 34.216C85.4128 33.916 85.5489 33.7654 85.8222 33.7644L86.4222 33.7622L86.3415 33.5725C86.227 33.2663 86.3263 33.0626 86.6393 32.9614L86.7691 32.9209L85.7691 32.9246C85.4958 32.9256 85.3586 32.7795 85.3575 32.4861C85.3564 32.1862 85.4925 32.0356 85.7658 32.0346L85.8958 32.0341C85.8544 31.6476 85.7833 31.3579 85.6826 31.1649C85.5749 30.8787 85.6309 30.6985 85.8506 30.6243C86.077 30.5501 86.2307 30.6429 86.3116 30.9026L86.4734 31.382C86.5745 31.6816 86.4752 31.882 86.1756 31.9831L86.0458 32.0336L86.9258 32.0303L87.1817 30.9194C87.2407 30.6592 87.4037 30.5652 87.6706 30.6376C87.9376 30.7032 88.0315 30.8662 87.9525 31.1265L87.6758 32.0276L87.7758 32.0272C88.0491 32.0262 88.1863 32.1757 88.1875 32.4757C88.1885 32.769 88.0524 32.9162 87.7791 32.9172L87.0191 32.92L87.13 33.1596C87.2578 33.4591 87.1885 33.6594 86.9222 33.7604L87.7422 33.7573C88.0155 33.7563 88.1528 33.9058 88.1539 34.2058C88.155 34.4991 88.0188 34.6463 87.7455 34.6473L86.6455 34.6514L86.6486 35.4914C86.6955 35.5379 86.7589 35.561 86.8389 35.5607ZM88.9456 29.2728C89.2723 29.2716 89.4362 29.4343 89.4374 29.761L89.3767 37.6513C89.3239 37.7981 89.221 37.9119 89.0679 37.9924C88.8284 38.1267 88.5453 38.1877 88.2186 38.1756C87.8586 38.1903 87.628 38.0278 87.5268 37.6881C87.4322 37.3552 87.5216 37.1882 87.7949 37.1871L88.2349 37.1855C88.3483 37.1918 88.4047 37.1382 88.4043 37.0249L88.3804 30.5649C88.3797 30.3916 88.2927 30.3053 88.1194 30.3059L85.4294 30.3159C85.2561 30.3165 85.1698 30.4035 85.1704 30.5768L85.1972 37.8068C85.1982 38.0801 85.0221 38.2174 84.6687 38.2187C84.3154 38.2201 84.1382 38.084 84.1372 37.8107L84.1256 34.6907L83.8761 34.8017C83.51 34.9563 83.2931 34.8938 83.2254 34.6141C81.8062 34.8527 81.0235 35.0089 80.8771 35.0828C80.7705 35.1165 80.6633 34.9769 80.5555 34.664C80.4477 34.3444 80.4536 34.1543 80.5734 34.0939C80.74 34.0799 81.1415 33.5851 81.7779 32.6094C81.1782 32.6783 80.8817 32.7261 80.8884 32.7527C80.7286 32.8066 80.5915 32.6771 80.477 32.3642C80.3691 32.0446 80.405 31.8212 80.5845 31.6938C80.5648 31.7739 80.6544 31.6569 80.8532 31.3428C80.9792 31.1624 81.1613 30.8284 81.3995 30.3408C81.6377 29.8466 81.7864 29.4927 81.8456 29.2791C81.938 29.0255 82.1411 28.9647 82.4549 29.0969C82.7754 29.229 82.8728 29.4353 82.7472 29.7158C82.463 30.3835 82.1419 30.9814 81.7838 31.5094C81.6844 31.6631 81.7213 31.7363 81.8946 31.729L82.3445 31.6873L82.8606 30.6354C82.9797 30.3949 83.1829 30.3675 83.4703 30.5531C83.7577 30.7387 83.8385 30.9551 83.7127 31.2022C83.2825 32.0505 82.7323 32.8892 82.062 33.7184C81.9426 33.8721 81.9662 33.9387 82.1328 33.9181L82.9723 33.795L82.8612 33.4954C82.7736 33.2424 82.8563 33.0688 83.1093 32.9745C83.3622 32.8735 83.5325 32.9496 83.6201 33.2026L84.1252 34.5707L84.1074 29.7708C84.1062 29.4508 84.2656 29.2902 84.5856 29.289L88.9456 29.2728ZM95.6248 34.4381L97.9748 34.4294C97.5539 34.2043 97.1529 33.9324 96.7717 33.6138C96.4195 33.9218 96.0372 34.1966 95.6248 34.4381ZM95.6926 36.5379C95.6932 36.7112 95.7802 36.7975 95.9535 36.7969L97.5235 36.7911C97.6969 36.7904 97.7832 36.7035 97.7826 36.5301L97.7785 35.4301L95.6885 35.4379L95.6926 36.5379ZM93.8105 33.2848C94.0047 33.5174 94.0156 33.7574 93.8432 34.0047L93.7635 34.105C94.6024 33.7886 95.3375 33.3658 95.9689 32.8368L95.2152 31.8596C94.9763 32.1538 94.8269 32.321 94.7671 32.3613C94.5744 32.542 94.3911 32.5493 94.2172 32.3833C94.2171 32.3633 94.0633 32.2305 93.7557 31.985L92.9057 31.9882L92.9066 32.2282L93.8105 33.2848ZM97.4324 31.0914C97.5252 30.951 97.4849 30.8812 97.3116 30.8818L95.9316 30.8869L95.862 30.9872L96.7261 32.104L97.4324 31.0914ZM97.9077 29.8296C98.1811 29.8286 98.4413 29.8876 98.6884 30.0067C98.9421 30.1191 99.0195 30.3088 98.9205 30.5759C98.6966 31.3167 98.2427 32.0717 97.5589 32.8409C98.2274 33.3451 98.8453 33.6728 99.4125 33.8241C99.6862 33.903 99.7036 34.1097 99.4648 34.4439C99.226 34.7714 99.0466 34.9121 98.9264 34.8659L98.9355 37.3359C98.9367 37.6492 98.7773 37.8064 98.4573 37.8076L95.0673 37.8202C94.7473 37.8214 94.5867 37.662 94.5855 37.342L94.5768 34.972C94.2373 35.1133 93.9871 35.0575 93.8261 34.8048L93.5546 34.3958C93.4949 34.4827 93.4416 34.4829 93.3946 34.3964L92.9115 33.5582L92.9271 37.7581C92.9281 38.0315 92.7419 38.1688 92.3686 38.1702C91.9953 38.1716 91.8081 38.0356 91.8071 37.7623L91.7946 34.3823C91.4845 35.2701 91.2134 35.8645 90.9812 36.1653C90.8618 36.3458 90.7082 36.2563 90.5202 35.897C90.3388 35.5377 90.3178 35.2611 90.4571 35.0673C90.6164 34.8733 90.8249 34.4659 91.0826 33.8449C91.3469 33.224 91.5513 32.6065 91.6957 31.9927L90.8857 31.9957C90.6124 31.9967 90.475 31.8138 90.4737 31.4472C90.4723 31.0805 90.6083 30.8967 90.8816 30.8957L91.7816 30.8923L91.7755 29.2523C91.7745 28.979 91.9607 28.8416 92.334 28.8403C92.7073 28.8389 92.8945 28.9749 92.8955 29.2482L92.9016 30.8882L93.5416 30.8858C93.8616 30.8846 94.0223 31.064 94.0236 31.424C94.7676 30.6946 95.2715 29.9594 95.5354 29.2184C95.6478 28.9513 95.8908 28.8704 96.2645 28.9757C96.6449 29.0743 96.7822 29.2471 96.6765 29.4942L96.5079 29.8748L97.9077 29.8296ZM109.249 30.2476C109.523 30.2466 109.66 30.4261 109.661 30.7861C109.663 31.1461 109.527 31.3266 109.253 31.3276L105.663 31.3409L104.989 32.7334L106.039 32.7295L106.036 32.0395C106.035 31.7662 106.228 31.6288 106.614 31.6274C107.008 31.6259 107.205 31.7618 107.206 32.0352L107.209 32.7252L108.849 32.7191C109.175 32.7179 109.336 32.8806 109.33 33.2073L109.272 36.2975C109.219 36.4444 109.116 36.5614 108.963 36.6487C108.743 36.7628 108.497 36.8171 108.224 36.8114C107.87 36.8194 107.643 36.6502 107.542 36.3039C107.447 35.9576 107.537 35.784 107.81 35.783L108.08 35.7819C108.167 35.7816 108.21 35.7448 108.209 35.6715L108.203 34.0415C108.203 33.8681 108.116 33.7818 107.942 33.7824L107.212 33.7852L107.227 37.7051C107.228 37.9785 107.032 38.1159 106.638 38.1173C106.252 38.1187 106.058 37.9828 106.057 37.7095L106.042 33.7895L105.132 33.7929L105.142 36.4828C105.143 36.7562 104.957 36.8935 104.584 36.8949C104.217 36.8963 104.033 36.7603 104.032 36.487L104.024 34.107C103.791 34.3812 103.688 34.4949 103.715 34.4481C103.429 34.7158 103.182 34.7034 102.975 34.4109C102.82 34.1381 102.683 33.9719 102.563 33.9124L102.577 37.7124C102.578 37.9857 102.388 38.1231 102.008 38.1245C101.635 38.1259 101.448 37.9899 101.447 37.7165L101.43 33.0166C101.211 33.3041 101.075 33.4712 101.021 33.5181C100.842 33.7188 100.645 33.6162 100.43 33.2103C100.222 32.7977 100.204 32.5011 100.377 32.3205C100.656 32.0461 100.994 31.5749 101.392 30.9067C101.796 30.2385 102.074 29.6775 102.226 29.2236C102.325 28.9632 102.561 28.8924 102.935 29.011C103.315 29.1296 103.456 29.3124 103.357 29.5594C103.205 29.9866 102.937 30.551 102.553 31.2524L102.562 33.8024C103.287 33.213 103.897 32.3941 104.393 31.3456L103.473 31.349C103.2 31.35 103.063 31.1705 103.061 30.8105C103.06 30.4505 103.196 30.27 103.469 30.269L104.829 30.264L105.135 29.1428C105.208 28.8825 105.437 28.7884 105.824 28.8603C106.211 28.9255 106.368 29.0882 106.296 29.3485L106.049 30.2594L109.249 30.2476ZM115.611 36.164C115.785 36.1634 115.871 36.0764 115.87 35.9031L115.869 35.5331C115.868 35.3597 115.781 35.2734 115.608 35.274L114.398 35.2785C114.225 35.2792 114.138 35.3662 114.139 35.5395L114.141 36.1695L115.611 36.164ZM117.33 30.4676C117.33 30.2943 117.243 30.2079 117.069 30.2086L112.849 30.2242C112.676 30.2249 112.59 30.3119 112.59 30.4852L112.592 31.0852L117.072 31.0686C117.246 31.0679 117.332 30.981 117.331 30.8076L117.33 30.4676ZM112.596 32.0852L112.599 32.7252L118.779 32.7023C119.105 32.7011 119.259 32.9205 119.241 33.3606C119.219 34.5607 119.169 35.5208 119.092 36.2411C119.014 36.9548 118.893 37.4152 118.727 37.6225C118.568 37.8364 118.335 37.9673 118.028 38.0151C117.728 38.0695 117.478 38.0871 117.278 38.0679C116.925 38.0692 116.715 37.9233 116.647 37.6302L116.505 37.1007L114.145 37.1095L114.145 37.2895C114.146 37.5628 113.964 37.7002 113.597 37.7015C113.23 37.7029 113.047 37.5669 113.045 37.2936L113.036 34.8236C113.035 34.5036 113.195 34.343 113.515 34.3418L116.505 34.3307C116.818 34.3296 116.975 34.489 116.976 34.809L116.983 36.729C116.984 36.9023 117.071 36.9886 117.244 36.988L117.374 36.9875C117.508 36.9937 117.618 36.9466 117.704 36.8463C117.876 36.6456 117.983 35.7619 118.024 34.1951C118.036 33.8884 117.956 33.7353 117.782 33.736L112.492 33.7556C112.312 35.5229 111.957 36.7676 111.426 37.4896C111.28 37.7301 111.084 37.7408 110.836 37.5217L110.736 37.4321C110.409 37.2133 110.324 36.977 110.483 36.723C110.842 36.2417 111.095 35.4541 111.245 34.3602C111.361 33.5198 111.418 32.6229 111.415 31.6696L111.407 29.7096C111.406 29.3896 111.562 29.229 111.876 29.2278L118.036 29.205C118.356 29.2038 118.516 29.3632 118.517 29.6832L118.524 31.5832C118.526 31.9032 118.366 32.0638 118.046 32.065L112.596 32.0852Z" fill="#FE585B"/>
<path d="M59.9822 47.4287C59.7049 47.4297 59.5668 47.5689 59.5678 47.8462L59.5703 48.5342C59.5719 48.9716 59.2528 49.1914 58.6128 49.1938C57.9834 49.1961 57.668 48.9786 57.6663 48.5413L57.6585 46.4293C57.6566 45.9173 57.9117 45.6603 58.4237 45.6585L63.7196 45.6388L63.5099 45.1756C63.3271 44.7816 63.5821 44.5087 64.2749 44.3568C64.9677 44.2049 65.4054 44.3259 65.5882 44.7199L66.0076 45.6303L70.9516 45.612C71.4636 45.6101 71.7205 45.8652 71.7224 46.3772L71.7302 48.4891C71.7319 48.9265 71.3967 49.1464 70.7247 49.1489C70.0527 49.1514 69.7159 48.934 69.7143 48.4966L69.7117 47.8086C69.7107 47.5313 69.5715 47.3931 69.2942 47.3942L59.9822 47.4287ZM66.229 49.2295C65.8761 48.9962 65.9176 48.692 66.3536 48.3171C66.8002 47.9421 67.1999 47.8659 67.5527 48.0886C67.9482 48.3005 68.5416 48.6876 69.333 49.25C70.1351 49.8124 70.6112 50.184 70.7612 50.3648C71.0394 50.6091 70.9393 50.9401 70.4609 51.3579C69.9824 51.7756 69.6094 51.8624 69.3418 51.618C69.2025 51.4372 68.7424 51.0496 67.9615 50.4551C67.1913 49.8606 66.6138 49.4521 66.229 49.2295ZM61.2972 48.2238C61.5627 47.9028 62.0051 47.8479 62.6246 48.0589C63.244 48.2593 63.4263 48.5306 63.1716 48.8729C62.9064 49.2579 62.391 49.7824 61.6254 50.4466C60.8706 51.1108 60.2802 51.5556 59.8544 51.7812C59.5031 51.9852 59.1026 51.8373 58.6527 51.3376C58.2135 50.8379 58.1856 50.4967 58.5689 50.3139C58.9097 50.174 59.4152 49.8468 60.0853 49.3323C60.7554 48.8285 61.1594 48.459 61.2972 48.2238ZM62.1988 54.0605L67.5428 54.0407C66.4842 53.33 65.6496 52.6557 65.0393 52.018C64.8572 51.8266 64.6759 51.8327 64.4953 52.036C63.9643 52.6566 63.1988 53.3315 62.1988 54.0605ZM61.8902 57.1337C61.8912 57.411 62.0304 57.5492 62.3078 57.5481L67.1077 57.5303C67.3851 57.5293 67.5232 57.3901 67.5222 57.1128L67.5172 55.7688L61.8852 55.7897L61.8902 57.1337ZM63.991 49.7978C64.2244 49.4343 64.6241 49.3742 65.1904 49.6174C65.7566 49.8606 65.9549 50.1159 65.7852 50.3832C67.3486 52.0094 69.3212 53.2554 71.7031 54.1213C72.1838 54.2902 72.2224 54.6474 71.8191 55.1929C71.4158 55.7384 71.0165 55.9265 70.6212 55.7573C70.4609 55.6832 70.0975 55.4979 69.5311 55.2013L69.5432 58.4653C69.5451 58.9773 69.2901 59.2343 68.7781 59.2362L60.7461 59.2659C60.2341 59.2678 59.9772 59.0128 59.9753 58.5008L59.9639 55.4448C59.389 55.7349 59.0057 55.9177 58.814 55.9931C58.4093 56.1652 57.998 55.9908 57.58 55.4696C57.1727 54.9378 57.1821 54.5964 57.6082 54.4455C58.7801 54.0465 60.0096 53.386 61.2969 52.4638C62.6055 51.5417 63.5035 50.653 63.991 49.7978ZM83.0105 57.1834C83.0116 57.4607 83.1508 57.5989 83.4281 57.5979L84.5481 57.5937C84.8254 57.5927 84.9636 57.4535 84.9625 57.1762L84.9577 55.8802L83.4217 55.8859C83.1444 55.8869 83.0063 56.0261 83.0073 56.3034L83.0105 57.1834ZM77.9881 57.618C78.2548 57.617 78.3876 57.4779 78.3866 57.2005L78.3833 56.3205C78.3823 56.0432 78.2431 55.9051 77.9658 55.9061L76.4778 55.9116L76.4826 57.2076C76.4836 57.4849 76.6228 57.6231 76.9001 57.622L77.9881 57.618ZM77.7131 48.179C77.9905 48.1779 78.1286 48.0388 78.1276 47.7614L78.1243 46.8654C78.1232 46.5881 77.9841 46.45 77.7067 46.451L76.4747 46.4555C76.1974 46.4566 76.0593 46.5958 76.0603 46.8731L76.0636 47.7691C76.0646 48.0464 76.2038 48.1846 76.4811 48.1835L77.7131 48.179ZM83.5787 46.4292C83.3014 46.4302 83.1632 46.5694 83.1642 46.8468L83.1676 47.7428C83.1686 48.0201 83.3078 48.1582 83.5851 48.1572L84.9131 48.1523C85.1904 48.1513 85.3286 48.0121 85.3275 47.7347L85.3242 46.8388C85.3232 46.5614 85.184 46.4233 84.9067 46.4243L83.5787 46.4292ZM87.5475 50.9585C87.9848 50.9569 88.2045 51.2281 88.2065 51.7721C88.2085 52.3161 87.9909 52.5889 87.5536 52.5905L85.3456 52.5987C86.6818 53.3724 87.5961 53.9984 88.0886 54.4766C88.3775 54.7208 88.304 55.0358 87.8681 55.4214C87.4321 55.7963 87.0643 55.8404 86.7645 55.5535L86.775 58.3695C86.7769 58.8814 86.5218 59.1384 86.0098 59.1403L82.0578 59.1549C81.5565 59.1568 81.3049 58.9017 81.303 58.3897L81.2909 55.1258C81.289 54.6138 81.5441 54.3568 82.0561 54.3549L84.744 54.345C85.0214 54.3439 85.0478 54.2745 84.8233 54.1367C84.1602 53.6591 83.2676 53.1504 82.1456 52.6106L79.0096 52.6222L76.9841 54.3737L79.4001 54.3648C79.9121 54.3629 80.169 54.6179 80.1709 55.1299L80.183 58.3939C80.1849 58.9059 79.9299 59.1628 79.4179 59.1647L75.5459 59.1791C75.0339 59.181 74.777 58.9259 74.7751 58.4139L74.7649 55.678L74.4774 55.807C74.0834 55.9791 73.7094 55.8205 73.3556 55.3312C73.0124 54.8311 73.0539 54.5003 73.4799 54.3387C74.4387 53.9938 75.4286 53.4248 76.4496 52.6317L73.8736 52.6412C73.4363 52.6429 73.2166 52.3717 73.2146 51.8277C73.2126 51.2837 73.4303 51.0109 73.8676 51.0092L78.1396 50.9934L78.7441 50.0632C78.8926 49.8386 78.8282 49.7268 78.5509 49.7279L75.1269 49.7406C74.6149 49.7425 74.358 49.4874 74.3561 48.9754L74.3439 45.6954C74.342 45.1834 74.5971 44.9265 75.1091 44.9246L79.157 44.9096C79.669 44.9077 79.926 45.1627 79.9279 45.6747L79.9417 49.4187L80.1179 49.4661C80.7477 49.5811 80.9089 49.9165 80.6017 50.4723L80.3156 50.9853L83.9955 50.9717L83.3383 50.6381C82.7719 50.3629 82.6641 50.054 83.0149 49.7113L82.2469 49.7142C81.7349 49.7161 81.4779 49.461 81.476 48.949L81.4639 45.6691C81.462 45.1571 81.717 44.9001 82.229 44.8982L86.325 44.883C86.837 44.8811 87.0939 45.1362 87.0958 45.6482L87.108 48.9282C87.1099 49.4402 86.8548 49.6971 86.3428 49.699L84.3908 49.7062L85.2888 50.2309C85.6309 50.4323 85.6585 50.6775 85.3715 50.9666L87.5475 50.9585ZM98.0012 48.1678C98.5879 48.1656 98.882 48.3832 98.8837 48.8205L98.8873 49.7965C98.8889 50.2338 98.5964 50.4536 98.0097 50.4558C97.4337 50.4579 97.1449 50.2403 97.1433 49.803L97.1397 48.827C97.1381 48.3896 97.4252 48.1699 98.0012 48.1678ZM99.9781 54.8805C100.415 54.8789 100.635 55.2141 100.638 55.8861C100.64 56.558 100.466 56.8947 100.114 56.896C100.532 57.4811 100.858 57.7732 101.093 57.7724C101.264 57.7717 101.386 57.7126 101.46 57.595C101.641 57.3597 101.755 56.5379 101.803 55.1297C101.833 54.6603 101.71 54.4261 101.432 54.4271L97.8805 54.4403L97.8821 54.8883L99.9781 54.8805ZM97.8913 57.3682L98.9152 57.3164C98.7651 57.125 98.7966 56.9862 99.0096 56.9001L97.8896 56.9042L97.8913 57.3682ZM98.7828 56.1489C99.0602 56.1479 99.1982 55.9767 99.1969 55.6354L97.8849 55.6403L97.8868 56.1523L98.7828 56.1489ZM94.941 55.6512C94.9422 55.9925 95.0815 56.1626 95.3588 56.1616L96.2868 56.1582L96.2849 55.6462L94.941 55.6512ZM96.2805 54.4462L94.9845 54.451L94.4902 54.9008L96.2822 54.8942L96.2805 54.4462ZM92.4004 47.9645L92.4063 49.5325C92.4136 51.5058 92.3027 53.2449 92.0736 54.7498C93.021 54.2236 93.7814 53.6128 94.3548 52.9173L93.8108 52.9193C93.2988 52.9212 93.0419 52.6662 93.04 52.1542L93.0374 51.4502C93.0355 50.9382 93.1412 50.6818 93.3545 50.681L93.2899 50.5053C93.1493 49.9938 93.3136 49.7052 93.7827 49.6394C94.0385 49.5958 94.6621 49.4762 95.6533 49.2805C94.8419 49.0595 94.2921 48.9389 94.004 48.9186C93.5984 48.8561 93.4378 48.6914 93.5222 48.4244C93.6171 48.1467 93.8781 48.0444 94.305 48.1175L95.4418 48.3373C96.0716 48.4523 96.2967 48.7448 96.1171 49.2148C96.5222 49.1386 96.7306 49.2552 96.7424 49.5644C96.7542 49.8737 96.5469 50.0718 96.1206 50.1588L93.7865 50.6794L101.434 50.6511C101.872 50.6494 101.738 50.5806 101.034 50.4445C100.329 50.2978 99.8056 50.0491 99.4629 49.6984C99.5579 49.4207 99.7174 49.2921 99.9415 49.3126C99.6943 48.8015 99.8743 48.4542 100.482 48.2706L101.632 47.9303L92.4004 47.9645ZM101.418 46.2991C101.418 46.0751 101.278 45.9636 101.001 45.9646L92.8091 45.995C92.5318 45.996 92.3937 46.1352 92.3947 46.4125L92.3959 46.7485L101.004 46.7166C101.281 46.7156 101.419 46.5764 101.418 46.2991ZM100.976 52.1248C101.253 52.1237 101.391 51.9846 101.39 51.7072L101.389 51.4192L100.029 51.4243L100.032 52.1283L100.976 52.1248ZM98.5919 52.1336L98.5893 51.4296L97.2613 51.4345L97.2639 52.1385L98.5919 52.1336ZM95.824 52.1439L95.8213 51.4399L94.5254 51.4447L94.528 52.1487L95.824 52.1439ZM95.9566 53.3914L102.821 53.3659C103.333 53.364 103.584 53.6564 103.576 54.2432C103.589 55.0004 103.534 55.8487 103.409 56.7878C103.285 57.7163 103.132 58.2875 102.952 58.5015C102.739 58.7796 102.431 58.9461 102.025 59.0009C101.759 59.0553 101.53 59.0721 101.338 59.0515C100.836 59.0533 100.548 58.8517 100.471 58.4467L100.168 58.5758C99.9122 58.6834 99.7253 58.6095 99.607 58.3539C97.6449 58.4998 95.608 58.6407 93.4965 58.7765C93.006 58.8104 92.7386 58.6194 92.6944 58.2035C92.6609 57.7983 92.7348 57.5954 92.9161 57.5947C93.1081 57.5833 94.2332 57.5258 96.2915 57.4222L96.2896 56.9102L94.3536 56.9174C93.8416 56.9193 93.5847 56.6642 93.5828 56.1522L93.5807 55.5762C93.155 55.8551 92.7762 55.8192 92.4443 55.4684L92.027 55.118C91.7345 56.7937 91.4028 57.9576 91.0319 58.6097C90.8838 58.9409 90.5318 58.9529 89.976 58.6456C89.4309 58.3383 89.2271 58.0457 89.3648 57.7678C90.1805 56.2608 90.581 53.5233 90.5663 49.5553L90.5516 45.5714C90.5497 45.0594 90.8047 44.8024 91.3167 44.8005L102.517 44.759C103.018 44.7572 103.27 45.0122 103.271 45.5242L103.278 47.1562C103.279 47.6682 103.024 47.9252 102.512 47.927L102.176 47.9283C102.456 48.4179 102.387 48.7382 101.972 48.8891C101.78 48.9858 101.119 49.1322 99.9896 49.3284C101.003 49.442 101.654 49.5516 101.943 49.6572C102.413 49.7728 102.547 50.1029 102.346 50.6477C102.752 50.6462 102.956 51.0188 102.959 51.7654C102.961 52.5121 102.744 52.8862 102.307 52.8878L96.3068 52.9101L95.9566 53.3914ZM116.337 56.7399L119.457 56.7283C119.894 56.7267 120.114 57.0299 120.116 57.6379C120.119 58.2352 119.901 58.5347 119.464 58.5363L110.808 58.5684C110.381 58.57 110.167 58.2721 110.165 57.6748C110.162 57.0668 110.375 56.762 110.801 56.7604L114.433 56.7469L114.421 53.5469L111.989 53.556C111.552 53.5576 111.332 53.2651 111.33 52.6784C111.328 52.0811 111.545 51.7816 111.983 51.78L114.415 51.771L114.405 49.147L112.645 49.1535C112.413 49.9757 112.207 50.5258 112.027 50.8038C111.847 51.1778 111.474 51.2219 110.908 50.936C110.341 50.6501 110.153 50.3147 110.344 49.93L110.535 49.5773L110.343 49.674C109.864 49.8891 109.543 49.7463 109.381 49.2456L109.009 48.159L109.047 58.4309C109.049 58.8682 108.73 59.0881 108.09 59.0905C107.46 59.0928 107.145 58.8753 107.143 58.438L107.103 47.654C106.982 49.3825 106.794 50.6259 106.541 51.3841C106.446 51.7258 106.164 51.8122 105.694 51.6433C105.224 51.4744 105.042 51.2244 105.147 50.8933C105.411 50.199 105.579 49.3237 105.65 48.2674C105.722 47.5738 106.019 47.2634 106.542 47.3361L107.103 47.414L107.093 44.806C107.091 44.3687 107.405 44.1489 108.034 44.1466C108.674 44.1442 108.995 44.3617 108.997 44.799L109.006 47.167L109.245 47.0701C109.703 46.8764 110.045 47.0138 110.271 47.4823C110.4 47.6951 110.583 48.1318 110.82 48.7923C111.21 47.6388 111.457 46.5766 111.56 45.6055C111.622 45.1253 111.963 44.9267 112.582 45.0097C113.201 45.0927 113.474 45.3477 113.4 45.7747L113.118 47.3597L114.398 47.355L114.389 44.875C114.388 44.4377 114.701 44.2178 115.331 44.2155C115.971 44.2131 116.292 44.4306 116.293 44.8679L116.302 47.3479L118.91 47.3383C119.348 47.3366 119.567 47.6345 119.57 48.2318C119.572 48.8292 119.354 49.1286 118.917 49.1303L116.309 49.1399L116.319 51.7639L118.591 51.7555C119.028 51.7539 119.248 52.0517 119.25 52.649C119.252 53.2357 119.035 53.5298 118.597 53.5315L116.325 53.5399L116.337 56.7399ZM125.776 53.8889C125.338 53.8905 125.119 53.614 125.117 53.0593C125.114 52.494 125.332 52.2105 125.769 52.2089L128.825 52.1975C129.263 52.1959 129.482 52.4778 129.485 53.0431C129.487 53.5978 129.269 53.8759 128.832 53.8775L125.776 53.8889ZM135.864 57.5955C135.427 57.5971 135.207 57.2833 135.205 56.6539C135.202 56.0139 135.42 55.6931 135.857 55.6915L137.745 55.6845L137.719 48.6126C137.718 48.3352 137.584 48.1971 137.317 48.198L136.23 48.2021C135.792 48.2037 135.573 47.9645 135.571 47.4845C135.569 46.9939 135.803 46.6943 136.272 46.5859C136.911 46.4769 137.593 46.1917 138.316 45.7303L139.292 45.7267C139.804 45.7248 140.061 45.9799 140.063 46.4919L140.097 55.6758L141.665 55.67C142.103 55.6684 142.322 55.9875 142.325 56.6275C142.327 57.2569 142.11 57.5723 141.672 57.574L135.864 57.5955Z" fill="black" fill-opacity="0.85"/>
</g>
<defs>
<radialGradient id="paint0_radial_2308_6881" cx="0" cy="0" r="1" gradientUnits="userSpaceOnUse" gradientTransform="translate(0.560609 46.8353) rotate(65.4889) scale(3.32531 8.21233)">
<stop offset="0.33" stop-opacity="0"/>
<stop offset="0.655" stop-opacity="0.6"/>
<stop offset="1"/>
</radialGradient>
<radialGradient id="paint1_radial_2308_6881" cx="0" cy="0" r="1" gradientUnits="userSpaceOnUse" gradientTransform="translate(355.3 45.8572) rotate(114.511) scale(3.32531 8.21233)">
<stop offset="0.33" stop-opacity="0"/>
<stop offset="0.655" stop-opacity="0.6"/>
<stop offset="1"/>
</radialGradient>
<clipPath id="clip0_2308_6881">
<rect width="200" height="90" fill="white"/>
</clipPath>
</defs>
</svg>
