<svg width="255" height="217" viewBox="0 0 255 217" fill="none" xmlns="http://www.w3.org/2000/svg">
<g filter="url(#filter0_d_936_9455)">
<path d="M250.293 151.036C249.537 156.048 243.085 158.036 238.731 160.412C225.669 167.539 199.7 128.985 199.7 128.985L206.597 119.014C206.597 119.014 252.562 135.999 250.293 151.036Z" fill="#FF615E"/>
</g>
<g filter="url(#filter1_d_936_9455)">
<path d="M18.9671 119.887C19.3182 162.254 63.7838 196.232 118.284 195.781C172.784 195.329 216.68 160.618 216.329 118.252C215.978 75.8857 171.512 41.9071 117.012 42.3588C62.5124 42.8104 18.6161 77.5212 18.9671 119.887Z" fill="#FF615E"/>
<path d="M18.9671 119.887C19.3182 162.254 63.7838 196.232 118.284 195.781C172.784 195.329 216.68 160.618 216.329 118.252C215.978 75.8857 171.512 41.9071 117.012 42.3588C62.5124 42.8104 18.6161 77.5212 18.9671 119.887Z" fill="url(#paint0_linear_936_9455)"/>
</g>
<path d="M172.407 96.242C172.46 102.728 175.702 107.96 179.648 107.927C183.594 107.895 186.749 102.61 186.695 96.1236C186.641 89.6372 183.399 84.4054 179.453 84.4381C175.508 84.4708 172.353 89.7556 172.407 96.242Z" fill="black"/>
<path d="M108.014 96.7752C108.068 103.262 111.31 108.493 115.256 108.461C119.201 108.428 122.356 103.143 122.302 96.6568C122.249 90.1704 119.007 84.9386 115.061 84.9713C111.115 85.004 107.96 90.2888 108.014 96.7752Z" fill="black"/>
<path fill-rule="evenodd" clip-rule="evenodd" d="M168.83 109.031C166.345 109.052 164.347 111.083 164.368 113.569C164.389 116.138 162.95 118.444 159.513 120.358C156.015 122.307 151.017 123.444 145.738 123.488C140.458 123.532 135.442 122.477 131.913 120.587C128.444 118.73 126.967 116.448 126.946 113.879C126.925 111.393 124.894 109.396 122.409 109.416C119.924 109.437 117.926 111.468 117.946 113.953C118.004 120.893 122.388 125.696 127.664 128.521C132.877 131.313 139.486 132.54 145.812 132.488C152.138 132.435 158.726 131.099 163.893 128.221C169.12 125.308 173.425 120.434 173.367 113.494C173.347 111.009 171.315 109.011 168.83 109.031Z" fill="black"/>
<g filter="url(#filter2_d_936_9455)">
<path d="M159.255 24.3634C146.312 25.7947 139.385 29.4421 133.23 38.0667C120.348 56.1188 178.059 74.981 211.154 84.0759C219.49 86.3668 225.503 77.6007 220.355 70.4659C205.841 50.3499 181.206 21.9359 159.255 24.3634Z" fill="#6E5232"/>
<path d="M159.255 24.3634C146.312 25.7947 139.385 29.4421 133.23 38.0667C120.348 56.1188 178.059 74.981 211.154 84.0759C219.49 86.3668 225.503 77.6007 220.355 70.4659C205.841 50.3499 181.206 21.9359 159.255 24.3634Z" fill="url(#paint1_radial_936_9455)" fill-opacity="0.2"/>
</g>
<g filter="url(#filter3_d_936_9455)">
<path d="M107.142 18.7438C125.583 19.8705 135.409 24.4171 144.058 35.8256C162.612 60.2984 75.3801 90.7045 28.7395 104.868C18.5468 107.963 11.0048 97.1578 17.3696 88.3904C38.0787 59.8637 74.8929 16.7736 107.142 18.7438Z" fill="#6E5232"/>
<path d="M107.142 18.7438C125.583 19.8705 135.409 24.4171 144.058 35.8256C162.612 60.2984 75.3801 90.7045 28.7395 104.868C18.5468 107.963 11.0048 97.1578 17.3696 88.3904C38.0787 59.8637 74.8929 16.7736 107.142 18.7438Z" fill="url(#paint2_radial_936_9455)" fill-opacity="0.2"/>
</g>
<g filter="url(#filter4_d_936_9455)">
<path d="M18.9671 119.887C19.3182 162.254 63.7838 196.232 118.284 195.781C172.784 195.329 216.68 160.618 216.329 118.252C215.978 75.8857 171.512 41.9071 117.012 42.3588C62.5124 42.8104 18.6161 77.5212 18.9671 119.887Z" fill="#FF615E"/>
<path d="M18.9671 119.887C19.3182 162.254 63.7838 196.232 118.284 195.781C172.784 195.329 216.68 160.618 216.329 118.252C215.978 75.8857 171.512 41.9071 117.012 42.3588C62.5124 42.8104 18.6161 77.5212 18.9671 119.887Z" fill="url(#paint3_linear_936_9455)"/>
</g>
<path d="M172.407 96.242C172.46 102.728 175.702 107.96 179.648 107.927C183.594 107.895 186.749 102.61 186.695 96.1236C186.641 89.6372 183.399 84.4054 179.453 84.4381C175.508 84.4708 172.353 89.7556 172.407 96.242Z" fill="black"/>
<path d="M108.014 96.7752C108.068 103.262 111.31 108.493 115.256 108.461C119.201 108.428 122.356 103.143 122.302 96.6568C122.249 90.1704 119.007 84.9386 115.061 84.9713C111.115 85.004 107.96 90.2888 108.014 96.7752Z" fill="black"/>
<path fill-rule="evenodd" clip-rule="evenodd" d="M168.83 109.031C166.345 109.052 164.347 111.083 164.368 113.569C164.389 116.138 162.95 118.444 159.513 120.358C156.015 122.307 151.017 123.444 145.738 123.488C140.458 123.532 135.442 122.477 131.913 120.587C128.444 118.73 126.967 116.448 126.946 113.879C126.925 111.393 124.894 109.396 122.409 109.416C119.924 109.437 117.926 111.468 117.946 113.953C118.004 120.893 122.388 125.696 127.664 128.521C132.877 131.313 139.486 132.54 145.812 132.488C152.138 132.435 158.726 131.099 163.893 128.221C169.12 125.308 173.425 120.434 173.367 113.494C173.347 111.009 171.315 109.011 168.83 109.031Z" fill="black"/>
<g filter="url(#filter5_d_936_9455)">
<path d="M159.255 24.3634C146.312 25.7947 139.385 29.4421 133.23 38.0667C120.348 56.1188 178.059 74.981 211.154 84.0759C219.49 86.3668 225.503 77.6007 220.355 70.4659C205.841 50.3499 181.206 21.9359 159.255 24.3634Z" fill="#6E5232"/>
<path d="M159.255 24.3634C146.312 25.7947 139.385 29.4421 133.23 38.0667C120.348 56.1188 178.059 74.981 211.154 84.0759C219.49 86.3668 225.503 77.6007 220.355 70.4659C205.841 50.3499 181.206 21.9359 159.255 24.3634Z" fill="url(#paint4_radial_936_9455)" fill-opacity="0.2"/>
</g>
<g filter="url(#filter6_d_936_9455)">
<path d="M107.142 18.7438C125.583 19.8705 135.409 24.4171 144.058 35.8256C162.612 60.2984 75.3801 90.7045 28.7395 104.868C18.5468 107.963 11.0048 97.1578 17.3696 88.3904C38.0787 59.8637 74.8929 16.7736 107.142 18.7438Z" fill="#6E5232"/>
<path d="M107.142 18.7438C125.583 19.8705 135.409 24.4171 144.058 35.8256C162.612 60.2984 75.3801 90.7045 28.7395 104.868C18.5468 107.963 11.0048 97.1578 17.3696 88.3904C38.0787 59.8637 74.8929 16.7736 107.142 18.7438Z" fill="url(#paint5_radial_936_9455)" fill-opacity="0.2"/>
</g>
<g filter="url(#filter7_d_936_9455)">
<path d="M13.8366 166.484C14.676 171.483 21.1595 173.363 25.5522 175.667C38.7303 182.577 64.0574 143.597 64.0574 143.597L56.9963 133.742C56.9963 133.742 11.3185 151.487 13.8366 166.484Z" fill="#DE2210"/>
</g>
<defs>
<filter id="filter0_d_936_9455" x="191.699" y="117.014" width="62.6758" height="54.2773" filterUnits="userSpaceOnUse" color-interpolation-filters="sRGB">
<feFlood flood-opacity="0" result="BackgroundImageFix"/>
<feColorMatrix in="SourceAlpha" type="matrix" values="0 0 0 0 0 0 0 0 0 0 0 0 0 0 0 0 0 0 127 0" result="hardAlpha"/>
<feOffset dx="-2" dy="4"/>
<feGaussianBlur stdDeviation="3"/>
<feComposite in2="hardAlpha" operator="out"/>
<feColorMatrix type="matrix" values="0 0 0 0 0 0 0 0 0 0 0 0 0 0 0 0 0 0 0.25 0"/>
<feBlend mode="normal" in2="BackgroundImageFix" result="effect1_dropShadow_936_9455"/>
<feBlend mode="normal" in="SourceGraphic" in2="effect1_dropShadow_936_9455" result="shape"/>
</filter>
<filter id="filter1_d_936_9455" x="12.8648" y="41.2535" width="219.567" height="175.632" filterUnits="userSpaceOnUse" color-interpolation-filters="sRGB">
<feFlood flood-opacity="0" result="BackgroundImageFix"/>
<feColorMatrix in="SourceAlpha" type="matrix" values="0 0 0 0 0 0 0 0 0 0 0 0 0 0 0 0 0 0 127 0" result="hardAlpha"/>
<feOffset dx="5" dy="10"/>
<feGaussianBlur stdDeviation="5.55"/>
<feComposite in2="hardAlpha" operator="out"/>
<feColorMatrix type="matrix" values="0 0 0 0 0 0 0 0 0 0 0 0 0 0 0 0 0 0 0.25 0"/>
<feBlend mode="normal" in2="BackgroundImageFix" result="effect1_dropShadow_936_9455"/>
<feBlend mode="normal" in="SourceGraphic" in2="effect1_dropShadow_936_9455" result="shape"/>
</filter>
<filter id="filter2_d_936_9455" x="120.887" y="24.2168" width="111.875" height="82.7305" filterUnits="userSpaceOnUse" color-interpolation-filters="sRGB">
<feFlood flood-opacity="0" result="BackgroundImageFix"/>
<feColorMatrix in="SourceAlpha" type="matrix" values="0 0 0 0 0 0 0 0 0 0 0 0 0 0 0 0 0 0 127 0" result="hardAlpha"/>
<feOffset dy="12"/>
<feGaussianBlur stdDeviation="5.25"/>
<feComposite in2="hardAlpha" operator="out"/>
<feColorMatrix type="matrix" values="0 0 0 0 0 0 0 0 0 0 0 0 0 0 0 0 0 0 0.25 0"/>
<feBlend mode="normal" in2="BackgroundImageFix" result="effect1_dropShadow_936_9455"/>
<feBlend mode="normal" in="SourceGraphic" in2="effect1_dropShadow_936_9455" result="shape"/>
</filter>
<filter id="filter3_d_936_9455" x="4.52734" y="18.6777" width="152.58" height="109.232" filterUnits="userSpaceOnUse" color-interpolation-filters="sRGB">
<feFlood flood-opacity="0" result="BackgroundImageFix"/>
<feColorMatrix in="SourceAlpha" type="matrix" values="0 0 0 0 0 0 0 0 0 0 0 0 0 0 0 0 0 0 127 0" result="hardAlpha"/>
<feOffset dy="12"/>
<feGaussianBlur stdDeviation="5.25"/>
<feComposite in2="hardAlpha" operator="out"/>
<feColorMatrix type="matrix" values="0 0 0 0 0 0 0 0 0 0 0 0 0 0 0 0 0 0 0.25 0"/>
<feBlend mode="normal" in2="BackgroundImageFix" result="effect1_dropShadow_936_9455"/>
<feBlend mode="normal" in="SourceGraphic" in2="effect1_dropShadow_936_9455" result="shape"/>
</filter>
<filter id="filter4_d_936_9455" x="12.8648" y="41.2535" width="219.567" height="175.632" filterUnits="userSpaceOnUse" color-interpolation-filters="sRGB">
<feFlood flood-opacity="0" result="BackgroundImageFix"/>
<feColorMatrix in="SourceAlpha" type="matrix" values="0 0 0 0 0 0 0 0 0 0 0 0 0 0 0 0 0 0 127 0" result="hardAlpha"/>
<feOffset dx="5" dy="10"/>
<feGaussianBlur stdDeviation="5.55"/>
<feComposite in2="hardAlpha" operator="out"/>
<feColorMatrix type="matrix" values="0 0 0 0 0 0 0 0 0 0 0 0 0 0 0 0 0 0 0.25 0"/>
<feBlend mode="normal" in2="BackgroundImageFix" result="effect1_dropShadow_936_9455"/>
<feBlend mode="normal" in="SourceGraphic" in2="effect1_dropShadow_936_9455" result="shape"/>
</filter>
<filter id="filter5_d_936_9455" x="120.887" y="24.2168" width="111.875" height="82.7305" filterUnits="userSpaceOnUse" color-interpolation-filters="sRGB">
<feFlood flood-opacity="0" result="BackgroundImageFix"/>
<feColorMatrix in="SourceAlpha" type="matrix" values="0 0 0 0 0 0 0 0 0 0 0 0 0 0 0 0 0 0 127 0" result="hardAlpha"/>
<feOffset dy="12"/>
<feGaussianBlur stdDeviation="5.25"/>
<feComposite in2="hardAlpha" operator="out"/>
<feColorMatrix type="matrix" values="0 0 0 0 0 0 0 0 0 0 0 0 0 0 0 0 0 0 0.25 0"/>
<feBlend mode="normal" in2="BackgroundImageFix" result="effect1_dropShadow_936_9455"/>
<feBlend mode="normal" in="SourceGraphic" in2="effect1_dropShadow_936_9455" result="shape"/>
</filter>
<filter id="filter6_d_936_9455" x="4.52734" y="18.6777" width="152.58" height="109.232" filterUnits="userSpaceOnUse" color-interpolation-filters="sRGB">
<feFlood flood-opacity="0" result="BackgroundImageFix"/>
<feColorMatrix in="SourceAlpha" type="matrix" values="0 0 0 0 0 0 0 0 0 0 0 0 0 0 0 0 0 0 127 0" result="hardAlpha"/>
<feOffset dy="12"/>
<feGaussianBlur stdDeviation="5.25"/>
<feComposite in2="hardAlpha" operator="out"/>
<feColorMatrix type="matrix" values="0 0 0 0 0 0 0 0 0 0 0 0 0 0 0 0 0 0 0.25 0"/>
<feBlend mode="normal" in2="BackgroundImageFix" result="effect1_dropShadow_936_9455"/>
<feBlend mode="normal" in="SourceGraphic" in2="effect1_dropShadow_936_9455" result="shape"/>
</filter>
<filter id="filter7_d_936_9455" x="5.73633" y="131.742" width="62.3203" height="54.7461" filterUnits="userSpaceOnUse" color-interpolation-filters="sRGB">
<feFlood flood-opacity="0" result="BackgroundImageFix"/>
<feColorMatrix in="SourceAlpha" type="matrix" values="0 0 0 0 0 0 0 0 0 0 0 0 0 0 0 0 0 0 127 0" result="hardAlpha"/>
<feOffset dx="-2" dy="4"/>
<feGaussianBlur stdDeviation="3"/>
<feComposite in2="hardAlpha" operator="out"/>
<feColorMatrix type="matrix" values="0 0 0 0 0 0 0 0 0 0 0 0 0 0 0 0 0 0 0.25 0"/>
<feBlend mode="normal" in2="BackgroundImageFix" result="effect1_dropShadow_936_9455"/>
<feBlend mode="normal" in="SourceGraphic" in2="effect1_dropShadow_936_9455" result="shape"/>
</filter>
<linearGradient id="paint0_linear_936_9455" x1="153.82" y1="56.4418" x2="51.3975" y2="160.375" gradientUnits="userSpaceOnUse">
<stop stop-color="#D28078" stop-opacity="0"/>
<stop offset="1" stop-color="#DE2210"/>
</linearGradient>
<radialGradient id="paint1_radial_936_9455" cx="0" cy="0" r="1" gradientUnits="userSpaceOnUse" gradientTransform="translate(186.369 56.883) rotate(115.673) scale(21.2071 56.2153)">
<stop offset="0.33" stop-opacity="0"/>
<stop offset="0.655" stop-opacity="0.6"/>
<stop offset="1"/>
</radialGradient>
<radialGradient id="paint2_radial_936_9455" cx="0" cy="0" r="1" gradientUnits="userSpaceOnUse" gradientTransform="translate(67.9719 64.9963) rotate(63.3772) scale(28.6019 81.3382)">
<stop offset="0.33" stop-opacity="0"/>
<stop offset="0.655" stop-opacity="0.6"/>
<stop offset="1"/>
</radialGradient>
<linearGradient id="paint3_linear_936_9455" x1="153.82" y1="56.4418" x2="51.3975" y2="160.375" gradientUnits="userSpaceOnUse">
<stop stop-color="#D28078" stop-opacity="0"/>
<stop offset="1" stop-color="#DE2210"/>
</linearGradient>
<radialGradient id="paint4_radial_936_9455" cx="0" cy="0" r="1" gradientUnits="userSpaceOnUse" gradientTransform="translate(186.369 56.883) rotate(115.673) scale(21.2071 56.2153)">
<stop offset="0.33" stop-opacity="0"/>
<stop offset="0.655" stop-opacity="0.6"/>
<stop offset="1"/>
</radialGradient>
<radialGradient id="paint5_radial_936_9455" cx="0" cy="0" r="1" gradientUnits="userSpaceOnUse" gradientTransform="translate(67.9719 64.9963) rotate(63.3772) scale(28.6019 81.3382)">
<stop offset="0.33" stop-opacity="0"/>
<stop offset="0.655" stop-opacity="0.6"/>
<stop offset="1"/>
</radialGradient>
</defs>
</svg>
