<svg width="271" height="140" viewBox="0 0 271 140" fill="none" xmlns="http://www.w3.org/2000/svg">
<g filter="url(#filter0_d_936_9560)">
<path d="M16.4971 69.6131C11.7229 71.2104 10.8818 77.8619 9.30214 82.5278C4.56327 96.5254 46.7236 115.337 46.7236 115.337L55.2985 106.884C55.2985 106.884 30.8195 64.8211 16.4971 69.6131Z" fill="#FF615E"/>
</g>
<g filter="url(#filter1_d_936_9560)">
<path d="M232.713 118.09C233.972 113.486 234.604 108.725 234.54 103.855C234.038 65.3077 190.211 34.5437 136.65 35.1414C83.0882 35.739 40.0748 67.472 40.5766 106.019C40.6303 110.141 41.1794 114.174 42.183 118.09H232.713Z" fill="#FF615E"/>
<path d="M232.713 118.09C233.972 113.486 234.604 108.725 234.54 103.855C234.038 65.3077 190.211 34.5437 136.65 35.1414C83.0882 35.739 40.0748 67.472 40.5766 106.019C40.6303 110.141 41.1794 114.174 42.183 118.09H232.713Z" fill="url(#paint0_linear_936_9560)"/>
</g>
<g filter="url(#filter2_d_936_9560)">
<path d="M96.8511 22.1828C109.598 23.2453 116.477 26.4351 122.697 34.167C135.491 50.0701 81.3165 67.9464 48.7497 76.9932C40.1756 79.375 33.6176 70.6688 38.8878 63.7206C52.8794 45.274 75.8211 20.4297 96.8511 22.1828Z" fill="#6E5232"/>
<path d="M96.8511 22.1828C109.598 23.2453 116.477 26.4351 122.697 34.167C135.491 50.0701 81.3165 67.9464 48.7497 76.9932C40.1756 79.375 33.6176 70.6688 38.8878 63.7206C52.8794 45.274 75.8211 20.4297 96.8511 22.1828Z" fill="url(#paint1_radial_936_9560)" fill-opacity="0.2"/>
</g>
<g filter="url(#filter3_d_936_9560)">
<path d="M147.948 16.105C129.849 17.4712 120.285 21.7891 112.014 32.3274C94.558 54.5695 177.842 80.1417 224.45 92.4095C235.046 95.1984 242.805 84.1226 235.937 75.8414C214.766 50.3155 178.798 13.7762 147.948 16.105Z" fill="#6E5232"/>
<path d="M147.948 16.105C129.849 17.4712 120.285 21.7891 112.014 32.3274C94.558 54.5695 177.842 80.1417 224.45 92.4095C235.046 95.1984 242.805 84.1226 235.937 75.8414C214.766 50.3155 178.798 13.7762 147.948 16.105Z" fill="url(#paint2_radial_936_9560)" fill-opacity="0.2"/>
</g>
<defs>
<filter id="filter0_d_936_9560" x="0.929688" y="67.2324" width="58.3691" height="58.1055" filterUnits="userSpaceOnUse" color-interpolation-filters="sRGB">
<feFlood flood-opacity="0" result="BackgroundImageFix"/>
<feColorMatrix in="SourceAlpha" type="matrix" values="0 0 0 0 0 0 0 0 0 0 0 0 0 0 0 0 0 0 127 0" result="hardAlpha"/>
<feOffset dx="-2" dy="4"/>
<feGaussianBlur stdDeviation="3"/>
<feComposite in2="hardAlpha" operator="out"/>
<feColorMatrix type="matrix" values="0 0 0 0 0 0 0 0 0 0 0 0 0 0 0 0 0 0 0.25 0"/>
<feBlend mode="normal" in2="BackgroundImageFix" result="effect1_dropShadow_936_9560"/>
<feBlend mode="normal" in="SourceGraphic" in2="effect1_dropShadow_936_9560" result="shape"/>
</filter>
<filter id="filter1_d_936_9560" x="34.4723" y="34.0328" width="216.173" height="105.157" filterUnits="userSpaceOnUse" color-interpolation-filters="sRGB">
<feFlood flood-opacity="0" result="BackgroundImageFix"/>
<feColorMatrix in="SourceAlpha" type="matrix" values="0 0 0 0 0 0 0 0 0 0 0 0 0 0 0 0 0 0 127 0" result="hardAlpha"/>
<feOffset dx="5" dy="10"/>
<feGaussianBlur stdDeviation="5.55"/>
<feComposite in2="hardAlpha" operator="out"/>
<feColorMatrix type="matrix" values="0 0 0 0 0 0 0 0 0 0 0 0 0 0 0 0 0 0 0.25 0"/>
<feBlend mode="normal" in2="BackgroundImageFix" result="effect1_dropShadow_936_9560"/>
<feBlend mode="normal" in="SourceGraphic" in2="effect1_dropShadow_936_9560" result="shape"/>
</filter>
<filter id="filter2_d_936_9560" x="26.5" y="22.0957" width="108.615" height="77.7988" filterUnits="userSpaceOnUse" color-interpolation-filters="sRGB">
<feFlood flood-opacity="0" result="BackgroundImageFix"/>
<feColorMatrix in="SourceAlpha" type="matrix" values="0 0 0 0 0 0 0 0 0 0 0 0 0 0 0 0 0 0 127 0" result="hardAlpha"/>
<feOffset dy="12"/>
<feGaussianBlur stdDeviation="5.25"/>
<feComposite in2="hardAlpha" operator="out"/>
<feColorMatrix type="matrix" values="0 0 0 0 0 0 0 0 0 0 0 0 0 0 0 0 0 0 0.25 0"/>
<feBlend mode="normal" in2="BackgroundImageFix" result="effect1_dropShadow_936_9560"/>
<feBlend mode="normal" in="SourceGraphic" in2="effect1_dropShadow_936_9560" result="shape"/>
</filter>
<filter id="filter3_d_936_9560" x="99.1465" y="15.998" width="149.889" height="99.3516" filterUnits="userSpaceOnUse" color-interpolation-filters="sRGB">
<feFlood flood-opacity="0" result="BackgroundImageFix"/>
<feColorMatrix in="SourceAlpha" type="matrix" values="0 0 0 0 0 0 0 0 0 0 0 0 0 0 0 0 0 0 127 0" result="hardAlpha"/>
<feOffset dy="12"/>
<feGaussianBlur stdDeviation="5.25"/>
<feComposite in2="hardAlpha" operator="out"/>
<feColorMatrix type="matrix" values="0 0 0 0 0 0 0 0 0 0 0 0 0 0 0 0 0 0 0.25 0"/>
<feBlend mode="normal" in2="BackgroundImageFix" result="effect1_dropShadow_936_9560"/>
<feBlend mode="normal" in="SourceGraphic" in2="effect1_dropShadow_936_9560" result="shape"/>
</filter>
<linearGradient id="paint0_linear_936_9560" x1="100.763" y1="48.6341" x2="195.77" y2="148.617" gradientUnits="userSpaceOnUse">
<stop stop-color="#D28078" stop-opacity="0"/>
<stop offset="1" stop-color="#DE2210"/>
</linearGradient>
<radialGradient id="paint1_radial_936_9560" cx="0" cy="0" r="1" gradientUnits="userSpaceOnUse" gradientTransform="translate(70.8587 52.2675) rotate(61.3416) scale(19.6212 54.3339)">
<stop offset="0.33" stop-opacity="0"/>
<stop offset="0.655" stop-opacity="0.6"/>
<stop offset="1"/>
</radialGradient>
<radialGradient id="paint2_radial_936_9560" cx="0" cy="0" r="1" gradientUnits="userSpaceOnUse" gradientTransform="translate(187.361 57.4559) rotate(117.213) scale(26.4222 78.7371)">
<stop offset="0.33" stop-opacity="0"/>
<stop offset="0.655" stop-opacity="0.6"/>
<stop offset="1"/>
</radialGradient>
</defs>
</svg>
