<svg width="671" height="670" viewBox="0 0 671 670" fill="none" xmlns="http://www.w3.org/2000/svg">
<path fill-rule="evenodd" clip-rule="evenodd" d="M306.744 151.595C382.223 157.291 461.487 128.591 524.339 170.771C598.049 220.24 668.244 300.021 659.544 388.366C651.071 474.402 560.911 524.987 485.323 566.944C430.966 597.117 368.84 587.232 306.744 584.199C249.478 581.403 191.205 583.98 144.795 550.315C90.1921 510.706 51.249 454.252 36.7775 388.366C17.9193 302.508 -12.4599 193.211 53.6282 135.25C119.708 77.2956 219.1 144.981 306.744 151.595Z" fill="white" fill-opacity="0.3"/>
<path fill-rule="evenodd" clip-rule="evenodd" d="M522.193 53.4854C477.167 20.4528 428.161 20.4528 383.135 53.4854C316.359 102.474 316.359 228.878 383.135 277.867C428.161 310.9 477.167 310.9 522.193 277.867C588.969 228.878 588.969 102.474 522.193 53.4854ZM480.03 101.835C460.676 91.9799 444.682 91.9799 425.328 101.835C383.912 122.924 383.912 208.307 425.328 229.396C444.682 239.251 460.676 239.251 480.03 229.396C521.446 208.307 521.446 122.924 480.03 101.835Z" fill="#F27B12"/>
<path fill-rule="evenodd" clip-rule="evenodd" d="M136.471 377.573C107.744 382.363 88.7815 408.288 88.7815 437.412V576.796C88.7815 605.92 107.744 631.845 136.471 636.635C173.662 642.836 224.043 645.872 255.02 625.765C334.848 573.951 334.848 440.257 255.02 388.443C224.043 368.336 173.662 371.372 136.471 377.573ZM208.199 431.4C180.204 423.452 159.925 454.274 159.925 483.375V530.83C159.925 559.931 180.204 590.753 208.199 582.805C210.843 582.054 213.349 581.054 215.635 579.752C257.816 555.73 257.816 458.475 215.635 434.453C213.349 433.151 210.843 432.151 208.199 431.4Z" fill="#F27B12"/>
<path d="M270.814 303.077C315.168 272.887 282.481 244.631 260.14 243.776C237.799 242.92 198.731 272.626 167.979 254.779C115.298 224.204 116.459 148.689 170.019 122.183C207.454 103.657 210.952 134.105 247.046 125.133C269.387 125.989 268.694 96.0597 262.672 79.1502C245.301 30.3779 169.978 39.8666 121.272 62.7339C33.6276 103.883 31.3897 249.401 117.666 297.211C165.611 323.78 236.329 326.55 270.814 303.077Z" fill="#F27B12"/>
<path d="M554.729 615.953L406.453 620.933C384.392 621.674 366.101 603.751 366.101 581.392L366.101 379.583C366.101 359.524 382.148 343.27 401.951 343.27L527.481 343.27C542.799 343.27 555.481 355.343 556.43 370.831C557.454 387.544 544.493 401.73 527.964 401.986L449.215 403.207C435.83 403.415 425.194 414.648 425.547 428.203C425.898 441.665 436.96 452.294 450.248 451.94L501.682 450.569C519.078 450.105 533.558 464.02 534.018 481.642C534.485 499.577 520.265 514.366 502.553 514.366H450.045C436.967 514.366 426.468 525.286 426.813 538.529C427.148 551.369 437.574 561.577 450.254 561.479L553.579 560.681C568.459 560.566 580.695 572.546 581.087 587.613C581.483 602.796 569.714 615.45 554.729 615.953Z" fill="#F27B12"/>
</svg>
