<svg width="770" height="300" viewBox="0 0 770 300" fill="none" xmlns="http://www.w3.org/2000/svg">
<path d="M25 258.546H55V299.994H25V258.546Z" fill="#7D4023"/>
<path d="M705 258.546H735V299.994H705V258.546Z" fill="#7D4023"/>
<path fill-rule="evenodd" clip-rule="evenodd" d="M49.8429 101.25C71.9343 101.25 89.8429 118.923 89.8429 140.724V192.059H690V140.724C690 118.923 707.908 101.25 730 101.25C752.091 101.25 770 118.923 770 140.724V231.532C770 253.333 752.091 271.006 730 271.006H49.8429C27.7515 271.006 9.84287 253.333 9.84287 231.532V140.724C9.84287 118.923 27.7515 101.25 49.8429 101.25Z" fill="#91859A"/>
<path d="M60.0044 68.0845C60.0044 40.8335 82.3901 18.7422 110.004 18.7422H650.152C677.766 18.7422 700.152 40.8335 700.152 68.0845V173.606C700.152 200.857 677.766 222.949 650.152 222.949H110.004C82.3901 222.949 60.0044 200.857 60.0044 173.606V68.0845Z" fill="#9F8DAC"/>
<path d="M60.0044 68.0845C60.0044 40.8335 82.3901 18.7422 110.004 18.7422H650.152C677.766 18.7422 700.152 40.8335 700.152 68.0845V173.606C700.152 200.857 677.766 222.949 650.152 222.949H110.004C82.3901 222.949 60.0044 200.857 60.0044 173.606V68.0845Z" fill="url(#paint0_linear_1260_4784)" fill-opacity="0.2"/>
<path fill-rule="evenodd" clip-rule="evenodd" d="M40 92.2141C62.0914 92.2141 80 109.887 80 131.688V183.023H680.157V131.688C680.157 109.887 698.066 92.2141 720.157 92.2141C742.248 92.2141 760.157 109.887 760.157 131.688V222.497C760.157 244.297 742.248 261.971 720.157 261.971H40C17.9086 261.971 0 244.297 0 222.497V131.688C0 109.887 17.9086 92.2141 40 92.2141Z" fill="#C4B0D1"/>
<path d="M79.3724 173.252H682.753V232.888H79.3724V173.252Z" fill="#AD92AD"/>
<path d="M80.3568 159.699H682.753V219.335H80.3568V159.699Z" fill="#E2C5E2"/>
<g filter="url(#filter0_d_1260_4784)">
<path d="M543.611 106.018C543.974 136.112 572.604 160.085 607.559 159.562C642.515 159.039 670.558 134.218 670.195 104.124C669.833 74.0293 641.202 50.0568 606.247 50.5798C571.292 51.1028 543.249 75.9233 543.611 106.018Z" fill="#FF615E"/>
<path d="M543.611 106.018C543.974 136.112 572.604 160.085 607.559 159.562C642.515 159.039 670.558 134.218 670.195 104.124C669.833 74.0293 641.202 50.0568 606.247 50.5798C571.292 51.1028 543.249 75.9233 543.611 106.018Z" fill="url(#paint1_radial_1260_4784)"/>
</g>
<path d="M616.042 88.1087C616.097 92.7163 618.194 96.4208 620.724 96.3829C623.255 96.345 625.261 92.5792 625.206 87.9716C625.15 83.3641 623.054 79.6596 620.523 79.6975C617.993 79.7353 615.986 83.5012 616.042 88.1087Z" fill="black"/>
<path d="M584.026 88.3822C584.082 92.9897 586.178 96.6942 588.709 96.6563C591.239 96.6185 593.246 92.8526 593.19 88.2451C593.135 83.6375 591.038 79.933 588.508 79.9709C585.977 80.0088 583.971 83.7746 584.026 88.3822Z" fill="black"/>
<g filter="url(#filter1_d_1260_4784)">
<path d="M618.505 30.1769C608.757 31.428 603.551 34.5024 598.945 41.7278C589.729 56.1858 629.14 70.9806 654.447 78.7609C662.319 81.181 667.711 72.7209 662.761 65.4555C651.581 49.0445 634.092 28.1766 618.505 30.1769Z" fill="#6E5232"/>
<path d="M618.505 30.1769C608.757 31.428 603.551 34.5024 598.945 41.7278C589.729 56.1858 629.14 70.9806 654.447 78.7609C662.319 81.181 667.711 72.7209 662.761 65.4555C651.581 49.0445 634.092 28.1766 618.505 30.1769Z" fill="url(#paint2_radial_1260_4784)" fill-opacity="0.2"/>
</g>
<g filter="url(#filter2_d_1260_4784)">
<path d="M583.913 36.4769C593.383 37.0627 598.439 39.6184 602.908 46.0789C611.167 58.0164 579.145 72.6898 554.83 81.7635C545.266 85.3325 538.509 75.0603 544.903 66.3154C555.677 51.5796 570.523 35.6485 583.913 36.4769Z" fill="#6E5232"/>
<path d="M583.913 36.4769C593.383 37.0627 598.439 39.6184 602.908 46.0789C611.167 58.0164 579.145 72.6898 554.83 81.7635C545.266 85.3325 538.509 75.0603 544.903 66.3154C555.677 51.5796 570.523 35.6485 583.913 36.4769Z" fill="url(#paint3_radial_1260_4784)" fill-opacity="0.2"/>
</g>
<g filter="url(#filter3_d_1260_4784)">
<path d="M524.744 132.934C524.973 136.29 529.279 138.054 532.126 139.926C540.666 145.542 560.688 121.964 560.688 121.964L556.538 114.908C556.538 114.908 524.057 122.866 524.744 132.934Z" fill="#DE2210"/>
</g>
<g filter="url(#filter4_d_1260_4784)">
<path d="M681.385 137.46C679.721 140.403 675.064 140.196 671.679 140.698C661.524 142.205 653.67 112.468 653.67 112.468L660.484 107.819C660.484 107.819 686.377 128.632 681.385 137.46Z" fill="#DE2210"/>
</g>
<path fill-rule="evenodd" clip-rule="evenodd" d="M589.848 106.674C592.333 106.672 594.346 108.658 594.343 111.11C594.34 114.116 595.61 116.202 597.567 117.659C599.652 119.211 602.661 120.122 605.896 120.119C609.132 120.115 612.143 119.196 614.23 117.64C616.19 116.178 617.464 114.089 617.467 111.083C617.47 108.631 619.487 106.64 621.972 106.637C624.457 106.635 626.47 108.62 626.467 111.073C626.461 117.042 623.713 121.689 619.646 124.722C615.705 127.66 610.683 128.995 605.887 129C601.092 129.006 596.072 127.683 592.137 124.754C588.076 121.73 585.337 117.09 585.343 111.121C585.346 108.668 587.362 106.677 589.848 106.674Z" fill="black"/>
<g filter="url(#filter5_d_1260_4784)">
<path d="M359.299 188.229C355.958 190.35 353.558 190.456 350.038 188.639C339.476 183.187 347.867 140.806 347.867 140.806L357.129 140.397C357.129 140.397 369.325 181.867 359.299 188.229Z" fill="#2479B7"/>
</g>
<g filter="url(#filter6_d_1260_4784)">
<path d="M288.217 187.852C284.762 189.79 282.361 189.766 278.946 187.762C268.702 181.749 279.425 139.884 279.425 139.884L288.696 139.974C288.696 139.974 298.579 182.04 288.217 187.852Z" fill="#237DBF"/>
</g>
<path d="M314.779 0.143697L389.428 157.21L240.745 157.493L314.779 0.143697Z" fill="#228CDA"/>
<path d="M314.779 0.143697L389.428 157.21L240.745 157.493L314.779 0.143697Z" fill="url(#paint4_linear_1260_4784)"/>
<path fill-rule="evenodd" clip-rule="evenodd" d="M292.449 41.2183C284.907 41.2326 278.696 47.4948 278.711 55.3406C278.726 63.1864 284.962 69.4249 292.504 69.4106C300.045 69.3962 306.257 63.1341 306.241 55.2882C306.226 47.4424 299.99 41.2039 292.449 41.2183ZM274.711 55.3482C274.692 45.4438 282.569 37.2897 292.441 37.2709C302.313 37.2521 310.222 45.3762 310.241 55.2806C310.261 65.1851 302.383 73.3392 292.511 73.358C282.639 73.3767 274.73 65.2527 274.711 55.3482Z" fill="#FA8F21"/>
<path fill-rule="evenodd" clip-rule="evenodd" d="M337.265 41.0815C329.723 41.0959 323.512 47.3581 323.527 55.2039C323.543 63.0497 329.778 69.2882 337.32 69.2739C344.862 69.2595 351.073 62.9973 351.058 55.1515C351.042 47.3057 344.807 41.0672 337.265 41.0815ZM319.527 55.2115C319.508 45.3071 327.385 37.1529 337.257 37.1342C347.129 37.1154 355.038 45.2395 355.058 55.1439C355.077 65.0483 347.2 73.2025 337.328 73.2212C327.456 73.24 319.547 65.1159 319.527 55.2115Z" fill="#FA8F21"/>
<path fill-rule="evenodd" clip-rule="evenodd" d="M318.246 55.185C316.66 54.8216 314.853 54.512 313.524 54.5437C312.338 54.572 310.734 54.8911 309.328 55.2438C308.646 55.4148 308.047 55.5843 307.62 55.7107C307.407 55.7738 307.238 55.8259 307.123 55.8616C307.066 55.8795 307.022 55.8933 306.994 55.9023L306.963 55.9122L306.957 55.9143C306.957 55.9142 306.956 55.9144 306.329 54.0403C305.702 52.1662 305.702 52.1661 305.702 52.1661L305.708 52.1643L305.72 52.1604L305.762 52.1468C305.798 52.1352 305.85 52.1188 305.916 52.0982C306.048 52.0571 306.237 51.9991 306.471 51.9297C306.939 51.7912 307.594 51.6059 308.342 51.418C309.798 51.0528 311.767 50.6371 313.428 50.5975C315.29 50.553 317.509 50.9638 319.15 51.3399C319.995 51.5334 320.734 51.7289 321.262 51.8763C321.526 51.9501 321.74 52.0122 321.888 52.0564C321.963 52.0785 322.021 52.0962 322.062 52.1086L322.11 52.1233L322.123 52.1275L322.129 52.1293C322.129 52.1293 322.13 52.1296 321.527 54.0114C320.924 55.8932 320.924 55.8932 320.924 55.8933L320.916 55.8907L320.881 55.8801C320.849 55.8703 320.8 55.8555 320.735 55.8362C320.606 55.7978 320.414 55.742 320.174 55.6748C319.691 55.5401 319.015 55.3612 318.246 55.185Z" fill="#FA8F21"/>
<path d="M298.922 55.3049C298.93 58.9343 296.049 61.882 292.488 61.8887C288.928 61.8955 286.036 58.9588 286.028 55.3294C286.021 51.7 288.902 48.7523 292.463 48.7455C296.023 48.7388 298.915 51.6755 298.922 55.3049Z" fill="black"/>
<path d="M343.739 55.2189C343.746 58.8483 340.865 61.796 337.305 61.8028C333.744 61.8096 330.852 58.8729 330.845 55.2435C330.838 51.6141 333.718 48.6664 337.279 48.6596C340.84 48.6528 343.732 51.5895 343.739 55.2189Z" fill="black"/>
<path fill-rule="evenodd" clip-rule="evenodd" d="M307.723 81.6104C307.72 80.5204 308.614 79.635 309.719 79.6329L320.715 79.612C321.819 79.6099 322.716 80.4918 322.718 81.5819C322.721 82.6719 321.827 83.5573 320.722 83.5594L309.726 83.5803C308.622 83.5824 307.725 82.7004 307.723 81.6104Z" fill="black"/>
<g filter="url(#filter7_d_1260_4784)">
<path d="M385.793 122.773C385.019 126.011 383.622 127.485 380.4 128.464C370.733 131.4 350.662 101.02 350.662 101.02L356.055 95.3289C356.055 95.3289 388.115 113.058 385.793 122.773Z" fill="#228CDA"/>
</g>
<g filter="url(#filter8_d_1260_4784)">
<path d="M248.152 123.025C245.08 121.654 243.883 120.018 243.528 116.709C242.463 106.783 276.528 93.1757 276.528 93.1757L281.153 99.4914C281.153 99.4914 257.368 127.138 248.152 123.025Z" fill="#228CDA"/>
</g>
<g filter="url(#filter9_d_1260_4784)">
<path d="M531.613 120.162C530.535 124.092 528.766 125.84 524.786 126.909C512.844 130.117 489.533 92.1668 489.533 92.1668L496.361 85.4201C496.361 85.4201 534.848 108.373 531.613 120.162Z" fill="#E285AE"/>
</g>
<g filter="url(#filter10_d_1260_4784)">
<path d="M474.941 191.59C471.257 193.423 468.758 193.292 465.292 191.084C454.895 184.458 467.936 141.987 467.936 141.987L477.584 142.493C477.584 142.493 485.991 186.089 474.941 191.59Z" fill="#E285AE"/>
</g>
<g filter="url(#filter11_d_1260_4784)">
<path d="M438.535 191.439C435.012 193.559 432.511 193.626 428.876 191.7C417.973 185.92 427.516 142.552 427.516 142.552L437.174 142.292C437.174 142.292 449.101 185.08 438.535 191.439Z" fill="#E285AE"/>
</g>
<g filter="url(#filter12_d_1260_4784)">
<path d="M395.189 122.347C391.375 120.793 389.843 118.84 389.273 114.808C387.563 102.711 428.665 84.7059 428.665 84.7059L434.581 92.2448C434.581 92.2448 406.628 127.008 395.189 122.347Z" fill="#E285AE"/>
</g>
<g filter="url(#filter13_d_1260_4784)">
<path d="M436.888 37.5746L519.713 37.7081L490.367 161.28L402.592 161.139L436.888 37.5746Z" fill="#F498C1"/>
<path d="M436.888 37.5746L519.713 37.7081L490.367 161.28L402.592 161.139L436.888 37.5746Z" fill="url(#paint5_linear_1260_4784)"/>
</g>
<path d="M443.358 67.1616C443.367 61.3467 448.152 56.6405 454.044 56.65V56.65C459.937 56.6595 464.706 61.3812 464.696 67.1961L464.681 76.4276C464.671 82.2425 459.886 86.9488 453.994 86.9393V86.9393C448.102 86.9297 443.333 82.2081 443.342 76.3932L443.358 67.1616Z" fill="white"/>
<path fill-rule="evenodd" clip-rule="evenodd" d="M461.095 74.1555L461.124 74.183L454.313 81.0171L447.123 74.2474L447.142 74.2277C446.996 74.1151 446.854 73.9941 446.716 73.865C444.506 71.7844 444.45 68.3564 446.591 66.2084C448.607 64.1848 451.854 64.0192 454.072 65.7468C456.23 64.0313 459.417 64.1227 461.469 66.0543C463.679 68.1349 463.735 71.5629 461.594 73.7108C461.435 73.8706 461.268 74.0189 461.095 74.1555Z" fill="black"/>
<path d="M475.279 67.2163C475.289 61.4014 480.074 56.6952 485.966 56.7047V56.7047C491.858 56.7142 496.627 61.4358 496.618 67.2508L496.602 76.4823C496.593 82.2972 491.808 87.0034 485.916 86.9939V86.9939C480.023 86.9844 475.255 82.2628 475.264 76.4479L475.279 67.2163Z" fill="white"/>
<path fill-rule="evenodd" clip-rule="evenodd" d="M493.017 74.2102L493.046 74.2376L486.235 81.0718L479.045 74.3021L479.064 74.2824C478.918 74.1697 478.775 74.0488 478.638 73.9197C476.428 71.839 476.372 68.4111 478.513 66.2631C480.529 64.2395 483.776 64.0739 485.993 65.8015C488.152 64.086 491.339 64.1774 493.39 66.109C495.6 68.1896 495.657 71.6176 493.516 73.7655C493.357 73.9253 493.19 74.0735 493.017 74.2102Z" fill="black"/>
<path fill-rule="evenodd" clip-rule="evenodd" d="M464.16 98.2547L463.568 96.8946C462.807 97.2172 462.454 98.0877 462.781 98.8389C463.108 99.5899 463.99 99.9374 464.751 99.6151L464.753 99.6143L464.765 99.6094L464.819 99.5871C464.868 99.567 464.942 99.537 465.038 99.4993C465.23 99.4239 465.508 99.3183 465.844 99.2007C466.521 98.9632 467.402 98.6875 468.271 98.5076C469.181 98.3189 469.901 98.2747 470.335 98.3628C470.405 98.377 470.453 98.3919 470.485 98.4038C470.505 98.6362 470.467 98.7239 470.461 98.7364C470.457 98.7456 470.444 98.7751 470.369 98.8288C470.138 98.9952 469.744 99.1221 468.975 99.3303C468.943 99.3388 468.911 99.3475 468.878 99.3564C468.258 99.5232 467.333 99.772 466.603 100.289C466.181 100.588 465.787 100.997 465.523 101.554C465.262 102.108 465.173 102.717 465.217 103.353C465.263 104.013 465.475 104.633 465.907 105.144C466.33 105.644 466.866 105.924 467.359 106.085C468.218 106.365 469.243 106.364 469.969 106.363C470.006 106.363 470.042 106.363 470.078 106.363C470.971 106.362 471.502 106.379 471.837 106.489C471.86 106.497 471.879 106.504 471.893 106.51C471.896 106.53 471.899 106.556 471.901 106.591C471.904 106.647 471.898 106.644 471.896 106.644C471.896 106.643 471.896 106.643 471.896 106.644C471.867 106.678 471.756 106.781 471.464 106.898C470.861 107.14 469.918 107.273 468.799 107.302C467.715 107.33 466.608 107.259 465.759 107.177C465.338 107.137 464.988 107.095 464.744 107.063C464.623 107.047 464.528 107.034 464.466 107.025L464.396 107.015L464.38 107.012L464.377 107.012C463.559 106.884 462.791 107.435 462.661 108.242C462.532 109.05 463.09 109.808 463.908 109.936L464.136 108.513C463.908 109.936 463.908 109.936 463.908 109.936L463.912 109.937L463.919 109.938L463.944 109.941C463.964 109.945 463.994 109.949 464.032 109.954C464.107 109.965 464.215 109.98 464.351 109.998C464.623 110.034 465.008 110.08 465.469 110.124C466.385 110.212 467.625 110.294 468.878 110.262C470.095 110.23 471.478 110.088 472.593 109.641C473.161 109.413 473.758 109.068 474.21 108.526C474.691 107.95 474.939 107.234 474.897 106.438C474.862 105.781 474.663 105.156 474.237 104.638C473.819 104.129 473.283 103.845 472.79 103.682C471.935 103.399 470.91 103.401 470.185 103.402C470.148 103.402 470.112 103.402 470.076 103.402C469.185 103.402 468.646 103.387 468.301 103.274C468.265 103.262 468.239 103.252 468.222 103.244C468.218 103.223 468.213 103.193 468.21 103.151C468.194 102.915 468.234 102.823 468.242 102.805C468.25 102.789 468.268 102.754 468.352 102.694C468.596 102.521 469 102.393 469.768 102.185C469.799 102.177 469.83 102.169 469.863 102.16C470.482 101.993 471.409 101.744 472.136 101.222C472.557 100.918 472.948 100.504 473.202 99.9406C473.454 99.3814 473.529 98.771 473.473 98.138C473.409 97.4198 473.122 96.77 472.596 96.275C472.096 95.8044 471.487 95.5742 470.939 95.463C469.881 95.2482 468.663 95.4013 467.654 95.6102C466.604 95.8278 465.583 96.15 464.839 96.4111C464.464 96.5428 464.151 96.6616 463.93 96.7483C463.819 96.7916 463.731 96.8271 463.67 96.8522L463.598 96.882L463.577 96.8905L463.571 96.8931L463.569 96.894C463.569 96.8941 463.568 96.8946 464.16 98.2547Z" fill="black"/>
<g filter="url(#filter14_d_1260_4784)">
<path d="M88.3294 137.711C89.2714 141.618 90.9615 143.395 94.854 144.569C106.531 148.092 130.691 111.368 130.691 111.368L124.167 104.51C124.167 104.51 85.5034 125.987 88.3294 137.711Z" fill="#1CB76B"/>
</g>
<g filter="url(#filter15_d_1260_4784)">
<path d="M145.987 170.113C149.602 171.958 152.069 171.853 155.511 169.708C165.835 163.274 153.399 121.245 153.399 121.245L143.875 121.649C143.875 121.649 135.141 164.577 145.987 170.113Z" fill="#1CB76B"/>
</g>
<g filter="url(#filter16_d_1260_4784)">
<path d="M183.475 170.113C187.091 171.958 189.558 171.853 192.999 169.708C203.324 163.274 190.887 121.245 190.887 121.245L181.363 121.649C181.363 121.649 172.629 164.577 183.475 170.113Z" fill="#1CB76B"/>
</g>
<g filter="url(#filter17_d_1260_4784)">
<path fill-rule="evenodd" clip-rule="evenodd" d="M159.852 56.874C159.39 55.603 158.97 54.2675 158.602 52.8832C155.977 42.9969 157.035 34.3608 160.966 33.5937C164.528 32.8988 169.225 38.9018 172.029 47.3889C175.081 41.4204 178.636 37.6148 181.027 38.2236C184.252 39.0449 184.137 47.5898 180.768 57.3092C180.659 57.6258 180.547 57.9398 180.433 58.2509C205.149 63.8326 223.375 83.1235 223.375 106.063C223.375 133.369 197.553 155.504 165.699 155.504C133.846 155.504 108.024 133.369 108.024 106.063C108.024 80.4502 130.745 59.3861 159.852 56.874Z" fill="#1CB76B"/>
</g>
<path d="M171.041 96.6975C171.041 102.929 176.935 107.981 184.204 107.981C191.474 107.981 197.367 102.929 197.367 96.6975C197.367 90.4658 191.474 85.4141 184.204 85.4141C176.935 85.4141 171.041 90.4658 171.041 96.6975Z" fill="white"/>
<path d="M134.038 96.6975C134.038 102.929 139.931 107.981 147.2 107.981C154.47 107.981 160.363 102.929 160.363 96.6975C160.363 90.4658 154.47 85.4141 147.2 85.4141C139.931 85.4141 134.038 90.4658 134.038 96.6975Z" fill="white"/>
<path d="M175.535 96.9321C175.535 100.836 179.227 104.001 183.781 104.001C188.335 104.001 192.027 100.836 192.027 96.9321C192.027 93.0281 188.335 89.8633 183.781 89.8633C179.227 89.8633 175.535 93.0281 175.535 96.9321Z" fill="black"/>
<path d="M139.191 97.6469C139.191 101.551 142.883 104.716 147.437 104.716C151.992 104.716 155.684 101.551 155.684 97.6469C155.684 93.7429 151.992 90.5781 147.437 90.5781C142.883 90.5781 139.191 93.7429 139.191 97.6469Z" fill="black"/>
<g filter="url(#filter18_d_1260_4784)">
<path d="M251.248 134.6C254.082 131.716 254.692 129.355 253.604 125.484C250.341 113.872 205.974 113.495 205.974 113.495L203.618 122.611C203.618 122.611 242.747 143.251 251.248 134.6Z" fill="#1CB76B"/>
</g>
<path fill-rule="evenodd" clip-rule="evenodd" d="M177.6 115.144C179.214 115.515 180.218 117.107 179.842 118.7C178.775 123.217 174.452 127.426 169.23 128.631C166.518 129.256 163.517 129.087 160.572 127.728C157.645 126.376 154.963 123.936 152.687 120.322C151.812 118.933 152.244 117.108 153.651 116.244C155.058 115.381 156.908 115.808 157.783 117.196C159.586 120.059 161.458 121.599 163.116 122.365C164.756 123.123 166.372 123.209 167.865 122.865C171.053 122.13 173.493 119.496 173.998 117.356C174.374 115.764 175.987 114.773 177.6 115.144Z" fill="black"/>
<defs>
<filter id="filter0_d_1260_4784" x="537.507" y="49.4703" width="148.792" height="131.2" filterUnits="userSpaceOnUse" color-interpolation-filters="sRGB">
<feFlood flood-opacity="0" result="BackgroundImageFix"/>
<feColorMatrix in="SourceAlpha" type="matrix" values="0 0 0 0 0 0 0 0 0 0 0 0 0 0 0 0 0 0 127 0" result="hardAlpha"/>
<feOffset dx="5" dy="10"/>
<feGaussianBlur stdDeviation="5.55"/>
<feComposite in2="hardAlpha" operator="out"/>
<feColorMatrix type="matrix" values="0 0 0 0 0 0 0 0 0 0 0 0 0 0 0 0 0 0 0.25 0"/>
<feBlend mode="normal" in2="BackgroundImageFix" result="effect1_dropShadow_1260_4784"/>
<feBlend mode="normal" in="SourceGraphic" in2="effect1_dropShadow_1260_4784" result="shape"/>
</filter>
<filter id="filter1_d_1260_4784" x="587.076" y="30.043" width="88.0879" height="71.6406" filterUnits="userSpaceOnUse" color-interpolation-filters="sRGB">
<feFlood flood-opacity="0" result="BackgroundImageFix"/>
<feColorMatrix in="SourceAlpha" type="matrix" values="0 0 0 0 0 0 0 0 0 0 0 0 0 0 0 0 0 0 127 0" result="hardAlpha"/>
<feOffset dy="12"/>
<feGaussianBlur stdDeviation="5.25"/>
<feComposite in2="hardAlpha" operator="out"/>
<feColorMatrix type="matrix" values="0 0 0 0 0 0 0 0 0 0 0 0 0 0 0 0 0 0 0.25 0"/>
<feBlend mode="normal" in2="BackgroundImageFix" result="effect1_dropShadow_1260_4784"/>
<feBlend mode="normal" in="SourceGraphic" in2="effect1_dropShadow_1260_4784" result="shape"/>
</filter>
<filter id="filter2_d_1260_4784" x="531.896" y="36.4453" width="82.8398" height="68.5469" filterUnits="userSpaceOnUse" color-interpolation-filters="sRGB">
<feFlood flood-opacity="0" result="BackgroundImageFix"/>
<feColorMatrix in="SourceAlpha" type="matrix" values="0 0 0 0 0 0 0 0 0 0 0 0 0 0 0 0 0 0 127 0" result="hardAlpha"/>
<feOffset dy="12"/>
<feGaussianBlur stdDeviation="5.25"/>
<feComposite in2="hardAlpha" operator="out"/>
<feColorMatrix type="matrix" values="0 0 0 0 0 0 0 0 0 0 0 0 0 0 0 0 0 0 0.25 0"/>
<feBlend mode="normal" in2="BackgroundImageFix" result="effect1_dropShadow_1260_4784"/>
<feBlend mode="normal" in="SourceGraphic" in2="effect1_dropShadow_1260_4784" result="shape"/>
</filter>
<filter id="filter3_d_1260_4784" x="516.732" y="112.906" width="47.9551" height="37.8828" filterUnits="userSpaceOnUse" color-interpolation-filters="sRGB">
<feFlood flood-opacity="0" result="BackgroundImageFix"/>
<feColorMatrix in="SourceAlpha" type="matrix" values="0 0 0 0 0 0 0 0 0 0 0 0 0 0 0 0 0 0 127 0" result="hardAlpha"/>
<feOffset dx="-2" dy="4"/>
<feGaussianBlur stdDeviation="3"/>
<feComposite in2="hardAlpha" operator="out"/>
<feColorMatrix type="matrix" values="0 0 0 0 0 0 0 0 0 0 0 0 0 0 0 0 0 0 0.25 0"/>
<feBlend mode="normal" in2="BackgroundImageFix" result="effect1_dropShadow_1260_4784"/>
<feBlend mode="normal" in="SourceGraphic" in2="effect1_dropShadow_1260_4784" result="shape"/>
</filter>
<filter id="filter4_d_1260_4784" x="645.67" y="105.82" width="40.3535" height="44.9336" filterUnits="userSpaceOnUse" color-interpolation-filters="sRGB">
<feFlood flood-opacity="0" result="BackgroundImageFix"/>
<feColorMatrix in="SourceAlpha" type="matrix" values="0 0 0 0 0 0 0 0 0 0 0 0 0 0 0 0 0 0 127 0" result="hardAlpha"/>
<feOffset dx="-2" dy="4"/>
<feGaussianBlur stdDeviation="3"/>
<feComposite in2="hardAlpha" operator="out"/>
<feColorMatrix type="matrix" values="0 0 0 0 0 0 0 0 0 0 0 0 0 0 0 0 0 0 0.25 0"/>
<feBlend mode="normal" in2="BackgroundImageFix" result="effect1_dropShadow_1260_4784"/>
<feBlend mode="normal" in="SourceGraphic" in2="effect1_dropShadow_1260_4784" result="shape"/>
</filter>
<filter id="filter5_d_1260_4784" x="336.707" y="138.398" width="30.5469" height="61.5195" filterUnits="userSpaceOnUse" color-interpolation-filters="sRGB">
<feFlood flood-opacity="0" result="BackgroundImageFix"/>
<feColorMatrix in="SourceAlpha" type="matrix" values="0 0 0 0 0 0 0 0 0 0 0 0 0 0 0 0 0 0 127 0" result="hardAlpha"/>
<feOffset dx="-2" dy="4"/>
<feGaussianBlur stdDeviation="3"/>
<feComposite in2="hardAlpha" operator="out"/>
<feColorMatrix type="matrix" values="0 0 0 0 0 0 0 0 0 0 0 0 0 0 0 0 0 0 0.25 0"/>
<feBlend mode="normal" in2="BackgroundImageFix" result="effect1_dropShadow_1260_4784"/>
<feBlend mode="normal" in="SourceGraphic" in2="effect1_dropShadow_1260_4784" result="shape"/>
</filter>
<filter id="filter6_d_1260_4784" x="266.514" y="137.883" width="30.4355" height="61.4023" filterUnits="userSpaceOnUse" color-interpolation-filters="sRGB">
<feFlood flood-opacity="0" result="BackgroundImageFix"/>
<feColorMatrix in="SourceAlpha" type="matrix" values="0 0 0 0 0 0 0 0 0 0 0 0 0 0 0 0 0 0 127 0" result="hardAlpha"/>
<feOffset dx="-2" dy="4"/>
<feGaussianBlur stdDeviation="3"/>
<feComposite in2="hardAlpha" operator="out"/>
<feColorMatrix type="matrix" values="0 0 0 0 0 0 0 0 0 0 0 0 0 0 0 0 0 0 0.25 0"/>
<feBlend mode="normal" in2="BackgroundImageFix" result="effect1_dropShadow_1260_4784"/>
<feBlend mode="normal" in="SourceGraphic" in2="effect1_dropShadow_1260_4784" result="shape"/>
</filter>
<filter id="filter7_d_1260_4784" x="342.662" y="93.3281" width="47.25" height="45.3359" filterUnits="userSpaceOnUse" color-interpolation-filters="sRGB">
<feFlood flood-opacity="0" result="BackgroundImageFix"/>
<feColorMatrix in="SourceAlpha" type="matrix" values="0 0 0 0 0 0 0 0 0 0 0 0 0 0 0 0 0 0 127 0" result="hardAlpha"/>
<feOffset dx="-2" dy="4"/>
<feGaussianBlur stdDeviation="3"/>
<feComposite in2="hardAlpha" operator="out"/>
<feColorMatrix type="matrix" values="0 0 0 0 0 0 0 0 0 0 0 0 0 0 0 0 0 0 0.25 0"/>
<feBlend mode="normal" in2="BackgroundImageFix" result="effect1_dropShadow_1260_4784"/>
<feBlend mode="normal" in="SourceGraphic" in2="effect1_dropShadow_1260_4784" result="shape"/>
</filter>
<filter id="filter8_d_1260_4784" x="235.504" y="91.1758" width="49.6484" height="42.2656" filterUnits="userSpaceOnUse" color-interpolation-filters="sRGB">
<feFlood flood-opacity="0" result="BackgroundImageFix"/>
<feColorMatrix in="SourceAlpha" type="matrix" values="0 0 0 0 0 0 0 0 0 0 0 0 0 0 0 0 0 0 127 0" result="hardAlpha"/>
<feOffset dx="-2" dy="4"/>
<feGaussianBlur stdDeviation="3"/>
<feComposite in2="hardAlpha" operator="out"/>
<feColorMatrix type="matrix" values="0 0 0 0 0 0 0 0 0 0 0 0 0 0 0 0 0 0 0.25 0"/>
<feBlend mode="normal" in2="BackgroundImageFix" result="effect1_dropShadow_1260_4784"/>
<feBlend mode="normal" in="SourceGraphic" in2="effect1_dropShadow_1260_4784" result="shape"/>
</filter>
<filter id="filter9_d_1260_4784" x="481.533" y="83.4219" width="54.2734" height="53.6797" filterUnits="userSpaceOnUse" color-interpolation-filters="sRGB">
<feFlood flood-opacity="0" result="BackgroundImageFix"/>
<feColorMatrix in="SourceAlpha" type="matrix" values="0 0 0 0 0 0 0 0 0 0 0 0 0 0 0 0 0 0 127 0" result="hardAlpha"/>
<feOffset dx="-2" dy="4"/>
<feGaussianBlur stdDeviation="3"/>
<feComposite in2="hardAlpha" operator="out"/>
<feColorMatrix type="matrix" values="0 0 0 0 0 0 0 0 0 0 0 0 0 0 0 0 0 0 0.25 0"/>
<feBlend mode="normal" in2="BackgroundImageFix" result="effect1_dropShadow_1260_4784"/>
<feBlend mode="normal" in="SourceGraphic" in2="effect1_dropShadow_1260_4784" result="shape"/>
</filter>
<filter id="filter10_d_1260_4784" x="453.27" y="139.988" width="31.375" height="62.875" filterUnits="userSpaceOnUse" color-interpolation-filters="sRGB">
<feFlood flood-opacity="0" result="BackgroundImageFix"/>
<feColorMatrix in="SourceAlpha" type="matrix" values="0 0 0 0 0 0 0 0 0 0 0 0 0 0 0 0 0 0 127 0" result="hardAlpha"/>
<feOffset dx="-2" dy="4"/>
<feGaussianBlur stdDeviation="3"/>
<feComposite in2="hardAlpha" operator="out"/>
<feColorMatrix type="matrix" values="0 0 0 0 0 0 0 0 0 0 0 0 0 0 0 0 0 0 0.25 0"/>
<feBlend mode="normal" in2="BackgroundImageFix" result="effect1_dropShadow_1260_4784"/>
<feBlend mode="normal" in="SourceGraphic" in2="effect1_dropShadow_1260_4784" result="shape"/>
</filter>
<filter id="filter11_d_1260_4784" x="415.65" y="140.293" width="31.252" height="62.7969" filterUnits="userSpaceOnUse" color-interpolation-filters="sRGB">
<feFlood flood-opacity="0" result="BackgroundImageFix"/>
<feColorMatrix in="SourceAlpha" type="matrix" values="0 0 0 0 0 0 0 0 0 0 0 0 0 0 0 0 0 0 127 0" result="hardAlpha"/>
<feOffset dx="-2" dy="4"/>
<feGaussianBlur stdDeviation="3"/>
<feComposite in2="hardAlpha" operator="out"/>
<feColorMatrix type="matrix" values="0 0 0 0 0 0 0 0 0 0 0 0 0 0 0 0 0 0 0.25 0"/>
<feBlend mode="normal" in2="BackgroundImageFix" result="effect1_dropShadow_1260_4784"/>
<feBlend mode="normal" in="SourceGraphic" in2="effect1_dropShadow_1260_4784" result="shape"/>
</filter>
<filter id="filter12_d_1260_4784" x="381.221" y="82.707" width="57.3594" height="50.0703" filterUnits="userSpaceOnUse" color-interpolation-filters="sRGB">
<feFlood flood-opacity="0" result="BackgroundImageFix"/>
<feColorMatrix in="SourceAlpha" type="matrix" values="0 0 0 0 0 0 0 0 0 0 0 0 0 0 0 0 0 0 127 0" result="hardAlpha"/>
<feOffset dx="-2" dy="4"/>
<feGaussianBlur stdDeviation="3"/>
<feComposite in2="hardAlpha" operator="out"/>
<feColorMatrix type="matrix" values="0 0 0 0 0 0 0 0 0 0 0 0 0 0 0 0 0 0 0.25 0"/>
<feBlend mode="normal" in2="BackgroundImageFix" result="effect1_dropShadow_1260_4784"/>
<feBlend mode="normal" in="SourceGraphic" in2="effect1_dropShadow_1260_4784" result="shape"/>
</filter>
<filter id="filter13_d_1260_4784" x="391.892" y="36.8742" width="138.521" height="145.107" filterUnits="userSpaceOnUse" color-interpolation-filters="sRGB">
<feFlood flood-opacity="0" result="BackgroundImageFix"/>
<feColorMatrix in="SourceAlpha" type="matrix" values="0 0 0 0 0 0 0 0 0 0 0 0 0 0 0 0 0 0 127 0" result="hardAlpha"/>
<feOffset dy="10"/>
<feGaussianBlur stdDeviation="5.35"/>
<feComposite in2="hardAlpha" operator="out"/>
<feColorMatrix type="matrix" values="0 0 0 0 0 0 0 0 0 0 0 0 0 0 0 0 0 0 0.25 0"/>
<feBlend mode="normal" in2="BackgroundImageFix" result="effect1_dropShadow_1260_4784"/>
<feBlend mode="normal" in="SourceGraphic" in2="effect1_dropShadow_1260_4784" result="shape"/>
</filter>
<filter id="filter14_d_1260_4784" x="80.1816" y="102.512" width="54.5098" height="52.2969" filterUnits="userSpaceOnUse" color-interpolation-filters="sRGB">
<feFlood flood-opacity="0" result="BackgroundImageFix"/>
<feColorMatrix in="SourceAlpha" type="matrix" values="0 0 0 0 0 0 0 0 0 0 0 0 0 0 0 0 0 0 127 0" result="hardAlpha"/>
<feOffset dx="-2" dy="4"/>
<feGaussianBlur stdDeviation="3"/>
<feComposite in2="hardAlpha" operator="out"/>
<feColorMatrix type="matrix" values="0 0 0 0 0 0 0 0 0 0 0 0 0 0 0 0 0 0 0.25 0"/>
<feBlend mode="normal" in2="BackgroundImageFix" result="effect1_dropShadow_1260_4784"/>
<feBlend mode="normal" in="SourceGraphic" in2="effect1_dropShadow_1260_4784" result="shape"/>
</filter>
<filter id="filter15_d_1260_4784" x="132.551" y="119.246" width="31.0586" height="62.168" filterUnits="userSpaceOnUse" color-interpolation-filters="sRGB">
<feFlood flood-opacity="0" result="BackgroundImageFix"/>
<feColorMatrix in="SourceAlpha" type="matrix" values="0 0 0 0 0 0 0 0 0 0 0 0 0 0 0 0 0 0 127 0" result="hardAlpha"/>
<feOffset dx="-2" dy="4"/>
<feGaussianBlur stdDeviation="3"/>
<feComposite in2="hardAlpha" operator="out"/>
<feColorMatrix type="matrix" values="0 0 0 0 0 0 0 0 0 0 0 0 0 0 0 0 0 0 0.25 0"/>
<feBlend mode="normal" in2="BackgroundImageFix" result="effect1_dropShadow_1260_4784"/>
<feBlend mode="normal" in="SourceGraphic" in2="effect1_dropShadow_1260_4784" result="shape"/>
</filter>
<filter id="filter16_d_1260_4784" x="170.039" y="119.246" width="31.0586" height="62.168" filterUnits="userSpaceOnUse" color-interpolation-filters="sRGB">
<feFlood flood-opacity="0" result="BackgroundImageFix"/>
<feColorMatrix in="SourceAlpha" type="matrix" values="0 0 0 0 0 0 0 0 0 0 0 0 0 0 0 0 0 0 127 0" result="hardAlpha"/>
<feOffset dx="-2" dy="4"/>
<feGaussianBlur stdDeviation="3"/>
<feComposite in2="hardAlpha" operator="out"/>
<feColorMatrix type="matrix" values="0 0 0 0 0 0 0 0 0 0 0 0 0 0 0 0 0 0 0.25 0"/>
<feBlend mode="normal" in2="BackgroundImageFix" result="effect1_dropShadow_1260_4784"/>
<feBlend mode="normal" in="SourceGraphic" in2="effect1_dropShadow_1260_4784" result="shape"/>
</filter>
<filter id="filter17_d_1260_4784" x="92.4234" y="30.9391" width="132.552" height="139.165" filterUnits="userSpaceOnUse" color-interpolation-filters="sRGB">
<feFlood flood-opacity="0" result="BackgroundImageFix"/>
<feColorMatrix in="SourceAlpha" type="matrix" values="0 0 0 0 0 0 0 0 0 0 0 0 0 0 0 0 0 0 127 0" result="hardAlpha"/>
<feOffset dx="-7" dy="6"/>
<feGaussianBlur stdDeviation="4.3"/>
<feComposite in2="hardAlpha" operator="out"/>
<feColorMatrix type="matrix" values="0 0 0 0 0 0 0 0 0 0 0 0 0 0 0 0 0 0 0.25 0"/>
<feBlend mode="normal" in2="BackgroundImageFix" result="effect1_dropShadow_1260_4784"/>
<feBlend mode="normal" in="SourceGraphic" in2="effect1_dropShadow_1260_4784" result="shape"/>
</filter>
<filter id="filter18_d_1260_4784" x="195.619" y="111.496" width="62.4922" height="35.2227" filterUnits="userSpaceOnUse" color-interpolation-filters="sRGB">
<feFlood flood-opacity="0" result="BackgroundImageFix"/>
<feColorMatrix in="SourceAlpha" type="matrix" values="0 0 0 0 0 0 0 0 0 0 0 0 0 0 0 0 0 0 127 0" result="hardAlpha"/>
<feOffset dx="-2" dy="4"/>
<feGaussianBlur stdDeviation="3"/>
<feComposite in2="hardAlpha" operator="out"/>
<feColorMatrix type="matrix" values="0 0 0 0 0 0 0 0 0 0 0 0 0 0 0 0 0 0 0.25 0"/>
<feBlend mode="normal" in2="BackgroundImageFix" result="effect1_dropShadow_1260_4784"/>
<feBlend mode="normal" in="SourceGraphic" in2="effect1_dropShadow_1260_4784" result="shape"/>
</filter>
<linearGradient id="paint0_linear_1260_4784" x1="377.087" y1="18.7422" x2="375.552" y2="198.15" gradientUnits="userSpaceOnUse">
<stop offset="0.0164957" stop-opacity="0"/>
<stop offset="0.78218" stop-opacity="0.8"/>
</linearGradient>
<radialGradient id="paint1_radial_1260_4784" cx="0" cy="0" r="1" gradientUnits="userSpaceOnUse" gradientTransform="translate(598.422 98.8494) rotate(129.342) scale(49.6553 65.0916)">
<stop stop-color="#D28078" stop-opacity="0"/>
<stop offset="1" stop-color="#DE2210"/>
</radialGradient>
<radialGradient id="paint2_radial_1260_4784" cx="0" cy="0" r="1" gradientUnits="userSpaceOnUse" gradientTransform="translate(639.063 57.2011) rotate(113.19) scale(17.3988 43.1003)">
<stop offset="0.33" stop-opacity="0"/>
<stop offset="0.655" stop-opacity="0.6"/>
<stop offset="1"/>
</radialGradient>
<radialGradient id="paint3_radial_1260_4784" cx="0" cy="0" r="1" gradientUnits="userSpaceOnUse" gradientTransform="translate(563.926 62.8894) rotate(65.3753) scale(15.9496 42.5712)">
<stop offset="0.33" stop-opacity="0"/>
<stop offset="0.655" stop-opacity="0.6"/>
<stop offset="1"/>
</radialGradient>
<linearGradient id="paint4_linear_1260_4784" x1="314.779" y1="0.143697" x2="315.078" y2="157.351" gradientUnits="userSpaceOnUse">
<stop stop-color="#2189D6" stop-opacity="0"/>
<stop offset="1" stop-color="#266798" stop-opacity="0.7"/>
</linearGradient>
<linearGradient id="paint5_linear_1260_4784" x1="471.177" y1="37.6298" x2="447.363" y2="154.802" gradientUnits="userSpaceOnUse">
<stop offset="0.235" stop-color="#F498C1" stop-opacity="0"/>
<stop offset="1" stop-color="#E285AE"/>
</linearGradient>
</defs>
</svg>
