<svg width="200" height="90" viewBox="0 0 200 90" fill="none" xmlns="http://www.w3.org/2000/svg">
<g clip-path="url(#clip0_1260_4409)">
<rect width="200" height="90" fill="#FEB79D"/>
<path fill-rule="evenodd" clip-rule="evenodd" d="M-6.18027 85.5257C-5.5206 81.3514 -9.94765 77.2571 -7.65473 73.2393C-4.94813 68.4966 -1.65241 61.9915 7.77154 61.0783C17.9972 60.0873 23.5998 68.8258 33.9785 69.2048C45.8176 69.6371 56.5881 60.196 66.8872 63.2371C76.2425 65.9996 70.121 74.0119 68.9752 79.5387C68.1676 83.4341 61.5364 86.4306 61.2669 90.3457C60.8502 96.3973 75.7689 103.853 67.0229 107.895C58.3557 111.9 45.7383 103.802 34.2527 102.83C27.3162 102.243 20.5655 103.925 13.6182 103.373C4.65786 102.66 -7.2514 103.227 -11.7526 99.1698C-16.3208 95.0519 -6.92748 90.2539 -6.18027 85.5257Z" fill="#FE585B"/>
<path fill-rule="evenodd" clip-rule="evenodd" d="M28.4743 10.5302C32.6486 10.8717 36.7429 8.58004 40.7607 9.76696C45.5034 11.168 52.0085 12.874 52.9217 17.7523C53.9127 23.0456 45.1742 25.9458 44.7952 31.3183C44.3629 37.4467 53.804 43.0221 50.7629 48.3534C48.0004 53.1961 39.9881 50.0274 34.4613 49.4342C30.5659 49.0162 27.5694 45.5836 23.6543 45.444C17.6027 45.2284 10.1469 52.9509 6.10508 48.4236C2.09968 43.9371 10.1975 37.4057 11.1701 31.4602C11.7575 27.8695 10.0747 24.3751 10.6274 20.7788C11.3402 16.1405 10.7727 9.97575 14.8302 7.64571C18.9481 5.281 23.7461 10.1434 28.4743 10.5302Z" fill="#FC7443"/>
<path fill-rule="evenodd" clip-rule="evenodd" d="M173.474 4.53021C177.649 4.87169 181.743 2.58004 185.761 3.76696C190.503 5.16803 197.008 6.87405 197.922 11.7523C198.913 17.0456 190.174 19.9458 189.795 25.3183C189.363 31.4467 198.804 37.0221 195.763 42.3534C193 47.1961 184.988 44.0274 179.461 43.4342C175.566 43.0162 172.569 39.5836 168.654 39.444C162.603 39.2284 155.147 46.9509 151.105 42.4236C147.1 37.9371 155.198 31.4057 156.17 25.4602C156.757 21.8695 155.075 18.3751 155.627 14.7788C156.34 10.1405 155.773 3.97575 159.83 1.64571C163.948 -0.719004 168.746 4.14342 173.474 4.53021Z" fill="#FF8787"/>
<path fill-rule="evenodd" clip-rule="evenodd" d="M117.063 7.20494C131.49 7.9797 144.155 11.9054 154.996 17.5775C166.733 23.7188 176.896 30.8598 179.688 39.9711C183.097 51.0949 184.354 63.7453 171.749 72.2549C158.691 81.0707 136.857 81.4742 117.063 82.2497C95.2362 83.1048 71.8992 84.7511 54.6033 76.8446C35.6156 68.1646 20.8565 53.9771 24.5773 39.9711C28.0889 26.7526 52.1053 19.9805 71.5388 13.0955C85.3864 8.18958 100.98 6.34119 117.063 7.20494Z" fill="#FFAB7A"/>
<ellipse cx="177.989" cy="70.7269" rx="16.7876" ry="14.0511" fill="#F55A57"/>
<ellipse cx="173.713" cy="65.6395" rx="1.21537" ry="2.15126" fill="black"/>
<ellipse cx="182.288" cy="65.6395" rx="1.21537" ry="2.15126" fill="black"/>
<path d="M173.043 72.6445C173.079 74.5722 175.312 76.0937 178.031 76.0428C180.749 75.9919 182.924 74.388 182.888 72.4603C182.852 70.5326 180.67 71.7825 177.952 71.8334C175.233 71.8843 173.007 70.7168 173.043 72.6445Z" fill="black"/>
<path d="M170.798 50.9035C173.679 48.6452 180.102 51.1915 180.102 55.0219C180.103 59.542 168.088 61.6232 165.803 61.9782C165.554 62.0169 165.305 62.044 165.056 62.039C163.427 62.0062 157.617 61.2375 170.798 50.9035Z" fill="#6E5232"/>
<path d="M170.798 50.9035C173.679 48.6452 180.102 51.1915 180.102 55.0219C180.103 59.542 168.088 61.6232 165.803 61.9782C165.554 62.0169 165.305 62.044 165.056 62.039C163.427 62.0062 157.617 61.2375 170.798 50.9035Z" fill="url(#paint0_radial_1260_4409)" fill-opacity="0.15"/>
<path d="M185.204 50.7629C182.323 48.5045 175.9 51.0509 175.9 54.8813C175.899 59.4014 187.914 61.4825 190.199 61.8375C190.448 61.8763 190.697 61.9034 190.946 61.8984C192.575 61.8656 198.385 61.0968 185.204 50.7629Z" fill="#6E5232"/>
<path d="M185.204 50.7629C182.323 48.5045 175.9 51.0509 175.9 54.8813C175.899 59.4014 187.914 61.4825 190.199 61.8375C190.448 61.8763 190.697 61.9034 190.946 61.8984C192.575 61.8656 198.385 61.0968 185.204 50.7629Z" fill="url(#paint1_radial_1260_4409)" fill-opacity="0.15"/>
<path d="M79.5688 37.1784C79.1156 37.2201 78.8584 37.0577 78.797 36.6912C78.7697 36.518 78.8091 36.3645 78.9153 36.2308C79.0282 36.097 79.1879 36.0231 79.3945 36.009C80.0476 35.9533 80.6906 35.8542 81.3234 35.7119C81.9629 35.5695 82.5656 35.3939 83.1315 35.1852C83.0645 35.1054 82.9942 35.0223 82.9205 34.9359C82.8469 34.8496 82.79 34.7831 82.7498 34.7366C82.5824 34.5439 82.5517 34.344 82.6576 34.1369C82.0853 34.419 81.5161 34.6478 80.9501 34.8232C80.7437 34.8907 80.5604 34.8914 80.4001 34.8253C80.2465 34.7525 80.1394 34.6296 80.0787 34.4565C80.0181 34.2834 80.0342 34.1266 80.127 33.9863C80.2265 33.8393 80.3728 33.7387 80.5659 33.6847C80.9189 33.59 81.2917 33.4586 81.6844 33.2905C82.0771 33.1157 82.4664 32.9209 82.8523 32.7062C83.2381 32.4848 83.5973 32.2568 83.9298 32.0222C84.2689 31.7809 84.5513 31.5432 84.7771 31.309C84.9299 31.1551 85.0896 31.0779 85.2563 31.0773C85.4296 31.0766 85.5765 31.1327 85.6969 31.2456C85.8173 31.3652 85.8745 31.5016 85.8684 31.655C85.869 31.8083 85.8128 31.9419 85.6999 32.0556C85.5737 32.1828 85.4408 32.3066 85.3013 32.4271L86.0213 32.4244C86.3479 32.4232 86.6115 32.4822 86.8119 32.6015C87.0123 32.7141 87.1462 32.8636 87.2136 33.05C87.2876 33.2364 87.2917 33.4397 87.2258 33.66C87.1666 33.8735 87.0374 34.0807 86.8381 34.2814C86.4596 34.6695 86.0042 35.0245 85.4721 35.3465C84.9399 35.6685 84.3543 35.954 83.7152 36.203C83.0828 36.452 82.4136 36.6578 81.7075 36.8205C81.0081 36.9897 80.2952 37.109 79.5688 37.1784ZM79.3454 33.5592C79.1523 33.6066 78.9789 33.5972 78.8253 33.5311C78.6717 33.465 78.568 33.3454 78.514 33.1723C78.4667 33.0058 78.4861 32.8557 78.5723 32.722C78.6585 32.5817 78.8014 32.4879 79.0013 32.4405C79.5142 32.3252 80.0136 32.1767 80.4996 31.9949C80.9923 31.8131 81.4549 31.6147 81.8874 31.3998L81.4859 31.0012C81.312 30.8285 81.2579 30.6421 81.3239 30.4418C81.0978 30.5893 80.8683 30.7302 80.6354 30.8644C80.4092 30.9919 80.183 31.1127 79.9568 31.2269C79.7704 31.3143 79.5905 31.3416 79.4171 31.3089C79.2503 31.2762 79.13 31.19 79.0561 31.0502C78.9689 30.8972 78.955 30.7439 79.0144 30.5904C79.0738 30.4302 79.1867 30.3131 79.3531 30.2391C79.7857 30.0375 80.2215 29.7959 80.6604 29.5143C81.0994 29.2327 81.5083 28.9345 81.8871 28.6197C82.2726 28.305 82.5949 28.0104 82.8539 27.7361C82.9867 27.6023 83.1331 27.5318 83.2931 27.5245C83.4597 27.5106 83.6032 27.5567 83.7236 27.6629C83.8373 27.7692 83.8978 27.8956 83.905 28.0422C83.9189 28.1889 83.8727 28.319 83.7664 28.4328C83.7465 28.4595 83.7233 28.4863 83.6967 28.513C83.6768 28.5331 83.6569 28.5532 83.637 28.5732L84.487 28.5701C84.867 28.5687 85.1573 28.6609 85.358 28.8469C85.5653 29.0261 85.6595 29.2558 85.6405 29.5358C85.6216 29.8159 85.466 30.0998 85.1737 30.3876C84.4763 31.0768 83.6419 31.6932 82.6705 32.2369C81.7059 32.7738 80.5975 33.2145 79.3454 33.5592ZM84.3994 34.6305C84.6523 34.4962 84.8851 34.362 85.0979 34.2279C85.3174 34.0871 85.5102 33.943 85.6763 33.7957C85.8092 33.6752 85.8622 33.5784 85.8353 33.5051C85.8083 33.4319 85.7082 33.3956 85.5349 33.3962L83.9749 33.402C83.8884 33.4557 83.7986 33.5127 83.7055 33.573C83.6124 33.6267 83.5192 33.6804 83.4261 33.7341C83.5662 33.7535 83.6898 33.8231 83.7969 33.9427C83.8638 34.0224 83.9576 34.1321 84.0781 34.2717C84.2052 34.4045 84.3124 34.5241 84.3994 34.6305ZM83.0749 30.7153C83.4939 30.4338 83.8561 30.1491 84.1617 29.8613C84.288 29.7408 84.3376 29.6473 84.3107 29.5808C84.2838 29.5075 84.1836 29.4712 84.0103 29.4719L82.6603 29.4769C82.5672 29.5506 82.4675 29.6276 82.3612 29.708C82.2615 29.7884 82.1584 29.8654 82.052 29.9391C82.1987 29.9453 82.3323 30.0048 82.4527 30.1176C82.5263 30.184 82.6233 30.277 82.7437 30.3966C82.8708 30.5161 82.9812 30.6224 83.0749 30.7153ZM94.5684 37.0328C94.4151 37.0334 94.2815 36.9805 94.1678 36.8743C94.0608 36.7747 94.0069 36.6415 94.0063 36.4749L94.0005 34.9049C93.7349 35.1925 93.4326 35.477 93.0937 35.7582C92.7614 36.0395 92.4389 36.284 92.1264 36.4918C91.98 36.579 91.8302 36.6163 91.6768 36.6035C91.5234 36.5974 91.4032 36.5312 91.316 36.4048C91.229 36.2918 91.1952 36.1653 91.2146 36.0252C91.2408 35.8784 91.3137 35.7682 91.4334 35.6944C91.6596 35.5602 91.8923 35.4027 92.1317 35.2218C92.3776 35.0342 92.6103 34.8434 92.8295 34.6492C93.0555 34.4484 93.2514 34.261 93.4175 34.087L92.0975 34.0919C91.9575 34.0924 91.8373 34.0462 91.737 33.9533C91.6433 33.8536 91.5961 33.7338 91.5956 33.5938C91.5951 33.4604 91.6414 33.3469 91.7344 33.2533C91.834 33.1529 91.9538 33.1025 92.0938 33.1019L93.9938 33.0949L93.9916 32.5049C93.6182 32.4796 93.3313 32.4173 93.1309 32.3181C92.9305 32.2188 92.7933 32.0727 92.7193 31.8796C92.6452 31.6799 92.6076 31.4233 92.6064 31.11L92.6009 29.61L92.0509 29.6121C91.9242 29.6125 91.8107 29.5663 91.7104 29.4733C91.6167 29.3803 91.5696 29.2672 91.5691 29.1338C91.5686 29.0005 91.6148 28.887 91.7078 28.7933C91.8075 28.6996 91.9206 28.6525 92.0473 28.6521L92.5973 28.65L92.5958 28.23C92.5951 28.0567 92.648 27.9232 92.7543 27.8294C92.8606 27.7291 92.987 27.6786 93.1337 27.678C93.287 27.6775 93.4172 27.727 93.5243 27.8266C93.6313 27.9195 93.6851 28.0527 93.6857 28.226L93.6873 28.646L95.4073 28.6396L95.4058 28.2296C95.4051 28.0563 95.458 27.9194 95.5643 27.819C95.6772 27.7186 95.8104 27.6681 95.9637 27.6675C96.117 27.667 96.2472 27.7165 96.3542 27.8161C96.4679 27.9157 96.5251 28.0521 96.5258 28.2255L96.5273 28.6355L97.1173 28.6333C97.2506 28.6328 97.3641 28.679 97.4578 28.772C97.5515 28.865 97.5986 28.9782 97.5991 29.1115C97.5996 29.2448 97.5533 29.3583 97.4603 29.452C97.3673 29.5457 97.2542 29.5928 97.1208 29.5933L96.5308 29.5955L96.5364 31.0955C96.5376 31.4154 96.4986 31.6756 96.4193 31.8759C96.3467 32.0695 96.2072 32.2167 96.0009 32.3174C95.7946 32.4115 95.4982 32.4726 95.1116 32.5007L95.1138 33.0907L97.1838 33.0831C97.3171 33.0826 97.4306 33.1322 97.5243 33.2318C97.6247 33.3248 97.6751 33.4379 97.6756 33.5712C97.6761 33.7112 97.6266 33.8314 97.5269 33.9318C97.4339 34.0255 97.3208 34.0726 97.1874 34.0731L95.7575 34.0784C95.9114 34.2311 96.0886 34.3971 96.2893 34.5764C96.4966 34.749 96.7072 34.9182 96.9212 35.0841C97.1418 35.2432 97.349 35.3825 97.5427 35.5018C97.6697 35.5813 97.7468 35.701 97.7741 35.8609C97.8013 36.0141 97.7685 36.1509 97.6756 36.2713C97.5694 36.405 97.4364 36.4822 97.2765 36.5027C97.1232 36.5233 96.9797 36.4838 96.846 36.3843C96.5586 36.1721 96.2576 35.9265 95.9433 35.6477C95.6356 35.3688 95.3612 35.0898 95.1202 34.8107L95.1263 36.4707C95.1269 36.6374 95.0708 36.7709 94.9578 36.8713C94.8515 36.9784 94.7217 37.0322 94.5684 37.0328ZM88.7171 36.6845C88.5967 36.5783 88.5362 36.4518 88.5357 36.3051C88.5351 36.1585 88.588 36.0349 88.6943 35.9346C89.1792 35.4661 89.574 34.968 89.8788 34.4402C89.8387 34.4136 89.7986 34.3904 89.7585 34.3706C89.7251 34.3441 89.6883 34.3175 89.6482 34.291C89.3608 34.0921 89.1435 33.9129 88.9962 33.7534C88.8556 33.5873 88.7749 33.3976 88.7541 33.1843C88.7399 32.9644 88.7689 32.6809 88.8409 32.334C88.8934 32.1071 88.9392 31.8736 88.9783 31.6335C89.0241 31.3933 89.0699 31.1498 89.1156 30.903L88.6956 30.9045C88.5623 30.905 88.4455 30.8554 88.3451 30.7558C88.2514 30.6495 88.2042 30.5297 88.2038 30.3963C88.2033 30.263 88.2495 30.1462 88.3425 30.0458C88.4421 29.9388 88.5585 29.885 88.6919 29.8845L89.2719 29.8824C89.3108 29.5956 89.3464 29.3154 89.3787 29.042C89.4177 28.7685 89.4468 28.515 89.4659 28.2816C89.4853 28.1016 89.5481 27.9747 89.6545 27.9009C89.7676 27.8272 89.8975 27.7967 90.0442 27.8095C90.1909 27.8223 90.3111 27.8785 90.4048 27.9782C90.5052 28.0778 90.5424 28.2176 90.5164 28.3977C90.4905 28.6112 90.458 28.8446 90.419 29.0981C90.3799 29.3516 90.3409 29.6117 90.3018 29.8786C90.8485 29.8832 91.2323 29.9918 91.4531 30.2043C91.6805 30.4168 91.7786 30.8064 91.7474 31.3732C91.7227 31.9 91.6612 32.3902 91.5628 32.8439C91.4712 33.2909 91.3494 33.7114 91.1975 34.1053C91.3245 34.1915 91.4381 34.2744 91.5384 34.354C91.6454 34.4336 91.7357 34.5066 91.8093 34.573C91.943 34.6792 92.0068 34.8123 92.0007 34.9723C91.9946 35.1256 91.9352 35.2659 91.8223 35.393C91.7227 35.5 91.5962 35.5571 91.4429 35.5644C91.2963 35.5649 91.1661 35.5121 91.0523 35.4058C90.9988 35.3527 90.9419 35.2995 90.8817 35.2464C90.8215 35.1867 90.7647 35.1335 90.7112 35.0871C90.5521 35.3543 90.3764 35.615 90.1841 35.869C89.9917 36.1231 89.7792 36.3705 89.5468 36.6114C89.4406 36.7318 89.3075 36.799 89.1475 36.8129C88.9876 36.8335 88.8441 36.7907 88.7171 36.6845ZM90.3153 33.4985C90.4274 33.1781 90.5162 32.8444 90.5816 32.4975C90.6469 32.1506 90.6922 31.7838 90.7175 31.397C90.73 31.1903 90.6996 31.0571 90.626 30.9974C90.5591 30.9309 90.4156 30.8981 90.1956 30.899L90.1356 30.8992C90.0834 31.206 90.0312 31.5029 89.9789 31.7898C89.9267 32.0766 89.8776 32.3301 89.8317 32.5503C89.799 32.7171 89.7862 32.8505 89.7932 32.9505C89.8002 33.0438 89.8372 33.127 89.9042 33.2C89.9777 33.2664 90.088 33.3494 90.2351 33.4488L90.3153 33.4985ZM93.6929 30.156L95.4129 30.1496L95.4109 29.5996L93.6909 29.606L93.6929 30.156ZM94.5581 31.5628C94.8115 31.5618 94.9981 31.5512 95.118 31.5307C95.2446 31.5036 95.3244 31.4533 95.3574 31.3798C95.3972 31.2997 95.4167 31.1863 95.4162 31.0396L95.4161 31.0096L93.6961 31.016L93.6962 31.046C93.6967 31.1926 93.7138 31.3059 93.7475 31.3858C93.7877 31.459 93.8679 31.5087 93.988 31.5349C94.1148 31.5544 94.3048 31.5637 94.5581 31.5628ZM99.4382 36.9747C99.3115 36.9752 99.2014 36.9323 99.1077 36.846C99.0141 36.7663 98.967 36.6531 98.9665 36.5065L98.9527 32.7965C98.9523 32.6832 98.9619 32.5831 98.9816 32.4964C98.955 32.5032 98.9283 32.5099 98.9017 32.5167C98.8817 32.5168 98.8584 32.5169 98.8317 32.517C98.705 32.5174 98.5949 32.4778 98.5012 32.3982C98.4076 32.3119 98.3605 32.1954 98.3599 32.0487L98.3575 31.3987C98.3566 31.1454 98.3959 30.9519 98.4754 30.8183C98.5616 30.6846 98.7012 30.5941 98.8944 30.5467L98.8885 28.9567C98.887 28.5634 98.9693 28.2864 99.1354 28.1258C99.3015 27.9585 99.5778 27.8742 99.9645 27.8727L100.954 27.8691C101.348 27.8676 101.625 27.9499 101.785 28.116C101.946 28.2754 102.027 28.5517 102.028 28.9451L102.034 30.5551C102.208 30.6011 102.332 30.6906 102.405 30.8237C102.486 30.9567 102.527 31.1432 102.528 31.3832L102.53 32.0332C102.53 32.1799 102.484 32.2967 102.391 32.3838C102.298 32.4641 102.185 32.5045 102.052 32.505C102.025 32.5051 102.002 32.5052 101.982 32.5053C101.962 32.4987 101.938 32.4921 101.912 32.4855C101.925 32.5322 101.932 32.5821 101.932 32.6355C101.932 32.6821 101.933 32.7321 101.933 32.7855L101.944 35.8854C101.945 36.2254 101.866 36.4824 101.707 36.6563C101.548 36.8302 101.295 36.9245 100.948 36.9391C100.801 36.9463 100.675 36.9135 100.568 36.8405C100.467 36.7676 100.407 36.6645 100.387 36.5312C100.366 36.4046 100.386 36.2912 100.445 36.191C100.512 36.0908 100.605 36.0304 100.725 36.01C100.845 35.9962 100.924 35.9659 100.964 35.9191C101.004 35.8723 101.024 35.7889 101.023 35.6689L101.021 35.0289L99.891 35.033L99.8965 36.503C99.897 36.6497 99.8541 36.7632 99.7677 36.8435C99.6814 36.9305 99.5715 36.9742 99.4382 36.9747ZM102.837 36.7521C102.711 36.7526 102.611 36.7096 102.537 36.6232C102.463 36.5435 102.426 36.447 102.426 36.3337C102.425 36.2203 102.462 36.1235 102.535 36.0433C102.608 35.9563 102.708 35.9126 102.834 35.9121L103.904 35.9082C103.871 35.815 103.834 35.7218 103.793 35.6286C103.76 35.5354 103.729 35.4622 103.702 35.4089C103.669 35.3157 103.665 35.2257 103.691 35.139C103.724 35.0455 103.781 34.9753 103.861 34.9283C103.594 34.896 103.404 34.8067 103.29 34.6604C103.176 34.5075 103.118 34.2744 103.117 33.9611C103.116 33.5944 103.191 33.3375 103.344 33.1902C103.504 33.043 103.767 32.9687 104.133 32.9673L106.073 32.9601C106.44 32.9588 106.7 33.0311 106.854 33.1772C107.015 33.3233 107.096 33.5797 107.097 33.9463C107.098 34.2597 107.042 34.4932 106.93 34.647C106.817 34.794 106.631 34.8847 106.371 34.919C106.431 34.9721 106.474 35.0386 106.501 35.1185C106.528 35.1918 106.525 35.2751 106.492 35.3686C106.479 35.4153 106.453 35.4887 106.413 35.5889C106.373 35.689 106.334 35.7925 106.294 35.8993L107.314 35.8955C107.448 35.895 107.548 35.938 107.615 36.0244C107.688 36.1042 107.725 36.2007 107.726 36.314C107.726 36.4273 107.69 36.5241 107.617 36.6044C107.551 36.6913 107.451 36.735 107.317 36.7355L102.837 36.7521ZM104.118 31.4574C103.631 31.4592 103.291 31.3704 103.097 31.1911C102.909 31.0118 102.815 30.6888 102.813 30.2222L102.811 29.6922C102.81 29.2322 102.902 28.9118 103.088 28.7312C103.28 28.5504 103.613 28.4592 104.087 28.4574L104.085 27.9075C104.084 27.7875 104.121 27.6973 104.194 27.637C104.267 27.5701 104.357 27.5364 104.463 27.536C104.563 27.5357 104.65 27.5687 104.724 27.6351C104.797 27.6948 104.834 27.7847 104.835 27.9047L104.837 28.4447L105.287 28.443L105.285 27.903C105.284 27.783 105.321 27.6929 105.394 27.6326C105.467 27.5657 105.553 27.532 105.653 27.5316C105.76 27.5312 105.85 27.5642 105.924 27.6306C105.997 27.6904 106.034 27.7802 106.035 27.9002L106.037 28.4402C106.523 28.4451 106.86 28.5372 107.048 28.7165C107.242 28.8891 107.339 29.2087 107.341 29.6754L107.343 30.2054C107.345 30.6721 107.249 30.9957 107.057 31.1765C106.871 31.3571 106.531 31.4484 106.038 31.4502L104.118 31.4574ZM102.962 32.6316C102.835 32.6321 102.735 32.5925 102.662 32.5128C102.588 32.4264 102.551 32.3265 102.551 32.2132C102.55 32.0998 102.586 32.003 102.66 31.9228C102.733 31.8358 102.832 31.7921 102.959 31.7917L107.189 31.776C107.322 31.7755 107.426 31.8184 107.499 31.9048C107.573 31.9845 107.61 32.0811 107.611 32.1944C107.611 32.3077 107.575 32.4079 107.502 32.4948C107.429 32.5751 107.325 32.6155 107.192 32.616L102.962 32.6316ZM104.428 34.2662L105.788 34.2612C105.902 34.2608 105.981 34.2405 106.028 34.2003C106.081 34.1601 106.108 34.0767 106.107 33.95C106.107 33.8167 106.08 33.7334 106.026 33.7003C105.979 33.6605 105.899 33.6408 105.786 33.6412L104.426 33.6462C104.306 33.6467 104.223 33.667 104.176 33.7072C104.13 33.7407 104.107 33.8241 104.107 33.9574C104.108 34.0841 104.131 34.1673 104.178 34.2071C104.225 34.247 104.308 34.2667 104.428 34.2662ZM99.7142 30.5037L100.094 30.5023L100.092 29.9423C100.091 29.6223 100.15 29.4054 100.27 29.2916C100.396 29.1711 100.619 29.1103 100.939 29.1091L101.199 29.1082C101.198 28.9348 101.165 28.8249 101.098 28.7785C101.038 28.7254 100.918 28.6992 100.738 28.6999L100.178 28.7019C99.9909 28.7026 99.8643 28.7331 99.7979 28.7933C99.7381 28.8469 99.7085 28.9703 99.7093 29.1637L99.7142 30.5037ZM99.2996 31.9552C99.3861 31.9016 99.4893 31.8645 99.6092 31.8441C99.7291 31.817 99.8657 31.8031 100.019 31.8025L100.869 31.7994C101.022 31.7988 101.159 31.8117 101.279 31.8379C101.399 31.8574 101.503 31.8937 101.59 31.9467L101.589 31.7267C101.588 31.5467 101.561 31.4368 101.508 31.397C101.454 31.3506 101.334 31.3277 101.147 31.3284L99.7473 31.3336C99.5606 31.3342 99.4374 31.358 99.3776 31.4049C99.3244 31.4518 99.2982 31.5686 99.2989 31.7552L99.2996 31.9552ZM104.814 35.9048L105.344 35.9028C105.384 35.7894 105.43 35.6525 105.483 35.4923C105.535 35.3255 105.575 35.1986 105.601 35.1119C105.615 35.0785 105.628 35.0484 105.641 35.0217C105.661 34.9883 105.684 34.9616 105.711 34.9415L104.441 34.9462C104.501 34.9993 104.548 35.0658 104.581 35.1457C104.615 35.2255 104.652 35.3254 104.693 35.4452C104.733 35.5651 104.767 35.6716 104.794 35.7649C104.807 35.7915 104.814 35.8148 104.814 35.8348C104.814 35.8548 104.814 35.8781 104.814 35.9048ZM99.8884 34.323L101.018 34.3189L101.016 33.7989L99.8865 33.8031L99.8884 34.323ZM99.8838 33.0931L101.014 33.0889L101.013 32.9689C101.013 32.7955 100.986 32.689 100.932 32.6492C100.885 32.6093 100.779 32.5897 100.612 32.5904L100.282 32.5916C100.122 32.5922 100.015 32.6126 99.9622 32.6528C99.909 32.693 99.8827 32.7997 99.8834 32.9731L99.8838 33.0931ZM100.794 30.4997L101.214 30.4981L101.212 29.7781L101.052 29.7787C100.952 29.7791 100.882 29.7993 100.842 29.8395C100.809 29.8729 100.792 29.9397 100.793 30.0397L100.794 30.4997ZM104.845 30.7547L105.295 30.753L105.293 30.263L104.843 30.2647L104.845 30.7547ZM104.841 29.6247L105.291 29.623L105.289 29.143L104.839 29.1447L104.841 29.6247ZM106.045 30.7502C106.239 30.7495 106.365 30.719 106.425 30.6588C106.485 30.5919 106.514 30.4618 106.513 30.2685L106.513 30.2585L106.043 30.2602L106.045 30.7502ZM106.041 29.6202L106.511 29.6185C106.504 29.4252 106.47 29.2986 106.41 29.2388C106.349 29.1791 106.226 29.1462 106.039 29.1402L106.041 29.6202ZM104.095 30.7574L104.093 30.2674L103.643 30.2691L103.643 30.2791C103.644 30.4658 103.675 30.5923 103.735 30.6588C103.795 30.7185 103.915 30.7514 104.095 30.7574ZM103.641 29.6291L104.091 29.6274L104.089 29.1474C103.909 29.1548 103.789 29.1886 103.73 29.2488C103.676 29.309 103.647 29.4358 103.641 29.6291ZM108.962 29.8294L116.472 29.8016L116.476 30.9815L110.186 31.0049L110.208 36.9948L108.988 36.9993L108.962 29.8294ZM115.852 29.8038L117.072 29.7993L117.093 35.5693C117.095 36.2093 116.977 36.5597 116.548 36.7513C116.118 36.9429 115.488 36.9652 114.618 36.9685C114.577 36.6186 114.385 36.0793 114.214 35.75C114.764 35.7779 115.444 35.7754 115.634 35.7647C115.814 35.764 115.874 35.7038 115.873 35.5538L115.852 29.8038ZM110.755 28.0027L112.995 27.9944L112.999 29.0444L110.759 29.0527L110.755 28.0027ZM112.215 27.9973L113.495 27.9926C113.595 30.5622 114.172 32.6701 116.046 33.5732C115.787 33.8141 115.378 34.3056 115.19 34.6263C113.215 33.4636 112.547 31.1761 112.407 28.5366L112.217 28.5373L112.215 27.9973ZM112.313 30.097L113.414 30.2829C113.081 32.3841 112.317 33.867 110.75 34.7128C110.589 34.4334 110.197 33.9448 109.956 33.7457C111.324 33.0907 112.069 31.8179 112.313 30.097ZM122.398 36.8796C121.898 36.8815 121.498 36.8296 121.197 36.7241C120.897 36.6252 120.68 36.4493 120.545 36.1965C120.411 35.9437 120.343 35.5939 120.342 35.1472C120.34 34.7006 120.405 34.3503 120.538 34.0965C120.67 33.8427 120.886 33.6652 121.186 33.5641C121.485 33.4563 121.885 33.4015 122.385 33.3997L123.665 33.3949C124.165 33.3931 124.565 33.4449 124.866 33.5505C125.166 33.6494 125.383 33.8252 125.518 34.0781C125.652 34.3309 125.72 34.6806 125.722 35.1273C125.723 35.574 125.658 35.9242 125.525 36.178C125.393 36.4319 125.177 36.6093 124.877 36.7104C124.578 36.8182 124.178 36.873 123.678 36.8749L122.398 36.8796ZM119.186 30.9315C119.026 30.9321 118.889 30.8826 118.775 30.783C118.668 30.6834 118.615 30.5469 118.614 30.3736L118.613 30.0536C118.611 29.5336 118.733 29.1665 118.979 28.9523C119.231 28.7313 119.661 28.6197 120.267 28.6175L122.337 28.6098L122.335 28.0198C122.334 27.8265 122.394 27.6796 122.514 27.5791C122.64 27.4787 122.786 27.4281 122.953 27.4275C123.126 27.4269 123.273 27.4763 123.394 27.5759C123.521 27.6754 123.584 27.8218 123.585 28.0152L123.587 28.6052L125.727 28.5972C126.334 28.595 126.761 28.7034 127.009 28.9225C127.263 29.1349 127.391 29.5011 127.393 30.0211L127.394 30.3411C127.394 30.5144 127.338 30.6513 127.225 30.7517C127.112 30.8521 126.976 30.9026 126.816 30.9032C126.656 30.9038 126.519 30.8577 126.405 30.7647C126.292 30.6718 126.235 30.5387 126.234 30.3654L126.233 30.0954C126.232 29.9087 126.185 29.7755 126.091 29.6959C126.004 29.6162 125.838 29.5768 125.591 29.5777L120.411 29.5969C120.164 29.5979 119.994 29.6385 119.901 29.7188C119.808 29.7992 119.762 29.9327 119.763 30.1194L119.764 30.3894C119.765 30.5627 119.708 30.6962 119.595 30.79C119.482 30.8837 119.346 30.9309 119.186 30.9315ZM119.19 34.6915C119.024 34.7855 118.86 34.8161 118.7 34.7833C118.54 34.7506 118.413 34.6577 118.319 34.5047C118.232 34.3517 118.215 34.2051 118.268 34.0649C118.32 33.9247 118.43 33.811 118.596 33.7237C118.976 33.529 119.365 33.3042 119.764 33.0494C120.163 32.7879 120.552 32.5164 120.931 32.235C121.316 31.9469 121.665 31.6656 121.978 31.3912C122.297 31.1033 122.616 30.9588 122.936 30.9576C123.263 30.9564 123.59 31.0852 123.918 31.344C124.225 31.5828 124.569 31.8316 124.95 32.0901C125.338 32.3487 125.742 32.5972 126.163 32.8357C126.584 33.0741 126.995 33.2892 127.395 33.4811C127.549 33.5539 127.659 33.6668 127.727 33.8199C127.794 33.9663 127.784 34.1196 127.698 34.28C127.612 34.447 127.479 34.5574 127.3 34.6114C127.126 34.6588 126.95 34.6361 126.769 34.5434C126.395 34.3381 126.004 34.1096 125.597 33.8578C125.189 33.6059 124.795 33.3474 124.414 33.0821C124.04 32.8102 123.702 32.5481 123.401 32.2959C123.247 32.1631 123.107 32.1003 122.98 32.1074C122.86 32.1079 122.724 32.1751 122.571 32.309C122.272 32.5634 121.933 32.8347 121.554 33.1227C121.182 33.4041 120.793 33.6822 120.387 33.9571C119.981 34.2252 119.582 34.4701 119.19 34.6915ZM122.394 35.8196L123.674 35.8149C124.034 35.8136 124.267 35.766 124.374 35.6723C124.487 35.5786 124.543 35.3983 124.542 35.1317C124.541 34.8583 124.483 34.6786 124.37 34.5923C124.263 34.4994 124.029 34.4536 123.669 34.4549L122.389 34.4597C122.022 34.461 121.783 34.5086 121.67 34.6023C121.563 34.6894 121.511 34.8696 121.512 35.1429C121.513 35.4096 121.567 35.5894 121.674 35.6823C121.787 35.7752 122.027 35.821 122.394 35.8196ZM120.25 32.0176C120.104 32.1114 119.947 32.1554 119.78 32.1493C119.62 32.1432 119.483 32.0637 119.37 31.9108C119.289 31.7978 119.259 31.6679 119.278 31.5212C119.304 31.3677 119.384 31.2474 119.517 31.1603C119.789 30.9859 120.069 30.7849 120.355 30.5572C120.647 30.3294 120.896 30.1152 121.102 29.9144C121.215 29.794 121.348 29.7335 121.502 29.7329C121.662 29.7323 121.798 29.7885 121.912 29.9014C122.026 30.0076 122.08 30.1341 122.074 30.2808C122.067 30.4208 122.011 30.5477 121.905 30.6614C121.659 30.9157 121.397 31.1566 121.118 31.3843C120.845 31.612 120.556 31.8231 120.25 32.0176ZM125.68 31.8874C125.512 31.7814 125.322 31.6588 125.108 31.5196C124.894 31.3803 124.684 31.2378 124.477 31.0919C124.276 30.9393 124.102 30.8033 123.955 30.6838C123.835 30.5843 123.768 30.4612 123.754 30.3146C123.746 30.1679 123.793 30.0411 123.892 29.934C123.985 29.8204 124.105 29.7599 124.252 29.7527C124.405 29.7388 124.538 29.7783 124.652 29.8712C124.806 29.9907 124.983 30.12 125.184 30.2593C125.384 30.3919 125.584 30.5211 125.785 30.647C125.992 30.7663 126.182 30.8689 126.356 30.9549C126.49 31.0211 126.57 31.1275 126.597 31.274C126.631 31.4206 126.612 31.5606 126.539 31.6942C126.453 31.8479 126.326 31.9417 126.16 31.9757C125.993 32.0029 125.833 31.9735 125.68 31.8874Z" fill="#FE585B"/>
<path d="M64.2636 51.1301C64.0396 51.131 63.8473 51.0517 63.6867 50.8923C63.5261 50.7329 63.4454 50.5412 63.4446 50.3172C63.4437 50.0825 63.523 49.8849 63.6824 49.7243C63.8418 49.5637 64.0335 49.483 64.2575 49.4822L67.6335 49.4696C67.5582 49.3206 67.483 49.1715 67.4078 49.0225C67.3433 48.8734 67.2841 48.7403 67.2303 48.6231C67.1227 48.3782 67.1005 48.1276 67.1635 47.8714C67.2266 47.6151 67.3912 47.4279 67.6575 47.3095L65.2255 47.3185C65.0121 47.3193 64.8252 47.2454 64.6646 47.0966C64.5147 46.9372 64.4394 46.7508 64.4386 46.5375C64.4378 46.3241 64.5118 46.1425 64.6606 45.9926C64.82 45.832 65.0063 45.7513 65.2197 45.7506L69.9396 45.7331L69.9366 44.9171C69.9355 44.6077 70.0359 44.3567 70.2378 44.1639C70.4504 43.9712 70.7007 43.8742 70.9887 43.8732C71.2767 43.8721 71.5224 43.9672 71.7258 44.1584C71.9398 44.3496 72.0474 44.5999 72.0486 44.9092L72.0516 45.7252L76.7236 45.7079C76.9369 45.7071 77.1185 45.7865 77.2685 45.9459C77.429 46.0946 77.5097 46.2757 77.5105 46.489C77.5113 46.7023 77.432 46.8893 77.2726 47.0499C77.1238 47.1998 76.9427 47.2751 76.7294 47.2759L74.4414 47.2844C74.6872 47.4115 74.8372 47.5976 74.8915 47.8427C74.9457 48.0879 74.9199 48.328 74.8142 48.563C74.7613 48.6805 74.6978 48.8194 74.6237 48.9797C74.5496 49.1293 74.4755 49.2843 74.4014 49.4446L77.7134 49.4323C77.9481 49.4314 78.1457 49.5107 78.3063 49.6701C78.4669 49.8295 78.5476 50.0265 78.5485 50.2612C78.5493 50.4852 78.47 50.6775 78.3106 50.8381C78.1512 50.9987 77.9542 51.0794 77.7195 51.0803L64.2636 51.1301ZM69.7163 58.854C68.8416 58.8572 68.1533 58.7691 67.6513 58.5896C67.16 58.4208 66.8122 58.1234 66.608 57.6975C66.4144 57.2822 66.3163 56.7119 66.3136 55.9866L66.3093 54.8186C66.3066 54.0826 66.4004 53.5062 66.5909 53.0895C66.792 52.6728 67.1376 52.3782 67.6276 52.2057C68.1283 52.0225 68.8159 51.9293 69.6906 51.926L72.3626 51.9161C73.2479 51.9128 73.9309 52.001 74.4116 52.1805C74.9029 52.3494 75.2453 52.6414 75.4388 53.0567C75.643 53.472 75.7465 54.0476 75.7492 54.7836L75.7535 55.9516C75.7562 56.6769 75.657 57.248 75.4559 57.6647C75.2655 58.0921 74.9253 58.392 74.4352 58.5645C73.9559 58.7476 73.2736 58.8408 72.3882 58.8441L69.7163 58.854ZM69.7134 49.4619L72.3214 49.4523C72.4271 49.1959 72.5381 48.9128 72.6543 48.603C72.7705 48.2933 72.8761 48.0049 72.9711 47.7378C73.0451 47.5562 73.1672 47.4064 73.3374 47.2885L68.6494 47.3059C68.8418 47.4118 68.9757 47.566 69.0512 47.7684C69.1481 48.0133 69.2558 48.2956 69.3743 48.6152C69.5035 48.9347 69.6165 49.217 69.7134 49.4619ZM69.6943 57.2541L72.3823 57.2441C72.9156 57.2421 73.2727 57.1715 73.4535 57.0321C73.6343 56.8821 73.7292 56.5778 73.7382 56.1191L68.3462 56.139C68.3586 56.5977 68.4557 56.9013 68.6376 57.05C68.8194 57.188 69.1717 57.256 69.6943 57.2541ZM68.3406 54.6191L73.7325 54.5991C73.7202 54.1404 73.6177 53.8422 73.4252 53.7042C73.2434 53.5662 72.8911 53.4982 72.3684 53.5001L69.6805 53.5101C69.1578 53.512 68.806 53.5827 68.6252 53.722C68.4551 53.8613 68.3602 54.1603 68.3406 54.6191ZM79.6895 47.2969L84.6815 47.2784L84.688 49.0544L79.6961 49.0729L79.6895 47.2969ZM81.5332 43.9781L83.2612 43.9717L83.3169 58.9956L81.5889 59.002L81.5332 43.9781ZM81.534 48.5061L82.5913 48.8702C82.1687 51.3998 81.3003 54.523 80.2023 56.1591C80.0244 55.6478 79.6057 54.9133 79.332 54.4503C80.3188 53.0546 81.1895 50.5394 81.534 48.5061ZM83.1866 49.748C83.5242 50.1787 84.8118 52.238 85.0855 52.685L84.1465 54.0325C83.8071 53.1057 82.8561 51.2372 82.4533 50.4867L83.1866 49.748ZM86.5339 54.9356L92.7258 54.9127L92.7307 56.2247L86.5387 56.2476L86.5339 54.9356ZM86.3978 57.0801L92.9578 57.0558L92.9629 58.4478L86.403 58.4721L86.3978 57.0801ZM88.6212 43.9518L90.4451 43.945L90.4575 47.289L88.6336 47.2958L88.6212 43.9518ZM88.7367 53.5514L90.3687 53.5454L90.3845 57.8014L88.7525 57.8074L88.7367 53.5514ZM84.9024 46.4456L94.3103 46.4107L94.3208 49.2427L92.5448 49.2493L92.5398 47.8893L86.6038 47.9113L86.6089 49.2713L84.9129 49.2776L84.9024 46.4456ZM85.2777 52.7323L93.9656 52.7001L93.9887 58.94L92.1488 58.9468L92.1308 54.0989L87.0268 54.1178L87.0449 58.9818L85.3009 58.9882L85.2777 52.7323ZM88.0353 49.938L88.0387 50.85L91.2067 50.8383L91.2033 49.9263L88.0353 49.938ZM86.3826 48.6641L92.9586 48.6398L92.9715 52.1277L86.3955 52.1521L86.3826 48.6641ZM85.4237 44.6357L86.9577 44.102C87.3599 44.6925 87.7949 45.5069 87.957 46.0663L86.3271 46.6483C86.1811 46.1049 85.794 45.2583 85.4237 44.6357ZM92.0455 44.0351L93.8234 44.5565C93.3783 45.3262 92.9491 46.0958 92.599 46.5931L91.1412 46.1185C91.4591 45.5413 91.8398 44.6599 92.0455 44.0351ZM108.468 58.6623C108.083 58.5251 107.651 58.34 107.17 58.1072C106.689 57.8743 106.213 57.6147 105.743 57.3284C105.272 57.0422 104.855 56.7611 104.492 56.4851C104.299 56.3364 104.186 56.1502 104.154 55.9263C104.131 55.6917 104.189 55.4835 104.327 55.3017C104.444 55.1626 104.572 55.0714 104.71 55.0282L101.382 55.0406C101.446 55.0723 101.511 55.1094 101.575 55.1519C101.639 55.1943 101.692 55.2474 101.735 55.3113C101.885 55.5134 101.934 55.7265 101.882 55.9507C101.84 56.1642 101.734 56.3406 101.564 56.4799C101.245 56.7371 100.856 57.0052 100.399 57.2842C99.941 57.5633 99.4673 57.821 98.9775 58.0575C98.4984 58.294 98.0565 58.4929 97.6517 58.6544C97.3428 58.7729 97.0656 58.8006 96.82 58.7375C96.5745 58.6851 96.3926 58.5258 96.2742 58.2595C96.1667 58.0146 96.1605 57.78 96.2556 57.5556C96.3508 57.3312 96.5369 57.1706 96.8138 57.0735C97.2186 56.9227 97.6446 56.7451 98.0919 56.5408C98.5498 56.3258 98.9863 56.1055 99.4014 55.8799C99.8166 55.6437 100.173 55.4184 100.471 55.204C100.513 55.1718 100.556 55.145 100.599 55.1235C100.652 55.0913 100.7 55.0644 100.742 55.043L96.3744 55.0591C96.1504 55.06 95.9581 54.986 95.7976 54.8373C95.6476 54.6778 95.5723 54.4914 95.5715 54.2781C95.5706 54.0541 95.6446 53.8672 95.7934 53.7173C95.9528 53.5567 96.1445 53.476 96.3685 53.4752L96.9765 53.4729L96.8254 47.2494C96.813 46.7695 96.8489 46.3853 96.9332 46.097C97.0281 45.798 97.2032 45.5627 97.4586 45.3911C97.7139 45.2088 98.0813 45.0581 98.5609 44.939C98.742 44.885 98.9232 44.8363 99.1043 44.793C99.2961 44.7389 99.4826 44.6849 99.6637 44.6309C99.8662 44.5768 100.058 44.5868 100.24 44.6607C100.421 44.7241 100.545 44.8623 100.609 45.0754C100.685 45.3098 100.675 45.5125 100.58 45.6835C100.495 45.8438 100.346 45.951 100.133 46.0052C99.9943 46.0483 99.8452 46.0969 99.6854 46.1508C99.5255 46.1941 99.387 46.2266 99.2697 46.2484C98.9394 46.3349 98.7318 46.437 98.6469 46.5547C98.5619 46.6616 98.5254 46.8805 98.5373 47.2111L98.5391 47.7071L99.7871 47.7024C100 47.7017 100.177 47.7703 100.316 47.9085C100.466 48.0466 100.541 48.2223 100.542 48.4357C100.543 48.6383 100.469 48.8146 100.32 48.9645C100.182 49.1037 100.006 49.1736 99.7926 49.1744L98.5766 49.1789L98.6137 50.5548L99.7977 50.5504C100.011 50.5496 100.187 50.6183 100.326 50.7565C100.476 50.8946 100.552 51.0703 100.552 51.2836C100.553 51.4863 100.479 51.6626 100.33 51.8125C100.192 51.9516 100.016 52.0216 99.8031 52.0224L98.6512 52.0267L98.6885 53.4666L101.072 53.4577L101.062 50.7057C101.061 50.4817 101.135 50.3055 101.284 50.1769C101.433 50.0377 101.609 49.9677 101.812 49.967C102.025 49.9662 102.201 50.0348 102.34 50.173C102.49 50.3004 102.565 50.4762 102.566 50.7002L102.576 53.4521L103.456 53.4489L103.445 50.2649C103.444 49.9556 103.4 49.7584 103.314 49.6734C103.239 49.5777 103.031 49.5304 102.69 49.5317C102.082 49.534 101.655 49.4235 101.409 49.2004C101.173 48.9667 101.054 48.5351 101.052 47.9058L101.041 44.9778C101.04 44.7324 101.119 44.5348 101.279 44.3849C101.438 44.235 101.63 44.1596 101.854 44.1588C102.078 44.1579 102.27 44.2319 102.431 44.3806C102.602 44.5293 102.688 44.7263 102.689 44.9717L102.692 45.6757L104.356 45.6695C104.548 45.6688 104.713 45.7375 104.852 45.8757C104.992 46.0031 105.061 46.1629 105.062 46.3549C105.063 46.5469 104.994 46.7125 104.856 46.8517C104.718 46.9908 104.553 47.0608 104.361 47.0615L102.697 47.0677L102.699 47.5477C102.7 47.8357 102.754 48.0221 102.861 48.1071C102.968 48.1813 103.176 48.2179 103.485 48.2167C103.986 48.2149 104.355 48.3415 104.59 48.5966C104.837 48.8411 104.961 49.2673 104.963 49.8753L104.976 53.4433L107.296 53.4347L107.323 52.0105L106.123 52.015C105.92 52.0157 105.744 51.9417 105.594 51.7929C105.455 51.6441 105.385 51.4684 105.384 51.2657C105.384 51.0631 105.452 50.8921 105.59 50.753C105.739 50.6031 105.915 50.5278 106.118 50.527L107.35 50.5224L107.361 49.1464L106.113 49.151C105.91 49.1518 105.734 49.0831 105.584 48.945C105.445 48.7962 105.375 48.6204 105.374 48.4177C105.373 48.2044 105.442 48.0282 105.58 47.889C105.729 47.7498 105.904 47.6798 106.107 47.679L107.387 47.6743L107.401 47.1782C107.411 46.8368 107.356 46.613 107.239 46.5068C107.121 46.3899 106.891 46.3321 106.55 46.3334L105.798 46.3362C105.595 46.3369 105.419 46.2629 105.269 46.1141C105.119 45.9653 105.044 45.7896 105.043 45.5869C105.043 45.3736 105.117 45.192 105.265 45.0421C105.414 44.8922 105.59 44.8169 105.792 44.8162L106.656 44.813C107.307 44.8106 107.809 44.8834 108.161 45.0314C108.524 45.1687 108.776 45.4078 108.916 45.7486C109.056 46.0894 109.116 46.5585 109.097 47.1559L108.992 53.4284L109.632 53.426C109.856 53.4252 110.043 53.5045 110.193 53.6639C110.354 53.8127 110.435 53.999 110.435 54.223C110.436 54.4364 110.357 54.6233 110.197 54.7839C110.049 54.9338 109.862 55.0092 109.638 55.01L105.238 55.0263C105.292 55.0368 105.345 55.0579 105.399 55.0897C105.463 55.1215 105.516 55.1533 105.559 55.1851C105.88 55.4079 106.259 55.6412 106.698 55.8849C107.136 56.1179 107.585 56.3403 108.044 56.5519C108.514 56.7528 108.931 56.9166 109.294 57.0433C109.539 57.117 109.705 57.2604 109.791 57.4734C109.888 57.6971 109.894 57.9264 109.81 58.1614C109.704 58.4604 109.518 58.6371 109.252 58.6914C108.996 58.7564 108.735 58.7467 108.468 58.6623ZM112.166 50.6486C111.963 50.6493 111.787 50.5807 111.637 50.4425C111.498 50.2937 111.428 50.118 111.427 49.9153C111.427 49.7127 111.501 49.5417 111.65 49.4025C111.798 49.2526 111.985 49.1772 112.209 49.1764L115.217 49.1653L115.215 48.6373C114.532 48.6398 113.998 48.5724 113.614 48.4352C113.24 48.2873 112.978 48.0482 112.827 47.7181C112.687 47.3773 112.616 46.9242 112.614 46.3589C112.612 45.7829 112.68 45.3346 112.817 45.0141C112.965 44.6936 113.226 44.4686 113.599 44.3392C113.982 44.2098 114.515 44.1438 115.198 44.1413L116.942 44.1348C117.635 44.1323 118.164 44.1943 118.527 44.321C118.901 44.4476 119.157 44.6706 119.297 44.9901C119.448 45.3096 119.524 45.7573 119.526 46.3333C119.528 46.8986 119.455 47.3469 119.307 47.6781C119.17 48.0093 118.92 48.2502 118.558 48.4009C118.196 48.5409 117.673 48.6175 116.991 48.6307L116.993 49.1587L119.921 49.1478C120.102 49.1472 120.262 49.2212 120.401 49.37C120.541 49.5082 120.611 49.6786 120.611 49.8813C120.612 50.0839 120.543 50.2602 120.405 50.41C120.267 50.5492 120.091 50.6192 119.878 50.62L112.166 50.6486ZM114.885 58.9106C114.607 58.9116 114.378 58.8431 114.196 58.7051C114.025 58.5671 113.933 58.3648 113.922 58.0981C113.91 57.8742 113.974 57.6766 114.112 57.5054C114.26 57.3342 114.457 57.2375 114.702 57.2152C114.958 57.1929 115.129 57.1443 115.214 57.0693C115.299 56.9943 115.341 56.8395 115.34 56.6049L115.332 54.5089L114.948 54.5103C114.106 54.5134 113.529 54.3929 113.219 54.1487C112.909 53.9045 112.753 53.4624 112.75 52.8224C112.748 52.1718 112.901 51.7232 113.209 51.4767C113.518 51.2302 114.093 51.1054 114.936 51.1023L117.384 51.0932C118.226 51.0901 118.803 51.2107 119.113 51.4548C119.423 51.699 119.58 52.1464 119.582 52.7971C119.585 53.4371 119.432 53.8803 119.123 54.1268C118.815 54.3733 118.239 54.4981 117.396 54.5012L117.044 54.5025L117.053 56.9025C117.056 57.6065 116.887 58.1138 116.547 58.4244C116.207 58.7457 115.653 58.9077 114.885 58.9106ZM121.155 58.2953C120.856 58.4458 120.574 58.4948 120.307 58.4425C120.051 58.4007 119.853 58.2628 119.714 58.0287C119.66 57.9435 119.622 57.8423 119.6 57.7251C119.451 57.779 119.291 57.7902 119.121 57.7589C118.95 57.7275 118.795 57.6481 118.656 57.5206C118.559 57.4143 118.425 57.2761 118.254 57.1061C118.093 56.936 117.933 56.7659 117.772 56.5958C117.612 56.4151 117.478 56.2663 117.371 56.1493C117.231 55.9685 117.156 55.7715 117.144 55.5582C117.144 55.3342 117.223 55.1472 117.382 54.9973C117.531 54.8474 117.717 54.7667 117.941 54.7552C118.165 54.7437 118.352 54.8177 118.502 54.9771C118.631 55.1047 118.781 55.2534 118.952 55.4235C119.123 55.5935 119.294 55.7582 119.466 55.9176C119.637 56.0663 119.776 56.1937 119.883 56.3C120.022 56.4168 120.108 56.5499 120.141 56.6991C120.716 56.4196 121.28 56.0762 121.833 55.6688C122.386 55.2507 122.902 54.7955 123.38 54.303C123.869 53.7999 124.288 53.2863 124.638 52.7624C124.797 52.5164 125.015 52.3716 125.292 52.3279C125.57 52.2736 125.82 52.3313 126.045 52.5012C126.259 52.6604 126.372 52.8679 126.383 53.1239C126.395 53.3692 126.327 53.5988 126.178 53.8127C125.807 54.39 125.35 54.9624 124.808 55.5298C124.266 56.0971 123.682 56.6166 123.054 57.0883C122.437 57.5599 121.804 57.9622 121.155 58.2953ZM121.871 52.9166C121.637 53.0775 121.386 53.1531 121.119 53.1434C120.853 53.1231 120.634 52.9905 120.462 52.7458C120.301 52.5224 120.242 52.2827 120.283 52.0265C120.336 51.7703 120.484 51.5671 120.729 51.4168C121.112 51.1594 121.522 50.8486 121.958 50.4843C122.404 50.12 122.83 49.7451 123.233 49.3596C123.637 48.9741 123.972 48.6261 124.238 48.3158C124.418 48.1018 124.636 47.989 124.892 47.9774C125.148 47.9551 125.378 48.0343 125.581 48.2148C125.795 48.3847 125.897 48.5977 125.888 48.8537C125.889 49.1097 125.804 49.3394 125.634 49.5427C125.337 49.8958 124.976 50.2811 124.55 50.6987C124.125 51.1163 123.679 51.5179 123.211 51.9037C122.743 52.2894 122.296 52.627 121.871 52.9166ZM121.822 48.3888C121.588 48.5496 121.337 48.6252 121.071 48.6156C120.815 48.6058 120.596 48.484 120.413 48.25C120.253 48.0373 120.193 47.8081 120.235 47.5627C120.287 47.3065 120.43 47.1033 120.665 46.9531C120.962 46.7493 121.297 46.4974 121.67 46.1973C122.053 45.8972 122.425 45.5812 122.786 45.2492C123.148 44.9172 123.451 44.6174 123.695 44.3498C123.865 44.1572 124.083 44.055 124.35 44.0434C124.627 44.021 124.857 44.1002 125.039 44.2808C125.231 44.4614 125.328 44.6744 125.329 44.9198C125.341 45.1544 125.261 45.368 125.091 45.5606C124.826 45.8496 124.496 46.1708 124.103 46.5243C123.72 46.8777 123.327 47.2205 122.923 47.5527C122.519 47.8849 122.152 48.1636 121.822 48.3888ZM112.049 57.9451C111.878 57.8177 111.771 57.6474 111.727 57.4343C111.694 57.221 111.747 57.0288 111.885 56.8577C112.002 56.7079 112.14 56.5261 112.299 56.3121C112.469 56.0875 112.628 55.8682 112.777 55.6544C112.936 55.4298 113.058 55.2426 113.143 55.093C113.259 54.8899 113.419 54.756 113.621 54.6912C113.834 54.6264 114.042 54.647 114.245 54.7529C114.459 54.8588 114.593 55.013 114.647 55.2154C114.712 55.4178 114.691 55.6206 114.585 55.8237C114.437 56.1229 114.225 56.4597 113.949 56.834C113.684 57.1977 113.45 57.4972 113.248 57.7326C113.1 57.9145 112.913 58.0272 112.69 58.0707C112.466 58.1249 112.252 58.083 112.049 57.9451ZM115.024 53.246L117.296 53.2376C117.509 53.2368 117.653 53.2043 117.727 53.14C117.802 53.0757 117.839 52.9582 117.838 52.7876C117.837 52.6169 117.8 52.4997 117.725 52.436C117.65 52.3723 117.506 52.3408 117.292 52.3416L115.02 52.35C114.807 52.3508 114.663 52.3833 114.589 52.4476C114.514 52.5119 114.477 52.6294 114.478 52.8C114.479 52.9707 114.517 53.0879 114.591 53.1516C114.666 53.2153 114.81 53.2468 115.024 53.246ZM114.292 45.8567L117.828 45.8436C117.785 45.6091 117.694 45.4654 117.555 45.4126C117.427 45.3597 117.202 45.3339 116.882 45.3351L115.25 45.3411C114.93 45.3423 114.701 45.3698 114.563 45.4237C114.424 45.4775 114.334 45.6218 114.292 45.8567ZM115.258 47.4531L116.89 47.4471C117.2 47.4459 117.418 47.4131 117.546 47.3486C117.684 47.2734 117.774 47.1344 117.816 46.9316L114.312 46.9446C114.356 47.1471 114.447 47.2854 114.586 47.3596C114.725 47.4231 114.949 47.4542 115.258 47.4531ZM138.052 58.7607C137.764 58.7618 137.519 58.6667 137.315 58.4754C137.112 58.2842 137.01 58.0392 137.009 57.7406L136.996 54.4766C136.994 53.9112 136.886 53.533 136.672 53.3418C136.469 53.1505 136.058 53.056 135.439 53.0583L131.759 53.072C131.614 54.1072 131.367 55.0414 131.018 55.8747C130.679 56.6973 130.229 57.483 129.666 58.2318C129.497 58.4671 129.262 58.6119 128.964 58.6664C128.666 58.7315 128.383 58.6739 128.115 58.4935C127.891 58.3344 127.762 58.1215 127.729 57.8549C127.696 57.5884 127.764 57.3481 127.934 57.1342C128.401 56.5138 128.783 55.8777 129.079 55.2259C129.386 54.5634 129.613 53.8319 129.759 53.0314C129.905 52.2308 129.977 51.3132 129.973 50.2786L129.953 44.9986C129.952 44.6999 130.047 44.4596 130.239 44.2776C130.43 44.0955 130.659 44.004 130.926 44.003C131.203 44.002 131.433 44.0918 131.615 44.2725C131.807 44.4531 131.904 44.6927 131.905 44.9914L131.915 47.6794L135.643 47.6655L135.633 44.8016C135.631 44.4922 135.732 44.2412 135.934 44.0484C136.136 43.8557 136.381 43.7588 136.669 43.7577C136.957 43.7566 137.202 43.8517 137.406 44.043C137.609 44.2342 137.711 44.4845 137.713 44.7939L137.723 47.6578L141.275 47.6447C141.531 47.6437 141.745 47.7336 141.916 47.9143C142.098 48.095 142.19 48.3133 142.191 48.5693C142.192 48.8253 142.102 49.0443 141.921 49.2263C141.751 49.4082 141.538 49.4997 141.282 49.5007L131.922 49.5353L131.925 50.2713C131.926 50.442 131.926 50.6073 131.927 50.7673C131.927 50.9273 131.923 51.082 131.912 51.2314L135.432 51.2183C136.168 51.2156 136.771 51.2614 137.241 51.3556C137.721 51.4392 138.095 51.5978 138.363 51.8315C138.63 52.0652 138.813 52.3952 138.91 52.8215C139.019 53.2477 139.074 53.7969 139.076 54.4689L139.089 57.7328C139.09 58.0315 138.989 58.2772 138.787 58.47C138.585 58.6627 138.34 58.7596 138.052 58.7607Z" fill="black" fill-opacity="0.85"/>
</g>
<defs>
<radialGradient id="paint0_radial_1260_4409" cx="0" cy="0" r="1" gradientUnits="userSpaceOnUse" gradientTransform="translate(0.560609 46.8353) rotate(65.4889) scale(3.32531 8.21233)">
<stop offset="0.33" stop-opacity="0"/>
<stop offset="0.655" stop-opacity="0.6"/>
<stop offset="1"/>
</radialGradient>
<radialGradient id="paint1_radial_1260_4409" cx="0" cy="0" r="1" gradientUnits="userSpaceOnUse" gradientTransform="translate(355.3 45.8572) rotate(114.511) scale(3.32531 8.21233)">
<stop offset="0.33" stop-opacity="0"/>
<stop offset="0.655" stop-opacity="0.6"/>
<stop offset="1"/>
</radialGradient>
<clipPath id="clip0_1260_4409">
<rect width="200" height="90" fill="white"/>
</clipPath>
</defs>
</svg>
