<svg width="1440" height="283" viewBox="0 0 1440 283" fill="none" xmlns="http://www.w3.org/2000/svg">
<g clip-path="url(#clip0_1021_747)">
<path d="M-95 190.5C-95 190.5 50.3195 167.751 131.456 169C212.592 170.249 320.524 196.895 320.524 196.895C320.524 196.895 712.433 85.4964 892.335 103.456C978.841 112.091 1314 77.5 1314 77.5L1645 129V283H-95V190.5Z" fill="#FFD640"/>
<path fill-rule="evenodd" clip-rule="evenodd" d="M109.193 183.481C64.277 189.206 10.6736 211.933 -43.0689 253.669L-92.1376 190.485C-29.9033 142.154 36.8058 112.061 99.0778 104.123C161.56 96.159 222.634 110.501 265.447 155.395C272.974 163.288 286.93 170.637 310.068 173.907C332.916 177.137 361.435 175.854 393.227 169.713C456.998 157.396 527.239 126.855 579.965 85.9084C647.593 33.389 708.553 25.6906 767.877 35.8633C795.368 40.5776 822.313 49.0854 847.232 56.9537L848.008 57.1987C873.932 65.3836 898.489 73.1206 924.68 78.2449C977.238 88.528 1000.07 84.8303 1021.03 77.3246C1031.17 73.6943 1041 69.1192 1054.29 62.9306C1057.5 61.4345 1060.92 59.8441 1064.59 58.1499C1082.76 49.7671 1104.72 40.0823 1133.4 30.3206C1268.9 -15.8005 1397.68 10.1244 1490.34 45.7432C1536.87 63.6328 1575.15 84.2753 1601.87 100.481C1615.26 108.6 1625.81 115.652 1633.13 120.758C1636.8 123.313 1639.66 125.385 1641.66 126.865C1642.66 127.606 1643.45 128.199 1644.02 128.631C1644.3 128.847 1644.53 129.022 1644.71 129.156L1644.93 129.325L1645.04 129.41C1645.05 129.421 1645.06 129.43 1620.5 161.001C1595.94 192.571 1595.95 192.579 1595.96 192.587L1595.96 192.589C1595.91 192.554 1595.81 192.477 1595.66 192.361C1595.48 192.227 1595.24 192.04 1594.92 191.804C1594.69 191.631 1594.42 191.431 1594.11 191.205C1592.67 190.136 1590.4 188.49 1587.37 186.373C1581.29 182.136 1572.16 176.028 1560.38 168.881C1536.76 154.553 1502.78 136.235 1461.63 120.416C1378.91 88.6186 1270.58 68.1369 1159.18 106.054C1134.18 114.561 1115.02 122.987 1098.1 130.792C1095.24 132.115 1092.35 133.464 1089.44 134.821C1075.89 141.141 1061.94 147.648 1048 152.642C1009.9 166.283 971.762 168.973 909.319 156.756C878.545 150.735 850.235 141.796 825.222 133.897L823.922 133.487C797.804 125.24 775.831 118.395 754.355 114.712C715.173 107.993 677.383 111.545 629.034 149.093C565.784 198.213 483.764 233.705 408.398 248.261C370.622 255.558 332.853 257.923 298.872 253.12C265.181 248.358 231.764 235.995 207.552 210.606C186.887 188.936 153.898 177.783 109.193 183.481Z" fill="#897359"/>
<path fill-rule="evenodd" clip-rule="evenodd" d="M98.2789 144.408C97.6776 138.918 101.641 133.98 107.131 133.378C127.529 131.144 147.156 131.646 165.523 135.036C170.954 136.039 174.544 141.254 173.542 146.685C172.539 152.116 167.324 155.707 161.893 154.704C145.673 151.71 128.02 151.21 109.308 153.259C103.818 153.861 98.8803 149.898 98.2789 144.408ZM63.4156 152.247C65.1348 157.495 62.2739 163.143 57.0255 164.863C40.7349 170.199 24.0502 177.196 7.19741 185.849C2.28435 188.372 -3.74347 186.434 -6.2661 181.521C-8.78872 176.608 -6.85089 170.58 -1.93783 168.058C15.7835 158.959 33.4389 151.543 50.7995 145.856C56.0479 144.137 61.6963 146.998 63.4156 152.247ZM730.526 82.085C713.771 81.5307 696.897 83.2908 679.45 88.4212C674.151 89.9793 668.593 86.9471 667.035 81.6486C665.477 76.3501 668.509 70.7917 673.808 69.2336C693.498 63.4432 712.519 61.4784 731.187 62.0959C736.707 62.2785 741.033 66.9012 740.851 72.421C740.668 77.9408 736.046 82.2675 730.526 82.085ZM775.285 77.9505C776.621 72.5918 782.049 69.3309 787.407 70.6672C804.627 74.9612 821.945 80.4294 839.396 85.9394L840.634 86.3303C845.9 87.993 848.822 93.6104 847.159 98.877C845.496 104.144 839.879 107.065 834.613 105.402L833.645 105.097C815.991 99.5229 799.183 94.2161 782.568 90.073C777.209 88.7367 773.949 83.3093 775.285 77.9505ZM635.431 96.3934C638.37 101.07 636.96 107.243 632.284 110.181C625.231 114.612 618.021 119.663 610.635 125.399C603.988 130.561 597.117 135.562 590.058 140.394C585.501 143.513 579.277 142.347 576.158 137.789C573.039 133.232 574.205 127.008 578.762 123.889C585.505 119.274 592.051 114.509 598.367 109.603C606.241 103.488 613.994 98.0526 621.644 93.2459C626.32 90.3078 632.493 91.717 635.431 96.3934ZM206.849 159.629C209.898 155.025 216.103 153.764 220.708 156.814C229.021 162.321 236.727 168.749 243.738 176.1C248.608 181.207 254.4 185.657 261.064 189.452C265.863 192.185 267.538 198.291 264.805 203.091C262.072 207.89 255.965 209.565 251.166 206.831C242.984 202.172 235.608 196.555 229.264 189.903C223.293 183.642 216.739 178.175 209.663 173.488C205.059 170.438 203.799 164.233 206.849 159.629ZM-36.889 199.946C-33.7563 204.494 -34.9039 210.721 -39.4523 213.854C-46.8086 218.921 -54.1536 224.295 -61.4684 229.976L-73.7356 214.18C-66.1249 208.269 -58.4725 202.669 -50.7969 197.383C-46.2485 194.25 -40.0217 195.398 -36.889 199.946ZM1269.61 55.7988C1253.58 56.3537 1237.29 57.8021 1220.82 60.2889C1215.36 61.1135 1210.27 57.355 1209.44 51.894C1208.62 46.4331 1212.38 41.3377 1217.84 40.5131C1235.1 37.9067 1252.15 36.3911 1268.92 35.8108C1274.44 35.6197 1279.07 39.9393 1279.26 45.4589C1279.45 50.9784 1275.13 55.6078 1269.61 55.7988ZM1179.91 58.1587C1181.38 63.4835 1178.25 68.9884 1172.92 70.4542C1165.15 72.5954 1157.34 74.9906 1149.51 77.6545C1139.42 81.0886 1130.24 84.5098 1121.78 87.8706C1116.65 89.9097 1110.83 87.4019 1108.8 82.2693C1106.76 77.1367 1109.26 71.3228 1114.4 69.2837C1123.15 65.8071 1132.64 62.2692 1143.07 58.7212C1151.27 55.9285 1159.46 53.417 1167.61 51.1716C1172.94 49.7057 1178.44 52.8339 1179.91 58.1587ZM1309.4 46.0853C1309.81 40.5775 1314.61 36.4437 1320.11 36.852C1337.48 38.1393 1354.42 40.3271 1370.85 43.22C1376.29 44.1776 1379.92 49.3633 1378.96 54.8025C1378.01 60.2417 1372.82 63.8747 1367.38 62.917C1351.57 60.1325 1335.29 58.032 1318.63 56.7973C1313.13 56.3889 1308.99 51.593 1309.4 46.0853ZM880.555 108.904C881.933 103.556 887.386 100.337 892.734 101.715C901.31 103.925 910.025 105.947 918.921 107.687C929.509 109.759 939.109 111.321 947.898 112.429C953.378 113.119 957.26 118.121 956.57 123.6C955.879 129.08 950.878 132.962 945.398 132.272C936.091 131.099 926.04 129.459 915.081 127.315C905.737 125.487 896.634 123.373 887.744 121.083C882.396 119.705 879.177 114.252 880.555 108.904ZM550.713 153.22C553.333 158.082 551.516 164.147 546.654 166.767C531.79 174.777 516.457 182.087 500.909 188.623C495.818 190.763 489.955 188.371 487.815 183.28C485.675 178.188 488.067 172.326 493.158 170.186C508.129 163.893 522.881 156.858 537.166 149.161C542.028 146.541 548.093 148.358 550.713 153.22ZM1072.24 98.7304C1074.56 103.746 1072.37 109.686 1067.35 111.999C1047.62 121.096 1029.81 128.648 1008.18 132.255C1002.73 133.163 997.581 129.483 996.673 124.036C995.765 118.588 999.444 113.435 1004.89 112.527C1023.71 109.389 1039.48 102.827 1058.98 93.8365C1063.99 91.524 1069.93 93.715 1072.24 98.7304ZM1408.41 61.4267C1409.86 56.098 1415.36 52.955 1420.68 54.4066C1437.67 59.0333 1453.91 64.2831 1469.28 69.8899C1474.47 71.7825 1477.14 77.5229 1475.25 82.7113C1473.35 87.8997 1467.61 90.5715 1462.42 88.6788C1447.54 83.2482 1431.83 78.1719 1415.43 73.7034C1410.1 72.2518 1406.96 66.7553 1408.41 61.4267ZM293.306 211.863C294.116 206.4 299.201 202.628 304.665 203.438C319.177 205.589 335.186 206.137 352.248 205.156C357.762 204.839 362.488 209.052 362.805 214.566C363.122 220.08 358.909 224.806 353.395 225.123C335.23 226.167 317.83 225.608 301.732 223.222C296.269 222.412 292.497 217.327 293.306 211.863ZM459.863 193.496C461.503 198.77 458.558 204.375 453.284 206.015C436.764 211.153 420.258 215.361 404.06 218.543C398.64 219.608 393.384 216.078 392.319 210.659C391.255 205.24 394.785 199.983 400.204 198.919C415.658 195.882 431.468 191.855 447.345 186.917C452.618 185.277 458.223 188.223 459.863 193.496ZM1503.16 94.1633C1505.45 89.1376 1511.38 86.9198 1516.4 89.2097C1533.24 96.8805 1548.49 104.666 1561.9 112.037C1566.74 114.697 1568.51 120.777 1565.85 125.617C1563.19 130.457 1557.11 132.225 1552.27 129.565C1539.25 122.411 1524.45 114.854 1508.11 107.41C1503.09 105.12 1500.87 99.1891 1503.16 94.1633ZM1591.74 141.163C1594.79 136.555 1600.99 135.286 1605.6 138.33C1612.33 142.776 1617.55 146.437 1621.1 149.003C1622.88 150.286 1624.24 151.295 1625.17 151.992C1625.64 152.341 1625.99 152.611 1626.24 152.799C1626.36 152.893 1626.46 152.966 1626.52 153.018L1626.6 153.079L1626.63 153.098L1626.64 153.104L1626.64 153.107L1626.64 153.108C1626.64 153.108 1626.64 153.108 1626.47 153.326C1626.08 153.83 1624.78 155.495 1620.5 161.001C1614.36 168.894 1614.36 168.894 1614.36 168.895L1614.36 168.89L1614.31 168.855C1614.27 168.82 1614.19 168.765 1614.09 168.689C1613.89 168.536 1613.58 168.301 1613.17 167.989C1612.34 167.363 1611.07 166.428 1609.4 165.22C1606.05 162.805 1601.06 159.302 1594.58 155.019C1589.97 151.975 1588.7 145.772 1591.74 141.163Z" fill="white" fill-opacity="0.5"/>
</g>
<defs>
<clipPath id="clip0_1021_747">
<rect width="1440" height="283" fill="white"/>
</clipPath>
</defs>
</svg>
