<svg width="200" height="90" viewBox="0 0 200 90" fill="none" xmlns="http://www.w3.org/2000/svg">
<g clip-path="url(#clip0_1260_4413)">
<rect width="200" height="90" fill="#B8F9D9"/>
<path fill-rule="evenodd" clip-rule="evenodd" d="M-6.18027 85.5257C-5.5206 81.3514 -9.94765 77.2571 -7.65473 73.2393C-4.94813 68.4966 -1.65241 61.9915 7.77154 61.0783C17.9972 60.0873 23.5998 68.8258 33.9785 69.2048C45.8176 69.6371 56.5881 60.196 66.8872 63.2371C76.2425 65.9996 70.121 74.0119 68.9752 79.5387C68.1676 83.4341 61.5364 86.4306 61.2669 90.3457C60.8502 96.3973 75.7689 103.853 67.0229 107.895C58.3557 111.9 45.7383 103.802 34.2527 102.83C27.3162 102.243 20.5655 103.925 13.6182 103.373C4.65786 102.66 -7.2514 103.227 -11.7526 99.1698C-16.3208 95.0519 -6.92748 90.2539 -6.18027 85.5257Z" fill="#49CCBD"/>
<path fill-rule="evenodd" clip-rule="evenodd" d="M28.4743 10.5302C32.6486 10.8717 36.7429 8.58004 40.7607 9.76696C45.5034 11.168 52.0085 12.874 52.9217 17.7523C53.9127 23.0456 45.1742 25.9458 44.7952 31.3183C44.3629 37.4467 53.804 43.0221 50.7629 48.3534C48.0004 53.1961 39.9881 50.0274 34.4613 49.4342C30.5659 49.0162 27.5694 45.5836 23.6543 45.444C17.6027 45.2284 10.1469 52.9509 6.10508 48.4236C2.09968 43.9371 10.1975 37.4057 11.1701 31.4602C11.7575 27.8695 10.0747 24.3751 10.6274 20.7788C11.3402 16.1405 10.7727 9.97575 14.8302 7.64571C18.9481 5.281 23.7461 10.1434 28.4743 10.5302Z" fill="#3D7619"/>
<path fill-rule="evenodd" clip-rule="evenodd" d="M173.474 4.53021C177.649 4.87169 181.743 2.58004 185.761 3.76696C190.503 5.16803 197.008 6.87405 197.922 11.7523C198.913 17.0456 190.174 19.9458 189.795 25.3183C189.363 31.4467 198.804 37.0221 195.763 42.3534C193 47.1961 184.988 44.0274 179.461 43.4342C175.566 43.0162 172.569 39.5836 168.654 39.444C162.603 39.2284 155.147 46.9509 151.105 42.4236C147.1 37.9371 155.198 31.4057 156.17 25.4602C156.757 21.8695 155.075 18.3751 155.627 14.7788C156.34 10.1405 155.773 3.97575 159.83 1.64571C163.948 -0.719004 168.746 4.14342 173.474 4.53021Z" fill="#6EDDA4"/>
<path fill-rule="evenodd" clip-rule="evenodd" d="M117.063 7.20494C131.49 7.9797 144.155 11.9054 154.996 17.5775C166.733 23.7188 176.896 30.8598 179.688 39.9711C183.097 51.0949 184.354 63.7453 171.749 72.2549C158.691 81.0707 136.857 81.4742 117.063 82.2497C95.2362 83.1048 71.8992 84.7511 54.6033 76.8446C35.6156 68.1646 20.8565 53.9771 24.5773 39.9711C28.0889 26.7526 52.1053 19.9805 71.5388 13.0955C85.3864 8.18958 100.98 6.34119 117.063 7.20494Z" fill="#87EDBF"/>
<path fill-rule="evenodd" clip-rule="evenodd" d="M176.618 58.8089C175.515 57.8435 174.393 55.7656 173.735 53.2528C172.775 49.59 173.162 46.3904 174.599 46.1062C175.901 45.8487 177.619 48.0727 178.644 51.217C179.76 49.0059 181.059 47.5961 181.934 47.8216C183.113 48.1259 183.07 51.2917 181.839 54.8927C180.608 58.4936 178.653 61.1661 177.474 60.8618C176.923 60.7197 176.639 59.9529 176.618 58.8089Z" fill="#6ADFA6"/>
<path fill-rule="evenodd" clip-rule="evenodd" d="M176.618 58.8089C175.515 57.8435 174.393 55.7656 173.735 53.2528C172.775 49.59 173.162 46.3904 174.599 46.1062C175.901 45.8487 177.619 48.0727 178.644 51.217C179.76 49.0059 181.059 47.5961 181.934 47.8216C183.113 48.1259 183.07 51.2917 181.839 54.8927C180.608 58.4936 178.653 61.1661 177.474 60.8618C176.923 60.7197 176.639 59.9529 176.618 58.8089Z" fill="url(#paint0_radial_1260_4413)" fill-opacity="0.2"/>
<path d="M161.232 70.5835C161.232 78.5212 168.739 84.956 178 84.956C187.26 84.956 194.768 78.5212 194.768 70.5835C194.768 62.6457 187.26 56.2109 178 56.2109C168.739 56.2109 161.232 62.6457 161.232 70.5835Z" fill="#6ADFA6"/>
<path d="M172.199 73.4141C172.199 73.4141 172.948 77.897 178.111 77.897C183.274 77.897 183.777 73.4141 183.777 73.4141" stroke="black" stroke-width="2" stroke-linecap="round" stroke-linejoin="round"/>
<path d="M171.281 65.0156L175.135 66.6423L171.281 68.7218" stroke="black" stroke-width="2" stroke-linecap="round" stroke-linejoin="round"/>
<path d="M183.775 65.0156L179.922 66.6423L183.775 68.7218" stroke="black" stroke-width="2" stroke-linecap="round" stroke-linejoin="round"/>
<path d="M97.0083 31.6679L101.568 31.651L101.572 32.731L98.1322 32.7438L98.1438 35.8637L97.0238 35.8679L97.0083 31.6679ZM101.208 31.6524L102.358 31.6481L102.369 34.6381C102.371 35.1381 102.302 35.4283 101.983 35.6095C101.674 35.7807 101.254 35.7922 100.704 35.7943C100.672 35.4844 100.541 35.0449 100.4 34.7454C100.69 34.7543 100.99 34.7532 101.09 34.7528C101.19 34.7424 101.22 34.7223 101.219 34.6223L101.208 31.6524ZM96.0391 29.2015L102.679 29.1769L102.683 30.2669L96.0431 30.2915L96.0391 29.2015ZM99.0342 30.5604L100.204 30.5561L100.228 37.096L99.0584 37.1004L99.0342 30.5604ZM98.2434 27.6633L99.4042 27.879C98.8334 30.3512 97.8113 32.485 96.2762 33.8107C96.1252 33.5512 95.7233 33.0427 95.4825 32.8036C96.8884 31.6984 97.7815 29.835 98.2434 27.6633ZM95.3538 27.764L96.4851 28.1098C95.8414 29.8222 94.8081 31.6261 93.7223 32.7701C93.6112 32.4805 93.2888 31.8217 93.0777 31.5325C93.9843 30.6191 94.8491 29.1959 95.3538 27.764ZM94.394 30.5276L95.5298 29.3834L95.5398 29.3934L95.5684 37.1033L94.4184 37.1076L94.394 30.5276ZM109.848 37.0004C109.655 37.0011 109.495 36.9517 109.368 36.8521C109.241 36.7526 109.17 36.6162 109.156 36.4429C109.142 36.2363 109.195 36.0795 109.314 35.9723C109.441 35.8585 109.607 35.8013 109.814 35.8005C110.054 35.7929 110.24 35.7756 110.373 35.7484C110.513 35.7146 110.616 35.6475 110.683 35.5473C110.756 35.447 110.808 35.3001 110.841 35.1067C110.952 34.5196 111.017 33.8827 111.034 33.1959C111.046 32.8626 110.982 32.6361 110.841 32.5167C110.701 32.3972 110.437 32.3382 110.051 32.3396L105.581 32.3562C105.537 33.1563 105.427 33.9067 105.249 34.6074C105.078 35.308 104.811 35.979 104.447 36.6204C104.361 36.774 104.224 36.8745 104.038 36.9219C103.851 36.9693 103.675 36.9466 103.508 36.8539C103.361 36.7611 103.273 36.6347 103.246 36.4748C103.219 36.3149 103.248 36.1615 103.334 36.0145C103.613 35.5335 103.827 35.0393 103.979 34.5321C104.137 34.0249 104.245 33.4844 104.303 32.9109C104.367 32.3373 104.398 31.7105 104.396 31.0305L104.391 29.8105C104.39 29.3105 104.448 28.927 104.567 28.6599C104.686 28.3928 104.892 28.2087 105.185 28.1076C105.478 28.0065 105.885 27.955 106.405 27.9531L109.925 27.94C110.398 27.9383 110.765 27.9769 111.025 28.0559C111.285 28.135 111.466 28.2776 111.567 28.4839C111.667 28.6836 111.718 28.9667 111.72 29.3334C111.721 29.7 111.672 29.9836 111.573 30.1839C111.474 30.3843 111.294 30.525 111.034 30.6059C110.775 30.6869 110.408 30.7282 109.935 30.73L105.615 30.746L105.616 30.996C105.616 31.056 105.616 31.116 105.616 31.176C105.617 31.2293 105.614 31.2827 105.607 31.336L110.127 31.3193C110.9 31.3164 111.454 31.4577 111.789 31.7431C112.13 32.0219 112.285 32.5246 112.254 33.2514C112.236 33.6382 112.207 34.0083 112.168 34.3618C112.136 34.7152 112.094 35.0487 112.042 35.3622C111.97 35.8025 111.852 36.1396 111.686 36.3736C111.527 36.6075 111.297 36.7683 110.998 36.8561C110.705 36.9505 110.321 36.9986 109.848 37.0004ZM108.063 35.687C107.557 35.6889 107.173 35.6469 106.913 35.5612C106.652 35.4755 106.475 35.3295 106.381 35.1232C106.287 34.9102 106.239 34.6237 106.238 34.2637C106.237 33.8971 106.282 33.6136 106.375 33.4132C106.467 33.2062 106.643 33.0589 106.903 32.9713C107.163 32.8836 107.546 32.8389 108.053 32.837C108.566 32.8351 108.953 32.877 109.213 32.9627C109.473 33.0484 109.647 33.1944 109.735 33.4008C109.829 33.6004 109.877 33.8836 109.878 34.2502C109.879 34.6102 109.834 34.8971 109.741 35.1108C109.655 35.3177 109.482 35.465 109.223 35.5527C108.963 35.6403 108.577 35.6851 108.063 35.687ZM105.611 29.756L109.851 29.7403C110.098 29.7394 110.254 29.7121 110.321 29.6586C110.394 29.605 110.43 29.4948 110.43 29.3282C110.429 29.1615 110.392 29.0516 110.318 28.9986C110.252 28.9455 110.098 28.9194 109.858 28.9203L106.478 28.9328C106.232 28.9337 106.045 28.9544 105.918 28.9949C105.799 29.0353 105.715 29.109 105.669 29.2158C105.63 29.3226 105.61 29.476 105.611 29.676L105.611 29.756ZM108.06 34.747C108.353 34.7459 108.543 34.7152 108.629 34.6549C108.716 34.5945 108.759 34.4611 108.758 34.2544C108.757 34.0477 108.713 33.9179 108.626 33.8649C108.54 33.8052 108.349 33.7759 108.056 33.777C107.769 33.7781 107.58 33.8088 107.486 33.8691C107.4 33.9228 107.357 34.0529 107.358 34.2596C107.359 34.4662 107.403 34.5994 107.489 34.6591C107.583 34.7187 107.773 34.748 108.06 34.747Z" fill="#1CB76B"/>
<path d="M98.1476 58.6948C96.8889 58.6995 95.8219 58.6074 94.9465 58.4187C94.0712 58.2299 93.3394 57.934 92.7512 57.5308C92.163 57.117 91.6544 56.5962 91.2254 55.9685C90.642 56.8346 90.0262 57.6102 89.3781 58.2953C89.1761 58.4987 88.9366 58.617 88.6594 58.65C88.3821 58.683 88.1258 58.5986 87.8904 58.3968C87.6764 58.2163 87.5689 57.9927 87.5679 57.726C87.5776 57.47 87.6728 57.251 87.8535 57.069C88.5443 56.3837 89.1442 55.6508 89.6534 54.8703C90.1731 54.0897 90.5861 53.2721 90.8923 52.4177C91.0085 52.1292 91.1891 51.9312 91.4341 51.8237C91.679 51.7161 91.935 51.7098 92.202 51.8048C92.4691 51.9105 92.6564 52.0805 92.7639 52.3147C92.8714 52.5383 92.8723 52.7837 92.7666 53.0507C92.6821 53.2537 92.5922 53.4674 92.497 53.6917C92.4018 53.9054 92.2959 54.1191 92.1794 54.3329C92.6305 55.1739 93.2621 55.7956 94.0743 56.1979L94.0542 50.7739L91.0622 50.785C90.8062 50.786 90.5979 50.7014 90.4373 50.5313C90.2873 50.3612 90.2119 50.1588 90.211 49.9242C90.2102 49.6895 90.2841 49.4919 90.4328 49.3313C90.5922 49.1601 90.7999 49.074 91.0559 49.073L98.9278 49.0439C99.1838 49.0429 99.3868 49.1275 99.5368 49.2976C99.6974 49.457 99.7781 49.654 99.779 49.8887C99.7798 50.1234 99.7006 50.3263 99.5412 50.4976C99.3925 50.6688 99.1902 50.7549 98.9342 50.7558L96.0542 50.7665L96.061 52.6065L99.677 52.5931C99.9437 52.5921 100.152 52.6767 100.302 52.8468C100.463 53.0062 100.543 53.2086 100.544 53.4539C100.545 53.6886 100.466 53.8969 100.306 54.0788C100.158 54.25 99.9501 54.3361 99.6835 54.3371L96.0675 54.3505L96.0764 56.7665C96.3859 56.808 96.7114 56.8388 97.0528 56.8589C97.3942 56.8789 97.7569 56.8883 98.1409 56.8868C98.6636 56.8849 99.1915 56.8776 99.7248 56.865C100.269 56.8523 100.802 56.8236 101.325 56.779C101.634 56.7565 101.901 56.8249 102.125 56.9841C102.35 57.1326 102.463 57.3668 102.464 57.6868C102.465 58.0068 102.365 58.2472 102.163 58.4079C101.961 58.5794 101.7 58.6657 101.38 58.6668C101.06 58.668 100.697 58.6694 100.292 58.6709C99.8969 58.683 99.5076 58.6898 99.1236 58.6912C98.7503 58.6926 98.4249 58.6938 98.1476 58.6948ZM88.9159 50.169C88.6493 50.17 88.4196 50.0908 88.227 49.9315C88.0451 49.7615 87.9536 49.5325 87.9525 49.2445L87.9501 48.6045C87.947 47.7512 88.1527 47.1425 88.5674 46.7782C88.982 46.4034 89.6906 46.2141 90.6933 46.2104L93.8932 46.1985L93.8889 45.0145C93.8877 44.7052 93.9882 44.4648 94.1902 44.2934C94.3922 44.1113 94.6372 44.0197 94.9252 44.0187C95.2238 44.0176 95.4748 44.1073 95.6782 44.2879C95.8815 44.4578 95.9837 44.6974 95.9848 45.0067L95.9892 46.1907L99.2692 46.1786C100.272 46.1749 100.977 46.3589 101.383 46.7307C101.801 47.0919 102.011 47.6991 102.014 48.5524L102.016 49.1924C102.017 49.4804 101.928 49.7101 101.747 49.8814C101.566 50.0421 101.343 50.1229 101.076 50.1239C100.809 50.1249 100.58 50.0511 100.387 49.9025C100.205 49.7431 100.114 49.5195 100.113 49.2315L100.11 48.6235C100.109 48.3141 100.028 48.0958 99.8678 47.9684C99.718 47.8409 99.4405 47.7779 99.0351 47.7795L90.9232 47.8095C90.5285 47.811 90.2514 47.876 90.0919 48.0046C89.9431 48.1332 89.8692 48.3521 89.8703 48.6614L89.8726 49.2694C89.8737 49.5574 89.7785 49.7818 89.5871 49.9425C89.4063 50.0925 89.1826 50.168 88.9159 50.169ZM106.581 58.9516C106.314 58.9526 106.09 58.868 105.908 58.6981C105.726 58.5281 105.634 58.2991 105.633 58.0111L105.606 50.6831C105.489 50.8542 105.373 51.0147 105.256 51.1644C105.15 51.3141 105.038 51.4586 104.921 51.5977C104.762 51.8009 104.555 51.919 104.299 51.952C104.043 51.9743 103.813 51.9111 103.61 51.7625C103.417 51.6139 103.305 51.4223 103.272 51.1878C103.239 50.9426 103.291 50.729 103.429 50.5472C103.705 50.1942 104.003 49.7664 104.321 49.2639C104.639 48.7614 104.952 48.2322 105.259 47.6764C105.566 47.1206 105.847 46.5862 106.101 46.0733C106.355 45.5496 106.551 45.0956 106.688 44.7111C106.794 44.4547 106.958 44.2727 107.182 44.1652C107.405 44.0577 107.64 44.0462 107.886 44.1306C108.131 44.2044 108.313 44.3477 108.431 44.5606C108.549 44.7735 108.556 45.0135 108.45 45.2805C108.334 45.601 108.191 45.9482 108.022 46.3221C107.863 46.6854 107.683 47.0594 107.482 47.4441L107.521 58.0041C107.522 58.2921 107.432 58.5217 107.252 58.6931C107.071 58.8644 106.847 58.9506 106.581 58.9516ZM108.77 58.2554C108.535 58.2563 108.327 58.1664 108.145 57.9858C107.974 57.8157 107.888 57.6134 107.887 57.3787C107.886 57.1334 107.97 56.9251 108.14 56.7538C108.321 56.5718 108.529 56.4803 108.763 56.4795L112.987 56.4638C113.114 56.0047 113.25 55.4921 113.398 54.9263C113.556 54.3603 113.703 53.7838 113.839 53.1966C113.986 52.6094 114.118 52.0436 114.233 51.4991C114.359 50.9547 114.453 50.4797 114.516 50.0741C114.568 49.7966 114.706 49.5827 114.929 49.4326C115.153 49.2824 115.398 49.2335 115.665 49.2858C115.964 49.3274 116.188 49.4546 116.338 49.6673C116.488 49.8801 116.537 50.1253 116.485 50.4028C116.412 50.7871 116.307 51.2408 116.17 51.764C116.044 52.2764 115.902 52.8156 115.744 53.3816C115.597 53.9474 115.449 54.4973 115.302 55.0312C115.155 55.5651 115.023 56.0402 114.907 56.4567L117.659 56.4465C117.905 56.4456 118.113 56.5355 118.284 56.7162C118.456 56.8862 118.542 57.0939 118.543 57.3392C118.544 57.5739 118.459 57.7769 118.289 57.9482C118.119 58.1301 117.911 58.2216 117.666 58.2225L108.77 58.2554ZM109.071 48.9263C108.837 48.9271 108.628 48.8426 108.447 48.6726C108.275 48.5025 108.189 48.3002 108.188 48.0655C108.187 47.8202 108.272 47.6119 108.442 47.4406C108.623 47.2692 108.83 47.1831 109.065 47.1823L112.025 47.1713L112.018 45.1873C112.016 44.878 112.117 44.6323 112.319 44.4502C112.521 44.2574 112.76 44.1606 113.038 44.1595C113.315 44.1585 113.556 44.2536 113.759 44.4449C113.962 44.6254 114.064 44.8704 114.066 45.1797L114.073 47.1637L117.225 47.152C117.47 47.1511 117.673 47.2357 117.834 47.4058C118.005 47.5758 118.091 47.7835 118.092 48.0288C118.093 48.2635 118.008 48.4665 117.838 48.6378C117.679 48.809 117.477 48.8951 117.231 48.896L109.071 48.9263ZM111.705 55.7165C111.438 55.7922 111.188 55.7825 110.953 55.6873C110.728 55.5815 110.578 55.3741 110.502 55.065C110.437 54.8092 110.351 54.5002 110.243 54.138C110.145 53.765 110.037 53.3814 109.919 52.9871C109.8 52.5823 109.676 52.1987 109.546 51.8365C109.428 51.4636 109.32 51.1494 109.223 50.8937C109.115 50.6274 109.13 50.3767 109.268 50.1415C109.406 49.9064 109.603 49.7563 109.858 49.6913C110.135 49.6157 110.386 49.6254 110.61 49.7206C110.835 49.8157 110.995 50.0018 111.092 50.2788C111.189 50.5451 111.297 50.8647 111.416 51.2376C111.535 51.6105 111.654 51.9994 111.772 52.4043C111.891 52.7985 111.999 53.1821 112.097 53.5551C112.205 53.9173 112.291 54.2317 112.356 54.4981C112.443 54.8285 112.422 55.0952 112.295 55.2984C112.168 55.4908 111.971 55.6302 111.705 55.7165Z" fill="black" fill-opacity="0.85"/>
</g>
<defs>
<radialGradient id="paint0_radial_1260_4413" cx="0" cy="0" r="1" gradientUnits="userSpaceOnUse" gradientTransform="translate(177.999 53.4857) rotate(90) scale(7.39975 4.79175)">
<stop offset="0.16" stop-opacity="0"/>
<stop offset="1" stop-color="#1CB76B"/>
</radialGradient>
<clipPath id="clip0_1260_4413">
<rect width="200" height="90" fill="white"/>
</clipPath>
</defs>
</svg>
