<svg width="200" height="90" viewBox="0 0 200 90" fill="none" xmlns="http://www.w3.org/2000/svg">
<g clip-path="url(#clip0_2439_9567)">
<rect width="200" height="90" fill="#BDE3FF"/>
<path fill-rule="evenodd" clip-rule="evenodd" d="M-6.18027 85.5257C-5.5206 81.3514 -9.94765 77.2571 -7.65473 73.2393C-4.94813 68.4966 -1.65241 61.9915 7.77154 61.0783C17.9972 60.0873 23.5998 68.8258 33.9785 69.2048C45.8176 69.6371 56.5881 60.196 66.8872 63.2371C76.2425 65.9996 70.121 74.0119 68.9752 79.5387C68.1676 83.4341 61.5364 86.4306 61.2669 90.3457C60.8502 96.3973 75.7689 103.853 67.0229 107.895C58.3557 111.9 45.7383 103.802 34.2527 102.83C27.3162 102.243 20.5655 103.925 13.6182 103.373C4.65786 102.66 -7.2514 103.227 -11.7526 99.1698C-16.3208 95.0519 -6.92748 90.2539 -6.18027 85.5257Z" fill="#005EA5"/>
<path fill-rule="evenodd" clip-rule="evenodd" d="M28.4743 10.5302C32.6486 10.8717 36.7429 8.58004 40.7607 9.76696C45.5034 11.168 52.0085 12.874 52.9217 17.7523C53.9127 23.0456 45.1742 25.9458 44.7952 31.3183C44.3629 37.4467 53.804 43.0221 50.7629 48.3534C48.0004 53.1961 39.9881 50.0274 34.4613 49.4342C30.5659 49.0162 27.5694 45.5836 23.6543 45.444C17.6027 45.2284 10.1469 52.9509 6.10508 48.4236C2.09968 43.9371 10.1975 37.4057 11.1701 31.4602C11.7575 27.8695 10.0747 24.3751 10.6274 20.7788C11.3402 16.1405 10.7727 9.97575 14.8302 7.64571C18.9481 5.281 23.7461 10.1434 28.4743 10.5302Z" fill="#2382C9"/>
<path fill-rule="evenodd" clip-rule="evenodd" d="M173.474 4.53021C177.649 4.87169 181.743 2.58004 185.761 3.76696C190.503 5.16803 197.008 6.87405 197.922 11.7523C198.913 17.0456 190.174 19.9458 189.795 25.3183C189.363 31.4467 198.804 37.0221 195.763 42.3534C193 47.1961 184.988 44.0274 179.461 43.4342C175.566 43.0162 172.569 39.5836 168.654 39.444C162.603 39.2284 155.147 46.9509 151.105 42.4236C147.1 37.9371 155.198 31.4057 156.17 25.4602C156.757 21.8695 155.075 18.3751 155.627 14.7788C156.34 10.1405 155.773 3.97575 159.83 1.64571C163.948 -0.719004 168.746 4.14342 173.474 4.53021Z" fill="#69BAF5"/>
<path fill-rule="evenodd" clip-rule="evenodd" d="M117.063 7.20494C131.49 7.9797 144.155 11.9054 154.996 17.5775C166.733 23.7188 176.896 30.8598 179.688 39.9711C183.097 51.0949 184.354 63.7453 171.749 72.2549C158.691 81.0707 136.857 81.4742 117.063 82.2497C95.2362 83.1048 71.8992 84.7511 54.6033 76.8446C35.6156 68.1646 20.8565 53.9771 24.5773 39.9711C28.0889 26.7526 52.1053 19.9805 71.5388 13.0955C85.3864 8.18958 100.98 6.34119 117.063 7.20494Z" fill="#C9F4FF"/>
<path d="M177.967 51.2804L196.726 84.9582L159.338 85.0303L177.967 51.2804Z" fill="#228CDA"/>
<path d="M173.373 78.4648H182.74" stroke="black" stroke-width="2" stroke-linecap="round"/>
<ellipse cx="171.472" cy="68.8528" rx="4.64254" ry="4.79533" transform="rotate(-0.110477 171.472 68.8528)" stroke="#FA8F21" stroke-width="2"/>
<ellipse cx="184.669" cy="68.8098" rx="4.64254" ry="4.79533" transform="rotate(-0.110477 184.669 68.8098)" stroke="#FA8F21" stroke-width="2"/>
<path d="M175.55 68.4703C175.55 68.4703 176.816 68.0521 177.654 68.0318C178.594 68.0091 180.025 68.4617 180.025 68.4617" stroke="#FA8F21" stroke-width="2"/>
<ellipse cx="171.471" cy="68.8518" rx="1.89842" ry="1.9609" transform="rotate(-0.110477 171.471 68.8518)" fill="black"/>
<ellipse cx="184.67" cy="68.8283" rx="1.89842" ry="1.9609" transform="rotate(-0.110477 184.67 68.8283)" fill="black"/>
<path d="M87.1946 32.6122L83.7646 32.6249C84.2019 33.6833 84.8053 34.6044 85.5749 35.3882C86.2787 34.6056 86.8186 33.6803 87.1946 32.6122ZM89.6503 31.4431C89.9236 31.4421 90.061 31.6349 90.0624 32.0216C90.0639 32.4082 89.9279 32.6021 89.6546 32.6031L88.5346 32.6072C88.0398 34.0224 87.3576 35.2183 86.4879 36.1948C87.5242 36.9977 88.6395 37.5369 89.8339 37.8125C90.1275 37.878 90.1416 38.0946 89.8763 38.4623C89.611 38.8366 89.3349 38.981 89.0479 38.8954C87.7934 38.5734 86.7014 38.0274 85.7718 37.2575C85.6314 37.138 85.4914 37.1352 85.3518 37.2491C84.4147 38.0259 83.2801 38.6001 81.9482 38.9717C81.6618 39.0661 81.398 38.9271 81.1566 38.5546C80.9152 38.1888 80.9411 37.9654 81.2341 37.8843C82.5263 37.5595 83.6742 37.0053 84.678 36.2216C83.8078 35.2714 83.0933 34.0741 82.5346 32.6295L81.3747 32.6338C81.1013 32.6348 80.9639 32.442 80.9625 32.0553C80.9611 31.6686 81.097 31.4748 81.3704 31.4738L85.1803 31.4597L84.7665 30.4312C84.6656 30.1782 84.8249 29.991 85.2444 29.8694C85.6706 29.7412 85.9375 29.8002 86.0451 30.0464L86.3677 30.7352C86.5021 31.0348 86.4128 31.2351 86.0999 31.3362L85.7103 31.4577L89.6503 31.4431ZM96.1379 36.1791L97.9179 36.1725C97.2078 35.2418 96.6104 34.1473 96.1257 32.8891L96.1379 36.1791ZM93.0379 36.1906L94.8779 36.1837L94.7957 32.894C94.3536 34.129 93.7677 35.2279 93.0379 36.1906ZM99.8935 32.2751C99.8949 32.6751 99.759 32.8756 99.4857 32.8766L97.3757 32.8845C97.7051 33.6299 98.1144 34.3217 98.6034 34.9599C99.0924 35.5981 99.5174 36.0365 99.8783 36.2752C100.092 36.4211 100.043 36.6679 99.731 37.0158C99.419 37.3636 99.1659 37.4445 98.9719 37.2586L98.1991 36.5114L98.2006 36.9014C98.2018 37.2214 98.0424 37.382 97.7224 37.3832L96.1424 37.3891L96.1471 38.6691C96.1481 38.9424 95.9386 39.0798 95.5187 39.0814C95.0987 39.0829 94.8882 38.9471 94.8871 38.6737L94.8824 37.3937L93.2624 37.3997C92.9424 37.4009 92.7818 37.2415 92.7806 36.9215L92.7791 36.5115C92.4539 36.9061 92.1849 37.1837 91.9722 37.3445C91.7595 37.5253 91.5059 37.4563 91.2114 37.1373C90.9235 36.8117 90.8793 36.5719 91.0787 36.4178C91.4445 36.1765 91.8695 35.7249 92.3537 35.0631C92.8446 34.3946 93.2486 33.6731 93.5657 32.8986L91.5257 32.9061C91.2524 32.9072 91.115 32.7077 91.1135 32.3077C91.112 31.901 91.2479 31.6972 91.5213 31.6962L94.8612 31.6838L94.8556 30.1638C94.8546 29.8905 95.0641 29.753 95.4841 29.7515C95.9041 29.7499 96.1146 29.8858 96.1156 30.1591L96.1212 31.6791L99.4812 31.6667C99.7545 31.6656 99.8919 31.8685 99.8935 32.2751ZM108.347 33.3338C108.347 33.1605 108.26 33.0741 108.086 33.0748L106.446 33.0808C106.824 34.2528 107.461 35.0838 108.356 35.5738L108.347 33.3338ZM102.967 33.0937C102.793 33.0944 102.707 33.1814 102.707 33.3547L102.716 35.7047C103.668 35.1745 104.311 34.3021 104.646 33.0875L102.967 33.0937ZM109.082 31.9111C109.402 31.9099 109.563 32.0693 109.564 32.3893L109.583 37.6392C109.585 37.9726 109.546 38.2261 109.466 38.3997C109.387 38.58 109.221 38.7273 108.968 38.8415C108.715 38.9625 108.292 39.0207 107.698 39.0162C107.305 39.0244 107.041 38.8287 106.906 38.4292C106.778 38.0296 106.827 37.8328 107.054 37.8386C107.194 37.8448 107.551 37.8468 108.124 37.8447C108.284 37.8441 108.364 37.7704 108.363 37.6238L108.357 35.8338C108.078 36.1415 107.938 36.3087 107.939 36.3353C107.773 36.5826 107.556 36.6201 107.289 36.4477C106.567 36.0437 105.981 35.2292 105.53 34.0042C105.081 35.2859 104.458 36.1316 103.659 36.5412C103.393 36.7022 103.166 36.6597 102.979 36.4137L102.718 36.0747L102.727 38.6447C102.728 38.918 102.525 39.0554 102.119 39.0569C101.719 39.0584 101.518 38.9225 101.517 38.6492L101.494 32.4192C101.493 32.0992 101.652 31.9386 101.972 31.9374L105.032 31.9261L104.98 31.4163C104.966 31.243 104.873 31.1567 104.699 31.1573L103.679 31.1611C103.406 31.1621 103.269 30.9893 103.267 30.6426C103.266 30.2959 103.402 30.1221 103.675 30.1211L105.515 30.1143C105.829 30.1131 105.999 30.2691 106.027 30.5824L106.162 31.9219L109.082 31.9111ZM112.551 31.6182C112.378 31.6188 112.291 31.7058 112.292 31.8792L112.294 32.3092C112.295 32.5825 112.095 32.7199 111.695 32.7214C111.302 32.7228 111.105 32.5869 111.104 32.3136L111.099 30.9936C111.098 30.6736 111.257 30.513 111.577 30.5118L114.887 30.4995L114.756 30.21C114.642 29.9638 114.801 29.7932 115.234 29.6982C115.667 29.6033 115.941 29.679 116.055 29.9252L116.317 30.4942L119.407 30.4828C119.727 30.4816 119.888 30.641 119.889 30.961L119.894 32.281C119.895 32.5543 119.685 32.6918 119.265 32.6933C118.845 32.6949 118.635 32.559 118.634 32.2857L118.632 31.8557C118.631 31.6823 118.544 31.596 118.371 31.5966L112.551 31.6182ZM116.455 32.7437C116.235 32.5979 116.261 32.4078 116.533 32.1734C116.812 31.9391 117.062 31.8915 117.283 32.0307C117.53 32.1631 117.901 32.405 118.395 32.7566C118.897 33.108 119.194 33.3403 119.288 33.4532C119.462 33.6059 119.399 33.8128 119.1 34.0739C118.801 34.3351 118.568 34.3893 118.401 34.2365C118.314 34.1235 118.026 33.8813 117.538 33.5097C117.057 33.1382 116.696 32.8829 116.455 32.7437ZM113.373 32.1152C113.539 31.9145 113.815 31.8802 114.203 32.0121C114.59 32.1373 114.704 32.3069 114.544 32.5208C114.379 32.7614 114.057 33.0893 113.578 33.5044C113.106 33.9195 112.737 34.1975 112.471 34.3385C112.252 34.466 112.001 34.3736 111.72 34.0613C111.446 33.749 111.428 33.5357 111.668 33.4215C111.881 33.334 112.197 33.1295 112.616 32.808C113.034 32.4931 113.287 32.2621 113.373 32.1152ZM113.936 35.7631L117.276 35.7507C116.615 35.3065 116.093 34.8851 115.712 34.4865C115.598 34.3669 115.485 34.3707 115.372 34.4978C115.04 34.8857 114.561 35.3074 113.936 35.7631ZM113.744 37.6838C113.744 37.8572 113.831 37.9435 114.005 37.9429L117.005 37.9317C117.178 37.9311 117.264 37.8441 117.264 37.6708L117.26 36.8308L113.74 36.8438L113.744 37.6838ZM115.057 33.0989C115.202 32.8717 115.452 32.8341 115.806 32.9861C116.16 33.1382 116.284 33.2977 116.178 33.4648C117.155 34.4812 118.388 35.2599 119.877 35.8011C120.177 35.9066 120.201 36.1299 119.949 36.4708C119.697 36.8118 119.448 36.9293 119.2 36.8236C119.1 36.7773 118.873 36.6615 118.519 36.4761L118.527 38.5161C118.528 38.8361 118.368 38.9967 118.048 38.9979L113.029 39.0165C112.709 39.0177 112.548 38.8583 112.547 38.5383L112.54 36.6283C112.18 36.8096 111.941 36.9238 111.821 36.9709C111.568 37.0786 111.311 36.9695 111.05 36.6438C110.795 36.3114 110.801 36.0981 111.067 36.0037C111.8 35.7544 112.568 35.3415 113.373 34.7652C114.191 34.1888 114.752 33.6334 115.057 33.0989Z" fill="#2382C9"/>
<path d="M67.9131 49.8219L62.4252 49.8422C63.1248 51.5356 64.0903 53.0094 65.3216 54.2635C66.4476 53.0113 67.3115 51.5308 67.9131 49.8219ZM71.8422 47.9513C72.2796 47.9497 72.4994 48.2582 72.5017 48.8768C72.504 49.4955 72.2864 49.8056 71.8491 49.8073L70.0571 49.8139C69.2655 52.0782 68.1739 53.9916 66.7824 55.5541C68.4405 56.8386 70.225 57.7013 72.136 58.1423C72.6057 58.2472 72.6283 58.5938 72.2039 59.182C71.7794 59.7809 71.3376 60.0119 70.8784 59.8749C68.8712 59.3597 67.1239 58.4862 65.6367 57.2543C65.412 57.0632 65.1879 57.0587 64.9646 57.2408C63.4652 58.4837 61.6499 59.4025 59.5188 59.997C59.0607 60.1481 58.6385 59.9256 58.2523 59.3297C57.8661 58.7445 57.9075 58.387 58.3763 58.2573C60.4438 57.7376 62.2805 56.8508 63.8865 55.5968C62.4942 54.0766 61.3511 52.1609 60.4572 49.8495L58.6012 49.8564C58.1639 49.858 57.9441 49.5495 57.9418 48.9308C57.9395 48.3121 58.157 48.002 58.5943 48.0004L64.6903 47.9778L64.0282 46.3322C63.8667 45.9275 64.1216 45.6279 64.7928 45.4334C65.4748 45.2282 65.9018 45.3226 66.0739 45.7166L66.59 46.8187C66.8051 47.2979 66.6623 47.6185 66.1616 47.7803L65.5383 47.9746L71.8422 47.9513ZM76.5965 48.5577C76.3192 48.5587 76.181 48.6979 76.1821 48.9752L76.185 49.7752C76.1866 50.2125 75.8728 50.4324 75.2435 50.4347C74.6248 50.437 74.3146 50.2195 74.313 49.7821L74.3047 47.5261C74.3028 47.0248 74.5579 46.7732 75.0699 46.7713L80.2858 46.752L79.996 46.257C79.7706 45.8845 79.9722 45.6011 80.6009 45.4068C81.2401 45.2124 81.6938 45.3014 81.9619 45.6738C82.1224 45.8332 82.3158 46.1898 82.5418 46.7436L87.2778 46.7261C87.7898 46.7242 88.0467 46.9739 88.0486 47.4752L88.0569 49.7312C88.0586 50.1685 87.7287 50.3884 87.0674 50.3909C86.4167 50.3933 86.0906 50.1758 86.0889 49.7385L86.086 48.9385C86.085 48.6612 85.9458 48.523 85.6684 48.524L76.5965 48.5577ZM87.5278 53.7492C87.9652 53.7476 88.1849 54.0507 88.1872 54.6587C88.1894 55.2561 87.9719 55.5555 87.5345 55.5572L82.2226 55.5769L82.2315 57.9928C82.2335 58.5155 82.1603 58.9158 82.012 59.1937C81.8637 59.4715 81.5978 59.6805 81.2143 59.8206C80.6711 60.036 79.9355 60.14 79.0074 60.1328C78.4101 60.1457 77.9716 59.8273 77.6919 59.1777C77.4122 58.5387 77.4537 58.2239 77.8164 58.2332C78.1151 58.2428 78.7711 58.2457 79.7844 58.2419C79.9444 58.2413 80.051 58.2196 80.1042 58.1767C80.168 58.1338 80.1997 58.059 80.1994 57.9524L80.1906 55.5844L74.9106 55.604C74.4733 55.6056 74.2535 55.3077 74.2513 54.7104C74.249 54.1024 74.4666 53.7976 74.9039 53.796L80.1839 53.7764C80.1818 53.2111 80.3669 52.7997 80.7393 52.5423L82.1279 51.6092L77.6319 51.6258C77.1946 51.6275 76.9748 51.3349 76.9726 50.7483C76.9704 50.151 77.188 49.8515 77.6253 49.8499L83.8169 49.7309C84.2542 49.7293 84.6815 49.893 85.0987 50.2222C85.5266 50.5512 85.5865 50.8764 85.2784 51.1975C84.5559 51.9682 83.5347 52.7346 82.2149 53.4969L82.2159 53.7689L87.5278 53.7492ZM95.1418 53.177C95.3778 53.5387 95.3313 53.9496 95.0023 54.4095C94.684 54.8587 94.4334 54.8863 94.2506 54.4923L93.6379 53.2145L93.661 59.4545C93.6626 59.8918 93.3754 60.1116 92.7995 60.1137C92.2235 60.1158 91.9346 59.8982 91.933 59.4609L91.9133 54.1329C91.4702 55.4679 91.0842 56.3654 90.7552 56.8252C90.5644 57.1353 90.3293 57.0135 90.0499 56.4599C89.7705 55.8955 89.7315 55.4584 89.933 55.1483C90.1666 54.8487 90.4789 54.2022 90.8698 53.2088C91.2608 52.2047 91.5558 51.2169 91.7549 50.2455L90.6349 50.2496C90.1975 50.2513 89.9778 49.9587 89.9756 49.3721C89.9734 48.7854 90.191 48.4913 90.6284 48.4897L91.8923 48.485L91.8826 45.845C91.8809 45.4077 92.1681 45.1879 92.7441 45.1858C93.3201 45.1837 93.6089 45.4012 93.6105 45.8386L93.6203 48.4786L94.5643 48.4751C95.0017 48.4734 95.2214 48.766 95.2236 49.3526C95.2258 49.9393 95.0082 50.2334 94.5708 50.2351L93.6269 50.2385L93.6295 50.9425L95.1418 53.177ZM97.1817 55.3134C97.619 55.3118 98.0086 55.3797 98.3505 55.5171C98.703 55.6544 98.7949 55.9848 98.6261 56.5081C98.2473 57.8961 97.4243 58.8965 96.1572 59.5092C95.7741 59.7453 95.4165 59.6613 95.0843 59.2572C94.7628 58.8531 94.7937 58.5489 95.1769 58.3449C95.7307 58.1188 96.278 57.5514 96.8186 56.6428L95.7306 56.6468C95.2933 56.6484 95.0738 56.4359 95.0723 56.0092C95.0707 55.5826 95.2885 55.3684 95.7259 55.3668L97.1817 55.3134ZM102.714 54.3329C103.033 54.0437 103.422 54.0743 103.882 54.4246C104.353 54.7642 104.386 55.084 103.982 55.3842C103.482 55.7487 102.902 56.1402 102.242 56.5587C103.013 57.3451 103.698 57.8386 104.296 58.0391C104.702 58.1976 104.719 58.5122 104.347 58.9829C103.976 59.4536 103.603 59.583 103.229 59.371C102.47 59.0325 101.673 58.2834 100.836 57.1239L100.701 59.3164C100.605 59.5407 100.398 59.7282 100.079 59.8787C99.7592 60.0399 99.3488 60.1107 98.8474 60.0913C98.2502 60.1148 97.8706 59.8656 97.7086 59.3435C97.5467 58.8321 97.6845 58.5756 98.1218 58.5739L98.7778 58.5715C98.9698 58.5708 99.0655 58.4958 99.0649 58.3464L99.0534 55.2265C99.0524 54.9491 98.9132 54.811 98.6358 54.812L97.0839 54.8178C96.6465 54.8194 96.4271 54.6069 96.4255 54.1802C96.4239 53.7429 96.6417 53.5234 97.079 53.5218L100.263 53.51L98.9012 53.019C98.3031 52.8079 98.158 52.5311 98.4661 52.1886L95.8581 52.1983C95.4208 52.1999 95.2013 51.9714 95.1996 51.5127C95.1978 51.0434 95.4156 50.8079 95.853 50.8063L99.005 50.7946L99.0026 50.1706L96.8747 50.1785C96.4373 50.1801 96.2179 49.9676 96.2163 49.5409C96.2147 49.1036 96.4325 48.8841 96.8699 48.8825L98.9978 48.8746L98.9956 48.2826L96.2917 48.2927C95.8543 48.2943 95.6348 48.0711 95.6332 47.6231C95.6315 47.1751 95.8493 46.9503 96.2867 46.9487L97.3267 46.9448L96.9081 46.2424C96.6933 45.8698 96.8203 45.5973 97.289 45.4249C97.7577 45.2525 98.1048 45.3526 98.3302 45.7251L98.7486 46.3955C98.8989 46.6403 98.8356 46.8219 98.5587 46.9402L101.135 46.9307C100.921 46.8568 100.952 46.542 101.227 45.9863C101.502 45.4307 101.848 45.2107 102.265 45.3265C102.969 45.5266 103.131 45.8833 102.749 46.3967L102.367 46.9261L103.679 46.9213C104.116 46.9196 104.335 47.1428 104.337 47.5908C104.339 48.0388 104.121 48.2636 103.684 48.2653L100.82 48.2759L100.822 48.8679L103.302 48.8587C103.739 48.8571 103.959 49.0749 103.96 49.5122C103.962 49.9389 103.744 50.153 103.307 50.1547L100.827 50.1639L100.829 50.7879L103.965 50.7762C104.402 50.7746 104.622 51.0085 104.624 51.4778C104.625 51.9365 104.407 52.1666 103.97 52.1682L101.298 52.1781C100.861 52.1798 100.877 52.281 101.347 52.4819C101.817 52.6829 102.133 52.9857 102.295 53.3904L102.135 53.615C101.806 53.9896 101.449 54.0816 101.064 53.891L100.824 53.7639L100.827 54.5639L101.407 55.5538L102.714 54.3329ZM114.037 57.1549C114.092 57.7201 114.003 58.0297 113.768 58.0839C112.979 58.2575 110.922 58.6972 107.597 59.4028C106.947 59.5546 106.53 59.3108 106.346 58.6715C106.173 58.0321 106.3 57.6796 106.726 57.614L109.109 57.2212L109.095 53.3652L107.335 53.3718C106.897 53.3734 106.677 53.0702 106.675 52.4622C106.673 51.8435 106.89 51.5334 107.328 51.5318L112.88 51.5112C113.317 51.5096 113.537 51.8181 113.539 52.4368C113.541 53.0448 113.324 53.3496 112.887 53.3512L110.983 53.3582L110.996 56.8782L113.33 56.4216C113.756 56.3453 113.992 56.5898 114.037 57.1549ZM119.698 47.8059C120.135 47.8043 120.355 48.1128 120.357 48.7315C120.36 49.3501 120.142 49.6603 119.705 49.6619L116.025 49.6755C116.204 52.0749 116.527 54.0684 116.991 55.656C117.456 57.2436 117.971 58.0364 118.536 58.0343C118.867 58.0331 119.04 57.4564 119.058 56.3043C119.108 55.5361 119.411 55.3377 119.967 55.709C120.523 56.0802 120.765 56.5647 120.693 57.1623C120.632 58.0372 120.421 58.7313 120.06 59.2446C119.71 59.7686 119.173 60.0319 118.447 60.0346C117.733 60.0373 117.113 59.7676 116.588 59.2255C116.074 58.6941 115.645 57.9383 115.3 56.9583C114.642 55.0407 114.212 52.6156 114.009 49.683L106.713 49.71C106.276 49.7117 106.056 49.4031 106.054 48.7845C106.051 48.1658 106.269 47.8557 106.706 47.8541L113.906 47.8274L113.851 45.8436C113.849 45.4062 114.19 45.1863 114.872 45.1838C115.555 45.1812 115.897 45.3986 115.899 45.836L115.922 47.8199L118.45 47.8105L117.053 46.5677C116.732 46.2809 116.779 45.966 117.194 45.6232C117.619 45.2696 117.998 45.2308 118.329 45.507L119.325 46.3353C119.731 46.6858 119.733 47.0378 119.328 47.3913L118.85 47.809L119.698 47.8059ZM126.277 54.8696C125.84 54.8712 125.62 54.5947 125.618 54.04C125.616 53.4747 125.834 53.1912 126.271 53.1896L129.327 53.1782C129.764 53.1766 129.984 53.4585 129.986 54.0238C129.988 54.5785 129.771 54.8566 129.333 54.8582L126.277 54.8696ZM136.366 58.5762C135.929 58.5778 135.709 58.264 135.706 57.6346C135.704 56.9946 135.922 56.6738 136.359 56.6722L138.247 56.6652L138.221 49.5933C138.22 49.3159 138.086 49.1778 137.819 49.1787L136.731 49.1828C136.294 49.1844 136.074 48.9452 136.072 48.4652C136.071 47.9745 136.304 47.675 136.773 47.5666C137.413 47.4576 138.094 47.1724 138.818 46.711L139.794 46.7074C140.306 46.7055 140.563 46.9606 140.565 47.4726L140.599 56.6565L142.167 56.6507C142.604 56.6491 142.824 56.9682 142.826 57.6082C142.829 58.2376 142.611 58.553 142.174 58.5547L136.366 58.5762Z" fill="black" fill-opacity="0.85"/>
</g>
<defs>
<clipPath id="clip0_2439_9567">
<rect width="200" height="90" fill="white"/>
</clipPath>
</defs>
</svg>
