<svg width="200" height="90" viewBox="0 0 200 90" fill="none" xmlns="http://www.w3.org/2000/svg">
<g clip-path="url(#clip0_1260_4412)">
<rect width="200" height="90" fill="#B8F9D9"/>
<path fill-rule="evenodd" clip-rule="evenodd" d="M-6.18027 85.5257C-5.5206 81.3514 -9.94765 77.2571 -7.65473 73.2393C-4.94813 68.4966 -1.65241 61.9915 7.77154 61.0783C17.9972 60.0873 23.5998 68.8258 33.9785 69.2048C45.8176 69.6371 56.5881 60.196 66.8872 63.2371C76.2425 65.9996 70.121 74.0119 68.9752 79.5387C68.1676 83.4341 61.5364 86.4306 61.2669 90.3457C60.8502 96.3973 75.7689 103.853 67.0229 107.895C58.3557 111.9 45.7383 103.802 34.2527 102.83C27.3162 102.243 20.5655 103.925 13.6182 103.373C4.65786 102.66 -7.2514 103.227 -11.7526 99.1698C-16.3208 95.0519 -6.92748 90.2539 -6.18027 85.5257Z" fill="#49CCBD"/>
<path fill-rule="evenodd" clip-rule="evenodd" d="M28.4743 10.5302C32.6486 10.8717 36.7429 8.58004 40.7607 9.76696C45.5034 11.168 52.0085 12.874 52.9217 17.7523C53.9127 23.0456 45.1742 25.9458 44.7952 31.3183C44.3629 37.4467 53.804 43.0221 50.7629 48.3534C48.0004 53.1961 39.9881 50.0274 34.4613 49.4342C30.5659 49.0162 27.5694 45.5836 23.6543 45.444C17.6027 45.2284 10.1469 52.9509 6.10508 48.4236C2.09968 43.9371 10.1975 37.4057 11.1701 31.4602C11.7575 27.8695 10.0747 24.3751 10.6274 20.7788C11.3402 16.1405 10.7727 9.97575 14.8302 7.64571C18.9481 5.281 23.7461 10.1434 28.4743 10.5302Z" fill="#3D7619"/>
<path fill-rule="evenodd" clip-rule="evenodd" d="M173.474 4.53021C177.649 4.87169 181.743 2.58004 185.761 3.76696C190.503 5.16803 197.008 6.87405 197.922 11.7523C198.913 17.0456 190.174 19.9458 189.795 25.3183C189.363 31.4467 198.804 37.0221 195.763 42.3534C193 47.1961 184.988 44.0274 179.461 43.4342C175.566 43.0162 172.569 39.5836 168.654 39.444C162.603 39.2284 155.147 46.9509 151.105 42.4236C147.1 37.9371 155.198 31.4057 156.17 25.4602C156.757 21.8695 155.075 18.3751 155.627 14.7788C156.34 10.1405 155.773 3.97575 159.83 1.64571C163.948 -0.719004 168.746 4.14342 173.474 4.53021Z" fill="#6EDDA4"/>
<path fill-rule="evenodd" clip-rule="evenodd" d="M117.063 7.20494C131.49 7.9797 144.155 11.9054 154.996 17.5775C166.733 23.7188 176.896 30.8598 179.688 39.9711C183.097 51.0949 184.354 63.7453 171.749 72.2549C158.691 81.0707 136.857 81.4742 117.063 82.2497C95.2362 83.1048 71.8992 84.7511 54.6033 76.8446C35.6156 68.1646 20.8565 53.9771 24.5773 39.9711C28.0889 26.7526 52.1053 19.9805 71.5388 13.0955C85.3864 8.18958 100.98 6.34119 117.063 7.20494Z" fill="#87EDBF"/>
<path fill-rule="evenodd" clip-rule="evenodd" d="M176.618 58.8089C175.515 57.8435 174.393 55.7656 173.735 53.2528C172.775 49.59 173.162 46.3904 174.599 46.1062C175.901 45.8487 177.619 48.0727 178.644 51.217C179.76 49.0059 181.059 47.5961 181.934 47.8216C183.113 48.1259 183.07 51.2917 181.839 54.8927C180.608 58.4936 178.653 61.1661 177.474 60.8618C176.923 60.7197 176.639 59.9529 176.618 58.8089Z" fill="#6ADFA6"/>
<path fill-rule="evenodd" clip-rule="evenodd" d="M176.618 58.8089C175.515 57.8435 174.393 55.7656 173.735 53.2528C172.775 49.59 173.162 46.3904 174.599 46.1062C175.901 45.8487 177.619 48.0727 178.644 51.217C179.76 49.0059 181.059 47.5961 181.934 47.8216C183.113 48.1259 183.07 51.2917 181.839 54.8927C180.608 58.4936 178.653 61.1661 177.474 60.8618C176.923 60.7197 176.639 59.9529 176.618 58.8089Z" fill="url(#paint0_radial_1260_4412)" fill-opacity="0.2"/>
<path d="M161.232 70.5835C161.232 78.5212 168.739 84.956 178 84.956C187.26 84.956 194.768 78.5212 194.768 70.5835C194.768 62.6457 187.26 56.2109 178 56.2109C168.739 56.2109 161.232 62.6457 161.232 70.5835Z" fill="#6ADFA6"/>
<path d="M172.199 73.4141C172.199 73.4141 172.948 77.897 178.111 77.897C183.274 77.897 183.777 73.4141 183.777 73.4141" stroke="black" stroke-width="2" stroke-linecap="round" stroke-linejoin="round"/>
<path d="M171.281 65.0156L175.135 66.6423L171.281 68.7218" stroke="black" stroke-width="2" stroke-linecap="round" stroke-linejoin="round"/>
<path d="M183.775 65.0156L179.922 66.6423L183.775 68.7218" stroke="black" stroke-width="2" stroke-linecap="round" stroke-linejoin="round"/>
<path d="M78.5278 36.9765C78.3743 36.9237 78.2772 36.8274 78.2367 36.6875C78.1962 36.5544 78.2058 36.4243 78.2653 36.2974C78.4239 35.9235 78.5457 35.5064 78.6306 35.0461C78.7156 34.5791 78.7567 33.9923 78.7541 33.2856C78.7539 33.2256 78.7537 33.1756 78.7536 33.1356C78.7534 33.0889 78.7532 33.0489 78.7531 33.0156C78.7529 32.9556 78.7527 32.8989 78.7525 32.8456C78.7523 32.7856 78.752 32.7056 78.7516 32.6056C78.7494 32.0189 78.9481 31.6482 79.3475 31.4934C79.2608 31.4937 79.1807 31.474 79.1073 31.4343C79.0338 31.3879 78.9802 31.3214 78.9465 31.2349C78.8994 31.1217 78.9024 31.015 78.9553 30.9148C79.0083 30.8146 79.0914 30.7477 79.2046 30.7139C79.3444 30.6667 79.4842 30.6162 79.624 30.5624C79.7638 30.5085 79.9036 30.4513 80.0434 30.3908C79.9565 30.3378 79.8664 30.2915 79.7729 30.2518C79.6861 30.2121 79.5993 30.1724 79.5124 30.1328C79.4256 30.0931 79.3687 30.0233 79.3417 29.9234C79.3213 29.8235 79.3343 29.7334 79.3807 29.6532C79.4337 29.5597 79.5068 29.5028 79.6 29.4824L78.84 29.4853C78.7 29.4858 78.5899 29.4428 78.5096 29.3565C78.4292 29.2634 78.3888 29.1536 78.3883 29.0269C78.3879 28.9003 78.4275 28.7934 78.5071 28.7065C78.5868 28.6195 78.6967 28.5758 78.8367 28.5753L80.2267 28.5701L80.2257 28.3101C80.225 28.1368 80.2779 27.9999 80.3842 27.8995C80.4971 27.7991 80.6303 27.7486 80.7836 27.748C80.9369 27.7475 81.0671 27.797 81.1742 27.8966C81.2879 27.9962 81.345 28.1326 81.3457 28.306L81.3466 28.566L82.5666 28.5614C82.64 28.5612 82.7 28.5709 82.7467 28.5908C82.7529 28.4641 82.7959 28.3606 82.8756 28.2803C82.9619 28.1933 83.0751 28.1495 83.2151 28.149L87.2351 28.1341C87.3818 28.1336 87.4953 28.1798 87.5756 28.2729C87.6626 28.3592 87.7063 28.469 87.7068 28.6024C87.7073 28.729 87.6644 28.8392 87.578 28.9329C87.4984 29.0265 87.3852 29.0736 87.2386 29.0741L85.7786 29.0795C85.7456 29.1863 85.7061 29.3065 85.6599 29.44C85.6204 29.5668 85.5808 29.6869 85.5413 29.8004L85.6613 29.8C86.2012 29.798 86.5849 29.8932 86.8123 30.0857C87.0463 30.2715 87.1642 30.5911 87.1659 31.0444L87.1756 33.6744C87.1773 34.121 87.0618 34.4415 86.8292 34.6357C86.6032 34.8298 86.2203 34.9279 85.6803 34.9299L84.7703 34.9333C84.7436 34.9334 84.7169 34.9335 84.6903 34.9336C84.6702 34.927 84.6469 34.9238 84.6202 34.9239C84.7136 34.9435 84.7905 34.9832 84.8507 35.043C84.9444 35.136 84.9914 35.2492 84.9919 35.3825C84.9991 35.5091 84.9562 35.6226 84.8632 35.723C84.6706 35.9304 84.4348 36.1479 84.1556 36.3756C83.8831 36.6099 83.6272 36.8009 83.3877 36.9484C83.2547 37.0356 83.1115 37.0695 82.9581 37.05C82.8047 37.0373 82.6811 36.9611 82.5873 36.8214C82.5135 36.7084 82.4897 36.5784 82.5158 36.4317C82.542 36.2916 82.6116 36.188 82.7247 36.1209C82.871 36.027 83.0306 35.9164 83.2034 35.7891C83.383 35.6618 83.5525 35.5345 83.712 35.4072C83.8782 35.2733 84.0144 35.1528 84.1207 35.0457C84.2204 34.9653 84.3269 34.9216 84.4402 34.9145C84.0201 34.8828 83.7163 34.7705 83.5289 34.5779C83.3482 34.3852 83.2571 34.0889 83.2556 33.6889L83.2459 31.0589C83.2444 30.6656 83.33 30.3719 83.5026 30.178C83.6819 29.984 83.9748 29.8662 84.3813 29.8247C84.4142 29.7113 84.4538 29.5878 84.5 29.4543C84.5461 29.3141 84.5823 29.1906 84.6086 29.0839L83.2186 29.089C83.1386 29.0893 83.0719 29.0762 83.0185 29.0498C83.0122 29.1631 82.9692 29.2633 82.8896 29.3502C82.8099 29.4305 82.7033 29.4709 82.57 29.4714L82.19 29.4728C82.1967 29.4795 82.2034 29.4861 82.2101 29.4928C82.2168 29.4927 82.2234 29.496 82.2301 29.5027C82.2904 29.5758 82.3207 29.6657 82.3211 29.7723C82.3215 29.8723 82.2818 29.9525 82.202 30.0128C82.1222 30.0731 82.0425 30.1334 81.9627 30.1937C81.8829 30.254 81.7965 30.311 81.7033 30.3646C81.7902 30.411 81.8703 30.4607 81.9439 30.5138C82.024 30.5601 82.0976 30.6099 82.1644 30.6629C82.258 30.7293 82.3117 30.8224 82.3255 30.9423C82.3459 31.0556 82.3196 31.159 82.2466 31.2526C82.2135 31.3061 82.157 31.3496 82.0771 31.3833L82.6171 31.3813C82.7571 31.3807 82.8672 31.4237 82.9476 31.51C83.0279 31.5964 83.0683 31.7029 83.0688 31.8296C83.0692 31.9563 83.0296 32.0631 82.9499 32.15C82.8703 32.237 82.7604 32.2807 82.6204 32.2813L82.3704 32.2822C82.3838 32.2955 82.3905 32.3054 82.3905 32.3121C82.4509 32.4052 82.4746 32.5085 82.4617 32.6218C82.4488 32.7286 82.3957 32.8154 82.3027 32.8824C82.1697 32.9763 82.0101 33.0802 81.8238 33.1942C81.6442 33.3015 81.4613 33.4089 81.275 33.5163C81.0887 33.6169 80.919 33.7042 80.766 33.7781C80.6395 33.8386 80.5096 33.8524 80.3761 33.8196C80.2493 33.7801 80.1557 33.6971 80.0952 33.5706C80.0481 33.4641 80.0444 33.3541 80.084 33.2407C80.1302 33.1272 80.2066 33.0469 80.3131 32.9998C80.5128 32.9191 80.7357 32.8116 80.9819 32.6773C81.2347 32.5431 81.4609 32.4122 81.6604 32.2848L80.3204 32.2898C80.1138 32.2905 79.9706 32.3277 79.8909 32.4014C79.8178 32.475 79.7816 32.6084 79.7823 32.8018L79.784 33.2618C79.7867 33.9684 79.749 34.5953 79.671 35.1422C79.593 35.6825 79.4483 36.1997 79.2368 36.6938C79.1772 36.8207 79.0776 36.9111 78.9378 36.9649C78.8046 37.0188 78.668 37.0226 78.5278 36.9765ZM80.3373 36.8498C80.1909 36.9103 80.0576 36.9175 79.9374 36.8712C79.8172 36.825 79.7303 36.7453 79.6765 36.6322C79.6227 36.5057 79.619 36.3857 79.6652 36.2722C79.7181 36.1587 79.8078 36.0784 79.9343 36.0312C80.1607 35.9437 80.4069 35.8362 80.6731 35.7085C80.9393 35.5742 81.2021 35.4332 81.4616 35.2856C81.721 35.1313 81.9471 34.9838 82.1399 34.8431C82.2396 34.7694 82.3496 34.7456 82.4697 34.7718C82.5898 34.7981 82.6833 34.8644 82.7504 34.9708C82.8241 35.0639 82.8511 35.1704 82.8316 35.2905C82.812 35.4106 82.7524 35.5075 82.6527 35.5812C82.4532 35.7352 82.2171 35.8928 81.9444 36.0538C81.6783 36.2148 81.4055 36.3625 81.126 36.4968C80.8466 36.6379 80.5837 36.7555 80.3373 36.8498ZM87.0076 36.915C86.7871 36.7625 86.5397 36.5801 86.2656 36.3678C85.9915 36.1555 85.7574 35.9463 85.5633 35.7404C85.4696 35.6407 85.4258 35.5275 85.432 35.4009C85.4448 35.2675 85.4944 35.154 85.5807 35.0603C85.6737 34.9666 85.7936 34.9228 85.9403 34.929C86.087 34.9351 86.2071 34.9846 86.3008 35.0776C86.4614 35.2237 86.672 35.3929 86.9327 35.5853C87.1934 35.771 87.4373 35.9334 87.6645 36.0726C87.7781 36.1455 87.8452 36.2553 87.8657 36.4018C87.8929 36.5484 87.8701 36.6785 87.7972 36.7921C87.711 36.9324 87.5913 37.0095 87.438 37.0234C87.2848 37.0373 87.1413 37.0012 87.0076 36.915ZM80.5815 35.2688C80.455 35.316 80.3284 35.3231 80.2016 35.2902C80.0814 35.2574 79.9945 35.1777 79.9407 35.0512C79.8936 34.938 79.8865 34.8281 79.9195 34.7213C79.9591 34.6145 80.0421 34.5375 80.1686 34.4904C80.4548 34.376 80.761 34.2248 81.0869 34.037C81.4196 33.8491 81.7122 33.6613 81.9648 33.4737C82.0646 33.4 82.1745 33.3763 82.2946 33.4025C82.4147 33.4287 82.5083 33.495 82.5753 33.6014C82.6423 33.6945 82.666 33.7944 82.6464 33.9012C82.6335 34.0079 82.5805 34.0981 82.4874 34.1718C82.2082 34.3728 81.8923 34.5773 81.5397 34.7853C81.1871 34.9866 80.8677 35.1478 80.5815 35.2688ZM84.9869 34.0225L85.4569 34.0208C85.7102 34.0198 85.8768 33.9892 85.9566 33.9289C86.043 33.8619 86.0858 33.7151 86.0849 33.4884L86.0847 33.4184L84.3547 33.4248L84.3549 33.4948C84.3558 33.7215 84.3963 33.868 84.4766 33.9344C84.5635 33.9941 84.7336 34.0234 84.9869 34.0225ZM84.3517 32.6148L86.0817 32.6084L86.0797 32.0684L84.3497 32.0748L84.3517 32.6148ZM84.3467 31.2649L86.0767 31.2584L86.0766 31.2384C86.0757 31.0118 86.0319 30.8686 85.945 30.8089C85.8647 30.7426 85.698 30.7098 85.4446 30.7108L84.9746 30.7125C84.7213 30.7135 84.5514 30.7474 84.465 30.8144C84.3852 30.8747 84.3458 31.0182 84.3466 31.2449L84.3467 31.2649ZM79.6772 31.4122C79.7305 31.4053 79.7805 31.4018 79.8271 31.4016C79.8805 31.3947 79.9338 31.3912 79.9871 31.391L81.7171 31.3846C81.6704 31.3648 81.6236 31.3416 81.5768 31.3151C81.4766 31.2422 81.3696 31.1692 81.256 31.0963C81.1424 31.0167 81.0221 30.9405 80.8952 30.8676C80.6956 30.975 80.4926 31.0758 80.2863 31.1699C80.0799 31.2573 79.8769 31.3381 79.6772 31.4122ZM80.9217 29.9375C81.0548 29.8637 81.1812 29.7866 81.3009 29.7061C81.4206 29.6257 81.5336 29.5486 81.64 29.4749L79.87 29.4814C79.8834 29.4814 79.8967 29.4847 79.9101 29.4913C79.9234 29.4912 79.9367 29.4945 79.9501 29.5011C80.1036 29.5539 80.2605 29.62 80.4208 29.6994C80.5878 29.7721 80.7547 29.8515 80.9217 29.9375ZM92.5376 36.8945C91.9309 36.8968 91.4341 36.8653 91.0472 36.8001C90.6603 36.7348 90.3566 36.6193 90.1359 36.4534C89.922 36.2876 89.7711 36.0548 89.6834 35.7551C89.6022 35.4554 89.5608 35.0689 89.5591 34.5956L89.5513 32.5056C89.5496 32.0456 89.6149 31.682 89.7473 31.4148C89.8796 31.141 90.0989 30.9469 90.4051 30.8324C90.718 30.7112 91.1378 30.6497 91.6644 30.6477L92.7544 30.6437C92.8207 30.5501 92.8937 30.4498 92.9733 30.3429C93.0529 30.2359 93.1159 30.149 93.1623 30.0822C93.3348 29.8415 93.271 29.7218 92.971 29.7229L91.361 29.7288C90.7032 30.3113 90.0084 30.8205 89.2767 31.2566C89.1237 31.3438 88.9638 31.3777 88.797 31.3584C88.6303 31.339 88.5 31.2595 88.4062 31.1198C88.2989 30.9669 88.2617 30.8103 88.2944 30.6502C88.3272 30.4901 88.4333 30.3597 88.613 30.259C88.9523 30.0644 89.2981 29.8332 89.6504 29.5652C90.0094 29.2972 90.3484 29.0159 90.6673 28.7214C90.9862 28.4269 91.2518 28.1459 91.4642 27.8784C91.5836 27.7247 91.7333 27.6441 91.9133 27.6368C92.0932 27.6228 92.2434 27.6622 92.3637 27.7551C92.4974 27.8546 92.5712 27.981 92.5851 28.1343C92.6057 28.2876 92.5695 28.4277 92.4767 28.5547C92.4501 28.5815 92.4236 28.6116 92.397 28.645C92.3771 28.6717 92.3572 28.6985 92.3373 28.7252L93.5473 28.7207C93.9406 28.7193 94.2376 28.7948 94.4382 28.9474C94.6454 29.0933 94.7527 29.2863 94.7603 29.5262C94.7745 29.7595 94.6888 30.0098 94.5031 30.2772C94.4169 30.4109 94.3307 30.5312 94.2444 30.6382L94.5544 30.637C95.0677 30.6351 95.4646 30.6903 95.745 30.8026C96.0321 30.9082 96.2327 31.0841 96.347 31.3304C96.4612 31.5766 96.5192 31.9131 96.5207 32.3397C96.5223 32.7664 96.4669 33.1066 96.3545 33.3604C96.2421 33.6074 96.0428 33.7882 95.7565 33.9026C95.4769 34.0103 95.0805 34.0651 94.5671 34.067L90.7572 34.0811L90.759 34.5911C90.76 34.8511 90.7808 35.061 90.8214 35.2209C90.862 35.3807 90.9424 35.5038 91.0627 35.59C91.183 35.6695 91.3599 35.7256 91.5934 35.758C91.8335 35.7838 92.1469 35.796 92.5335 35.7945L94.3835 35.7877C94.8768 35.7859 95.2467 35.7578 95.4932 35.7036C95.7463 35.6493 95.926 35.5586 96.0322 35.4316C96.1451 35.3045 96.2278 35.1342 96.2803 34.9206C96.3197 34.7672 96.4193 34.6501 96.579 34.5695C96.7454 34.4889 96.9087 34.475 97.0689 34.5277C97.2424 34.5737 97.366 34.6633 97.4399 34.7963C97.5203 34.9294 97.5442 35.0793 97.5115 35.2461C97.4331 35.6597 97.2909 35.9836 97.0851 36.2177C96.886 36.4584 96.5733 36.6296 96.147 36.7312C95.7207 36.8327 95.1342 36.8849 94.3876 36.8877L92.5376 36.8945ZM90.7534 33.0611L92.4434 33.0549L92.4383 31.6949L91.6683 31.6977C91.3017 31.6991 91.0552 31.7533 90.9289 31.8605C90.8093 31.9676 90.7501 32.1811 90.7513 32.5011L90.7534 33.0611ZM93.6434 33.0504L94.5633 33.047C94.87 33.0459 95.0698 32.9985 95.1628 32.9048C95.2625 32.8111 95.3118 32.6309 95.3108 32.3642C95.3098 32.0909 95.2591 31.9111 95.1588 31.8248C95.0651 31.7318 94.865 31.6859 94.5583 31.687L93.6383 31.6904L93.6434 33.0504ZM106.418 36.9231C106.177 36.8373 105.907 36.7216 105.607 36.5761C105.306 36.4305 105.009 36.2683 104.715 36.0894C104.421 35.9105 104.16 35.7348 103.933 35.5623C103.812 35.4694 103.742 35.353 103.721 35.2131C103.708 35.0664 103.744 34.9363 103.83 34.8227C103.903 34.7357 103.983 34.6788 104.069 34.6518L101.989 34.6595C102.029 34.6793 102.07 34.7025 102.11 34.729C102.15 34.7556 102.183 34.7888 102.21 34.8287C102.304 34.955 102.334 35.0882 102.301 35.2283C102.275 35.3618 102.209 35.472 102.103 35.5591C101.903 35.7198 101.661 35.8874 101.375 36.0618C101.089 36.2362 100.792 36.3973 100.486 36.5451C100.187 36.6928 99.9107 36.8172 99.6577 36.9181C99.4647 36.9922 99.2914 37.0095 99.1379 36.9701C98.9845 36.9373 98.8708 36.8377 98.7968 36.6713C98.7296 36.5182 98.7257 36.3716 98.7852 36.2314C98.8447 36.0911 98.961 35.9907 99.1341 35.9301C99.3871 35.8358 99.6533 35.7248 99.9328 35.5971C100.219 35.4627 100.492 35.325 100.751 35.1841C101.011 35.0364 101.234 34.8956 101.42 34.7616C101.446 34.7415 101.473 34.7247 101.5 34.7113C101.533 34.6912 101.563 34.6744 101.589 34.661L98.8594 34.6711C98.7194 34.6716 98.5992 34.6254 98.4989 34.5324C98.4052 34.4328 98.3581 34.3163 98.3576 34.1829C98.3571 34.0429 98.4033 33.9261 98.4963 33.8324C98.5959 33.7321 98.7157 33.6816 98.8557 33.6811L99.2357 33.6797L99.1413 29.79C99.1335 29.49 99.156 29.2499 99.2086 29.0698C99.2679 28.8829 99.3774 28.7358 99.537 28.6285C99.6966 28.5146 99.9262 28.4204 100.226 28.346C100.339 28.3122 100.452 28.2818 100.566 28.2547C100.686 28.2209 100.802 28.1872 100.915 28.1534C101.042 28.1196 101.162 28.1258 101.275 28.1721C101.389 28.2117 101.466 28.298 101.506 28.4312C101.553 28.5777 101.547 28.7044 101.488 28.8113C101.435 28.9115 101.342 28.9785 101.208 29.0123C101.122 29.0393 101.029 29.0697 100.929 29.1034C100.829 29.1304 100.742 29.1507 100.669 29.1643C100.463 29.2184 100.333 29.2823 100.28 29.3558C100.227 29.4226 100.204 29.5594 100.211 29.766L100.212 30.076L100.992 30.0731C101.126 30.0727 101.236 30.1156 101.323 30.2019C101.417 30.2882 101.464 30.3981 101.464 30.5314C101.465 30.6581 101.418 30.7682 101.325 30.8619C101.239 30.9489 101.129 30.9926 100.996 30.9931L100.236 30.996L100.259 31.8559L100.999 31.8531C101.132 31.8526 101.242 31.8956 101.329 31.9819C101.423 32.0682 101.47 32.1781 101.471 32.3114C101.471 32.4381 101.425 32.5482 101.332 32.6419C101.246 32.7289 101.136 32.7726 101.002 32.7731L100.282 32.7758L100.306 33.6757L101.796 33.6702L101.789 31.9502C101.789 31.8102 101.835 31.7 101.928 31.6197C102.021 31.5327 102.131 31.4889 102.258 31.4885C102.391 31.488 102.501 31.5309 102.588 31.6172C102.682 31.6969 102.729 31.8067 102.729 31.9467L102.736 33.6667L103.286 33.6647L103.278 31.6747C103.278 31.4814 103.25 31.3581 103.197 31.305C103.15 31.2452 103.02 31.2156 102.807 31.2164C102.427 31.2178 102.16 31.1488 102.006 31.0094C101.859 30.8633 101.784 30.5935 101.783 30.2002L101.776 28.3702C101.775 28.2169 101.825 28.0934 101.925 27.9997C102.024 27.906 102.144 27.8589 102.284 27.8583C102.424 27.8578 102.544 27.904 102.645 27.997C102.752 28.0899 102.805 28.2131 102.806 28.3664L102.808 28.8064L103.848 28.8026C103.968 28.8021 104.071 28.8451 104.158 28.9314C104.245 29.0111 104.289 29.1109 104.289 29.2309C104.29 29.3509 104.247 29.4544 104.16 29.5414C104.074 29.6284 103.971 29.6721 103.851 29.6725L102.811 29.6764L102.812 29.9764C102.813 30.1564 102.846 30.2729 102.913 30.326C102.98 30.3724 103.11 30.3953 103.304 30.3946C103.617 30.3934 103.847 30.4726 103.994 30.632C104.148 30.7848 104.226 31.0512 104.227 31.4312L104.236 33.6611L105.686 33.6558L105.702 32.7657L104.952 32.7685C104.826 32.769 104.716 32.7227 104.622 32.6297C104.535 32.5367 104.491 32.4269 104.491 32.3002C104.49 32.1735 104.533 32.0667 104.619 31.9797C104.712 31.886 104.822 31.839 104.949 31.8385L105.719 31.8356L105.726 30.9756L104.946 30.9785C104.819 30.979 104.709 30.936 104.615 30.8497C104.528 30.7567 104.485 30.6469 104.484 30.5202C104.484 30.3869 104.526 30.2767 104.613 30.1897C104.706 30.1027 104.816 30.059 104.942 30.0585L105.742 30.0555L105.751 29.7455C105.757 29.5321 105.723 29.3923 105.65 29.3259C105.576 29.2528 105.433 29.2167 105.219 29.2175L104.749 29.2192C104.623 29.2197 104.512 29.1734 104.419 29.0804C104.325 28.9875 104.278 28.8776 104.277 28.751C104.277 28.6176 104.323 28.5041 104.416 28.4104C104.509 28.3168 104.619 28.2697 104.746 28.2692L105.286 28.2672C105.692 28.2657 106.006 28.3112 106.226 28.4037C106.453 28.4896 106.61 28.639 106.698 28.852C106.785 29.065 106.823 29.3582 106.811 29.7316L106.746 33.6518L107.146 33.6504C107.286 33.6498 107.403 33.6994 107.496 33.7991C107.597 33.892 107.647 34.0085 107.648 34.1485C107.648 34.2818 107.598 34.3987 107.499 34.4991C107.406 34.5927 107.289 34.6398 107.149 34.6404L104.399 34.6505C104.433 34.6571 104.466 34.6703 104.5 34.6902C104.54 34.71 104.573 34.7299 104.6 34.7498C104.8 34.8891 105.037 35.0349 105.311 35.1872C105.585 35.3328 105.866 35.4718 106.153 35.6041C106.447 35.7296 106.707 35.832 106.934 35.9112C107.088 35.9573 107.191 36.0469 107.245 36.18C107.306 36.3198 107.309 36.4631 107.257 36.61C107.191 36.7969 107.074 36.9073 106.908 36.9413C106.748 36.9819 106.585 36.9758 106.418 36.9231ZM110.579 37.1277C110.419 37.1283 110.278 37.0721 110.158 36.9592C110.044 36.853 109.987 36.7132 109.986 36.5399L109.975 33.4299C109.973 33.0099 110.025 32.683 110.131 32.4493C110.244 32.2155 110.43 32.0515 110.689 31.9572C110.956 31.8629 111.319 31.8149 111.779 31.8132L114.229 31.8041C114.689 31.8024 115.049 31.8477 115.309 31.9401C115.576 32.0324 115.764 32.1951 115.871 32.428C115.979 32.6609 116.033 32.9874 116.035 33.4074L116.043 35.5774C116.044 35.9574 115.995 36.2542 115.896 36.4679C115.804 36.6883 115.644 36.8422 115.418 36.9297C115.198 37.0172 114.895 37.0617 114.508 37.0631C114.315 37.0638 114.165 37.011 114.058 36.9048C113.951 36.8052 113.89 36.6721 113.876 36.5054C113.869 36.3588 113.912 36.2253 114.005 36.105C114.098 35.9846 114.224 35.9175 114.384 35.9035C114.611 35.876 114.747 35.8389 114.794 35.792C114.847 35.7452 114.873 35.6384 114.872 35.4717L114.872 35.2917L111.162 35.3055L111.166 36.5355C111.167 36.7088 111.111 36.849 110.998 36.9561C110.885 37.0699 110.745 37.127 110.579 37.1277ZM115.258 31.4903C114.698 31.4924 114.264 31.4506 113.957 31.3651C113.657 31.2729 113.446 31.1137 113.325 30.8874C113.205 30.6546 113.143 30.3248 113.142 29.8981L113.136 28.1981C113.135 28.0248 113.188 27.8879 113.294 27.7875C113.407 27.6871 113.54 27.6366 113.693 27.6361C113.847 27.6355 113.977 27.685 114.084 27.7846C114.191 27.8842 114.245 28.0207 114.245 28.194L114.248 28.914C114.448 28.8266 114.667 28.7291 114.907 28.6216C115.153 28.514 115.386 28.4098 115.606 28.309C115.832 28.2015 116.015 28.1108 116.155 28.0369C116.308 27.9564 116.455 27.9392 116.595 27.9853C116.742 28.0314 116.849 28.121 116.916 28.2541C116.99 28.3938 116.997 28.5305 116.937 28.664C116.884 28.7976 116.788 28.8946 116.648 28.9551C116.455 29.0425 116.216 29.1434 115.929 29.2578C115.643 29.3722 115.35 29.4833 115.051 29.591C114.751 29.6921 114.485 29.7831 114.252 29.864C114.252 30.0173 114.276 30.1372 114.323 30.2237C114.377 30.3102 114.48 30.3698 114.634 30.4026C114.787 30.4287 115.01 30.4412 115.304 30.4401C115.61 30.439 115.84 30.4214 115.994 30.3875C116.154 30.3536 116.267 30.2932 116.333 30.2063C116.406 30.1193 116.462 29.9958 116.502 29.8357C116.548 29.6888 116.641 29.5851 116.78 29.5246C116.92 29.4641 117.067 29.4569 117.22 29.503C117.387 29.549 117.501 29.6353 117.561 29.7617C117.622 29.8882 117.632 30.0315 117.593 30.1916C117.521 30.5186 117.402 30.7757 117.236 30.9629C117.07 31.1502 116.83 31.2845 116.517 31.3656C116.204 31.4468 115.784 31.4883 115.258 31.4903ZM111.869 31.7128C111.715 31.7134 111.582 31.6639 111.468 31.5643C111.361 31.4647 111.307 31.3316 111.306 31.1649L111.306 30.9849C111.106 31.039 110.866 31.0999 110.586 31.1676C110.307 31.2353 110.03 31.2997 109.757 31.3607C109.491 31.4217 109.271 31.4725 109.098 31.5131C108.938 31.547 108.794 31.5276 108.668 31.4547C108.547 31.3818 108.47 31.2621 108.436 31.0956C108.409 30.9423 108.432 30.8089 108.505 30.6953C108.584 30.5817 108.704 30.5112 108.864 30.484C109.064 30.4499 109.314 30.4056 109.613 30.3512C109.913 30.2901 110.216 30.229 110.523 30.1678C110.829 30.1067 111.089 30.0557 111.302 30.0149L111.301 29.5849L109.021 29.5934C108.874 29.5939 108.757 29.5477 108.67 29.4547C108.59 29.3616 108.549 29.2518 108.549 29.1251C108.548 28.9918 108.588 28.8783 108.668 28.7847C108.754 28.691 108.87 28.6439 109.017 28.6434L111.297 28.6349L111.296 28.2049C111.295 28.0316 111.348 27.8947 111.454 27.7944C111.567 27.6939 111.7 27.6434 111.853 27.6429C112.007 27.6423 112.137 27.6918 112.244 27.7914C112.351 27.891 112.405 28.0275 112.406 28.2008L112.416 31.1608C112.417 31.3275 112.364 31.461 112.258 31.5614C112.152 31.6618 112.022 31.7123 111.869 31.7128ZM111.159 34.4555L114.869 34.4417L114.867 33.9917L111.157 34.0055L111.159 34.4555ZM111.164 33.1555L114.854 33.1418C114.84 32.9618 114.779 32.8421 114.673 32.7825C114.566 32.7229 114.379 32.6935 114.112 32.6945L111.902 32.7027C111.642 32.7037 111.459 32.7344 111.353 32.7948C111.246 32.8552 111.183 32.9754 111.164 33.1555ZM118.81 32.0571C118.677 32.0576 118.56 32.0114 118.459 31.9184C118.366 31.8254 118.319 31.7123 118.318 31.5789C118.318 31.4456 118.364 31.3321 118.457 31.2384C118.556 31.1447 118.673 31.0976 118.806 31.0971L122.336 31.084L122.335 30.684L121.645 30.6866C121.218 30.6882 120.881 30.6461 120.634 30.5603C120.394 30.4679 120.223 30.3152 120.123 30.1022C120.022 29.8826 119.971 29.5895 119.969 29.2228C119.968 28.8495 120.017 28.556 120.116 28.3423C120.215 28.1285 120.385 27.9779 120.624 27.8904C120.871 27.7961 121.207 27.7482 121.634 27.7466L124.374 27.7365C124.807 27.7349 125.144 27.7803 125.384 27.8727C125.625 27.9585 125.795 28.1079 125.896 28.3208C125.997 28.5338 126.048 28.8269 126.049 29.2003C126.051 29.5669 126.002 29.8604 125.903 30.0808C125.803 30.2945 125.634 30.4485 125.394 30.5427C125.155 30.6303 124.818 30.6748 124.385 30.6764L123.665 30.6791L123.666 31.0791L127.186 31.0661C127.32 31.0656 127.433 31.1118 127.527 31.2048C127.62 31.2978 127.668 31.4109 127.668 31.5443C127.668 31.6776 127.622 31.7911 127.529 31.8848C127.436 31.9785 127.323 32.0256 127.19 32.0261L118.81 32.0571ZM122.008 37.0253C121.842 37.0259 121.698 36.9764 121.578 36.8769C121.464 36.784 121.404 36.6475 121.396 36.4676C121.389 36.3009 121.435 36.1674 121.535 36.067C121.641 35.9667 121.784 35.9095 121.964 35.8955C122.191 35.8813 122.337 35.8474 122.404 35.7938C122.477 35.7336 122.513 35.6268 122.513 35.4734L122.509 34.5134L121.479 34.5172C121.546 34.557 121.599 34.6068 121.64 34.6666C121.727 34.793 121.76 34.9262 121.741 35.0663C121.728 35.2063 121.665 35.3232 121.552 35.417C121.386 35.5376 121.19 35.6717 120.964 35.8192C120.738 35.9667 120.505 36.1075 120.265 36.2418C120.026 36.3826 119.803 36.5035 119.597 36.6042C119.424 36.6915 119.257 36.7155 119.097 36.6761C118.937 36.6433 118.816 36.5471 118.736 36.3874C118.655 36.2411 118.641 36.0944 118.694 35.9476C118.747 35.8007 118.853 35.6903 119.013 35.6164C119.173 35.5425 119.369 35.4417 119.602 35.3142C119.835 35.1867 120.064 35.0558 120.29 34.9217C120.517 34.7875 120.703 34.6701 120.849 34.5696C120.869 34.5562 120.889 34.5428 120.909 34.5294C120.936 34.5159 120.959 34.5058 120.979 34.4991C120.612 34.4605 120.352 34.3581 120.198 34.192C120.044 34.0259 119.966 33.7795 119.965 33.4528C119.964 33.0795 120.066 32.8091 120.272 32.6417C120.485 32.4676 120.858 32.3795 121.391 32.3776L124.641 32.3655C125.174 32.3635 125.545 32.4488 125.752 32.6214C125.966 32.7873 126.074 33.0569 126.075 33.4302C126.076 33.7635 125.997 34.0172 125.838 34.1911C125.678 34.3583 125.399 34.4594 124.999 34.4942C125.026 34.5008 125.049 34.5107 125.069 34.5239C125.089 34.5305 125.112 34.5404 125.139 34.5537C125.293 34.6531 125.483 34.7691 125.71 34.9016C125.938 35.0274 126.168 35.1499 126.402 35.269C126.636 35.3881 126.839 35.4874 127.013 35.5667C127.146 35.6196 127.237 35.7226 127.284 35.8757C127.338 36.0222 127.328 36.1622 127.256 36.2958C127.183 36.4494 127.067 36.5499 126.907 36.5971C126.747 36.6444 126.59 36.635 126.437 36.5689C126.25 36.4829 126.036 36.3737 125.795 36.2413C125.555 36.1088 125.318 35.973 125.084 35.8339C124.85 35.6881 124.653 35.5555 124.492 35.4361C124.372 35.3432 124.298 35.2235 124.271 35.0769C124.251 34.9303 124.287 34.7968 124.38 34.6765C124.433 34.603 124.506 34.546 124.599 34.5057L123.689 34.5091L123.693 35.659C123.695 36.1457 123.56 36.4929 123.287 36.7006C123.021 36.9082 122.595 37.0165 122.008 37.0253ZM121.606 33.7268L124.436 33.7163C124.603 33.7157 124.709 33.6953 124.756 33.6551C124.809 33.6149 124.835 33.5415 124.835 33.4348C124.835 33.3281 124.808 33.2582 124.754 33.2251C124.707 33.1853 124.601 33.1657 124.434 33.1663L121.604 33.1768C121.437 33.1774 121.327 33.1978 121.274 33.238C121.228 33.2715 121.205 33.3416 121.205 33.4483C121.205 33.5549 121.229 33.6282 121.276 33.668C121.329 33.7078 121.439 33.7274 121.606 33.7268ZM121.178 28.8783L124.848 28.8647C124.821 28.6981 124.757 28.5951 124.657 28.5554C124.557 28.5091 124.38 28.4864 124.127 28.4874L121.887 28.4957C121.64 28.4966 121.467 28.5206 121.367 28.5676C121.267 28.608 121.204 28.7116 121.178 28.8783ZM121.892 29.9357L124.132 29.9274C124.379 29.9265 124.552 29.9058 124.652 29.8654C124.752 29.8184 124.815 29.7148 124.841 29.5547L121.181 29.5683C121.208 29.7282 121.272 29.8313 121.372 29.8776C121.472 29.9172 121.645 29.9366 121.892 29.9357Z" fill="#1CB76B"/>
<path d="M91.1252 59.1528C90.8692 59.1538 90.6449 59.064 90.4522 58.8833C90.2703 58.7133 90.1788 58.4897 90.1777 58.2124L90.1593 53.2364C90.1568 52.5644 90.2402 52.0414 90.4095 51.6674C90.5894 51.2934 90.8871 51.031 91.3026 50.8801C91.7287 50.7292 92.3097 50.6524 93.0457 50.6497L96.9657 50.6351C97.7017 50.6324 98.278 50.7049 98.6945 50.8527C99.1217 51.0005 99.4214 51.2607 99.5934 51.6334C99.7655 52.0061 99.8527 52.5285 99.8552 53.2004L99.8681 56.6724C99.8704 57.2804 99.7921 57.7554 99.6334 58.0973C99.4854 58.4499 99.2303 58.6961 98.8681 58.8361C98.5166 58.9761 98.0316 59.0472 97.4129 59.0495C97.1036 59.0507 96.8633 58.9662 96.692 58.7962C96.5207 58.6368 96.4239 58.4239 96.4016 58.1573C96.3901 57.9227 96.4586 57.7091 96.6072 57.5165C96.7558 57.324 96.9581 57.2165 97.214 57.1943C97.5765 57.1503 97.795 57.0908 97.8694 57.0158C97.9544 56.9409 97.9965 56.77 97.9955 56.5034L97.9944 56.2154L92.0584 56.2374L92.0657 58.2054C92.0668 58.4827 91.9769 58.707 91.7962 58.8784C91.6156 59.0604 91.3919 59.1519 91.1252 59.1528ZM98.6119 50.133C97.7159 50.1364 97.0223 50.0696 96.5311 49.9327C96.0506 49.7852 95.7136 49.5304 95.5203 49.1685C95.3269 48.7959 95.2289 48.2682 95.2264 47.5856L95.2163 44.8656C95.2153 44.5883 95.2998 44.3693 95.4699 44.2086C95.6506 44.048 95.8637 43.9672 96.109 43.9663C96.3543 43.9654 96.5626 44.0446 96.7339 44.204C96.9051 44.3633 96.9913 44.5817 96.9923 44.859L96.9966 46.011C97.3161 45.8711 97.6675 45.7152 98.0508 45.5431C98.4449 45.371 98.8176 45.2042 99.169 45.0429C99.531 44.8709 99.8238 44.7258 100.047 44.6077C100.292 44.4788 100.527 44.4512 100.751 44.5251C100.986 44.5989 101.157 44.7422 101.265 44.9552C101.383 45.1787 101.394 45.3974 101.299 45.611C101.215 45.8247 101.06 45.9799 100.837 46.0768C100.528 46.2166 100.145 46.378 99.6866 46.561C99.2286 46.7441 98.76 46.9218 98.2806 47.0942C97.8012 47.256 97.3751 47.4016 97.0022 47.531C97.0031 47.7763 97.0412 47.9682 97.1163 48.1066C97.2022 48.2449 97.3679 48.3403 97.6134 48.3927C97.8589 48.4345 98.2163 48.4545 98.6856 48.4528C99.1763 48.4509 99.5442 48.4229 99.7893 48.3687C100.045 48.3144 100.226 48.2177 100.332 48.0786C100.449 47.9395 100.539 47.7419 100.602 47.4856C100.676 47.2507 100.825 47.0848 101.048 46.988C101.272 46.8912 101.506 46.8796 101.752 46.9534C102.019 47.0271 102.201 47.165 102.298 47.3674C102.394 47.5697 102.411 47.7989 102.348 48.0552C102.233 48.5783 102.042 48.9896 101.777 49.2893C101.511 49.589 101.128 49.8037 100.627 49.9336C100.126 50.0634 99.4545 50.1299 98.6119 50.133ZM93.1891 50.4891C92.9438 50.49 92.7302 50.4108 92.5483 50.2515C92.377 50.0921 92.2909 49.8791 92.2899 49.6125L92.2888 49.3245C91.9691 49.411 91.5855 49.5084 91.1379 49.6167C90.6903 49.7251 90.248 49.828 89.811 49.9257C89.3847 50.0232 89.033 50.1045 88.7559 50.1696C88.5001 50.2239 88.2707 50.1927 88.0676 50.0761C87.8751 49.9595 87.7518 49.768 87.6974 49.5015C87.6539 49.2563 87.6904 49.0428 87.8071 48.8611C87.9344 48.6793 88.126 48.5666 88.3818 48.5229C88.7016 48.4684 89.1014 48.3976 89.581 48.3105C90.0607 48.2127 90.5457 48.1149 91.036 48.0171C91.5263 47.9193 91.942 47.8377 92.2831 47.7725L92.2805 47.0845L88.6325 47.098C88.3979 47.0989 88.2109 47.0249 88.0717 46.8761C87.9432 46.7272 87.8785 46.5515 87.8778 46.3488C87.877 46.1355 87.9403 45.9539 88.0677 45.8041C88.2059 45.6542 88.3922 45.5789 88.6269 45.578L92.2749 45.5645L92.2723 44.8765C92.2713 44.5992 92.3558 44.3802 92.5259 44.2196C92.7066 44.0589 92.9197 43.9781 93.165 43.9772C93.4103 43.9763 93.6186 44.0555 93.7899 44.2149C93.9611 44.3742 94.0473 44.5926 94.0483 44.8699L94.0659 49.6059C94.0669 49.8725 93.9823 50.0862 93.8122 50.2468C93.6422 50.4075 93.4345 50.4882 93.1891 50.4891ZM92.0534 54.8774L97.9894 54.8554L97.9867 54.1354L92.0507 54.1574L92.0534 54.8774ZM92.0617 52.7973L97.9657 52.7755C97.9432 52.4875 97.8465 52.2959 97.6755 52.2005C97.5045 52.1052 97.2057 52.0583 96.779 52.0598L93.243 52.073C92.827 52.0745 92.5339 52.1236 92.3636 52.2202C92.1932 52.3168 92.0926 52.5092 92.0617 52.7973ZM104.295 51.04C104.082 51.0408 103.895 50.9668 103.734 50.8181C103.585 50.6693 103.509 50.4882 103.508 50.2749C103.508 50.0616 103.582 49.8799 103.73 49.7301C103.89 49.5801 104.076 49.5048 104.29 49.504L109.938 49.4831L109.935 48.8431L108.831 48.8471C108.149 48.8497 107.61 48.7823 107.214 48.6451C106.83 48.4972 106.557 48.2529 106.396 47.9122C106.234 47.5608 106.153 47.0917 106.15 46.5051C106.148 45.9077 106.227 45.4381 106.385 45.0962C106.544 44.7543 106.815 44.5133 107.199 44.3732C107.593 44.2224 108.131 44.1457 108.814 44.1432L113.198 44.1269C113.891 44.1244 114.43 44.197 114.815 44.3449C115.199 44.4822 115.472 44.7212 115.633 45.0619C115.794 45.4026 115.876 45.8717 115.878 46.469C115.881 47.0557 115.802 47.5253 115.644 47.8779C115.485 48.2198 115.214 48.4662 114.83 48.6169C114.447 48.757 113.908 48.8283 113.215 48.8309L112.063 48.8352L112.066 49.4752L117.697 49.4543C117.911 49.4535 118.092 49.5275 118.242 49.6763C118.392 49.8251 118.468 50.0061 118.468 50.2194C118.469 50.4328 118.395 50.6144 118.246 50.7643C118.098 50.9142 117.917 50.9895 117.703 50.9903L104.295 51.04ZM109.413 58.9891C109.146 58.9901 108.916 58.9109 108.724 58.7516C108.542 58.603 108.445 58.3846 108.433 58.0967C108.422 57.8301 108.496 57.6165 108.655 57.4559C108.825 57.2952 109.054 57.2037 109.342 57.1813C109.705 57.1586 109.939 57.1044 110.045 57.0187C110.162 56.9223 110.22 56.7514 110.22 56.5061L110.214 54.9701L108.566 54.9762C108.673 55.0398 108.758 55.1195 108.823 55.2152C108.962 55.4174 109.016 55.6305 108.985 55.8546C108.965 56.0787 108.864 56.2657 108.683 56.4158C108.417 56.6087 108.103 56.8232 107.742 57.0592C107.38 57.2953 107.007 57.5206 106.624 57.7354C106.241 57.9608 105.884 58.1541 105.554 58.3154C105.277 58.4551 105.011 58.4934 104.755 58.4303C104.498 58.3779 104.306 58.224 104.177 57.9685C104.048 57.7343 104.026 57.4997 104.11 57.2647C104.195 57.0297 104.365 56.8531 104.62 56.7348C104.876 56.6165 105.19 56.4554 105.563 56.2513C105.935 56.0473 106.302 55.8379 106.664 55.6232C107.026 55.4086 107.324 55.2208 107.558 55.0599C107.59 55.0385 107.622 55.017 107.654 54.9956C107.697 54.9741 107.734 54.9579 107.766 54.9471C107.179 54.8853 106.762 54.7215 106.516 54.4558C106.27 54.19 106.145 53.7958 106.144 53.2731C106.141 52.6758 106.305 52.2432 106.635 51.9753C106.975 51.6967 107.572 51.5558 108.425 51.5527L113.625 51.5334C114.478 51.5302 115.071 51.6667 115.403 51.9428C115.745 52.2082 115.917 52.6396 115.919 53.2369C115.921 53.7702 115.795 54.176 115.54 54.4543C115.285 54.7219 114.838 54.8836 114.198 54.9393C114.24 54.9498 114.278 54.9657 114.31 54.9869C114.342 54.9974 114.379 55.0133 114.422 55.0345C114.668 55.1936 114.973 55.3791 115.336 55.5911C115.7 55.7924 116.068 55.9884 116.442 56.179C116.816 56.3696 117.142 56.5284 117.42 56.6554C117.634 56.7399 117.778 56.9047 117.854 57.1498C117.94 57.3841 117.925 57.6082 117.808 57.8219C117.692 58.0677 117.506 58.2284 117.25 58.304C116.995 58.3796 116.744 58.3646 116.498 58.2588C116.199 58.1212 115.857 57.9465 115.472 57.7346C115.087 57.5227 114.708 57.3054 114.334 57.0828C113.96 56.8495 113.644 56.6374 113.387 56.4463C113.195 56.2977 113.077 56.1061 113.033 55.8716C113 55.6371 113.058 55.4235 113.207 55.231C113.292 55.1133 113.409 55.0222 113.558 54.9577L112.102 54.9631L112.109 56.8031C112.112 57.5817 111.895 58.1372 111.459 58.4695C111.033 58.8017 110.351 58.9749 109.413 58.9891ZM108.769 53.7114L113.297 53.6946C113.564 53.6936 113.734 53.661 113.809 53.5967C113.894 53.5324 113.936 53.4149 113.935 53.2443C113.935 53.0736 113.892 52.9618 113.806 52.9087C113.731 52.845 113.561 52.8136 113.294 52.8146L108.766 52.8314C108.499 52.8324 108.323 52.8651 108.238 52.9294C108.164 52.983 108.127 53.0951 108.128 53.2658C108.128 53.4365 108.166 53.5536 108.241 53.6174C108.326 53.6811 108.503 53.7124 108.769 53.7114ZM108.084 45.9539L113.956 45.9321C113.913 45.6656 113.811 45.5007 113.651 45.4373C113.49 45.3632 113.207 45.3269 112.802 45.3284L109.218 45.3417C108.824 45.3432 108.546 45.3815 108.387 45.4568C108.227 45.5214 108.126 45.6871 108.084 45.9539ZM109.227 47.6457L112.811 47.6324C113.205 47.6309 113.483 47.5979 113.642 47.5333C113.802 47.458 113.903 47.2923 113.944 47.0362L108.089 47.0579C108.132 47.3137 108.234 47.4787 108.394 47.5528C108.555 47.6162 108.832 47.6471 109.227 47.6457Z" fill="black" fill-opacity="0.85"/>
</g>
<defs>
<radialGradient id="paint0_radial_1260_4412" cx="0" cy="0" r="1" gradientUnits="userSpaceOnUse" gradientTransform="translate(177.999 53.4857) rotate(90) scale(7.39975 4.79175)">
<stop offset="0.16" stop-opacity="0"/>
<stop offset="1" stop-color="#1CB76B"/>
</radialGradient>
<clipPath id="clip0_1260_4412">
<rect width="200" height="90" fill="white"/>
</clipPath>
</defs>
</svg>
