<svg width="200" height="90" viewBox="0 0 200 90" fill="none" xmlns="http://www.w3.org/2000/svg">
<g clip-path="url(#clip0_1260_4411)">
<rect width="200" height="90" fill="#FEB79D"/>
<path fill-rule="evenodd" clip-rule="evenodd" d="M-6.18027 85.5257C-5.5206 81.3514 -9.94765 77.2571 -7.65473 73.2393C-4.94813 68.4966 -1.65241 61.9915 7.77154 61.0783C17.9972 60.0873 23.5998 68.8258 33.9785 69.2048C45.8176 69.6371 56.5881 60.196 66.8872 63.2371C76.2425 65.9996 70.121 74.0119 68.9752 79.5387C68.1676 83.4341 61.5364 86.4306 61.2669 90.3457C60.8502 96.3973 75.7689 103.853 67.0229 107.895C58.3557 111.9 45.7383 103.802 34.2527 102.83C27.3162 102.243 20.5655 103.925 13.6182 103.373C4.65786 102.66 -7.2514 103.227 -11.7526 99.1698C-16.3208 95.0519 -6.92748 90.2539 -6.18027 85.5257Z" fill="#FE585B"/>
<path fill-rule="evenodd" clip-rule="evenodd" d="M28.4743 10.5302C32.6486 10.8717 36.7429 8.58004 40.7607 9.76696C45.5034 11.168 52.0085 12.874 52.9217 17.7523C53.9127 23.0456 45.1742 25.9458 44.7952 31.3183C44.3629 37.4467 53.804 43.0221 50.7629 48.3534C48.0004 53.1961 39.9881 50.0274 34.4613 49.4342C30.5659 49.0162 27.5694 45.5836 23.6543 45.444C17.6027 45.2284 10.1469 52.9509 6.10508 48.4236C2.09968 43.9371 10.1975 37.4057 11.1701 31.4602C11.7575 27.8695 10.0747 24.3751 10.6274 20.7788C11.3402 16.1405 10.7727 9.97575 14.8302 7.64571C18.9481 5.281 23.7461 10.1434 28.4743 10.5302Z" fill="#FC7443"/>
<path fill-rule="evenodd" clip-rule="evenodd" d="M173.474 4.53021C177.649 4.87169 181.743 2.58004 185.761 3.76696C190.503 5.16803 197.008 6.87405 197.922 11.7523C198.913 17.0456 190.174 19.9458 189.795 25.3183C189.363 31.4467 198.804 37.0221 195.763 42.3534C193 47.1961 184.988 44.0274 179.461 43.4342C175.566 43.0162 172.569 39.5836 168.654 39.444C162.603 39.2284 155.147 46.9509 151.105 42.4236C147.1 37.9371 155.198 31.4057 156.17 25.4602C156.757 21.8695 155.075 18.3751 155.627 14.7788C156.34 10.1405 155.773 3.97575 159.83 1.64571C163.948 -0.719004 168.746 4.14342 173.474 4.53021Z" fill="#FF8787"/>
<path fill-rule="evenodd" clip-rule="evenodd" d="M117.063 7.20494C131.49 7.9797 144.155 11.9054 154.996 17.5775C166.733 23.7188 176.896 30.8598 179.688 39.9711C183.097 51.0949 184.354 63.7453 171.749 72.2549C158.691 81.0707 136.857 81.4742 117.063 82.2497C95.2362 83.1048 71.8992 84.7511 54.6033 76.8446C35.6156 68.1646 20.8565 53.9771 24.5773 39.9711C28.0889 26.7526 52.1053 19.9805 71.5388 13.0955C85.3864 8.18958 100.98 6.34119 117.063 7.20494Z" fill="#FFAB7A"/>
<ellipse cx="177.989" cy="70.7269" rx="16.7876" ry="14.0511" fill="#F55A57"/>
<ellipse cx="173.713" cy="65.6395" rx="1.21537" ry="2.15126" fill="black"/>
<ellipse cx="182.288" cy="65.6395" rx="1.21537" ry="2.15126" fill="black"/>
<path d="M173.043 72.6445C173.079 74.5722 175.312 76.0937 178.031 76.0428C180.749 75.9919 182.924 74.388 182.888 72.4603C182.852 70.5326 180.67 71.7825 177.952 71.8334C175.233 71.8843 173.007 70.7168 173.043 72.6445Z" fill="black"/>
<path d="M170.798 50.9035C173.679 48.6452 180.102 51.1915 180.102 55.0219C180.103 59.542 168.088 61.6232 165.803 61.9782C165.554 62.0169 165.305 62.044 165.056 62.039C163.427 62.0062 157.617 61.2375 170.798 50.9035Z" fill="#6E5232"/>
<path d="M170.798 50.9035C173.679 48.6452 180.102 51.1915 180.102 55.0219C180.103 59.542 168.088 61.6232 165.803 61.9782C165.554 62.0169 165.305 62.044 165.056 62.039C163.427 62.0062 157.617 61.2375 170.798 50.9035Z" fill="url(#paint0_radial_1260_4411)" fill-opacity="0.15"/>
<path d="M185.204 50.7629C182.323 48.5045 175.9 51.0509 175.9 54.8813C175.899 59.4014 187.914 61.4825 190.199 61.8375C190.448 61.8763 190.697 61.9034 190.946 61.8984C192.575 61.8656 198.385 61.0968 185.204 50.7629Z" fill="#6E5232"/>
<path d="M185.204 50.7629C182.323 48.5045 175.9 51.0509 175.9 54.8813C175.899 59.4014 187.914 61.4825 190.199 61.8375C190.448 61.8763 190.697 61.9034 190.946 61.8984C192.575 61.8656 198.385 61.0968 185.204 50.7629Z" fill="url(#paint1_radial_1260_4411)" fill-opacity="0.15"/>
<path d="M79.5688 37.1784C79.1156 37.2201 78.8584 37.0577 78.797 36.6912C78.7697 36.518 78.8091 36.3645 78.9153 36.2308C79.0282 36.097 79.1879 36.0231 79.3945 36.009C80.0476 35.9533 80.6906 35.8542 81.3234 35.7119C81.9629 35.5695 82.5656 35.3939 83.1315 35.1852C83.0645 35.1054 82.9942 35.0223 82.9205 34.9359C82.8469 34.8496 82.79 34.7831 82.7498 34.7366C82.5824 34.5439 82.5517 34.344 82.6576 34.1369C82.0853 34.419 81.5161 34.6478 80.9501 34.8232C80.7437 34.8907 80.5604 34.8914 80.4001 34.8253C80.2465 34.7525 80.1394 34.6296 80.0787 34.4565C80.0181 34.2834 80.0342 34.1266 80.127 33.9863C80.2265 33.8393 80.3728 33.7387 80.5659 33.6847C80.9189 33.59 81.2917 33.4586 81.6844 33.2905C82.0771 33.1157 82.4664 32.9209 82.8523 32.7062C83.2381 32.4848 83.5973 32.2568 83.9298 32.0222C84.2689 31.7809 84.5513 31.5432 84.7771 31.309C84.9299 31.1551 85.0896 31.0779 85.2563 31.0773C85.4296 31.0766 85.5765 31.1327 85.6969 31.2456C85.8173 31.3652 85.8745 31.5016 85.8684 31.655C85.869 31.8083 85.8128 31.9419 85.6999 32.0556C85.5737 32.1828 85.4408 32.3066 85.3013 32.4271L86.0213 32.4244C86.3479 32.4232 86.6115 32.4822 86.8119 32.6015C87.0123 32.7141 87.1462 32.8636 87.2136 33.05C87.2876 33.2364 87.2917 33.4397 87.2258 33.66C87.1666 33.8735 87.0374 34.0807 86.8381 34.2814C86.4596 34.6695 86.0042 35.0245 85.4721 35.3465C84.9399 35.6685 84.3543 35.954 83.7152 36.203C83.0828 36.452 82.4136 36.6578 81.7075 36.8205C81.0081 36.9897 80.2952 37.109 79.5688 37.1784ZM79.3454 33.5592C79.1523 33.6066 78.9789 33.5972 78.8253 33.5311C78.6717 33.465 78.568 33.3454 78.514 33.1723C78.4667 33.0058 78.4861 32.8557 78.5723 32.722C78.6585 32.5817 78.8014 32.4879 79.0013 32.4405C79.5142 32.3252 80.0136 32.1767 80.4996 31.9949C80.9923 31.8131 81.4549 31.6147 81.8874 31.3998L81.4859 31.0012C81.312 30.8285 81.2579 30.6421 81.3239 30.4418C81.0978 30.5893 80.8683 30.7302 80.6354 30.8644C80.4092 30.9919 80.183 31.1127 79.9568 31.2269C79.7704 31.3143 79.5905 31.3416 79.4171 31.3089C79.2503 31.2762 79.13 31.19 79.0561 31.0502C78.9689 30.8972 78.955 30.7439 79.0144 30.5904C79.0738 30.4302 79.1867 30.3131 79.3531 30.2391C79.7857 30.0375 80.2215 29.7959 80.6604 29.5143C81.0994 29.2327 81.5083 28.9345 81.8871 28.6197C82.2726 28.305 82.5949 28.0104 82.8539 27.7361C82.9867 27.6023 83.1331 27.5318 83.2931 27.5245C83.4597 27.5106 83.6032 27.5567 83.7236 27.6629C83.8373 27.7692 83.8978 27.8956 83.905 28.0422C83.9189 28.1889 83.8727 28.319 83.7664 28.4328C83.7465 28.4595 83.7233 28.4863 83.6967 28.513C83.6768 28.5331 83.6569 28.5532 83.637 28.5732L84.487 28.5701C84.867 28.5687 85.1573 28.6609 85.358 28.8469C85.5653 29.0261 85.6595 29.2558 85.6405 29.5358C85.6216 29.8159 85.466 30.0998 85.1737 30.3876C84.4763 31.0768 83.6419 31.6932 82.6705 32.2369C81.7059 32.7738 80.5975 33.2145 79.3454 33.5592ZM84.3994 34.6305C84.6523 34.4962 84.8851 34.362 85.0979 34.2279C85.3174 34.0871 85.5102 33.943 85.6763 33.7957C85.8092 33.6752 85.8622 33.5784 85.8353 33.5051C85.8083 33.4319 85.7082 33.3956 85.5349 33.3962L83.9749 33.402C83.8884 33.4557 83.7986 33.5127 83.7055 33.573C83.6124 33.6267 83.5192 33.6804 83.4261 33.7341C83.5662 33.7535 83.6898 33.8231 83.7969 33.9427C83.8638 34.0224 83.9576 34.1321 84.0781 34.2717C84.2052 34.4045 84.3124 34.5241 84.3994 34.6305ZM83.0749 30.7153C83.4939 30.4338 83.8561 30.1491 84.1617 29.8613C84.288 29.7408 84.3376 29.6473 84.3107 29.5808C84.2838 29.5075 84.1836 29.4712 84.0103 29.4719L82.6603 29.4769C82.5672 29.5506 82.4675 29.6276 82.3612 29.708C82.2615 29.7884 82.1584 29.8654 82.052 29.9391C82.1987 29.9453 82.3323 30.0048 82.4527 30.1176C82.5263 30.184 82.6233 30.277 82.7437 30.3966C82.8708 30.5161 82.9812 30.6224 83.0749 30.7153ZM94.5684 37.0328C94.4151 37.0334 94.2815 36.9805 94.1678 36.8743C94.0608 36.7747 94.0069 36.6415 94.0063 36.4749L94.0005 34.9049C93.7349 35.1925 93.4326 35.477 93.0937 35.7582C92.7614 36.0395 92.4389 36.284 92.1264 36.4918C91.98 36.579 91.8302 36.6163 91.6768 36.6035C91.5234 36.5974 91.4032 36.5312 91.316 36.4048C91.229 36.2918 91.1952 36.1653 91.2146 36.0252C91.2408 35.8784 91.3137 35.7682 91.4334 35.6944C91.6596 35.5602 91.8923 35.4027 92.1317 35.2218C92.3776 35.0342 92.6103 34.8434 92.8295 34.6492C93.0555 34.4484 93.2514 34.261 93.4175 34.087L92.0975 34.0919C91.9575 34.0924 91.8373 34.0462 91.737 33.9533C91.6433 33.8536 91.5961 33.7338 91.5956 33.5938C91.5951 33.4604 91.6414 33.3469 91.7344 33.2533C91.834 33.1529 91.9538 33.1025 92.0938 33.1019L93.9938 33.0949L93.9916 32.5049C93.6182 32.4796 93.3313 32.4173 93.1309 32.3181C92.9305 32.2188 92.7933 32.0727 92.7193 31.8796C92.6452 31.6799 92.6076 31.4233 92.6064 31.11L92.6009 29.61L92.0509 29.6121C91.9242 29.6125 91.8107 29.5663 91.7104 29.4733C91.6167 29.3803 91.5696 29.2672 91.5691 29.1338C91.5686 29.0005 91.6148 28.887 91.7078 28.7933C91.8075 28.6996 91.9206 28.6525 92.0473 28.6521L92.5973 28.65L92.5958 28.23C92.5951 28.0567 92.648 27.9232 92.7543 27.8294C92.8606 27.7291 92.987 27.6786 93.1337 27.678C93.287 27.6775 93.4172 27.727 93.5243 27.8266C93.6313 27.9195 93.6851 28.0527 93.6857 28.226L93.6873 28.646L95.4073 28.6396L95.4058 28.2296C95.4051 28.0563 95.458 27.9194 95.5643 27.819C95.6772 27.7186 95.8104 27.6681 95.9637 27.6675C96.117 27.667 96.2472 27.7165 96.3542 27.8161C96.4679 27.9157 96.5251 28.0521 96.5258 28.2255L96.5273 28.6355L97.1173 28.6333C97.2506 28.6328 97.3641 28.679 97.4578 28.772C97.5515 28.865 97.5986 28.9782 97.5991 29.1115C97.5996 29.2448 97.5533 29.3583 97.4603 29.452C97.3673 29.5457 97.2542 29.5928 97.1208 29.5933L96.5308 29.5955L96.5364 31.0955C96.5376 31.4154 96.4986 31.6756 96.4193 31.8759C96.3467 32.0695 96.2072 32.2167 96.0009 32.3174C95.7946 32.4115 95.4982 32.4726 95.1116 32.5007L95.1138 33.0907L97.1838 33.0831C97.3171 33.0826 97.4306 33.1322 97.5243 33.2318C97.6247 33.3248 97.6751 33.4379 97.6756 33.5712C97.6761 33.7112 97.6266 33.8314 97.5269 33.9318C97.4339 34.0255 97.3208 34.0726 97.1874 34.0731L95.7575 34.0784C95.9114 34.2311 96.0886 34.3971 96.2893 34.5764C96.4966 34.749 96.7072 34.9182 96.9212 35.0841C97.1418 35.2432 97.349 35.3825 97.5427 35.5018C97.6697 35.5813 97.7468 35.701 97.7741 35.8609C97.8013 36.0141 97.7685 36.1509 97.6756 36.2713C97.5694 36.405 97.4364 36.4822 97.2765 36.5027C97.1232 36.5233 96.9797 36.4838 96.846 36.3843C96.5586 36.1721 96.2576 35.9265 95.9433 35.6477C95.6356 35.3688 95.3612 35.0898 95.1202 34.8107L95.1263 36.4707C95.1269 36.6374 95.0708 36.7709 94.9578 36.8713C94.8515 36.9784 94.7217 37.0322 94.5684 37.0328ZM88.7171 36.6845C88.5967 36.5783 88.5362 36.4518 88.5357 36.3051C88.5351 36.1585 88.588 36.0349 88.6943 35.9346C89.1792 35.4661 89.574 34.968 89.8788 34.4402C89.8387 34.4136 89.7986 34.3904 89.7585 34.3706C89.7251 34.3441 89.6883 34.3175 89.6482 34.291C89.3608 34.0921 89.1435 33.9129 88.9962 33.7534C88.8556 33.5873 88.7749 33.3976 88.7541 33.1843C88.7399 32.9644 88.7689 32.6809 88.8409 32.334C88.8934 32.1071 88.9392 31.8736 88.9783 31.6335C89.0241 31.3933 89.0699 31.1498 89.1156 30.903L88.6956 30.9045C88.5623 30.905 88.4455 30.8554 88.3451 30.7558C88.2514 30.6495 88.2042 30.5297 88.2038 30.3963C88.2033 30.263 88.2495 30.1462 88.3425 30.0458C88.4421 29.9388 88.5585 29.885 88.6919 29.8845L89.2719 29.8824C89.3108 29.5956 89.3464 29.3154 89.3787 29.042C89.4177 28.7685 89.4468 28.515 89.4659 28.2816C89.4853 28.1016 89.5481 27.9747 89.6545 27.9009C89.7676 27.8272 89.8975 27.7967 90.0442 27.8095C90.1909 27.8223 90.3111 27.8785 90.4048 27.9782C90.5052 28.0778 90.5424 28.2176 90.5164 28.3977C90.4905 28.6112 90.458 28.8446 90.419 29.0981C90.3799 29.3516 90.3409 29.6117 90.3018 29.8786C90.8485 29.8832 91.2323 29.9918 91.4531 30.2043C91.6805 30.4168 91.7786 30.8064 91.7474 31.3732C91.7227 31.9 91.6612 32.3902 91.5628 32.8439C91.4712 33.2909 91.3494 33.7114 91.1975 34.1053C91.3245 34.1915 91.4381 34.2744 91.5384 34.354C91.6454 34.4336 91.7357 34.5066 91.8093 34.573C91.943 34.6792 92.0068 34.8123 92.0007 34.9723C91.9946 35.1256 91.9352 35.2659 91.8223 35.393C91.7227 35.5 91.5962 35.5571 91.4429 35.5644C91.2963 35.5649 91.1661 35.5121 91.0523 35.4058C90.9988 35.3527 90.9419 35.2995 90.8817 35.2464C90.8215 35.1867 90.7647 35.1335 90.7112 35.0871C90.5521 35.3543 90.3764 35.615 90.1841 35.869C89.9917 36.1231 89.7792 36.3705 89.5468 36.6114C89.4406 36.7318 89.3075 36.799 89.1475 36.8129C88.9876 36.8335 88.8441 36.7907 88.7171 36.6845ZM90.3153 33.4985C90.4274 33.1781 90.5162 32.8444 90.5816 32.4975C90.6469 32.1506 90.6922 31.7838 90.7175 31.397C90.73 31.1903 90.6996 31.0571 90.626 30.9974C90.5591 30.9309 90.4156 30.8981 90.1956 30.899L90.1356 30.8992C90.0834 31.206 90.0312 31.5029 89.9789 31.7898C89.9267 32.0766 89.8776 32.3301 89.8317 32.5503C89.799 32.7171 89.7862 32.8505 89.7932 32.9505C89.8002 33.0438 89.8372 33.127 89.9042 33.2C89.9777 33.2664 90.088 33.3494 90.2351 33.4488L90.3153 33.4985ZM93.6929 30.156L95.4129 30.1496L95.4109 29.5996L93.6909 29.606L93.6929 30.156ZM94.5581 31.5628C94.8115 31.5618 94.9981 31.5512 95.118 31.5307C95.2446 31.5036 95.3244 31.4533 95.3574 31.3798C95.3972 31.2997 95.4167 31.1863 95.4162 31.0396L95.4161 31.0096L93.6961 31.016L93.6962 31.046C93.6967 31.1926 93.7138 31.3059 93.7475 31.3858C93.7877 31.459 93.8679 31.5087 93.988 31.5349C94.1148 31.5544 94.3048 31.5637 94.5581 31.5628ZM99.4382 36.9747C99.3115 36.9752 99.2014 36.9323 99.1077 36.846C99.0141 36.7663 98.967 36.6531 98.9665 36.5065L98.9527 32.7965C98.9523 32.6832 98.9619 32.5831 98.9816 32.4964C98.955 32.5032 98.9283 32.5099 98.9017 32.5167C98.8817 32.5168 98.8584 32.5169 98.8317 32.517C98.705 32.5174 98.5949 32.4778 98.5012 32.3982C98.4076 32.3119 98.3605 32.1954 98.3599 32.0487L98.3575 31.3987C98.3566 31.1454 98.3959 30.9519 98.4754 30.8183C98.5616 30.6846 98.7012 30.5941 98.8944 30.5467L98.8885 28.9567C98.887 28.5634 98.9693 28.2864 99.1354 28.1258C99.3015 27.9585 99.5778 27.8742 99.9645 27.8727L100.954 27.8691C101.348 27.8676 101.625 27.9499 101.785 28.116C101.946 28.2754 102.027 28.5517 102.028 28.9451L102.034 30.5551C102.208 30.6011 102.332 30.6906 102.405 30.8237C102.486 30.9567 102.527 31.1432 102.528 31.3832L102.53 32.0332C102.53 32.1799 102.484 32.2967 102.391 32.3838C102.298 32.4641 102.185 32.5045 102.052 32.505C102.025 32.5051 102.002 32.5052 101.982 32.5053C101.962 32.4987 101.938 32.4921 101.912 32.4855C101.925 32.5322 101.932 32.5821 101.932 32.6355C101.932 32.6821 101.933 32.7321 101.933 32.7855L101.944 35.8854C101.945 36.2254 101.866 36.4824 101.707 36.6563C101.548 36.8302 101.295 36.9245 100.948 36.9391C100.801 36.9463 100.675 36.9135 100.568 36.8405C100.467 36.7676 100.407 36.6645 100.387 36.5312C100.366 36.4046 100.386 36.2912 100.445 36.191C100.512 36.0908 100.605 36.0304 100.725 36.01C100.845 35.9962 100.924 35.9659 100.964 35.9191C101.004 35.8723 101.024 35.7889 101.023 35.6689L101.021 35.0289L99.891 35.033L99.8965 36.503C99.897 36.6497 99.8541 36.7632 99.7677 36.8435C99.6814 36.9305 99.5715 36.9742 99.4382 36.9747ZM102.837 36.7521C102.711 36.7526 102.611 36.7096 102.537 36.6232C102.463 36.5435 102.426 36.447 102.426 36.3337C102.425 36.2203 102.462 36.1235 102.535 36.0433C102.608 35.9563 102.708 35.9126 102.834 35.9121L103.904 35.9082C103.871 35.815 103.834 35.7218 103.793 35.6286C103.76 35.5354 103.729 35.4622 103.702 35.4089C103.669 35.3157 103.665 35.2257 103.691 35.139C103.724 35.0455 103.781 34.9753 103.861 34.9283C103.594 34.896 103.404 34.8067 103.29 34.6604C103.176 34.5075 103.118 34.2744 103.117 33.9611C103.116 33.5944 103.191 33.3375 103.344 33.1902C103.504 33.043 103.767 32.9687 104.133 32.9673L106.073 32.9601C106.44 32.9588 106.7 33.0311 106.854 33.1772C107.015 33.3233 107.096 33.5797 107.097 33.9463C107.098 34.2597 107.042 34.4932 106.93 34.647C106.817 34.794 106.631 34.8847 106.371 34.919C106.431 34.9721 106.474 35.0386 106.501 35.1185C106.528 35.1918 106.525 35.2751 106.492 35.3686C106.479 35.4153 106.453 35.4887 106.413 35.5889C106.373 35.689 106.334 35.7925 106.294 35.8993L107.314 35.8955C107.448 35.895 107.548 35.938 107.615 36.0244C107.688 36.1042 107.725 36.2007 107.726 36.314C107.726 36.4273 107.69 36.5241 107.617 36.6044C107.551 36.6913 107.451 36.735 107.317 36.7355L102.837 36.7521ZM104.118 31.4574C103.631 31.4592 103.291 31.3704 103.097 31.1911C102.909 31.0118 102.815 30.6888 102.813 30.2222L102.811 29.6922C102.81 29.2322 102.902 28.9118 103.088 28.7312C103.28 28.5504 103.613 28.4592 104.087 28.4574L104.085 27.9075C104.084 27.7875 104.121 27.6973 104.194 27.637C104.267 27.5701 104.357 27.5364 104.463 27.536C104.563 27.5357 104.65 27.5687 104.724 27.6351C104.797 27.6948 104.834 27.7847 104.835 27.9047L104.837 28.4447L105.287 28.443L105.285 27.903C105.284 27.783 105.321 27.6929 105.394 27.6326C105.467 27.5657 105.553 27.532 105.653 27.5316C105.76 27.5312 105.85 27.5642 105.924 27.6306C105.997 27.6904 106.034 27.7802 106.035 27.9002L106.037 28.4402C106.523 28.4451 106.86 28.5372 107.048 28.7165C107.242 28.8891 107.339 29.2087 107.341 29.6754L107.343 30.2054C107.345 30.6721 107.249 30.9957 107.057 31.1765C106.871 31.3571 106.531 31.4484 106.038 31.4502L104.118 31.4574ZM102.962 32.6316C102.835 32.6321 102.735 32.5925 102.662 32.5128C102.588 32.4264 102.551 32.3265 102.551 32.2132C102.55 32.0998 102.586 32.003 102.66 31.9228C102.733 31.8358 102.832 31.7921 102.959 31.7917L107.189 31.776C107.322 31.7755 107.426 31.8184 107.499 31.9048C107.573 31.9845 107.61 32.0811 107.611 32.1944C107.611 32.3077 107.575 32.4079 107.502 32.4948C107.429 32.5751 107.325 32.6155 107.192 32.616L102.962 32.6316ZM104.428 34.2662L105.788 34.2612C105.902 34.2608 105.981 34.2405 106.028 34.2003C106.081 34.1601 106.108 34.0767 106.107 33.95C106.107 33.8167 106.08 33.7334 106.026 33.7003C105.979 33.6605 105.899 33.6408 105.786 33.6412L104.426 33.6462C104.306 33.6467 104.223 33.667 104.176 33.7072C104.13 33.7407 104.107 33.8241 104.107 33.9574C104.108 34.0841 104.131 34.1673 104.178 34.2071C104.225 34.247 104.308 34.2667 104.428 34.2662ZM99.7142 30.5037L100.094 30.5023L100.092 29.9423C100.091 29.6223 100.15 29.4054 100.27 29.2916C100.396 29.1711 100.619 29.1103 100.939 29.1091L101.199 29.1082C101.198 28.9348 101.165 28.8249 101.098 28.7785C101.038 28.7254 100.918 28.6992 100.738 28.6999L100.178 28.7019C99.9909 28.7026 99.8643 28.7331 99.7979 28.7933C99.7381 28.8469 99.7085 28.9703 99.7093 29.1637L99.7142 30.5037ZM99.2996 31.9552C99.3861 31.9016 99.4893 31.8645 99.6092 31.8441C99.7291 31.817 99.8657 31.8031 100.019 31.8025L100.869 31.7994C101.022 31.7988 101.159 31.8117 101.279 31.8379C101.399 31.8574 101.503 31.8937 101.59 31.9467L101.589 31.7267C101.588 31.5467 101.561 31.4368 101.508 31.397C101.454 31.3506 101.334 31.3277 101.147 31.3284L99.7473 31.3336C99.5606 31.3342 99.4374 31.358 99.3776 31.4049C99.3244 31.4518 99.2982 31.5686 99.2989 31.7552L99.2996 31.9552ZM104.814 35.9048L105.344 35.9028C105.384 35.7894 105.43 35.6525 105.483 35.4923C105.535 35.3255 105.575 35.1986 105.601 35.1119C105.615 35.0785 105.628 35.0484 105.641 35.0217C105.661 34.9883 105.684 34.9616 105.711 34.9415L104.441 34.9462C104.501 34.9993 104.548 35.0658 104.581 35.1457C104.615 35.2255 104.652 35.3254 104.693 35.4452C104.733 35.5651 104.767 35.6716 104.794 35.7649C104.807 35.7915 104.814 35.8148 104.814 35.8348C104.814 35.8548 104.814 35.8781 104.814 35.9048ZM99.8884 34.323L101.018 34.3189L101.016 33.7989L99.8865 33.8031L99.8884 34.323ZM99.8838 33.0931L101.014 33.0889L101.013 32.9689C101.013 32.7955 100.986 32.689 100.932 32.6492C100.885 32.6093 100.779 32.5897 100.612 32.5904L100.282 32.5916C100.122 32.5922 100.015 32.6126 99.9622 32.6528C99.909 32.693 99.8827 32.7997 99.8834 32.9731L99.8838 33.0931ZM100.794 30.4997L101.214 30.4981L101.212 29.7781L101.052 29.7787C100.952 29.7791 100.882 29.7993 100.842 29.8395C100.809 29.8729 100.792 29.9397 100.793 30.0397L100.794 30.4997ZM104.845 30.7547L105.295 30.753L105.293 30.263L104.843 30.2647L104.845 30.7547ZM104.841 29.6247L105.291 29.623L105.289 29.143L104.839 29.1447L104.841 29.6247ZM106.045 30.7502C106.239 30.7495 106.365 30.719 106.425 30.6588C106.485 30.5919 106.514 30.4618 106.513 30.2685L106.513 30.2585L106.043 30.2602L106.045 30.7502ZM106.041 29.6202L106.511 29.6185C106.504 29.4252 106.47 29.2986 106.41 29.2388C106.349 29.1791 106.226 29.1462 106.039 29.1402L106.041 29.6202ZM104.095 30.7574L104.093 30.2674L103.643 30.2691L103.643 30.2791C103.644 30.4658 103.675 30.5923 103.735 30.6588C103.795 30.7185 103.915 30.7514 104.095 30.7574ZM103.641 29.6291L104.091 29.6274L104.089 29.1474C103.909 29.1548 103.789 29.1886 103.73 29.2488C103.676 29.309 103.647 29.4358 103.641 29.6291ZM108.962 29.8294L116.472 29.8016L116.476 30.9815L110.186 31.0049L110.208 36.9948L108.988 36.9993L108.962 29.8294ZM115.852 29.8038L117.072 29.7993L117.093 35.5693C117.095 36.2093 116.977 36.5597 116.548 36.7513C116.118 36.9429 115.488 36.9652 114.618 36.9685C114.577 36.6186 114.385 36.0793 114.214 35.75C114.764 35.7779 115.444 35.7754 115.634 35.7647C115.814 35.764 115.874 35.7038 115.873 35.5538L115.852 29.8038ZM110.755 28.0027L112.995 27.9944L112.999 29.0444L110.759 29.0527L110.755 28.0027ZM112.215 27.9973L113.495 27.9926C113.595 30.5622 114.172 32.6701 116.046 33.5732C115.787 33.8141 115.378 34.3056 115.19 34.6263C113.215 33.4636 112.547 31.1761 112.407 28.5366L112.217 28.5373L112.215 27.9973ZM112.313 30.097L113.414 30.2829C113.081 32.3841 112.317 33.867 110.75 34.7128C110.589 34.4334 110.197 33.9448 109.956 33.7457C111.324 33.0907 112.069 31.8179 112.313 30.097ZM122.398 36.8796C121.898 36.8815 121.498 36.8296 121.197 36.7241C120.897 36.6252 120.68 36.4493 120.545 36.1965C120.411 35.9437 120.343 35.5939 120.342 35.1472C120.34 34.7006 120.405 34.3503 120.538 34.0965C120.67 33.8427 120.886 33.6652 121.186 33.5641C121.485 33.4563 121.885 33.4015 122.385 33.3997L123.665 33.3949C124.165 33.3931 124.565 33.4449 124.866 33.5505C125.166 33.6494 125.383 33.8252 125.518 34.0781C125.652 34.3309 125.72 34.6806 125.722 35.1273C125.723 35.574 125.658 35.9242 125.525 36.178C125.393 36.4319 125.177 36.6093 124.877 36.7104C124.578 36.8182 124.178 36.873 123.678 36.8749L122.398 36.8796ZM119.186 30.9315C119.026 30.9321 118.889 30.8826 118.775 30.783C118.668 30.6834 118.615 30.5469 118.614 30.3736L118.613 30.0536C118.611 29.5336 118.733 29.1665 118.979 28.9523C119.231 28.7313 119.661 28.6197 120.267 28.6175L122.337 28.6098L122.335 28.0198C122.334 27.8265 122.394 27.6796 122.514 27.5791C122.64 27.4787 122.786 27.4281 122.953 27.4275C123.126 27.4269 123.273 27.4763 123.394 27.5759C123.521 27.6754 123.584 27.8218 123.585 28.0152L123.587 28.6052L125.727 28.5972C126.334 28.595 126.761 28.7034 127.009 28.9225C127.263 29.1349 127.391 29.5011 127.393 30.0211L127.394 30.3411C127.394 30.5144 127.338 30.6513 127.225 30.7517C127.112 30.8521 126.976 30.9026 126.816 30.9032C126.656 30.9038 126.519 30.8577 126.405 30.7647C126.292 30.6718 126.235 30.5387 126.234 30.3654L126.233 30.0954C126.232 29.9087 126.185 29.7755 126.091 29.6959C126.004 29.6162 125.838 29.5768 125.591 29.5777L120.411 29.5969C120.164 29.5979 119.994 29.6385 119.901 29.7188C119.808 29.7992 119.762 29.9327 119.763 30.1194L119.764 30.3894C119.765 30.5627 119.708 30.6962 119.595 30.79C119.482 30.8837 119.346 30.9309 119.186 30.9315ZM119.19 34.6915C119.024 34.7855 118.86 34.8161 118.7 34.7833C118.54 34.7506 118.413 34.6577 118.319 34.5047C118.232 34.3517 118.215 34.2051 118.268 34.0649C118.32 33.9247 118.43 33.811 118.596 33.7237C118.976 33.529 119.365 33.3042 119.764 33.0494C120.163 32.7879 120.552 32.5164 120.931 32.235C121.316 31.9469 121.665 31.6656 121.978 31.3912C122.297 31.1033 122.616 30.9588 122.936 30.9576C123.263 30.9564 123.59 31.0852 123.918 31.344C124.225 31.5828 124.569 31.8316 124.95 32.0901C125.338 32.3487 125.742 32.5972 126.163 32.8357C126.584 33.0741 126.995 33.2892 127.395 33.4811C127.549 33.5539 127.659 33.6668 127.727 33.8199C127.794 33.9663 127.784 34.1196 127.698 34.28C127.612 34.447 127.479 34.5574 127.3 34.6114C127.126 34.6588 126.95 34.6361 126.769 34.5434C126.395 34.3381 126.004 34.1096 125.597 33.8578C125.189 33.6059 124.795 33.3474 124.414 33.0821C124.04 32.8102 123.702 32.5481 123.401 32.2959C123.247 32.1631 123.107 32.1003 122.98 32.1074C122.86 32.1079 122.724 32.1751 122.571 32.309C122.272 32.5634 121.933 32.8347 121.554 33.1227C121.182 33.4041 120.793 33.6822 120.387 33.9571C119.981 34.2252 119.582 34.4701 119.19 34.6915ZM122.394 35.8196L123.674 35.8149C124.034 35.8136 124.267 35.766 124.374 35.6723C124.487 35.5786 124.543 35.3983 124.542 35.1317C124.541 34.8583 124.483 34.6786 124.37 34.5923C124.263 34.4994 124.029 34.4536 123.669 34.4549L122.389 34.4597C122.022 34.461 121.783 34.5086 121.67 34.6023C121.563 34.6894 121.511 34.8696 121.512 35.1429C121.513 35.4096 121.567 35.5894 121.674 35.6823C121.787 35.7752 122.027 35.821 122.394 35.8196ZM120.25 32.0176C120.104 32.1114 119.947 32.1554 119.78 32.1493C119.62 32.1432 119.483 32.0637 119.37 31.9108C119.289 31.7978 119.259 31.6679 119.278 31.5212C119.304 31.3677 119.384 31.2474 119.517 31.1603C119.789 30.9859 120.069 30.7849 120.355 30.5572C120.647 30.3294 120.896 30.1152 121.102 29.9144C121.215 29.794 121.348 29.7335 121.502 29.7329C121.662 29.7323 121.798 29.7885 121.912 29.9014C122.026 30.0076 122.08 30.1341 122.074 30.2808C122.067 30.4208 122.011 30.5477 121.905 30.6614C121.659 30.9157 121.397 31.1566 121.118 31.3843C120.845 31.612 120.556 31.8231 120.25 32.0176ZM125.68 31.8874C125.512 31.7814 125.322 31.6588 125.108 31.5196C124.894 31.3803 124.684 31.2378 124.477 31.0919C124.276 30.9393 124.102 30.8033 123.955 30.6838C123.835 30.5843 123.768 30.4612 123.754 30.3146C123.746 30.1679 123.793 30.0411 123.892 29.934C123.985 29.8204 124.105 29.7599 124.252 29.7527C124.405 29.7388 124.538 29.7783 124.652 29.8712C124.806 29.9907 124.983 30.12 125.184 30.2593C125.384 30.3919 125.584 30.5211 125.785 30.647C125.992 30.7663 126.182 30.8689 126.356 30.9549C126.49 31.0211 126.57 31.1275 126.597 31.274C126.631 31.4206 126.612 31.5606 126.539 31.6942C126.453 31.8479 126.326 31.9417 126.16 31.9757C125.993 32.0029 125.833 31.9735 125.68 31.8874Z" fill="#FE585B"/>
<path d="M75.6046 58.9282C74.8792 58.9308 74.3243 58.8636 73.9398 58.7263C73.5553 58.5998 73.2878 58.3661 73.1372 58.0253C72.9973 57.6951 72.9262 57.2261 72.924 56.6181L72.9061 51.8021L72.1381 51.805C71.9035 51.8058 71.7165 51.7319 71.5773 51.583C71.4381 51.4342 71.3681 51.2585 71.3674 51.0558C71.3666 50.8425 71.4352 50.6609 71.5733 50.511C71.7115 50.3612 71.8979 50.2858 72.1325 50.285L72.9005 50.2821L72.897 49.3381C72.896 49.0715 72.9806 48.8631 73.1507 48.7132C73.3314 48.5525 73.5391 48.4717 73.7738 48.4709C74.0191 48.47 74.2274 48.5492 74.3987 48.7086C74.5699 48.8573 74.656 49.0649 74.657 49.3316L74.6605 50.2756L76.4685 50.2689L76.465 49.3249C76.464 49.0582 76.5486 48.8499 76.7187 48.7C76.8994 48.5393 77.1071 48.4585 77.3418 48.4576C77.5871 48.4567 77.7954 48.536 77.9667 48.6953C78.1379 48.844 78.224 49.0517 78.225 49.3184L78.2285 50.2624L78.7725 50.2604C79.0071 50.2595 79.1887 50.3335 79.3173 50.4823C79.4565 50.6312 79.5265 50.8122 79.5273 51.0256C79.5281 51.2282 79.4594 51.4045 79.3213 51.5543C79.1938 51.7041 79.0128 51.7795 78.7781 51.7803L78.2341 51.7824L78.252 56.5983C78.2542 57.2063 78.1866 57.6759 78.0492 58.0071C77.9118 58.3489 77.6513 58.5846 77.2678 58.714C76.8843 58.8541 76.3299 58.9255 75.6046 58.9282ZM79.8116 58.6566C79.5988 58.796 79.3697 58.8555 79.1243 58.8351C78.8788 58.8147 78.6757 58.6928 78.5149 58.4694C78.3755 58.2779 78.3214 58.0701 78.3526 57.846C78.3944 57.6218 78.5111 57.4507 78.7027 57.3327C79.4051 56.9034 79.9474 56.432 80.3295 55.9186C80.7222 55.4052 80.9921 54.8335 81.1391 54.2036C81.2968 53.5737 81.3742 52.8694 81.3713 52.0907L81.3699 51.7227L81.1299 51.7236C81.0137 52.0227 80.8868 52.3165 80.7492 52.605C80.6222 52.8935 80.4846 53.1607 80.3361 53.4066C80.2196 53.6097 80.0441 53.749 79.8097 53.8245C79.586 53.9 79.3672 53.8848 79.1535 53.779C78.9505 53.6731 78.8112 53.5136 78.7357 53.3005C78.6709 53.0874 78.6969 52.8847 78.8135 52.6922C79.1315 52.147 79.4119 51.538 79.6547 50.8651C79.9082 50.1921 80.1138 49.546 80.2715 48.9268C80.3346 48.6812 80.4567 48.5101 80.6376 48.4134C80.8186 48.3061 81.0265 48.2787 81.2613 48.3311C81.4962 48.3836 81.6726 48.4949 81.7906 48.6652C81.9085 48.8247 81.9413 49.0273 81.8888 49.2728C81.8468 49.433 81.8047 49.5931 81.7626 49.7533C81.7312 49.9134 81.6891 50.0735 81.6364 50.2337L84.2764 50.224C85.0017 50.2213 85.4984 50.4168 85.7666 50.8104C86.0453 51.1934 86.0418 51.6894 85.7561 52.2985C85.682 52.4694 85.5974 52.6511 85.5021 52.8434C85.4068 53.0251 85.3008 53.2228 85.1843 53.4366C85.0784 53.6397 84.9136 53.7843 84.6899 53.8704C84.4662 53.9566 84.2422 53.9521 84.0178 53.8569C83.8148 53.7617 83.6703 53.6129 83.5842 53.4105C83.5087 53.1975 83.5293 52.9947 83.6459 52.8023C83.7626 52.6205 83.8527 52.4602 83.9161 52.3213C84.0433 52.0968 84.0801 51.942 84.0264 51.8569C83.9834 51.7611 83.8286 51.7136 83.5619 51.7146L82.9699 51.7168L82.9713 52.0848C82.9734 52.6501 82.9434 53.1889 82.8813 53.7011C83.2253 54.4252 83.6597 55.0743 84.1845 55.6483C84.7199 56.2224 85.3191 56.7108 85.9819 57.1137C86.2171 57.2515 86.3565 57.443 86.4001 57.6881C86.4543 57.9439 86.4018 58.1681 86.2425 58.3607C86.0833 58.5746 85.8811 58.6981 85.6359 58.731C85.4014 58.7638 85.1772 58.7113 84.9633 58.5735C84.4714 58.234 83.9952 57.825 83.5348 57.3468C83.0743 56.8578 82.6724 56.3366 82.329 55.7832C82.0857 56.3388 81.7569 56.8573 81.3427 57.3389C80.9391 57.8097 80.4288 58.2489 79.8116 58.6566ZM75.5325 48.1123C74.6578 48.1156 74.0333 47.9632 73.6588 47.6553C73.2843 47.3367 73.0956 46.788 73.0927 46.0094L73.0904 45.4014C73.0894 45.1241 73.1792 44.905 73.36 44.7444C73.5407 44.573 73.759 44.4869 74.015 44.4859C74.2817 44.485 74.506 44.5695 74.688 44.7395C74.8699 44.8988 74.9614 45.1171 74.9624 45.3944L74.9639 45.7944C74.9651 46.1251 75.0353 46.3435 75.1743 46.4497C75.324 46.5558 75.6176 46.608 76.0549 46.6064L78.0549 46.599L78.0484 44.839C78.0473 44.5617 78.1372 44.3427 78.3179 44.182C78.4986 44.0107 78.717 43.9245 78.973 43.9236C79.229 43.9226 79.448 44.0071 79.6299 44.1771C79.8119 44.3365 79.9033 44.5548 79.9044 44.8321L79.9109 46.5921L81.9429 46.5846C82.3802 46.583 82.668 46.5286 82.8063 46.4214C82.9552 46.3142 83.0291 46.0952 83.0278 45.7646L83.0264 45.3646C83.0253 45.0872 83.1152 44.8682 83.2959 44.7076C83.4766 44.5362 83.7003 44.45 83.967 44.4491C84.223 44.4481 84.4419 44.5326 84.6239 44.7026C84.8058 44.862 84.8973 45.0803 84.8983 45.3576L84.9006 45.9656C84.9035 46.7443 84.7189 47.2943 84.3467 47.6157C83.9745 47.9264 83.3511 48.0834 82.4764 48.0866L75.5325 48.1123ZM75.5986 57.3122C75.9719 57.3108 76.2117 57.2619 76.318 57.1655C76.435 57.0584 76.4928 56.8289 76.4915 56.4769L76.4865 55.1329L74.6785 55.1396L74.6835 56.4836C74.6848 56.8356 74.7443 57.0647 74.8621 57.1709C74.9797 57.2665 75.2253 57.3136 75.5986 57.3122ZM74.6731 53.6676L76.4811 53.6609L76.4741 51.7889L74.6661 51.7956L74.6731 53.6676ZM89.2508 58.4136C88.9954 58.5745 88.7182 58.6342 88.4194 58.5927C88.1206 58.5511 87.8907 58.3973 87.7297 58.1312C87.5901 57.8864 87.5625 57.6252 87.6468 57.3475C87.7311 57.0699 87.9063 56.8559 88.1724 56.7056C89.3645 56.0078 90.3907 55.1613 91.251 54.1661C92.122 53.1602 92.8113 52.0857 93.3191 50.9424C93.8375 49.7885 94.1426 48.646 94.2344 47.515C94.2755 47.0882 94.205 46.7898 94.0231 46.6198C93.8518 46.4498 93.5101 46.3657 92.9981 46.3676L91.2542 46.3741C91.0088 46.375 90.7952 46.2904 90.6132 46.1204C90.4419 45.9397 90.3557 45.7267 90.3548 45.4814C90.3539 45.2361 90.4385 45.0277 90.6085 44.8564C90.7892 44.6744 91.0022 44.583 91.2475 44.5821L92.9915 44.5756C93.7915 44.5726 94.4211 44.6503 94.8804 44.8086C95.3503 44.9669 95.6873 45.243 95.8915 45.6369C96.0955 46.0201 96.1989 46.5584 96.2014 47.2517C96.2063 48.5637 96.4455 49.7895 96.9191 50.9291C97.3926 52.0687 98.0632 53.1169 98.9307 54.0737C99.809 55.0304 100.841 55.8906 102.028 56.6542C102.274 56.8133 102.419 57.0421 102.463 57.3406C102.517 57.6391 102.46 57.9059 102.29 58.1412C102.12 58.3979 101.881 58.5374 101.571 58.5599C101.273 58.593 100.995 58.5194 100.739 58.339C99.4766 57.4583 98.3475 56.4385 97.3512 55.2795C96.3549 54.1205 95.6034 52.806 95.0966 51.3359C94.4833 52.7995 93.6829 54.1358 92.6954 55.3448C91.7078 56.5431 90.5596 57.566 89.2508 58.4136ZM104.538 47.4608L116.554 47.4163L116.561 49.3043L106.497 49.3416L106.533 58.9255L104.581 58.9328L104.538 47.4608ZM115.562 47.42L117.514 47.4127L117.548 56.6447C117.552 57.6687 117.362 58.2294 116.675 58.5359C115.989 58.8425 114.981 58.8782 113.589 58.8834C113.523 58.3236 113.215 57.4607 112.941 56.9338C113.822 56.9785 114.91 56.9745 115.214 56.9573C115.502 56.9563 115.597 56.8599 115.596 56.6199L115.562 47.42ZM107.407 44.5382L110.991 44.5249L110.998 46.2049L107.414 46.2182L107.407 44.5382ZM109.743 44.5295L111.791 44.5219C111.951 48.6334 112.875 52.006 115.873 53.4509C115.458 53.8364 114.805 54.6228 114.503 55.136C111.344 53.2756 110.274 49.6156 110.051 45.3924L109.747 45.3935L109.743 44.5295ZM109.9 47.889L111.661 48.1864C111.129 51.5484 109.906 53.921 107.399 55.2743C107.142 54.8272 106.515 54.0456 106.13 53.727C108.318 52.6789 109.51 50.6424 109.9 47.889ZM126.036 58.7412C125.236 58.7442 124.596 58.6612 124.115 58.4923C123.635 58.3341 123.287 58.0527 123.072 57.6482C122.857 57.2437 122.749 56.6841 122.746 55.9694C122.743 55.2547 122.848 54.6944 123.06 54.2882C123.272 53.8821 123.617 53.5982 124.097 53.4364C124.576 53.2639 125.216 53.1762 126.016 53.1733L128.064 53.1657C128.864 53.1627 129.504 53.2457 129.985 53.4146C130.465 53.5728 130.813 53.8542 131.028 54.2587C131.242 54.6632 131.351 55.2228 131.354 55.9375C131.357 56.6522 131.252 57.2126 131.04 57.6187C130.828 58.0248 130.483 58.3087 130.003 58.4705C129.524 58.643 128.884 58.7307 128.084 58.7336L126.036 58.7412ZM120.897 49.2242C120.641 49.2252 120.422 49.146 120.24 48.9866C120.069 48.8273 119.983 48.6089 119.982 48.3316L119.98 47.8196C119.977 46.9876 120.172 46.4002 120.565 46.0574C120.969 45.7039 121.657 45.5254 122.627 45.5218L125.939 45.5095L125.936 44.5655C125.935 44.2562 126.03 44.0212 126.221 43.8604C126.423 43.6997 126.658 43.6188 126.924 43.6178C127.202 43.6168 127.436 43.6959 127.629 43.8552C127.832 44.0145 127.935 44.2488 127.936 44.5581L127.939 45.5021L131.363 45.4894C132.334 45.4858 133.017 45.6593 133.413 46.0098C133.82 46.3496 134.025 46.9355 134.028 47.7675L134.03 48.2795C134.031 48.5569 133.941 48.7759 133.76 48.9365C133.579 49.0972 133.361 49.178 133.105 49.179C132.849 49.1799 132.63 49.1061 132.448 48.9574C132.266 48.8087 132.175 48.5957 132.174 48.3184L132.172 47.8864C132.171 47.5877 132.095 47.3747 131.946 47.2472C131.807 47.1198 131.54 47.0567 131.145 47.0582L122.857 47.0889C122.462 47.0904 122.191 47.1554 122.042 47.284C121.893 47.4125 121.819 47.6261 121.82 47.9248L121.822 48.3568C121.823 48.6341 121.733 48.8478 121.552 48.9978C121.371 49.1478 121.153 49.2233 120.897 49.2242ZM120.903 55.2402C120.637 55.3906 120.376 55.4395 120.12 55.3871C119.864 55.3348 119.66 55.1862 119.51 54.9414C119.371 54.6966 119.343 54.462 119.427 54.2377C119.512 54.0134 119.687 53.8314 119.953 53.6917C120.56 53.3802 121.183 53.0205 121.821 52.6128C122.46 52.1944 123.082 51.7601 123.689 51.3099C124.306 50.8489 124.864 50.3988 125.364 49.9597C125.874 49.4991 126.385 49.2679 126.897 49.266C127.42 49.264 127.943 49.4701 128.467 49.8842C128.96 50.2663 129.51 50.6643 130.12 51.078C130.74 51.4917 131.387 51.8893 132.06 52.2709C132.734 52.6524 133.391 52.9966 134.032 53.3036C134.278 53.42 134.455 53.6007 134.562 53.8456C134.67 54.0799 134.655 54.3253 134.517 54.5818C134.379 54.8489 134.167 55.0257 133.879 55.1121C133.602 55.1878 133.319 55.1515 133.03 55.0033C132.432 54.6748 131.807 54.3091 131.154 53.9062C130.502 53.5033 129.871 53.0896 129.262 52.6652C128.663 52.2301 128.123 51.8108 127.641 51.4072C127.395 51.1948 127.171 51.0943 126.968 51.1057C126.776 51.1064 126.558 51.2139 126.313 51.4282C125.835 51.8353 125.292 52.2693 124.686 52.7302C124.09 53.1804 123.468 53.6254 122.819 54.0651C122.17 54.4942 121.531 54.8859 120.903 55.2402ZM126.03 57.0452L128.078 57.0376C128.654 57.0355 129.027 56.9595 129.197 56.8095C129.378 56.6595 129.467 56.3712 129.466 55.9445C129.464 55.5072 129.373 55.2195 129.191 55.0815C129.019 54.9328 128.646 54.8595 128.07 54.8617L126.022 54.8693C125.435 54.8714 125.051 54.9475 124.871 55.0975C124.701 55.2368 124.616 55.5251 124.618 55.9625C124.62 56.3891 124.706 56.6768 124.877 56.8255C125.059 56.9742 125.443 57.0474 126.03 57.0452ZM122.599 50.9619C122.365 51.1121 122.115 51.1824 121.848 51.1727C121.592 51.163 121.373 51.0358 121.191 50.7911C121.062 50.6103 121.013 50.4025 121.044 50.1677C121.086 49.9222 121.213 49.7297 121.426 49.5903C121.863 49.3113 122.309 48.9896 122.767 48.6253C123.235 48.2609 123.633 47.9181 123.963 47.5968C124.144 47.4042 124.357 47.3074 124.602 47.3065C124.858 47.3055 125.077 47.3954 125.259 47.576C125.441 47.746 125.527 47.9484 125.517 48.1831C125.507 48.4071 125.417 48.6101 125.247 48.7921C124.854 49.1989 124.434 49.5844 123.988 49.9488C123.552 50.313 123.089 50.6508 122.599 50.9619ZM131.287 50.7537C131.019 50.584 130.715 50.3878 130.372 50.1651C130.03 49.9424 129.693 49.7143 129.362 49.4808C129.041 49.2367 128.763 49.0191 128.528 48.8279C128.335 48.6686 128.228 48.4717 128.205 48.2371C128.194 48.0025 128.268 47.7995 128.427 47.6283C128.576 47.4464 128.767 47.3497 129.002 47.3382C129.247 47.3159 129.461 47.3791 129.643 47.5278C129.889 47.7189 130.172 47.9258 130.493 48.1486C130.814 48.3608 131.135 48.5676 131.455 48.7691C131.787 48.9598 132.091 49.1241 132.369 49.2617C132.583 49.3676 132.711 49.5378 132.755 49.7723C132.809 50.0067 132.778 50.2308 132.662 50.4446C132.524 50.6905 132.322 50.8405 132.055 50.8949C131.789 50.9385 131.533 50.8915 131.287 50.7537Z" fill="black" fill-opacity="0.85"/>
</g>
<defs>
<radialGradient id="paint0_radial_1260_4411" cx="0" cy="0" r="1" gradientUnits="userSpaceOnUse" gradientTransform="translate(0.560609 46.8353) rotate(65.4889) scale(3.32531 8.21233)">
<stop offset="0.33" stop-opacity="0"/>
<stop offset="0.655" stop-opacity="0.6"/>
<stop offset="1"/>
</radialGradient>
<radialGradient id="paint1_radial_1260_4411" cx="0" cy="0" r="1" gradientUnits="userSpaceOnUse" gradientTransform="translate(355.3 45.8572) rotate(114.511) scale(3.32531 8.21233)">
<stop offset="0.33" stop-opacity="0"/>
<stop offset="0.655" stop-opacity="0.6"/>
<stop offset="1"/>
</radialGradient>
<clipPath id="clip0_1260_4411">
<rect width="200" height="90" fill="white"/>
</clipPath>
</defs>
</svg>
