<svg width="200" height="90" viewBox="0 0 200 90" fill="none" xmlns="http://www.w3.org/2000/svg">
<g clip-path="url(#clip0_2439_10134)">
<rect width="200" height="90" fill="#FEB79D"/>
<path fill-rule="evenodd" clip-rule="evenodd" d="M-6.18027 85.5257C-5.5206 81.3514 -9.94765 77.2571 -7.65473 73.2393C-4.94813 68.4966 -1.65241 61.9915 7.77154 61.0783C17.9972 60.0873 23.5998 68.8258 33.9785 69.2048C45.8176 69.6371 56.5881 60.196 66.8872 63.2371C76.2425 65.9996 70.121 74.0119 68.9752 79.5387C68.1676 83.4341 61.5364 86.4306 61.2669 90.3457C60.8502 96.3973 75.7689 103.853 67.0229 107.895C58.3557 111.9 45.7383 103.802 34.2527 102.83C27.3162 102.243 20.5655 103.925 13.6182 103.373C4.65786 102.66 -7.2514 103.227 -11.7526 99.1698C-16.3208 95.0519 -6.92748 90.2539 -6.18027 85.5257Z" fill="#FE585B"/>
<path fill-rule="evenodd" clip-rule="evenodd" d="M28.4743 10.5302C32.6486 10.8717 36.7429 8.58004 40.7607 9.76696C45.5034 11.168 52.0085 12.874 52.9217 17.7523C53.9127 23.0456 45.1742 25.9458 44.7952 31.3183C44.3629 37.4467 53.804 43.0221 50.7629 48.3534C48.0004 53.1961 39.9881 50.0274 34.4613 49.4342C30.5659 49.0162 27.5694 45.5836 23.6543 45.444C17.6027 45.2284 10.1469 52.9509 6.10508 48.4236C2.09968 43.9371 10.1975 37.4057 11.1701 31.4602C11.7575 27.8695 10.0747 24.3751 10.6274 20.7788C11.3402 16.1405 10.7727 9.97575 14.8302 7.64571C18.9481 5.281 23.7461 10.1434 28.4743 10.5302Z" fill="#FC7443"/>
<path fill-rule="evenodd" clip-rule="evenodd" d="M173.474 4.53021C177.649 4.87169 181.743 2.58004 185.761 3.76696C190.503 5.16803 197.008 6.87405 197.922 11.7523C198.913 17.0456 190.174 19.9458 189.795 25.3183C189.363 31.4467 198.804 37.0221 195.763 42.3534C193 47.1961 184.988 44.0274 179.461 43.4342C175.566 43.0162 172.569 39.5836 168.654 39.444C162.603 39.2284 155.147 46.9509 151.105 42.4236C147.1 37.9371 155.198 31.4057 156.17 25.4602C156.757 21.8695 155.075 18.3751 155.627 14.7788C156.34 10.1405 155.773 3.97575 159.83 1.64571C163.948 -0.719004 168.746 4.14342 173.474 4.53021Z" fill="#FF8787"/>
<path fill-rule="evenodd" clip-rule="evenodd" d="M117.063 7.20494C131.49 7.9797 144.155 11.9054 154.996 17.5775C166.733 23.7188 176.896 30.8598 179.688 39.9711C183.097 51.0949 184.354 63.7453 171.749 72.2549C158.691 81.0707 136.857 81.4742 117.063 82.2497C95.2362 83.1048 71.8992 84.7511 54.6033 76.8446C35.6156 68.1646 20.8565 53.9771 24.5773 39.9711C28.0889 26.7526 52.1053 19.9805 71.5388 13.0955C85.3864 8.18958 100.98 6.34119 117.063 7.20494Z" fill="#FFAB7A"/>
<ellipse cx="177.989" cy="70.7269" rx="16.7876" ry="14.0511" fill="#F55A57"/>
<ellipse cx="173.713" cy="65.6395" rx="1.21537" ry="2.15126" fill="black"/>
<ellipse cx="182.288" cy="65.6395" rx="1.21537" ry="2.15126" fill="black"/>
<path d="M173.043 72.6445C173.079 74.5722 175.312 76.0937 178.031 76.0428C180.749 75.9919 182.924 74.388 182.888 72.4603C182.852 70.5326 180.67 71.7825 177.952 71.8334C175.233 71.8843 173.007 70.7168 173.043 72.6445Z" fill="black"/>
<path d="M170.798 50.9035C173.679 48.6452 180.102 51.1915 180.102 55.0219C180.103 59.542 168.088 61.6232 165.803 61.9782C165.554 62.0169 165.305 62.044 165.056 62.039C163.427 62.0062 157.617 61.2375 170.798 50.9035Z" fill="#6E5232"/>
<path d="M170.798 50.9035C173.679 48.6452 180.102 51.1915 180.102 55.0219C180.103 59.542 168.088 61.6232 165.803 61.9782C165.554 62.0169 165.305 62.044 165.056 62.039C163.427 62.0062 157.617 61.2375 170.798 50.9035Z" fill="url(#paint0_radial_2439_10134)" fill-opacity="0.15"/>
<path d="M185.204 50.7629C182.323 48.5045 175.9 51.0509 175.9 54.8813C175.899 59.4014 187.914 61.4825 190.199 61.8375C190.448 61.8763 190.697 61.9034 190.946 61.8984C192.575 61.8656 198.385 61.0968 185.204 50.7629Z" fill="#6E5232"/>
<path d="M185.204 50.7629C182.323 48.5045 175.9 51.0509 175.9 54.8813C175.899 59.4014 187.914 61.4825 190.199 61.8375C190.448 61.8763 190.697 61.9034 190.946 61.8984C192.575 61.8656 198.385 61.0968 185.204 50.7629Z" fill="url(#paint1_radial_2439_10134)" fill-opacity="0.15"/>
<path d="M90.7992 35.4568C90.6326 35.4574 90.5495 35.5443 90.5502 35.7177L90.5541 36.7677L91.4541 36.7643L91.4492 35.4543L90.7992 35.4568ZM93.4492 35.4469L92.5392 35.4503L92.5441 36.7603L93.4541 36.7569L93.4492 35.4469ZM95.4602 35.6995C95.4595 35.5261 95.3759 35.4398 95.2092 35.4404L94.5392 35.4429L94.5441 36.7529L95.464 36.7495L95.4602 35.6995ZM96.1358 34.517C96.4558 34.5158 96.6164 34.6752 96.6176 34.9952L96.624 36.7452L97.114 36.7434C97.3874 36.7423 97.5247 36.9218 97.526 37.2818C97.5274 37.6485 97.3914 37.8323 97.1181 37.8333L88.9181 37.8637C88.6448 37.8648 88.5075 37.6819 88.5061 37.3153C88.5048 36.9553 88.6408 36.7748 88.9141 36.7738L89.4441 36.7718L89.4376 35.0218C89.4364 34.7018 89.5958 34.5412 89.9158 34.54L96.1358 34.517ZM94.6013 33.3026C94.7746 33.302 94.8609 33.215 94.8603 33.0417C94.8596 32.8417 94.7725 32.742 94.5992 32.7427L91.3792 32.7546C91.2059 32.7552 91.1195 32.8422 91.1202 33.0155C91.1209 33.2155 91.208 33.3152 91.3813 33.3146L94.6013 33.3026ZM90.0681 32.4594C90.0669 32.1394 90.223 31.9789 90.5363 31.9777L95.4963 31.9593C95.8163 31.9581 95.9769 32.1175 95.9781 32.4375L95.9823 33.5875C95.9835 33.9075 95.8274 34.0681 95.5141 34.0693L90.5541 34.0877C90.2341 34.0888 90.0736 33.9294 90.0724 33.6094L90.0681 32.4594ZM91.9718 30.7524L94.1118 30.7444C93.7176 30.5059 93.3433 30.2506 92.9889 29.9786C92.65 30.2665 92.3109 30.5245 91.9718 30.7524ZM92.6346 28.8199C92.8006 28.6393 93.0539 28.6317 93.3946 28.7971C93.7418 28.9558 93.8358 29.1255 93.6764 29.306C94.171 29.6375 94.8023 29.9719 95.5702 30.309C96.3448 30.6462 96.959 30.8772 97.4128 31.0022C97.6663 31.0679 97.6538 31.2747 97.3751 31.6224C97.103 31.9634 96.8368 32.0877 96.5764 31.9953C96.1492 31.8502 95.6049 31.5922 94.9436 31.2214C94.9444 31.448 94.8315 31.5618 94.6048 31.5626L91.3548 31.5747C91.1682 31.5754 91.0745 31.4824 91.0738 31.2957C90.4884 31.6312 89.936 31.8966 89.4167 32.0919C89.1371 32.1996 88.8734 32.0972 88.6256 31.7848C88.3777 31.4657 88.3837 31.2623 88.6433 31.1747C89.3425 30.9455 90.1078 30.586 90.9394 30.0962C91.7709 29.6064 92.336 29.181 92.6346 28.8199ZM106.401 30.4289C106.402 30.7022 106.226 30.8395 105.872 30.8409C105.519 30.8422 105.342 30.7062 105.341 30.4328L105.34 30.2928L105.05 30.2939C104.777 30.2949 104.64 30.1354 104.638 29.8154C104.637 29.4954 104.773 29.3349 105.047 29.3339L105.337 29.3328L105.336 29.0528C105.335 28.7795 105.511 28.6422 105.864 28.6409C106.217 28.6396 106.395 28.7756 106.396 29.0489L106.397 29.3289L107.157 29.3261C107.43 29.3251 107.567 29.4846 107.568 29.8046C107.57 30.1246 107.433 30.2851 107.16 30.2861L106.4 30.2889L106.401 30.4289ZM103.172 30.8509C102.826 30.8521 102.652 30.7161 102.651 30.4428L102.65 30.3128L102.06 30.315C101.787 30.316 101.65 30.1565 101.648 29.8365C101.647 29.5165 101.783 29.356 102.057 29.355L102.647 29.3528L102.646 29.0628C102.645 28.7895 102.817 28.6522 103.164 28.6509C103.517 28.6496 103.695 28.7856 103.696 29.0589L103.697 29.3489L103.997 29.3478C104.27 29.3468 104.407 29.5063 104.408 29.8263C104.41 30.1463 104.274 30.3068 104 30.3078L103.7 30.3089L103.701 30.4389C103.702 30.7122 103.526 30.8496 103.172 30.8509ZM101.772 33.5161C101.873 33.6757 101.803 33.8926 101.565 34.1668C101.326 34.4344 101.156 34.4417 101.055 34.1887L100.711 33.35L100.727 37.57C100.728 37.8433 100.549 37.9806 100.189 37.982C99.8286 37.9833 99.6481 37.8473 99.6471 37.574L99.6345 34.174C99.371 35.015 99.153 35.5691 98.9807 35.8364C98.8747 36.0235 98.7276 35.914 98.5395 35.5081C98.3513 35.1021 98.3202 34.8022 98.4461 34.6084C98.5788 34.4412 98.7641 34.0539 99.0018 33.4463C99.2396 32.8321 99.4306 32.2214 99.575 31.6142L98.895 31.6167C98.6217 31.6177 98.4844 31.4349 98.483 31.0682C98.4816 30.6949 98.6176 30.5077 98.8909 30.5067L99.6209 30.504L99.6155 29.054C99.6145 28.7807 99.794 28.6434 100.154 28.642C100.514 28.6407 100.695 28.7767 100.696 29.05L100.701 30.5L101.311 30.4978C101.584 30.4967 101.722 30.6829 101.723 31.0562C101.724 31.4229 101.588 31.6067 101.315 31.6078L100.705 31.61L100.706 31.79C100.84 31.9828 101.051 32.3187 101.339 32.7977C101.635 33.2699 101.779 33.5094 101.772 33.5161ZM103.17 33.0709L103.171 33.2509C103.172 33.4242 103.259 33.5106 103.432 33.5099L105.652 33.5017C105.825 33.501 105.912 33.4141 105.911 33.2407L105.91 33.0607L103.17 33.0709ZM103.426 31.8699C103.253 31.8706 103.166 31.9576 103.167 32.1309L103.168 32.3009L105.908 32.2907L105.907 32.1207C105.906 31.9474 105.819 31.8611 105.646 31.8617L103.426 31.8699ZM107.107 34.8963C107.381 34.8953 107.518 35.0581 107.519 35.3848C107.52 35.7114 107.384 35.8753 107.111 35.8763L105.431 35.8825C106.593 36.4382 107.304 36.8023 107.565 36.9746C107.712 37.0541 107.659 37.2309 107.407 37.5052C107.161 37.7861 106.958 37.8735 106.798 37.7675C106.464 37.542 105.959 37.2606 105.285 36.9231C104.784 36.6583 104.669 36.382 104.942 36.0943L105.151 35.8836L104.831 35.8847C104.633 36.3988 104.301 36.8267 103.836 37.1684C103.377 37.5101 102.874 37.742 102.328 37.864C102.015 37.9519 101.758 37.8362 101.557 37.5169C101.356 37.1976 101.428 36.9974 101.775 36.9161C102.567 36.7665 103.153 36.4243 103.531 35.8896L101.981 35.8953C101.708 35.8963 101.57 35.7335 101.569 35.4068C101.568 35.0802 101.704 34.9163 101.977 34.9153L103.907 34.9082L103.985 34.3379L102.555 34.3432C102.235 34.3444 102.075 34.185 102.073 33.865L102.065 31.535C102.064 31.215 102.223 31.0544 102.543 31.0532L106.573 31.0383C106.893 31.0371 107.054 31.1965 107.055 31.5165L107.063 33.8465C107.065 34.1665 106.905 34.327 106.585 34.3282L105.155 34.3335L105.087 34.9038L107.107 34.8963ZM116.474 28.7015C116.854 28.7001 117.045 28.8361 117.046 29.1094L117.06 32.9694C117.061 33.2561 117.029 33.4762 116.963 33.6298C116.897 33.7767 116.77 33.8905 116.584 33.9712C116.298 34.0989 115.955 34.1602 115.555 34.155C115.195 34.163 114.954 33.9939 114.833 33.6477C114.718 33.2948 114.874 33.1242 115.301 33.1359C115.634 33.1547 115.831 33.1373 115.891 33.0837C115.917 33.057 115.93 33.0136 115.93 32.9536L115.916 29.1136C115.915 28.8403 116.101 28.7029 116.474 28.7015ZM114.636 29.1684C115.003 29.167 115.187 29.303 115.188 29.5763L115.197 32.1363C115.198 32.4096 115.015 32.547 114.649 32.5483C114.289 32.5497 114.108 32.4137 114.107 32.1403L114.098 29.5804C114.097 29.307 114.276 29.1697 114.636 29.1684ZM110.793 31.0526L111.633 31.0495L111.629 29.9995L110.789 30.0026L110.793 31.0526ZM113.623 36.5222L117.093 36.5093C117.367 36.5083 117.504 36.6911 117.505 37.0578C117.507 37.4244 117.371 37.6083 117.097 37.6093L108.907 37.6397C108.634 37.6407 108.497 37.4578 108.495 37.0912C108.494 36.7245 108.63 36.5407 108.903 36.5397L112.403 36.5267L112.4 35.7267L109.91 35.7359C109.637 35.7369 109.5 35.5574 109.498 35.1974C109.497 34.8374 109.633 34.6569 109.906 34.6559L112.396 34.6467L112.395 34.2767C112.394 34.1034 112.307 34.017 112.134 34.0177C111.807 34.0189 111.643 33.8595 111.642 33.5395L111.637 32.0995L110.717 32.1029C110.527 33.0903 110.126 33.7451 109.514 34.0674C109.275 34.2216 109.025 34.1625 108.764 33.8902C108.503 33.6111 108.502 33.3911 108.761 33.2302C109.14 33.0621 109.416 32.6877 109.587 32.1071L108.987 32.1093C108.714 32.1103 108.576 31.9375 108.575 31.5908C108.574 31.2375 108.71 31.0603 108.983 31.0593L109.703 31.0567L109.699 30.0067L109.319 30.0081C109.046 30.0091 108.909 29.8363 108.907 29.4896C108.906 29.1429 109.042 28.9691 109.315 28.9681L113.035 28.9543C113.309 28.9533 113.446 29.1261 113.447 29.4728C113.448 29.8194 113.312 29.9933 113.039 29.9943L112.739 29.9954L112.743 31.0454L113.273 31.0434C113.546 31.0424 113.684 31.2186 113.685 31.5719C113.686 31.9186 113.55 32.0924 113.277 32.0934L112.747 32.0954L112.753 33.8454L113.133 33.844C113.453 33.8428 113.614 34.0022 113.615 34.3222L113.616 34.6422L116.096 34.633C116.37 34.632 116.507 34.8115 116.508 35.1715C116.51 35.5315 116.374 35.712 116.1 35.713L113.62 35.7222L113.623 36.5222Z" fill="#FE585B"/>
<path d="M94.6512 48.0415C94.6524 48.3722 94.7917 48.537 95.069 48.536L98.813 48.5221C99.0903 48.5211 99.2284 48.3552 99.2272 48.0245L94.6512 48.0415ZM94.6468 46.8415L94.6485 47.3055L99.2244 47.2886L99.2227 46.8246L94.6468 46.8415ZM95.0582 45.624C94.7809 45.625 94.6428 45.7802 94.644 46.0895L99.2199 46.0726C99.2188 45.7632 99.0795 45.6091 98.8022 45.6101L95.0582 45.624ZM91.8605 50.5479C91.8586 50.0359 92.1136 49.7789 92.6256 49.777L96.0656 49.7643L95.9039 49.3009L93.6479 49.3092C93.1466 49.3111 92.8949 49.056 92.8931 48.544L92.8823 45.632C92.8804 45.1201 93.1354 44.8631 93.6474 44.8612L95.5034 44.8543L95.6463 44.5498C95.8155 44.1545 96.2255 43.977 96.8763 44.0172C97.5378 44.0574 97.7412 44.2487 97.4864 44.591L97.2954 44.8477L100.287 44.8366C100.799 44.8347 101.056 45.0897 101.058 45.6017L101.069 48.5137C101.071 49.0257 100.816 49.2827 100.304 49.2846L97.8399 49.2937L98.0496 49.7569L101.458 49.7443C101.895 49.7427 102.114 49.8912 102.115 50.1899C102.116 50.4779 102.006 50.8089 101.783 51.1831L101.255 51.2811C100.69 51.2831 100.407 51.0815 100.405 50.6762L99.317 50.6802L99.319 51.2082C99.3196 51.3896 99.3521 51.5014 99.4162 51.5439L100.632 51.5874C101.208 51.5852 101.416 51.5791 101.256 51.5691C101.608 51.5037 101.801 51.6257 101.834 51.9349C101.877 52.2334 101.681 52.3888 101.243 52.4011L98.9397 52.4736C98.4703 52.4754 98.1606 52.3699 98.0105 52.1571C97.8604 51.9443 97.7845 51.6246 97.7829 51.1979L97.781 50.6859L96.757 50.6897C96.5139 51.2773 96.0995 51.7215 95.514 52.0223C94.9284 52.3125 94.2944 52.5015 93.6121 52.5894C93.079 52.666 92.6946 52.5501 92.4588 52.2417C92.2229 51.9332 92.3662 51.746 92.8887 51.6801C93.2406 51.6574 93.6349 51.5653 94.0717 51.4037L95.013 50.6962L93.5091 50.7018L93.5092 50.7498C93.5109 51.1871 93.2343 51.4068 92.6797 51.4088C92.1357 51.4109 91.8629 51.1932 91.8612 50.7559L91.8605 50.5479ZM91.0752 45.8947C91.3538 46.2244 91.243 46.5608 90.743 46.904C90.2535 47.2365 89.8802 47.2325 89.6229 46.8921L88.4652 45.3604C88.2079 45.0094 88.3134 44.6943 88.7817 44.4152C89.2607 44.1361 89.6395 44.1614 89.918 44.491L91.0752 45.8947ZM98.8537 55.194L96.2298 55.2037C95.9524 55.2047 95.7394 55.2962 95.5908 55.4781C95.2938 55.9485 94.538 56.3567 93.3233 56.7025C94.0707 56.9024 95.3511 56.999 97.1644 56.9923C98.9884 56.9855 100.609 56.9102 102.028 56.7662C102.475 56.7219 102.599 56.9934 102.399 57.5809C102.198 58.1683 101.885 58.4734 101.458 58.4964C100.221 58.5756 98.6904 58.6186 96.8664 58.6254C95.0531 58.6321 93.682 58.4985 92.7529 58.2246C91.8346 57.9613 91.086 57.4361 90.5071 56.6489C90.0413 57.6 89.5956 58.2257 89.17 58.5259C88.8511 58.8151 88.4829 58.7524 88.0653 58.338C87.6478 57.9235 87.5879 57.5931 87.8856 57.3466C88.8537 56.6497 89.5211 55.3992 89.8878 53.5952C89.9717 53.2216 89.875 53.0352 89.5977 53.0363L89.0697 53.0382L88.6218 53.0719C88.2703 53.2119 87.9923 53.0316 87.7878 52.531C87.5832 52.0197 87.6726 51.6674 88.0559 51.474L88.2471 51.2653C88.4702 51.0084 88.8096 50.5058 89.2655 49.7575C89.4882 49.394 89.4608 49.2128 89.1835 49.2138L88.3355 49.2169C87.8982 49.2185 87.6786 48.9687 87.6767 48.4674C87.6748 47.9554 87.8925 47.6986 88.3299 47.6969L90.6019 47.6885L90.7777 47.6399C91.2147 47.5636 91.5296 47.6104 91.7222 47.7804C91.9255 47.9396 91.8628 48.2918 91.5341 48.8371C90.7708 50.0986 90.2035 51.0073 89.8322 51.5634L90.3921 51.5293C90.8294 51.517 91.1816 51.5691 91.4487 51.6854C91.7157 51.7911 91.8181 52.0787 91.7559 52.5483C91.6839 53.2632 91.4843 54.096 91.1571 55.0465C91.5545 55.7704 92.1591 56.2801 92.9708 56.5758L92.7779 56.3205C92.392 55.8099 92.4973 55.4469 93.0938 55.2313L94.0046 54.908C94.3983 54.6292 94.6636 54.2708 94.8007 53.833L92.6087 53.8411C92.1714 53.8427 91.9521 53.6729 91.9508 53.3316C91.9495 52.9796 92.1675 52.8027 92.6048 52.8011L96.1088 52.7881L96.0766 52.7403C95.9045 52.3356 96.0742 52.0789 96.5858 51.9704C97.108 51.8511 97.4712 51.9831 97.6753 52.3663L97.8848 52.7816L101.405 52.7685C101.842 52.7669 102.061 52.9421 102.063 53.2941C102.064 53.6354 101.846 53.8069 101.409 53.8085L96.4007 53.8271L96.3061 54.2114L99.8421 54.1983C100.375 54.1963 100.606 54.5155 100.534 55.1558C100.429 55.7641 100.228 56.1809 99.9302 56.406C99.5368 56.7275 98.9185 56.8471 98.0756 56.7649C97.4461 56.7245 97.0774 56.5339 96.9694 56.193C96.8722 55.852 97.0423 55.702 97.4798 55.7431L97.9438 55.7414C98.3171 55.74 98.5463 55.7018 98.6313 55.6268L98.8537 55.194ZM106.453 46.4298C106.176 46.4308 106.038 46.57 106.039 46.8473L106.043 48.0153C106.044 48.2926 106.183 48.4308 106.461 48.4297L107.869 48.4245C108.146 48.4235 108.284 48.2843 108.283 48.007L108.279 46.839C108.278 46.5617 108.139 46.4235 107.861 46.4245L106.453 46.4298ZM115.861 50.6669C115.86 50.3896 115.721 50.2514 115.444 50.2525L112.996 50.2615L113.004 52.6295L115.452 52.6204C115.73 52.6194 115.868 52.4802 115.867 52.2029L115.861 50.6669ZM113.019 56.4535L117.85 56.4356C118.288 56.434 118.508 56.7371 118.51 57.3451C118.512 57.9425 118.295 58.2419 117.857 58.2436L111.025 58.2689C110.513 58.2708 110.256 58.0157 110.254 57.5037L110.253 57.1677C110.252 56.8904 110.108 56.7843 109.82 56.8493C108.136 57.2396 106.362 57.6355 104.496 58.0371C104.038 58.1455 103.749 57.8959 103.63 57.2883C103.521 56.6807 103.685 56.3441 104.122 56.2785L104.41 56.2134L104.393 51.7014C104.391 51.2641 104.63 51.0445 105.11 51.0428C105.59 51.041 105.831 51.2588 105.833 51.6961L105.849 55.9361L106.584 55.7893L106.563 50.0614L105.171 50.0665C104.659 50.0684 104.402 49.8134 104.4 49.3014L104.386 45.5734C104.384 45.0614 104.639 44.8045 105.151 44.8026L109.247 44.7874C109.759 44.7855 110.016 45.0405 110.018 45.5525L110.032 49.2805C110.034 49.7925 109.779 50.0495 109.267 50.0513L108.211 50.0553L108.217 51.6873L109.449 51.6827C109.886 51.6811 110.106 51.9576 110.108 52.5122C110.11 53.0669 109.892 53.3451 109.455 53.3467L108.223 53.3512L108.231 55.4472L109.462 55.1867C109.984 55.0781 110.268 55.2903 110.312 55.8235L110.345 56.0474C110.367 56.3246 110.517 56.4628 110.795 56.4617L111.147 56.4604L111.111 46.7805L110.999 46.7809C110.561 46.7825 110.342 46.4847 110.339 45.8873C110.337 45.29 110.555 44.9905 110.992 44.9889L117.6 44.9644C118.037 44.9628 118.257 45.2607 118.259 45.858C118.261 46.4553 118.044 46.7548 117.607 46.7564L112.983 46.7736L112.989 48.5175L116.941 48.5029C117.453 48.501 117.71 48.7507 117.712 49.252L117.728 53.604C117.73 54.116 117.475 54.373 116.963 54.3749L113.011 54.3895L113.019 56.4535Z" fill="black" fill-opacity="0.85"/>
</g>
<defs>
<radialGradient id="paint0_radial_2439_10134" cx="0" cy="0" r="1" gradientUnits="userSpaceOnUse" gradientTransform="translate(0.560609 46.8353) rotate(65.4889) scale(3.32531 8.21233)">
<stop offset="0.33" stop-opacity="0"/>
<stop offset="0.655" stop-opacity="0.6"/>
<stop offset="1"/>
</radialGradient>
<radialGradient id="paint1_radial_2439_10134" cx="0" cy="0" r="1" gradientUnits="userSpaceOnUse" gradientTransform="translate(355.3 45.8572) rotate(114.511) scale(3.32531 8.21233)">
<stop offset="0.33" stop-opacity="0"/>
<stop offset="0.655" stop-opacity="0.6"/>
<stop offset="1"/>
</radialGradient>
<clipPath id="clip0_2439_10134">
<rect width="200" height="90" fill="white"/>
</clipPath>
</defs>
</svg>
