<svg width="1441" height="971" viewBox="0 0 1441 971" fill="none" xmlns="http://www.w3.org/2000/svg">
<path d="M0.625 970.898L661.433 151.301H791.318L1440.63 970.898H0.625Z" fill="#FFEEB0"/>
<path d="M200.539 970.431L667.814 150.406H785.279L1234.45 970.431H200.539Z" fill="#FEF5D3"/>
<path d="M383.137 970.43L689.479 150.871H779.001L1062.2 970.43H383.137Z" fill="#FFFBEB"/>
<path fill-rule="evenodd" clip-rule="evenodd" d="M713.61 36.6358C710.082 39.764 707.182 45.25 707.162 54.2194L696.813 54.1989C696.837 43.1022 700.498 34.7138 706.599 29.3027C712.658 23.9301 720.55 22.0104 727.978 22.7787C742.736 24.305 757.024 36.7879 753.373 55.8985L743.195 54.0947C745.565 41.6878 736.747 33.7109 726.873 32.6898C721.986 32.1844 717.181 33.4691 713.61 36.6358Z" fill="black"/>
<path d="M679.156 61.8721C681.919 53.728 689.775 48.1945 698.67 48.1275L748.373 47.7534C757.284 47.6864 765.239 53.1199 768.121 61.2416L792.626 130.3C797.194 143.174 787.326 156.577 773.201 156.683L675.447 157.419C661.303 157.525 651.218 144.242 655.61 131.292L679.156 61.8721Z" fill="black"/>
<path fill-rule="evenodd" clip-rule="evenodd" d="M677.967 131.638C680.256 133.287 680.723 136.41 679.011 138.614L642.99 184.994C641.278 187.198 638.035 187.648 635.747 186C633.458 184.351 632.991 181.227 634.703 179.023L670.724 132.644C672.436 130.44 675.679 129.989 677.967 131.638Z" fill="black"/>
<path fill-rule="evenodd" clip-rule="evenodd" d="M766.237 133.082C764.235 135.047 764.265 138.202 766.305 140.13L809.22 180.705C811.259 182.633 814.536 182.604 816.538 180.639C818.54 178.675 818.509 175.519 816.47 173.591L773.555 133.017C771.515 131.089 768.239 131.118 766.237 133.082Z" fill="black"/>
<path d="M731.557 1.65531C737.273 1.6321 741.921 6.07611 741.939 11.5813L741.993 28.2361C742.01 33.7413 737.391 38.2229 731.676 38.2461L719.327 38.2963C713.611 38.3195 708.963 33.8755 708.945 28.3703L708.891 11.7155C708.873 6.21032 713.492 1.72868 719.208 1.70546L731.557 1.65531Z" fill="black"/>
</svg>
